<?xml version="1.0" encoding="utf-8" standalone="no"?>
<!DOCTYPE svg PUBLIC "-//W3C//DTD SVG 1.1//EN"
  "http://www.w3.org/Graphics/SVG/1.1/DTD/svg11.dtd">
<svg xmlns:xlink="http://www.w3.org/1999/xlink" width="648pt" height="648pt" viewBox="0 0 648 648" xmlns="http://www.w3.org/2000/svg" version="1.1">
 <metadata>
  <rdf:RDF xmlns:dc="http://purl.org/dc/elements/1.1/" xmlns:cc="http://creativecommons.org/ns#" xmlns:rdf="http://www.w3.org/1999/02/22-rdf-syntax-ns#">
   <cc:Work>
    <dc:type rdf:resource="http://purl.org/dc/dcmitype/StillImage"/>
    <dc:date>2024-08-10T16:08:52.692245</dc:date>
    <dc:format>image/svg+xml</dc:format>
    <dc:creator>
     <cc:Agent>
      <dc:title>Matplotlib v3.8.3, https://matplotlib.org/</dc:title>
     </cc:Agent>
    </dc:creator>
   </cc:Work>
  </rdf:RDF>
 </metadata>
 <defs>
  <style type="text/css">*{stroke-linejoin: round; stroke-linecap: butt}</style>
 </defs>
 <g id="figure_1">
  <g id="patch_1">
   <path d="M 0 648 
L 648 648 
L 648 0 
L 0 0 
z
" style="fill: #ffffff"/>
  </g>
  <g id="patch_2">
   <path d="M 42.12 623.7 
L 622.08 623.7 
L 622.08 43.74 
L 42.12 43.74 
z
" style="fill: #ffffff"/>
  </g>
  <g id="pane3d_1">
   <g id="patch_3">
    <path d="M 591.641981 489.247539 
L 418.721639 359.160244 
L 421.214465 114.703421 
L 600.431072 224.014277 
" style="fill: #ffffff; stroke: #ffffff; stroke-linejoin: miter"/>
   </g>
  </g>
  <g id="pane3d_2">
   <g id="patch_4">
    <path d="M 100.507323 419.513941 
L 418.721639 359.160244 
L 421.214465 114.703421 
L 92.568072 165.331726 
" style="fill: #ffffff; stroke: #ffffff; stroke-linejoin: miter"/>
   </g>
  </g>
  <g id="pane3d_3">
   <g id="patch_5">
    <path d="M 248.820944 562.626756 
L 591.641981 489.247539 
L 418.721639 359.160244 
L 100.507323 419.513941 
" style="fill: #ffffff; stroke: #ffffff; stroke-linejoin: miter"/>
   </g>
  </g>
  <g id="grid3d_1">
   <g id="Line3DCollection_1">
    <path d="M 337.770229 543.587584 
L 182.78763 403.908355 
L 177.638453 152.226549 
" style="fill: none; stroke: #bdc3c7; stroke-width: 0.5"/>
    <path d="M 421.079279 525.755676 
L 260.03093 389.258107 
L 257.442163 139.932708 
" style="fill: none; stroke: #bdc3c7; stroke-width: 0.5"/>
    <path d="M 502.410388 508.347138 
L 335.609162 374.923662 
L 335.470501 127.912364 
" style="fill: none; stroke: #bdc3c7; stroke-width: 0.5"/>
    <path d="M 581.833169 491.347068 
L 409.575593 360.894916 
L 411.782061 116.156492 
" style="fill: none; stroke: #bdc3c7; stroke-width: 0.5"/>
   </g>
  </g>
  <g id="grid3d_2">
   <g id="Line3DCollection_2">
    <path d="M 590.155944 217.747095 
L 581.757439 481.811437 
L 240.305675 554.410087 
" style="fill: none; stroke: #bdc3c7; stroke-width: 0.5"/>
    <path d="M 553.318645 195.27866 
L 546.290907 455.130103 
L 209.789568 524.964066 
" style="fill: none; stroke: #bdc3c7; stroke-width: 0.5"/>
    <path d="M 517.883092 173.665202 
L 512.130329 429.431234 
L 180.452262 496.65551 
" style="fill: none; stroke: #bdc3c7; stroke-width: 0.5"/>
    <path d="M 483.770769 152.858831 
L 479.204877 404.661546 
L 152.226748 469.419759 
" style="fill: none; stroke: #bdc3c7; stroke-width: 0.5"/>
    <path d="M 450.908917 132.815169 
L 447.448755 380.77154 
L 125.051 443.196963 
" style="fill: none; stroke: #bdc3c7; stroke-width: 0.5"/>
   </g>
  </g>
  <g id="grid3d_3">
   <g id="Line3DCollection_3">
    <path d="M 99.727971 394.562312 
L 418.96667 335.131466 
L 592.503434 463.251013 
" style="fill: none; stroke: #bdc3c7; stroke-width: 0.5"/>
    <path d="M 97.857223 334.668615 
L 419.554553 277.481285 
L 594.572431 400.813726 
" style="fill: none; stroke: #bdc3c7; stroke-width: 0.5"/>
    <path d="M 95.957107 273.834692 
L 420.151247 218.966982 
L 596.675607 337.345028 
" style="fill: none; stroke: #bdc3c7; stroke-width: 0.5"/>
    <path d="M 94.026926 212.038228 
L 420.756953 159.568982 
L 598.813814 272.819151 
" style="fill: none; stroke: #bdc3c7; stroke-width: 0.5"/>
   </g>
  </g>
  <g id="axis3d_1">
   <g id="line2d_1">
    <path d="M 591.641981 489.247539 
L 248.820944 562.626756 
" style="fill: none; stroke: #000000; stroke-width: 0.8; stroke-linecap: square"/>
   </g>
   <g id="xtick_1">
    <g id="line2d_2">
     <path d="M 336.402707 542.355094 
L 340.512102 546.058717 
" style="fill: none; stroke: #000000; stroke-width: 0.8; stroke-linecap: square"/>
    </g>
    <g id="text_1">
     <!-- 70 -->
     <g transform="translate(332.267175 562.54584) scale(0.14 -0.14)">
      <defs>
       <path id="DejaVuSans-37" d="M 525 4666 
L 3525 4666 
L 3525 4397 
L 1831 0 
L 1172 0 
L 2766 4134 
L 525 4134 
L 525 4666 
z
" transform="scale(0.015625)"/>
       <path id="DejaVuSans-30" d="M 2034 4250 
Q 1547 4250 1301 3770 
Q 1056 3291 1056 2328 
Q 1056 1369 1301 889 
Q 1547 409 2034 409 
Q 2525 409 2770 889 
Q 3016 1369 3016 2328 
Q 3016 3291 2770 3770 
Q 2525 4250 2034 4250 
z
M 2034 4750 
Q 2819 4750 3233 4129 
Q 3647 3509 3647 2328 
Q 3647 1150 3233 529 
Q 2819 -91 2034 -91 
Q 1250 -91 836 529 
Q 422 1150 422 2328 
Q 422 3509 836 4129 
Q 1250 4750 2034 4750 
z
" transform="scale(0.015625)"/>
      </defs>
      <use xlink:href="#DejaVuSans-37"/>
      <use xlink:href="#DejaVuSans-30" x="63.623047"/>
     </g>
    </g>
   </g>
   <g id="xtick_2">
    <g id="line2d_3">
     <path d="M 419.659828 524.552611 
L 423.925187 528.167744 
" style="fill: none; stroke: #000000; stroke-width: 0.8; stroke-linecap: square"/>
    </g>
    <g id="text_2">
     <!-- 190 -->
     <g transform="translate(411.19425 544.589709) scale(0.14 -0.14)">
      <defs>
       <path id="DejaVuSans-31" d="M 794 531 
L 1825 531 
L 1825 4091 
L 703 3866 
L 703 4441 
L 1819 4666 
L 2450 4666 
L 2450 531 
L 3481 531 
L 3481 0 
L 794 0 
L 794 531 
z
" transform="scale(0.015625)"/>
       <path id="DejaVuSans-39" d="M 703 97 
L 703 672 
Q 941 559 1184 500 
Q 1428 441 1663 441 
Q 2288 441 2617 861 
Q 2947 1281 2994 2138 
Q 2813 1869 2534 1725 
Q 2256 1581 1919 1581 
Q 1219 1581 811 2004 
Q 403 2428 403 3163 
Q 403 3881 828 4315 
Q 1253 4750 1959 4750 
Q 2769 4750 3195 4129 
Q 3622 3509 3622 2328 
Q 3622 1225 3098 567 
Q 2575 -91 1691 -91 
Q 1453 -91 1209 -44 
Q 966 3 703 97 
z
M 1959 2075 
Q 2384 2075 2632 2365 
Q 2881 2656 2881 3163 
Q 2881 3666 2632 3958 
Q 2384 4250 1959 4250 
Q 1534 4250 1286 3958 
Q 1038 3666 1038 3163 
Q 1038 2656 1286 2365 
Q 1534 2075 1959 2075 
z
" transform="scale(0.015625)"/>
      </defs>
      <use xlink:href="#DejaVuSans-31"/>
      <use xlink:href="#DejaVuSans-39" x="63.623047"/>
      <use xlink:href="#DejaVuSans-30" x="127.246094"/>
     </g>
    </g>
   </g>
   <g id="xtick_3">
    <g id="line2d_4">
     <path d="M 500.941842 507.172455 
L 505.354641 510.702231 
" style="fill: none; stroke: #000000; stroke-width: 0.8; stroke-linecap: square"/>
    </g>
    <g id="text_3">
     <!-- 310 -->
     <g transform="translate(492.592783 527.060466) scale(0.14 -0.14)">
      <defs>
       <path id="DejaVuSans-33" d="M 2597 2516 
Q 3050 2419 3304 2112 
Q 3559 1806 3559 1356 
Q 3559 666 3084 287 
Q 2609 -91 1734 -91 
Q 1441 -91 1130 -33 
Q 819 25 488 141 
L 488 750 
Q 750 597 1062 519 
Q 1375 441 1716 441 
Q 2309 441 2620 675 
Q 2931 909 2931 1356 
Q 2931 1769 2642 2001 
Q 2353 2234 1838 2234 
L 1294 2234 
L 1294 2753 
L 1863 2753 
Q 2328 2753 2575 2939 
Q 2822 3125 2822 3475 
Q 2822 3834 2567 4026 
Q 2313 4219 1838 4219 
Q 1578 4219 1281 4162 
Q 984 4106 628 3988 
L 628 4550 
Q 988 4650 1302 4700 
Q 1616 4750 1894 4750 
Q 2613 4750 3031 4423 
Q 3450 4097 3450 3541 
Q 3450 3153 3228 2886 
Q 3006 2619 2597 2516 
z
" transform="scale(0.015625)"/>
      </defs>
      <use xlink:href="#DejaVuSans-33"/>
      <use xlink:href="#DejaVuSans-31" x="63.623047"/>
      <use xlink:href="#DejaVuSans-30" x="127.246094"/>
     </g>
    </g>
   </g>
   <g id="xtick_4">
    <g id="line2d_5">
     <path d="M 580.318208 490.199775 
L 584.870391 493.647183 
" style="fill: none; stroke: #000000; stroke-width: 0.8; stroke-linecap: square"/>
    </g>
    <g id="text_4">
     <!-- 430 -->
     <g transform="translate(572.078882 509.943067) scale(0.14 -0.14)">
      <defs>
       <path id="DejaVuSans-34" d="M 2419 4116 
L 825 1625 
L 2419 1625 
L 2419 4116 
z
M 2253 4666 
L 3047 4666 
L 3047 1625 
L 3713 1625 
L 3713 1100 
L 3047 1100 
L 3047 0 
L 2419 0 
L 2419 1100 
L 313 1100 
L 313 1709 
L 2253 4666 
z
" transform="scale(0.015625)"/>
      </defs>
      <use xlink:href="#DejaVuSans-34"/>
      <use xlink:href="#DejaVuSans-33" x="63.623047"/>
      <use xlink:href="#DejaVuSans-30" x="127.246094"/>
     </g>
    </g>
   </g>
   <g id="text_5">
    <!-- X (m) -->
    <g transform="translate(418.135916 566.696647) rotate(-12.081584) scale(0.18 -0.18)">
     <defs>
      <path id="TimesNewRomanPSMT-58" d="M 2613 2347 
L 3522 991 
Q 3900 428 4083 279 
Q 4266 131 4547 116 
L 4547 0 
L 2728 0 
L 2728 116 
Q 2909 119 2997 153 
Q 3063 181 3105 239 
Q 3147 297 3147 356 
Q 3147 428 3119 500 
Q 3097 553 2947 775 
L 2228 1863 
L 1341 725 
Q 1200 544 1172 483 
Q 1144 422 1144 356 
Q 1144 256 1228 190 
Q 1313 125 1550 116 
L 1550 0 
L 47 0 
L 47 116 
Q 206 131 322 181 
Q 516 263 691 400 
Q 866 538 1091 822 
L 2091 2084 
L 1256 3306 
Q 916 3803 678 3958 
Q 441 4113 131 4122 
L 131 4238 
L 2091 4238 
L 2091 4122 
Q 1841 4113 1748 4041 
Q 1656 3969 1656 3881 
Q 1656 3766 1806 3544 
L 2456 2572 
L 3209 3525 
Q 3341 3694 3370 3756 
Q 3400 3819 3400 3884 
Q 3400 3950 3363 4000 
Q 3316 4066 3244 4092 
Q 3172 4119 2947 4122 
L 2947 4238 
L 4450 4238 
L 4450 4122 
Q 4272 4113 4159 4066 
Q 3991 3994 3850 3872 
Q 3709 3750 3453 3422 
L 2613 2347 
z
" transform="scale(0.015625)"/>
      <path id="TimesNewRomanPSMT-20" transform="scale(0.015625)"/>
      <path id="TimesNewRomanPSMT-28" d="M 1988 -1253 
L 1988 -1369 
Q 1516 -1131 1200 -813 
Q 750 -359 506 256 
Q 263 872 263 1534 
Q 263 2503 741 3301 
Q 1219 4100 1988 4444 
L 1988 4313 
Q 1603 4100 1356 3731 
Q 1109 3363 987 2797 
Q 866 2231 866 1616 
Q 866 947 969 400 
Q 1050 -31 1165 -292 
Q 1281 -553 1476 -793 
Q 1672 -1034 1988 -1253 
z
" transform="scale(0.015625)"/>
      <path id="TimesNewRomanPSMT-6d" d="M 1050 2338 
Q 1363 2650 1419 2697 
Q 1559 2816 1721 2881 
Q 1884 2947 2044 2947 
Q 2313 2947 2506 2790 
Q 2700 2634 2766 2338 
Q 3088 2713 3309 2830 
Q 3531 2947 3766 2947 
Q 3994 2947 4170 2830 
Q 4347 2713 4450 2447 
Q 4519 2266 4519 1878 
L 4519 647 
Q 4519 378 4559 278 
Q 4591 209 4675 161 
Q 4759 113 4950 113 
L 4950 0 
L 3538 0 
L 3538 113 
L 3597 113 
Q 3781 113 3884 184 
Q 3956 234 3988 344 
Q 4000 397 4000 647 
L 4000 1878 
Q 4000 2228 3916 2372 
Q 3794 2572 3525 2572 
Q 3359 2572 3192 2489 
Q 3025 2406 2788 2181 
L 2781 2147 
L 2788 2013 
L 2788 647 
Q 2788 353 2820 281 
Q 2853 209 2943 161 
Q 3034 113 3253 113 
L 3253 0 
L 1806 0 
L 1806 113 
Q 2044 113 2133 169 
Q 2222 225 2256 338 
Q 2272 391 2272 647 
L 2272 1878 
Q 2272 2228 2169 2381 
Q 2031 2581 1784 2581 
Q 1616 2581 1450 2491 
Q 1191 2353 1050 2181 
L 1050 647 
Q 1050 366 1089 281 
Q 1128 197 1204 155 
Q 1281 113 1516 113 
L 1516 0 
L 100 0 
L 100 113 
Q 297 113 375 155 
Q 453 197 493 289 
Q 534 381 534 647 
L 534 1741 
Q 534 2213 506 2350 
Q 484 2453 437 2492 
Q 391 2531 309 2531 
Q 222 2531 100 2484 
L 53 2597 
L 916 2947 
L 1050 2947 
L 1050 2338 
z
" transform="scale(0.015625)"/>
      <path id="TimesNewRomanPSMT-29" d="M 144 4313 
L 144 4444 
Q 619 4209 934 3891 
Q 1381 3434 1625 2820 
Q 1869 2206 1869 1541 
Q 1869 572 1392 -226 
Q 916 -1025 144 -1369 
L 144 -1253 
Q 528 -1038 776 -670 
Q 1025 -303 1145 264 
Q 1266 831 1266 1447 
Q 1266 2113 1163 2663 
Q 1084 3094 967 3353 
Q 850 3613 656 3853 
Q 463 4094 144 4313 
z
" transform="scale(0.015625)"/>
     </defs>
     <use xlink:href="#TimesNewRomanPSMT-58"/>
     <use xlink:href="#TimesNewRomanPSMT-20" x="72.216797"/>
     <use xlink:href="#TimesNewRomanPSMT-28" x="97.216797"/>
     <use xlink:href="#TimesNewRomanPSMT-6d" x="130.517578"/>
     <use xlink:href="#TimesNewRomanPSMT-29" x="208.300781"/>
    </g>
   </g>
  </g>
  <g id="axis3d_2">
   <g id="line2d_6">
    <path d="M 100.507323 419.513941 
L 248.820944 562.626756 
" style="fill: none; stroke: #000000; stroke-width: 0.8; stroke-linecap: square"/>
   </g>
   <g id="xtick_5">
    <g id="line2d_7">
     <path d="M 243.175526 553.799906 
L 234.558937 555.631944 
" style="fill: none; stroke: #000000; stroke-width: 0.8; stroke-linecap: square"/>
    </g>
    <g id="text_6">
     <!-- −250 -->
     <g transform="translate(207.541284 578.074981) scale(0.14 -0.14)">
      <defs>
       <path id="DejaVuSans-2212" d="M 678 2272 
L 4684 2272 
L 4684 1741 
L 678 1741 
L 678 2272 
z
" transform="scale(0.015625)"/>
       <path id="DejaVuSans-32" d="M 1228 531 
L 3431 531 
L 3431 0 
L 469 0 
L 469 531 
Q 828 903 1448 1529 
Q 2069 2156 2228 2338 
Q 2531 2678 2651 2914 
Q 2772 3150 2772 3378 
Q 2772 3750 2511 3984 
Q 2250 4219 1831 4219 
Q 1534 4219 1204 4116 
Q 875 4013 500 3803 
L 500 4441 
Q 881 4594 1212 4672 
Q 1544 4750 1819 4750 
Q 2544 4750 2975 4387 
Q 3406 4025 3406 3419 
Q 3406 3131 3298 2873 
Q 3191 2616 2906 2266 
Q 2828 2175 2409 1742 
Q 1991 1309 1228 531 
z
" transform="scale(0.015625)"/>
       <path id="DejaVuSans-35" d="M 691 4666 
L 3169 4666 
L 3169 4134 
L 1269 4134 
L 1269 2991 
Q 1406 3038 1543 3061 
Q 1681 3084 1819 3084 
Q 2600 3084 3056 2656 
Q 3513 2228 3513 1497 
Q 3513 744 3044 326 
Q 2575 -91 1722 -91 
Q 1428 -91 1123 -41 
Q 819 9 494 109 
L 494 744 
Q 775 591 1075 516 
Q 1375 441 1709 441 
Q 2250 441 2565 725 
Q 2881 1009 2881 1497 
Q 2881 1984 2565 2268 
Q 2250 2553 1709 2553 
Q 1456 2553 1204 2497 
Q 953 2441 691 2322 
L 691 4666 
z
" transform="scale(0.015625)"/>
      </defs>
      <use xlink:href="#DejaVuSans-2212"/>
      <use xlink:href="#DejaVuSans-32" x="83.789062"/>
      <use xlink:href="#DejaVuSans-35" x="147.412109"/>
      <use xlink:href="#DejaVuSans-30" x="211.035156"/>
     </g>
    </g>
   </g>
   <g id="xtick_6">
    <g id="line2d_8">
     <path d="M 212.61513 524.377679 
L 204.131654 526.13825 
" style="fill: none; stroke: #000000; stroke-width: 0.8; stroke-linecap: square"/>
    </g>
    <g id="text_7">
     <!-- −130 -->
     <g transform="translate(177.273993 548.354916) scale(0.14 -0.14)">
      <use xlink:href="#DejaVuSans-2212"/>
      <use xlink:href="#DejaVuSans-31" x="83.789062"/>
      <use xlink:href="#DejaVuSans-33" x="147.412109"/>
      <use xlink:href="#DejaVuSans-30" x="211.035156"/>
     </g>
    </g>
   </g>
   <g id="xtick_7">
    <g id="line2d_9">
     <path d="M 183.234782 496.091551 
L 174.880665 497.784757 
" style="fill: none; stroke: #000000; stroke-width: 0.8; stroke-linecap: square"/>
    </g>
    <g id="text_8">
     <!-- −10 -->
     <g transform="translate(152.630315 519.783564) scale(0.14 -0.14)">
      <use xlink:href="#DejaVuSans-2212"/>
      <use xlink:href="#DejaVuSans-31" x="83.789062"/>
      <use xlink:href="#DejaVuSans-30" x="147.412109"/>
     </g>
    </g>
   </g>
   <g id="xtick_8">
    <g id="line2d_10">
     <path d="M 154.967428 468.876966 
L 146.73905 470.506601 
" style="fill: none; stroke: #000000; stroke-width: 0.8; stroke-linecap: square"/>
    </g>
    <g id="text_9">
     <!-- 110 -->
     <g transform="translate(126.048244 492.29559) scale(0.14 -0.14)">
      <use xlink:href="#DejaVuSans-31"/>
      <use xlink:href="#DejaVuSans-31" x="63.623047"/>
      <use xlink:href="#DejaVuSans-30" x="127.246094"/>
     </g>
    </g>
   </g>
   <g id="xtick_9">
    <g id="line2d_11">
     <path d="M 127.751 442.674166 
L 119.644874 444.243744 
" style="fill: none; stroke: #000000; stroke-width: 0.8; stroke-linecap: square"/>
    </g>
    <g id="text_10">
     <!-- 230 -->
     <g transform="translate(99.09588 465.830519) scale(0.14 -0.14)">
      <use xlink:href="#DejaVuSans-32"/>
      <use xlink:href="#DejaVuSans-33" x="63.623047"/>
      <use xlink:href="#DejaVuSans-30" x="127.246094"/>
     </g>
    </g>
   </g>
   <g id="text_11">
    <!-- Y (m) -->
    <g transform="translate(117.552335 509.215122) rotate(-316.022394) scale(0.18 -0.18)">
     <defs>
      <path id="TimesNewRomanPSMT-59" d="M 3050 4238 
L 4528 4238 
L 4528 4122 
L 4447 4122 
Q 4366 4122 4209 4050 
Q 4053 3978 3925 3843 
Q 3797 3709 3609 3406 
L 2588 1797 
L 2588 734 
Q 2588 344 2675 247 
Q 2794 116 3050 116 
L 3188 116 
L 3188 0 
L 1388 0 
L 1388 116 
L 1538 116 
Q 1806 116 1919 278 
Q 1988 378 1988 734 
L 1988 1738 
L 825 3513 
Q 619 3825 545 3903 
Q 472 3981 241 4091 
Q 178 4122 59 4122 
L 59 4238 
L 1872 4238 
L 1872 4122 
L 1778 4122 
Q 1631 4122 1507 4053 
Q 1384 3984 1384 3847 
Q 1384 3734 1575 3441 
L 2459 2075 
L 3291 3381 
Q 3478 3675 3478 3819 
Q 3478 3906 3433 3975 
Q 3388 4044 3303 4083 
Q 3219 4122 3050 4122 
L 3050 4238 
z
" transform="scale(0.015625)"/>
     </defs>
     <use xlink:href="#TimesNewRomanPSMT-59"/>
     <use xlink:href="#TimesNewRomanPSMT-20" x="68.466797"/>
     <use xlink:href="#TimesNewRomanPSMT-28" x="93.466797"/>
     <use xlink:href="#TimesNewRomanPSMT-6d" x="126.767578"/>
     <use xlink:href="#TimesNewRomanPSMT-29" x="204.550781"/>
    </g>
   </g>
  </g>
  <g id="axis3d_3">
   <g id="line2d_12">
    <path d="M 100.507323 419.513941 
L 92.568072 165.331726 
" style="fill: none; stroke: #000000; stroke-width: 0.8; stroke-linecap: square"/>
   </g>
   <g id="xtick_10">
    <g id="line2d_13">
     <path d="M 102.399851 394.064903 
L 94.378234 395.558242 
" style="fill: none; stroke: #000000; stroke-width: 0.8; stroke-linecap: square"/>
    </g>
    <g id="text_12">
     <!-- −200 -->
     <g transform="translate(55.740238 401.748694) scale(0.14 -0.14)">
      <use xlink:href="#DejaVuSans-2212"/>
      <use xlink:href="#DejaVuSans-32" x="83.789062"/>
      <use xlink:href="#DejaVuSans-30" x="147.412109"/>
      <use xlink:href="#DejaVuSans-30" x="211.035156"/>
     </g>
    </g>
   </g>
   <g id="xtick_11">
    <g id="line2d_14">
     <path d="M 100.550605 334.189819 
L 92.464384 335.627286 
" style="fill: none; stroke: #000000; stroke-width: 0.8; stroke-linecap: square"/>
    </g>
    <g id="text_13">
     <!-- −80 -->
     <g transform="translate(58.135778 341.984204) scale(0.14 -0.14)">
      <defs>
       <path id="DejaVuSans-38" d="M 2034 2216 
Q 1584 2216 1326 1975 
Q 1069 1734 1069 1313 
Q 1069 891 1326 650 
Q 1584 409 2034 409 
Q 2484 409 2743 651 
Q 3003 894 3003 1313 
Q 3003 1734 2745 1975 
Q 2488 2216 2034 2216 
z
M 1403 2484 
Q 997 2584 770 2862 
Q 544 3141 544 3541 
Q 544 4100 942 4425 
Q 1341 4750 2034 4750 
Q 2731 4750 3128 4425 
Q 3525 4100 3525 3541 
Q 3525 3141 3298 2862 
Q 3072 2584 2669 2484 
Q 3125 2378 3379 2068 
Q 3634 1759 3634 1313 
Q 3634 634 3220 271 
Q 2806 -91 2034 -91 
Q 1263 -91 848 271 
Q 434 634 434 1313 
Q 434 1759 690 2068 
Q 947 2378 1403 2484 
z
M 1172 3481 
Q 1172 3119 1398 2916 
Q 1625 2713 2034 2713 
Q 2441 2713 2670 2916 
Q 2900 3119 2900 3481 
Q 2900 3844 2670 4047 
Q 2441 4250 2034 4250 
Q 1625 4250 1398 4047 
Q 1172 3844 1172 3481 
z
" transform="scale(0.015625)"/>
      </defs>
      <use xlink:href="#DejaVuSans-2212"/>
      <use xlink:href="#DejaVuSans-38" x="83.789062"/>
      <use xlink:href="#DejaVuSans-30" x="147.412109"/>
     </g>
    </g>
   </g>
   <g id="xtick_12">
    <g id="line2d_15">
     <path d="M 98.672341 273.375156 
L 90.520467 274.754807 
" style="fill: none; stroke: #000000; stroke-width: 0.8; stroke-linecap: square"/>
    </g>
    <g id="text_14">
     <!-- 40 -->
     <g transform="translate(61.911125 281.283979) scale(0.14 -0.14)">
      <use xlink:href="#DejaVuSans-34"/>
      <use xlink:href="#DejaVuSans-30" x="63.623047"/>
     </g>
    </g>
   </g>
   <g id="xtick_13">
    <g id="line2d_16">
     <path d="M 96.764369 211.598624 
L 88.545769 212.918441 
" style="fill: none; stroke: #000000; stroke-width: 0.8; stroke-linecap: square"/>
    </g>
    <g id="text_15">
     <!-- 160 -->
     <g transform="translate(55.333951 219.625871) scale(0.14 -0.14)">
      <defs>
       <path id="DejaVuSans-36" d="M 2113 2584 
Q 1688 2584 1439 2293 
Q 1191 2003 1191 1497 
Q 1191 994 1439 701 
Q 1688 409 2113 409 
Q 2538 409 2786 701 
Q 3034 994 3034 1497 
Q 3034 2003 2786 2293 
Q 2538 2584 2113 2584 
z
M 3366 4563 
L 3366 3988 
Q 3128 4100 2886 4159 
Q 2644 4219 2406 4219 
Q 1781 4219 1451 3797 
Q 1122 3375 1075 2522 
Q 1259 2794 1537 2939 
Q 1816 3084 2150 3084 
Q 2853 3084 3261 2657 
Q 3669 2231 3669 1497 
Q 3669 778 3244 343 
Q 2819 -91 2113 -91 
Q 1303 -91 875 529 
Q 447 1150 447 2328 
Q 447 3434 972 4092 
Q 1497 4750 2381 4750 
Q 2619 4750 2861 4703 
Q 3103 4656 3366 4563 
z
" transform="scale(0.015625)"/>
      </defs>
      <use xlink:href="#DejaVuSans-31"/>
      <use xlink:href="#DejaVuSans-36" x="63.623047"/>
      <use xlink:href="#DejaVuSans-30" x="127.246094"/>
     </g>
    </g>
   </g>
   <g id="text_16">
    <!-- Z (m) -->
    <g transform="translate(38.507365 267.047387) rotate(-271.789022) scale(0.18 -0.18)">
     <defs>
      <path id="TimesNewRomanPSMT-5a" d="M 3681 4238 
L 897 256 
L 2634 256 
Q 3034 256 3248 431 
Q 3463 606 3628 1141 
L 3731 1122 
L 3531 0 
L 81 0 
L 81 116 
L 2800 3984 
L 1444 3984 
Q 1106 3984 954 3911 
Q 803 3838 723 3698 
Q 644 3559 578 3178 
L 459 3178 
L 547 4238 
L 3681 4238 
z
" transform="scale(0.015625)"/>
     </defs>
     <use xlink:href="#TimesNewRomanPSMT-5a"/>
     <use xlink:href="#TimesNewRomanPSMT-20" x="61.083984"/>
     <use xlink:href="#TimesNewRomanPSMT-28" x="86.083984"/>
     <use xlink:href="#TimesNewRomanPSMT-6d" x="119.384766"/>
     <use xlink:href="#TimesNewRomanPSMT-29" x="197.167969"/>
    </g>
   </g>
  </g>
  <g id="axes_1">
   <g id="line2d_17">
    <defs>
     <path id="m22920d960a" d="M 0 -3 
L -0.673542 -0.927051 
L -2.85317 -0.927051 
L -1.089814 0.354102 
L -1.763356 2.427051 
L -0 1.145898 
L 1.763356 2.427051 
L 1.089814 0.354102 
L 2.85317 -0.927051 
L 0.673542 -0.927051 
z
" style="stroke: #ff0000; stroke-linejoin: bevel"/>
    </defs>
    <g clip-path="url(#p9b735f7b92)">
     <use xlink:href="#m22920d960a" x="213.937409" y="356.223615" style="fill: #ff0000; stroke: #ff0000; stroke-linejoin: bevel"/>
    </g>
   </g>
   <g id="line2d_18">
    <path d="M 213.937409 356.223615 
L 219.286212 355.414217 
L 220.994124 355.144222 
L 231.819836 354.012568 
L 234.858566 354.039479 
L 245.78345 355.027393 
L 246.783466 355.159726 
L 248.097414 355.288113 
L 254.404653 356.355923 
L 256.604407 356.732185 
L 260.662748 357.347481 
L 262.482242 357.678312 
L 264.379053 357.875683 
L 267.678358 358.46445 
L 268.443362 358.644137 
L 269.596697 358.75814 
L 271.047031 359.076127 
L 272.401777 359.244604 
L 275.24646 359.73157 
L 278.696197 360.269643 
L 279.998223 360.433861 
L 282.218326 360.72848 
L 285.199415 361.210996 
L 286.341701 361.421034 
L 288.569833 361.794785 
L 293.681749 362.612072 
L 294.757543 362.691424 
L 297.019913 362.937499 
L 315.345951 363.721354 
L 316.291621 363.752003 
L 317.732776 363.767168 
L 328.061689 363.59471 
L 330.264761 363.453216 
L 332.897389 363.330662 
L 340.99389 362.87574 
L 342.34441 362.861641 
L 346.056509 362.866852 
L 348.501722 362.970648 
L 358.826418 363.446095 
L 364.113802 363.102464 
L 372.964183 362.072198 
L 376.558073 361.551756 
L 379.200486 361.27437 
L 381.916873 361.259774 
L 394.178899 361.363009 
L 397.560951 361.121958 
L 412.759715 358.837336 
L 417.090255 357.882201 
L 421.203505 356.860003 
L 427.182037 355.16593 
L 430.567774 354.13253 
L 433.240952 353.362697 
L 435.737668 352.454141 
L 438.062704 350.96068 
L 438.596228 350.241513 
L 440.793647 346.265779 
L 441.52538 345.42667 
L 444.730393 342.084156 
L 444.994245 341.815181 
L 445.216623 341.557735 
L 445.886509 340.417278 
L 445.920976 340.023707 
L 445.750187 339.348299 
L 445.181151 338.796957 
L 443.594617 338.123101 
L 442.5548 337.8719 
L 440.860627 337.547001 
L 426.510119 335.989592 
L 423.83335 335.804422 
L 421.712939 335.611928 
L 419.282363 335.150543 
L 417.78235 334.625895 
L 416.7489 333.902345 
L 416.297483 332.951375 
L 416.247438 332.726913 
L 415.972408 332.320137 
L 415.750774 331.540303 
L 415.613866 331.321092 
L 415.442848 330.568993 
L 415.379864 330.112435 
L 415.522046 328.941239 
L 416.128201 327.442162 
L 416.139461 327.154991 
L 416.402999 326.62325 
L 416.541603 326.09275 
L 416.970502 325.064981 
L 417.769214 323.232922 
L 418.059019 322.832339 
L 418.152706 322.557814 
L 418.755069 321.672681 
L 419.016537 321.290974 
L 419.484157 320.355366 
L 419.93188 318.637112 
L 419.921842 318.406954 
L 420.065831 318.136771 
L 420.027173 317.595119 
L 420.164185 317.361244 
L 420.065223 317.082061 
L 420.914878 314.713027 
L 420.90834 314.546575 
L 421.169917 313.999899 
L 421.689727 313.196752 
L 422.13671 312.769469 
L 424.201447 310.824676 
L 425.23892 310.009025 
L 426.085924 309.389641 
L 429.137772 306.899255 
L 431.097195 305.502475 
L 431.928539 304.786874 
L 434.167226 303.341121 
L 440.862632 299.925265 
L 441.486818 299.065689 
L 441.400984 298.457626 
L 440.713675 297.951155 
L 439.003971 297.405919 
L 437.859073 297.27827 
L 436.727641 297.187257 
L 435.107137 297.413756 
L 429.744679 299.162337 
L 421.845347 301.980084 
L 417.831791 303.749768 
L 412.938501 306.678945 
L 406.751641 311.713536 
L 403.295573 313.904975 
L 402.430166 314.425513 
L 397.937897 317.335908 
L 390.510779 322.562822 
L 388.725428 323.756862 
L 386.694872 325.043345 
L 385.642212 325.57918 
L 385.389749 325.748935 
L 384.944795 325.861069 
L 383.081933 326.751089 
L 382.840652 326.772555 
L 381.624159 327.211892 
L 377.719439 328.180093 
L 372.89224 328.953628 
L 364.775795 329.735543 
L 355.86354 330.184036 
L 345.6737 330.544823 
L 342.601466 330.589963 
L 338.326594 330.700003 
L 335.285235 330.778692 
L 332.331345 330.811878 
L 328.083256 330.855094 
L 324.365811 330.816585 
L 321.116314 330.73495 
L 314.576169 330.471134 
L 310.675029 330.183773 
L 306.96052 329.78282 
L 303.245549 329.339414 
L 300.069115 328.995995 
L 291.754634 328.271661 
L 281.492701 327.438281 
L 278.761993 327.098585 
L 275.900519 326.80039 
L 274.004824 326.435226 
L 269.294485 325.240317 
L 264.196342 323.336598 
L 262.236436 322.266671 
L 260.898444 321.263958 
L 259.823101 320.318974 
L 256.005937 317.738477 
L 254.73134 317.178931 
L 252.800696 316.708959 
L 247.567578 316.122951 
L 238.123504 316.44694 
L 236.007861 316.664125 
L 232.618254 317.138156 
L 229.829394 317.679865 
L 226.962079 318.474267 
L 217.4991 321.694709 
L 216.141682 322.195467 
L 214.831624 322.591854 
L 214.218392 322.887552 
L 210.942734 324.089078 
L 209.882427 324.412262 
L 200.998393 326.869841 
L 199.733049 327.082596 
L 199.200558 327.330841 
L 197.876507 327.504217 
L 194.47962 328.077083 
L 189.853115 328.738536 
L 185.517891 329.509206 
L 183.204097 330.064782 
L 181.258397 330.862991 
L 179.911028 331.644848 
L 179.310274 332.193333 
L 178.913511 332.905305 
L 178.881438 333.922197 
L 179.142671 334.344918 
L 179.424882 334.714272 
L 181.254041 335.857356 
L 182.469032 336.349623 
L 182.970303 336.68074 
L 183.323605 336.700872 
L 183.983161 337.280438 
L 184.29521 337.403421 
L 184.520565 337.627376 
L 184.883125 337.716987 
L 185.082603 338.022777 
L 185.772543 338.526229 
L 187.830835 340.091445 
L 188.277131 340.442908 
L 188.998608 340.99645 
L 191.538598 342.657827 
L 191.982815 342.787281 
L 192.637421 343.323487 
L 194.271443 344.515552 
L 195.007296 345.210593 
L 196.089994 346.174337 
L 196.300916 346.532406 
L 196.645562 346.856186 
L 196.964512 347.351247 
L 197.505101 347.831541 
L 197.997831 348.366975 
L 198.889386 349.369764 
L 199.216051 349.610641 
L 199.573226 350.088399 
L 200.723728 351.081849 
L 201.507621 351.725592 
L 203.485378 353.207831 
L 204.075197 353.808607 
L 205.64129 355.380014 
L 206.935391 356.11952 
L 208.104283 356.493171 
L 208.359389 356.675622 
L 209.946324 356.94935 
L 211.92591 356.755734 
L 212.342056 356.693462 
L 212.342056 356.693462 
" clip-path="url(#p9b735f7b92)" style="fill: none; stroke-dasharray: 10.175,4.4; stroke-dashoffset: 0; stroke: #808a87; stroke-width: 2.75"/>
   </g>
   <g id="line2d_19">
    <path d="M 213.943062 356.221417 
L 213.924678 356.206729 
L 214.184513 356.192375 
L 218.502094 355.420343 
L 220.015491 355.160393 
L 220.808729 355.005733 
L 222.144058 354.804941 
L 224.027419 354.455682 
L 225.959765 354.291983 
L 230.252098 353.751322 
L 231.69367 353.58324 
L 232.719699 353.561516 
L 234.309827 353.516653 
L 234.713431 353.530422 
L 236.271129 353.505948 
L 237.483605 353.663516 
L 239.333858 353.794576 
L 244.317909 353.978349 
L 247.279065 354.226804 
L 248.566442 354.376332 
L 250.395532 354.582688 
L 252.355465 354.752034 
L 253.973599 354.970538 
L 257.893269 355.404859 
L 259.689064 355.582016 
L 273.622165 357.265918 
L 275.677223 357.529957 
L 277.210605 357.675185 
L 281.919616 358.167553 
L 286.045646 358.578213 
L 287.39167 358.727566 
L 297.495449 359.74124 
L 300.545991 359.677474 
L 311.719936 359.676748 
L 313.730788 359.713264 
L 319.60588 359.647197 
L 320.606249 359.617122 
L 321.807416 359.579098 
L 324.886173 359.389446 
L 336.129873 358.473517 
L 341.964554 357.893397 
L 349.370083 357.786595 
L 353.740502 357.863326 
L 360.191588 357.720931 
L 365.290665 357.14611 
L 381.288251 354.740102 
L 384.014981 354.716796 
L 385.459297 354.642169 
L 386.070531 354.651507 
L 386.874607 354.607355 
L 391.21526 354.381105 
L 396.530036 353.983104 
L 399.644411 353.455976 
L 410.359873 351.400209 
L 418.678063 349.226157 
L 423.408665 347.74416 
L 426.698749 346.651458 
L 430.871713 345.169356 
L 433.077791 344.452678 
L 434.988131 343.697431 
L 436.772479 342.804937 
L 437.827292 341.950714 
L 438.429696 341.086102 
L 439.420223 338.817208 
L 439.762676 337.975385 
L 439.928884 337.620724 
L 440.698474 336.568162 
L 441.663561 335.46891 
L 442.904714 334.027103 
L 443.530012 333.296099 
L 444.017718 332.615512 
L 444.19865 332.365803 
L 444.39478 332.060136 
L 444.674458 331.573549 
L 444.76951 331.088264 
L 444.632175 330.399157 
L 444.460427 330.172965 
L 443.405491 329.531795 
L 441.70514 329.074552 
L 437.849246 328.690315 
L 435.212543 328.561681 
L 430.044071 328.244606 
L 418.17149 327.645995 
L 416.774813 327.285533 
L 415.975941 326.941373 
L 415.151298 326.271601 
L 414.815037 325.582852 
L 414.758625 325.276127 
L 414.495384 324.794096 
L 414.336595 324.362931 
L 414.112468 323.552859 
L 414.027227 322.122915 
L 414.066603 321.913745 
L 414.25151 321.359475 
L 414.330319 321.122197 
L 414.54734 320.554917 
L 414.767648 320.066075 
L 414.825728 319.747483 
L 414.963847 319.538625 
L 415.025795 319.260705 
L 415.114187 319.152326 
L 415.29163 318.536415 
L 415.954218 316.852434 
L 416.065419 316.635689 
L 416.320555 316.228784 
L 416.533542 315.812687 
L 416.702508 315.628716 
L 416.934354 315.140943 
L 417.189511 314.755865 
L 417.734634 313.988084 
L 417.968146 313.545192 
L 418.371903 312.626348 
L 418.47895 311.933178 
L 418.613549 311.665381 
L 418.757433 310.95698 
L 418.801966 310.759489 
L 418.783692 310.453633 
L 418.92826 309.535965 
L 419.05473 309.197511 
L 419.251347 308.649634 
L 419.300279 308.500561 
L 419.407022 308.211476 
L 419.496848 307.984466 
L 420.192447 306.396392 
L 420.452427 306.062623 
L 421.734329 304.816818 
L 423.095424 303.558717 
L 425.042403 302.000021 
L 425.652451 301.463426 
L 427.364273 299.978053 
L 432.750185 295.815594 
L 433.194877 295.539243 
L 438.86279 292.341727 
L 439.175551 291.960792 
L 439.347933 291.72722 
L 439.279205 291.207232 
L 439.037429 290.932747 
L 437.707674 290.443069 
L 435.512215 290.18277 
L 433.704679 290.315998 
L 432.233665 290.671671 
L 431.118855 291.091366 
L 429.602325 291.711587 
L 428.462529 292.178488 
L 418.19004 296.511497 
L 415.275602 298.06549 
L 414.457603 298.540228 
L 413.818649 298.917628 
L 412.171521 300.022654 
L 411.543937 300.46259 
L 410.670953 301.147143 
L 409.465744 302.100521 
L 408.496942 302.96793 
L 408.000087 303.378852 
L 405.216625 305.723937 
L 404.158494 306.386888 
L 399.023738 309.564883 
L 397.132475 310.761425 
L 394.091083 312.811733 
L 391.928737 314.29439 
L 390.010642 315.64591 
L 385.621544 318.400283 
L 382.100635 320.306192 
L 381.565778 320.47966 
L 380.607371 320.939798 
L 376.032027 322.386368 
L 370.97637 323.505501 
L 358.318842 325.09351 
L 331.132989 326.956165 
L 326.311841 327.17148 
L 319.52655 327.36636 
L 312.345395 327.455053 
L 301.264318 326.954731 
L 299.115642 326.81904 
L 296.272656 326.655913 
L 292.651475 326.479165 
L 283.902104 326.07032 
L 280.9233 325.963427 
L 279.532758 325.85972 
L 278.918208 325.840347 
L 277.519466 325.804342 
L 271.357332 325.332793 
L 269.758974 325.070269 
L 266.772161 324.500557 
L 262.521504 323.316155 
L 258.808012 321.800966 
L 257.307724 320.792533 
L 256.069994 319.845316 
L 255.1887 319.233909 
L 252.883491 317.919493 
L 251.172124 317.226184 
L 250.056879 317.003029 
L 248.412901 316.794361 
L 244.083568 316.610223 
L 237.911258 317.058722 
L 236.300875 317.26065 
L 232.876602 317.706601 
L 231.399435 317.933582 
L 225.936657 319.117177 
L 217.897812 322.065656 
L 215.257791 323.176398 
L 208.667871 325.896348 
L 207.92372 326.26762 
L 207.537422 326.337315 
L 203.504093 327.777201 
L 203.291894 327.820687 
L 202.390732 328.194279 
L 201.287061 328.515933 
L 200.338107 328.776673 
L 198.891943 329.233587 
L 196.486843 329.929389 
L 196.007175 330.067496 
L 194.912642 330.299316 
L 193.333104 330.6202 
L 192.664755 330.784681 
L 191.396161 331.046289 
L 184.578546 332.384731 
L 180.834788 333.43026 
L 179.822714 333.817035 
L 177.845302 334.970732 
L 176.965375 335.845684 
L 176.736006 336.500368 
L 176.687338 336.83462 
L 176.753672 337.04199 
L 177.005082 337.552846 
L 177.846785 338.368074 
L 178.375056 338.693509 
L 179.192307 339.061994 
L 179.406346 339.152966 
L 180.158747 339.313663 
L 180.409869 339.475815 
L 180.923234 339.608849 
L 181.593115 339.913978 
L 181.824499 339.960764 
L 182.157851 340.286544 
L 183.107358 340.760236 
L 183.244746 340.894528 
L 183.530746 340.95057 
L 183.693937 341.113987 
L 183.915601 341.211587 
L 184.4697 341.610831 
L 185.060369 341.992882 
L 185.592072 342.323186 
L 187.155179 343.352473 
L 189.471991 344.683443 
L 190.231583 345.025884 
L 193.022936 346.668522 
L 193.504402 346.953222 
L 197.461404 350.345931 
L 200.274866 352.711559 
L 203.713867 354.961955 
L 205.832871 356.820369 
L 207.498373 357.648512 
L 208.635403 357.975081 
L 209.037506 358.087888 
L 211.734164 358.0585 
L 212.917268 357.816292 
L 212.914588 357.820971 
" clip-path="url(#p9b735f7b92)" style="fill: none; stroke: #0000ff; stroke-width: 2; stroke-linecap: square"/>
   </g>
   <g id="line2d_20">
    <path d="M 213.940957 356.223267 
L 217.542995 355.663528 
L 220.492464 355.130109 
L 222.901885 354.740066 
L 224.681518 354.4685 
L 226.939689 354.157641 
L 229.763774 353.792204 
L 235.108504 353.50481 
L 243.543246 353.865694 
L 247.430203 354.162369 
L 248.40938 354.227845 
L 252.879315 354.72905 
L 254.740341 354.988608 
L 259.376486 355.444679 
L 261.054998 355.654629 
L 262.854691 355.92282 
L 264.774845 356.040351 
L 266.9681 356.33391 
L 268.450327 356.53175 
L 268.831395 356.638663 
L 270.029252 356.687223 
L 279.51381 357.769981 
L 280.816406 357.87386 
L 282.736119 358.016325 
L 289.422707 358.769386 
L 294.164646 359.321328 
L 296.369419 359.477725 
L 298.646957 359.459127 
L 313.073686 359.358369 
L 317.220289 359.312855 
L 326.821981 358.784861 
L 333.343084 358.187014 
L 342.602731 357.231128 
L 344.56537 357.178698 
L 348.661236 357.087989 
L 353.009284 357.149145 
L 358.118272 357.056045 
L 362.067729 356.762926 
L 372.057132 355.259075 
L 375.005677 354.686446 
L 379.483775 353.912784 
L 382.242312 353.712834 
L 386.07267 353.593693 
L 386.445987 353.646941 
L 387.631002 353.487645 
L 389.450482 353.411341 
L 396.96361 352.797064 
L 402.926538 351.686964 
L 413.688947 349.327746 
L 418.29367 347.963439 
L 433.198864 342.806774 
L 435.859945 341.663074 
L 437.899746 340.125378 
L 438.281113 339.530471 
L 438.620804 338.763273 
L 440.21162 335.253887 
L 440.65327 334.676736 
L 442.152832 332.90506 
L 444.014972 330.405732 
L 444.453175 329.668971 
L 444.516091 329.289707 
L 444.337135 328.500206 
L 443.602841 327.892957 
L 441.90309 327.349716 
L 440.26972 327.099397 
L 437.227451 326.906119 
L 432.01376 326.670679 
L 429.918391 326.564452 
L 418.797268 326.204441 
L 416.979368 325.900985 
L 415.88638 325.565144 
L 414.921317 324.929763 
L 414.506409 324.297956 
L 413.756804 322.444897 
L 413.483282 321.2504 
L 413.690606 319.863665 
L 414.21347 318.56722 
L 414.207849 318.312025 
L 414.405845 318.068322 
L 414.567888 317.219066 
L 414.950242 316.440385 
L 415.206754 315.611767 
L 417.018286 312.414259 
L 417.232312 312.040936 
L 417.598188 311.227947 
L 417.964819 309.739399 
L 417.913375 309.505056 
L 418.074688 309.252138 
L 418.118543 307.96815 
L 418.31716 307.5214 
L 418.877656 305.626048 
L 419.085836 305.257864 
L 419.252575 304.887742 
L 419.796838 304.130494 
L 420.672613 303.30492 
L 422.352919 301.677072 
L 423.928014 300.393011 
L 426.302782 298.226638 
L 429.258168 295.771223 
L 429.81102 295.236199 
L 431.42213 294.045625 
L 434.073514 292.535358 
L 435.069823 291.982269 
L 437.755686 290.397728 
L 438.061867 289.982715 
L 438.274241 289.806227 
L 438.296287 289.39538 
L 438.08833 288.952256 
L 437.279303 288.546233 
L 435.457997 288.183009 
L 434.263312 288.186586 
L 433.10975 288.210386 
L 431.529012 288.584186 
L 428.669268 289.718323 
L 427.827683 290.094587 
L 425.8285 290.944172 
L 417.739234 294.519219 
L 413.878143 296.57579 
L 412.874694 297.223539 
L 411.626256 298.085177 
L 408.588166 300.483768 
L 406.186809 302.801545 
L 403.47027 304.800167 
L 402.833903 305.288774 
L 402.016628 305.802957 
L 394.620364 310.623327 
L 393.55803 311.35745 
L 390.783422 313.322292 
L 389.387857 314.355406 
L 387.857884 315.270915 
L 386.909055 315.900942 
L 383.948385 317.868153 
L 382.386749 318.697166 
L 381.52318 319.145909 
L 380.836226 319.441972 
L 379.496062 320.060785 
L 378.141933 320.524835 
L 376.448915 321.029609 
L 373.77129 321.794498 
L 368.814411 322.803113 
L 358.773246 324.187724 
L 349.115675 325.026913 
L 343.315525 325.542789 
L 332.791333 326.258708 
L 330.959232 326.420081 
L 315.459155 327.099647 
L 308.943259 327.150776 
L 305.712723 327.077581 
L 292.439341 326.393403 
L 285.97959 326.177033 
L 282.931174 326.038641 
L 277.208426 325.899382 
L 275.351349 325.765599 
L 269.508175 325.275751 
L 265.777373 324.597453 
L 263.056015 323.908249 
L 259.526794 322.767652 
L 257.571428 321.808145 
L 256.393797 321.01501 
L 255.108476 320.062606 
L 254.455892 319.656248 
L 253.45893 318.987572 
L 249.570771 317.343648 
L 247.539673 317.086358 
L 243.436094 316.907737 
L 236.423627 317.494513 
L 233.26585 317.936912 
L 229.125561 318.597557 
L 226.471822 319.18394 
L 222.941931 320.323843 
L 221.544528 320.834437 
L 210.549491 325.414351 
L 209.970132 325.726272 
L 208.812135 326.221822 
L 208.288093 326.532318 
L 206.742316 327.093354 
L 206.166012 327.371904 
L 204.981746 327.804258 
L 204.489493 328.005031 
L 203.827442 328.148242 
L 203.05053 328.567345 
L 202.687315 328.575047 
L 200.302543 329.419171 
L 199.320325 329.729305 
L 197.251651 330.400393 
L 196.018972 330.670928 
L 195.496551 330.956163 
L 194.180128 331.206595 
L 188.890687 332.377961 
L 184.126676 333.349705 
L 180.156651 334.474964 
L 179.148381 334.881428 
L 177.268225 335.96355 
L 176.540669 336.543052 
L 176.193827 337.080915 
L 176.039388 337.793532 
L 175.997826 338.044781 
L 176.518886 338.91808 
L 176.834024 339.256267 
L 179.187731 340.347757 
L 179.546327 340.404662 
L 180.399703 340.814477 
L 181.543532 341.348927 
L 183.589532 342.445647 
L 183.827224 342.668128 
L 184.333447 342.962948 
L 186.17259 344.021512 
L 186.586497 344.347041 
L 188.969529 345.636014 
L 189.378276 345.902006 
L 189.859283 346.026538 
L 190.167016 346.311005 
L 190.971661 346.626907 
L 195.320943 349.490614 
L 195.699093 349.931361 
L 196.162299 350.266977 
L 196.350889 350.546214 
L 197.044835 351.069233 
L 197.727178 351.649579 
L 200.48955 353.794891 
L 204.451324 356.417557 
L 206.720958 358.110632 
L 208.199155 358.657247 
L 210.592709 358.972611 
L 211.843394 358.815183 
L 213.032822 358.578487 
L 213.032822 358.578487 
" clip-path="url(#p9b735f7b92)" style="fill: none; stroke: #ff0000; stroke-width: 2; stroke-linecap: square"/>
   </g>
   <g id="Path3DCollection_1">
    <defs>
     <path id="me729df53c3" d="M 0 -5 
L -1.12257 -1.545085 
L -4.755283 -1.545085 
L -1.816356 0.59017 
L -2.938926 4.045085 
L -0 1.90983 
L 2.938926 4.045085 
L 1.816356 0.59017 
L 4.755283 -1.545085 
L 1.12257 -1.545085 
z
" style="stroke: #ff0000"/>
    </defs>
    <g clip-path="url(#p9b735f7b92)">
     <use xlink:href="#me729df53c3" x="213.937398" y="356.222983" style="fill: #ff0000; stroke: #ff0000"/>
    </g>
   </g>
   <g id="legend_1">
    <g id="patch_6">
     <path d="M 74.2475 107.5846 
L 589.9525 107.5846 
Q 593.1525 107.5846 593.1525 104.3846 
L 593.1525 60.7396 
Q 593.1525 57.5396 589.9525 57.5396 
L 74.2475 57.5396 
Q 71.0475 57.5396 71.0475 60.7396 
L 71.0475 104.3846 
Q 71.0475 107.5846 74.2475 107.5846 
z
" style="fill: #ffffff; opacity: 0.8; stroke: #cccccc; stroke-linejoin: miter"/>
    </g>
    <g id="line2d_21">
     <g>
      <use xlink:href="#m22920d960a" x="93.4475" y="69.5396" style="fill: #ff0000; stroke: #ff0000; stroke-linejoin: bevel"/>
     </g>
    </g>
    <g id="text_17">
     <!-- Start -->
     <g transform="translate(122.2475 75.1396) scale(0.16 -0.16)">
      <defs>
       <path id="TimesNewRomanPSMT-53" d="M 2934 4334 
L 2934 2869 
L 2819 2869 
Q 2763 3291 2617 3541 
Q 2472 3791 2203 3937 
Q 1934 4084 1647 4084 
Q 1322 4084 1109 3886 
Q 897 3688 897 3434 
Q 897 3241 1031 3081 
Q 1225 2847 1953 2456 
Q 2547 2138 2764 1967 
Q 2981 1797 3098 1565 
Q 3216 1334 3216 1081 
Q 3216 600 2842 251 
Q 2469 -97 1881 -97 
Q 1697 -97 1534 -69 
Q 1438 -53 1133 45 
Q 828 144 747 144 
Q 669 144 623 97 
Q 578 50 556 -97 
L 441 -97 
L 441 1356 
L 556 1356 
Q 638 900 775 673 
Q 913 447 1195 297 
Q 1478 147 1816 147 
Q 2206 147 2432 353 
Q 2659 559 2659 841 
Q 2659 997 2573 1156 
Q 2488 1316 2306 1453 
Q 2184 1547 1640 1851 
Q 1097 2156 867 2337 
Q 638 2519 519 2737 
Q 400 2956 400 3219 
Q 400 3675 750 4004 
Q 1100 4334 1641 4334 
Q 1978 4334 2356 4169 
Q 2531 4091 2603 4091 
Q 2684 4091 2736 4139 
Q 2788 4188 2819 4334 
L 2934 4334 
z
" transform="scale(0.015625)"/>
       <path id="TimesNewRomanPSMT-74" d="M 1031 3803 
L 1031 2863 
L 1700 2863 
L 1700 2644 
L 1031 2644 
L 1031 788 
Q 1031 509 1111 412 
Q 1191 316 1316 316 
Q 1419 316 1516 380 
Q 1613 444 1666 569 
L 1788 569 
Q 1678 263 1478 108 
Q 1278 -47 1066 -47 
Q 922 -47 784 33 
Q 647 113 581 261 
Q 516 409 516 719 
L 516 2644 
L 63 2644 
L 63 2747 
Q 234 2816 414 2980 
Q 594 3144 734 3369 
Q 806 3488 934 3803 
L 1031 3803 
z
" transform="scale(0.015625)"/>
       <path id="TimesNewRomanPSMT-61" d="M 1822 413 
Q 1381 72 1269 19 
Q 1100 -59 909 -59 
Q 613 -59 420 144 
Q 228 347 228 678 
Q 228 888 322 1041 
Q 450 1253 767 1440 
Q 1084 1628 1822 1897 
L 1822 2009 
Q 1822 2438 1686 2597 
Q 1550 2756 1291 2756 
Q 1094 2756 978 2650 
Q 859 2544 859 2406 
L 866 2225 
Q 866 2081 792 2003 
Q 719 1925 600 1925 
Q 484 1925 411 2006 
Q 338 2088 338 2228 
Q 338 2497 613 2722 
Q 888 2947 1384 2947 
Q 1766 2947 2009 2819 
Q 2194 2722 2281 2516 
Q 2338 2381 2338 1966 
L 2338 994 
Q 2338 584 2353 492 
Q 2369 400 2405 369 
Q 2441 338 2488 338 
Q 2538 338 2575 359 
Q 2641 400 2828 588 
L 2828 413 
Q 2478 -56 2159 -56 
Q 2006 -56 1915 50 
Q 1825 156 1822 413 
z
M 1822 616 
L 1822 1706 
Q 1350 1519 1213 1441 
Q 966 1303 859 1153 
Q 753 1003 753 825 
Q 753 600 887 451 
Q 1022 303 1197 303 
Q 1434 303 1822 616 
z
" transform="scale(0.015625)"/>
       <path id="TimesNewRomanPSMT-72" d="M 1038 2947 
L 1038 2303 
Q 1397 2947 1775 2947 
Q 1947 2947 2059 2842 
Q 2172 2738 2172 2600 
Q 2172 2478 2090 2393 
Q 2009 2309 1897 2309 
Q 1788 2309 1652 2417 
Q 1516 2525 1450 2525 
Q 1394 2525 1328 2463 
Q 1188 2334 1038 2041 
L 1038 669 
Q 1038 431 1097 309 
Q 1138 225 1241 169 
Q 1344 113 1538 113 
L 1538 0 
L 72 0 
L 72 113 
Q 291 113 397 181 
Q 475 231 506 341 
Q 522 394 522 644 
L 522 1753 
Q 522 2253 501 2348 
Q 481 2444 426 2487 
Q 372 2531 291 2531 
Q 194 2531 72 2484 
L 41 2597 
L 906 2947 
L 1038 2947 
z
" transform="scale(0.015625)"/>
      </defs>
      <use xlink:href="#TimesNewRomanPSMT-53"/>
      <use xlink:href="#TimesNewRomanPSMT-74" x="55.615234"/>
      <use xlink:href="#TimesNewRomanPSMT-61" x="83.398438"/>
      <use xlink:href="#TimesNewRomanPSMT-72" x="127.783203"/>
      <use xlink:href="#TimesNewRomanPSMT-74" x="161.083984"/>
     </g>
    </g>
    <g id="patch_7">
     <path d="M 77.4475 97.7621 
L 109.4475 97.7621 
L 109.4475 86.5621 
L 77.4475 86.5621 
L 77.4475 97.7621 
z
" style="fill: none"/>
    </g>
    <g id="line2d_22">
     <path d="M 184.465 69.5396 
L 200.465 69.5396 
L 216.465 69.5396 
" style="fill: none; stroke-dasharray: 10.175,4.4; stroke-dashoffset: 0; stroke: #808a87; stroke-width: 2.75"/>
    </g>
    <g id="text_18">
     <!-- GroundTruth -->
     <g transform="translate(229.265 75.1396) scale(0.16 -0.16)">
      <defs>
       <path id="TimesNewRomanPSMT-47" d="M 3928 4334 
L 4038 2997 
L 3928 2997 
Q 3763 3497 3500 3750 
Q 3122 4116 2528 4116 
Q 1719 4116 1297 3475 
Q 944 2934 944 2188 
Q 944 1581 1178 1081 
Q 1413 581 1792 348 
Q 2172 116 2572 116 
Q 2806 116 3025 175 
Q 3244 234 3447 350 
L 3447 1575 
Q 3447 1894 3398 1992 
Q 3350 2091 3248 2142 
Q 3147 2194 2891 2194 
L 2891 2313 
L 4531 2313 
L 4531 2194 
L 4453 2194 
Q 4209 2194 4119 2031 
Q 4056 1916 4056 1575 
L 4056 278 
Q 3697 84 3347 -6 
Q 2997 -97 2569 -97 
Q 1341 -97 703 691 
Q 225 1281 225 2053 
Q 225 2613 494 3125 
Q 813 3734 1369 4063 
Q 1834 4334 2469 4334 
Q 2700 4334 2889 4296 
Q 3078 4259 3425 4131 
Q 3600 4066 3659 4066 
Q 3719 4066 3761 4120 
Q 3803 4175 3813 4334 
L 3928 4334 
z
" transform="scale(0.015625)"/>
       <path id="TimesNewRomanPSMT-6f" d="M 1600 2947 
Q 2250 2947 2644 2453 
Q 2978 2031 2978 1484 
Q 2978 1100 2793 706 
Q 2609 313 2286 112 
Q 1963 -88 1566 -88 
Q 919 -88 538 428 
Q 216 863 216 1403 
Q 216 1797 411 2186 
Q 606 2575 925 2761 
Q 1244 2947 1600 2947 
z
M 1503 2744 
Q 1338 2744 1170 2645 
Q 1003 2547 900 2300 
Q 797 2053 797 1666 
Q 797 1041 1045 587 
Q 1294 134 1700 134 
Q 2003 134 2200 384 
Q 2397 634 2397 1244 
Q 2397 2006 2069 2444 
Q 1847 2744 1503 2744 
z
" transform="scale(0.015625)"/>
       <path id="TimesNewRomanPSMT-75" d="M 2709 2863 
L 2709 1128 
Q 2709 631 2732 520 
Q 2756 409 2807 365 
Q 2859 322 2928 322 
Q 3025 322 3147 375 
L 3191 266 
L 2334 -88 
L 2194 -88 
L 2194 519 
Q 1825 119 1631 15 
Q 1438 -88 1222 -88 
Q 981 -88 804 51 
Q 628 191 559 409 
Q 491 628 491 1028 
L 491 2306 
Q 491 2509 447 2587 
Q 403 2666 317 2708 
Q 231 2750 6 2747 
L 6 2863 
L 1009 2863 
L 1009 947 
Q 1009 547 1148 422 
Q 1288 297 1484 297 
Q 1619 297 1789 381 
Q 1959 466 2194 703 
L 2194 2325 
Q 2194 2569 2105 2655 
Q 2016 2741 1734 2747 
L 1734 2863 
L 2709 2863 
z
" transform="scale(0.015625)"/>
       <path id="TimesNewRomanPSMT-6e" d="M 1034 2341 
Q 1538 2947 1994 2947 
Q 2228 2947 2397 2830 
Q 2566 2713 2666 2444 
Q 2734 2256 2734 1869 
L 2734 647 
Q 2734 375 2778 278 
Q 2813 200 2889 156 
Q 2966 113 3172 113 
L 3172 0 
L 1756 0 
L 1756 113 
L 1816 113 
Q 2016 113 2095 173 
Q 2175 234 2206 353 
Q 2219 400 2219 647 
L 2219 1819 
Q 2219 2209 2117 2386 
Q 2016 2563 1775 2563 
Q 1403 2563 1034 2156 
L 1034 647 
Q 1034 356 1069 288 
Q 1113 197 1189 155 
Q 1266 113 1500 113 
L 1500 0 
L 84 0 
L 84 113 
L 147 113 
Q 366 113 442 223 
Q 519 334 519 647 
L 519 1709 
Q 519 2225 495 2337 
Q 472 2450 423 2490 
Q 375 2531 294 2531 
Q 206 2531 84 2484 
L 38 2597 
L 900 2947 
L 1034 2947 
L 1034 2341 
z
" transform="scale(0.015625)"/>
       <path id="TimesNewRomanPSMT-64" d="M 2222 322 
Q 2013 103 1813 7 
Q 1613 -88 1381 -88 
Q 913 -88 563 304 
Q 213 697 213 1313 
Q 213 1928 600 2439 
Q 988 2950 1597 2950 
Q 1975 2950 2222 2709 
L 2222 3238 
Q 2222 3728 2198 3840 
Q 2175 3953 2125 3993 
Q 2075 4034 2000 4034 
Q 1919 4034 1784 3984 
L 1744 4094 
L 2597 4444 
L 2738 4444 
L 2738 1134 
Q 2738 631 2761 520 
Q 2784 409 2836 365 
Q 2888 322 2956 322 
Q 3041 322 3181 375 
L 3216 266 
L 2366 -88 
L 2222 -88 
L 2222 322 
z
M 2222 541 
L 2222 2016 
Q 2203 2228 2109 2403 
Q 2016 2578 1861 2667 
Q 1706 2756 1559 2756 
Q 1284 2756 1069 2509 
Q 784 2184 784 1559 
Q 784 928 1059 592 
Q 1334 256 1672 256 
Q 1956 256 2222 541 
z
" transform="scale(0.015625)"/>
       <path id="TimesNewRomanPSMT-54" d="M 3703 4238 
L 3750 3244 
L 3631 3244 
Q 3597 3506 3538 3619 
Q 3441 3800 3280 3886 
Q 3119 3972 2856 3972 
L 2259 3972 
L 2259 734 
Q 2259 344 2344 247 
Q 2463 116 2709 116 
L 2856 116 
L 2856 0 
L 1059 0 
L 1059 116 
L 1209 116 
Q 1478 116 1591 278 
Q 1659 378 1659 734 
L 1659 3972 
L 1150 3972 
Q 853 3972 728 3928 
Q 566 3869 450 3700 
Q 334 3531 313 3244 
L 194 3244 
L 244 4238 
L 3703 4238 
z
" transform="scale(0.015625)"/>
       <path id="TimesNewRomanPSMT-68" d="M 1041 4444 
L 1041 2350 
Q 1388 2731 1591 2839 
Q 1794 2947 1997 2947 
Q 2241 2947 2416 2812 
Q 2591 2678 2675 2391 
Q 2734 2191 2734 1659 
L 2734 647 
Q 2734 375 2778 275 
Q 2809 200 2884 156 
Q 2959 113 3159 113 
L 3159 0 
L 1753 0 
L 1753 113 
L 1819 113 
Q 2019 113 2097 173 
Q 2175 234 2206 353 
Q 2216 403 2216 647 
L 2216 1659 
Q 2216 2128 2167 2275 
Q 2119 2422 2012 2495 
Q 1906 2569 1756 2569 
Q 1603 2569 1437 2487 
Q 1272 2406 1041 2159 
L 1041 647 
Q 1041 353 1073 281 
Q 1106 209 1195 161 
Q 1284 113 1503 113 
L 1503 0 
L 84 0 
L 84 113 
Q 275 113 384 172 
Q 447 203 484 290 
Q 522 378 522 647 
L 522 3238 
Q 522 3728 498 3840 
Q 475 3953 426 3993 
Q 378 4034 297 4034 
Q 231 4034 84 3984 
L 41 4094 
L 897 4444 
L 1041 4444 
z
" transform="scale(0.015625)"/>
      </defs>
      <use xlink:href="#TimesNewRomanPSMT-47"/>
      <use xlink:href="#TimesNewRomanPSMT-72" x="72.216797"/>
      <use xlink:href="#TimesNewRomanPSMT-6f" x="105.517578"/>
      <use xlink:href="#TimesNewRomanPSMT-75" x="155.517578"/>
      <use xlink:href="#TimesNewRomanPSMT-6e" x="205.517578"/>
      <use xlink:href="#TimesNewRomanPSMT-64" x="255.517578"/>
      <use xlink:href="#TimesNewRomanPSMT-54" x="305.517578"/>
      <use xlink:href="#TimesNewRomanPSMT-72" x="363.101562"/>
      <use xlink:href="#TimesNewRomanPSMT-75" x="396.402344"/>
      <use xlink:href="#TimesNewRomanPSMT-74" x="446.402344"/>
      <use xlink:href="#TimesNewRomanPSMT-68" x="474.185547"/>
     </g>
    </g>
    <g id="line2d_23">
     <path d="M 345.1325 69.5396 
L 361.1325 69.5396 
L 377.1325 69.5396 
" style="fill: none; stroke: #0000ff; stroke-width: 2; stroke-linecap: square"/>
    </g>
    <g id="text_19">
     <!-- FAST-LIO2 -->
     <g transform="translate(389.9325 75.1396) scale(0.16 -0.16)">
      <defs>
       <path id="TimesNewRomanPSMT-46" d="M 1309 4006 
L 1309 2341 
L 2081 2341 
Q 2347 2341 2470 2458 
Q 2594 2575 2634 2922 
L 2750 2922 
L 2750 1488 
L 2634 1488 
Q 2631 1734 2570 1850 
Q 2509 1966 2401 2023 
Q 2294 2081 2081 2081 
L 1309 2081 
L 1309 750 
Q 1309 428 1350 325 
Q 1381 247 1481 191 
Q 1619 116 1769 116 
L 1922 116 
L 1922 0 
L 103 0 
L 103 116 
L 253 116 
Q 516 116 634 269 
Q 709 369 709 750 
L 709 3488 
Q 709 3809 669 3913 
Q 638 3991 541 4047 
Q 406 4122 253 4122 
L 103 4122 
L 103 4238 
L 3256 4238 
L 3297 3306 
L 3188 3306 
Q 3106 3603 2998 3742 
Q 2891 3881 2733 3943 
Q 2575 4006 2244 4006 
L 1309 4006 
z
" transform="scale(0.015625)"/>
       <path id="TimesNewRomanPSMT-41" d="M 2928 1419 
L 1288 1419 
L 1000 750 
Q 894 503 894 381 
Q 894 284 986 211 
Q 1078 138 1384 116 
L 1384 0 
L 50 0 
L 50 116 
Q 316 163 394 238 
Q 553 388 747 847 
L 2238 4334 
L 2347 4334 
L 3822 809 
Q 4000 384 4145 257 
Q 4291 131 4550 116 
L 4550 0 
L 2878 0 
L 2878 116 
Q 3131 128 3220 200 
Q 3309 272 3309 375 
Q 3309 513 3184 809 
L 2928 1419 
z
M 2841 1650 
L 2122 3363 
L 1384 1650 
L 2841 1650 
z
" transform="scale(0.015625)"/>
       <path id="TimesNewRomanPSMT-2d" d="M 259 1672 
L 1875 1672 
L 1875 1200 
L 259 1200 
L 259 1672 
z
" transform="scale(0.015625)"/>
       <path id="TimesNewRomanPSMT-4c" d="M 3669 1172 
L 3772 1150 
L 3409 0 
L 128 0 
L 128 116 
L 288 116 
Q 556 116 672 291 
Q 738 391 738 753 
L 738 3488 
Q 738 3884 650 3984 
Q 528 4122 288 4122 
L 128 4122 
L 128 4238 
L 2047 4238 
L 2047 4122 
Q 1709 4125 1573 4059 
Q 1438 3994 1388 3894 
Q 1338 3794 1338 3416 
L 1338 753 
Q 1338 494 1388 397 
Q 1425 331 1503 300 
Q 1581 269 1991 269 
L 2300 269 
Q 2788 269 2984 341 
Q 3181 413 3343 595 
Q 3506 778 3669 1172 
z
" transform="scale(0.015625)"/>
       <path id="TimesNewRomanPSMT-49" d="M 1975 116 
L 1975 0 
L 159 0 
L 159 116 
L 309 116 
Q 572 116 691 269 
Q 766 369 766 750 
L 766 3488 
Q 766 3809 725 3913 
Q 694 3991 597 4047 
Q 459 4122 309 4122 
L 159 4122 
L 159 4238 
L 1975 4238 
L 1975 4122 
L 1822 4122 
Q 1563 4122 1444 3969 
Q 1366 3869 1366 3488 
L 1366 750 
Q 1366 428 1406 325 
Q 1438 247 1538 191 
Q 1672 116 1822 116 
L 1975 116 
z
" transform="scale(0.015625)"/>
       <path id="TimesNewRomanPSMT-4f" d="M 2341 4334 
Q 3166 4334 3770 3707 
Q 4375 3081 4375 2144 
Q 4375 1178 3765 540 
Q 3156 -97 2291 -97 
Q 1416 -97 820 525 
Q 225 1147 225 2134 
Q 225 3144 913 3781 
Q 1509 4334 2341 4334 
z
M 2281 4106 
Q 1713 4106 1369 3684 
Q 941 3159 941 2147 
Q 941 1109 1384 550 
Q 1725 125 2284 125 
Q 2881 125 3270 590 
Q 3659 1056 3659 2059 
Q 3659 3147 3231 3681 
Q 2888 4106 2281 4106 
z
" transform="scale(0.015625)"/>
       <path id="TimesNewRomanPSMT-32" d="M 2934 816 
L 2638 0 
L 138 0 
L 138 116 
Q 1241 1122 1691 1759 
Q 2141 2397 2141 2925 
Q 2141 3328 1894 3587 
Q 1647 3847 1303 3847 
Q 991 3847 742 3664 
Q 494 3481 375 3128 
L 259 3128 
Q 338 3706 661 4015 
Q 984 4325 1469 4325 
Q 1984 4325 2329 3994 
Q 2675 3663 2675 3213 
Q 2675 2891 2525 2569 
Q 2294 2063 1775 1497 
Q 997 647 803 472 
L 1909 472 
Q 2247 472 2383 497 
Q 2519 522 2628 598 
Q 2738 675 2819 816 
L 2934 816 
z
" transform="scale(0.015625)"/>
      </defs>
      <use xlink:href="#TimesNewRomanPSMT-46"/>
      <use xlink:href="#TimesNewRomanPSMT-41" x="48.240234"/>
      <use xlink:href="#TimesNewRomanPSMT-53" x="120.457031"/>
      <use xlink:href="#TimesNewRomanPSMT-54" x="176.072266"/>
      <use xlink:href="#TimesNewRomanPSMT-2d" x="228.03125"/>
      <use xlink:href="#TimesNewRomanPSMT-4c" x="261.332031"/>
      <use xlink:href="#TimesNewRomanPSMT-49" x="322.416016"/>
      <use xlink:href="#TimesNewRomanPSMT-4f" x="355.716797"/>
      <use xlink:href="#TimesNewRomanPSMT-32" x="427.933594"/>
     </g>
    </g>
    <g id="line2d_24">
     <path d="M 498.3975 69.5396 
L 514.3975 69.5396 
L 530.3975 69.5396 
" style="fill: none; stroke: #ff0000; stroke-width: 2; stroke-linecap: square"/>
    </g>
    <g id="text_20">
     <!-- ROLO -->
     <g transform="translate(543.1975 75.1396) scale(0.16 -0.16)">
      <defs>
       <path id="TimesNewRomanPSMT-52" d="M 4325 0 
L 3194 0 
L 1759 1981 
Q 1600 1975 1500 1975 
Q 1459 1975 1412 1976 
Q 1366 1978 1316 1981 
L 1316 750 
Q 1316 350 1403 253 
Q 1522 116 1759 116 
L 1925 116 
L 1925 0 
L 109 0 
L 109 116 
L 269 116 
Q 538 116 653 291 
Q 719 388 719 750 
L 719 3488 
Q 719 3888 631 3984 
Q 509 4122 269 4122 
L 109 4122 
L 109 4238 
L 1653 4238 
Q 2328 4238 2648 4139 
Q 2969 4041 3192 3777 
Q 3416 3513 3416 3147 
Q 3416 2756 3161 2468 
Q 2906 2181 2372 2063 
L 3247 847 
Q 3547 428 3762 290 
Q 3978 153 4325 116 
L 4325 0 
z
M 1316 2178 
Q 1375 2178 1419 2176 
Q 1463 2175 1491 2175 
Q 2097 2175 2405 2437 
Q 2713 2700 2713 3106 
Q 2713 3503 2464 3751 
Q 2216 4000 1806 4000 
Q 1625 4000 1316 3941 
L 1316 2178 
z
" transform="scale(0.015625)"/>
      </defs>
      <use xlink:href="#TimesNewRomanPSMT-52"/>
      <use xlink:href="#TimesNewRomanPSMT-4f" x="66.699219"/>
      <use xlink:href="#TimesNewRomanPSMT-4c" x="138.916016"/>
      <use xlink:href="#TimesNewRomanPSMT-4f" x="200"/>
     </g>
    </g>
   </g>
  </g>
 </g>
 <defs>
  <clipPath id="p9b735f7b92">
   <rect x="42.12" y="43.74" width="579.96" height="579.96"/>
  </clipPath>
 </defs>
</svg>
