<?xml version="1.0" encoding="utf-8" standalone="no"?>
<!DOCTYPE svg PUBLIC "-//W3C//DTD SVG 1.1//EN"
  "http://www.w3.org/Graphics/SVG/1.1/DTD/svg11.dtd">
<svg xmlns:xlink="http://www.w3.org/1999/xlink" width="648pt" height="647.52pt" viewBox="0 0 648 647.52" xmlns="http://www.w3.org/2000/svg" version="1.1">
 <metadata>
  <rdf:RDF xmlns:dc="http://purl.org/dc/elements/1.1/" xmlns:cc="http://creativecommons.org/ns#" xmlns:rdf="http://www.w3.org/1999/02/22-rdf-syntax-ns#">
   <cc:Work>
    <dc:type rdf:resource="http://purl.org/dc/dcmitype/StillImage"/>
    <dc:date>2024-08-10T16:04:37.145318</dc:date>
    <dc:format>image/svg+xml</dc:format>
    <dc:creator>
     <cc:Agent>
      <dc:title>Matplotlib v3.8.3, https://matplotlib.org/</dc:title>
     </cc:Agent>
    </dc:creator>
   </cc:Work>
  </rdf:RDF>
 </metadata>
 <defs>
  <style type="text/css">*{stroke-linejoin: round; stroke-linecap: butt}</style>
 </defs>
 <g id="figure_1">
  <g id="patch_1">
   <path d="M 0 647.52 
L 648 647.52 
L 648 0 
L 0 0 
z
" style="fill: #ffffff"/>
  </g>
  <g id="patch_2">
   <path d="M 42.12 623.4528 
L 622.08 623.4528 
L 622.08 43.4928 
L 42.12 43.4928 
z
" style="fill: #ffffff"/>
  </g>
  <g id="pane3d_1">
   <g id="patch_3">
    <path d="M 579.881642 419.452908 
L 262.400342 358.072401 
L 259.931089 113.842895 
L 587.893353 165.433942 
" style="fill: #ffffff; stroke: #ffffff; stroke-linejoin: miter"/>
   </g>
  </g>
  <g id="pane3d_2">
   <g id="patch_4">
    <path d="M 87.904051 488.47129 
L 262.400342 358.072401 
L 259.931089 113.842895 
L 79.049814 223.629402 
" style="fill: #ffffff; stroke: #ffffff; stroke-linejoin: miter"/>
   </g>
  </g>
  <g id="pane3d_3">
   <g id="patch_5">
    <path d="M 429.619932 563.043566 
L 579.881642 419.452908 
L 262.400342 358.072401 
L 87.904051 488.47129 
" style="fill: #ffffff; stroke: #ffffff; stroke-linejoin: miter"/>
   </g>
  </g>
  <g id="grid3d_1">
   <g id="Line3DCollection_1">
    <path d="M 471.569534 522.956367 
L 136.455026 452.189756 
L 129.492859 193.012824 
" style="fill: none; stroke: #bdc3c7; stroke-width: 0.5"/>
    <path d="M 508.427094 487.735144 
L 179.21749 420.233902 
L 173.847915 166.091371 
" style="fill: none; stroke: #bdc3c7; stroke-width: 0.5"/>
    <path d="M 543.563656 454.158513 
L 220.074868 389.701697 
L 216.162432 140.40843 
" style="fill: none; stroke: #bdc3c7; stroke-width: 0.5"/>
    <path d="M 577.097009 422.113914 
L 259.151692 360.500077 
L 256.574057 115.880457 
" style="fill: none; stroke: #bdc3c7; stroke-width: 0.5"/>
   </g>
  </g>
  <g id="grid3d_2">
   <g id="Line3DCollection_2">
    <path d="M 499.674559 151.556431 
L 494.575425 402.960161 
L 337.486999 542.937499 
" style="fill: none; stroke: #bdc3c7; stroke-width: 0.5"/>
    <path d="M 420.102251 139.03908 
L 417.571374 388.07252 
L 254.519832 524.831666 
" style="fill: none; stroke: #bdc3c7; stroke-width: 0.5"/>
    <path d="M 342.317322 126.802898 
L 342.243 373.508847 
L 173.54036 507.159606 
" style="fill: none; stroke: #bdc3c7; stroke-width: 0.5"/>
    <path d="M 266.260218 114.838516 
L 268.536195 359.258682 
L 94.477999 489.905915 
" style="fill: none; stroke: #bdc3c7; stroke-width: 0.5"/>
   </g>
  </g>
  <g id="grid3d_3">
   <g id="Line3DCollection_3">
    <path d="M 85.674109 421.770797 
L 261.77698 296.416751 
L 581.901936 355.397552 
" style="fill: none; stroke: #bdc3c7; stroke-width: 0.5"/>
    <path d="M 83.567413 358.756756 
L 261.188987 238.259416 
L 583.808997 294.932358 
" style="fill: none; stroke: #bdc3c7; stroke-width: 0.5"/>
    <path d="M 81.425516 294.689786 
L 260.59208 179.220424 
L 585.746358 233.50647 
" style="fill: none; stroke: #bdc3c7; stroke-width: 0.5"/>
    <path d="M 79.247527 229.543274 
L 259.986056 119.279573 
L 587.714747 171.09681 
" style="fill: none; stroke: #bdc3c7; stroke-width: 0.5"/>
   </g>
  </g>
  <g id="axis3d_1">
   <g id="line2d_1">
    <path d="M 579.881642 419.452908 
L 429.619932 563.043566 
" style="fill: none; stroke: #000000; stroke-width: 0.8; stroke-linecap: square"/>
   </g>
   <g id="xtick_1">
    <g id="line2d_2">
     <path d="M 468.754495 522.361911 
L 477.206435 524.146719 
" style="fill: none; stroke: #000000; stroke-width: 0.8; stroke-linecap: square"/>
    </g>
    <g id="text_1">
     <!-- 80 -->
     <g transform="translate(469.565687 540.252966) scale(0.14 -0.14)">
      <defs>
       <path id="DejaVuSans-38" d="M 2034 2216 
Q 1584 2216 1326 1975 
Q 1069 1734 1069 1313 
Q 1069 891 1326 650 
Q 1584 409 2034 409 
Q 2484 409 2743 651 
Q 3003 894 3003 1313 
Q 3003 1734 2745 1975 
Q 2488 2216 2034 2216 
z
M 1403 2484 
Q 997 2584 770 2862 
Q 544 3141 544 3541 
Q 544 4100 942 4425 
Q 1341 4750 2034 4750 
Q 2731 4750 3128 4425 
Q 3525 4100 3525 3541 
Q 3525 3141 3298 2862 
Q 3072 2584 2669 2484 
Q 3125 2378 3379 2068 
Q 3634 1759 3634 1313 
Q 3634 634 3220 271 
Q 2806 -91 2034 -91 
Q 1263 -91 848 271 
Q 434 634 434 1313 
Q 434 1759 690 2068 
Q 947 2378 1403 2484 
z
M 1172 3481 
Q 1172 3119 1398 2916 
Q 1625 2713 2034 2713 
Q 2441 2713 2670 2916 
Q 2900 3119 2900 3481 
Q 2900 3844 2670 4047 
Q 2441 4250 2034 4250 
Q 1625 4250 1398 4047 
Q 1172 3844 1172 3481 
z
" transform="scale(0.015625)"/>
       <path id="DejaVuSans-30" d="M 2034 4250 
Q 1547 4250 1301 3770 
Q 1056 3291 1056 2328 
Q 1056 1369 1301 889 
Q 1547 409 2034 409 
Q 2525 409 2770 889 
Q 3016 1369 3016 2328 
Q 3016 3291 2770 3770 
Q 2525 4250 2034 4250 
z
M 2034 4750 
Q 2819 4750 3233 4129 
Q 3647 3509 3647 2328 
Q 3647 1150 3233 529 
Q 2819 -91 2034 -91 
Q 1250 -91 836 529 
Q 422 1150 422 2328 
Q 422 3509 836 4129 
Q 1250 4750 2034 4750 
z
" transform="scale(0.015625)"/>
      </defs>
      <use xlink:href="#DejaVuSans-38"/>
      <use xlink:href="#DejaVuSans-30" x="63.623047"/>
     </g>
    </g>
   </g>
   <g id="xtick_2">
    <g id="line2d_3">
     <path d="M 505.664806 487.168764 
L 513.958205 488.869245 
" style="fill: none; stroke: #000000; stroke-width: 0.8; stroke-linecap: square"/>
    </g>
    <g id="text_2">
     <!-- 160 -->
     <g transform="translate(501.81564 504.861794) scale(0.14 -0.14)">
      <defs>
       <path id="DejaVuSans-31" d="M 794 531 
L 1825 531 
L 1825 4091 
L 703 3866 
L 703 4441 
L 1819 4666 
L 2450 4666 
L 2450 531 
L 3481 531 
L 3481 0 
L 794 0 
L 794 531 
z
" transform="scale(0.015625)"/>
       <path id="DejaVuSans-36" d="M 2113 2584 
Q 1688 2584 1439 2293 
Q 1191 2003 1191 1497 
Q 1191 994 1439 701 
Q 1688 409 2113 409 
Q 2538 409 2786 701 
Q 3034 994 3034 1497 
Q 3034 2003 2786 2293 
Q 2538 2584 2113 2584 
z
M 3366 4563 
L 3366 3988 
Q 3128 4100 2886 4159 
Q 2644 4219 2406 4219 
Q 1781 4219 1451 3797 
Q 1122 3375 1075 2522 
Q 1259 2794 1537 2939 
Q 1816 3084 2150 3084 
Q 2853 3084 3261 2657 
Q 3669 2231 3669 1497 
Q 3669 778 3244 343 
Q 2819 -91 2113 -91 
Q 1303 -91 875 529 
Q 447 1150 447 2328 
Q 447 3434 972 4092 
Q 1497 4750 2381 4750 
Q 2619 4750 2861 4703 
Q 3103 4656 3366 4563 
z
" transform="scale(0.015625)"/>
      </defs>
      <use xlink:href="#DejaVuSans-31"/>
      <use xlink:href="#DejaVuSans-36" x="63.623047"/>
      <use xlink:href="#DejaVuSans-30" x="127.246094"/>
     </g>
    </g>
   </g>
   <g id="xtick_3">
    <g id="line2d_4">
     <path d="M 540.852319 453.618265 
L 548.992595 455.240257 
" style="fill: none; stroke: #000000; stroke-width: 0.8; stroke-linecap: square"/>
    </g>
    <g id="text_3">
     <!-- 240 -->
     <g transform="translate(536.80502 471.12364) scale(0.14 -0.14)">
      <defs>
       <path id="DejaVuSans-32" d="M 1228 531 
L 3431 531 
L 3431 0 
L 469 0 
L 469 531 
Q 828 903 1448 1529 
Q 2069 2156 2228 2338 
Q 2531 2678 2651 2914 
Q 2772 3150 2772 3378 
Q 2772 3750 2511 3984 
Q 2250 4219 1831 4219 
Q 1534 4219 1204 4116 
Q 875 4013 500 3803 
L 500 4441 
Q 881 4594 1212 4672 
Q 1544 4750 1819 4750 
Q 2544 4750 2975 4387 
Q 3406 4025 3406 3419 
Q 3406 3131 3298 2873 
Q 3191 2616 2906 2266 
Q 2828 2175 2409 1742 
Q 1991 1309 1228 531 
z
" transform="scale(0.015625)"/>
       <path id="DejaVuSans-34" d="M 2419 4116 
L 825 1625 
L 2419 1625 
L 2419 4116 
z
M 2253 4666 
L 3047 4666 
L 3047 1625 
L 3713 1625 
L 3713 1100 
L 3047 1100 
L 3047 0 
L 2419 0 
L 2419 1100 
L 313 1100 
L 313 1709 
L 2253 4666 
z
" transform="scale(0.015625)"/>
      </defs>
      <use xlink:href="#DejaVuSans-32"/>
      <use xlink:href="#DejaVuSans-34" x="63.623047"/>
      <use xlink:href="#DejaVuSans-30" x="127.246094"/>
     </g>
    </g>
   </g>
   <g id="xtick_4">
    <g id="line2d_5">
     <path d="M 574.434901 421.598031 
L 582.427235 423.146845 
" style="fill: none; stroke: #000000; stroke-width: 0.8; stroke-linecap: square"/>
    </g>
    <g id="text_4">
     <!-- 320 -->
     <g transform="translate(570.197442 438.925336) scale(0.14 -0.14)">
      <defs>
       <path id="DejaVuSans-33" d="M 2597 2516 
Q 3050 2419 3304 2112 
Q 3559 1806 3559 1356 
Q 3559 666 3084 287 
Q 2609 -91 1734 -91 
Q 1441 -91 1130 -33 
Q 819 25 488 141 
L 488 750 
Q 750 597 1062 519 
Q 1375 441 1716 441 
Q 2309 441 2620 675 
Q 2931 909 2931 1356 
Q 2931 1769 2642 2001 
Q 2353 2234 1838 2234 
L 1294 2234 
L 1294 2753 
L 1863 2753 
Q 2328 2753 2575 2939 
Q 2822 3125 2822 3475 
Q 2822 3834 2567 4026 
Q 2313 4219 1838 4219 
Q 1578 4219 1281 4162 
Q 984 4106 628 3988 
L 628 4550 
Q 988 4650 1302 4700 
Q 1616 4750 1894 4750 
Q 2613 4750 3031 4423 
Q 3450 4097 3450 3541 
Q 3450 3153 3228 2886 
Q 3006 2619 2597 2516 
z
" transform="scale(0.015625)"/>
      </defs>
      <use xlink:href="#DejaVuSans-33"/>
      <use xlink:href="#DejaVuSans-32" x="63.623047"/>
      <use xlink:href="#DejaVuSans-30" x="127.246094"/>
     </g>
    </g>
   </g>
   <g id="text_5">
    <!-- X (m) -->
    <g transform="translate(522.782603 531.799074) rotate(-43.699491) scale(0.18 -0.18)">
     <defs>
      <path id="TimesNewRomanPSMT-58" d="M 2613 2347 
L 3522 991 
Q 3900 428 4083 279 
Q 4266 131 4547 116 
L 4547 0 
L 2728 0 
L 2728 116 
Q 2909 119 2997 153 
Q 3063 181 3105 239 
Q 3147 297 3147 356 
Q 3147 428 3119 500 
Q 3097 553 2947 775 
L 2228 1863 
L 1341 725 
Q 1200 544 1172 483 
Q 1144 422 1144 356 
Q 1144 256 1228 190 
Q 1313 125 1550 116 
L 1550 0 
L 47 0 
L 47 116 
Q 206 131 322 181 
Q 516 263 691 400 
Q 866 538 1091 822 
L 2091 2084 
L 1256 3306 
Q 916 3803 678 3958 
Q 441 4113 131 4122 
L 131 4238 
L 2091 4238 
L 2091 4122 
Q 1841 4113 1748 4041 
Q 1656 3969 1656 3881 
Q 1656 3766 1806 3544 
L 2456 2572 
L 3209 3525 
Q 3341 3694 3370 3756 
Q 3400 3819 3400 3884 
Q 3400 3950 3363 4000 
Q 3316 4066 3244 4092 
Q 3172 4119 2947 4122 
L 2947 4238 
L 4450 4238 
L 4450 4122 
Q 4272 4113 4159 4066 
Q 3991 3994 3850 3872 
Q 3709 3750 3453 3422 
L 2613 2347 
z
" transform="scale(0.015625)"/>
      <path id="TimesNewRomanPSMT-20" transform="scale(0.015625)"/>
      <path id="TimesNewRomanPSMT-28" d="M 1988 -1253 
L 1988 -1369 
Q 1516 -1131 1200 -813 
Q 750 -359 506 256 
Q 263 872 263 1534 
Q 263 2503 741 3301 
Q 1219 4100 1988 4444 
L 1988 4313 
Q 1603 4100 1356 3731 
Q 1109 3363 987 2797 
Q 866 2231 866 1616 
Q 866 947 969 400 
Q 1050 -31 1165 -292 
Q 1281 -553 1476 -793 
Q 1672 -1034 1988 -1253 
z
" transform="scale(0.015625)"/>
      <path id="TimesNewRomanPSMT-6d" d="M 1050 2338 
Q 1363 2650 1419 2697 
Q 1559 2816 1721 2881 
Q 1884 2947 2044 2947 
Q 2313 2947 2506 2790 
Q 2700 2634 2766 2338 
Q 3088 2713 3309 2830 
Q 3531 2947 3766 2947 
Q 3994 2947 4170 2830 
Q 4347 2713 4450 2447 
Q 4519 2266 4519 1878 
L 4519 647 
Q 4519 378 4559 278 
Q 4591 209 4675 161 
Q 4759 113 4950 113 
L 4950 0 
L 3538 0 
L 3538 113 
L 3597 113 
Q 3781 113 3884 184 
Q 3956 234 3988 344 
Q 4000 397 4000 647 
L 4000 1878 
Q 4000 2228 3916 2372 
Q 3794 2572 3525 2572 
Q 3359 2572 3192 2489 
Q 3025 2406 2788 2181 
L 2781 2147 
L 2788 2013 
L 2788 647 
Q 2788 353 2820 281 
Q 2853 209 2943 161 
Q 3034 113 3253 113 
L 3253 0 
L 1806 0 
L 1806 113 
Q 2044 113 2133 169 
Q 2222 225 2256 338 
Q 2272 391 2272 647 
L 2272 1878 
Q 2272 2228 2169 2381 
Q 2031 2581 1784 2581 
Q 1616 2581 1450 2491 
Q 1191 2353 1050 2181 
L 1050 647 
Q 1050 366 1089 281 
Q 1128 197 1204 155 
Q 1281 113 1516 113 
L 1516 0 
L 100 0 
L 100 113 
Q 297 113 375 155 
Q 453 197 493 289 
Q 534 381 534 647 
L 534 1741 
Q 534 2213 506 2350 
Q 484 2453 437 2492 
Q 391 2531 309 2531 
Q 222 2531 100 2484 
L 53 2597 
L 916 2947 
L 1050 2947 
L 1050 2338 
z
" transform="scale(0.015625)"/>
      <path id="TimesNewRomanPSMT-29" d="M 144 4313 
L 144 4444 
Q 619 4209 934 3891 
Q 1381 3434 1625 2820 
Q 1869 2206 1869 1541 
Q 1869 572 1392 -226 
Q 916 -1025 144 -1369 
L 144 -1253 
Q 528 -1038 776 -670 
Q 1025 -303 1145 264 
Q 1266 831 1266 1447 
Q 1266 2113 1163 2663 
Q 1084 3094 967 3353 
Q 850 3613 656 3853 
Q 463 4094 144 4313 
z
" transform="scale(0.015625)"/>
     </defs>
     <use xlink:href="#TimesNewRomanPSMT-58"/>
     <use xlink:href="#TimesNewRomanPSMT-20" x="72.216797"/>
     <use xlink:href="#TimesNewRomanPSMT-28" x="97.216797"/>
     <use xlink:href="#TimesNewRomanPSMT-6d" x="130.517578"/>
     <use xlink:href="#TimesNewRomanPSMT-29" x="208.300781"/>
    </g>
   </g>
  </g>
  <g id="axis3d_2">
   <g id="line2d_6">
    <path d="M 87.904051 488.47129 
L 429.619932 563.043566 
" style="fill: none; stroke: #000000; stroke-width: 0.8; stroke-linecap: square"/>
   </g>
   <g id="xtick_5">
    <g id="line2d_7">
     <path d="M 338.872536 541.702883 
L 334.709034 545.412869 
" style="fill: none; stroke: #000000; stroke-width: 0.8; stroke-linecap: square"/>
    </g>
    <g id="text_6">
     <!-- 30 -->
     <g transform="translate(321.966457 569.533498) scale(0.14 -0.14)">
      <use xlink:href="#DejaVuSans-33"/>
      <use xlink:href="#DejaVuSans-30" x="63.623047"/>
     </g>
    </g>
   </g>
   <g id="xtick_6">
    <g id="line2d_8">
     <path d="M 255.956345 523.626794 
L 251.63975 527.247329 
" style="fill: none; stroke: #000000; stroke-width: 0.8; stroke-linecap: square"/>
    </g>
    <g id="text_7">
     <!-- 110 -->
     <g transform="translate(234.412557 551.187128) scale(0.14 -0.14)">
      <use xlink:href="#DejaVuSans-31"/>
      <use xlink:href="#DejaVuSans-31" x="63.623047"/>
      <use xlink:href="#DejaVuSans-30" x="127.246094"/>
     </g>
    </g>
   </g>
   <g id="xtick_7">
    <g id="line2d_9">
     <path d="M 175.025024 505.983416 
L 170.563827 509.517696 
" style="fill: none; stroke: #000000; stroke-width: 0.8; stroke-linecap: square"/>
    </g>
    <g id="text_8">
     <!-- 190 -->
     <g transform="translate(153.308347 533.28141) scale(0.14 -0.14)">
      <defs>
       <path id="DejaVuSans-39" d="M 703 97 
L 703 672 
Q 941 559 1184 500 
Q 1428 441 1663 441 
Q 2288 441 2617 861 
Q 2947 1281 2994 2138 
Q 2813 1869 2534 1725 
Q 2256 1581 1919 1581 
Q 1219 1581 811 2004 
Q 403 2428 403 3163 
Q 403 3881 828 4315 
Q 1253 4750 1959 4750 
Q 2769 4750 3195 4129 
Q 3622 3509 3622 2328 
Q 3622 1225 3098 567 
Q 2575 -91 1691 -91 
Q 1453 -91 1209 -44 
Q 966 3 703 97 
z
M 1959 2075 
Q 2384 2075 2632 2365 
Q 2881 2656 2881 3163 
Q 2881 3666 2632 3958 
Q 2384 4250 1959 4250 
Q 1534 4250 1286 3958 
Q 1038 3666 1038 3163 
Q 1038 2656 1286 2365 
Q 1534 2075 1959 2075 
z
" transform="scale(0.015625)"/>
      </defs>
      <use xlink:href="#DejaVuSans-31"/>
      <use xlink:href="#DejaVuSans-39" x="63.623047"/>
      <use xlink:href="#DejaVuSans-30" x="127.246094"/>
     </g>
    </g>
   </g>
   <g id="xtick_8">
    <g id="line2d_10">
     <path d="M 96.008146 488.757394 
L 91.410366 492.208466 
" style="fill: none; stroke: #000000; stroke-width: 0.8; stroke-linecap: square"/>
    </g>
    <g id="text_9">
     <!-- 270 -->
     <g transform="translate(74.129021 515.800656) scale(0.14 -0.14)">
      <defs>
       <path id="DejaVuSans-37" d="M 525 4666 
L 3525 4666 
L 3525 4397 
L 1831 0 
L 1172 0 
L 2766 4134 
L 525 4134 
L 525 4666 
z
" transform="scale(0.015625)"/>
      </defs>
      <use xlink:href="#DejaVuSans-32"/>
      <use xlink:href="#DejaVuSans-37" x="63.623047"/>
      <use xlink:href="#DejaVuSans-30" x="127.246094"/>
     </g>
    </g>
   </g>
   <g id="text_10">
    <!-- Y (m) -->
    <g transform="translate(214.34584 567.030764) rotate(-347.68941) scale(0.18 -0.18)">
     <defs>
      <path id="TimesNewRomanPSMT-59" d="M 3050 4238 
L 4528 4238 
L 4528 4122 
L 4447 4122 
Q 4366 4122 4209 4050 
Q 4053 3978 3925 3843 
Q 3797 3709 3609 3406 
L 2588 1797 
L 2588 734 
Q 2588 344 2675 247 
Q 2794 116 3050 116 
L 3188 116 
L 3188 0 
L 1388 0 
L 1388 116 
L 1538 116 
Q 1806 116 1919 278 
Q 1988 378 1988 734 
L 1988 1738 
L 825 3513 
Q 619 3825 545 3903 
Q 472 3981 241 4091 
Q 178 4122 59 4122 
L 59 4238 
L 1872 4238 
L 1872 4122 
L 1778 4122 
Q 1631 4122 1507 4053 
Q 1384 3984 1384 3847 
Q 1384 3734 1575 3441 
L 2459 2075 
L 3291 3381 
Q 3478 3675 3478 3819 
Q 3478 3906 3433 3975 
Q 3388 4044 3303 4083 
Q 3219 4122 3050 4122 
L 3050 4238 
z
" transform="scale(0.015625)"/>
     </defs>
     <use xlink:href="#TimesNewRomanPSMT-59"/>
     <use xlink:href="#TimesNewRomanPSMT-20" x="68.466797"/>
     <use xlink:href="#TimesNewRomanPSMT-28" x="93.466797"/>
     <use xlink:href="#TimesNewRomanPSMT-6d" x="126.767578"/>
     <use xlink:href="#TimesNewRomanPSMT-29" x="204.550781"/>
    </g>
   </g>
  </g>
  <g id="axis3d_3">
   <g id="line2d_11">
    <path d="M 87.904051 488.47129 
L 79.049814 223.629402 
" style="fill: none; stroke: #000000; stroke-width: 0.8; stroke-linecap: square"/>
   </g>
   <g id="xtick_9">
    <g id="line2d_12">
     <path d="M 87.223323 420.668032 
L 82.568193 423.981659 
" style="fill: none; stroke: #000000; stroke-width: 0.8; stroke-linecap: square"/>
    </g>
    <g id="text_11">
     <!-- −70 -->
     <g transform="translate(43.205488 436.113016) scale(0.14 -0.14)">
      <defs>
       <path id="DejaVuSans-2212" d="M 678 2272 
L 4684 2272 
L 4684 1741 
L 678 1741 
L 678 2272 
z
" transform="scale(0.015625)"/>
      </defs>
      <use xlink:href="#DejaVuSans-2212"/>
      <use xlink:href="#DejaVuSans-37" x="83.789062"/>
      <use xlink:href="#DejaVuSans-30" x="147.412109"/>
     </g>
    </g>
   </g>
   <g id="xtick_10">
    <g id="line2d_13">
     <path d="M 85.13116 357.69592 
L 80.432299 360.883597 
" style="fill: none; stroke: #000000; stroke-width: 0.8; stroke-linecap: square"/>
    </g>
    <g id="text_12">
     <!-- 10 -->
     <g transform="translate(46.728745 372.958227) scale(0.14 -0.14)">
      <use xlink:href="#DejaVuSans-31"/>
      <use xlink:href="#DejaVuSans-30" x="63.623047"/>
     </g>
    </g>
   </g>
   <g id="xtick_11">
    <g id="line2d_14">
     <path d="M 83.004067 293.672441 
L 78.260658 296.729475 
" style="fill: none; stroke: #000000; stroke-width: 0.8; stroke-linecap: square"/>
    </g>
    <g id="text_13">
     <!-- 90 -->
     <g transform="translate(44.346971 308.74526) scale(0.14 -0.14)">
      <use xlink:href="#DejaVuSans-39"/>
      <use xlink:href="#DejaVuSans-30" x="63.623047"/>
     </g>
    </g>
   </g>
   <g id="xtick_12">
    <g id="line2d_15">
     <path d="M 80.841161 228.571041 
L 76.052363 231.492558 
" style="fill: none; stroke: #000000; stroke-width: 0.8; stroke-linecap: square"/>
    </g>
    <g id="text_14">
     <!-- 170 -->
     <g transform="translate(37.471202 243.447296) scale(0.14 -0.14)">
      <use xlink:href="#DejaVuSans-31"/>
      <use xlink:href="#DejaVuSans-37" x="63.623047"/>
      <use xlink:href="#DejaVuSans-30" x="127.246094"/>
     </g>
    </g>
   </g>
   <g id="text_15">
    <!-- Z (m) -->
    <g transform="translate(18.999115 345.345549) rotate(-271.914809) scale(0.18 -0.18)">
     <defs>
      <path id="TimesNewRomanPSMT-5a" d="M 3681 4238 
L 897 256 
L 2634 256 
Q 3034 256 3248 431 
Q 3463 606 3628 1141 
L 3731 1122 
L 3531 0 
L 81 0 
L 81 116 
L 2800 3984 
L 1444 3984 
Q 1106 3984 954 3911 
Q 803 3838 723 3698 
Q 644 3559 578 3178 
L 459 3178 
L 547 4238 
L 3681 4238 
z
" transform="scale(0.015625)"/>
     </defs>
     <use xlink:href="#TimesNewRomanPSMT-5a"/>
     <use xlink:href="#TimesNewRomanPSMT-20" x="61.083984"/>
     <use xlink:href="#TimesNewRomanPSMT-28" x="86.083984"/>
     <use xlink:href="#TimesNewRomanPSMT-6d" x="119.384766"/>
     <use xlink:href="#TimesNewRomanPSMT-29" x="197.167969"/>
    </g>
   </g>
  </g>
  <g id="axes_1">
   <g id="line2d_16">
    <defs>
     <path id="m8cd0012aa4" d="M 0 -3 
L -0.673542 -0.927051 
L -2.85317 -0.927051 
L -1.089814 0.354102 
L -1.763356 2.427051 
L -0 1.145898 
L 1.763356 2.427051 
L 1.089814 0.354102 
L 2.85317 -0.927051 
L 0.673542 -0.927051 
z
" style="stroke: #ff0000; stroke-linejoin: bevel"/>
    </defs>
    <g clip-path="url(#p8c51a1a195)">
     <use xlink:href="#m8cd0012aa4" x="373.010171" y="420.979374" style="fill: #ff0000; stroke: #ff0000; stroke-linejoin: bevel"/>
    </g>
   </g>
   <g id="line2d_17">
    <path d="M 373.010171 420.979374 
L 373.009745 420.979454 
L 374.652661 419.59132 
L 379.849757 415.057028 
L 382.466675 412.804574 
L 389.931521 405.763639 
L 391.11837 404.32296 
L 392.059648 402.812392 
L 392.352998 402.043337 
L 392.548592 400.444303 
L 392.441198 398.840168 
L 391.891054 395.166418 
L 391.98073 393.865048 
L 392.378459 392.58033 
L 393.075827 391.228287 
L 394.095766 389.968865 
L 401.992216 382.584495 
L 409.289741 375.955719 
L 420.243919 365.672315 
L 421.792551 364.394232 
L 423.58938 363.20519 
L 425.694991 362.133654 
L 428.127322 361.136838 
L 432.140292 359.814516 
L 438.665843 357.837019 
L 442.098352 356.420637 
L 445.231169 354.857553 
L 447.045581 353.785999 
L 447.834461 353.254094 
L 452.592769 348.869107 
L 463.04751 340.240643 
L 464.630597 339.2793 
L 466.323281 338.411648 
L 468.240786 337.793089 
L 470.449707 337.442981 
L 472.01245 337.347602 
L 474.987412 337.494083 
L 477.692042 337.93293 
L 482.395323 338.92833 
L 500.256212 343.134908 
L 501.619401 343.221577 
L 504.036634 343.076711 
L 506.014048 342.601467 
L 506.774588 342.22469 
L 508.386021 340.89909 
L 509.96214 339.531643 
L 511.625832 338.310098 
L 517.443553 334.449635 
L 517.85066 333.872588 
L 517.90215 333.333301 
L 517.636596 332.783652 
L 517.237276 332.341382 
L 516.445918 331.77763 
L 515.472592 331.375068 
L 512.746849 330.794918 
L 504.808059 329.650141 
L 499.094498 328.539406 
L 489.401699 326.492477 
L 477.375406 323.669921 
L 472.17891 322.371638 
L 466.842435 321.394896 
L 461.920447 320.887013 
L 456.746809 320.697703 
L 451.762051 320.667837 
L 444.203041 320.539399 
L 426.036857 320.874902 
L 423.72886 321.067211 
L 418.987058 321.478656 
L 415.552908 321.753961 
L 412.126477 321.965773 
L 409.871541 321.853098 
L 406.458211 321.30227 
L 402.665538 320.53929 
L 398.422388 319.547341 
L 349.709709 308.379674 
L 333.951552 304.381838 
L 328.378504 303.102451 
L 319.831134 301.156533 
L 311.262349 298.794239 
L 309.249776 297.827676 
L 308.660539 297.27246 
L 308.171461 296.164977 
L 308.337431 295.586997 
L 308.631439 295.043818 
L 309.113485 294.549024 
L 313.039916 291.840657 
L 318.042241 288.678644 
L 320.999695 286.466846 
L 329.995325 279.426515 
L 340.985164 270.039717 
L 350.300616 262.230507 
L 354.029013 258.804821 
L 354.909775 257.699447 
L 355.603249 256.549852 
L 355.860339 255.94411 
L 355.986647 255.349916 
L 355.983755 254.745184 
L 355.823471 254.180008 
L 355.535931 253.620293 
L 354.598549 252.586035 
L 353.240144 251.633033 
L 351.501054 250.705835 
L 348.379892 249.443833 
L 344.765618 248.282619 
L 337.963161 246.428369 
L 321.008123 241.898132 
L 317.548128 241.30588 
L 314.43482 241.100855 
L 311.790437 241.181886 
L 309.504892 241.45307 
L 307.484094 241.896929 
L 305.611262 242.508054 
L 303.999034 243.302245 
L 300.912033 245.203219 
L 289.108377 252.685801 
L 282.387196 257.584933 
L 274.065735 263.519399 
L 262.896026 270.984843 
L 256.467309 274.918166 
L 249.029128 279.17874 
L 232.756706 289.068938 
L 219.871816 296.456801 
L 209.1775 302.653349 
L 200.70644 308.002696 
L 198.965176 309.331291 
L 197.633615 310.807314 
L 196.725436 312.408218 
L 196.591872 312.930599 
L 196.614793 313.609348 
L 196.854548 314.152492 
L 197.316682 314.713561 
L 197.893829 315.192205 
L 198.683966 315.67113 
L 199.603353 316.037678 
L 202.323763 316.749752 
L 217.16794 319.905817 
L 225.226398 322.038653 
L 241.70417 326.491815 
L 244.710124 327.403239 
L 247.008271 328.27782 
L 248.615149 329.122653 
L 249.998388 330.243284 
L 250.656629 331.307839 
L 250.86167 332.491689 
L 250.837259 333.137032 
L 250.428518 334.500959 
L 249.582824 336.008558 
L 248.412891 337.594329 
L 246.342542 339.823442 
L 239.967589 346.52704 
L 238.368114 347.9704 
L 236.818255 349.375973 
L 230.725283 354.436953 
L 214.715634 367.321073 
L 202.683502 376.722015 
L 197.661629 380.359201 
L 197.03593 381.002515 
L 196.657043 381.613929 
L 196.476238 382.171885 
L 196.557988 382.713671 
L 196.774838 383.245853 
L 197.226476 383.779022 
L 197.831276 384.312983 
L 199.547312 385.307594 
L 201.882952 386.232355 
L 206.075069 387.55019 
L 209.252239 388.398041 
L 214.286373 389.675682 
L 221.404485 391.466344 
L 239.836096 396.666811 
L 261.740974 402.520006 
L 278.507793 407.093387 
L 291.292594 410.539659 
L 299.653101 412.637959 
L 302.836929 413.056201 
L 304.449151 413.108655 
L 306.046232 412.971502 
L 307.508088 412.684383 
L 308.733339 412.22171 
L 309.630746 411.603481 
L 312.819725 407.916351 
L 315.489013 405.524132 
L 320.199112 401.569236 
L 341.274682 383.105794 
L 342.042483 382.691615 
L 343.052185 382.315706 
L 344.184257 382.055765 
L 346.615261 381.816492 
L 348.990404 382.098754 
L 354.18136 383.166485 
L 362.396578 384.943795 
L 377.561254 388.653779 
L 382.336993 390.025275 
L 385.210196 391.095193 
L 387.577946 392.301099 
L 389.216193 393.692519 
L 389.825193 394.413133 
L 392.877441 399.609283 
L 393.469842 400.344148 
L 394.166792 401.031026 
L 396.011236 402.227593 
L 397.513343 403.233402 
L 398.170755 403.734878 
L 399.841268 404.544441 
L 402.328053 404.975993 
L 406.667397 405.543429 
L 416.752725 407.39385 
L 424.059883 409.077368 
L 431.525527 410.754287 
L 436.608716 411.81836 
L 459.444912 416.886855 
L 464.279884 417.923224 
L 467.171933 418.47517 
L 470.04005 418.531472 
L 471.440848 418.26596 
L 472.599685 417.856058 
L 473.528695 417.358976 
L 474.650296 416.265042 
L 476.766105 414.111346 
L 479.550252 411.635982 
L 482.604113 408.990934 
L 487.089156 404.773804 
L 489.678227 402.275019 
L 496.493147 395.981522 
L 501.035965 391.746564 
L 506.108288 386.998962 
L 510.417626 382.976678 
L 512.353 381.152862 
L 516.85008 376.756297 
L 517.427466 375.630444 
L 517.482666 375.058264 
L 517.345703 374.456604 
L 517.058596 373.898656 
L 516.535348 373.290147 
L 515.771197 372.684013 
L 514.797352 372.131578 
L 513.604673 371.706662 
L 507.242723 370.151383 
L 505.298622 369.833647 
L 497.579595 368.134057 
L 470.668376 362.370413 
L 455.196019 358.810536 
L 451.852009 358.260906 
L 448.428329 357.961856 
L 446.68468 357.942369 
L 441.738006 358.43954 
L 438.600727 358.962964 
L 434.172466 359.876454 
L 429.827895 360.710192 
L 426.866402 361.077472 
L 423.888134 361.175923 
L 421.002556 361.107916 
L 419.550416 361.044711 
L 415.176233 360.430937 
L 410.683773 359.593789 
L 398.430904 356.856584 
L 395.319017 356.047993 
L 388.710587 354.622919 
L 385.252335 353.987389 
L 381.677468 353.58575 
L 378.203699 353.469125 
L 376.576294 353.579816 
L 373.673616 354.039206 
L 371.277741 354.835995 
L 370.36069 355.31241 
L 369.59533 355.849013 
L 366.028259 359.486535 
L 365.269734 360.060689 
L 363.276166 361.07676 
L 360.833967 361.743504 
L 358.094229 362.029827 
L 355.287463 362.03286 
L 352.499538 361.751669 
L 349.649773 361.296736 
L 345.243611 360.285991 
L 267.670451 341.02384 
L 263.241781 339.703862 
L 260.889987 338.733665 
L 258.84806 337.494709 
L 257.714914 336.173875 
L 257.375114 335.485301 
L 257.199334 334.773753 
L 257.160648 334.120455 
L 257.297486 333.425253 
L 257.575107 332.731777 
L 258.583954 331.386533 
L 260.002477 330.01914 
L 266.754866 324.57831 
L 275.515689 317.78992 
L 285.242116 309.938668 
L 287.069329 308.653168 
L 289.149177 307.020879 
L 292.323202 304.620007 
L 295.041758 302.784789 
L 300.327046 299.510151 
L 309.023311 294.658702 
L 309.023311 294.658702 
" clip-path="url(#p8c51a1a195)" style="fill: none; stroke-dasharray: 10.175,4.4; stroke-dashoffset: 0; stroke: #808a87; stroke-width: 2.75"/>
   </g>
   <g id="line2d_18">
    <path d="M 373.240177 420.806793 
L 374.685025 419.561633 
L 378.16265 416.572255 
L 382.610246 412.849747 
L 389.602408 406.469927 
L 390.808516 405.088124 
L 391.447746 404.193958 
L 391.949306 403.135949 
L 392.164166 401.995947 
L 392.206314 400.853351 
L 392.037536 399.370625 
L 391.629325 396.669117 
L 391.655322 395.733107 
L 391.777022 395.145977 
L 392.312808 393.577826 
L 393.021678 392.528909 
L 393.835558 391.595259 
L 401.531211 384.65582 
L 404.305154 382.248471 
L 406.076067 380.689267 
L 408.089869 378.949791 
L 421.55118 367.104102 
L 423.097105 366.111675 
L 425.456257 364.906583 
L 427.888012 363.933922 
L 435.26395 361.621817 
L 439.007361 360.424973 
L 440.736869 359.74127 
L 447.076607 356.64946 
L 448.377336 355.634595 
L 450.006097 354.099307 
L 454.730299 350.329574 
L 458.706175 347.175342 
L 462.798637 344.003494 
L 464.162237 343.162231 
L 466.293439 342.130325 
L 469.549129 341.285716 
L 471.664893 341.096921 
L 473.438199 341.086662 
L 479.29793 341.827181 
L 489.651839 344.047279 
L 499.423927 346.159981 
L 502.067888 346.324385 
L 503.299591 346.218126 
L 505.712142 345.726956 
L 506.612088 345.351599 
L 507.716939 344.549731 
L 511.061362 342.053947 
L 513.050262 340.862744 
L 516.218344 339.019487 
L 517.283324 338.326717 
L 517.792671 337.922886 
L 518.049423 337.295545 
L 517.86904 336.78967 
L 517.506231 336.326121 
L 516.819303 335.805505 
L 515.617567 335.337786 
L 514.379122 335.075263 
L 509.978788 334.617565 
L 502.779083 333.66327 
L 496.430633 332.586564 
L 481.866413 329.991594 
L 478.458881 329.333178 
L 472.476293 328.173313 
L 467.600548 327.478712 
L 464.241446 327.222754 
L 458.742859 327.206871 
L 444.076014 327.511245 
L 439.462199 327.74434 
L 425.880957 328.471247 
L 423.524775 328.718148 
L 418.475726 329.326753 
L 416.783852 329.537148 
L 411.350686 329.946486 
L 408.551005 329.734054 
L 405.661016 329.359594 
L 392.466853 326.9215 
L 364.856814 322.004918 
L 360.00585 321.146418 
L 358.329585 320.824443 
L 351.598784 319.550579 
L 336.197931 316.347948 
L 332.511043 315.67633 
L 328.853372 315.033058 
L 320.973869 313.585667 
L 312.299016 311.541426 
L 310.56375 310.660106 
L 310.164173 310.288309 
L 309.829394 309.501407 
L 309.849493 309.0846 
L 310.109542 308.558738 
L 310.635086 307.932885 
L 312.085311 306.953524 
L 317.196758 303.758861 
L 320.638164 301.625135 
L 323.416345 299.583959 
L 325.935194 297.706499 
L 333.261445 292.219826 
L 336.721178 289.315691 
L 345.651023 282.327284 
L 352.94929 276.664762 
L 358.036775 272.316913 
L 359.122951 270.971072 
L 359.665757 269.981469 
L 359.842999 269.152813 
L 359.783524 268.462879 
L 359.322681 267.573107 
L 358.610351 266.890068 
L 357.33044 266.021985 
L 355.186248 265.007039 
L 353.170549 264.277271 
L 350.308382 263.421517 
L 347.49163 262.732661 
L 339.269469 260.820917 
L 331.843778 259.055534 
L 326.26759 257.865977 
L 323.293688 257.424797 
L 320.83508 257.25764 
L 318.305984 257.271636 
L 316.098671 257.444417 
L 313.60576 257.853366 
L 311.151581 258.522492 
L 309.584548 259.149289 
L 306.110856 261.07037 
L 300.959755 264.051245 
L 297.752941 265.893401 
L 288.70051 271.650151 
L 281.813587 276.23672 
L 276.998356 279.358608 
L 260.324787 289.515385 
L 225.197444 308.953051 
L 213.186499 315.399253 
L 206.054897 319.337816 
L 200.781119 322.361782 
L 196.767851 324.905518 
L 195.770463 325.725099 
L 194.170234 327.460533 
L 193.589314 328.394003 
L 193.37119 329.014558 
L 193.404551 329.529485 
L 193.675387 330.178729 
L 194.30284 330.827396 
L 196.416594 331.812717 
L 200.360092 332.635661 
L 202.933894 333.067758 
L 216.497436 335.854844 
L 228.633926 338.915685 
L 239.804332 341.800111 
L 241.646205 342.514599 
L 242.667372 343.007972 
L 244.066371 344.034986 
L 244.527894 344.596909 
L 244.912783 345.382827 
L 244.893706 347.000701 
L 244.745059 347.487734 
L 243.927083 349.039305 
L 241.059796 352.299929 
L 238.710076 354.422166 
L 237.619936 355.512441 
L 236.011014 356.928584 
L 233.579384 359.19641 
L 227.001606 364.475095 
L 223.850134 366.826623 
L 222.573659 367.755788 
L 216.00247 372.517176 
L 203.917474 381.292165 
L 199.20184 384.668467 
L 194.125461 388.275022 
L 185.511913 394.08896 
L 184.575189 394.881118 
L 184.110348 395.496571 
L 183.825697 396.173228 
L 183.891993 396.829444 
L 184.158172 397.350128 
L 184.873269 398.115329 
L 185.764041 398.722172 
L 186.673722 399.171688 
L 188.626588 399.933183 
L 191.536022 400.854106 
L 195.224642 401.870184 
L 199.23002 402.820298 
L 205.137306 404.227238 
L 233.946878 412.012089 
L 239.856759 413.538759 
L 252.791112 417.000256 
L 255.966152 417.867118 
L 274.490838 422.904065 
L 283.199374 425.027337 
L 285.837315 425.24737 
L 287.992726 425.131246 
L 290.017922 424.704811 
L 291.633895 423.995845 
L 292.689475 423.096254 
L 295.897657 420.015308 
L 297.734131 418.545186 
L 300.536939 416.539201 
L 302.848862 414.853474 
L 306.271997 412.271499 
L 318.062845 403.526491 
L 322.344267 400.34421 
L 323.101114 399.772635 
L 324.635318 398.597893 
L 325.813791 397.650145 
L 328.916115 395.341568 
L 329.804612 394.90174 
L 331.148769 394.478322 
L 332.645841 394.231801 
L 334.467595 394.122289 
L 337.045944 394.434357 
L 345.572538 396.274891 
L 368.306004 402.489245 
L 371.336196 403.724368 
L 372.956475 404.670658 
L 373.871667 405.326829 
L 375.008265 406.542981 
L 375.603602 407.65087 
L 377.858147 413.029027 
L 378.565586 413.940335 
L 379.330522 414.627114 
L 383.254045 417.550381 
L 384.297828 417.88483 
L 385.768244 418.148117 
L 389.142967 418.621057 
L 393.612319 419.44778 
L 406.286745 422.471416 
L 427.381859 427.707791 
L 431.058082 428.622634 
L 438.087859 430.555671 
L 442.834187 431.852928 
L 448.801782 433.148698 
L 450.945004 433.19344 
L 453.069293 432.776066 
L 454.220435 432.26996 
L 455.022759 431.746332 
L 462.499085 425.822025 
L 466.09972 423.118908 
L 485.405479 407.866216 
L 486.532896 406.980277 
L 504.413611 392.914382 
L 507.21982 390.387873 
L 507.646256 389.679923 
L 507.854273 388.802969 
L 507.630311 387.882535 
L 507.226542 387.268951 
L 506.585941 386.661002 
L 505.7293 386.112288 
L 504.603662 385.618306 
L 502.144574 384.928504 
L 485.109367 380.768889 
L 477.836009 379.018642 
L 474.180251 378.138452 
L 464.889291 375.938229 
L 451.876314 372.661897 
L 447.154512 371.629365 
L 442.156616 371.036304 
L 439.967434 370.977352 
L 436.179407 371.219145 
L 432.893551 371.689865 
L 424.809988 373.207392 
L 421.388347 373.690343 
L 418.374786 373.898987 
L 414.384085 373.804622 
L 410.548639 373.37299 
L 405.775171 372.523968 
L 397.263565 370.432853 
L 389.684828 368.407981 
L 384.682929 367.203097 
L 378.386333 366.029638 
L 375.769692 365.759482 
L 373.180324 365.672696 
L 370.730694 365.841652 
L 368.18401 366.265603 
L 365.6917 367.046571 
L 364.444025 367.646335 
L 363.438635 368.312808 
L 359.210972 371.560552 
L 356.872235 372.733894 
L 354.012345 373.503879 
L 352.219463 373.748073 
L 349.401115 373.842112 
L 346.658436 373.667118 
L 343.605275 373.228051 
L 340.519377 372.549444 
L 318.476482 366.61109 
L 302.972412 362.412423 
L 297.141464 360.792268 
L 293.946928 359.925792 
L 290.73069 359.071183 
L 277.822489 355.54898 
L 271.795133 353.887863 
L 265.210016 352.086287 
L 262.133417 351.094582 
L 259.745394 349.984077 
L 258.660886 349.279023 
L 257.786266 348.35301 
L 257.536706 347.63995 
L 257.41539 347.301453 
L 257.227763 346.327284 
L 257.600213 344.947346 
L 258.15901 344.123262 
L 259.329058 342.986015 
L 261.265865 341.496367 
L 266.650916 338.002003 
L 269.647282 336.10184 
L 281.269098 328.741365 
L 291.688894 322.073123 
L 293.565123 321.06123 
L 303.327699 315.229326 
L 308.139921 312.835343 
L 309.693113 312.103309 
L 321.126344 306.705619 
L 321.126344 306.705619 
" clip-path="url(#p8c51a1a195)" style="fill: none; stroke: #0000ff; stroke-width: 2; stroke-linecap: square"/>
   </g>
   <g id="line2d_19">
    <path d="M 373.010171 420.979374 
L 375.063666 419.222938 
L 378.260282 416.388916 
L 381.880066 413.32123 
L 384.298044 411.084022 
L 386.825751 408.664623 
L 389.465145 406.243152 
L 390.453202 405.191306 
L 391.954308 402.986273 
L 392.237094 402.251478 
L 392.391177 400.723479 
L 392.189583 398.818852 
L 391.660134 396.369395 
L 391.629299 395.064316 
L 391.694878 394.460225 
L 392.817059 391.935318 
L 393.828879 390.680542 
L 398.255916 386.43251 
L 411.704817 373.922336 
L 415.639604 370.139419 
L 420.66054 365.407336 
L 422.341454 364.15991 
L 424.287677 362.997882 
L 429.286741 360.9511 
L 440.125009 357.158305 
L 443.371133 355.565352 
L 446.982713 353.3808 
L 448.026462 352.409298 
L 449.334602 351.13692 
L 451.02248 349.619713 
L 452.873333 348.089477 
L 461.153401 341.12797 
L 462.610285 340.085849 
L 463.839134 339.357989 
L 465.5908 338.483068 
L 467.507767 337.826798 
L 469.15182 337.500454 
L 471.226172 337.290519 
L 473.206013 337.248209 
L 476.367426 337.577348 
L 483.722928 338.940427 
L 485.318255 339.269573 
L 498.969732 342.082659 
L 500.796438 342.205745 
L 502.440757 342.121744 
L 504.011869 341.905635 
L 505.808185 341.281889 
L 506.287926 341.028751 
L 509.057282 338.639497 
L 511.275318 337.087292 
L 516.946236 333.45051 
L 517.249684 333.054901 
L 517.451889 332.698846 
L 517.262406 331.971454 
L 516.767309 331.382756 
L 515.974946 330.835448 
L 514.639128 330.388026 
L 512.832532 330.117168 
L 507.117048 329.675039 
L 505.122045 329.40585 
L 502.434227 329.032084 
L 498.783096 328.452185 
L 493.317666 327.564501 
L 467.675342 323.075681 
L 465.069862 322.861967 
L 461.160749 322.72911 
L 441.765556 323.409962 
L 437.060564 323.672731 
L 432.45724 323.999588 
L 431.716988 323.960413 
L 431.065171 324.080712 
L 430.38987 324.043797 
L 429.083066 324.133013 
L 428.492917 324.142712 
L 427.913998 324.274346 
L 426.775975 324.322194 
L 423.931154 324.63252 
L 419.148059 325.247763 
L 415.655386 325.699733 
L 411.116878 326.113363 
L 408.881365 326.063609 
L 404.794037 325.595807 
L 370.466359 319.515468 
L 359.898365 317.680382 
L 351.446427 316.162737 
L 350.596976 315.924418 
L 348.942481 315.661014 
L 347.25997 315.281501 
L 345.600426 314.941975 
L 342.220302 314.193698 
L 336.94316 313.132936 
L 327.793136 311.446384 
L 324.239883 310.825394 
L 317.971826 309.614164 
L 313.771328 308.707603 
L 310.875549 307.79926 
L 309.955431 307.363097 
L 309.306483 306.859739 
L 308.917903 306.337045 
L 308.782276 305.787032 
L 308.889552 305.216524 
L 310.141245 303.872457 
L 317.472352 299.08744 
L 320.067271 297.310347 
L 323.10478 295.012797 
L 332.424499 287.689975 
L 337.460159 283.352516 
L 341.80116 279.804441 
L 353.402242 270.290129 
L 357.556374 266.335825 
L 358.485877 264.871217 
L 358.810216 263.989494 
L 358.807611 263.116148 
L 358.481729 262.316097 
L 357.872721 261.559852 
L 356.684877 260.651333 
L 354.623893 259.600425 
L 352.113923 258.669766 
L 348.643755 257.654752 
L 325.505768 252.219622 
L 322.108823 251.674972 
L 318.890936 251.498134 
L 316.144876 251.620229 
L 313.224633 252.034971 
L 311.164859 252.549809 
L 309.274219 253.228707 
L 307.992406 253.835277 
L 304.321796 256.038496 
L 299.349426 259.092416 
L 294.949009 261.847736 
L 290.471411 264.846134 
L 288.483873 266.284079 
L 285.429651 268.456877 
L 277.864849 273.735059 
L 270.122508 278.935773 
L 261.025309 284.716766 
L 243.78727 294.768473 
L 239.258994 297.495021 
L 234.605564 300.207906 
L 204.19788 317.48246 
L 199.025982 320.657033 
L 196.42173 322.49231 
L 195.370874 323.469334 
L 194.317398 324.771507 
L 193.656844 325.856895 
L 193.547087 326.993351 
L 193.885512 327.62309 
L 194.416828 328.149734 
L 195.518195 328.79869 
L 196.847091 329.269487 
L 199.002616 329.770525 
L 212.690264 332.308676 
L 217.313324 333.435359 
L 240.642961 339.388991 
L 244.112338 341.045285 
L 245.105563 341.947162 
L 245.678944 343.019902 
L 245.759265 343.878153 
L 245.608379 344.840784 
L 245.229473 345.868405 
L 243.997525 347.714225 
L 242.277775 349.719747 
L 233.245767 358.429798 
L 231.494234 359.883716 
L 229.77247 361.332381 
L 226.476913 363.904774 
L 222.651528 366.85785 
L 207.487471 378.343739 
L 200.052689 383.908237 
L 198.618337 384.934797 
L 197.18221 386.000679 
L 191.081173 390.362279 
L 187.496013 392.838531 
L 186.708139 393.496854 
L 185.986899 394.450299 
L 185.762948 395.017131 
L 185.748158 395.568157 
L 185.898992 396.10782 
L 186.261459 396.629785 
L 186.793363 397.15197 
L 187.904579 397.900136 
L 189.972266 398.76826 
L 192.457302 399.597058 
L 195.264039 400.41371 
L 197.602008 401.012682 
L 199.987793 401.591748 
L 205.004739 402.800045 
L 213.591299 405.043333 
L 224.226933 407.972108 
L 228.822757 409.195299 
L 234.020866 410.595949 
L 249.743976 414.677126 
L 261.11617 417.769934 
L 277.611441 422.202064 
L 284.47247 423.948 
L 286.504631 424.257249 
L 288.61806 424.394206 
L 289.691975 424.381964 
L 291.758829 424.057513 
L 293.544415 423.418192 
L 294.244655 423.018902 
L 295.299854 422.062168 
L 296.048669 421.288138 
L 298.415565 418.982434 
L 301.858245 416.221619 
L 331.145259 393.392129 
L 332.135071 392.9657 
L 333.864144 392.545069 
L 336.307899 392.326182 
L 339.216121 392.682189 
L 347.344557 394.33846 
L 369.921476 400.29795 
L 372.713467 401.392598 
L 374.481983 402.303278 
L 375.857973 403.350123 
L 376.577938 404.02722 
L 377.130022 404.766671 
L 377.543296 405.504408 
L 378.614948 408.196835 
L 379.687894 410.53954 
L 380.450162 411.682184 
L 381.132451 412.394279 
L 382.358478 413.326024 
L 383.434029 414.102955 
L 384.955089 415.351266 
L 385.926861 415.748062 
L 387.117251 416.007857 
L 396.778382 417.575437 
L 406.776055 419.875125 
L 413.980553 421.659836 
L 423.711265 424.0413 
L 425.504924 424.455095 
L 435.865649 426.907809 
L 449.6453 430.370598 
L 451.526137 430.591637 
L 453.483904 430.578074 
L 455.370456 430.175858 
L 456.894086 429.526866 
L 457.998938 428.678276 
L 459.938394 426.840144 
L 462.968186 424.387903 
L 471.353788 417.641888 
L 474.22097 415.184252 
L 477.862182 412.159546 
L 508.381452 386.790511 
L 509.085855 385.912412 
L 509.317545 385.297843 
L 509.397117 384.70598 
L 509.152124 383.794445 
L 508.742165 383.181881 
L 508.108374 382.579689 
L 507.224233 382.031056 
L 506.075307 381.55077 
L 502.37364 380.570162 
L 499.824701 379.944959 
L 494.261337 378.718581 
L 485.894945 376.781078 
L 472.035605 373.601589 
L 469.241993 372.995831 
L 450.476806 368.498534 
L 446.413047 367.800729 
L 443.881834 367.563917 
L 441.265277 367.500678 
L 437.856857 367.703754 
L 434.574627 368.170642 
L 429.925872 369.105382 
L 426.162001 369.894891 
L 422.427497 370.542768 
L 418.629489 370.801222 
L 415.700976 370.778488 
L 408.608685 369.863654 
L 404.960151 369.104509 
L 396.330916 366.906965 
L 388.211721 364.776745 
L 378.302408 362.847963 
L 374.826765 362.651311 
L 372.318622 362.771424 
L 370.765673 362.975196 
L 368.63699 363.411525 
L 366.778795 364.029021 
L 365.729343 364.502259 
L 364.468089 365.32191 
L 359.88354 369.011092 
L 358.931956 369.557007 
L 357.228259 370.321759 
L 354.633671 371.00127 
L 353.21663 371.219359 
L 350.36141 371.365922 
L 348.235043 371.286674 
L 344.815017 370.838682 
L 342.074954 370.27953 
L 316.208805 363.380559 
L 299.59266 358.933385 
L 295.012294 357.692274 
L 288.471505 355.957737 
L 282.823162 354.464721 
L 270.579819 351.123394 
L 265.677112 349.789167 
L 262.965154 348.920186 
L 260.268647 347.694602 
L 259.049688 346.826835 
L 258.439169 346.224606 
L 257.762637 345.217789 
L 257.490123 344.18227 
L 257.770039 342.761444 
L 258.137364 342.0526 
L 259.015817 341.038781 
L 260.637983 339.658847 
L 262.058724 338.688347 
L 264.620966 336.881389 
L 267.12455 335.202837 
L 274.938917 330.134388 
L 279.596157 327.008537 
L 288.875219 320.563664 
L 294.004599 317.496205 
L 295.220847 316.742108 
L 298.337316 314.661349 
L 301.879343 312.476996 
L 308.844954 308.810304 
L 317.57104 304.544289 
L 320.255506 303.128872 
L 320.255506 303.128872 
" clip-path="url(#p8c51a1a195)" style="fill: none; stroke: #ff0000; stroke-width: 2; stroke-linecap: square"/>
   </g>
   <g id="Path3DCollection_1">
    <defs>
     <path id="mbe096d3a57" d="M 0 -5 
L -1.12257 -1.545085 
L -4.755283 -1.545085 
L -1.816356 0.59017 
L -2.938926 4.045085 
L -0 1.90983 
L 2.938926 4.045085 
L 1.816356 0.59017 
L 4.755283 -1.545085 
L 1.12257 -1.545085 
z
" style="stroke: #ff0000"/>
    </defs>
    <g clip-path="url(#p8c51a1a195)">
     <use xlink:href="#mbe096d3a57" x="373.010171" y="420.979374" style="fill: #ff0000; stroke: #ff0000"/>
    </g>
   </g>
   <g id="legend_1">
    <g id="patch_6">
     <path d="M 74.2475 107.3374 
L 589.9525 107.3374 
Q 593.1525 107.3374 593.1525 104.1374 
L 593.1525 60.4924 
Q 593.1525 57.2924 589.9525 57.2924 
L 74.2475 57.2924 
Q 71.0475 57.2924 71.0475 60.4924 
L 71.0475 104.1374 
Q 71.0475 107.3374 74.2475 107.3374 
z
" style="fill: #ffffff; opacity: 0.8; stroke: #cccccc; stroke-linejoin: miter"/>
    </g>
    <g id="line2d_20">
     <g>
      <use xlink:href="#m8cd0012aa4" x="93.4475" y="69.2924" style="fill: #ff0000; stroke: #ff0000; stroke-linejoin: bevel"/>
     </g>
    </g>
    <g id="text_16">
     <!-- Start -->
     <g transform="translate(122.2475 74.8924) scale(0.16 -0.16)">
      <defs>
       <path id="TimesNewRomanPSMT-53" d="M 2934 4334 
L 2934 2869 
L 2819 2869 
Q 2763 3291 2617 3541 
Q 2472 3791 2203 3937 
Q 1934 4084 1647 4084 
Q 1322 4084 1109 3886 
Q 897 3688 897 3434 
Q 897 3241 1031 3081 
Q 1225 2847 1953 2456 
Q 2547 2138 2764 1967 
Q 2981 1797 3098 1565 
Q 3216 1334 3216 1081 
Q 3216 600 2842 251 
Q 2469 -97 1881 -97 
Q 1697 -97 1534 -69 
Q 1438 -53 1133 45 
Q 828 144 747 144 
Q 669 144 623 97 
Q 578 50 556 -97 
L 441 -97 
L 441 1356 
L 556 1356 
Q 638 900 775 673 
Q 913 447 1195 297 
Q 1478 147 1816 147 
Q 2206 147 2432 353 
Q 2659 559 2659 841 
Q 2659 997 2573 1156 
Q 2488 1316 2306 1453 
Q 2184 1547 1640 1851 
Q 1097 2156 867 2337 
Q 638 2519 519 2737 
Q 400 2956 400 3219 
Q 400 3675 750 4004 
Q 1100 4334 1641 4334 
Q 1978 4334 2356 4169 
Q 2531 4091 2603 4091 
Q 2684 4091 2736 4139 
Q 2788 4188 2819 4334 
L 2934 4334 
z
" transform="scale(0.015625)"/>
       <path id="TimesNewRomanPSMT-74" d="M 1031 3803 
L 1031 2863 
L 1700 2863 
L 1700 2644 
L 1031 2644 
L 1031 788 
Q 1031 509 1111 412 
Q 1191 316 1316 316 
Q 1419 316 1516 380 
Q 1613 444 1666 569 
L 1788 569 
Q 1678 263 1478 108 
Q 1278 -47 1066 -47 
Q 922 -47 784 33 
Q 647 113 581 261 
Q 516 409 516 719 
L 516 2644 
L 63 2644 
L 63 2747 
Q 234 2816 414 2980 
Q 594 3144 734 3369 
Q 806 3488 934 3803 
L 1031 3803 
z
" transform="scale(0.015625)"/>
       <path id="TimesNewRomanPSMT-61" d="M 1822 413 
Q 1381 72 1269 19 
Q 1100 -59 909 -59 
Q 613 -59 420 144 
Q 228 347 228 678 
Q 228 888 322 1041 
Q 450 1253 767 1440 
Q 1084 1628 1822 1897 
L 1822 2009 
Q 1822 2438 1686 2597 
Q 1550 2756 1291 2756 
Q 1094 2756 978 2650 
Q 859 2544 859 2406 
L 866 2225 
Q 866 2081 792 2003 
Q 719 1925 600 1925 
Q 484 1925 411 2006 
Q 338 2088 338 2228 
Q 338 2497 613 2722 
Q 888 2947 1384 2947 
Q 1766 2947 2009 2819 
Q 2194 2722 2281 2516 
Q 2338 2381 2338 1966 
L 2338 994 
Q 2338 584 2353 492 
Q 2369 400 2405 369 
Q 2441 338 2488 338 
Q 2538 338 2575 359 
Q 2641 400 2828 588 
L 2828 413 
Q 2478 -56 2159 -56 
Q 2006 -56 1915 50 
Q 1825 156 1822 413 
z
M 1822 616 
L 1822 1706 
Q 1350 1519 1213 1441 
Q 966 1303 859 1153 
Q 753 1003 753 825 
Q 753 600 887 451 
Q 1022 303 1197 303 
Q 1434 303 1822 616 
z
" transform="scale(0.015625)"/>
       <path id="TimesNewRomanPSMT-72" d="M 1038 2947 
L 1038 2303 
Q 1397 2947 1775 2947 
Q 1947 2947 2059 2842 
Q 2172 2738 2172 2600 
Q 2172 2478 2090 2393 
Q 2009 2309 1897 2309 
Q 1788 2309 1652 2417 
Q 1516 2525 1450 2525 
Q 1394 2525 1328 2463 
Q 1188 2334 1038 2041 
L 1038 669 
Q 1038 431 1097 309 
Q 1138 225 1241 169 
Q 1344 113 1538 113 
L 1538 0 
L 72 0 
L 72 113 
Q 291 113 397 181 
Q 475 231 506 341 
Q 522 394 522 644 
L 522 1753 
Q 522 2253 501 2348 
Q 481 2444 426 2487 
Q 372 2531 291 2531 
Q 194 2531 72 2484 
L 41 2597 
L 906 2947 
L 1038 2947 
z
" transform="scale(0.015625)"/>
      </defs>
      <use xlink:href="#TimesNewRomanPSMT-53"/>
      <use xlink:href="#TimesNewRomanPSMT-74" x="55.615234"/>
      <use xlink:href="#TimesNewRomanPSMT-61" x="83.398438"/>
      <use xlink:href="#TimesNewRomanPSMT-72" x="127.783203"/>
      <use xlink:href="#TimesNewRomanPSMT-74" x="161.083984"/>
     </g>
    </g>
    <g id="patch_7">
     <path d="M 77.4475 97.5149 
L 109.4475 97.5149 
L 109.4475 86.3149 
L 77.4475 86.3149 
L 77.4475 97.5149 
z
" style="fill: none"/>
    </g>
    <g id="line2d_21">
     <path d="M 184.465 69.2924 
L 200.465 69.2924 
L 216.465 69.2924 
" style="fill: none; stroke-dasharray: 10.175,4.4; stroke-dashoffset: 0; stroke: #808a87; stroke-width: 2.75"/>
    </g>
    <g id="text_17">
     <!-- GroundTruth -->
     <g transform="translate(229.265 74.8924) scale(0.16 -0.16)">
      <defs>
       <path id="TimesNewRomanPSMT-47" d="M 3928 4334 
L 4038 2997 
L 3928 2997 
Q 3763 3497 3500 3750 
Q 3122 4116 2528 4116 
Q 1719 4116 1297 3475 
Q 944 2934 944 2188 
Q 944 1581 1178 1081 
Q 1413 581 1792 348 
Q 2172 116 2572 116 
Q 2806 116 3025 175 
Q 3244 234 3447 350 
L 3447 1575 
Q 3447 1894 3398 1992 
Q 3350 2091 3248 2142 
Q 3147 2194 2891 2194 
L 2891 2313 
L 4531 2313 
L 4531 2194 
L 4453 2194 
Q 4209 2194 4119 2031 
Q 4056 1916 4056 1575 
L 4056 278 
Q 3697 84 3347 -6 
Q 2997 -97 2569 -97 
Q 1341 -97 703 691 
Q 225 1281 225 2053 
Q 225 2613 494 3125 
Q 813 3734 1369 4063 
Q 1834 4334 2469 4334 
Q 2700 4334 2889 4296 
Q 3078 4259 3425 4131 
Q 3600 4066 3659 4066 
Q 3719 4066 3761 4120 
Q 3803 4175 3813 4334 
L 3928 4334 
z
" transform="scale(0.015625)"/>
       <path id="TimesNewRomanPSMT-6f" d="M 1600 2947 
Q 2250 2947 2644 2453 
Q 2978 2031 2978 1484 
Q 2978 1100 2793 706 
Q 2609 313 2286 112 
Q 1963 -88 1566 -88 
Q 919 -88 538 428 
Q 216 863 216 1403 
Q 216 1797 411 2186 
Q 606 2575 925 2761 
Q 1244 2947 1600 2947 
z
M 1503 2744 
Q 1338 2744 1170 2645 
Q 1003 2547 900 2300 
Q 797 2053 797 1666 
Q 797 1041 1045 587 
Q 1294 134 1700 134 
Q 2003 134 2200 384 
Q 2397 634 2397 1244 
Q 2397 2006 2069 2444 
Q 1847 2744 1503 2744 
z
" transform="scale(0.015625)"/>
       <path id="TimesNewRomanPSMT-75" d="M 2709 2863 
L 2709 1128 
Q 2709 631 2732 520 
Q 2756 409 2807 365 
Q 2859 322 2928 322 
Q 3025 322 3147 375 
L 3191 266 
L 2334 -88 
L 2194 -88 
L 2194 519 
Q 1825 119 1631 15 
Q 1438 -88 1222 -88 
Q 981 -88 804 51 
Q 628 191 559 409 
Q 491 628 491 1028 
L 491 2306 
Q 491 2509 447 2587 
Q 403 2666 317 2708 
Q 231 2750 6 2747 
L 6 2863 
L 1009 2863 
L 1009 947 
Q 1009 547 1148 422 
Q 1288 297 1484 297 
Q 1619 297 1789 381 
Q 1959 466 2194 703 
L 2194 2325 
Q 2194 2569 2105 2655 
Q 2016 2741 1734 2747 
L 1734 2863 
L 2709 2863 
z
" transform="scale(0.015625)"/>
       <path id="TimesNewRomanPSMT-6e" d="M 1034 2341 
Q 1538 2947 1994 2947 
Q 2228 2947 2397 2830 
Q 2566 2713 2666 2444 
Q 2734 2256 2734 1869 
L 2734 647 
Q 2734 375 2778 278 
Q 2813 200 2889 156 
Q 2966 113 3172 113 
L 3172 0 
L 1756 0 
L 1756 113 
L 1816 113 
Q 2016 113 2095 173 
Q 2175 234 2206 353 
Q 2219 400 2219 647 
L 2219 1819 
Q 2219 2209 2117 2386 
Q 2016 2563 1775 2563 
Q 1403 2563 1034 2156 
L 1034 647 
Q 1034 356 1069 288 
Q 1113 197 1189 155 
Q 1266 113 1500 113 
L 1500 0 
L 84 0 
L 84 113 
L 147 113 
Q 366 113 442 223 
Q 519 334 519 647 
L 519 1709 
Q 519 2225 495 2337 
Q 472 2450 423 2490 
Q 375 2531 294 2531 
Q 206 2531 84 2484 
L 38 2597 
L 900 2947 
L 1034 2947 
L 1034 2341 
z
" transform="scale(0.015625)"/>
       <path id="TimesNewRomanPSMT-64" d="M 2222 322 
Q 2013 103 1813 7 
Q 1613 -88 1381 -88 
Q 913 -88 563 304 
Q 213 697 213 1313 
Q 213 1928 600 2439 
Q 988 2950 1597 2950 
Q 1975 2950 2222 2709 
L 2222 3238 
Q 2222 3728 2198 3840 
Q 2175 3953 2125 3993 
Q 2075 4034 2000 4034 
Q 1919 4034 1784 3984 
L 1744 4094 
L 2597 4444 
L 2738 4444 
L 2738 1134 
Q 2738 631 2761 520 
Q 2784 409 2836 365 
Q 2888 322 2956 322 
Q 3041 322 3181 375 
L 3216 266 
L 2366 -88 
L 2222 -88 
L 2222 322 
z
M 2222 541 
L 2222 2016 
Q 2203 2228 2109 2403 
Q 2016 2578 1861 2667 
Q 1706 2756 1559 2756 
Q 1284 2756 1069 2509 
Q 784 2184 784 1559 
Q 784 928 1059 592 
Q 1334 256 1672 256 
Q 1956 256 2222 541 
z
" transform="scale(0.015625)"/>
       <path id="TimesNewRomanPSMT-54" d="M 3703 4238 
L 3750 3244 
L 3631 3244 
Q 3597 3506 3538 3619 
Q 3441 3800 3280 3886 
Q 3119 3972 2856 3972 
L 2259 3972 
L 2259 734 
Q 2259 344 2344 247 
Q 2463 116 2709 116 
L 2856 116 
L 2856 0 
L 1059 0 
L 1059 116 
L 1209 116 
Q 1478 116 1591 278 
Q 1659 378 1659 734 
L 1659 3972 
L 1150 3972 
Q 853 3972 728 3928 
Q 566 3869 450 3700 
Q 334 3531 313 3244 
L 194 3244 
L 244 4238 
L 3703 4238 
z
" transform="scale(0.015625)"/>
       <path id="TimesNewRomanPSMT-68" d="M 1041 4444 
L 1041 2350 
Q 1388 2731 1591 2839 
Q 1794 2947 1997 2947 
Q 2241 2947 2416 2812 
Q 2591 2678 2675 2391 
Q 2734 2191 2734 1659 
L 2734 647 
Q 2734 375 2778 275 
Q 2809 200 2884 156 
Q 2959 113 3159 113 
L 3159 0 
L 1753 0 
L 1753 113 
L 1819 113 
Q 2019 113 2097 173 
Q 2175 234 2206 353 
Q 2216 403 2216 647 
L 2216 1659 
Q 2216 2128 2167 2275 
Q 2119 2422 2012 2495 
Q 1906 2569 1756 2569 
Q 1603 2569 1437 2487 
Q 1272 2406 1041 2159 
L 1041 647 
Q 1041 353 1073 281 
Q 1106 209 1195 161 
Q 1284 113 1503 113 
L 1503 0 
L 84 0 
L 84 113 
Q 275 113 384 172 
Q 447 203 484 290 
Q 522 378 522 647 
L 522 3238 
Q 522 3728 498 3840 
Q 475 3953 426 3993 
Q 378 4034 297 4034 
Q 231 4034 84 3984 
L 41 4094 
L 897 4444 
L 1041 4444 
z
" transform="scale(0.015625)"/>
      </defs>
      <use xlink:href="#TimesNewRomanPSMT-47"/>
      <use xlink:href="#TimesNewRomanPSMT-72" x="72.216797"/>
      <use xlink:href="#TimesNewRomanPSMT-6f" x="105.517578"/>
      <use xlink:href="#TimesNewRomanPSMT-75" x="155.517578"/>
      <use xlink:href="#TimesNewRomanPSMT-6e" x="205.517578"/>
      <use xlink:href="#TimesNewRomanPSMT-64" x="255.517578"/>
      <use xlink:href="#TimesNewRomanPSMT-54" x="305.517578"/>
      <use xlink:href="#TimesNewRomanPSMT-72" x="363.101562"/>
      <use xlink:href="#TimesNewRomanPSMT-75" x="396.402344"/>
      <use xlink:href="#TimesNewRomanPSMT-74" x="446.402344"/>
      <use xlink:href="#TimesNewRomanPSMT-68" x="474.185547"/>
     </g>
    </g>
    <g id="line2d_22">
     <path d="M 345.1325 69.2924 
L 361.1325 69.2924 
L 377.1325 69.2924 
" style="fill: none; stroke: #0000ff; stroke-width: 2; stroke-linecap: square"/>
    </g>
    <g id="text_18">
     <!-- FAST-LIO2 -->
     <g transform="translate(389.9325 74.8924) scale(0.16 -0.16)">
      <defs>
       <path id="TimesNewRomanPSMT-46" d="M 1309 4006 
L 1309 2341 
L 2081 2341 
Q 2347 2341 2470 2458 
Q 2594 2575 2634 2922 
L 2750 2922 
L 2750 1488 
L 2634 1488 
Q 2631 1734 2570 1850 
Q 2509 1966 2401 2023 
Q 2294 2081 2081 2081 
L 1309 2081 
L 1309 750 
Q 1309 428 1350 325 
Q 1381 247 1481 191 
Q 1619 116 1769 116 
L 1922 116 
L 1922 0 
L 103 0 
L 103 116 
L 253 116 
Q 516 116 634 269 
Q 709 369 709 750 
L 709 3488 
Q 709 3809 669 3913 
Q 638 3991 541 4047 
Q 406 4122 253 4122 
L 103 4122 
L 103 4238 
L 3256 4238 
L 3297 3306 
L 3188 3306 
Q 3106 3603 2998 3742 
Q 2891 3881 2733 3943 
Q 2575 4006 2244 4006 
L 1309 4006 
z
" transform="scale(0.015625)"/>
       <path id="TimesNewRomanPSMT-41" d="M 2928 1419 
L 1288 1419 
L 1000 750 
Q 894 503 894 381 
Q 894 284 986 211 
Q 1078 138 1384 116 
L 1384 0 
L 50 0 
L 50 116 
Q 316 163 394 238 
Q 553 388 747 847 
L 2238 4334 
L 2347 4334 
L 3822 809 
Q 4000 384 4145 257 
Q 4291 131 4550 116 
L 4550 0 
L 2878 0 
L 2878 116 
Q 3131 128 3220 200 
Q 3309 272 3309 375 
Q 3309 513 3184 809 
L 2928 1419 
z
M 2841 1650 
L 2122 3363 
L 1384 1650 
L 2841 1650 
z
" transform="scale(0.015625)"/>
       <path id="TimesNewRomanPSMT-2d" d="M 259 1672 
L 1875 1672 
L 1875 1200 
L 259 1200 
L 259 1672 
z
" transform="scale(0.015625)"/>
       <path id="TimesNewRomanPSMT-4c" d="M 3669 1172 
L 3772 1150 
L 3409 0 
L 128 0 
L 128 116 
L 288 116 
Q 556 116 672 291 
Q 738 391 738 753 
L 738 3488 
Q 738 3884 650 3984 
Q 528 4122 288 4122 
L 128 4122 
L 128 4238 
L 2047 4238 
L 2047 4122 
Q 1709 4125 1573 4059 
Q 1438 3994 1388 3894 
Q 1338 3794 1338 3416 
L 1338 753 
Q 1338 494 1388 397 
Q 1425 331 1503 300 
Q 1581 269 1991 269 
L 2300 269 
Q 2788 269 2984 341 
Q 3181 413 3343 595 
Q 3506 778 3669 1172 
z
" transform="scale(0.015625)"/>
       <path id="TimesNewRomanPSMT-49" d="M 1975 116 
L 1975 0 
L 159 0 
L 159 116 
L 309 116 
Q 572 116 691 269 
Q 766 369 766 750 
L 766 3488 
Q 766 3809 725 3913 
Q 694 3991 597 4047 
Q 459 4122 309 4122 
L 159 4122 
L 159 4238 
L 1975 4238 
L 1975 4122 
L 1822 4122 
Q 1563 4122 1444 3969 
Q 1366 3869 1366 3488 
L 1366 750 
Q 1366 428 1406 325 
Q 1438 247 1538 191 
Q 1672 116 1822 116 
L 1975 116 
z
" transform="scale(0.015625)"/>
       <path id="TimesNewRomanPSMT-4f" d="M 2341 4334 
Q 3166 4334 3770 3707 
Q 4375 3081 4375 2144 
Q 4375 1178 3765 540 
Q 3156 -97 2291 -97 
Q 1416 -97 820 525 
Q 225 1147 225 2134 
Q 225 3144 913 3781 
Q 1509 4334 2341 4334 
z
M 2281 4106 
Q 1713 4106 1369 3684 
Q 941 3159 941 2147 
Q 941 1109 1384 550 
Q 1725 125 2284 125 
Q 2881 125 3270 590 
Q 3659 1056 3659 2059 
Q 3659 3147 3231 3681 
Q 2888 4106 2281 4106 
z
" transform="scale(0.015625)"/>
       <path id="TimesNewRomanPSMT-32" d="M 2934 816 
L 2638 0 
L 138 0 
L 138 116 
Q 1241 1122 1691 1759 
Q 2141 2397 2141 2925 
Q 2141 3328 1894 3587 
Q 1647 3847 1303 3847 
Q 991 3847 742 3664 
Q 494 3481 375 3128 
L 259 3128 
Q 338 3706 661 4015 
Q 984 4325 1469 4325 
Q 1984 4325 2329 3994 
Q 2675 3663 2675 3213 
Q 2675 2891 2525 2569 
Q 2294 2063 1775 1497 
Q 997 647 803 472 
L 1909 472 
Q 2247 472 2383 497 
Q 2519 522 2628 598 
Q 2738 675 2819 816 
L 2934 816 
z
" transform="scale(0.015625)"/>
      </defs>
      <use xlink:href="#TimesNewRomanPSMT-46"/>
      <use xlink:href="#TimesNewRomanPSMT-41" x="48.240234"/>
      <use xlink:href="#TimesNewRomanPSMT-53" x="120.457031"/>
      <use xlink:href="#TimesNewRomanPSMT-54" x="176.072266"/>
      <use xlink:href="#TimesNewRomanPSMT-2d" x="228.03125"/>
      <use xlink:href="#TimesNewRomanPSMT-4c" x="261.332031"/>
      <use xlink:href="#TimesNewRomanPSMT-49" x="322.416016"/>
      <use xlink:href="#TimesNewRomanPSMT-4f" x="355.716797"/>
      <use xlink:href="#TimesNewRomanPSMT-32" x="427.933594"/>
     </g>
    </g>
    <g id="line2d_23">
     <path d="M 498.3975 69.2924 
L 514.3975 69.2924 
L 530.3975 69.2924 
" style="fill: none; stroke: #ff0000; stroke-width: 2; stroke-linecap: square"/>
    </g>
    <g id="text_19">
     <!-- ROLO -->
     <g transform="translate(543.1975 74.8924) scale(0.16 -0.16)">
      <defs>
       <path id="TimesNewRomanPSMT-52" d="M 4325 0 
L 3194 0 
L 1759 1981 
Q 1600 1975 1500 1975 
Q 1459 1975 1412 1976 
Q 1366 1978 1316 1981 
L 1316 750 
Q 1316 350 1403 253 
Q 1522 116 1759 116 
L 1925 116 
L 1925 0 
L 109 0 
L 109 116 
L 269 116 
Q 538 116 653 291 
Q 719 388 719 750 
L 719 3488 
Q 719 3888 631 3984 
Q 509 4122 269 4122 
L 109 4122 
L 109 4238 
L 1653 4238 
Q 2328 4238 2648 4139 
Q 2969 4041 3192 3777 
Q 3416 3513 3416 3147 
Q 3416 2756 3161 2468 
Q 2906 2181 2372 2063 
L 3247 847 
Q 3547 428 3762 290 
Q 3978 153 4325 116 
L 4325 0 
z
M 1316 2178 
Q 1375 2178 1419 2176 
Q 1463 2175 1491 2175 
Q 2097 2175 2405 2437 
Q 2713 2700 2713 3106 
Q 2713 3503 2464 3751 
Q 2216 4000 1806 4000 
Q 1625 4000 1316 3941 
L 1316 2178 
z
" transform="scale(0.015625)"/>
      </defs>
      <use xlink:href="#TimesNewRomanPSMT-52"/>
      <use xlink:href="#TimesNewRomanPSMT-4f" x="66.699219"/>
      <use xlink:href="#TimesNewRomanPSMT-4c" x="138.916016"/>
      <use xlink:href="#TimesNewRomanPSMT-4f" x="200"/>
     </g>
    </g>
   </g>
  </g>
 </g>
 <defs>
  <clipPath id="p8c51a1a195">
   <rect x="42.12" y="43.4928" width="579.96" height="579.96"/>
  </clipPath>
 </defs>
</svg>
