<?xml version="1.0" encoding="utf-8" standalone="no"?>
<!DOCTYPE svg PUBLIC "-//W3C//DTD SVG 1.1//EN"
  "http://www.w3.org/Graphics/SVG/1.1/DTD/svg11.dtd">
<svg xmlns:xlink="http://www.w3.org/1999/xlink" width="648pt" height="648pt" viewBox="0 0 648 648" xmlns="http://www.w3.org/2000/svg" version="1.1">
 <metadata>
  <rdf:RDF xmlns:dc="http://purl.org/dc/elements/1.1/" xmlns:cc="http://creativecommons.org/ns#" xmlns:rdf="http://www.w3.org/1999/02/22-rdf-syntax-ns#">
   <cc:Work>
    <dc:type rdf:resource="http://purl.org/dc/dcmitype/StillImage"/>
    <dc:date>2024-08-10T16:03:21.800940</dc:date>
    <dc:format>image/svg+xml</dc:format>
    <dc:creator>
     <cc:Agent>
      <dc:title>Matplotlib v3.8.3, https://matplotlib.org/</dc:title>
     </cc:Agent>
    </dc:creator>
   </cc:Work>
  </rdf:RDF>
 </metadata>
 <defs>
  <style type="text/css">*{stroke-linejoin: round; stroke-linecap: butt}</style>
 </defs>
 <g id="figure_1">
  <g id="patch_1">
   <path d="M 0 648 
L 648 648 
L 648 0 
L 0 0 
z
" style="fill: #ffffff"/>
  </g>
  <g id="patch_2">
   <path d="M 42.12 623.7 
L 622.08 623.7 
L 622.08 43.74 
L 42.12 43.74 
z
" style="fill: #ffffff"/>
  </g>
  <g id="pane3d_1">
   <g id="patch_3">
    <path d="M 579.881642 419.700108 
L 262.400342 358.319601 
L 259.931089 114.090095 
L 587.893353 165.681142 
" style="fill: #ffffff; stroke: #ffffff; stroke-linejoin: miter"/>
   </g>
  </g>
  <g id="pane3d_2">
   <g id="patch_4">
    <path d="M 87.904051 488.71849 
L 262.400342 358.319601 
L 259.931089 114.090095 
L 79.049814 223.876602 
" style="fill: #ffffff; stroke: #ffffff; stroke-linejoin: miter"/>
   </g>
  </g>
  <g id="pane3d_3">
   <g id="patch_5">
    <path d="M 429.619932 563.290766 
L 579.881642 419.700108 
L 262.400342 358.319601 
L 87.904051 488.71849 
" style="fill: #ffffff; stroke: #ffffff; stroke-linejoin: miter"/>
   </g>
  </g>
  <g id="grid3d_1">
   <g id="Line3DCollection_1">
    <path d="M 451.580911 542.304771 
L 113.30509 469.736612 
L 105.451893 207.85177 
" style="fill: none; stroke: #bdc3c7; stroke-width: 0.5"/>
    <path d="M 476.991067 518.02273 
L 142.738975 447.741039 
L 136.015174 189.301282 
" style="fill: none; stroke: #bdc3c7; stroke-width: 0.5"/>
    <path d="M 501.587647 494.518145 
L 171.274877 426.416518 
L 165.614722 171.335735 
" style="fill: none; stroke: #bdc3c7; stroke-width: 0.5"/>
    <path d="M 525.409108 471.754268 
L 198.953272 405.732801 
L 194.295415 153.927891 
" style="fill: none; stroke: #bdc3c7; stroke-width: 0.5"/>
    <path d="M 548.491521 449.696626 
L 225.812239 385.661431 
L 222.099383 137.052178 
" style="fill: none; stroke: #bdc3c7; stroke-width: 0.5"/>
    <path d="M 570.868754 428.312858 
L 251.887638 366.175613 
L 249.066222 120.684562 
" style="fill: none; stroke: #bdc3c7; stroke-width: 0.5"/>
   </g>
  </g>
  <g id="grid3d_2">
   <g id="Line3DCollection_2">
    <path d="M 519.509655 154.923848 
L 513.761634 406.916743 
L 358.188355 547.702333 
" style="fill: none; stroke: #bdc3c7; stroke-width: 0.5"/>
    <path d="M 455.346704 144.83051 
L 451.685176 394.91514 
L 291.252096 533.094907 
" style="fill: none; stroke: #bdc3c7; stroke-width: 0.5"/>
    <path d="M 392.345176 134.919873 
L 390.697037 383.123948 
L 225.608745 518.769632 
" style="fill: none; stroke: #bdc3c7; stroke-width: 0.5"/>
    <path d="M 330.473819 125.187022 
L 330.768843 371.537682 
L 161.221199 504.718409 
" style="fill: none; stroke: #bdc3c7; stroke-width: 0.5"/>
    <path d="M 269.702492 115.627213 
L 271.873201 360.151044 
L 98.053764 490.93345 
" style="fill: none; stroke: #bdc3c7; stroke-width: 0.5"/>
   </g>
  </g>
  <g id="grid3d_3">
   <g id="Line3DCollection_3">
    <path d="M 87.654817 481.263588 
L 262.330621 351.423638 
L 580.107529 412.538146 
" style="fill: none; stroke: #bdc3c7; stroke-width: 0.5"/>
    <path d="M 86.276017 440.02186 
L 261.94514 313.296369 
L 581.356785 372.929282 
" style="fill: none; stroke: #bdc3c7; stroke-width: 0.5"/>
    <path d="M 84.882063 398.326858 
L 261.55581 274.788444 
L 582.619105 332.906209 
" style="fill: none; stroke: #bdc3c7; stroke-width: 0.5"/>
    <path d="M 83.472704 356.171068 
L 261.162574 235.894135 
L 583.894696 292.462394 
" style="fill: none; stroke: #bdc3c7; stroke-width: 0.5"/>
    <path d="M 82.047683 313.546808 
L 260.765372 196.607595 
L 585.183766 251.59117 
" style="fill: none; stroke: #bdc3c7; stroke-width: 0.5"/>
    <path d="M 80.606737 270.446226 
L 260.364144 156.922863 
L 586.486533 210.285724 
" style="fill: none; stroke: #bdc3c7; stroke-width: 0.5"/>
   </g>
  </g>
  <g id="axis3d_1">
   <g id="line2d_1">
    <path d="M 579.881642 419.700108 
L 429.619932 563.290766 
" style="fill: none; stroke: #000000; stroke-width: 0.8; stroke-linecap: square"/>
   </g>
   <g id="xtick_1">
    <g id="line2d_2">
     <path d="M 448.737562 541.694805 
L 457.274591 543.526199 
" style="fill: none; stroke: #000000; stroke-width: 0.8; stroke-linecap: square"/>
    </g>
    <g id="text_1">
     <!-- 120 -->
     <g transform="translate(445.206525 559.693758) scale(0.14 -0.14)">
      <defs>
       <path id="DejaVuSans-31" d="M 794 531 
L 1825 531 
L 1825 4091 
L 703 3866 
L 703 4441 
L 1819 4666 
L 2450 4666 
L 2450 531 
L 3481 531 
L 3481 0 
L 794 0 
L 794 531 
z
" transform="scale(0.015625)"/>
       <path id="DejaVuSans-32" d="M 1228 531 
L 3431 531 
L 3431 0 
L 469 0 
L 469 531 
Q 828 903 1448 1529 
Q 2069 2156 2228 2338 
Q 2531 2678 2651 2914 
Q 2772 3150 2772 3378 
Q 2772 3750 2511 3984 
Q 2250 4219 1831 4219 
Q 1534 4219 1204 4116 
Q 875 4013 500 3803 
L 500 4441 
Q 881 4594 1212 4672 
Q 1544 4750 1819 4750 
Q 2544 4750 2975 4387 
Q 3406 4025 3406 3419 
Q 3406 3131 3298 2873 
Q 3191 2616 2906 2266 
Q 2828 2175 2409 1742 
Q 1991 1309 1228 531 
z
" transform="scale(0.015625)"/>
       <path id="DejaVuSans-30" d="M 2034 4250 
Q 1547 4250 1301 3770 
Q 1056 3291 1056 2328 
Q 1056 1369 1301 889 
Q 1547 409 2034 409 
Q 2525 409 2770 889 
Q 3016 1369 3016 2328 
Q 3016 3291 2770 3770 
Q 2525 4250 2034 4250 
z
M 2034 4750 
Q 2819 4750 3233 4129 
Q 3647 3509 3647 2328 
Q 3647 1150 3233 529 
Q 2819 -91 2034 -91 
Q 1250 -91 836 529 
Q 422 1150 422 2328 
Q 422 3509 836 4129 
Q 1250 4750 2034 4750 
z
" transform="scale(0.015625)"/>
      </defs>
      <use xlink:href="#DejaVuSans-31"/>
      <use xlink:href="#DejaVuSans-32" x="63.623047"/>
      <use xlink:href="#DejaVuSans-30" x="127.246094"/>
     </g>
    </g>
   </g>
   <g id="xtick_2">
    <g id="line2d_3">
     <path d="M 474.183743 517.432446 
L 482.612496 519.204722 
" style="fill: none; stroke: #000000; stroke-width: 0.8; stroke-linecap: square"/>
    </g>
    <g id="text_2">
     <!-- 240 -->
     <g transform="translate(470.510873 535.294297) scale(0.14 -0.14)">
      <defs>
       <path id="DejaVuSans-34" d="M 2419 4116 
L 825 1625 
L 2419 1625 
L 2419 4116 
z
M 2253 4666 
L 3047 4666 
L 3047 1625 
L 3713 1625 
L 3713 1100 
L 3047 1100 
L 3047 0 
L 2419 0 
L 2419 1100 
L 313 1100 
L 313 1709 
L 2253 4666 
z
" transform="scale(0.015625)"/>
      </defs>
      <use xlink:href="#DejaVuSans-32"/>
      <use xlink:href="#DejaVuSans-34" x="63.623047"/>
      <use xlink:href="#DejaVuSans-30" x="127.246094"/>
     </g>
    </g>
   </g>
   <g id="xtick_3">
    <g id="line2d_4">
     <path d="M 498.815516 493.946606 
L 507.138496 495.662581 
" style="fill: none; stroke: #000000; stroke-width: 0.8; stroke-linecap: square"/>
    </g>
    <g id="text_3">
     <!-- 360 -->
     <g transform="translate(495.004785 511.676292) scale(0.14 -0.14)">
      <defs>
       <path id="DejaVuSans-33" d="M 2597 2516 
Q 3050 2419 3304 2112 
Q 3559 1806 3559 1356 
Q 3559 666 3084 287 
Q 2609 -91 1734 -91 
Q 1441 -91 1130 -33 
Q 819 25 488 141 
L 488 750 
Q 750 597 1062 519 
Q 1375 441 1716 441 
Q 2309 441 2620 675 
Q 2931 909 2931 1356 
Q 2931 1769 2642 2001 
Q 2353 2234 1838 2234 
L 1294 2234 
L 1294 2753 
L 1863 2753 
Q 2328 2753 2575 2939 
Q 2822 3125 2822 3475 
Q 2822 3834 2567 4026 
Q 2313 4219 1838 4219 
Q 1578 4219 1281 4162 
Q 984 4106 628 3988 
L 628 4550 
Q 988 4650 1302 4700 
Q 1616 4750 1894 4750 
Q 2613 4750 3031 4423 
Q 3450 4097 3450 3541 
Q 3450 3153 3228 2886 
Q 3006 2619 2597 2516 
z
" transform="scale(0.015625)"/>
       <path id="DejaVuSans-36" d="M 2113 2584 
Q 1688 2584 1439 2293 
Q 1191 2003 1191 1497 
Q 1191 994 1439 701 
Q 1688 409 2113 409 
Q 2538 409 2786 701 
Q 3034 994 3034 1497 
Q 3034 2003 2786 2293 
Q 2538 2584 2113 2584 
z
M 3366 4563 
L 3366 3988 
Q 3128 4100 2886 4159 
Q 2644 4219 2406 4219 
Q 1781 4219 1451 3797 
Q 1122 3375 1075 2522 
Q 1259 2794 1537 2939 
Q 1816 3084 2150 3084 
Q 2853 3084 3261 2657 
Q 3669 2231 3669 1497 
Q 3669 778 3244 343 
Q 2819 -91 2113 -91 
Q 1303 -91 875 529 
Q 447 1150 447 2328 
Q 447 3434 972 4092 
Q 1497 4750 2381 4750 
Q 2619 4750 2861 4703 
Q 3103 4656 3366 4563 
z
" transform="scale(0.015625)"/>
      </defs>
      <use xlink:href="#DejaVuSans-33"/>
      <use xlink:href="#DejaVuSans-36" x="63.623047"/>
      <use xlink:href="#DejaVuSans-30" x="127.246094"/>
     </g>
    </g>
   </g>
   <g id="xtick_4">
    <g id="line2d_5">
     <path d="M 522.671364 471.200594 
L 530.890998 472.862909 
" style="fill: none; stroke: #000000; stroke-width: 0.8; stroke-linecap: square"/>
    </g>
    <g id="text_4">
     <!-- 480 -->
     <g transform="translate(518.72658 488.802791) scale(0.14 -0.14)">
      <defs>
       <path id="DejaVuSans-38" d="M 2034 2216 
Q 1584 2216 1326 1975 
Q 1069 1734 1069 1313 
Q 1069 891 1326 650 
Q 1584 409 2034 409 
Q 2484 409 2743 651 
Q 3003 894 3003 1313 
Q 3003 1734 2745 1975 
Q 2488 2216 2034 2216 
z
M 1403 2484 
Q 997 2584 770 2862 
Q 544 3141 544 3541 
Q 544 4100 942 4425 
Q 1341 4750 2034 4750 
Q 2731 4750 3128 4425 
Q 3525 4100 3525 3541 
Q 3525 3141 3298 2862 
Q 3072 2584 2669 2484 
Q 3125 2378 3379 2068 
Q 3634 1759 3634 1313 
Q 3634 634 3220 271 
Q 2806 -91 2034 -91 
Q 1263 -91 848 271 
Q 434 634 434 1313 
Q 434 1759 690 2068 
Q 947 2378 1403 2484 
z
M 1172 3481 
Q 1172 3119 1398 2916 
Q 1625 2713 2034 2713 
Q 2441 2713 2670 2916 
Q 2900 3119 2900 3481 
Q 2900 3844 2670 4047 
Q 2441 4250 2034 4250 
Q 1625 4250 1398 4047 
Q 1172 3844 1172 3481 
z
" transform="scale(0.015625)"/>
      </defs>
      <use xlink:href="#DejaVuSans-34"/>
      <use xlink:href="#DejaVuSans-38" x="63.623047"/>
      <use xlink:href="#DejaVuSans-30" x="127.246094"/>
     </g>
    </g>
   </g>
   <g id="xtick_5">
    <g id="line2d_6">
     <path d="M 545.787381 449.159994 
L 553.906027 450.771127 
" style="fill: none; stroke: #000000; stroke-width: 0.8; stroke-linecap: square"/>
    </g>
    <g id="text_5">
     <!-- 600 -->
     <g transform="translate(541.712203 466.639139) scale(0.14 -0.14)">
      <use xlink:href="#DejaVuSans-36"/>
      <use xlink:href="#DejaVuSans-30" x="63.623047"/>
      <use xlink:href="#DejaVuSans-30" x="127.246094"/>
     </g>
    </g>
   </g>
   <g id="xtick_6">
    <g id="line2d_7">
     <path d="M 568.197458 427.792492 
L 576.217403 429.35477 
" style="fill: none; stroke: #000000; stroke-width: 0.8; stroke-linecap: square"/>
    </g>
    <g id="text_6">
     <!-- 720 -->
     <g transform="translate(563.995397 445.152795) scale(0.14 -0.14)">
      <defs>
       <path id="DejaVuSans-37" d="M 525 4666 
L 3525 4666 
L 3525 4397 
L 1831 0 
L 1172 0 
L 2766 4134 
L 525 4134 
L 525 4666 
z
" transform="scale(0.015625)"/>
      </defs>
      <use xlink:href="#DejaVuSans-37"/>
      <use xlink:href="#DejaVuSans-32" x="63.623047"/>
      <use xlink:href="#DejaVuSans-30" x="127.246094"/>
     </g>
    </g>
   </g>
   <g id="text_7">
    <!-- X (m) -->
    <g transform="translate(522.782603 532.046274) rotate(-43.699491) scale(0.18 -0.18)">
     <defs>
      <path id="TimesNewRomanPSMT-58" d="M 2613 2347 
L 3522 991 
Q 3900 428 4083 279 
Q 4266 131 4547 116 
L 4547 0 
L 2728 0 
L 2728 116 
Q 2909 119 2997 153 
Q 3063 181 3105 239 
Q 3147 297 3147 356 
Q 3147 428 3119 500 
Q 3097 553 2947 775 
L 2228 1863 
L 1341 725 
Q 1200 544 1172 483 
Q 1144 422 1144 356 
Q 1144 256 1228 190 
Q 1313 125 1550 116 
L 1550 0 
L 47 0 
L 47 116 
Q 206 131 322 181 
Q 516 263 691 400 
Q 866 538 1091 822 
L 2091 2084 
L 1256 3306 
Q 916 3803 678 3958 
Q 441 4113 131 4122 
L 131 4238 
L 2091 4238 
L 2091 4122 
Q 1841 4113 1748 4041 
Q 1656 3969 1656 3881 
Q 1656 3766 1806 3544 
L 2456 2572 
L 3209 3525 
Q 3341 3694 3370 3756 
Q 3400 3819 3400 3884 
Q 3400 3950 3363 4000 
Q 3316 4066 3244 4092 
Q 3172 4119 2947 4122 
L 2947 4238 
L 4450 4238 
L 4450 4122 
Q 4272 4113 4159 4066 
Q 3991 3994 3850 3872 
Q 3709 3750 3453 3422 
L 2613 2347 
z
" transform="scale(0.015625)"/>
      <path id="TimesNewRomanPSMT-20" transform="scale(0.015625)"/>
      <path id="TimesNewRomanPSMT-28" d="M 1988 -1253 
L 1988 -1369 
Q 1516 -1131 1200 -813 
Q 750 -359 506 256 
Q 263 872 263 1534 
Q 263 2503 741 3301 
Q 1219 4100 1988 4444 
L 1988 4313 
Q 1603 4100 1356 3731 
Q 1109 3363 987 2797 
Q 866 2231 866 1616 
Q 866 947 969 400 
Q 1050 -31 1165 -292 
Q 1281 -553 1476 -793 
Q 1672 -1034 1988 -1253 
z
" transform="scale(0.015625)"/>
      <path id="TimesNewRomanPSMT-6d" d="M 1050 2338 
Q 1363 2650 1419 2697 
Q 1559 2816 1721 2881 
Q 1884 2947 2044 2947 
Q 2313 2947 2506 2790 
Q 2700 2634 2766 2338 
Q 3088 2713 3309 2830 
Q 3531 2947 3766 2947 
Q 3994 2947 4170 2830 
Q 4347 2713 4450 2447 
Q 4519 2266 4519 1878 
L 4519 647 
Q 4519 378 4559 278 
Q 4591 209 4675 161 
Q 4759 113 4950 113 
L 4950 0 
L 3538 0 
L 3538 113 
L 3597 113 
Q 3781 113 3884 184 
Q 3956 234 3988 344 
Q 4000 397 4000 647 
L 4000 1878 
Q 4000 2228 3916 2372 
Q 3794 2572 3525 2572 
Q 3359 2572 3192 2489 
Q 3025 2406 2788 2181 
L 2781 2147 
L 2788 2013 
L 2788 647 
Q 2788 353 2820 281 
Q 2853 209 2943 161 
Q 3034 113 3253 113 
L 3253 0 
L 1806 0 
L 1806 113 
Q 2044 113 2133 169 
Q 2222 225 2256 338 
Q 2272 391 2272 647 
L 2272 1878 
Q 2272 2228 2169 2381 
Q 2031 2581 1784 2581 
Q 1616 2581 1450 2491 
Q 1191 2353 1050 2181 
L 1050 647 
Q 1050 366 1089 281 
Q 1128 197 1204 155 
Q 1281 113 1516 113 
L 1516 0 
L 100 0 
L 100 113 
Q 297 113 375 155 
Q 453 197 493 289 
Q 534 381 534 647 
L 534 1741 
Q 534 2213 506 2350 
Q 484 2453 437 2492 
Q 391 2531 309 2531 
Q 222 2531 100 2484 
L 53 2597 
L 916 2947 
L 1050 2947 
L 1050 2338 
z
" transform="scale(0.015625)"/>
      <path id="TimesNewRomanPSMT-29" d="M 144 4313 
L 144 4444 
Q 619 4209 934 3891 
Q 1381 3434 1625 2820 
Q 1869 2206 1869 1541 
Q 1869 572 1392 -226 
Q 916 -1025 144 -1369 
L 144 -1253 
Q 528 -1038 776 -670 
Q 1025 -303 1145 264 
Q 1266 831 1266 1447 
Q 1266 2113 1163 2663 
Q 1084 3094 967 3353 
Q 850 3613 656 3853 
Q 463 4094 144 4313 
z
" transform="scale(0.015625)"/>
     </defs>
     <use xlink:href="#TimesNewRomanPSMT-58"/>
     <use xlink:href="#TimesNewRomanPSMT-20" x="72.216797"/>
     <use xlink:href="#TimesNewRomanPSMT-28" x="97.216797"/>
     <use xlink:href="#TimesNewRomanPSMT-6d" x="130.517578"/>
     <use xlink:href="#TimesNewRomanPSMT-29" x="208.300781"/>
    </g>
   </g>
  </g>
  <g id="axis3d_2">
   <g id="line2d_8">
    <path d="M 87.904051 488.71849 
L 429.619932 563.290766 
" style="fill: none; stroke: #000000; stroke-width: 0.8; stroke-linecap: square"/>
   </g>
   <g id="xtick_7">
    <g id="line2d_9">
     <path d="M 359.560914 546.460239 
L 355.436391 550.192715 
" style="fill: none; stroke: #000000; stroke-width: 0.8; stroke-linecap: square"/>
    </g>
    <g id="text_8">
     <!-- −180 -->
     <g transform="translate(332.38228 574.35853) scale(0.14 -0.14)">
      <defs>
       <path id="DejaVuSans-2212" d="M 678 2272 
L 4684 2272 
L 4684 1741 
L 678 1741 
L 678 2272 
z
" transform="scale(0.015625)"/>
      </defs>
      <use xlink:href="#DejaVuSans-2212"/>
      <use xlink:href="#DejaVuSans-31" x="83.789062"/>
      <use xlink:href="#DejaVuSans-38" x="147.412109"/>
      <use xlink:href="#DejaVuSans-30" x="211.035156"/>
     </g>
    </g>
   </g>
   <g id="xtick_8">
    <g id="line2d_10">
     <path d="M 292.666245 531.876912 
L 288.416813 535.536915 
" style="fill: none; stroke: #000000; stroke-width: 0.8; stroke-linecap: square"/>
    </g>
    <g id="text_9">
     <!-- −60 -->
     <g transform="translate(269.791019 559.55672) scale(0.14 -0.14)">
      <use xlink:href="#DejaVuSans-2212"/>
      <use xlink:href="#DejaVuSans-36" x="83.789062"/>
      <use xlink:href="#DejaVuSans-30" x="147.412109"/>
     </g>
    </g>
   </g>
   <g id="xtick_9">
    <g id="line2d_11">
     <path d="M 227.06263 517.575039 
L 222.693863 521.16466 
" style="fill: none; stroke: #000000; stroke-width: 0.8; stroke-linecap: square"/>
    </g>
    <g id="text_10">
     <!-- 60 -->
     <g transform="translate(209.910112 545.041547) scale(0.14 -0.14)">
      <use xlink:href="#DejaVuSans-36"/>
      <use xlink:href="#DejaVuSans-30" x="63.623047"/>
     </g>
    </g>
   </g>
   <g id="xtick_10">
    <g id="line2d_12">
     <path d="M 162.713049 503.546552 
L 158.230271 507.067802 
" style="fill: none; stroke: #000000; stroke-width: 0.8; stroke-linecap: square"/>
    </g>
    <g id="text_11">
     <!-- 180 -->
     <g transform="translate(140.970647 530.804764) scale(0.14 -0.14)">
      <use xlink:href="#DejaVuSans-31"/>
      <use xlink:href="#DejaVuSans-38" x="63.623047"/>
      <use xlink:href="#DejaVuSans-30" x="127.246094"/>
     </g>
    </g>
   </g>
   <g id="xtick_11">
    <g id="line2d_13">
     <path d="M 99.581887 489.783685 
L 94.990185 493.238498 
" style="fill: none; stroke: #000000; stroke-width: 0.8; stroke-linecap: square"/>
    </g>
    <g id="text_12">
     <!-- 300 -->
     <g transform="translate(77.709973 516.838438) scale(0.14 -0.14)">
      <use xlink:href="#DejaVuSans-33"/>
      <use xlink:href="#DejaVuSans-30" x="63.623047"/>
      <use xlink:href="#DejaVuSans-30" x="127.246094"/>
     </g>
    </g>
   </g>
   <g id="text_13">
    <!-- Y (m) -->
    <g transform="translate(214.34584 567.277964) rotate(-347.68941) scale(0.18 -0.18)">
     <defs>
      <path id="TimesNewRomanPSMT-59" d="M 3050 4238 
L 4528 4238 
L 4528 4122 
L 4447 4122 
Q 4366 4122 4209 4050 
Q 4053 3978 3925 3843 
Q 3797 3709 3609 3406 
L 2588 1797 
L 2588 734 
Q 2588 344 2675 247 
Q 2794 116 3050 116 
L 3188 116 
L 3188 0 
L 1388 0 
L 1388 116 
L 1538 116 
Q 1806 116 1919 278 
Q 1988 378 1988 734 
L 1988 1738 
L 825 3513 
Q 619 3825 545 3903 
Q 472 3981 241 4091 
Q 178 4122 59 4122 
L 59 4238 
L 1872 4238 
L 1872 4122 
L 1778 4122 
Q 1631 4122 1507 4053 
Q 1384 3984 1384 3847 
Q 1384 3734 1575 3441 
L 2459 2075 
L 3291 3381 
Q 3478 3675 3478 3819 
Q 3478 3906 3433 3975 
Q 3388 4044 3303 4083 
Q 3219 4122 3050 4122 
L 3050 4238 
z
" transform="scale(0.015625)"/>
     </defs>
     <use xlink:href="#TimesNewRomanPSMT-59"/>
     <use xlink:href="#TimesNewRomanPSMT-20" x="68.466797"/>
     <use xlink:href="#TimesNewRomanPSMT-28" x="93.466797"/>
     <use xlink:href="#TimesNewRomanPSMT-6d" x="126.767578"/>
     <use xlink:href="#TimesNewRomanPSMT-29" x="204.550781"/>
    </g>
   </g>
  </g>
  <g id="axis3d_3">
   <g id="line2d_14">
    <path d="M 87.904051 488.71849 
L 79.049814 223.876602 
" style="fill: none; stroke: #000000; stroke-width: 0.8; stroke-linecap: square"/>
   </g>
   <g id="xtick_12">
    <g id="line2d_15">
     <path d="M 89.190393 480.122164 
L 84.576302 483.551909 
" style="fill: none; stroke: #000000; stroke-width: 0.8; stroke-linecap: square"/>
    </g>
    <g id="text_14">
     <!-- −200 -->
     <g transform="translate(40.954075 495.735561) scale(0.14 -0.14)">
      <use xlink:href="#DejaVuSans-2212"/>
      <use xlink:href="#DejaVuSans-32" x="83.789062"/>
      <use xlink:href="#DejaVuSans-30" x="147.412109"/>
      <use xlink:href="#DejaVuSans-30" x="211.035156"/>
     </g>
    </g>
   </g>
   <g id="xtick_13">
    <g id="line2d_16">
     <path d="M 87.821084 438.907268 
L 83.178433 442.256418 
" style="fill: none; stroke: #000000; stroke-width: 0.8; stroke-linecap: square"/>
    </g>
    <g id="text_15">
     <!-- −100 -->
     <g transform="translate(39.421005 454.403774) scale(0.14 -0.14)">
      <use xlink:href="#DejaVuSans-2212"/>
      <use xlink:href="#DejaVuSans-31" x="83.789062"/>
      <use xlink:href="#DejaVuSans-30" x="147.412109"/>
      <use xlink:href="#DejaVuSans-30" x="211.035156"/>
     </g>
    </g>
   </g>
   <g id="xtick_14">
    <g id="line2d_17">
     <path d="M 86.436737 397.239758 
L 81.765176 400.506329 
" style="fill: none; stroke: #000000; stroke-width: 0.8; stroke-linecap: square"/>
    </g>
    <g id="text_16">
     <!-- 0 -->
     <g transform="translate(52.644322 412.616492) scale(0.14 -0.14)">
      <use xlink:href="#DejaVuSans-30"/>
     </g>
    </g>
   </g>
   <g id="xtick_15">
    <g id="line2d_18">
     <path d="M 85.037104 355.112137 
L 80.336276 358.294092 
" style="fill: none; stroke: #000000; stroke-width: 0.8; stroke-linecap: square"/>
    </g>
    <g id="text_17">
     <!-- 100 -->
     <g transform="translate(42.169681 370.366144) scale(0.14 -0.14)">
      <use xlink:href="#DejaVuSans-31"/>
      <use xlink:href="#DejaVuSans-30" x="63.623047"/>
      <use xlink:href="#DejaVuSans-30" x="127.246094"/>
     </g>
    </g>
   </g>
   <g id="xtick_16">
    <g id="line2d_19">
     <path d="M 83.62193 312.516741 
L 78.89147 315.611992 
" style="fill: none; stroke: #000000; stroke-width: 0.8; stroke-linecap: square"/>
    </g>
    <g id="text_18">
     <!-- 200 -->
     <g transform="translate(40.585077 327.644991) scale(0.14 -0.14)">
      <use xlink:href="#DejaVuSans-32"/>
      <use xlink:href="#DejaVuSans-30" x="63.623047"/>
      <use xlink:href="#DejaVuSans-30" x="127.246094"/>
     </g>
    </g>
   </g>
   <g id="xtick_17">
    <g id="line2d_20">
     <path d="M 82.190954 269.445735 
L 77.430493 272.452141 
" style="fill: none; stroke: #000000; stroke-width: 0.8; stroke-linecap: square"/>
    </g>
    <g id="text_19">
     <!-- 300 -->
     <g transform="translate(38.982716 284.445119) scale(0.14 -0.14)">
      <use xlink:href="#DejaVuSans-33"/>
      <use xlink:href="#DejaVuSans-30" x="63.623047"/>
      <use xlink:href="#DejaVuSans-30" x="127.246094"/>
     </g>
    </g>
   </g>
   <g id="text_20">
    <!-- Z (m) -->
    <g transform="translate(18.999115 345.592749) rotate(-271.914809) scale(0.18 -0.18)">
     <defs>
      <path id="TimesNewRomanPSMT-5a" d="M 3681 4238 
L 897 256 
L 2634 256 
Q 3034 256 3248 431 
Q 3463 606 3628 1141 
L 3731 1122 
L 3531 0 
L 81 0 
L 81 116 
L 2800 3984 
L 1444 3984 
Q 1106 3984 954 3911 
Q 803 3838 723 3698 
Q 644 3559 578 3178 
L 459 3178 
L 547 4238 
L 3681 4238 
z
" transform="scale(0.015625)"/>
     </defs>
     <use xlink:href="#TimesNewRomanPSMT-5a"/>
     <use xlink:href="#TimesNewRomanPSMT-20" x="61.083984"/>
     <use xlink:href="#TimesNewRomanPSMT-28" x="86.083984"/>
     <use xlink:href="#TimesNewRomanPSMT-6d" x="119.384766"/>
     <use xlink:href="#TimesNewRomanPSMT-29" x="197.167969"/>
    </g>
   </g>
  </g>
  <g id="axes_1">
   <g id="line2d_21">
    <defs>
     <path id="m0d7c5026fe" d="M 0 -3 
L -0.673542 -0.927051 
L -2.85317 -0.927051 
L -1.089814 0.354102 
L -1.763356 2.427051 
L -0 1.145898 
L 1.763356 2.427051 
L 1.089814 0.354102 
L 2.85317 -0.927051 
L 0.673542 -0.927051 
z
" style="stroke: #ff0000; stroke-linejoin: bevel"/>
    </defs>
    <g clip-path="url(#pd0b8d0b2f0)">
     <use xlink:href="#m0d7c5026fe" x="252.554988" y="437.311436" style="fill: #ff0000; stroke: #ff0000; stroke-linejoin: bevel"/>
    </g>
   </g>
   <g id="line2d_22">
    <path d="M 252.554988 437.311436 
L 252.555277 437.311456 
L 256.36547 434.083103 
L 267.096748 424.746863 
L 269.557756 422.855916 
L 270.921273 422.115589 
L 272.475171 421.540453 
L 273.659502 421.237035 
L 275.813319 420.906258 
L 278.372745 420.800069 
L 281.31085 421.000893 
L 285.220676 421.6166 
L 292.527721 422.949664 
L 302.630821 424.748849 
L 319.73549 427.589424 
L 350.108466 432.627924 
L 377.426863 436.649215 
L 382.372244 437.080264 
L 388.022644 437.208589 
L 393.482962 436.943093 
L 397.378173 436.49766 
L 401.21616 435.864169 
L 405.678755 434.962631 
L 450.658915 424.93585 
L 483.403441 417.513877 
L 505.940463 412.389437 
L 511.048841 411.197481 
L 512.85988 410.513859 
L 514.054933 409.783192 
L 514.579503 409.284007 
L 514.904788 408.747038 
L 515.001874 408.167556 
L 514.862741 407.518079 
L 514.460065 406.847659 
L 513.796153 406.168031 
L 512.278355 405.114535 
L 508.821173 403.222883 
L 502.212208 399.839892 
L 495.71455 396.553676 
L 485.336223 390.83346 
L 478.617371 387.13096 
L 466.391602 380.377764 
L 458.016517 375.797005 
L 432.668969 361.355632 
L 426.319849 357.758771 
L 420.549774 354.496609 
L 416.645681 352.278696 
L 410.037332 348.41705 
L 395.48249 339.692191 
L 387.539451 335.051429 
L 366.963207 322.675723 
L 359.492091 318.396705 
L 352.255388 314.027202 
L 340.463224 306.915124 
L 336.88402 304.848255 
L 332.297864 302.136829 
L 268.828312 263.709375 
L 267.56013 263.16841 
L 266.221006 262.763952 
L 264.081054 262.393853 
L 261.82535 262.318292 
L 259.547728 262.555761 
L 254.977794 263.420403 
L 246.211743 265.262666 
L 240.24507 266.477587 
L 232.46947 268.00651 
L 231.095768 268.470872 
L 230.031654 269.030676 
L 229.440853 269.665334 
L 229.319768 269.985808 
L 229.345601 270.30408 
L 229.745893 270.929883 
L 230.554465 271.587169 
L 234.084988 273.76017 
L 250.898154 284.203165 
L 254.536834 286.857278 
L 257.596362 289.303133 
L 265.477933 295.905596 
L 271.382804 300.88058 
L 280.898649 308.299066 
L 286.282051 311.98101 
L 291.541349 315.317189 
L 295.017903 317.422303 
L 297.549228 318.766271 
L 299.961464 319.779708 
L 302.694788 320.650809 
L 305.672774 321.343068 
L 308.164018 321.731559 
L 311.23262 321.968649 
L 314.092579 321.958505 
L 316.605565 321.753203 
L 323.401466 320.821611 
L 325.534525 320.489861 
L 327.592066 320.339532 
L 329.524911 320.464554 
L 331.140453 320.88583 
L 332.530789 321.549433 
L 343.849147 328.421578 
L 344.942272 329.390523 
L 345.681165 330.355675 
L 346.062034 331.304735 
L 347.635847 340.090782 
L 348.092372 341.463159 
L 348.509282 342.128057 
L 349.510478 343.084008 
L 351.349365 344.345917 
L 354.847618 346.439233 
L 365.116908 352.50039 
L 365.586751 352.929742 
L 365.909338 353.542913 
L 365.882692 353.805434 
L 365.730599 354.040286 
L 365.026066 354.450944 
L 363.463988 354.857474 
L 358.299149 355.742445 
L 341.109476 358.693979 
L 328.052254 360.990835 
L 318.008622 362.710262 
L 295.769511 367.340831 
L 259.907709 375.477873 
L 249.896323 377.801396 
L 210.215678 386.764517 
L 207.507353 387.546317 
L 205.251139 388.417148 
L 203.992077 389.052882 
L 202.501479 390.150046 
L 193.536091 398.461069 
L 193.153541 399.189489 
L 193.10739 399.9316 
L 193.382592 400.664809 
L 193.985861 401.331568 
L 194.944108 401.963362 
L 196.25193 402.548574 
L 197.835851 403.077019 
L 201.388198 403.986725 
L 210.660807 405.978526 
L 219.582027 407.929086 
L 230.191318 410.322582 
L 240.389848 412.565015 
L 257.542012 416.476716 
L 259.329792 417.120423 
L 260.891023 417.880084 
L 262.086974 418.755558 
L 262.658117 419.401423 
L 262.964216 419.966401 
L 263.079952 420.639254 
L 262.965456 421.385728 
L 262.648835 422.120193 
L 261.919156 423.168117 
L 260.419858 424.731057 
L 254.046745 430.564399 
L 251.188326 432.738091 
L 247.648335 435.431238 
L 246.196656 436.820773 
L 245.758454 437.394463 
L 245.583613 437.787073 
L 245.61482 438.082643 
L 245.845387 438.419498 
L 246.180735 438.664981 
L 247.444802 439.100456 
L 248.774156 439.263916 
L 250.167878 439.170848 
L 251.223015 438.824339 
L 252.015835 438.179764 
L 253.219167 436.984792 
L 257.277387 433.275512 
L 257.277387 433.275512 
" clip-path="url(#pd0b8d0b2f0)" style="fill: none; stroke-dasharray: 10.175,4.4; stroke-dashoffset: 0; stroke: #808a87; stroke-width: 2.75"/>
   </g>
   <g id="line2d_23">
    <path d="M 252.550912 437.310508 
L 252.543777 437.308193 
L 252.789987 437.128074 
L 254.984341 435.43704 
L 265.442089 427.140658 
L 267.417066 425.552516 
L 269.144392 424.302775 
L 271.42918 423.166597 
L 272.908496 422.707544 
L 274.176488 422.455036 
L 276.021795 422.221403 
L 281.328791 422.324863 
L 284.647975 422.799248 
L 293.186535 424.228449 
L 299.513424 425.288147 
L 312.150516 427.235974 
L 340.338745 431.51061 
L 346.974279 432.535658 
L 372.258186 436.110287 
L 379.167671 436.882799 
L 384.844631 437.211454 
L 389.741214 437.208181 
L 394.783309 436.875379 
L 398.322464 436.453827 
L 402.79575 435.718738 
L 424.325 431.403618 
L 474.602438 421.010182 
L 511.915144 412.996045 
L 513.412058 412.344031 
L 514.283549 411.712631 
L 514.747036 411.104087 
L 514.861112 410.641718 
L 514.795238 410.145337 
L 514.493255 409.531413 
L 513.915754 408.909078 
L 512.670704 408.039697 
L 511.125982 407.190959 
L 504.690474 404.111184 
L 495.604847 399.929659 
L 490.562678 397.358306 
L 487.34072 395.741029 
L 472.909525 388.483055 
L 466.985427 385.558645 
L 457.421521 380.831709 
L 420.848465 362.072792 
L 413.155668 358.128346 
L 394.392342 348.072971 
L 359.443632 329.603168 
L 353.669788 326.59489 
L 341.919632 320.245886 
L 308.303254 302.54112 
L 303.284712 299.849916 
L 293.422015 294.569703 
L 261.73444 278.086764 
L 260.58074 277.682383 
L 258.655907 277.273021 
L 256.828876 277.068538 
L 254.559584 277.118208 
L 252.523603 277.399846 
L 245.926414 278.746277 
L 230.954985 281.900445 
L 227.224339 282.662336 
L 225.318273 283.250573 
L 224.273478 283.779021 
L 223.72913 284.300875 
L 223.560983 284.836977 
L 223.682629 285.204636 
L 224.077118 285.644067 
L 224.815601 286.169565 
L 226.385364 287.04095 
L 230.981129 289.469977 
L 247.714406 298.475498 
L 254.942196 303.253517 
L 273.586336 316.214821 
L 279.469332 319.953127 
L 286.965448 324.224272 
L 291.606368 326.674295 
L 297.682665 329.570492 
L 300.531376 330.528411 
L 303.43339 331.258758 
L 305.88556 331.710144 
L 308.718168 332.03532 
L 311.464567 332.161563 
L 314.50704 332.058624 
L 317.777823 331.677111 
L 323.016774 330.862247 
L 325.583258 330.446382 
L 327.923119 330.330967 
L 329.627339 330.507958 
L 330.808058 330.818603 
L 331.954849 331.267339 
L 336.911889 333.755605 
L 345.380113 338.19175 
L 346.479363 339.216433 
L 347.003242 340.025251 
L 347.966528 342.633594 
L 348.622738 344.525567 
L 350.585312 349.419333 
L 351.220923 350.185339 
L 352.031605 350.834358 
L 353.470302 351.706379 
L 355.573131 352.800987 
L 359.977011 354.908549 
L 368.814062 359.187468 
L 369.8685 359.904502 
L 370.200456 360.334757 
L 370.265422 360.666297 
L 370.043433 360.989937 
L 369.435493 361.315915 
L 368.314394 361.635911 
L 365.138932 362.260216 
L 352.920491 364.557374 
L 345.776091 365.945194 
L 334.328692 368.165884 
L 325.471405 369.820229 
L 289.61098 378.170615 
L 275.009576 381.860305 
L 262.196022 385.155065 
L 233.298362 392.379088 
L 220.896875 395.467742 
L 218.216445 396.349491 
L 216.099205 397.319185 
L 214.840096 398.167154 
L 213.823011 399.183407 
L 207.478629 405.875322 
L 206.714747 406.935603 
L 206.537837 407.632129 
L 206.664985 408.244971 
L 207.027204 408.84148 
L 207.747648 409.457529 
L 208.654934 409.955939 
L 210.392625 410.606378 
L 212.512869 411.159003 
L 218.386384 412.30807 
L 244.146962 416.874201 
L 265.071739 420.589747 
L 268.064195 421.125088 
L 272.999751 422.114702 
L 275.100337 422.710292 
L 276.966307 423.45112 
L 278.305445 424.242541 
L 279.141153 425.004962 
L 279.589786 425.809403 
L 279.669197 426.423152 
L 279.584633 427.035507 
L 279.25752 427.828993 
L 278.87467 428.477082 
L 278.059933 429.494242 
L 275.826119 432.009889 
L 271.594097 436.30661 
L 268.634935 438.743717 
L 266.356596 440.883547 
L 265.67246 441.821593 
L 265.447842 442.489522 
L 265.665519 442.888655 
L 266.304856 443.267339 
L 267.524869 443.596627 
L 269.014712 443.715444 
L 270.3307 443.565571 
L 271.093787 443.278671 
L 271.819808 442.732522 
L 275.062763 439.112194 
L 276.355419 437.778301 
L 276.355419 437.778301 
" clip-path="url(#pd0b8d0b2f0)" style="fill: none; stroke: #0000ff; stroke-width: 2; stroke-linecap: square"/>
   </g>
   <g id="line2d_24">
    <path d="M 252.554988 437.311436 
L 254.904902 435.469644 
L 258.313222 432.739551 
L 262.825298 429.066425 
L 269.257371 423.912139 
L 270.583119 423.173484 
L 272.079657 422.574148 
L 273.832397 422.137371 
L 276.018347 421.836569 
L 278.609246 421.754751 
L 281.591662 421.971358 
L 286.729981 422.765658 
L 308.06531 426.340644 
L 347.37712 432.467091 
L 352.240764 433.180719 
L 359.002437 434.190335 
L 365.745722 435.114129 
L 377.450661 436.550404 
L 382.393568 436.947521 
L 388.04309 437.020915 
L 392.82439 436.785275 
L 396.731059 436.34868 
L 402.487517 435.397513 
L 415.482881 432.689679 
L 437.860187 427.732115 
L 480.155755 418.07258 
L 492.00915 415.182775 
L 509.281363 411.093226 
L 512.073983 410.218949 
L 513.434315 409.503841 
L 514.282979 408.778548 
L 514.605092 408.263291 
L 514.69051 407.720348 
L 514.534693 407.117891 
L 514.120459 406.500644 
L 513.443716 405.878724 
L 511.902781 404.928144 
L 508.414459 403.243158 
L 499.085548 399.022279 
L 493.461561 396.359043 
L 489.959186 394.553749 
L 483.174613 391.222142 
L 478.600695 388.899389 
L 452.553359 375.435692 
L 442.690587 370.159649 
L 432.940058 364.871637 
L 427.029431 361.63993 
L 405.83801 350.022178 
L 376.030987 332.879573 
L 364.93792 326.370541 
L 350.289894 318.048441 
L 335.884161 309.535835 
L 333.247753 308.058701 
L 308.921244 293.707378 
L 302.705223 289.959965 
L 281.603551 277.452654 
L 269.507775 270.270764 
L 260.698455 265.077059 
L 259.386363 264.478566 
L 258.017828 264.041378 
L 255.863484 263.61626 
L 253.60649 263.494746 
L 251.352295 263.704308 
L 248.401792 264.248524 
L 238.402108 266.345919 
L 233.044961 267.44358 
L 223.919258 269.230917 
L 222.780128 269.726048 
L 222.081642 270.33869 
L 221.862253 270.985827 
L 222.168516 271.639244 
L 222.930293 272.324519 
L 224.962062 273.607608 
L 232.843837 278.333991 
L 239.355074 282.111971 
L 244.05085 284.956988 
L 249.137681 288.381918 
L 253.74807 291.802653 
L 268.115252 302.752161 
L 276.836921 309.002825 
L 283.975786 313.540538 
L 288.880251 316.43374 
L 295.558503 320.125848 
L 297.89731 321.212371 
L 300.547162 322.184972 
L 302.87245 322.857177 
L 305.945064 323.50764 
L 308.459422 323.859784 
L 310.919058 324.014617 
L 314.269121 323.965106 
L 317.1262 323.635512 
L 322.051505 322.822837 
L 326.194298 322.17815 
L 328.199836 322.166684 
L 329.438736 322.321936 
L 331.030099 322.788979 
L 332.773204 323.667788 
L 345.258887 330.711442 
L 346.377727 331.684721 
L 347.151764 332.671868 
L 347.587023 333.629794 
L 348.576203 336.313172 
L 350.783551 342.289641 
L 351.541793 343.67445 
L 352.106935 344.34785 
L 353.317649 345.305243 
L 357.03439 347.45501 
L 362.713889 350.363711 
L 368.769097 353.497996 
L 370.850609 354.760456 
L 371.345073 355.287907 
L 371.495938 355.848651 
L 371.375345 356.079721 
L 371.129841 356.301168 
L 370.187528 356.686185 
L 368.027894 357.179287 
L 324.45156 365.951221 
L 315.313607 368.079672 
L 232.432115 387.903366 
L 224.729611 389.661665 
L 221.315256 390.650369 
L 219.292631 391.476634 
L 218.206972 392.083385 
L 217.333958 392.758337 
L 214.838563 395.307856 
L 210.22319 400.07533 
L 209.755793 400.742196 
L 209.565502 401.402706 
L 209.708282 402.089428 
L 210.162347 402.728944 
L 210.946031 403.325844 
L 212.072599 403.887214 
L 213.526031 404.393369 
L 216.132478 405.058714 
L 219.917654 405.810012 
L 227.559681 407.16463 
L 236.730519 408.783259 
L 248.827922 411.013746 
L 265.892953 414.036497 
L 273.333053 415.366462 
L 279.002644 416.695892 
L 280.992893 417.524667 
L 282.001588 418.144539 
L 282.761469 418.799962 
L 283.214466 419.480452 
L 283.354169 420.146752 
L 283.276024 420.813246 
L 283.011787 421.493369 
L 282.337384 422.559749 
L 279.922897 425.297688 
L 276.674151 428.69317 
L 274.540467 430.531703 
L 272.363395 432.299423 
L 270.557982 434.027245 
L 269.973796 434.908352 
L 269.880912 435.200038 
L 269.92023 435.474484 
L 270.077027 435.724481 
L 270.806752 436.139324 
L 271.887998 436.433795 
L 273.08689 436.58054 
L 274.626606 436.503329 
L 275.583251 436.204917 
L 276.063183 435.836062 
L 280.18774 431.337172 
L 280.18774 431.337172 
" clip-path="url(#pd0b8d0b2f0)" style="fill: none; stroke: #ff0000; stroke-width: 2; stroke-linecap: square"/>
   </g>
   <g id="Path3DCollection_1">
    <defs>
     <path id="mc4058a584a" d="M 0 -5 
L -1.12257 -1.545085 
L -4.755283 -1.545085 
L -1.816356 0.59017 
L -2.938926 4.045085 
L -0 1.90983 
L 2.938926 4.045085 
L 1.816356 0.59017 
L 4.755283 -1.545085 
L 1.12257 -1.545085 
z
" style="stroke: #ff0000"/>
    </defs>
    <g clip-path="url(#pd0b8d0b2f0)">
     <use xlink:href="#mc4058a584a" x="252.554988" y="437.311436" style="fill: #ff0000; stroke: #ff0000"/>
    </g>
   </g>
   <g id="legend_1">
    <g id="patch_6">
     <path d="M 74.2475 107.5846 
L 589.9525 107.5846 
Q 593.1525 107.5846 593.1525 104.3846 
L 593.1525 60.7396 
Q 593.1525 57.5396 589.9525 57.5396 
L 74.2475 57.5396 
Q 71.0475 57.5396 71.0475 60.7396 
L 71.0475 104.3846 
Q 71.0475 107.5846 74.2475 107.5846 
z
" style="fill: #ffffff; opacity: 0.8; stroke: #cccccc; stroke-linejoin: miter"/>
    </g>
    <g id="line2d_25">
     <g>
      <use xlink:href="#m0d7c5026fe" x="93.4475" y="69.5396" style="fill: #ff0000; stroke: #ff0000; stroke-linejoin: bevel"/>
     </g>
    </g>
    <g id="text_21">
     <!-- Start -->
     <g transform="translate(122.2475 75.1396) scale(0.16 -0.16)">
      <defs>
       <path id="TimesNewRomanPSMT-53" d="M 2934 4334 
L 2934 2869 
L 2819 2869 
Q 2763 3291 2617 3541 
Q 2472 3791 2203 3937 
Q 1934 4084 1647 4084 
Q 1322 4084 1109 3886 
Q 897 3688 897 3434 
Q 897 3241 1031 3081 
Q 1225 2847 1953 2456 
Q 2547 2138 2764 1967 
Q 2981 1797 3098 1565 
Q 3216 1334 3216 1081 
Q 3216 600 2842 251 
Q 2469 -97 1881 -97 
Q 1697 -97 1534 -69 
Q 1438 -53 1133 45 
Q 828 144 747 144 
Q 669 144 623 97 
Q 578 50 556 -97 
L 441 -97 
L 441 1356 
L 556 1356 
Q 638 900 775 673 
Q 913 447 1195 297 
Q 1478 147 1816 147 
Q 2206 147 2432 353 
Q 2659 559 2659 841 
Q 2659 997 2573 1156 
Q 2488 1316 2306 1453 
Q 2184 1547 1640 1851 
Q 1097 2156 867 2337 
Q 638 2519 519 2737 
Q 400 2956 400 3219 
Q 400 3675 750 4004 
Q 1100 4334 1641 4334 
Q 1978 4334 2356 4169 
Q 2531 4091 2603 4091 
Q 2684 4091 2736 4139 
Q 2788 4188 2819 4334 
L 2934 4334 
z
" transform="scale(0.015625)"/>
       <path id="TimesNewRomanPSMT-74" d="M 1031 3803 
L 1031 2863 
L 1700 2863 
L 1700 2644 
L 1031 2644 
L 1031 788 
Q 1031 509 1111 412 
Q 1191 316 1316 316 
Q 1419 316 1516 380 
Q 1613 444 1666 569 
L 1788 569 
Q 1678 263 1478 108 
Q 1278 -47 1066 -47 
Q 922 -47 784 33 
Q 647 113 581 261 
Q 516 409 516 719 
L 516 2644 
L 63 2644 
L 63 2747 
Q 234 2816 414 2980 
Q 594 3144 734 3369 
Q 806 3488 934 3803 
L 1031 3803 
z
" transform="scale(0.015625)"/>
       <path id="TimesNewRomanPSMT-61" d="M 1822 413 
Q 1381 72 1269 19 
Q 1100 -59 909 -59 
Q 613 -59 420 144 
Q 228 347 228 678 
Q 228 888 322 1041 
Q 450 1253 767 1440 
Q 1084 1628 1822 1897 
L 1822 2009 
Q 1822 2438 1686 2597 
Q 1550 2756 1291 2756 
Q 1094 2756 978 2650 
Q 859 2544 859 2406 
L 866 2225 
Q 866 2081 792 2003 
Q 719 1925 600 1925 
Q 484 1925 411 2006 
Q 338 2088 338 2228 
Q 338 2497 613 2722 
Q 888 2947 1384 2947 
Q 1766 2947 2009 2819 
Q 2194 2722 2281 2516 
Q 2338 2381 2338 1966 
L 2338 994 
Q 2338 584 2353 492 
Q 2369 400 2405 369 
Q 2441 338 2488 338 
Q 2538 338 2575 359 
Q 2641 400 2828 588 
L 2828 413 
Q 2478 -56 2159 -56 
Q 2006 -56 1915 50 
Q 1825 156 1822 413 
z
M 1822 616 
L 1822 1706 
Q 1350 1519 1213 1441 
Q 966 1303 859 1153 
Q 753 1003 753 825 
Q 753 600 887 451 
Q 1022 303 1197 303 
Q 1434 303 1822 616 
z
" transform="scale(0.015625)"/>
       <path id="TimesNewRomanPSMT-72" d="M 1038 2947 
L 1038 2303 
Q 1397 2947 1775 2947 
Q 1947 2947 2059 2842 
Q 2172 2738 2172 2600 
Q 2172 2478 2090 2393 
Q 2009 2309 1897 2309 
Q 1788 2309 1652 2417 
Q 1516 2525 1450 2525 
Q 1394 2525 1328 2463 
Q 1188 2334 1038 2041 
L 1038 669 
Q 1038 431 1097 309 
Q 1138 225 1241 169 
Q 1344 113 1538 113 
L 1538 0 
L 72 0 
L 72 113 
Q 291 113 397 181 
Q 475 231 506 341 
Q 522 394 522 644 
L 522 1753 
Q 522 2253 501 2348 
Q 481 2444 426 2487 
Q 372 2531 291 2531 
Q 194 2531 72 2484 
L 41 2597 
L 906 2947 
L 1038 2947 
z
" transform="scale(0.015625)"/>
      </defs>
      <use xlink:href="#TimesNewRomanPSMT-53"/>
      <use xlink:href="#TimesNewRomanPSMT-74" x="55.615234"/>
      <use xlink:href="#TimesNewRomanPSMT-61" x="83.398438"/>
      <use xlink:href="#TimesNewRomanPSMT-72" x="127.783203"/>
      <use xlink:href="#TimesNewRomanPSMT-74" x="161.083984"/>
     </g>
    </g>
    <g id="patch_7">
     <path d="M 77.4475 97.7621 
L 109.4475 97.7621 
L 109.4475 86.5621 
L 77.4475 86.5621 
L 77.4475 97.7621 
z
" style="fill: none"/>
    </g>
    <g id="line2d_26">
     <path d="M 184.465 69.5396 
L 200.465 69.5396 
L 216.465 69.5396 
" style="fill: none; stroke-dasharray: 10.175,4.4; stroke-dashoffset: 0; stroke: #808a87; stroke-width: 2.75"/>
    </g>
    <g id="text_22">
     <!-- GroundTruth -->
     <g transform="translate(229.265 75.1396) scale(0.16 -0.16)">
      <defs>
       <path id="TimesNewRomanPSMT-47" d="M 3928 4334 
L 4038 2997 
L 3928 2997 
Q 3763 3497 3500 3750 
Q 3122 4116 2528 4116 
Q 1719 4116 1297 3475 
Q 944 2934 944 2188 
Q 944 1581 1178 1081 
Q 1413 581 1792 348 
Q 2172 116 2572 116 
Q 2806 116 3025 175 
Q 3244 234 3447 350 
L 3447 1575 
Q 3447 1894 3398 1992 
Q 3350 2091 3248 2142 
Q 3147 2194 2891 2194 
L 2891 2313 
L 4531 2313 
L 4531 2194 
L 4453 2194 
Q 4209 2194 4119 2031 
Q 4056 1916 4056 1575 
L 4056 278 
Q 3697 84 3347 -6 
Q 2997 -97 2569 -97 
Q 1341 -97 703 691 
Q 225 1281 225 2053 
Q 225 2613 494 3125 
Q 813 3734 1369 4063 
Q 1834 4334 2469 4334 
Q 2700 4334 2889 4296 
Q 3078 4259 3425 4131 
Q 3600 4066 3659 4066 
Q 3719 4066 3761 4120 
Q 3803 4175 3813 4334 
L 3928 4334 
z
" transform="scale(0.015625)"/>
       <path id="TimesNewRomanPSMT-6f" d="M 1600 2947 
Q 2250 2947 2644 2453 
Q 2978 2031 2978 1484 
Q 2978 1100 2793 706 
Q 2609 313 2286 112 
Q 1963 -88 1566 -88 
Q 919 -88 538 428 
Q 216 863 216 1403 
Q 216 1797 411 2186 
Q 606 2575 925 2761 
Q 1244 2947 1600 2947 
z
M 1503 2744 
Q 1338 2744 1170 2645 
Q 1003 2547 900 2300 
Q 797 2053 797 1666 
Q 797 1041 1045 587 
Q 1294 134 1700 134 
Q 2003 134 2200 384 
Q 2397 634 2397 1244 
Q 2397 2006 2069 2444 
Q 1847 2744 1503 2744 
z
" transform="scale(0.015625)"/>
       <path id="TimesNewRomanPSMT-75" d="M 2709 2863 
L 2709 1128 
Q 2709 631 2732 520 
Q 2756 409 2807 365 
Q 2859 322 2928 322 
Q 3025 322 3147 375 
L 3191 266 
L 2334 -88 
L 2194 -88 
L 2194 519 
Q 1825 119 1631 15 
Q 1438 -88 1222 -88 
Q 981 -88 804 51 
Q 628 191 559 409 
Q 491 628 491 1028 
L 491 2306 
Q 491 2509 447 2587 
Q 403 2666 317 2708 
Q 231 2750 6 2747 
L 6 2863 
L 1009 2863 
L 1009 947 
Q 1009 547 1148 422 
Q 1288 297 1484 297 
Q 1619 297 1789 381 
Q 1959 466 2194 703 
L 2194 2325 
Q 2194 2569 2105 2655 
Q 2016 2741 1734 2747 
L 1734 2863 
L 2709 2863 
z
" transform="scale(0.015625)"/>
       <path id="TimesNewRomanPSMT-6e" d="M 1034 2341 
Q 1538 2947 1994 2947 
Q 2228 2947 2397 2830 
Q 2566 2713 2666 2444 
Q 2734 2256 2734 1869 
L 2734 647 
Q 2734 375 2778 278 
Q 2813 200 2889 156 
Q 2966 113 3172 113 
L 3172 0 
L 1756 0 
L 1756 113 
L 1816 113 
Q 2016 113 2095 173 
Q 2175 234 2206 353 
Q 2219 400 2219 647 
L 2219 1819 
Q 2219 2209 2117 2386 
Q 2016 2563 1775 2563 
Q 1403 2563 1034 2156 
L 1034 647 
Q 1034 356 1069 288 
Q 1113 197 1189 155 
Q 1266 113 1500 113 
L 1500 0 
L 84 0 
L 84 113 
L 147 113 
Q 366 113 442 223 
Q 519 334 519 647 
L 519 1709 
Q 519 2225 495 2337 
Q 472 2450 423 2490 
Q 375 2531 294 2531 
Q 206 2531 84 2484 
L 38 2597 
L 900 2947 
L 1034 2947 
L 1034 2341 
z
" transform="scale(0.015625)"/>
       <path id="TimesNewRomanPSMT-64" d="M 2222 322 
Q 2013 103 1813 7 
Q 1613 -88 1381 -88 
Q 913 -88 563 304 
Q 213 697 213 1313 
Q 213 1928 600 2439 
Q 988 2950 1597 2950 
Q 1975 2950 2222 2709 
L 2222 3238 
Q 2222 3728 2198 3840 
Q 2175 3953 2125 3993 
Q 2075 4034 2000 4034 
Q 1919 4034 1784 3984 
L 1744 4094 
L 2597 4444 
L 2738 4444 
L 2738 1134 
Q 2738 631 2761 520 
Q 2784 409 2836 365 
Q 2888 322 2956 322 
Q 3041 322 3181 375 
L 3216 266 
L 2366 -88 
L 2222 -88 
L 2222 322 
z
M 2222 541 
L 2222 2016 
Q 2203 2228 2109 2403 
Q 2016 2578 1861 2667 
Q 1706 2756 1559 2756 
Q 1284 2756 1069 2509 
Q 784 2184 784 1559 
Q 784 928 1059 592 
Q 1334 256 1672 256 
Q 1956 256 2222 541 
z
" transform="scale(0.015625)"/>
       <path id="TimesNewRomanPSMT-54" d="M 3703 4238 
L 3750 3244 
L 3631 3244 
Q 3597 3506 3538 3619 
Q 3441 3800 3280 3886 
Q 3119 3972 2856 3972 
L 2259 3972 
L 2259 734 
Q 2259 344 2344 247 
Q 2463 116 2709 116 
L 2856 116 
L 2856 0 
L 1059 0 
L 1059 116 
L 1209 116 
Q 1478 116 1591 278 
Q 1659 378 1659 734 
L 1659 3972 
L 1150 3972 
Q 853 3972 728 3928 
Q 566 3869 450 3700 
Q 334 3531 313 3244 
L 194 3244 
L 244 4238 
L 3703 4238 
z
" transform="scale(0.015625)"/>
       <path id="TimesNewRomanPSMT-68" d="M 1041 4444 
L 1041 2350 
Q 1388 2731 1591 2839 
Q 1794 2947 1997 2947 
Q 2241 2947 2416 2812 
Q 2591 2678 2675 2391 
Q 2734 2191 2734 1659 
L 2734 647 
Q 2734 375 2778 275 
Q 2809 200 2884 156 
Q 2959 113 3159 113 
L 3159 0 
L 1753 0 
L 1753 113 
L 1819 113 
Q 2019 113 2097 173 
Q 2175 234 2206 353 
Q 2216 403 2216 647 
L 2216 1659 
Q 2216 2128 2167 2275 
Q 2119 2422 2012 2495 
Q 1906 2569 1756 2569 
Q 1603 2569 1437 2487 
Q 1272 2406 1041 2159 
L 1041 647 
Q 1041 353 1073 281 
Q 1106 209 1195 161 
Q 1284 113 1503 113 
L 1503 0 
L 84 0 
L 84 113 
Q 275 113 384 172 
Q 447 203 484 290 
Q 522 378 522 647 
L 522 3238 
Q 522 3728 498 3840 
Q 475 3953 426 3993 
Q 378 4034 297 4034 
Q 231 4034 84 3984 
L 41 4094 
L 897 4444 
L 1041 4444 
z
" transform="scale(0.015625)"/>
      </defs>
      <use xlink:href="#TimesNewRomanPSMT-47"/>
      <use xlink:href="#TimesNewRomanPSMT-72" x="72.216797"/>
      <use xlink:href="#TimesNewRomanPSMT-6f" x="105.517578"/>
      <use xlink:href="#TimesNewRomanPSMT-75" x="155.517578"/>
      <use xlink:href="#TimesNewRomanPSMT-6e" x="205.517578"/>
      <use xlink:href="#TimesNewRomanPSMT-64" x="255.517578"/>
      <use xlink:href="#TimesNewRomanPSMT-54" x="305.517578"/>
      <use xlink:href="#TimesNewRomanPSMT-72" x="363.101562"/>
      <use xlink:href="#TimesNewRomanPSMT-75" x="396.402344"/>
      <use xlink:href="#TimesNewRomanPSMT-74" x="446.402344"/>
      <use xlink:href="#TimesNewRomanPSMT-68" x="474.185547"/>
     </g>
    </g>
    <g id="line2d_27">
     <path d="M 345.1325 69.5396 
L 361.1325 69.5396 
L 377.1325 69.5396 
" style="fill: none; stroke: #0000ff; stroke-width: 2; stroke-linecap: square"/>
    </g>
    <g id="text_23">
     <!-- FAST-LIO2 -->
     <g transform="translate(389.9325 75.1396) scale(0.16 -0.16)">
      <defs>
       <path id="TimesNewRomanPSMT-46" d="M 1309 4006 
L 1309 2341 
L 2081 2341 
Q 2347 2341 2470 2458 
Q 2594 2575 2634 2922 
L 2750 2922 
L 2750 1488 
L 2634 1488 
Q 2631 1734 2570 1850 
Q 2509 1966 2401 2023 
Q 2294 2081 2081 2081 
L 1309 2081 
L 1309 750 
Q 1309 428 1350 325 
Q 1381 247 1481 191 
Q 1619 116 1769 116 
L 1922 116 
L 1922 0 
L 103 0 
L 103 116 
L 253 116 
Q 516 116 634 269 
Q 709 369 709 750 
L 709 3488 
Q 709 3809 669 3913 
Q 638 3991 541 4047 
Q 406 4122 253 4122 
L 103 4122 
L 103 4238 
L 3256 4238 
L 3297 3306 
L 3188 3306 
Q 3106 3603 2998 3742 
Q 2891 3881 2733 3943 
Q 2575 4006 2244 4006 
L 1309 4006 
z
" transform="scale(0.015625)"/>
       <path id="TimesNewRomanPSMT-41" d="M 2928 1419 
L 1288 1419 
L 1000 750 
Q 894 503 894 381 
Q 894 284 986 211 
Q 1078 138 1384 116 
L 1384 0 
L 50 0 
L 50 116 
Q 316 163 394 238 
Q 553 388 747 847 
L 2238 4334 
L 2347 4334 
L 3822 809 
Q 4000 384 4145 257 
Q 4291 131 4550 116 
L 4550 0 
L 2878 0 
L 2878 116 
Q 3131 128 3220 200 
Q 3309 272 3309 375 
Q 3309 513 3184 809 
L 2928 1419 
z
M 2841 1650 
L 2122 3363 
L 1384 1650 
L 2841 1650 
z
" transform="scale(0.015625)"/>
       <path id="TimesNewRomanPSMT-2d" d="M 259 1672 
L 1875 1672 
L 1875 1200 
L 259 1200 
L 259 1672 
z
" transform="scale(0.015625)"/>
       <path id="TimesNewRomanPSMT-4c" d="M 3669 1172 
L 3772 1150 
L 3409 0 
L 128 0 
L 128 116 
L 288 116 
Q 556 116 672 291 
Q 738 391 738 753 
L 738 3488 
Q 738 3884 650 3984 
Q 528 4122 288 4122 
L 128 4122 
L 128 4238 
L 2047 4238 
L 2047 4122 
Q 1709 4125 1573 4059 
Q 1438 3994 1388 3894 
Q 1338 3794 1338 3416 
L 1338 753 
Q 1338 494 1388 397 
Q 1425 331 1503 300 
Q 1581 269 1991 269 
L 2300 269 
Q 2788 269 2984 341 
Q 3181 413 3343 595 
Q 3506 778 3669 1172 
z
" transform="scale(0.015625)"/>
       <path id="TimesNewRomanPSMT-49" d="M 1975 116 
L 1975 0 
L 159 0 
L 159 116 
L 309 116 
Q 572 116 691 269 
Q 766 369 766 750 
L 766 3488 
Q 766 3809 725 3913 
Q 694 3991 597 4047 
Q 459 4122 309 4122 
L 159 4122 
L 159 4238 
L 1975 4238 
L 1975 4122 
L 1822 4122 
Q 1563 4122 1444 3969 
Q 1366 3869 1366 3488 
L 1366 750 
Q 1366 428 1406 325 
Q 1438 247 1538 191 
Q 1672 116 1822 116 
L 1975 116 
z
" transform="scale(0.015625)"/>
       <path id="TimesNewRomanPSMT-4f" d="M 2341 4334 
Q 3166 4334 3770 3707 
Q 4375 3081 4375 2144 
Q 4375 1178 3765 540 
Q 3156 -97 2291 -97 
Q 1416 -97 820 525 
Q 225 1147 225 2134 
Q 225 3144 913 3781 
Q 1509 4334 2341 4334 
z
M 2281 4106 
Q 1713 4106 1369 3684 
Q 941 3159 941 2147 
Q 941 1109 1384 550 
Q 1725 125 2284 125 
Q 2881 125 3270 590 
Q 3659 1056 3659 2059 
Q 3659 3147 3231 3681 
Q 2888 4106 2281 4106 
z
" transform="scale(0.015625)"/>
       <path id="TimesNewRomanPSMT-32" d="M 2934 816 
L 2638 0 
L 138 0 
L 138 116 
Q 1241 1122 1691 1759 
Q 2141 2397 2141 2925 
Q 2141 3328 1894 3587 
Q 1647 3847 1303 3847 
Q 991 3847 742 3664 
Q 494 3481 375 3128 
L 259 3128 
Q 338 3706 661 4015 
Q 984 4325 1469 4325 
Q 1984 4325 2329 3994 
Q 2675 3663 2675 3213 
Q 2675 2891 2525 2569 
Q 2294 2063 1775 1497 
Q 997 647 803 472 
L 1909 472 
Q 2247 472 2383 497 
Q 2519 522 2628 598 
Q 2738 675 2819 816 
L 2934 816 
z
" transform="scale(0.015625)"/>
      </defs>
      <use xlink:href="#TimesNewRomanPSMT-46"/>
      <use xlink:href="#TimesNewRomanPSMT-41" x="48.240234"/>
      <use xlink:href="#TimesNewRomanPSMT-53" x="120.457031"/>
      <use xlink:href="#TimesNewRomanPSMT-54" x="176.072266"/>
      <use xlink:href="#TimesNewRomanPSMT-2d" x="228.03125"/>
      <use xlink:href="#TimesNewRomanPSMT-4c" x="261.332031"/>
      <use xlink:href="#TimesNewRomanPSMT-49" x="322.416016"/>
      <use xlink:href="#TimesNewRomanPSMT-4f" x="355.716797"/>
      <use xlink:href="#TimesNewRomanPSMT-32" x="427.933594"/>
     </g>
    </g>
    <g id="line2d_28">
     <path d="M 498.3975 69.5396 
L 514.3975 69.5396 
L 530.3975 69.5396 
" style="fill: none; stroke: #ff0000; stroke-width: 2; stroke-linecap: square"/>
    </g>
    <g id="text_24">
     <!-- ROLO -->
     <g transform="translate(543.1975 75.1396) scale(0.16 -0.16)">
      <defs>
       <path id="TimesNewRomanPSMT-52" d="M 4325 0 
L 3194 0 
L 1759 1981 
Q 1600 1975 1500 1975 
Q 1459 1975 1412 1976 
Q 1366 1978 1316 1981 
L 1316 750 
Q 1316 350 1403 253 
Q 1522 116 1759 116 
L 1925 116 
L 1925 0 
L 109 0 
L 109 116 
L 269 116 
Q 538 116 653 291 
Q 719 388 719 750 
L 719 3488 
Q 719 3888 631 3984 
Q 509 4122 269 4122 
L 109 4122 
L 109 4238 
L 1653 4238 
Q 2328 4238 2648 4139 
Q 2969 4041 3192 3777 
Q 3416 3513 3416 3147 
Q 3416 2756 3161 2468 
Q 2906 2181 2372 2063 
L 3247 847 
Q 3547 428 3762 290 
Q 3978 153 4325 116 
L 4325 0 
z
M 1316 2178 
Q 1375 2178 1419 2176 
Q 1463 2175 1491 2175 
Q 2097 2175 2405 2437 
Q 2713 2700 2713 3106 
Q 2713 3503 2464 3751 
Q 2216 4000 1806 4000 
Q 1625 4000 1316 3941 
L 1316 2178 
z
" transform="scale(0.015625)"/>
      </defs>
      <use xlink:href="#TimesNewRomanPSMT-52"/>
      <use xlink:href="#TimesNewRomanPSMT-4f" x="66.699219"/>
      <use xlink:href="#TimesNewRomanPSMT-4c" x="138.916016"/>
      <use xlink:href="#TimesNewRomanPSMT-4f" x="200"/>
     </g>
    </g>
   </g>
  </g>
 </g>
 <defs>
  <clipPath id="pd0b8d0b2f0">
   <rect x="42.12" y="43.74" width="579.96" height="579.96"/>
  </clipPath>
 </defs>
</svg>
