<?xml version="1.0" encoding="utf-8" standalone="no"?>
<!DOCTYPE svg PUBLIC "-//W3C//DTD SVG 1.1//EN"
  "http://www.w3.org/Graphics/SVG/1.1/DTD/svg11.dtd">
<svg xmlns:xlink="http://www.w3.org/1999/xlink" width="720pt" height="360pt" viewBox="0 0 720 360" xmlns="http://www.w3.org/2000/svg" version="1.1">
 <metadata>
  <rdf:RDF xmlns:dc="http://purl.org/dc/elements/1.1/" xmlns:cc="http://creativecommons.org/ns#" xmlns:rdf="http://www.w3.org/1999/02/22-rdf-syntax-ns#">
   <cc:Work>
    <dc:type rdf:resource="http://purl.org/dc/dcmitype/StillImage"/>
    <dc:date>2024-08-10T16:10:21.285464</dc:date>
    <dc:format>image/svg+xml</dc:format>
    <dc:creator>
     <cc:Agent>
      <dc:title>Matplotlib v3.8.3, https://matplotlib.org/</dc:title>
     </cc:Agent>
    </dc:creator>
   </cc:Work>
  </rdf:RDF>
 </metadata>
 <defs>
  <style type="text/css">*{stroke-linejoin: round; stroke-linecap: butt}</style>
 </defs>
 <g id="figure_1">
  <g id="patch_1">
   <path d="M 0 360 
L 720 360 
L 720 0 
L 0 0 
z
" style="fill: #ffffff"/>
  </g>
  <g id="axes_1">
   <g id="patch_2">
    <path d="M 82.8 313.2 
L 709.2 313.2 
L 709.2 19.8 
L 82.8 19.8 
z
" style="fill: #ffffff"/>
   </g>
   <g id="matplotlib.axis_1">
    <g id="xtick_1">
     <g id="line2d_1">
      <path d="M 88.709434 313.2 
L 88.709434 19.8 
" clip-path="url(#p942ca36b58)" style="fill: none; stroke-dasharray: 2.96,1.28; stroke-dashoffset: 0; stroke: #bdc3c7; stroke-width: 0.8"/>
     </g>
     <g id="line2d_2">
      <defs>
       <path id="m7c1089e438" d="M 0 0 
L 0 -3.5 
" style="stroke: #000000; stroke-width: 0.8"/>
      </defs>
      <g>
       <use xlink:href="#m7c1089e438" x="88.709434" y="313.2" style="stroke: #000000; stroke-width: 0.8"/>
      </g>
     </g>
     <g id="text_1">
      <!-- 0 -->
      <g transform="translate(82.983184 330.377187) scale(0.18 -0.18)">
       <defs>
        <path id="DejaVuSans-30" d="M 2034 4250 
Q 1547 4250 1301 3770 
Q 1056 3291 1056 2328 
Q 1056 1369 1301 889 
Q 1547 409 2034 409 
Q 2525 409 2770 889 
Q 3016 1369 3016 2328 
Q 3016 3291 2770 3770 
Q 2525 4250 2034 4250 
z
M 2034 4750 
Q 2819 4750 3233 4129 
Q 3647 3509 3647 2328 
Q 3647 1150 3233 529 
Q 2819 -91 2034 -91 
Q 1250 -91 836 529 
Q 422 1150 422 2328 
Q 422 3509 836 4129 
Q 1250 4750 2034 4750 
z
" transform="scale(0.015625)"/>
       </defs>
       <use xlink:href="#DejaVuSans-30"/>
      </g>
     </g>
    </g>
    <g id="xtick_2">
     <g id="line2d_3">
      <path d="M 206.898113 313.2 
L 206.898113 19.8 
" clip-path="url(#p942ca36b58)" style="fill: none; stroke-dasharray: 2.96,1.28; stroke-dashoffset: 0; stroke: #bdc3c7; stroke-width: 0.8"/>
     </g>
     <g id="line2d_4">
      <g>
       <use xlink:href="#m7c1089e438" x="206.898113" y="313.2" style="stroke: #000000; stroke-width: 0.8"/>
      </g>
     </g>
     <g id="text_2">
      <!-- 100 -->
      <g transform="translate(189.719363 330.377187) scale(0.18 -0.18)">
       <defs>
        <path id="DejaVuSans-31" d="M 794 531 
L 1825 531 
L 1825 4091 
L 703 3866 
L 703 4441 
L 1819 4666 
L 2450 4666 
L 2450 531 
L 3481 531 
L 3481 0 
L 794 0 
L 794 531 
z
" transform="scale(0.015625)"/>
       </defs>
       <use xlink:href="#DejaVuSans-31"/>
       <use xlink:href="#DejaVuSans-30" x="63.623047"/>
       <use xlink:href="#DejaVuSans-30" x="127.246094"/>
      </g>
     </g>
    </g>
    <g id="xtick_3">
     <g id="line2d_5">
      <path d="M 325.086792 313.2 
L 325.086792 19.8 
" clip-path="url(#p942ca36b58)" style="fill: none; stroke-dasharray: 2.96,1.28; stroke-dashoffset: 0; stroke: #bdc3c7; stroke-width: 0.8"/>
     </g>
     <g id="line2d_6">
      <g>
       <use xlink:href="#m7c1089e438" x="325.086792" y="313.2" style="stroke: #000000; stroke-width: 0.8"/>
      </g>
     </g>
     <g id="text_3">
      <!-- 200 -->
      <g transform="translate(307.908042 330.377187) scale(0.18 -0.18)">
       <defs>
        <path id="DejaVuSans-32" d="M 1228 531 
L 3431 531 
L 3431 0 
L 469 0 
L 469 531 
Q 828 903 1448 1529 
Q 2069 2156 2228 2338 
Q 2531 2678 2651 2914 
Q 2772 3150 2772 3378 
Q 2772 3750 2511 3984 
Q 2250 4219 1831 4219 
Q 1534 4219 1204 4116 
Q 875 4013 500 3803 
L 500 4441 
Q 881 4594 1212 4672 
Q 1544 4750 1819 4750 
Q 2544 4750 2975 4387 
Q 3406 4025 3406 3419 
Q 3406 3131 3298 2873 
Q 3191 2616 2906 2266 
Q 2828 2175 2409 1742 
Q 1991 1309 1228 531 
z
" transform="scale(0.015625)"/>
       </defs>
       <use xlink:href="#DejaVuSans-32"/>
       <use xlink:href="#DejaVuSans-30" x="63.623047"/>
       <use xlink:href="#DejaVuSans-30" x="127.246094"/>
      </g>
     </g>
    </g>
    <g id="xtick_4">
     <g id="line2d_7">
      <path d="M 443.275472 313.2 
L 443.275472 19.8 
" clip-path="url(#p942ca36b58)" style="fill: none; stroke-dasharray: 2.96,1.28; stroke-dashoffset: 0; stroke: #bdc3c7; stroke-width: 0.8"/>
     </g>
     <g id="line2d_8">
      <g>
       <use xlink:href="#m7c1089e438" x="443.275472" y="313.2" style="stroke: #000000; stroke-width: 0.8"/>
      </g>
     </g>
     <g id="text_4">
      <!-- 300 -->
      <g transform="translate(426.096722 330.377187) scale(0.18 -0.18)">
       <defs>
        <path id="DejaVuSans-33" d="M 2597 2516 
Q 3050 2419 3304 2112 
Q 3559 1806 3559 1356 
Q 3559 666 3084 287 
Q 2609 -91 1734 -91 
Q 1441 -91 1130 -33 
Q 819 25 488 141 
L 488 750 
Q 750 597 1062 519 
Q 1375 441 1716 441 
Q 2309 441 2620 675 
Q 2931 909 2931 1356 
Q 2931 1769 2642 2001 
Q 2353 2234 1838 2234 
L 1294 2234 
L 1294 2753 
L 1863 2753 
Q 2328 2753 2575 2939 
Q 2822 3125 2822 3475 
Q 2822 3834 2567 4026 
Q 2313 4219 1838 4219 
Q 1578 4219 1281 4162 
Q 984 4106 628 3988 
L 628 4550 
Q 988 4650 1302 4700 
Q 1616 4750 1894 4750 
Q 2613 4750 3031 4423 
Q 3450 4097 3450 3541 
Q 3450 3153 3228 2886 
Q 3006 2619 2597 2516 
z
" transform="scale(0.015625)"/>
       </defs>
       <use xlink:href="#DejaVuSans-33"/>
       <use xlink:href="#DejaVuSans-30" x="63.623047"/>
       <use xlink:href="#DejaVuSans-30" x="127.246094"/>
      </g>
     </g>
    </g>
    <g id="xtick_5">
     <g id="line2d_9">
      <path d="M 561.464151 313.2 
L 561.464151 19.8 
" clip-path="url(#p942ca36b58)" style="fill: none; stroke-dasharray: 2.96,1.28; stroke-dashoffset: 0; stroke: #bdc3c7; stroke-width: 0.8"/>
     </g>
     <g id="line2d_10">
      <g>
       <use xlink:href="#m7c1089e438" x="561.464151" y="313.2" style="stroke: #000000; stroke-width: 0.8"/>
      </g>
     </g>
     <g id="text_5">
      <!-- 400 -->
      <g transform="translate(544.285401 330.377187) scale(0.18 -0.18)">
       <defs>
        <path id="DejaVuSans-34" d="M 2419 4116 
L 825 1625 
L 2419 1625 
L 2419 4116 
z
M 2253 4666 
L 3047 4666 
L 3047 1625 
L 3713 1625 
L 3713 1100 
L 3047 1100 
L 3047 0 
L 2419 0 
L 2419 1100 
L 313 1100 
L 313 1709 
L 2253 4666 
z
" transform="scale(0.015625)"/>
       </defs>
       <use xlink:href="#DejaVuSans-34"/>
       <use xlink:href="#DejaVuSans-30" x="63.623047"/>
       <use xlink:href="#DejaVuSans-30" x="127.246094"/>
      </g>
     </g>
    </g>
    <g id="xtick_6">
     <g id="line2d_11">
      <path d="M 679.65283 313.2 
L 679.65283 19.8 
" clip-path="url(#p942ca36b58)" style="fill: none; stroke-dasharray: 2.96,1.28; stroke-dashoffset: 0; stroke: #bdc3c7; stroke-width: 0.8"/>
     </g>
     <g id="line2d_12">
      <g>
       <use xlink:href="#m7c1089e438" x="679.65283" y="313.2" style="stroke: #000000; stroke-width: 0.8"/>
      </g>
     </g>
     <g id="text_6">
      <!-- 500 -->
      <g transform="translate(662.47408 330.377187) scale(0.18 -0.18)">
       <defs>
        <path id="DejaVuSans-35" d="M 691 4666 
L 3169 4666 
L 3169 4134 
L 1269 4134 
L 1269 2991 
Q 1406 3038 1543 3061 
Q 1681 3084 1819 3084 
Q 2600 3084 3056 2656 
Q 3513 2228 3513 1497 
Q 3513 744 3044 326 
Q 2575 -91 1722 -91 
Q 1428 -91 1123 -41 
Q 819 9 494 109 
L 494 744 
Q 775 591 1075 516 
Q 1375 441 1709 441 
Q 2250 441 2565 725 
Q 2881 1009 2881 1497 
Q 2881 1984 2565 2268 
Q 2250 2553 1709 2553 
Q 1456 2553 1204 2497 
Q 953 2441 691 2322 
L 691 4666 
z
" transform="scale(0.015625)"/>
       </defs>
       <use xlink:href="#DejaVuSans-35"/>
       <use xlink:href="#DejaVuSans-30" x="63.623047"/>
       <use xlink:href="#DejaVuSans-30" x="127.246094"/>
      </g>
     </g>
    </g>
    <g id="text_7">
     <!-- Time(s) -->
     <g transform="translate(358.434375 354.785625) scale(0.24 -0.24)">
      <defs>
       <path id="TimesNewRomanPSMT-54" d="M 3703 4238 
L 3750 3244 
L 3631 3244 
Q 3597 3506 3538 3619 
Q 3441 3800 3280 3886 
Q 3119 3972 2856 3972 
L 2259 3972 
L 2259 734 
Q 2259 344 2344 247 
Q 2463 116 2709 116 
L 2856 116 
L 2856 0 
L 1059 0 
L 1059 116 
L 1209 116 
Q 1478 116 1591 278 
Q 1659 378 1659 734 
L 1659 3972 
L 1150 3972 
Q 853 3972 728 3928 
Q 566 3869 450 3700 
Q 334 3531 313 3244 
L 194 3244 
L 244 4238 
L 3703 4238 
z
" transform="scale(0.015625)"/>
       <path id="TimesNewRomanPSMT-69" d="M 928 4444 
Q 1059 4444 1151 4351 
Q 1244 4259 1244 4128 
Q 1244 3997 1151 3903 
Q 1059 3809 928 3809 
Q 797 3809 703 3903 
Q 609 3997 609 4128 
Q 609 4259 701 4351 
Q 794 4444 928 4444 
z
M 1188 2947 
L 1188 647 
Q 1188 378 1227 289 
Q 1266 200 1342 156 
Q 1419 113 1622 113 
L 1622 0 
L 231 0 
L 231 113 
Q 441 113 512 153 
Q 584 194 626 287 
Q 669 381 669 647 
L 669 1750 
Q 669 2216 641 2353 
Q 619 2453 572 2492 
Q 525 2531 444 2531 
Q 356 2531 231 2484 
L 188 2597 
L 1050 2947 
L 1188 2947 
z
" transform="scale(0.015625)"/>
       <path id="TimesNewRomanPSMT-6d" d="M 1050 2338 
Q 1363 2650 1419 2697 
Q 1559 2816 1721 2881 
Q 1884 2947 2044 2947 
Q 2313 2947 2506 2790 
Q 2700 2634 2766 2338 
Q 3088 2713 3309 2830 
Q 3531 2947 3766 2947 
Q 3994 2947 4170 2830 
Q 4347 2713 4450 2447 
Q 4519 2266 4519 1878 
L 4519 647 
Q 4519 378 4559 278 
Q 4591 209 4675 161 
Q 4759 113 4950 113 
L 4950 0 
L 3538 0 
L 3538 113 
L 3597 113 
Q 3781 113 3884 184 
Q 3956 234 3988 344 
Q 4000 397 4000 647 
L 4000 1878 
Q 4000 2228 3916 2372 
Q 3794 2572 3525 2572 
Q 3359 2572 3192 2489 
Q 3025 2406 2788 2181 
L 2781 2147 
L 2788 2013 
L 2788 647 
Q 2788 353 2820 281 
Q 2853 209 2943 161 
Q 3034 113 3253 113 
L 3253 0 
L 1806 0 
L 1806 113 
Q 2044 113 2133 169 
Q 2222 225 2256 338 
Q 2272 391 2272 647 
L 2272 1878 
Q 2272 2228 2169 2381 
Q 2031 2581 1784 2581 
Q 1616 2581 1450 2491 
Q 1191 2353 1050 2181 
L 1050 647 
Q 1050 366 1089 281 
Q 1128 197 1204 155 
Q 1281 113 1516 113 
L 1516 0 
L 100 0 
L 100 113 
Q 297 113 375 155 
Q 453 197 493 289 
Q 534 381 534 647 
L 534 1741 
Q 534 2213 506 2350 
Q 484 2453 437 2492 
Q 391 2531 309 2531 
Q 222 2531 100 2484 
L 53 2597 
L 916 2947 
L 1050 2947 
L 1050 2338 
z
" transform="scale(0.015625)"/>
       <path id="TimesNewRomanPSMT-65" d="M 681 1784 
Q 678 1147 991 784 
Q 1303 422 1725 422 
Q 2006 422 2214 576 
Q 2422 731 2563 1106 
L 2659 1044 
Q 2594 616 2278 264 
Q 1963 -88 1488 -88 
Q 972 -88 605 314 
Q 238 716 238 1394 
Q 238 2128 614 2539 
Q 991 2950 1559 2950 
Q 2041 2950 2350 2633 
Q 2659 2316 2659 1784 
L 681 1784 
z
M 681 1966 
L 2006 1966 
Q 1991 2241 1941 2353 
Q 1863 2528 1708 2628 
Q 1553 2728 1384 2728 
Q 1125 2728 920 2526 
Q 716 2325 681 1966 
z
" transform="scale(0.015625)"/>
       <path id="TimesNewRomanPSMT-28" d="M 1988 -1253 
L 1988 -1369 
Q 1516 -1131 1200 -813 
Q 750 -359 506 256 
Q 263 872 263 1534 
Q 263 2503 741 3301 
Q 1219 4100 1988 4444 
L 1988 4313 
Q 1603 4100 1356 3731 
Q 1109 3363 987 2797 
Q 866 2231 866 1616 
Q 866 947 969 400 
Q 1050 -31 1165 -292 
Q 1281 -553 1476 -793 
Q 1672 -1034 1988 -1253 
z
" transform="scale(0.015625)"/>
       <path id="TimesNewRomanPSMT-73" d="M 2050 2947 
L 2050 1972 
L 1947 1972 
Q 1828 2431 1642 2597 
Q 1456 2763 1169 2763 
Q 950 2763 815 2647 
Q 681 2531 681 2391 
Q 681 2216 781 2091 
Q 878 1963 1175 1819 
L 1631 1597 
Q 2266 1288 2266 781 
Q 2266 391 1970 151 
Q 1675 -88 1309 -88 
Q 1047 -88 709 6 
Q 606 38 541 38 
Q 469 38 428 -44 
L 325 -44 
L 325 978 
L 428 978 
Q 516 541 762 319 
Q 1009 97 1316 97 
Q 1531 97 1667 223 
Q 1803 350 1803 528 
Q 1803 744 1651 891 
Q 1500 1038 1047 1263 
Q 594 1488 453 1669 
Q 313 1847 313 2119 
Q 313 2472 555 2709 
Q 797 2947 1181 2947 
Q 1350 2947 1591 2875 
Q 1750 2828 1803 2828 
Q 1853 2828 1881 2850 
Q 1909 2872 1947 2947 
L 2050 2947 
z
" transform="scale(0.015625)"/>
       <path id="TimesNewRomanPSMT-29" d="M 144 4313 
L 144 4444 
Q 619 4209 934 3891 
Q 1381 3434 1625 2820 
Q 1869 2206 1869 1541 
Q 1869 572 1392 -226 
Q 916 -1025 144 -1369 
L 144 -1253 
Q 528 -1038 776 -670 
Q 1025 -303 1145 264 
Q 1266 831 1266 1447 
Q 1266 2113 1163 2663 
Q 1084 3094 967 3353 
Q 850 3613 656 3853 
Q 463 4094 144 4313 
z
" transform="scale(0.015625)"/>
      </defs>
      <use xlink:href="#TimesNewRomanPSMT-54"/>
      <use xlink:href="#TimesNewRomanPSMT-69" x="57.583984"/>
      <use xlink:href="#TimesNewRomanPSMT-6d" x="85.367188"/>
      <use xlink:href="#TimesNewRomanPSMT-65" x="163.150391"/>
      <use xlink:href="#TimesNewRomanPSMT-28" x="207.535156"/>
      <use xlink:href="#TimesNewRomanPSMT-73" x="240.835938"/>
      <use xlink:href="#TimesNewRomanPSMT-29" x="279.751953"/>
     </g>
    </g>
   </g>
   <g id="matplotlib.axis_2">
    <g id="ytick_1">
     <g id="line2d_13">
      <path d="M 82.8 274.08 
L 709.2 274.08 
" clip-path="url(#p942ca36b58)" style="fill: none; stroke-dasharray: 2.96,1.28; stroke-dashoffset: 0; stroke: #bdc3c7; stroke-width: 0.8"/>
     </g>
     <g id="line2d_14">
      <defs>
       <path id="m605212f5a7" d="M 0 0 
L 3.5 0 
" style="stroke: #000000; stroke-width: 0.8"/>
      </defs>
      <g>
       <use xlink:href="#m605212f5a7" x="82.8" y="274.08" style="stroke: #000000; stroke-width: 0.8"/>
      </g>
     </g>
     <g id="text_8">
      <!-- −100 -->
      <g transform="translate(29.859063 280.918594) scale(0.18 -0.18)">
       <defs>
        <path id="DejaVuSans-2212" d="M 678 2272 
L 4684 2272 
L 4684 1741 
L 678 1741 
L 678 2272 
z
" transform="scale(0.015625)"/>
       </defs>
       <use xlink:href="#DejaVuSans-2212"/>
       <use xlink:href="#DejaVuSans-31" x="83.789062"/>
       <use xlink:href="#DejaVuSans-30" x="147.412109"/>
       <use xlink:href="#DejaVuSans-30" x="211.035156"/>
      </g>
     </g>
    </g>
    <g id="ytick_2">
     <g id="line2d_15">
      <path d="M 82.8 225.18 
L 709.2 225.18 
" clip-path="url(#p942ca36b58)" style="fill: none; stroke-dasharray: 2.96,1.28; stroke-dashoffset: 0; stroke: #bdc3c7; stroke-width: 0.8"/>
     </g>
     <g id="line2d_16">
      <g>
       <use xlink:href="#m605212f5a7" x="82.8" y="225.18" style="stroke: #000000; stroke-width: 0.8"/>
      </g>
     </g>
     <g id="text_9">
      <!-- −50 -->
      <g transform="translate(41.311563 232.018594) scale(0.18 -0.18)">
       <use xlink:href="#DejaVuSans-2212"/>
       <use xlink:href="#DejaVuSans-35" x="83.789062"/>
       <use xlink:href="#DejaVuSans-30" x="147.412109"/>
      </g>
     </g>
    </g>
    <g id="ytick_3">
     <g id="line2d_17">
      <path d="M 82.8 176.28 
L 709.2 176.28 
" clip-path="url(#p942ca36b58)" style="fill: none; stroke-dasharray: 2.96,1.28; stroke-dashoffset: 0; stroke: #bdc3c7; stroke-width: 0.8"/>
     </g>
     <g id="line2d_18">
      <g>
       <use xlink:href="#m605212f5a7" x="82.8" y="176.28" style="stroke: #000000; stroke-width: 0.8"/>
      </g>
     </g>
     <g id="text_10">
      <!-- 0 -->
      <g transform="translate(67.8475 183.118594) scale(0.18 -0.18)">
       <use xlink:href="#DejaVuSans-30"/>
      </g>
     </g>
    </g>
    <g id="ytick_4">
     <g id="line2d_19">
      <path d="M 82.8 127.38 
L 709.2 127.38 
" clip-path="url(#p942ca36b58)" style="fill: none; stroke-dasharray: 2.96,1.28; stroke-dashoffset: 0; stroke: #bdc3c7; stroke-width: 0.8"/>
     </g>
     <g id="line2d_20">
      <g>
       <use xlink:href="#m605212f5a7" x="82.8" y="127.38" style="stroke: #000000; stroke-width: 0.8"/>
      </g>
     </g>
     <g id="text_11">
      <!-- 50 -->
      <g transform="translate(56.395 134.218594) scale(0.18 -0.18)">
       <use xlink:href="#DejaVuSans-35"/>
       <use xlink:href="#DejaVuSans-30" x="63.623047"/>
      </g>
     </g>
    </g>
    <g id="ytick_5">
     <g id="line2d_21">
      <path d="M 82.8 78.48 
L 709.2 78.48 
" clip-path="url(#p942ca36b58)" style="fill: none; stroke-dasharray: 2.96,1.28; stroke-dashoffset: 0; stroke: #bdc3c7; stroke-width: 0.8"/>
     </g>
     <g id="line2d_22">
      <g>
       <use xlink:href="#m605212f5a7" x="82.8" y="78.48" style="stroke: #000000; stroke-width: 0.8"/>
      </g>
     </g>
     <g id="text_12">
      <!-- 100 -->
      <g transform="translate(44.9425 85.318594) scale(0.18 -0.18)">
       <use xlink:href="#DejaVuSans-31"/>
       <use xlink:href="#DejaVuSans-30" x="63.623047"/>
       <use xlink:href="#DejaVuSans-30" x="127.246094"/>
      </g>
     </g>
    </g>
    <g id="ytick_6">
     <g id="line2d_23">
      <path d="M 82.8 29.58 
L 709.2 29.58 
" clip-path="url(#p942ca36b58)" style="fill: none; stroke-dasharray: 2.96,1.28; stroke-dashoffset: 0; stroke: #bdc3c7; stroke-width: 0.8"/>
     </g>
     <g id="line2d_24">
      <g>
       <use xlink:href="#m605212f5a7" x="82.8" y="29.58" style="stroke: #000000; stroke-width: 0.8"/>
      </g>
     </g>
     <g id="text_13">
      <!-- 150 -->
      <g transform="translate(44.9425 36.418594) scale(0.18 -0.18)">
       <use xlink:href="#DejaVuSans-31"/>
       <use xlink:href="#DejaVuSans-35" x="63.623047"/>
       <use xlink:href="#DejaVuSans-30" x="127.246094"/>
      </g>
     </g>
    </g>
    <g id="text_14">
     <!-- Z(m) -->
     <g transform="translate(20.725313 191.154375) rotate(-90) scale(0.24 -0.24)">
      <defs>
       <path id="TimesNewRomanPSMT-5a" d="M 3681 4238 
L 897 256 
L 2634 256 
Q 3034 256 3248 431 
Q 3463 606 3628 1141 
L 3731 1122 
L 3531 0 
L 81 0 
L 81 116 
L 2800 3984 
L 1444 3984 
Q 1106 3984 954 3911 
Q 803 3838 723 3698 
Q 644 3559 578 3178 
L 459 3178 
L 547 4238 
L 3681 4238 
z
" transform="scale(0.015625)"/>
      </defs>
      <use xlink:href="#TimesNewRomanPSMT-5a"/>
      <use xlink:href="#TimesNewRomanPSMT-28" x="61.083984"/>
      <use xlink:href="#TimesNewRomanPSMT-6d" x="94.384766"/>
      <use xlink:href="#TimesNewRomanPSMT-29" x="172.167969"/>
     </g>
    </g>
   </g>
   <g id="line2d_25">
    <path d="M 88.709434 176.28 
L 91.088244 176.180311 
L 94.90173 175.805477 
L 97.284923 175.532422 
L 99.191545 175.320918 
L 101.097889 175.041879 
L 111.106666 173.474916 
L 131.601512 170.569058 
L 136.367809 170.220927 
L 138.273825 170.332834 
L 142.087043 169.862562 
L 143.516731 169.68093 
L 144.946744 169.413572 
L 147.329787 169.081151 
L 149.713196 168.854316 
L 151.619079 168.773474 
L 154.47906 168.826398 
L 166.156264 169.837278 
L 168.301169 169.902406 
L 181.64631 170.738449 
L 183.791135 170.647923 
L 194.753477 169.609221 
L 199.043151 168.694626 
L 199.996317 168.478265 
L 201.902714 168.202536 
L 204.285739 167.976136 
L 205.953749 167.746072 
L 210.719875 166.192809 
L 213.579516 165.165728 
L 215.485984 164.740283 
L 216.915852 164.571788 
L 218.345551 164.471787 
L 219.29878 164.426704 
L 220.252407 164.345856 
L 221.682278 164.266389 
L 223.112154 164.098648 
L 227.900352 163.175148 
L 232.227263 162.119057 
L 244.192235 159.342393 
L 245.627131 158.92968 
L 256.620803 156.223615 
L 260.441428 155.387024 
L 269.514004 152.502707 
L 272.139418 151.516645 
L 276.196856 150.221294 
L 280.969019 148.812224 
L 282.878062 148.225617 
L 290.990197 145.849129 
L 295.761657 144.165558 
L 297.193132 143.774498 
L 299.101832 143.625991 
L 301.010303 143.726509 
L 303.395742 144.128787 
L 310.552341 145.791912 
L 311.506337 146.109377 
L 315.800415 147.392742 
L 326.772926 150.589277 
L 330.828269 151.378408 
L 341.5622 152.745144 
L 346.809834 153.100937 
L 349.672387 153.381476 
L 351.58048 153.71602 
L 355.396939 154.212377 
L 360.644641 154.331116 
L 364.461116 155.136404 
L 366.369371 155.608196 
L 368.277584 156.218211 
L 372.571057 157.633439 
L 377.341546 159.141731 
L 384.259179 160.772385 
L 386.644376 161.374627 
L 388.552511 161.775179 
L 391.892239 162.408554 
L 395.231396 162.812855 
L 400.001939 163.632895 
L 407.157857 164.754639 
L 409.543432 165.041103 
L 417.164829 166.119194 
L 420.484686 167.080291 
L 423.807826 168.090695 
L 429.033868 169.809528 
L 430.460038 170.297557 
L 433.31316 171.192375 
L 437.11901 172.253832 
L 441.878557 173.394244 
L 444.735033 173.898169 
L 448.30625 174.440006 
L 451.878475 174.642156 
L 454.974449 174.301894 
L 459.262396 173.800049 
L 465.456501 172.945131 
L 472.843313 172.25923 
L 484.520242 171.736117 
L 502.633427 174.498734 
L 506.685311 174.76537 
L 508.115397 174.814146 
L 512.882568 174.842095 
L 515.504166 175.027582 
L 519.079504 175.173554 
L 536.723216 176.271572 
L 537.915959 176.263037 
L 540.062909 176.342262 
L 541.494048 176.358573 
L 547.456974 176.210003 
L 549.841843 176.040954 
L 559.857894 175.071433 
L 564.627339 174.466949 
L 572.257528 173.532588 
L 577.026554 172.673834 
L 577.980106 172.499404 
L 582.272117 171.888236 
L 584.656131 171.658658 
L 595.623457 170.440182 
L 597.053969 170.597389 
L 599.91484 170.641938 
L 605.159774 170.5674 
L 607.543812 170.24722 
L 608.020562 170.026517 
L 609.451065 169.748135 
L 611.358207 169.318645 
L 615.172923 168.477361 
L 617.080051 168.240793 
L 619.463792 168.295835 
L 624.708402 168.904074 
L 627.569197 168.691592 
L 629.953419 168.262372 
L 633.767388 167.251923 
L 636.628389 166.421671 
L 641.396135 165.012286 
L 648.070859 162.881939 
L 656.652713 160.389794 
L 659.036884 159.927274 
L 673.347384 157.974637 
L 675.731721 158.008736 
L 678.11502 158.19274 
L 689.557686 156.608054 
L 689.557686 156.608054 
" clip-path="url(#p942ca36b58)" style="fill: none; stroke-dasharray: 10.175,4.4; stroke-dashoffset: 0; stroke: #808a87; stroke-width: 2.75"/>
   </g>
   <g id="line2d_26">
    <path d="M 89.539686 176.284743 
L 93.233676 176.142143 
L 100.144564 175.784709 
L 101.097889 175.760224 
L 103.24256 175.639002 
L 115.634842 174.798683 
L 118.137053 174.597237 
L 122.545855 174.273621 
L 124.452269 174.142514 
L 125.286338 174.064615 
L 126.358742 174.007045 
L 128.622663 173.824218 
L 130.171645 173.708677 
L 133.388755 173.448217 
L 134.222923 173.380487 
L 135.771885 173.270355 
L 136.844343 173.434205 
L 137.916654 173.620331 
L 138.870024 173.571646 
L 142.801907 173.390396 
L 143.874404 173.29343 
L 146.496095 173.113728 
L 147.806625 173.043852 
L 156.981308 172.888965 
L 161.032672 173.020244 
L 163.773001 173.061193 
L 166.990315 173.097394 
L 167.824691 173.141622 
L 169.015988 173.189552 
L 178.429067 174.32144 
L 179.263255 174.44312 
L 180.45492 174.587185 
L 183.314624 174.813564 
L 189.391319 175.032099 
L 190.463877 175.126847 
L 196.65994 175.466431 
L 197.255299 175.498375 
L 201.068133 175.669984 
L 202.736669 175.8697 
L 206.311422 175.902873 
L 207.622195 175.629042 
L 208.336803 175.540557 
L 210.124302 175.206994 
L 211.434881 174.962831 
L 212.626397 174.733969 
L 213.698777 174.534183 
L 214.175785 174.486324 
L 215.24773 174.402176 
L 217.273054 174.362474 
L 218.941556 174.431257 
L 219.29878 174.498084 
L 220.490616 174.569207 
L 223.231349 174.704728 
L 225.137997 174.766747 
L 225.858544 174.788203 
L 226.819728 174.811466 
L 228.620645 174.858449 
L 229.940613 174.91311 
L 243.833511 175.635361 
L 244.192235 175.647027 
L 246.344557 175.680269 
L 248.496444 175.704933 
L 249.571713 175.701614 
L 251.005844 175.626561 
L 254.47066 175.195386 
L 260.322371 173.928356 
L 262.59061 173.328992 
L 264.500981 172.765146 
L 266.171972 172.297288 
L 269.514004 171.239934 
L 271.662131 170.520102 
L 273.332731 169.976041 
L 276.31592 169.219468 
L 277.389823 168.996907 
L 279.29873 168.576915 
L 282.281565 167.915648 
L 284.190217 167.704451 
L 291.944535 167.054375 
L 293.018144 166.945619 
L 297.908959 166.739954 
L 301.248837 167.101978 
L 309.240217 168.840925 
L 320.690222 172.250598 
L 322.479356 172.858531 
L 327.130814 174.294416 
L 342.635681 177.501465 
L 344.901725 177.76754 
L 346.213713 177.91105 
L 348.002485 178.071403 
L 354.085054 178.817344 
L 357.305511 178.895281 
L 361.360537 178.974515 
L 367.68124 179.321811 
L 368.754219 179.421662 
L 370.662839 179.59067 
L 371.139997 179.642253 
L 372.928865 179.812127 
L 378.653488 180.399758 
L 380.084832 180.588006 
L 381.87371 180.914869 
L 382.589364 181.052546 
L 384.139664 181.437367 
L 385.928672 181.889011 
L 386.763732 182.115712 
L 389.148935 182.67921 
L 391.056975 183.124211 
L 392.488288 183.304317 
L 395.350738 183.779526 
L 414.909951 187.608691 
L 415.979796 187.715725 
L 422.620641 188.516597 
L 429.390431 189.196034 
L 429.866123 189.271468 
L 431.886649 189.501644 
L 434.026784 189.677745 
L 434.74034 189.728678 
L 435.572681 189.794881 
L 441.640288 190.228929 
L 444.377754 190.359812 
L 445.210881 190.392069 
L 449.37796 190.470596 
L 452.592811 190.218661 
L 460.810682 188.9106 
L 470.698736 187.333791 
L 471.889913 187.201789 
L 476.819426 186.897978 
L 481.183861 186.693359 
L 484.04366 186.39544 
L 484.877637 186.389561 
L 488.929192 186.568932 
L 491.074219 186.724204 
L 492.504235 186.812191 
L 495.24524 186.987184 
L 495.72166 187.046312 
L 496.43694 187.127829 
L 497.747741 187.267997 
L 498.819876 187.40981 
L 501.08429 187.785756 
L 504.421552 188.227751 
L 506.208944 188.325477 
L 514.67018 188.380032 
L 516.219259 188.378808 
L 525.276795 188.597325 
L 525.991863 188.603514 
L 527.660254 188.688411 
L 528.494293 188.699435 
L 529.924409 188.719497 
L 533.741399 188.82217 
L 535.769082 188.883335 
L 538.631806 188.918753 
L 540.420718 188.905835 
L 541.613224 188.833334 
L 544.59468 188.561854 
L 545.310331 188.491812 
L 547.814732 188.182039 
L 548.768797 188.032182 
L 580.006797 182.190201 
L 581.55689 182.204527 
L 583.583347 182.208444 
L 585.609942 182.217767 
L 587.398047 182.218032 
L 588.709253 182.213018 
L 593.716354 182.122752 
L 595.265771 182.185601 
L 596.219394 182.292608 
L 599.557274 182.713466 
L 602.775369 183.08319 
L 603.729242 183.11932 
L 604.801674 183.140434 
L 610.404598 182.951749 
L 613.503666 182.782849 
L 616.126234 182.720596 
L 616.722551 182.722044 
L 618.62937 182.904549 
L 620.059727 183.107851 
L 621.252219 183.297119 
L 622.324768 183.494267 
L 623.755056 183.702599 
L 624.112566 183.737639 
L 625.185175 183.859013 
L 626.377334 183.922648 
L 628.76134 183.925392 
L 640.919234 182.865632 
L 641.753502 182.757698 
L 649.739289 181.702804 
L 650.335625 181.647951 
L 658.082952 180.202129 
L 658.798376 180.055274 
L 660.586283 179.691818 
L 661.181958 179.603683 
L 666.672661 178.563121 
L 670.725143 177.837737 
L 672.870813 177.548253 
L 674.181959 177.452571 
L 675.3737 177.433058 
L 678.949517 177.412792 
L 681.214131 176.989493 
L 682.644286 176.669932 
L 684.194233 176.392104 
L 687.769405 175.63463 
L 688.842143 175.406302 
L 690.153587 175.106386 
L 690.153587 175.106386 
" clip-path="url(#p942ca36b58)" style="fill: none; stroke: #0000ff; stroke-width: 2; stroke-linecap: square"/>
   </g>
   <g id="line2d_27">
    <path d="M 89.182189 176.28 
L 95.140018 175.863101 
L 101.812612 175.326664 
L 102.765906 175.217518 
L 103.71915 175.186133 
L 104.434076 175.068401 
L 113.489975 174.050304 
L 121.354219 172.886653 
L 122.068991 172.795742 
L 136.129355 170.54865 
L 137.559204 170.721423 
L 138.512513 170.653431 
L 140.657229 170.350063 
L 141.610422 170.229592 
L 143.040252 170.069698 
L 146.376473 169.494601 
L 147.09205 169.42094 
L 148.521428 169.220411 
L 149.236577 169.153894 
L 151.143162 168.893922 
L 152.810983 168.782461 
L 153.764103 168.715094 
L 157.815372 168.644018 
L 158.292136 168.648899 
L 169.969317 168.662671 
L 173.30584 168.850484 
L 179.263255 169.273908 
L 185.697587 169.366086 
L 187.127349 169.437864 
L 188.557304 169.585769 
L 190.940264 169.803 
L 191.654941 169.909733 
L 195.706412 170.16906 
L 198.089478 170.325525 
L 199.757748 170.410992 
L 206.192267 170.918785 
L 212.149886 170.072204 
L 212.864683 170.017414 
L 213.102988 169.8903 
L 213.341579 169.930231 
L 213.579516 169.820799 
L 213.817993 169.898357 
L 214.294623 169.721646 
L 214.533065 169.820816 
L 215.009856 169.747465 
L 215.485984 169.69982 
L 217.869138 169.837074 
L 224.065004 170.335997 
L 224.541746 170.345033 
L 225.257898 170.406117 
L 225.498281 170.335936 
L 225.738531 170.429771 
L 226.21888 170.415821 
L 231.500023 170.609971 
L 233.178507 170.695421 
L 235.096033 170.789754 
L 237.251759 170.978497 
L 238.688366 171.055229 
L 239.40667 171.1126 
L 239.64593 171.032646 
L 240.124806 171.148238 
L 240.603391 171.14338 
L 241.560728 171.130379 
L 244.43167 171.23758 
L 250.169234 171.269505 
L 251.125574 171.181626 
L 253.275946 170.899448 
L 257.814548 169.767646 
L 264.500981 167.453791 
L 275.957952 162.671052 
L 276.912615 162.412331 
L 278.105623 162.030886 
L 280.969019 161.13518 
L 282.400876 160.759626 
L 285.264233 160.304175 
L 288.604369 159.981191 
L 291.944535 159.64699 
L 297.431464 159.210124 
L 300.771673 159.678774 
L 304.349878 160.6003 
L 309.598203 162.297492 
L 310.552341 162.62412 
L 312.699058 163.454921 
L 317.469847 165.320086 
L 319.139821 166.042228 
L 327.965672 169.57761 
L 330.828269 170.458376 
L 334.167686 171.370021 
L 337.02983 172.147413 
L 338.222639 172.46935 
L 341.800615 173.358643 
L 344.185812 173.820695 
L 349.672387 174.593545 
L 353.965791 175.257785 
L 355.635452 175.349563 
L 361.598785 175.484445 
L 363.268489 175.628663 
L 365.65397 175.756419 
L 367.562137 175.935891 
L 368.51597 176.073397 
L 377.341546 177.198667 
L 378.295997 177.340707 
L 380.204087 177.666348 
L 384.259179 178.71505 
L 386.644376 179.472606 
L 388.552511 179.992646 
L 392.369046 180.962875 
L 394.27743 181.321349 
L 394.992979 181.514243 
L 395.708479 181.659772 
L 397.616593 182.142802 
L 399.763441 182.705498 
L 403.341737 183.667914 
L 408.350439 184.801583 
L 409.066091 184.955082 
L 412.405745 185.673421 
L 412.882711 185.75905 
L 419.061691 186.863706 
L 424.520155 187.543486 
L 427.608192 187.947437 
L 428.320873 188.084729 
L 433.075167 188.687452 
L 434.264824 188.787976 
L 437.357238 189.1044 
L 438.070885 189.169476 
L 442.116426 189.502097 
L 445.449474 189.600937 
L 445.925172 189.682969 
L 450.449357 189.683672 
L 452.354601 189.502372 
L 456.880099 188.724217 
L 459.023851 188.262436 
L 464.503454 187.029713 
L 469.268954 186.054477 
L 471.651683 185.735201 
L 478.085751 185.295824 
L 481.183861 185.087658 
L 484.758501 184.651146 
L 490.478611 184.912686 
L 491.670006 184.988481 
L 492.385011 185.024835 
L 496.913374 185.38017 
L 497.628384 185.50846 
L 498.34375 185.593086 
L 502.871955 186.429156 
L 507.400444 186.753584 
L 540.77815 186.766565 
L 543.163639 186.490349 
L 545.310331 186.23666 
L 547.695471 185.831683 
L 548.64949 185.63442 
L 556.996257 183.764406 
L 559.619475 183.084453 
L 560.335124 182.899861 
L 561.050501 182.700422 
L 563.912012 181.967796 
L 566.057795 181.39243 
L 566.773465 181.216839 
L 567.727033 180.949335 
L 569.396476 180.545166 
L 574.403776 179.359685 
L 578.218586 178.536886 
L 579.172383 178.435231 
L 579.887737 178.358118 
L 581.318163 178.404188 
L 582.748723 178.442774 
L 585.371681 178.487927 
L 590.37828 178.524466 
L 592.047201 178.498147 
L 594.431375 178.523375 
L 599.91484 179.39585 
L 600.868447 179.57232 
L 604.921552 179.975881 
L 612.073458 179.579787 
L 612.550354 179.529222 
L 613.98054 179.460165 
L 615.88785 179.40754 
L 620.178947 180.007982 
L 621.847603 180.428498 
L 625.662138 181.117681 
L 628.999787 181.194273 
L 632.608243 180.8865 
L 634.244173 180.702005 
L 637.343265 180.389823 
L 642.110918 179.848191 
L 643.568747 179.694548 
L 645.92523 179.379011 
L 649.739289 178.835759 
L 654.745535 177.935604 
L 667.149426 174.729042 
L 670.487069 173.946063 
L 672.870813 173.494629 
L 675.969666 173.297956 
L 677.87724 173.310003 
L 687.411991 170.7967 
L 689.080907 170.31816 
L 689.79611 170.100188 
L 689.79611 170.100188 
" clip-path="url(#p942ca36b58)" style="fill: none; stroke: #ff0000; stroke-width: 2; stroke-linecap: square"/>
   </g>
   <g id="patch_3">
    <path d="M 82.8 313.2 
L 82.8 19.8 
" style="fill: none; stroke: #000000; stroke-width: 0.8; stroke-linejoin: miter; stroke-linecap: square"/>
   </g>
   <g id="patch_4">
    <path d="M 709.2 313.2 
L 709.2 19.8 
" style="fill: none; stroke: #000000; stroke-width: 0.8; stroke-linejoin: miter; stroke-linecap: square"/>
   </g>
   <g id="patch_5">
    <path d="M 82.8 313.2 
L 709.2 313.2 
" style="fill: none; stroke: #000000; stroke-width: 0.8; stroke-linejoin: miter; stroke-linecap: square"/>
   </g>
   <g id="patch_6">
    <path d="M 82.8 19.8 
L 709.2 19.8 
" style="fill: none; stroke: #000000; stroke-width: 0.8; stroke-linejoin: miter; stroke-linecap: square"/>
   </g>
  </g>
 </g>
 <defs>
  <clipPath id="p942ca36b58">
   <rect x="82.8" y="19.8" width="626.4" height="293.4"/>
  </clipPath>
 </defs>
</svg>
