<?xml version="1.0" encoding="utf-8" standalone="no"?>
<!DOCTYPE svg PUBLIC "-//W3C//DTD SVG 1.1//EN"
  "http://www.w3.org/Graphics/SVG/1.1/DTD/svg11.dtd">
<svg xmlns:xlink="http://www.w3.org/1999/xlink" width="720pt" height="648pt" viewBox="0 0 720 648" xmlns="http://www.w3.org/2000/svg" version="1.1">
 <metadata>
  <rdf:RDF xmlns:dc="http://purl.org/dc/elements/1.1/" xmlns:cc="http://creativecommons.org/ns#" xmlns:rdf="http://www.w3.org/1999/02/22-rdf-syntax-ns#">
   <cc:Work>
    <dc:type rdf:resource="http://purl.org/dc/dcmitype/StillImage"/>
    <dc:date>2024-08-06T14:18:09.315005</dc:date>
    <dc:format>image/svg+xml</dc:format>
    <dc:creator>
     <cc:Agent>
      <dc:title>Matplotlib v3.8.3, https://matplotlib.org/</dc:title>
     </cc:Agent>
    </dc:creator>
   </cc:Work>
  </rdf:RDF>
 </metadata>
 <defs>
  <style type="text/css">*{stroke-linejoin: round; stroke-linecap: butt}</style>
 </defs>
 <g id="figure_1">
  <g id="patch_1">
   <path d="M 0 648 
L 720 648 
L 720 0 
L 0 0 
z
" style="fill: #ffffff"/>
  </g>
  <g id="axes_1">
   <g id="patch_2">
    <path d="M 97.2 583.2 
L 716.4 583.2 
L 716.4 45.36 
L 97.2 45.36 
z
" style="fill: #ffffff"/>
   </g>
   <g id="matplotlib.axis_1">
    <g id="xtick_1">
     <g id="line2d_1">
      <path d="M 193.658291 583.2 
L 193.658291 45.36 
" clip-path="url(#pea71758a77)" style="fill: none; stroke-dasharray: 2.96,1.28; stroke-dashoffset: 0; stroke: #b0b0b0; stroke-width: 0.8"/>
     </g>
     <g id="line2d_2">
      <defs>
       <path id="md795250a07" d="M 0 0 
L 0 -5 
" style="stroke: #000000; stroke-width: 0.8"/>
      </defs>
      <g>
       <use xlink:href="#md795250a07" x="193.658291" y="583.2" style="stroke: #000000; stroke-width: 0.8"/>
      </g>
     </g>
     <g id="text_1">
      <!-- 0 -->
      <g transform="translate(187.295791 613.396875) scale(0.2 -0.2)">
       <defs>
        <path id="DejaVuSans-30" d="M 2034 4250 
Q 1547 4250 1301 3770 
Q 1056 3291 1056 2328 
Q 1056 1369 1301 889 
Q 1547 409 2034 409 
Q 2525 409 2770 889 
Q 3016 1369 3016 2328 
Q 3016 3291 2770 3770 
Q 2525 4250 2034 4250 
z
M 2034 4750 
Q 2819 4750 3233 4129 
Q 3647 3509 3647 2328 
Q 3647 1150 3233 529 
Q 2819 -91 2034 -91 
Q 1250 -91 836 529 
Q 422 1150 422 2328 
Q 422 3509 836 4129 
Q 1250 4750 2034 4750 
z
" transform="scale(0.015625)"/>
       </defs>
       <use xlink:href="#DejaVuSans-30"/>
      </g>
     </g>
    </g>
    <g id="xtick_2">
     <g id="line2d_3">
      <path d="M 318.120603 583.2 
L 318.120603 45.36 
" clip-path="url(#pea71758a77)" style="fill: none; stroke-dasharray: 2.96,1.28; stroke-dashoffset: 0; stroke: #b0b0b0; stroke-width: 0.8"/>
     </g>
     <g id="line2d_4">
      <g>
       <use xlink:href="#md795250a07" x="318.120603" y="583.2" style="stroke: #000000; stroke-width: 0.8"/>
      </g>
     </g>
     <g id="text_2">
      <!-- 100 -->
      <g transform="translate(299.033103 613.396875) scale(0.2 -0.2)">
       <defs>
        <path id="DejaVuSans-31" d="M 794 531 
L 1825 531 
L 1825 4091 
L 703 3866 
L 703 4441 
L 1819 4666 
L 2450 4666 
L 2450 531 
L 3481 531 
L 3481 0 
L 794 0 
L 794 531 
z
" transform="scale(0.015625)"/>
       </defs>
       <use xlink:href="#DejaVuSans-31"/>
       <use xlink:href="#DejaVuSans-30" x="63.623047"/>
       <use xlink:href="#DejaVuSans-30" x="127.246094"/>
      </g>
     </g>
    </g>
    <g id="xtick_3">
     <g id="line2d_5">
      <path d="M 442.582915 583.2 
L 442.582915 45.36 
" clip-path="url(#pea71758a77)" style="fill: none; stroke-dasharray: 2.96,1.28; stroke-dashoffset: 0; stroke: #b0b0b0; stroke-width: 0.8"/>
     </g>
     <g id="line2d_6">
      <g>
       <use xlink:href="#md795250a07" x="442.582915" y="583.2" style="stroke: #000000; stroke-width: 0.8"/>
      </g>
     </g>
     <g id="text_3">
      <!-- 200 -->
      <g transform="translate(423.495415 613.396875) scale(0.2 -0.2)">
       <defs>
        <path id="DejaVuSans-32" d="M 1228 531 
L 3431 531 
L 3431 0 
L 469 0 
L 469 531 
Q 828 903 1448 1529 
Q 2069 2156 2228 2338 
Q 2531 2678 2651 2914 
Q 2772 3150 2772 3378 
Q 2772 3750 2511 3984 
Q 2250 4219 1831 4219 
Q 1534 4219 1204 4116 
Q 875 4013 500 3803 
L 500 4441 
Q 881 4594 1212 4672 
Q 1544 4750 1819 4750 
Q 2544 4750 2975 4387 
Q 3406 4025 3406 3419 
Q 3406 3131 3298 2873 
Q 3191 2616 2906 2266 
Q 2828 2175 2409 1742 
Q 1991 1309 1228 531 
z
" transform="scale(0.015625)"/>
       </defs>
       <use xlink:href="#DejaVuSans-32"/>
       <use xlink:href="#DejaVuSans-30" x="63.623047"/>
       <use xlink:href="#DejaVuSans-30" x="127.246094"/>
      </g>
     </g>
    </g>
    <g id="xtick_4">
     <g id="line2d_7">
      <path d="M 567.045226 583.2 
L 567.045226 45.36 
" clip-path="url(#pea71758a77)" style="fill: none; stroke-dasharray: 2.96,1.28; stroke-dashoffset: 0; stroke: #b0b0b0; stroke-width: 0.8"/>
     </g>
     <g id="line2d_8">
      <g>
       <use xlink:href="#md795250a07" x="567.045226" y="583.2" style="stroke: #000000; stroke-width: 0.8"/>
      </g>
     </g>
     <g id="text_4">
      <!-- 300 -->
      <g transform="translate(547.957726 613.396875) scale(0.2 -0.2)">
       <defs>
        <path id="DejaVuSans-33" d="M 2597 2516 
Q 3050 2419 3304 2112 
Q 3559 1806 3559 1356 
Q 3559 666 3084 287 
Q 2609 -91 1734 -91 
Q 1441 -91 1130 -33 
Q 819 25 488 141 
L 488 750 
Q 750 597 1062 519 
Q 1375 441 1716 441 
Q 2309 441 2620 675 
Q 2931 909 2931 1356 
Q 2931 1769 2642 2001 
Q 2353 2234 1838 2234 
L 1294 2234 
L 1294 2753 
L 1863 2753 
Q 2328 2753 2575 2939 
Q 2822 3125 2822 3475 
Q 2822 3834 2567 4026 
Q 2313 4219 1838 4219 
Q 1578 4219 1281 4162 
Q 984 4106 628 3988 
L 628 4550 
Q 988 4650 1302 4700 
Q 1616 4750 1894 4750 
Q 2613 4750 3031 4423 
Q 3450 4097 3450 3541 
Q 3450 3153 3228 2886 
Q 3006 2619 2597 2516 
z
" transform="scale(0.015625)"/>
       </defs>
       <use xlink:href="#DejaVuSans-33"/>
       <use xlink:href="#DejaVuSans-30" x="63.623047"/>
       <use xlink:href="#DejaVuSans-30" x="127.246094"/>
      </g>
     </g>
    </g>
    <g id="xtick_5">
     <g id="line2d_9">
      <path d="M 691.507538 583.2 
L 691.507538 45.36 
" clip-path="url(#pea71758a77)" style="fill: none; stroke-dasharray: 2.96,1.28; stroke-dashoffset: 0; stroke: #b0b0b0; stroke-width: 0.8"/>
     </g>
     <g id="line2d_10">
      <g>
       <use xlink:href="#md795250a07" x="691.507538" y="583.2" style="stroke: #000000; stroke-width: 0.8"/>
      </g>
     </g>
     <g id="text_5">
      <!-- 400 -->
      <g transform="translate(672.420038 613.396875) scale(0.2 -0.2)">
       <defs>
        <path id="DejaVuSans-34" d="M 2419 4116 
L 825 1625 
L 2419 1625 
L 2419 4116 
z
M 2253 4666 
L 3047 4666 
L 3047 1625 
L 3713 1625 
L 3713 1100 
L 3047 1100 
L 3047 0 
L 2419 0 
L 2419 1100 
L 313 1100 
L 313 1709 
L 2253 4666 
z
" transform="scale(0.015625)"/>
       </defs>
       <use xlink:href="#DejaVuSans-34"/>
       <use xlink:href="#DejaVuSans-30" x="63.623047"/>
       <use xlink:href="#DejaVuSans-30" x="127.246094"/>
      </g>
     </g>
    </g>
    <g id="text_6">
     <!-- X (m) -->
     <g transform="translate(382.640625 635.44375) scale(0.2 -0.2)">
      <defs>
       <path id="TimesNewRomanPSMT-58" d="M 2613 2347 
L 3522 991 
Q 3900 428 4083 279 
Q 4266 131 4547 116 
L 4547 0 
L 2728 0 
L 2728 116 
Q 2909 119 2997 153 
Q 3063 181 3105 239 
Q 3147 297 3147 356 
Q 3147 428 3119 500 
Q 3097 553 2947 775 
L 2228 1863 
L 1341 725 
Q 1200 544 1172 483 
Q 1144 422 1144 356 
Q 1144 256 1228 190 
Q 1313 125 1550 116 
L 1550 0 
L 47 0 
L 47 116 
Q 206 131 322 181 
Q 516 263 691 400 
Q 866 538 1091 822 
L 2091 2084 
L 1256 3306 
Q 916 3803 678 3958 
Q 441 4113 131 4122 
L 131 4238 
L 2091 4238 
L 2091 4122 
Q 1841 4113 1748 4041 
Q 1656 3969 1656 3881 
Q 1656 3766 1806 3544 
L 2456 2572 
L 3209 3525 
Q 3341 3694 3370 3756 
Q 3400 3819 3400 3884 
Q 3400 3950 3363 4000 
Q 3316 4066 3244 4092 
Q 3172 4119 2947 4122 
L 2947 4238 
L 4450 4238 
L 4450 4122 
Q 4272 4113 4159 4066 
Q 3991 3994 3850 3872 
Q 3709 3750 3453 3422 
L 2613 2347 
z
" transform="scale(0.015625)"/>
       <path id="TimesNewRomanPSMT-20" transform="scale(0.015625)"/>
       <path id="TimesNewRomanPSMT-28" d="M 1988 -1253 
L 1988 -1369 
Q 1516 -1131 1200 -813 
Q 750 -359 506 256 
Q 263 872 263 1534 
Q 263 2503 741 3301 
Q 1219 4100 1988 4444 
L 1988 4313 
Q 1603 4100 1356 3731 
Q 1109 3363 987 2797 
Q 866 2231 866 1616 
Q 866 947 969 400 
Q 1050 -31 1165 -292 
Q 1281 -553 1476 -793 
Q 1672 -1034 1988 -1253 
z
" transform="scale(0.015625)"/>
       <path id="TimesNewRomanPSMT-6d" d="M 1050 2338 
Q 1363 2650 1419 2697 
Q 1559 2816 1721 2881 
Q 1884 2947 2044 2947 
Q 2313 2947 2506 2790 
Q 2700 2634 2766 2338 
Q 3088 2713 3309 2830 
Q 3531 2947 3766 2947 
Q 3994 2947 4170 2830 
Q 4347 2713 4450 2447 
Q 4519 2266 4519 1878 
L 4519 647 
Q 4519 378 4559 278 
Q 4591 209 4675 161 
Q 4759 113 4950 113 
L 4950 0 
L 3538 0 
L 3538 113 
L 3597 113 
Q 3781 113 3884 184 
Q 3956 234 3988 344 
Q 4000 397 4000 647 
L 4000 1878 
Q 4000 2228 3916 2372 
Q 3794 2572 3525 2572 
Q 3359 2572 3192 2489 
Q 3025 2406 2788 2181 
L 2781 2147 
L 2788 2013 
L 2788 647 
Q 2788 353 2820 281 
Q 2853 209 2943 161 
Q 3034 113 3253 113 
L 3253 0 
L 1806 0 
L 1806 113 
Q 2044 113 2133 169 
Q 2222 225 2256 338 
Q 2272 391 2272 647 
L 2272 1878 
Q 2272 2228 2169 2381 
Q 2031 2581 1784 2581 
Q 1616 2581 1450 2491 
Q 1191 2353 1050 2181 
L 1050 647 
Q 1050 366 1089 281 
Q 1128 197 1204 155 
Q 1281 113 1516 113 
L 1516 0 
L 100 0 
L 100 113 
Q 297 113 375 155 
Q 453 197 493 289 
Q 534 381 534 647 
L 534 1741 
Q 534 2213 506 2350 
Q 484 2453 437 2492 
Q 391 2531 309 2531 
Q 222 2531 100 2484 
L 53 2597 
L 916 2947 
L 1050 2947 
L 1050 2338 
z
" transform="scale(0.015625)"/>
       <path id="TimesNewRomanPSMT-29" d="M 144 4313 
L 144 4444 
Q 619 4209 934 3891 
Q 1381 3434 1625 2820 
Q 1869 2206 1869 1541 
Q 1869 572 1392 -226 
Q 916 -1025 144 -1369 
L 144 -1253 
Q 528 -1038 776 -670 
Q 1025 -303 1145 264 
Q 1266 831 1266 1447 
Q 1266 2113 1163 2663 
Q 1084 3094 967 3353 
Q 850 3613 656 3853 
Q 463 4094 144 4313 
z
" transform="scale(0.015625)"/>
      </defs>
      <use xlink:href="#TimesNewRomanPSMT-58"/>
      <use xlink:href="#TimesNewRomanPSMT-20" x="72.216797"/>
      <use xlink:href="#TimesNewRomanPSMT-28" x="97.216797"/>
      <use xlink:href="#TimesNewRomanPSMT-6d" x="130.517578"/>
      <use xlink:href="#TimesNewRomanPSMT-29" x="208.300781"/>
     </g>
    </g>
   </g>
   <g id="matplotlib.axis_2">
    <g id="ytick_1">
     <g id="line2d_11">
      <path d="M 97.2 532.460377 
L 716.4 532.460377 
" clip-path="url(#pea71758a77)" style="fill: none; stroke-dasharray: 2.96,1.28; stroke-dashoffset: 0; stroke: #b0b0b0; stroke-width: 0.8"/>
     </g>
     <g id="line2d_12">
      <defs>
       <path id="m1dc54c02d1" d="M 0 0 
L 5 0 
" style="stroke: #000000; stroke-width: 0.8"/>
      </defs>
      <g>
       <use xlink:href="#m1dc54c02d1" x="97.2" y="532.460377" style="stroke: #000000; stroke-width: 0.8"/>
      </g>
     </g>
     <g id="text_7">
      <!-- −200 -->
      <g transform="translate(27.265625 540.058815) scale(0.2 -0.2)">
       <defs>
        <path id="DejaVuSans-2212" d="M 678 2272 
L 4684 2272 
L 4684 1741 
L 678 1741 
L 678 2272 
z
" transform="scale(0.015625)"/>
       </defs>
       <use xlink:href="#DejaVuSans-2212"/>
       <use xlink:href="#DejaVuSans-32" x="83.789062"/>
       <use xlink:href="#DejaVuSans-30" x="147.412109"/>
       <use xlink:href="#DejaVuSans-30" x="211.035156"/>
      </g>
     </g>
    </g>
    <g id="ytick_2">
     <g id="line2d_13">
      <path d="M 97.2 430.981132 
L 716.4 430.981132 
" clip-path="url(#pea71758a77)" style="fill: none; stroke-dasharray: 2.96,1.28; stroke-dashoffset: 0; stroke: #b0b0b0; stroke-width: 0.8"/>
     </g>
     <g id="line2d_14">
      <g>
       <use xlink:href="#m1dc54c02d1" x="97.2" y="430.981132" style="stroke: #000000; stroke-width: 0.8"/>
      </g>
     </g>
     <g id="text_8">
      <!-- −100 -->
      <g transform="translate(27.265625 438.57957) scale(0.2 -0.2)">
       <use xlink:href="#DejaVuSans-2212"/>
       <use xlink:href="#DejaVuSans-31" x="83.789062"/>
       <use xlink:href="#DejaVuSans-30" x="147.412109"/>
       <use xlink:href="#DejaVuSans-30" x="211.035156"/>
      </g>
     </g>
    </g>
    <g id="ytick_3">
     <g id="line2d_15">
      <path d="M 97.2 329.501887 
L 716.4 329.501887 
" clip-path="url(#pea71758a77)" style="fill: none; stroke-dasharray: 2.96,1.28; stroke-dashoffset: 0; stroke: #b0b0b0; stroke-width: 0.8"/>
     </g>
     <g id="line2d_16">
      <g>
       <use xlink:href="#m1dc54c02d1" x="97.2" y="329.501887" style="stroke: #000000; stroke-width: 0.8"/>
      </g>
     </g>
     <g id="text_9">
      <!-- 0 -->
      <g transform="translate(69.475 337.100324) scale(0.2 -0.2)">
       <use xlink:href="#DejaVuSans-30"/>
      </g>
     </g>
    </g>
    <g id="ytick_4">
     <g id="line2d_17">
      <path d="M 97.2 228.022642 
L 716.4 228.022642 
" clip-path="url(#pea71758a77)" style="fill: none; stroke-dasharray: 2.96,1.28; stroke-dashoffset: 0; stroke: #b0b0b0; stroke-width: 0.8"/>
     </g>
     <g id="line2d_18">
      <g>
       <use xlink:href="#m1dc54c02d1" x="97.2" y="228.022642" style="stroke: #000000; stroke-width: 0.8"/>
      </g>
     </g>
     <g id="text_10">
      <!-- 100 -->
      <g transform="translate(44.025 235.621079) scale(0.2 -0.2)">
       <use xlink:href="#DejaVuSans-31"/>
       <use xlink:href="#DejaVuSans-30" x="63.623047"/>
       <use xlink:href="#DejaVuSans-30" x="127.246094"/>
      </g>
     </g>
    </g>
    <g id="ytick_5">
     <g id="line2d_19">
      <path d="M 97.2 126.543396 
L 716.4 126.543396 
" clip-path="url(#pea71758a77)" style="fill: none; stroke-dasharray: 2.96,1.28; stroke-dashoffset: 0; stroke: #b0b0b0; stroke-width: 0.8"/>
     </g>
     <g id="line2d_20">
      <g>
       <use xlink:href="#m1dc54c02d1" x="97.2" y="126.543396" style="stroke: #000000; stroke-width: 0.8"/>
      </g>
     </g>
     <g id="text_11">
      <!-- 200 -->
      <g transform="translate(44.025 134.141834) scale(0.2 -0.2)">
       <use xlink:href="#DejaVuSans-32"/>
       <use xlink:href="#DejaVuSans-30" x="63.623047"/>
       <use xlink:href="#DejaVuSans-30" x="127.246094"/>
      </g>
     </g>
    </g>
    <g id="text_12">
     <!-- Y (m) -->
     <g transform="translate(18.9875 338.064375) rotate(-90) scale(0.2 -0.2)">
      <defs>
       <path id="TimesNewRomanPSMT-59" d="M 3050 4238 
L 4528 4238 
L 4528 4122 
L 4447 4122 
Q 4366 4122 4209 4050 
Q 4053 3978 3925 3843 
Q 3797 3709 3609 3406 
L 2588 1797 
L 2588 734 
Q 2588 344 2675 247 
Q 2794 116 3050 116 
L 3188 116 
L 3188 0 
L 1388 0 
L 1388 116 
L 1538 116 
Q 1806 116 1919 278 
Q 1988 378 1988 734 
L 1988 1738 
L 825 3513 
Q 619 3825 545 3903 
Q 472 3981 241 4091 
Q 178 4122 59 4122 
L 59 4238 
L 1872 4238 
L 1872 4122 
L 1778 4122 
Q 1631 4122 1507 4053 
Q 1384 3984 1384 3847 
Q 1384 3734 1575 3441 
L 2459 2075 
L 3291 3381 
Q 3478 3675 3478 3819 
Q 3478 3906 3433 3975 
Q 3388 4044 3303 4083 
Q 3219 4122 3050 4122 
L 3050 4238 
z
" transform="scale(0.015625)"/>
      </defs>
      <use xlink:href="#TimesNewRomanPSMT-59"/>
      <use xlink:href="#TimesNewRomanPSMT-20" x="68.466797"/>
      <use xlink:href="#TimesNewRomanPSMT-28" x="93.466797"/>
      <use xlink:href="#TimesNewRomanPSMT-6d" x="126.767578"/>
      <use xlink:href="#TimesNewRomanPSMT-29" x="204.550781"/>
     </g>
    </g>
   </g>
   <g id="line2d_21">
    <defs>
     <path id="md7c234b597" d="M 0 -3 
L -0.673542 -0.927051 
L -2.85317 -0.927051 
L -1.089814 0.354102 
L -1.763356 2.427051 
L -0 1.145898 
L 1.763356 2.427051 
L 1.089814 0.354102 
L 2.85317 -0.927051 
L 0.673542 -0.927051 
z
" style="stroke: #ff0000; stroke-linejoin: bevel"/>
    </defs>
    <g clip-path="url(#pea71758a77)">
     <use xlink:href="#md7c234b597" x="193.658291" y="329.501887" style="fill: #ff0000; stroke: #ff0000; stroke-linejoin: bevel"/>
    </g>
   </g>
   <g id="line2d_22">
    <path d="M 193.658291 329.501887 
L 200.068677 329.430769 
L 217.517306 329.114959 
L 238.548437 328.786834 
L 289.469466 327.622216 
L 312.335669 326.813105 
L 322.459982 326.256394 
L 324.488344 326.394763 
L 326.338476 326.762518 
L 327.986606 327.361297 
L 329.066192 327.972848 
L 330.306708 328.963321 
L 331.069662 329.881884 
L 331.633103 330.930851 
L 332.041837 332.0725 
L 332.264998 333.341677 
L 332.467623 335.78644 
L 332.068596 349.988425 
L 331.435208 370.677628 
L 330.470625 386.298542 
L 329.539024 393.504826 
L 326.893827 412.181178 
L 325.812249 419.002086 
L 324.079361 431.18612 
L 322.764914 440.308901 
L 321.563479 447.336846 
L 320.217046 454.131592 
L 319.130615 458.513974 
L 318.202748 461.351029 
L 315.799294 467.518734 
L 313.396462 473.976874 
L 311.853901 478.822 
L 311.057056 482.32273 
L 310.858737 484.048587 
L 310.818001 486.320504 
L 310.768751 488.562993 
L 310.451484 491.261022 
L 309.752093 494.322041 
L 307.20013 502.70991 
L 302.878301 514.38256 
L 302.374316 516.459028 
L 302.231309 517.658006 
L 302.311189 519.219365 
L 302.595112 520.712937 
L 303.175965 522.193012 
L 303.874759 523.275491 
L 304.793403 524.384963 
L 306.043328 525.461354 
L 307.577338 526.494108 
L 309.417439 527.45948 
L 312.304616 528.676724 
L 315.594192 529.840386 
L 319.273373 530.899424 
L 330.606662 534.033103 
L 351.127635 539.728422 
L 360.312082 542.065388 
L 368.562813 543.942652 
L 375.048918 545.233976 
L 377.199128 545.383962 
L 378.768225 545.302982 
L 380.266129 545.038527 
L 382.091742 544.399309 
L 382.892532 543.955743 
L 383.961539 543.187241 
L 384.566551 542.594399 
L 385.101738 541.98319 
L 385.774582 540.582675 
L 386.23559 538.688565 
L 386.444313 537.024508 
L 386.580849 533.54722 
L 386.262723 526.206617 
L 386.336654 522.991146 
L 386.625282 519.525528 
L 387.326751 514.192794 
L 390.327538 493.435417 
L 392.805458 478.296642 
L 394.619496 467.054365 
L 396.112172 454.243017 
L 399.681005 421.799432 
L 402.041184 405.027643 
L 403.195945 396.00766 
L 404.522589 382.822462 
L 405.334207 372.878338 
L 406.172834 358.754233 
L 406.883141 344.621828 
L 407.479191 338.179848 
L 408.105485 334.111062 
L 408.65287 332.014061 
L 409.20959 330.584365 
L 409.903343 329.305015 
L 410.791382 328.157431 
L 412.160218 326.931256 
L 413.227732 326.256941 
L 414.444849 325.636228 
L 416.385465 324.929217 
L 418.147229 324.498021 
L 420.831881 324.150531 
L 423.878967 324.035996 
L 455.147385 323.697574 
L 469.517928 323.200958 
L 473.53246 323.08899 
L 475.651057 323.219449 
L 477.167008 323.454604 
L 479.023364 324.029673 
L 480.667262 324.794043 
L 481.771118 325.550078 
L 483.40033 327.068855 
L 484.530945 329.059486 
L 484.98934 330.468804 
L 485.391353 332.610542 
L 485.567716 335.014695 
L 485.493661 338.403513 
L 484.876328 348.699883 
L 484.767548 354.500842 
L 484.703201 364.535252 
L 484.396775 375.074024 
L 482.94181 410.445335 
L 482.475948 414.554331 
L 481.639686 419.842902 
L 479.6458 431.443167 
L 478.807173 438.430825 
L 477.43398 451.621402 
L 476.844153 459.590059 
L 476.002912 471.082381 
L 475.373631 476.703621 
L 474.59599 481.380292 
L 473.763462 485.115337 
L 472.712875 488.842467 
L 469.592232 499.109426 
L 468.480783 503.779806 
L 467.019471 510.965855 
L 463.441802 530.154363 
L 461.554705 542.100906 
L 460.673014 545.716104 
L 459.801902 548.38034 
L 458.959168 550.210011 
L 457.932976 551.875792 
L 457.075804 552.929451 
L 455.600552 554.329967 
L 454.236694 555.34963 
L 452.072046 556.579051 
L 450.210214 557.396365 
L 448.126466 558.080639 
L 445.857518 558.594226 
L 444.263405 558.814436 
L 441.795317 558.95671 
L 439.228655 558.888617 
L 435.652106 558.534556 
L 431.958189 557.936234 
L 428.185612 557.089898 
L 423.360955 555.749458 
L 410.472012 551.96824 
L 403.806184 550.332395 
L 395.308893 548.268611 
L 392.702403 547.466418 
L 390.418644 546.519312 
L 388.920367 545.623555 
L 387.661804 544.601963 
L 386.63026 543.464381 
L 385.840173 542.189294 
L 385.291295 540.830893 
L 384.973667 539.360053 
L 384.820703 537.751505 
L 384.80278 535.480704 
L 384.944667 532.964729 
L 385.417748 528.778507 
L 386.628767 518.971249 
L 389.006868 502.930932 
L 391.895016 484.123986 
L 394.731512 466.577311 
L 398.210358 435.515326 
L 399.37881 425.796588 
L 400.922765 415.972768 
L 402.293842 407.059612 
L 403.418359 397.846778 
L 404.353071 388.412202 
L 405.560231 373.314404 
L 406.188019 362.442943 
L 406.787678 349.818783 
L 409.78946 332.787196 
L 410.291417 327.390686 
L 410.958535 313.039619 
L 411.139752 304.241977 
L 411.385938 296.352352 
L 412.018829 279.397118 
L 413.076385 242.460043 
L 412.966859 233.61979 
L 412.660432 225.848043 
L 412.039365 215.786782 
L 409.398275 181.528708 
L 405.836413 140.038614 
L 404.46322 125.982825 
L 403.785149 121.536715 
L 402.607736 115.559283 
L 401.596106 109.959861 
L 401.311337 106.271192 
L 401.314821 103.511768 
L 401.53736 100.942314 
L 402.032596 98.020929 
L 403.436033 90.969035 
L 403.357124 89.531378 
L 403.006638 88.235894 
L 402.432369 87.062896 
L 401.648007 86.031258 
L 400.771419 85.102824 
L 398.192187 82.944767 
L 396.583013 81.93657 
L 395.04914 81.214343 
L 393.220291 80.603133 
L 390.995402 80.050579 
L 385.225578 78.997325 
L 381.526185 78.577201 
L 373.884822 77.990347 
L 360.505248 77.134065 
L 347.322199 76.474653 
L 332.734843 75.986233 
L 317.023667 75.632172 
L 300.375725 75.298001 
L 260.105409 73.869985 
L 245.95555 73.431696 
L 226.110296 72.635997 
L 220.095742 72.767007 
L 215.347343 73.136899 
L 211.818351 73.630393 
L 208.317898 74.30594 
L 204.847069 75.185258 
L 201.407861 76.287931 
L 198.02742 77.602696 
L 194.720663 79.138686 
L 191.473353 80.865355 
L 187.184251 83.407613 
L 168.395367 94.832654 
L 163.820767 97.266431 
L 148.08557 105.195715 
L 139.175412 109.759845 
L 134.632986 112.368877 
L 131.070775 114.61167 
L 128.659193 116.388165 
L 127.121387 117.752351 
L 126.056823 118.999531 
L 125.064112 120.610209 
L 124.564035 121.965363 
L 124.259264 123.475882 
L 124.166577 124.906942 
L 124.238678 126.132811 
L 124.562168 128.05361 
L 125.169021 130.280775 
L 126.153107 132.828107 
L 127.208896 134.880322 
L 128.570626 137.014025 
L 130.244843 139.235101 
L 134.897493 144.812705 
L 142.208584 153.81158 
L 146.048744 158.83257 
L 149.784704 164.097719 
L 152.634207 168.422967 
L 156.625128 174.96432 
L 177.063072 209.423525 
L 179.236209 213.672969 
L 182.153745 220.08321 
L 185.839712 228.709321 
L 187.529385 233.03874 
L 189.409573 238.525378 
L 191.028295 244.077987 
L 193.284058 252.963399 
L 195.525776 262.829465 
L 197.712783 273.611391 
L 199.214645 282.033651 
L 200.584572 291.25508 
L 201.92198 301.53994 
L 203.485335 315.539114 
L 204.001012 319.84287 
L 204.377373 321.041591 
L 205.032417 322.559708 
L 205.661626 323.483414 
L 206.73811 324.593 
L 207.854388 325.468178 
L 209.273843 326.320116 
L 211.048651 327.114227 
L 213.181499 327.815532 
L 215.63968 328.412044 
L 218.404909 328.844695 
L 221.442349 329.084018 
L 225.893707 329.148973 
L 241.80803 328.934724 
L 260.2725 328.493558 
L 306.132692 327.28169 
L 321.446236 326.904603 
L 364.498372 326.316488 
L 401.973227 325.297364 
L 489.757118 323.452734 
L 497.424992 323.148304 
L 518.750613 322.431637 
L 570.888124 320.847603 
L 580.836024 320.905705 
L 590.096269 321.168774 
L 599.792878 321.684532 
L 626.279454 323.39702 
L 642.115416 324.173163 
L 654.488588 324.626275 
L 654.488588 324.626275 
" clip-path="url(#pea71758a77)" style="fill: none; stroke-dasharray: 10.175,4.4; stroke-dashoffset: 0; stroke: #808a87; stroke-width: 2.75"/>
   </g>
   <g id="line2d_23">
    <path d="M 193.658291 329.501887 
L 212.188351 329.199935 
L 234.527458 328.682876 
L 234.527458 328.682876 
L 251.853948 328.234499 
L 282.878857 327.445102 
L 294.933824 327.119485 
L 294.933824 327.119485 
L 310.536677 326.577872 
L 319.716851 326.020748 
L 322.641858 325.933711 
L 324.671015 326.043588 
L 326.531498 326.376248 
L 328.247377 326.933544 
L 329.323149 327.496293 
L 330.327381 328.188685 
L 331.171798 329.037474 
L 331.861777 329.996031 
L 332.390167 331.108495 
L 332.630526 331.901254 
L 332.853352 333.234334 
L 333.033418 335.76725 
L 332.939479 339.456427 
L 332.939479 339.456427 
L 332.632482 355.45393 
L 331.970883 374.15289 
L 331.243479 385.959413 
L 330.464039 392.415764 
L 329.343088 400.735127 
L 327.900274 410.209214 
L 326.642189 417.831407 
L 325.350295 426.559902 
L 323.23722 441.653362 
L 321.850305 449.418354 
L 321.850305 449.418354 
L 320.605214 455.397792 
L 319.680625 459.015305 
L 318.459398 462.545555 
L 313.810713 475.059804 
L 312.709312 478.652479 
L 311.923132 482.155636 
L 311.736425 483.863366 
L 311.70683 486.134247 
L 311.689379 488.38944 
L 311.303738 491.609874 
L 310.730136 494.155408 
L 308.329548 502.029128 
L 306.427834 507.013735 
L 303.613837 514.781022 
L 303.205217 516.444044 
L 303.205217 516.444044 
L 303.02727 518.042727 
L 303.126341 519.597685 
L 303.441132 521.103 
L 303.869649 522.208607 
L 304.792988 523.685796 
L 305.758696 524.806919 
L 307.535677 526.213834 
L 309.231563 527.261982 
L 312.726705 528.827688 
L 315.988068 530.027752 
L 319.663389 531.112009 
L 330.983186 534.265034 
L 330.983186 534.265034 
L 352.541046 540.264825 
L 364.242765 543.227935 
L 373.667693 545.283919 
L 373.667693 545.283919 
L 376.415228 545.703057 
L 378.517232 545.757339 
L 380.536509 545.483382 
L 381.9263 545.086577 
L 383.169676 544.53129 
L 384.586048 543.511848 
L 385.166299 542.93944 
L 385.853159 541.978345 
L 386.323285 540.973363 
L 386.75469 539.462342 
L 387.023969 537.82214 
L 387.266943 534.895739 
L 387.135734 530.581772 
L 387.135734 530.581772 
L 387.027091 526.169234 
L 387.20684 522.002951 
L 387.556715 518.462729 
L 388.185336 513.985118 
L 388.185336 513.985118 
L 392.091568 487.903774 
L 394.2218 475.235939 
L 395.424001 467.655784 
L 397.996152 445.925891 
L 400.862934 421.343048 
L 404.100932 398.488992 
L 405.44236 386.304467 
L 406.314933 377.265608 
L 407.12363 366.526449 
L 407.773088 355.713118 
L 408.102856 349.388532 
L 409.177582 337.421015 
L 409.652343 334.437453 
L 410.171597 332.324075 
L 410.67525 330.895116 
L 411.515679 329.299947 
L 411.515679 329.299947 
L 412.374237 328.176893 
L 413.429289 327.155089 
L 414.428325 326.456698 
L 415.639778 325.782625 
L 418.07859 324.873564 
L 419.880765 324.464011 
L 419.880765 324.464011 
L 421.916917 324.18713 
L 424.198557 324.074937 
L 431.987667 324.139749 
L 438.934449 324.144457 
L 438.934449 324.144457 
L 458.226342 323.826367 
L 475.776528 323.325842 
L 477.869857 323.523406 
L 479.826431 324.003026 
L 481.577177 324.699132 
L 482.750219 325.365816 
L 484.525131 326.757437 
L 485.346084 327.838736 
L 486.103847 329.101079 
L 486.609215 330.519979 
L 487.118032 333.227645 
L 487.118032 333.227645 
L 487.237392 335.705478 
L 487.137127 339.168624 
L 486.394032 351.972068 
L 486.117222 363.761825 
L 485.797967 371.981732 
L 485.797967 371.981732 
L 483.684094 411.958594 
L 482.891393 417.677199 
L 481.366758 426.001643 
L 480.529278 430.671406 
L 479.826493 435.61202 
L 477.683904 454.831671 
L 475.851133 476.033734 
L 475.110588 480.722672 
L 474.301643 484.465891 
L 474.301643 484.465891 
L 473.283777 488.204185 
L 473.283777 488.204185 
L 469.036745 502.182204 
L 467.235981 510.409897 
L 463.246851 529.666531 
L 461.614159 539.662763 
L 460.92403 543.710014 
L 459.881912 547.864398 
L 459.224126 549.66832 
L 458.419314 551.277858 
L 458.419314 551.277858 
L 457.523012 552.667961 
L 456.248595 554.09545 
L 455.042478 555.161531 
L 453.606316 556.200978 
L 451.351659 557.395675 
L 450.079742 557.92846 
L 450.079742 557.92846 
L 447.961942 558.648776 
L 444.908467 559.295815 
L 444.908467 559.295815 
L 442.460977 559.502752 
L 440.761846 559.547131 
L 438.131704 559.415734 
L 434.535941 559.005102 
L 430.808889 558.339822 
L 428.907885 557.911638 
L 428.907885 557.911638 
L 424.153131 556.629965 
L 411.384371 552.74388 
L 404.658823 551.030949 
L 392.623785 547.921764 
L 390.330426 546.994745 
L 388.826249 546.123412 
L 388.826249 546.123412 
L 387.551872 545.135186 
L 386.492465 543.999094 
L 385.449173 542.315199 
L 384.976488 540.894661 
L 384.699823 539.382205 
L 384.596658 537.196327 
L 384.667238 534.817198 
L 384.667238 534.817198 
L 385.037202 531.512752 
L 387.229392 516.868453 
L 388.987717 507.425729 
L 390.645602 496.949816 
L 395.753414 465.136979 
L 400.273903 426.332126 
L 401.661647 417.599676 
L 403.273198 407.583003 
L 404.472103 398.354649 
L 404.472103 398.354649 
L 405.479856 388.908499 
L 407.069525 369.258701 
L 407.902996 352.64573 
L 408.217515 348.583855 
L 408.826133 344.809013 
L 409.774557 340.670222 
L 409.774557 340.670222 
L 410.632581 336.512296 
L 411.124035 333.41853 
L 411.617811 329.265242 
L 411.767414 326.763686 
L 411.767414 326.763686 
L 412.091782 321.627656 
L 412.34514 317.806811 
L 412.632711 309.978748 
L 412.998365 299.645083 
L 414.172359 273.182499 
L 414.48789 265.633458 
L 415.005193 252.578937 
L 415.246037 241.591315 
L 415.176241 230.494149 
L 415.176241 230.494149 
L 414.849398 220.442172 
L 414.289608 210.284443 
L 412.787736 187.342933 
L 410.412472 152.223966 
L 408.143372 124.074869 
L 407.293129 118.81636 
L 405.757459 109.751347 
L 405.489025 106.037923 
L 405.507457 103.269894 
L 405.720948 100.691593 
L 405.720948 100.691593 
L 406.344872 97.208664 
L 407.633303 91.523122 
L 407.72407 89.995348 
L 407.72407 89.995348 
L 407.562308 88.660022 
L 407.562308 88.660022 
L 407.019425 87.140356 
L 406.338192 86.054425 
L 405.560911 85.06986 
L 403.463464 83.050546 
L 401.737758 81.728866 
L 399.944131 80.75176 
L 398.180296 80.079076 
L 395.417666 79.358413 
L 395.417666 79.358413 
L 391.111539 78.450729 
L 386.581473 77.836226 
L 377.701708 77.052992 
L 368.424259 76.344255 
L 368.424259 76.344255 
L 352.38407 75.305962 
L 337.846014 74.648721 
L 319.305934 74.009336 
L 304.061837 73.510308 
L 304.061837 73.510308 
L 286.389893 72.591346 
L 271.696077 71.873239 
L 248.496124 70.866672 
L 232.492622 69.946944 
L 226.477903 69.923004 
L 221.696319 70.130278 
L 218.158985 70.479924 
L 214.637021 71.017047 
L 214.637021 71.017047 
L 209.947384 72.057967 
L 209.947384 72.057967 
L 205.345277 73.458567 
L 201.954638 74.778219 
L 198.629765 76.302689 
L 194.248984 78.625222 
L 187.683549 82.47349 
L 187.683549 82.47349 
L 175.291425 89.808025 
L 170.694573 92.284269 
L 160.33976 97.389409 
L 148.235883 103.239054 
L 142.668885 106.052187 
L 137.614103 108.900935 
L 135.2899 110.332301 
L 135.2899 110.332301 
L 132.377759 112.404626 
L 130.884542 113.719641 
L 130.884542 113.719641 
L 129.527337 115.38181 
L 128.885638 116.445008 
L 128.363632 117.771295 
L 127.997307 119.315378 
L 127.877565 120.790804 
L 128.018421 122.528908 
L 128.36238 124.630328 
L 128.36238 124.630328 
L 129.045625 127.050256 
L 130.157792 129.738918 
L 131.323122 131.879032 
L 132.826306 134.10976 
L 135.196819 137.20987 
L 140.598317 144.02693 
L 140.598317 144.02693 
L 147.226723 152.693168 
L 150.879509 157.947641 
L 153.709986 162.2669 
L 153.709986 162.2669 
L 157.64807 168.880709 
L 165.097617 182.070136 
L 172.435948 195.271483 
L 172.435948 195.271483 
L 179.510762 208.049189 
L 181.456068 212.338364 
L 186.766224 225.347231 
L 187.977751 228.598313 
L 189.781806 234.121585 
L 191.307201 239.723396 
L 192.619463 245.328089 
L 194.499978 254.217481 
L 196.183534 262.996109 
L 198.489071 276.908127 
L 199.710594 286.232313 
L 200.890201 296.810924 
L 202.36006 313.101705 
L 202.796359 317.25035 
L 203.257454 318.846769 
L 203.628854 319.703236 
L 204.168996 320.651656 
L 205.166459 321.804708 
L 206.596264 322.989815 
L 208.086714 323.901299 
L 209.902546 324.712391 
L 209.902546 324.712391 
L 212.058525 325.460964 
L 214.544161 326.091031 
L 217.378299 326.540869 
L 220.476918 326.796617 
L 225.026363 326.915377 
L 225.026363 326.915377 
L 247.010499 326.991069 
L 325.78722 326.379197 
L 355.399613 326.559959 
L 379.266568 326.307389 
L 403.697368 326.159318 
L 420.747163 326.103706 
L 464.411744 325.956338 
L 475.930831 326.085171 
L 482.978723 326.099579 
L 518.33281 325.463329 
L 518.33281 325.463329 
L 570.281383 324.82612 
L 578.988309 325.021138 
L 586.884091 325.349354 
L 586.884091 325.349354 
L 597.895271 326.107155 
L 627.175285 328.528193 
L 627.175285 328.528193 
L 644.180808 329.671215 
L 652.346531 330.12732 
L 652.346531 330.12732 
" clip-path="url(#pea71758a77)" style="fill: none; stroke: #0000ff; stroke-width: 2; stroke-linecap: square"/>
   </g>
   <g id="line2d_24">
    <path d="M 193.658291 329.501887 
L 207.197116 329.191592 
L 210.088074 329.203616 
L 212.247153 329.094807 
L 236.232106 328.411304 
L 240.166074 328.395753 
L 246.898279 328.124021 
L 249.459555 328.07118 
L 250.804605 327.889854 
L 253.372348 327.778402 
L 254.710599 327.665039 
L 256.070358 327.872729 
L 260.206936 327.873782 
L 261.586261 327.681208 
L 275.205769 327.331848 
L 276.505259 327.338505 
L 279.164668 327.163206 
L 283.313121 327.054444 
L 293.912606 326.799088 
L 304.010897 326.38942 
L 318.371363 325.368385 
L 319.395667 325.267725 
L 319.894372 325.443185 
L 320.848796 325.479528 
L 321.842998 325.770759 
L 324.034628 326.410627 
L 324.477622 326.565753 
L 325.1062 326.916052 
L 325.809111 327.241188 
L 326.091779 327.493919 
L 326.310532 327.951206 
L 327.168022 328.752481 
L 327.168022 328.752481 
L 327.551781 329.513396 
L 328.289653 330.98865 
L 328.308112 331.331571 
L 328.64688 332.674668 
L 328.614916 333.125409 
L 328.940777 335.755593 
L 328.694057 336.9939 
L 328.682916 338.278736 
L 328.819426 338.893505 
L 328.746152 341.686687 
L 328.746218 348.089376 
L 328.833006 349.859265 
L 328.801194 350.715165 
L 328.659773 351.420327 
L 328.632681 357.617502 
L 328.531389 358.291128 
L 328.533324 359.975389 
L 328.426201 360.83405 
L 328.426201 360.83405 
L 328.513395 364.15926 
L 328.418148 367.361846 
L 328.352492 368.999336 
L 328.279553 370.485005 
L 328.474119 371.328364 
L 328.451801 372.858667 
L 328.402926 373.608109 
L 328.160071 374.400199 
L 328.076704 377.206437 
L 327.805874 384.714737 
L 327.630391 386.164024 
L 327.218688 389.774975 
L 326.896922 392.066879 
L 326.66305 393.574628 
L 326.718675 394.143777 
L 326.570984 396.37399 
L 326.300003 397.223191 
L 325.934139 399.60302 
L 325.910416 400.958641 
L 325.923205 402.429329 
L 325.598735 403.295477 
L 325.499948 404.822489 
L 325.363788 405.583165 
L 325.039612 406.583309 
L 322.06834 426.909001 
L 320.934954 436.295211 
L 320.619017 439.554552 
L 320.440269 440.195277 
L 320.063674 442.765302 
L 319.693206 444.161252 
L 319.649296 444.939968 
L 319.097352 447.950728 
L 317.517651 455.56225 
L 317.517651 455.56225 
L 316.590901 459.196826 
L 311.4242 473.266777 
L 311.258432 473.905125 
L 310.684347 475.137366 
L 310.36056 476.311524 
L 310.270967 476.963081 
L 309.904259 478.156363 
L 309.295361 481.099146 
L 309.049411 481.58971 
L 308.85281 482.837916 
L 308.8838 485.523146 
L 308.8838 485.523146 
L 309.136081 486.163647 
L 309.172372 487.21681 
L 308.722489 490.026845 
L 308.632382 490.985118 
L 308.339713 492.413982 
L 306.601796 498.37985 
L 306.493421 498.933343 
L 305.911511 500.400747 
L 305.274023 502.027811 
L 305.219953 502.612398 
L 303.522273 507.039075 
L 301.546176 512.53457 
L 301.391765 513.02453 
L 300.98982 513.69391 
L 300.591254 515.04072 
L 300.634934 515.218204 
L 300.437269 516.347581 
L 300.252641 518.004934 
L 300.312539 518.761708 
L 300.360026 519.560027 
L 300.61264 520.243576 
L 300.882858 521.001326 
L 301.626912 522.721206 
L 301.89884 522.946846 
L 302.36789 523.787702 
L 304.537213 525.483815 
L 306.796908 526.850278 
L 307.193686 527.160356 
L 309.199133 528.036192 
L 314.21591 529.791614 
L 317.110774 530.601008 
L 320.139481 531.395397 
L 323.850996 532.287835 
L 325.081232 532.806861 
L 329.515666 534.046215 
L 332.789818 534.959247 
L 334.758109 535.614538 
L 334.758109 535.614538 
L 336.937138 536.275852 
L 339.10936 536.772071 
L 347.773157 539.130417 
L 350.269363 539.689193 
L 351.951273 540.209134 
L 353.937824 540.752766 
L 356.062586 541.270508 
L 358.081566 541.785215 
L 359.00246 541.881762 
L 362.529607 542.785922 
L 373.777893 544.985693 
L 374.723325 545.034285 
L 374.723325 545.034285 
L 377.278206 544.914004 
L 378.715478 544.575808 
L 379.841197 544.33326 
L 380.354726 544.098237 
L 380.451924 543.802932 
L 382.434671 542.49389 
L 383.095916 541.876694 
L 382.959406 541.545883 
L 383.721135 540.557028 
L 383.675253 540.198112 
L 384.021012 539.29676 
L 383.945199 538.732969 
L 384.746833 535.799213 
L 384.523266 535.222586 
L 384.670604 534.232228 
L 384.509274 532.470927 
L 384.564844 531.910698 
L 384.343465 529.231182 
L 384.363768 528.557916 
L 384.1267 526.957127 
L 384.364957 521.263429 
L 384.67325 518.428557 
L 384.843226 516.810566 
L 385.13338 514.951265 
L 385.458404 512.151249 
L 385.744742 509.564439 
L 386.205307 506.943904 
L 386.474723 505.103586 
L 386.471857 504.197681 
L 386.816611 502.252069 
L 386.990405 500.428521 
L 387.375022 498.619281 
L 387.728837 495.90971 
L 388.418272 491.489318 
L 388.747738 489.689276 
L 389.141682 486.904512 
L 389.947895 482.30529 
L 390.064391 480.500726 
L 390.536561 477.705371 
L 391.019479 475.073316 
L 391.212265 472.841426 
L 391.368129 471.959057 
L 391.948302 469.594837 
L 392.215041 467.522748 
L 392.735945 462.81052 
L 394.183873 449.823389 
L 394.183873 449.823389 
L 394.322115 447.775385 
L 394.583059 446.846757 
L 395.070902 440.67355 
L 395.070902 440.67355 
L 395.556519 436.917459 
L 395.860254 434.087116 
L 396.049695 432.953519 
L 396.025142 431.093203 
L 396.176469 429.065035 
L 396.291046 428.14099 
L 396.61772 427.136898 
L 398.757985 411.526646 
L 399.086143 408.551299 
L 399.343118 407.575187 
L 399.745228 404.619746 
L 400.967587 396.583003 
L 401.133214 394.576111 
L 401.535934 390.533909 
L 401.723875 389.527602 
L 402.067152 385.515598 
L 402.241269 383.421459 
L 403.392152 370.436503 
L 403.498678 368.48083 
L 403.691177 367.584548 
L 404.173018 361.910202 
L 404.328654 360.999624 
L 404.251571 359.215262 
L 404.425991 357.38971 
L 404.425991 357.38971 
L 404.607275 350.560152 
L 404.824349 349.92773 
L 404.914467 347.579453 
L 405.067881 346.961273 
L 405.24249 345.474071 
L 405.56858 341.433983 
L 405.998438 337.715843 
L 406.563344 334.122469 
L 406.563344 334.122469 
L 406.873267 333.226515 
L 406.739853 332.693813 
L 406.981597 331.481996 
L 407.270894 331.09633 
L 407.621003 330.037353 
L 407.977815 329.387119 
L 408.404649 328.514082 
L 409.858637 326.600217 
L 409.858637 326.600217 
L 411.080928 325.854031 
L 411.902099 325.432894 
L 414.741892 324.280808 
L 416.345701 323.83932 
L 418.317412 323.572165 
L 421.159538 323.388554 
L 435.019891 323.570639 
L 440.135218 323.557751 
L 443.393959 323.620171 
L 444.187099 323.475594 
L 473.299728 322.909003 
L 474.881222 323.044615 
L 478.836415 324.508351 
L 479.949654 325.219774 
L 479.949654 325.219774 
L 481.932529 327.078379 
L 482.374174 327.785705 
L 483.293566 329.709575 
L 483.532705 330.553217 
L 483.82574 332.298395 
L 483.904628 333.521286 
L 483.862599 334.164475 
L 484.210729 335.370933 
L 484.166458 336.763403 
L 484.166458 336.763403 
L 483.845616 337.460531 
L 483.505719 341.827924 
L 483.425059 344.241632 
L 482.848371 352.465525 
L 482.818797 355.05449 
L 482.818797 355.05449 
L 482.68099 358.42336 
L 482.540695 361.860227 
L 482.558105 365.288723 
L 482.421384 366.078642 
L 482.439406 366.923259 
L 482.289543 367.7482 
L 482.034919 371.871092 
L 481.792695 375.998912 
L 481.821637 376.755539 
L 481.554975 379.223211 
L 481.604789 379.717477 
L 481.502878 381.398858 
L 480.750814 395.219679 
L 480.773279 396.616133 
L 480.532825 398.708337 
L 480.370686 404.637083 
L 480.240726 405.259505 
L 480.240726 405.259505 
L 480.144095 407.315375 
L 479.943771 408.633764 
L 479.816848 410.568925 
L 479.626837 411.922688 
L 479.339588 413.906338 
L 478.709789 417.334328 
L 477.876286 421.44561 
L 477.623298 423.183838 
L 476.526268 428.593875 
L 476.480725 429.541046 
L 476.480725 429.541046 
L 475.835333 433.415857 
L 475.762764 435.466276 
L 475.170454 438.388681 
L 475.130209 439.50801 
L 474.973206 440.558045 
L 474.707153 441.536642 
L 473.819843 448.421818 
L 473.388674 452.449739 
L 473.388674 452.449739 
L 472.892004 456.368487 
L 472.87413 458.422251 
L 472.350358 463.348677 
L 472.240186 465.174067 
L 472.134989 466.958192 
L 471.947257 467.876934 
L 471.611312 471.881691 
L 471.235069 473.912607 
L 470.597747 478.864938 
L 470.277454 480.283442 
L 470.100128 482.12811 
L 468.742954 486.754399 
L 468.299674 487.735342 
L 467.414668 490.570909 
L 466.306114 493.426359 
L 464.569224 499.114853 
L 462.658693 506.557757 
L 460.40878 516.574525 
L 459.78261 518.973662 
L 459.78261 518.973662 
L 457.095225 532.158761 
L 456.175444 536.774381 
L 456.228505 537.448205 
L 456.228505 537.448205 
L 455.901945 539.011102 
L 455.69074 539.476457 
L 455.577645 540.348188 
L 455.413786 540.780268 
L 455.470608 541.339475 
L 455.059555 542.710333 
L 454.93138 543.476104 
L 454.403928 545.299651 
L 454.367236 545.957882 
L 454.084281 546.931578 
L 453.536622 548.584316 
L 453.018913 549.851397 
L 452.818382 550.188882 
L 452.400798 550.602968 
L 451.919154 551.558005 
L 451.151804 552.346181 
L 450.874642 552.717159 
L 448.815473 554.456066 
L 448.815473 554.456066 
L 447.961731 555.090605 
L 445.837764 556.335076 
L 442.66245 557.664619 
L 439.459675 558.404078 
L 437.928641 558.578014 
L 435.470465 558.571167 
L 434.605025 558.746636 
L 431.059589 558.418361 
L 427.327771 557.926089 
L 424.529648 557.441359 
L 424.529648 557.441359 
L 419.074187 555.951744 
L 417.310434 555.474494 
L 416.248604 555.024343 
L 413.375371 554.266126 
L 413.375371 554.266126 
L 409.235561 552.830615 
L 409.235561 552.830615 
L 397.018124 549.406281 
L 395.303027 549.063808 
L 393.049731 548.511752 
L 390.164837 547.655952 
L 388.848408 547.24383 
L 388.848408 547.24383 
L 387.372431 546.867679 
L 386.060484 546.446917 
L 385.089642 545.920939 
L 383.422138 545.08084 
L 382.156113 544.062748 
L 381.704383 543.830186 
L 380.578306 542.663598 
L 380.110472 541.767246 
L 378.958816 538.999699 
L 379.014823 538.538726 
L 378.8876 537.945638 
L 378.92749 532.758252 
L 379.499481 528.62931 
L 379.86921 526.38799 
L 380.233053 523.167012 
L 380.233053 523.167012 
L 380.497948 521.696759 
L 381.215964 517.17945 
L 381.544937 515.409401 
L 382.015777 512.473261 
L 383.275263 505.039028 
L 383.756851 503.132669 
L 384.108082 501.172626 
L 384.108082 501.172626 
L 384.129145 500.184652 
L 384.83738 496.294636 
L 385.307879 493.403045 
L 386.112134 489.888683 
L 386.283876 487.980914 
L 386.927558 485.050132 
L 388.825275 474.826459 
L 389.414013 472.516807 
L 389.840565 469.811665 
L 390.109145 467.848989 
L 390.757785 463.747887 
L 391.025663 461.719139 
L 391.578508 458.723058 
L 391.578415 457.527368 
L 391.864317 454.365781 
L 392.181723 453.264438 
L 392.54 451.121995 
L 392.82651 447.605225 
L 393.373375 443.496273 
L 393.869456 440.035007 
L 394.172563 437.833095 
L 394.257095 436.845385 
L 394.459849 435.995448 
L 395.625824 427.127536 
L 396.406664 422.775006 
L 396.674218 420.630433 
L 397.379679 417.547608 
L 398.71663 410.958388 
L 399.003386 408.47575 
L 399.649043 405.225468 
L 399.985404 402.958259 
L 401.562719 391.276371 
L 403.684681 372.575874 
L 404.044505 364.627663 
L 404.452272 363.691938 
L 405.159812 354.923695 
L 405.059446 353.010358 
L 405.20663 352.316237 
L 405.27884 349.743134 
L 405.583312 348.920768 
L 405.629197 348.016837 
L 406.691434 342.990065 
L 407.229446 341.065233 
L 407.518422 339.624218 
L 407.856224 338.41986 
L 408.325279 336.171623 
L 408.642457 334.656827 
L 408.642457 334.656827 
L 408.894192 332.813513 
L 408.914095 332.476899 
L 409.112879 331.820517 
L 410.071731 324.345301 
L 410.013105 323.863457 
L 410.458896 320.685714 
L 410.885206 315.399129 
L 410.983962 314.6492 
L 411.00611 312.31709 
L 411.334117 308.239326 
L 411.318414 306.309723 
L 411.800831 296.869278 
L 412.1668 294.629704 
L 412.331174 292.494507 
L 412.265028 291.42802 
L 412.742046 285.307886 
L 413.766069 270.533429 
L 414.091569 267.162693 
L 413.982921 265.89939 
L 414.349613 262.35232 
L 414.284682 261.642316 
L 414.991865 250.788539 
L 414.989151 249.730677 
L 415.154112 248.61323 
L 415.154112 248.61323 
L 415.119534 245.259929 
L 415.375009 244.033758 
L 415.505921 241.774081 
L 415.523717 240.69207 
L 415.740565 238.735185 
L 415.830073 237.572601 
L 415.755235 233.057134 
L 415.871662 227.640678 
L 415.893868 224.375917 
L 415.831676 221.020147 
L 415.780137 218.835035 
L 415.780137 218.835035 
L 415.835824 216.518275 
L 415.690964 212.13304 
L 415.642369 209.950569 
L 415.735321 205.092375 
L 415.566583 204.050748 
L 415.660424 201.763826 
L 415.750521 200.645853 
L 415.368928 199.585807 
L 415.147079 193.724147 
L 414.182136 162.770251 
L 414.175039 159.447184 
L 413.988108 158.277469 
L 414.002944 156.048242 
L 413.121466 138.603817 
L 413.312864 137.626575 
L 413.302724 136.770994 
L 413.13391 135.827569 
L 412.793595 128.925723 
L 412.57717 127.697693 
L 412.492527 126.549656 
L 412.798765 126.345602 
L 412.665886 123.781476 
L 411.042138 111.687458 
L 410.604279 106.910441 
L 410.677322 105.579703 
L 410.946969 101.438512 
L 411.818988 96.794772 
L 412.464035 94.893013 
L 413.09634 92.48347 
L 413.422901 91.119146 
L 413.427611 90.490568 
L 413.567409 89.723992 
L 413.52977 88.177849 
L 413.246228 88.001527 
L 413.083074 87.357154 
L 412.871567 86.715306 
L 412.515763 86.216178 
L 412.315689 85.982207 
L 412.098693 85.41936 
L 411.77225 84.967801 
L 411.149427 84.39811 
L 409.508835 82.641236 
L 408.974056 82.202947 
L 408.772766 81.858277 
L 405.641916 80.039665 
L 404.77452 79.687887 
L 403.89009 79.238046 
L 402.733758 78.936561 
L 400.707619 78.555083 
L 399.407693 78.247528 
L 397.853567 78.018929 
L 397.853567 78.018929 
L 396.899551 77.974843 
L 396.278645 77.598151 
L 392.729184 76.971598 
L 375.930441 75.073675 
L 371.770233 74.740707 
L 371.770233 74.740707 
L 367.367733 74.272792 
L 364.540838 73.963083 
L 363.039831 73.799317 
L 361.660558 73.801995 
L 354.464835 73.176537 
L 351.568641 72.826398 
L 350.05941 72.856344 
L 341.38075 72.213077 
L 337.123353 72.020693 
L 329.987453 71.631343 
L 323.105193 71.30997 
L 321.676533 71.093418 
L 312.201438 70.483473 
L 298.318545 69.352206 
L 295.289173 68.980234 
L 294.378267 69.035451 
L 284.979632 68.295622 
L 273.75008 67.563193 
L 269.870091 67.348697 
L 267.136459 67.075238 
L 264.775129 66.998928 
L 262.315591 66.754797 
L 257.374621 66.473066 
L 250.055716 65.618871 
L 247.496686 65.479353 
L 244.722379 65.124352 
L 235.34066 64.664638 
L 228.162039 64.885935 
L 225.84175 65.140033 
L 224.598414 65.149291 
L 221.004679 65.557026 
L 220.093242 65.84866 
L 217.828125 66.267854 
L 210.844773 68.421586 
L 209.65137 68.805724 
L 201.792723 72.493552 
L 198.589159 74.373305 
L 197.248269 74.88694 
L 192.692554 77.483841 
L 187.875599 80.114018 
L 178.756865 84.905348 
L 174.025117 87.067599 
L 171.776377 88.028766 
L 168.049655 89.760812 
L 165.863305 90.659639 
L 163.778444 91.65961 
L 161.685811 92.531308 
L 159.015852 93.780347 
L 148.07271 98.838333 
L 144.451172 100.745014 
L 143.198737 101.521994 
L 142.528984 101.767252 
L 139.733607 103.490473 
L 138.493256 104.464075 
L 138.493256 104.464075 
L 136.232421 106.701831 
L 135.847849 106.756569 
L 135.188464 107.821298 
L 134.763406 108.623085 
L 134.534829 108.836616 
L 133.829341 110.924422 
L 133.757875 111.887434 
L 133.568794 113.092392 
L 133.828579 115.272347 
L 133.936506 115.786309 
L 134.093948 117.164337 
L 134.530724 119.001512 
L 134.734985 119.724685 
L 134.734985 119.724685 
L 135.566214 121.789002 
L 137.097356 124.559476 
L 137.097356 124.559476 
L 139.146195 127.706069 
L 140.921031 130.160333 
L 142.861796 132.695675 
L 148.997156 141.173107 
L 149.503818 142.070218 
L 151.59139 145.119909 
L 153.047883 147.247621 
L 155.034971 150.485262 
L 156.3786 152.655665 
L 156.895811 153.75138 
L 157.676175 154.886673 
L 159.551868 158.349769 
L 160.742241 160.508078 
L 164.081438 167.233761 
L 164.783322 168.286909 
L 165.23794 169.39625 
L 173.984099 186.596137 
L 175.564858 189.998967 
L 176.24029 190.494425 
L 178.002925 193.682996 
L 178.368523 194.963937 
L 180.232712 198.22784 
L 180.538726 199.226591 
L 180.538726 199.226591 
L 182.467126 203.724849 
L 185.312767 211.213623 
L 186.084934 213.36933 
L 187.139888 215.891308 
L 187.38903 217.159589 
L 189.545715 223.620849 
L 189.893777 224.793073 
L 189.963706 225.68862 
L 189.963706 225.68862 
L 191.056027 230.123499 
L 192.091579 234.587388 
L 192.460527 236.763666 
L 193.442538 242.559238 
L 193.911827 244.812536 
L 194.175868 247.078515 
L 194.396722 248.048403 
L 195.009539 252.670567 
L 195.009539 252.670567 
L 195.312959 255.096757 
L 196.103692 260.413811 
L 196.674863 265.415771 
L 197.062151 269.835366 
L 197.774306 277.123284 
L 197.957658 280.232488 
L 197.957658 280.232488 
L 198.46291 288.002322 
L 198.589354 292.712855 
L 198.754231 294.333185 
L 198.79199 295.187264 
L 198.784308 299.152474 
L 198.92721 299.62976 
L 199.058009 302.766364 
L 199.158167 303.830966 
L 199.015591 306.047201 
L 199.141367 307.078775 
L 199.105474 309.170439 
L 199.04606 309.486478 
L 199.13874 309.679165 
L 199.089054 310.544693 
L 199.306587 310.775816 
L 199.669474 312.808853 
L 199.474682 312.690187 
L 199.672048 312.750952 
L 199.650739 312.627717 
L 199.778737 312.737777 
L 199.797575 312.655551 
L 199.671368 312.735963 
L 199.69067 312.676607 
L 199.628602 312.624279 
L 199.689942 312.800722 
L 199.637126 312.775774 
L 199.577185 312.786541 
L 199.681854 312.758162 
L 199.712088 312.851408 
L 199.980787 313.424049 
L 199.980787 313.424049 
L 200.459867 314.737642 
L 200.459867 314.737642 
L 201.351978 315.882624 
L 201.351978 315.882624 
L 204.301075 318.132146 
L 205.388919 318.687628 
L 208.251221 319.684328 
L 208.969951 320.042672 
L 214.587171 321.252872 
L 216.523738 321.427166 
L 218.723576 321.595563 
L 218.723576 321.595563 
L 230.416274 321.967983 
L 231.791307 322.180556 
L 298.910583 323.973891 
L 301.199983 323.95469 
L 305.441427 324.108498 
L 311.741601 324.190329 
L 316.773297 324.563438 
L 318.192699 324.500006 
L 318.192699 324.500006 
L 345.550479 325.723836 
L 346.957279 325.654791 
L 353.361298 325.943272 
L 359.799112 326.00398 
L 366.894752 326.23563 
L 371.057525 326.18302 
L 372.319525 326.293401 
L 376.44477 326.294427 
L 379.151298 326.47072 
L 401.839938 327.192875 
L 403.243386 327.116281 
L 407.509814 327.437039 
L 409.787705 327.400852 
L 416.266958 327.560523 
L 429.039008 327.828185 
L 443.930958 328.184214 
L 443.930958 328.184214 
L 447.820368 328.347009 
L 454.986846 328.561712 
L 456.096782 328.694506 
L 462.923674 328.86613 
L 469.971418 329.17428 
L 472.458309 329.272742 
L 478.260062 329.500691 
L 479.312986 329.431205 
L 483.008987 329.460609 
L 487.094275 329.440011 
L 489.546488 329.506812 
L 490.956963 329.631481 
L 493.796108 329.643082 
L 494.650287 329.503914 
L 497.378028 329.464285 
L 498.741177 329.442388 
L 500.345688 329.662986 
L 515.910012 329.8204 
L 518.742168 329.957308 
L 530.133427 330.073617 
L 533.007364 330.251443 
L 534.014518 330.15546 
L 547.024532 330.270153 
L 549.642275 330.104769 
L 551.990909 330.032962 
L 552.944507 330.316439 
L 556.211187 330.438375 
L 558.517926 330.362847 
L 560.884526 330.532689 
L 564.446181 330.537543 
L 564.446181 330.537543 
L 566.837888 330.662918 
L 583.636199 331.91615 
L 583.636199 331.91615 
L 591.796328 332.664964 
L 594.559887 333.108592 
L 597.25538 333.421754 
L 597.25538 333.421754 
L 598.83543 333.526973 
L 603.086627 334.083319 
L 607.318983 334.589246 
L 608.784667 334.822625 
L 611.832186 335.007638 
L 626.001359 336.390872 
L 628.374947 336.809038 
L 631.003971 337.11439 
L 631.003971 337.11439 
L 636.081638 337.176227 
L 637.47428 337.311992 
L 638.718561 337.624711 
L 644.033013 338.073924 
L 644.033013 338.073924 
" clip-path="url(#pea71758a77)" style="fill: none; stroke: #aa00ff; stroke-width: 2; stroke-linecap: square"/>
   </g>
   <g id="line2d_25">
    <path d="M 193.658291 329.501887 
L 205.755148 329.320411 
L 256.40694 328.158255 
L 275.224397 327.729902 
L 311.701135 326.696923 
L 321.776256 326.186425 
L 324.290039 326.367204 
L 326.116228 326.764961 
L 327.716694 327.385603 
L 329.091683 328.213969 
L 330.004669 328.994766 
L 330.957583 330.273341 
L 331.4911 331.387892 
L 331.838938 332.645331 
L 332.117039 336.623975 
L 331.871166 348.000722 
L 331.094882 372.00841 
L 330.329925 384.683928 
L 329.287969 393.273376 
L 327.279359 407.00944 
L 326.152036 413.600388 
L 325.174404 419.589159 
L 323.844006 428.316357 
L 322.147577 440.043446 
L 320.90641 447.085845 
L 319.511945 453.878091 
L 318.202741 458.974452 
L 316.949638 462.504981 
L 311.803043 476.181932 
L 310.369522 481.463727 
L 310.067083 483.767976 
L 310.019965 486.031037 
L 309.964994 488.300724 
L 309.548711 491.453818 
L 308.789785 494.481457 
L 306.985123 500.281612 
L 305.614492 504.014523 
L 301.484195 514.902576 
L 301.110966 516.521821 
L 300.984198 517.720647 
L 301.062167 519.272194 
L 301.356563 520.768121 
L 301.955382 522.234287 
L 302.981271 523.745776 
L 304.029628 524.834553 
L 305.396537 525.917725 
L 307.095027 526.954274 
L 309.06895 527.912532 
L 312.115519 529.150348 
L 315.565494 530.313002 
L 344.864949 538.698434 
L 360.083959 542.740152 
L 365.724342 544.062622 
L 372.851241 545.579515 
L 374.984341 545.776819 
L 376.551685 545.745555 
L 378.045666 545.519048 
L 379.877884 544.958927 
L 381.09214 544.319727 
L 382.422377 543.294405 
L 383.198728 542.381113 
L 383.883388 541.028542 
L 384.304296 539.521528 
L 384.643084 537.450197 
L 384.875558 534.980093 
L 384.786811 530.678777 
L 384.700514 526.258539 
L 384.918764 522.090111 
L 385.428456 517.67568 
L 387.689577 503.291071 
L 391.10082 482.775466 
L 393.854123 466.948135 
L 395.551331 454.168464 
L 399.003766 426.645161 
L 400.480484 416.843455 
L 402.924644 400.979023 
L 403.839386 393.937162 
L 405.541038 378.805225 
L 406.73824 365.23869 
L 407.392324 355.496184 
L 408.091931 346.369132 
L 409.017004 338.098203 
L 409.498437 335.141255 
L 410.042181 333.043622 
L 410.586001 331.609878 
L 411.442154 330.032795 
L 412.317014 328.907516 
L 413.696913 327.660604 
L 415.154107 326.783701 
L 416.964011 326.021133 
L 418.600256 325.527658 
L 420.51674 325.159756 
L 423.360347 324.948683 
L 427.398175 324.950094 
L 436.851791 325.073761 
L 448.057558 325.030244 
L 460.038898 324.831789 
L 476.63324 324.585306 
L 478.162754 324.81425 
L 479.58827 325.205814 
L 481.317593 325.94197 
L 482.086955 326.351882 
L 483.912868 327.747974 
L 484.515163 328.343563 
L 485.764629 330.350552 
L 486.256906 331.781392 
L 486.744967 334.469351 
L 486.837721 337.599679 
L 486.462659 343.414576 
L 485.805802 353.97712 
L 485.174014 370.655552 
L 483.755087 395.123813 
L 483.413963 401.334377 
L 482.793969 410.997187 
L 482.322905 415.053438 
L 481.604231 419.471849 
L 478.665324 435.581524 
L 476.98876 448.732738 
L 476.051247 457.752152 
L 474.439595 474.997058 
L 473.564375 480.621061 
L 472.788252 484.357595 
L 471.794278 488.072963 
L 470.591436 491.796692 
L 468.74467 497.362303 
L 467.400076 502.004015 
L 465.876335 508.457135 
L 461.075375 531.126759 
L 458.746037 544.337998 
L 457.935102 547.588831 
L 457.260906 549.640465 
L 456.413489 551.510978 
L 455.310447 553.226429 
L 454.369858 554.31454 
L 452.815199 555.706644 
L 451.362791 556.735419 
L 449.713327 557.643368 
L 447.840296 558.457946 
L 445.724992 559.159998 
L 443.435535 559.673387 
L 441.048748 559.956614 
L 438.534604 560.039982 
L 435.899143 559.907001 
L 432.33933 559.488409 
L 429.572315 559.011068 
L 425.825113 558.151384 
L 421.043562 556.782414 
L 406.34299 552.355426 
L 397.515217 550.148682 
L 392.527324 548.829604 
L 389.984408 547.98014 
L 387.725091 546.97086 
L 385.850788 545.706798 
L 384.716961 544.609829 
L 383.793217 543.394295 
L 383.352881 542.533016 
L 382.599643 539.587105 
L 382.473881 537.981625 
L 382.544587 535.029721 
L 382.923295 531.714334 
L 385.335797 515.273213 
L 391.22867 481.261763 
L 393.232856 470.579933 
L 394.103898 464.448565 
L 397.229909 440.807335 
L 399.145291 426.808136 
L 400.880121 417.008705 
L 402.453353 408.114584 
L 403.794054 398.939094 
L 404.812565 390.706382 
L 405.691223 382.497129 
L 406.956148 368.848306 
L 407.789492 356.864772 
L 408.20079 350.92795 
L 408.786467 347.057445 
L 409.557253 343.481764 
L 411.368752 335.430474 
L 412.018829 330.904289 
L 412.284994 327.940465 
L 413.137938 316.551452 
L 415.789618 268.77095 
L 416.541204 254.693438 
L 416.95668 243.759837 
L 417.035779 229.366859 
L 416.872852 221.544444 
L 416.458933 211.382784 
L 414.584288 175.788811 
L 411.673869 128.012179 
L 411.027438 122.654432 
L 409.904987 115.813223 
L 409.21009 111.023866 
L 409.00785 107.327886 
L 409.078802 104.565373 
L 409.340466 102.000457 
L 409.75748 99.65169 
L 410.564787 96.496537 
L 411.328471 93.312056 
L 411.515309 91.393603 
L 411.418946 90.36729 
L 411.269085 89.729607 
L 410.677426 88.233324 
L 409.8411 86.920796 
L 408.550574 85.554025 
L 406.878549 83.996578 
L 405.362614 82.923703 
L 403.905913 82.144972 
L 402.639412 81.62237 
L 400.013048 80.841069 
L 395.120738 79.767187 
L 391.594312 79.239104 
L 385.344552 78.575237 
L 360.998872 76.596627 
L 343.542281 75.608607 
L 325.002912 74.814283 
L 309.774254 74.174045 
L 265.868581 71.719705 
L 254.410864 71.072824 
L 234.815471 69.916782 
L 230.054717 69.926336 
L 225.282956 70.167693 
L 220.574619 70.738034 
L 217.115696 71.367649 
L 213.637307 72.212189 
L 210.154089 73.271314 
L 206.769726 74.550582 
L 202.310214 76.593406 
L 197.959843 78.937342 
L 191.282239 82.784451 
L 181.099265 88.694437 
L 176.470624 91.14949 
L 170.606914 94.003501 
L 163.720971 97.2779 
L 151.660902 102.93984 
L 146.280523 105.633339 
L 141.383228 108.351287 
L 138.626478 110.082377 
L 136.323989 111.754146 
L 134.643246 113.331104 
L 133.646794 114.625314 
L 132.937501 115.923798 
L 132.537988 116.993003 
L 132.186143 118.580273 
L 132.100867 120.140244 
L 132.405641 122.998327 
L 132.978228 125.328157 
L 133.634269 127.287117 
L 134.572897 129.38265 
L 136.300895 132.296633 
L 137.934653 134.59091 
L 150.131085 150.698804 
L 153.706784 155.914032 
L 157.152748 161.304962 
L 159.74257 165.739894 
L 163.975905 173.46725 
L 169.937005 184.547171 
L 181.523829 206.201809 
L 183.457753 210.503613 
L 186.082816 216.996962 
L 189.771021 226.763031 
L 190.854981 230.054712 
L 192.171775 234.485362 
L 193.797672 241.218474 
L 196.266519 253.143934 
L 198.218623 264.071434 
L 200.022005 275.820568 
L 201.031268 284.114487 
L 202.09408 294.756739 
L 203.993528 316.761423 
L 204.528411 318.317363 
L 205.142331 319.443873 
L 206.113413 320.610965 
L 207.525182 321.803645 
L 208.994799 322.720438 
L 210.811687 323.546292 
L 212.956991 324.299554 
L 215.428601 324.950615 
L 218.249678 325.415718 
L 221.345074 325.690765 
L 224.728957 325.826818 
L 250.650924 326.058051 
L 321.674082 325.847398 
L 354.68908 326.270487 
L 374.656017 326.203412 
L 395.727401 326.082069 
L 417.450192 326.155653 
L 431.191107 326.096257 
L 468.506289 326.258761 
L 483.53304 326.398214 
L 501.563742 326.084677 
L 531.757646 325.892948 
L 554.581257 325.658473 
L 566.119811 325.563977 
L 575.753866 325.719163 
L 590.109914 326.416861 
L 597.037726 326.957544 
L 615.926652 328.654519 
L 627.664996 329.6483 
L 643.256704 330.781152 
L 652.790787 331.366581 
L 652.790787 331.366581 
" clip-path="url(#pea71758a77)" style="fill: none; stroke: #ff9c00; stroke-width: 2; stroke-linecap: square"/>
   </g>
   <g id="line2d_26">
    <path d="M 193.658291 329.501887 
L 204.91638 329.349875 
L 210.462396 329.226393 
L 229.986021 328.803456 
L 298.126455 327.086852 
L 312.760968 326.519114 
L 320.830572 326.061476 
L 323.461599 326.103733 
L 325.363458 326.373274 
L 327.061032 326.869113 
L 328.260022 327.415634 
L 329.605163 328.297801 
L 330.469307 329.137992 
L 331.363299 330.491801 
L 332.05496 332.46909 
L 332.261571 334.287573 
L 332.330787 335.327044 
L 332.197319 342.397179 
L 331.979631 353.785907 
L 331.757844 360.575233 
L 331.371491 371.923787 
L 330.53206 386.036379 
L 329.337059 395.529782 
L 326.024516 417.027763 
L 324.34306 428.349069 
L 322.932571 438.483341 
L 322.179011 443.265889 
L 319.762469 455.441749 
L 319.024183 458.342927 
L 317.844476 461.905154 
L 312.522672 476.308463 
L 311.644908 479.27776 
L 311.103346 481.604372 
L 310.817046 483.905186 
L 310.78861 486.16792 
L 310.638795 489.5092 
L 310.333466 491.633688 
L 308.884967 497.093501 
L 307.102284 502.598929 
L 304.081469 510.344213 
L 302.791123 513.889051 
L 302.098635 516.408034 
L 301.919194 517.997264 
L 301.996842 519.546428 
L 302.309485 521.044807 
L 302.733665 522.163612 
L 303.657289 523.644683 
L 304.61575 524.762585 
L 306.391417 526.161396 
L 307.485796 526.842723 
L 308.701868 527.507191 
L 310.799493 528.462529 
L 313.1471 529.406618 
L 316.620281 530.572804 
L 358.481425 542.178846 
L 369.574954 544.758467 
L 374.642481 545.737515 
L 376.761622 545.862418 
L 378.296753 545.754116 
L 379.746631 545.486648 
L 381.088944 545.030488 
L 382.309369 544.399705 
L 383.638505 543.382227 
L 384.643965 542.109457 
L 385.223603 540.72264 
L 385.754086 538.399594 
L 386.054288 534.466556 
L 385.908232 523.857891 
L 386.400667 518.585305 
L 387.569587 510.499601 
L 392.223446 480.891209 
L 393.868828 471.632274 
L 395.057855 462.919015 
L 396.38885 452.022739 
L 397.429348 443.159345 
L 399.256084 427.42465 
L 400.630476 417.607612 
L 401.383498 412.6731 
L 402.554103 404.716256 
L 403.629612 396.68468 
L 405.590424 378.488572 
L 406.857587 362.11787 
L 407.245224 355.122245 
L 407.674668 348.156536 
L 408.440806 339.985253 
L 408.855697 336.660467 
L 409.374668 333.838723 
L 410.086706 331.523868 
L 410.725156 330.225561 
L 411.502382 329.020852 
L 412.207762 328.207472 
L 412.987438 327.466945 
L 413.98154 326.779835 
L 415.640068 325.931522 
L 417.636725 325.220094 
L 419.448817 324.806377 
L 421.485715 324.54548 
L 424.549819 324.438646 
L 431.557814 324.509279 
L 439.484089 324.50864 
L 458.742207 324.204988 
L 474.753101 323.768018 
L 476.860705 323.914435 
L 478.852774 324.327921 
L 480.617899 324.971276 
L 482.238036 325.834133 
L 483.997957 327.246985 
L 484.800953 328.3089 
L 485.568785 329.58122 
L 486.073428 330.991776 
L 486.580148 333.69429 
L 486.673863 336.838023 
L 486.536622 340.36008 
L 486.316302 343.463207 
L 485.815761 351.596361 
L 485.531769 361.661443 
L 484.824552 377.960938 
L 482.89844 412.34264 
L 481.959536 418.844744 
L 480.686934 425.485228 
L 479.068169 434.976175 
L 477.928047 444.093336 
L 476.733014 455.191153 
L 475.157946 473.517943 
L 474.519561 478.214606 
L 473.83698 481.970623 
L 472.978973 485.69925 
L 471.8749 489.434315 
L 467.885125 502.454451 
L 466.425634 508.906898 
L 464.823509 516.445485 
L 463.388157 522.876038 
L 462.295106 528.383461 
L 460.37773 539.878158 
L 459.81215 543.091074 
L 458.904909 546.857053 
L 458.163828 549.237366 
L 456.699226 552.119913 
L 455.910799 553.18498 
L 454.536155 554.627279 
L 453.235868 555.670678 
L 451.758934 556.640659 
L 450.015863 557.535934 
L 448.038024 558.323865 
L 445.910498 558.95432 
L 443.582655 559.423006 
L 441.152315 559.6195 
L 438.558673 559.649345 
L 435.030513 559.369662 
L 431.378609 558.835121 
L 429.499285 558.449241 
L 423.796143 557.058982 
L 412.025119 553.482576 
L 406.115237 551.881495 
L 394.550481 549.067234 
L 391.238718 548.07643 
L 388.945378 547.123675 
L 386.968762 545.918562 
L 385.38798 544.474873 
L 384.733766 543.675376 
L 383.759252 541.947653 
L 383.391395 540.512952 
L 383.178327 539.469628 
L 383.169277 534.272771 
L 383.347613 532.246929 
L 385.985992 513.159417 
L 387.354339 504.599206 
L 387.955292 500.763351 
L 391.207321 480.995542 
L 392.089284 476.220691 
L 393.089907 470.319983 
L 393.920156 464.170046 
L 394.850291 456.703773 
L 395.800823 449.128122 
L 396.937495 447.059811 
L 400.132343 422.164666 
L 401.062583 416.695002 
L 402.516803 407.7856 
L 403.739481 398.573695 
L 404.771596 389.136944 
L 405.83848 377.459394 
L 406.798127 364.1484 
L 407.497366 350.410138 
L 407.873386 347.298863 
L 408.605799 343.687384 
L 409.441885 340.317534 
L 409.919511 337.915732 
L 410.399834 335.335567 
L 411.176128 329.179228 
L 411.40547 324.630778 
L 412.143964 312.829738 
L 412.929692 293.879687 
L 413.463029 282.150754 
L 413.98282 269.218298 
L 414.751838 250.728402 
L 414.936997 236.388524 
L 414.551955 220.799591 
L 413.425951 201.573138 
L 412.274295 184.279697 
L 411.667874 175.04318 
L 411.004668 165.891721 
L 409.408372 143.383893 
L 408.013103 126.32642 
L 407.400688 121.87216 
L 405.257711 108.701841 
L 405.122903 105.805351 
L 405.316975 101.779657 
L 405.779715 98.818169 
L 407.366282 91.249358 
L 407.327164 89.850409 
L 407.028994 88.561891 
L 406.699349 87.676445 
L 405.473199 85.856749 
L 403.367472 83.802076 
L 402.313927 82.947393 
L 400.746565 81.907318 
L 398.775703 80.976525 
L 395.682151 80.081736 
L 391.544486 79.158269 
L 386.250961 78.41905 
L 376.14149 77.528632 
L 359.359066 76.333086 
L 349.135285 75.767556 
L 323.20393 74.785697 
L 303.772622 74.168844 
L 267.493182 72.447866 
L 244.483857 71.414756 
L 234.657456 70.847851 
L 228.615637 70.729258 
L 222.628349 70.893528 
L 219.1069 71.208946 
L 215.572338 71.70447 
L 212.063592 72.366604 
L 208.586977 73.261737 
L 205.129372 74.353218 
L 201.753656 75.68522 
L 198.448726 77.205227 
L 194.054836 79.542081 
L 186.368526 84.091071 
L 178.539499 88.819067 
L 174.000405 91.397588 
L 169.387129 93.837364 
L 157.932927 99.488301 
L 146.107908 105.220095 
L 140.197723 108.362879 
L 134.657847 111.698348 
L 132.286788 113.417422 
L 130.795023 114.728258 
L 129.611309 116.142366 
L 128.932445 117.157943 
L 128.169282 119.048481 
L 127.833219 121.026266 
L 127.841361 122.599024 
L 128.081918 124.515461 
L 128.583835 126.782361 
L 129.755826 130.058734 
L 131.277065 132.876043 
L 132.763856 135.083218 
L 135.136027 138.186785 
L 139.852484 144.072815 
L 147.215115 153.629038 
L 150.144333 157.817854 
L 153.702638 163.188697 
L 156.387937 167.589034 
L 159.544091 173.078098 
L 170.705968 192.888971 
L 179.620516 208.921511 
L 181.604309 213.208352 
L 188.139384 229.428903 
L 189.610021 233.835696 
L 190.910793 238.274186 
L 192.310941 243.880354 
L 195.17106 257.192089 
L 196.01592 261.575686 
L 198.444021 275.550429 
L 199.991953 287.004384 
L 201.253229 298.462291 
L 202.786432 315.748034 
L 203.021935 317.728053 
L 203.646445 319.83474 
L 204.012588 320.631606 
L 204.884575 321.917792 
L 205.742508 322.816881 
L 206.869794 323.713617 
L 208.344959 324.628475 
L 210.175006 325.418849 
L 212.340066 326.173083 
L 214.824372 326.797295 
L 217.652647 327.236802 
L 220.773118 327.490041 
L 225.346252 327.604767 
L 237.249171 327.681178 
L 264.275985 327.527634 
L 295.952798 327.224789 
L 297.84728 327.412952 
L 330.892011 326.706377 
L 358.166366 326.360195 
L 388.54776 325.575983 
L 389.814437 325.615792 
L 393.644156 325.48042 
L 408.79916 325.381288 
L 420.650817 325.187491 
L 424.709168 325.069366 
L 466.810036 324.508704 
L 480.672718 324.553107 
L 512.276154 323.602581 
L 572.765935 322.21742 
L 582.849581 322.387163 
L 593.586945 322.848229 
L 604.888554 323.637137 
L 624.089787 325.025105 
L 635.651444 325.750644 
L 650.972909 326.506501 
L 653.655919 326.619194 
L 653.655919 326.619194 
" clip-path="url(#pea71758a77)" style="fill: none; stroke: #ff0000; stroke-width: 2; stroke-linecap: square"/>
   </g>
   <g id="line2d_27">
    <path d="M 193.658512 329.501913 
L 204.209888 329.363519 
L 218.310317 329.066792 
L 259.757733 328.067939 
L 308.97968 326.755249 
L 322.135327 326.161485 
L 324.059094 326.381948 
L 325.834974 326.830018 
L 327.404493 327.514842 
L 328.746191 328.400188 
L 329.324727 328.921485 
L 330.281744 330.210561 
L 330.93524 331.72281 
L 331.24744 333.439654 
L 331.445312 335.42459 
L 331.070259 353.003413 
L 330.566359 369.650821 
L 329.648731 385.378281 
L 328.799035 392.525874 
L 326.594176 407.852192 
L 323.622158 426.610886 
L 320.645525 446.3325 
L 319.130055 453.911561 
L 318.04948 458.299382 
L 317.126477 461.134385 
L 311.382553 476.844328 
L 310.688065 479.198886 
L 310.146685 481.524071 
L 309.855822 483.798404 
L 309.551532 490.464405 
L 309.155209 492.54272 
L 308.361423 495.510046 
L 306.89386 500.354373 
L 305.318168 504.646817 
L 302.392299 512.280213 
L 301.477871 515.041936 
L 301.11937 516.64339 
L 301.015164 518.23577 
L 301.150373 519.757293 
L 301.52138 521.258485 
L 301.817476 522.006154 
L 302.746081 523.490638 
L 303.332024 524.224309 
L 304.99501 525.700617 
L 307.169663 527.072482 
L 309.880179 528.333525 
L 313.0459 529.560672 
L 316.616452 530.676129 
L 331.012763 534.735887 
L 346.097418 538.984587 
L 358.477226 542.235017 
L 366.689126 544.147554 
L 372.586614 545.395884 
L 374.74822 545.645169 
L 376.828486 545.621973 
L 378.782629 545.294647 
L 380.568318 544.639698 
L 382.038731 543.734939 
L 382.677109 543.195397 
L 383.640336 541.911716 
L 384.241244 540.529709 
L 384.769054 538.203255 
L 385.052843 535.385013 
L 385.001623 531.87144 
L 384.859131 526.128392 
L 384.981625 522.851143 
L 385.303131 519.333916 
L 386.034758 513.966522 
L 389.289796 492.36217 
L 391.041661 481.705735 
L 392.969065 470.609276 
L 393.995571 462.860551 
L 395.192032 452.939305 
L 398.654875 423.456561 
L 400.934911 407.694157 
L 402.07455 399.69463 
L 403.224063 389.575468 
L 404.42512 377.507678 
L 405.319313 365.835532 
L 405.788193 358.557566 
L 406.413809 347.451259 
L 407.306407 338.269834 
L 407.920058 334.323734 
L 408.593267 331.921094 
L 409.16641 330.589548 
L 409.905386 329.357667 
L 410.824362 328.262166 
L 411.928962 327.271768 
L 413.386099 326.383777 
L 415.186165 325.599754 
L 417.431694 324.944966 
L 420.090021 324.565952 
L 423.138204 324.453068 
L 452.343148 324.259516 
L 474.883539 323.713849 
L 476.91268 324.0467 
L 478.757205 324.650479 
L 480.384904 325.421597 
L 481.851328 326.479445 
L 482.535191 327.070376 
L 483.617286 328.557856 
L 484.116817 329.397628 
L 484.737401 331.286715 
L 485.138956 333.510149 
L 485.269332 335.971259 
L 485.209832 338.711769 
L 484.619996 348.109697 
L 484.404956 354.719089 
L 484.16046 366.454525 
L 483.501742 380.857843 
L 482.01399 411.440408 
L 481.287643 417.076458 
L 480.151917 423.522711 
L 478.844413 430.806885 
L 478.051293 436.745115 
L 476.26811 452.939707 
L 475.523874 462.813525 
L 474.532312 474.213805 
L 473.716553 479.846727 
L 472.97716 483.591252 
L 472.023998 487.326424 
L 470.251052 492.919953 
L 468.528376 498.510912 
L 467.113628 504.093912 
L 464.920819 514.597779 
L 461.502682 532.009732 
L 459.652992 543.307489 
L 458.538441 547.853476 
L 457.902095 549.650019 
L 457.300351 550.920786 
L 456.478212 552.292822 
L 455.28648 553.732617 
L 453.743995 555.133191 
L 451.794201 556.480404 
L 449.418561 557.670838 
L 446.694125 558.63258 
L 443.627235 559.287064 
L 440.305689 559.544215 
L 436.856178 559.427586 
L 433.280736 559.018268 
L 429.56223 558.359604 
L 425.797481 557.459985 
L 421.957734 556.362041 
L 408.172417 552.266932 
L 400.789285 550.471875 
L 393.349634 548.614586 
L 390.797394 547.781349 
L 388.542103 546.809867 
L 387.550465 546.229678 
L 386.663109 545.569357 
L 385.230166 544.10587 
L 384.177053 542.430122 
L 383.806872 541.511364 
L 383.359111 539.494678 
L 383.22091 537.313685 
L 383.27306 534.932215 
L 383.671995 530.918725 
L 385.634133 516.032062 
L 388.29905 498.882323 
L 391.393839 480.093426 
L 392.75902 472.339391 
L 393.60712 466.268939 
L 397.357075 434.051028 
L 398.165256 427.573016 
L 399.545896 418.86083 
L 401.371182 407.765029 
L 402.568365 398.563138 
L 403.345324 391.494857 
L 404.398551 379.775654 
L 405.254401 368.418224 
L 405.824979 358.25742 
L 406.159912 351.28485 
L 406.485996 348.11506 
L 406.990085 345.126434 
L 409.260075 333.77839 
L 409.780954 329.214492 
L 410.143386 322.559836 
L 410.492354 317.458903 
L 411.232887 295.985473 
L 411.81864 281.152727 
L 412.923448 248.658445 
L 412.989083 237.626208 
L 412.80329 228.753626 
L 412.403843 219.82849 
L 411.679528 208.558612 
L 410.677065 194.860857 
L 408.931542 171.797122 
L 407.030936 147.675362 
L 404.893582 124.820792 
L 403.991603 119.582368 
L 402.466191 111.343776 
L 402.147629 108.313722 
L 402.034933 105.453703 
L 402.133632 102.788681 
L 402.414041 100.329509 
L 403.075152 97.024326 
L 403.933147 93.226504 
L 404.125682 91.619243 
L 404.080065 90.20108 
L 403.749462 88.912506 
L 403.238668 87.74262 
L 402.148901 86.215229 
L 400.303389 84.41226 
L 398.687882 83.126163 
L 397.381802 82.309975 
L 395.855346 81.579323 
L 393.970901 80.94929 
L 391.695271 80.388317 
L 387.379523 79.528819 
L 383.824648 79.051803 
L 375.215656 78.332904 
L 361.851075 77.445379 
L 350.152129 76.806736 
L 332.697702 76.174844 
L 321.276648 75.871456 
L 301.781952 75.46186 
L 282.726092 74.646152 
L 269.377525 74.115637 
L 243.631877 73.253677 
L 228.891041 72.585025 
L 221.678723 72.668146 
L 216.948999 72.993259 
L 212.245277 73.64576 
L 207.596909 74.630621 
L 203.004522 75.991972 
L 198.498759 77.741257 
L 194.101224 79.860156 
L 189.795384 82.29847 
L 181.031098 87.642079 
L 174.348514 91.729261 
L 169.840457 94.317496 
L 165.25561 96.738467 
L 139.769506 109.593656 
L 134.166789 112.85909 
L 130.955602 115.001433 
L 129.201206 116.369566 
L 127.86098 117.653464 
L 126.625207 119.308293 
L 126.060876 120.343277 
L 125.517944 122.003665 
L 125.30805 123.309132 
L 125.258744 124.849252 
L 125.474957 126.679613 
L 125.938742 128.828909 
L 126.759619 131.318693 
L 127.334209 132.678016 
L 128.871719 135.482415 
L 130.967329 138.446783 
L 146.628897 158.139 
L 151.040281 164.491208 
L 153.819479 168.838963 
L 157.724685 175.405956 
L 176.681477 207.823873 
L 178.887615 212.066882 
L 180.85986 216.340907 
L 183.653992 222.776236 
L 187.178983 231.417387 
L 189.413815 237.998433 
L 191.280148 244.696611 
L 193.889802 255.811024 
L 196.13589 266.722102 
L 197.732831 275.304547 
L 198.769227 281.611223 
L 200.186746 291.840635 
L 201.308115 301.135278 
L 202.888628 316.445727 
L 203.248594 319.488444 
L 203.941787 321.722284 
L 204.553852 322.897224 
L 205.460784 323.997768 
L 206.823356 325.187738 
L 208.713394 326.364038 
L 211.213549 327.390465 
L 214.374555 328.285155 
L 216.159772 328.628902 
L 220.130794 329.0352 
L 224.5895 329.127682 
L 243.418532 328.90443 
L 274.282839 328.132868 
L 313.824245 326.983802 
L 323.866673 326.829595 
L 358.756761 326.427025 
L 399.822316 325.575501 
L 415.289098 325.367838 
L 434.485135 324.924889 
L 467.862214 324.395361 
L 486.504365 324.200161 
L 494.012783 323.871803 
L 525.116947 322.978348 
L 541.707984 322.535647 
L 567.692151 321.766517 
L 577.458575 321.762313 
L 587.87371 322.027585 
L 598.914916 322.63567 
L 636.754604 325.144137 
L 647.915912 325.65508 
L 650.652237 325.766113 
L 650.652237 325.766113 
" clip-path="url(#pea71758a77)" style="fill: none; stroke: #00ff00; stroke-width: 2; stroke-linecap: square"/>
   </g>
   <g id="patch_3">
    <path d="M 97.2 583.2 
L 97.2 45.36 
" style="fill: none; stroke: #000000; stroke-width: 3; stroke-linejoin: miter; stroke-linecap: square"/>
   </g>
   <g id="patch_4">
    <path d="M 716.4 583.2 
L 716.4 45.36 
" style="fill: none; stroke: #000000; stroke-width: 3; stroke-linejoin: miter; stroke-linecap: square"/>
   </g>
   <g id="patch_5">
    <path d="M 97.2 583.2 
L 716.4 583.2 
" style="fill: none; stroke: #000000; stroke-width: 3; stroke-linejoin: miter; stroke-linecap: square"/>
   </g>
   <g id="patch_6">
    <path d="M 97.2 45.36 
L 716.4 45.36 
" style="fill: none; stroke: #000000; stroke-width: 3; stroke-linejoin: miter; stroke-linecap: square"/>
   </g>
   <g id="PathCollection_1">
    <defs>
     <path id="m5342f1c841" d="M 0 -8.660254 
L -1.944348 -2.676166 
L -8.236391 -2.676166 
L -3.146021 1.022204 
L -5.09037 7.006293 
L -0 3.307923 
L 5.09037 7.006293 
L 3.146021 1.022204 
L 8.236391 -2.676166 
L 1.944348 -2.676166 
z
" style="stroke: #ff0000"/>
    </defs>
    <g clip-path="url(#pea71758a77)">
     <use xlink:href="#m5342f1c841" x="193.658291" y="329.501887" style="fill: #ff0000; stroke: #ff0000"/>
    </g>
   </g>
   <g id="legend_1">
    <g id="patch_7">
     <path d="M 542.224687 237.912187 
L 703.8 237.912187 
Q 707.4 237.912187 707.4 234.312187 
L 707.4 57.96 
Q 707.4 54.36 703.8 54.36 
L 542.224687 54.36 
Q 538.624687 54.36 538.624687 57.96 
L 538.624687 234.312187 
Q 538.624687 237.912187 542.224687 237.912187 
z
" style="fill: #ffffff; opacity: 0.8; stroke: #cccccc; stroke-linejoin: miter"/>
    </g>
    <g id="line2d_28">
     <defs>
      <path id="mfec7636d14" d="M 0 -6 
L -1.347084 -1.854102 
L -5.706339 -1.854102 
L -2.179628 0.708204 
L -3.526712 4.854102 
L -0 2.291796 
L 3.526712 4.854102 
L 2.179628 0.708204 
L 5.706339 -1.854102 
L 1.347084 -1.854102 
z
" style="stroke: #ff0000; stroke-linejoin: bevel"/>
     </defs>
     <g>
      <use xlink:href="#mfec7636d14" x="563.824687" y="67.86" style="fill: #ff0000; stroke: #ff0000; stroke-linejoin: bevel"/>
     </g>
    </g>
    <g id="text_13">
     <!-- Start -->
     <g transform="translate(596.224687 74.16) scale(0.18 -0.18)">
      <defs>
       <path id="TimesNewRomanPSMT-53" d="M 2934 4334 
L 2934 2869 
L 2819 2869 
Q 2763 3291 2617 3541 
Q 2472 3791 2203 3937 
Q 1934 4084 1647 4084 
Q 1322 4084 1109 3886 
Q 897 3688 897 3434 
Q 897 3241 1031 3081 
Q 1225 2847 1953 2456 
Q 2547 2138 2764 1967 
Q 2981 1797 3098 1565 
Q 3216 1334 3216 1081 
Q 3216 600 2842 251 
Q 2469 -97 1881 -97 
Q 1697 -97 1534 -69 
Q 1438 -53 1133 45 
Q 828 144 747 144 
Q 669 144 623 97 
Q 578 50 556 -97 
L 441 -97 
L 441 1356 
L 556 1356 
Q 638 900 775 673 
Q 913 447 1195 297 
Q 1478 147 1816 147 
Q 2206 147 2432 353 
Q 2659 559 2659 841 
Q 2659 997 2573 1156 
Q 2488 1316 2306 1453 
Q 2184 1547 1640 1851 
Q 1097 2156 867 2337 
Q 638 2519 519 2737 
Q 400 2956 400 3219 
Q 400 3675 750 4004 
Q 1100 4334 1641 4334 
Q 1978 4334 2356 4169 
Q 2531 4091 2603 4091 
Q 2684 4091 2736 4139 
Q 2788 4188 2819 4334 
L 2934 4334 
z
" transform="scale(0.015625)"/>
       <path id="TimesNewRomanPSMT-74" d="M 1031 3803 
L 1031 2863 
L 1700 2863 
L 1700 2644 
L 1031 2644 
L 1031 788 
Q 1031 509 1111 412 
Q 1191 316 1316 316 
Q 1419 316 1516 380 
Q 1613 444 1666 569 
L 1788 569 
Q 1678 263 1478 108 
Q 1278 -47 1066 -47 
Q 922 -47 784 33 
Q 647 113 581 261 
Q 516 409 516 719 
L 516 2644 
L 63 2644 
L 63 2747 
Q 234 2816 414 2980 
Q 594 3144 734 3369 
Q 806 3488 934 3803 
L 1031 3803 
z
" transform="scale(0.015625)"/>
       <path id="TimesNewRomanPSMT-61" d="M 1822 413 
Q 1381 72 1269 19 
Q 1100 -59 909 -59 
Q 613 -59 420 144 
Q 228 347 228 678 
Q 228 888 322 1041 
Q 450 1253 767 1440 
Q 1084 1628 1822 1897 
L 1822 2009 
Q 1822 2438 1686 2597 
Q 1550 2756 1291 2756 
Q 1094 2756 978 2650 
Q 859 2544 859 2406 
L 866 2225 
Q 866 2081 792 2003 
Q 719 1925 600 1925 
Q 484 1925 411 2006 
Q 338 2088 338 2228 
Q 338 2497 613 2722 
Q 888 2947 1384 2947 
Q 1766 2947 2009 2819 
Q 2194 2722 2281 2516 
Q 2338 2381 2338 1966 
L 2338 994 
Q 2338 584 2353 492 
Q 2369 400 2405 369 
Q 2441 338 2488 338 
Q 2538 338 2575 359 
Q 2641 400 2828 588 
L 2828 413 
Q 2478 -56 2159 -56 
Q 2006 -56 1915 50 
Q 1825 156 1822 413 
z
M 1822 616 
L 1822 1706 
Q 1350 1519 1213 1441 
Q 966 1303 859 1153 
Q 753 1003 753 825 
Q 753 600 887 451 
Q 1022 303 1197 303 
Q 1434 303 1822 616 
z
" transform="scale(0.015625)"/>
       <path id="TimesNewRomanPSMT-72" d="M 1038 2947 
L 1038 2303 
Q 1397 2947 1775 2947 
Q 1947 2947 2059 2842 
Q 2172 2738 2172 2600 
Q 2172 2478 2090 2393 
Q 2009 2309 1897 2309 
Q 1788 2309 1652 2417 
Q 1516 2525 1450 2525 
Q 1394 2525 1328 2463 
Q 1188 2334 1038 2041 
L 1038 669 
Q 1038 431 1097 309 
Q 1138 225 1241 169 
Q 1344 113 1538 113 
L 1538 0 
L 72 0 
L 72 113 
Q 291 113 397 181 
Q 475 231 506 341 
Q 522 394 522 644 
L 522 1753 
Q 522 2253 501 2348 
Q 481 2444 426 2487 
Q 372 2531 291 2531 
Q 194 2531 72 2484 
L 41 2597 
L 906 2947 
L 1038 2947 
z
" transform="scale(0.015625)"/>
      </defs>
      <use xlink:href="#TimesNewRomanPSMT-53"/>
      <use xlink:href="#TimesNewRomanPSMT-74" x="55.615234"/>
      <use xlink:href="#TimesNewRomanPSMT-61" x="83.398438"/>
      <use xlink:href="#TimesNewRomanPSMT-72" x="127.783203"/>
      <use xlink:href="#TimesNewRomanPSMT-74" x="161.083984"/>
     </g>
    </g>
    <g id="line2d_29">
     <path d="M 545.824687 93.310312 
L 563.824687 93.310312 
L 581.824687 93.310312 
" style="fill: none; stroke-dasharray: 10.175,4.4; stroke-dashoffset: 0; stroke: #808a87; stroke-width: 2.75"/>
    </g>
    <g id="text_14">
     <!-- GroundTruth -->
     <g transform="translate(596.224687 99.610312) scale(0.18 -0.18)">
      <defs>
       <path id="TimesNewRomanPSMT-47" d="M 3928 4334 
L 4038 2997 
L 3928 2997 
Q 3763 3497 3500 3750 
Q 3122 4116 2528 4116 
Q 1719 4116 1297 3475 
Q 944 2934 944 2188 
Q 944 1581 1178 1081 
Q 1413 581 1792 348 
Q 2172 116 2572 116 
Q 2806 116 3025 175 
Q 3244 234 3447 350 
L 3447 1575 
Q 3447 1894 3398 1992 
Q 3350 2091 3248 2142 
Q 3147 2194 2891 2194 
L 2891 2313 
L 4531 2313 
L 4531 2194 
L 4453 2194 
Q 4209 2194 4119 2031 
Q 4056 1916 4056 1575 
L 4056 278 
Q 3697 84 3347 -6 
Q 2997 -97 2569 -97 
Q 1341 -97 703 691 
Q 225 1281 225 2053 
Q 225 2613 494 3125 
Q 813 3734 1369 4063 
Q 1834 4334 2469 4334 
Q 2700 4334 2889 4296 
Q 3078 4259 3425 4131 
Q 3600 4066 3659 4066 
Q 3719 4066 3761 4120 
Q 3803 4175 3813 4334 
L 3928 4334 
z
" transform="scale(0.015625)"/>
       <path id="TimesNewRomanPSMT-6f" d="M 1600 2947 
Q 2250 2947 2644 2453 
Q 2978 2031 2978 1484 
Q 2978 1100 2793 706 
Q 2609 313 2286 112 
Q 1963 -88 1566 -88 
Q 919 -88 538 428 
Q 216 863 216 1403 
Q 216 1797 411 2186 
Q 606 2575 925 2761 
Q 1244 2947 1600 2947 
z
M 1503 2744 
Q 1338 2744 1170 2645 
Q 1003 2547 900 2300 
Q 797 2053 797 1666 
Q 797 1041 1045 587 
Q 1294 134 1700 134 
Q 2003 134 2200 384 
Q 2397 634 2397 1244 
Q 2397 2006 2069 2444 
Q 1847 2744 1503 2744 
z
" transform="scale(0.015625)"/>
       <path id="TimesNewRomanPSMT-75" d="M 2709 2863 
L 2709 1128 
Q 2709 631 2732 520 
Q 2756 409 2807 365 
Q 2859 322 2928 322 
Q 3025 322 3147 375 
L 3191 266 
L 2334 -88 
L 2194 -88 
L 2194 519 
Q 1825 119 1631 15 
Q 1438 -88 1222 -88 
Q 981 -88 804 51 
Q 628 191 559 409 
Q 491 628 491 1028 
L 491 2306 
Q 491 2509 447 2587 
Q 403 2666 317 2708 
Q 231 2750 6 2747 
L 6 2863 
L 1009 2863 
L 1009 947 
Q 1009 547 1148 422 
Q 1288 297 1484 297 
Q 1619 297 1789 381 
Q 1959 466 2194 703 
L 2194 2325 
Q 2194 2569 2105 2655 
Q 2016 2741 1734 2747 
L 1734 2863 
L 2709 2863 
z
" transform="scale(0.015625)"/>
       <path id="TimesNewRomanPSMT-6e" d="M 1034 2341 
Q 1538 2947 1994 2947 
Q 2228 2947 2397 2830 
Q 2566 2713 2666 2444 
Q 2734 2256 2734 1869 
L 2734 647 
Q 2734 375 2778 278 
Q 2813 200 2889 156 
Q 2966 113 3172 113 
L 3172 0 
L 1756 0 
L 1756 113 
L 1816 113 
Q 2016 113 2095 173 
Q 2175 234 2206 353 
Q 2219 400 2219 647 
L 2219 1819 
Q 2219 2209 2117 2386 
Q 2016 2563 1775 2563 
Q 1403 2563 1034 2156 
L 1034 647 
Q 1034 356 1069 288 
Q 1113 197 1189 155 
Q 1266 113 1500 113 
L 1500 0 
L 84 0 
L 84 113 
L 147 113 
Q 366 113 442 223 
Q 519 334 519 647 
L 519 1709 
Q 519 2225 495 2337 
Q 472 2450 423 2490 
Q 375 2531 294 2531 
Q 206 2531 84 2484 
L 38 2597 
L 900 2947 
L 1034 2947 
L 1034 2341 
z
" transform="scale(0.015625)"/>
       <path id="TimesNewRomanPSMT-64" d="M 2222 322 
Q 2013 103 1813 7 
Q 1613 -88 1381 -88 
Q 913 -88 563 304 
Q 213 697 213 1313 
Q 213 1928 600 2439 
Q 988 2950 1597 2950 
Q 1975 2950 2222 2709 
L 2222 3238 
Q 2222 3728 2198 3840 
Q 2175 3953 2125 3993 
Q 2075 4034 2000 4034 
Q 1919 4034 1784 3984 
L 1744 4094 
L 2597 4444 
L 2738 4444 
L 2738 1134 
Q 2738 631 2761 520 
Q 2784 409 2836 365 
Q 2888 322 2956 322 
Q 3041 322 3181 375 
L 3216 266 
L 2366 -88 
L 2222 -88 
L 2222 322 
z
M 2222 541 
L 2222 2016 
Q 2203 2228 2109 2403 
Q 2016 2578 1861 2667 
Q 1706 2756 1559 2756 
Q 1284 2756 1069 2509 
Q 784 2184 784 1559 
Q 784 928 1059 592 
Q 1334 256 1672 256 
Q 1956 256 2222 541 
z
" transform="scale(0.015625)"/>
       <path id="TimesNewRomanPSMT-54" d="M 3703 4238 
L 3750 3244 
L 3631 3244 
Q 3597 3506 3538 3619 
Q 3441 3800 3280 3886 
Q 3119 3972 2856 3972 
L 2259 3972 
L 2259 734 
Q 2259 344 2344 247 
Q 2463 116 2709 116 
L 2856 116 
L 2856 0 
L 1059 0 
L 1059 116 
L 1209 116 
Q 1478 116 1591 278 
Q 1659 378 1659 734 
L 1659 3972 
L 1150 3972 
Q 853 3972 728 3928 
Q 566 3869 450 3700 
Q 334 3531 313 3244 
L 194 3244 
L 244 4238 
L 3703 4238 
z
" transform="scale(0.015625)"/>
       <path id="TimesNewRomanPSMT-68" d="M 1041 4444 
L 1041 2350 
Q 1388 2731 1591 2839 
Q 1794 2947 1997 2947 
Q 2241 2947 2416 2812 
Q 2591 2678 2675 2391 
Q 2734 2191 2734 1659 
L 2734 647 
Q 2734 375 2778 275 
Q 2809 200 2884 156 
Q 2959 113 3159 113 
L 3159 0 
L 1753 0 
L 1753 113 
L 1819 113 
Q 2019 113 2097 173 
Q 2175 234 2206 353 
Q 2216 403 2216 647 
L 2216 1659 
Q 2216 2128 2167 2275 
Q 2119 2422 2012 2495 
Q 1906 2569 1756 2569 
Q 1603 2569 1437 2487 
Q 1272 2406 1041 2159 
L 1041 647 
Q 1041 353 1073 281 
Q 1106 209 1195 161 
Q 1284 113 1503 113 
L 1503 0 
L 84 0 
L 84 113 
Q 275 113 384 172 
Q 447 203 484 290 
Q 522 378 522 647 
L 522 3238 
Q 522 3728 498 3840 
Q 475 3953 426 3993 
Q 378 4034 297 4034 
Q 231 4034 84 3984 
L 41 4094 
L 897 4444 
L 1041 4444 
z
" transform="scale(0.015625)"/>
      </defs>
      <use xlink:href="#TimesNewRomanPSMT-47"/>
      <use xlink:href="#TimesNewRomanPSMT-72" x="72.216797"/>
      <use xlink:href="#TimesNewRomanPSMT-6f" x="105.517578"/>
      <use xlink:href="#TimesNewRomanPSMT-75" x="155.517578"/>
      <use xlink:href="#TimesNewRomanPSMT-6e" x="205.517578"/>
      <use xlink:href="#TimesNewRomanPSMT-64" x="255.517578"/>
      <use xlink:href="#TimesNewRomanPSMT-54" x="305.517578"/>
      <use xlink:href="#TimesNewRomanPSMT-72" x="363.101562"/>
      <use xlink:href="#TimesNewRomanPSMT-75" x="396.402344"/>
      <use xlink:href="#TimesNewRomanPSMT-74" x="446.402344"/>
      <use xlink:href="#TimesNewRomanPSMT-68" x="474.185547"/>
     </g>
    </g>
    <g id="line2d_30">
     <path d="M 545.824687 118.760625 
L 563.824687 118.760625 
L 581.824687 118.760625 
" style="fill: none; stroke: #0000ff; stroke-width: 2; stroke-linecap: square"/>
    </g>
    <g id="text_15">
     <!-- LOAM -->
     <g transform="translate(596.224687 125.060625) scale(0.18 -0.18)">
      <defs>
       <path id="TimesNewRomanPSMT-4c" d="M 3669 1172 
L 3772 1150 
L 3409 0 
L 128 0 
L 128 116 
L 288 116 
Q 556 116 672 291 
Q 738 391 738 753 
L 738 3488 
Q 738 3884 650 3984 
Q 528 4122 288 4122 
L 128 4122 
L 128 4238 
L 2047 4238 
L 2047 4122 
Q 1709 4125 1573 4059 
Q 1438 3994 1388 3894 
Q 1338 3794 1338 3416 
L 1338 753 
Q 1338 494 1388 397 
Q 1425 331 1503 300 
Q 1581 269 1991 269 
L 2300 269 
Q 2788 269 2984 341 
Q 3181 413 3343 595 
Q 3506 778 3669 1172 
z
" transform="scale(0.015625)"/>
       <path id="TimesNewRomanPSMT-4f" d="M 2341 4334 
Q 3166 4334 3770 3707 
Q 4375 3081 4375 2144 
Q 4375 1178 3765 540 
Q 3156 -97 2291 -97 
Q 1416 -97 820 525 
Q 225 1147 225 2134 
Q 225 3144 913 3781 
Q 1509 4334 2341 4334 
z
M 2281 4106 
Q 1713 4106 1369 3684 
Q 941 3159 941 2147 
Q 941 1109 1384 550 
Q 1725 125 2284 125 
Q 2881 125 3270 590 
Q 3659 1056 3659 2059 
Q 3659 3147 3231 3681 
Q 2888 4106 2281 4106 
z
" transform="scale(0.015625)"/>
       <path id="TimesNewRomanPSMT-41" d="M 2928 1419 
L 1288 1419 
L 1000 750 
Q 894 503 894 381 
Q 894 284 986 211 
Q 1078 138 1384 116 
L 1384 0 
L 50 0 
L 50 116 
Q 316 163 394 238 
Q 553 388 747 847 
L 2238 4334 
L 2347 4334 
L 3822 809 
Q 4000 384 4145 257 
Q 4291 131 4550 116 
L 4550 0 
L 2878 0 
L 2878 116 
Q 3131 128 3220 200 
Q 3309 272 3309 375 
Q 3309 513 3184 809 
L 2928 1419 
z
M 2841 1650 
L 2122 3363 
L 1384 1650 
L 2841 1650 
z
" transform="scale(0.015625)"/>
       <path id="TimesNewRomanPSMT-4d" d="M 2619 0 
L 981 3566 
L 981 734 
Q 981 344 1066 247 
Q 1181 116 1431 116 
L 1581 116 
L 1581 0 
L 106 0 
L 106 116 
L 256 116 
Q 525 116 638 278 
Q 706 378 706 734 
L 706 3503 
Q 706 3784 644 3909 
Q 600 4000 483 4061 
Q 366 4122 106 4122 
L 106 4238 
L 1306 4238 
L 2844 922 
L 4356 4238 
L 5556 4238 
L 5556 4122 
L 5409 4122 
Q 5138 4122 5025 3959 
Q 4956 3859 4956 3503 
L 4956 734 
Q 4956 344 5044 247 
Q 5159 116 5409 116 
L 5556 116 
L 5556 0 
L 3756 0 
L 3756 116 
L 3906 116 
Q 4178 116 4288 278 
Q 4356 378 4356 734 
L 4356 3566 
L 2722 0 
L 2619 0 
z
" transform="scale(0.015625)"/>
      </defs>
      <use xlink:href="#TimesNewRomanPSMT-4c"/>
      <use xlink:href="#TimesNewRomanPSMT-4f" x="61.083984"/>
      <use xlink:href="#TimesNewRomanPSMT-41" x="133.300781"/>
      <use xlink:href="#TimesNewRomanPSMT-4d" x="205.517578"/>
     </g>
    </g>
    <g id="line2d_31">
     <path d="M 545.824687 144.210937 
L 563.824687 144.210937 
L 581.824687 144.210937 
" style="fill: none; stroke: #aa00ff; stroke-width: 2; stroke-linecap: square"/>
    </g>
    <g id="text_16">
     <!-- LeGO-LOAM -->
     <g transform="translate(596.224687 150.510937) scale(0.18 -0.18)">
      <defs>
       <path id="TimesNewRomanPSMT-65" d="M 681 1784 
Q 678 1147 991 784 
Q 1303 422 1725 422 
Q 2006 422 2214 576 
Q 2422 731 2563 1106 
L 2659 1044 
Q 2594 616 2278 264 
Q 1963 -88 1488 -88 
Q 972 -88 605 314 
Q 238 716 238 1394 
Q 238 2128 614 2539 
Q 991 2950 1559 2950 
Q 2041 2950 2350 2633 
Q 2659 2316 2659 1784 
L 681 1784 
z
M 681 1966 
L 2006 1966 
Q 1991 2241 1941 2353 
Q 1863 2528 1708 2628 
Q 1553 2728 1384 2728 
Q 1125 2728 920 2526 
Q 716 2325 681 1966 
z
" transform="scale(0.015625)"/>
       <path id="TimesNewRomanPSMT-2d" d="M 259 1672 
L 1875 1672 
L 1875 1200 
L 259 1200 
L 259 1672 
z
" transform="scale(0.015625)"/>
      </defs>
      <use xlink:href="#TimesNewRomanPSMT-4c"/>
      <use xlink:href="#TimesNewRomanPSMT-65" x="61.083984"/>
      <use xlink:href="#TimesNewRomanPSMT-47" x="105.46875"/>
      <use xlink:href="#TimesNewRomanPSMT-4f" x="177.685547"/>
      <use xlink:href="#TimesNewRomanPSMT-2d" x="249.902344"/>
      <use xlink:href="#TimesNewRomanPSMT-4c" x="283.203125"/>
      <use xlink:href="#TimesNewRomanPSMT-4f" x="344.287109"/>
      <use xlink:href="#TimesNewRomanPSMT-41" x="416.503906"/>
      <use xlink:href="#TimesNewRomanPSMT-4d" x="488.720703"/>
     </g>
    </g>
    <g id="line2d_32">
     <path d="M 545.824687 169.66125 
L 563.824687 169.66125 
L 581.824687 169.66125 
" style="fill: none; stroke: #ff9c00; stroke-width: 2; stroke-linecap: square"/>
    </g>
    <g id="text_17">
     <!-- HDL-SLAM -->
     <g transform="translate(596.224687 175.96125) scale(0.18 -0.18)">
      <defs>
       <path id="TimesNewRomanPSMT-48" d="M 1316 2272 
L 3284 2272 
L 3284 3484 
Q 3284 3809 3244 3913 
Q 3213 3991 3113 4047 
Q 2978 4122 2828 4122 
L 2678 4122 
L 2678 4238 
L 4491 4238 
L 4491 4122 
L 4341 4122 
Q 4191 4122 4056 4050 
Q 3956 4000 3920 3898 
Q 3884 3797 3884 3484 
L 3884 750 
Q 3884 428 3925 325 
Q 3956 247 4053 191 
Q 4191 116 4341 116 
L 4491 116 
L 4491 0 
L 2678 0 
L 2678 116 
L 2828 116 
Q 3088 116 3206 269 
Q 3284 369 3284 750 
L 3284 2041 
L 1316 2041 
L 1316 750 
Q 1316 428 1356 325 
Q 1388 247 1488 191 
Q 1622 116 1772 116 
L 1925 116 
L 1925 0 
L 109 0 
L 109 116 
L 259 116 
Q 522 116 641 269 
Q 716 369 716 750 
L 716 3484 
Q 716 3809 675 3913 
Q 644 3991 547 4047 
Q 409 4122 259 4122 
L 109 4122 
L 109 4238 
L 1925 4238 
L 1925 4122 
L 1772 4122 
Q 1622 4122 1488 4050 
Q 1391 4000 1353 3898 
Q 1316 3797 1316 3484 
L 1316 2272 
z
" transform="scale(0.015625)"/>
       <path id="TimesNewRomanPSMT-44" d="M 109 0 
L 109 116 
L 269 116 
Q 538 116 650 288 
Q 719 391 719 750 
L 719 3488 
Q 719 3884 631 3984 
Q 509 4122 269 4122 
L 109 4122 
L 109 4238 
L 1834 4238 
Q 2784 4238 3279 4022 
Q 3775 3806 4076 3303 
Q 4378 2800 4378 2141 
Q 4378 1256 3841 663 
Q 3238 0 2003 0 
L 109 0 
z
M 1319 306 
Q 1716 219 1984 219 
Q 2709 219 3187 728 
Q 3666 1238 3666 2109 
Q 3666 2988 3187 3494 
Q 2709 4000 1959 4000 
Q 1678 4000 1319 3909 
L 1319 306 
z
" transform="scale(0.015625)"/>
      </defs>
      <use xlink:href="#TimesNewRomanPSMT-48"/>
      <use xlink:href="#TimesNewRomanPSMT-44" x="72.216797"/>
      <use xlink:href="#TimesNewRomanPSMT-4c" x="144.433594"/>
      <use xlink:href="#TimesNewRomanPSMT-2d" x="205.517578"/>
      <use xlink:href="#TimesNewRomanPSMT-53" x="238.818359"/>
      <use xlink:href="#TimesNewRomanPSMT-4c" x="294.433594"/>
      <use xlink:href="#TimesNewRomanPSMT-41" x="355.517578"/>
      <use xlink:href="#TimesNewRomanPSMT-4d" x="427.734375"/>
     </g>
    </g>
    <g id="line2d_33">
     <path d="M 545.824687 195.111562 
L 563.824687 195.111562 
L 581.824687 195.111562 
" style="fill: none; stroke: #ff0000; stroke-width: 2; stroke-linecap: square"/>
    </g>
    <g id="text_18">
     <!-- CT-ICP -->
     <g transform="translate(596.224687 201.411562) scale(0.18 -0.18)">
      <defs>
       <path id="TimesNewRomanPSMT-43" d="M 3853 4334 
L 3950 2894 
L 3853 2894 
Q 3659 3541 3300 3825 
Q 2941 4109 2438 4109 
Q 2016 4109 1675 3895 
Q 1334 3681 1139 3212 
Q 944 2744 944 2047 
Q 944 1472 1128 1050 
Q 1313 628 1683 403 
Q 2053 178 2528 178 
Q 2941 178 3256 354 
Q 3572 531 3950 1056 
L 4047 994 
Q 3728 428 3303 165 
Q 2878 -97 2294 -97 
Q 1241 -97 663 684 
Q 231 1266 231 2053 
Q 231 2688 515 3219 
Q 800 3750 1298 4042 
Q 1797 4334 2388 4334 
Q 2847 4334 3294 4109 
Q 3425 4041 3481 4041 
Q 3566 4041 3628 4100 
Q 3709 4184 3744 4334 
L 3853 4334 
z
" transform="scale(0.015625)"/>
       <path id="TimesNewRomanPSMT-49" d="M 1975 116 
L 1975 0 
L 159 0 
L 159 116 
L 309 116 
Q 572 116 691 269 
Q 766 369 766 750 
L 766 3488 
Q 766 3809 725 3913 
Q 694 3991 597 4047 
Q 459 4122 309 4122 
L 159 4122 
L 159 4238 
L 1975 4238 
L 1975 4122 
L 1822 4122 
Q 1563 4122 1444 3969 
Q 1366 3869 1366 3488 
L 1366 750 
Q 1366 428 1406 325 
Q 1438 247 1538 191 
Q 1672 116 1822 116 
L 1975 116 
z
" transform="scale(0.015625)"/>
       <path id="TimesNewRomanPSMT-50" d="M 1313 1984 
L 1313 750 
Q 1313 350 1400 253 
Q 1519 116 1759 116 
L 1922 116 
L 1922 0 
L 106 0 
L 106 116 
L 266 116 
Q 534 116 650 291 
Q 713 388 713 750 
L 713 3488 
Q 713 3888 628 3984 
Q 506 4122 266 4122 
L 106 4122 
L 106 4238 
L 1659 4238 
Q 2228 4238 2556 4120 
Q 2884 4003 3109 3725 
Q 3334 3447 3334 3066 
Q 3334 2547 2992 2222 
Q 2650 1897 2025 1897 
Q 1872 1897 1694 1919 
Q 1516 1941 1313 1984 
z
M 1313 2163 
Q 1478 2131 1606 2115 
Q 1734 2100 1825 2100 
Q 2150 2100 2386 2351 
Q 2622 2603 2622 3003 
Q 2622 3278 2509 3514 
Q 2397 3750 2190 3867 
Q 1984 3984 1722 3984 
Q 1563 3984 1313 3925 
L 1313 2163 
z
" transform="scale(0.015625)"/>
      </defs>
      <use xlink:href="#TimesNewRomanPSMT-43"/>
      <use xlink:href="#TimesNewRomanPSMT-54" x="66.699219"/>
      <use xlink:href="#TimesNewRomanPSMT-2d" x="118.658203"/>
      <use xlink:href="#TimesNewRomanPSMT-49" x="151.958984"/>
      <use xlink:href="#TimesNewRomanPSMT-43" x="185.259766"/>
      <use xlink:href="#TimesNewRomanPSMT-50" x="251.958984"/>
     </g>
    </g>
    <g id="line2d_34">
     <path d="M 545.824687 220.561875 
L 563.824687 220.561875 
L 581.824687 220.561875 
" style="fill: none; stroke: #00ff00; stroke-width: 2; stroke-linecap: square"/>
    </g>
    <g id="text_19">
     <!-- ROLO -->
     <g transform="translate(596.224687 226.861875) scale(0.18 -0.18)">
      <defs>
       <path id="TimesNewRomanPSMT-52" d="M 4325 0 
L 3194 0 
L 1759 1981 
Q 1600 1975 1500 1975 
Q 1459 1975 1412 1976 
Q 1366 1978 1316 1981 
L 1316 750 
Q 1316 350 1403 253 
Q 1522 116 1759 116 
L 1925 116 
L 1925 0 
L 109 0 
L 109 116 
L 269 116 
Q 538 116 653 291 
Q 719 388 719 750 
L 719 3488 
Q 719 3888 631 3984 
Q 509 4122 269 4122 
L 109 4122 
L 109 4238 
L 1653 4238 
Q 2328 4238 2648 4139 
Q 2969 4041 3192 3777 
Q 3416 3513 3416 3147 
Q 3416 2756 3161 2468 
Q 2906 2181 2372 2063 
L 3247 847 
Q 3547 428 3762 290 
Q 3978 153 4325 116 
L 4325 0 
z
M 1316 2178 
Q 1375 2178 1419 2176 
Q 1463 2175 1491 2175 
Q 2097 2175 2405 2437 
Q 2713 2700 2713 3106 
Q 2713 3503 2464 3751 
Q 2216 4000 1806 4000 
Q 1625 4000 1316 3941 
L 1316 2178 
z
" transform="scale(0.015625)"/>
      </defs>
      <use xlink:href="#TimesNewRomanPSMT-52"/>
      <use xlink:href="#TimesNewRomanPSMT-4f" x="66.699219"/>
      <use xlink:href="#TimesNewRomanPSMT-4c" x="138.916016"/>
      <use xlink:href="#TimesNewRomanPSMT-4f" x="200"/>
     </g>
    </g>
   </g>
  </g>
 </g>
 <defs>
  <clipPath id="pea71758a77">
   <rect x="97.2" y="45.36" width="619.2" height="537.84"/>
  </clipPath>
 </defs>
</svg>
