<?xml version="1.0" encoding="utf-8" standalone="no"?>
<!DOCTYPE svg PUBLIC "-//W3C//DTD SVG 1.1//EN"
  "http://www.w3.org/Graphics/SVG/1.1/DTD/svg11.dtd">
<svg xmlns:xlink="http://www.w3.org/1999/xlink" width="648pt" height="648pt" viewBox="0 0 648 648" xmlns="http://www.w3.org/2000/svg" version="1.1">
 <metadata>
  <rdf:RDF xmlns:dc="http://purl.org/dc/elements/1.1/" xmlns:cc="http://creativecommons.org/ns#" xmlns:rdf="http://www.w3.org/1999/02/22-rdf-syntax-ns#">
   <cc:Work>
    <dc:type rdf:resource="http://purl.org/dc/dcmitype/StillImage"/>
    <dc:date>2024-08-06T11:43:42.533406</dc:date>
    <dc:format>image/svg+xml</dc:format>
    <dc:creator>
     <cc:Agent>
      <dc:title>Matplotlib v3.8.3, https://matplotlib.org/</dc:title>
     </cc:Agent>
    </dc:creator>
   </cc:Work>
  </rdf:RDF>
 </metadata>
 <defs>
  <style type="text/css">*{stroke-linejoin: round; stroke-linecap: butt}</style>
 </defs>
 <g id="figure_1">
  <g id="patch_1">
   <path d="M 0 648 
L 648 648 
L 648 0 
L 0 0 
z
" style="fill: #ffffff"/>
  </g>
  <g id="patch_2">
   <path d="M 42.12 623.7 
L 622.08 623.7 
L 622.08 43.74 
L 42.12 43.74 
z
" style="fill: #ffffff"/>
  </g>
  <g id="pane3d_1">
   <g id="patch_3">
    <path d="M 591.641981 489.247539 
L 418.721639 359.160244 
L 421.214465 114.703421 
L 600.431072 224.014277 
" style="fill: #ffffff; stroke: #ffffff; stroke-linejoin: miter"/>
   </g>
  </g>
  <g id="pane3d_2">
   <g id="patch_4">
    <path d="M 100.507323 419.513941 
L 418.721639 359.160244 
L 421.214465 114.703421 
L 92.568072 165.331726 
" style="fill: #ffffff; stroke: #ffffff; stroke-linejoin: miter"/>
   </g>
  </g>
  <g id="pane3d_3">
   <g id="patch_5">
    <path d="M 248.820944 562.626756 
L 591.641981 489.247539 
L 418.721639 359.160244 
L 100.507323 419.513941 
" style="fill: #ffffff; stroke: #ffffff; stroke-linejoin: miter"/>
   </g>
  </g>
  <g id="grid3d_1">
   <g id="Line3DCollection_1">
    <path d="M 282.917568 555.328535 
L 132.024091 413.536355 
L 125.161201 160.310722 
" style="fill: none; stroke: #bdc3c7; stroke-width: 0.5"/>
    <path d="M 350.781255 540.802635 
L 194.83981 401.622495 
L 190.093882 150.307778 
" style="fill: none; stroke: #bdc3c7; stroke-width: 0.5"/>
    <path d="M 417.339756 526.556104 
L 256.559933 389.916429 
L 253.857334 140.484954 
" style="fill: none; stroke: #bdc3c7; stroke-width: 0.5"/>
    <path d="M 482.630365 512.580958 
L 317.212877 378.412769 
L 316.482859 130.83743 
" style="fill: none; stroke: #bdc3c7; stroke-width: 0.5"/>
    <path d="M 546.688971 498.869517 
L 376.826081 367.106309 
L 378.000646 121.360553 
" style="fill: none; stroke: #bdc3c7; stroke-width: 0.5"/>
   </g>
  </g>
  <g id="grid3d_2">
   <g id="Line3DCollection_2">
    <path d="M 592.859273 219.395956 
L 584.358356 483.768096 
L 242.545855 556.571712 
" style="fill: none; stroke: #bdc3c7; stroke-width: 0.5"/>
    <path d="M 566.325448 203.211992 
L 558.818985 464.554927 
L 220.562306 535.359043 
" style="fill: none; stroke: #bdc3c7; stroke-width: 0.5"/>
    <path d="M 540.521755 187.473362 
L 533.95939 445.853152 
L 199.192958 514.739039 
" style="fill: none; stroke: #bdc3c7; stroke-width: 0.5"/>
    <path d="M 515.418467 172.161936 
L 509.752788 427.64262 
L 178.412426 494.687203 
" style="fill: none; stroke: #bdc3c7; stroke-width: 0.5"/>
    <path d="M 490.987448 157.260551 
L 486.173782 409.904226 
L 158.196704 475.180371 
" style="fill: none; stroke: #bdc3c7; stroke-width: 0.5"/>
    <path d="M 467.20205 142.752955 
L 463.19828 392.619846 
L 138.523073 456.196621 
" style="fill: none; stroke: #bdc3c7; stroke-width: 0.5"/>
    <path d="M 444.037014 128.62374 
L 440.803402 375.772267 
L 119.370018 437.715192 
" style="fill: none; stroke: #bdc3c7; stroke-width: 0.5"/>
   </g>
  </g>
  <g id="grid3d_3">
   <g id="Line3DCollection_3">
    <path d="M 99.755586 395.446432 
L 418.957989 335.982767 
L 592.472904 464.172306 
" style="fill: none; stroke: #bdc3c7; stroke-width: 0.5"/>
    <path d="M 98.26166 347.617024 
L 419.427493 289.941283 
L 594.124994 414.316273 
" style="fill: none; stroke: #bdc3c7; stroke-width: 0.5"/>
    <path d="M 96.749032 299.188895 
L 419.902609 243.349415 
L 595.798843 363.803627 
" style="fill: none; stroke: #bdc3c7; stroke-width: 0.5"/>
    <path d="M 95.21735 250.150733 
L 420.383439 196.197235 
L 597.494882 312.621312 
" style="fill: none; stroke: #bdc3c7; stroke-width: 0.5"/>
    <path d="M 93.666252 200.490938 
L 420.870087 148.474574 
L 599.213556 260.75592 
" style="fill: none; stroke: #bdc3c7; stroke-width: 0.5"/>
   </g>
  </g>
  <g id="axis3d_1">
   <g id="line2d_1">
    <path d="M 591.641981 489.247539 
L 248.820944 562.626756 
" style="fill: none; stroke: #000000; stroke-width: 0.8; stroke-linecap: square"/>
   </g>
   <g id="xtick_1">
    <g id="line2d_2">
     <path d="M 281.585146 554.076479 
L 285.589122 557.838951 
" style="fill: none; stroke: #000000; stroke-width: 0.8; stroke-linecap: square"/>
    </g>
    <g id="text_1">
     <!-- 30 -->
     <g transform="translate(277.365758 574.368907) scale(0.14 -0.14)">
      <defs>
       <path id="DejaVuSans-33" d="M 2597 2516 
Q 3050 2419 3304 2112 
Q 3559 1806 3559 1356 
Q 3559 666 3084 287 
Q 2609 -91 1734 -91 
Q 1441 -91 1130 -33 
Q 819 25 488 141 
L 488 750 
Q 750 597 1062 519 
Q 1375 441 1716 441 
Q 2309 441 2620 675 
Q 2931 909 2931 1356 
Q 2931 1769 2642 2001 
Q 2353 2234 1838 2234 
L 1294 2234 
L 1294 2753 
L 1863 2753 
Q 2328 2753 2575 2939 
Q 2822 3125 2822 3475 
Q 2822 3834 2567 4026 
Q 2313 4219 1838 4219 
Q 1578 4219 1281 4162 
Q 984 4106 628 3988 
L 628 4550 
Q 988 4650 1302 4700 
Q 1616 4750 1894 4750 
Q 2613 4750 3031 4423 
Q 3450 4097 3450 3541 
Q 3450 3153 3228 2886 
Q 3006 2619 2597 2516 
z
" transform="scale(0.015625)"/>
       <path id="DejaVuSans-30" d="M 2034 4250 
Q 1547 4250 1301 3770 
Q 1056 3291 1056 2328 
Q 1056 1369 1301 889 
Q 1547 409 2034 409 
Q 2525 409 2770 889 
Q 3016 1369 3016 2328 
Q 3016 3291 2770 3770 
Q 2525 4250 2034 4250 
z
M 2034 4750 
Q 2819 4750 3233 4129 
Q 3647 3509 3647 2328 
Q 3647 1150 3233 529 
Q 2819 -91 2034 -91 
Q 1250 -91 836 529 
Q 422 1150 422 2328 
Q 422 3509 836 4129 
Q 1250 4750 2034 4750 
z
" transform="scale(0.015625)"/>
      </defs>
      <use xlink:href="#DejaVuSans-33"/>
      <use xlink:href="#DejaVuSans-30" x="63.623047"/>
     </g>
    </g>
   </g>
   <g id="xtick_2">
    <g id="line2d_3">
     <path d="M 349.405513 539.574765 
L 353.539596 543.264497 
" style="fill: none; stroke: #000000; stroke-width: 0.8; stroke-linecap: square"/>
    </g>
    <g id="text_2">
     <!-- 110 -->
     <g transform="translate(340.835841 559.741452) scale(0.14 -0.14)">
      <defs>
       <path id="DejaVuSans-31" d="M 794 531 
L 1825 531 
L 1825 4091 
L 703 3866 
L 703 4441 
L 1819 4666 
L 2450 4666 
L 2450 531 
L 3481 531 
L 3481 0 
L 794 0 
L 794 531 
z
" transform="scale(0.015625)"/>
      </defs>
      <use xlink:href="#DejaVuSans-31"/>
      <use xlink:href="#DejaVuSans-31" x="63.623047"/>
      <use xlink:href="#DejaVuSans-30" x="127.246094"/>
     </g>
    </g>
   </g>
   <g id="xtick_3">
    <g id="line2d_4">
     <path d="M 415.922599 525.351725 
L 420.181065 528.970807 
" style="fill: none; stroke: #000000; stroke-width: 0.8; stroke-linecap: square"/>
    </g>
    <g id="text_3">
     <!-- 190 -->
     <g transform="translate(407.451563 545.3957) scale(0.14 -0.14)">
      <defs>
       <path id="DejaVuSans-39" d="M 703 97 
L 703 672 
Q 941 559 1184 500 
Q 1428 441 1663 441 
Q 2288 441 2617 861 
Q 2947 1281 2994 2138 
Q 2813 1869 2534 1725 
Q 2256 1581 1919 1581 
Q 1219 1581 811 2004 
Q 403 2428 403 3163 
Q 403 3881 828 4315 
Q 1253 4750 1959 4750 
Q 2769 4750 3195 4129 
Q 3622 3509 3622 2328 
Q 3622 1225 3098 567 
Q 2575 -91 1691 -91 
Q 1453 -91 1209 -44 
Q 966 3 703 97 
z
M 1959 2075 
Q 2384 2075 2632 2365 
Q 2881 2656 2881 3163 
Q 2881 3666 2632 3958 
Q 2384 4250 1959 4250 
Q 1534 4250 1286 3958 
Q 1038 3666 1038 3163 
Q 1038 2656 1286 2365 
Q 1534 2075 1959 2075 
z
" transform="scale(0.015625)"/>
      </defs>
      <use xlink:href="#DejaVuSans-31"/>
      <use xlink:href="#DejaVuSans-39" x="63.623047"/>
      <use xlink:href="#DejaVuSans-30" x="127.246094"/>
     </g>
    </g>
   </g>
   <g id="xtick_4">
    <g id="line2d_5">
     <path d="M 481.173613 511.399404 
L 485.550993 514.949845 
" style="fill: none; stroke: #000000; stroke-width: 0.8; stroke-linecap: square"/>
    </g>
    <g id="text_4">
     <!-- 270 -->
     <g transform="translate(472.796603 531.32359) scale(0.14 -0.14)">
      <defs>
       <path id="DejaVuSans-32" d="M 1228 531 
L 3431 531 
L 3431 0 
L 469 0 
L 469 531 
Q 828 903 1448 1529 
Q 2069 2156 2228 2338 
Q 2531 2678 2651 2914 
Q 2772 3150 2772 3378 
Q 2772 3750 2511 3984 
Q 2250 4219 1831 4219 
Q 1534 4219 1204 4116 
Q 875 4013 500 3803 
L 500 4441 
Q 881 4594 1212 4672 
Q 1544 4750 1819 4750 
Q 2544 4750 2975 4387 
Q 3406 4025 3406 3419 
Q 3406 3131 3298 2873 
Q 3191 2616 2906 2266 
Q 2828 2175 2409 1742 
Q 1991 1309 1228 531 
z
" transform="scale(0.015625)"/>
       <path id="DejaVuSans-37" d="M 525 4666 
L 3525 4666 
L 3525 4397 
L 1831 0 
L 1172 0 
L 2766 4134 
L 525 4134 
L 525 4666 
z
" transform="scale(0.015625)"/>
      </defs>
      <use xlink:href="#DejaVuSans-32"/>
      <use xlink:href="#DejaVuSans-37" x="63.623047"/>
      <use xlink:href="#DejaVuSans-30" x="127.246094"/>
     </g>
    </g>
   </g>
   <g id="xtick_5">
    <g id="line2d_6">
     <path d="M 545.194362 497.710144 
L 549.685429 501.193879 
" style="fill: none; stroke: #000000; stroke-width: 0.8; stroke-linecap: square"/>
    </g>
    <g id="text_5">
     <!-- 350 -->
     <g transform="translate(536.906973 517.517367) scale(0.14 -0.14)">
      <defs>
       <path id="DejaVuSans-35" d="M 691 4666 
L 3169 4666 
L 3169 4134 
L 1269 4134 
L 1269 2991 
Q 1406 3038 1543 3061 
Q 1681 3084 1819 3084 
Q 2600 3084 3056 2656 
Q 3513 2228 3513 1497 
Q 3513 744 3044 326 
Q 2575 -91 1722 -91 
Q 1428 -91 1123 -41 
Q 819 9 494 109 
L 494 744 
Q 775 591 1075 516 
Q 1375 441 1709 441 
Q 2250 441 2565 725 
Q 2881 1009 2881 1497 
Q 2881 1984 2565 2268 
Q 2250 2553 1709 2553 
Q 1456 2553 1204 2497 
Q 953 2441 691 2322 
L 691 4666 
z
" transform="scale(0.015625)"/>
      </defs>
      <use xlink:href="#DejaVuSans-33"/>
      <use xlink:href="#DejaVuSans-35" x="63.623047"/>
      <use xlink:href="#DejaVuSans-30" x="127.246094"/>
     </g>
    </g>
   </g>
   <g id="text_6">
    <!-- X (m) -->
    <g transform="translate(418.135916 566.696647) rotate(-12.081584) scale(0.18 -0.18)">
     <defs>
      <path id="TimesNewRomanPSMT-58" d="M 2613 2347 
L 3522 991 
Q 3900 428 4083 279 
Q 4266 131 4547 116 
L 4547 0 
L 2728 0 
L 2728 116 
Q 2909 119 2997 153 
Q 3063 181 3105 239 
Q 3147 297 3147 356 
Q 3147 428 3119 500 
Q 3097 553 2947 775 
L 2228 1863 
L 1341 725 
Q 1200 544 1172 483 
Q 1144 422 1144 356 
Q 1144 256 1228 190 
Q 1313 125 1550 116 
L 1550 0 
L 47 0 
L 47 116 
Q 206 131 322 181 
Q 516 263 691 400 
Q 866 538 1091 822 
L 2091 2084 
L 1256 3306 
Q 916 3803 678 3958 
Q 441 4113 131 4122 
L 131 4238 
L 2091 4238 
L 2091 4122 
Q 1841 4113 1748 4041 
Q 1656 3969 1656 3881 
Q 1656 3766 1806 3544 
L 2456 2572 
L 3209 3525 
Q 3341 3694 3370 3756 
Q 3400 3819 3400 3884 
Q 3400 3950 3363 4000 
Q 3316 4066 3244 4092 
Q 3172 4119 2947 4122 
L 2947 4238 
L 4450 4238 
L 4450 4122 
Q 4272 4113 4159 4066 
Q 3991 3994 3850 3872 
Q 3709 3750 3453 3422 
L 2613 2347 
z
" transform="scale(0.015625)"/>
      <path id="TimesNewRomanPSMT-20" transform="scale(0.015625)"/>
      <path id="TimesNewRomanPSMT-28" d="M 1988 -1253 
L 1988 -1369 
Q 1516 -1131 1200 -813 
Q 750 -359 506 256 
Q 263 872 263 1534 
Q 263 2503 741 3301 
Q 1219 4100 1988 4444 
L 1988 4313 
Q 1603 4100 1356 3731 
Q 1109 3363 987 2797 
Q 866 2231 866 1616 
Q 866 947 969 400 
Q 1050 -31 1165 -292 
Q 1281 -553 1476 -793 
Q 1672 -1034 1988 -1253 
z
" transform="scale(0.015625)"/>
      <path id="TimesNewRomanPSMT-6d" d="M 1050 2338 
Q 1363 2650 1419 2697 
Q 1559 2816 1721 2881 
Q 1884 2947 2044 2947 
Q 2313 2947 2506 2790 
Q 2700 2634 2766 2338 
Q 3088 2713 3309 2830 
Q 3531 2947 3766 2947 
Q 3994 2947 4170 2830 
Q 4347 2713 4450 2447 
Q 4519 2266 4519 1878 
L 4519 647 
Q 4519 378 4559 278 
Q 4591 209 4675 161 
Q 4759 113 4950 113 
L 4950 0 
L 3538 0 
L 3538 113 
L 3597 113 
Q 3781 113 3884 184 
Q 3956 234 3988 344 
Q 4000 397 4000 647 
L 4000 1878 
Q 4000 2228 3916 2372 
Q 3794 2572 3525 2572 
Q 3359 2572 3192 2489 
Q 3025 2406 2788 2181 
L 2781 2147 
L 2788 2013 
L 2788 647 
Q 2788 353 2820 281 
Q 2853 209 2943 161 
Q 3034 113 3253 113 
L 3253 0 
L 1806 0 
L 1806 113 
Q 2044 113 2133 169 
Q 2222 225 2256 338 
Q 2272 391 2272 647 
L 2272 1878 
Q 2272 2228 2169 2381 
Q 2031 2581 1784 2581 
Q 1616 2581 1450 2491 
Q 1191 2353 1050 2181 
L 1050 647 
Q 1050 366 1089 281 
Q 1128 197 1204 155 
Q 1281 113 1516 113 
L 1516 0 
L 100 0 
L 100 113 
Q 297 113 375 155 
Q 453 197 493 289 
Q 534 381 534 647 
L 534 1741 
Q 534 2213 506 2350 
Q 484 2453 437 2492 
Q 391 2531 309 2531 
Q 222 2531 100 2484 
L 53 2597 
L 916 2947 
L 1050 2947 
L 1050 2338 
z
" transform="scale(0.015625)"/>
      <path id="TimesNewRomanPSMT-29" d="M 144 4313 
L 144 4444 
Q 619 4209 934 3891 
Q 1381 3434 1625 2820 
Q 1869 2206 1869 1541 
Q 1869 572 1392 -226 
Q 916 -1025 144 -1369 
L 144 -1253 
Q 528 -1038 776 -670 
Q 1025 -303 1145 264 
Q 1266 831 1266 1447 
Q 1266 2113 1163 2663 
Q 1084 3094 967 3353 
Q 850 3613 656 3853 
Q 463 4094 144 4313 
z
" transform="scale(0.015625)"/>
     </defs>
     <use xlink:href="#TimesNewRomanPSMT-58"/>
     <use xlink:href="#TimesNewRomanPSMT-20" x="72.216797"/>
     <use xlink:href="#TimesNewRomanPSMT-28" x="97.216797"/>
     <use xlink:href="#TimesNewRomanPSMT-6d" x="130.517578"/>
     <use xlink:href="#TimesNewRomanPSMT-29" x="208.300781"/>
    </g>
   </g>
  </g>
  <g id="axis3d_2">
   <g id="line2d_7">
    <path d="M 100.507323 419.513941 
L 248.820944 562.626756 
" style="fill: none; stroke: #000000; stroke-width: 0.8; stroke-linecap: square"/>
   </g>
   <g id="xtick_6">
    <g id="line2d_8">
     <path d="M 245.418938 555.959766 
L 236.792635 557.797106 
" style="fill: none; stroke: #000000; stroke-width: 0.8; stroke-linecap: square"/>
    </g>
    <g id="text_7">
     <!-- −450 -->
     <g transform="translate(209.763227 580.256751) scale(0.14 -0.14)">
      <defs>
       <path id="DejaVuSans-2212" d="M 678 2272 
L 4684 2272 
L 4684 1741 
L 678 1741 
L 678 2272 
z
" transform="scale(0.015625)"/>
       <path id="DejaVuSans-34" d="M 2419 4116 
L 825 1625 
L 2419 1625 
L 2419 4116 
z
M 2253 4666 
L 3047 4666 
L 3047 1625 
L 3713 1625 
L 3713 1100 
L 3047 1100 
L 3047 0 
L 2419 0 
L 2419 1100 
L 313 1100 
L 313 1709 
L 2253 4666 
z
" transform="scale(0.015625)"/>
      </defs>
      <use xlink:href="#DejaVuSans-2212"/>
      <use xlink:href="#DejaVuSans-34" x="83.789062"/>
      <use xlink:href="#DejaVuSans-35" x="147.412109"/>
      <use xlink:href="#DejaVuSans-30" x="211.035156"/>
     </g>
    </g>
   </g>
   <g id="xtick_7">
    <g id="line2d_9">
     <path d="M 223.403558 534.764311 
L 214.872923 536.549949 
" style="fill: none; stroke: #000000; stroke-width: 0.8; stroke-linecap: square"/>
    </g>
    <g id="text_8">
     <!-- −370 -->
     <g transform="translate(187.958812 558.846556) scale(0.14 -0.14)">
      <use xlink:href="#DejaVuSans-2212"/>
      <use xlink:href="#DejaVuSans-33" x="83.789062"/>
      <use xlink:href="#DejaVuSans-37" x="147.412109"/>
      <use xlink:href="#DejaVuSans-30" x="211.035156"/>
     </g>
    </g>
   </g>
   <g id="xtick_8">
    <g id="line2d_10">
     <path d="M 202.003025 514.160803 
L 193.566117 515.896891 
" style="fill: none; stroke: #000000; stroke-width: 0.8; stroke-linecap: square"/>
    </g>
    <g id="text_9">
     <!-- −290 -->
     <g transform="translate(166.76395 538.034892) scale(0.14 -0.14)">
      <use xlink:href="#DejaVuSans-2212"/>
      <use xlink:href="#DejaVuSans-32" x="83.789062"/>
      <use xlink:href="#DejaVuSans-39" x="147.412109"/>
      <use xlink:href="#DejaVuSans-30" x="211.035156"/>
     </g>
    </g>
   </g>
   <g id="xtick_9">
    <g id="line2d_11">
     <path d="M 181.191936 494.124787 
L 172.846864 495.813358 
" style="fill: none; stroke: #000000; stroke-width: 0.8; stroke-linecap: square"/>
    </g>
    <g id="text_10">
     <!-- −210 -->
     <g transform="translate(146.153432 517.797009) scale(0.14 -0.14)">
      <use xlink:href="#DejaVuSans-2212"/>
      <use xlink:href="#DejaVuSans-32" x="83.789062"/>
      <use xlink:href="#DejaVuSans-31" x="147.412109"/>
      <use xlink:href="#DejaVuSans-30" x="211.035156"/>
     </g>
    </g>
   </g>
   <g id="xtick_10">
    <g id="line2d_12">
     <path d="M 160.946268 474.633134 
L 152.691191 476.276114 
" style="fill: none; stroke: #000000; stroke-width: 0.8; stroke-linecap: square"/>
    </g>
    <g id="text_11">
     <!-- −130 -->
     <g transform="translate(126.103422 498.109499) scale(0.14 -0.14)">
      <use xlink:href="#DejaVuSans-2212"/>
      <use xlink:href="#DejaVuSans-31" x="83.789062"/>
      <use xlink:href="#DejaVuSans-33" x="147.412109"/>
      <use xlink:href="#DejaVuSans-30" x="211.035156"/>
     </g>
    </g>
   </g>
   <g id="xtick_11">
    <g id="line2d_13">
     <path d="M 141.243288 455.663958 
L 133.076411 457.263167 
" style="fill: none; stroke: #000000; stroke-width: 0.8; stroke-linecap: square"/>
    </g>
    <g id="text_12">
     <!-- −50 -->
     <g transform="translate(111.045111 478.950212) scale(0.14 -0.14)">
      <use xlink:href="#DejaVuSans-2212"/>
      <use xlink:href="#DejaVuSans-35" x="83.789062"/>
      <use xlink:href="#DejaVuSans-30" x="147.412109"/>
     </g>
    </g>
   </g>
   <g id="xtick_12">
    <g id="line2d_14">
     <path d="M 122.061464 437.196527 
L 113.981042 438.753693 
" style="fill: none; stroke: #000000; stroke-width: 0.8; stroke-linecap: square"/>
    </g>
    <g id="text_13">
     <!-- 30 -->
     <g transform="translate(97.915417 460.298171) scale(0.14 -0.14)">
      <use xlink:href="#DejaVuSans-33"/>
      <use xlink:href="#DejaVuSans-30" x="63.623047"/>
     </g>
    </g>
   </g>
   <g id="text_14">
    <!-- Y (m) -->
    <g transform="translate(117.552335 509.215122) rotate(-316.022394) scale(0.18 -0.18)">
     <defs>
      <path id="TimesNewRomanPSMT-59" d="M 3050 4238 
L 4528 4238 
L 4528 4122 
L 4447 4122 
Q 4366 4122 4209 4050 
Q 4053 3978 3925 3843 
Q 3797 3709 3609 3406 
L 2588 1797 
L 2588 734 
Q 2588 344 2675 247 
Q 2794 116 3050 116 
L 3188 116 
L 3188 0 
L 1388 0 
L 1388 116 
L 1538 116 
Q 1806 116 1919 278 
Q 1988 378 1988 734 
L 1988 1738 
L 825 3513 
Q 619 3825 545 3903 
Q 472 3981 241 4091 
Q 178 4122 59 4122 
L 59 4238 
L 1872 4238 
L 1872 4122 
L 1778 4122 
Q 1631 4122 1507 4053 
Q 1384 3984 1384 3847 
Q 1384 3734 1575 3441 
L 2459 2075 
L 3291 3381 
Q 3478 3675 3478 3819 
Q 3478 3906 3433 3975 
Q 3388 4044 3303 4083 
Q 3219 4122 3050 4122 
L 3050 4238 
z
" transform="scale(0.015625)"/>
     </defs>
     <use xlink:href="#TimesNewRomanPSMT-59"/>
     <use xlink:href="#TimesNewRomanPSMT-20" x="68.466797"/>
     <use xlink:href="#TimesNewRomanPSMT-28" x="93.466797"/>
     <use xlink:href="#TimesNewRomanPSMT-6d" x="126.767578"/>
     <use xlink:href="#TimesNewRomanPSMT-29" x="204.550781"/>
    </g>
   </g>
  </g>
  <g id="axis3d_3">
   <g id="line2d_15">
    <path d="M 100.507323 419.513941 
L 92.568072 165.331726 
" style="fill: none; stroke: #000000; stroke-width: 0.8; stroke-linecap: square"/>
   </g>
   <g id="xtick_13">
    <g id="line2d_16">
     <path d="M 102.427149 394.948751 
L 94.406485 396.442907 
" style="fill: none; stroke: #000000; stroke-width: 0.8; stroke-linecap: square"/>
    </g>
    <g id="text_15">
     <!-- −220 -->
     <g transform="translate(55.770621 402.630924) scale(0.14 -0.14)">
      <use xlink:href="#DejaVuSans-2212"/>
      <use xlink:href="#DejaVuSans-32" x="83.789062"/>
      <use xlink:href="#DejaVuSans-32" x="147.412109"/>
      <use xlink:href="#DejaVuSans-30" x="211.035156"/>
     </g>
    </g>
   </g>
   <g id="xtick_14">
    <g id="line2d_17">
     <path d="M 100.950393 347.134174 
L 92.87814 348.583809 
" style="fill: none; stroke: #000000; stroke-width: 0.8; stroke-linecap: square"/>
    </g>
    <g id="text_16">
     <!-- −140 -->
     <g transform="translate(54.126985 354.904475) scale(0.14 -0.14)">
      <use xlink:href="#DejaVuSans-2212"/>
      <use xlink:href="#DejaVuSans-31" x="83.789062"/>
      <use xlink:href="#DejaVuSans-34" x="147.412109"/>
      <use xlink:href="#DejaVuSans-30" x="211.035156"/>
     </g>
    </g>
   </g>
   <g id="xtick_15">
    <g id="line2d_18">
     <path d="M 99.455158 298.721289 
L 91.33065 300.125167 
" style="fill: none; stroke: #000000; stroke-width: 0.8; stroke-linecap: square"/>
    </g>
    <g id="text_17">
     <!-- −60 -->
     <g transform="translate(56.916579 306.582158) scale(0.14 -0.14)">
      <defs>
       <path id="DejaVuSans-36" d="M 2113 2584 
Q 1688 2584 1439 2293 
Q 1191 2003 1191 1497 
Q 1191 994 1439 701 
Q 1688 409 2113 409 
Q 2538 409 2786 701 
Q 3034 994 3034 1497 
Q 3034 2003 2786 2293 
Q 2538 2584 2113 2584 
z
M 3366 4563 
L 3366 3988 
Q 3128 4100 2886 4159 
Q 2644 4219 2406 4219 
Q 1781 4219 1451 3797 
Q 1122 3375 1075 2522 
Q 1259 2794 1537 2939 
Q 1816 3084 2150 3084 
Q 2853 3084 3261 2657 
Q 3669 2231 3669 1497 
Q 3669 778 3244 343 
Q 2819 -91 2113 -91 
Q 1303 -91 875 529 
Q 447 1150 447 2328 
Q 447 3434 972 4092 
Q 1497 4750 2381 4750 
Q 2619 4750 2861 4703 
Q 3103 4656 3366 4563 
z
" transform="scale(0.015625)"/>
      </defs>
      <use xlink:href="#DejaVuSans-2212"/>
      <use xlink:href="#DejaVuSans-36" x="83.789062"/>
      <use xlink:href="#DejaVuSans-30" x="147.412109"/>
     </g>
    </g>
   </g>
   <g id="xtick_16">
    <g id="line2d_19">
     <path d="M 97.941095 249.698793 
L 89.763652 251.055643 
" style="fill: none; stroke: #000000; stroke-width: 0.8; stroke-linecap: square"/>
    </g>
    <g id="text_18">
     <!-- 20 -->
     <g transform="translate(61.097296 257.652743) scale(0.14 -0.14)">
      <use xlink:href="#DejaVuSans-32"/>
      <use xlink:href="#DejaVuSans-30" x="63.623047"/>
     </g>
    </g>
   </g>
   <g id="xtick_17">
    <g id="line2d_20">
     <path d="M 96.407846 200.0551 
L 88.176774 201.363613 
" style="fill: none; stroke: #000000; stroke-width: 0.8; stroke-linecap: square"/>
    </g>
    <g id="text_19">
     <!-- 100 -->
     <g transform="translate(54.937178 208.104718) scale(0.14 -0.14)">
      <use xlink:href="#DejaVuSans-31"/>
      <use xlink:href="#DejaVuSans-30" x="63.623047"/>
      <use xlink:href="#DejaVuSans-30" x="127.246094"/>
     </g>
    </g>
   </g>
   <g id="text_20">
    <!-- Z (m) -->
    <g transform="translate(38.507365 267.047387) rotate(-271.789022) scale(0.18 -0.18)">
     <defs>
      <path id="TimesNewRomanPSMT-5a" d="M 3681 4238 
L 897 256 
L 2634 256 
Q 3034 256 3248 431 
Q 3463 606 3628 1141 
L 3731 1122 
L 3531 0 
L 81 0 
L 81 116 
L 2800 3984 
L 1444 3984 
Q 1106 3984 954 3911 
Q 803 3838 723 3698 
Q 644 3559 578 3178 
L 459 3178 
L 547 4238 
L 3681 4238 
z
" transform="scale(0.015625)"/>
     </defs>
     <use xlink:href="#TimesNewRomanPSMT-5a"/>
     <use xlink:href="#TimesNewRomanPSMT-20" x="61.083984"/>
     <use xlink:href="#TimesNewRomanPSMT-28" x="86.083984"/>
     <use xlink:href="#TimesNewRomanPSMT-6d" x="119.384766"/>
     <use xlink:href="#TimesNewRomanPSMT-29" x="197.167969"/>
    </g>
   </g>
  </g>
  <g id="axes_1">
   <g id="line2d_21">
    <defs>
     <path id="m7c2a4d966c" d="M 0 -3 
L -0.673542 -0.927051 
L -2.85317 -0.927051 
L -1.089814 0.354102 
L -1.763356 2.427051 
L -0 1.145898 
L 1.763356 2.427051 
L 1.089814 0.354102 
L 2.85317 -0.927051 
L 0.673542 -0.927051 
z
" style="stroke: #ff0000; stroke-linejoin: bevel"/>
    </defs>
    <g clip-path="url(#p1bfce5afea)">
     <use xlink:href="#m7c2a4d966c" x="129.990243" y="283.746867" style="fill: #ff0000; stroke: #ff0000; stroke-linejoin: bevel"/>
    </g>
   </g>
   <g id="line2d_22">
    <path d="M 129.990243 283.746867 
L 134.759384 282.827754 
L 155.742973 278.908669 
L 161.320407 277.938981 
L 174.05693 275.454459 
L 182.511006 273.952144 
L 192.727066 272.476978 
L 204.045178 271.275716 
L 217.290388 269.992369 
L 230.241292 268.315803 
L 236.35239 268.177802 
L 246.038605 268.279354 
L 256.604937 268.213206 
L 260.653383 268.291786 
L 284.928272 268.182795 
L 305.028077 268.689008 
L 312.199542 269.425867 
L 315.873045 269.847781 
L 319.353188 270.369176 
L 337.31381 273.287052 
L 338.255052 273.508225 
L 339.168624 273.607583 
L 344.876657 275.20536 
L 350.246819 277.070937 
L 371.068545 284.316608 
L 382.831381 287.808428 
L 384.621677 288.120512 
L 388.148762 289.08697 
L 389.850784 289.508771 
L 392.373146 290.288544 
L 395.777117 291.167349 
L 398.317222 291.887213 
L 400.857116 292.521506 
L 417.2612 296.73474 
L 418.010199 297.04716 
L 418.762521 297.162042 
L 420.262875 297.735816 
L 421.787656 298.26855 
L 424.814418 299.446091 
L 428.664417 300.746788 
L 431.192955 301.472161 
L 434.921967 302.345248 
L 439.93819 303.289808 
L 456.848254 305.89633 
L 461.672608 306.50296 
L 475.935467 307.869146 
L 482.013048 308.68855 
L 484.330009 308.895631 
L 489.015728 309.274629 
L 492.533038 309.532647 
L 494.883931 309.77299 
L 497.247762 309.844292 
L 499.657962 309.985745 
L 501.992232 310.20996 
L 507.789291 310.884088 
L 514.534953 311.854939 
L 528.240396 314.516291 
L 536.209362 316.116574 
L 538.949848 316.394833 
L 545.966542 316.330268 
L 552.008344 315.888173 
L 552.942887 315.811279 
L 556.068674 315.215677 
L 559.68138 314.461599 
L 562.660127 313.814349 
L 568.396918 313.000696 
L 571.526247 313.01749 
L 573.479166 313.189813 
L 576.125773 313.706536 
L 577.785202 314.136222 
L 577.785202 314.136222 
" clip-path="url(#p1bfce5afea)" style="fill: none; stroke-dasharray: 10.175,4.4; stroke-dashoffset: 0; stroke: #808a87; stroke-width: 2.75"/>
   </g>
   <g id="line2d_23">
    <path d="M 129.990243 283.746867 
L 129.955667 283.747912 
L 130.12973 283.683663 
L 131.237848 283.49878 
L 132.422569 283.31079 
L 135.195589 282.86622 
L 141.097632 281.650131 
L 142.542336 281.370903 
L 144.247864 281.049728 
L 145.515992 280.874886 
L 152.330302 279.692184 
L 164.416548 277.667918 
L 167.489518 277.222786 
L 169.849925 276.866449 
L 172.577713 276.589013 
L 176.664798 276.194133 
L 179.031725 276.02582 
L 181.080774 275.814767 
L 183.578564 275.678467 
L 193.03774 275.751588 
L 207.986243 276.354632 
L 209.785573 276.236729 
L 211.551305 276.209609 
L 212.855395 276.188291 
L 217.313489 276.089874 
L 220.421083 276.452293 
L 222.852468 276.839796 
L 227.897862 277.763962 
L 230.268072 278.212718 
L 237.427823 279.702639 
L 241.065519 280.570112 
L 244.299364 281.293346 
L 259.972217 284.423525 
L 263.33985 285.18807 
L 270.002831 286.545279 
L 277.222357 288.283046 
L 281.415365 289.834216 
L 285.136113 291.290323 
L 286.573064 291.893395 
L 308.65531 302.423681 
L 312.306248 304.386136 
L 313.267509 305.016675 
L 324.86577 312.79311 
L 327.007292 314.144436 
L 332.857637 317.781355 
L 340.453567 322.341514 
L 358.987156 333.353162 
L 368.771389 339.817861 
L 371.170132 341.522455 
L 375.111327 344.342732 
L 378.107394 346.597326 
L 381.001955 349.113146 
L 387.785383 355.199615 
L 390.393267 357.059309 
L 392.277076 358.191287 
L 400.25031 362.740228 
L 404.074511 365.075241 
L 404.914095 365.590024 
L 408.014928 367.23719 
L 409.216543 367.824831 
L 412.454135 369.582506 
L 415.493836 370.705662 
L 418.138022 371.693795 
L 421.7626 373.042869 
L 424.167002 373.832804 
L 427.415576 375.182664 
L 429.464307 376.10755 
L 432.408529 377.254 
L 433.757758 377.730002 
L 442.398586 380.337582 
L 443.315092 380.663565 
L 444.632273 381.143503 
L 445.512196 381.393347 
L 446.61089 381.873952 
L 448.966466 382.859213 
L 457.350471 387.266795 
L 460.363723 389.064573 
L 463.314855 390.826177 
L 468.357283 394.182105 
L 471.982607 395.833282 
L 472.635234 395.979488 
L 473.257377 396.119971 
L 476.383166 396.288093 
L 477.143325 396.225315 
L 478.47562 396.124946 
L 482.323385 395.32628 
L 484.836604 394.238948 
L 485.270291 393.915889 
L 489.049282 391.32842 
L 489.753196 390.810258 
L 491.211583 389.727052 
L 491.589654 389.51401 
L 492.116189 389.210976 
L 492.615322 388.970771 
L 494.151831 388.459999 
L 496.173844 388.600869 
L 497.189783 389.010431 
L 497.691913 389.33815 
L 499.54692 390.714515 
L 501.27939 392.39913 
L 501.27939 392.39913 
" clip-path="url(#p1bfce5afea)" style="fill: none; stroke: #0000ff; stroke-width: 2; stroke-linecap: square"/>
   </g>
   <g id="line2d_24">
    <path d="M 129.990243 283.746867 
L 129.959562 283.746869 
L 130.127677 283.730131 
L 131.624563 283.489319 
L 134.733351 283.003529 
L 135.248876 282.952297 
L 137.895203 282.543289 
L 138.055078 282.534738 
L 144.017261 281.585112 
L 169.9764 277.846425 
L 169.9764 277.846425 
L 172.491681 277.454465 
L 184.322543 275.884802 
L 185.238784 275.804882 
L 191.712528 275.073587 
L 195.789981 274.789702 
L 219.202417 273.519451 
L 219.202417 273.519451 
L 219.980199 273.440508 
L 227.890842 272.715856 
L 229.796185 272.573761 
L 229.98521 272.737721 
L 231.900536 272.621433 
L 233.164493 272.659851 
L 252.732724 273.695121 
L 258.547455 274.046719 
L 259.490525 274.151831 
L 267.398066 274.461828 
L 271.711641 274.643868 
L 277.261818 274.889693 
L 282.015233 275.02093 
L 283.666403 274.977788 
L 284.058408 274.992156 
L 284.349615 275.32427 
L 287.047129 275.623086 
L 289.869521 275.843373 
L 290.801172 275.852283 
L 294.55264 276.154059 
L 301.605708 276.691099 
L 308.754202 277.687617 
L 313.363542 278.54751 
L 327.751426 281.89406 
L 337.376509 284.330327 
L 337.376509 284.330327 
L 339.511908 284.93695 
L 340.271353 285.134962 
L 340.271353 285.134962 
L 343.867142 286.59761 
L 346.429156 287.712701 
L 352.340599 290.438593 
L 353.285863 290.8795 
L 354.145508 291.262277 
L 358.174301 293.033441 
L 363.53822 295.444836 
L 364.514958 295.900391 
L 366.195985 296.622382 
L 367.669632 297.329283 
L 368.524864 297.608511 
L 370.231434 298.304524 
L 375.090818 300.156485 
L 377.019348 300.858826 
L 378.470411 301.474657 
L 379.987593 302.074109 
L 381.149133 302.520648 
L 382.289578 302.913803 
L 386.0766 304.192113 
L 389.110065 305.30961 
L 390.159121 305.708645 
L 403.205085 310.369648 
L 404.680226 310.87535 
L 409.05457 312.430904 
L 409.68242 312.580671 
L 411.172317 313.150675 
L 413.701011 314.001701 
L 414.611528 314.368013 
L 416.598521 315.131433 
L 417.011064 315.361944 
L 418.022028 315.460538 
L 418.232318 315.477406 
L 418.352272 315.710498 
L 418.966156 315.728339 
L 419.080186 316.12206 
L 419.705492 316.150641 
L 419.888386 316.475628 
L 420.516051 316.554368 
L 420.516051 316.554368 
L 420.837639 316.82577 
L 421.254277 316.856808 
L 421.388863 317.199203 
L 422.067662 317.286128 
L 422.160485 317.589103 
L 422.802123 317.647749 
L 422.910846 317.935867 
L 422.910846 317.935867 
L 423.412088 317.987819 
L 423.662128 318.364945 
L 424.307754 318.379869 
L 424.440382 318.697023 
L 424.859304 318.726914 
L 425.198618 319.032927 
L 425.198618 319.032927 
L 425.785747 319.054777 
L 425.977069 319.389519 
L 426.648004 319.405096 
L 426.746371 319.738353 
L 427.38902 319.755248 
L 427.518134 320.062667 
L 428.180635 320.07185 
L 428.374011 320.394046 
L 429.04677 320.407838 
L 429.194285 320.743244 
L 429.922084 320.75629 
L 430.099146 321.060438 
L 430.822296 321.080766 
L 430.956155 321.392368 
L 431.740868 321.408948 
L 431.879945 321.689512 
L 432.669229 321.671306 
L 432.854241 321.985889 
L 433.642165 321.959425 
L 433.779039 322.273932 
L 434.573716 322.272174 
L 434.766785 322.537379 
L 435.571564 322.535653 
L 435.782797 322.819178 
L 436.598856 322.804354 
L 436.802348 323.097385 
L 437.665355 323.108424 
L 437.759697 323.379599 
L 438.560512 323.405792 
L 438.835932 323.648944 
L 439.685369 323.663203 
L 439.845333 323.89794 
L 440.605235 323.929607 
L 440.882508 324.172174 
L 441.675403 324.260347 
L 441.898771 324.440314 
L 442.660665 324.506117 
L 443.241859 324.713259 
L 443.76677 324.767754 
L 444.036353 324.939303 
L 444.860443 325.018003 
L 445.015974 325.202405 
L 445.798592 325.285016 
L 446.380804 325.485712 
L 446.944646 325.5404 
L 447.173415 325.695406 
L 447.928348 325.801889 
L 448.130968 325.954106 
L 449.952143 326.29294 
L 450.4389 326.485316 
L 453.124514 326.984686 
L 453.739945 327.156911 
L 454.314901 327.207876 
L 454.540496 327.364331 
L 456.500205 327.713906 
L 457.053404 327.897706 
L 458.809287 328.193955 
L 459.472772 328.359078 
L 460.083978 328.394571 
L 460.398564 328.547833 
L 462.773224 328.849408 
L 463.062692 329.008551 
L 465.3842 329.229331 
L 465.741972 329.412994 
L 466.69943 329.469621 
L 467.033304 329.654467 
L 468.040262 329.705571 
L 468.292919 329.86497 
L 473.130324 330.479232 
L 473.421275 330.63899 
L 475.651296 330.911023 
L 475.956352 331.07273 
L 476.857195 331.133064 
L 477.216641 331.327329 
L 478.181873 331.417879 
L 478.427174 331.583976 
L 479.305491 331.63169 
L 479.62976 331.82374 
L 480.539166 331.905021 
L 480.766241 332.057857 
L 483.952523 332.433363 
L 484.528518 332.555125 
L 485.164415 332.586741 
L 485.427406 332.735865 
L 487.51404 332.914719 
L 487.724137 333.072851 
L 489.802628 333.222533 
L 490.064616 333.35976 
L 490.928057 333.384536 
L 491.197119 333.518938 
L 492.131986 333.570803 
L 492.650452 333.705799 
L 493.192378 333.734839 
L 493.762203 333.907481 
L 495.57348 334.004938 
L 495.854172 334.182282 
L 499.210439 334.40341 
L 499.446084 334.543438 
L 504.889393 335.376193 
L 505.496407 335.512837 
L 506.090967 335.563438 
L 506.347601 335.731053 
L 508.310252 336.026801 
L 508.595428 336.187906 
L 509.477069 336.280888 
L 509.703112 336.425594 
L 510.840919 336.646611 
L 512.801338 337.00266 
L 513.329337 337.17762 
L 515.026756 337.512039 
L 515.554012 337.699922 
L 516.084253 337.766442 
L 516.64539 337.968275 
L 518.256409 338.289232 
L 518.760692 338.459416 
L 519.270331 338.523194 
L 519.759814 338.69673 
L 520.237077 338.772113 
L 520.742171 338.988467 
L 521.198692 339.032349 
L 521.736627 339.206923 
L 522.252712 339.27832 
L 522.39088 339.429645 
L 523.956044 339.783479 
L 524.42956 339.977313 
L 525.643721 340.307487 
L 525.876463 340.461408 
L 526.537891 340.561611 
L 526.730374 340.736251 
L 528.227261 341.090772 
L 528.227261 341.090772 
L 529.286216 341.530425 
L 530.920745 341.897529 
L 531.278033 342.0625 
L 532.629576 342.345515 
L 533.073677 342.527227 
L 535.329094 342.898666 
L 535.556092 343.025055 
L 537.16726 343.184155 
L 537.558582 343.297039 
L 538.850519 343.293592 
L 539.227188 343.403816 
L 539.659619 343.354417 
L 540.154783 343.452384 
L 540.506565 343.400337 
L 540.924444 343.456749 
L 541.281176 343.42103 
L 541.975913 343.511488 
L 544.685006 343.46941 
L 548.412177 343.307282 
L 549.937486 343.118891 
L 552.27196 342.859453 
L 552.616237 342.735786 
L 553.873061 342.441967 
L 555.993329 341.907223 
L 561.695875 340.482733 
L 562.380084 340.368924 
L 563.357659 340.132925 
L 564.004827 340.044137 
L 564.48469 340.034704 
L 564.705094 339.932171 
L 566.098881 339.7381 
L 566.705358 339.811986 
L 567.230902 339.775777 
L 568.944261 339.795138 
L 573.003146 340.592119 
L 575.796119 341.605544 
L 576.013256 341.697222 
L 576.013256 341.697222 
" clip-path="url(#p1bfce5afea)" style="fill: none; stroke: #aa00ff; stroke-width: 2; stroke-linecap: square"/>
   </g>
   <g id="line2d_25">
    <path d="M 129.990243 283.746867 
L 129.973398 283.75355 
L 130.134234 283.740845 
L 140.339863 282.348213 
L 142.667345 281.987073 
L 150.033166 280.877235 
L 157.170862 280.10694 
L 172.760401 277.953253 
L 185.070437 276.623402 
L 186.645739 276.45034 
L 187.558817 276.338098 
L 193.821188 275.82121 
L 197.439994 275.642672 
L 213.397633 274.755537 
L 213.956883 274.68833 
L 214.83954 274.709579 
L 215.623453 274.608961 
L 218.856837 274.116881 
L 222.171253 273.88991 
L 223.428203 273.719827 
L 224.584135 273.548001 
L 225.859767 273.345989 
L 226.367178 273.355399 
L 227.166674 273.137244 
L 236.881221 273.427031 
L 253.033823 272.795688 
L 255.315776 272.761005 
L 258.222135 272.628557 
L 271.114584 272.144164 
L 272.77728 272.10963 
L 295.587595 271.558531 
L 297.690877 271.416967 
L 298.497734 271.339658 
L 299.939731 271.223454 
L 302.896845 271.161615 
L 303.809074 271.129499 
L 328.068668 270.706253 
L 328.829681 270.646138 
L 334.211606 270.387967 
L 340.981616 270.408635 
L 342.286968 270.416096 
L 344.275344 270.461079 
L 346.639152 270.565815 
L 347.579151 270.55996 
L 349.164026 270.546105 
L 350.504838 270.55083 
L 351.154756 270.507373 
L 357.243692 270.412414 
L 357.89843 270.41322 
L 358.832014 270.443579 
L 360.2731 270.355371 
L 368.710402 269.911323 
L 369.724754 269.880598 
L 374.144175 269.801214 
L 375.179644 269.711296 
L 376.75576 269.713025 
L 379.4218 269.573088 
L 380.0851 269.513397 
L 380.807021 269.529083 
L 401.375009 267.990238 
L 402.418582 267.906553 
L 405.82989 267.627463 
L 406.825209 267.509212 
L 410.196545 267.343321 
L 413.288926 266.997061 
L 413.887296 266.858379 
L 416.091401 266.630623 
L 416.892153 266.53386 
L 418.279589 266.429837 
L 418.89134 266.394745 
L 420.1215 266.269243 
L 425.012175 265.783982 
L 427.224015 265.653461 
L 428.378861 265.544383 
L 429.842281 265.47801 
L 435.120059 265.289679 
L 436.163216 265.292633 
L 438.508232 265.237909 
L 442.913813 265.169837 
L 444.6063 265.17464 
L 446.270398 265.204476 
L 449.600132 265.182128 
L 472.482724 265.394173 
L 481.601987 265.810709 
L 487.429409 266.213308 
L 487.961346 266.284544 
L 494.478182 266.717328 
L 495.318645 266.800498 
L 496.707356 266.863513 
L 504.385911 267.191344 
L 506.01611 267.221875 
L 507.83141 267.329199 
L 509.187389 267.41329 
L 511.606032 267.511162 
L 512.712883 267.49186 
L 520.161352 267.747566 
L 521.799514 267.843868 
L 524.137047 267.990274 
L 529.692585 268.428122 
L 540.311513 270.194407 
L 543.022548 270.758919 
L 546.795481 271.688581 
L 547.276205 271.876022 
L 547.765465 271.965143 
L 548.212087 272.114688 
L 549.519694 272.560327 
L 552.620371 273.70715 
L 557.795204 275.384408 
L 562.564815 276.02529 
L 563.968445 275.975518 
L 565.573109 275.948215 
L 567.507636 275.919637 
L 568.372216 275.859918 
L 568.372216 275.859918 
" clip-path="url(#p1bfce5afea)" style="fill: none; stroke: #ff9c00; stroke-width: 2; stroke-linecap: square"/>
   </g>
   <g id="line2d_26">
    <path d="M 129.990243 283.746867 
L 129.971349 283.749729 
L 130.177993 283.725014 
L 131.686397 283.579852 
L 139.957091 282.266957 
L 141.731412 282.000958 
L 147.375436 281.097831 
L 154.739719 280.191881 
L 164.470702 278.925677 
L 180.562723 276.555199 
L 188.434855 275.720881 
L 192.903353 275.302609 
L 196.744062 275.027161 
L 202.672597 274.658373 
L 217.809489 273.855835 
L 219.13372 273.693137 
L 222.727391 273.340456 
L 224.350429 273.194838 
L 226.741435 272.974644 
L 230.289053 272.737576 
L 232.939521 272.792326 
L 233.842736 272.851791 
L 234.524876 272.788447 
L 235.741347 272.887876 
L 251.673381 273.619577 
L 253.317221 273.676699 
L 257.590689 273.870301 
L 259.253026 273.985808 
L 261.997081 274.0702 
L 265.057282 274.16989 
L 282.550059 274.756068 
L 285.411298 274.950995 
L 286.320386 275.018931 
L 287.744231 275.07969 
L 294.02419 275.500241 
L 294.976941 275.453386 
L 304.534515 276.208675 
L 305.118125 276.122657 
L 305.715645 276.265992 
L 306.282947 276.408838 
L 307.147181 276.398783 
L 307.781932 276.487106 
L 308.628008 276.746709 
L 310.477338 276.931896 
L 312.316587 277.266974 
L 313.56565 277.416284 
L 315.07624 277.631113 
L 315.929516 277.835935 
L 317.129082 278.012083 
L 317.976797 278.211991 
L 318.854995 278.349196 
L 320.005091 278.573695 
L 326.597086 279.787472 
L 328.971239 280.216784 
L 329.741222 280.43925 
L 330.552925 280.579749 
L 331.328893 280.719977 
L 331.874234 280.754575 
L 333.175076 281.099264 
L 334.981369 281.434897 
L 340.840005 282.761882 
L 341.208347 282.900326 
L 341.987808 283.044808 
L 342.560058 283.296201 
L 346.710025 284.776975 
L 356.883317 288.655268 
L 358.250143 289.108213 
L 359.165071 289.44688 
L 359.852608 289.652025 
L 360.522741 289.921994 
L 361.442379 290.271846 
L 365.149722 291.685998 
L 365.846712 291.915125 
L 366.765197 292.250285 
L 368.082161 292.782216 
L 368.551848 292.904082 
L 370.082525 293.495381 
L 370.785094 293.633912 
L 371.207144 293.807543 
L 371.655997 293.92022 
L 372.286617 294.144149 
L 373.189464 294.37002 
L 382.183105 297.246109 
L 382.830847 297.445782 
L 383.506095 297.564362 
L 386.208786 298.326523 
L 386.854384 298.482464 
L 389.030164 299.117637 
L 390.269116 299.489158 
L 403.851678 303.320093 
L 406.937312 304.151802 
L 410.516078 305.135494 
L 411.281934 305.333673 
L 413.441135 305.914898 
L 416.055247 306.658174 
L 420.022028 307.876034 
L 426.779085 310.459602 
L 431.501994 311.967695 
L 434.034315 312.633162 
L 438.492557 313.612999 
L 441.339051 314.143057 
L 443.170953 314.52799 
L 446.846974 315.195223 
L 451.31073 315.998425 
L 453.975964 316.442508 
L 459.94924 317.417919 
L 463.808844 317.949306 
L 466.106456 318.267357 
L 467.147 318.34974 
L 468.420603 318.553522 
L 472.957591 319.05581 
L 475.482882 319.354571 
L 476.416405 319.502098 
L 477.371481 319.633232 
L 478.594669 319.836039 
L 482.486552 320.481295 
L 486.860237 320.989639 
L 488.059341 321.144899 
L 493.560705 321.740384 
L 494.408458 321.859822 
L 495.317471 321.942727 
L 495.933233 321.961619 
L 496.540545 321.979601 
L 497.357032 322.151359 
L 498.248027 322.124359 
L 508.99734 323.581865 
L 511.277734 323.956825 
L 512.672095 324.181804 
L 515.717348 324.799798 
L 517.936397 325.238314 
L 520.873952 325.795766 
L 524.453536 326.580671 
L 536.518821 329.407113 
L 537.202029 329.517795 
L 537.886231 329.615532 
L 538.782459 329.703004 
L 539.916199 329.825993 
L 540.544567 329.841605 
L 541.18062 329.913068 
L 542.400713 329.919436 
L 543.979357 329.963271 
L 549.574794 329.949109 
L 553.685925 329.670307 
L 554.31432 329.577434 
L 554.896828 329.544834 
L 555.35857 329.428235 
L 555.868902 329.359474 
L 556.395305 329.306053 
L 556.688564 329.271933 
L 557.159412 329.112663 
L 558.38613 328.988424 
L 559.39694 328.797576 
L 560.969299 328.535707 
L 561.745042 328.440997 
L 565.881075 327.914879 
L 566.260121 327.915611 
L 568.243344 327.769222 
L 568.844101 327.819751 
L 571.021347 327.886057 
L 571.978428 327.981582 
L 571.978428 327.981582 
" clip-path="url(#p1bfce5afea)" style="fill: none; stroke: #ff0000; stroke-width: 2; stroke-linecap: square"/>
   </g>
   <g id="line2d_27">
    <path d="M 129.990243 283.746867 
L 141.763154 281.950238 
L 151.588218 280.535722 
L 167.36478 278.430654 
L 174.87943 277.280558 
L 180.850534 276.462015 
L 192.230588 275.303512 
L 205.960693 274.511727 
L 211.678869 274.240701 
L 226.681471 273.034238 
L 228.594374 272.857428 
L 231.956106 272.860242 
L 238.364494 273.164769 
L 242.544604 273.406209 
L 272.143266 274.582521 
L 277.707819 274.803217 
L 285.347408 275.231599 
L 305.324601 276.640928 
L 308.837206 277.139566 
L 320.652835 279.224042 
L 325.051469 280.103343 
L 329.25347 280.962538 
L 339.964311 283.27744 
L 348.374823 286.352539 
L 352.913296 288.208825 
L 358.236203 290.273224 
L 360.078838 290.954609 
L 368.253993 294.191063 
L 370.881935 295.087912 
L 381.745524 298.735634 
L 384.428563 299.455204 
L 389.590063 301.018246 
L 391.291749 301.580727 
L 393.847093 302.339018 
L 397.249163 303.418421 
L 400.622369 304.373987 
L 419.25828 310.01641 
L 423.0678 311.587281 
L 424.585313 312.206365 
L 429.309469 313.887192 
L 432.922099 314.937133 
L 438.87934 316.31238 
L 444.050973 317.347986 
L 458.02333 319.983776 
L 475.967682 322.497596 
L 481.94527 323.483739 
L 486.627344 324.121528 
L 502.941549 326.025338 
L 513.149425 327.858917 
L 523.435323 330.09608 
L 534.749571 332.92295 
L 538.357945 333.394147 
L 541.265065 333.525789 
L 544.847378 333.598452 
L 550.809898 333.426759 
L 551.722565 333.381824 
L 553.357869 333.169922 
L 556.253129 332.695656 
L 563.196219 331.652522 
L 565.818399 331.46268 
L 567.679839 331.458626 
L 570.868385 331.686868 
L 572.637902 332.018941 
L 574.42686 332.454287 
L 575.306815 332.722649 
L 575.306815 332.722649 
" clip-path="url(#p1bfce5afea)" style="fill: none; stroke: #00ff00; stroke-width: 2; stroke-linecap: square"/>
   </g>
   <g id="Path3DCollection_1">
    <defs>
     <path id="m0d4b060a37" d="M 0 -5 
L -1.12257 -1.545085 
L -4.755283 -1.545085 
L -1.816356 0.59017 
L -2.938926 4.045085 
L -0 1.90983 
L 2.938926 4.045085 
L 1.816356 0.59017 
L 4.755283 -1.545085 
L 1.12257 -1.545085 
z
" style="stroke: #ff0000"/>
    </defs>
    <g clip-path="url(#p1bfce5afea)">
     <use xlink:href="#m0d4b060a37" x="129.990243" y="283.746867" style="fill: #ff0000; stroke: #ff0000"/>
    </g>
   </g>
   <g id="legend_1">
    <g id="patch_6">
     <path d="M 63.44125 107.5846 
L 600.75875 107.5846 
Q 603.95875 107.5846 603.95875 104.3846 
L 603.95875 60.7396 
Q 603.95875 57.5396 600.75875 57.5396 
L 63.44125 57.5396 
Q 60.24125 57.5396 60.24125 60.7396 
L 60.24125 104.3846 
Q 60.24125 107.5846 63.44125 107.5846 
z
" style="fill: #ffffff; opacity: 0.8; stroke: #cccccc; stroke-linejoin: miter"/>
    </g>
    <g id="line2d_28">
     <g>
      <use xlink:href="#m7c2a4d966c" x="82.64125" y="69.5396" style="fill: #ff0000; stroke: #ff0000; stroke-linejoin: bevel"/>
     </g>
    </g>
    <g id="text_21">
     <!-- Start -->
     <g transform="translate(111.44125 75.1396) scale(0.16 -0.16)">
      <defs>
       <path id="TimesNewRomanPSMT-53" d="M 2934 4334 
L 2934 2869 
L 2819 2869 
Q 2763 3291 2617 3541 
Q 2472 3791 2203 3937 
Q 1934 4084 1647 4084 
Q 1322 4084 1109 3886 
Q 897 3688 897 3434 
Q 897 3241 1031 3081 
Q 1225 2847 1953 2456 
Q 2547 2138 2764 1967 
Q 2981 1797 3098 1565 
Q 3216 1334 3216 1081 
Q 3216 600 2842 251 
Q 2469 -97 1881 -97 
Q 1697 -97 1534 -69 
Q 1438 -53 1133 45 
Q 828 144 747 144 
Q 669 144 623 97 
Q 578 50 556 -97 
L 441 -97 
L 441 1356 
L 556 1356 
Q 638 900 775 673 
Q 913 447 1195 297 
Q 1478 147 1816 147 
Q 2206 147 2432 353 
Q 2659 559 2659 841 
Q 2659 997 2573 1156 
Q 2488 1316 2306 1453 
Q 2184 1547 1640 1851 
Q 1097 2156 867 2337 
Q 638 2519 519 2737 
Q 400 2956 400 3219 
Q 400 3675 750 4004 
Q 1100 4334 1641 4334 
Q 1978 4334 2356 4169 
Q 2531 4091 2603 4091 
Q 2684 4091 2736 4139 
Q 2788 4188 2819 4334 
L 2934 4334 
z
" transform="scale(0.015625)"/>
       <path id="TimesNewRomanPSMT-74" d="M 1031 3803 
L 1031 2863 
L 1700 2863 
L 1700 2644 
L 1031 2644 
L 1031 788 
Q 1031 509 1111 412 
Q 1191 316 1316 316 
Q 1419 316 1516 380 
Q 1613 444 1666 569 
L 1788 569 
Q 1678 263 1478 108 
Q 1278 -47 1066 -47 
Q 922 -47 784 33 
Q 647 113 581 261 
Q 516 409 516 719 
L 516 2644 
L 63 2644 
L 63 2747 
Q 234 2816 414 2980 
Q 594 3144 734 3369 
Q 806 3488 934 3803 
L 1031 3803 
z
" transform="scale(0.015625)"/>
       <path id="TimesNewRomanPSMT-61" d="M 1822 413 
Q 1381 72 1269 19 
Q 1100 -59 909 -59 
Q 613 -59 420 144 
Q 228 347 228 678 
Q 228 888 322 1041 
Q 450 1253 767 1440 
Q 1084 1628 1822 1897 
L 1822 2009 
Q 1822 2438 1686 2597 
Q 1550 2756 1291 2756 
Q 1094 2756 978 2650 
Q 859 2544 859 2406 
L 866 2225 
Q 866 2081 792 2003 
Q 719 1925 600 1925 
Q 484 1925 411 2006 
Q 338 2088 338 2228 
Q 338 2497 613 2722 
Q 888 2947 1384 2947 
Q 1766 2947 2009 2819 
Q 2194 2722 2281 2516 
Q 2338 2381 2338 1966 
L 2338 994 
Q 2338 584 2353 492 
Q 2369 400 2405 369 
Q 2441 338 2488 338 
Q 2538 338 2575 359 
Q 2641 400 2828 588 
L 2828 413 
Q 2478 -56 2159 -56 
Q 2006 -56 1915 50 
Q 1825 156 1822 413 
z
M 1822 616 
L 1822 1706 
Q 1350 1519 1213 1441 
Q 966 1303 859 1153 
Q 753 1003 753 825 
Q 753 600 887 451 
Q 1022 303 1197 303 
Q 1434 303 1822 616 
z
" transform="scale(0.015625)"/>
       <path id="TimesNewRomanPSMT-72" d="M 1038 2947 
L 1038 2303 
Q 1397 2947 1775 2947 
Q 1947 2947 2059 2842 
Q 2172 2738 2172 2600 
Q 2172 2478 2090 2393 
Q 2009 2309 1897 2309 
Q 1788 2309 1652 2417 
Q 1516 2525 1450 2525 
Q 1394 2525 1328 2463 
Q 1188 2334 1038 2041 
L 1038 669 
Q 1038 431 1097 309 
Q 1138 225 1241 169 
Q 1344 113 1538 113 
L 1538 0 
L 72 0 
L 72 113 
Q 291 113 397 181 
Q 475 231 506 341 
Q 522 394 522 644 
L 522 1753 
Q 522 2253 501 2348 
Q 481 2444 426 2487 
Q 372 2531 291 2531 
Q 194 2531 72 2484 
L 41 2597 
L 906 2947 
L 1038 2947 
z
" transform="scale(0.015625)"/>
      </defs>
      <use xlink:href="#TimesNewRomanPSMT-53"/>
      <use xlink:href="#TimesNewRomanPSMT-74" x="55.615234"/>
      <use xlink:href="#TimesNewRomanPSMT-61" x="83.398438"/>
      <use xlink:href="#TimesNewRomanPSMT-72" x="127.783203"/>
      <use xlink:href="#TimesNewRomanPSMT-74" x="161.083984"/>
     </g>
    </g>
    <g id="patch_7">
     <path d="M 66.64125 97.7621 
L 98.64125 97.7621 
L 98.64125 86.5621 
L 66.64125 86.5621 
L 66.64125 97.7621 
z
" style="fill: none"/>
    </g>
    <g id="line2d_29">
     <path d="M 173.65875 69.5396 
L 189.65875 69.5396 
L 205.65875 69.5396 
" style="fill: none; stroke-dasharray: 10.175,4.4; stroke-dashoffset: 0; stroke: #808a87; stroke-width: 2.75"/>
    </g>
    <g id="text_22">
     <!-- GroundTruth -->
     <g transform="translate(218.45875 75.1396) scale(0.16 -0.16)">
      <defs>
       <path id="TimesNewRomanPSMT-47" d="M 3928 4334 
L 4038 2997 
L 3928 2997 
Q 3763 3497 3500 3750 
Q 3122 4116 2528 4116 
Q 1719 4116 1297 3475 
Q 944 2934 944 2188 
Q 944 1581 1178 1081 
Q 1413 581 1792 348 
Q 2172 116 2572 116 
Q 2806 116 3025 175 
Q 3244 234 3447 350 
L 3447 1575 
Q 3447 1894 3398 1992 
Q 3350 2091 3248 2142 
Q 3147 2194 2891 2194 
L 2891 2313 
L 4531 2313 
L 4531 2194 
L 4453 2194 
Q 4209 2194 4119 2031 
Q 4056 1916 4056 1575 
L 4056 278 
Q 3697 84 3347 -6 
Q 2997 -97 2569 -97 
Q 1341 -97 703 691 
Q 225 1281 225 2053 
Q 225 2613 494 3125 
Q 813 3734 1369 4063 
Q 1834 4334 2469 4334 
Q 2700 4334 2889 4296 
Q 3078 4259 3425 4131 
Q 3600 4066 3659 4066 
Q 3719 4066 3761 4120 
Q 3803 4175 3813 4334 
L 3928 4334 
z
" transform="scale(0.015625)"/>
       <path id="TimesNewRomanPSMT-6f" d="M 1600 2947 
Q 2250 2947 2644 2453 
Q 2978 2031 2978 1484 
Q 2978 1100 2793 706 
Q 2609 313 2286 112 
Q 1963 -88 1566 -88 
Q 919 -88 538 428 
Q 216 863 216 1403 
Q 216 1797 411 2186 
Q 606 2575 925 2761 
Q 1244 2947 1600 2947 
z
M 1503 2744 
Q 1338 2744 1170 2645 
Q 1003 2547 900 2300 
Q 797 2053 797 1666 
Q 797 1041 1045 587 
Q 1294 134 1700 134 
Q 2003 134 2200 384 
Q 2397 634 2397 1244 
Q 2397 2006 2069 2444 
Q 1847 2744 1503 2744 
z
" transform="scale(0.015625)"/>
       <path id="TimesNewRomanPSMT-75" d="M 2709 2863 
L 2709 1128 
Q 2709 631 2732 520 
Q 2756 409 2807 365 
Q 2859 322 2928 322 
Q 3025 322 3147 375 
L 3191 266 
L 2334 -88 
L 2194 -88 
L 2194 519 
Q 1825 119 1631 15 
Q 1438 -88 1222 -88 
Q 981 -88 804 51 
Q 628 191 559 409 
Q 491 628 491 1028 
L 491 2306 
Q 491 2509 447 2587 
Q 403 2666 317 2708 
Q 231 2750 6 2747 
L 6 2863 
L 1009 2863 
L 1009 947 
Q 1009 547 1148 422 
Q 1288 297 1484 297 
Q 1619 297 1789 381 
Q 1959 466 2194 703 
L 2194 2325 
Q 2194 2569 2105 2655 
Q 2016 2741 1734 2747 
L 1734 2863 
L 2709 2863 
z
" transform="scale(0.015625)"/>
       <path id="TimesNewRomanPSMT-6e" d="M 1034 2341 
Q 1538 2947 1994 2947 
Q 2228 2947 2397 2830 
Q 2566 2713 2666 2444 
Q 2734 2256 2734 1869 
L 2734 647 
Q 2734 375 2778 278 
Q 2813 200 2889 156 
Q 2966 113 3172 113 
L 3172 0 
L 1756 0 
L 1756 113 
L 1816 113 
Q 2016 113 2095 173 
Q 2175 234 2206 353 
Q 2219 400 2219 647 
L 2219 1819 
Q 2219 2209 2117 2386 
Q 2016 2563 1775 2563 
Q 1403 2563 1034 2156 
L 1034 647 
Q 1034 356 1069 288 
Q 1113 197 1189 155 
Q 1266 113 1500 113 
L 1500 0 
L 84 0 
L 84 113 
L 147 113 
Q 366 113 442 223 
Q 519 334 519 647 
L 519 1709 
Q 519 2225 495 2337 
Q 472 2450 423 2490 
Q 375 2531 294 2531 
Q 206 2531 84 2484 
L 38 2597 
L 900 2947 
L 1034 2947 
L 1034 2341 
z
" transform="scale(0.015625)"/>
       <path id="TimesNewRomanPSMT-64" d="M 2222 322 
Q 2013 103 1813 7 
Q 1613 -88 1381 -88 
Q 913 -88 563 304 
Q 213 697 213 1313 
Q 213 1928 600 2439 
Q 988 2950 1597 2950 
Q 1975 2950 2222 2709 
L 2222 3238 
Q 2222 3728 2198 3840 
Q 2175 3953 2125 3993 
Q 2075 4034 2000 4034 
Q 1919 4034 1784 3984 
L 1744 4094 
L 2597 4444 
L 2738 4444 
L 2738 1134 
Q 2738 631 2761 520 
Q 2784 409 2836 365 
Q 2888 322 2956 322 
Q 3041 322 3181 375 
L 3216 266 
L 2366 -88 
L 2222 -88 
L 2222 322 
z
M 2222 541 
L 2222 2016 
Q 2203 2228 2109 2403 
Q 2016 2578 1861 2667 
Q 1706 2756 1559 2756 
Q 1284 2756 1069 2509 
Q 784 2184 784 1559 
Q 784 928 1059 592 
Q 1334 256 1672 256 
Q 1956 256 2222 541 
z
" transform="scale(0.015625)"/>
       <path id="TimesNewRomanPSMT-54" d="M 3703 4238 
L 3750 3244 
L 3631 3244 
Q 3597 3506 3538 3619 
Q 3441 3800 3280 3886 
Q 3119 3972 2856 3972 
L 2259 3972 
L 2259 734 
Q 2259 344 2344 247 
Q 2463 116 2709 116 
L 2856 116 
L 2856 0 
L 1059 0 
L 1059 116 
L 1209 116 
Q 1478 116 1591 278 
Q 1659 378 1659 734 
L 1659 3972 
L 1150 3972 
Q 853 3972 728 3928 
Q 566 3869 450 3700 
Q 334 3531 313 3244 
L 194 3244 
L 244 4238 
L 3703 4238 
z
" transform="scale(0.015625)"/>
       <path id="TimesNewRomanPSMT-68" d="M 1041 4444 
L 1041 2350 
Q 1388 2731 1591 2839 
Q 1794 2947 1997 2947 
Q 2241 2947 2416 2812 
Q 2591 2678 2675 2391 
Q 2734 2191 2734 1659 
L 2734 647 
Q 2734 375 2778 275 
Q 2809 200 2884 156 
Q 2959 113 3159 113 
L 3159 0 
L 1753 0 
L 1753 113 
L 1819 113 
Q 2019 113 2097 173 
Q 2175 234 2206 353 
Q 2216 403 2216 647 
L 2216 1659 
Q 2216 2128 2167 2275 
Q 2119 2422 2012 2495 
Q 1906 2569 1756 2569 
Q 1603 2569 1437 2487 
Q 1272 2406 1041 2159 
L 1041 647 
Q 1041 353 1073 281 
Q 1106 209 1195 161 
Q 1284 113 1503 113 
L 1503 0 
L 84 0 
L 84 113 
Q 275 113 384 172 
Q 447 203 484 290 
Q 522 378 522 647 
L 522 3238 
Q 522 3728 498 3840 
Q 475 3953 426 3993 
Q 378 4034 297 4034 
Q 231 4034 84 3984 
L 41 4094 
L 897 4444 
L 1041 4444 
z
" transform="scale(0.015625)"/>
      </defs>
      <use xlink:href="#TimesNewRomanPSMT-47"/>
      <use xlink:href="#TimesNewRomanPSMT-72" x="72.216797"/>
      <use xlink:href="#TimesNewRomanPSMT-6f" x="105.517578"/>
      <use xlink:href="#TimesNewRomanPSMT-75" x="155.517578"/>
      <use xlink:href="#TimesNewRomanPSMT-6e" x="205.517578"/>
      <use xlink:href="#TimesNewRomanPSMT-64" x="255.517578"/>
      <use xlink:href="#TimesNewRomanPSMT-54" x="305.517578"/>
      <use xlink:href="#TimesNewRomanPSMT-72" x="363.101562"/>
      <use xlink:href="#TimesNewRomanPSMT-75" x="396.402344"/>
      <use xlink:href="#TimesNewRomanPSMT-74" x="446.402344"/>
      <use xlink:href="#TimesNewRomanPSMT-68" x="474.185547"/>
     </g>
    </g>
    <g id="line2d_30">
     <path d="M 173.65875 92.1621 
L 189.65875 92.1621 
L 205.65875 92.1621 
" style="fill: none; stroke: #0000ff; stroke-width: 2; stroke-linecap: square"/>
    </g>
    <g id="text_23">
     <!-- LOAM -->
     <g transform="translate(218.45875 97.7621) scale(0.16 -0.16)">
      <defs>
       <path id="TimesNewRomanPSMT-4c" d="M 3669 1172 
L 3772 1150 
L 3409 0 
L 128 0 
L 128 116 
L 288 116 
Q 556 116 672 291 
Q 738 391 738 753 
L 738 3488 
Q 738 3884 650 3984 
Q 528 4122 288 4122 
L 128 4122 
L 128 4238 
L 2047 4238 
L 2047 4122 
Q 1709 4125 1573 4059 
Q 1438 3994 1388 3894 
Q 1338 3794 1338 3416 
L 1338 753 
Q 1338 494 1388 397 
Q 1425 331 1503 300 
Q 1581 269 1991 269 
L 2300 269 
Q 2788 269 2984 341 
Q 3181 413 3343 595 
Q 3506 778 3669 1172 
z
" transform="scale(0.015625)"/>
       <path id="TimesNewRomanPSMT-4f" d="M 2341 4334 
Q 3166 4334 3770 3707 
Q 4375 3081 4375 2144 
Q 4375 1178 3765 540 
Q 3156 -97 2291 -97 
Q 1416 -97 820 525 
Q 225 1147 225 2134 
Q 225 3144 913 3781 
Q 1509 4334 2341 4334 
z
M 2281 4106 
Q 1713 4106 1369 3684 
Q 941 3159 941 2147 
Q 941 1109 1384 550 
Q 1725 125 2284 125 
Q 2881 125 3270 590 
Q 3659 1056 3659 2059 
Q 3659 3147 3231 3681 
Q 2888 4106 2281 4106 
z
" transform="scale(0.015625)"/>
       <path id="TimesNewRomanPSMT-41" d="M 2928 1419 
L 1288 1419 
L 1000 750 
Q 894 503 894 381 
Q 894 284 986 211 
Q 1078 138 1384 116 
L 1384 0 
L 50 0 
L 50 116 
Q 316 163 394 238 
Q 553 388 747 847 
L 2238 4334 
L 2347 4334 
L 3822 809 
Q 4000 384 4145 257 
Q 4291 131 4550 116 
L 4550 0 
L 2878 0 
L 2878 116 
Q 3131 128 3220 200 
Q 3309 272 3309 375 
Q 3309 513 3184 809 
L 2928 1419 
z
M 2841 1650 
L 2122 3363 
L 1384 1650 
L 2841 1650 
z
" transform="scale(0.015625)"/>
       <path id="TimesNewRomanPSMT-4d" d="M 2619 0 
L 981 3566 
L 981 734 
Q 981 344 1066 247 
Q 1181 116 1431 116 
L 1581 116 
L 1581 0 
L 106 0 
L 106 116 
L 256 116 
Q 525 116 638 278 
Q 706 378 706 734 
L 706 3503 
Q 706 3784 644 3909 
Q 600 4000 483 4061 
Q 366 4122 106 4122 
L 106 4238 
L 1306 4238 
L 2844 922 
L 4356 4238 
L 5556 4238 
L 5556 4122 
L 5409 4122 
Q 5138 4122 5025 3959 
Q 4956 3859 4956 3503 
L 4956 734 
Q 4956 344 5044 247 
Q 5159 116 5409 116 
L 5556 116 
L 5556 0 
L 3756 0 
L 3756 116 
L 3906 116 
Q 4178 116 4288 278 
Q 4356 378 4356 734 
L 4356 3566 
L 2722 0 
L 2619 0 
z
" transform="scale(0.015625)"/>
      </defs>
      <use xlink:href="#TimesNewRomanPSMT-4c"/>
      <use xlink:href="#TimesNewRomanPSMT-4f" x="61.083984"/>
      <use xlink:href="#TimesNewRomanPSMT-41" x="133.300781"/>
      <use xlink:href="#TimesNewRomanPSMT-4d" x="205.517578"/>
     </g>
    </g>
    <g id="line2d_31">
     <path d="M 334.32625 69.5396 
L 350.32625 69.5396 
L 366.32625 69.5396 
" style="fill: none; stroke: #aa00ff; stroke-width: 2; stroke-linecap: square"/>
    </g>
    <g id="text_24">
     <!-- LeGO-LOAM -->
     <g transform="translate(379.12625 75.1396) scale(0.16 -0.16)">
      <defs>
       <path id="TimesNewRomanPSMT-65" d="M 681 1784 
Q 678 1147 991 784 
Q 1303 422 1725 422 
Q 2006 422 2214 576 
Q 2422 731 2563 1106 
L 2659 1044 
Q 2594 616 2278 264 
Q 1963 -88 1488 -88 
Q 972 -88 605 314 
Q 238 716 238 1394 
Q 238 2128 614 2539 
Q 991 2950 1559 2950 
Q 2041 2950 2350 2633 
Q 2659 2316 2659 1784 
L 681 1784 
z
M 681 1966 
L 2006 1966 
Q 1991 2241 1941 2353 
Q 1863 2528 1708 2628 
Q 1553 2728 1384 2728 
Q 1125 2728 920 2526 
Q 716 2325 681 1966 
z
" transform="scale(0.015625)"/>
       <path id="TimesNewRomanPSMT-2d" d="M 259 1672 
L 1875 1672 
L 1875 1200 
L 259 1200 
L 259 1672 
z
" transform="scale(0.015625)"/>
      </defs>
      <use xlink:href="#TimesNewRomanPSMT-4c"/>
      <use xlink:href="#TimesNewRomanPSMT-65" x="61.083984"/>
      <use xlink:href="#TimesNewRomanPSMT-47" x="105.46875"/>
      <use xlink:href="#TimesNewRomanPSMT-4f" x="177.685547"/>
      <use xlink:href="#TimesNewRomanPSMT-2d" x="249.902344"/>
      <use xlink:href="#TimesNewRomanPSMT-4c" x="283.203125"/>
      <use xlink:href="#TimesNewRomanPSMT-4f" x="344.287109"/>
      <use xlink:href="#TimesNewRomanPSMT-41" x="416.503906"/>
      <use xlink:href="#TimesNewRomanPSMT-4d" x="488.720703"/>
     </g>
    </g>
    <g id="line2d_32">
     <path d="M 334.32625 92.1621 
L 350.32625 92.1621 
L 366.32625 92.1621 
" style="fill: none; stroke: #ff9c00; stroke-width: 2; stroke-linecap: square"/>
    </g>
    <g id="text_25">
     <!-- HDL-SLAM -->
     <g transform="translate(379.12625 97.7621) scale(0.16 -0.16)">
      <defs>
       <path id="TimesNewRomanPSMT-48" d="M 1316 2272 
L 3284 2272 
L 3284 3484 
Q 3284 3809 3244 3913 
Q 3213 3991 3113 4047 
Q 2978 4122 2828 4122 
L 2678 4122 
L 2678 4238 
L 4491 4238 
L 4491 4122 
L 4341 4122 
Q 4191 4122 4056 4050 
Q 3956 4000 3920 3898 
Q 3884 3797 3884 3484 
L 3884 750 
Q 3884 428 3925 325 
Q 3956 247 4053 191 
Q 4191 116 4341 116 
L 4491 116 
L 4491 0 
L 2678 0 
L 2678 116 
L 2828 116 
Q 3088 116 3206 269 
Q 3284 369 3284 750 
L 3284 2041 
L 1316 2041 
L 1316 750 
Q 1316 428 1356 325 
Q 1388 247 1488 191 
Q 1622 116 1772 116 
L 1925 116 
L 1925 0 
L 109 0 
L 109 116 
L 259 116 
Q 522 116 641 269 
Q 716 369 716 750 
L 716 3484 
Q 716 3809 675 3913 
Q 644 3991 547 4047 
Q 409 4122 259 4122 
L 109 4122 
L 109 4238 
L 1925 4238 
L 1925 4122 
L 1772 4122 
Q 1622 4122 1488 4050 
Q 1391 4000 1353 3898 
Q 1316 3797 1316 3484 
L 1316 2272 
z
" transform="scale(0.015625)"/>
       <path id="TimesNewRomanPSMT-44" d="M 109 0 
L 109 116 
L 269 116 
Q 538 116 650 288 
Q 719 391 719 750 
L 719 3488 
Q 719 3884 631 3984 
Q 509 4122 269 4122 
L 109 4122 
L 109 4238 
L 1834 4238 
Q 2784 4238 3279 4022 
Q 3775 3806 4076 3303 
Q 4378 2800 4378 2141 
Q 4378 1256 3841 663 
Q 3238 0 2003 0 
L 109 0 
z
M 1319 306 
Q 1716 219 1984 219 
Q 2709 219 3187 728 
Q 3666 1238 3666 2109 
Q 3666 2988 3187 3494 
Q 2709 4000 1959 4000 
Q 1678 4000 1319 3909 
L 1319 306 
z
" transform="scale(0.015625)"/>
      </defs>
      <use xlink:href="#TimesNewRomanPSMT-48"/>
      <use xlink:href="#TimesNewRomanPSMT-44" x="72.216797"/>
      <use xlink:href="#TimesNewRomanPSMT-4c" x="144.433594"/>
      <use xlink:href="#TimesNewRomanPSMT-2d" x="205.517578"/>
      <use xlink:href="#TimesNewRomanPSMT-53" x="238.818359"/>
      <use xlink:href="#TimesNewRomanPSMT-4c" x="294.433594"/>
      <use xlink:href="#TimesNewRomanPSMT-41" x="355.517578"/>
      <use xlink:href="#TimesNewRomanPSMT-4d" x="427.734375"/>
     </g>
    </g>
    <g id="line2d_33">
     <path d="M 503.54875 69.5396 
L 519.54875 69.5396 
L 535.54875 69.5396 
" style="fill: none; stroke: #ff0000; stroke-width: 2; stroke-linecap: square"/>
    </g>
    <g id="text_26">
     <!-- CT-ICP -->
     <g transform="translate(548.34875 75.1396) scale(0.16 -0.16)">
      <defs>
       <path id="TimesNewRomanPSMT-43" d="M 3853 4334 
L 3950 2894 
L 3853 2894 
Q 3659 3541 3300 3825 
Q 2941 4109 2438 4109 
Q 2016 4109 1675 3895 
Q 1334 3681 1139 3212 
Q 944 2744 944 2047 
Q 944 1472 1128 1050 
Q 1313 628 1683 403 
Q 2053 178 2528 178 
Q 2941 178 3256 354 
Q 3572 531 3950 1056 
L 4047 994 
Q 3728 428 3303 165 
Q 2878 -97 2294 -97 
Q 1241 -97 663 684 
Q 231 1266 231 2053 
Q 231 2688 515 3219 
Q 800 3750 1298 4042 
Q 1797 4334 2388 4334 
Q 2847 4334 3294 4109 
Q 3425 4041 3481 4041 
Q 3566 4041 3628 4100 
Q 3709 4184 3744 4334 
L 3853 4334 
z
" transform="scale(0.015625)"/>
       <path id="TimesNewRomanPSMT-49" d="M 1975 116 
L 1975 0 
L 159 0 
L 159 116 
L 309 116 
Q 572 116 691 269 
Q 766 369 766 750 
L 766 3488 
Q 766 3809 725 3913 
Q 694 3991 597 4047 
Q 459 4122 309 4122 
L 159 4122 
L 159 4238 
L 1975 4238 
L 1975 4122 
L 1822 4122 
Q 1563 4122 1444 3969 
Q 1366 3869 1366 3488 
L 1366 750 
Q 1366 428 1406 325 
Q 1438 247 1538 191 
Q 1672 116 1822 116 
L 1975 116 
z
" transform="scale(0.015625)"/>
       <path id="TimesNewRomanPSMT-50" d="M 1313 1984 
L 1313 750 
Q 1313 350 1400 253 
Q 1519 116 1759 116 
L 1922 116 
L 1922 0 
L 106 0 
L 106 116 
L 266 116 
Q 534 116 650 291 
Q 713 388 713 750 
L 713 3488 
Q 713 3888 628 3984 
Q 506 4122 266 4122 
L 106 4122 
L 106 4238 
L 1659 4238 
Q 2228 4238 2556 4120 
Q 2884 4003 3109 3725 
Q 3334 3447 3334 3066 
Q 3334 2547 2992 2222 
Q 2650 1897 2025 1897 
Q 1872 1897 1694 1919 
Q 1516 1941 1313 1984 
z
M 1313 2163 
Q 1478 2131 1606 2115 
Q 1734 2100 1825 2100 
Q 2150 2100 2386 2351 
Q 2622 2603 2622 3003 
Q 2622 3278 2509 3514 
Q 2397 3750 2190 3867 
Q 1984 3984 1722 3984 
Q 1563 3984 1313 3925 
L 1313 2163 
z
" transform="scale(0.015625)"/>
      </defs>
      <use xlink:href="#TimesNewRomanPSMT-43"/>
      <use xlink:href="#TimesNewRomanPSMT-54" x="66.699219"/>
      <use xlink:href="#TimesNewRomanPSMT-2d" x="118.658203"/>
      <use xlink:href="#TimesNewRomanPSMT-49" x="151.958984"/>
      <use xlink:href="#TimesNewRomanPSMT-43" x="185.259766"/>
      <use xlink:href="#TimesNewRomanPSMT-50" x="251.958984"/>
     </g>
    </g>
    <g id="line2d_34">
     <path d="M 503.54875 92.1621 
L 519.54875 92.1621 
L 535.54875 92.1621 
" style="fill: none; stroke: #00ff00; stroke-width: 2; stroke-linecap: square"/>
    </g>
    <g id="text_27">
     <!-- ROLO -->
     <g transform="translate(548.34875 97.7621) scale(0.16 -0.16)">
      <defs>
       <path id="TimesNewRomanPSMT-52" d="M 4325 0 
L 3194 0 
L 1759 1981 
Q 1600 1975 1500 1975 
Q 1459 1975 1412 1976 
Q 1366 1978 1316 1981 
L 1316 750 
Q 1316 350 1403 253 
Q 1522 116 1759 116 
L 1925 116 
L 1925 0 
L 109 0 
L 109 116 
L 269 116 
Q 538 116 653 291 
Q 719 388 719 750 
L 719 3488 
Q 719 3888 631 3984 
Q 509 4122 269 4122 
L 109 4122 
L 109 4238 
L 1653 4238 
Q 2328 4238 2648 4139 
Q 2969 4041 3192 3777 
Q 3416 3513 3416 3147 
Q 3416 2756 3161 2468 
Q 2906 2181 2372 2063 
L 3247 847 
Q 3547 428 3762 290 
Q 3978 153 4325 116 
L 4325 0 
z
M 1316 2178 
Q 1375 2178 1419 2176 
Q 1463 2175 1491 2175 
Q 2097 2175 2405 2437 
Q 2713 2700 2713 3106 
Q 2713 3503 2464 3751 
Q 2216 4000 1806 4000 
Q 1625 4000 1316 3941 
L 1316 2178 
z
" transform="scale(0.015625)"/>
      </defs>
      <use xlink:href="#TimesNewRomanPSMT-52"/>
      <use xlink:href="#TimesNewRomanPSMT-4f" x="66.699219"/>
      <use xlink:href="#TimesNewRomanPSMT-4c" x="138.916016"/>
      <use xlink:href="#TimesNewRomanPSMT-4f" x="200"/>
     </g>
    </g>
   </g>
  </g>
 </g>
 <defs>
  <clipPath id="p1bfce5afea">
   <rect x="42.12" y="43.74" width="579.96" height="579.96"/>
  </clipPath>
 </defs>
</svg>
