<?xml version="1.0" encoding="utf-8" standalone="no"?>
<!DOCTYPE svg PUBLIC "-//W3C//DTD SVG 1.1//EN"
  "http://www.w3.org/Graphics/SVG/1.1/DTD/svg11.dtd">
<svg xmlns:xlink="http://www.w3.org/1999/xlink" width="648pt" height="648pt" viewBox="0 0 648 648" xmlns="http://www.w3.org/2000/svg" version="1.1">
 <metadata>
  <rdf:RDF xmlns:dc="http://purl.org/dc/elements/1.1/" xmlns:cc="http://creativecommons.org/ns#" xmlns:rdf="http://www.w3.org/1999/02/22-rdf-syntax-ns#">
   <cc:Work>
    <dc:type rdf:resource="http://purl.org/dc/dcmitype/StillImage"/>
    <dc:date>2024-08-06T11:43:18.080618</dc:date>
    <dc:format>image/svg+xml</dc:format>
    <dc:creator>
     <cc:Agent>
      <dc:title>Matplotlib v3.8.3, https://matplotlib.org/</dc:title>
     </cc:Agent>
    </dc:creator>
   </cc:Work>
  </rdf:RDF>
 </metadata>
 <defs>
  <style type="text/css">*{stroke-linejoin: round; stroke-linecap: butt}</style>
 </defs>
 <g id="figure_1">
  <g id="patch_1">
   <path d="M 0 648 
L 648 648 
L 648 0 
L 0 0 
z
" style="fill: #ffffff"/>
  </g>
  <g id="patch_2">
   <path d="M 42.12 623.7 
L 622.08 623.7 
L 622.08 43.74 
L 42.12 43.74 
z
" style="fill: #ffffff"/>
  </g>
  <g id="pane3d_1">
   <g id="patch_3">
    <path d="M 420.366979 358.702739 
L 591.115196 490.061059 
L 599.947906 225.010585 
L 422.929128 114.411649 
" style="fill: #ffffff; stroke: #ffffff; stroke-linejoin: miter"/>
   </g>
  </g>
  <g id="pane3d_2">
   <g id="patch_4">
    <path d="M 420.366979 358.702739 
L 101.242016 418.485457 
L 93.279314 164.658716 
L 422.929128 114.411649 
" style="fill: #ffffff; stroke: #ffffff; stroke-linejoin: miter"/>
   </g>
  </g>
  <g id="pane3d_3">
   <g id="patch_5">
    <path d="M 420.366979 358.702739 
L 101.242016 418.485457 
L 246.967518 562.778518 
L 591.115196 490.061059 
" style="fill: #ffffff; stroke: #ffffff; stroke-linejoin: miter"/>
   </g>
  </g>
  <g id="grid3d_1">
   <g id="Line3DCollection_1">
    <path d="M 584.55675 491.44684 
L 414.257924 359.847169 
L 416.6276 115.372163 
" style="fill: none; stroke: #bdc3c7; stroke-width: 0.5"/>
    <path d="M 539.242304 501.021658 
L 372.077743 367.748919 
L 373.108905 122.005525 
" style="fill: none; stroke: #bdc3c7; stroke-width: 0.5"/>
    <path d="M 493.321914 510.724511 
L 329.385642 375.746569 
L 329.044993 128.721993 
" style="fill: none; stroke: #bdc3c7; stroke-width: 0.5"/>
    <path d="M 446.783343 520.557983 
L 286.172244 383.841876 
L 284.425553 135.523137 
" style="fill: none; stroke: #bdc3c7; stroke-width: 0.5"/>
    <path d="M 399.614025 530.52473 
L 242.427942 392.036638 
L 239.240014 142.41057 
" style="fill: none; stroke: #bdc3c7; stroke-width: 0.5"/>
    <path d="M 351.801048 540.627481 
L 198.142892 400.332701 
L 193.477532 149.385943 
" style="fill: none; stroke: #bdc3c7; stroke-width: 0.5"/>
    <path d="M 303.331148 550.869038 
L 153.307004 408.731953 
L 147.126988 156.450952 
" style="fill: none; stroke: #bdc3c7; stroke-width: 0.5"/>
    <path d="M 254.190692 561.252281 
L 107.909939 417.236333 
L 100.176973 163.607336 
" style="fill: none; stroke: #bdc3c7; stroke-width: 0.5"/>
   </g>
  </g>
  <g id="grid3d_2">
   <g id="Line3DCollection_2">
    <path d="M 426.142366 116.419237 
L 423.476154 361.094659 
L 103.883607 421.101082 
" style="fill: none; stroke: #bdc3c7; stroke-width: 0.5"/>
    <path d="M 445.679205 128.625589 
L 442.372486 375.631797 
L 119.947637 437.007207 
" style="fill: none; stroke: #bdc3c7; stroke-width: 0.5"/>
    <path d="M 465.668378 141.114553 
L 461.692489 390.494869 
L 136.388704 453.286662 
" style="fill: none; stroke: #bdc3c7; stroke-width: 0.5"/>
    <path d="M 486.125779 153.896061 
L 481.450572 405.694961 
L 153.220239 469.952748 
" style="fill: none; stroke: #bdc3c7; stroke-width: 0.5"/>
    <path d="M 507.068055 166.980511 
L 501.661806 421.243667 
L 170.456319 487.019403 
" style="fill: none; stroke: #bdc3c7; stroke-width: 0.5"/>
    <path d="M 528.512651 180.378805 
L 522.341963 437.153119 
L 188.111708 504.501244 
" style="fill: none; stroke: #bdc3c7; stroke-width: 0.5"/>
    <path d="M 550.47786 194.10237 
L 543.507552 453.43602 
L 206.201893 522.413608 
" style="fill: none; stroke: #bdc3c7; stroke-width: 0.5"/>
    <path d="M 572.982873 208.163197 
L 565.175869 470.105674 
L 224.743138 540.772598 
" style="fill: none; stroke: #bdc3c7; stroke-width: 0.5"/>
    <path d="M 596.047836 222.573874 
L 587.365041 487.176027 
L 243.752525 559.595128 
" style="fill: none; stroke: #bdc3c7; stroke-width: 0.5"/>
   </g>
  </g>
  <g id="grid3d_3">
   <g id="Line3DCollection_3">
    <path d="M 101.087804 413.569631 
L 420.41667 353.964829 
L 591.285965 484.936646 
" style="fill: none; stroke: #bdc3c7; stroke-width: 0.5"/>
    <path d="M 100.158328 383.940765 
L 420.716115 325.413965 
L 592.315477 454.043244 
" style="fill: none; stroke: #bdc3c7; stroke-width: 0.5"/>
    <path d="M 99.22159 354.080399 
L 421.017796 296.649845 
L 593.353456 422.895726 
" style="fill: none; stroke: #bdc3c7; stroke-width: 0.5"/>
    <path d="M 98.277503 323.985808 
L 421.321738 267.670072 
L 594.400009 391.490944 
" style="fill: none; stroke: #bdc3c7; stroke-width: 0.5"/>
    <path d="M 97.325983 293.654226 
L 421.627968 238.472212 
L 595.455242 359.825695 
" style="fill: none; stroke: #bdc3c7; stroke-width: 0.5"/>
    <path d="M 96.36694 263.082843 
L 421.936512 209.053792 
L 596.519263 327.896728 
" style="fill: none; stroke: #bdc3c7; stroke-width: 0.5"/>
    <path d="M 95.400284 232.268802 
L 422.247394 179.412305 
L 597.592183 295.700733 
" style="fill: none; stroke: #bdc3c7; stroke-width: 0.5"/>
    <path d="M 94.425925 201.209205 
L 422.560644 149.545203 
L 598.674113 263.234347 
" style="fill: none; stroke: #bdc3c7; stroke-width: 0.5"/>
    <path d="M 93.44377 169.901102 
L 422.876286 119.449902 
L 599.765169 230.494149 
" style="fill: none; stroke: #bdc3c7; stroke-width: 0.5"/>
   </g>
  </g>
  <g id="axis3d_1">
   <g id="line2d_1">
    <path d="M 591.115196 490.061059 
L 246.967518 562.778518 
" style="fill: none; stroke: #000000; stroke-width: 0.8; stroke-linecap: square"/>
   </g>
   <g id="xtick_1">
    <g id="line2d_2">
     <path d="M 583.058706 490.289215 
L 587.560074 493.767681 
" style="fill: none; stroke: #000000; stroke-width: 0.8; stroke-linecap: square"/>
    </g>
    <g id="text_1">
     <!-- −100 -->
     <g transform="translate(568.891728 510.061717) scale(0.14 -0.14)">
      <defs>
       <path id="DejaVuSans-2212" d="M 678 2272 
L 4684 2272 
L 4684 1741 
L 678 1741 
L 678 2272 
z
" transform="scale(0.015625)"/>
       <path id="DejaVuSans-31" d="M 794 531 
L 1825 531 
L 1825 4091 
L 703 3866 
L 703 4441 
L 1819 4666 
L 2450 4666 
L 2450 531 
L 3481 531 
L 3481 0 
L 794 0 
L 794 531 
z
" transform="scale(0.015625)"/>
       <path id="DejaVuSans-30" d="M 2034 4250 
Q 1547 4250 1301 3770 
Q 1056 3291 1056 2328 
Q 1056 1369 1301 889 
Q 1547 409 2034 409 
Q 2525 409 2770 889 
Q 3016 1369 3016 2328 
Q 3016 3291 2770 3770 
Q 2525 4250 2034 4250 
z
M 2034 4750 
Q 2819 4750 3233 4129 
Q 3647 3509 3647 2328 
Q 3647 1150 3233 529 
Q 2819 -91 2034 -91 
Q 1250 -91 836 529 
Q 422 1150 422 2328 
Q 422 3509 836 4129 
Q 1250 4750 2034 4750 
z
" transform="scale(0.015625)"/>
      </defs>
      <use xlink:href="#DejaVuSans-2212"/>
      <use xlink:href="#DejaVuSans-31" x="83.789062"/>
      <use xlink:href="#DejaVuSans-30" x="147.412109"/>
      <use xlink:href="#DejaVuSans-30" x="211.035156"/>
     </g>
    </g>
   </g>
   <g id="xtick_2">
    <g id="line2d_3">
     <path d="M 537.770947 499.848612 
L 542.192173 503.373455 
" style="fill: none; stroke: #000000; stroke-width: 0.8; stroke-linecap: square"/>
    </g>
    <g id="text_2">
     <!-- −20 -->
     <g transform="translate(527.994431 519.702325) scale(0.14 -0.14)">
      <defs>
       <path id="DejaVuSans-32" d="M 1228 531 
L 3431 531 
L 3431 0 
L 469 0 
L 469 531 
Q 828 903 1448 1529 
Q 2069 2156 2228 2338 
Q 2531 2678 2651 2914 
Q 2772 3150 2772 3378 
Q 2772 3750 2511 3984 
Q 2250 4219 1831 4219 
Q 1534 4219 1204 4116 
Q 875 4013 500 3803 
L 500 4441 
Q 881 4594 1212 4672 
Q 1544 4750 1819 4750 
Q 2544 4750 2975 4387 
Q 3406 4025 3406 3419 
Q 3406 3131 3298 2873 
Q 3191 2616 2906 2266 
Q 2828 2175 2409 1742 
Q 1991 1309 1228 531 
z
" transform="scale(0.015625)"/>
      </defs>
      <use xlink:href="#DejaVuSans-2212"/>
      <use xlink:href="#DejaVuSans-32" x="83.789062"/>
      <use xlink:href="#DejaVuSans-30" x="147.412109"/>
     </g>
    </g>
   </g>
   <g id="xtick_3">
    <g id="line2d_4">
     <path d="M 491.878093 509.535732 
L 496.216622 513.107887 
" style="fill: none; stroke: #000000; stroke-width: 0.8; stroke-linecap: square"/>
    </g>
    <g id="text_3">
     <!-- 60 -->
     <g transform="translate(487.901919 529.472019) scale(0.14 -0.14)">
      <defs>
       <path id="DejaVuSans-36" d="M 2113 2584 
Q 1688 2584 1439 2293 
Q 1191 2003 1191 1497 
Q 1191 994 1439 701 
Q 1688 409 2113 409 
Q 2538 409 2786 701 
Q 3034 994 3034 1497 
Q 3034 2003 2786 2293 
Q 2538 2584 2113 2584 
z
M 3366 4563 
L 3366 3988 
Q 3128 4100 2886 4159 
Q 2644 4219 2406 4219 
Q 1781 4219 1451 3797 
Q 1122 3375 1075 2522 
Q 1259 2794 1537 2939 
Q 1816 3084 2150 3084 
Q 2853 3084 3261 2657 
Q 3669 2231 3669 1497 
Q 3669 778 3244 343 
Q 2819 -91 2113 -91 
Q 1303 -91 875 529 
Q 447 1150 447 2328 
Q 447 3434 972 4092 
Q 1497 4750 2381 4750 
Q 2619 4750 2861 4703 
Q 3103 4656 3366 4563 
z
" transform="scale(0.015625)"/>
      </defs>
      <use xlink:href="#DejaVuSans-36"/>
      <use xlink:href="#DejaVuSans-30" x="63.623047"/>
     </g>
    </g>
   </g>
   <g id="xtick_4">
    <g id="line2d_5">
     <path d="M 445.367936 519.353154 
L 449.621132 522.973578 
" style="fill: none; stroke: #000000; stroke-width: 0.8; stroke-linecap: square"/>
    </g>
    <g id="text_4">
     <!-- 140 -->
     <g transform="translate(436.870351 539.373411) scale(0.14 -0.14)">
      <defs>
       <path id="DejaVuSans-34" d="M 2419 4116 
L 825 1625 
L 2419 1625 
L 2419 4116 
z
M 2253 4666 
L 3047 4666 
L 3047 1625 
L 3713 1625 
L 3713 1100 
L 3047 1100 
L 3047 0 
L 2419 0 
L 2419 1100 
L 313 1100 
L 313 1709 
L 2253 4666 
z
" transform="scale(0.015625)"/>
      </defs>
      <use xlink:href="#DejaVuSans-31"/>
      <use xlink:href="#DejaVuSans-34" x="63.623047"/>
      <use xlink:href="#DejaVuSans-30" x="127.246094"/>
     </g>
    </g>
   </g>
   <g id="xtick_5">
    <g id="line2d_6">
     <path d="M 398.227936 529.303523 
L 402.393078 532.973203 
" style="fill: none; stroke: #000000; stroke-width: 0.8; stroke-linecap: square"/>
    </g>
    <g id="text_5">
     <!-- 220 -->
     <g transform="translate(389.660397 549.409181) scale(0.14 -0.14)">
      <use xlink:href="#DejaVuSans-32"/>
      <use xlink:href="#DejaVuSans-32" x="63.623047"/>
      <use xlink:href="#DejaVuSans-30" x="127.246094"/>
     </g>
    </g>
   </g>
   <g id="xtick_6">
    <g id="line2d_7">
     <path d="M 350.445212 539.38956 
L 354.519492 543.109507 
" style="fill: none; stroke: #000000; stroke-width: 0.8; stroke-linecap: square"/>
    </g>
    <g id="text_6">
     <!-- 300 -->
     <g transform="translate(341.805349 559.582083) scale(0.14 -0.14)">
      <defs>
       <path id="DejaVuSans-33" d="M 2597 2516 
Q 3050 2419 3304 2112 
Q 3559 1806 3559 1356 
Q 3559 666 3084 287 
Q 2609 -91 1734 -91 
Q 1441 -91 1130 -33 
Q 819 25 488 141 
L 488 750 
Q 750 597 1062 519 
Q 1375 441 1716 441 
Q 2309 441 2620 675 
Q 2931 909 2931 1356 
Q 2931 1769 2642 2001 
Q 2353 2234 1838 2234 
L 1294 2234 
L 1294 2753 
L 1863 2753 
Q 2328 2753 2575 2939 
Q 2822 3125 2822 3475 
Q 2822 3834 2567 4026 
Q 2313 4219 1838 4219 
Q 1578 4219 1281 4162 
Q 984 4106 628 3988 
L 628 4550 
Q 988 4650 1302 4700 
Q 1616 4750 1894 4750 
Q 2613 4750 3031 4423 
Q 3450 4097 3450 3541 
Q 3450 3153 3228 2886 
Q 3006 2619 2597 2516 
z
" transform="scale(0.015625)"/>
      </defs>
      <use xlink:href="#DejaVuSans-33"/>
      <use xlink:href="#DejaVuSans-30" x="63.623047"/>
      <use xlink:href="#DejaVuSans-30" x="127.246094"/>
     </g>
    </g>
   </g>
   <g id="xtick_7">
    <g id="line2d_8">
     <path d="M 302.006529 549.614057 
L 305.987047 553.385311 
" style="fill: none; stroke: #000000; stroke-width: 0.8; stroke-linecap: square"/>
    </g>
    <g id="text_7">
     <!-- 380 -->
     <g transform="translate(293.291894 569.894947) scale(0.14 -0.14)">
      <defs>
       <path id="DejaVuSans-38" d="M 2034 2216 
Q 1584 2216 1326 1975 
Q 1069 1734 1069 1313 
Q 1069 891 1326 650 
Q 1584 409 2034 409 
Q 2484 409 2743 651 
Q 3003 894 3003 1313 
Q 3003 1734 2745 1975 
Q 2488 2216 2034 2216 
z
M 1403 2484 
Q 997 2584 770 2862 
Q 544 3141 544 3541 
Q 544 4100 942 4425 
Q 1341 4750 2034 4750 
Q 2731 4750 3128 4425 
Q 3525 4100 3525 3541 
Q 3525 3141 3298 2862 
Q 3072 2584 2669 2484 
Q 3125 2378 3379 2068 
Q 3634 1759 3634 1313 
Q 3634 634 3220 271 
Q 2806 -91 2034 -91 
Q 1263 -91 848 271 
Q 434 634 434 1313 
Q 434 1759 690 2068 
Q 947 2378 1403 2484 
z
M 1172 3481 
Q 1172 3119 1398 2916 
Q 1625 2713 2034 2713 
Q 2441 2713 2670 2916 
Q 2900 3119 2900 3481 
Q 2900 3844 2670 4047 
Q 2441 4250 2034 4250 
Q 1625 4250 1398 4047 
Q 1172 3844 1172 3481 
z
" transform="scale(0.015625)"/>
      </defs>
      <use xlink:href="#DejaVuSans-33"/>
      <use xlink:href="#DejaVuSans-38" x="63.623047"/>
      <use xlink:href="#DejaVuSans-30" x="127.246094"/>
     </g>
    </g>
   </g>
   <g id="xtick_8">
    <g id="line2d_9">
     <path d="M 252.898286 559.979885 
L 256.782047 563.803516 
" style="fill: none; stroke: #000000; stroke-width: 0.8; stroke-linecap: square"/>
    </g>
    <g id="text_8">
     <!-- 460 -->
     <g transform="translate(244.106352 580.350682) scale(0.14 -0.14)">
      <use xlink:href="#DejaVuSans-34"/>
      <use xlink:href="#DejaVuSans-36" x="63.623047"/>
      <use xlink:href="#DejaVuSans-30" x="127.246094"/>
     </g>
    </g>
   </g>
   <g id="text_9">
    <!-- X (m) -->
    <g transform="translate(416.666911 567.232232) rotate(-11.930948) scale(0.18 -0.18)">
     <defs>
      <path id="TimesNewRomanPSMT-58" d="M 2613 2347 
L 3522 991 
Q 3900 428 4083 279 
Q 4266 131 4547 116 
L 4547 0 
L 2728 0 
L 2728 116 
Q 2909 119 2997 153 
Q 3063 181 3105 239 
Q 3147 297 3147 356 
Q 3147 428 3119 500 
Q 3097 553 2947 775 
L 2228 1863 
L 1341 725 
Q 1200 544 1172 483 
Q 1144 422 1144 356 
Q 1144 256 1228 190 
Q 1313 125 1550 116 
L 1550 0 
L 47 0 
L 47 116 
Q 206 131 322 181 
Q 516 263 691 400 
Q 866 538 1091 822 
L 2091 2084 
L 1256 3306 
Q 916 3803 678 3958 
Q 441 4113 131 4122 
L 131 4238 
L 2091 4238 
L 2091 4122 
Q 1841 4113 1748 4041 
Q 1656 3969 1656 3881 
Q 1656 3766 1806 3544 
L 2456 2572 
L 3209 3525 
Q 3341 3694 3370 3756 
Q 3400 3819 3400 3884 
Q 3400 3950 3363 4000 
Q 3316 4066 3244 4092 
Q 3172 4119 2947 4122 
L 2947 4238 
L 4450 4238 
L 4450 4122 
Q 4272 4113 4159 4066 
Q 3991 3994 3850 3872 
Q 3709 3750 3453 3422 
L 2613 2347 
z
" transform="scale(0.015625)"/>
      <path id="TimesNewRomanPSMT-20" transform="scale(0.015625)"/>
      <path id="TimesNewRomanPSMT-28" d="M 1988 -1253 
L 1988 -1369 
Q 1516 -1131 1200 -813 
Q 750 -359 506 256 
Q 263 872 263 1534 
Q 263 2503 741 3301 
Q 1219 4100 1988 4444 
L 1988 4313 
Q 1603 4100 1356 3731 
Q 1109 3363 987 2797 
Q 866 2231 866 1616 
Q 866 947 969 400 
Q 1050 -31 1165 -292 
Q 1281 -553 1476 -793 
Q 1672 -1034 1988 -1253 
z
" transform="scale(0.015625)"/>
      <path id="TimesNewRomanPSMT-6d" d="M 1050 2338 
Q 1363 2650 1419 2697 
Q 1559 2816 1721 2881 
Q 1884 2947 2044 2947 
Q 2313 2947 2506 2790 
Q 2700 2634 2766 2338 
Q 3088 2713 3309 2830 
Q 3531 2947 3766 2947 
Q 3994 2947 4170 2830 
Q 4347 2713 4450 2447 
Q 4519 2266 4519 1878 
L 4519 647 
Q 4519 378 4559 278 
Q 4591 209 4675 161 
Q 4759 113 4950 113 
L 4950 0 
L 3538 0 
L 3538 113 
L 3597 113 
Q 3781 113 3884 184 
Q 3956 234 3988 344 
Q 4000 397 4000 647 
L 4000 1878 
Q 4000 2228 3916 2372 
Q 3794 2572 3525 2572 
Q 3359 2572 3192 2489 
Q 3025 2406 2788 2181 
L 2781 2147 
L 2788 2013 
L 2788 647 
Q 2788 353 2820 281 
Q 2853 209 2943 161 
Q 3034 113 3253 113 
L 3253 0 
L 1806 0 
L 1806 113 
Q 2044 113 2133 169 
Q 2222 225 2256 338 
Q 2272 391 2272 647 
L 2272 1878 
Q 2272 2228 2169 2381 
Q 2031 2581 1784 2581 
Q 1616 2581 1450 2491 
Q 1191 2353 1050 2181 
L 1050 647 
Q 1050 366 1089 281 
Q 1128 197 1204 155 
Q 1281 113 1516 113 
L 1516 0 
L 100 0 
L 100 113 
Q 297 113 375 155 
Q 453 197 493 289 
Q 534 381 534 647 
L 534 1741 
Q 534 2213 506 2350 
Q 484 2453 437 2492 
Q 391 2531 309 2531 
Q 222 2531 100 2484 
L 53 2597 
L 916 2947 
L 1050 2947 
L 1050 2338 
z
" transform="scale(0.015625)"/>
      <path id="TimesNewRomanPSMT-29" d="M 144 4313 
L 144 4444 
Q 619 4209 934 3891 
Q 1381 3434 1625 2820 
Q 1869 2206 1869 1541 
Q 1869 572 1392 -226 
Q 916 -1025 144 -1369 
L 144 -1253 
Q 528 -1038 776 -670 
Q 1025 -303 1145 264 
Q 1266 831 1266 1447 
Q 1266 2113 1163 2663 
Q 1084 3094 967 3353 
Q 850 3613 656 3853 
Q 463 4094 144 4313 
z
" transform="scale(0.015625)"/>
     </defs>
     <use xlink:href="#TimesNewRomanPSMT-58"/>
     <use xlink:href="#TimesNewRomanPSMT-20" x="72.216797"/>
     <use xlink:href="#TimesNewRomanPSMT-28" x="97.216797"/>
     <use xlink:href="#TimesNewRomanPSMT-6d" x="130.517578"/>
     <use xlink:href="#TimesNewRomanPSMT-29" x="208.300781"/>
    </g>
   </g>
  </g>
  <g id="axis3d_2">
   <g id="line2d_10">
    <path d="M 101.242016 418.485457 
L 246.967518 562.778518 
" style="fill: none; stroke: #000000; stroke-width: 0.8; stroke-linecap: square"/>
   </g>
   <g id="xtick_9">
    <g id="line2d_11">
     <path d="M 106.556369 420.599246 
L 98.532209 422.105856 
" style="fill: none; stroke: #000000; stroke-width: 0.8; stroke-linecap: square"/>
    </g>
    <g id="text_10">
     <!-- 0 -->
     <g transform="translate(86.989985 443.500261) scale(0.14 -0.14)">
      <use xlink:href="#DejaVuSans-30"/>
     </g>
    </g>
   </g>
   <g id="xtick_10">
    <g id="line2d_12">
     <path d="M 122.645443 436.493664 
L 114.546027 438.035434 
" style="fill: none; stroke: #000000; stroke-width: 0.8; stroke-linecap: square"/>
    </g>
    <g id="text_11">
     <!-- 80 -->
     <g transform="translate(98.464201 459.551104) scale(0.14 -0.14)">
      <use xlink:href="#DejaVuSans-38"/>
      <use xlink:href="#DejaVuSans-30" x="63.623047"/>
     </g>
    </g>
   </g>
   <g id="xtick_11">
    <g id="line2d_13">
     <path d="M 139.111999 452.760998 
L 130.935986 454.339174 
" style="fill: none; stroke: #000000; stroke-width: 0.8; stroke-linecap: square"/>
    </g>
    <g id="text_12">
     <!-- 160 -->
     <g transform="translate(110.312457 475.978871) scale(0.14 -0.14)">
      <use xlink:href="#DejaVuSans-31"/>
      <use xlink:href="#DejaVuSans-36" x="63.623047"/>
      <use xlink:href="#DejaVuSans-30" x="127.246094"/>
     </g>
    </g>
   </g>
   <g id="xtick_12">
    <g id="line2d_14">
     <path d="M 155.969482 469.414528 
L 147.715494 471.030414 
" style="fill: none; stroke: #000000; stroke-width: 0.8; stroke-linecap: square"/>
    </g>
    <g id="text_13">
     <!-- 240 -->
     <g transform="translate(127.001833 492.796997) scale(0.14 -0.14)">
      <use xlink:href="#DejaVuSans-32"/>
      <use xlink:href="#DejaVuSans-34" x="63.623047"/>
      <use xlink:href="#DejaVuSans-30" x="127.246094"/>
     </g>
    </g>
   </g>
   <g id="xtick_13">
    <g id="line2d_15">
     <path d="M 173.231978 486.468171 
L 164.898607 488.123136 
" style="fill: none; stroke: #000000; stroke-width: 0.8; stroke-linecap: square"/>
    </g>
    <g id="text_14">
     <!-- 320 -->
     <g transform="translate(144.092552 510.019563) scale(0.14 -0.14)">
      <use xlink:href="#DejaVuSans-33"/>
      <use xlink:href="#DejaVuSans-32" x="63.623047"/>
      <use xlink:href="#DejaVuSans-30" x="127.246094"/>
     </g>
    </g>
   </g>
   <g id="xtick_14">
    <g id="line2d_16">
     <path d="M 190.914261 503.936523 
L 182.500065 505.632002 
" style="fill: none; stroke: #000000; stroke-width: 0.8; stroke-linecap: square"/>
    </g>
    <g id="text_15">
     <!-- 400 -->
     <g transform="translate(161.599269 527.661335) scale(0.14 -0.14)">
      <use xlink:href="#DejaVuSans-34"/>
      <use xlink:href="#DejaVuSans-30" x="63.623047"/>
      <use xlink:href="#DejaVuSans-30" x="127.246094"/>
     </g>
    </g>
   </g>
   <g id="xtick_15">
    <g id="line2d_17">
     <path d="M 209.031833 521.834897 
L 200.535333 523.572396 
" style="fill: none; stroke: #000000; stroke-width: 0.8; stroke-linecap: square"/>
    </g>
    <g id="text_16">
     <!-- 480 -->
     <g transform="translate(179.537358 545.737807) scale(0.14 -0.14)">
      <use xlink:href="#DejaVuSans-34"/>
      <use xlink:href="#DejaVuSans-38" x="63.623047"/>
      <use xlink:href="#DejaVuSans-30" x="127.246094"/>
     </g>
    </g>
   </g>
   <g id="xtick_16">
    <g id="line2d_18">
     <path d="M 227.600968 540.179371 
L 219.020648 541.960471 
" style="fill: none; stroke: #000000; stroke-width: 0.8; stroke-linecap: square"/>
    </g>
    <g id="text_17">
     <!-- 560 -->
     <g transform="translate(197.922963 564.265248) scale(0.14 -0.14)">
      <defs>
       <path id="DejaVuSans-35" d="M 691 4666 
L 3169 4666 
L 3169 4134 
L 1269 4134 
L 1269 2991 
Q 1406 3038 1543 3061 
Q 1681 3084 1819 3084 
Q 2600 3084 3056 2656 
Q 3513 2228 3513 1497 
Q 3513 744 3044 326 
Q 2575 -91 1722 -91 
Q 1428 -91 1123 -41 
Q 819 9 494 109 
L 494 744 
Q 775 591 1075 516 
Q 1375 441 1709 441 
Q 2250 441 2565 725 
Q 2881 1009 2881 1497 
Q 2881 1984 2565 2268 
Q 2250 2553 1709 2553 
Q 1456 2553 1204 2497 
Q 953 2441 691 2322 
L 691 4666 
z
" transform="scale(0.015625)"/>
      </defs>
      <use xlink:href="#DejaVuSans-35"/>
      <use xlink:href="#DejaVuSans-36" x="63.623047"/>
      <use xlink:href="#DejaVuSans-30" x="127.246094"/>
     </g>
    </g>
   </g>
   <g id="xtick_17">
    <g id="line2d_19">
     <path d="M 246.638759 558.986831 
L 237.973071 560.813194 
" style="fill: none; stroke: #000000; stroke-width: 0.8; stroke-linecap: square"/>
    </g>
    <g id="text_18">
     <!-- 640 -->
     <g transform="translate(216.773041 583.260745) scale(0.14 -0.14)">
      <use xlink:href="#DejaVuSans-36"/>
      <use xlink:href="#DejaVuSans-34" x="63.623047"/>
      <use xlink:href="#DejaVuSans-30" x="127.246094"/>
     </g>
    </g>
   </g>
   <g id="text_19">
    <!-- Y (m) -->
    <g transform="translate(117.120788 508.385696) rotate(-315.282989) scale(0.18 -0.18)">
     <defs>
      <path id="TimesNewRomanPSMT-59" d="M 3050 4238 
L 4528 4238 
L 4528 4122 
L 4447 4122 
Q 4366 4122 4209 4050 
Q 4053 3978 3925 3843 
Q 3797 3709 3609 3406 
L 2588 1797 
L 2588 734 
Q 2588 344 2675 247 
Q 2794 116 3050 116 
L 3188 116 
L 3188 0 
L 1388 0 
L 1388 116 
L 1538 116 
Q 1806 116 1919 278 
Q 1988 378 1988 734 
L 1988 1738 
L 825 3513 
Q 619 3825 545 3903 
Q 472 3981 241 4091 
Q 178 4122 59 4122 
L 59 4238 
L 1872 4238 
L 1872 4122 
L 1778 4122 
Q 1631 4122 1507 4053 
Q 1384 3984 1384 3847 
Q 1384 3734 1575 3441 
L 2459 2075 
L 3291 3381 
Q 3478 3675 3478 3819 
Q 3478 3906 3433 3975 
Q 3388 4044 3303 4083 
Q 3219 4122 3050 4122 
L 3050 4238 
z
" transform="scale(0.015625)"/>
     </defs>
     <use xlink:href="#TimesNewRomanPSMT-59"/>
     <use xlink:href="#TimesNewRomanPSMT-20" x="68.466797"/>
     <use xlink:href="#TimesNewRomanPSMT-28" x="93.466797"/>
     <use xlink:href="#TimesNewRomanPSMT-6d" x="126.767578"/>
     <use xlink:href="#TimesNewRomanPSMT-29" x="204.550781"/>
    </g>
   </g>
  </g>
  <g id="axis3d_3">
   <g id="line2d_20">
    <path d="M 101.242016 418.485457 
L 93.279314 164.658716 
" style="fill: none; stroke: #000000; stroke-width: 0.8; stroke-linecap: square"/>
   </g>
   <g id="xtick_18">
    <g id="line2d_21">
     <path d="M 103.758214 413.071181 
L 95.741121 414.567624 
" style="fill: none; stroke: #000000; stroke-width: 0.8; stroke-linecap: square"/>
    </g>
    <g id="text_20">
     <!-- −300 -->
     <g transform="translate(57.251423 420.624615) scale(0.14 -0.14)">
      <use xlink:href="#DejaVuSans-2212"/>
      <use xlink:href="#DejaVuSans-33" x="83.789062"/>
      <use xlink:href="#DejaVuSans-30" x="147.412109"/>
      <use xlink:href="#DejaVuSans-30" x="211.035156"/>
     </g>
    </g>
   </g>
   <g id="xtick_19">
    <g id="line2d_22">
     <path d="M 102.839467 383.451248 
L 94.79014 384.920878 
" style="fill: none; stroke: #000000; stroke-width: 0.8; stroke-linecap: square"/>
    </g>
    <g id="text_21">
     <!-- −220 -->
     <g transform="translate(56.228885 391.059985) scale(0.14 -0.14)">
      <use xlink:href="#DejaVuSans-2212"/>
      <use xlink:href="#DejaVuSans-32" x="83.789062"/>
      <use xlink:href="#DejaVuSans-32" x="147.412109"/>
      <use xlink:href="#DejaVuSans-30" x="211.035156"/>
     </g>
    </g>
   </g>
   <g id="xtick_20">
    <g id="line2d_23">
     <path d="M 101.913544 353.599969 
L 93.831724 355.042321 
" style="fill: none; stroke: #000000; stroke-width: 0.8; stroke-linecap: square"/>
    </g>
    <g id="text_22">
     <!-- −140 -->
     <g transform="translate(55.198378 361.264969) scale(0.14 -0.14)">
      <use xlink:href="#DejaVuSans-2212"/>
      <use xlink:href="#DejaVuSans-31" x="83.789062"/>
      <use xlink:href="#DejaVuSans-34" x="147.412109"/>
      <use xlink:href="#DejaVuSans-30" x="211.035156"/>
     </g>
    </g>
   </g>
   <g id="xtick_21">
    <g id="line2d_24">
     <path d="M 100.980361 323.514624 
L 92.865784 324.929224 
" style="fill: none; stroke: #000000; stroke-width: 0.8; stroke-linecap: square"/>
    </g>
    <g id="text_23">
     <!-- −60 -->
     <g transform="translate(58.613559 331.236861) scale(0.14 -0.14)">
      <use xlink:href="#DejaVuSans-2212"/>
      <use xlink:href="#DejaVuSans-36" x="83.789062"/>
      <use xlink:href="#DejaVuSans-30" x="147.412109"/>
     </g>
    </g>
   </g>
   <g id="xtick_22">
    <g id="line2d_25">
     <path d="M 100.039832 293.192448 
L 91.892232 294.578813 
" style="fill: none; stroke: #000000; stroke-width: 0.8; stroke-linecap: square"/>
    </g>
    <g id="text_24">
     <!-- 20 -->
     <g transform="translate(63.432615 300.972917) scale(0.14 -0.14)">
      <use xlink:href="#DejaVuSans-32"/>
      <use xlink:href="#DejaVuSans-30" x="63.623047"/>
     </g>
    </g>
   </g>
   <g id="xtick_23">
    <g id="line2d_26">
     <path d="M 99.09187 262.630634 
L 90.910978 263.988273 
" style="fill: none; stroke: #000000; stroke-width: 0.8; stroke-linecap: square"/>
    </g>
    <g id="text_25">
     <!-- 100 -->
     <g transform="translate(57.923886 270.470347) scale(0.14 -0.14)">
      <use xlink:href="#DejaVuSans-31"/>
      <use xlink:href="#DejaVuSans-30" x="63.623047"/>
      <use xlink:href="#DejaVuSans-30" x="127.246094"/>
     </g>
    </g>
   </g>
   <g id="xtick_24">
    <g id="line2d_27">
     <path d="M 98.136387 231.82633 
L 89.921929 233.154742 
" style="fill: none; stroke: #000000; stroke-width: 0.8; stroke-linecap: square"/>
    </g>
    <g id="text_26">
     <!-- 180 -->
     <g transform="translate(56.860556 239.726318) scale(0.14 -0.14)">
      <use xlink:href="#DejaVuSans-31"/>
      <use xlink:href="#DejaVuSans-38" x="63.623047"/>
      <use xlink:href="#DejaVuSans-30" x="127.246094"/>
     </g>
    </g>
   </g>
   <g id="xtick_25">
    <g id="line2d_28">
     <path d="M 97.173292 200.776638 
L 88.924992 202.075313 
" style="fill: none; stroke: #000000; stroke-width: 0.8; stroke-linecap: square"/>
    </g>
    <g id="text_27">
     <!-- 260 -->
     <g transform="translate(55.788776 208.73795) scale(0.14 -0.14)">
      <use xlink:href="#DejaVuSans-32"/>
      <use xlink:href="#DejaVuSans-36" x="63.623047"/>
      <use xlink:href="#DejaVuSans-30" x="127.246094"/>
     </g>
    </g>
   </g>
   <g id="xtick_26">
    <g id="line2d_29">
     <path d="M 96.202494 169.478616 
L 87.920073 170.747033 
" style="fill: none; stroke: #000000; stroke-width: 0.8; stroke-linecap: square"/>
    </g>
    <g id="text_28">
     <!-- 340 -->
     <g transform="translate(54.708443 177.502321) scale(0.14 -0.14)">
      <use xlink:href="#DejaVuSans-33"/>
      <use xlink:href="#DejaVuSans-34" x="63.623047"/>
      <use xlink:href="#DejaVuSans-30" x="127.246094"/>
     </g>
    </g>
   </g>
   <g id="text_29">
    <!-- Z (m) -->
    <g transform="translate(39.417503 266.027206) rotate(-271.796815) scale(0.18 -0.18)">
     <defs>
      <path id="TimesNewRomanPSMT-5a" d="M 3681 4238 
L 897 256 
L 2634 256 
Q 3034 256 3248 431 
Q 3463 606 3628 1141 
L 3731 1122 
L 3531 0 
L 81 0 
L 81 116 
L 2800 3984 
L 1444 3984 
Q 1106 3984 954 3911 
Q 803 3838 723 3698 
Q 644 3559 578 3178 
L 459 3178 
L 547 4238 
L 3681 4238 
z
" transform="scale(0.015625)"/>
     </defs>
     <use xlink:href="#TimesNewRomanPSMT-5a"/>
     <use xlink:href="#TimesNewRomanPSMT-20" x="61.083984"/>
     <use xlink:href="#TimesNewRomanPSMT-28" x="86.083984"/>
     <use xlink:href="#TimesNewRomanPSMT-6d" x="119.384766"/>
     <use xlink:href="#TimesNewRomanPSMT-29" x="197.167969"/>
    </g>
   </g>
  </g>
  <g id="axes_1">
   <g id="line2d_30">
    <defs>
     <path id="me1951d5563" d="M 0 -3 
L -0.673542 -0.927051 
L -2.85317 -0.927051 
L -1.089814 0.354102 
L -1.763356 2.427051 
L -0 1.145898 
L 1.763356 2.427051 
L 1.089814 0.354102 
L 2.85317 -0.927051 
L 0.673542 -0.927051 
z
" style="stroke: #ff0000; stroke-linejoin: bevel"/>
    </defs>
    <g clip-path="url(#p1680cdf9e2)">
     <use xlink:href="#me1951d5563" x="364.845073" y="258.282469" style="fill: #ff0000; stroke: #ff0000; stroke-linejoin: bevel"/>
    </g>
   </g>
   <g id="line2d_31">
    <path d="M 364.845073 258.282469 
L 354.618503 260.130251 
L 342.106632 262.579319 
L 335.800775 263.764045 
L 332.582572 264.586614 
L 329.504844 265.540835 
L 317.832718 270.182321 
L 302.239942 276.920093 
L 293.919497 280.123216 
L 291.822074 281.057901 
L 287.60006 283.328088 
L 286.463884 284.170247 
L 285.847624 284.841887 
L 285.296215 285.560603 
L 284.948306 286.37924 
L 284.367482 288.353451 
L 283.786703 291.398563 
L 283.725877 292.515506 
L 283.855947 293.872889 
L 284.179026 294.933445 
L 284.653569 296.032444 
L 285.138019 296.892368 
L 286.764399 298.410148 
L 287.532146 299.01915 
L 289.484672 300.377078 
L 291.711309 301.642044 
L 293.587538 302.441221 
L 301.924318 305.744658 
L 313.344925 309.894836 
L 317.563813 311.063511 
L 321.451177 311.802616 
L 328.005519 312.619613 
L 334.453885 313.368182 
L 338.845372 314.029644 
L 341.303792 314.47443 
L 348.48684 316.032661 
L 356.042925 318.162264 
L 357.153834 318.831834 
L 360.221264 321.35965 
L 362.710198 323.272975 
L 363.924184 324.219119 
L 365.781745 326.02775 
L 366.676465 327.12767 
L 366.895957 327.499508 
L 367.203536 328.542524 
L 367.125421 329.213991 
L 366.907213 329.831687 
L 366.216927 330.714582 
L 363.595461 333.166356 
L 359.511699 336.762746 
L 357.739592 338.134018 
L 357.448198 338.497142 
L 354.161872 341.023821 
L 352.545501 341.848095 
L 351.283139 342.336009 
L 349.26216 342.976 
L 342.950583 344.867492 
L 339.912489 345.704907 
L 334.102202 347.790726 
L 332.012967 349.250306 
L 330.903117 350.391954 
L 330.35978 351.317348 
L 330.095675 351.945112 
L 329.597772 353.38162 
L 329.22588 355.372338 
L 329.194574 356.420095 
L 329.083547 358.018588 
L 328.644103 359.982411 
L 326.856979 363.470601 
L 326.023643 364.814645 
L 324.841342 367.058388 
L 324.471898 368.307389 
L 324.421664 369.340129 
L 324.595071 370.793031 
L 325.082826 372.728945 
L 325.559931 375.886036 
L 325.727919 378.445925 
L 326.416817 379.599596 
L 327.060749 380.36037 
L 328.152533 381.109928 
L 330.169661 382.13842 
L 332.481709 382.739789 
L 335.274226 383.100101 
L 339.309697 383.184813 
L 345.815138 383.068515 
L 347.450219 383.296491 
L 348.756108 383.624341 
L 350.403999 384.247051 
L 351.123326 384.802561 
L 351.582757 385.368823 
L 351.750286 385.98472 
L 351.432726 387.361725 
L 350.09689 390.235928 
L 348.967186 391.970217 
L 346.207552 395.503053 
L 345.774732 396.03011 
L 345.774732 396.03011 
" clip-path="url(#p1680cdf9e2)" style="fill: none; stroke-dasharray: 10.175,4.4; stroke-dashoffset: 0; stroke: #808a87; stroke-width: 2.75"/>
   </g>
   <g id="line2d_32">
    <path d="M 364.845073 258.282469 
L 364.502956 258.366863 
L 362.102631 258.873091 
L 354.306384 260.539893 
L 351.219379 261.290487 
L 342.021694 263.354515 
L 334.942127 264.966843 
L 332.471042 265.779342 
L 325.774458 268.820541 
L 320.179175 271.74299 
L 313.834173 275.122825 
L 305.624144 278.882857 
L 300.010275 281.305468 
L 298.301727 282.153385 
L 293.771211 284.728745 
L 293.384398 285.098018 
L 292.691519 285.869799 
L 292.333552 286.518099 
L 291.625125 288.066786 
L 290.919549 289.784401 
L 290.351161 292.15561 
L 290.462043 292.776917 
L 290.71639 293.316999 
L 291.719553 295.280753 
L 292.241079 295.767811 
L 296.173997 298.471945 
L 300.667085 300.094832 
L 306.216888 301.782558 
L 309.474339 302.863401 
L 313.015054 303.94994 
L 316.554644 304.853795 
L 320.398697 305.54432 
L 323.612235 305.892484 
L 336.438183 306.819016 
L 343.772758 307.640568 
L 352.322602 309.056409 
L 353.440781 309.780961 
L 353.528659 309.884197 
L 354.330127 310.338534 
L 354.499234 310.432212 
L 355.628348 310.980859 
L 358.752848 312.81047 
L 359.952199 313.81833 
L 360.417043 314.423441 
L 360.598872 315.301952 
L 360.305255 316.167451 
L 359.911525 316.683989 
L 358.497149 317.744331 
L 353.648216 321.133224 
L 352.609759 321.900888 
L 347.896059 325.289409 
L 345.694296 326.513852 
L 343.646264 327.256611 
L 340.820077 328.143879 
L 339.667246 328.49581 
L 335.887606 329.443815 
L 333.320033 330.041074 
L 328.334118 331.280531 
L 326.797736 331.886401 
L 324.899115 332.857838 
L 323.487168 333.744861 
L 321.49858 335.302847 
L 319.258375 337.784208 
L 318.75586 338.409276 
L 318.140174 339.397095 
L 317.47928 340.630817 
L 316.964751 341.668056 
L 315.642806 343.692296 
L 314.102026 345.468421 
L 313.036226 346.600498 
L 309.972913 349.730561 
L 307.861373 351.934566 
L 306.352819 354.504948 
L 306.092807 354.954842 
L 305.522073 356.116169 
L 304.790513 357.690759 
L 303.859977 359.303842 
L 303.155058 360.537777 
L 300.030521 364.755958 
L 299.800513 365.095659 
L 299.605619 365.482516 
L 299.151652 366.771816 
L 299.057837 367.200419 
L 299.308463 368.310707 
L 299.903851 370.33779 
L 300.36671 371.069957 
L 300.68291 371.392847 
L 302.112819 372.488209 
L 302.781735 372.845208 
L 303.72417 373.352216 
L 305.703526 374.229241 
L 307.117036 374.807841 
L 307.619016 375.114918 
L 308.085483 375.400661 
L 309.551576 376.891982 
L 310.165236 378.107285 
L 310.20959 378.739114 
L 309.292732 380.672175 
L 308.070246 382.086636 
L 307.214939 382.867618 
L 306.565633 383.396604 
L 303.912584 385.756589 
L 300.892688 388.126445 
L 298.263969 390.095457 
L 296.996619 391.042879 
L 294.14424 393.02279 
L 294.14424 393.02279 
" clip-path="url(#p1680cdf9e2)" style="fill: none; stroke: #0000ff; stroke-width: 2; stroke-linecap: square"/>
   </g>
   <g id="line2d_33">
    <path d="M 364.845073 258.282469 
L 364.162084 258.407118 
L 362.205821 258.786503 
L 361.47079 258.903418 
L 332.772261 264.437433 
L 332.179183 264.662767 
L 330.252703 265.301474 
L 328.28887 265.938658 
L 327.46429 266.30489 
L 324.95059 267.275033 
L 324.466854 267.487469 
L 322.391206 268.300216 
L 320.981963 268.877618 
L 319.895193 269.301103 
L 318.928211 269.703086 
L 317.263719 270.365928 
L 316.208288 270.824788 
L 313.638134 271.984614 
L 299.28169 278.007913 
L 299.28169 278.007913 
L 295.838512 279.307471 
L 295.838512 279.307471 
L 292.593307 280.636125 
L 291.889577 280.978784 
L 289.86135 282.001955 
L 289.747068 282.091322 
L 289.747068 282.091322 
L 287.643717 283.212591 
L 285.565308 285.057721 
L 284.923036 286.222089 
L 284.755321 286.655281 
L 284.755321 286.655281 
L 284.08612 289.153927 
L 284.08612 289.153927 
L 283.97086 289.877022 
L 283.97086 289.877022 
L 283.790953 290.85256 
L 283.697086 291.68684 
L 283.697086 291.68684 
L 283.734097 293.152606 
L 284.108977 294.602699 
L 284.787906 296.06377 
L 285.269904 296.689263 
L 285.586688 297.07887 
L 286.771991 298.102381 
L 286.771991 298.102381 
L 288.88918 299.657052 
L 288.88918 299.657052 
L 293.607664 301.990799 
L 295.259251 302.64327 
L 304.013195 305.909984 
L 307.344642 307.094601 
L 308.659379 307.652473 
L 309.216492 307.800734 
L 310.885205 308.38317 
L 311.749487 308.634429 
L 314.023663 309.320565 
L 314.023663 309.320565 
L 318.675228 310.423281 
L 322.587947 311.044256 
L 337.034319 312.752487 
L 337.034319 312.752487 
L 342.578458 313.656983 
L 342.578458 313.656983 
L 343.168602 313.719618 
L 343.438664 313.876902 
L 344.316787 313.972703 
L 344.544289 314.122006 
L 345.376026 314.208613 
L 345.893037 314.377113 
L 346.444071 314.455543 
L 346.66145 314.588487 
L 346.66145 314.588487 
L 349.210993 315.051782 
L 349.461802 315.258231 
L 350.250264 315.371473 
L 350.888511 315.577031 
L 351.946854 315.807953 
L 352.283405 315.9458 
L 354.640774 316.535975 
L 354.772694 316.628929 
L 354.772694 316.628929 
L 355.349121 316.775308 
L 355.43514 316.842665 
L 355.590705 316.8998 
L 355.939423 317.090273 
L 356.053545 317.169327 
L 356.66266 317.512424 
L 364.849413 324.115999 
L 365.363721 324.610111 
L 365.363721 324.610111 
L 365.57105 324.518099 
L 365.727247 324.720535 
L 365.033932 324.89046 
L 366.163563 326.282248 
L 366.415514 327.033692 
L 366.479336 327.860418 
L 366.367308 328.586584 
L 365.444606 331.472904 
L 364.392948 334.388968 
L 364.074099 335.188672 
L 363.634182 336.275985 
L 363.472511 336.650607 
L 363.351333 336.931226 
L 363.072025 337.349467 
L 363.052733 337.697513 
L 362.795336 338.13161 
L 362.787392 338.353761 
L 362.481369 338.802768 
L 361.3772 340.671989 
L 360.484207 341.552572 
L 359.979489 341.951388 
L 359.387076 342.271844 
L 357.045005 343.550009 
L 356.24891 343.953836 
L 355.725074 344.193709 
L 355.380286 344.38075 
L 354.476975 344.785115 
L 354.476975 344.785115 
L 351.444854 346.299919 
L 351.444854 346.299919 
L 350.721019 346.669281 
L 350.338266 346.817742 
L 349.239357 347.389192 
L 348.830685 347.549117 
L 346.936232 348.743023 
L 345.545781 350.506876 
L 345.171578 351.155043 
L 345.129177 351.191229 
L 345.088776 351.534856 
L 345.088776 351.534856 
L 345.102772 353.636788 
L 346.32454 358.011884 
L 346.446366 358.173953 
L 346.664534 358.876044 
L 347.188901 360.078573 
L 347.387838 360.63181 
L 347.81856 362.203851 
L 348.219757 365.331575 
L 348.108885 367.276222 
L 348.06458 368.216855 
L 348.090807 368.833723 
L 348.134034 369.210036 
L 348.127602 369.591608 
L 348.103888 370.256276 
L 348.447125 372.205239 
L 349.149066 373.65158 
L 350.846809 376.183421 
L 351.166129 376.611745 
L 351.489645 376.995503 
L 352.260158 378.191211 
L 352.836292 378.998315 
L 353.699745 380.494484 
L 354.649822 382.281208 
L 355.027844 382.866321 
L 356.280356 384.25842 
L 358.330895 385.748265 
L 359.993769 386.51187 
L 361.807054 387.220177 
L 365.902253 387.946341 
L 367.242292 388.042005 
L 367.242292 388.042005 
L 368.745983 388.106354 
L 368.745983 388.106354 
L 369.225502 388.085288 
L 370.34611 388.154991 
L 371.264492 388.203001 
L 371.650674 388.101229 
L 372.605618 388.098789 
L 372.844665 388.021659 
L 372.844665 388.021659 
L 373.650881 387.993079 
L 373.909823 387.939524 
L 373.909823 387.939524 
L 374.651158 387.904444 
L 374.895101 387.837197 
L 375.920124 387.843966 
L 376.252191 387.76571 
L 376.533854 387.818938 
L 377.005959 387.751382 
L 377.756138 387.757241 
L 381.368493 388.202872 
L 381.368493 388.202872 
L 381.653007 388.337816 
L 381.653007 388.337816 
L 382.348168 388.524596 
L 382.348168 388.524596 
L 382.948239 388.683767 
L 383.090995 388.763382 
L 383.424404 388.808265 
L 385.385615 390.088596 
L 386.018037 391.019908 
L 386.164396 391.53631 
L 386.235221 391.663701 
L 386.276872 392.005055 
L 386.416182 392.763927 
L 386.590848 396.894696 
L 386.335692 398.409558 
L 385.64199 402.16185 
L 385.64199 402.16185 
" clip-path="url(#p1680cdf9e2)" style="fill: none; stroke: #aa00ff; stroke-width: 2; stroke-linecap: square"/>
   </g>
   <g id="line2d_34">
    <path d="M 364.845073 258.282469 
L 363.830854 258.488148 
L 354.115205 260.286372 
L 333.25899 264.383806 
L 328.434997 265.920712 
L 312.213823 272.419266 
L 306.841029 274.665034 
L 302.441692 276.334424 
L 292.659703 280.092397 
L 289.297256 281.814982 
L 287.323782 283.560152 
L 286.796776 284.44132 
L 286.653575 284.891259 
L 285.475261 289.772147 
L 285.463687 291.913511 
L 285.757942 293.19104 
L 286.981412 295.814593 
L 288.623624 297.451073 
L 289.270184 297.990373 
L 292.28999 300.170653 
L 295.466791 301.852114 
L 313.728442 309.982407 
L 318.016863 311.564613 
L 322.080321 312.655383 
L 325.747944 313.339196 
L 343.672308 316.398165 
L 348.012141 317.456509 
L 350.111833 317.993449 
L 352.504745 318.653346 
L 354.824702 319.329359 
L 355.330973 319.513051 
L 356.570836 319.903859 
L 357.187433 320.163639 
L 357.700017 320.446111 
L 358.431249 320.917584 
L 359.045718 321.374483 
L 360.065782 322.223359 
L 363.057995 324.282938 
L 364.967629 325.495827 
L 366.282694 326.430009 
L 367.880445 327.708125 
L 369.155919 329.23159 
L 369.352896 330.05469 
L 369.228534 330.816713 
L 368.852678 331.447047 
L 366.760833 333.673734 
L 366.042177 334.355314 
L 362.967464 337.151564 
L 362.45217 337.443558 
L 362.323508 337.678981 
L 361.941824 338.035578 
L 361.518108 338.352615 
L 360.774086 339.031628 
L 360.476861 339.304847 
L 358.859789 340.546348 
L 356.312058 341.687093 
L 353.373836 342.713602 
L 352.243765 342.982039 
L 345.082705 344.81036 
L 344.046807 345.06448 
L 340.487363 345.974323 
L 337.530909 347.417229 
L 336.113793 348.728262 
L 335.887687 349.179074 
L 335.677425 349.814235 
L 335.342846 350.957165 
L 335.310407 352.544067 
L 335.236854 353.322869 
L 334.913705 354.330016 
L 334.489357 354.873498 
L 333.010487 356.568498 
L 332.610105 356.898725 
L 332.022224 357.54509 
L 331.769949 357.829717 
L 331.118869 358.610789 
L 330.883082 359.715332 
L 331.028166 360.278853 
L 331.217657 360.927321 
L 331.420444 361.414412 
L 331.566336 361.673705 
L 331.686671 362.203246 
L 331.811367 362.442179 
L 331.959385 363.11472 
L 332.076339 364.235623 
L 332.171547 364.93684 
L 332.333927 365.289695 
L 333.369159 366.292383 
L 336.0846 367.557586 
L 336.949844 367.802935 
L 338.982824 368.184056 
L 340.841811 368.464375 
L 344.465058 368.81877 
L 348.278324 368.955456 
L 348.690192 368.933156 
L 350.330969 368.960833 
L 351.209805 369.06587 
L 352.286371 369.157283 
L 353.116783 369.241212 
L 353.805138 369.399199 
L 356.106515 369.871935 
L 357.534556 370.346681 
L 358.162132 370.855237 
L 358.166997 371.266116 
L 357.782324 371.873112 
L 357.637388 372.008155 
L 357.47954 372.186778 
L 357.270999 372.376514 
L 355.829372 373.558309 
L 352.379561 375.366792 
L 352.154943 375.473833 
L 352.154943 375.473833 
" clip-path="url(#p1680cdf9e2)" style="fill: none; stroke: #ff9c00; stroke-width: 2; stroke-linecap: square"/>
   </g>
   <g id="line2d_35">
    <path d="M 364.845073 258.282469 
L 364.477103 258.356915 
L 358.507275 259.471467 
L 333.311189 264.59331 
L 326.924831 266.809961 
L 316.480271 271.11804 
L 313.400562 272.518303 
L 307.10744 275.369427 
L 303.397444 276.890384 
L 300.913477 277.89647 
L 294.567947 280.347563 
L 291.306393 281.878386 
L 288.058185 283.659474 
L 286.126688 285.353531 
L 285.513377 286.301147 
L 285.329778 286.821854 
L 284.75282 288.802091 
L 284.170205 292.313298 
L 284.205919 293.683223 
L 284.425378 294.793183 
L 284.872542 296.036799 
L 285.597411 297.442044 
L 288.862011 300.180211 
L 290.134005 301.060986 
L 292.554554 302.436845 
L 302.66167 306.567866 
L 307.627956 308.488687 
L 310.351404 309.542292 
L 312.885171 310.433638 
L 318.87433 312.128486 
L 322.80529 312.838579 
L 329.965334 313.759246 
L 333.494327 314.192028 
L 341.023006 315.398694 
L 342.548067 315.729991 
L 344.284967 316.085429 
L 355.777861 319.112761 
L 356.237246 319.306662 
L 356.691653 319.532875 
L 357.361751 319.93512 
L 358.192085 320.619673 
L 359.638073 321.90989 
L 362.539207 324.219455 
L 362.924991 324.500405 
L 366.450334 327.748758 
L 367.485961 329.705466 
L 367.468725 330.509427 
L 367.197029 331.299119 
L 366.834372 331.813849 
L 364.419312 334.168114 
L 364.064418 334.477745 
L 362.633148 335.809588 
L 362.018016 336.313076 
L 359.584408 338.425977 
L 359.35918 338.586961 
L 358.511733 339.368209 
L 357.958529 339.72337 
L 357.681173 340.053081 
L 357.296133 340.418222 
L 356.117737 341.342195 
L 354.986643 342.204668 
L 352.754357 343.352821 
L 351.28711 343.839301 
L 345.330538 345.679306 
L 344.106972 346.0287 
L 340.653068 347.024442 
L 337.684362 347.88643 
L 337.260207 348.029307 
L 335.84671 348.583609 
L 334.249265 349.393108 
L 333.145943 350.132888 
L 331.37062 351.92723 
L 330.823644 353.031409 
L 330.560946 353.786477 
L 330.3982 354.328364 
L 330.140766 355.254178 
L 329.975925 355.993777 
L 329.919578 357.019523 
L 329.693988 359.799291 
L 328.811705 362.428687 
L 328.336401 363.353627 
L 327.877254 364.167801 
L 327.651597 364.729232 
L 327.330039 365.170002 
L 327.157515 365.388833 
L 326.911124 365.861295 
L 325.904819 367.673977 
L 325.602032 368.358325 
L 325.45661 368.591561 
L 325.297575 369.204913 
L 325.13946 370.065989 
L 325.347564 372.18982 
L 325.945397 374.737096 
L 326.093805 375.365441 
L 326.161421 375.764661 
L 326.378642 378.600745 
L 326.395749 379.17272 
L 326.723398 380.288238 
L 326.955511 380.675043 
L 327.753168 381.763586 
L 329.110174 382.703838 
L 330.500767 383.422512 
L 333.277988 384.298484 
L 334.844735 384.543125 
L 338.158159 384.797966 
L 343.013939 384.701091 
L 344.904971 384.639166 
L 348.116093 384.964916 
L 349.409376 385.27933 
L 351.287968 386.023038 
L 352.312215 387.020326 
L 352.529239 387.653755 
L 352.339825 388.565263 
L 350.644777 392.205091 
L 349.243553 394.185785 
L 348.278228 395.415171 
L 347.99834 395.819306 
L 347.693441 396.15375 
L 346.395636 397.694507 
L 346.395636 397.694507 
" clip-path="url(#p1680cdf9e2)" style="fill: none; stroke: #ff0000; stroke-width: 2; stroke-linecap: square"/>
   </g>
   <g id="line2d_36">
    <path d="M 364.845073 258.282469 
L 357.790538 259.598348 
L 348.013174 261.483425 
L 339.771843 263.057359 
L 334.977617 263.999832 
L 331.030806 265.084159 
L 326.142342 266.875997 
L 315.140383 271.335632 
L 300.945001 277.371639 
L 292.685068 280.606273 
L 290.6448 281.596131 
L 286.970535 283.709185 
L 286.037777 284.687977 
L 285.506988 285.401502 
L 285.166007 286.219851 
L 284.587331 288.17546 
L 283.99713 292.05849 
L 284.162641 293.696217 
L 284.603241 295.051984 
L 285.121124 296.13834 
L 285.671986 296.924761 
L 287.369822 298.477273 
L 291.12184 300.956098 
L 292.099286 301.526328 
L 293.985722 302.336543 
L 299.509916 304.590351 
L 302.344488 305.719959 
L 313.166652 309.78121 
L 317.310429 311.022221 
L 319.842351 311.601297 
L 323.15458 312.16632 
L 329.04399 312.923679 
L 337.952458 314.136454 
L 346.748262 315.966172 
L 352.196442 317.347047 
L 356.675498 318.801051 
L 357.717716 319.501592 
L 360.060671 321.530727 
L 361.216781 322.420453 
L 365.917341 326.347862 
L 367.091356 327.71028 
L 367.319746 328.050588 
L 367.565611 329.743855 
L 367.361912 330.337776 
L 366.677258 331.225938 
L 362.968537 334.587084 
L 357.560342 339.062545 
L 357.291096 339.34318 
L 356.444871 339.969308 
L 355.22522 340.889491 
L 353.738794 341.704914 
L 351.908335 342.40119 
L 349.892674 343.00606 
L 341.251389 345.396105 
L 338.747343 346.05496 
L 336.354908 346.800618 
L 333.888191 348.034689 
L 332.763775 348.884149 
L 331.668338 349.986229 
L 331.132432 350.886094 
L 330.87878 351.500972 
L 330.540779 352.530018 
L 330.16151 353.753028 
L 329.984875 355.593562 
L 329.90982 356.972031 
L 329.733294 358.237435 
L 329.415034 359.437091 
L 328.665018 360.969483 
L 327.643863 362.841097 
L 326.814627 364.163364 
L 325.636659 366.364311 
L 325.259683 367.594026 
L 325.206537 368.30027 
L 325.81929 371.615489 
L 326.1637 373.19333 
L 326.403246 375.110262 
L 326.501084 377.221446 
L 326.570337 377.626671 
L 327.248704 378.779952 
L 327.875448 379.542415 
L 328.975718 380.315117 
L 330.98336 381.374673 
L 333.336069 382.025227 
L 336.101419 382.436334 
L 340.164417 382.61573 
L 346.703684 382.608348 
L 348.331559 382.859607 
L 349.646642 383.207659 
L 351.278532 383.865411 
L 352.243844 384.691104 
L 352.540138 385.291388 
L 352.621918 385.60253 
L 352.28873 386.93611 
L 350.330173 390.646759 
L 347.183503 394.502208 
L 346.528044 395.24599 
L 346.528044 395.24599 
" clip-path="url(#p1680cdf9e2)" style="fill: none; stroke: #00ff00; stroke-width: 2; stroke-linecap: square"/>
   </g>
   <g id="Path3DCollection_1">
    <defs>
     <path id="m39f550cc0e" d="M 0 -5 
L -1.12257 -1.545085 
L -4.755283 -1.545085 
L -1.816356 0.59017 
L -2.938926 4.045085 
L -0 1.90983 
L 2.938926 4.045085 
L 1.816356 0.59017 
L 4.755283 -1.545085 
L 1.12257 -1.545085 
z
" style="stroke: #ff0000"/>
    </defs>
    <g clip-path="url(#p1680cdf9e2)">
     <use xlink:href="#m39f550cc0e" x="364.845073" y="258.282469" style="fill: #ff0000; stroke: #ff0000"/>
    </g>
   </g>
   <g id="legend_1">
    <g id="patch_6">
     <path d="M 63.44125 107.5846 
L 600.75875 107.5846 
Q 603.95875 107.5846 603.95875 104.3846 
L 603.95875 60.7396 
Q 603.95875 57.5396 600.75875 57.5396 
L 63.44125 57.5396 
Q 60.24125 57.5396 60.24125 60.7396 
L 60.24125 104.3846 
Q 60.24125 107.5846 63.44125 107.5846 
z
" style="fill: #ffffff; opacity: 0.8; stroke: #cccccc; stroke-linejoin: miter"/>
    </g>
    <g id="line2d_37">
     <g>
      <use xlink:href="#me1951d5563" x="82.64125" y="69.5396" style="fill: #ff0000; stroke: #ff0000; stroke-linejoin: bevel"/>
     </g>
    </g>
    <g id="text_30">
     <!-- Start -->
     <g transform="translate(111.44125 75.1396) scale(0.16 -0.16)">
      <defs>
       <path id="TimesNewRomanPSMT-53" d="M 2934 4334 
L 2934 2869 
L 2819 2869 
Q 2763 3291 2617 3541 
Q 2472 3791 2203 3937 
Q 1934 4084 1647 4084 
Q 1322 4084 1109 3886 
Q 897 3688 897 3434 
Q 897 3241 1031 3081 
Q 1225 2847 1953 2456 
Q 2547 2138 2764 1967 
Q 2981 1797 3098 1565 
Q 3216 1334 3216 1081 
Q 3216 600 2842 251 
Q 2469 -97 1881 -97 
Q 1697 -97 1534 -69 
Q 1438 -53 1133 45 
Q 828 144 747 144 
Q 669 144 623 97 
Q 578 50 556 -97 
L 441 -97 
L 441 1356 
L 556 1356 
Q 638 900 775 673 
Q 913 447 1195 297 
Q 1478 147 1816 147 
Q 2206 147 2432 353 
Q 2659 559 2659 841 
Q 2659 997 2573 1156 
Q 2488 1316 2306 1453 
Q 2184 1547 1640 1851 
Q 1097 2156 867 2337 
Q 638 2519 519 2737 
Q 400 2956 400 3219 
Q 400 3675 750 4004 
Q 1100 4334 1641 4334 
Q 1978 4334 2356 4169 
Q 2531 4091 2603 4091 
Q 2684 4091 2736 4139 
Q 2788 4188 2819 4334 
L 2934 4334 
z
" transform="scale(0.015625)"/>
       <path id="TimesNewRomanPSMT-74" d="M 1031 3803 
L 1031 2863 
L 1700 2863 
L 1700 2644 
L 1031 2644 
L 1031 788 
Q 1031 509 1111 412 
Q 1191 316 1316 316 
Q 1419 316 1516 380 
Q 1613 444 1666 569 
L 1788 569 
Q 1678 263 1478 108 
Q 1278 -47 1066 -47 
Q 922 -47 784 33 
Q 647 113 581 261 
Q 516 409 516 719 
L 516 2644 
L 63 2644 
L 63 2747 
Q 234 2816 414 2980 
Q 594 3144 734 3369 
Q 806 3488 934 3803 
L 1031 3803 
z
" transform="scale(0.015625)"/>
       <path id="TimesNewRomanPSMT-61" d="M 1822 413 
Q 1381 72 1269 19 
Q 1100 -59 909 -59 
Q 613 -59 420 144 
Q 228 347 228 678 
Q 228 888 322 1041 
Q 450 1253 767 1440 
Q 1084 1628 1822 1897 
L 1822 2009 
Q 1822 2438 1686 2597 
Q 1550 2756 1291 2756 
Q 1094 2756 978 2650 
Q 859 2544 859 2406 
L 866 2225 
Q 866 2081 792 2003 
Q 719 1925 600 1925 
Q 484 1925 411 2006 
Q 338 2088 338 2228 
Q 338 2497 613 2722 
Q 888 2947 1384 2947 
Q 1766 2947 2009 2819 
Q 2194 2722 2281 2516 
Q 2338 2381 2338 1966 
L 2338 994 
Q 2338 584 2353 492 
Q 2369 400 2405 369 
Q 2441 338 2488 338 
Q 2538 338 2575 359 
Q 2641 400 2828 588 
L 2828 413 
Q 2478 -56 2159 -56 
Q 2006 -56 1915 50 
Q 1825 156 1822 413 
z
M 1822 616 
L 1822 1706 
Q 1350 1519 1213 1441 
Q 966 1303 859 1153 
Q 753 1003 753 825 
Q 753 600 887 451 
Q 1022 303 1197 303 
Q 1434 303 1822 616 
z
" transform="scale(0.015625)"/>
       <path id="TimesNewRomanPSMT-72" d="M 1038 2947 
L 1038 2303 
Q 1397 2947 1775 2947 
Q 1947 2947 2059 2842 
Q 2172 2738 2172 2600 
Q 2172 2478 2090 2393 
Q 2009 2309 1897 2309 
Q 1788 2309 1652 2417 
Q 1516 2525 1450 2525 
Q 1394 2525 1328 2463 
Q 1188 2334 1038 2041 
L 1038 669 
Q 1038 431 1097 309 
Q 1138 225 1241 169 
Q 1344 113 1538 113 
L 1538 0 
L 72 0 
L 72 113 
Q 291 113 397 181 
Q 475 231 506 341 
Q 522 394 522 644 
L 522 1753 
Q 522 2253 501 2348 
Q 481 2444 426 2487 
Q 372 2531 291 2531 
Q 194 2531 72 2484 
L 41 2597 
L 906 2947 
L 1038 2947 
z
" transform="scale(0.015625)"/>
      </defs>
      <use xlink:href="#TimesNewRomanPSMT-53"/>
      <use xlink:href="#TimesNewRomanPSMT-74" x="55.615234"/>
      <use xlink:href="#TimesNewRomanPSMT-61" x="83.398438"/>
      <use xlink:href="#TimesNewRomanPSMT-72" x="127.783203"/>
      <use xlink:href="#TimesNewRomanPSMT-74" x="161.083984"/>
     </g>
    </g>
    <g id="patch_7">
     <path d="M 66.64125 97.7621 
L 98.64125 97.7621 
L 98.64125 86.5621 
L 66.64125 86.5621 
L 66.64125 97.7621 
z
" style="fill: none"/>
    </g>
    <g id="line2d_38">
     <path d="M 173.65875 69.5396 
L 189.65875 69.5396 
L 205.65875 69.5396 
" style="fill: none; stroke-dasharray: 10.175,4.4; stroke-dashoffset: 0; stroke: #808a87; stroke-width: 2.75"/>
    </g>
    <g id="text_31">
     <!-- GroundTruth -->
     <g transform="translate(218.45875 75.1396) scale(0.16 -0.16)">
      <defs>
       <path id="TimesNewRomanPSMT-47" d="M 3928 4334 
L 4038 2997 
L 3928 2997 
Q 3763 3497 3500 3750 
Q 3122 4116 2528 4116 
Q 1719 4116 1297 3475 
Q 944 2934 944 2188 
Q 944 1581 1178 1081 
Q 1413 581 1792 348 
Q 2172 116 2572 116 
Q 2806 116 3025 175 
Q 3244 234 3447 350 
L 3447 1575 
Q 3447 1894 3398 1992 
Q 3350 2091 3248 2142 
Q 3147 2194 2891 2194 
L 2891 2313 
L 4531 2313 
L 4531 2194 
L 4453 2194 
Q 4209 2194 4119 2031 
Q 4056 1916 4056 1575 
L 4056 278 
Q 3697 84 3347 -6 
Q 2997 -97 2569 -97 
Q 1341 -97 703 691 
Q 225 1281 225 2053 
Q 225 2613 494 3125 
Q 813 3734 1369 4063 
Q 1834 4334 2469 4334 
Q 2700 4334 2889 4296 
Q 3078 4259 3425 4131 
Q 3600 4066 3659 4066 
Q 3719 4066 3761 4120 
Q 3803 4175 3813 4334 
L 3928 4334 
z
" transform="scale(0.015625)"/>
       <path id="TimesNewRomanPSMT-6f" d="M 1600 2947 
Q 2250 2947 2644 2453 
Q 2978 2031 2978 1484 
Q 2978 1100 2793 706 
Q 2609 313 2286 112 
Q 1963 -88 1566 -88 
Q 919 -88 538 428 
Q 216 863 216 1403 
Q 216 1797 411 2186 
Q 606 2575 925 2761 
Q 1244 2947 1600 2947 
z
M 1503 2744 
Q 1338 2744 1170 2645 
Q 1003 2547 900 2300 
Q 797 2053 797 1666 
Q 797 1041 1045 587 
Q 1294 134 1700 134 
Q 2003 134 2200 384 
Q 2397 634 2397 1244 
Q 2397 2006 2069 2444 
Q 1847 2744 1503 2744 
z
" transform="scale(0.015625)"/>
       <path id="TimesNewRomanPSMT-75" d="M 2709 2863 
L 2709 1128 
Q 2709 631 2732 520 
Q 2756 409 2807 365 
Q 2859 322 2928 322 
Q 3025 322 3147 375 
L 3191 266 
L 2334 -88 
L 2194 -88 
L 2194 519 
Q 1825 119 1631 15 
Q 1438 -88 1222 -88 
Q 981 -88 804 51 
Q 628 191 559 409 
Q 491 628 491 1028 
L 491 2306 
Q 491 2509 447 2587 
Q 403 2666 317 2708 
Q 231 2750 6 2747 
L 6 2863 
L 1009 2863 
L 1009 947 
Q 1009 547 1148 422 
Q 1288 297 1484 297 
Q 1619 297 1789 381 
Q 1959 466 2194 703 
L 2194 2325 
Q 2194 2569 2105 2655 
Q 2016 2741 1734 2747 
L 1734 2863 
L 2709 2863 
z
" transform="scale(0.015625)"/>
       <path id="TimesNewRomanPSMT-6e" d="M 1034 2341 
Q 1538 2947 1994 2947 
Q 2228 2947 2397 2830 
Q 2566 2713 2666 2444 
Q 2734 2256 2734 1869 
L 2734 647 
Q 2734 375 2778 278 
Q 2813 200 2889 156 
Q 2966 113 3172 113 
L 3172 0 
L 1756 0 
L 1756 113 
L 1816 113 
Q 2016 113 2095 173 
Q 2175 234 2206 353 
Q 2219 400 2219 647 
L 2219 1819 
Q 2219 2209 2117 2386 
Q 2016 2563 1775 2563 
Q 1403 2563 1034 2156 
L 1034 647 
Q 1034 356 1069 288 
Q 1113 197 1189 155 
Q 1266 113 1500 113 
L 1500 0 
L 84 0 
L 84 113 
L 147 113 
Q 366 113 442 223 
Q 519 334 519 647 
L 519 1709 
Q 519 2225 495 2337 
Q 472 2450 423 2490 
Q 375 2531 294 2531 
Q 206 2531 84 2484 
L 38 2597 
L 900 2947 
L 1034 2947 
L 1034 2341 
z
" transform="scale(0.015625)"/>
       <path id="TimesNewRomanPSMT-64" d="M 2222 322 
Q 2013 103 1813 7 
Q 1613 -88 1381 -88 
Q 913 -88 563 304 
Q 213 697 213 1313 
Q 213 1928 600 2439 
Q 988 2950 1597 2950 
Q 1975 2950 2222 2709 
L 2222 3238 
Q 2222 3728 2198 3840 
Q 2175 3953 2125 3993 
Q 2075 4034 2000 4034 
Q 1919 4034 1784 3984 
L 1744 4094 
L 2597 4444 
L 2738 4444 
L 2738 1134 
Q 2738 631 2761 520 
Q 2784 409 2836 365 
Q 2888 322 2956 322 
Q 3041 322 3181 375 
L 3216 266 
L 2366 -88 
L 2222 -88 
L 2222 322 
z
M 2222 541 
L 2222 2016 
Q 2203 2228 2109 2403 
Q 2016 2578 1861 2667 
Q 1706 2756 1559 2756 
Q 1284 2756 1069 2509 
Q 784 2184 784 1559 
Q 784 928 1059 592 
Q 1334 256 1672 256 
Q 1956 256 2222 541 
z
" transform="scale(0.015625)"/>
       <path id="TimesNewRomanPSMT-54" d="M 3703 4238 
L 3750 3244 
L 3631 3244 
Q 3597 3506 3538 3619 
Q 3441 3800 3280 3886 
Q 3119 3972 2856 3972 
L 2259 3972 
L 2259 734 
Q 2259 344 2344 247 
Q 2463 116 2709 116 
L 2856 116 
L 2856 0 
L 1059 0 
L 1059 116 
L 1209 116 
Q 1478 116 1591 278 
Q 1659 378 1659 734 
L 1659 3972 
L 1150 3972 
Q 853 3972 728 3928 
Q 566 3869 450 3700 
Q 334 3531 313 3244 
L 194 3244 
L 244 4238 
L 3703 4238 
z
" transform="scale(0.015625)"/>
       <path id="TimesNewRomanPSMT-68" d="M 1041 4444 
L 1041 2350 
Q 1388 2731 1591 2839 
Q 1794 2947 1997 2947 
Q 2241 2947 2416 2812 
Q 2591 2678 2675 2391 
Q 2734 2191 2734 1659 
L 2734 647 
Q 2734 375 2778 275 
Q 2809 200 2884 156 
Q 2959 113 3159 113 
L 3159 0 
L 1753 0 
L 1753 113 
L 1819 113 
Q 2019 113 2097 173 
Q 2175 234 2206 353 
Q 2216 403 2216 647 
L 2216 1659 
Q 2216 2128 2167 2275 
Q 2119 2422 2012 2495 
Q 1906 2569 1756 2569 
Q 1603 2569 1437 2487 
Q 1272 2406 1041 2159 
L 1041 647 
Q 1041 353 1073 281 
Q 1106 209 1195 161 
Q 1284 113 1503 113 
L 1503 0 
L 84 0 
L 84 113 
Q 275 113 384 172 
Q 447 203 484 290 
Q 522 378 522 647 
L 522 3238 
Q 522 3728 498 3840 
Q 475 3953 426 3993 
Q 378 4034 297 4034 
Q 231 4034 84 3984 
L 41 4094 
L 897 4444 
L 1041 4444 
z
" transform="scale(0.015625)"/>
      </defs>
      <use xlink:href="#TimesNewRomanPSMT-47"/>
      <use xlink:href="#TimesNewRomanPSMT-72" x="72.216797"/>
      <use xlink:href="#TimesNewRomanPSMT-6f" x="105.517578"/>
      <use xlink:href="#TimesNewRomanPSMT-75" x="155.517578"/>
      <use xlink:href="#TimesNewRomanPSMT-6e" x="205.517578"/>
      <use xlink:href="#TimesNewRomanPSMT-64" x="255.517578"/>
      <use xlink:href="#TimesNewRomanPSMT-54" x="305.517578"/>
      <use xlink:href="#TimesNewRomanPSMT-72" x="363.101562"/>
      <use xlink:href="#TimesNewRomanPSMT-75" x="396.402344"/>
      <use xlink:href="#TimesNewRomanPSMT-74" x="446.402344"/>
      <use xlink:href="#TimesNewRomanPSMT-68" x="474.185547"/>
     </g>
    </g>
    <g id="line2d_39">
     <path d="M 173.65875 92.1621 
L 189.65875 92.1621 
L 205.65875 92.1621 
" style="fill: none; stroke: #0000ff; stroke-width: 2; stroke-linecap: square"/>
    </g>
    <g id="text_32">
     <!-- LOAM -->
     <g transform="translate(218.45875 97.7621) scale(0.16 -0.16)">
      <defs>
       <path id="TimesNewRomanPSMT-4c" d="M 3669 1172 
L 3772 1150 
L 3409 0 
L 128 0 
L 128 116 
L 288 116 
Q 556 116 672 291 
Q 738 391 738 753 
L 738 3488 
Q 738 3884 650 3984 
Q 528 4122 288 4122 
L 128 4122 
L 128 4238 
L 2047 4238 
L 2047 4122 
Q 1709 4125 1573 4059 
Q 1438 3994 1388 3894 
Q 1338 3794 1338 3416 
L 1338 753 
Q 1338 494 1388 397 
Q 1425 331 1503 300 
Q 1581 269 1991 269 
L 2300 269 
Q 2788 269 2984 341 
Q 3181 413 3343 595 
Q 3506 778 3669 1172 
z
" transform="scale(0.015625)"/>
       <path id="TimesNewRomanPSMT-4f" d="M 2341 4334 
Q 3166 4334 3770 3707 
Q 4375 3081 4375 2144 
Q 4375 1178 3765 540 
Q 3156 -97 2291 -97 
Q 1416 -97 820 525 
Q 225 1147 225 2134 
Q 225 3144 913 3781 
Q 1509 4334 2341 4334 
z
M 2281 4106 
Q 1713 4106 1369 3684 
Q 941 3159 941 2147 
Q 941 1109 1384 550 
Q 1725 125 2284 125 
Q 2881 125 3270 590 
Q 3659 1056 3659 2059 
Q 3659 3147 3231 3681 
Q 2888 4106 2281 4106 
z
" transform="scale(0.015625)"/>
       <path id="TimesNewRomanPSMT-41" d="M 2928 1419 
L 1288 1419 
L 1000 750 
Q 894 503 894 381 
Q 894 284 986 211 
Q 1078 138 1384 116 
L 1384 0 
L 50 0 
L 50 116 
Q 316 163 394 238 
Q 553 388 747 847 
L 2238 4334 
L 2347 4334 
L 3822 809 
Q 4000 384 4145 257 
Q 4291 131 4550 116 
L 4550 0 
L 2878 0 
L 2878 116 
Q 3131 128 3220 200 
Q 3309 272 3309 375 
Q 3309 513 3184 809 
L 2928 1419 
z
M 2841 1650 
L 2122 3363 
L 1384 1650 
L 2841 1650 
z
" transform="scale(0.015625)"/>
       <path id="TimesNewRomanPSMT-4d" d="M 2619 0 
L 981 3566 
L 981 734 
Q 981 344 1066 247 
Q 1181 116 1431 116 
L 1581 116 
L 1581 0 
L 106 0 
L 106 116 
L 256 116 
Q 525 116 638 278 
Q 706 378 706 734 
L 706 3503 
Q 706 3784 644 3909 
Q 600 4000 483 4061 
Q 366 4122 106 4122 
L 106 4238 
L 1306 4238 
L 2844 922 
L 4356 4238 
L 5556 4238 
L 5556 4122 
L 5409 4122 
Q 5138 4122 5025 3959 
Q 4956 3859 4956 3503 
L 4956 734 
Q 4956 344 5044 247 
Q 5159 116 5409 116 
L 5556 116 
L 5556 0 
L 3756 0 
L 3756 116 
L 3906 116 
Q 4178 116 4288 278 
Q 4356 378 4356 734 
L 4356 3566 
L 2722 0 
L 2619 0 
z
" transform="scale(0.015625)"/>
      </defs>
      <use xlink:href="#TimesNewRomanPSMT-4c"/>
      <use xlink:href="#TimesNewRomanPSMT-4f" x="61.083984"/>
      <use xlink:href="#TimesNewRomanPSMT-41" x="133.300781"/>
      <use xlink:href="#TimesNewRomanPSMT-4d" x="205.517578"/>
     </g>
    </g>
    <g id="line2d_40">
     <path d="M 334.32625 69.5396 
L 350.32625 69.5396 
L 366.32625 69.5396 
" style="fill: none; stroke: #aa00ff; stroke-width: 2; stroke-linecap: square"/>
    </g>
    <g id="text_33">
     <!-- LeGO-LOAM -->
     <g transform="translate(379.12625 75.1396) scale(0.16 -0.16)">
      <defs>
       <path id="TimesNewRomanPSMT-65" d="M 681 1784 
Q 678 1147 991 784 
Q 1303 422 1725 422 
Q 2006 422 2214 576 
Q 2422 731 2563 1106 
L 2659 1044 
Q 2594 616 2278 264 
Q 1963 -88 1488 -88 
Q 972 -88 605 314 
Q 238 716 238 1394 
Q 238 2128 614 2539 
Q 991 2950 1559 2950 
Q 2041 2950 2350 2633 
Q 2659 2316 2659 1784 
L 681 1784 
z
M 681 1966 
L 2006 1966 
Q 1991 2241 1941 2353 
Q 1863 2528 1708 2628 
Q 1553 2728 1384 2728 
Q 1125 2728 920 2526 
Q 716 2325 681 1966 
z
" transform="scale(0.015625)"/>
       <path id="TimesNewRomanPSMT-2d" d="M 259 1672 
L 1875 1672 
L 1875 1200 
L 259 1200 
L 259 1672 
z
" transform="scale(0.015625)"/>
      </defs>
      <use xlink:href="#TimesNewRomanPSMT-4c"/>
      <use xlink:href="#TimesNewRomanPSMT-65" x="61.083984"/>
      <use xlink:href="#TimesNewRomanPSMT-47" x="105.46875"/>
      <use xlink:href="#TimesNewRomanPSMT-4f" x="177.685547"/>
      <use xlink:href="#TimesNewRomanPSMT-2d" x="249.902344"/>
      <use xlink:href="#TimesNewRomanPSMT-4c" x="283.203125"/>
      <use xlink:href="#TimesNewRomanPSMT-4f" x="344.287109"/>
      <use xlink:href="#TimesNewRomanPSMT-41" x="416.503906"/>
      <use xlink:href="#TimesNewRomanPSMT-4d" x="488.720703"/>
     </g>
    </g>
    <g id="line2d_41">
     <path d="M 334.32625 92.1621 
L 350.32625 92.1621 
L 366.32625 92.1621 
" style="fill: none; stroke: #ff9c00; stroke-width: 2; stroke-linecap: square"/>
    </g>
    <g id="text_34">
     <!-- HDL-SLAM -->
     <g transform="translate(379.12625 97.7621) scale(0.16 -0.16)">
      <defs>
       <path id="TimesNewRomanPSMT-48" d="M 1316 2272 
L 3284 2272 
L 3284 3484 
Q 3284 3809 3244 3913 
Q 3213 3991 3113 4047 
Q 2978 4122 2828 4122 
L 2678 4122 
L 2678 4238 
L 4491 4238 
L 4491 4122 
L 4341 4122 
Q 4191 4122 4056 4050 
Q 3956 4000 3920 3898 
Q 3884 3797 3884 3484 
L 3884 750 
Q 3884 428 3925 325 
Q 3956 247 4053 191 
Q 4191 116 4341 116 
L 4491 116 
L 4491 0 
L 2678 0 
L 2678 116 
L 2828 116 
Q 3088 116 3206 269 
Q 3284 369 3284 750 
L 3284 2041 
L 1316 2041 
L 1316 750 
Q 1316 428 1356 325 
Q 1388 247 1488 191 
Q 1622 116 1772 116 
L 1925 116 
L 1925 0 
L 109 0 
L 109 116 
L 259 116 
Q 522 116 641 269 
Q 716 369 716 750 
L 716 3484 
Q 716 3809 675 3913 
Q 644 3991 547 4047 
Q 409 4122 259 4122 
L 109 4122 
L 109 4238 
L 1925 4238 
L 1925 4122 
L 1772 4122 
Q 1622 4122 1488 4050 
Q 1391 4000 1353 3898 
Q 1316 3797 1316 3484 
L 1316 2272 
z
" transform="scale(0.015625)"/>
       <path id="TimesNewRomanPSMT-44" d="M 109 0 
L 109 116 
L 269 116 
Q 538 116 650 288 
Q 719 391 719 750 
L 719 3488 
Q 719 3884 631 3984 
Q 509 4122 269 4122 
L 109 4122 
L 109 4238 
L 1834 4238 
Q 2784 4238 3279 4022 
Q 3775 3806 4076 3303 
Q 4378 2800 4378 2141 
Q 4378 1256 3841 663 
Q 3238 0 2003 0 
L 109 0 
z
M 1319 306 
Q 1716 219 1984 219 
Q 2709 219 3187 728 
Q 3666 1238 3666 2109 
Q 3666 2988 3187 3494 
Q 2709 4000 1959 4000 
Q 1678 4000 1319 3909 
L 1319 306 
z
" transform="scale(0.015625)"/>
      </defs>
      <use xlink:href="#TimesNewRomanPSMT-48"/>
      <use xlink:href="#TimesNewRomanPSMT-44" x="72.216797"/>
      <use xlink:href="#TimesNewRomanPSMT-4c" x="144.433594"/>
      <use xlink:href="#TimesNewRomanPSMT-2d" x="205.517578"/>
      <use xlink:href="#TimesNewRomanPSMT-53" x="238.818359"/>
      <use xlink:href="#TimesNewRomanPSMT-4c" x="294.433594"/>
      <use xlink:href="#TimesNewRomanPSMT-41" x="355.517578"/>
      <use xlink:href="#TimesNewRomanPSMT-4d" x="427.734375"/>
     </g>
    </g>
    <g id="line2d_42">
     <path d="M 503.54875 69.5396 
L 519.54875 69.5396 
L 535.54875 69.5396 
" style="fill: none; stroke: #ff0000; stroke-width: 2; stroke-linecap: square"/>
    </g>
    <g id="text_35">
     <!-- CT-ICP -->
     <g transform="translate(548.34875 75.1396) scale(0.16 -0.16)">
      <defs>
       <path id="TimesNewRomanPSMT-43" d="M 3853 4334 
L 3950 2894 
L 3853 2894 
Q 3659 3541 3300 3825 
Q 2941 4109 2438 4109 
Q 2016 4109 1675 3895 
Q 1334 3681 1139 3212 
Q 944 2744 944 2047 
Q 944 1472 1128 1050 
Q 1313 628 1683 403 
Q 2053 178 2528 178 
Q 2941 178 3256 354 
Q 3572 531 3950 1056 
L 4047 994 
Q 3728 428 3303 165 
Q 2878 -97 2294 -97 
Q 1241 -97 663 684 
Q 231 1266 231 2053 
Q 231 2688 515 3219 
Q 800 3750 1298 4042 
Q 1797 4334 2388 4334 
Q 2847 4334 3294 4109 
Q 3425 4041 3481 4041 
Q 3566 4041 3628 4100 
Q 3709 4184 3744 4334 
L 3853 4334 
z
" transform="scale(0.015625)"/>
       <path id="TimesNewRomanPSMT-49" d="M 1975 116 
L 1975 0 
L 159 0 
L 159 116 
L 309 116 
Q 572 116 691 269 
Q 766 369 766 750 
L 766 3488 
Q 766 3809 725 3913 
Q 694 3991 597 4047 
Q 459 4122 309 4122 
L 159 4122 
L 159 4238 
L 1975 4238 
L 1975 4122 
L 1822 4122 
Q 1563 4122 1444 3969 
Q 1366 3869 1366 3488 
L 1366 750 
Q 1366 428 1406 325 
Q 1438 247 1538 191 
Q 1672 116 1822 116 
L 1975 116 
z
" transform="scale(0.015625)"/>
       <path id="TimesNewRomanPSMT-50" d="M 1313 1984 
L 1313 750 
Q 1313 350 1400 253 
Q 1519 116 1759 116 
L 1922 116 
L 1922 0 
L 106 0 
L 106 116 
L 266 116 
Q 534 116 650 291 
Q 713 388 713 750 
L 713 3488 
Q 713 3888 628 3984 
Q 506 4122 266 4122 
L 106 4122 
L 106 4238 
L 1659 4238 
Q 2228 4238 2556 4120 
Q 2884 4003 3109 3725 
Q 3334 3447 3334 3066 
Q 3334 2547 2992 2222 
Q 2650 1897 2025 1897 
Q 1872 1897 1694 1919 
Q 1516 1941 1313 1984 
z
M 1313 2163 
Q 1478 2131 1606 2115 
Q 1734 2100 1825 2100 
Q 2150 2100 2386 2351 
Q 2622 2603 2622 3003 
Q 2622 3278 2509 3514 
Q 2397 3750 2190 3867 
Q 1984 3984 1722 3984 
Q 1563 3984 1313 3925 
L 1313 2163 
z
" transform="scale(0.015625)"/>
      </defs>
      <use xlink:href="#TimesNewRomanPSMT-43"/>
      <use xlink:href="#TimesNewRomanPSMT-54" x="66.699219"/>
      <use xlink:href="#TimesNewRomanPSMT-2d" x="118.658203"/>
      <use xlink:href="#TimesNewRomanPSMT-49" x="151.958984"/>
      <use xlink:href="#TimesNewRomanPSMT-43" x="185.259766"/>
      <use xlink:href="#TimesNewRomanPSMT-50" x="251.958984"/>
     </g>
    </g>
    <g id="line2d_43">
     <path d="M 503.54875 92.1621 
L 519.54875 92.1621 
L 535.54875 92.1621 
" style="fill: none; stroke: #00ff00; stroke-width: 2; stroke-linecap: square"/>
    </g>
    <g id="text_36">
     <!-- ROLO -->
     <g transform="translate(548.34875 97.7621) scale(0.16 -0.16)">
      <defs>
       <path id="TimesNewRomanPSMT-52" d="M 4325 0 
L 3194 0 
L 1759 1981 
Q 1600 1975 1500 1975 
Q 1459 1975 1412 1976 
Q 1366 1978 1316 1981 
L 1316 750 
Q 1316 350 1403 253 
Q 1522 116 1759 116 
L 1925 116 
L 1925 0 
L 109 0 
L 109 116 
L 269 116 
Q 538 116 653 291 
Q 719 388 719 750 
L 719 3488 
Q 719 3888 631 3984 
Q 509 4122 269 4122 
L 109 4122 
L 109 4238 
L 1653 4238 
Q 2328 4238 2648 4139 
Q 2969 4041 3192 3777 
Q 3416 3513 3416 3147 
Q 3416 2756 3161 2468 
Q 2906 2181 2372 2063 
L 3247 847 
Q 3547 428 3762 290 
Q 3978 153 4325 116 
L 4325 0 
z
M 1316 2178 
Q 1375 2178 1419 2176 
Q 1463 2175 1491 2175 
Q 2097 2175 2405 2437 
Q 2713 2700 2713 3106 
Q 2713 3503 2464 3751 
Q 2216 4000 1806 4000 
Q 1625 4000 1316 3941 
L 1316 2178 
z
" transform="scale(0.015625)"/>
      </defs>
      <use xlink:href="#TimesNewRomanPSMT-52"/>
      <use xlink:href="#TimesNewRomanPSMT-4f" x="66.699219"/>
      <use xlink:href="#TimesNewRomanPSMT-4c" x="138.916016"/>
      <use xlink:href="#TimesNewRomanPSMT-4f" x="200"/>
     </g>
    </g>
   </g>
  </g>
 </g>
 <defs>
  <clipPath id="p1680cdf9e2">
   <rect x="42.12" y="43.74" width="579.96" height="579.96"/>
  </clipPath>
 </defs>
</svg>
