<?xml version="1.0" encoding="utf-8" standalone="no"?>
<!DOCTYPE svg PUBLIC "-//W3C//DTD SVG 1.1//EN"
  "http://www.w3.org/Graphics/SVG/1.1/DTD/svg11.dtd">
<svg xmlns:xlink="http://www.w3.org/1999/xlink" width="648pt" height="648pt" viewBox="0 0 648 648" xmlns="http://www.w3.org/2000/svg" version="1.1">
 <metadata>
  <rdf:RDF xmlns:dc="http://purl.org/dc/elements/1.1/" xmlns:cc="http://creativecommons.org/ns#" xmlns:rdf="http://www.w3.org/1999/02/22-rdf-syntax-ns#">
   <cc:Work>
    <dc:type rdf:resource="http://purl.org/dc/dcmitype/StillImage"/>
    <dc:date>2024-08-06T11:46:05.846109</dc:date>
    <dc:format>image/svg+xml</dc:format>
    <dc:creator>
     <cc:Agent>
      <dc:title>Matplotlib v3.8.3, https://matplotlib.org/</dc:title>
     </cc:Agent>
    </dc:creator>
   </cc:Work>
  </rdf:RDF>
 </metadata>
 <defs>
  <style type="text/css">*{stroke-linejoin: round; stroke-linecap: butt}</style>
 </defs>
 <g id="figure_1">
  <g id="patch_1">
   <path d="M 0 648 
L 648 648 
L 648 0 
L 0 0 
z
" style="fill: #ffffff"/>
  </g>
  <g id="patch_2">
   <path d="M 42.12 623.7 
L 622.08 623.7 
L 622.08 43.74 
L 42.12 43.74 
z
" style="fill: #ffffff"/>
  </g>
  <g id="pane3d_1">
   <g id="patch_3">
    <path d="M 578.885513 419.371658 
L 259.99709 359.989531 
L 257.484112 115.308045 
L 586.753842 165.022371 
" style="fill: #ffffff; stroke: #ffffff; stroke-linejoin: miter"/>
   </g>
  </g>
  <g id="pane3d_2">
   <g id="patch_4">
    <path d="M 88.541817 489.727312 
L 259.99709 359.989531 
L 257.484112 115.308045 
L 79.817419 224.110293 
" style="fill: #ffffff; stroke: #ffffff; stroke-linejoin: miter"/>
   </g>
  </g>
  <g id="pane3d_3">
   <g id="patch_5">
    <path d="M 432.382553 561.975803 
L 578.885513 419.371658 
L 259.99709 359.989531 
L 88.541817 489.727312 
" style="fill: #ffffff; stroke: #ffffff; stroke-linejoin: miter"/>
   </g>
  </g>
  <g id="grid3d_1">
   <g id="Line3DCollection_1">
    <path d="M 435.615157 558.829227 
L 92.307899 486.877571 
L 83.73203 221.713003 
" style="fill: none; stroke: #bdc3c7; stroke-width: 0.5"/>
    <path d="M 473.369953 522.079181 
L 136.350324 453.551291 
L 129.471018 193.702663 
" style="fill: none; stroke: #bdc3c7; stroke-width: 0.5"/>
    <path d="M 509.307252 487.098265 
L 178.370245 421.755411 
L 173.040302 167.021038 
" style="fill: none; stroke: #bdc3c7; stroke-width: 0.5"/>
    <path d="M 543.555209 453.761733 
L 218.503851 391.386879 
L 214.590691 141.575775 
" style="fill: none; stroke: #bdc3c7; stroke-width: 0.5"/>
    <path d="M 576.230208 421.956299 
L 256.875371 362.351692 
L 254.259333 117.282885 
" style="fill: none; stroke: #bdc3c7; stroke-width: 0.5"/>
   </g>
  </g>
  <g id="grid3d_2">
   <g id="Line3DCollection_2">
    <path d="M 579.862166 163.981841 
L 572.220567 418.130539 
L 425.16343 560.458907 
" style="fill: none; stroke: #bdc3c7; stroke-width: 0.5"/>
    <path d="M 498.171018 151.647818 
L 493.186247 403.413084 
L 339.664214 542.493644 
" style="fill: none; stroke: #bdc3c7; stroke-width: 0.5"/>
    <path d="M 418.299344 139.588506 
L 415.857372 389.01321 
L 256.199917 524.955962 
" style="fill: none; stroke: #bdc3c7; stroke-width: 0.5"/>
    <path d="M 340.187028 127.794828 
L 340.179329 374.920747 
L 174.698743 507.830775 
" style="fill: none; stroke: #bdc3c7; stroke-width: 0.5"/>
    <path d="M 263.776572 116.258104 
L 266.099813 361.125956 
L 95.092238 491.1037 
" style="fill: none; stroke: #bdc3c7; stroke-width: 0.5"/>
   </g>
  </g>
  <g id="grid3d_3">
   <g id="Line3DCollection_3">
    <path d="M 88.373068 484.589701 
L 259.948332 355.242154 
L 579.03796 414.4437 
" style="fill: none; stroke: #bdc3c7; stroke-width: 0.5"/>
    <path d="M 86.330268 422.396014 
L 259.358569 297.818592 
L 580.882614 354.813951 
" style="fill: none; stroke: #bdc3c7; stroke-width: 0.5"/>
    <path d="M 84.25402 359.183983 
L 258.760045 239.541966 
L 582.755953 294.256966 
" style="fill: none; stroke: #bdc3c7; stroke-width: 0.5"/>
    <path d="M 82.143495 294.92839 
L 258.152562 180.393124 
L 584.658649 232.750947 
" style="fill: none; stroke: #bdc3c7; stroke-width: 0.5"/>
    <path d="M 79.997837 229.60318 
L 257.535919 120.352339 
L 586.5914 170.273408 
" style="fill: none; stroke: #bdc3c7; stroke-width: 0.5"/>
   </g>
  </g>
  <g id="axis3d_1">
   <g id="line2d_1">
    <path d="M 578.885513 419.371658 
L 432.382553 561.975803 
" style="fill: none; stroke: #000000; stroke-width: 0.8; stroke-linecap: square"/>
   </g>
   <g id="xtick_1">
    <g id="line2d_2">
     <path d="M 432.730521 558.224654 
L 441.39146 560.039847 
" style="fill: none; stroke: #000000; stroke-width: 0.8; stroke-linecap: square"/>
    </g>
    <g id="text_1">
     <!-- 0 -->
     <g transform="translate(438.262016 576.269669) scale(0.14 -0.14)">
      <defs>
       <path id="DejaVuSans-30" d="M 2034 4250 
Q 1547 4250 1301 3770 
Q 1056 3291 1056 2328 
Q 1056 1369 1301 889 
Q 1547 409 2034 409 
Q 2525 409 2770 889 
Q 3016 1369 3016 2328 
Q 3016 3291 2770 3770 
Q 2525 4250 2034 4250 
z
M 2034 4750 
Q 2819 4750 3233 4129 
Q 3647 3509 3647 2328 
Q 3647 1150 3233 529 
Q 2819 -91 2034 -91 
Q 1250 -91 836 529 
Q 422 1150 422 2328 
Q 422 3509 836 4129 
Q 1250 4750 2034 4750 
z
" transform="scale(0.015625)"/>
      </defs>
      <use xlink:href="#DejaVuSans-30"/>
     </g>
    </g>
   </g>
   <g id="xtick_2">
    <g id="line2d_3">
     <path d="M 470.541493 521.504056 
L 479.033597 523.230799 
" style="fill: none; stroke: #000000; stroke-width: 0.8; stroke-linecap: square"/>
    </g>
    <g id="text_2">
     <!-- 80 -->
     <g transform="translate(471.399274 539.340711) scale(0.14 -0.14)">
      <defs>
       <path id="DejaVuSans-38" d="M 2034 2216 
Q 1584 2216 1326 1975 
Q 1069 1734 1069 1313 
Q 1069 891 1326 650 
Q 1584 409 2034 409 
Q 2484 409 2743 651 
Q 3003 894 3003 1313 
Q 3003 1734 2745 1975 
Q 2488 2216 2034 2216 
z
M 1403 2484 
Q 997 2584 770 2862 
Q 544 3141 544 3541 
Q 544 4100 942 4425 
Q 1341 4750 2034 4750 
Q 2731 4750 3128 4425 
Q 3525 4100 3525 3541 
Q 3525 3141 3298 2862 
Q 3072 2584 2669 2484 
Q 3125 2378 3379 2068 
Q 3634 1759 3634 1313 
Q 3634 634 3220 271 
Q 2806 -91 2034 -91 
Q 1263 -91 848 271 
Q 434 634 434 1313 
Q 434 1759 690 2068 
Q 947 2378 1403 2484 
z
M 1172 3481 
Q 1172 3119 1398 2916 
Q 1625 2713 2034 2713 
Q 2441 2713 2670 2916 
Q 2900 3119 2900 3481 
Q 2900 3844 2670 4047 
Q 2441 4250 2034 4250 
Q 1625 4250 1398 4047 
Q 1172 3844 1172 3481 
z
" transform="scale(0.015625)"/>
      </defs>
      <use xlink:href="#DejaVuSans-38"/>
      <use xlink:href="#DejaVuSans-30" x="63.623047"/>
     </g>
    </g>
   </g>
   <g id="xtick_3">
    <g id="line2d_4">
     <path d="M 506.532967 486.550488 
L 514.862259 488.19509 
" style="fill: none; stroke: #000000; stroke-width: 0.8; stroke-linecap: square"/>
    </g>
    <g id="text_3">
     <!-- 160 -->
     <g transform="translate(502.726387 504.190017) scale(0.14 -0.14)">
      <defs>
       <path id="DejaVuSans-31" d="M 794 531 
L 1825 531 
L 1825 4091 
L 703 3866 
L 703 4441 
L 1819 4666 
L 2450 4666 
L 2450 531 
L 3481 531 
L 3481 0 
L 794 0 
L 794 531 
z
" transform="scale(0.015625)"/>
       <path id="DejaVuSans-36" d="M 2113 2584 
Q 1688 2584 1439 2293 
Q 1191 2003 1191 1497 
Q 1191 994 1439 701 
Q 1688 409 2113 409 
Q 2538 409 2786 701 
Q 3034 994 3034 1497 
Q 3034 2003 2786 2293 
Q 2538 2584 2113 2584 
z
M 3366 4563 
L 3366 3988 
Q 3128 4100 2886 4159 
Q 2644 4219 2406 4219 
Q 1781 4219 1451 3797 
Q 1122 3375 1075 2522 
Q 1259 2794 1537 2939 
Q 1816 3084 2150 3084 
Q 2853 3084 3261 2657 
Q 3669 2231 3669 1497 
Q 3669 778 3244 343 
Q 2819 -91 2113 -91 
Q 1303 -91 875 529 
Q 447 1150 447 2328 
Q 447 3434 972 4092 
Q 1497 4750 2381 4750 
Q 2619 4750 2861 4703 
Q 3103 4656 3366 4563 
z
" transform="scale(0.015625)"/>
      </defs>
      <use xlink:href="#DejaVuSans-31"/>
      <use xlink:href="#DejaVuSans-36" x="63.623047"/>
      <use xlink:href="#DejaVuSans-30" x="127.246094"/>
     </g>
    </g>
   </g>
   <g id="xtick_4">
    <g id="line2d_5">
     <path d="M 540.83319 453.239399 
L 549.005414 454.807586 
" style="fill: none; stroke: #000000; stroke-width: 0.8; stroke-linecap: square"/>
    </g>
    <g id="text_4">
     <!-- 240 -->
     <g transform="translate(536.824777 470.692164) scale(0.14 -0.14)">
      <defs>
       <path id="DejaVuSans-32" d="M 1228 531 
L 3431 531 
L 3431 0 
L 469 0 
L 469 531 
Q 828 903 1448 1529 
Q 2069 2156 2228 2338 
Q 2531 2678 2651 2914 
Q 2772 3150 2772 3378 
Q 2772 3750 2511 3984 
Q 2250 4219 1831 4219 
Q 1534 4219 1204 4116 
Q 875 4013 500 3803 
L 500 4441 
Q 881 4594 1212 4672 
Q 1544 4750 1819 4750 
Q 2544 4750 2975 4387 
Q 3406 4025 3406 3419 
Q 3406 3131 3298 2873 
Q 3191 2616 2906 2266 
Q 2828 2175 2409 1742 
Q 1991 1309 1228 531 
z
" transform="scale(0.015625)"/>
       <path id="DejaVuSans-34" d="M 2419 4116 
L 825 1625 
L 2419 1625 
L 2419 4116 
z
M 2253 4666 
L 3047 4666 
L 3047 1625 
L 3713 1625 
L 3713 1100 
L 3047 1100 
L 3047 0 
L 2419 0 
L 2419 1100 
L 313 1100 
L 313 1709 
L 2253 4666 
z
" transform="scale(0.015625)"/>
      </defs>
      <use xlink:href="#DejaVuSans-32"/>
      <use xlink:href="#DejaVuSans-34" x="63.623047"/>
      <use xlink:href="#DejaVuSans-30" x="127.246094"/>
     </g>
    </g>
   </g>
   <g id="xtick_5">
    <g id="line2d_6">
     <path d="M 573.558634 421.457675 
L 581.579267 422.954651 
" style="fill: none; stroke: #000000; stroke-width: 0.8; stroke-linecap: square"/>
    </g>
    <g id="text_5">
     <!-- 320 -->
     <g transform="translate(569.356639 438.733251) scale(0.14 -0.14)">
      <defs>
       <path id="DejaVuSans-33" d="M 2597 2516 
Q 3050 2419 3304 2112 
Q 3559 1806 3559 1356 
Q 3559 666 3084 287 
Q 2609 -91 1734 -91 
Q 1441 -91 1130 -33 
Q 819 25 488 141 
L 488 750 
Q 750 597 1062 519 
Q 1375 441 1716 441 
Q 2309 441 2620 675 
Q 2931 909 2931 1356 
Q 2931 1769 2642 2001 
Q 2353 2234 1838 2234 
L 1294 2234 
L 1294 2753 
L 1863 2753 
Q 2328 2753 2575 2939 
Q 2822 3125 2822 3475 
Q 2822 3834 2567 4026 
Q 2313 4219 1838 4219 
Q 1578 4219 1281 4162 
Q 984 4106 628 3988 
L 628 4550 
Q 988 4650 1302 4700 
Q 1616 4750 1894 4750 
Q 2613 4750 3031 4423 
Q 3450 4097 3450 3541 
Q 3450 3153 3228 2886 
Q 3006 2619 2597 2516 
z
" transform="scale(0.015625)"/>
      </defs>
      <use xlink:href="#DejaVuSans-33"/>
      <use xlink:href="#DejaVuSans-32" x="63.623047"/>
      <use xlink:href="#DejaVuSans-30" x="127.246094"/>
     </g>
    </g>
   </g>
   <g id="text_6">
    <!-- X (m) -->
    <g transform="translate(523.888083 531.201694) rotate(-44.227373) scale(0.18 -0.18)">
     <defs>
      <path id="TimesNewRomanPSMT-58" d="M 2613 2347 
L 3522 991 
Q 3900 428 4083 279 
Q 4266 131 4547 116 
L 4547 0 
L 2728 0 
L 2728 116 
Q 2909 119 2997 153 
Q 3063 181 3105 239 
Q 3147 297 3147 356 
Q 3147 428 3119 500 
Q 3097 553 2947 775 
L 2228 1863 
L 1341 725 
Q 1200 544 1172 483 
Q 1144 422 1144 356 
Q 1144 256 1228 190 
Q 1313 125 1550 116 
L 1550 0 
L 47 0 
L 47 116 
Q 206 131 322 181 
Q 516 263 691 400 
Q 866 538 1091 822 
L 2091 2084 
L 1256 3306 
Q 916 3803 678 3958 
Q 441 4113 131 4122 
L 131 4238 
L 2091 4238 
L 2091 4122 
Q 1841 4113 1748 4041 
Q 1656 3969 1656 3881 
Q 1656 3766 1806 3544 
L 2456 2572 
L 3209 3525 
Q 3341 3694 3370 3756 
Q 3400 3819 3400 3884 
Q 3400 3950 3363 4000 
Q 3316 4066 3244 4092 
Q 3172 4119 2947 4122 
L 2947 4238 
L 4450 4238 
L 4450 4122 
Q 4272 4113 4159 4066 
Q 3991 3994 3850 3872 
Q 3709 3750 3453 3422 
L 2613 2347 
z
" transform="scale(0.015625)"/>
      <path id="TimesNewRomanPSMT-20" transform="scale(0.015625)"/>
      <path id="TimesNewRomanPSMT-28" d="M 1988 -1253 
L 1988 -1369 
Q 1516 -1131 1200 -813 
Q 750 -359 506 256 
Q 263 872 263 1534 
Q 263 2503 741 3301 
Q 1219 4100 1988 4444 
L 1988 4313 
Q 1603 4100 1356 3731 
Q 1109 3363 987 2797 
Q 866 2231 866 1616 
Q 866 947 969 400 
Q 1050 -31 1165 -292 
Q 1281 -553 1476 -793 
Q 1672 -1034 1988 -1253 
z
" transform="scale(0.015625)"/>
      <path id="TimesNewRomanPSMT-6d" d="M 1050 2338 
Q 1363 2650 1419 2697 
Q 1559 2816 1721 2881 
Q 1884 2947 2044 2947 
Q 2313 2947 2506 2790 
Q 2700 2634 2766 2338 
Q 3088 2713 3309 2830 
Q 3531 2947 3766 2947 
Q 3994 2947 4170 2830 
Q 4347 2713 4450 2447 
Q 4519 2266 4519 1878 
L 4519 647 
Q 4519 378 4559 278 
Q 4591 209 4675 161 
Q 4759 113 4950 113 
L 4950 0 
L 3538 0 
L 3538 113 
L 3597 113 
Q 3781 113 3884 184 
Q 3956 234 3988 344 
Q 4000 397 4000 647 
L 4000 1878 
Q 4000 2228 3916 2372 
Q 3794 2572 3525 2572 
Q 3359 2572 3192 2489 
Q 3025 2406 2788 2181 
L 2781 2147 
L 2788 2013 
L 2788 647 
Q 2788 353 2820 281 
Q 2853 209 2943 161 
Q 3034 113 3253 113 
L 3253 0 
L 1806 0 
L 1806 113 
Q 2044 113 2133 169 
Q 2222 225 2256 338 
Q 2272 391 2272 647 
L 2272 1878 
Q 2272 2228 2169 2381 
Q 2031 2581 1784 2581 
Q 1616 2581 1450 2491 
Q 1191 2353 1050 2181 
L 1050 647 
Q 1050 366 1089 281 
Q 1128 197 1204 155 
Q 1281 113 1516 113 
L 1516 0 
L 100 0 
L 100 113 
Q 297 113 375 155 
Q 453 197 493 289 
Q 534 381 534 647 
L 534 1741 
Q 534 2213 506 2350 
Q 484 2453 437 2492 
Q 391 2531 309 2531 
Q 222 2531 100 2484 
L 53 2597 
L 916 2947 
L 1050 2947 
L 1050 2338 
z
" transform="scale(0.015625)"/>
      <path id="TimesNewRomanPSMT-29" d="M 144 4313 
L 144 4444 
Q 619 4209 934 3891 
Q 1381 3434 1625 2820 
Q 1869 2206 1869 1541 
Q 1869 572 1392 -226 
Q 916 -1025 144 -1369 
L 144 -1253 
Q 528 -1038 776 -670 
Q 1025 -303 1145 264 
Q 1266 831 1266 1447 
Q 1266 2113 1163 2663 
Q 1084 3094 967 3353 
Q 850 3613 656 3853 
Q 463 4094 144 4313 
z
" transform="scale(0.015625)"/>
     </defs>
     <use xlink:href="#TimesNewRomanPSMT-58"/>
     <use xlink:href="#TimesNewRomanPSMT-20" x="72.216797"/>
     <use xlink:href="#TimesNewRomanPSMT-28" x="97.216797"/>
     <use xlink:href="#TimesNewRomanPSMT-6d" x="130.517578"/>
     <use xlink:href="#TimesNewRomanPSMT-29" x="208.300781"/>
    </g>
   </g>
  </g>
  <g id="axis3d_2">
   <g id="line2d_7">
    <path d="M 88.541817 489.727312 
L 432.382553 561.975803 
" style="fill: none; stroke: #000000; stroke-width: 0.8; stroke-linecap: square"/>
   </g>
   <g id="xtick_6">
    <g id="line2d_8">
     <path d="M 426.46288 559.201241 
L 422.557937 562.980617 
" style="fill: none; stroke: #000000; stroke-width: 0.8; stroke-linecap: square"/>
    </g>
    <g id="text_7">
     <!-- −50 -->
     <g transform="translate(404.069757 587.295236) scale(0.14 -0.14)">
      <defs>
       <path id="DejaVuSans-2212" d="M 678 2272 
L 4684 2272 
L 4684 1741 
L 678 1741 
L 678 2272 
z
" transform="scale(0.015625)"/>
       <path id="DejaVuSans-35" d="M 691 4666 
L 3169 4666 
L 3169 4134 
L 1269 4134 
L 1269 2991 
Q 1406 3038 1543 3061 
Q 1681 3084 1819 3084 
Q 2600 3084 3056 2656 
Q 3513 2228 3513 1497 
Q 3513 744 3044 326 
Q 2575 -91 1722 -91 
Q 1428 -91 1123 -41 
Q 819 9 494 109 
L 494 744 
Q 775 591 1075 516 
Q 1375 441 1709 441 
Q 2250 441 2565 725 
Q 2881 1009 2881 1497 
Q 2881 1984 2565 2268 
Q 2250 2553 1709 2553 
Q 1456 2553 1204 2497 
Q 953 2441 691 2322 
L 691 4666 
z
" transform="scale(0.015625)"/>
      </defs>
      <use xlink:href="#DejaVuSans-2212"/>
      <use xlink:href="#DejaVuSans-35" x="83.789062"/>
      <use xlink:href="#DejaVuSans-30" x="147.412109"/>
     </g>
    </g>
   </g>
   <g id="xtick_7">
    <g id="line2d_9">
     <path d="M 341.019246 541.266077 
L 336.947361 544.954929 
" style="fill: none; stroke: #000000; stroke-width: 0.8; stroke-linecap: square"/>
    </g>
    <g id="text_8">
     <!-- 30 -->
     <g transform="translate(324.28607 569.086761) scale(0.14 -0.14)">
      <use xlink:href="#DejaVuSans-33"/>
      <use xlink:href="#DejaVuSans-30" x="63.623047"/>
     </g>
    </g>
   </g>
   <g id="xtick_8">
    <g id="line2d_10">
     <path d="M 257.607533 523.757425 
L 253.377715 527.358968 
" style="fill: none; stroke: #000000; stroke-width: 0.8; stroke-linecap: square"/>
    </g>
    <g id="text_9">
     <!-- 110 -->
     <g transform="translate(236.226683 551.312789) scale(0.14 -0.14)">
      <use xlink:href="#DejaVuSans-31"/>
      <use xlink:href="#DejaVuSans-31" x="63.623047"/>
      <use xlink:href="#DejaVuSans-30" x="127.246094"/>
     </g>
    </g>
   </g>
   <g id="xtick_9">
    <g id="line2d_11">
     <path d="M 176.156112 506.660252 
L 171.776877 510.177548 
" style="fill: none; stroke: #000000; stroke-width: 0.8; stroke-linecap: square"/>
    </g>
    <g id="text_10">
     <!-- 190 -->
     <g transform="translate(154.592583 533.957953) scale(0.14 -0.14)">
      <defs>
       <path id="DejaVuSans-39" d="M 703 97 
L 703 672 
Q 941 559 1184 500 
Q 1428 441 1663 441 
Q 2288 441 2617 861 
Q 2947 1281 2994 2138 
Q 2813 1869 2534 1725 
Q 2256 1581 1919 1581 
Q 1219 1581 811 2004 
Q 403 2428 403 3163 
Q 403 3881 828 4315 
Q 1253 4750 1959 4750 
Q 2769 4750 3195 4129 
Q 3622 3509 3622 2328 
Q 3622 1225 3098 567 
Q 2575 -91 1691 -91 
Q 1453 -91 1209 -44 
Q 966 3 703 97 
z
M 1959 2075 
Q 2384 2075 2632 2365 
Q 2881 2656 2881 3163 
Q 2881 3666 2632 3958 
Q 2384 4250 1959 4250 
Q 1534 4250 1286 3958 
Q 1038 3666 1038 3163 
Q 1038 2656 1286 2365 
Q 1534 2075 1959 2075 
z
" transform="scale(0.015625)"/>
      </defs>
      <use xlink:href="#DejaVuSans-31"/>
      <use xlink:href="#DejaVuSans-39" x="63.623047"/>
      <use xlink:href="#DejaVuSans-30" x="127.246094"/>
     </g>
    </g>
   </g>
   <g id="xtick_10">
    <g id="line2d_12">
     <path d="M 96.596679 489.960219 
L 92.076081 493.396191 
" style="fill: none; stroke: #000000; stroke-width: 0.8; stroke-linecap: square"/>
    </g>
    <g id="text_11">
     <!-- 270 -->
     <g transform="translate(74.861094 517.007598) scale(0.14 -0.14)">
      <defs>
       <path id="DejaVuSans-37" d="M 525 4666 
L 3525 4666 
L 3525 4397 
L 1831 0 
L 1172 0 
L 2766 4134 
L 525 4134 
L 525 4666 
z
" transform="scale(0.015625)"/>
      </defs>
      <use xlink:href="#DejaVuSans-32"/>
      <use xlink:href="#DejaVuSans-37" x="63.623047"/>
      <use xlink:href="#DejaVuSans-30" x="127.246094"/>
     </g>
    </g>
   </g>
   <g id="text_12">
    <!-- Y (m) -->
    <g transform="translate(216.459143 567.348002) rotate(-348.133528) scale(0.18 -0.18)">
     <defs>
      <path id="TimesNewRomanPSMT-59" d="M 3050 4238 
L 4528 4238 
L 4528 4122 
L 4447 4122 
Q 4366 4122 4209 4050 
Q 4053 3978 3925 3843 
Q 3797 3709 3609 3406 
L 2588 1797 
L 2588 734 
Q 2588 344 2675 247 
Q 2794 116 3050 116 
L 3188 116 
L 3188 0 
L 1388 0 
L 1388 116 
L 1538 116 
Q 1806 116 1919 278 
Q 1988 378 1988 734 
L 1988 1738 
L 825 3513 
Q 619 3825 545 3903 
Q 472 3981 241 4091 
Q 178 4122 59 4122 
L 59 4238 
L 1872 4238 
L 1872 4122 
L 1778 4122 
Q 1631 4122 1507 4053 
Q 1384 3984 1384 3847 
Q 1384 3734 1575 3441 
L 2459 2075 
L 3291 3381 
Q 3478 3675 3478 3819 
Q 3478 3906 3433 3975 
Q 3388 4044 3303 4083 
Q 3219 4122 3050 4122 
L 3050 4238 
z
" transform="scale(0.015625)"/>
     </defs>
     <use xlink:href="#TimesNewRomanPSMT-59"/>
     <use xlink:href="#TimesNewRomanPSMT-20" x="68.466797"/>
     <use xlink:href="#TimesNewRomanPSMT-28" x="93.466797"/>
     <use xlink:href="#TimesNewRomanPSMT-6d" x="126.767578"/>
     <use xlink:href="#TimesNewRomanPSMT-29" x="204.550781"/>
    </g>
   </g>
  </g>
  <g id="axis3d_3">
   <g id="line2d_13">
    <path d="M 88.541817 489.727312 
L 79.817419 224.110293 
" style="fill: none; stroke: #000000; stroke-width: 0.8; stroke-linecap: square"/>
   </g>
   <g id="xtick_11">
    <g id="line2d_14">
     <path d="M 89.882463 483.451795 
L 85.346982 486.871014 
" style="fill: none; stroke: #000000; stroke-width: 0.8; stroke-linecap: square"/>
    </g>
    <g id="text_13">
     <!-- −150 -->
     <g transform="translate(41.72543 499.147594) scale(0.14 -0.14)">
      <use xlink:href="#DejaVuSans-2212"/>
      <use xlink:href="#DejaVuSans-31" x="83.789062"/>
      <use xlink:href="#DejaVuSans-35" x="147.412109"/>
      <use xlink:href="#DejaVuSans-30" x="211.035156"/>
     </g>
    </g>
   </g>
   <g id="xtick_12">
    <g id="line2d_15">
     <path d="M 87.853565 421.299266 
L 83.276251 424.594854 
" style="fill: none; stroke: #000000; stroke-width: 0.8; stroke-linecap: square"/>
    </g>
    <g id="text_14">
     <!-- −70 -->
     <g transform="translate(43.90739 436.812226) scale(0.14 -0.14)">
      <use xlink:href="#DejaVuSans-2212"/>
      <use xlink:href="#DejaVuSans-37" x="83.789062"/>
      <use xlink:href="#DejaVuSans-30" x="147.412109"/>
     </g>
    </g>
   </g>
   <g id="xtick_13">
    <g id="line2d_16">
     <path d="M 85.791473 358.129898 
L 81.171558 361.29733 
" style="fill: none; stroke: #000000; stroke-width: 0.8; stroke-linecap: square"/>
    </g>
    <g id="text_15">
     <!-- 10 -->
     <g transform="translate(47.46408 373.453323) scale(0.14 -0.14)">
      <use xlink:href="#DejaVuSans-31"/>
      <use xlink:href="#DejaVuSans-30" x="63.623047"/>
     </g>
    </g>
   </g>
   <g id="xtick_14">
    <g id="line2d_17">
     <path d="M 83.695367 293.918532 
L 79.032062 296.953108 
" style="fill: none; stroke: #000000; stroke-width: 0.8; stroke-linecap: square"/>
    </g>
    <g id="text_16">
     <!-- 90 -->
     <g transform="translate(45.116759 309.045465) scale(0.14 -0.14)">
      <use xlink:href="#DejaVuSans-39"/>
      <use xlink:href="#DejaVuSans-30" x="63.623047"/>
     </g>
    </g>
   </g>
   <g id="xtick_15">
    <g id="line2d_18">
     <path d="M 81.564397 228.639172 
L 76.856892 231.536009 
" style="fill: none; stroke: #000000; stroke-width: 0.8; stroke-linecap: square"/>
    </g>
    <g id="text_17">
     <!-- 170 -->
     <g transform="translate(38.276502 243.562387) scale(0.14 -0.14)">
      <use xlink:href="#DejaVuSans-31"/>
      <use xlink:href="#DejaVuSans-37" x="63.623047"/>
      <use xlink:href="#DejaVuSans-30" x="127.246094"/>
     </g>
    </g>
   </g>
   <g id="text_18">
    <!-- Z (m) -->
    <g transform="translate(19.812885 346.337842) rotate(-271.881248) scale(0.18 -0.18)">
     <defs>
      <path id="TimesNewRomanPSMT-5a" d="M 3681 4238 
L 897 256 
L 2634 256 
Q 3034 256 3248 431 
Q 3463 606 3628 1141 
L 3731 1122 
L 3531 0 
L 81 0 
L 81 116 
L 2800 3984 
L 1444 3984 
Q 1106 3984 954 3911 
Q 803 3838 723 3698 
Q 644 3559 578 3178 
L 459 3178 
L 547 4238 
L 3681 4238 
z
" transform="scale(0.015625)"/>
     </defs>
     <use xlink:href="#TimesNewRomanPSMT-5a"/>
     <use xlink:href="#TimesNewRomanPSMT-20" x="61.083984"/>
     <use xlink:href="#TimesNewRomanPSMT-28" x="86.083984"/>
     <use xlink:href="#TimesNewRomanPSMT-6d" x="119.384766"/>
     <use xlink:href="#TimesNewRomanPSMT-29" x="197.167969"/>
    </g>
   </g>
  </g>
  <g id="axes_1">
   <g id="line2d_19">
    <defs>
     <path id="ma2f427446b" d="M 0 -3 
L -0.673542 -0.927051 
L -2.85317 -0.927051 
L -1.089814 0.354102 
L -1.763356 2.427051 
L -0 1.145898 
L 1.763356 2.427051 
L 1.089814 0.354102 
L 2.85317 -0.927051 
L 0.673542 -0.927051 
z
" style="stroke: #ff0000; stroke-linejoin: bevel"/>
    </defs>
    <g clip-path="url(#p93f6ebc238)">
     <use xlink:href="#ma2f427446b" x="375.397332" y="419.497431" style="fill: #ff0000; stroke: #ff0000; stroke-linejoin: bevel"/>
    </g>
   </g>
   <g id="line2d_20">
    <path d="M 375.397332 419.497431 
L 375.396905 419.497514 
L 377.002055 418.12018 
L 382.078988 413.620145 
L 384.636369 411.384503 
L 391.916899 404.398279 
L 393.066557 402.969974 
L 393.969212 401.473471 
L 394.242577 400.712549 
L 394.39793 399.13146 
L 394.250628 397.546369 
L 393.610127 393.916964 
L 393.667119 392.630487 
L 394.032176 391.359396 
L 394.695864 390.020131 
L 395.683552 388.771545 
L 403.39092 381.442731 
L 410.51893 374.863004 
L 421.209021 364.658216 
L 422.725061 363.389007 
L 424.491031 362.207006 
L 426.567939 361.140239 
L 428.973904 360.145645 
L 432.951127 358.823319 
L 439.421964 356.844212 
L 442.817408 355.430804 
L 445.905394 353.876013 
L 447.686611 352.812957 
L 448.458491 352.286046 
L 453.102136 347.935607 
L 463.330696 339.370909 
L 464.887007 338.415745 
L 466.556719 337.551853 
L 468.457267 336.933198 
L 470.654654 336.579203 
L 472.213591 336.47893 
L 475.189426 336.61217 
L 477.902205 337.035431 
L 483.695306 338.251021 
L 499.189023 341.881891 
L 500.568148 342.090259 
L 501.932206 342.170489 
L 504.342432 342.018399 
L 506.302529 341.543032 
L 507.050889 341.168924 
L 508.621267 339.856511 
L 510.155 338.503082 
L 511.780148 337.29329 
L 517.476586 333.467174 
L 517.866499 332.896835 
L 517.902956 332.364729 
L 517.62373 331.822918 
L 517.213266 331.387873 
L 516.408994 330.833884 
L 515.427248 330.439687 
L 512.691432 329.87639 
L 504.733228 328.775979 
L 498.997863 327.700863 
L 489.26735 325.714157 
L 477.188822 322.968284 
L 471.969141 321.703139 
L 466.615308 320.757379 
L 461.686304 320.27369 
L 456.51596 320.104413 
L 451.542379 320.089585 
L 444.005063 319.980981 
L 425.902646 320.358115 
L 423.603246 320.555652 
L 418.879488 320.977609 
L 415.457637 321.260869 
L 412.039075 321.482912 
L 409.78429 321.37925 
L 406.362109 320.846332 
L 402.555204 320.105345 
L 398.29191 319.140008 
L 349.351186 308.271018 
L 335.367335 304.797071 
L 313.377311 299.724413 
L 310.703011 298.924174 
L 308.66909 297.974973 
L 308.067374 297.427728 
L 307.552569 296.334047 
L 307.705484 295.761495 
L 307.987086 295.222979 
L 308.457258 294.731956 
L 312.318495 292.039552 
L 317.244045 288.895001 
L 320.148694 286.696959 
L 328.975637 279.702419 
L 339.742783 270.379491 
L 348.875035 262.621857 
L 352.523421 259.220029 
L 353.378811 258.12334 
L 354.046124 256.983505 
L 354.289971 256.383017 
L 354.403139 255.794541 
L 354.387049 255.196031 
L 354.214032 254.637492 
L 353.914147 254.084691 
L 352.953554 253.064973 
L 351.574123 252.127034 
L 349.815698 251.215434 
L 346.668473 249.977335 
L 343.031367 248.840219 
L 336.194172 247.027203 
L 319.153411 242.598559 
L 315.68319 242.023477 
L 312.567756 241.830552 
L 309.927185 241.919197 
L 307.649523 242.194778 
L 305.639898 242.64057 
L 303.781875 243.251387 
L 302.188277 244.042558 
L 299.146251 245.933312 
L 287.518788 253.374947 
L 280.91107 258.244798 
L 272.727327 264.144368 
L 261.731611 271.568101 
L 255.395808 275.48071 
L 248.059011 279.720111 
L 232.029065 289.553789 
L 219.32868 296.900126 
L 208.788372 303.061896 
L 200.451327 308.378071 
L 198.743257 309.697259 
L 197.447272 311.161523 
L 196.577503 312.74797 
L 196.455859 313.265426 
L 196.495005 313.936705 
L 196.747356 314.473337 
L 197.222145 315.027152 
L 197.810241 315.498901 
L 198.611586 315.970062 
L 199.538928 316.329944 
L 202.274734 317.025901 
L 217.187668 320.100209 
L 225.292821 322.184057 
L 241.867683 326.535494 
L 244.893237 327.427415 
L 247.211043 328.284875 
L 248.837256 329.115158 
L 250.246469 330.218986 
L 250.928917 331.270198 
L 251.161869 332.440559 
L 251.152825 333.078957 
L 250.776683 334.429435 
L 249.966526 335.923877 
L 248.834297 337.496655 
L 246.815925 339.709629 
L 240.598918 346.364453 
L 239.035442 347.797042 
L 237.520547 349.192159 
L 231.551587 354.218446 
L 215.851651 367.019772 
L 204.047545 376.360765 
L 199.113098 379.976574 
L 198.503299 380.61494 
L 198.138794 381.221297 
L 197.971653 381.773756 
L 198.066722 382.309267 
L 198.296601 382.834832 
L 198.760645 383.360905 
L 199.377882 383.887211 
L 201.116578 384.865745 
L 203.473217 385.772949 
L 207.695512 387.062492 
L 210.892325 387.890247 
L 215.955333 389.137037 
L 223.115167 390.883349 
L 241.664519 395.964021 
L 263.702912 401.675639 
L 280.574611 406.137983 
L 293.439474 409.498608 
L 301.847864 411.542616 
L 305.041363 411.943917 
L 306.653559 411.990121 
L 308.246911 411.848355 
L 309.700651 411.559223 
L 310.913168 411.09761 
L 311.795136 410.482864 
L 314.892776 406.824748 
L 317.502151 404.449354 
L 322.113969 400.520705 
L 342.724572 382.187653 
L 343.481108 381.77569 
L 344.481405 381.400074 
L 345.606671 381.138751 
L 348.032064 380.892221 
L 350.412318 381.162671 
L 355.624651 382.199859 
L 363.880331 383.925106 
L 379.12857 387.534272 
L 383.935732 388.871429 
L 386.834003 389.917759 
L 389.231255 391.100003 
L 390.904356 392.468248 
L 391.5313 393.177926 
L 394.715654 398.299338 
L 396.041473 399.698518 
L 397.91639 400.872981 
L 401.804789 403.146229 
L 404.302043 403.56228 
L 408.653018 404.105885 
L 419.927209 406.133226 
L 433.628636 409.154823 
L 438.736226 410.185253 
L 461.6876 415.098809 
L 466.547173 416.101891 
L 469.450365 416.635722 
L 472.317355 416.679747 
L 473.71037 416.411626 
L 474.857274 416.002213 
L 475.771368 415.50814 
L 476.862229 414.423871 
L 478.919256 412.288671 
L 481.635233 409.833322 
L 484.616214 407.209347 
L 488.987788 403.026102 
L 491.510377 400.547323 
L 498.154531 394.304834 
L 502.584441 390.103369 
L 507.52941 385.393927 
L 511.731064 381.40387 
L 513.617404 379.59489 
L 517.99938 375.233191 
L 518.548168 374.11844 
L 518.589025 373.552898 
L 518.438129 372.958476 
L 518.137361 372.408393 
L 517.600776 371.808558 
L 516.823643 371.212012 
L 515.838388 370.669353 
L 514.636225 370.254387 
L 508.247018 368.740436 
L 506.295548 368.435065 
L 498.541929 366.786541 
L 471.509236 361.199775 
L 455.963933 357.74145 
L 452.609398 357.211157 
L 449.180977 356.929026 
L 447.438421 356.916455 
L 442.50519 357.428546 
L 439.38386 357.957684 
L 434.983014 358.876822 
L 430.663526 359.716938 
L 427.712703 360.091704 
L 424.739811 360.200077 
L 420.400576 360.0879 
L 416.015141 359.497659 
L 411.505465 358.687319 
L 399.201221 356.024304 
L 396.073994 355.235489 
L 389.437605 353.850327 
L 385.967683 353.234196 
L 382.386638 352.849829 
L 378.913631 352.74676 
L 377.290144 352.862161 
L 374.401815 353.326397 
L 372.027036 354.122923 
L 371.122478 354.597147 
L 370.370708 355.130463 
L 366.895328 358.739375 
L 366.151459 359.309709 
L 364.184379 360.321361 
L 361.761547 360.988691 
L 359.030995 361.281617 
L 356.226269 361.294851 
L 353.433908 361.026728 
L 350.575528 360.58702 
L 346.148802 359.603095 
L 268.164669 340.82344 
L 263.706615 339.533005 
L 261.332364 338.581642 
L 259.262703 337.362668 
L 258.099048 336.059839 
L 257.743306 335.379756 
L 257.551342 334.676182 
L 257.496569 334.030447 
L 257.616985 333.342257 
L 257.878171 332.655295 
L 258.8543 331.32145 
L 260.239611 329.964199 
L 266.858055 324.560758 
L 275.451121 317.818284 
L 284.975278 310.026415 
L 286.764517 308.752501 
L 288.802312 307.132379 
L 291.915926 304.748189 
L 294.588641 302.924466 
L 299.791603 299.669043 
L 308.369245 294.840999 
L 308.369245 294.840999 
" clip-path="url(#p93f6ebc238)" style="fill: none; stroke-dasharray: 10.175,4.4; stroke-dashoffset: 0; stroke: #808a87; stroke-width: 2.75"/>
   </g>
   <g id="line2d_21">
    <path d="M 375.397332 419.497431 
L 386.34993 409.300797 
L 388.115278 407.475409 
L 390.965746 404.612789 
L 392.559979 402.591073 
L 393.007917 401.88402 
L 393.564888 400.606098 
L 393.718581 399.261469 
L 393.667811 398.102 
L 393.412119 396.618909 
L 392.854165 393.808603 
L 392.886324 393.210943 
L 393.056888 392.243969 
L 393.504972 391.147042 
L 394.560928 389.556467 
L 395.440725 388.609233 
L 398.193024 385.969468 
L 399.52041 384.648543 
L 404.980808 379.516659 
L 406.38201 378.235372 
L 409.188737 375.652095 
L 410.956641 373.911932 
L 412.182505 372.640221 
L 420.561878 363.751285 
L 421.843022 362.658486 
L 425.860397 360.262493 
L 428.30662 359.203148 
L 436.342814 356.102821 
L 441.739351 353.023618 
L 443.032603 352.057375 
L 443.977912 351.261605 
L 444.811373 350.462816 
L 445.756304 349.211015 
L 447.505171 347.055525 
L 450.603883 343.458655 
L 452.606718 341.080533 
L 456.424518 336.337451 
L 457.66354 335.153802 
L 459.987564 333.564321 
L 461.111559 333.102672 
L 462.340516 332.721833 
L 463.542442 332.493073 
L 465.895191 332.289299 
L 468.207658 332.355795 
L 470.981979 332.638369 
L 474.628061 333.209373 
L 476.82516 333.589038 
L 484.156339 334.846584 
L 492.874072 336.396576 
L 494.912596 336.447794 
L 496.124681 336.316947 
L 497.83039 335.951754 
L 499.285701 335.226482 
L 499.865986 334.569525 
L 503.050843 330.554702 
L 504.563797 329.251193 
L 508.04735 326.059924 
L 508.23876 325.363952 
L 508.09144 324.809171 
L 507.594121 323.971702 
L 506.812474 323.22521 
L 505.188217 322.468866 
L 503.404856 322.048102 
L 498.139252 321.120634 
L 494.252408 320.341032 
L 490.414578 319.327354 
L 486.495059 318.289751 
L 477.879244 316.003625 
L 471.085131 314.135071 
L 466.393705 312.75209 
L 464.217254 312.136643 
L 459.787084 311.068025 
L 457.565127 310.5935 
L 453.459425 310.025823 
L 447.050131 309.646525 
L 446.214991 309.703444 
L 444.906529 309.686371 
L 438.184522 309.683428 
L 429.404212 310.105427 
L 420.523407 310.689385 
L 417.486701 311.02863 
L 416.093296 311.213906 
L 414.939457 311.338394 
L 412.899989 311.567258 
L 410.602112 311.8396 
L 403.218554 312.249226 
L 396.219667 311.110486 
L 394.149896 310.627224 
L 392.334019 310.161936 
L 375.153834 306.134042 
L 362.393033 303.084529 
L 359.692861 302.410173 
L 356.004514 301.497325 
L 338.959816 296.870517 
L 336.778082 296.186575 
L 329.176243 293.986415 
L 326.496447 293.211586 
L 325.114626 292.861764 
L 321.750418 291.970534 
L 305.291472 287.397139 
L 302.333034 286.328762 
L 300.752233 285.489389 
L 299.94426 284.87547 
L 299.34821 284.038571 
L 299.156506 283.546221 
L 299.152967 282.755271 
L 299.468734 281.974836 
L 300.075045 281.243457 
L 302.432423 279.100773 
L 307.4315 274.773701 
L 309.319579 272.887805 
L 318.80459 262.370323 
L 324.51102 255.332624 
L 329.392945 249.751907 
L 331.359853 247.471308 
L 337.388367 240.087316 
L 338.681146 238.168246 
L 339.516896 236.273108 
L 339.781629 235.062111 
L 339.769706 234.36875 
L 339.584755 233.510767 
L 338.843571 232.2408 
L 337.86107 231.219941 
L 335.937839 229.918903 
L 334.028551 228.955354 
L 332.116631 228.118773 
L 326.778596 226.288762 
L 305.512661 220.138807 
L 302.488885 219.49372 
L 300.347903 219.215673 
L 297.687611 219.165966 
L 295.482937 219.360842 
L 293.564264 219.731973 
L 292.507653 220.027508 
L 289.919269 221.053056 
L 288.498297 221.883869 
L 286.254305 223.855335 
L 284.115626 225.904105 
L 278.303199 231.344929 
L 275.344369 234.115879 
L 271.559117 237.913767 
L 267.462032 242.143535 
L 262.913664 246.711186 
L 260.946101 248.656242 
L 254.584599 254.650596 
L 246.681571 261.670944 
L 236.614798 269.285073 
L 230.193732 274.165166 
L 224.619503 278.36767 
L 222.13211 280.111637 
L 217.41012 283.363395 
L 215.194441 284.810291 
L 213.202279 286.047118 
L 209.303399 288.473413 
L 206.022361 290.391335 
L 199.973794 293.889448 
L 195.257932 296.854561 
L 191.973221 299.035447 
L 189.462165 300.893889 
L 188.17517 301.937135 
L 186.943029 303.468842 
L 185.841723 305.535598 
L 185.891551 305.853718 
L 186.376689 306.734549 
L 187.474998 307.480927 
L 187.862544 307.637763 
L 188.55578 307.941784 
L 190.234163 308.364281 
L 194.229779 308.981172 
L 202.154798 310.185243 
L 205.448061 310.868064 
L 209.672995 311.843551 
L 226.940995 316.134891 
L 230.531091 317.386232 
L 232.373051 318.492354 
L 233.36813 319.553705 
L 233.623359 320.579458 
L 233.509702 321.296609 
L 233.102515 322.430944 
L 232.149074 323.800826 
L 230.313526 325.970918 
L 228.924726 327.33959 
L 227.087258 328.844761 
L 216.659298 338.005915 
L 211.075458 342.003517 
L 207.522839 344.298241 
L 203.808504 346.691515 
L 191.347111 353.927389 
L 180.727975 359.523951 
L 178.85951 360.43376 
L 168.869944 365.197804 
L 167.983277 365.840352 
L 167.399127 366.52072 
L 167.284367 366.894576 
L 167.281995 367.519167 
L 167.651808 368.167667 
L 168.154856 368.687886 
L 168.980546 369.275785 
L 175.521928 371.850041 
L 181.871372 373.774425 
L 187.016178 375.228442 
L 201.758499 379.887199 
L 203.94593 380.585839 
L 208.255455 381.951745 
L 222.966708 386.077135 
L 224.155985 386.365442 
L 226.021776 386.960988 
L 232.164545 388.824836 
L 236.553792 390.091817 
L 242.25765 391.589369 
L 257.356603 395.491687 
L 260.057914 395.944418 
L 262.804083 396.074585 
L 264.954908 395.938063 
L 267.874894 395.153898 
L 269.045767 394.567783 
L 270.630688 393.298262 
L 275.225563 389.779214 
L 278.768709 387.501245 
L 280.771489 386.252998 
L 283.679359 384.366422 
L 298.132022 374.124791 
L 303.205672 370.228831 
L 304.497643 369.231424 
L 308.006492 366.347802 
L 309.46015 365.525248 
L 311.950141 364.793193 
L 314.279965 364.482744 
L 315.853202 364.441389 
L 320.206468 364.542414 
L 322.665988 364.612959 
L 336.72918 365.317678 
L 342.105165 365.578195 
L 348.43297 366.335852 
L 349.785379 366.639331 
L 351.361908 367.37025 
L 352.029527 367.92455 
L 352.533005 368.623662 
L 352.951023 369.399899 
L 354.394098 372.178455 
L 355.620985 373.239024 
L 357.964391 374.32979 
L 358.502819 374.643442 
L 359.529806 374.998272 
L 360.842242 375.102062 
L 365.582478 375.140581 
L 374.31227 375.132656 
L 375.76712 375.144376 
L 377.112337 375.219104 
L 379.242917 375.30797 
L 387.645581 375.921198 
L 389.096511 376.059109 
L 395.652983 376.627144 
L 397.352379 376.756409 
L 413.945898 378.265279 
L 419.247973 378.814068 
L 420.389875 378.853418 
L 422.658975 378.799303 
L 425.188732 378.259621 
L 426.582595 377.664995 
L 427.865275 376.779999 
L 428.770864 375.757215 
L 430.040428 374.331126 
L 430.775668 373.590479 
L 432.825048 371.587137 
L 435.822982 368.715525 
L 436.998438 367.591407 
L 439.160416 365.476863 
L 439.980088 364.642628 
L 441.070054 363.506619 
L 442.249724 362.268022 
L 443.718806 360.755065 
L 444.42019 360.037637 
L 445.860088 358.562226 
L 446.929555 357.416397 
L 454.701676 349.256775 
L 466.308342 335.386011 
L 467.78686 333.777726 
L 468.418643 333.096398 
L 469.149601 332.196942 
L 469.835813 330.924772 
L 469.82097 330.150598 
L 469.63613 329.740949 
L 469.363567 329.455486 
L 468.571579 329.008205 
L 466.872798 328.676026 
L 465.623922 328.603831 
L 458.999677 329.000995 
L 457.65296 329.142443 
L 444.847432 329.770383 
L 441.305854 329.908523 
L 420.000106 330.751361 
L 413.459896 330.976088 
L 406.856491 331.442995 
L 399.844134 332.728 
L 397.527202 333.307811 
L 384.956295 337.143183 
L 380.578253 337.995379 
L 373.14383 338.613012 
L 368.049689 338.652304 
L 366.561412 338.663375 
L 359.874243 338.58334 
L 355.861537 338.53889 
L 352.027357 338.523071 
L 348.451367 338.584356 
L 342.984309 338.75673 
L 336.527412 339.415175 
L 333.090867 340.207347 
L 331.121563 340.822711 
L 328.47307 342.013239 
L 326.865097 343.238542 
L 325.618395 344.510619 
L 324.087541 345.746766 
L 322.665199 346.634985 
L 320.514575 347.459325 
L 317.974059 348.245005 
L 315.315305 348.742773 
L 312.630214 349.040787 
L 310.334822 349.184248 
L 308.956648 349.261437 
L 304.913317 349.253944 
L 299.778137 349.203481 
L 296.66112 349.180153 
L 292.478647 349.172079 
L 281.21872 349.349575 
L 276.717501 349.337695 
L 263.33717 349.392457 
L 255.2275 349.406009 
L 251.549742 349.473329 
L 241.053636 349.509853 
L 238.307097 349.541769 
L 228.729527 349.497844 
L 226.598947 349.10366 
L 225.533037 348.726182 
L 224.848495 348.31985 
L 224.355684 347.743679 
L 224.178525 346.673184 
L 224.673887 345.695556 
L 225.405765 344.830627 
L 230.203338 340.156371 
L 230.862858 339.4728 
L 232.53756 337.746661 
L 235.139791 335.078098 
L 237.16703 332.883178 
L 239.693572 329.638426 
L 247.507793 318.168049 
L 250.190777 313.553013 
L 252.198711 310.821635 
L 258.164283 303.868813 
L 259.574703 302.303908 
L 261.691993 299.742248 
L 262.130601 299.164865 
L 262.130601 299.164865 
" clip-path="url(#p93f6ebc238)" style="fill: none; stroke: #0000ff; stroke-width: 2; stroke-linecap: square"/>
   </g>
   <g id="line2d_22">
    <path d="M 375.397332 419.497431 
L 386.647604 409.24948 
L 388.301722 407.483952 
L 388.739323 407.109477 
L 390.829299 405.066872 
L 391.881274 404.001054 
L 393.445304 401.918027 
L 394.261263 400.283199 
L 394.435389 398.861195 
L 394.357115 397.246079 
L 394.357115 397.246079 
L 394.106738 395.899913 
L 393.844389 395.001415 
L 393.732111 393.818064 
L 393.821621 391.855641 
L 393.92441 391.369252 
L 394.479522 389.831867 
L 394.901201 389.103844 
L 396.391235 387.304328 
L 397.78434 385.950423 
L 403.428096 379.861877 
L 403.829604 379.526245 
L 406.165751 377.056823 
L 407.769666 375.465538 
L 408.700538 374.477361 
L 410.228077 372.769116 
L 410.568402 372.38972 
L 410.998604 371.975694 
L 412.601677 370.169843 
L 413.903585 368.699709 
L 414.870673 367.452166 
L 415.092993 367.389779 
L 416.181078 366.23379 
L 417.000883 365.231023 
L 417.407548 364.873107 
L 421.819712 359.897549 
L 423.648003 358.242938 
L 427.36456 355.837548 
L 429.236615 354.891275 
L 430.468618 354.384978 
L 432.835789 353.318289 
L 435.247813 352.326694 
L 438.463645 350.977632 
L 439.647389 350.477433 
L 440.806761 349.917117 
L 441.331536 349.59003 
L 444.103888 348.029732 
L 445.203696 347.249307 
L 445.708577 346.945161 
L 448.949315 344.423478 
L 449.612786 343.606384 
L 451.360413 341.529267 
L 451.99144 340.858916 
L 453.762164 339.024862 
L 460.603685 331.960322 
L 461.605167 330.855643 
L 462.117378 330.340125 
L 462.492557 330.090887 
L 463.671029 328.98019 
L 466.160121 327.181811 
L 467.907209 326.223456 
L 469.708323 325.628199 
L 471.111089 325.314163 
L 473.975707 325.046207 
L 477.293103 325.166045 
L 478.404636 325.360811 
L 489.637382 327.505028 
L 491.014921 327.826932 
L 494.792072 328.606223 
L 496.136926 328.881554 
L 499.187074 329.520159 
L 500.058817 329.669302 
L 501.661556 329.770996 
L 502.823939 329.746031 
L 503.787493 329.586782 
L 505.758782 329.175668 
L 507.550546 328.275217 
L 509.93898 325.682487 
L 513.641469 322.374455 
L 517.376787 319.406088 
L 518.953232 317.788702 
L 518.969622 317.461883 
L 518.863324 317.062856 
L 518.398756 316.182336 
L 518.060933 315.89089 
L 517.447316 315.488614 
L 516.137972 314.996691 
L 514.831483 314.788347 
L 512.490107 314.478248 
L 508.308265 314.034691 
L 502.499003 313.205763 
L 500.57367 312.835333 
L 487.60109 310.339786 
L 484.067211 309.5514 
L 480.589472 308.733461 
L 470.743411 306.381847 
L 467.572569 305.948726 
L 463.089593 305.678293 
L 458.174397 305.655293 
L 456.418855 305.730759 
L 453.407084 305.825283 
L 449.558546 305.875415 
L 445.569608 306.057705 
L 442.944657 306.254059 
L 440.578596 306.388586 
L 436.947586 306.58468 
L 429.304646 307.134975 
L 423.770823 307.6865 
L 413.868115 308.943038 
L 411.873641 309.019007 
L 408.670525 308.743274 
L 404.527485 307.980902 
L 403.203367 307.634923 
L 400.79689 307.071818 
L 399.002015 306.614488 
L 395.11876 305.72098 
L 381.808425 302.46496 
L 378.802605 301.730173 
L 373.693802 300.472459 
L 370.615324 299.777302 
L 367.537802 299.012054 
L 354.999242 295.958392 
L 352.403067 295.329943 
L 351.644865 295.097747 
L 336.19982 290.783336 
L 335.286304 290.58222 
L 333.969675 290.161696 
L 326.172993 288.274062 
L 324.875122 288.01697 
L 322.462732 287.393205 
L 322.462732 287.393205 
L 313.05428 284.589595 
L 311.597169 283.878692 
L 310.918627 283.452381 
L 310.636812 283.154375 
L 310.335013 282.840489 
L 310.40747 282.640432 
L 310.190866 282.157687 
L 310.197187 281.624514 
L 310.272077 280.833206 
L 311.243216 279.613924 
L 312.721679 278.421126 
L 313.568891 277.786446 
L 314.17721 277.279092 
L 318.770181 274.015973 
L 318.770181 274.015973 
L 323.548029 270.184259 
L 325.341759 268.585161 
L 330.40027 264.140705 
L 332.540878 262.185239 
L 335.893325 258.861629 
L 337.921135 256.786275 
L 340.912809 253.908243 
L 342.346949 252.573432 
L 344.028121 250.9389 
L 346.612358 248.539984 
L 351.732346 243.721561 
L 352.69934 242.870237 
L 353.989678 241.556426 
L 356.959362 238.534153 
L 360.042059 235.036456 
L 361.356274 232.375674 
L 361.470488 230.964631 
L 361.248876 230.282954 
L 360.265845 228.618735 
L 358.233481 226.923684 
L 354.798144 225.102165 
L 352.533129 224.160034 
L 349.043464 222.944788 
L 342.510497 220.894648 
L 341.503956 220.521939 
L 334.783158 218.251411 
L 331.333281 217.13065 
L 326.452399 215.735435 
L 323.447531 215.215708 
L 321.085339 215.074336 
L 319.048253 215.112092 
L 317.16752 215.293131 
L 314.45567 215.910478 
L 312.282751 216.691245 
L 309.645306 218.163437 
L 307.807837 219.51671 
L 303.301325 222.826645 
L 299.26958 225.676449 
L 296.740803 227.593137 
L 295.981093 228.161641 
L 294.712559 229.167923 
L 293.402306 230.219643 
L 292.139537 231.231773 
L 287.707509 234.929897 
L 285.843699 236.477301 
L 280.267757 241.033285 
L 269.768649 249.092935 
L 267.383986 250.795827 
L 266.460607 251.512226 
L 258.041882 257.330288 
L 256.260121 258.473324 
L 254.389086 259.723824 
L 251.88357 261.290657 
L 250.778944 262.081774 
L 247.32039 264.421971 
L 242.930529 267.475242 
L 239.582425 269.750837 
L 238.937309 270.229716 
L 233.675906 273.726089 
L 226.326597 278.517841 
L 222.211704 281.099687 
L 220.312031 282.326738 
L 213.601146 286.622394 
L 198.864665 296.466875 
L 198.138083 297.069104 
L 196.364691 298.440117 
L 194.461598 300.276866 
L 193.509071 301.51941 
L 192.979202 302.319225 
L 192.806937 302.704069 
L 192.611161 303.168609 
L 192.305837 304.202424 
L 192.424027 304.796578 
L 192.555481 305.20005 
L 193.13581 306.036043 
L 193.563429 306.408653 
L 193.726835 306.557648 
L 194.045332 306.852283 
L 194.575882 307.187102 
L 195.576122 307.615458 
L 202.598943 309.537608 
L 205.217416 310.19568 
L 206.889228 310.656767 
L 209.002952 311.263715 
L 213.489274 312.708789 
L 233.63226 319.726174 
L 235.832974 320.549618 
L 240.015402 322.366549 
L 241.467145 323.34658 
L 242.522308 324.19541 
L 243.389631 325.380394 
L 243.438004 325.743257 
L 243.661427 326.719644 
L 243.592149 328.477997 
L 242.919802 330.3591 
L 242.705416 330.779582 
L 242.468143 330.953936 
L 241.9099 331.914505 
L 241.451437 332.611527 
L 240.850808 333.341549 
L 239.926574 334.585113 
L 239.28693 335.217899 
L 238.67487 335.9147 
L 238.270068 336.37509 
L 237.876876 336.741632 
L 234.886184 339.973745 
L 231.520563 343.622848 
L 222.671163 351.907772 
L 209.321204 363.335271 
L 208.559088 364.042279 
L 206.962466 365.39274 
L 202.1915 369.448347 
L 200.767364 370.676229 
L 198.14612 372.867463 
L 194.037261 376.314388 
L 191.276716 378.569335 
L 188.355858 380.894556 
L 187.422406 381.615224 
L 186.212334 382.522326 
L 184.830176 383.515161 
L 181.792905 386.156383 
L 181.385875 386.762844 
L 180.986825 387.575279 
L 180.951072 388.281808 
L 181.081596 388.894526 
L 181.76613 389.864391 
L 182.961106 390.920893 
L 184.414482 391.806709 
L 185.287732 392.228445 
L 190.534179 394.441145 
L 192.106499 394.93852 
L 193.247034 395.361547 
L 196.775445 396.487658 
L 199.273559 397.331929 
L 205.655227 399.487779 
L 235.366388 410.275743 
L 240.994259 412.196939 
L 244.571499 413.497025 
L 244.571499 413.497025 
L 277.062124 425.086576 
L 280.160967 425.828738 
L 281.891149 425.995762 
L 283.398464 425.983648 
L 284.745509 425.840406 
L 286.903329 425.238624 
L 288.444765 424.366391 
L 288.444765 424.366391 
L 289.446534 423.212483 
L 290.173235 422.393199 
L 290.173235 422.393199 
L 292.888446 419.534511 
L 293.953374 418.514664 
L 294.878453 417.782714 
L 295.26445 417.430605 
L 298.150616 414.961458 
L 300.495152 412.961512 
L 305.453142 408.561041 
L 305.852955 408.147171 
L 309.214291 405.200899 
L 310.896149 403.673069 
L 313.494421 401.511657 
L 324.722381 391.424053 
L 325.004538 391.121929 
L 325.591552 390.714497 
L 326.218648 390.333829 
L 327.008923 389.978851 
L 328.182237 389.625614 
L 328.735269 389.474978 
L 330.699044 389.267484 
L 332.499334 389.342588 
L 334.511935 389.757642 
L 337.362171 390.580776 
L 338.698599 390.889846 
L 340.063405 391.228645 
L 344.415243 392.545555 
L 347.021997 393.356932 
L 358.600123 397.198485 
L 362.172392 398.366781 
L 367.543175 400.745369 
L 368.934374 401.557734 
L 370.807738 403.360886 
L 371.253524 404.058986 
L 371.91744 405.39417 
L 372.34841 407.012408 
L 372.859834 409.530317 
L 373.509017 411.585636 
L 374.615494 413.659836 
L 377.479753 416.332801 
L 377.706143 416.653903 
L 378.380236 417.206278 
L 379.206354 417.736685 
L 380.688467 418.290196 
L 388.948905 419.83289 
L 392.391626 420.702639 
L 397.506471 422.178464 
L 398.540204 422.509381 
L 399.172945 422.632132 
L 403.419862 423.950229 
L 407.872115 425.245871 
L 411.690799 426.398898 
L 411.690799 426.398898 
L 413.49337 426.856705 
L 421.939718 429.317386 
L 422.794523 429.505369 
L 424.73243 430.049313 
L 438.158286 434.128633 
L 439.117767 434.4521 
L 441.665683 435.120188 
L 443.734017 435.533571 
L 443.734017 435.533571 
L 446.40501 435.499617 
L 448.485995 434.892154 
L 450.458107 433.470469 
L 450.724618 433.169127 
L 451.029786 432.916781 
L 451.710511 432.174755 
L 454.997584 429.131255 
L 459.227292 425.354811 
L 460.664135 424.088796 
L 461.933842 422.953722 
L 463.03524 421.971178 
L 468.640203 416.652824 
L 470.322749 415.047843 
L 479.370089 406.735563 
L 479.883867 406.344011 
L 481.571015 404.776826 
L 493.968723 393.284169 
L 494.846624 392.469781 
L 498.904696 388.645754 
L 499.463191 388.15449 
L 502.503411 385.290359 
L 502.85717 384.953848 
L 503.733557 383.980939 
L 504.222282 383.486773 
L 504.825647 382.142877 
L 504.964835 381.439427 
L 504.969755 381.274977 
L 504.834622 380.912974 
L 504.526967 380.183188 
L 504.301887 379.845454 
L 503.737991 379.18862 
L 502.517089 378.326867 
L 500.664276 377.533865 
L 498.234753 376.844371 
L 492.138691 375.163082 
L 489.829754 374.435885 
L 458.919447 365.26767 
L 452.408204 363.123126 
L 445.380562 361.08025 
L 439.938185 360.200617 
L 438.23147 360.262116 
L 434.817884 360.392569 
L 430.751254 361.181292 
L 429.580794 361.487629 
L 428.727542 361.61861 
L 423.660197 362.864479 
L 418.278108 363.781036 
L 414.900379 363.894507 
L 411.051826 363.634591 
L 409.292797 363.411053 
L 402.577986 361.792884 
L 394.122777 358.93707 
L 392.760312 358.475347 
L 390.614147 357.734123 
L 389.464636 357.382626 
L 384.330369 355.678125 
L 379.153833 354.201285 
L 376.981468 353.731604 
L 373.556983 353.28431 
L 370.641157 353.234377 
L 368.969936 353.400208 
L 365.939716 354.002295 
L 364.692327 354.505589 
L 362.880316 355.309448 
L 361.139425 356.65957 
L 360.85871 357.046266 
L 357.590254 360.117455 
L 354.730959 361.915994 
L 351.381919 362.865738 
L 349.20976 363.147003 
L 346.94611 363.160136 
L 345.248308 363.004887 
L 343.566539 362.702865 
L 341.293697 362.191139 
L 337.584387 361.077049 
L 336.280354 360.54312 
L 335.509769 360.310362 
L 334.465023 359.877713 
L 332.690143 359.246701 
L 328.788281 357.820029 
L 327.19806 357.203363 
L 325.914223 356.761568 
L 321.816729 355.251157 
L 321.816729 355.251157 
L 318.871407 354.196048 
L 317.151619 353.543754 
L 313.809569 352.342485 
L 309.213155 350.626546 
L 303.345851 348.469182 
L 295.114151 345.354378 
L 290.640005 343.719837 
L 287.42733 342.525081 
L 278.896456 339.358678 
L 262.855079 333.319122 
L 261.415305 332.613605 
L 259.500789 331.314038 
L 258.711128 330.586975 
L 257.856666 329.410259 
L 257.76938 329.21282 
L 257.817205 328.938939 
L 257.567967 327.954209 
L 257.476775 327.102205 
L 257.582939 326.486467 
L 257.840639 325.65334 
L 258.490601 324.407421 
L 259.938273 322.839115 
L 261.36133 321.677051 
L 269.493866 315.598737 
L 270.848536 314.661934 
L 275.755023 311.239699 
L 279.088015 308.886121 
L 292.455778 298.983353 
L 294.653332 297.54075 
L 296.213573 296.506468 
L 304.31422 290.957777 
L 309.440675 287.908459 
L 314.945977 284.964214 
L 315.76586 284.596334 
L 325.02846 279.700186 
L 325.02846 279.700186 
" clip-path="url(#p93f6ebc238)" style="fill: none; stroke: #aa00ff; stroke-width: 2; stroke-linecap: square"/>
   </g>
   <g id="line2d_23">
    <path d="M 375.397332 419.497431 
L 382.640737 413.25144 
L 385.098678 411.104033 
L 388.681024 407.793715 
L 389.448989 407.125995 
L 391.718308 405.077649 
L 392.839595 403.769361 
L 393.349012 403.099997 
L 393.729773 402.360494 
L 394.038314 401.340318 
L 394.095637 400.637819 
L 394.036149 399.57902 
L 393.598833 397.575127 
L 393.285508 396.34609 
L 393.234383 395.35098 
L 393.318499 394.492216 
L 394.291273 392.277019 
L 395.441631 390.932388 
L 399.74947 386.916046 
L 407.128608 380.273822 
L 408.686454 378.864702 
L 412.658382 375.287836 
L 418.910057 369.420782 
L 422.144443 366.610355 
L 423.936944 365.451093 
L 428.193841 363.434851 
L 431.442004 362.237563 
L 437.606662 360.23533 
L 439.054446 359.680124 
L 441.584795 358.562278 
L 445.636322 356.454513 
L 447.622421 355.074075 
L 449.521462 353.153438 
L 453.322439 349.971759 
L 455.240872 348.4569 
L 459.152366 345.188774 
L 461.478416 343.252017 
L 464.440737 341.450047 
L 465.709979 340.887972 
L 467.154796 340.422914 
L 470.438198 339.994132 
L 472.414251 339.980601 
L 476.014108 340.389321 
L 481.51514 341.416564 
L 498.07997 344.652936 
L 500.603041 344.792555 
L 502.247362 344.641132 
L 504.424492 344.245039 
L 505.777948 343.662439 
L 506.571193 343.069702 
L 508.618116 341.421248 
L 509.797425 340.60463 
L 516.519856 336.566694 
L 516.810051 335.971225 
L 516.536805 335.350489 
L 516.048725 334.892084 
L 515.384402 334.487003 
L 514.49322 334.180302 
L 513.515178 333.964344 
L 510.095451 333.664522 
L 499.015995 332.523959 
L 491.689134 331.533191 
L 484.219311 330.464231 
L 475.68682 329.018281 
L 471.41631 328.341613 
L 463.168988 327.458658 
L 453.345203 327.570197 
L 452.535108 327.65584 
L 451.135686 327.683189 
L 449.353166 327.705656 
L 447.468792 327.710633 
L 440.504342 327.9338 
L 434.299706 328.09919 
L 432.041265 328.227244 
L 431.049071 328.259297 
L 423.981644 328.821934 
L 417.212423 329.648624 
L 416.638559 329.774432 
L 414.368956 329.97875 
L 411.800696 330.190688 
L 410.398827 330.195187 
L 405.600337 329.674353 
L 401.406512 328.939298 
L 400.385338 328.770431 
L 392.265596 327.259923 
L 385.16656 326.0238 
L 378.481271 324.836642 
L 363.73548 322.07914 
L 361.961637 321.720836 
L 360.659852 321.474017 
L 351.354545 319.68627 
L 349.687763 319.273664 
L 347.988597 318.918946 
L 340.437765 317.323661 
L 315.831219 312.806043 
L 311.613929 311.738464 
L 310.160241 311.139543 
L 309.447034 310.37606 
L 309.152962 309.774464 
L 309.186497 309.298678 
L 309.470199 308.832728 
L 310.030127 308.284724 
L 311.226287 307.459606 
L 317.9364 303.520918 
L 320.35276 302.001513 
L 326.614968 297.720792 
L 331.483433 294.326587 
L 334.781805 291.767247 
L 338.285131 289.278387 
L 347.786849 282.819843 
L 350.981861 280.349125 
L 354.843057 276.894615 
L 355.727785 275.554444 
L 355.923017 274.846801 
L 355.817998 274.168198 
L 355.407584 273.511896 
L 354.710178 272.924983 
L 353.609104 272.308002 
L 350.817328 271.345361 
L 347.595077 270.541356 
L 342.634269 269.641917 
L 332.455486 268.020267 
L 320.284456 266.34953 
L 316.935386 266.236043 
L 314.050925 266.38078 
L 311.894389 266.634107 
L 309.431041 267.135177 
L 307.003479 267.861291 
L 305.119413 268.71869 
L 303.406739 269.738308 
L 301.436065 270.973998 
L 287.239734 280.041557 
L 273.183496 289.610529 
L 271.733263 290.534575 
L 268.125161 292.901135 
L 262.256081 296.740571 
L 249.645741 304.948876 
L 247.061914 306.698631 
L 235.362644 315.283337 
L 220.413791 326.907254 
L 209.649617 336.211185 
L 203.776117 341.89581 
L 201.783625 344.177409 
L 200.770506 345.637789 
L 199.81944 347.460108 
L 199.216357 349.167504 
L 199.322511 350.574884 
L 199.754766 351.185241 
L 200.336338 351.694599 
L 200.849069 351.960442 
L 201.38258 352.20393 
L 202.793256 352.468258 
L 204.675757 352.579192 
L 207.682435 352.629846 
L 209.053499 352.648072 
L 216.469407 352.904865 
L 227.583466 354.200988 
L 230.116221 354.572318 
L 240.054453 355.981103 
L 244.139004 356.808661 
L 246.368572 357.57582 
L 247.862855 358.489599 
L 248.718932 359.343203 
L 249.359034 360.73414 
L 249.524006 362.637252 
L 248.982177 365.145274 
L 246.762946 369.907263 
L 245.721455 371.648039 
L 243.460374 375.708632 
L 237.993957 384.869901 
L 223.729954 406.784644 
L 214.846822 421.686542 
L 213.850046 423.398577 
L 209.657767 430.373538 
L 209.172924 431.09578 
L 208.529231 432.147733 
L 208.041754 432.899998 
L 206.974734 434.98625 
L 206.611946 436.459407 
L 206.588437 437.496408 
L 206.879067 438.429765 
L 207.203474 438.925009 
L 208.134328 439.844204 
L 208.957379 440.36791 
L 210.442591 441.017329 
L 214.165327 442.095168 
L 216.665781 442.609467 
L 219.383754 443.052912 
L 236.338582 445.41371 
L 275.59147 452.197555 
L 307.970661 458.612384 
L 310.43758 458.859863 
L 311.972964 458.850503 
L 313.571293 458.703487 
L 315.343643 458.206418 
L 316.902109 457.374623 
L 317.954993 456.415191 
L 318.668375 455.339424 
L 319.018118 454.397793 
L 321.181002 448.59685 
L 322.698156 445.606827 
L 324.646745 442.167219 
L 326.397503 438.894692 
L 328.301063 435.168503 
L 329.447696 432.922275 
L 330.82949 430.33127 
L 333.556758 425.377009 
L 334.720639 423.360126 
L 338.211377 416.928113 
L 338.832783 415.777447 
L 342.143513 409.51302 
L 343.058015 408.369875 
L 343.91097 407.693613 
L 344.908278 407.128444 
L 345.991487 406.736291 
L 347.446343 406.416435 
L 349.501816 406.369729 
L 351.539154 406.612196 
L 353.769531 406.890704 
L 361.226684 407.990508 
L 369.768179 409.605491 
L 381.234914 411.973025 
L 384.685576 413.081175 
L 386.759707 414.028244 
L 388.667276 415.37586 
L 390.972283 418.115307 
L 392.459876 420.925714 
L 393.385474 422.711692 
L 394.477646 424.522424 
L 395.583685 425.99829 
L 396.441792 426.917624 
L 397.981216 428.063941 
L 400.292006 429.885972 
L 401.174225 430.618777 
L 402.367199 431.194849 
L 403.952932 431.506272 
L 406.719149 431.620531 
L 409.727145 431.898516 
L 416.056434 432.828686 
L 419.836319 433.497221 
L 430.974933 435.675442 
L 469.515785 442.402918 
L 470.911795 442.307648 
L 472.278131 442.022709 
L 473.763688 441.328119 
L 474.617368 440.646133 
L 475.32199 439.851405 
L 476.001167 438.616109 
L 478.48824 433.648511 
L 480.645993 430.026659 
L 485.339674 421.931631 
L 487.45664 417.911421 
L 488.999768 415.116985 
L 500.140396 395.103889 
L 500.998534 393.476925 
L 502.036333 391.597869 
L 503.642243 388.77516 
L 505.028686 386.300206 
L 511.408283 374.201843 
L 511.821517 372.909906 
L 511.803568 371.441832 
L 511.535082 370.629742 
L 511.127726 369.839715 
L 510.485617 369.083843 
L 509.607972 368.371628 
L 508.527414 367.783802 
L 507.208813 367.362854 
L 504.964507 366.961758 
L 502.915529 366.618351 
L 492.803196 364.861785 
L 481.865354 362.826349 
L 477.58764 362.062137 
L 472.759339 361.197815 
L 448.274699 356.582614 
L 445.364469 356.363646 
L 443.678568 356.340386 
L 441.551519 356.533463 
L 439.884033 356.804291 
L 437.49002 357.40471 
L 435.188215 358.17239 
L 432.334455 359.449282 
L 430.236335 360.465557 
L 424.465235 363.199999 
L 421.667567 364.143238 
L 419.537196 364.645817 
L 417.103749 365.005844 
L 415.743448 365.0835 
L 413.981948 365.106701 
L 408.992647 364.833548 
L 403.514702 364.050994 
L 399.600952 363.356514 
L 397.430874 362.889255 
L 396.735019 362.799097 
L 392.316502 361.927345 
L 385.737894 360.903919 
L 382.443999 360.549707 
L 379.420912 360.507071 
L 377.308336 360.616083 
L 375.679299 360.841157 
L 374.136275 361.216899 
L 371.695504 362.187699 
L 370.73377 362.713896 
L 368.11111 364.694762 
L 367.420365 365.583495 
L 366.641018 367.311452 
L 365.468774 369.822431 
L 363.342245 372.86715 
L 362.478634 373.732706 
L 359.305473 375.593948 
L 358.033411 376.065844 
L 355.765182 376.565109 
L 353.769732 376.784474 
L 352.157037 376.798554 
L 349.50264 376.650037 
L 344.411083 375.784321 
L 341.140688 375.11065 
L 326.043894 372.090759 
L 320.701288 371.075344 
L 312.552146 369.535005 
L 299.63925 367.318406 
L 273.734386 363.469623 
L 272.148428 362.978586 
L 271.130057 362.598567 
L 269.78468 361.855099 
L 268.914256 361.115915 
L 268.524442 360.485125 
L 267.838381 359.137153 
L 267.637631 358.289109 
L 267.737712 356.211229 
L 268.440676 354.212586 
L 269.599698 352.101827 
L 275.803833 342.973056 
L 279.821599 337.60384 
L 285.024602 330.72744 
L 289.126169 325.218176 
L 291.130443 322.726278 
L 293.530569 319.808296 
L 297.134282 315.702899 
L 302.591911 308.957195 
L 304.867189 306.52297 
L 307.340645 304.077962 
L 312.597866 299.27861 
L 319.085736 293.446336 
L 319.29823 293.255894 
L 319.29823 293.255894 
" clip-path="url(#p93f6ebc238)" style="fill: none; stroke: #ff9c00; stroke-width: 2; stroke-linecap: square"/>
   </g>
   <g id="line2d_24">
    <path d="M 375.397332 419.497431 
L 377.814908 417.395405 
L 387.068182 409.209867 
L 388.080718 408.227488 
L 392.693147 403.77711 
L 393.807284 402.222502 
L 394.181265 400.964547 
L 394.249474 400.398502 
L 394.256521 399.280974 
L 393.811328 396.983488 
L 393.466312 395.325182 
L 393.474558 393.843703 
L 393.609806 393.403235 
L 394.086664 391.828114 
L 394.5635 391.111479 
L 395.631231 389.895958 
L 396.344535 389.278381 
L 397.738403 388.060642 
L 399.226835 386.646064 
L 400.45754 385.48905 
L 402.291591 383.799624 
L 405.168649 381.286085 
L 405.826921 380.680491 
L 422.309536 365.946543 
L 423.821159 364.976895 
L 425.073981 364.319839 
L 427.976927 363.087845 
L 432.542888 361.561361 
L 435.836799 360.56914 
L 440.933206 358.799479 
L 442.572708 358.091627 
L 446.265889 356.237526 
L 448.196673 354.901507 
L 452.606029 351.007206 
L 463.154124 342.797512 
L 465.658222 341.53413 
L 468.906297 340.704941 
L 470.776403 340.534543 
L 473.817203 340.587858 
L 479.986358 341.401277 
L 499.238078 345.255651 
L 502.029791 345.36276 
L 502.843551 345.279976 
L 504.658306 344.982547 
L 506.560192 344.191418 
L 507.507852 343.450272 
L 508.30554 342.801977 
L 508.915115 342.32427 
L 511.672327 340.540993 
L 514.821313 338.738533 
L 515.938979 338.085548 
L 517.056727 337.259908 
L 517.241444 336.793111 
L 516.929496 336.152529 
L 516.482828 335.727626 
L 516.056681 335.414018 
L 514.319856 334.826571 
L 512.531155 334.519611 
L 511.007332 334.388838 
L 504.353421 333.714143 
L 484.581279 330.59485 
L 477.248667 329.296227 
L 470.350119 328.090851 
L 464.188579 327.442903 
L 456.234803 327.369983 
L 454.48729 327.465302 
L 438.578946 327.796259 
L 430.273685 328.159073 
L 429.621763 328.152696 
L 428.97967 328.195774 
L 427.768865 328.254811 
L 423.537206 328.60894 
L 422.035027 328.741087 
L 419.646351 328.998377 
L 411.387627 329.89384 
L 408.541671 329.840685 
L 402.500884 329.086453 
L 400.506004 328.699729 
L 399.413261 328.534816 
L 395.302246 327.83072 
L 382.159118 325.652766 
L 373.438154 324.226657 
L 369.960479 323.678521 
L 362.884186 322.568555 
L 357.22375 321.616557 
L 355.518682 321.350946 
L 353.821929 321.073679 
L 351.285641 320.650614 
L 342.838684 319.044779 
L 339.400935 318.361494 
L 336.261656 317.825491 
L 332.142092 317.074819 
L 320.257418 315.198408 
L 317.957918 314.752526 
L 316.427322 314.480821 
L 311.217722 313.352994 
L 309.348205 312.703466 
L 308.346088 312.162019 
L 307.797054 311.464076 
L 307.714828 310.900148 
L 307.894381 310.397184 
L 308.347504 309.801484 
L 308.787095 309.47086 
L 309.413722 309.246852 
L 311.498813 307.851582 
L 318.695348 303.546719 
L 324.352762 299.476484 
L 326.682644 297.840427 
L 329.731962 295.624327 
L 339.287528 288.205167 
L 348.077492 281.729871 
L 349.950719 280.308487 
L 354.902961 276.231491 
L 355.815038 275.111632 
L 356.360888 274.219455 
L 356.523198 273.316765 
L 356.473547 272.70443 
L 355.858621 271.763621 
L 354.635039 270.824171 
L 353.539547 270.253706 
L 351.796267 269.505357 
L 348.366054 268.425124 
L 340.673808 266.72942 
L 332.058945 264.918964 
L 321.811652 262.878297 
L 317.9926 262.51624 
L 313.671392 262.55969 
L 310.248771 263.025629 
L 307.306521 263.800052 
L 305.796934 264.401018 
L 304.565654 264.9935 
L 302.547709 266.082621 
L 300.473322 267.25366 
L 299.129715 267.988531 
L 297.522851 268.869564 
L 293.884748 270.851918 
L 281.416393 278.553014 
L 276.014008 281.925082 
L 265.29632 288.369614 
L 254.30283 294.438939 
L 247.956829 297.693228 
L 244.93336 299.340463 
L 241.692069 301.119332 
L 239.45902 302.354584 
L 199.311392 323.463747 
L 195.350241 325.922515 
L 194.191107 326.905197 
L 193.368837 327.864813 
L 192.552038 329.071348 
L 192.562442 330.186803 
L 193.139582 330.980138 
L 194.481217 331.817638 
L 195.970776 332.249265 
L 200.674337 333.013453 
L 210.158371 334.522783 
L 218.747781 336.299871 
L 224.692623 337.608269 
L 226.661246 338.041487 
L 229.087255 338.594051 
L 233.169568 339.463112 
L 234.819225 339.812348 
L 237.436323 340.444379 
L 239.588173 340.988289 
L 241.22019 341.532117 
L 243.283354 342.524864 
L 244.256965 343.344957 
L 244.717002 344.007079 
L 244.850952 344.391557 
L 244.938708 344.787261 
L 244.946381 345.637463 
L 244.36565 347.186025 
L 243.916388 347.86045 
L 241.095291 350.911123 
L 237.604772 354.067391 
L 234.065065 357.201529 
L 230.218225 360.312282 
L 224.6665 364.339255 
L 223.822132 364.92872 
L 213.069001 372.502763 
L 211.292823 373.777368 
L 208.344094 375.817682 
L 198.653932 382.558577 
L 193.758608 385.910614 
L 189.863077 388.435225 
L 188.46925 389.28759 
L 186.50205 390.766877 
L 185.8275 391.74343 
L 185.814467 392.484798 
L 186.057802 392.955591 
L 186.914909 393.806975 
L 188.279292 394.575744 
L 190.464889 395.357702 
L 192.065834 395.836255 
L 195.198277 396.667594 
L 199.892145 397.760777 
L 202.385965 398.246606 
L 210.193283 399.922019 
L 213.242034 400.706005 
L 215.832397 401.295948 
L 217.170337 401.639881 
L 228.933029 404.519611 
L 231.143855 405.059204 
L 234.17514 405.784897 
L 240.407497 407.252446 
L 242.778324 407.74936 
L 259.067933 411.65129 
L 262.248252 412.450651 
L 284.27832 417.751805 
L 288.225738 418.279191 
L 289.876603 418.304805 
L 292.280636 418.080048 
L 293.713781 417.713006 
L 294.73558 417.29357 
L 295.385314 416.905361 
L 297.08305 415.243684 
L 299.137714 413.328026 
L 301.320519 411.647948 
L 304.097025 409.751247 
L 305.227816 408.953759 
L 330.115499 390.596634 
L 331.148594 389.903209 
L 332.50339 389.315997 
L 334.536989 388.89735 
L 337.510014 388.752796 
L 338.685288 388.879141 
L 340.385522 389.202505 
L 341.96129 389.538698 
L 344.431166 389.946271 
L 350.854105 391.248207 
L 352.534512 391.604618 
L 369.439386 395.521443 
L 373.373005 396.755446 
L 375.106047 397.546719 
L 376.50846 398.434814 
L 377.460711 399.18908 
L 378.122237 399.960751 
L 378.983889 401.469586 
L 380.880483 405.305691 
L 381.643662 406.118531 
L 382.226445 406.583435 
L 384.91274 408.270422 
L 385.714038 408.871311 
L 386.995418 409.381498 
L 387.209669 409.441747 
L 388.500763 409.662138 
L 390.029453 409.733919 
L 402.830238 411.705927 
L 403.907687 411.937256 
L 429.618491 417.104792 
L 431.27504 417.397872 
L 435.306644 418.194014 
L 436.802438 418.503243 
L 438.966505 418.981404 
L 443.739029 420.031417 
L 447.022678 420.748597 
L 448.779596 421.074238 
L 450.942075 421.499414 
L 452.336631 421.701276 
L 454.220212 421.803221 
L 455.174863 421.789807 
L 457.857486 421.161266 
L 458.788047 420.699197 
L 460.239269 419.600949 
L 461.441076 418.529182 
L 461.951865 418.155121 
L 462.430882 417.774108 
L 463.178555 417.253928 
L 473.929194 409.49155 
L 477.181575 406.984819 
L 483.210771 402.533879 
L 489.834402 397.708475 
L 492.120673 395.997118 
L 495.040496 393.832683 
L 495.860405 393.224172 
L 499.233967 390.762986 
L 500.238372 390.023089 
L 508.616579 383.556543 
L 509.180287 382.79898 
L 509.397228 381.877065 
L 509.158167 381.07151 
L 508.394007 380.258549 
L 507.599861 379.725811 
L 506.576591 379.260874 
L 499.307519 377.722746 
L 489.000676 375.817307 
L 482.087731 374.504782 
L 479.78406 374.073074 
L 472.757536 372.803558 
L 470.367784 372.368034 
L 465.676764 371.504324 
L 462.911085 370.980443 
L 446.841555 368.040512 
L 443.541471 367.76884 
L 437.513312 367.935379 
L 434.61558 368.297462 
L 427.69415 369.551358 
L 425.822822 369.914258 
L 422.830879 370.383662 
L 419.097178 370.749164 
L 416.885623 370.751081 
L 414.061664 370.683814 
L 408.083798 370.035855 
L 404.738213 369.487398 
L 402.456531 369.061968 
L 382.47718 365.141834 
L 376.816202 364.526138 
L 374.175976 364.405203 
L 371.264358 364.556527 
L 368.014161 365.126187 
L 364.415914 366.372855 
L 363.467276 366.989856 
L 361.704591 368.509242 
L 360.352461 369.427714 
L 358.839859 370.364112 
L 358.03754 370.729594 
L 357.574392 370.952904 
L 353.625404 371.842097 
L 349.821784 372.040844 
L 345.678208 371.785138 
L 338.269353 370.477811 
L 329.466709 368.474606 
L 326.488461 367.800581 
L 322.986709 367.079707 
L 312.947041 364.966604 
L 262.772729 354.212077 
L 259.978511 353.421292 
L 257.916485 352.540026 
L 256.817355 351.805077 
L 256.410307 351.378739 
L 255.801392 350.420866 
L 255.659256 349.843487 
L 255.857208 348.944186 
L 256.188917 348.328946 
L 256.773583 347.596711 
L 258.171486 346.446132 
L 259.952342 345.271759 
L 260.979901 344.645202 
L 262.722844 343.547992 
L 263.225967 343.320722 
L 271.477626 338.451139 
L 273.994405 336.982407 
L 285.529105 329.939761 
L 286.832956 329.200111 
L 289.46616 327.913934 
L 291.501424 326.869824 
L 298.869461 322.758801 
L 316.91164 314.796368 
L 316.91164 314.796368 
" clip-path="url(#p93f6ebc238)" style="fill: none; stroke: #ff0000; stroke-width: 2; stroke-linecap: square"/>
   </g>
   <g id="line2d_25">
    <path d="M 375.397332 419.497431 
L 377.403219 417.754669 
L 380.523846 414.942766 
L 384.061571 411.898272 
L 386.420125 409.678706 
L 388.884207 407.278422 
L 391.459323 404.875974 
L 392.419553 403.833019 
L 393.862635 401.64889 
L 394.125574 400.922275 
L 394.2397 399.412401 
L 393.988443 397.531967 
L 393.395152 395.114768 
L 393.330686 393.825604 
L 393.379929 393.228974 
L 394.436087 390.73042 
L 395.415557 389.486575 
L 399.733023 385.271396 
L 413.218701 372.491431 
L 414.597538 371.090775 
L 419.503695 366.378434 
L 421.22625 364.726663 
L 422.795443 363.47903 
L 424.177139 362.574187 
L 428.154963 360.709652 
L 430.774427 359.738185 
L 439.156503 356.900822 
L 442.487362 355.411116 
L 444.560549 354.285069 
L 445.977842 353.532883 
L 447.964224 352.106975 
L 450.536495 349.578224 
L 460.128707 341.369901 
L 461.120167 340.508653 
L 463.672266 338.713191 
L 466.723276 337.277974 
L 468.798674 336.721594 
L 471.42525 336.426329 
L 473.404614 336.375539 
L 477.113564 336.777786 
L 479.474077 337.13948 
L 493.067104 339.83634 
L 498.364605 340.93241 
L 501.108776 341.15671 
L 502.750049 341.066873 
L 504.313538 340.847555 
L 506.089243 340.22607 
L 506.560922 339.974801 
L 509.255845 337.61019 
L 511.424954 336.072437 
L 516.980865 332.467602 
L 517.272396 332.076556 
L 517.4639 331.724914 
L 517.254911 331.00795 
L 516.744478 330.428985 
L 515.93877 329.891713 
L 514.591835 329.45571 
L 512.779323 329.195799 
L 507.051587 328.785362 
L 505.050166 328.528192 
L 502.352619 328.171179 
L 498.686984 327.614577 
L 493.199799 326.761653 
L 467.446824 322.438491 
L 464.834933 322.239221 
L 460.921926 322.125148 
L 440.839968 322.893894 
L 432.290475 323.480135 
L 431.552369 323.442803 
L 430.903413 323.564485 
L 430.22989 323.529346 
L 428.926957 323.62207 
L 428.338985 323.633053 
L 427.761893 323.766356 
L 426.627468 323.817066 
L 423.79322 324.134024 
L 419.027009 324.761047 
L 415.545947 325.221986 
L 411.016725 325.650105 
L 408.779276 325.610586 
L 404.679379 325.165723 
L 371.934214 319.576914 
L 360.450392 317.691101 
L 346.014755 315.078115 
L 339.18229 313.643517 
L 331.886527 312.296976 
L 317.413491 309.741518 
L 313.188498 308.86254 
L 310.269859 307.975886 
L 309.338407 307.548557 
L 308.677185 307.053388 
L 308.275498 306.538328 
L 308.126744 305.994952 
L 308.220854 305.430148 
L 309.44144 304.095829 
L 316.664174 299.333446 
L 319.21858 297.5654 
L 322.203125 295.281083 
L 331.35539 288.00116 
L 336.29175 283.691099 
L 340.552622 280.164031 
L 351.939152 270.706239 
L 356.004114 266.778077 
L 356.901029 265.325256 
L 357.205666 264.451581 
L 357.183557 263.587444 
L 356.838814 262.797622 
L 356.211981 262.052196 
L 355.0023 261.158648 
L 352.916305 260.127525 
L 350.383637 259.217276 
L 346.888838 258.227189 
L 323.621003 252.940344 
L 320.21022 252.414855 
L 316.987046 252.252431 
L 314.242561 252.383942 
L 311.330638 252.805529 
L 309.281361 253.323043 
L 307.404988 254.002219 
L 306.136403 254.607283 
L 302.914962 256.547637 
L 288.857259 265.56906 
L 286.900895 266.999759 
L 283.894739 269.161264 
L 276.446044 274.412952 
L 268.816573 279.589512 
L 259.844923 285.345417 
L 242.828945 295.356517 
L 238.362535 298.070638 
L 233.770938 300.771527 
L 203.756303 317.972851 
L 198.657799 321.131913 
L 196.096179 322.956804 
L 195.067736 323.927319 
L 194.044246 325.219578 
L 193.408776 326.295919 
L 193.325101 327.421029 
L 193.678733 328.042704 
L 194.222772 328.561754 
L 195.340618 329.19938 
L 196.681687 329.66002 
L 198.850484 330.147522 
L 212.61022 332.604476 
L 217.262769 333.701356 
L 240.750796 339.498495 
L 244.261327 341.123369 
L 245.276439 342.011641 
L 245.874807 343.070976 
L 245.975792 343.919496 
L 245.847344 344.872501 
L 245.492481 345.890587 
L 244.303044 347.721668 
L 242.628688 349.713015 
L 233.790485 358.369223 
L 232.073532 359.81382 
L 230.385314 361.253627 
L 227.15004 363.810768 
L 223.390626 366.748316 
L 208.483084 378.175135 
L 201.172541 383.711494 
L 199.762006 384.732596 
L 198.350197 385.792854 
L 192.34597 390.133775 
L 188.815421 392.598933 
L 188.042248 393.253626 
L 187.342702 394.20011 
L 187.132402 394.761663 
L 187.130891 395.30684 
L 187.294669 395.840224 
L 187.670048 396.355134 
L 188.214513 396.869861 
L 189.343649 397.606147 
L 191.433734 398.456823 
L 193.940616 399.266867 
L 196.769142 400.063588 
L 199.123351 400.646775 
L 201.524788 401.210136 
L 206.575421 402.38487 
L 215.223152 404.568975 
L 225.937473 407.422777 
L 230.566698 408.613639 
L 235.801478 409.978277 
L 251.636249 413.948981 
L 263.853372 417.163036 
L 286.615405 422.970469 
L 288.657183 423.267173 
L 290.775661 423.393347 
L 291.84942 423.376926 
L 293.910444 423.046725 
L 295.681886 422.406579 
L 296.372563 422.008821 
L 297.405613 421.057797 
L 298.136134 420.289014 
L 300.449565 417.99784 
L 303.827711 415.252326 
L 332.579958 392.547688 
L 333.560374 392.121496 
L 335.280345 391.697976 
L 337.72075 391.470586 
L 340.637725 391.810815 
L 348.809597 393.413794 
L 371.538535 399.209499 
L 374.35757 400.279976 
L 376.148858 401.172689 
L 377.550331 402.202004 
L 378.287816 402.867892 
L 378.857837 403.596749 
L 379.289185 404.324396 
L 380.427137 406.981647 
L 381.557697 409.293198 
L 382.34844 410.419429 
L 383.048614 411.120341 
L 384.297855 412.036142 
L 385.393641 412.799057 
L 386.945634 414.026597 
L 387.927697 414.414456 
L 389.125353 414.665743 
L 398.827885 416.172586 
L 408.884779 418.401463 
L 416.134731 420.133628 
L 425.924596 422.44495 
L 427.729291 422.845639 
L 438.152386 425.223295 
L 452.020179 428.583107 
L 453.906448 428.793139 
L 455.863586 428.771059 
L 457.740786 428.364626 
L 459.24775 427.716577 
L 460.330873 426.873201 
L 462.223795 425.048132 
L 465.191592 422.611285 
L 473.410178 415.905524 
L 476.216054 413.463705 
L 479.782666 410.457506 
L 509.677795 385.24422 
L 510.360864 384.373025 
L 510.578333 383.764099 
L 510.643615 383.178664 
L 510.377518 382.27822 
L 509.953745 381.674033 
L 509.306606 381.081008 
L 508.410204 380.542191 
L 507.250838 380.072051 
L 503.528496 379.117987 
L 500.966472 378.510486 
L 495.373429 377.323548 
L 486.959737 375.44641 
L 473.022797 372.365904 
L 470.213703 371.779982 
L 451.340157 367.416624 
L 447.259143 366.744733 
L 444.721496 366.522032 
L 442.103386 366.470888 
L 438.699062 366.686868 
L 435.427452 367.16299 
L 430.801543 368.106985 
L 427.056411 368.903882 
L 423.336986 369.560729 
L 419.544805 369.832716 
L 416.614876 369.823205 
L 409.499481 368.94939 
L 405.831996 368.214586 
L 397.149463 366.078243 
L 388.979398 364.005581 
L 379.023041 362.139744 
L 375.541918 361.959987 
L 373.035761 362.089531 
L 371.487372 362.297562 
L 369.369127 362.737731 
L 367.525183 363.356231 
L 366.487021 363.828505 
L 365.245261 364.644253 
L 360.747605 368.311919 
L 359.808657 368.855888 
L 358.122298 369.61962 
L 355.543978 370.302119 
L 354.131754 370.523755 
L 351.279051 370.680786 
L 349.149933 370.611463 
L 345.718137 370.182762 
L 342.963762 369.641295 
L 316.923731 362.925543 
L 299.276535 358.334343 
L 269.262718 350.551671 
L 265.294169 349.469513 
L 262.175921 348.389986 
L 260.150138 347.361095 
L 258.996384 346.488499 
L 258.455892 345.845161 
L 257.922576 344.850581 
L 257.721285 344.1735 
L 257.96852 342.766462 
L 258.319712 342.063573 
L 259.174951 341.057061 
L 260.326471 340.057523 
L 261.681343 339.023167 
L 263.149578 337.993636 
L 265.17889 336.61306 
L 275.80674 329.581554 
L 278.597541 327.702311 
L 289.142018 320.307123 
L 292.129951 318.531559 
L 294.813555 316.886402 
L 297.881956 314.81619 
L 301.374953 312.641109 
L 308.258457 308.986058 
L 316.891378 304.729908 
L 319.544898 303.318573 
L 319.544898 303.318573 
" clip-path="url(#p93f6ebc238)" style="fill: none; stroke: #00ff00; stroke-width: 2; stroke-linecap: square"/>
   </g>
   <g id="Path3DCollection_1">
    <defs>
     <path id="m70c137a49c" d="M 0 -5 
L -1.12257 -1.545085 
L -4.755283 -1.545085 
L -1.816356 0.59017 
L -2.938926 4.045085 
L -0 1.90983 
L 2.938926 4.045085 
L 1.816356 0.59017 
L 4.755283 -1.545085 
L 1.12257 -1.545085 
z
" style="stroke: #ff0000"/>
    </defs>
    <g clip-path="url(#p93f6ebc238)">
     <use xlink:href="#m70c137a49c" x="375.397332" y="419.497431" style="fill: #ff0000; stroke: #ff0000"/>
    </g>
   </g>
   <g id="legend_1">
    <g id="patch_6">
     <path d="M 63.44125 107.5846 
L 600.75875 107.5846 
Q 603.95875 107.5846 603.95875 104.3846 
L 603.95875 60.7396 
Q 603.95875 57.5396 600.75875 57.5396 
L 63.44125 57.5396 
Q 60.24125 57.5396 60.24125 60.7396 
L 60.24125 104.3846 
Q 60.24125 107.5846 63.44125 107.5846 
z
" style="fill: #ffffff; opacity: 0.8; stroke: #cccccc; stroke-linejoin: miter"/>
    </g>
    <g id="line2d_26">
     <g>
      <use xlink:href="#ma2f427446b" x="82.64125" y="69.5396" style="fill: #ff0000; stroke: #ff0000; stroke-linejoin: bevel"/>
     </g>
    </g>
    <g id="text_19">
     <!-- Start -->
     <g transform="translate(111.44125 75.1396) scale(0.16 -0.16)">
      <defs>
       <path id="TimesNewRomanPSMT-53" d="M 2934 4334 
L 2934 2869 
L 2819 2869 
Q 2763 3291 2617 3541 
Q 2472 3791 2203 3937 
Q 1934 4084 1647 4084 
Q 1322 4084 1109 3886 
Q 897 3688 897 3434 
Q 897 3241 1031 3081 
Q 1225 2847 1953 2456 
Q 2547 2138 2764 1967 
Q 2981 1797 3098 1565 
Q 3216 1334 3216 1081 
Q 3216 600 2842 251 
Q 2469 -97 1881 -97 
Q 1697 -97 1534 -69 
Q 1438 -53 1133 45 
Q 828 144 747 144 
Q 669 144 623 97 
Q 578 50 556 -97 
L 441 -97 
L 441 1356 
L 556 1356 
Q 638 900 775 673 
Q 913 447 1195 297 
Q 1478 147 1816 147 
Q 2206 147 2432 353 
Q 2659 559 2659 841 
Q 2659 997 2573 1156 
Q 2488 1316 2306 1453 
Q 2184 1547 1640 1851 
Q 1097 2156 867 2337 
Q 638 2519 519 2737 
Q 400 2956 400 3219 
Q 400 3675 750 4004 
Q 1100 4334 1641 4334 
Q 1978 4334 2356 4169 
Q 2531 4091 2603 4091 
Q 2684 4091 2736 4139 
Q 2788 4188 2819 4334 
L 2934 4334 
z
" transform="scale(0.015625)"/>
       <path id="TimesNewRomanPSMT-74" d="M 1031 3803 
L 1031 2863 
L 1700 2863 
L 1700 2644 
L 1031 2644 
L 1031 788 
Q 1031 509 1111 412 
Q 1191 316 1316 316 
Q 1419 316 1516 380 
Q 1613 444 1666 569 
L 1788 569 
Q 1678 263 1478 108 
Q 1278 -47 1066 -47 
Q 922 -47 784 33 
Q 647 113 581 261 
Q 516 409 516 719 
L 516 2644 
L 63 2644 
L 63 2747 
Q 234 2816 414 2980 
Q 594 3144 734 3369 
Q 806 3488 934 3803 
L 1031 3803 
z
" transform="scale(0.015625)"/>
       <path id="TimesNewRomanPSMT-61" d="M 1822 413 
Q 1381 72 1269 19 
Q 1100 -59 909 -59 
Q 613 -59 420 144 
Q 228 347 228 678 
Q 228 888 322 1041 
Q 450 1253 767 1440 
Q 1084 1628 1822 1897 
L 1822 2009 
Q 1822 2438 1686 2597 
Q 1550 2756 1291 2756 
Q 1094 2756 978 2650 
Q 859 2544 859 2406 
L 866 2225 
Q 866 2081 792 2003 
Q 719 1925 600 1925 
Q 484 1925 411 2006 
Q 338 2088 338 2228 
Q 338 2497 613 2722 
Q 888 2947 1384 2947 
Q 1766 2947 2009 2819 
Q 2194 2722 2281 2516 
Q 2338 2381 2338 1966 
L 2338 994 
Q 2338 584 2353 492 
Q 2369 400 2405 369 
Q 2441 338 2488 338 
Q 2538 338 2575 359 
Q 2641 400 2828 588 
L 2828 413 
Q 2478 -56 2159 -56 
Q 2006 -56 1915 50 
Q 1825 156 1822 413 
z
M 1822 616 
L 1822 1706 
Q 1350 1519 1213 1441 
Q 966 1303 859 1153 
Q 753 1003 753 825 
Q 753 600 887 451 
Q 1022 303 1197 303 
Q 1434 303 1822 616 
z
" transform="scale(0.015625)"/>
       <path id="TimesNewRomanPSMT-72" d="M 1038 2947 
L 1038 2303 
Q 1397 2947 1775 2947 
Q 1947 2947 2059 2842 
Q 2172 2738 2172 2600 
Q 2172 2478 2090 2393 
Q 2009 2309 1897 2309 
Q 1788 2309 1652 2417 
Q 1516 2525 1450 2525 
Q 1394 2525 1328 2463 
Q 1188 2334 1038 2041 
L 1038 669 
Q 1038 431 1097 309 
Q 1138 225 1241 169 
Q 1344 113 1538 113 
L 1538 0 
L 72 0 
L 72 113 
Q 291 113 397 181 
Q 475 231 506 341 
Q 522 394 522 644 
L 522 1753 
Q 522 2253 501 2348 
Q 481 2444 426 2487 
Q 372 2531 291 2531 
Q 194 2531 72 2484 
L 41 2597 
L 906 2947 
L 1038 2947 
z
" transform="scale(0.015625)"/>
      </defs>
      <use xlink:href="#TimesNewRomanPSMT-53"/>
      <use xlink:href="#TimesNewRomanPSMT-74" x="55.615234"/>
      <use xlink:href="#TimesNewRomanPSMT-61" x="83.398438"/>
      <use xlink:href="#TimesNewRomanPSMT-72" x="127.783203"/>
      <use xlink:href="#TimesNewRomanPSMT-74" x="161.083984"/>
     </g>
    </g>
    <g id="patch_7">
     <path d="M 66.64125 97.7621 
L 98.64125 97.7621 
L 98.64125 86.5621 
L 66.64125 86.5621 
L 66.64125 97.7621 
z
" style="fill: none"/>
    </g>
    <g id="line2d_27">
     <path d="M 173.65875 69.5396 
L 189.65875 69.5396 
L 205.65875 69.5396 
" style="fill: none; stroke-dasharray: 10.175,4.4; stroke-dashoffset: 0; stroke: #808a87; stroke-width: 2.75"/>
    </g>
    <g id="text_20">
     <!-- GroundTruth -->
     <g transform="translate(218.45875 75.1396) scale(0.16 -0.16)">
      <defs>
       <path id="TimesNewRomanPSMT-47" d="M 3928 4334 
L 4038 2997 
L 3928 2997 
Q 3763 3497 3500 3750 
Q 3122 4116 2528 4116 
Q 1719 4116 1297 3475 
Q 944 2934 944 2188 
Q 944 1581 1178 1081 
Q 1413 581 1792 348 
Q 2172 116 2572 116 
Q 2806 116 3025 175 
Q 3244 234 3447 350 
L 3447 1575 
Q 3447 1894 3398 1992 
Q 3350 2091 3248 2142 
Q 3147 2194 2891 2194 
L 2891 2313 
L 4531 2313 
L 4531 2194 
L 4453 2194 
Q 4209 2194 4119 2031 
Q 4056 1916 4056 1575 
L 4056 278 
Q 3697 84 3347 -6 
Q 2997 -97 2569 -97 
Q 1341 -97 703 691 
Q 225 1281 225 2053 
Q 225 2613 494 3125 
Q 813 3734 1369 4063 
Q 1834 4334 2469 4334 
Q 2700 4334 2889 4296 
Q 3078 4259 3425 4131 
Q 3600 4066 3659 4066 
Q 3719 4066 3761 4120 
Q 3803 4175 3813 4334 
L 3928 4334 
z
" transform="scale(0.015625)"/>
       <path id="TimesNewRomanPSMT-6f" d="M 1600 2947 
Q 2250 2947 2644 2453 
Q 2978 2031 2978 1484 
Q 2978 1100 2793 706 
Q 2609 313 2286 112 
Q 1963 -88 1566 -88 
Q 919 -88 538 428 
Q 216 863 216 1403 
Q 216 1797 411 2186 
Q 606 2575 925 2761 
Q 1244 2947 1600 2947 
z
M 1503 2744 
Q 1338 2744 1170 2645 
Q 1003 2547 900 2300 
Q 797 2053 797 1666 
Q 797 1041 1045 587 
Q 1294 134 1700 134 
Q 2003 134 2200 384 
Q 2397 634 2397 1244 
Q 2397 2006 2069 2444 
Q 1847 2744 1503 2744 
z
" transform="scale(0.015625)"/>
       <path id="TimesNewRomanPSMT-75" d="M 2709 2863 
L 2709 1128 
Q 2709 631 2732 520 
Q 2756 409 2807 365 
Q 2859 322 2928 322 
Q 3025 322 3147 375 
L 3191 266 
L 2334 -88 
L 2194 -88 
L 2194 519 
Q 1825 119 1631 15 
Q 1438 -88 1222 -88 
Q 981 -88 804 51 
Q 628 191 559 409 
Q 491 628 491 1028 
L 491 2306 
Q 491 2509 447 2587 
Q 403 2666 317 2708 
Q 231 2750 6 2747 
L 6 2863 
L 1009 2863 
L 1009 947 
Q 1009 547 1148 422 
Q 1288 297 1484 297 
Q 1619 297 1789 381 
Q 1959 466 2194 703 
L 2194 2325 
Q 2194 2569 2105 2655 
Q 2016 2741 1734 2747 
L 1734 2863 
L 2709 2863 
z
" transform="scale(0.015625)"/>
       <path id="TimesNewRomanPSMT-6e" d="M 1034 2341 
Q 1538 2947 1994 2947 
Q 2228 2947 2397 2830 
Q 2566 2713 2666 2444 
Q 2734 2256 2734 1869 
L 2734 647 
Q 2734 375 2778 278 
Q 2813 200 2889 156 
Q 2966 113 3172 113 
L 3172 0 
L 1756 0 
L 1756 113 
L 1816 113 
Q 2016 113 2095 173 
Q 2175 234 2206 353 
Q 2219 400 2219 647 
L 2219 1819 
Q 2219 2209 2117 2386 
Q 2016 2563 1775 2563 
Q 1403 2563 1034 2156 
L 1034 647 
Q 1034 356 1069 288 
Q 1113 197 1189 155 
Q 1266 113 1500 113 
L 1500 0 
L 84 0 
L 84 113 
L 147 113 
Q 366 113 442 223 
Q 519 334 519 647 
L 519 1709 
Q 519 2225 495 2337 
Q 472 2450 423 2490 
Q 375 2531 294 2531 
Q 206 2531 84 2484 
L 38 2597 
L 900 2947 
L 1034 2947 
L 1034 2341 
z
" transform="scale(0.015625)"/>
       <path id="TimesNewRomanPSMT-64" d="M 2222 322 
Q 2013 103 1813 7 
Q 1613 -88 1381 -88 
Q 913 -88 563 304 
Q 213 697 213 1313 
Q 213 1928 600 2439 
Q 988 2950 1597 2950 
Q 1975 2950 2222 2709 
L 2222 3238 
Q 2222 3728 2198 3840 
Q 2175 3953 2125 3993 
Q 2075 4034 2000 4034 
Q 1919 4034 1784 3984 
L 1744 4094 
L 2597 4444 
L 2738 4444 
L 2738 1134 
Q 2738 631 2761 520 
Q 2784 409 2836 365 
Q 2888 322 2956 322 
Q 3041 322 3181 375 
L 3216 266 
L 2366 -88 
L 2222 -88 
L 2222 322 
z
M 2222 541 
L 2222 2016 
Q 2203 2228 2109 2403 
Q 2016 2578 1861 2667 
Q 1706 2756 1559 2756 
Q 1284 2756 1069 2509 
Q 784 2184 784 1559 
Q 784 928 1059 592 
Q 1334 256 1672 256 
Q 1956 256 2222 541 
z
" transform="scale(0.015625)"/>
       <path id="TimesNewRomanPSMT-54" d="M 3703 4238 
L 3750 3244 
L 3631 3244 
Q 3597 3506 3538 3619 
Q 3441 3800 3280 3886 
Q 3119 3972 2856 3972 
L 2259 3972 
L 2259 734 
Q 2259 344 2344 247 
Q 2463 116 2709 116 
L 2856 116 
L 2856 0 
L 1059 0 
L 1059 116 
L 1209 116 
Q 1478 116 1591 278 
Q 1659 378 1659 734 
L 1659 3972 
L 1150 3972 
Q 853 3972 728 3928 
Q 566 3869 450 3700 
Q 334 3531 313 3244 
L 194 3244 
L 244 4238 
L 3703 4238 
z
" transform="scale(0.015625)"/>
       <path id="TimesNewRomanPSMT-68" d="M 1041 4444 
L 1041 2350 
Q 1388 2731 1591 2839 
Q 1794 2947 1997 2947 
Q 2241 2947 2416 2812 
Q 2591 2678 2675 2391 
Q 2734 2191 2734 1659 
L 2734 647 
Q 2734 375 2778 275 
Q 2809 200 2884 156 
Q 2959 113 3159 113 
L 3159 0 
L 1753 0 
L 1753 113 
L 1819 113 
Q 2019 113 2097 173 
Q 2175 234 2206 353 
Q 2216 403 2216 647 
L 2216 1659 
Q 2216 2128 2167 2275 
Q 2119 2422 2012 2495 
Q 1906 2569 1756 2569 
Q 1603 2569 1437 2487 
Q 1272 2406 1041 2159 
L 1041 647 
Q 1041 353 1073 281 
Q 1106 209 1195 161 
Q 1284 113 1503 113 
L 1503 0 
L 84 0 
L 84 113 
Q 275 113 384 172 
Q 447 203 484 290 
Q 522 378 522 647 
L 522 3238 
Q 522 3728 498 3840 
Q 475 3953 426 3993 
Q 378 4034 297 4034 
Q 231 4034 84 3984 
L 41 4094 
L 897 4444 
L 1041 4444 
z
" transform="scale(0.015625)"/>
      </defs>
      <use xlink:href="#TimesNewRomanPSMT-47"/>
      <use xlink:href="#TimesNewRomanPSMT-72" x="72.216797"/>
      <use xlink:href="#TimesNewRomanPSMT-6f" x="105.517578"/>
      <use xlink:href="#TimesNewRomanPSMT-75" x="155.517578"/>
      <use xlink:href="#TimesNewRomanPSMT-6e" x="205.517578"/>
      <use xlink:href="#TimesNewRomanPSMT-64" x="255.517578"/>
      <use xlink:href="#TimesNewRomanPSMT-54" x="305.517578"/>
      <use xlink:href="#TimesNewRomanPSMT-72" x="363.101562"/>
      <use xlink:href="#TimesNewRomanPSMT-75" x="396.402344"/>
      <use xlink:href="#TimesNewRomanPSMT-74" x="446.402344"/>
      <use xlink:href="#TimesNewRomanPSMT-68" x="474.185547"/>
     </g>
    </g>
    <g id="line2d_28">
     <path d="M 173.65875 92.1621 
L 189.65875 92.1621 
L 205.65875 92.1621 
" style="fill: none; stroke: #0000ff; stroke-width: 2; stroke-linecap: square"/>
    </g>
    <g id="text_21">
     <!-- LOAM -->
     <g transform="translate(218.45875 97.7621) scale(0.16 -0.16)">
      <defs>
       <path id="TimesNewRomanPSMT-4c" d="M 3669 1172 
L 3772 1150 
L 3409 0 
L 128 0 
L 128 116 
L 288 116 
Q 556 116 672 291 
Q 738 391 738 753 
L 738 3488 
Q 738 3884 650 3984 
Q 528 4122 288 4122 
L 128 4122 
L 128 4238 
L 2047 4238 
L 2047 4122 
Q 1709 4125 1573 4059 
Q 1438 3994 1388 3894 
Q 1338 3794 1338 3416 
L 1338 753 
Q 1338 494 1388 397 
Q 1425 331 1503 300 
Q 1581 269 1991 269 
L 2300 269 
Q 2788 269 2984 341 
Q 3181 413 3343 595 
Q 3506 778 3669 1172 
z
" transform="scale(0.015625)"/>
       <path id="TimesNewRomanPSMT-4f" d="M 2341 4334 
Q 3166 4334 3770 3707 
Q 4375 3081 4375 2144 
Q 4375 1178 3765 540 
Q 3156 -97 2291 -97 
Q 1416 -97 820 525 
Q 225 1147 225 2134 
Q 225 3144 913 3781 
Q 1509 4334 2341 4334 
z
M 2281 4106 
Q 1713 4106 1369 3684 
Q 941 3159 941 2147 
Q 941 1109 1384 550 
Q 1725 125 2284 125 
Q 2881 125 3270 590 
Q 3659 1056 3659 2059 
Q 3659 3147 3231 3681 
Q 2888 4106 2281 4106 
z
" transform="scale(0.015625)"/>
       <path id="TimesNewRomanPSMT-41" d="M 2928 1419 
L 1288 1419 
L 1000 750 
Q 894 503 894 381 
Q 894 284 986 211 
Q 1078 138 1384 116 
L 1384 0 
L 50 0 
L 50 116 
Q 316 163 394 238 
Q 553 388 747 847 
L 2238 4334 
L 2347 4334 
L 3822 809 
Q 4000 384 4145 257 
Q 4291 131 4550 116 
L 4550 0 
L 2878 0 
L 2878 116 
Q 3131 128 3220 200 
Q 3309 272 3309 375 
Q 3309 513 3184 809 
L 2928 1419 
z
M 2841 1650 
L 2122 3363 
L 1384 1650 
L 2841 1650 
z
" transform="scale(0.015625)"/>
       <path id="TimesNewRomanPSMT-4d" d="M 2619 0 
L 981 3566 
L 981 734 
Q 981 344 1066 247 
Q 1181 116 1431 116 
L 1581 116 
L 1581 0 
L 106 0 
L 106 116 
L 256 116 
Q 525 116 638 278 
Q 706 378 706 734 
L 706 3503 
Q 706 3784 644 3909 
Q 600 4000 483 4061 
Q 366 4122 106 4122 
L 106 4238 
L 1306 4238 
L 2844 922 
L 4356 4238 
L 5556 4238 
L 5556 4122 
L 5409 4122 
Q 5138 4122 5025 3959 
Q 4956 3859 4956 3503 
L 4956 734 
Q 4956 344 5044 247 
Q 5159 116 5409 116 
L 5556 116 
L 5556 0 
L 3756 0 
L 3756 116 
L 3906 116 
Q 4178 116 4288 278 
Q 4356 378 4356 734 
L 4356 3566 
L 2722 0 
L 2619 0 
z
" transform="scale(0.015625)"/>
      </defs>
      <use xlink:href="#TimesNewRomanPSMT-4c"/>
      <use xlink:href="#TimesNewRomanPSMT-4f" x="61.083984"/>
      <use xlink:href="#TimesNewRomanPSMT-41" x="133.300781"/>
      <use xlink:href="#TimesNewRomanPSMT-4d" x="205.517578"/>
     </g>
    </g>
    <g id="line2d_29">
     <path d="M 334.32625 69.5396 
L 350.32625 69.5396 
L 366.32625 69.5396 
" style="fill: none; stroke: #aa00ff; stroke-width: 2; stroke-linecap: square"/>
    </g>
    <g id="text_22">
     <!-- LeGO-LOAM -->
     <g transform="translate(379.12625 75.1396) scale(0.16 -0.16)">
      <defs>
       <path id="TimesNewRomanPSMT-65" d="M 681 1784 
Q 678 1147 991 784 
Q 1303 422 1725 422 
Q 2006 422 2214 576 
Q 2422 731 2563 1106 
L 2659 1044 
Q 2594 616 2278 264 
Q 1963 -88 1488 -88 
Q 972 -88 605 314 
Q 238 716 238 1394 
Q 238 2128 614 2539 
Q 991 2950 1559 2950 
Q 2041 2950 2350 2633 
Q 2659 2316 2659 1784 
L 681 1784 
z
M 681 1966 
L 2006 1966 
Q 1991 2241 1941 2353 
Q 1863 2528 1708 2628 
Q 1553 2728 1384 2728 
Q 1125 2728 920 2526 
Q 716 2325 681 1966 
z
" transform="scale(0.015625)"/>
       <path id="TimesNewRomanPSMT-2d" d="M 259 1672 
L 1875 1672 
L 1875 1200 
L 259 1200 
L 259 1672 
z
" transform="scale(0.015625)"/>
      </defs>
      <use xlink:href="#TimesNewRomanPSMT-4c"/>
      <use xlink:href="#TimesNewRomanPSMT-65" x="61.083984"/>
      <use xlink:href="#TimesNewRomanPSMT-47" x="105.46875"/>
      <use xlink:href="#TimesNewRomanPSMT-4f" x="177.685547"/>
      <use xlink:href="#TimesNewRomanPSMT-2d" x="249.902344"/>
      <use xlink:href="#TimesNewRomanPSMT-4c" x="283.203125"/>
      <use xlink:href="#TimesNewRomanPSMT-4f" x="344.287109"/>
      <use xlink:href="#TimesNewRomanPSMT-41" x="416.503906"/>
      <use xlink:href="#TimesNewRomanPSMT-4d" x="488.720703"/>
     </g>
    </g>
    <g id="line2d_30">
     <path d="M 334.32625 92.1621 
L 350.32625 92.1621 
L 366.32625 92.1621 
" style="fill: none; stroke: #ff9c00; stroke-width: 2; stroke-linecap: square"/>
    </g>
    <g id="text_23">
     <!-- HDL-SLAM -->
     <g transform="translate(379.12625 97.7621) scale(0.16 -0.16)">
      <defs>
       <path id="TimesNewRomanPSMT-48" d="M 1316 2272 
L 3284 2272 
L 3284 3484 
Q 3284 3809 3244 3913 
Q 3213 3991 3113 4047 
Q 2978 4122 2828 4122 
L 2678 4122 
L 2678 4238 
L 4491 4238 
L 4491 4122 
L 4341 4122 
Q 4191 4122 4056 4050 
Q 3956 4000 3920 3898 
Q 3884 3797 3884 3484 
L 3884 750 
Q 3884 428 3925 325 
Q 3956 247 4053 191 
Q 4191 116 4341 116 
L 4491 116 
L 4491 0 
L 2678 0 
L 2678 116 
L 2828 116 
Q 3088 116 3206 269 
Q 3284 369 3284 750 
L 3284 2041 
L 1316 2041 
L 1316 750 
Q 1316 428 1356 325 
Q 1388 247 1488 191 
Q 1622 116 1772 116 
L 1925 116 
L 1925 0 
L 109 0 
L 109 116 
L 259 116 
Q 522 116 641 269 
Q 716 369 716 750 
L 716 3484 
Q 716 3809 675 3913 
Q 644 3991 547 4047 
Q 409 4122 259 4122 
L 109 4122 
L 109 4238 
L 1925 4238 
L 1925 4122 
L 1772 4122 
Q 1622 4122 1488 4050 
Q 1391 4000 1353 3898 
Q 1316 3797 1316 3484 
L 1316 2272 
z
" transform="scale(0.015625)"/>
       <path id="TimesNewRomanPSMT-44" d="M 109 0 
L 109 116 
L 269 116 
Q 538 116 650 288 
Q 719 391 719 750 
L 719 3488 
Q 719 3884 631 3984 
Q 509 4122 269 4122 
L 109 4122 
L 109 4238 
L 1834 4238 
Q 2784 4238 3279 4022 
Q 3775 3806 4076 3303 
Q 4378 2800 4378 2141 
Q 4378 1256 3841 663 
Q 3238 0 2003 0 
L 109 0 
z
M 1319 306 
Q 1716 219 1984 219 
Q 2709 219 3187 728 
Q 3666 1238 3666 2109 
Q 3666 2988 3187 3494 
Q 2709 4000 1959 4000 
Q 1678 4000 1319 3909 
L 1319 306 
z
" transform="scale(0.015625)"/>
      </defs>
      <use xlink:href="#TimesNewRomanPSMT-48"/>
      <use xlink:href="#TimesNewRomanPSMT-44" x="72.216797"/>
      <use xlink:href="#TimesNewRomanPSMT-4c" x="144.433594"/>
      <use xlink:href="#TimesNewRomanPSMT-2d" x="205.517578"/>
      <use xlink:href="#TimesNewRomanPSMT-53" x="238.818359"/>
      <use xlink:href="#TimesNewRomanPSMT-4c" x="294.433594"/>
      <use xlink:href="#TimesNewRomanPSMT-41" x="355.517578"/>
      <use xlink:href="#TimesNewRomanPSMT-4d" x="427.734375"/>
     </g>
    </g>
    <g id="line2d_31">
     <path d="M 503.54875 69.5396 
L 519.54875 69.5396 
L 535.54875 69.5396 
" style="fill: none; stroke: #ff0000; stroke-width: 2; stroke-linecap: square"/>
    </g>
    <g id="text_24">
     <!-- CT-ICP -->
     <g transform="translate(548.34875 75.1396) scale(0.16 -0.16)">
      <defs>
       <path id="TimesNewRomanPSMT-43" d="M 3853 4334 
L 3950 2894 
L 3853 2894 
Q 3659 3541 3300 3825 
Q 2941 4109 2438 4109 
Q 2016 4109 1675 3895 
Q 1334 3681 1139 3212 
Q 944 2744 944 2047 
Q 944 1472 1128 1050 
Q 1313 628 1683 403 
Q 2053 178 2528 178 
Q 2941 178 3256 354 
Q 3572 531 3950 1056 
L 4047 994 
Q 3728 428 3303 165 
Q 2878 -97 2294 -97 
Q 1241 -97 663 684 
Q 231 1266 231 2053 
Q 231 2688 515 3219 
Q 800 3750 1298 4042 
Q 1797 4334 2388 4334 
Q 2847 4334 3294 4109 
Q 3425 4041 3481 4041 
Q 3566 4041 3628 4100 
Q 3709 4184 3744 4334 
L 3853 4334 
z
" transform="scale(0.015625)"/>
       <path id="TimesNewRomanPSMT-49" d="M 1975 116 
L 1975 0 
L 159 0 
L 159 116 
L 309 116 
Q 572 116 691 269 
Q 766 369 766 750 
L 766 3488 
Q 766 3809 725 3913 
Q 694 3991 597 4047 
Q 459 4122 309 4122 
L 159 4122 
L 159 4238 
L 1975 4238 
L 1975 4122 
L 1822 4122 
Q 1563 4122 1444 3969 
Q 1366 3869 1366 3488 
L 1366 750 
Q 1366 428 1406 325 
Q 1438 247 1538 191 
Q 1672 116 1822 116 
L 1975 116 
z
" transform="scale(0.015625)"/>
       <path id="TimesNewRomanPSMT-50" d="M 1313 1984 
L 1313 750 
Q 1313 350 1400 253 
Q 1519 116 1759 116 
L 1922 116 
L 1922 0 
L 106 0 
L 106 116 
L 266 116 
Q 534 116 650 291 
Q 713 388 713 750 
L 713 3488 
Q 713 3888 628 3984 
Q 506 4122 266 4122 
L 106 4122 
L 106 4238 
L 1659 4238 
Q 2228 4238 2556 4120 
Q 2884 4003 3109 3725 
Q 3334 3447 3334 3066 
Q 3334 2547 2992 2222 
Q 2650 1897 2025 1897 
Q 1872 1897 1694 1919 
Q 1516 1941 1313 1984 
z
M 1313 2163 
Q 1478 2131 1606 2115 
Q 1734 2100 1825 2100 
Q 2150 2100 2386 2351 
Q 2622 2603 2622 3003 
Q 2622 3278 2509 3514 
Q 2397 3750 2190 3867 
Q 1984 3984 1722 3984 
Q 1563 3984 1313 3925 
L 1313 2163 
z
" transform="scale(0.015625)"/>
      </defs>
      <use xlink:href="#TimesNewRomanPSMT-43"/>
      <use xlink:href="#TimesNewRomanPSMT-54" x="66.699219"/>
      <use xlink:href="#TimesNewRomanPSMT-2d" x="118.658203"/>
      <use xlink:href="#TimesNewRomanPSMT-49" x="151.958984"/>
      <use xlink:href="#TimesNewRomanPSMT-43" x="185.259766"/>
      <use xlink:href="#TimesNewRomanPSMT-50" x="251.958984"/>
     </g>
    </g>
    <g id="line2d_32">
     <path d="M 503.54875 92.1621 
L 519.54875 92.1621 
L 535.54875 92.1621 
" style="fill: none; stroke: #00ff00; stroke-width: 2; stroke-linecap: square"/>
    </g>
    <g id="text_25">
     <!-- ROLO -->
     <g transform="translate(548.34875 97.7621) scale(0.16 -0.16)">
      <defs>
       <path id="TimesNewRomanPSMT-52" d="M 4325 0 
L 3194 0 
L 1759 1981 
Q 1600 1975 1500 1975 
Q 1459 1975 1412 1976 
Q 1366 1978 1316 1981 
L 1316 750 
Q 1316 350 1403 253 
Q 1522 116 1759 116 
L 1925 116 
L 1925 0 
L 109 0 
L 109 116 
L 269 116 
Q 538 116 653 291 
Q 719 388 719 750 
L 719 3488 
Q 719 3888 631 3984 
Q 509 4122 269 4122 
L 109 4122 
L 109 4238 
L 1653 4238 
Q 2328 4238 2648 4139 
Q 2969 4041 3192 3777 
Q 3416 3513 3416 3147 
Q 3416 2756 3161 2468 
Q 2906 2181 2372 2063 
L 3247 847 
Q 3547 428 3762 290 
Q 3978 153 4325 116 
L 4325 0 
z
M 1316 2178 
Q 1375 2178 1419 2176 
Q 1463 2175 1491 2175 
Q 2097 2175 2405 2437 
Q 2713 2700 2713 3106 
Q 2713 3503 2464 3751 
Q 2216 4000 1806 4000 
Q 1625 4000 1316 3941 
L 1316 2178 
z
" transform="scale(0.015625)"/>
      </defs>
      <use xlink:href="#TimesNewRomanPSMT-52"/>
      <use xlink:href="#TimesNewRomanPSMT-4f" x="66.699219"/>
      <use xlink:href="#TimesNewRomanPSMT-4c" x="138.916016"/>
      <use xlink:href="#TimesNewRomanPSMT-4f" x="200"/>
     </g>
    </g>
   </g>
  </g>
 </g>
 <defs>
  <clipPath id="p93f6ebc238">
   <rect x="42.12" y="43.74" width="579.96" height="579.96"/>
  </clipPath>
 </defs>
</svg>
