<?xml version="1.0" encoding="utf-8" standalone="no"?>
<!DOCTYPE svg PUBLIC "-//W3C//DTD SVG 1.1//EN"
  "http://www.w3.org/Graphics/SVG/1.1/DTD/svg11.dtd">
<svg xmlns:xlink="http://www.w3.org/1999/xlink" width="720pt" height="648pt" viewBox="0 0 720 648" xmlns="http://www.w3.org/2000/svg" version="1.1">
 <metadata>
  <rdf:RDF xmlns:dc="http://purl.org/dc/elements/1.1/" xmlns:cc="http://creativecommons.org/ns#" xmlns:rdf="http://www.w3.org/1999/02/22-rdf-syntax-ns#">
   <cc:Work>
    <dc:type rdf:resource="http://purl.org/dc/dcmitype/StillImage"/>
    <dc:date>2024-08-09T16:10:43.631024</dc:date>
    <dc:format>image/svg+xml</dc:format>
    <dc:creator>
     <cc:Agent>
      <dc:title>Matplotlib v3.8.3, https://matplotlib.org/</dc:title>
     </cc:Agent>
    </dc:creator>
   </cc:Work>
  </rdf:RDF>
 </metadata>
 <defs>
  <style type="text/css">*{stroke-linejoin: round; stroke-linecap: butt}</style>
 </defs>
 <g id="figure_1">
  <g id="patch_1">
   <path d="M 0 648 
L 720 648 
L 720 0 
L 0 0 
z
" style="fill: #ffffff"/>
  </g>
  <g id="axes_1">
   <g id="patch_2">
    <path d="M 97.2 583.2 
L 716.4 583.2 
L 716.4 45.36 
L 97.2 45.36 
z
" style="fill: #ffffff"/>
   </g>
   <g id="matplotlib.axis_1">
    <g id="xtick_1">
     <g id="line2d_1">
      <path d="M 147.653333 583.2 
L 147.653333 45.36 
" clip-path="url(#pa6f33938e0)" style="fill: none; stroke-dasharray: 2.96,1.28; stroke-dashoffset: 0; stroke: #b0b0b0; stroke-width: 0.8"/>
     </g>
     <g id="line2d_2">
      <defs>
       <path id="m5843adb8e7" d="M 0 0 
L 0 -5 
" style="stroke: #000000; stroke-width: 0.8"/>
      </defs>
      <g>
       <use xlink:href="#m5843adb8e7" x="147.653333" y="583.2" style="stroke: #000000; stroke-width: 0.8"/>
      </g>
     </g>
     <g id="text_1">
      <!-- −100 -->
      <g transform="translate(120.186146 613.396875) scale(0.2 -0.2)">
       <defs>
        <path id="DejaVuSans-2212" d="M 678 2272 
L 4684 2272 
L 4684 1741 
L 678 1741 
L 678 2272 
z
" transform="scale(0.015625)"/>
        <path id="DejaVuSans-31" d="M 794 531 
L 1825 531 
L 1825 4091 
L 703 3866 
L 703 4441 
L 1819 4666 
L 2450 4666 
L 2450 531 
L 3481 531 
L 3481 0 
L 794 0 
L 794 531 
z
" transform="scale(0.015625)"/>
        <path id="DejaVuSans-30" d="M 2034 4250 
Q 1547 4250 1301 3770 
Q 1056 3291 1056 2328 
Q 1056 1369 1301 889 
Q 1547 409 2034 409 
Q 2525 409 2770 889 
Q 3016 1369 3016 2328 
Q 3016 3291 2770 3770 
Q 2525 4250 2034 4250 
z
M 2034 4750 
Q 2819 4750 3233 4129 
Q 3647 3509 3647 2328 
Q 3647 1150 3233 529 
Q 2819 -91 2034 -91 
Q 1250 -91 836 529 
Q 422 1150 422 2328 
Q 422 3509 836 4129 
Q 1250 4750 2034 4750 
z
" transform="scale(0.015625)"/>
       </defs>
       <use xlink:href="#DejaVuSans-2212"/>
       <use xlink:href="#DejaVuSans-31" x="83.789062"/>
       <use xlink:href="#DejaVuSans-30" x="147.412109"/>
       <use xlink:href="#DejaVuSans-30" x="211.035156"/>
      </g>
     </g>
    </g>
    <g id="xtick_2">
     <g id="line2d_3">
      <path d="M 239.386667 583.2 
L 239.386667 45.36 
" clip-path="url(#pa6f33938e0)" style="fill: none; stroke-dasharray: 2.96,1.28; stroke-dashoffset: 0; stroke: #b0b0b0; stroke-width: 0.8"/>
     </g>
     <g id="line2d_4">
      <g>
       <use xlink:href="#m5843adb8e7" x="239.386667" y="583.2" style="stroke: #000000; stroke-width: 0.8"/>
      </g>
     </g>
     <g id="text_2">
      <!-- 0 -->
      <g transform="translate(233.024167 613.396875) scale(0.2 -0.2)">
       <use xlink:href="#DejaVuSans-30"/>
      </g>
     </g>
    </g>
    <g id="xtick_3">
     <g id="line2d_5">
      <path d="M 331.12 583.2 
L 331.12 45.36 
" clip-path="url(#pa6f33938e0)" style="fill: none; stroke-dasharray: 2.96,1.28; stroke-dashoffset: 0; stroke: #b0b0b0; stroke-width: 0.8"/>
     </g>
     <g id="line2d_6">
      <g>
       <use xlink:href="#m5843adb8e7" x="331.12" y="583.2" style="stroke: #000000; stroke-width: 0.8"/>
      </g>
     </g>
     <g id="text_3">
      <!-- 100 -->
      <g transform="translate(312.0325 613.396875) scale(0.2 -0.2)">
       <use xlink:href="#DejaVuSans-31"/>
       <use xlink:href="#DejaVuSans-30" x="63.623047"/>
       <use xlink:href="#DejaVuSans-30" x="127.246094"/>
      </g>
     </g>
    </g>
    <g id="xtick_4">
     <g id="line2d_7">
      <path d="M 422.853333 583.2 
L 422.853333 45.36 
" clip-path="url(#pa6f33938e0)" style="fill: none; stroke-dasharray: 2.96,1.28; stroke-dashoffset: 0; stroke: #b0b0b0; stroke-width: 0.8"/>
     </g>
     <g id="line2d_8">
      <g>
       <use xlink:href="#m5843adb8e7" x="422.853333" y="583.2" style="stroke: #000000; stroke-width: 0.8"/>
      </g>
     </g>
     <g id="text_4">
      <!-- 200 -->
      <g transform="translate(403.765833 613.396875) scale(0.2 -0.2)">
       <defs>
        <path id="DejaVuSans-32" d="M 1228 531 
L 3431 531 
L 3431 0 
L 469 0 
L 469 531 
Q 828 903 1448 1529 
Q 2069 2156 2228 2338 
Q 2531 2678 2651 2914 
Q 2772 3150 2772 3378 
Q 2772 3750 2511 3984 
Q 2250 4219 1831 4219 
Q 1534 4219 1204 4116 
Q 875 4013 500 3803 
L 500 4441 
Q 881 4594 1212 4672 
Q 1544 4750 1819 4750 
Q 2544 4750 2975 4387 
Q 3406 4025 3406 3419 
Q 3406 3131 3298 2873 
Q 3191 2616 2906 2266 
Q 2828 2175 2409 1742 
Q 1991 1309 1228 531 
z
" transform="scale(0.015625)"/>
       </defs>
       <use xlink:href="#DejaVuSans-32"/>
       <use xlink:href="#DejaVuSans-30" x="63.623047"/>
       <use xlink:href="#DejaVuSans-30" x="127.246094"/>
      </g>
     </g>
    </g>
    <g id="xtick_5">
     <g id="line2d_9">
      <path d="M 514.586667 583.2 
L 514.586667 45.36 
" clip-path="url(#pa6f33938e0)" style="fill: none; stroke-dasharray: 2.96,1.28; stroke-dashoffset: 0; stroke: #b0b0b0; stroke-width: 0.8"/>
     </g>
     <g id="line2d_10">
      <g>
       <use xlink:href="#m5843adb8e7" x="514.586667" y="583.2" style="stroke: #000000; stroke-width: 0.8"/>
      </g>
     </g>
     <g id="text_5">
      <!-- 300 -->
      <g transform="translate(495.499167 613.396875) scale(0.2 -0.2)">
       <defs>
        <path id="DejaVuSans-33" d="M 2597 2516 
Q 3050 2419 3304 2112 
Q 3559 1806 3559 1356 
Q 3559 666 3084 287 
Q 2609 -91 1734 -91 
Q 1441 -91 1130 -33 
Q 819 25 488 141 
L 488 750 
Q 750 597 1062 519 
Q 1375 441 1716 441 
Q 2309 441 2620 675 
Q 2931 909 2931 1356 
Q 2931 1769 2642 2001 
Q 2353 2234 1838 2234 
L 1294 2234 
L 1294 2753 
L 1863 2753 
Q 2328 2753 2575 2939 
Q 2822 3125 2822 3475 
Q 2822 3834 2567 4026 
Q 2313 4219 1838 4219 
Q 1578 4219 1281 4162 
Q 984 4106 628 3988 
L 628 4550 
Q 988 4650 1302 4700 
Q 1616 4750 1894 4750 
Q 2613 4750 3031 4423 
Q 3450 4097 3450 3541 
Q 3450 3153 3228 2886 
Q 3006 2619 2597 2516 
z
" transform="scale(0.015625)"/>
       </defs>
       <use xlink:href="#DejaVuSans-33"/>
       <use xlink:href="#DejaVuSans-30" x="63.623047"/>
       <use xlink:href="#DejaVuSans-30" x="127.246094"/>
      </g>
     </g>
    </g>
    <g id="xtick_6">
     <g id="line2d_11">
      <path d="M 606.32 583.2 
L 606.32 45.36 
" clip-path="url(#pa6f33938e0)" style="fill: none; stroke-dasharray: 2.96,1.28; stroke-dashoffset: 0; stroke: #b0b0b0; stroke-width: 0.8"/>
     </g>
     <g id="line2d_12">
      <g>
       <use xlink:href="#m5843adb8e7" x="606.32" y="583.2" style="stroke: #000000; stroke-width: 0.8"/>
      </g>
     </g>
     <g id="text_6">
      <!-- 400 -->
      <g transform="translate(587.2325 613.396875) scale(0.2 -0.2)">
       <defs>
        <path id="DejaVuSans-34" d="M 2419 4116 
L 825 1625 
L 2419 1625 
L 2419 4116 
z
M 2253 4666 
L 3047 4666 
L 3047 1625 
L 3713 1625 
L 3713 1100 
L 3047 1100 
L 3047 0 
L 2419 0 
L 2419 1100 
L 313 1100 
L 313 1709 
L 2253 4666 
z
" transform="scale(0.015625)"/>
       </defs>
       <use xlink:href="#DejaVuSans-34"/>
       <use xlink:href="#DejaVuSans-30" x="63.623047"/>
       <use xlink:href="#DejaVuSans-30" x="127.246094"/>
      </g>
     </g>
    </g>
    <g id="xtick_7">
     <g id="line2d_13">
      <path d="M 698.053333 583.2 
L 698.053333 45.36 
" clip-path="url(#pa6f33938e0)" style="fill: none; stroke-dasharray: 2.96,1.28; stroke-dashoffset: 0; stroke: #b0b0b0; stroke-width: 0.8"/>
     </g>
     <g id="line2d_14">
      <g>
       <use xlink:href="#m5843adb8e7" x="698.053333" y="583.2" style="stroke: #000000; stroke-width: 0.8"/>
      </g>
     </g>
     <g id="text_7">
      <!-- 500 -->
      <g transform="translate(678.965833 613.396875) scale(0.2 -0.2)">
       <defs>
        <path id="DejaVuSans-35" d="M 691 4666 
L 3169 4666 
L 3169 4134 
L 1269 4134 
L 1269 2991 
Q 1406 3038 1543 3061 
Q 1681 3084 1819 3084 
Q 2600 3084 3056 2656 
Q 3513 2228 3513 1497 
Q 3513 744 3044 326 
Q 2575 -91 1722 -91 
Q 1428 -91 1123 -41 
Q 819 9 494 109 
L 494 744 
Q 775 591 1075 516 
Q 1375 441 1709 441 
Q 2250 441 2565 725 
Q 2881 1009 2881 1497 
Q 2881 1984 2565 2268 
Q 2250 2553 1709 2553 
Q 1456 2553 1204 2497 
Q 953 2441 691 2322 
L 691 4666 
z
" transform="scale(0.015625)"/>
       </defs>
       <use xlink:href="#DejaVuSans-35"/>
       <use xlink:href="#DejaVuSans-30" x="63.623047"/>
       <use xlink:href="#DejaVuSans-30" x="127.246094"/>
      </g>
     </g>
    </g>
    <g id="text_8">
     <!-- X (m) -->
     <g transform="translate(382.640625 635.44375) scale(0.2 -0.2)">
      <defs>
       <path id="TimesNewRomanPSMT-58" d="M 2613 2347 
L 3522 991 
Q 3900 428 4083 279 
Q 4266 131 4547 116 
L 4547 0 
L 2728 0 
L 2728 116 
Q 2909 119 2997 153 
Q 3063 181 3105 239 
Q 3147 297 3147 356 
Q 3147 428 3119 500 
Q 3097 553 2947 775 
L 2228 1863 
L 1341 725 
Q 1200 544 1172 483 
Q 1144 422 1144 356 
Q 1144 256 1228 190 
Q 1313 125 1550 116 
L 1550 0 
L 47 0 
L 47 116 
Q 206 131 322 181 
Q 516 263 691 400 
Q 866 538 1091 822 
L 2091 2084 
L 1256 3306 
Q 916 3803 678 3958 
Q 441 4113 131 4122 
L 131 4238 
L 2091 4238 
L 2091 4122 
Q 1841 4113 1748 4041 
Q 1656 3969 1656 3881 
Q 1656 3766 1806 3544 
L 2456 2572 
L 3209 3525 
Q 3341 3694 3370 3756 
Q 3400 3819 3400 3884 
Q 3400 3950 3363 4000 
Q 3316 4066 3244 4092 
Q 3172 4119 2947 4122 
L 2947 4238 
L 4450 4238 
L 4450 4122 
Q 4272 4113 4159 4066 
Q 3991 3994 3850 3872 
Q 3709 3750 3453 3422 
L 2613 2347 
z
" transform="scale(0.015625)"/>
       <path id="TimesNewRomanPSMT-20" transform="scale(0.015625)"/>
       <path id="TimesNewRomanPSMT-28" d="M 1988 -1253 
L 1988 -1369 
Q 1516 -1131 1200 -813 
Q 750 -359 506 256 
Q 263 872 263 1534 
Q 263 2503 741 3301 
Q 1219 4100 1988 4444 
L 1988 4313 
Q 1603 4100 1356 3731 
Q 1109 3363 987 2797 
Q 866 2231 866 1616 
Q 866 947 969 400 
Q 1050 -31 1165 -292 
Q 1281 -553 1476 -793 
Q 1672 -1034 1988 -1253 
z
" transform="scale(0.015625)"/>
       <path id="TimesNewRomanPSMT-6d" d="M 1050 2338 
Q 1363 2650 1419 2697 
Q 1559 2816 1721 2881 
Q 1884 2947 2044 2947 
Q 2313 2947 2506 2790 
Q 2700 2634 2766 2338 
Q 3088 2713 3309 2830 
Q 3531 2947 3766 2947 
Q 3994 2947 4170 2830 
Q 4347 2713 4450 2447 
Q 4519 2266 4519 1878 
L 4519 647 
Q 4519 378 4559 278 
Q 4591 209 4675 161 
Q 4759 113 4950 113 
L 4950 0 
L 3538 0 
L 3538 113 
L 3597 113 
Q 3781 113 3884 184 
Q 3956 234 3988 344 
Q 4000 397 4000 647 
L 4000 1878 
Q 4000 2228 3916 2372 
Q 3794 2572 3525 2572 
Q 3359 2572 3192 2489 
Q 3025 2406 2788 2181 
L 2781 2147 
L 2788 2013 
L 2788 647 
Q 2788 353 2820 281 
Q 2853 209 2943 161 
Q 3034 113 3253 113 
L 3253 0 
L 1806 0 
L 1806 113 
Q 2044 113 2133 169 
Q 2222 225 2256 338 
Q 2272 391 2272 647 
L 2272 1878 
Q 2272 2228 2169 2381 
Q 2031 2581 1784 2581 
Q 1616 2581 1450 2491 
Q 1191 2353 1050 2181 
L 1050 647 
Q 1050 366 1089 281 
Q 1128 197 1204 155 
Q 1281 113 1516 113 
L 1516 0 
L 100 0 
L 100 113 
Q 297 113 375 155 
Q 453 197 493 289 
Q 534 381 534 647 
L 534 1741 
Q 534 2213 506 2350 
Q 484 2453 437 2492 
Q 391 2531 309 2531 
Q 222 2531 100 2484 
L 53 2597 
L 916 2947 
L 1050 2947 
L 1050 2338 
z
" transform="scale(0.015625)"/>
       <path id="TimesNewRomanPSMT-29" d="M 144 4313 
L 144 4444 
Q 619 4209 934 3891 
Q 1381 3434 1625 2820 
Q 1869 2206 1869 1541 
Q 1869 572 1392 -226 
Q 916 -1025 144 -1369 
L 144 -1253 
Q 528 -1038 776 -670 
Q 1025 -303 1145 264 
Q 1266 831 1266 1447 
Q 1266 2113 1163 2663 
Q 1084 3094 967 3353 
Q 850 3613 656 3853 
Q 463 4094 144 4313 
z
" transform="scale(0.015625)"/>
      </defs>
      <use xlink:href="#TimesNewRomanPSMT-58"/>
      <use xlink:href="#TimesNewRomanPSMT-20" x="72.216797"/>
      <use xlink:href="#TimesNewRomanPSMT-28" x="97.216797"/>
      <use xlink:href="#TimesNewRomanPSMT-6d" x="130.517578"/>
      <use xlink:href="#TimesNewRomanPSMT-29" x="208.300781"/>
     </g>
    </g>
   </g>
   <g id="matplotlib.axis_2">
    <g id="ytick_1">
     <g id="line2d_15">
      <path d="M 97.2 552.289655 
L 716.4 552.289655 
" clip-path="url(#pa6f33938e0)" style="fill: none; stroke-dasharray: 2.96,1.28; stroke-dashoffset: 0; stroke: #b0b0b0; stroke-width: 0.8"/>
     </g>
     <g id="line2d_16">
      <defs>
       <path id="mc5aa2067c1" d="M 0 0 
L 5 0 
" style="stroke: #000000; stroke-width: 0.8"/>
      </defs>
      <g>
       <use xlink:href="#mc5aa2067c1" x="97.2" y="552.289655" style="stroke: #000000; stroke-width: 0.8"/>
      </g>
     </g>
     <g id="text_9">
      <!-- −400 -->
      <g transform="translate(27.265625 559.888093) scale(0.2 -0.2)">
       <use xlink:href="#DejaVuSans-2212"/>
       <use xlink:href="#DejaVuSans-34" x="83.789062"/>
       <use xlink:href="#DejaVuSans-30" x="147.412109"/>
       <use xlink:href="#DejaVuSans-30" x="211.035156"/>
      </g>
     </g>
    </g>
    <g id="ytick_2">
     <g id="line2d_17">
      <path d="M 97.2 490.468966 
L 716.4 490.468966 
" clip-path="url(#pa6f33938e0)" style="fill: none; stroke-dasharray: 2.96,1.28; stroke-dashoffset: 0; stroke: #b0b0b0; stroke-width: 0.8"/>
     </g>
     <g id="line2d_18">
      <g>
       <use xlink:href="#mc5aa2067c1" x="97.2" y="490.468966" style="stroke: #000000; stroke-width: 0.8"/>
      </g>
     </g>
     <g id="text_10">
      <!-- −300 -->
      <g transform="translate(27.265625 498.067403) scale(0.2 -0.2)">
       <use xlink:href="#DejaVuSans-2212"/>
       <use xlink:href="#DejaVuSans-33" x="83.789062"/>
       <use xlink:href="#DejaVuSans-30" x="147.412109"/>
       <use xlink:href="#DejaVuSans-30" x="211.035156"/>
      </g>
     </g>
    </g>
    <g id="ytick_3">
     <g id="line2d_19">
      <path d="M 97.2 428.648276 
L 716.4 428.648276 
" clip-path="url(#pa6f33938e0)" style="fill: none; stroke-dasharray: 2.96,1.28; stroke-dashoffset: 0; stroke: #b0b0b0; stroke-width: 0.8"/>
     </g>
     <g id="line2d_20">
      <g>
       <use xlink:href="#mc5aa2067c1" x="97.2" y="428.648276" style="stroke: #000000; stroke-width: 0.8"/>
      </g>
     </g>
     <g id="text_11">
      <!-- −200 -->
      <g transform="translate(27.265625 436.246713) scale(0.2 -0.2)">
       <use xlink:href="#DejaVuSans-2212"/>
       <use xlink:href="#DejaVuSans-32" x="83.789062"/>
       <use xlink:href="#DejaVuSans-30" x="147.412109"/>
       <use xlink:href="#DejaVuSans-30" x="211.035156"/>
      </g>
     </g>
    </g>
    <g id="ytick_4">
     <g id="line2d_21">
      <path d="M 97.2 366.827586 
L 716.4 366.827586 
" clip-path="url(#pa6f33938e0)" style="fill: none; stroke-dasharray: 2.96,1.28; stroke-dashoffset: 0; stroke: #b0b0b0; stroke-width: 0.8"/>
     </g>
     <g id="line2d_22">
      <g>
       <use xlink:href="#mc5aa2067c1" x="97.2" y="366.827586" style="stroke: #000000; stroke-width: 0.8"/>
      </g>
     </g>
     <g id="text_12">
      <!-- −100 -->
      <g transform="translate(27.265625 374.426024) scale(0.2 -0.2)">
       <use xlink:href="#DejaVuSans-2212"/>
       <use xlink:href="#DejaVuSans-31" x="83.789062"/>
       <use xlink:href="#DejaVuSans-30" x="147.412109"/>
       <use xlink:href="#DejaVuSans-30" x="211.035156"/>
      </g>
     </g>
    </g>
    <g id="ytick_5">
     <g id="line2d_23">
      <path d="M 97.2 305.006897 
L 716.4 305.006897 
" clip-path="url(#pa6f33938e0)" style="fill: none; stroke-dasharray: 2.96,1.28; stroke-dashoffset: 0; stroke: #b0b0b0; stroke-width: 0.8"/>
     </g>
     <g id="line2d_24">
      <g>
       <use xlink:href="#mc5aa2067c1" x="97.2" y="305.006897" style="stroke: #000000; stroke-width: 0.8"/>
      </g>
     </g>
     <g id="text_13">
      <!-- 0 -->
      <g transform="translate(69.475 312.605334) scale(0.2 -0.2)">
       <use xlink:href="#DejaVuSans-30"/>
      </g>
     </g>
    </g>
    <g id="ytick_6">
     <g id="line2d_25">
      <path d="M 97.2 243.186207 
L 716.4 243.186207 
" clip-path="url(#pa6f33938e0)" style="fill: none; stroke-dasharray: 2.96,1.28; stroke-dashoffset: 0; stroke: #b0b0b0; stroke-width: 0.8"/>
     </g>
     <g id="line2d_26">
      <g>
       <use xlink:href="#mc5aa2067c1" x="97.2" y="243.186207" style="stroke: #000000; stroke-width: 0.8"/>
      </g>
     </g>
     <g id="text_14">
      <!-- 100 -->
      <g transform="translate(44.025 250.784644) scale(0.2 -0.2)">
       <use xlink:href="#DejaVuSans-31"/>
       <use xlink:href="#DejaVuSans-30" x="63.623047"/>
       <use xlink:href="#DejaVuSans-30" x="127.246094"/>
      </g>
     </g>
    </g>
    <g id="ytick_7">
     <g id="line2d_27">
      <path d="M 97.2 181.365517 
L 716.4 181.365517 
" clip-path="url(#pa6f33938e0)" style="fill: none; stroke-dasharray: 2.96,1.28; stroke-dashoffset: 0; stroke: #b0b0b0; stroke-width: 0.8"/>
     </g>
     <g id="line2d_28">
      <g>
       <use xlink:href="#mc5aa2067c1" x="97.2" y="181.365517" style="stroke: #000000; stroke-width: 0.8"/>
      </g>
     </g>
     <g id="text_15">
      <!-- 200 -->
      <g transform="translate(44.025 188.963955) scale(0.2 -0.2)">
       <use xlink:href="#DejaVuSans-32"/>
       <use xlink:href="#DejaVuSans-30" x="63.623047"/>
       <use xlink:href="#DejaVuSans-30" x="127.246094"/>
      </g>
     </g>
    </g>
    <g id="ytick_8">
     <g id="line2d_29">
      <path d="M 97.2 119.544828 
L 716.4 119.544828 
" clip-path="url(#pa6f33938e0)" style="fill: none; stroke-dasharray: 2.96,1.28; stroke-dashoffset: 0; stroke: #b0b0b0; stroke-width: 0.8"/>
     </g>
     <g id="line2d_30">
      <g>
       <use xlink:href="#mc5aa2067c1" x="97.2" y="119.544828" style="stroke: #000000; stroke-width: 0.8"/>
      </g>
     </g>
     <g id="text_16">
      <!-- 300 -->
      <g transform="translate(44.025 127.143265) scale(0.2 -0.2)">
       <use xlink:href="#DejaVuSans-33"/>
       <use xlink:href="#DejaVuSans-30" x="63.623047"/>
       <use xlink:href="#DejaVuSans-30" x="127.246094"/>
      </g>
     </g>
    </g>
    <g id="ytick_9">
     <g id="line2d_31">
      <path d="M 97.2 57.724138 
L 716.4 57.724138 
" clip-path="url(#pa6f33938e0)" style="fill: none; stroke-dasharray: 2.96,1.28; stroke-dashoffset: 0; stroke: #b0b0b0; stroke-width: 0.8"/>
     </g>
     <g id="line2d_32">
      <g>
       <use xlink:href="#mc5aa2067c1" x="97.2" y="57.724138" style="stroke: #000000; stroke-width: 0.8"/>
      </g>
     </g>
     <g id="text_17">
      <!-- 400 -->
      <g transform="translate(44.025 65.322575) scale(0.2 -0.2)">
       <use xlink:href="#DejaVuSans-34"/>
       <use xlink:href="#DejaVuSans-30" x="63.623047"/>
       <use xlink:href="#DejaVuSans-30" x="127.246094"/>
      </g>
     </g>
    </g>
    <g id="text_18">
     <!-- Y (m) -->
     <g transform="translate(18.9875 338.064375) rotate(-90) scale(0.2 -0.2)">
      <defs>
       <path id="TimesNewRomanPSMT-59" d="M 3050 4238 
L 4528 4238 
L 4528 4122 
L 4447 4122 
Q 4366 4122 4209 4050 
Q 4053 3978 3925 3843 
Q 3797 3709 3609 3406 
L 2588 1797 
L 2588 734 
Q 2588 344 2675 247 
Q 2794 116 3050 116 
L 3188 116 
L 3188 0 
L 1388 0 
L 1388 116 
L 1538 116 
Q 1806 116 1919 278 
Q 1988 378 1988 734 
L 1988 1738 
L 825 3513 
Q 619 3825 545 3903 
Q 472 3981 241 4091 
Q 178 4122 59 4122 
L 59 4238 
L 1872 4238 
L 1872 4122 
L 1778 4122 
Q 1631 4122 1507 4053 
Q 1384 3984 1384 3847 
Q 1384 3734 1575 3441 
L 2459 2075 
L 3291 3381 
Q 3478 3675 3478 3819 
Q 3478 3906 3433 3975 
Q 3388 4044 3303 4083 
Q 3219 4122 3050 4122 
L 3050 4238 
z
" transform="scale(0.015625)"/>
      </defs>
      <use xlink:href="#TimesNewRomanPSMT-59"/>
      <use xlink:href="#TimesNewRomanPSMT-20" x="68.466797"/>
      <use xlink:href="#TimesNewRomanPSMT-28" x="93.466797"/>
      <use xlink:href="#TimesNewRomanPSMT-6d" x="126.767578"/>
      <use xlink:href="#TimesNewRomanPSMT-29" x="204.550781"/>
     </g>
    </g>
   </g>
   <g id="line2d_33">
    <defs>
     <path id="m5e36e0c187" d="M 0 -3 
L -0.673542 -0.927051 
L -2.85317 -0.927051 
L -1.089814 0.354102 
L -1.763356 2.427051 
L -0 1.145898 
L 1.763356 2.427051 
L 1.089814 0.354102 
L 2.85317 -0.927051 
L 0.673542 -0.927051 
z
" style="stroke: #ff0000; stroke-linejoin: bevel"/>
    </defs>
    <g clip-path="url(#pa6f33938e0)">
     <use xlink:href="#m5e36e0c187" x="239.386667" y="305.006897" style="fill: #ff0000; stroke: #ff0000; stroke-linejoin: bevel"/>
    </g>
   </g>
   <g id="line2d_34">
    <path d="M 239.386667 305.006897 
L 251.919687 304.94338 
L 253.071537 304.510019 
L 253.914695 304.000283 
L 255.249791 302.549289 
L 255.715191 301.685731 
L 255.943616 301.022844 
L 256.161272 299.90484 
L 256.199754 298.653195 
L 255.279962 286.056784 
L 254.807774 281.948799 
L 253.708799 275.118466 
L 252.531989 268.902482 
L 252.121097 265.377522 
L 251.646845 257.997974 
L 251.197076 245.492366 
L 250.965285 239.730987 
L 250.339755 222.267198 
L 249.957732 215.251972 
L 249.336403 195.606099 
L 249.014759 182.344572 
L 248.819174 176.565141 
L 248.923695 172.152813 
L 248.824834 167.013411 
L 248.763299 162.221133 
L 248.65554 151.956241 
L 248.302219 145.796922 
L 247.188724 125.115861 
L 246.030229 97.375866 
L 245.242888 75.787278 
L 245.595018 74.105632 
L 246.074069 73.005965 
L 246.748352 72.007932 
L 247.626707 71.11827 
L 248.64844 70.344152 
L 250.34558 69.420365 
L 252.341908 68.691066 
L 254.661652 68.096661 
L 257.311461 67.649141 
L 261.039201 67.242422 
L 266.96023 66.920584 
L 281.139231 66.20198 
L 297.9877 66.040752 
L 300.788694 66.308126 
L 303.320085 66.843184 
L 306.098495 67.810863 
L 308.476911 68.902864 
L 310.355665 70.227558 
L 311.417744 71.490184 
L 312.035449 72.575755 
L 312.498271 73.742868 
L 312.88301 75.450973 
L 313.252181 78.238716 
L 313.407889 80.741773 
L 313.404853 83.93914 
L 313.126149 92.771956 
L 313.373875 97.658634 
L 313.726232 104.618778 
L 313.898296 108.320478 
L 314.514028 116.114027 
L 315.181232 122.954177 
L 315.566769 128.040536 
L 315.624378 133.886548 
L 315.498685 138.909046 
L 315.410868 142.697541 
L 315.555881 145.952215 
L 315.950416 149.247072 
L 316.838927 155.957214 
L 316.963574 158.703598 
L 316.858732 161.396136 
L 316.134012 171.350318 
L 316.458784 172.353421 
L 316.858411 173.05354 
L 317.823391 174.058683 
L 318.506144 174.599552 
L 319.721427 175.265917 
L 321.750458 175.996081 
L 324.389351 176.55933 
L 326.879691 176.825591 
L 330.467868 176.927472 
L 335.312213 176.841108 
L 342.301193 176.724885 
L 350.135494 176.84661 
L 356.88505 176.944349 
L 364.144 176.861385 
L 367.427962 176.670421 
L 369.790921 176.296592 
L 371.500371 175.782058 
L 373.055802 175.075633 
L 374.122385 174.413966 
L 375.375279 173.337173 
L 376.162718 172.36393 
L 376.759168 171.24207 
L 377.154539 170.012642 
L 377.46845 167.769108 
L 378.201399 155.577635 
L 378.23158 152.267322 
L 378.037472 148.259425 
L 377.616233 144.295421 
L 376.613954 135.867592 
L 376.345726 131.274438 
L 375.820828 117.653609 
L 375.298406 106.022046 
L 374.996695 96.637109 
L 374.818182 91.937686 
L 373.841222 76.323634 
L 373.863422 73.530328 
L 374.084866 71.938816 
L 374.467669 70.565408 
L 374.859829 69.667833 
L 375.37271 68.861815 
L 376.306464 67.885976 
L 377.39965 67.036745 
L 379.280092 66.056269 
L 380.732964 65.540808 
L 382.982816 65.040678 
L 385.600885 64.715996 
L 389.251322 64.522992 
L 400.439394 64.342166 
L 423.994771 64.210365 
L 426.36195 64.546422 
L 428.028836 64.995797 
L 430.461604 66.103129 
L 432.430385 67.649882 
L 433.617414 69.158678 
L 434.331008 70.418151 
L 435.014697 72.268444 
L 435.519689 74.293876 
L 436.049449 77.630956 
L 436.65021 83.076246 
L 436.909999 87.543038 
L 437.009163 93.94828 
L 436.850281 97.769788 
L 436.241355 107.182112 
L 436.307311 110.323901 
L 436.633056 114.742102 
L 437.792932 128.951278 
L 438.022908 135.070043 
L 438.47607 150.688051 
L 438.837225 157.173412 
L 439.103893 162.645285 
L 439.094537 166.554578 
L 438.904557 168.06325 
L 438.429011 169.610066 
L 437.933101 170.623863 
L 437.422421 171.335172 
L 436.41418 172.242391 
L 435.756177 172.662895 
L 434.313487 173.280855 
L 432.424422 173.744015 
L 430.042475 174.034511 
L 427.182963 174.115929 
L 416.024521 174.119081 
L 395.697515 174.573711 
L 378.660983 175.272594 
L 373.544832 175.693778 
L 367.511255 176.13864 
L 363.915584 176.179009 
L 353.859134 175.920536 
L 346.49469 175.795535 
L 340.118214 175.902732 
L 317.035713 176.611321 
L 305.927495 177.41635 
L 302.469084 177.325782 
L 290.858488 176.646188 
L 283.115433 176.676109 
L 259.599373 177.013526 
L 257.481094 177.265569 
L 255.763177 177.681375 
L 254.326633 178.263355 
L 253.045191 179.078708 
L 252.173697 179.853816 
L 251.178794 181.09499 
L 250.25514 182.723718 
L 249.553233 184.238634 
L 249.191456 185.414463 
L 249.018428 186.876646 
L 249.058204 189.723613 
L 249.38149 194.079869 
L 250.136015 200.537226 
L 250.83906 204.606511 
L 251.556378 209.006166 
L 251.786243 211.596576 
L 251.76009 214.231374 
L 251.531289 220.319228 
L 251.530068 241.420484 
L 252.175385 255.522507 
L 253.070234 271.455522 
L 253.611608 278.421694 
L 254.065486 283.444792 
L 254.372839 286.820672 
L 254.698951 296.713286 
L 254.998414 297.417034 
L 255.601423 298.177058 
L 256.513482 298.9619 
L 257.944559 299.752148 
L 259.918238 300.554467 
L 261.98144 301.168189 
L 265.198986 301.76637 
L 267.503832 301.981055 
L 270.876619 302.068678 
L 276.538199 301.9703 
L 288.32496 301.482045 
L 301.502233 300.972238 
L 309.73374 300.875579 
L 312.974954 301.026581 
L 314.604349 301.35477 
L 316.18529 301.939236 
L 317.10056 302.485266 
L 317.988759 303.379241 
L 318.300459 303.932523 
L 318.654541 305.317726 
L 319.156551 310.392165 
L 319.16267 312.595627 
L 319.082513 316.308825 
L 319.737682 321.019716 
L 319.803987 324.987405 
L 319.879786 330.687044 
L 320.17825 337.458722 
L 320.520296 350.084763 
L 320.74518 361.35465 
L 320.913492 369.558948 
L 320.932922 371.625861 
L 321.177666 372.08661 
L 321.817332 372.626923 
L 322.926149 373.150792 
L 324.470049 373.595344 
L 325.900474 373.805226 
L 327.674909 373.86037 
L 330.465675 373.799476 
L 336.00269 373.575685 
L 346.934827 373.16668 
L 361.765171 372.549957 
L 375.320422 372.263665 
L 385.464937 372.814549 
L 389.858413 372.792541 
L 407.29481 372.737459 
L 417.744062 372.780671 
L 429.731866 372.713534 
L 437.427925 372.838474 
L 450.325265 372.575983 
L 461.244375 371.511864 
L 469.656873 371.313666 
L 497.261084 370.839873 
L 499.089237 371.056492 
L 500.517434 371.458883 
L 501.696666 372.014528 
L 503.95037 373.150421 
L 504.879721 373.372234 
L 505.906308 373.367597 
L 508.303117 372.698388 
L 511.118413 371.66079 
L 513.2447 371.195218 
L 515.38649 370.901322 
L 519.266259 370.58987 
L 525.5255 370.234524 
L 533.677291 370.191559 
L 545.157626 370.113912 
L 569.409167 369.804623 
L 570.948361 370.106803 
L 572.278953 370.595495 
L 573.15207 371.106196 
L 574.198656 371.901396 
L 575.0049 372.809542 
L 576.445481 374.895248 
L 576.952949 376.00833 
L 577.320525 377.248391 
L 577.574076 379.084465 
L 577.645811 381.627768 
L 577.794511 393.297536 
L 578.302989 400.93029 
L 578.699185 407.339179 
L 579.454793 424.229086 
L 579.874931 435.090054 
L 581.176719 461.964435 
L 582.05479 479.257969 
L 582.311735 484.694666 
L 582.63161 498.05016 
L 582.593082 504.509001 
L 582.701143 508.248596 
L 583.018816 510.687175 
L 583.46519 512.457658 
L 584.4072 514.750525 
L 585.333615 516.421909 
L 586.833914 518.577782 
L 588.563546 520.678696 
L 593.927285 526.806611 
L 595.319706 528.880942 
L 596.156314 530.487105 
L 596.790925 532.133019 
L 597.333711 534.361779 
L 597.522682 536.099373 
L 597.614415 538.456967 
L 597.507362 540.86921 
L 597.065391 544.642312 
L 595.627104 553.61676 
L 595.066889 555.910864 
L 594.448973 557.391902 
L 593.970583 558.294113 
L 592.742274 559.752772 
L 590.832386 561.219283 
L 587.890131 562.394556 
L 586.794835 562.663352 
L 585.094741 562.958361 
L 582.720683 563.120578 
L 577.275851 563.169664 
L 562.169939 563.152725 
L 555.044277 563.360999 
L 549.912073 563.474811 
L 544.066641 563.366439 
L 537.83226 563.097519 
L 535.497922 562.819821 
L 531.69264 562.051204 
L 528.792124 561.255015 
L 525.327631 559.99647 
L 520.754174 558.059195 
L 516.451147 555.984492 
L 507.128563 551.277403 
L 501.368902 548.759137 
L 495.571081 546.363091 
L 486.194466 542.786702 
L 475.054095 538.431188 
L 471.309082 536.874666 
L 458.816011 531.819898 
L 434.452279 521.723899 
L 426.056111 518.114374 
L 418.353263 514.930485 
L 409.740145 511.449733 
L 399.496926 507.431141 
L 392.33347 504.605317 
L 371.424783 495.762115 
L 364.481579 492.564872 
L 356.343273 488.884563 
L 349.455292 485.955684 
L 323.046173 475.000131 
L 291.713626 461.783485 
L 288.693783 460.990697 
L 285.601461 460.458854 
L 282.516405 460.196363 
L 278.090208 460.081376 
L 274.083167 460.064994 
L 271.562675 459.788965 
L 269.799441 459.440914 
L 267.645973 458.744071 
L 266.26102 458.071895 
L 265.059882 457.287081 
L 264.03589 456.347963 
L 263.279732 455.360069 
L 262.789665 454.37712 
L 262.493193 453.206792 
L 262.537151 452.251477 
L 262.957033 451.178703 
L 263.996711 450.119158 
L 265.319708 449.460396 
L 267.896295 448.799162 
L 269.22919 448.625941 
L 271.705191 448.41235 
L 279.774055 448.10164 
L 290.513873 447.8823 
L 298.450476 447.677797 
L 309.360083 447.266937 
L 377.337638 445.298628 
L 406.680747 444.659464 
L 430.529579 444.122984 
L 439.870417 443.894618 
L 447.531618 443.43121 
L 486.654601 441.862201 
L 495.732164 441.674142 
L 503.813779 441.805079 
L 505.405903 441.588459 
L 507.082697 441.13012 
L 508.36045 440.561061 
L 509.405476 439.949407 
L 511.057318 438.452914 
L 511.43526 437.904379 
L 511.817054 437.329632 
L 512.292508 435.546476 
L 512.327366 433.398207 
L 511.809807 421.390156 
L 511.062364 404.859118 
L 510.775238 396.062405 
L 510.304004 385.295961 
L 509.828183 381.08795 
L 509.088262 376.990846 
L 507.351475 367.771094 
L 507.013713 364.454828 
L 506.76695 359.006496 
L 505.022274 314.616978 
L 504.973105 310.442836 
L 505.202897 308.149141 
L 505.807145 305.385892 
L 506.471844 303.20659 
L 507.233965 301.394029 
L 507.908847 300.328724 
L 508.727842 299.5641 
L 509.601694 299.047137 
L 510.878897 298.37638 
L 512.629444 297.768621 
L 514.981487 297.254261 
L 518.442219 296.798562 
L 521.814244 296.58797 
L 524.814291 296.470455 
L 524.814291 296.470455 
" clip-path="url(#pa6f33938e0)" style="fill: none; stroke-dasharray: 10.175,4.4; stroke-dashoffset: 0; stroke: #808a87; stroke-width: 2.75"/>
   </g>
   <g id="line2d_35">
    <path d="M 239.386667 305.006897 
L 239.386654 305.007098 
L 250.361629 305.070257 
L 252.004458 305.101883 
L 253.462462 304.942966 
L 255.01141 304.48365 
L 256.059556 303.944093 
L 257.089915 303.164544 
L 257.959206 302.155684 
L 258.568677 300.873953 
L 258.755826 300.162333 
L 258.836281 298.55236 
L 258.087964 284.982574 
L 257.390611 279.687468 
L 256.457406 272.863923 
L 256.102401 268.661869 
L 255.925022 262.954569 
L 255.847886 254.219341 
L 255.696254 227.770677 
L 255.535756 212.345129 
L 255.625798 180.486995 
L 255.618747 174.443158 
L 255.850512 167.955061 
L 256.220504 158.08672 
L 256.237922 150.466539 
L 256.057978 138.106297 
L 255.949432 127.474754 
L 255.875163 96.786388 
L 255.949162 78.418731 
L 256.216453 76.567902 
L 256.771488 74.997463 
L 257.656958 73.634117 
L 258.898071 72.45068 
L 260.459608 71.443641 
L 262.330435 70.618548 
L 264.543654 69.949213 
L 267.074338 69.450467 
L 269.920764 69.084482 
L 273.051006 68.845391 
L 280.006931 68.635033 
L 294.837084 68.523591 
L 305.065443 68.621091 
L 309.595295 68.806225 
L 312.364063 69.100462 
L 314.870108 69.591548 
L 317.105541 70.267429 
L 319.051095 71.109483 
L 320.652104 72.19044 
L 321.873642 73.422439 
L 322.78945 74.836496 
L 323.415966 76.39039 
L 323.792566 78.092667 
L 324.060259 80.881012 
L 324.105611 83.940333 
L 323.929671 87.190692 
L 323.33959 95.007647 
L 323.359823 100.493177 
L 323.379398 105.926711 
L 323.301398 113.487332 
L 323.653173 125.088239 
L 323.894908 130.734169 
L 323.767868 135.448072 
L 323.426905 141.121867 
L 323.045378 145.485538 
L 322.971766 148.75482 
L 323.15572 152.063976 
L 323.794778 159.898241 
L 323.774356 162.091085 
L 323.463942 165.33487 
L 322.328152 174.20353 
L 322.440936 175.250725 
L 322.799234 176.248935 
L 323.364897 177.118184 
L 324.155722 177.910847 
L 325.150153 178.642222 
L 326.570888 179.314688 
L 328.354968 179.89221 
L 330.568986 180.3884 
L 333.124329 180.683165 
L 337.568187 180.857064 
L 347.915874 180.90522 
L 369.460617 181.435501 
L 372.887305 181.352801 
L 375.777306 181.021323 
L 377.520093 180.574921 
L 379.132467 179.942291 
L 380.599213 179.112226 
L 381.927845 178.035524 
L 382.938373 176.704789 
L 383.638369 175.109917 
L 384.043734 173.354391 
L 384.51287 169.426632 
L 385.61385 160.102251 
L 385.794794 156.117591 
L 385.733233 152.121688 
L 385.2868 145.844977 
L 384.97932 140.541562 
L 384.971873 136.447074 
L 385.220369 125.003926 
L 385.372632 111.120287 
L 385.692879 92.843263 
L 385.570584 81.089314 
L 385.779117 78.376848 
L 386.101799 76.85531 
L 386.570138 75.547487 
L 387.198579 74.430798 
L 388.07525 73.438249 
L 389.171848 72.56565 
L 390.541787 71.800419 
L 392.327211 71.041452 
L 394.510286 70.519972 
L 397.057687 70.197266 
L 399.909264 70.058996 
L 404.669358 70.066995 
L 434.947391 70.545705 
L 437.400603 70.806285 
L 439.717214 71.333708 
L 441.777868 72.146934 
L 443.520614 73.196007 
L 444.97472 74.546995 
L 446.066293 76.094191 
L 446.842308 77.844954 
L 447.349448 79.791302 
L 447.822252 83.023399 
L 448.238507 88.975602 
L 448.321441 92.770741 
L 448.173573 99.158376 
L 447.898314 102.963948 
L 447.2207 108.003859 
L 446.72312 111.756511 
L 446.463763 115.521144 
L 446.446532 119.303454 
L 446.847837 138.797309 
L 446.260101 163.892975 
L 446.207484 168.401671 
L 445.967499 172.977737 
L 445.635901 174.749385 
L 445.060286 176.234049 
L 444.360416 177.406346 
L 443.4367 178.385001 
L 442.63903 178.964513 
L 441.573814 179.4759 
L 440.230904 179.911775 
L 438.582697 180.231235 
L 436.655521 180.422623 
L 433.138186 180.420426 
L 422.65625 180.108124 
L 407.23028 179.941621 
L 399.302547 179.973608 
L 384.456503 180.316454 
L 379.618737 180.59473 
L 373.371867 180.858083 
L 368.900329 180.747556 
L 349.412518 179.867345 
L 336.393652 179.90553 
L 321.740142 180.197512 
L 315.000571 180.643773 
L 310.997239 180.654526 
L 306.748546 180.3448 
L 300.607469 179.789399 
L 293.888222 179.522311 
L 267.828376 179.169739 
L 264.563952 179.350893 
L 263.067569 179.566325 
L 261.366786 180.096644 
L 260.047514 180.768931 
L 259.138073 181.438926 
L 258.249598 182.318269 
L 257.011526 184.097726 
L 256.18896 185.55328 
L 255.602351 187.093091 
L 255.315337 188.564152 
L 255.184938 190.752214 
L 255.205916 192.968292 
L 255.44309 197.246905 
L 255.976854 203.535945 
L 256.9717 210.933185 
L 257.117996 213.538292 
L 257.055347 216.167351 
L 256.370673 227.179307 
L 255.959575 239.250986 
L 255.723764 253.375193 
L 255.829618 267.134916 
L 256.168041 281.517272 
L 256.399525 290.743208 
L 256.291745 294.223652 
L 256.198687 298.29417 
L 256.418308 299.417901 
L 257.016114 300.392172 
L 257.661556 301.068326 
L 258.592605 301.717835 
L 259.926178 302.388782 
L 261.660098 303.041847 
L 263.842138 303.628812 
L 266.529474 304.128558 
L 269.616793 304.462384 
L 273.099276 304.562344 
L 280.837246 304.471116 
L 300.110897 304.211744 
L 313.265839 304.198411 
L 315.125071 304.377803 
L 316.585391 304.724773 
L 317.754678 305.189107 
L 318.618079 305.700449 
L 319.658834 306.696816 
L 320.051867 307.519689 
L 320.286226 308.412975 
L 320.422182 309.851913 
L 320.637497 314.008401 
L 320.506258 316.033487 
L 320.350306 317.81523 
L 320.439308 319.170269 
L 320.79256 322.263242 
L 320.855976 325.723384 
L 320.773972 333.682029 
L 320.845862 340.498994 
L 320.849292 360.615657 
L 320.833867 365.587673 
L 320.808063 369.467394 
L 320.713797 374.047644 
L 320.890542 374.837066 
L 321.523427 375.516682 
L 322.041072 375.873258 
L 323.553638 376.526235 
L 325.114662 376.91902 
L 327.152193 377.099583 
L 332.043576 377.243051 
L 343.630292 377.322133 
L 364.86348 377.085179 
L 378.169013 377.164384 
L 386.534668 377.397367 
L 400.203335 377.505611 
L 423.436479 377.574454 
L 429.972647 377.634934 
L 436.337123 377.748311 
L 451.164676 377.507687 
L 458.86113 376.85429 
L 463.218492 376.749337 
L 496.53151 376.764562 
L 498.51662 376.964105 
L 500.503859 377.424341 
L 501.758249 377.949056 
L 504.493452 379.329853 
L 505.229436 379.505822 
L 506.641661 379.503851 
L 508.106292 379.133555 
L 511.56141 378.025992 
L 514.746405 377.549787 
L 519.074344 377.265926 
L 524.583551 377.036207 
L 530.967651 377.058733 
L 545.052111 377.256568 
L 557.184326 377.266478 
L 567.312981 377.255196 
L 569.597972 377.447442 
L 571.474407 377.834557 
L 573.066891 378.480413 
L 574.365373 379.371778 
L 575.208968 380.233585 
L 576.46865 381.915675 
L 577.209532 383.34092 
L 577.689391 384.973283 
L 577.913181 386.836337 
L 577.838547 391.043947 
L 577.513079 401.087753 
L 577.448999 413.731365 
L 577.344803 424.014139 
L 577.033893 462.641024 
L 576.823764 475.301257 
L 576.827207 486.33116 
L 576.74521 494.498838 
L 576.298861 516.721119 
L 576.579313 519.144857 
L 577.189432 521.513543 
L 578.138175 523.788804 
L 579.426943 525.994921 
L 580.958594 528.13942 
L 586.758359 535.494097 
L 587.987863 537.627126 
L 588.871238 539.84777 
L 589.438525 542.084581 
L 589.668726 544.393141 
L 589.621051 546.748093 
L 589.182848 550.393529 
L 588.490397 554.162878 
L 587.206612 560.5627 
L 586.589215 562.980325 
L 585.846597 565.090922 
L 584.802923 566.82712 
L 583.543577 568.19322 
L 581.950506 569.305268 
L 580.053495 570.146228 
L 577.917212 570.740324 
L 575.593393 571.078632 
L 573.105635 571.168152 
L 567.001819 571.065067 
L 548.172102 570.680348 
L 539.144174 570.686197 
L 533.085905 570.391922 
L 528.373878 569.996053 
L 525.282693 569.580073 
L 522.259451 568.944622 
L 519.34427 568.128094 
L 516.55652 567.106151 
L 512.617401 565.420194 
L 507.665682 563.005399 
L 499.128755 558.513437 
L 494.045208 556.216744 
L 485.133822 552.385363 
L 466.811413 544.844288 
L 455.821946 539.770211 
L 440.591113 532.704922 
L 434.626221 530.014605 
L 423.762072 524.714152 
L 412.224201 519.23698 
L 393.796853 510.998668 
L 381.501583 505.473859 
L 366.289143 498.581497 
L 358.705634 494.999584 
L 345.706203 488.847304 
L 289.784714 462.890454 
L 286.889972 461.826562 
L 283.859042 461.019985 
L 280.778807 460.472696 
L 277.725229 460.161386 
L 268.042365 459.59041 
L 265.645452 459.107851 
L 263.507352 458.377853 
L 261.69224 457.397793 
L 260.202226 456.236211 
L 259.601037 455.593545 
L 258.773042 454.240245 
L 258.388004 453.032885 
L 258.333097 452.015253 
L 258.551975 451.146541 
L 259.045447 450.344125 
L 259.77555 449.692761 
L 260.744196 449.161904 
L 262.032831 448.716908 
L 264.405085 448.282335 
L 268.419491 448.070232 
L 276.064421 448.004361 
L 290.355797 448.162846 
L 295.699159 448.180288 
L 306.710165 448.175515 
L 327.064716 448.184287 
L 400.521412 448.143272 
L 433.052312 448.235518 
L 453.837213 448.363186 
L 472.435973 448.353809 
L 488.887672 448.391353 
L 493.020375 448.61803 
L 497.287061 448.953084 
L 500.030943 448.913984 
L 501.821294 448.61587 
L 502.890471 448.305644 
L 504.524863 447.592795 
L 505.619823 446.909651 
L 506.590066 446.048429 
L 507.435677 444.954973 
L 507.997533 443.611352 
L 508.259088 441.991936 
L 508.365496 438.081704 
L 508.795468 421.530011 
L 508.858568 404.952216 
L 508.903556 391.927752 
L 508.628479 387.729207 
L 507.897955 382.286947 
L 506.845295 374.343371 
L 506.678782 370.307198 
L 506.9234 350.623148 
L 507.13059 333.458662 
L 507.548776 318.004631 
L 507.867273 315.661297 
L 508.393351 313.551697 
L 509.453598 310.396807 
L 510.156211 308.846865 
L 510.673135 307.968624 
L 511.252039 307.269009 
L 512.069291 306.605669 
L 514.333622 305.476179 
L 515.821797 305.005031 
L 517.670321 304.609246 
L 521.045177 304.181286 
L 525.050952 303.991688 
L 526.523058 303.9634 
L 526.523058 303.9634 
" clip-path="url(#pa6f33938e0)" style="fill: none; stroke: #00ff00; stroke-width: 2; stroke-linecap: square"/>
   </g>
   <g id="patch_3">
    <path d="M 97.2 583.2 
L 97.2 45.36 
" style="fill: none; stroke: #000000; stroke-width: 3; stroke-linejoin: miter; stroke-linecap: square"/>
   </g>
   <g id="patch_4">
    <path d="M 716.4 583.2 
L 716.4 45.36 
" style="fill: none; stroke: #000000; stroke-width: 3; stroke-linejoin: miter; stroke-linecap: square"/>
   </g>
   <g id="patch_5">
    <path d="M 97.2 583.2 
L 716.4 583.2 
" style="fill: none; stroke: #000000; stroke-width: 3; stroke-linejoin: miter; stroke-linecap: square"/>
   </g>
   <g id="patch_6">
    <path d="M 97.2 45.36 
L 716.4 45.36 
" style="fill: none; stroke: #000000; stroke-width: 3; stroke-linejoin: miter; stroke-linecap: square"/>
   </g>
   <g id="PathCollection_1">
    <defs>
     <path id="me6a2b4ec18" d="M 0 -8.660254 
L -1.944348 -2.676166 
L -8.236391 -2.676166 
L -3.146021 1.022204 
L -5.09037 7.006293 
L -0 3.307923 
L 5.09037 7.006293 
L 3.146021 1.022204 
L 8.236391 -2.676166 
L 1.944348 -2.676166 
z
" style="stroke: #ff0000"/>
    </defs>
    <g clip-path="url(#pa6f33938e0)">
     <use xlink:href="#me6a2b4ec18" x="239.386667" y="305.006897" style="fill: #ff0000; stroke: #ff0000"/>
    </g>
   </g>
   <g id="legend_1">
    <g id="patch_7">
     <path d="M 551.849063 136.110937 
L 703.8 136.110937 
Q 707.4 136.110937 707.4 132.510937 
L 707.4 57.96 
Q 707.4 54.36 703.8 54.36 
L 551.849063 54.36 
Q 548.249063 54.36 548.249063 57.96 
L 548.249063 132.510937 
Q 548.249063 136.110937 551.849063 136.110937 
z
" style="fill: #ffffff; opacity: 0.8; stroke: #cccccc; stroke-linejoin: miter"/>
    </g>
    <g id="line2d_36">
     <defs>
      <path id="m941027ab71" d="M 0 -6 
L -1.347084 -1.854102 
L -5.706339 -1.854102 
L -2.179628 0.708204 
L -3.526712 4.854102 
L -0 2.291796 
L 3.526712 4.854102 
L 2.179628 0.708204 
L 5.706339 -1.854102 
L 1.347084 -1.854102 
z
" style="stroke: #ff0000; stroke-linejoin: bevel"/>
     </defs>
     <g>
      <use xlink:href="#m941027ab71" x="573.449063" y="67.86" style="fill: #ff0000; stroke: #ff0000; stroke-linejoin: bevel"/>
     </g>
    </g>
    <g id="text_19">
     <!-- Start -->
     <g transform="translate(605.849063 74.16) scale(0.18 -0.18)">
      <defs>
       <path id="TimesNewRomanPSMT-53" d="M 2934 4334 
L 2934 2869 
L 2819 2869 
Q 2763 3291 2617 3541 
Q 2472 3791 2203 3937 
Q 1934 4084 1647 4084 
Q 1322 4084 1109 3886 
Q 897 3688 897 3434 
Q 897 3241 1031 3081 
Q 1225 2847 1953 2456 
Q 2547 2138 2764 1967 
Q 2981 1797 3098 1565 
Q 3216 1334 3216 1081 
Q 3216 600 2842 251 
Q 2469 -97 1881 -97 
Q 1697 -97 1534 -69 
Q 1438 -53 1133 45 
Q 828 144 747 144 
Q 669 144 623 97 
Q 578 50 556 -97 
L 441 -97 
L 441 1356 
L 556 1356 
Q 638 900 775 673 
Q 913 447 1195 297 
Q 1478 147 1816 147 
Q 2206 147 2432 353 
Q 2659 559 2659 841 
Q 2659 997 2573 1156 
Q 2488 1316 2306 1453 
Q 2184 1547 1640 1851 
Q 1097 2156 867 2337 
Q 638 2519 519 2737 
Q 400 2956 400 3219 
Q 400 3675 750 4004 
Q 1100 4334 1641 4334 
Q 1978 4334 2356 4169 
Q 2531 4091 2603 4091 
Q 2684 4091 2736 4139 
Q 2788 4188 2819 4334 
L 2934 4334 
z
" transform="scale(0.015625)"/>
       <path id="TimesNewRomanPSMT-74" d="M 1031 3803 
L 1031 2863 
L 1700 2863 
L 1700 2644 
L 1031 2644 
L 1031 788 
Q 1031 509 1111 412 
Q 1191 316 1316 316 
Q 1419 316 1516 380 
Q 1613 444 1666 569 
L 1788 569 
Q 1678 263 1478 108 
Q 1278 -47 1066 -47 
Q 922 -47 784 33 
Q 647 113 581 261 
Q 516 409 516 719 
L 516 2644 
L 63 2644 
L 63 2747 
Q 234 2816 414 2980 
Q 594 3144 734 3369 
Q 806 3488 934 3803 
L 1031 3803 
z
" transform="scale(0.015625)"/>
       <path id="TimesNewRomanPSMT-61" d="M 1822 413 
Q 1381 72 1269 19 
Q 1100 -59 909 -59 
Q 613 -59 420 144 
Q 228 347 228 678 
Q 228 888 322 1041 
Q 450 1253 767 1440 
Q 1084 1628 1822 1897 
L 1822 2009 
Q 1822 2438 1686 2597 
Q 1550 2756 1291 2756 
Q 1094 2756 978 2650 
Q 859 2544 859 2406 
L 866 2225 
Q 866 2081 792 2003 
Q 719 1925 600 1925 
Q 484 1925 411 2006 
Q 338 2088 338 2228 
Q 338 2497 613 2722 
Q 888 2947 1384 2947 
Q 1766 2947 2009 2819 
Q 2194 2722 2281 2516 
Q 2338 2381 2338 1966 
L 2338 994 
Q 2338 584 2353 492 
Q 2369 400 2405 369 
Q 2441 338 2488 338 
Q 2538 338 2575 359 
Q 2641 400 2828 588 
L 2828 413 
Q 2478 -56 2159 -56 
Q 2006 -56 1915 50 
Q 1825 156 1822 413 
z
M 1822 616 
L 1822 1706 
Q 1350 1519 1213 1441 
Q 966 1303 859 1153 
Q 753 1003 753 825 
Q 753 600 887 451 
Q 1022 303 1197 303 
Q 1434 303 1822 616 
z
" transform="scale(0.015625)"/>
       <path id="TimesNewRomanPSMT-72" d="M 1038 2947 
L 1038 2303 
Q 1397 2947 1775 2947 
Q 1947 2947 2059 2842 
Q 2172 2738 2172 2600 
Q 2172 2478 2090 2393 
Q 2009 2309 1897 2309 
Q 1788 2309 1652 2417 
Q 1516 2525 1450 2525 
Q 1394 2525 1328 2463 
Q 1188 2334 1038 2041 
L 1038 669 
Q 1038 431 1097 309 
Q 1138 225 1241 169 
Q 1344 113 1538 113 
L 1538 0 
L 72 0 
L 72 113 
Q 291 113 397 181 
Q 475 231 506 341 
Q 522 394 522 644 
L 522 1753 
Q 522 2253 501 2348 
Q 481 2444 426 2487 
Q 372 2531 291 2531 
Q 194 2531 72 2484 
L 41 2597 
L 906 2947 
L 1038 2947 
z
" transform="scale(0.015625)"/>
      </defs>
      <use xlink:href="#TimesNewRomanPSMT-53"/>
      <use xlink:href="#TimesNewRomanPSMT-74" x="55.615234"/>
      <use xlink:href="#TimesNewRomanPSMT-61" x="83.398438"/>
      <use xlink:href="#TimesNewRomanPSMT-72" x="127.783203"/>
      <use xlink:href="#TimesNewRomanPSMT-74" x="161.083984"/>
     </g>
    </g>
    <g id="line2d_37">
     <path d="M 555.449063 93.310312 
L 573.449063 93.310312 
L 591.449063 93.310312 
" style="fill: none; stroke-dasharray: 10.175,4.4; stroke-dashoffset: 0; stroke: #808a87; stroke-width: 2.75"/>
    </g>
    <g id="text_20">
     <!-- GroundTruth -->
     <g transform="translate(605.849063 99.610312) scale(0.18 -0.18)">
      <defs>
       <path id="TimesNewRomanPSMT-47" d="M 3928 4334 
L 4038 2997 
L 3928 2997 
Q 3763 3497 3500 3750 
Q 3122 4116 2528 4116 
Q 1719 4116 1297 3475 
Q 944 2934 944 2188 
Q 944 1581 1178 1081 
Q 1413 581 1792 348 
Q 2172 116 2572 116 
Q 2806 116 3025 175 
Q 3244 234 3447 350 
L 3447 1575 
Q 3447 1894 3398 1992 
Q 3350 2091 3248 2142 
Q 3147 2194 2891 2194 
L 2891 2313 
L 4531 2313 
L 4531 2194 
L 4453 2194 
Q 4209 2194 4119 2031 
Q 4056 1916 4056 1575 
L 4056 278 
Q 3697 84 3347 -6 
Q 2997 -97 2569 -97 
Q 1341 -97 703 691 
Q 225 1281 225 2053 
Q 225 2613 494 3125 
Q 813 3734 1369 4063 
Q 1834 4334 2469 4334 
Q 2700 4334 2889 4296 
Q 3078 4259 3425 4131 
Q 3600 4066 3659 4066 
Q 3719 4066 3761 4120 
Q 3803 4175 3813 4334 
L 3928 4334 
z
" transform="scale(0.015625)"/>
       <path id="TimesNewRomanPSMT-6f" d="M 1600 2947 
Q 2250 2947 2644 2453 
Q 2978 2031 2978 1484 
Q 2978 1100 2793 706 
Q 2609 313 2286 112 
Q 1963 -88 1566 -88 
Q 919 -88 538 428 
Q 216 863 216 1403 
Q 216 1797 411 2186 
Q 606 2575 925 2761 
Q 1244 2947 1600 2947 
z
M 1503 2744 
Q 1338 2744 1170 2645 
Q 1003 2547 900 2300 
Q 797 2053 797 1666 
Q 797 1041 1045 587 
Q 1294 134 1700 134 
Q 2003 134 2200 384 
Q 2397 634 2397 1244 
Q 2397 2006 2069 2444 
Q 1847 2744 1503 2744 
z
" transform="scale(0.015625)"/>
       <path id="TimesNewRomanPSMT-75" d="M 2709 2863 
L 2709 1128 
Q 2709 631 2732 520 
Q 2756 409 2807 365 
Q 2859 322 2928 322 
Q 3025 322 3147 375 
L 3191 266 
L 2334 -88 
L 2194 -88 
L 2194 519 
Q 1825 119 1631 15 
Q 1438 -88 1222 -88 
Q 981 -88 804 51 
Q 628 191 559 409 
Q 491 628 491 1028 
L 491 2306 
Q 491 2509 447 2587 
Q 403 2666 317 2708 
Q 231 2750 6 2747 
L 6 2863 
L 1009 2863 
L 1009 947 
Q 1009 547 1148 422 
Q 1288 297 1484 297 
Q 1619 297 1789 381 
Q 1959 466 2194 703 
L 2194 2325 
Q 2194 2569 2105 2655 
Q 2016 2741 1734 2747 
L 1734 2863 
L 2709 2863 
z
" transform="scale(0.015625)"/>
       <path id="TimesNewRomanPSMT-6e" d="M 1034 2341 
Q 1538 2947 1994 2947 
Q 2228 2947 2397 2830 
Q 2566 2713 2666 2444 
Q 2734 2256 2734 1869 
L 2734 647 
Q 2734 375 2778 278 
Q 2813 200 2889 156 
Q 2966 113 3172 113 
L 3172 0 
L 1756 0 
L 1756 113 
L 1816 113 
Q 2016 113 2095 173 
Q 2175 234 2206 353 
Q 2219 400 2219 647 
L 2219 1819 
Q 2219 2209 2117 2386 
Q 2016 2563 1775 2563 
Q 1403 2563 1034 2156 
L 1034 647 
Q 1034 356 1069 288 
Q 1113 197 1189 155 
Q 1266 113 1500 113 
L 1500 0 
L 84 0 
L 84 113 
L 147 113 
Q 366 113 442 223 
Q 519 334 519 647 
L 519 1709 
Q 519 2225 495 2337 
Q 472 2450 423 2490 
Q 375 2531 294 2531 
Q 206 2531 84 2484 
L 38 2597 
L 900 2947 
L 1034 2947 
L 1034 2341 
z
" transform="scale(0.015625)"/>
       <path id="TimesNewRomanPSMT-64" d="M 2222 322 
Q 2013 103 1813 7 
Q 1613 -88 1381 -88 
Q 913 -88 563 304 
Q 213 697 213 1313 
Q 213 1928 600 2439 
Q 988 2950 1597 2950 
Q 1975 2950 2222 2709 
L 2222 3238 
Q 2222 3728 2198 3840 
Q 2175 3953 2125 3993 
Q 2075 4034 2000 4034 
Q 1919 4034 1784 3984 
L 1744 4094 
L 2597 4444 
L 2738 4444 
L 2738 1134 
Q 2738 631 2761 520 
Q 2784 409 2836 365 
Q 2888 322 2956 322 
Q 3041 322 3181 375 
L 3216 266 
L 2366 -88 
L 2222 -88 
L 2222 322 
z
M 2222 541 
L 2222 2016 
Q 2203 2228 2109 2403 
Q 2016 2578 1861 2667 
Q 1706 2756 1559 2756 
Q 1284 2756 1069 2509 
Q 784 2184 784 1559 
Q 784 928 1059 592 
Q 1334 256 1672 256 
Q 1956 256 2222 541 
z
" transform="scale(0.015625)"/>
       <path id="TimesNewRomanPSMT-54" d="M 3703 4238 
L 3750 3244 
L 3631 3244 
Q 3597 3506 3538 3619 
Q 3441 3800 3280 3886 
Q 3119 3972 2856 3972 
L 2259 3972 
L 2259 734 
Q 2259 344 2344 247 
Q 2463 116 2709 116 
L 2856 116 
L 2856 0 
L 1059 0 
L 1059 116 
L 1209 116 
Q 1478 116 1591 278 
Q 1659 378 1659 734 
L 1659 3972 
L 1150 3972 
Q 853 3972 728 3928 
Q 566 3869 450 3700 
Q 334 3531 313 3244 
L 194 3244 
L 244 4238 
L 3703 4238 
z
" transform="scale(0.015625)"/>
       <path id="TimesNewRomanPSMT-68" d="M 1041 4444 
L 1041 2350 
Q 1388 2731 1591 2839 
Q 1794 2947 1997 2947 
Q 2241 2947 2416 2812 
Q 2591 2678 2675 2391 
Q 2734 2191 2734 1659 
L 2734 647 
Q 2734 375 2778 275 
Q 2809 200 2884 156 
Q 2959 113 3159 113 
L 3159 0 
L 1753 0 
L 1753 113 
L 1819 113 
Q 2019 113 2097 173 
Q 2175 234 2206 353 
Q 2216 403 2216 647 
L 2216 1659 
Q 2216 2128 2167 2275 
Q 2119 2422 2012 2495 
Q 1906 2569 1756 2569 
Q 1603 2569 1437 2487 
Q 1272 2406 1041 2159 
L 1041 647 
Q 1041 353 1073 281 
Q 1106 209 1195 161 
Q 1284 113 1503 113 
L 1503 0 
L 84 0 
L 84 113 
Q 275 113 384 172 
Q 447 203 484 290 
Q 522 378 522 647 
L 522 3238 
Q 522 3728 498 3840 
Q 475 3953 426 3993 
Q 378 4034 297 4034 
Q 231 4034 84 3984 
L 41 4094 
L 897 4444 
L 1041 4444 
z
" transform="scale(0.015625)"/>
      </defs>
      <use xlink:href="#TimesNewRomanPSMT-47"/>
      <use xlink:href="#TimesNewRomanPSMT-72" x="72.216797"/>
      <use xlink:href="#TimesNewRomanPSMT-6f" x="105.517578"/>
      <use xlink:href="#TimesNewRomanPSMT-75" x="155.517578"/>
      <use xlink:href="#TimesNewRomanPSMT-6e" x="205.517578"/>
      <use xlink:href="#TimesNewRomanPSMT-64" x="255.517578"/>
      <use xlink:href="#TimesNewRomanPSMT-54" x="305.517578"/>
      <use xlink:href="#TimesNewRomanPSMT-72" x="363.101562"/>
      <use xlink:href="#TimesNewRomanPSMT-75" x="396.402344"/>
      <use xlink:href="#TimesNewRomanPSMT-74" x="446.402344"/>
      <use xlink:href="#TimesNewRomanPSMT-68" x="474.185547"/>
     </g>
    </g>
    <g id="line2d_38">
     <path d="M 555.449063 118.760625 
L 573.449063 118.760625 
L 591.449063 118.760625 
" style="fill: none; stroke: #00ff00; stroke-width: 2; stroke-linecap: square"/>
    </g>
    <g id="text_21">
     <!-- ROLO -->
     <g transform="translate(605.849063 125.060625) scale(0.18 -0.18)">
      <defs>
       <path id="TimesNewRomanPSMT-52" d="M 4325 0 
L 3194 0 
L 1759 1981 
Q 1600 1975 1500 1975 
Q 1459 1975 1412 1976 
Q 1366 1978 1316 1981 
L 1316 750 
Q 1316 350 1403 253 
Q 1522 116 1759 116 
L 1925 116 
L 1925 0 
L 109 0 
L 109 116 
L 269 116 
Q 538 116 653 291 
Q 719 388 719 750 
L 719 3488 
Q 719 3888 631 3984 
Q 509 4122 269 4122 
L 109 4122 
L 109 4238 
L 1653 4238 
Q 2328 4238 2648 4139 
Q 2969 4041 3192 3777 
Q 3416 3513 3416 3147 
Q 3416 2756 3161 2468 
Q 2906 2181 2372 2063 
L 3247 847 
Q 3547 428 3762 290 
Q 3978 153 4325 116 
L 4325 0 
z
M 1316 2178 
Q 1375 2178 1419 2176 
Q 1463 2175 1491 2175 
Q 2097 2175 2405 2437 
Q 2713 2700 2713 3106 
Q 2713 3503 2464 3751 
Q 2216 4000 1806 4000 
Q 1625 4000 1316 3941 
L 1316 2178 
z
" transform="scale(0.015625)"/>
       <path id="TimesNewRomanPSMT-4f" d="M 2341 4334 
Q 3166 4334 3770 3707 
Q 4375 3081 4375 2144 
Q 4375 1178 3765 540 
Q 3156 -97 2291 -97 
Q 1416 -97 820 525 
Q 225 1147 225 2134 
Q 225 3144 913 3781 
Q 1509 4334 2341 4334 
z
M 2281 4106 
Q 1713 4106 1369 3684 
Q 941 3159 941 2147 
Q 941 1109 1384 550 
Q 1725 125 2284 125 
Q 2881 125 3270 590 
Q 3659 1056 3659 2059 
Q 3659 3147 3231 3681 
Q 2888 4106 2281 4106 
z
" transform="scale(0.015625)"/>
       <path id="TimesNewRomanPSMT-4c" d="M 3669 1172 
L 3772 1150 
L 3409 0 
L 128 0 
L 128 116 
L 288 116 
Q 556 116 672 291 
Q 738 391 738 753 
L 738 3488 
Q 738 3884 650 3984 
Q 528 4122 288 4122 
L 128 4122 
L 128 4238 
L 2047 4238 
L 2047 4122 
Q 1709 4125 1573 4059 
Q 1438 3994 1388 3894 
Q 1338 3794 1338 3416 
L 1338 753 
Q 1338 494 1388 397 
Q 1425 331 1503 300 
Q 1581 269 1991 269 
L 2300 269 
Q 2788 269 2984 341 
Q 3181 413 3343 595 
Q 3506 778 3669 1172 
z
" transform="scale(0.015625)"/>
      </defs>
      <use xlink:href="#TimesNewRomanPSMT-52"/>
      <use xlink:href="#TimesNewRomanPSMT-4f" x="66.699219"/>
      <use xlink:href="#TimesNewRomanPSMT-4c" x="138.916016"/>
      <use xlink:href="#TimesNewRomanPSMT-4f" x="200"/>
     </g>
    </g>
   </g>
  </g>
 </g>
 <defs>
  <clipPath id="pa6f33938e0">
   <rect x="97.2" y="45.36" width="619.2" height="537.84"/>
  </clipPath>
 </defs>
</svg>
