<?xml version="1.0" encoding="utf-8" standalone="no"?>
<!DOCTYPE svg PUBLIC "-//W3C//DTD SVG 1.1//EN"
  "http://www.w3.org/Graphics/SVG/1.1/DTD/svg11.dtd">
<svg xmlns:xlink="http://www.w3.org/1999/xlink" width="720pt" height="648pt" viewBox="0 0 720 648" xmlns="http://www.w3.org/2000/svg" version="1.1">
 <metadata>
  <rdf:RDF xmlns:dc="http://purl.org/dc/elements/1.1/" xmlns:cc="http://creativecommons.org/ns#" xmlns:rdf="http://www.w3.org/1999/02/22-rdf-syntax-ns#">
   <cc:Work>
    <dc:type rdf:resource="http://purl.org/dc/dcmitype/StillImage"/>
    <dc:date>2024-08-06T14:19:41.893191</dc:date>
    <dc:format>image/svg+xml</dc:format>
    <dc:creator>
     <cc:Agent>
      <dc:title>Matplotlib v3.8.3, https://matplotlib.org/</dc:title>
     </cc:Agent>
    </dc:creator>
   </cc:Work>
  </rdf:RDF>
 </metadata>
 <defs>
  <style type="text/css">*{stroke-linejoin: round; stroke-linecap: butt}</style>
 </defs>
 <g id="figure_1">
  <g id="patch_1">
   <path d="M 0 648 
L 720 648 
L 720 0 
L 0 0 
z
" style="fill: #ffffff"/>
  </g>
  <g id="axes_1">
   <g id="patch_2">
    <path d="M 97.2 583.2 
L 716.4 583.2 
L 716.4 45.36 
L 97.2 45.36 
z
" style="fill: #ffffff"/>
   </g>
   <g id="matplotlib.axis_1">
    <g id="xtick_1">
     <g id="line2d_1">
      <path d="M 193.658291 583.2 
L 193.658291 45.36 
" clip-path="url(#p3d128f7f58)" style="fill: none; stroke-dasharray: 2.96,1.28; stroke-dashoffset: 0; stroke: #b0b0b0; stroke-width: 0.8"/>
     </g>
     <g id="line2d_2">
      <defs>
       <path id="m3023a18ce8" d="M 0 0 
L 0 -5 
" style="stroke: #000000; stroke-width: 0.8"/>
      </defs>
      <g>
       <use xlink:href="#m3023a18ce8" x="193.658291" y="583.2" style="stroke: #000000; stroke-width: 0.8"/>
      </g>
     </g>
     <g id="text_1">
      <!-- 0 -->
      <g transform="translate(187.295791 613.396875) scale(0.2 -0.2)">
       <defs>
        <path id="DejaVuSans-30" d="M 2034 4250 
Q 1547 4250 1301 3770 
Q 1056 3291 1056 2328 
Q 1056 1369 1301 889 
Q 1547 409 2034 409 
Q 2525 409 2770 889 
Q 3016 1369 3016 2328 
Q 3016 3291 2770 3770 
Q 2525 4250 2034 4250 
z
M 2034 4750 
Q 2819 4750 3233 4129 
Q 3647 3509 3647 2328 
Q 3647 1150 3233 529 
Q 2819 -91 2034 -91 
Q 1250 -91 836 529 
Q 422 1150 422 2328 
Q 422 3509 836 4129 
Q 1250 4750 2034 4750 
z
" transform="scale(0.015625)"/>
       </defs>
       <use xlink:href="#DejaVuSans-30"/>
      </g>
     </g>
    </g>
    <g id="xtick_2">
     <g id="line2d_3">
      <path d="M 318.120603 583.2 
L 318.120603 45.36 
" clip-path="url(#p3d128f7f58)" style="fill: none; stroke-dasharray: 2.96,1.28; stroke-dashoffset: 0; stroke: #b0b0b0; stroke-width: 0.8"/>
     </g>
     <g id="line2d_4">
      <g>
       <use xlink:href="#m3023a18ce8" x="318.120603" y="583.2" style="stroke: #000000; stroke-width: 0.8"/>
      </g>
     </g>
     <g id="text_2">
      <!-- 100 -->
      <g transform="translate(299.033103 613.396875) scale(0.2 -0.2)">
       <defs>
        <path id="DejaVuSans-31" d="M 794 531 
L 1825 531 
L 1825 4091 
L 703 3866 
L 703 4441 
L 1819 4666 
L 2450 4666 
L 2450 531 
L 3481 531 
L 3481 0 
L 794 0 
L 794 531 
z
" transform="scale(0.015625)"/>
       </defs>
       <use xlink:href="#DejaVuSans-31"/>
       <use xlink:href="#DejaVuSans-30" x="63.623047"/>
       <use xlink:href="#DejaVuSans-30" x="127.246094"/>
      </g>
     </g>
    </g>
    <g id="xtick_3">
     <g id="line2d_5">
      <path d="M 442.582915 583.2 
L 442.582915 45.36 
" clip-path="url(#p3d128f7f58)" style="fill: none; stroke-dasharray: 2.96,1.28; stroke-dashoffset: 0; stroke: #b0b0b0; stroke-width: 0.8"/>
     </g>
     <g id="line2d_6">
      <g>
       <use xlink:href="#m3023a18ce8" x="442.582915" y="583.2" style="stroke: #000000; stroke-width: 0.8"/>
      </g>
     </g>
     <g id="text_3">
      <!-- 200 -->
      <g transform="translate(423.495415 613.396875) scale(0.2 -0.2)">
       <defs>
        <path id="DejaVuSans-32" d="M 1228 531 
L 3431 531 
L 3431 0 
L 469 0 
L 469 531 
Q 828 903 1448 1529 
Q 2069 2156 2228 2338 
Q 2531 2678 2651 2914 
Q 2772 3150 2772 3378 
Q 2772 3750 2511 3984 
Q 2250 4219 1831 4219 
Q 1534 4219 1204 4116 
Q 875 4013 500 3803 
L 500 4441 
Q 881 4594 1212 4672 
Q 1544 4750 1819 4750 
Q 2544 4750 2975 4387 
Q 3406 4025 3406 3419 
Q 3406 3131 3298 2873 
Q 3191 2616 2906 2266 
Q 2828 2175 2409 1742 
Q 1991 1309 1228 531 
z
" transform="scale(0.015625)"/>
       </defs>
       <use xlink:href="#DejaVuSans-32"/>
       <use xlink:href="#DejaVuSans-30" x="63.623047"/>
       <use xlink:href="#DejaVuSans-30" x="127.246094"/>
      </g>
     </g>
    </g>
    <g id="xtick_4">
     <g id="line2d_7">
      <path d="M 567.045226 583.2 
L 567.045226 45.36 
" clip-path="url(#p3d128f7f58)" style="fill: none; stroke-dasharray: 2.96,1.28; stroke-dashoffset: 0; stroke: #b0b0b0; stroke-width: 0.8"/>
     </g>
     <g id="line2d_8">
      <g>
       <use xlink:href="#m3023a18ce8" x="567.045226" y="583.2" style="stroke: #000000; stroke-width: 0.8"/>
      </g>
     </g>
     <g id="text_4">
      <!-- 300 -->
      <g transform="translate(547.957726 613.396875) scale(0.2 -0.2)">
       <defs>
        <path id="DejaVuSans-33" d="M 2597 2516 
Q 3050 2419 3304 2112 
Q 3559 1806 3559 1356 
Q 3559 666 3084 287 
Q 2609 -91 1734 -91 
Q 1441 -91 1130 -33 
Q 819 25 488 141 
L 488 750 
Q 750 597 1062 519 
Q 1375 441 1716 441 
Q 2309 441 2620 675 
Q 2931 909 2931 1356 
Q 2931 1769 2642 2001 
Q 2353 2234 1838 2234 
L 1294 2234 
L 1294 2753 
L 1863 2753 
Q 2328 2753 2575 2939 
Q 2822 3125 2822 3475 
Q 2822 3834 2567 4026 
Q 2313 4219 1838 4219 
Q 1578 4219 1281 4162 
Q 984 4106 628 3988 
L 628 4550 
Q 988 4650 1302 4700 
Q 1616 4750 1894 4750 
Q 2613 4750 3031 4423 
Q 3450 4097 3450 3541 
Q 3450 3153 3228 2886 
Q 3006 2619 2597 2516 
z
" transform="scale(0.015625)"/>
       </defs>
       <use xlink:href="#DejaVuSans-33"/>
       <use xlink:href="#DejaVuSans-30" x="63.623047"/>
       <use xlink:href="#DejaVuSans-30" x="127.246094"/>
      </g>
     </g>
    </g>
    <g id="xtick_5">
     <g id="line2d_9">
      <path d="M 691.507538 583.2 
L 691.507538 45.36 
" clip-path="url(#p3d128f7f58)" style="fill: none; stroke-dasharray: 2.96,1.28; stroke-dashoffset: 0; stroke: #b0b0b0; stroke-width: 0.8"/>
     </g>
     <g id="line2d_10">
      <g>
       <use xlink:href="#m3023a18ce8" x="691.507538" y="583.2" style="stroke: #000000; stroke-width: 0.8"/>
      </g>
     </g>
     <g id="text_5">
      <!-- 400 -->
      <g transform="translate(672.420038 613.396875) scale(0.2 -0.2)">
       <defs>
        <path id="DejaVuSans-34" d="M 2419 4116 
L 825 1625 
L 2419 1625 
L 2419 4116 
z
M 2253 4666 
L 3047 4666 
L 3047 1625 
L 3713 1625 
L 3713 1100 
L 3047 1100 
L 3047 0 
L 2419 0 
L 2419 1100 
L 313 1100 
L 313 1709 
L 2253 4666 
z
" transform="scale(0.015625)"/>
       </defs>
       <use xlink:href="#DejaVuSans-34"/>
       <use xlink:href="#DejaVuSans-30" x="63.623047"/>
       <use xlink:href="#DejaVuSans-30" x="127.246094"/>
      </g>
     </g>
    </g>
    <g id="text_6">
     <!-- X (m) -->
     <g transform="translate(382.640625 635.44375) scale(0.2 -0.2)">
      <defs>
       <path id="TimesNewRomanPSMT-58" d="M 2613 2347 
L 3522 991 
Q 3900 428 4083 279 
Q 4266 131 4547 116 
L 4547 0 
L 2728 0 
L 2728 116 
Q 2909 119 2997 153 
Q 3063 181 3105 239 
Q 3147 297 3147 356 
Q 3147 428 3119 500 
Q 3097 553 2947 775 
L 2228 1863 
L 1341 725 
Q 1200 544 1172 483 
Q 1144 422 1144 356 
Q 1144 256 1228 190 
Q 1313 125 1550 116 
L 1550 0 
L 47 0 
L 47 116 
Q 206 131 322 181 
Q 516 263 691 400 
Q 866 538 1091 822 
L 2091 2084 
L 1256 3306 
Q 916 3803 678 3958 
Q 441 4113 131 4122 
L 131 4238 
L 2091 4238 
L 2091 4122 
Q 1841 4113 1748 4041 
Q 1656 3969 1656 3881 
Q 1656 3766 1806 3544 
L 2456 2572 
L 3209 3525 
Q 3341 3694 3370 3756 
Q 3400 3819 3400 3884 
Q 3400 3950 3363 4000 
Q 3316 4066 3244 4092 
Q 3172 4119 2947 4122 
L 2947 4238 
L 4450 4238 
L 4450 4122 
Q 4272 4113 4159 4066 
Q 3991 3994 3850 3872 
Q 3709 3750 3453 3422 
L 2613 2347 
z
" transform="scale(0.015625)"/>
       <path id="TimesNewRomanPSMT-20" transform="scale(0.015625)"/>
       <path id="TimesNewRomanPSMT-28" d="M 1988 -1253 
L 1988 -1369 
Q 1516 -1131 1200 -813 
Q 750 -359 506 256 
Q 263 872 263 1534 
Q 263 2503 741 3301 
Q 1219 4100 1988 4444 
L 1988 4313 
Q 1603 4100 1356 3731 
Q 1109 3363 987 2797 
Q 866 2231 866 1616 
Q 866 947 969 400 
Q 1050 -31 1165 -292 
Q 1281 -553 1476 -793 
Q 1672 -1034 1988 -1253 
z
" transform="scale(0.015625)"/>
       <path id="TimesNewRomanPSMT-6d" d="M 1050 2338 
Q 1363 2650 1419 2697 
Q 1559 2816 1721 2881 
Q 1884 2947 2044 2947 
Q 2313 2947 2506 2790 
Q 2700 2634 2766 2338 
Q 3088 2713 3309 2830 
Q 3531 2947 3766 2947 
Q 3994 2947 4170 2830 
Q 4347 2713 4450 2447 
Q 4519 2266 4519 1878 
L 4519 647 
Q 4519 378 4559 278 
Q 4591 209 4675 161 
Q 4759 113 4950 113 
L 4950 0 
L 3538 0 
L 3538 113 
L 3597 113 
Q 3781 113 3884 184 
Q 3956 234 3988 344 
Q 4000 397 4000 647 
L 4000 1878 
Q 4000 2228 3916 2372 
Q 3794 2572 3525 2572 
Q 3359 2572 3192 2489 
Q 3025 2406 2788 2181 
L 2781 2147 
L 2788 2013 
L 2788 647 
Q 2788 353 2820 281 
Q 2853 209 2943 161 
Q 3034 113 3253 113 
L 3253 0 
L 1806 0 
L 1806 113 
Q 2044 113 2133 169 
Q 2222 225 2256 338 
Q 2272 391 2272 647 
L 2272 1878 
Q 2272 2228 2169 2381 
Q 2031 2581 1784 2581 
Q 1616 2581 1450 2491 
Q 1191 2353 1050 2181 
L 1050 647 
Q 1050 366 1089 281 
Q 1128 197 1204 155 
Q 1281 113 1516 113 
L 1516 0 
L 100 0 
L 100 113 
Q 297 113 375 155 
Q 453 197 493 289 
Q 534 381 534 647 
L 534 1741 
Q 534 2213 506 2350 
Q 484 2453 437 2492 
Q 391 2531 309 2531 
Q 222 2531 100 2484 
L 53 2597 
L 916 2947 
L 1050 2947 
L 1050 2338 
z
" transform="scale(0.015625)"/>
       <path id="TimesNewRomanPSMT-29" d="M 144 4313 
L 144 4444 
Q 619 4209 934 3891 
Q 1381 3434 1625 2820 
Q 1869 2206 1869 1541 
Q 1869 572 1392 -226 
Q 916 -1025 144 -1369 
L 144 -1253 
Q 528 -1038 776 -670 
Q 1025 -303 1145 264 
Q 1266 831 1266 1447 
Q 1266 2113 1163 2663 
Q 1084 3094 967 3353 
Q 850 3613 656 3853 
Q 463 4094 144 4313 
z
" transform="scale(0.015625)"/>
      </defs>
      <use xlink:href="#TimesNewRomanPSMT-58"/>
      <use xlink:href="#TimesNewRomanPSMT-20" x="72.216797"/>
      <use xlink:href="#TimesNewRomanPSMT-28" x="97.216797"/>
      <use xlink:href="#TimesNewRomanPSMT-6d" x="130.517578"/>
      <use xlink:href="#TimesNewRomanPSMT-29" x="208.300781"/>
     </g>
    </g>
   </g>
   <g id="matplotlib.axis_2">
    <g id="ytick_1">
     <g id="line2d_11">
      <path d="M 97.2 532.460377 
L 716.4 532.460377 
" clip-path="url(#p3d128f7f58)" style="fill: none; stroke-dasharray: 2.96,1.28; stroke-dashoffset: 0; stroke: #b0b0b0; stroke-width: 0.8"/>
     </g>
     <g id="line2d_12">
      <defs>
       <path id="m09fe709c47" d="M 0 0 
L 5 0 
" style="stroke: #000000; stroke-width: 0.8"/>
      </defs>
      <g>
       <use xlink:href="#m09fe709c47" x="97.2" y="532.460377" style="stroke: #000000; stroke-width: 0.8"/>
      </g>
     </g>
     <g id="text_7">
      <!-- −200 -->
      <g transform="translate(27.265625 540.058815) scale(0.2 -0.2)">
       <defs>
        <path id="DejaVuSans-2212" d="M 678 2272 
L 4684 2272 
L 4684 1741 
L 678 1741 
L 678 2272 
z
" transform="scale(0.015625)"/>
       </defs>
       <use xlink:href="#DejaVuSans-2212"/>
       <use xlink:href="#DejaVuSans-32" x="83.789062"/>
       <use xlink:href="#DejaVuSans-30" x="147.412109"/>
       <use xlink:href="#DejaVuSans-30" x="211.035156"/>
      </g>
     </g>
    </g>
    <g id="ytick_2">
     <g id="line2d_13">
      <path d="M 97.2 430.981132 
L 716.4 430.981132 
" clip-path="url(#p3d128f7f58)" style="fill: none; stroke-dasharray: 2.96,1.28; stroke-dashoffset: 0; stroke: #b0b0b0; stroke-width: 0.8"/>
     </g>
     <g id="line2d_14">
      <g>
       <use xlink:href="#m09fe709c47" x="97.2" y="430.981132" style="stroke: #000000; stroke-width: 0.8"/>
      </g>
     </g>
     <g id="text_8">
      <!-- −100 -->
      <g transform="translate(27.265625 438.57957) scale(0.2 -0.2)">
       <use xlink:href="#DejaVuSans-2212"/>
       <use xlink:href="#DejaVuSans-31" x="83.789062"/>
       <use xlink:href="#DejaVuSans-30" x="147.412109"/>
       <use xlink:href="#DejaVuSans-30" x="211.035156"/>
      </g>
     </g>
    </g>
    <g id="ytick_3">
     <g id="line2d_15">
      <path d="M 97.2 329.501887 
L 716.4 329.501887 
" clip-path="url(#p3d128f7f58)" style="fill: none; stroke-dasharray: 2.96,1.28; stroke-dashoffset: 0; stroke: #b0b0b0; stroke-width: 0.8"/>
     </g>
     <g id="line2d_16">
      <g>
       <use xlink:href="#m09fe709c47" x="97.2" y="329.501887" style="stroke: #000000; stroke-width: 0.8"/>
      </g>
     </g>
     <g id="text_9">
      <!-- 0 -->
      <g transform="translate(69.475 337.100324) scale(0.2 -0.2)">
       <use xlink:href="#DejaVuSans-30"/>
      </g>
     </g>
    </g>
    <g id="ytick_4">
     <g id="line2d_17">
      <path d="M 97.2 228.022642 
L 716.4 228.022642 
" clip-path="url(#p3d128f7f58)" style="fill: none; stroke-dasharray: 2.96,1.28; stroke-dashoffset: 0; stroke: #b0b0b0; stroke-width: 0.8"/>
     </g>
     <g id="line2d_18">
      <g>
       <use xlink:href="#m09fe709c47" x="97.2" y="228.022642" style="stroke: #000000; stroke-width: 0.8"/>
      </g>
     </g>
     <g id="text_10">
      <!-- 100 -->
      <g transform="translate(44.025 235.621079) scale(0.2 -0.2)">
       <use xlink:href="#DejaVuSans-31"/>
       <use xlink:href="#DejaVuSans-30" x="63.623047"/>
       <use xlink:href="#DejaVuSans-30" x="127.246094"/>
      </g>
     </g>
    </g>
    <g id="ytick_5">
     <g id="line2d_19">
      <path d="M 97.2 126.543396 
L 716.4 126.543396 
" clip-path="url(#p3d128f7f58)" style="fill: none; stroke-dasharray: 2.96,1.28; stroke-dashoffset: 0; stroke: #b0b0b0; stroke-width: 0.8"/>
     </g>
     <g id="line2d_20">
      <g>
       <use xlink:href="#m09fe709c47" x="97.2" y="126.543396" style="stroke: #000000; stroke-width: 0.8"/>
      </g>
     </g>
     <g id="text_11">
      <!-- 200 -->
      <g transform="translate(44.025 134.141834) scale(0.2 -0.2)">
       <use xlink:href="#DejaVuSans-32"/>
       <use xlink:href="#DejaVuSans-30" x="63.623047"/>
       <use xlink:href="#DejaVuSans-30" x="127.246094"/>
      </g>
     </g>
    </g>
    <g id="text_12">
     <!-- Y (m) -->
     <g transform="translate(18.9875 338.064375) rotate(-90) scale(0.2 -0.2)">
      <defs>
       <path id="TimesNewRomanPSMT-59" d="M 3050 4238 
L 4528 4238 
L 4528 4122 
L 4447 4122 
Q 4366 4122 4209 4050 
Q 4053 3978 3925 3843 
Q 3797 3709 3609 3406 
L 2588 1797 
L 2588 734 
Q 2588 344 2675 247 
Q 2794 116 3050 116 
L 3188 116 
L 3188 0 
L 1388 0 
L 1388 116 
L 1538 116 
Q 1806 116 1919 278 
Q 1988 378 1988 734 
L 1988 1738 
L 825 3513 
Q 619 3825 545 3903 
Q 472 3981 241 4091 
Q 178 4122 59 4122 
L 59 4238 
L 1872 4238 
L 1872 4122 
L 1778 4122 
Q 1631 4122 1507 4053 
Q 1384 3984 1384 3847 
Q 1384 3734 1575 3441 
L 2459 2075 
L 3291 3381 
Q 3478 3675 3478 3819 
Q 3478 3906 3433 3975 
Q 3388 4044 3303 4083 
Q 3219 4122 3050 4122 
L 3050 4238 
z
" transform="scale(0.015625)"/>
      </defs>
      <use xlink:href="#TimesNewRomanPSMT-59"/>
      <use xlink:href="#TimesNewRomanPSMT-20" x="68.466797"/>
      <use xlink:href="#TimesNewRomanPSMT-28" x="93.466797"/>
      <use xlink:href="#TimesNewRomanPSMT-6d" x="126.767578"/>
      <use xlink:href="#TimesNewRomanPSMT-29" x="204.550781"/>
     </g>
    </g>
   </g>
   <g id="line2d_21">
    <defs>
     <path id="mfebdebd607" d="M 0 -3 
L -0.673542 -0.927051 
L -2.85317 -0.927051 
L -1.089814 0.354102 
L -1.763356 2.427051 
L -0 1.145898 
L 1.763356 2.427051 
L 1.089814 0.354102 
L 2.85317 -0.927051 
L 0.673542 -0.927051 
z
" style="stroke: #ff0000; stroke-linejoin: bevel"/>
    </defs>
    <g clip-path="url(#p3d128f7f58)">
     <use xlink:href="#mfebdebd607" x="193.658291" y="329.501887" style="fill: #ff0000; stroke: #ff0000; stroke-linejoin: bevel"/>
    </g>
   </g>
   <g id="line2d_22">
    <path d="M 193.658291 329.501887 
L 200.068677 329.430769 
L 217.517306 329.114959 
L 238.548437 328.786834 
L 289.469466 327.622216 
L 312.335669 326.813105 
L 322.459982 326.256394 
L 324.488344 326.394763 
L 326.338476 326.762518 
L 327.986606 327.361297 
L 329.066192 327.972848 
L 330.306708 328.963321 
L 331.069662 329.881884 
L 331.633103 330.930851 
L 332.041837 332.0725 
L 332.264998 333.341677 
L 332.467623 335.78644 
L 332.068596 349.988425 
L 331.435208 370.677628 
L 330.470625 386.298542 
L 329.539024 393.504826 
L 326.893827 412.181178 
L 325.812249 419.002086 
L 324.079361 431.18612 
L 322.764914 440.308901 
L 321.563479 447.336846 
L 320.217046 454.131592 
L 319.130615 458.513974 
L 318.202748 461.351029 
L 315.799294 467.518734 
L 313.396462 473.976874 
L 311.853901 478.822 
L 311.057056 482.32273 
L 310.858737 484.048587 
L 310.818001 486.320504 
L 310.768751 488.562993 
L 310.451484 491.261022 
L 309.752093 494.322041 
L 307.20013 502.70991 
L 302.878301 514.38256 
L 302.374316 516.459028 
L 302.231309 517.658006 
L 302.311189 519.219365 
L 302.595112 520.712937 
L 303.175965 522.193012 
L 303.874759 523.275491 
L 304.793403 524.384963 
L 306.043328 525.461354 
L 307.577338 526.494108 
L 309.417439 527.45948 
L 312.304616 528.676724 
L 315.594192 529.840386 
L 319.273373 530.899424 
L 330.606662 534.033103 
L 351.127635 539.728422 
L 360.312082 542.065388 
L 368.562813 543.942652 
L 375.048918 545.233976 
L 377.199128 545.383962 
L 378.768225 545.302982 
L 380.266129 545.038527 
L 382.091742 544.399309 
L 382.892532 543.955743 
L 383.961539 543.187241 
L 384.566551 542.594399 
L 385.101738 541.98319 
L 385.774582 540.582675 
L 386.23559 538.688565 
L 386.444313 537.024508 
L 386.580849 533.54722 
L 386.262723 526.206617 
L 386.336654 522.991146 
L 386.625282 519.525528 
L 387.326751 514.192794 
L 390.327538 493.435417 
L 392.805458 478.296642 
L 394.619496 467.054365 
L 396.112172 454.243017 
L 399.681005 421.799432 
L 402.041184 405.027643 
L 403.195945 396.00766 
L 404.522589 382.822462 
L 405.334207 372.878338 
L 406.172834 358.754233 
L 406.883141 344.621828 
L 407.479191 338.179848 
L 408.105485 334.111062 
L 408.65287 332.014061 
L 409.20959 330.584365 
L 409.903343 329.305015 
L 410.791382 328.157431 
L 412.160218 326.931256 
L 413.227732 326.256941 
L 414.444849 325.636228 
L 416.385465 324.929217 
L 418.147229 324.498021 
L 420.831881 324.150531 
L 423.878967 324.035996 
L 455.147385 323.697574 
L 469.517928 323.200958 
L 473.53246 323.08899 
L 475.651057 323.219449 
L 477.167008 323.454604 
L 479.023364 324.029673 
L 480.667262 324.794043 
L 481.771118 325.550078 
L 483.40033 327.068855 
L 484.530945 329.059486 
L 484.98934 330.468804 
L 485.391353 332.610542 
L 485.567716 335.014695 
L 485.493661 338.403513 
L 484.876328 348.699883 
L 484.767548 354.500842 
L 484.703201 364.535252 
L 484.396775 375.074024 
L 482.94181 410.445335 
L 482.475948 414.554331 
L 481.639686 419.842902 
L 479.6458 431.443167 
L 478.807173 438.430825 
L 477.43398 451.621402 
L 476.844153 459.590059 
L 476.002912 471.082381 
L 475.373631 476.703621 
L 474.59599 481.380292 
L 473.763462 485.115337 
L 472.712875 488.842467 
L 469.592232 499.109426 
L 468.480783 503.779806 
L 467.019471 510.965855 
L 463.441802 530.154363 
L 461.554705 542.100906 
L 460.673014 545.716104 
L 459.801902 548.38034 
L 458.959168 550.210011 
L 457.932976 551.875792 
L 457.075804 552.929451 
L 455.600552 554.329967 
L 454.236694 555.34963 
L 452.072046 556.579051 
L 450.210214 557.396365 
L 448.126466 558.080639 
L 445.857518 558.594226 
L 444.263405 558.814436 
L 441.795317 558.95671 
L 439.228655 558.888617 
L 435.652106 558.534556 
L 431.958189 557.936234 
L 428.185612 557.089898 
L 423.360955 555.749458 
L 410.472012 551.96824 
L 403.806184 550.332395 
L 395.308893 548.268611 
L 392.702403 547.466418 
L 390.418644 546.519312 
L 388.920367 545.623555 
L 387.661804 544.601963 
L 386.63026 543.464381 
L 385.840173 542.189294 
L 385.291295 540.830893 
L 384.973667 539.360053 
L 384.820703 537.751505 
L 384.80278 535.480704 
L 384.944667 532.964729 
L 385.417748 528.778507 
L 386.628767 518.971249 
L 389.006868 502.930932 
L 391.895016 484.123986 
L 394.731512 466.577311 
L 398.210358 435.515326 
L 399.37881 425.796588 
L 400.922765 415.972768 
L 402.293842 407.059612 
L 403.418359 397.846778 
L 404.353071 388.412202 
L 405.560231 373.314404 
L 406.188019 362.442943 
L 406.787678 349.818783 
L 409.78946 332.787196 
L 410.291417 327.390686 
L 410.958535 313.039619 
L 411.139752 304.241977 
L 411.385938 296.352352 
L 412.018829 279.397118 
L 413.076385 242.460043 
L 412.966859 233.61979 
L 412.660432 225.848043 
L 412.039365 215.786782 
L 409.398275 181.528708 
L 405.836413 140.038614 
L 404.46322 125.982825 
L 403.785149 121.536715 
L 402.607736 115.559283 
L 401.596106 109.959861 
L 401.311337 106.271192 
L 401.314821 103.511768 
L 401.53736 100.942314 
L 402.032596 98.020929 
L 403.436033 90.969035 
L 403.357124 89.531378 
L 403.006638 88.235894 
L 402.432369 87.062896 
L 401.648007 86.031258 
L 400.771419 85.102824 
L 398.192187 82.944767 
L 396.583013 81.93657 
L 395.04914 81.214343 
L 393.220291 80.603133 
L 390.995402 80.050579 
L 385.225578 78.997325 
L 381.526185 78.577201 
L 373.884822 77.990347 
L 360.505248 77.134065 
L 347.322199 76.474653 
L 332.734843 75.986233 
L 317.023667 75.632172 
L 300.375725 75.298001 
L 260.105409 73.869985 
L 245.95555 73.431696 
L 226.110296 72.635997 
L 220.095742 72.767007 
L 215.347343 73.136899 
L 211.818351 73.630393 
L 208.317898 74.30594 
L 204.847069 75.185258 
L 201.407861 76.287931 
L 198.02742 77.602696 
L 194.720663 79.138686 
L 191.473353 80.865355 
L 187.184251 83.407613 
L 168.395367 94.832654 
L 163.820767 97.266431 
L 148.08557 105.195715 
L 139.175412 109.759845 
L 134.632986 112.368877 
L 131.070775 114.61167 
L 128.659193 116.388165 
L 127.121387 117.752351 
L 126.056823 118.999531 
L 125.064112 120.610209 
L 124.564035 121.965363 
L 124.259264 123.475882 
L 124.166577 124.906942 
L 124.238678 126.132811 
L 124.562168 128.05361 
L 125.169021 130.280775 
L 126.153107 132.828107 
L 127.208896 134.880322 
L 128.570626 137.014025 
L 130.244843 139.235101 
L 134.897493 144.812705 
L 142.208584 153.81158 
L 146.048744 158.83257 
L 149.784704 164.097719 
L 152.634207 168.422967 
L 156.625128 174.96432 
L 177.063072 209.423525 
L 179.236209 213.672969 
L 182.153745 220.08321 
L 185.839712 228.709321 
L 187.529385 233.03874 
L 189.409573 238.525378 
L 191.028295 244.077987 
L 193.284058 252.963399 
L 195.525776 262.829465 
L 197.712783 273.611391 
L 199.214645 282.033651 
L 200.584572 291.25508 
L 201.92198 301.53994 
L 203.485335 315.539114 
L 204.001012 319.84287 
L 204.377373 321.041591 
L 205.032417 322.559708 
L 205.661626 323.483414 
L 206.73811 324.593 
L 207.854388 325.468178 
L 209.273843 326.320116 
L 211.048651 327.114227 
L 213.181499 327.815532 
L 215.63968 328.412044 
L 218.404909 328.844695 
L 221.442349 329.084018 
L 225.893707 329.148973 
L 241.80803 328.934724 
L 260.2725 328.493558 
L 306.132692 327.28169 
L 321.446236 326.904603 
L 364.498372 326.316488 
L 401.973227 325.297364 
L 489.757118 323.452734 
L 497.424992 323.148304 
L 518.750613 322.431637 
L 570.888124 320.847603 
L 580.836024 320.905705 
L 590.096269 321.168774 
L 599.792878 321.684532 
L 626.279454 323.39702 
L 642.115416 324.173163 
L 654.488588 324.626275 
L 654.488588 324.626275 
" clip-path="url(#p3d128f7f58)" style="fill: none; stroke-dasharray: 10.175,4.4; stroke-dashoffset: 0; stroke: #808a87; stroke-width: 2.75"/>
   </g>
   <g id="line2d_23">
    <path d="M 193.658512 329.501913 
L 204.209888 329.363519 
L 218.310317 329.066792 
L 259.757733 328.067939 
L 308.97968 326.755249 
L 322.135327 326.161485 
L 324.059094 326.381948 
L 325.834974 326.830018 
L 327.404493 327.514842 
L 328.746191 328.400188 
L 329.324727 328.921485 
L 330.281744 330.210561 
L 330.93524 331.72281 
L 331.24744 333.439654 
L 331.445312 335.42459 
L 331.070259 353.003413 
L 330.566359 369.650821 
L 329.648731 385.378281 
L 328.799035 392.525874 
L 326.594176 407.852192 
L 323.622158 426.610886 
L 320.645525 446.3325 
L 319.130055 453.911561 
L 318.04948 458.299382 
L 317.126477 461.134385 
L 311.382553 476.844328 
L 310.688065 479.198886 
L 310.146685 481.524071 
L 309.855822 483.798404 
L 309.551532 490.464405 
L 309.155209 492.54272 
L 308.361423 495.510046 
L 306.89386 500.354373 
L 305.318168 504.646817 
L 302.392299 512.280213 
L 301.477871 515.041936 
L 301.11937 516.64339 
L 301.015164 518.23577 
L 301.150373 519.757293 
L 301.52138 521.258485 
L 301.817476 522.006154 
L 302.746081 523.490638 
L 303.332024 524.224309 
L 304.99501 525.700617 
L 307.169663 527.072482 
L 309.880179 528.333525 
L 313.0459 529.560672 
L 316.616452 530.676129 
L 331.012763 534.735887 
L 346.097418 538.984587 
L 358.477226 542.235017 
L 366.689126 544.147554 
L 372.586614 545.395884 
L 374.74822 545.645169 
L 376.828486 545.621973 
L 378.782629 545.294647 
L 380.568318 544.639698 
L 382.038731 543.734939 
L 382.677109 543.195397 
L 383.640336 541.911716 
L 384.241244 540.529709 
L 384.769054 538.203255 
L 385.052843 535.385013 
L 385.001623 531.87144 
L 384.859131 526.128392 
L 384.981625 522.851143 
L 385.303131 519.333916 
L 386.034758 513.966522 
L 389.289796 492.36217 
L 391.041661 481.705735 
L 392.969065 470.609276 
L 393.995571 462.860551 
L 395.192032 452.939305 
L 398.654875 423.456561 
L 400.934911 407.694157 
L 402.07455 399.69463 
L 403.224063 389.575468 
L 404.42512 377.507678 
L 405.319313 365.835532 
L 405.788193 358.557566 
L 406.413809 347.451259 
L 407.306407 338.269834 
L 407.920058 334.323734 
L 408.593267 331.921094 
L 409.16641 330.589548 
L 409.905386 329.357667 
L 410.824362 328.262166 
L 411.928962 327.271768 
L 413.386099 326.383777 
L 415.186165 325.599754 
L 417.431694 324.944966 
L 420.090021 324.565952 
L 423.138204 324.453068 
L 452.343148 324.259516 
L 474.883539 323.713849 
L 476.91268 324.0467 
L 478.757205 324.650479 
L 480.384904 325.421597 
L 481.851328 326.479445 
L 482.535191 327.070376 
L 483.617286 328.557856 
L 484.116817 329.397628 
L 484.737401 331.286715 
L 485.138956 333.510149 
L 485.269332 335.971259 
L 485.209832 338.711769 
L 484.619996 348.109697 
L 484.404956 354.719089 
L 484.16046 366.454525 
L 483.501742 380.857843 
L 482.01399 411.440408 
L 481.287643 417.076458 
L 480.151917 423.522711 
L 478.844413 430.806885 
L 478.051293 436.745115 
L 476.26811 452.939707 
L 475.523874 462.813525 
L 474.532312 474.213805 
L 473.716553 479.846727 
L 472.97716 483.591252 
L 472.023998 487.326424 
L 470.251052 492.919953 
L 468.528376 498.510912 
L 467.113628 504.093912 
L 464.920819 514.597779 
L 461.502682 532.009732 
L 459.652992 543.307489 
L 458.538441 547.853476 
L 457.902095 549.650019 
L 457.300351 550.920786 
L 456.478212 552.292822 
L 455.28648 553.732617 
L 453.743995 555.133191 
L 451.794201 556.480404 
L 449.418561 557.670838 
L 446.694125 558.63258 
L 443.627235 559.287064 
L 440.305689 559.544215 
L 436.856178 559.427586 
L 433.280736 559.018268 
L 429.56223 558.359604 
L 425.797481 557.459985 
L 421.957734 556.362041 
L 408.172417 552.266932 
L 400.789285 550.471875 
L 393.349634 548.614586 
L 390.797394 547.781349 
L 388.542103 546.809867 
L 387.550465 546.229678 
L 386.663109 545.569357 
L 385.230166 544.10587 
L 384.177053 542.430122 
L 383.806872 541.511364 
L 383.359111 539.494678 
L 383.22091 537.313685 
L 383.27306 534.932215 
L 383.671995 530.918725 
L 385.634133 516.032062 
L 388.29905 498.882323 
L 391.393839 480.093426 
L 392.75902 472.339391 
L 393.60712 466.268939 
L 397.357075 434.051028 
L 398.165256 427.573016 
L 399.545896 418.86083 
L 401.371182 407.765029 
L 402.568365 398.563138 
L 403.345324 391.494857 
L 404.398551 379.775654 
L 405.254401 368.418224 
L 405.824979 358.25742 
L 406.159912 351.28485 
L 406.485996 348.11506 
L 406.990085 345.126434 
L 409.260075 333.77839 
L 409.780954 329.214492 
L 410.143386 322.559836 
L 410.492354 317.458903 
L 411.232887 295.985473 
L 411.81864 281.152727 
L 412.923448 248.658445 
L 412.989083 237.626208 
L 412.80329 228.753626 
L 412.403843 219.82849 
L 411.679528 208.558612 
L 410.677065 194.860857 
L 408.931542 171.797122 
L 407.030936 147.675362 
L 404.893582 124.820792 
L 403.991603 119.582368 
L 402.466191 111.343776 
L 402.147629 108.313722 
L 402.034933 105.453703 
L 402.133632 102.788681 
L 402.414041 100.329509 
L 403.075152 97.024326 
L 403.933147 93.226504 
L 404.125682 91.619243 
L 404.080065 90.20108 
L 403.749462 88.912506 
L 403.238668 87.74262 
L 402.148901 86.215229 
L 400.303389 84.41226 
L 398.687882 83.126163 
L 397.381802 82.309975 
L 395.855346 81.579323 
L 393.970901 80.94929 
L 391.695271 80.388317 
L 387.379523 79.528819 
L 383.824648 79.051803 
L 375.215656 78.332904 
L 361.851075 77.445379 
L 350.152129 76.806736 
L 332.697702 76.174844 
L 321.276648 75.871456 
L 301.781952 75.46186 
L 282.726092 74.646152 
L 269.377525 74.115637 
L 243.631877 73.253677 
L 228.891041 72.585025 
L 221.678723 72.668146 
L 216.948999 72.993259 
L 212.245277 73.64576 
L 207.596909 74.630621 
L 203.004522 75.991972 
L 198.498759 77.741257 
L 194.101224 79.860156 
L 189.795384 82.29847 
L 181.031098 87.642079 
L 174.348514 91.729261 
L 169.840457 94.317496 
L 165.25561 96.738467 
L 139.769506 109.593656 
L 134.166789 112.85909 
L 130.955602 115.001433 
L 129.201206 116.369566 
L 127.86098 117.653464 
L 126.625207 119.308293 
L 126.060876 120.343277 
L 125.517944 122.003665 
L 125.30805 123.309132 
L 125.258744 124.849252 
L 125.474957 126.679613 
L 125.938742 128.828909 
L 126.759619 131.318693 
L 127.334209 132.678016 
L 128.871719 135.482415 
L 130.967329 138.446783 
L 146.628897 158.139 
L 151.040281 164.491208 
L 153.819479 168.838963 
L 157.724685 175.405956 
L 176.681477 207.823873 
L 178.887615 212.066882 
L 180.85986 216.340907 
L 183.653992 222.776236 
L 187.178983 231.417387 
L 189.413815 237.998433 
L 191.280148 244.696611 
L 193.889802 255.811024 
L 196.13589 266.722102 
L 197.732831 275.304547 
L 198.769227 281.611223 
L 200.186746 291.840635 
L 201.308115 301.135278 
L 202.888628 316.445727 
L 203.248594 319.488444 
L 203.941787 321.722284 
L 204.553852 322.897224 
L 205.460784 323.997768 
L 206.823356 325.187738 
L 208.713394 326.364038 
L 211.213549 327.390465 
L 214.374555 328.285155 
L 216.159772 328.628902 
L 220.130794 329.0352 
L 224.5895 329.127682 
L 243.418532 328.90443 
L 274.282839 328.132868 
L 313.824245 326.983802 
L 323.866673 326.829595 
L 358.756761 326.427025 
L 399.822316 325.575501 
L 415.289098 325.367838 
L 434.485135 324.924889 
L 467.862214 324.395361 
L 486.504365 324.200161 
L 494.012783 323.871803 
L 525.116947 322.978348 
L 541.707984 322.535647 
L 567.692151 321.766517 
L 577.458575 321.762313 
L 587.87371 322.027585 
L 598.914916 322.63567 
L 636.754604 325.144137 
L 647.915912 325.65508 
L 650.652237 325.766113 
L 650.652237 325.766113 
" clip-path="url(#p3d128f7f58)" style="fill: none; stroke: #00ff00; stroke-width: 2; stroke-linecap: square"/>
   </g>
   <g id="patch_3">
    <path d="M 97.2 583.2 
L 97.2 45.36 
" style="fill: none; stroke: #000000; stroke-width: 3; stroke-linejoin: miter; stroke-linecap: square"/>
   </g>
   <g id="patch_4">
    <path d="M 716.4 583.2 
L 716.4 45.36 
" style="fill: none; stroke: #000000; stroke-width: 3; stroke-linejoin: miter; stroke-linecap: square"/>
   </g>
   <g id="patch_5">
    <path d="M 97.2 583.2 
L 716.4 583.2 
" style="fill: none; stroke: #000000; stroke-width: 3; stroke-linejoin: miter; stroke-linecap: square"/>
   </g>
   <g id="patch_6">
    <path d="M 97.2 45.36 
L 716.4 45.36 
" style="fill: none; stroke: #000000; stroke-width: 3; stroke-linejoin: miter; stroke-linecap: square"/>
   </g>
   <g id="PathCollection_1">
    <defs>
     <path id="m96e4489927" d="M 0 -8.660254 
L -1.944348 -2.676166 
L -8.236391 -2.676166 
L -3.146021 1.022204 
L -5.09037 7.006293 
L -0 3.307923 
L 5.09037 7.006293 
L 3.146021 1.022204 
L 8.236391 -2.676166 
L 1.944348 -2.676166 
z
" style="stroke: #ff0000"/>
    </defs>
    <g clip-path="url(#p3d128f7f58)">
     <use xlink:href="#m96e4489927" x="193.658291" y="329.501887" style="fill: #ff0000; stroke: #ff0000"/>
    </g>
   </g>
   <g id="legend_1">
    <g id="patch_7">
     <path d="M 551.849063 136.110937 
L 703.8 136.110937 
Q 707.4 136.110937 707.4 132.510937 
L 707.4 57.96 
Q 707.4 54.36 703.8 54.36 
L 551.849063 54.36 
Q 548.249063 54.36 548.249063 57.96 
L 548.249063 132.510937 
Q 548.249063 136.110937 551.849063 136.110937 
z
" style="fill: #ffffff; opacity: 0.8; stroke: #cccccc; stroke-linejoin: miter"/>
    </g>
    <g id="line2d_24">
     <defs>
      <path id="m52f58a1139" d="M 0 -6 
L -1.347084 -1.854102 
L -5.706339 -1.854102 
L -2.179628 0.708204 
L -3.526712 4.854102 
L -0 2.291796 
L 3.526712 4.854102 
L 2.179628 0.708204 
L 5.706339 -1.854102 
L 1.347084 -1.854102 
z
" style="stroke: #ff0000; stroke-linejoin: bevel"/>
     </defs>
     <g>
      <use xlink:href="#m52f58a1139" x="573.449063" y="67.86" style="fill: #ff0000; stroke: #ff0000; stroke-linejoin: bevel"/>
     </g>
    </g>
    <g id="text_13">
     <!-- Start -->
     <g transform="translate(605.849063 74.16) scale(0.18 -0.18)">
      <defs>
       <path id="TimesNewRomanPSMT-53" d="M 2934 4334 
L 2934 2869 
L 2819 2869 
Q 2763 3291 2617 3541 
Q 2472 3791 2203 3937 
Q 1934 4084 1647 4084 
Q 1322 4084 1109 3886 
Q 897 3688 897 3434 
Q 897 3241 1031 3081 
Q 1225 2847 1953 2456 
Q 2547 2138 2764 1967 
Q 2981 1797 3098 1565 
Q 3216 1334 3216 1081 
Q 3216 600 2842 251 
Q 2469 -97 1881 -97 
Q 1697 -97 1534 -69 
Q 1438 -53 1133 45 
Q 828 144 747 144 
Q 669 144 623 97 
Q 578 50 556 -97 
L 441 -97 
L 441 1356 
L 556 1356 
Q 638 900 775 673 
Q 913 447 1195 297 
Q 1478 147 1816 147 
Q 2206 147 2432 353 
Q 2659 559 2659 841 
Q 2659 997 2573 1156 
Q 2488 1316 2306 1453 
Q 2184 1547 1640 1851 
Q 1097 2156 867 2337 
Q 638 2519 519 2737 
Q 400 2956 400 3219 
Q 400 3675 750 4004 
Q 1100 4334 1641 4334 
Q 1978 4334 2356 4169 
Q 2531 4091 2603 4091 
Q 2684 4091 2736 4139 
Q 2788 4188 2819 4334 
L 2934 4334 
z
" transform="scale(0.015625)"/>
       <path id="TimesNewRomanPSMT-74" d="M 1031 3803 
L 1031 2863 
L 1700 2863 
L 1700 2644 
L 1031 2644 
L 1031 788 
Q 1031 509 1111 412 
Q 1191 316 1316 316 
Q 1419 316 1516 380 
Q 1613 444 1666 569 
L 1788 569 
Q 1678 263 1478 108 
Q 1278 -47 1066 -47 
Q 922 -47 784 33 
Q 647 113 581 261 
Q 516 409 516 719 
L 516 2644 
L 63 2644 
L 63 2747 
Q 234 2816 414 2980 
Q 594 3144 734 3369 
Q 806 3488 934 3803 
L 1031 3803 
z
" transform="scale(0.015625)"/>
       <path id="TimesNewRomanPSMT-61" d="M 1822 413 
Q 1381 72 1269 19 
Q 1100 -59 909 -59 
Q 613 -59 420 144 
Q 228 347 228 678 
Q 228 888 322 1041 
Q 450 1253 767 1440 
Q 1084 1628 1822 1897 
L 1822 2009 
Q 1822 2438 1686 2597 
Q 1550 2756 1291 2756 
Q 1094 2756 978 2650 
Q 859 2544 859 2406 
L 866 2225 
Q 866 2081 792 2003 
Q 719 1925 600 1925 
Q 484 1925 411 2006 
Q 338 2088 338 2228 
Q 338 2497 613 2722 
Q 888 2947 1384 2947 
Q 1766 2947 2009 2819 
Q 2194 2722 2281 2516 
Q 2338 2381 2338 1966 
L 2338 994 
Q 2338 584 2353 492 
Q 2369 400 2405 369 
Q 2441 338 2488 338 
Q 2538 338 2575 359 
Q 2641 400 2828 588 
L 2828 413 
Q 2478 -56 2159 -56 
Q 2006 -56 1915 50 
Q 1825 156 1822 413 
z
M 1822 616 
L 1822 1706 
Q 1350 1519 1213 1441 
Q 966 1303 859 1153 
Q 753 1003 753 825 
Q 753 600 887 451 
Q 1022 303 1197 303 
Q 1434 303 1822 616 
z
" transform="scale(0.015625)"/>
       <path id="TimesNewRomanPSMT-72" d="M 1038 2947 
L 1038 2303 
Q 1397 2947 1775 2947 
Q 1947 2947 2059 2842 
Q 2172 2738 2172 2600 
Q 2172 2478 2090 2393 
Q 2009 2309 1897 2309 
Q 1788 2309 1652 2417 
Q 1516 2525 1450 2525 
Q 1394 2525 1328 2463 
Q 1188 2334 1038 2041 
L 1038 669 
Q 1038 431 1097 309 
Q 1138 225 1241 169 
Q 1344 113 1538 113 
L 1538 0 
L 72 0 
L 72 113 
Q 291 113 397 181 
Q 475 231 506 341 
Q 522 394 522 644 
L 522 1753 
Q 522 2253 501 2348 
Q 481 2444 426 2487 
Q 372 2531 291 2531 
Q 194 2531 72 2484 
L 41 2597 
L 906 2947 
L 1038 2947 
z
" transform="scale(0.015625)"/>
      </defs>
      <use xlink:href="#TimesNewRomanPSMT-53"/>
      <use xlink:href="#TimesNewRomanPSMT-74" x="55.615234"/>
      <use xlink:href="#TimesNewRomanPSMT-61" x="83.398438"/>
      <use xlink:href="#TimesNewRomanPSMT-72" x="127.783203"/>
      <use xlink:href="#TimesNewRomanPSMT-74" x="161.083984"/>
     </g>
    </g>
    <g id="line2d_25">
     <path d="M 555.449063 93.310312 
L 573.449063 93.310312 
L 591.449063 93.310312 
" style="fill: none; stroke-dasharray: 10.175,4.4; stroke-dashoffset: 0; stroke: #808a87; stroke-width: 2.75"/>
    </g>
    <g id="text_14">
     <!-- GroundTruth -->
     <g transform="translate(605.849063 99.610312) scale(0.18 -0.18)">
      <defs>
       <path id="TimesNewRomanPSMT-47" d="M 3928 4334 
L 4038 2997 
L 3928 2997 
Q 3763 3497 3500 3750 
Q 3122 4116 2528 4116 
Q 1719 4116 1297 3475 
Q 944 2934 944 2188 
Q 944 1581 1178 1081 
Q 1413 581 1792 348 
Q 2172 116 2572 116 
Q 2806 116 3025 175 
Q 3244 234 3447 350 
L 3447 1575 
Q 3447 1894 3398 1992 
Q 3350 2091 3248 2142 
Q 3147 2194 2891 2194 
L 2891 2313 
L 4531 2313 
L 4531 2194 
L 4453 2194 
Q 4209 2194 4119 2031 
Q 4056 1916 4056 1575 
L 4056 278 
Q 3697 84 3347 -6 
Q 2997 -97 2569 -97 
Q 1341 -97 703 691 
Q 225 1281 225 2053 
Q 225 2613 494 3125 
Q 813 3734 1369 4063 
Q 1834 4334 2469 4334 
Q 2700 4334 2889 4296 
Q 3078 4259 3425 4131 
Q 3600 4066 3659 4066 
Q 3719 4066 3761 4120 
Q 3803 4175 3813 4334 
L 3928 4334 
z
" transform="scale(0.015625)"/>
       <path id="TimesNewRomanPSMT-6f" d="M 1600 2947 
Q 2250 2947 2644 2453 
Q 2978 2031 2978 1484 
Q 2978 1100 2793 706 
Q 2609 313 2286 112 
Q 1963 -88 1566 -88 
Q 919 -88 538 428 
Q 216 863 216 1403 
Q 216 1797 411 2186 
Q 606 2575 925 2761 
Q 1244 2947 1600 2947 
z
M 1503 2744 
Q 1338 2744 1170 2645 
Q 1003 2547 900 2300 
Q 797 2053 797 1666 
Q 797 1041 1045 587 
Q 1294 134 1700 134 
Q 2003 134 2200 384 
Q 2397 634 2397 1244 
Q 2397 2006 2069 2444 
Q 1847 2744 1503 2744 
z
" transform="scale(0.015625)"/>
       <path id="TimesNewRomanPSMT-75" d="M 2709 2863 
L 2709 1128 
Q 2709 631 2732 520 
Q 2756 409 2807 365 
Q 2859 322 2928 322 
Q 3025 322 3147 375 
L 3191 266 
L 2334 -88 
L 2194 -88 
L 2194 519 
Q 1825 119 1631 15 
Q 1438 -88 1222 -88 
Q 981 -88 804 51 
Q 628 191 559 409 
Q 491 628 491 1028 
L 491 2306 
Q 491 2509 447 2587 
Q 403 2666 317 2708 
Q 231 2750 6 2747 
L 6 2863 
L 1009 2863 
L 1009 947 
Q 1009 547 1148 422 
Q 1288 297 1484 297 
Q 1619 297 1789 381 
Q 1959 466 2194 703 
L 2194 2325 
Q 2194 2569 2105 2655 
Q 2016 2741 1734 2747 
L 1734 2863 
L 2709 2863 
z
" transform="scale(0.015625)"/>
       <path id="TimesNewRomanPSMT-6e" d="M 1034 2341 
Q 1538 2947 1994 2947 
Q 2228 2947 2397 2830 
Q 2566 2713 2666 2444 
Q 2734 2256 2734 1869 
L 2734 647 
Q 2734 375 2778 278 
Q 2813 200 2889 156 
Q 2966 113 3172 113 
L 3172 0 
L 1756 0 
L 1756 113 
L 1816 113 
Q 2016 113 2095 173 
Q 2175 234 2206 353 
Q 2219 400 2219 647 
L 2219 1819 
Q 2219 2209 2117 2386 
Q 2016 2563 1775 2563 
Q 1403 2563 1034 2156 
L 1034 647 
Q 1034 356 1069 288 
Q 1113 197 1189 155 
Q 1266 113 1500 113 
L 1500 0 
L 84 0 
L 84 113 
L 147 113 
Q 366 113 442 223 
Q 519 334 519 647 
L 519 1709 
Q 519 2225 495 2337 
Q 472 2450 423 2490 
Q 375 2531 294 2531 
Q 206 2531 84 2484 
L 38 2597 
L 900 2947 
L 1034 2947 
L 1034 2341 
z
" transform="scale(0.015625)"/>
       <path id="TimesNewRomanPSMT-64" d="M 2222 322 
Q 2013 103 1813 7 
Q 1613 -88 1381 -88 
Q 913 -88 563 304 
Q 213 697 213 1313 
Q 213 1928 600 2439 
Q 988 2950 1597 2950 
Q 1975 2950 2222 2709 
L 2222 3238 
Q 2222 3728 2198 3840 
Q 2175 3953 2125 3993 
Q 2075 4034 2000 4034 
Q 1919 4034 1784 3984 
L 1744 4094 
L 2597 4444 
L 2738 4444 
L 2738 1134 
Q 2738 631 2761 520 
Q 2784 409 2836 365 
Q 2888 322 2956 322 
Q 3041 322 3181 375 
L 3216 266 
L 2366 -88 
L 2222 -88 
L 2222 322 
z
M 2222 541 
L 2222 2016 
Q 2203 2228 2109 2403 
Q 2016 2578 1861 2667 
Q 1706 2756 1559 2756 
Q 1284 2756 1069 2509 
Q 784 2184 784 1559 
Q 784 928 1059 592 
Q 1334 256 1672 256 
Q 1956 256 2222 541 
z
" transform="scale(0.015625)"/>
       <path id="TimesNewRomanPSMT-54" d="M 3703 4238 
L 3750 3244 
L 3631 3244 
Q 3597 3506 3538 3619 
Q 3441 3800 3280 3886 
Q 3119 3972 2856 3972 
L 2259 3972 
L 2259 734 
Q 2259 344 2344 247 
Q 2463 116 2709 116 
L 2856 116 
L 2856 0 
L 1059 0 
L 1059 116 
L 1209 116 
Q 1478 116 1591 278 
Q 1659 378 1659 734 
L 1659 3972 
L 1150 3972 
Q 853 3972 728 3928 
Q 566 3869 450 3700 
Q 334 3531 313 3244 
L 194 3244 
L 244 4238 
L 3703 4238 
z
" transform="scale(0.015625)"/>
       <path id="TimesNewRomanPSMT-68" d="M 1041 4444 
L 1041 2350 
Q 1388 2731 1591 2839 
Q 1794 2947 1997 2947 
Q 2241 2947 2416 2812 
Q 2591 2678 2675 2391 
Q 2734 2191 2734 1659 
L 2734 647 
Q 2734 375 2778 275 
Q 2809 200 2884 156 
Q 2959 113 3159 113 
L 3159 0 
L 1753 0 
L 1753 113 
L 1819 113 
Q 2019 113 2097 173 
Q 2175 234 2206 353 
Q 2216 403 2216 647 
L 2216 1659 
Q 2216 2128 2167 2275 
Q 2119 2422 2012 2495 
Q 1906 2569 1756 2569 
Q 1603 2569 1437 2487 
Q 1272 2406 1041 2159 
L 1041 647 
Q 1041 353 1073 281 
Q 1106 209 1195 161 
Q 1284 113 1503 113 
L 1503 0 
L 84 0 
L 84 113 
Q 275 113 384 172 
Q 447 203 484 290 
Q 522 378 522 647 
L 522 3238 
Q 522 3728 498 3840 
Q 475 3953 426 3993 
Q 378 4034 297 4034 
Q 231 4034 84 3984 
L 41 4094 
L 897 4444 
L 1041 4444 
z
" transform="scale(0.015625)"/>
      </defs>
      <use xlink:href="#TimesNewRomanPSMT-47"/>
      <use xlink:href="#TimesNewRomanPSMT-72" x="72.216797"/>
      <use xlink:href="#TimesNewRomanPSMT-6f" x="105.517578"/>
      <use xlink:href="#TimesNewRomanPSMT-75" x="155.517578"/>
      <use xlink:href="#TimesNewRomanPSMT-6e" x="205.517578"/>
      <use xlink:href="#TimesNewRomanPSMT-64" x="255.517578"/>
      <use xlink:href="#TimesNewRomanPSMT-54" x="305.517578"/>
      <use xlink:href="#TimesNewRomanPSMT-72" x="363.101562"/>
      <use xlink:href="#TimesNewRomanPSMT-75" x="396.402344"/>
      <use xlink:href="#TimesNewRomanPSMT-74" x="446.402344"/>
      <use xlink:href="#TimesNewRomanPSMT-68" x="474.185547"/>
     </g>
    </g>
    <g id="line2d_26">
     <path d="M 555.449063 118.760625 
L 573.449063 118.760625 
L 591.449063 118.760625 
" style="fill: none; stroke: #00ff00; stroke-width: 2; stroke-linecap: square"/>
    </g>
    <g id="text_15">
     <!-- ROLO -->
     <g transform="translate(605.849063 125.060625) scale(0.18 -0.18)">
      <defs>
       <path id="TimesNewRomanPSMT-52" d="M 4325 0 
L 3194 0 
L 1759 1981 
Q 1600 1975 1500 1975 
Q 1459 1975 1412 1976 
Q 1366 1978 1316 1981 
L 1316 750 
Q 1316 350 1403 253 
Q 1522 116 1759 116 
L 1925 116 
L 1925 0 
L 109 0 
L 109 116 
L 269 116 
Q 538 116 653 291 
Q 719 388 719 750 
L 719 3488 
Q 719 3888 631 3984 
Q 509 4122 269 4122 
L 109 4122 
L 109 4238 
L 1653 4238 
Q 2328 4238 2648 4139 
Q 2969 4041 3192 3777 
Q 3416 3513 3416 3147 
Q 3416 2756 3161 2468 
Q 2906 2181 2372 2063 
L 3247 847 
Q 3547 428 3762 290 
Q 3978 153 4325 116 
L 4325 0 
z
M 1316 2178 
Q 1375 2178 1419 2176 
Q 1463 2175 1491 2175 
Q 2097 2175 2405 2437 
Q 2713 2700 2713 3106 
Q 2713 3503 2464 3751 
Q 2216 4000 1806 4000 
Q 1625 4000 1316 3941 
L 1316 2178 
z
" transform="scale(0.015625)"/>
       <path id="TimesNewRomanPSMT-4f" d="M 2341 4334 
Q 3166 4334 3770 3707 
Q 4375 3081 4375 2144 
Q 4375 1178 3765 540 
Q 3156 -97 2291 -97 
Q 1416 -97 820 525 
Q 225 1147 225 2134 
Q 225 3144 913 3781 
Q 1509 4334 2341 4334 
z
M 2281 4106 
Q 1713 4106 1369 3684 
Q 941 3159 941 2147 
Q 941 1109 1384 550 
Q 1725 125 2284 125 
Q 2881 125 3270 590 
Q 3659 1056 3659 2059 
Q 3659 3147 3231 3681 
Q 2888 4106 2281 4106 
z
" transform="scale(0.015625)"/>
       <path id="TimesNewRomanPSMT-4c" d="M 3669 1172 
L 3772 1150 
L 3409 0 
L 128 0 
L 128 116 
L 288 116 
Q 556 116 672 291 
Q 738 391 738 753 
L 738 3488 
Q 738 3884 650 3984 
Q 528 4122 288 4122 
L 128 4122 
L 128 4238 
L 2047 4238 
L 2047 4122 
Q 1709 4125 1573 4059 
Q 1438 3994 1388 3894 
Q 1338 3794 1338 3416 
L 1338 753 
Q 1338 494 1388 397 
Q 1425 331 1503 300 
Q 1581 269 1991 269 
L 2300 269 
Q 2788 269 2984 341 
Q 3181 413 3343 595 
Q 3506 778 3669 1172 
z
" transform="scale(0.015625)"/>
      </defs>
      <use xlink:href="#TimesNewRomanPSMT-52"/>
      <use xlink:href="#TimesNewRomanPSMT-4f" x="66.699219"/>
      <use xlink:href="#TimesNewRomanPSMT-4c" x="138.916016"/>
      <use xlink:href="#TimesNewRomanPSMT-4f" x="200"/>
     </g>
    </g>
   </g>
  </g>
 </g>
 <defs>
  <clipPath id="p3d128f7f58">
   <rect x="97.2" y="45.36" width="619.2" height="537.84"/>
  </clipPath>
 </defs>
</svg>
