<?xml version="1.0" encoding="utf-8" standalone="no"?>
<!DOCTYPE svg PUBLIC "-//W3C//DTD SVG 1.1//EN"
  "http://www.w3.org/Graphics/SVG/1.1/DTD/svg11.dtd">
<svg xmlns:xlink="http://www.w3.org/1999/xlink" width="720pt" height="648pt" viewBox="0 0 720 648" xmlns="http://www.w3.org/2000/svg" version="1.1">
 <metadata>
  <rdf:RDF xmlns:dc="http://purl.org/dc/elements/1.1/" xmlns:cc="http://creativecommons.org/ns#" xmlns:rdf="http://www.w3.org/1999/02/22-rdf-syntax-ns#">
   <cc:Work>
    <dc:type rdf:resource="http://purl.org/dc/dcmitype/StillImage"/>
    <dc:date>2024-08-06T14:19:10.922554</dc:date>
    <dc:format>image/svg+xml</dc:format>
    <dc:creator>
     <cc:Agent>
      <dc:title>Matplotlib v3.8.3, https://matplotlib.org/</dc:title>
     </cc:Agent>
    </dc:creator>
   </cc:Work>
  </rdf:RDF>
 </metadata>
 <defs>
  <style type="text/css">*{stroke-linejoin: round; stroke-linecap: butt}</style>
 </defs>
 <g id="figure_1">
  <g id="patch_1">
   <path d="M 0 648 
L 720 648 
L 720 0 
L 0 0 
z
" style="fill: #ffffff"/>
  </g>
  <g id="axes_1">
   <g id="patch_2">
    <path d="M 97.2 583.2 
L 716.4 583.2 
L 716.4 45.36 
L 97.2 45.36 
z
" style="fill: #ffffff"/>
   </g>
   <g id="matplotlib.axis_1">
    <g id="xtick_1">
     <g id="line2d_1">
      <path d="M 143.425781 583.2 
L 143.425781 45.36 
" clip-path="url(#p9169eb5743)" style="fill: none; stroke-dasharray: 2.96,1.28; stroke-dashoffset: 0; stroke: #b0b0b0; stroke-width: 0.8"/>
     </g>
     <g id="line2d_2">
      <defs>
       <path id="m6c33cf2b49" d="M 0 0 
L 0 -5 
" style="stroke: #000000; stroke-width: 0.8"/>
      </defs>
      <g>
       <use xlink:href="#m6c33cf2b49" x="143.425781" y="583.2" style="stroke: #000000; stroke-width: 0.8"/>
      </g>
     </g>
     <g id="text_1">
      <!-- 0 -->
      <g transform="translate(137.063281 613.396875) scale(0.2 -0.2)">
       <defs>
        <path id="DejaVuSans-30" d="M 2034 4250 
Q 1547 4250 1301 3770 
Q 1056 3291 1056 2328 
Q 1056 1369 1301 889 
Q 1547 409 2034 409 
Q 2525 409 2770 889 
Q 3016 1369 3016 2328 
Q 3016 3291 2770 3770 
Q 2525 4250 2034 4250 
z
M 2034 4750 
Q 2819 4750 3233 4129 
Q 3647 3509 3647 2328 
Q 3647 1150 3233 529 
Q 2819 -91 2034 -91 
Q 1250 -91 836 529 
Q 422 1150 422 2328 
Q 422 3509 836 4129 
Q 1250 4750 2034 4750 
z
" transform="scale(0.015625)"/>
       </defs>
       <use xlink:href="#DejaVuSans-30"/>
      </g>
     </g>
    </g>
    <g id="xtick_2">
     <g id="line2d_3">
      <path d="M 245.644948 583.2 
L 245.644948 45.36 
" clip-path="url(#p9169eb5743)" style="fill: none; stroke-dasharray: 2.96,1.28; stroke-dashoffset: 0; stroke: #b0b0b0; stroke-width: 0.8"/>
     </g>
     <g id="line2d_4">
      <g>
       <use xlink:href="#m6c33cf2b49" x="245.644948" y="583.2" style="stroke: #000000; stroke-width: 0.8"/>
      </g>
     </g>
     <g id="text_2">
      <!-- 100 -->
      <g transform="translate(226.557448 613.396875) scale(0.2 -0.2)">
       <defs>
        <path id="DejaVuSans-31" d="M 794 531 
L 1825 531 
L 1825 4091 
L 703 3866 
L 703 4441 
L 1819 4666 
L 2450 4666 
L 2450 531 
L 3481 531 
L 3481 0 
L 794 0 
L 794 531 
z
" transform="scale(0.015625)"/>
       </defs>
       <use xlink:href="#DejaVuSans-31"/>
       <use xlink:href="#DejaVuSans-30" x="63.623047"/>
       <use xlink:href="#DejaVuSans-30" x="127.246094"/>
      </g>
     </g>
    </g>
    <g id="xtick_3">
     <g id="line2d_5">
      <path d="M 347.864115 583.2 
L 347.864115 45.36 
" clip-path="url(#p9169eb5743)" style="fill: none; stroke-dasharray: 2.96,1.28; stroke-dashoffset: 0; stroke: #b0b0b0; stroke-width: 0.8"/>
     </g>
     <g id="line2d_6">
      <g>
       <use xlink:href="#m6c33cf2b49" x="347.864115" y="583.2" style="stroke: #000000; stroke-width: 0.8"/>
      </g>
     </g>
     <g id="text_3">
      <!-- 200 -->
      <g transform="translate(328.776615 613.396875) scale(0.2 -0.2)">
       <defs>
        <path id="DejaVuSans-32" d="M 1228 531 
L 3431 531 
L 3431 0 
L 469 0 
L 469 531 
Q 828 903 1448 1529 
Q 2069 2156 2228 2338 
Q 2531 2678 2651 2914 
Q 2772 3150 2772 3378 
Q 2772 3750 2511 3984 
Q 2250 4219 1831 4219 
Q 1534 4219 1204 4116 
Q 875 4013 500 3803 
L 500 4441 
Q 881 4594 1212 4672 
Q 1544 4750 1819 4750 
Q 2544 4750 2975 4387 
Q 3406 4025 3406 3419 
Q 3406 3131 3298 2873 
Q 3191 2616 2906 2266 
Q 2828 2175 2409 1742 
Q 1991 1309 1228 531 
z
" transform="scale(0.015625)"/>
       </defs>
       <use xlink:href="#DejaVuSans-32"/>
       <use xlink:href="#DejaVuSans-30" x="63.623047"/>
       <use xlink:href="#DejaVuSans-30" x="127.246094"/>
      </g>
     </g>
    </g>
    <g id="xtick_4">
     <g id="line2d_7">
      <path d="M 450.083282 583.2 
L 450.083282 45.36 
" clip-path="url(#p9169eb5743)" style="fill: none; stroke-dasharray: 2.96,1.28; stroke-dashoffset: 0; stroke: #b0b0b0; stroke-width: 0.8"/>
     </g>
     <g id="line2d_8">
      <g>
       <use xlink:href="#m6c33cf2b49" x="450.083282" y="583.2" style="stroke: #000000; stroke-width: 0.8"/>
      </g>
     </g>
     <g id="text_4">
      <!-- 300 -->
      <g transform="translate(430.995782 613.396875) scale(0.2 -0.2)">
       <defs>
        <path id="DejaVuSans-33" d="M 2597 2516 
Q 3050 2419 3304 2112 
Q 3559 1806 3559 1356 
Q 3559 666 3084 287 
Q 2609 -91 1734 -91 
Q 1441 -91 1130 -33 
Q 819 25 488 141 
L 488 750 
Q 750 597 1062 519 
Q 1375 441 1716 441 
Q 2309 441 2620 675 
Q 2931 909 2931 1356 
Q 2931 1769 2642 2001 
Q 2353 2234 1838 2234 
L 1294 2234 
L 1294 2753 
L 1863 2753 
Q 2328 2753 2575 2939 
Q 2822 3125 2822 3475 
Q 2822 3834 2567 4026 
Q 2313 4219 1838 4219 
Q 1578 4219 1281 4162 
Q 984 4106 628 3988 
L 628 4550 
Q 988 4650 1302 4700 
Q 1616 4750 1894 4750 
Q 2613 4750 3031 4423 
Q 3450 4097 3450 3541 
Q 3450 3153 3228 2886 
Q 3006 2619 2597 2516 
z
" transform="scale(0.015625)"/>
       </defs>
       <use xlink:href="#DejaVuSans-33"/>
       <use xlink:href="#DejaVuSans-30" x="63.623047"/>
       <use xlink:href="#DejaVuSans-30" x="127.246094"/>
      </g>
     </g>
    </g>
    <g id="xtick_5">
     <g id="line2d_9">
      <path d="M 552.302449 583.2 
L 552.302449 45.36 
" clip-path="url(#p9169eb5743)" style="fill: none; stroke-dasharray: 2.96,1.28; stroke-dashoffset: 0; stroke: #b0b0b0; stroke-width: 0.8"/>
     </g>
     <g id="line2d_10">
      <g>
       <use xlink:href="#m6c33cf2b49" x="552.302449" y="583.2" style="stroke: #000000; stroke-width: 0.8"/>
      </g>
     </g>
     <g id="text_5">
      <!-- 400 -->
      <g transform="translate(533.214949 613.396875) scale(0.2 -0.2)">
       <defs>
        <path id="DejaVuSans-34" d="M 2419 4116 
L 825 1625 
L 2419 1625 
L 2419 4116 
z
M 2253 4666 
L 3047 4666 
L 3047 1625 
L 3713 1625 
L 3713 1100 
L 3047 1100 
L 3047 0 
L 2419 0 
L 2419 1100 
L 313 1100 
L 313 1709 
L 2253 4666 
z
" transform="scale(0.015625)"/>
       </defs>
       <use xlink:href="#DejaVuSans-34"/>
       <use xlink:href="#DejaVuSans-30" x="63.623047"/>
       <use xlink:href="#DejaVuSans-30" x="127.246094"/>
      </g>
     </g>
    </g>
    <g id="xtick_6">
     <g id="line2d_11">
      <path d="M 654.521616 583.2 
L 654.521616 45.36 
" clip-path="url(#p9169eb5743)" style="fill: none; stroke-dasharray: 2.96,1.28; stroke-dashoffset: 0; stroke: #b0b0b0; stroke-width: 0.8"/>
     </g>
     <g id="line2d_12">
      <g>
       <use xlink:href="#m6c33cf2b49" x="654.521616" y="583.2" style="stroke: #000000; stroke-width: 0.8"/>
      </g>
     </g>
     <g id="text_6">
      <!-- 500 -->
      <g transform="translate(635.434116 613.396875) scale(0.2 -0.2)">
       <defs>
        <path id="DejaVuSans-35" d="M 691 4666 
L 3169 4666 
L 3169 4134 
L 1269 4134 
L 1269 2991 
Q 1406 3038 1543 3061 
Q 1681 3084 1819 3084 
Q 2600 3084 3056 2656 
Q 3513 2228 3513 1497 
Q 3513 744 3044 326 
Q 2575 -91 1722 -91 
Q 1428 -91 1123 -41 
Q 819 9 494 109 
L 494 744 
Q 775 591 1075 516 
Q 1375 441 1709 441 
Q 2250 441 2565 725 
Q 2881 1009 2881 1497 
Q 2881 1984 2565 2268 
Q 2250 2553 1709 2553 
Q 1456 2553 1204 2497 
Q 953 2441 691 2322 
L 691 4666 
z
" transform="scale(0.015625)"/>
       </defs>
       <use xlink:href="#DejaVuSans-35"/>
       <use xlink:href="#DejaVuSans-30" x="63.623047"/>
       <use xlink:href="#DejaVuSans-30" x="127.246094"/>
      </g>
     </g>
    </g>
    <g id="text_7">
     <!-- X (m) -->
     <g transform="translate(382.640625 635.44375) scale(0.2 -0.2)">
      <defs>
       <path id="TimesNewRomanPSMT-58" d="M 2613 2347 
L 3522 991 
Q 3900 428 4083 279 
Q 4266 131 4547 116 
L 4547 0 
L 2728 0 
L 2728 116 
Q 2909 119 2997 153 
Q 3063 181 3105 239 
Q 3147 297 3147 356 
Q 3147 428 3119 500 
Q 3097 553 2947 775 
L 2228 1863 
L 1341 725 
Q 1200 544 1172 483 
Q 1144 422 1144 356 
Q 1144 256 1228 190 
Q 1313 125 1550 116 
L 1550 0 
L 47 0 
L 47 116 
Q 206 131 322 181 
Q 516 263 691 400 
Q 866 538 1091 822 
L 2091 2084 
L 1256 3306 
Q 916 3803 678 3958 
Q 441 4113 131 4122 
L 131 4238 
L 2091 4238 
L 2091 4122 
Q 1841 4113 1748 4041 
Q 1656 3969 1656 3881 
Q 1656 3766 1806 3544 
L 2456 2572 
L 3209 3525 
Q 3341 3694 3370 3756 
Q 3400 3819 3400 3884 
Q 3400 3950 3363 4000 
Q 3316 4066 3244 4092 
Q 3172 4119 2947 4122 
L 2947 4238 
L 4450 4238 
L 4450 4122 
Q 4272 4113 4159 4066 
Q 3991 3994 3850 3872 
Q 3709 3750 3453 3422 
L 2613 2347 
z
" transform="scale(0.015625)"/>
       <path id="TimesNewRomanPSMT-20" transform="scale(0.015625)"/>
       <path id="TimesNewRomanPSMT-28" d="M 1988 -1253 
L 1988 -1369 
Q 1516 -1131 1200 -813 
Q 750 -359 506 256 
Q 263 872 263 1534 
Q 263 2503 741 3301 
Q 1219 4100 1988 4444 
L 1988 4313 
Q 1603 4100 1356 3731 
Q 1109 3363 987 2797 
Q 866 2231 866 1616 
Q 866 947 969 400 
Q 1050 -31 1165 -292 
Q 1281 -553 1476 -793 
Q 1672 -1034 1988 -1253 
z
" transform="scale(0.015625)"/>
       <path id="TimesNewRomanPSMT-6d" d="M 1050 2338 
Q 1363 2650 1419 2697 
Q 1559 2816 1721 2881 
Q 1884 2947 2044 2947 
Q 2313 2947 2506 2790 
Q 2700 2634 2766 2338 
Q 3088 2713 3309 2830 
Q 3531 2947 3766 2947 
Q 3994 2947 4170 2830 
Q 4347 2713 4450 2447 
Q 4519 2266 4519 1878 
L 4519 647 
Q 4519 378 4559 278 
Q 4591 209 4675 161 
Q 4759 113 4950 113 
L 4950 0 
L 3538 0 
L 3538 113 
L 3597 113 
Q 3781 113 3884 184 
Q 3956 234 3988 344 
Q 4000 397 4000 647 
L 4000 1878 
Q 4000 2228 3916 2372 
Q 3794 2572 3525 2572 
Q 3359 2572 3192 2489 
Q 3025 2406 2788 2181 
L 2781 2147 
L 2788 2013 
L 2788 647 
Q 2788 353 2820 281 
Q 2853 209 2943 161 
Q 3034 113 3253 113 
L 3253 0 
L 1806 0 
L 1806 113 
Q 2044 113 2133 169 
Q 2222 225 2256 338 
Q 2272 391 2272 647 
L 2272 1878 
Q 2272 2228 2169 2381 
Q 2031 2581 1784 2581 
Q 1616 2581 1450 2491 
Q 1191 2353 1050 2181 
L 1050 647 
Q 1050 366 1089 281 
Q 1128 197 1204 155 
Q 1281 113 1516 113 
L 1516 0 
L 100 0 
L 100 113 
Q 297 113 375 155 
Q 453 197 493 289 
Q 534 381 534 647 
L 534 1741 
Q 534 2213 506 2350 
Q 484 2453 437 2492 
Q 391 2531 309 2531 
Q 222 2531 100 2484 
L 53 2597 
L 916 2947 
L 1050 2947 
L 1050 2338 
z
" transform="scale(0.015625)"/>
       <path id="TimesNewRomanPSMT-29" d="M 144 4313 
L 144 4444 
Q 619 4209 934 3891 
Q 1381 3434 1625 2820 
Q 1869 2206 1869 1541 
Q 1869 572 1392 -226 
Q 916 -1025 144 -1369 
L 144 -1253 
Q 528 -1038 776 -670 
Q 1025 -303 1145 264 
Q 1266 831 1266 1447 
Q 1266 2113 1163 2663 
Q 1084 3094 967 3353 
Q 850 3613 656 3853 
Q 463 4094 144 4313 
z
" transform="scale(0.015625)"/>
      </defs>
      <use xlink:href="#TimesNewRomanPSMT-58"/>
      <use xlink:href="#TimesNewRomanPSMT-20" x="72.216797"/>
      <use xlink:href="#TimesNewRomanPSMT-28" x="97.216797"/>
      <use xlink:href="#TimesNewRomanPSMT-6d" x="130.517578"/>
      <use xlink:href="#TimesNewRomanPSMT-29" x="208.300781"/>
     </g>
    </g>
   </g>
   <g id="matplotlib.axis_2">
    <g id="ytick_1">
     <g id="line2d_13">
      <path d="M 97.2 565.47622 
L 716.4 565.47622 
" clip-path="url(#p9169eb5743)" style="fill: none; stroke-dasharray: 2.96,1.28; stroke-dashoffset: 0; stroke: #b0b0b0; stroke-width: 0.8"/>
     </g>
     <g id="line2d_14">
      <defs>
       <path id="m1cd6539f32" d="M 0 0 
L 5 0 
" style="stroke: #000000; stroke-width: 0.8"/>
      </defs>
      <g>
       <use xlink:href="#m1cd6539f32" x="97.2" y="565.47622" style="stroke: #000000; stroke-width: 0.8"/>
      </g>
     </g>
     <g id="text_8">
      <!-- −300 -->
      <g transform="translate(27.265625 573.074657) scale(0.2 -0.2)">
       <defs>
        <path id="DejaVuSans-2212" d="M 678 2272 
L 4684 2272 
L 4684 1741 
L 678 1741 
L 678 2272 
z
" transform="scale(0.015625)"/>
       </defs>
       <use xlink:href="#DejaVuSans-2212"/>
       <use xlink:href="#DejaVuSans-33" x="83.789062"/>
       <use xlink:href="#DejaVuSans-30" x="147.412109"/>
       <use xlink:href="#DejaVuSans-30" x="211.035156"/>
      </g>
     </g>
    </g>
    <g id="ytick_2">
     <g id="line2d_15">
      <path d="M 97.2 478.838855 
L 716.4 478.838855 
" clip-path="url(#p9169eb5743)" style="fill: none; stroke-dasharray: 2.96,1.28; stroke-dashoffset: 0; stroke: #b0b0b0; stroke-width: 0.8"/>
     </g>
     <g id="line2d_16">
      <g>
       <use xlink:href="#m1cd6539f32" x="97.2" y="478.838855" style="stroke: #000000; stroke-width: 0.8"/>
      </g>
     </g>
     <g id="text_9">
      <!-- −200 -->
      <g transform="translate(27.265625 486.437293) scale(0.2 -0.2)">
       <use xlink:href="#DejaVuSans-2212"/>
       <use xlink:href="#DejaVuSans-32" x="83.789062"/>
       <use xlink:href="#DejaVuSans-30" x="147.412109"/>
       <use xlink:href="#DejaVuSans-30" x="211.035156"/>
      </g>
     </g>
    </g>
    <g id="ytick_3">
     <g id="line2d_17">
      <path d="M 97.2 392.20149 
L 716.4 392.20149 
" clip-path="url(#p9169eb5743)" style="fill: none; stroke-dasharray: 2.96,1.28; stroke-dashoffset: 0; stroke: #b0b0b0; stroke-width: 0.8"/>
     </g>
     <g id="line2d_18">
      <g>
       <use xlink:href="#m1cd6539f32" x="97.2" y="392.20149" style="stroke: #000000; stroke-width: 0.8"/>
      </g>
     </g>
     <g id="text_10">
      <!-- −100 -->
      <g transform="translate(27.265625 399.799928) scale(0.2 -0.2)">
       <use xlink:href="#DejaVuSans-2212"/>
       <use xlink:href="#DejaVuSans-31" x="83.789062"/>
       <use xlink:href="#DejaVuSans-30" x="147.412109"/>
       <use xlink:href="#DejaVuSans-30" x="211.035156"/>
      </g>
     </g>
    </g>
    <g id="ytick_4">
     <g id="line2d_19">
      <path d="M 97.2 305.564125 
L 716.4 305.564125 
" clip-path="url(#p9169eb5743)" style="fill: none; stroke-dasharray: 2.96,1.28; stroke-dashoffset: 0; stroke: #b0b0b0; stroke-width: 0.8"/>
     </g>
     <g id="line2d_20">
      <g>
       <use xlink:href="#m1cd6539f32" x="97.2" y="305.564125" style="stroke: #000000; stroke-width: 0.8"/>
      </g>
     </g>
     <g id="text_11">
      <!-- 0 -->
      <g transform="translate(69.475 313.162563) scale(0.2 -0.2)">
       <use xlink:href="#DejaVuSans-30"/>
      </g>
     </g>
    </g>
    <g id="ytick_5">
     <g id="line2d_21">
      <path d="M 97.2 218.926761 
L 716.4 218.926761 
" clip-path="url(#p9169eb5743)" style="fill: none; stroke-dasharray: 2.96,1.28; stroke-dashoffset: 0; stroke: #b0b0b0; stroke-width: 0.8"/>
     </g>
     <g id="line2d_22">
      <g>
       <use xlink:href="#m1cd6539f32" x="97.2" y="218.926761" style="stroke: #000000; stroke-width: 0.8"/>
      </g>
     </g>
     <g id="text_12">
      <!-- 100 -->
      <g transform="translate(44.025 226.525198) scale(0.2 -0.2)">
       <use xlink:href="#DejaVuSans-31"/>
       <use xlink:href="#DejaVuSans-30" x="63.623047"/>
       <use xlink:href="#DejaVuSans-30" x="127.246094"/>
      </g>
     </g>
    </g>
    <g id="ytick_6">
     <g id="line2d_23">
      <path d="M 97.2 132.289396 
L 716.4 132.289396 
" clip-path="url(#p9169eb5743)" style="fill: none; stroke-dasharray: 2.96,1.28; stroke-dashoffset: 0; stroke: #b0b0b0; stroke-width: 0.8"/>
     </g>
     <g id="line2d_24">
      <g>
       <use xlink:href="#m1cd6539f32" x="97.2" y="132.289396" style="stroke: #000000; stroke-width: 0.8"/>
      </g>
     </g>
     <g id="text_13">
      <!-- 200 -->
      <g transform="translate(44.025 139.887833) scale(0.2 -0.2)">
       <use xlink:href="#DejaVuSans-32"/>
       <use xlink:href="#DejaVuSans-30" x="63.623047"/>
       <use xlink:href="#DejaVuSans-30" x="127.246094"/>
      </g>
     </g>
    </g>
    <g id="ytick_7">
     <g id="line2d_25">
      <path d="M 97.2 45.652031 
L 716.4 45.652031 
" clip-path="url(#p9169eb5743)" style="fill: none; stroke-dasharray: 2.96,1.28; stroke-dashoffset: 0; stroke: #b0b0b0; stroke-width: 0.8"/>
     </g>
     <g id="line2d_26">
      <g>
       <use xlink:href="#m1cd6539f32" x="97.2" y="45.652031" style="stroke: #000000; stroke-width: 0.8"/>
      </g>
     </g>
     <g id="text_14">
      <!-- 300 -->
      <g transform="translate(44.025 53.250468) scale(0.2 -0.2)">
       <use xlink:href="#DejaVuSans-33"/>
       <use xlink:href="#DejaVuSans-30" x="63.623047"/>
       <use xlink:href="#DejaVuSans-30" x="127.246094"/>
      </g>
     </g>
    </g>
    <g id="text_15">
     <!-- Y (m) -->
     <g transform="translate(18.9875 338.064375) rotate(-90) scale(0.2 -0.2)">
      <defs>
       <path id="TimesNewRomanPSMT-59" d="M 3050 4238 
L 4528 4238 
L 4528 4122 
L 4447 4122 
Q 4366 4122 4209 4050 
Q 4053 3978 3925 3843 
Q 3797 3709 3609 3406 
L 2588 1797 
L 2588 734 
Q 2588 344 2675 247 
Q 2794 116 3050 116 
L 3188 116 
L 3188 0 
L 1388 0 
L 1388 116 
L 1538 116 
Q 1806 116 1919 278 
Q 1988 378 1988 734 
L 1988 1738 
L 825 3513 
Q 619 3825 545 3903 
Q 472 3981 241 4091 
Q 178 4122 59 4122 
L 59 4238 
L 1872 4238 
L 1872 4122 
L 1778 4122 
Q 1631 4122 1507 4053 
Q 1384 3984 1384 3847 
Q 1384 3734 1575 3441 
L 2459 2075 
L 3291 3381 
Q 3478 3675 3478 3819 
Q 3478 3906 3433 3975 
Q 3388 4044 3303 4083 
Q 3219 4122 3050 4122 
L 3050 4238 
z
" transform="scale(0.015625)"/>
      </defs>
      <use xlink:href="#TimesNewRomanPSMT-59"/>
      <use xlink:href="#TimesNewRomanPSMT-20" x="68.466797"/>
      <use xlink:href="#TimesNewRomanPSMT-28" x="93.466797"/>
      <use xlink:href="#TimesNewRomanPSMT-6d" x="126.767578"/>
      <use xlink:href="#TimesNewRomanPSMT-29" x="204.550781"/>
     </g>
    </g>
   </g>
   <g id="line2d_27">
    <defs>
     <path id="m3f02f4478b" d="M 0 -3 
L -0.673542 -0.927051 
L -2.85317 -0.927051 
L -1.089814 0.354102 
L -1.763356 2.427051 
L -0 1.145898 
L 1.763356 2.427051 
L 1.089814 0.354102 
L 2.85317 -0.927051 
L 0.673542 -0.927051 
z
" style="stroke: #ff0000; stroke-linejoin: bevel"/>
    </defs>
    <g clip-path="url(#p9169eb5743)">
     <use xlink:href="#m3f02f4478b" x="143.425781" y="305.564125" style="fill: #ff0000; stroke: #ff0000; stroke-linejoin: bevel"/>
    </g>
   </g>
   <g id="line2d_28">
    <path d="M 143.425781 305.564125 
L 191.057899 303.257942 
L 216.29207 301.712653 
L 226.36169 301.028478 
L 228.276337 301.090568 
L 230.034742 301.390546 
L 231.184748 301.807231 
L 232.164386 302.396334 
L 232.963648 303.122855 
L 233.57081 303.963381 
L 234.143196 305.174238 
L 234.737652 307.505446 
L 235.035631 310.740337 
L 235.137001 316.025258 
L 235.262946 319.91175 
L 236.034639 333.929796 
L 235.875382 337.328528 
L 235.516827 340.581874 
L 234.530607 347.870424 
L 234.59663 349.696688 
L 234.861776 351.017613 
L 235.367076 352.252525 
L 236.098669 353.330068 
L 236.722359 353.938904 
L 237.831335 354.706953 
L 239.113777 355.268025 
L 240.515181 355.651283 
L 247.375109 356.977536 
L 251.156912 357.814375 
L 257.573107 359.17025 
L 291.672603 365.945309 
L 297.383486 366.759622 
L 302.358799 367.281708 
L 309.07695 367.652802 
L 317.564514 367.894684 
L 322.729648 367.83973 
L 342.613627 366.895712 
L 353.663213 366.320899 
L 357.820262 366.205637 
L 364.441202 366.221743 
L 385.089678 365.962983 
L 387.158798 365.71248 
L 388.579645 365.363115 
L 389.868526 364.837035 
L 390.961351 364.139102 
L 391.890115 363.327778 
L 392.620266 362.416474 
L 393.16765 361.462917 
L 393.42514 360.778525 
L 393.683959 359.63039 
L 393.80284 358.379952 
L 393.762668 356.104353 
L 393.380163 350.567134 
L 393.033845 346.478222 
L 392.535731 337.474374 
L 391.421849 317.787245 
L 390.205441 306.157464 
L 390.110274 302.364007 
L 390.294269 299.842719 
L 390.494619 298.379141 
L 390.895522 297.257135 
L 391.472447 296.269963 
L 392.118983 295.543501 
L 393.256172 294.692514 
L 394.40951 294.169363 
L 396.297498 293.675443 
L 398.52189 293.385061 
L 403.167853 293.185942 
L 421.58652 292.653824 
L 458.64751 291.217246 
L 519.789599 288.412041 
L 521.525791 288.018248 
L 523.058057 287.375061 
L 524.102225 286.704973 
L 525.093036 285.862433 
L 525.646348 285.192077 
L 526.192198 284.450244 
L 526.852636 282.302747 
L 526.858054 281.332547 
L 526.676513 279.285618 
L 525.613945 270.325166 
L 525.244116 265.168362 
L 524.433927 250.95565 
L 523.564655 240.15697 
L 523.371767 234.132718 
L 523.242153 221.926319 
L 522.742404 217.350134 
L 521.626988 209.038058 
L 521.079707 203.17756 
L 520.93384 199.978736 
L 520.768858 189.708396 
L 520.598152 183.745233 
L 519.905822 172.117026 
L 519.054234 160.371078 
L 518.335838 150.998042 
L 517.948836 149.162456 
L 517.439784 147.863848 
L 517.022424 147.037934 
L 515.753475 145.635015 
L 515.031296 145.009494 
L 513.102932 144.102747 
L 512.008267 143.789553 
L 510.90154 143.5526 
L 507.754621 143.382877 
L 504.382512 143.404796 
L 497.510625 143.880349 
L 480.175889 145.372071 
L 468.627781 146.040738 
L 448.415883 146.836936 
L 439.896222 147.176207 
L 412.0968 148.560066 
L 389.271566 149.789364 
L 374.896587 150.177239 
L 371.906472 150.345056 
L 370.579565 150.576031 
L 369.350073 150.967718 
L 367.825372 151.749101 
L 366.793674 152.517228 
L 365.856222 153.48592 
L 365.067396 154.708633 
L 364.48444 156.137197 
L 364.112771 157.760261 
L 363.882676 160.132479 
L 363.702362 168.688438 
L 363.765533 175.391225 
L 364.012392 180.848946 
L 364.387537 185.523118 
L 365.496921 196.55448 
L 365.739181 202.245776 
L 365.953023 209.355671 
L 366.265098 210.802428 
L 366.773128 212.200236 
L 367.772524 213.908205 
L 368.771819 215.025047 
L 370.404668 216.29645 
L 372.246248 217.25388 
L 373.765327 217.735324 
L 375.911623 218.133422 
L 380.071228 218.809194 
L 382.438828 219.424449 
L 384.192909 220.357533 
L 384.95066 221.100128 
L 385.614778 222.172066 
L 386.448682 224.311325 
L 386.812377 226.207028 
L 387.164318 229.527215 
L 387.740936 238.385868 
L 389.793088 268.609356 
L 391.279968 283.506027 
L 391.172843 285.085816 
L 390.731869 287.060749 
L 390.144109 288.449009 
L 389.615943 289.23034 
L 388.752088 290.12747 
L 387.862475 290.794239 
L 386.74941 291.380341 
L 385.410748 291.858839 
L 383.226836 292.285658 
L 380.624029 292.537479 
L 376.884545 292.685854 
L 360.600214 292.993312 
L 348.05966 293.597166 
L 327.407402 294.629468 
L 291.709811 296.051395 
L 263.731301 297.446535 
L 245.164007 298.375379 
L 243.383717 298.787145 
L 241.781533 299.378499 
L 240.359348 300.156405 
L 239.124142 301.095088 
L 238.419249 301.794538 
L 237.57545 302.989403 
L 236.983918 304.29764 
L 236.62981 305.637711 
L 236.358347 307.47746 
L 235.739205 317.44372 
L 235.751655 320.214946 
L 236.032881 323.91171 
L 236.546225 329.874639 
L 236.558921 332.809792 
L 236.381642 335.716891 
L 234.915901 350.182698 
L 234.396168 352.448308 
L 233.444589 355.369304 
L 231.647791 359.703122 
L 227.93193 367.82093 
L 226.250067 370.797417 
L 222.06086 377.679171 
L 219.641179 381.404421 
L 217.543008 384.224459 
L 215.271483 386.873622 
L 212.250518 389.962937 
L 207.327797 394.967388 
L 202.100063 400.536871 
L 196.006727 406.846844 
L 180.501 424.601179 
L 177.633149 427.977091 
L 171.897079 434.546975 
L 165.536931 441.588947 
L 161.480261 445.926013 
L 160.691845 447.28518 
L 160.148632 448.673198 
L 159.820887 450.148372 
L 159.701229 451.693116 
L 159.751337 454.961771 
L 159.682053 458.459148 
L 159.37607 462.791016 
L 158.943887 467.35204 
L 158.327332 474.040011 
L 157.434263 481.807744 
L 156.827828 487.631595 
L 155.254613 504.206709 
L 153.255934 523.857709 
L 152.706683 530.27052 
L 150.622628 539.284532 
L 150.357166 540.726871 
L 150.441261 541.831584 
L 150.824022 542.895924 
L 151.407573 543.760911 
L 151.873638 544.213765 
L 157.485751 546.243938 
L 158.741411 546.669154 
L 162.056512 547.064827 
L 166.757704 547.353156 
L 174.952431 547.763644 
L 237.836773 551.726697 
L 244.95045 552.4269 
L 254.851419 553.767267 
L 266.175054 555.244347 
L 272.866014 556.193286 
L 277.781938 557.131482 
L 284.989105 558.652574 
L 286.602635 558.752727 
L 288.246728 558.65578 
L 292.990924 555.485286 
L 295.708011 553.693019 
L 296.672143 552.109721 
L 300.815597 544.845264 
L 304.341238 539.270756 
L 308.215855 533.399689 
L 310.342934 530.583108 
L 313.775556 526.498936 
L 317.216969 522.299883 
L 319.960122 518.673936 
L 322.525108 514.956067 
L 325.404213 510.405266 
L 329.580275 503.71045 
L 337.245792 491.600799 
L 341.941741 483.920396 
L 343.225205 482.244223 
L 343.883496 481.620088 
L 345.34339 480.334129 
L 347.618789 478.039019 
L 349.406398 476.032758 
L 350.89706 474.18097 
L 360.614525 459.653011 
L 369.415595 446.105872 
L 370.694153 443.759819 
L 371.232336 442.317307 
L 371.581926 440.875488 
L 371.746601 439.428471 
L 371.70878 437.421256 
L 371.37851 434.119073 
L 370.472541 423.766428 
L 369.505344 407.372386 
L 368.634845 395.456369 
L 367.619298 382.141688 
L 367.30896 377.819766 
L 367.362932 375.716687 
L 367.545904 374.206303 
L 368.099421 372.28901 
L 368.505947 371.374353 
L 369.363668 370.111943 
L 370.969735 368.690579 
L 372.412355 367.806011 
L 374.134339 367.096945 
L 376.015274 366.575605 
L 378.037578 366.240214 
L 381.662576 365.96184 
L 386.257123 365.829873 
L 397.37172 365.545408 
L 429.744939 364.006521 
L 457.257228 362.375356 
L 464.418089 361.704774 
L 472.473062 360.727626 
L 479.619919 360.031711 
L 483.7462 359.794732 
L 512.01716 358.89437 
L 522.67177 358.927336 
L 525.416968 358.72645 
L 537.496514 357.492127 
L 542.243981 357.345528 
L 556.007076 357.21377 
L 565.801103 356.80589 
L 590.514734 355.521994 
L 595.121036 354.979211 
L 600.621552 354.209845 
L 601.125083 354.193323 
L 606.883089 357.281339 
L 607.166747 357.92385 
L 607.361372 358.614003 
L 607.640942 360.193411 
L 607.72977 362.021589 
L 607.95915 366.353163 
L 608.516653 374.440605 
L 609.114125 383.127396 
L 611.248665 415.232994 
L 611.81455 419.056301 
L 612.764064 423.550614 
L 613.749866 427.21113 
L 614.901876 430.786394 
L 616.003799 433.55749 
L 617.507749 436.945531 
L 619.824036 441.553079 
L 621.652123 444.71309 
L 623.995089 448.312353 
L 626.437922 451.66262 
L 631.82017 458.624105 
L 632.350074 459.826892 
L 632.549197 460.756078 
L 632.638026 461.669235 
L 632.283428 463.655657 
L 631.302737 465.399927 
L 628.973878 467.643055 
L 625.59717 470.135006 
L 611.71366 479.370982 
L 601.255617 486.510074 
L 579.696573 501.503536 
L 564.684972 512.102492 
L 555.960464 516.765575 
L 555.484634 516.929839 
L 553.160272 516.960509 
L 552.048639 516.752492 
L 551.101067 516.466416 
L 549.629418 515.742734 
L 548.261623 514.786171 
L 546.9708 513.640565 
L 545.448143 511.912929 
L 544.432187 510.391664 
L 543.515281 508.693571 
L 542.736779 506.819952 
L 541.848904 504.051974 
L 541.103011 501.014642 
L 540.416915 496.857521 
L 539.264905 488.613109 
L 538.39962 480.929068 
L 537.536482 471.221005 
L 536.999115 462.679427 
L 536.25496 446.481445 
L 535.912526 435.254543 
L 535.610264 433.705813 
L 535.094159 432.393084 
L 533.922421 430.913317 
L 533.263414 430.356239 
L 532.019406 429.678302 
L 530.591098 429.238617 
L 529.00159 428.95358 
L 525.519085 428.729363 
L 517.786921 428.702505 
L 507.887914 429.045589 
L 442.645509 432.25637 
L 423.758882 433.243343 
L 406.84989 434.001246 
L 387.975734 434.960582 
L 379.619624 435.422013 
L 377.85941 435.204033 
L 376.259066 434.72926 
L 375.154486 434.22815 
L 374.090384 433.525434 
L 373.143119 432.664085 
L 372.344583 431.623744 
L 371.692016 430.380844 
L 371.057951 428.506098 
L 370.767341 426.939088 
L 370.477448 424.003901 
L 370.280676 419.177333 
L 369.969214 404.006351 
L 369.306834 395.507485 
L 368.494805 382.712853 
L 368.20348 378.900402 
L 367.9833 375.208923 
L 368.069982 374.010875 
L 368.435007 372.471875 
L 368.723367 371.73045 
L 369.494508 370.334479 
L 370.714903 369.042422 
L 372.266283 367.924722 
L 373.205166 367.443824 
L 375.21316 366.695173 
L 376.702595 366.302489 
L 378.770182 365.964725 
L 382.585104 365.728005 
L 387.031024 365.417315 
L 389.14369 364.975785 
L 390.482659 364.467397 
L 391.303785 363.996436 
L 392.643572 362.819598 
L 393.219782 362.135899 
L 394.12851 360.215668 
L 394.347974 358.916064 
L 394.394484 356.624575 
L 394.136279 352.847074 
L 393.847918 346.032153 
L 393.580411 340.368148 
L 392.481861 323.752332 
L 391.724213 315.653878 
L 390.487872 303.227931 
L 390.423678 300.601854 
L 390.584367 298.828364 
L 390.827444 297.867086 
L 391.29663 296.865491 
L 392.247882 295.602275 
L 393.484427 294.642896 
L 394.232876 294.21502 
L 395.631847 293.685458 
L 397.273589 293.302911 
L 399.161577 293.077983 
L 402.814993 292.954187 
L 422.971897 292.410226 
L 442.984059 291.702702 
L 522.409476 288.784885 
L 523.930906 288.440467 
L 524.840248 288.079787 
L 525.758994 287.597347 
L 527.109309 286.3932 
L 527.723339 285.638077 
L 528.112488 284.82865 
L 528.310793 284.396391 
L 528.44194 282.061488 
L 527.772302 278.425794 
L 526.926234 274.104019 
L 526.345323 270.5094 
L 525.836373 265.687797 
L 524.904952 252.935608 
L 523.702855 231.646529 
L 523.4516 220.764157 
L 522.967899 217.007136 
L 522.125102 210.538358 
L 521.739429 206.051149 
L 521.355187 199.234521 
L 521.287825 192.044919 
L 521.195419 184.933118 
L 520.391567 172.005177 
L 519.61787 163.317961 
L 518.236992 148.476548 
L 517.83987 139.007863 
L 517.730802 133.171624 
L 517.865016 122.351397 
L 518.148981 115.709517 
L 518.76618 108.87998 
L 519.364469 103.731035 
L 519.874236 101.288814 
L 520.671955 98.654345 
L 521.675338 95.223245 
L 521.948774 93.783852 
L 522.041282 92.022168 
L 522.024007 86.558383 
L 522.28712 84.439666 
L 522.740155 81.049979 
L 522.520895 79.567267 
L 521.791459 77.929907 
L 521.300807 77.263839 
L 520.746166 76.551854 
L 518.598745 75.003297 
L 517.483125 74.485206 
L 516.243411 74.024208 
L 514.184206 73.419739 
L 511.105263 72.797856 
L 507.592399 72.385636 
L 486.729671 70.989561 
L 479.419979 70.689623 
L 470.948463 70.537661 
L 463.803752 70.611129 
L 454.443543 70.96513 
L 446.286964 71.522208 
L 438.027349 72.267289 
L 429.637506 73.21233 
L 419.897042 74.555122 
L 412.511809 75.803913 
L 405.018633 77.277961 
L 398.811579 78.645012 
L 389.003343 81.091911 
L 380.490531 83.456765 
L 372.09476 86.055019 
L 360.347426 89.990002 
L 352.281618 92.936452 
L 343.238084 96.526358 
L 335.570318 99.867961 
L 328.05864 103.327131 
L 318.320629 108.181596 
L 312.884818 111.06714 
L 307.572897 114.076662 
L 300.352135 118.395535 
L 292.382618 123.427953 
L 285.620104 128.012109 
L 278.999164 132.838503 
L 272.423099 137.911987 
L 266.867691 142.488866 
L 261.401726 147.256867 
L 256.901629 151.400732 
L 246.101356 161.688832 
L 240.671065 166.824609 
L 203.833189 201.411631 
L 148.462166 253.7948 
L 138.053021 263.592949 
L 132.663799 268.82614 
L 129.918284 271.734886 
L 128.089113 274.008007 
L 126.970641 275.740772 
L 126.136604 277.524246 
L 125.627645 279.343223 
L 125.454005 280.555592 
L 125.491264 282.358333 
L 125.704074 283.519135 
L 126.061586 284.646955 
L 126.848081 286.24661 
L 127.85637 287.7128 
L 132.670167 293.960497 
L 134.658353 296.964803 
L 137.342287 301.131818 
L 138.477129 302.169255 
L 139.892114 303.113993 
L 141.338724 303.834997 
L 143.205933 304.464151 
L 144.874374 304.860469 
L 146.803668 305.06387 
L 149.724713 305.16235 
L 153.770227 305.069653 
L 170.184561 304.421411 
L 197.257726 302.82933 
L 217.793046 301.881121 
L 240.228242 300.824316 
L 242.539049 300.726355 
L 242.539049 300.726355 
" clip-path="url(#p9169eb5743)" style="fill: none; stroke-dasharray: 10.175,4.4; stroke-dashoffset: 0; stroke: #808a87; stroke-width: 2.75"/>
   </g>
   <g id="line2d_29">
    <path d="M 143.425781 305.564125 
L 143.425345 305.564228 
L 149.705081 305.418358 
L 175.90627 304.207093 
L 200.040453 302.846118 
L 212.529898 301.953183 
L 222.878263 301.158392 
L 224.886062 301.139428 
L 226.688374 301.346229 
L 228.334103 301.825851 
L 229.642008 302.587432 
L 230.673613 303.611256 
L 231.355516 304.736467 
L 231.982157 306.626853 
L 232.32601 308.806378 
L 232.503828 311.448194 
L 232.628295 315.810415 
L 232.890893 321.113709 
L 233.639 331.037642 
L 233.714959 333.837554 
L 233.563781 337.918807 
L 233.145638 341.763744 
L 232.437071 347.353034 
L 232.418924 349.200021 
L 232.715851 350.978383 
L 233.012717 351.816916 
L 233.90701 353.317183 
L 235.191004 354.479779 
L 236.830783 355.339193 
L 238.653792 355.867942 
L 241.665012 356.454462 
L 246.2493 357.330896 
L 259.237612 360.01196 
L 290.891294 366.043096 
L 297.422397 366.888378 
L 302.47669 367.304736 
L 309.228324 367.620874 
L 314.267113 367.767965 
L 319.378695 367.773345 
L 334.993478 367.089002 
L 350.592632 366.189037 
L 354.590013 366.122303 
L 362.546297 366.176042 
L 375.287102 366.000701 
L 383.85914 365.665506 
L 385.852224 365.308584 
L 387.596513 364.672565 
L 389.017733 363.737792 
L 389.619824 363.217242 
L 390.57072 362.004318 
L 391.203803 360.741208 
L 391.529976 359.18167 
L 391.610365 357.476654 
L 391.37578 353.485686 
L 390.929149 345.488552 
L 390.552658 337.849843 
L 389.020541 317.556084 
L 387.800964 306.849785 
L 387.599804 302.755831 
L 387.701218 299.201873 
L 387.949545 297.727073 
L 388.331088 296.795244 
L 388.931557 295.792376 
L 389.915863 294.827084 
L 391.253809 294.019558 
L 393.049522 293.40766 
L 395.175168 293.036545 
L 398.965057 292.785379 
L 419.649621 292.17024 
L 434.530639 291.60693 
L 481.640362 289.382866 
L 496.211927 288.736862 
L 512.341674 287.959894 
L 516.387641 287.707716 
L 518.161098 287.394403 
L 519.759146 286.852156 
L 521.157016 286.064497 
L 522.454346 284.917184 
L 522.992363 284.22842 
L 523.413493 283.493952 
L 523.737202 282.628998 
L 523.942557 281.738839 
L 523.919879 279.815275 
L 523.383484 275.466905 
L 522.509748 267.663762 
L 521.784406 256.690735 
L 521.125135 248.806869 
L 520.137071 238.033759 
L 519.928003 231.99475 
L 519.772653 222.262714 
L 519.342445 218.217445 
L 518.352291 211.533045 
L 517.672899 206.22609 
L 517.22126 201.705905 
L 517.040892 196.732579 
L 516.730535 184.705332 
L 516.039351 174.659081 
L 513.885474 149.776445 
L 513.435146 147.956275 
L 513.097867 147.10989 
L 512.651594 146.299039 
L 512.107089 145.554209 
L 511.475425 144.888551 
L 510.701669 144.273315 
L 509.841784 143.754886 
L 507.848061 142.995104 
L 505.484648 142.622253 
L 501.590225 142.513678 
L 497.265407 142.707441 
L 489.016063 143.415772 
L 477.735083 144.391989 
L 466.290641 145.131981 
L 431.705419 146.726925 
L 421.755084 147.214551 
L 413.704326 147.615323 
L 378.656703 149.685982 
L 366.31187 150.17805 
L 364.613593 150.645833 
L 363.12964 151.37164 
L 361.647388 152.452849 
L 361.00061 153.114606 
L 359.894364 154.773124 
L 359.477663 155.731984 
L 359.010506 157.857888 
L 358.85085 160.187656 
L 358.86024 166.653241 
L 359.073691 173.924786 
L 359.422183 180.161167 
L 359.914656 184.82858 
L 361.126731 195.172158 
L 361.404988 198.879351 
L 361.4921 204.189089 
L 361.583298 208.251372 
L 361.904043 210.21969 
L 362.560304 212.087689 
L 363.02715 212.955682 
L 364.205082 214.475108 
L 365.779094 215.789296 
L 367.582622 216.76977 
L 369.593908 217.397572 
L 372.710348 217.956882 
L 375.711991 218.52312 
L 377.519184 219.053896 
L 378.931405 219.780708 
L 379.567623 220.213994 
L 380.495981 221.242885 
L 381.15887 222.377363 
L 381.62358 223.680989 
L 382.067716 225.99437 
L 382.474636 229.933054 
L 383.089642 237.447447 
L 384.183504 255.32186 
L 386.658844 281.729608 
L 386.660435 283.932792 
L 386.472969 285.615911 
L 386.182748 286.956333 
L 385.747113 288.065553 
L 385.000169 289.228337 
L 384.107997 290.159706 
L 382.788955 291.032914 
L 381.022596 291.737371 
L 378.810338 292.201853 
L 376.206803 292.46504 
L 373.26468 292.607027 
L 356.237567 292.974324 
L 344.921181 293.542153 
L 325.623429 294.571569 
L 275.720664 296.63856 
L 245.781176 298.004817 
L 242.925002 298.166398 
L 240.465766 298.563854 
L 238.319953 299.271519 
L 236.503183 300.281176 
L 234.958649 301.660794 
L 234.38461 302.3802 
L 233.90591 303.179592 
L 233.289126 304.872066 
L 232.954695 307.557766 
L 232.69056 316.36949 
L 232.70647 319.101446 
L 232.906865 322.041692 
L 233.66132 329.574523 
L 233.729496 332.540594 
L 233.506671 336.946031 
L 232.370993 350.776245 
L 231.651757 353.770354 
L 230.652283 356.669905 
L 227.620615 363.96826 
L 225.527248 368.455831 
L 223.849583 371.460549 
L 218.361144 380.613928 
L 216.358086 383.489416 
L 214.195638 386.205082 
L 211.870697 388.748171 
L 205.396533 395.494255 
L 201.144387 400.151198 
L 194.721246 406.931845 
L 185.273382 418.050256 
L 177.106915 427.489229 
L 172.593544 432.78962 
L 164.174963 442.312565 
L 160.981532 445.734606 
L 160.371564 446.602011 
L 159.487133 448.410733 
L 158.97409 450.334176 
L 158.808114 452.401186 
L 158.788354 458.04368 
L 158.476446 462.953822 
L 157.999034 468.168285 
L 156.85991 480.557259 
L 156.278796 486.387421 
L 155.521799 495.219472 
L 152.823598 524.092574 
L 152.365337 530.534351 
L 152.127805 532.797239 
L 151.5322 535.859345 
L 150.238394 540.997833 
L 150.251555 541.895379 
L 150.465582 542.768045 
L 150.889275 543.643567 
L 151.169112 544.085876 
L 152.169415 544.989318 
L 153.502576 545.721325 
L 155.228575 546.244777 
L 158.59299 546.951984 
L 159.848928 547.187852 
L 164.254603 547.537093 
L 174.90809 547.993308 
L 220.06116 550.708261 
L 230.376365 551.327715 
L 238.502833 551.927366 
L 244.610013 552.539866 
L 272.553805 556.1475 
L 278.100235 557.155247 
L 283.643772 558.372448 
L 285.792518 558.614503 
L 287.978744 558.54412 
L 290.135522 558.073098 
L 291.169864 557.678143 
L 292.168223 557.17394 
L 293.089999 556.544121 
L 293.955296 555.802754 
L 295.457139 554.070271 
L 297.407267 550.769073 
L 301.006603 544.563164 
L 306.42731 536.004445 
L 308.421501 533.096483 
L 311.685134 528.929334 
L 316.272035 523.404867 
L 319.516249 519.061775 
L 322.536343 514.592169 
L 327.163439 507.019966 
L 331.683817 499.794387 
L 337.813395 489.703981 
L 340.891481 484.538247 
L 342.467771 482.351597 
L 344.383897 480.264176 
L 347.435561 477.00421 
L 349.644419 474.32376 
L 351.929844 471.125187 
L 355.048608 466.352226 
L 361.831421 455.778888 
L 367.314908 447.214829 
L 368.947645 444.297613 
L 369.726236 442.416671 
L 370.147475 440.5012 
L 370.244335 438.556513 
L 369.995151 435.374808 
L 368.998586 424.614858 
L 367.525364 402.177994 
L 367.050953 395.427125 
L 366.335828 385.720114 
L 365.579977 377.721598 
L 365.585514 375.598344 
L 365.825262 373.587214 
L 366.405221 371.653354 
L 366.832356 370.7582 
L 367.4062 369.906164 
L 368.124086 369.127034 
L 369.821115 367.798873 
L 370.825198 367.252465 
L 371.965384 366.767641 
L 374.434719 366.078473 
L 377.173764 365.715747 
L 380.157798 365.530168 
L 393.444792 365.165896 
L 404.989228 364.598072 
L 424.347935 363.713871 
L 457.878117 361.788584 
L 463.931596 361.186018 
L 471.966756 360.233081 
L 478.050026 359.68323 
L 490.490892 359.055599 
L 502.476626 358.606079 
L 509.5148 358.444523 
L 519.506748 358.500175 
L 522.191936 358.342033 
L 528.074092 357.612273 
L 533.111649 357.09177 
L 538.671282 356.816474 
L 557.857497 356.388621 
L 582.789578 355.217712 
L 588.006973 354.832854 
L 592.612076 354.293826 
L 597.574298 353.547534 
L 598.628994 353.481568 
L 600.603844 353.659903 
L 601.473119 353.916761 
L 602.263533 354.26769 
L 603.594054 355.239337 
L 604.526311 356.44151 
L 604.886268 357.080258 
L 605.285593 358.546742 
L 605.500806 360.26432 
L 605.68523 364.324263 
L 606.170341 370.673818 
L 607.469355 386.456014 
L 608.664241 403.24901 
L 609.122368 409.702136 
L 609.760084 415.946508 
L 610.595699 420.485927 
L 611.670298 424.939392 
L 613.001256 429.238104 
L 614.052615 432.019315 
L 615.831562 436.106326 
L 617.828123 440.079739 
L 620.031631 443.877804 
L 622.425615 447.466851 
L 624.923415 450.805436 
L 629.666587 456.611326 
L 630.725245 458.413597 
L 631.148683 459.667668 
L 631.349921 460.892431 
L 631.232285 462.228544 
L 630.799613 463.610398 
L 630.409054 464.338122 
L 629.871349 465.102002 
L 628.349042 466.621818 
L 625.158655 469.104763 
L 618.064674 473.927893 
L 606.727386 481.527183 
L 583.076788 498.118974 
L 560.029561 514.532072 
L 557.78029 515.816165 
L 556.697268 516.301028 
L 555.576532 516.661242 
L 553.169665 516.909602 
L 552.04113 516.823713 
L 550.946192 516.593821 
L 549.890061 516.220136 
L 548.904804 515.748242 
L 547.050334 514.465325 
L 545.39729 512.911838 
L 543.894604 511.009864 
L 542.62404 508.800556 
L 541.575052 506.228377 
L 540.67452 503.394961 
L 539.932614 500.26521 
L 539.083615 495.12618 
L 537.844682 485.78785 
L 536.84779 476.029777 
L 536.001069 464.471338 
L 534.944937 446.377155 
L 534.501378 435.13118 
L 534.048024 433.11258 
L 533.661926 432.253702 
L 533.17354 431.491395 
L 532.595905 430.801572 
L 531.874182 430.197308 
L 531.079806 429.705702 
L 530.230839 429.315811 
L 528.272117 428.801745 
L 526.090757 428.570332 
L 523.679679 428.450204 
L 514.941949 428.459656 
L 505.665328 428.843943 
L 473.326881 430.477938 
L 442.835167 431.838508 
L 408.083645 433.559939 
L 393.68989 434.197147 
L 384.107654 434.818915 
L 378.602362 435.137182 
L 376.80565 434.958939 
L 375.161979 434.512241 
L 373.63504 433.831791 
L 372.225409 432.864431 
L 371.584839 432.252473 
L 370.463791 430.756413 
L 369.681643 428.987047 
L 369.165665 426.971515 
L 368.72195 423.455587 
L 368.453004 419.298193 
L 368.004204 409.346265 
L 367.533443 402.426282 
L 366.986676 395.631278 
L 365.5478 375.31737 
L 365.657465 373.731799 
L 366.003728 372.194692 
L 366.618 370.780251 
L 367.654916 369.412073 
L 369.01774 368.194092 
L 369.817886 367.652258 
L 371.626749 366.865104 
L 373.597138 366.265163 
L 375.643206 365.916166 
L 378.863431 365.697775 
L 383.249952 365.440993 
L 385.387655 365.07801 
L 386.38068 364.792839 
L 387.303609 364.40183 
L 388.904059 363.351245 
L 389.587428 362.765165 
L 390.626434 361.347227 
L 391.010084 360.618763 
L 391.270903 359.772401 
L 391.486194 358.016876 
L 391.416193 355.110252 
L 391.072333 347.583201 
L 390.740966 341.280001 
L 389.556733 324.678534 
L 388.872428 317.386007 
L 387.417299 303.269483 
L 387.333432 300.38025 
L 387.427468 299.081972 
L 387.82266 297.562078 
L 388.260167 296.686432 
L 389.022022 295.60531 
L 390.166467 294.621712 
L 390.908092 294.162815 
L 391.814769 293.738491 
L 393.913681 293.165325 
L 396.518433 292.865088 
L 429.494829 291.727685 
L 475.974572 289.631361 
L 497.976119 288.638878 
L 506.222998 288.273992 
L 518.079554 287.850657 
L 520.137726 287.559282 
L 521.107198 287.269661 
L 522.763425 286.426273 
L 523.497002 285.823581 
L 524.084431 285.160405 
L 524.537224 284.435104 
L 524.92691 283.585251 
L 525.10132 282.716589 
L 525.152105 281.781828 
L 524.906664 279.829817 
L 523.190263 271.301679 
L 522.749761 268.276897 
L 521.980965 259.710283 
L 520.035844 233.593878 
L 519.82322 226.850406 
L 519.710201 222.286887 
L 519.44439 219.306057 
L 517.863 208.106846 
L 517.212526 200.56029 
L 516.962967 192.410222 
L 516.777951 184.280209 
L 515.557329 168.451823 
L 513.208546 144.085977 
L 512.704813 132.534385 
L 512.698387 120.781985 
L 512.861879 115.103824 
L 513.532536 106.717743 
L 513.838058 103.797685 
L 514.259344 101.24716 
L 515.16861 98.029127 
L 516.135743 94.591408 
L 516.409758 93.162597 
L 516.502251 91.064137 
L 516.400743 86.66683 
L 516.677566 83.807292 
L 517.13457 80.421117 
L 517.002772 79.269697 
L 516.603634 77.967705 
L 515.83568 76.619204 
L 515.25764 75.899809 
L 514.543903 75.231653 
L 513.702392 74.605642 
L 512.689278 74.008952 
L 510.246443 73.023785 
L 508.860177 72.598372 
L 505.785148 71.967417 
L 502.258293 71.512602 
L 477.770239 70.040735 
L 468.041793 69.810445 
L 460.880213 69.847223 
L 451.450769 70.186734 
L 444.48138 70.641179 
L 435.091616 71.441876 
L 427.958173 72.195564 
L 420.734702 73.116668 
L 413.430748 74.193554 
L 406.018361 75.49708 
L 396.124364 77.561486 
L 388.740583 79.344442 
L 381.413545 81.271336 
L 374.171294 83.340501 
L 364.643072 86.369014 
L 352.97459 90.390389 
L 346.113743 92.960083 
L 337.151192 96.601282 
L 328.469457 100.48131 
L 322.103624 103.503967 
L 313.630052 107.813269 
L 307.240777 111.28848 
L 298.931025 116.17414 
L 290.916328 121.210822 
L 283.191525 126.37304 
L 277.522772 130.451643 
L 271.908275 134.709415 
L 268.197395 137.634563 
L 260.849503 143.810793 
L 255.40887 148.637466 
L 248.268307 155.373238 
L 232.230889 170.852793 
L 186.056477 214.909801 
L 166.463094 233.895568 
L 150.720852 249.188631 
L 131.836749 267.275621 
L 128.267606 270.933742 
L 126.260378 273.231405 
L 124.632167 275.512943 
L 123.444738 277.870326 
L 123.070396 279.067579 
L 122.820442 280.268509 
L 122.697049 281.47352 
L 122.736128 282.656986 
L 122.934601 283.824466 
L 123.263508 284.941864 
L 123.725981 286.012786 
L 124.991197 288.007894 
L 129.25813 293.401944 
L 131.940775 297.252493 
L 134.848978 301.583744 
L 135.591135 302.287997 
L 137.223525 303.439754 
L 138.63227 304.181594 
L 140.489733 304.843181 
L 142.718076 305.36592 
L 145.368613 305.624765 
L 148.372007 305.674758 
L 161.026018 305.198767 
L 167.260656 304.865563 
L 199.12076 302.792744 
L 237.325026 300.751133 
L 237.325026 300.751133 
" clip-path="url(#p9169eb5743)" style="fill: none; stroke: #00ff00; stroke-width: 2; stroke-linecap: square"/>
   </g>
   <g id="patch_3">
    <path d="M 97.2 583.2 
L 97.2 45.36 
" style="fill: none; stroke: #000000; stroke-width: 3; stroke-linejoin: miter; stroke-linecap: square"/>
   </g>
   <g id="patch_4">
    <path d="M 716.4 583.2 
L 716.4 45.36 
" style="fill: none; stroke: #000000; stroke-width: 3; stroke-linejoin: miter; stroke-linecap: square"/>
   </g>
   <g id="patch_5">
    <path d="M 97.2 583.2 
L 716.4 583.2 
" style="fill: none; stroke: #000000; stroke-width: 3; stroke-linejoin: miter; stroke-linecap: square"/>
   </g>
   <g id="patch_6">
    <path d="M 97.2 45.36 
L 716.4 45.36 
" style="fill: none; stroke: #000000; stroke-width: 3; stroke-linejoin: miter; stroke-linecap: square"/>
   </g>
   <g id="PathCollection_1">
    <defs>
     <path id="me851958a63" d="M 0 -8.660254 
L -1.944348 -2.676166 
L -8.236391 -2.676166 
L -3.146021 1.022204 
L -5.09037 7.006293 
L -0 3.307923 
L 5.09037 7.006293 
L 3.146021 1.022204 
L 8.236391 -2.676166 
L 1.944348 -2.676166 
z
" style="stroke: #ff0000"/>
    </defs>
    <g clip-path="url(#p9169eb5743)">
     <use xlink:href="#me851958a63" x="143.425781" y="305.564125" style="fill: #ff0000; stroke: #ff0000"/>
    </g>
   </g>
   <g id="legend_1">
    <g id="patch_7">
     <path d="M 551.849063 136.110937 
L 703.8 136.110937 
Q 707.4 136.110937 707.4 132.510937 
L 707.4 57.96 
Q 707.4 54.36 703.8 54.36 
L 551.849063 54.36 
Q 548.249063 54.36 548.249063 57.96 
L 548.249063 132.510937 
Q 548.249063 136.110937 551.849063 136.110937 
z
" style="fill: #ffffff; opacity: 0.8; stroke: #cccccc; stroke-linejoin: miter"/>
    </g>
    <g id="line2d_30">
     <defs>
      <path id="m14b922a001" d="M 0 -6 
L -1.347084 -1.854102 
L -5.706339 -1.854102 
L -2.179628 0.708204 
L -3.526712 4.854102 
L -0 2.291796 
L 3.526712 4.854102 
L 2.179628 0.708204 
L 5.706339 -1.854102 
L 1.347084 -1.854102 
z
" style="stroke: #ff0000; stroke-linejoin: bevel"/>
     </defs>
     <g>
      <use xlink:href="#m14b922a001" x="573.449063" y="67.86" style="fill: #ff0000; stroke: #ff0000; stroke-linejoin: bevel"/>
     </g>
    </g>
    <g id="text_16">
     <!-- Start -->
     <g transform="translate(605.849063 74.16) scale(0.18 -0.18)">
      <defs>
       <path id="TimesNewRomanPSMT-53" d="M 2934 4334 
L 2934 2869 
L 2819 2869 
Q 2763 3291 2617 3541 
Q 2472 3791 2203 3937 
Q 1934 4084 1647 4084 
Q 1322 4084 1109 3886 
Q 897 3688 897 3434 
Q 897 3241 1031 3081 
Q 1225 2847 1953 2456 
Q 2547 2138 2764 1967 
Q 2981 1797 3098 1565 
Q 3216 1334 3216 1081 
Q 3216 600 2842 251 
Q 2469 -97 1881 -97 
Q 1697 -97 1534 -69 
Q 1438 -53 1133 45 
Q 828 144 747 144 
Q 669 144 623 97 
Q 578 50 556 -97 
L 441 -97 
L 441 1356 
L 556 1356 
Q 638 900 775 673 
Q 913 447 1195 297 
Q 1478 147 1816 147 
Q 2206 147 2432 353 
Q 2659 559 2659 841 
Q 2659 997 2573 1156 
Q 2488 1316 2306 1453 
Q 2184 1547 1640 1851 
Q 1097 2156 867 2337 
Q 638 2519 519 2737 
Q 400 2956 400 3219 
Q 400 3675 750 4004 
Q 1100 4334 1641 4334 
Q 1978 4334 2356 4169 
Q 2531 4091 2603 4091 
Q 2684 4091 2736 4139 
Q 2788 4188 2819 4334 
L 2934 4334 
z
" transform="scale(0.015625)"/>
       <path id="TimesNewRomanPSMT-74" d="M 1031 3803 
L 1031 2863 
L 1700 2863 
L 1700 2644 
L 1031 2644 
L 1031 788 
Q 1031 509 1111 412 
Q 1191 316 1316 316 
Q 1419 316 1516 380 
Q 1613 444 1666 569 
L 1788 569 
Q 1678 263 1478 108 
Q 1278 -47 1066 -47 
Q 922 -47 784 33 
Q 647 113 581 261 
Q 516 409 516 719 
L 516 2644 
L 63 2644 
L 63 2747 
Q 234 2816 414 2980 
Q 594 3144 734 3369 
Q 806 3488 934 3803 
L 1031 3803 
z
" transform="scale(0.015625)"/>
       <path id="TimesNewRomanPSMT-61" d="M 1822 413 
Q 1381 72 1269 19 
Q 1100 -59 909 -59 
Q 613 -59 420 144 
Q 228 347 228 678 
Q 228 888 322 1041 
Q 450 1253 767 1440 
Q 1084 1628 1822 1897 
L 1822 2009 
Q 1822 2438 1686 2597 
Q 1550 2756 1291 2756 
Q 1094 2756 978 2650 
Q 859 2544 859 2406 
L 866 2225 
Q 866 2081 792 2003 
Q 719 1925 600 1925 
Q 484 1925 411 2006 
Q 338 2088 338 2228 
Q 338 2497 613 2722 
Q 888 2947 1384 2947 
Q 1766 2947 2009 2819 
Q 2194 2722 2281 2516 
Q 2338 2381 2338 1966 
L 2338 994 
Q 2338 584 2353 492 
Q 2369 400 2405 369 
Q 2441 338 2488 338 
Q 2538 338 2575 359 
Q 2641 400 2828 588 
L 2828 413 
Q 2478 -56 2159 -56 
Q 2006 -56 1915 50 
Q 1825 156 1822 413 
z
M 1822 616 
L 1822 1706 
Q 1350 1519 1213 1441 
Q 966 1303 859 1153 
Q 753 1003 753 825 
Q 753 600 887 451 
Q 1022 303 1197 303 
Q 1434 303 1822 616 
z
" transform="scale(0.015625)"/>
       <path id="TimesNewRomanPSMT-72" d="M 1038 2947 
L 1038 2303 
Q 1397 2947 1775 2947 
Q 1947 2947 2059 2842 
Q 2172 2738 2172 2600 
Q 2172 2478 2090 2393 
Q 2009 2309 1897 2309 
Q 1788 2309 1652 2417 
Q 1516 2525 1450 2525 
Q 1394 2525 1328 2463 
Q 1188 2334 1038 2041 
L 1038 669 
Q 1038 431 1097 309 
Q 1138 225 1241 169 
Q 1344 113 1538 113 
L 1538 0 
L 72 0 
L 72 113 
Q 291 113 397 181 
Q 475 231 506 341 
Q 522 394 522 644 
L 522 1753 
Q 522 2253 501 2348 
Q 481 2444 426 2487 
Q 372 2531 291 2531 
Q 194 2531 72 2484 
L 41 2597 
L 906 2947 
L 1038 2947 
z
" transform="scale(0.015625)"/>
      </defs>
      <use xlink:href="#TimesNewRomanPSMT-53"/>
      <use xlink:href="#TimesNewRomanPSMT-74" x="55.615234"/>
      <use xlink:href="#TimesNewRomanPSMT-61" x="83.398438"/>
      <use xlink:href="#TimesNewRomanPSMT-72" x="127.783203"/>
      <use xlink:href="#TimesNewRomanPSMT-74" x="161.083984"/>
     </g>
    </g>
    <g id="line2d_31">
     <path d="M 555.449063 93.310312 
L 573.449063 93.310312 
L 591.449063 93.310312 
" style="fill: none; stroke-dasharray: 10.175,4.4; stroke-dashoffset: 0; stroke: #808a87; stroke-width: 2.75"/>
    </g>
    <g id="text_17">
     <!-- GroundTruth -->
     <g transform="translate(605.849063 99.610312) scale(0.18 -0.18)">
      <defs>
       <path id="TimesNewRomanPSMT-47" d="M 3928 4334 
L 4038 2997 
L 3928 2997 
Q 3763 3497 3500 3750 
Q 3122 4116 2528 4116 
Q 1719 4116 1297 3475 
Q 944 2934 944 2188 
Q 944 1581 1178 1081 
Q 1413 581 1792 348 
Q 2172 116 2572 116 
Q 2806 116 3025 175 
Q 3244 234 3447 350 
L 3447 1575 
Q 3447 1894 3398 1992 
Q 3350 2091 3248 2142 
Q 3147 2194 2891 2194 
L 2891 2313 
L 4531 2313 
L 4531 2194 
L 4453 2194 
Q 4209 2194 4119 2031 
Q 4056 1916 4056 1575 
L 4056 278 
Q 3697 84 3347 -6 
Q 2997 -97 2569 -97 
Q 1341 -97 703 691 
Q 225 1281 225 2053 
Q 225 2613 494 3125 
Q 813 3734 1369 4063 
Q 1834 4334 2469 4334 
Q 2700 4334 2889 4296 
Q 3078 4259 3425 4131 
Q 3600 4066 3659 4066 
Q 3719 4066 3761 4120 
Q 3803 4175 3813 4334 
L 3928 4334 
z
" transform="scale(0.015625)"/>
       <path id="TimesNewRomanPSMT-6f" d="M 1600 2947 
Q 2250 2947 2644 2453 
Q 2978 2031 2978 1484 
Q 2978 1100 2793 706 
Q 2609 313 2286 112 
Q 1963 -88 1566 -88 
Q 919 -88 538 428 
Q 216 863 216 1403 
Q 216 1797 411 2186 
Q 606 2575 925 2761 
Q 1244 2947 1600 2947 
z
M 1503 2744 
Q 1338 2744 1170 2645 
Q 1003 2547 900 2300 
Q 797 2053 797 1666 
Q 797 1041 1045 587 
Q 1294 134 1700 134 
Q 2003 134 2200 384 
Q 2397 634 2397 1244 
Q 2397 2006 2069 2444 
Q 1847 2744 1503 2744 
z
" transform="scale(0.015625)"/>
       <path id="TimesNewRomanPSMT-75" d="M 2709 2863 
L 2709 1128 
Q 2709 631 2732 520 
Q 2756 409 2807 365 
Q 2859 322 2928 322 
Q 3025 322 3147 375 
L 3191 266 
L 2334 -88 
L 2194 -88 
L 2194 519 
Q 1825 119 1631 15 
Q 1438 -88 1222 -88 
Q 981 -88 804 51 
Q 628 191 559 409 
Q 491 628 491 1028 
L 491 2306 
Q 491 2509 447 2587 
Q 403 2666 317 2708 
Q 231 2750 6 2747 
L 6 2863 
L 1009 2863 
L 1009 947 
Q 1009 547 1148 422 
Q 1288 297 1484 297 
Q 1619 297 1789 381 
Q 1959 466 2194 703 
L 2194 2325 
Q 2194 2569 2105 2655 
Q 2016 2741 1734 2747 
L 1734 2863 
L 2709 2863 
z
" transform="scale(0.015625)"/>
       <path id="TimesNewRomanPSMT-6e" d="M 1034 2341 
Q 1538 2947 1994 2947 
Q 2228 2947 2397 2830 
Q 2566 2713 2666 2444 
Q 2734 2256 2734 1869 
L 2734 647 
Q 2734 375 2778 278 
Q 2813 200 2889 156 
Q 2966 113 3172 113 
L 3172 0 
L 1756 0 
L 1756 113 
L 1816 113 
Q 2016 113 2095 173 
Q 2175 234 2206 353 
Q 2219 400 2219 647 
L 2219 1819 
Q 2219 2209 2117 2386 
Q 2016 2563 1775 2563 
Q 1403 2563 1034 2156 
L 1034 647 
Q 1034 356 1069 288 
Q 1113 197 1189 155 
Q 1266 113 1500 113 
L 1500 0 
L 84 0 
L 84 113 
L 147 113 
Q 366 113 442 223 
Q 519 334 519 647 
L 519 1709 
Q 519 2225 495 2337 
Q 472 2450 423 2490 
Q 375 2531 294 2531 
Q 206 2531 84 2484 
L 38 2597 
L 900 2947 
L 1034 2947 
L 1034 2341 
z
" transform="scale(0.015625)"/>
       <path id="TimesNewRomanPSMT-64" d="M 2222 322 
Q 2013 103 1813 7 
Q 1613 -88 1381 -88 
Q 913 -88 563 304 
Q 213 697 213 1313 
Q 213 1928 600 2439 
Q 988 2950 1597 2950 
Q 1975 2950 2222 2709 
L 2222 3238 
Q 2222 3728 2198 3840 
Q 2175 3953 2125 3993 
Q 2075 4034 2000 4034 
Q 1919 4034 1784 3984 
L 1744 4094 
L 2597 4444 
L 2738 4444 
L 2738 1134 
Q 2738 631 2761 520 
Q 2784 409 2836 365 
Q 2888 322 2956 322 
Q 3041 322 3181 375 
L 3216 266 
L 2366 -88 
L 2222 -88 
L 2222 322 
z
M 2222 541 
L 2222 2016 
Q 2203 2228 2109 2403 
Q 2016 2578 1861 2667 
Q 1706 2756 1559 2756 
Q 1284 2756 1069 2509 
Q 784 2184 784 1559 
Q 784 928 1059 592 
Q 1334 256 1672 256 
Q 1956 256 2222 541 
z
" transform="scale(0.015625)"/>
       <path id="TimesNewRomanPSMT-54" d="M 3703 4238 
L 3750 3244 
L 3631 3244 
Q 3597 3506 3538 3619 
Q 3441 3800 3280 3886 
Q 3119 3972 2856 3972 
L 2259 3972 
L 2259 734 
Q 2259 344 2344 247 
Q 2463 116 2709 116 
L 2856 116 
L 2856 0 
L 1059 0 
L 1059 116 
L 1209 116 
Q 1478 116 1591 278 
Q 1659 378 1659 734 
L 1659 3972 
L 1150 3972 
Q 853 3972 728 3928 
Q 566 3869 450 3700 
Q 334 3531 313 3244 
L 194 3244 
L 244 4238 
L 3703 4238 
z
" transform="scale(0.015625)"/>
       <path id="TimesNewRomanPSMT-68" d="M 1041 4444 
L 1041 2350 
Q 1388 2731 1591 2839 
Q 1794 2947 1997 2947 
Q 2241 2947 2416 2812 
Q 2591 2678 2675 2391 
Q 2734 2191 2734 1659 
L 2734 647 
Q 2734 375 2778 275 
Q 2809 200 2884 156 
Q 2959 113 3159 113 
L 3159 0 
L 1753 0 
L 1753 113 
L 1819 113 
Q 2019 113 2097 173 
Q 2175 234 2206 353 
Q 2216 403 2216 647 
L 2216 1659 
Q 2216 2128 2167 2275 
Q 2119 2422 2012 2495 
Q 1906 2569 1756 2569 
Q 1603 2569 1437 2487 
Q 1272 2406 1041 2159 
L 1041 647 
Q 1041 353 1073 281 
Q 1106 209 1195 161 
Q 1284 113 1503 113 
L 1503 0 
L 84 0 
L 84 113 
Q 275 113 384 172 
Q 447 203 484 290 
Q 522 378 522 647 
L 522 3238 
Q 522 3728 498 3840 
Q 475 3953 426 3993 
Q 378 4034 297 4034 
Q 231 4034 84 3984 
L 41 4094 
L 897 4444 
L 1041 4444 
z
" transform="scale(0.015625)"/>
      </defs>
      <use xlink:href="#TimesNewRomanPSMT-47"/>
      <use xlink:href="#TimesNewRomanPSMT-72" x="72.216797"/>
      <use xlink:href="#TimesNewRomanPSMT-6f" x="105.517578"/>
      <use xlink:href="#TimesNewRomanPSMT-75" x="155.517578"/>
      <use xlink:href="#TimesNewRomanPSMT-6e" x="205.517578"/>
      <use xlink:href="#TimesNewRomanPSMT-64" x="255.517578"/>
      <use xlink:href="#TimesNewRomanPSMT-54" x="305.517578"/>
      <use xlink:href="#TimesNewRomanPSMT-72" x="363.101562"/>
      <use xlink:href="#TimesNewRomanPSMT-75" x="396.402344"/>
      <use xlink:href="#TimesNewRomanPSMT-74" x="446.402344"/>
      <use xlink:href="#TimesNewRomanPSMT-68" x="474.185547"/>
     </g>
    </g>
    <g id="line2d_32">
     <path d="M 555.449063 118.760625 
L 573.449063 118.760625 
L 591.449063 118.760625 
" style="fill: none; stroke: #00ff00; stroke-width: 2; stroke-linecap: square"/>
    </g>
    <g id="text_18">
     <!-- ROLO -->
     <g transform="translate(605.849063 125.060625) scale(0.18 -0.18)">
      <defs>
       <path id="TimesNewRomanPSMT-52" d="M 4325 0 
L 3194 0 
L 1759 1981 
Q 1600 1975 1500 1975 
Q 1459 1975 1412 1976 
Q 1366 1978 1316 1981 
L 1316 750 
Q 1316 350 1403 253 
Q 1522 116 1759 116 
L 1925 116 
L 1925 0 
L 109 0 
L 109 116 
L 269 116 
Q 538 116 653 291 
Q 719 388 719 750 
L 719 3488 
Q 719 3888 631 3984 
Q 509 4122 269 4122 
L 109 4122 
L 109 4238 
L 1653 4238 
Q 2328 4238 2648 4139 
Q 2969 4041 3192 3777 
Q 3416 3513 3416 3147 
Q 3416 2756 3161 2468 
Q 2906 2181 2372 2063 
L 3247 847 
Q 3547 428 3762 290 
Q 3978 153 4325 116 
L 4325 0 
z
M 1316 2178 
Q 1375 2178 1419 2176 
Q 1463 2175 1491 2175 
Q 2097 2175 2405 2437 
Q 2713 2700 2713 3106 
Q 2713 3503 2464 3751 
Q 2216 4000 1806 4000 
Q 1625 4000 1316 3941 
L 1316 2178 
z
" transform="scale(0.015625)"/>
       <path id="TimesNewRomanPSMT-4f" d="M 2341 4334 
Q 3166 4334 3770 3707 
Q 4375 3081 4375 2144 
Q 4375 1178 3765 540 
Q 3156 -97 2291 -97 
Q 1416 -97 820 525 
Q 225 1147 225 2134 
Q 225 3144 913 3781 
Q 1509 4334 2341 4334 
z
M 2281 4106 
Q 1713 4106 1369 3684 
Q 941 3159 941 2147 
Q 941 1109 1384 550 
Q 1725 125 2284 125 
Q 2881 125 3270 590 
Q 3659 1056 3659 2059 
Q 3659 3147 3231 3681 
Q 2888 4106 2281 4106 
z
" transform="scale(0.015625)"/>
       <path id="TimesNewRomanPSMT-4c" d="M 3669 1172 
L 3772 1150 
L 3409 0 
L 128 0 
L 128 116 
L 288 116 
Q 556 116 672 291 
Q 738 391 738 753 
L 738 3488 
Q 738 3884 650 3984 
Q 528 4122 288 4122 
L 128 4122 
L 128 4238 
L 2047 4238 
L 2047 4122 
Q 1709 4125 1573 4059 
Q 1438 3994 1388 3894 
Q 1338 3794 1338 3416 
L 1338 753 
Q 1338 494 1388 397 
Q 1425 331 1503 300 
Q 1581 269 1991 269 
L 2300 269 
Q 2788 269 2984 341 
Q 3181 413 3343 595 
Q 3506 778 3669 1172 
z
" transform="scale(0.015625)"/>
      </defs>
      <use xlink:href="#TimesNewRomanPSMT-52"/>
      <use xlink:href="#TimesNewRomanPSMT-4f" x="66.699219"/>
      <use xlink:href="#TimesNewRomanPSMT-4c" x="138.916016"/>
      <use xlink:href="#TimesNewRomanPSMT-4f" x="200"/>
     </g>
    </g>
   </g>
  </g>
 </g>
 <defs>
  <clipPath id="p9169eb5743">
   <rect x="97.2" y="45.36" width="619.2" height="537.84"/>
  </clipPath>
 </defs>
</svg>
