<?xml version="1.0" encoding="utf-8" standalone="no"?>
<!DOCTYPE svg PUBLIC "-//W3C//DTD SVG 1.1//EN"
  "http://www.w3.org/Graphics/SVG/1.1/DTD/svg11.dtd">
<svg xmlns:xlink="http://www.w3.org/1999/xlink" width="648pt" height="648pt" viewBox="0 0 648 648" xmlns="http://www.w3.org/2000/svg" version="1.1">
 <metadata>
  <rdf:RDF xmlns:dc="http://purl.org/dc/elements/1.1/" xmlns:cc="http://creativecommons.org/ns#" xmlns:rdf="http://www.w3.org/1999/02/22-rdf-syntax-ns#">
   <cc:Work>
    <dc:type rdf:resource="http://purl.org/dc/dcmitype/StillImage"/>
    <dc:date>2024-08-06T11:46:49.064757</dc:date>
    <dc:format>image/svg+xml</dc:format>
    <dc:creator>
     <cc:Agent>
      <dc:title>Matplotlib v3.8.3, https://matplotlib.org/</dc:title>
     </cc:Agent>
    </dc:creator>
   </cc:Work>
  </rdf:RDF>
 </metadata>
 <defs>
  <style type="text/css">*{stroke-linejoin: round; stroke-linecap: butt}</style>
 </defs>
 <g id="figure_1">
  <g id="patch_1">
   <path d="M 0 648 
L 648 648 
L 648 0 
L 0 0 
z
" style="fill: #ffffff"/>
  </g>
  <g id="patch_2">
   <path d="M 42.12 623.7 
L 622.08 623.7 
L 622.08 43.74 
L 42.12 43.74 
z
" style="fill: #ffffff"/>
  </g>
  <g id="pane3d_1">
   <g id="patch_3">
    <path d="M 578.586628 418.441542 
L 259.402886 358.716901 
L 256.837372 114.423534 
L 586.547533 164.621752 
" style="fill: #ffffff; stroke: #ffffff; stroke-linejoin: miter"/>
   </g>
  </g>
  <g id="pane3d_2">
   <g id="patch_4">
    <path d="M 88.791215 490.10969 
L 259.402886 358.716901 
L 256.837372 114.423534 
L 79.959315 225.051662 
" style="fill: #ffffff; stroke: #ffffff; stroke-linejoin: miter"/>
   </g>
  </g>
  <g id="pane3d_3">
   <g id="patch_5">
    <path d="M 433.025965 562.759596 
L 578.586628 418.441542 
L 259.402886 358.716901 
L 88.791215 490.10969 
" style="fill: #ffffff; stroke: #ffffff; stroke-linejoin: miter"/>
   </g>
  </g>
  <g id="grid3d_1">
   <g id="Line3DCollection_1">
    <path d="M 436.237382 559.575594 
L 92.538455 487.223836 
L 83.856375 222.614251 
" style="fill: none; stroke: #bdc3c7; stroke-width: 0.5"/>
    <path d="M 453.139192 542.81807 
L 112.272811 472.02586 
L 104.370684 209.783606 
" style="fill: none; stroke: #bdc3c7; stroke-width: 0.5"/>
    <path d="M 469.669921 526.428458 
L 131.594227 457.145901 
L 124.440994 197.230659 
" style="fill: none; stroke: #bdc3c7; stroke-width: 0.5"/>
    <path d="M 485.841659 510.394774 
L 150.51553 442.574079 
L 144.081566 184.946491 
" style="fill: none; stroke: #bdc3c7; stroke-width: 0.5"/>
    <path d="M 501.665974 494.705547 
L 169.049022 428.300922 
L 163.306056 172.922562 
" style="fill: none; stroke: #bdc3c7; stroke-width: 0.5"/>
    <path d="M 517.153942 479.349795 
L 187.206504 414.317341 
L 182.127547 161.150687 
" style="fill: none; stroke: #bdc3c7; stroke-width: 0.5"/>
    <path d="M 532.316175 464.316998 
L 204.999304 400.614611 
L 200.558579 149.623024 
" style="fill: none; stroke: #bdc3c7; stroke-width: 0.5"/>
    <path d="M 547.16284 449.597074 
L 222.4383 387.184356 
L 218.611179 138.332052 
" style="fill: none; stroke: #bdc3c7; stroke-width: 0.5"/>
    <path d="M 561.70369 435.180355 
L 239.53394 374.018528 
L 236.296882 127.270554 
" style="fill: none; stroke: #bdc3c7; stroke-width: 0.5"/>
    <path d="M 575.948075 421.05757 
L 256.296267 361.109395 
L 253.626762 116.431605 
" style="fill: none; stroke: #bdc3c7; stroke-width: 0.5"/>
   </g>
  </g>
  <g id="grid3d_2">
   <g id="Line3DCollection_2">
    <path d="M 579.648911 163.57144 
L 571.917757 417.193684 
L 425.80129 561.234846 
" style="fill: none; stroke: #bdc3c7; stroke-width: 0.5"/>
    <path d="M 538.528619 157.310895 
L 532.15852 409.754063 
L 382.757208 552.150497 
" style="fill: none; stroke: #bdc3c7; stroke-width: 0.5"/>
    <path d="M 497.868021 151.120338 
L 492.829581 402.394958 
L 340.22746 543.174698 
" style="fill: none; stroke: #bdc3c7; stroke-width: 0.5"/>
    <path d="M 457.65945 144.998602 
L 453.923992 395.115069 
L 298.202882 534.305513 
" style="fill: none; stroke: #bdc3c7; stroke-width: 0.5"/>
    <path d="M 417.895412 138.944545 
L 415.434955 387.913123 
L 256.674528 525.541055 
" style="fill: none; stroke: #bdc3c7; stroke-width: 0.5"/>
    <path d="M 378.568573 132.957053 
L 377.355814 380.787876 
L 215.63366 516.879479 
" style="fill: none; stroke: #bdc3c7; stroke-width: 0.5"/>
    <path d="M 339.671765 127.035032 
L 339.680056 373.738109 
L 175.071743 508.318986 
" style="fill: none; stroke: #bdc3c7; stroke-width: 0.5"/>
    <path d="M 301.19797 121.177415 
L 302.401307 366.762628 
L 134.980444 499.857814 
" style="fill: none; stroke: #bdc3c7; stroke-width: 0.5"/>
    <path d="M 263.140327 115.383156 
L 265.513323 359.860267 
L 95.351618 491.494247 
" style="fill: none; stroke: #bdc3c7; stroke-width: 0.5"/>
   </g>
  </g>
  <g id="grid3d_3">
   <g id="Line3DCollection_3">
    <path d="M 88.620461 484.985137 
L 259.353129 353.978948 
L 578.740805 413.525845 
" style="fill: none; stroke: #bdc3c7; stroke-width: 0.5"/>
    <path d="M 87.591045 454.090886 
L 259.053291 325.427826 
L 579.670072 383.897764 
" style="fill: none; stroke: #bdc3c7; stroke-width: 0.5"/>
    <path d="M 86.553162 422.942503 
L 258.751214 296.663445 
L 580.6066 354.038196 
" style="fill: none; stroke: #bdc3c7; stroke-width: 0.5"/>
    <path d="M 85.506705 391.536839 
L 258.446872 267.683406 
L 581.550473 323.944418 
" style="fill: none; stroke: #bdc3c7; stroke-width: 0.5"/>
    <path d="M 84.451569 359.870693 
L 258.14024 238.485274 
L 582.501779 293.613662 
" style="fill: none; stroke: #bdc3c7; stroke-width: 0.5"/>
    <path d="M 83.387646 327.940812 
L 257.831292 209.06658 
L 583.460606 263.043119 
" style="fill: none; stroke: #bdc3c7; stroke-width: 0.5"/>
    <path d="M 82.314824 295.743886 
L 257.52 179.424813 
L 584.427043 232.229934 
" style="fill: none; stroke: #bdc3c7; stroke-width: 0.5"/>
    <path d="M 81.232992 263.276552 
L 257.20634 149.557427 
L 585.401182 201.171206 
" style="fill: none; stroke: #bdc3c7; stroke-width: 0.5"/>
    <path d="M 80.142036 230.535388 
L 256.890283 119.461836 
L 586.383114 169.863989 
" style="fill: none; stroke: #bdc3c7; stroke-width: 0.5"/>
   </g>
  </g>
  <g id="axis3d_1">
   <g id="line2d_1">
    <path d="M 578.586628 418.441542 
L 433.025965 562.759596 
" style="fill: none; stroke: #000000; stroke-width: 0.8; stroke-linecap: square"/>
   </g>
   <g id="xtick_1">
    <g id="line2d_2">
     <path d="M 433.350554 558.96789 
L 442.018018 560.79247 
" style="fill: none; stroke: #000000; stroke-width: 0.8; stroke-linecap: square"/>
    </g>
    <g id="text_1">
     <!-- 0 -->
     <g transform="translate(438.888271 577.007157) scale(0.14 -0.14)">
      <defs>
       <path id="DejaVuSans-30" d="M 2034 4250 
Q 1547 4250 1301 3770 
Q 1056 3291 1056 2328 
Q 1056 1369 1301 889 
Q 1547 409 2034 409 
Q 2525 409 2770 889 
Q 3016 1369 3016 2328 
Q 3016 3291 2770 3770 
Q 2525 4250 2034 4250 
z
M 2034 4750 
Q 2819 4750 3233 4129 
Q 3647 3509 3647 2328 
Q 3647 1150 3233 529 
Q 2819 -91 2034 -91 
Q 1250 -91 836 529 
Q 422 1150 422 2328 
Q 422 3509 836 4129 
Q 1250 4750 2034 4750 
z
" transform="scale(0.015625)"/>
      </defs>
      <use xlink:href="#DejaVuSans-30"/>
     </g>
    </g>
   </g>
   <g id="xtick_2">
    <g id="line2d_3">
     <path d="M 450.277665 542.223779 
L 458.869087 544.008073 
" style="fill: none; stroke: #000000; stroke-width: 0.8; stroke-linecap: square"/>
    </g>
    <g id="text_2">
     <!-- 80 -->
     <g transform="translate(451.26234 560.169357) scale(0.14 -0.14)">
      <defs>
       <path id="DejaVuSans-38" d="M 2034 2216 
Q 1584 2216 1326 1975 
Q 1069 1734 1069 1313 
Q 1069 891 1326 650 
Q 1584 409 2034 409 
Q 2484 409 2743 651 
Q 3003 894 3003 1313 
Q 3003 1734 2745 1975 
Q 2488 2216 2034 2216 
z
M 1403 2484 
Q 997 2584 770 2862 
Q 544 3141 544 3541 
Q 544 4100 942 4425 
Q 1341 4750 2034 4750 
Q 2731 4750 3128 4425 
Q 3525 4100 3525 3541 
Q 3525 3141 3298 2862 
Q 3072 2584 2669 2484 
Q 3125 2378 3379 2068 
Q 3634 1759 3634 1313 
Q 3634 634 3220 271 
Q 2806 -91 2034 -91 
Q 1263 -91 848 271 
Q 434 634 434 1313 
Q 434 1759 690 2068 
Q 947 2378 1403 2484 
z
M 1172 3481 
Q 1172 3119 1398 2916 
Q 1625 2713 2034 2713 
Q 2441 2713 2670 2916 
Q 2900 3119 2900 3481 
Q 2900 3844 2670 4047 
Q 2441 4250 2034 4250 
Q 1625 4250 1398 4047 
Q 1172 3844 1172 3481 
z
" transform="scale(0.015625)"/>
      </defs>
      <use xlink:href="#DejaVuSans-38"/>
      <use xlink:href="#DejaVuSans-30" x="63.623047"/>
     </g>
    </g>
   </g>
   <g id="xtick_3">
    <g id="line2d_4">
     <path d="M 466.833287 525.847141 
L 475.349898 527.592468 
" style="fill: none; stroke: #000000; stroke-width: 0.8; stroke-linecap: square"/>
    </g>
    <g id="text_3">
     <!-- 160 -->
     <g transform="translate(463.266849 543.701337) scale(0.14 -0.14)">
      <defs>
       <path id="DejaVuSans-31" d="M 794 531 
L 1825 531 
L 1825 4091 
L 703 3866 
L 703 4441 
L 1819 4666 
L 2450 4666 
L 2450 531 
L 3481 531 
L 3481 0 
L 794 0 
L 794 531 
z
" transform="scale(0.015625)"/>
       <path id="DejaVuSans-36" d="M 2113 2584 
Q 1688 2584 1439 2293 
Q 1191 2003 1191 1497 
Q 1191 994 1439 701 
Q 1688 409 2113 409 
Q 2538 409 2786 701 
Q 3034 994 3034 1497 
Q 3034 2003 2786 2293 
Q 2538 2584 2113 2584 
z
M 3366 4563 
L 3366 3988 
Q 3128 4100 2886 4159 
Q 2644 4219 2406 4219 
Q 1781 4219 1451 3797 
Q 1122 3375 1075 2522 
Q 1259 2794 1537 2939 
Q 1816 3084 2150 3084 
Q 2853 3084 3261 2657 
Q 3669 2231 3669 1497 
Q 3669 778 3244 343 
Q 2819 -91 2113 -91 
Q 1303 -91 875 529 
Q 447 1150 447 2328 
Q 447 3434 972 4092 
Q 1497 4750 2381 4750 
Q 2619 4750 2861 4703 
Q 3103 4656 3366 4563 
z
" transform="scale(0.015625)"/>
      </defs>
      <use xlink:href="#DejaVuSans-31"/>
      <use xlink:href="#DejaVuSans-36" x="63.623047"/>
      <use xlink:href="#DejaVuSans-30" x="127.246094"/>
     </g>
    </g>
   </g>
   <g id="xtick_4">
    <g id="line2d_5">
     <path d="M 483.029517 509.82601 
L 491.472522 511.533632 
" style="fill: none; stroke: #000000; stroke-width: 0.8; stroke-linecap: square"/>
    </g>
    <g id="text_4">
     <!-- 240 -->
     <g transform="translate(479.367588 527.591048) scale(0.14 -0.14)">
      <defs>
       <path id="DejaVuSans-32" d="M 1228 531 
L 3431 531 
L 3431 0 
L 469 0 
L 469 531 
Q 828 903 1448 1529 
Q 2069 2156 2228 2338 
Q 2531 2678 2651 2914 
Q 2772 3150 2772 3378 
Q 2772 3750 2511 3984 
Q 2250 4219 1831 4219 
Q 1534 4219 1204 4116 
Q 875 4013 500 3803 
L 500 4441 
Q 881 4594 1212 4672 
Q 1544 4750 1819 4750 
Q 2544 4750 2975 4387 
Q 3406 4025 3406 3419 
Q 3406 3131 3298 2873 
Q 3191 2616 2906 2266 
Q 2828 2175 2409 1742 
Q 1991 1309 1228 531 
z
" transform="scale(0.015625)"/>
       <path id="DejaVuSans-34" d="M 2419 4116 
L 825 1625 
L 2419 1625 
L 2419 4116 
z
M 2253 4666 
L 3047 4666 
L 3047 1625 
L 3713 1625 
L 3713 1100 
L 3047 1100 
L 3047 0 
L 2419 0 
L 2419 1100 
L 313 1100 
L 313 1709 
L 2253 4666 
z
" transform="scale(0.015625)"/>
      </defs>
      <use xlink:href="#DejaVuSans-32"/>
      <use xlink:href="#DejaVuSans-34" x="63.623047"/>
      <use xlink:href="#DejaVuSans-30" x="127.246094"/>
     </g>
    </g>
   </g>
   <g id="xtick_5">
    <g id="line2d_6">
     <path d="M 498.877931 494.148933 
L 507.248511 495.820061 
" style="fill: none; stroke: #000000; stroke-width: 0.8; stroke-linecap: square"/>
    </g>
    <g id="text_5">
     <!-- 320 -->
     <g transform="translate(495.122333 511.82696) scale(0.14 -0.14)">
      <defs>
       <path id="DejaVuSans-33" d="M 2597 2516 
Q 3050 2419 3304 2112 
Q 3559 1806 3559 1356 
Q 3559 666 3084 287 
Q 2609 -91 1734 -91 
Q 1441 -91 1130 -33 
Q 819 25 488 141 
L 488 750 
Q 750 597 1062 519 
Q 1375 441 1716 441 
Q 2309 441 2620 675 
Q 2931 909 2931 1356 
Q 2931 1769 2642 2001 
Q 2353 2234 1838 2234 
L 1294 2234 
L 1294 2753 
L 1863 2753 
Q 2328 2753 2575 2939 
Q 2822 3125 2822 3475 
Q 2822 3834 2567 4026 
Q 2313 4219 1838 4219 
Q 1578 4219 1281 4162 
Q 984 4106 628 3988 
L 628 4550 
Q 988 4650 1302 4700 
Q 1616 4750 1894 4750 
Q 2613 4750 3031 4423 
Q 3450 4097 3450 3541 
Q 3450 3153 3228 2886 
Q 3006 2619 2597 2516 
z
" transform="scale(0.015625)"/>
      </defs>
      <use xlink:href="#DejaVuSans-33"/>
      <use xlink:href="#DejaVuSans-32" x="63.623047"/>
      <use xlink:href="#DejaVuSans-30" x="127.246094"/>
     </g>
    </g>
   </g>
   <g id="xtick_6">
    <g id="line2d_7">
     <path d="M 514.389615 478.804947 
L 522.688925 480.440737 
" style="fill: none; stroke: #000000; stroke-width: 0.8; stroke-linecap: square"/>
    </g>
    <g id="text_6">
     <!-- 400 -->
     <g transform="translate(510.542117 496.39803) scale(0.14 -0.14)">
      <use xlink:href="#DejaVuSans-34"/>
      <use xlink:href="#DejaVuSans-30" x="63.623047"/>
      <use xlink:href="#DejaVuSans-30" x="127.246094"/>
     </g>
    </g>
   </g>
   <g id="xtick_7">
    <g id="line2d_8">
     <path d="M 529.575187 463.783547 
L 537.804358 465.385108 
" style="fill: none; stroke: #000000; stroke-width: 0.8; stroke-linecap: square"/>
    </g>
    <g id="text_7">
     <!-- 480 -->
     <g transform="translate(525.637511 481.293684) scale(0.14 -0.14)">
      <use xlink:href="#DejaVuSans-34"/>
      <use xlink:href="#DejaVuSans-38" x="63.623047"/>
      <use xlink:href="#DejaVuSans-30" x="127.246094"/>
     </g>
    </g>
   </g>
   <g id="xtick_8">
    <g id="line2d_9">
     <path d="M 544.444825 449.074666 
L 552.604963 450.643061 
" style="fill: none; stroke: #000000; stroke-width: 0.8; stroke-linecap: square"/>
    </g>
    <g id="text_8">
     <!-- 560 -->
     <g transform="translate(540.418643 466.503785) scale(0.14 -0.14)">
      <defs>
       <path id="DejaVuSans-35" d="M 691 4666 
L 3169 4666 
L 3169 4134 
L 1269 4134 
L 1269 2991 
Q 1406 3038 1543 3061 
Q 1681 3084 1819 3084 
Q 2600 3084 3056 2656 
Q 3513 2228 3513 1497 
Q 3513 744 3044 326 
Q 2575 -91 1722 -91 
Q 1428 -91 1123 -41 
Q 819 9 494 109 
L 494 744 
Q 775 591 1075 516 
Q 1375 441 1709 441 
Q 2250 441 2565 725 
Q 2881 1009 2881 1497 
Q 2881 1984 2565 2268 
Q 2250 2553 1709 2553 
Q 1456 2553 1204 2497 
Q 953 2441 691 2322 
L 691 4666 
z
" transform="scale(0.015625)"/>
      </defs>
      <use xlink:href="#DejaVuSans-35"/>
      <use xlink:href="#DejaVuSans-36" x="63.623047"/>
      <use xlink:href="#DejaVuSans-30" x="127.246094"/>
     </g>
    </g>
   </g>
   <g id="xtick_9">
    <g id="line2d_10">
     <path d="M 559.008287 434.668651 
L 567.100476 436.2049 
" style="fill: none; stroke: #000000; stroke-width: 0.8; stroke-linecap: square"/>
    </g>
    <g id="text_9">
     <!-- 640 -->
     <g transform="translate(554.895228 452.018615) scale(0.14 -0.14)">
      <use xlink:href="#DejaVuSans-36"/>
      <use xlink:href="#DejaVuSans-34" x="63.623047"/>
      <use xlink:href="#DejaVuSans-30" x="127.246094"/>
     </g>
    </g>
   </g>
   <g id="xtick_10">
    <g id="line2d_11">
     <path d="M 573.274932 420.556243 
L 581.300232 422.061325 
" style="fill: none; stroke: #000000; stroke-width: 0.8; stroke-linecap: square"/>
    </g>
    <g id="text_10">
     <!-- 720 -->
     <g transform="translate(569.07658 437.828851) scale(0.14 -0.14)">
      <defs>
       <path id="DejaVuSans-37" d="M 525 4666 
L 3525 4666 
L 3525 4397 
L 1831 0 
L 1172 0 
L 2766 4134 
L 525 4134 
L 525 4666 
z
" transform="scale(0.015625)"/>
      </defs>
      <use xlink:href="#DejaVuSans-37"/>
      <use xlink:href="#DejaVuSans-32" x="63.623047"/>
      <use xlink:href="#DejaVuSans-30" x="127.246094"/>
     </g>
    </g>
   </g>
   <g id="text_11">
    <!-- X (m) -->
    <g transform="translate(524.211253 531.175085) rotate(-44.754395) scale(0.18 -0.18)">
     <defs>
      <path id="TimesNewRomanPSMT-58" d="M 2613 2347 
L 3522 991 
Q 3900 428 4083 279 
Q 4266 131 4547 116 
L 4547 0 
L 2728 0 
L 2728 116 
Q 2909 119 2997 153 
Q 3063 181 3105 239 
Q 3147 297 3147 356 
Q 3147 428 3119 500 
Q 3097 553 2947 775 
L 2228 1863 
L 1341 725 
Q 1200 544 1172 483 
Q 1144 422 1144 356 
Q 1144 256 1228 190 
Q 1313 125 1550 116 
L 1550 0 
L 47 0 
L 47 116 
Q 206 131 322 181 
Q 516 263 691 400 
Q 866 538 1091 822 
L 2091 2084 
L 1256 3306 
Q 916 3803 678 3958 
Q 441 4113 131 4122 
L 131 4238 
L 2091 4238 
L 2091 4122 
Q 1841 4113 1748 4041 
Q 1656 3969 1656 3881 
Q 1656 3766 1806 3544 
L 2456 2572 
L 3209 3525 
Q 3341 3694 3370 3756 
Q 3400 3819 3400 3884 
Q 3400 3950 3363 4000 
Q 3316 4066 3244 4092 
Q 3172 4119 2947 4122 
L 2947 4238 
L 4450 4238 
L 4450 4122 
Q 4272 4113 4159 4066 
Q 3991 3994 3850 3872 
Q 3709 3750 3453 3422 
L 2613 2347 
z
" transform="scale(0.015625)"/>
      <path id="TimesNewRomanPSMT-20" transform="scale(0.015625)"/>
      <path id="TimesNewRomanPSMT-28" d="M 1988 -1253 
L 1988 -1369 
Q 1516 -1131 1200 -813 
Q 750 -359 506 256 
Q 263 872 263 1534 
Q 263 2503 741 3301 
Q 1219 4100 1988 4444 
L 1988 4313 
Q 1603 4100 1356 3731 
Q 1109 3363 987 2797 
Q 866 2231 866 1616 
Q 866 947 969 400 
Q 1050 -31 1165 -292 
Q 1281 -553 1476 -793 
Q 1672 -1034 1988 -1253 
z
" transform="scale(0.015625)"/>
      <path id="TimesNewRomanPSMT-6d" d="M 1050 2338 
Q 1363 2650 1419 2697 
Q 1559 2816 1721 2881 
Q 1884 2947 2044 2947 
Q 2313 2947 2506 2790 
Q 2700 2634 2766 2338 
Q 3088 2713 3309 2830 
Q 3531 2947 3766 2947 
Q 3994 2947 4170 2830 
Q 4347 2713 4450 2447 
Q 4519 2266 4519 1878 
L 4519 647 
Q 4519 378 4559 278 
Q 4591 209 4675 161 
Q 4759 113 4950 113 
L 4950 0 
L 3538 0 
L 3538 113 
L 3597 113 
Q 3781 113 3884 184 
Q 3956 234 3988 344 
Q 4000 397 4000 647 
L 4000 1878 
Q 4000 2228 3916 2372 
Q 3794 2572 3525 2572 
Q 3359 2572 3192 2489 
Q 3025 2406 2788 2181 
L 2781 2147 
L 2788 2013 
L 2788 647 
Q 2788 353 2820 281 
Q 2853 209 2943 161 
Q 3034 113 3253 113 
L 3253 0 
L 1806 0 
L 1806 113 
Q 2044 113 2133 169 
Q 2222 225 2256 338 
Q 2272 391 2272 647 
L 2272 1878 
Q 2272 2228 2169 2381 
Q 2031 2581 1784 2581 
Q 1616 2581 1450 2491 
Q 1191 2353 1050 2181 
L 1050 647 
Q 1050 366 1089 281 
Q 1128 197 1204 155 
Q 1281 113 1516 113 
L 1516 0 
L 100 0 
L 100 113 
Q 297 113 375 155 
Q 453 197 493 289 
Q 534 381 534 647 
L 534 1741 
Q 534 2213 506 2350 
Q 484 2453 437 2492 
Q 391 2531 309 2531 
Q 222 2531 100 2484 
L 53 2597 
L 916 2947 
L 1050 2947 
L 1050 2338 
z
" transform="scale(0.015625)"/>
      <path id="TimesNewRomanPSMT-29" d="M 144 4313 
L 144 4444 
Q 619 4209 934 3891 
Q 1381 3434 1625 2820 
Q 1869 2206 1869 1541 
Q 1869 572 1392 -226 
Q 916 -1025 144 -1369 
L 144 -1253 
Q 528 -1038 776 -670 
Q 1025 -303 1145 264 
Q 1266 831 1266 1447 
Q 1266 2113 1163 2663 
Q 1084 3094 967 3353 
Q 850 3613 656 3853 
Q 463 4094 144 4313 
z
" transform="scale(0.015625)"/>
     </defs>
     <use xlink:href="#TimesNewRomanPSMT-58"/>
     <use xlink:href="#TimesNewRomanPSMT-20" x="72.216797"/>
     <use xlink:href="#TimesNewRomanPSMT-28" x="97.216797"/>
     <use xlink:href="#TimesNewRomanPSMT-6d" x="130.517578"/>
     <use xlink:href="#TimesNewRomanPSMT-29" x="208.300781"/>
    </g>
   </g>
  </g>
  <g id="axis3d_2">
   <g id="line2d_12">
    <path d="M 88.791215 490.10969 
L 433.025965 562.759596 
" style="fill: none; stroke: #000000; stroke-width: 0.8; stroke-linecap: square"/>
   </g>
   <g id="xtick_11">
    <g id="line2d_13">
     <path d="M 427.09227 559.962203 
L 423.212794 563.786579 
" style="fill: none; stroke: #000000; stroke-width: 0.8; stroke-linecap: square"/>
    </g>
    <g id="text_12">
     <!-- −300 -->
     <g transform="translate(400.292173 588.110516) scale(0.14 -0.14)">
      <defs>
       <path id="DejaVuSans-2212" d="M 678 2272 
L 4684 2272 
L 4684 1741 
L 678 1741 
L 678 2272 
z
" transform="scale(0.015625)"/>
      </defs>
      <use xlink:href="#DejaVuSans-2212"/>
      <use xlink:href="#DejaVuSans-33" x="83.789062"/>
      <use xlink:href="#DejaVuSans-30" x="147.412109"/>
      <use xlink:href="#DejaVuSans-30" x="211.035156"/>
     </g>
    </g>
   </g>
   <g id="xtick_12">
    <g id="line2d_14">
     <path d="M 384.07646 550.8931 
L 380.112062 554.671622 
" style="fill: none; stroke: #000000; stroke-width: 0.8; stroke-linecap: square"/>
    </g>
    <g id="text_13">
     <!-- −220 -->
     <g transform="translate(357.172129 578.904291) scale(0.14 -0.14)">
      <use xlink:href="#DejaVuSans-2212"/>
      <use xlink:href="#DejaVuSans-32" x="83.789062"/>
      <use xlink:href="#DejaVuSans-32" x="147.412109"/>
      <use xlink:href="#DejaVuSans-30" x="211.035156"/>
     </g>
    </g>
   </g>
   <g id="xtick_13">
    <g id="line2d_15">
     <path d="M 341.57422 541.932274 
L 337.5272 545.665762 
" style="fill: none; stroke: #000000; stroke-width: 0.8; stroke-linecap: square"/>
    </g>
    <g id="text_14">
     <!-- −140 -->
     <g transform="translate(314.56868 569.808361) scale(0.14 -0.14)">
      <use xlink:href="#DejaVuSans-2212"/>
      <use xlink:href="#DejaVuSans-31" x="83.789062"/>
      <use xlink:href="#DejaVuSans-34" x="147.412109"/>
      <use xlink:href="#DejaVuSans-30" x="211.035156"/>
     </g>
    </g>
   </g>
   <g id="xtick_14">
    <g id="line2d_16">
     <path d="M 299.576406 533.077797 
L 295.449003 536.767052 
" style="fill: none; stroke: #000000; stroke-width: 0.8; stroke-linecap: square"/>
    </g>
    <g id="text_15">
     <!-- −60 -->
     <g transform="translate(276.92635 560.820755) scale(0.14 -0.14)">
      <use xlink:href="#DejaVuSans-2212"/>
      <use xlink:href="#DejaVuSans-36" x="83.789062"/>
      <use xlink:href="#DejaVuSans-30" x="147.412109"/>
     </g>
    </g>
   </g>
   <g id="xtick_15">
    <g id="line2d_17">
     <path d="M 258.074091 524.327787 
L 253.868481 527.97359 
" style="fill: none; stroke: #000000; stroke-width: 0.8; stroke-linecap: square"/>
    </g>
    <g id="text_16">
     <!-- 20 -->
     <g transform="translate(241.19441 551.939549) scale(0.14 -0.14)">
      <use xlink:href="#DejaVuSans-32"/>
      <use xlink:href="#DejaVuSans-30" x="63.623047"/>
     </g>
    </g>
   </g>
   <g id="xtick_16">
    <g id="line2d_18">
     <path d="M 217.058558 515.680406 
L 212.776858 519.283521 
" style="fill: none; stroke: #000000; stroke-width: 0.8; stroke-linecap: square"/>
    </g>
    <g id="text_17">
     <!-- 100 -->
     <g transform="translate(195.6325 543.162866) scale(0.14 -0.14)">
      <use xlink:href="#DejaVuSans-31"/>
      <use xlink:href="#DejaVuSans-30" x="63.623047"/>
      <use xlink:href="#DejaVuSans-30" x="127.246094"/>
     </g>
    </g>
   </g>
   <g id="xtick_17">
    <g id="line2d_19">
     <path d="M 176.521293 507.133859 
L 172.165559 510.695031 
" style="fill: none; stroke: #000000; stroke-width: 0.8; stroke-linecap: square"/>
    </g>
    <g id="text_18">
     <!-- 180 -->
     <g transform="translate(155.005308 534.488871) scale(0.14 -0.14)">
      <use xlink:href="#DejaVuSans-31"/>
      <use xlink:href="#DejaVuSans-38" x="63.623047"/>
      <use xlink:href="#DejaVuSans-30" x="127.246094"/>
     </g>
    </g>
   </g>
   <g id="xtick_18">
    <g id="line2d_20">
     <path d="M 136.453979 498.686393 
L 132.026214 502.20635 
" style="fill: none; stroke: #000000; stroke-width: 0.8; stroke-linecap: square"/>
    </g>
    <g id="text_19">
     <!-- 260 -->
     <g transform="translate(114.850693 525.915773) scale(0.14 -0.14)">
      <use xlink:href="#DejaVuSans-32"/>
      <use xlink:href="#DejaVuSans-36" x="63.623047"/>
      <use xlink:href="#DejaVuSans-30" x="127.246094"/>
     </g>
    </g>
   </g>
   <g id="xtick_19">
    <g id="line2d_21">
     <path d="M 96.84849 490.336294 
L 92.350642 493.815747 
" style="fill: none; stroke: #000000; stroke-width: 0.8; stroke-linecap: square"/>
    </g>
    <g id="text_20">
     <!-- 340 -->
     <g transform="translate(75.160458 517.44182) scale(0.14 -0.14)">
      <use xlink:href="#DejaVuSans-33"/>
      <use xlink:href="#DejaVuSans-34" x="63.623047"/>
      <use xlink:href="#DejaVuSans-30" x="127.246094"/>
     </g>
    </g>
   </g>
   <g id="text_21">
    <!-- Y (m) -->
    <g transform="translate(217.041143 568.025028) rotate(-348.082747) scale(0.18 -0.18)">
     <defs>
      <path id="TimesNewRomanPSMT-59" d="M 3050 4238 
L 4528 4238 
L 4528 4122 
L 4447 4122 
Q 4366 4122 4209 4050 
Q 4053 3978 3925 3843 
Q 3797 3709 3609 3406 
L 2588 1797 
L 2588 734 
Q 2588 344 2675 247 
Q 2794 116 3050 116 
L 3188 116 
L 3188 0 
L 1388 0 
L 1388 116 
L 1538 116 
Q 1806 116 1919 278 
Q 1988 378 1988 734 
L 1988 1738 
L 825 3513 
Q 619 3825 545 3903 
Q 472 3981 241 4091 
Q 178 4122 59 4122 
L 59 4238 
L 1872 4238 
L 1872 4122 
L 1778 4122 
Q 1631 4122 1507 4053 
Q 1384 3984 1384 3847 
Q 1384 3734 1575 3441 
L 2459 2075 
L 3291 3381 
Q 3478 3675 3478 3819 
Q 3478 3906 3433 3975 
Q 3388 4044 3303 4083 
Q 3219 4122 3050 4122 
L 3050 4238 
z
" transform="scale(0.015625)"/>
     </defs>
     <use xlink:href="#TimesNewRomanPSMT-59"/>
     <use xlink:href="#TimesNewRomanPSMT-20" x="68.466797"/>
     <use xlink:href="#TimesNewRomanPSMT-28" x="93.466797"/>
     <use xlink:href="#TimesNewRomanPSMT-6d" x="126.767578"/>
     <use xlink:href="#TimesNewRomanPSMT-29" x="204.550781"/>
    </g>
   </g>
  </g>
  <g id="axis3d_3">
   <g id="line2d_22">
    <path d="M 88.791215 490.10969 
L 79.959315 225.051662 
" style="fill: none; stroke: #000000; stroke-width: 0.8; stroke-linecap: square"/>
   </g>
   <g id="xtick_20">
    <g id="line2d_23">
     <path d="M 90.122318 483.832736 
L 85.609495 487.295505 
" style="fill: none; stroke: #000000; stroke-width: 0.8; stroke-linecap: square"/>
    </g>
    <g id="text_22">
     <!-- −300 -->
     <g transform="translate(41.995744 499.617518) scale(0.14 -0.14)">
      <use xlink:href="#DejaVuSans-2212"/>
      <use xlink:href="#DejaVuSans-33" x="83.789062"/>
      <use xlink:href="#DejaVuSans-30" x="147.412109"/>
      <use xlink:href="#DejaVuSans-30" x="211.035156"/>
     </g>
    </g>
   </g>
   <g id="xtick_21">
    <g id="line2d_24">
     <path d="M 89.099879 452.958677 
L 84.566062 456.360795 
" style="fill: none; stroke: #000000; stroke-width: 0.8; stroke-linecap: square"/>
    </g>
    <g id="text_23">
     <!-- −220 -->
     <g transform="translate(40.850915 468.653333) scale(0.14 -0.14)">
      <use xlink:href="#DejaVuSans-2212"/>
      <use xlink:href="#DejaVuSans-32" x="83.789062"/>
      <use xlink:href="#DejaVuSans-32" x="147.412109"/>
      <use xlink:href="#DejaVuSans-30" x="211.035156"/>
     </g>
    </g>
   </g>
   <g id="xtick_22">
    <g id="line2d_25">
     <path d="M 88.069036 421.830857 
L 83.514032 425.171207 
" style="fill: none; stroke: #000000; stroke-width: 0.8; stroke-linecap: square"/>
    </g>
    <g id="text_24">
     <!-- −140 -->
     <g transform="translate(39.696641 437.433726) scale(0.14 -0.14)">
      <use xlink:href="#DejaVuSans-2212"/>
      <use xlink:href="#DejaVuSans-31" x="83.789062"/>
      <use xlink:href="#DejaVuSans-34" x="147.412109"/>
      <use xlink:href="#DejaVuSans-30" x="211.035156"/>
     </g>
    </g>
   </g>
   <g id="xtick_23">
    <g id="line2d_26">
     <path d="M 87.029686 390.446136 
L 82.453298 393.723578 
" style="fill: none; stroke: #000000; stroke-width: 0.8; stroke-linecap: square"/>
    </g>
    <g id="text_25">
     <!-- −60 -->
     <g transform="translate(42.986557 405.955523) scale(0.14 -0.14)">
      <use xlink:href="#DejaVuSans-2212"/>
      <use xlink:href="#DejaVuSans-36" x="83.789062"/>
      <use xlink:href="#DejaVuSans-30" x="147.412109"/>
     </g>
    </g>
   </g>
   <g id="xtick_24">
    <g id="line2d_27">
     <path d="M 85.981722 358.801319 
L 81.383752 362.014692 
" style="fill: none; stroke: #000000; stroke-width: 0.8; stroke-linecap: square"/>
    </g>
    <g id="text_26">
     <!-- 20 -->
     <g transform="translate(47.678823 374.215499) scale(0.14 -0.14)">
      <use xlink:href="#DejaVuSans-32"/>
      <use xlink:href="#DejaVuSans-30" x="63.623047"/>
     </g>
    </g>
   </g>
   <g id="xtick_25">
    <g id="line2d_28">
     <path d="M 84.925037 326.89316 
L 80.305283 330.041281 
" style="fill: none; stroke: #000000; stroke-width: 0.8; stroke-linecap: square"/>
    </g>
    <g id="text_27">
     <!-- 100 -->
     <g transform="translate(42.041757 342.210372) scale(0.14 -0.14)">
      <use xlink:href="#DejaVuSans-31"/>
      <use xlink:href="#DejaVuSans-30" x="63.623047"/>
      <use xlink:href="#DejaVuSans-30" x="127.246094"/>
     </g>
    </g>
   </g>
   <g id="xtick_26">
    <g id="line2d_29">
     <path d="M 83.859522 294.718358 
L 79.21778 297.80002 
" style="fill: none; stroke: #000000; stroke-width: 0.8; stroke-linecap: square"/>
    </g>
    <g id="text_28">
     <!-- 180 -->
     <g transform="translate(40.848516 309.936807) scale(0.14 -0.14)">
      <use xlink:href="#DejaVuSans-31"/>
      <use xlink:href="#DejaVuSans-38" x="63.623047"/>
      <use xlink:href="#DejaVuSans-30" x="127.246094"/>
     </g>
    </g>
   </g>
   <g id="xtick_27">
    <g id="line2d_30">
     <path d="M 82.785066 262.273557 
L 78.121128 265.287529 
" style="fill: none; stroke: #000000; stroke-width: 0.8; stroke-linecap: square"/>
    </g>
    <g id="text_29">
     <!-- 260 -->
     <g transform="translate(39.645225 277.391414) scale(0.14 -0.14)">
      <use xlink:href="#DejaVuSans-32"/>
      <use xlink:href="#DejaVuSans-36" x="63.623047"/>
      <use xlink:href="#DejaVuSans-30" x="127.246094"/>
     </g>
    </g>
   </g>
   <g id="xtick_28">
    <g id="line2d_31">
     <path d="M 81.701555 229.555343 
L 77.015212 232.500372 
" style="fill: none; stroke: #000000; stroke-width: 0.8; stroke-linecap: square"/>
    </g>
    <g id="text_30">
     <!-- 340 -->
     <g transform="translate(38.431755 244.570743) scale(0.14 -0.14)">
      <use xlink:href="#DejaVuSans-33"/>
      <use xlink:href="#DejaVuSans-34" x="63.623047"/>
      <use xlink:href="#DejaVuSans-30" x="127.246094"/>
     </g>
    </g>
   </g>
   <g id="text_31">
    <!-- Z (m) -->
    <g transform="translate(20.036291 347.187938) rotate(-271.908425) scale(0.18 -0.18)">
     <defs>
      <path id="TimesNewRomanPSMT-5a" d="M 3681 4238 
L 897 256 
L 2634 256 
Q 3034 256 3248 431 
Q 3463 606 3628 1141 
L 3731 1122 
L 3531 0 
L 81 0 
L 81 116 
L 2800 3984 
L 1444 3984 
Q 1106 3984 954 3911 
Q 803 3838 723 3698 
Q 644 3559 578 3178 
L 459 3178 
L 547 4238 
L 3681 4238 
z
" transform="scale(0.015625)"/>
     </defs>
     <use xlink:href="#TimesNewRomanPSMT-5a"/>
     <use xlink:href="#TimesNewRomanPSMT-20" x="61.083984"/>
     <use xlink:href="#TimesNewRomanPSMT-28" x="86.083984"/>
     <use xlink:href="#TimesNewRomanPSMT-6d" x="119.384766"/>
     <use xlink:href="#TimesNewRomanPSMT-29" x="197.167969"/>
    </g>
   </g>
  </g>
  <g id="axes_1">
   <g id="line2d_32">
    <defs>
     <path id="mcc9b53d709" d="M 0 -3 
L -0.673542 -0.927051 
L -2.85317 -0.927051 
L -1.089814 0.354102 
L -1.763356 2.427051 
L -0 1.145898 
L 1.763356 2.427051 
L 1.089814 0.354102 
L 2.85317 -0.927051 
L 0.673542 -0.927051 
z
" style="stroke: #ff0000; stroke-linejoin: bevel"/>
    </defs>
    <g clip-path="url(#p6f34ef5255)">
     <use xlink:href="#mcc9b53d709" x="269.334729" y="399.97635" style="fill: #ff0000; stroke: #ff0000; stroke-linejoin: bevel"/>
    </g>
   </g>
   <g id="line2d_33">
    <path d="M 269.334729 399.97635 
L 269.335005 399.976365 
L 273.019768 396.818688 
L 284.177261 387.030282 
L 286.194357 385.583092 
L 287.565637 384.906569 
L 289.113688 384.361628 
L 291.030018 384.000399 
L 292.526896 383.815559 
L 294.189798 383.74163 
L 296.97738 383.89244 
L 301.239822 384.514394 
L 308.206784 385.71057 
L 319.173681 387.496577 
L 359.423022 393.664441 
L 368.549126 395.022946 
L 380.733356 396.700072 
L 389.870772 397.714671 
L 396.566294 397.939829 
L 399.214599 397.88232 
L 403.707953 397.520185 
L 407.390573 397.006577 
L 411.039683 396.321705 
L 421.49046 393.925271 
L 428.486985 392.274997 
L 440.861535 389.272447 
L 471.337983 381.930662 
L 477.931814 380.322974 
L 508.188546 372.860193 
L 514.871888 371.226545 
L 516.597647 370.546265 
L 517.742155 369.829626 
L 518.248559 369.34384 
L 518.567318 368.824742 
L 518.671348 368.268081 
L 518.553522 367.647738 
L 518.187094 367.010992 
L 517.573795 366.369214 
L 516.161286 365.381153 
L 512.932647 363.61747 
L 506.067529 360.13439 
L 501.315989 357.748079 
L 497.207424 355.468312 
L 490.980016 352.074476 
L 484.699613 348.619347 
L 473.268465 342.315196 
L 465.433773 338.039265 
L 441.074183 324.172037 
L 435.773331 321.177401 
L 430.370077 318.126984 
L 426.374641 315.860804 
L 419.479045 311.808555 
L 409.180665 305.590063 
L 398.730284 299.490415 
L 392.685317 295.835759 
L 377.980059 287.082238 
L 369.966158 282.420571 
L 350.938098 271.039825 
L 345.012318 267.511536 
L 341.7084 265.508107 
L 334.695658 261.250072 
L 331.187607 259.115635 
L 320.855723 252.776728 
L 312.558759 247.723197 
L 307.549546 244.753725 
L 299.574364 239.983265 
L 287.973219 232.978027 
L 286.775505 232.475009 
L 285.508214 232.103629 
L 283.478278 231.775405 
L 281.333257 231.731302 
L 279.161942 231.988133 
L 274.797519 232.877383 
L 266.42132 234.759997 
L 260.719791 236.00416 
L 253.289926 237.573182 
L 251.973828 238.037124 
L 250.950836 238.58888 
L 250.377236 239.206557 
L 250.256231 239.51636 
L 250.275085 239.822266 
L 250.645065 240.419146 
L 251.403408 241.040869 
L 254.726834 243.084991 
L 270.545397 252.909508 
L 273.960325 255.414263 
L 276.827686 257.725852 
L 284.20424 263.973277 
L 289.730099 268.678651 
L 298.644639 275.682947 
L 303.696207 279.149527 
L 308.635776 282.284391 
L 311.903914 284.258379 
L 314.286869 285.514033 
L 316.562164 286.454094 
L 319.145251 287.252898 
L 321.964148 287.876384 
L 324.325694 288.214804 
L 327.238833 288.399712 
L 329.958157 288.349887 
L 332.351071 288.117493 
L 338.828715 287.127537 
L 341.516716 286.701892 
L 343.451121 286.611543 
L 345.202021 286.805305 
L 346.178472 287.085942 
L 347.486432 287.704805 
L 358.100955 294.157006 
L 359.119966 295.0733 
L 359.802303 295.991094 
L 360.145054 296.898189 
L 361.465925 305.319793 
L 361.87195 306.632542 
L 362.254527 307.265808 
L 363.186435 308.170297 
L 365.363487 309.646139 
L 369.155742 311.874532 
L 377.512663 316.764861 
L 378.256744 317.400738 
L 378.550913 317.984987 
L 378.520144 318.237772 
L 378.100243 318.676709 
L 377.152202 319.04735 
L 375.027753 319.516205 
L 340.005347 326.092084 
L 335.171643 326.951357 
L 292.191591 336.866451 
L 228.19217 352.581923 
L 225.878507 353.42281 
L 223.995451 354.347297 
L 222.557266 355.421939 
L 213.875301 363.531693 
L 213.498138 364.236921 
L 213.44113 364.950411 
L 213.690434 365.650565 
L 214.252717 366.282835 
L 215.153924 366.876058 
L 216.389103 367.419135 
L 218.702708 368.122973 
L 222.130643 368.911312 
L 230.049491 370.501904 
L 238.507282 372.244501 
L 248.561691 374.38722 
L 259.128117 376.581156 
L 272.234447 379.31689 
L 274.994527 380.056401 
L 276.637636 380.683287 
L 278.015009 381.439349 
L 278.749188 382.014403 
L 279.280166 382.626202 
L 279.560595 383.164258 
L 279.65819 383.808491 
L 279.535351 384.526948 
L 279.220488 385.236916 
L 278.507257 386.253697 
L 277.05231 387.776655 
L 270.572841 393.726274 
L 267.578125 396.008923 
L 264.985605 398.009069 
L 263.507088 399.356491 
L 262.870882 400.156129 
L 262.696944 400.536067 
L 262.720859 400.819671 
L 262.933752 401.139792 
L 263.248052 401.370556 
L 264.441521 401.770429 
L 265.702602 401.907629 
L 267.029723 401.797487 
L 268.039648 401.448983 
L 268.805747 400.81815 
L 270.327666 399.327738 
L 273.902227 396.029498 
L 273.902227 396.029498 
" clip-path="url(#p6f34ef5255)" style="fill: none; stroke-dasharray: 10.175,4.4; stroke-dashoffset: 0; stroke: #808a87; stroke-width: 2.75"/>
   </g>
   <g id="line2d_34">
    <path d="M 269.334729 399.97635 
L 269.291654 399.986054 
L 269.458126 399.889373 
L 270.468307 399.120542 
L 273.387486 396.6167 
L 274.292125 395.811081 
L 278.588277 392.502159 
L 280.178324 391.346275 
L 280.788275 390.904389 
L 283.101473 389.604937 
L 285.04308 389.045227 
L 286.845202 388.792876 
L 290.251708 388.677179 
L 292.912261 388.87367 
L 317.4331 391.927376 
L 324.645845 392.792045 
L 329.183474 393.365168 
L 333.995982 393.947882 
L 341.69073 394.576933 
L 350.319672 394.973743 
L 370.127806 395.790797 
L 384.123755 396.580038 
L 395.869722 396.915609 
L 403.077621 397.432612 
L 412.18076 398.473993 
L 425.739717 400.194386 
L 435.631634 401.66065 
L 446.963084 403.716096 
L 450.060382 404.379517 
L 464.773752 407.824265 
L 468.465835 408.671056 
L 477.646064 411.001565 
L 486.897281 413.748214 
L 488.108379 414.30757 
L 488.07301 414.36994 
L 487.861375 414.346827 
L 486.564072 414.13712 
L 478.589401 412.145396 
L 471.286127 410.261306 
L 466.054877 409.128948 
L 462.022196 408.274089 
L 450.980294 406.725608 
L 443.930539 406.017253 
L 442.01273 405.946795 
L 435.204719 406.25662 
L 429.259198 406.820341 
L 426.710578 407.221796 
L 421.635124 408.030446 
L 417.335033 409.043669 
L 413.803146 409.964939 
L 411.412234 410.706627 
L 407.697307 412.041299 
L 398.632225 415.358278 
L 396.158134 416.493009 
L 389.611014 420.037163 
L 387.08212 421.394174 
L 384.282761 422.941446 
L 380.336501 425.282521 
L 378.413257 426.519825 
L 369.787963 432.049435 
L 364.92849 434.888947 
L 362.195541 436.391035 
L 360.757552 437.154297 
L 357.620369 438.613541 
L 355.216365 439.608286 
L 352.887539 440.655837 
L 345.086011 443.988056 
L 341.053525 446.038769 
L 339.130676 447.031969 
L 336.40262 448.375336 
L 330.662522 451.026337 
L 326.551089 452.968018 
L 323.896621 454.137312 
L 315.199695 457.664408 
L 311.415823 458.565216 
L 308.7807 458.897632 
L 306.819465 459.027236 
L 297.349781 459.611392 
L 295.070466 459.729767 
L 288.722149 460.054566 
L 284.898179 460.249027 
L 283.068083 460.069888 
L 282.610617 459.830669 
L 282.613432 459.648287 
L 282.955525 459.383511 
L 283.563803 459.108934 
L 286.620834 457.944336 
L 295.631535 455.214943 
L 298.159071 454.499187 
L 305.418661 452.18023 
L 319.98065 446.240371 
L 321.7813 445.574909 
L 325.790919 443.887608 
L 335.917952 439.1548 
L 336.964922 438.682478 
L 339.337987 437.810845 
L 345.592736 436.213103 
L 349.962511 435.762306 
L 352.36135 435.702393 
L 355.679014 435.799333 
L 358.478917 436.082967 
L 367.012992 437.059036 
L 369.361339 436.990316 
L 371.025763 436.675165 
L 374.771221 435.316594 
L 378.396647 434.52208 
L 383.847995 433.679417 
L 385.874528 432.694592 
L 388.062575 432.070417 
L 388.694471 431.968979 
L 391.63448 431.958095 
L 396.958717 432.391837 
L 405.931196 433.445975 
L 405.863765 433.51359 
L 405.5702 433.587415 
L 393.763767 434.657122 
L 389.381496 435.145988 
L 379.579917 435.807814 
L 375.645145 435.998737 
L 373.015649 436.239409 
L 369.815113 436.607683 
L 367.667019 436.873556 
L 355.720742 438.778847 
L 340.313072 441.776353 
L 334.767134 442.880446 
L 317.328977 445.865074 
L 313.184459 446.454895 
L 306.754423 447.198315 
L 301.406049 447.761839 
L 295.642661 448.319695 
L 288.154673 448.891005 
L 279.745843 449.399305 
L 273.447939 449.970755 
L 270.551375 450.465287 
L 268.440046 451.083915 
L 266.498122 451.873589 
L 255.318985 457.061901 
L 254.600374 457.646297 
L 254.205223 458.206934 
L 253.813166 459.361506 
L 254.003715 460.067044 
L 254.673129 461.060622 
L 255.781599 462.012391 
L 256.943711 462.816312 
L 260.176181 464.741475 
L 266.422422 468.190613 
L 270.183765 470.560445 
L 273.25015 472.3399 
L 280.920404 476.799854 
L 283.899 478.47346 
L 285.328574 479.328175 
L 289.416812 481.6758 
L 293.299715 484.045685 
L 294.508755 485.061984 
L 295.303651 486.040412 
L 295.55912 486.617529 
L 295.718406 487.401525 
L 295.694535 488.103072 
L 295.47916 488.646503 
L 294.897035 489.448923 
L 294.211384 490.175548 
L 292.639012 491.420125 
L 291.167156 492.466942 
L 290.027388 493.201134 
L 286.241074 495.925734 
L 285.290377 496.59748 
L 284.620828 497.07071 
L 283.461289 497.846333 
L 281.867179 498.903678 
L 278.786516 500.84724 
L 275.612595 503.237834 
L 274.071473 504.872937 
L 273.892712 505.311613 
L 273.960128 505.95996 
L 274.693238 506.71231 
L 275.525153 507.054275 
L 276.441411 507.188446 
L 277.657085 507.009725 
L 278.429099 506.584442 
L 280.421311 505.167102 
L 285.424112 501.590733 
L 285.424112 501.590733 
" clip-path="url(#p6f34ef5255)" style="fill: none; stroke: #0000ff; stroke-width: 2; stroke-linecap: square"/>
   </g>
   <g id="line2d_35">
    <path d="M 269.334729 399.97635 
L 269.298854 399.980115 
L 269.350126 399.951072 
L 269.350126 399.951072 
L 270.297617 399.200333 
L 270.659927 398.910102 
L 271.905231 397.928405 
L 286.186371 386.67482 
L 287.58471 386.020131 
L 290.816882 385.179783 
L 292.494101 384.993549 
L 297.888409 385.1424 
L 303.947284 386.024719 
L 303.947284 386.024719 
L 318.333523 388.183525 
L 324.591188 389.046056 
L 341.185491 391.291636 
L 343.274581 391.598256 
L 349.412497 392.366928 
L 350.436228 392.529735 
L 352.809213 392.866874 
L 356.123165 393.293147 
L 356.760212 393.415402 
L 359.997978 393.710434 
L 360.392065 393.9291 
L 366.648312 394.683468 
L 368.610549 394.9825 
L 370.503475 395.174482 
L 371.086845 395.296505 
L 371.086845 395.296505 
L 372.063165 395.450176 
L 374.233729 395.657103 
L 374.907966 395.78925 
L 376.793245 395.980014 
L 377.54144 396.110227 
L 379.476173 396.267338 
L 380.156785 396.37041 
L 380.807097 396.359481 
L 381.174794 396.512486 
L 382.115236 396.455935 
L 382.461167 396.625878 
L 382.461167 396.625878 
L 383.360247 396.578101 
L 383.735958 396.810608 
L 384.648725 396.789036 
L 385.028458 396.941984 
L 385.971336 396.974617 
L 386.664477 397.123933 
L 390.005731 397.396338 
L 391.33385 397.4983 
L 398.720098 397.592183 
L 398.720098 397.592183 
L 403.542692 397.281365 
L 408.157333 396.738258 
L 408.748393 396.588561 
L 411.81344 396.043775 
L 411.81344 396.043775 
L 413.289313 395.671261 
L 415.390476 395.238732 
L 421.515727 393.778717 
L 422.461762 393.582357 
L 425.309904 392.957043 
L 428.171914 392.334003 
L 431.4192 391.557074 
L 453.045331 386.528126 
L 455.781957 385.901035 
L 481.748205 379.852062 
L 498.228929 375.836944 
L 498.228929 375.836944 
L 502.255835 374.887008 
L 515.870527 371.491784 
L 517.047645 370.805498 
L 517.720461 370.233719 
L 517.720461 370.233719 
L 518.067093 369.419749 
L 517.972081 368.786112 
L 517.631094 368.15862 
L 516.969771 367.537085 
L 514.419625 366.060365 
L 514.419625 366.060365 
L 510.001548 363.921443 
L 509.432336 363.684039 
L 507.924329 363.001459 
L 504.153909 361.280279 
L 503.737834 361.144698 
L 493.980716 356.438347 
L 490.113013 354.59907 
L 487.531954 353.366909 
L 472.872514 346.124538 
L 472.872514 346.124538 
L 470.986315 345.272553 
L 467.185513 343.465017 
L 467.185513 343.465017 
L 448.736694 334.36647 
L 447.650149 333.841234 
L 431.601186 325.769248 
L 430.685097 325.280345 
L 430.297396 325.129327 
L 429.240009 324.546485 
L 428.908802 324.448213 
L 427.895407 323.766092 
L 427.690912 323.835464 
L 427.18957 323.476552 
L 426.967085 323.48578 
L 425.741289 322.700489 
L 425.564692 322.823556 
L 425.034751 322.558954 
L 423.991365 322.069493 
L 423.145894 321.662207 
L 423.145894 321.662207 
L 419.738359 319.923729 
L 416.252083 318.142325 
L 403.244263 311.359048 
L 402.017192 310.772769 
L 386.656654 302.89315 
L 379.801388 299.317773 
L 366.309815 292.537189 
L 365.329728 292.065525 
L 360.45924 289.502851 
L 359.245235 288.876705 
L 357.714004 288.05737 
L 357.029216 287.713617 
L 333.970245 275.975565 
L 333.092917 275.519578 
L 333.092917 275.519578 
L 330.020481 273.970573 
L 327.336139 272.498143 
L 326.983203 272.382684 
L 324.697133 271.232472 
L 275.371654 245.853992 
L 272.443301 244.964273 
L 270.028377 244.633375 
L 268.07493 244.635083 
L 266.164969 244.876473 
L 264.099623 245.313193 
L 264.099623 245.313193 
L 249.039663 248.865784 
L 249.039663 248.865784 
L 247.131972 249.270999 
L 240.100406 250.981304 
L 238.830135 251.713966 
L 238.830135 251.713966 
L 238.455312 252.242815 
L 238.304746 252.62766 
L 238.77031 253.305066 
L 238.77031 253.305066 
L 239.257348 253.694931 
L 239.257348 253.694931 
L 241.6245 255.013939 
L 241.6245 255.013939 
L 242.886454 255.564186 
L 247.025054 257.775142 
L 257.125323 262.899649 
L 258.465561 263.638526 
L 263.779799 266.751304 
L 277.541661 276.132073 
L 279.398313 277.427386 
L 288.787504 283.590285 
L 292.419098 285.764678 
L 295.183258 287.236446 
L 295.490237 287.475519 
L 295.821183 287.587574 
L 296.153045 287.832675 
L 296.4922 287.944014 
L 296.853031 288.21771 
L 297.185947 288.327222 
L 297.542142 288.586028 
L 297.874066 288.699401 
L 298.222696 288.970124 
L 298.558705 289.077555 
L 298.946058 289.368961 
L 300.025277 289.901806 
L 300.393048 290.143649 
L 301.481296 290.693093 
L 302.049186 291.013369 
L 305.103406 292.588357 
L 310.889097 295.178745 
L 314.255826 296.15733 
L 316.838197 296.668067 
L 319.514353 297.024719 
L 321.887622 297.165495 
L 325.461026 297.10161 
L 328.026047 296.804307 
L 338.001153 295.160203 
L 338.001153 295.160203 
L 339.556927 295.17081 
L 341.227783 295.443617 
L 342.348548 295.834105 
L 345.990481 297.634784 
L 347.655057 298.451581 
L 348.275562 298.788588 
L 355.562938 302.596724 
L 356.629976 303.583117 
L 357.198649 304.44386 
L 357.629982 305.432384 
L 358.119445 306.769668 
L 358.119445 306.769668 
L 358.54796 307.929841 
L 358.94315 308.887898 
L 358.94315 308.887898 
L 359.110282 309.405515 
L 359.799658 311.291766 
L 360.00893 311.826604 
L 361.30122 314.156749 
L 362.027096 314.795135 
L 363.327943 315.622607 
L 368.09832 318.035752 
L 368.09832 318.035752 
L 372.143794 319.941547 
L 372.143794 319.941547 
L 379.30384 323.601001 
L 379.787261 324.151952 
L 379.851174 324.488381 
L 379.851174 324.488381 
L 379.681745 324.780183 
L 379.681745 324.780183 
L 379.232495 325.072795 
L 378.547487 325.309747 
L 375.529216 325.975168 
L 375.529216 325.975168 
L 359.43463 329.365998 
L 355.917658 330.138347 
L 346.153674 332.241828 
L 341.352248 333.143366 
L 339.608878 333.527261 
L 334.227 334.861805 
L 330.758697 335.725099 
L 324.039444 337.43371 
L 319.772266 338.504123 
L 315.835192 339.511539 
L 303.406231 342.811204 
L 300.340828 343.540122 
L 300.07487 343.58395 
L 299.870152 343.798876 
L 298.07939 344.227277 
L 297.586982 344.402785 
L 296.556518 344.709884 
L 294.050041 345.393302 
L 290.390667 346.416439 
L 287.803134 347.114604 
L 287.035263 347.361949 
L 283.582801 348.306826 
L 283.084819 348.481073 
L 278.285684 349.789721 
L 277.733792 349.978124 
L 275.090491 350.672415 
L 274.549137 350.858288 
L 272.944997 351.256042 
L 272.434934 351.440516 
L 271.096318 351.806943 
L 270.347037 352.011343 
L 269.822024 352.090249 
L 269.822024 352.090249 
L 268.784224 352.471338 
L 261.440734 354.545233 
L 261.440734 354.545233 
L 252.594235 356.920271 
L 251.837394 357.144418 
L 247.515182 358.298024 
L 246.009714 358.728079 
L 246.009714 358.728079 
L 241.843396 359.852721 
L 241.843396 359.852721 
L 235.612904 362.08065 
L 233.947036 363.141177 
L 233.149683 363.83169 
L 232.087695 365.055293 
L 232.087695 365.055293 
L 229.659229 367.865277 
L 226.431056 371.752593 
L 226.359452 372.002083 
L 226.220315 372.66267 
L 226.259966 372.918161 
L 226.574584 373.649364 
L 226.835198 373.891 
L 227.690541 374.516708 
L 229.452383 375.259656 
L 231.626201 375.818826 
L 235.164534 376.477393 
L 252.647007 379.117413 
L 261.079616 380.45908 
L 264.86826 381.049763 
L 264.86826 381.049763 
L 286.383863 384.322364 
L 290.653583 385.215421 
L 292.509012 385.853205 
L 294.123086 386.703832 
L 294.879478 387.352216 
L 295.503432 388.432423 
L 295.503432 388.432423 
L 295.473451 389.276652 
L 294.890072 390.665843 
L 294.552387 391.208533 
L 289.470555 397.380275 
L 284.74134 401.897076 
L 283.159489 403.955312 
L 283.034811 404.557106 
L 283.258617 404.917649 
L 283.737939 405.221556 
L 284.607902 405.471802 
L 285.599568 405.629255 
L 287.520594 405.495566 
L 288.51388 405.084318 
L 289.080794 404.480562 
L 292.991487 399.786646 
L 292.991487 399.786646 
" clip-path="url(#p6f34ef5255)" style="fill: none; stroke: #aa00ff; stroke-width: 2; stroke-linecap: square"/>
   </g>
   <g id="line2d_36">
    <path d="M 269.334729 399.97635 
L 269.332477 399.978161 
L 269.452439 399.896588 
L 270.874557 398.833464 
L 275.711194 394.972917 
L 278.517971 392.766864 
L 285.662596 387.106851 
L 287.209338 386.369431 
L 288.746617 385.87559 
L 290.451728 385.565075 
L 293.13146 385.295706 
L 296.285207 385.402245 
L 299.375436 385.777078 
L 306.310265 386.87606 
L 310.514115 387.580157 
L 322.764859 389.442762 
L 328.396242 390.361747 
L 337.715419 391.781627 
L 348.023942 393.289915 
L 350.66299 393.665081 
L 360.114919 395.14188 
L 363.300049 395.567565 
L 368.946761 396.399891 
L 373.317585 397.062394 
L 379.662544 397.965275 
L 383.780158 398.504241 
L 391.00174 399.063205 
L 396.264987 399.061892 
L 399.437537 398.856294 
L 403.965849 398.287259 
L 406.936571 397.71076 
L 410.788803 396.861215 
L 432.277784 391.184791 
L 436.403878 390.034963 
L 446.622444 387.292729 
L 450.729709 386.169565 
L 458.450125 384.122857 
L 460.564073 383.542322 
L 490.407823 374.892793 
L 499.695296 372.069413 
L 511.539309 368.490838 
L 512.769626 367.779758 
L 513.631139 367.032745 
L 514.150001 366.335557 
L 514.425143 365.586151 
L 514.447943 364.846565 
L 514.220315 364.058899 
L 513.829383 363.367441 
L 513.133777 362.591666 
L 511.914929 361.579093 
L 510.07689 360.313633 
L 503.509207 355.961537 
L 494.939867 350.098774 
L 481.356026 339.935981 
L 474.502154 334.630208 
L 467.655386 329.511717 
L 464.949537 327.369517 
L 460.046215 323.395378 
L 457.082754 321.009277 
L 424.944357 294.748182 
L 420.12624 290.568822 
L 416.381613 287.211378 
L 412.621408 283.864813 
L 406.686279 278.65487 
L 402.56026 274.938075 
L 388.464256 261.907828 
L 381.402205 255.798224 
L 377.262573 252.218824 
L 373.992291 249.270464 
L 359.208825 236.367044 
L 343.851299 223.387907 
L 338.011192 218.641492 
L 335.523881 216.626452 
L 323.933931 207.418244 
L 314.577906 200.472387 
L 305.70814 193.939166 
L 293.325363 185.014106 
L 292.043559 184.403219 
L 290.714806 183.971449 
L 288.990822 183.669925 
L 287.203235 183.658013 
L 285.58299 183.895542 
L 284.357574 184.238072 
L 281.269092 185.404764 
L 266.146973 191.694889 
L 261.567172 193.389195 
L 259.643089 194.30517 
L 258.512577 195.115435 
L 257.910997 195.792552 
L 257.537951 196.63005 
L 257.486943 197.342681 
L 257.722384 198.025542 
L 258.310351 198.808201 
L 259.313962 199.71062 
L 261.730578 201.622604 
L 267.048736 205.816018 
L 275.324804 212.328364 
L 278.223766 214.753301 
L 282.274329 218.454764 
L 286.742328 222.95809 
L 296.852128 233.89467 
L 300.823148 238.051926 
L 308.56611 245.715458 
L 312.917256 249.617686 
L 320.46288 255.868091 
L 326.152154 260.22551 
L 329.57734 262.516869 
L 331.494357 263.537622 
L 333.313394 264.318835 
L 335.817432 265.127517 
L 338.155378 265.638512 
L 340.241283 265.899403 
L 342.546173 265.94991 
L 344.964721 265.733853 
L 347.103013 265.279984 
L 349.816312 264.461371 
L 356.909273 262.197779 
L 358.502015 262.047171 
L 359.706749 262.149616 
L 360.792211 262.423115 
L 361.814423 262.945326 
L 363.43881 264.098462 
L 372.495266 270.737869 
L 374.321926 272.10456 
L 375.674622 273.407538 
L 376.69088 274.778875 
L 377.291579 275.956144 
L 377.772086 277.442288 
L 378.857672 281.269486 
L 380.924964 288.251433 
L 382.105568 291.245194 
L 382.762037 292.292622 
L 383.523586 293.135065 
L 384.981424 294.38376 
L 394.658737 301.243479 
L 400.490393 305.201336 
L 401.233002 305.954474 
L 401.568682 306.574903 
L 401.633786 307.058467 
L 401.440591 307.544948 
L 401.024246 307.959508 
L 400.159358 308.447098 
L 398.191716 309.250758 
L 391.135537 311.867468 
L 379.985249 316.255264 
L 371.126082 319.815366 
L 367.202712 321.259049 
L 358.54563 324.60423 
L 350.880946 327.864391 
L 300.290981 349.796962 
L 295.485126 351.915861 
L 293.035521 352.977775 
L 285.503271 356.250381 
L 265.367873 364.87293 
L 263.426566 366.049278 
L 262.395568 366.830215 
L 261.274022 367.915677 
L 260.317267 369.213005 
L 253.522841 380.71572 
L 253.365943 381.671618 
L 253.433603 382.265777 
L 253.828437 383.291033 
L 254.68352 384.317354 
L 255.735689 385.051571 
L 256.894362 385.611424 
L 258.647202 386.200421 
L 261.627219 386.933575 
L 264.249028 387.488191 
L 277.555596 390.173632 
L 313.795371 398.129468 
L 315.953962 398.889215 
L 317.573262 399.721475 
L 318.53611 400.390611 
L 319.665815 401.600672 
L 320.161382 402.55361 
L 320.348405 403.411753 
L 320.300491 404.518718 
L 320.03156 405.633563 
L 319.108742 407.690514 
L 316.715864 411.736019 
L 314.117118 415.987532 
L 310.433419 421.074647 
L 309.081491 422.875163 
L 307.288453 425.711421 
L 306.843377 426.876269 
L 306.77567 427.535265 
L 306.990523 428.094831 
L 307.371582 428.474802 
L 308.300904 428.923088 
L 309.269345 429.121852 
L 310.348414 429.110379 
L 311.324919 428.880713 
L 311.933227 428.527167 
L 312.40983 427.973466 
L 312.881896 427.140706 
L 314.045546 425.113597 
L 316.913705 420.34285 
L 316.913705 420.34285 
" clip-path="url(#p6f34ef5255)" style="fill: none; stroke: #ff9c00; stroke-width: 2; stroke-linecap: square"/>
   </g>
   <g id="line2d_37">
    <path d="M 269.334729 399.97635 
L 269.33373 399.977242 
L 269.429757 399.901246 
L 273.096743 397.019826 
L 281.303024 390.445611 
L 284.289887 388.014713 
L 286.654263 386.528991 
L 288.203547 385.897886 
L 290.364483 385.372799 
L 292.157111 385.157023 
L 294.875417 385.053661 
L 297.504066 385.234919 
L 301.835885 385.824194 
L 319.527333 388.50708 
L 359.783144 394.090063 
L 363.069103 394.532521 
L 376.167553 396.228462 
L 384.300601 397.165226 
L 389.559061 397.670516 
L 393.255457 397.855009 
L 397.93481 397.862058 
L 404.043325 397.448952 
L 407.71244 396.962221 
L 412.569056 396.053275 
L 418.367048 394.791573 
L 432.375083 391.675633 
L 456.412291 386.213241 
L 482.582592 380.246337 
L 504.736883 375.026003 
L 515.184402 372.55067 
L 516.558326 371.950173 
L 517.244048 371.496443 
L 517.786244 370.991639 
L 518.085081 370.450055 
L 518.137237 369.918434 
L 517.948795 369.332926 
L 517.450312 368.667707 
L 516.369436 367.859628 
L 514.836813 366.991468 
L 512.138169 365.69516 
L 496.130931 358.197429 
L 490.582188 355.471997 
L 456.302839 338.498287 
L 450.922343 335.786598 
L 442.076436 331.294695 
L 438.077731 329.226224 
L 427.577892 323.961328 
L 422.909685 321.623674 
L 406.206266 312.785532 
L 392.473662 305.676009 
L 374.431367 296.227686 
L 360.451986 289.004338 
L 359.294871 288.395084 
L 355.8055 286.538441 
L 346.358093 281.746821 
L 336.305455 276.545902 
L 330.783272 273.664796 
L 310.946934 263.240864 
L 306.345859 260.834254 
L 284.603771 249.611585 
L 280.174 247.317487 
L 277.869749 246.433629 
L 276.725275 246.135423 
L 275.027235 245.863667 
L 273.071586 245.789724 
L 270.924982 245.978088 
L 267.052318 246.759686 
L 248.358828 250.976912 
L 244.637186 251.896939 
L 243.222086 252.51156 
L 242.592823 253.014488 
L 242.37531 253.382315 
L 242.342112 253.758701 
L 242.538763 254.167186 
L 243.089645 254.662563 
L 244.596645 255.540177 
L 250.142219 258.423978 
L 258.922375 262.91329 
L 262.164424 264.602797 
L 269.683907 269.169814 
L 273.57891 271.81886 
L 293.111812 285.045632 
L 298.507874 288.213195 
L 304.571482 291.504767 
L 313.196787 295.627181 
L 314.893617 296.210061 
L 317.555075 296.920308 
L 320.725375 297.514272 
L 323.408634 297.805859 
L 326.593716 297.898852 
L 329.204292 297.758224 
L 332.922479 297.239839 
L 337.923601 296.337196 
L 340.328615 295.969333 
L 342.361356 295.916302 
L 343.63899 296.061274 
L 344.871186 296.389441 
L 346.533002 297.091762 
L 350.602409 299.099504 
L 357.17482 302.292151 
L 358.474259 303.119701 
L 359.419395 303.950279 
L 359.924511 304.579861 
L 360.227773 305.195978 
L 363.333014 313.45428 
L 363.852423 314.272337 
L 364.686916 315.0419 
L 366.219122 316.002009 
L 367.579019 316.69743 
L 370.274177 318.008297 
L 380.292942 322.676409 
L 382.039134 323.793898 
L 382.303371 324.226585 
L 382.292053 324.497891 
L 382.077571 324.779049 
L 381.393579 325.126228 
L 379.569213 325.598392 
L 346.982519 332.430406 
L 341.925464 333.3917 
L 336.922638 334.612517 
L 306.286632 342.408715 
L 246.973273 358.707287 
L 244.433531 359.780727 
L 243.036146 360.654508 
L 242.256521 361.35667 
L 240.429801 363.392796 
L 238.950847 365.027774 
L 235.280954 369.219081 
L 235.091331 369.717488 
L 235.087467 370.286939 
L 235.240192 370.706664 
L 235.637847 371.246345 
L 236.486507 371.884545 
L 237.744434 372.444878 
L 239.385369 372.941032 
L 243.043502 373.67932 
L 289.354331 380.862988 
L 292.023465 381.26171 
L 295.469952 381.834714 
L 299.588076 382.649805 
L 301.968665 383.441498 
L 303.554213 384.286525 
L 304.302048 384.909662 
L 304.791159 385.653368 
L 304.917455 386.395265 
L 304.806566 387.04906 
L 304.3897 387.994644 
L 303.190016 389.603172 
L 298.479186 394.918182 
L 293.253095 399.693233 
L 292.308265 400.827681 
L 291.923782 401.62624 
L 292.003877 401.949578 
L 292.286875 402.233383 
L 293.234075 402.610157 
L 294.507898 402.821227 
L 296.089104 402.770257 
L 297.046634 402.499716 
L 297.472603 402.237805 
L 298.602573 400.73167 
L 300.383749 398.528083 
L 301.677554 396.997054 
L 301.677554 396.997054 
" clip-path="url(#p6f34ef5255)" style="fill: none; stroke: #ff0000; stroke-width: 2; stroke-linecap: square"/>
   </g>
   <g id="line2d_38">
    <path d="M 269.334729 399.97635 
L 271.895945 397.924186 
L 285.068815 387.125491 
L 286.757485 386.11748 
L 288.191582 385.519829 
L 289.866029 385.074601 
L 291.949054 384.754179 
L 294.412406 384.63842 
L 297.241582 384.803935 
L 302.675339 385.584589 
L 334.825516 390.419531 
L 358.808485 393.856028 
L 372.975921 395.773497 
L 387.89492 397.44331 
L 393.251547 397.764724 
L 397.257603 397.773745 
L 402.458218 397.447887 
L 406.167866 396.973372 
L 411.641151 395.977695 
L 424.638549 393.04464 
L 441.475677 389.046011 
L 480.504741 379.524572 
L 514.643334 370.731625 
L 516.352427 370.04024 
L 517.477234 369.339527 
L 517.972414 368.869342 
L 518.28815 368.370718 
L 518.381177 367.848543 
L 518.247497 367.272703 
L 517.870146 366.686093 
L 517.244685 366.098759 
L 515.810199 365.207837 
L 512.551791 363.639104 
L 503.82739 359.718684 
L 498.568978 357.241044 
L 495.296527 355.557474 
L 488.608022 352.288952 
L 482.45714 349.136226 
L 472.709052 344.169091 
L 464.31237 339.864133 
L 445.266269 329.71169 
L 431.886127 322.433317 
L 422.943055 317.599213 
L 415.067531 313.140339 
L 411.359077 310.986274 
L 404.339052 306.983888 
L 395.935909 302.223834 
L 390.819705 299.228518 
L 378.206442 291.854891 
L 364.452273 284.067461 
L 350.209462 275.694325 
L 345.70878 273.157588 
L 335.362837 267.067387 
L 315.409342 255.146276 
L 311.621721 252.879343 
L 297.167592 244.426144 
L 291.836431 241.282843 
L 280.814288 234.663422 
L 278.339576 233.623634 
L 276.325102 233.164646 
L 274.916591 232.999815 
L 272.75847 233.018737 
L 270.626281 233.327042 
L 264.722909 234.593433 
L 248.802574 238.007657 
L 246.457804 238.48501 
L 245.107595 238.882766 
L 244.0133 239.374405 
L 243.337373 239.972456 
L 243.116961 240.597744 
L 243.397251 241.222094 
L 244.111409 241.870472 
L 246.025296 243.076409 
L 253.807279 247.723201 
L 257.802879 250.036639 
L 263.343409 253.30171 
L 267.86556 256.303918 
L 272.559711 259.755491 
L 278.926243 264.614633 
L 293.624238 275.589262 
L 296.58794 277.589438 
L 301.489014 280.662762 
L 306.101199 283.375021 
L 312.387065 286.827459 
L 315.07199 288.028064 
L 317.623527 288.898282 
L 319.863353 289.479483 
L 323.399636 290.098087 
L 326.347734 290.335985 
L 329.613396 290.285897 
L 331.977858 290.022149 
L 336.806034 289.18397 
L 341.482903 288.364593 
L 343.388687 288.326191 
L 344.562699 288.45858 
L 346.065822 288.885468 
L 347.705692 289.705324 
L 359.431261 296.299983 
L 360.475013 297.219591 
L 361.190806 298.157443 
L 361.585445 299.071833 
L 362.472653 301.63603 
L 364.452086 307.346807 
L 365.144472 308.667072 
L 365.667997 309.305988 
L 366.799101 310.208504 
L 370.286638 312.220749 
L 375.622052 314.934245 
L 381.310752 317.856587 
L 383.261928 319.039187 
L 383.720992 319.538541 
L 383.852764 320.075222 
L 383.495796 320.515492 
L 382.593322 320.89902 
L 380.533129 321.403681 
L 338.169096 330.649143 
L 320.819011 335.00471 
L 305.441265 338.951087 
L 303.930361 339.347596 
L 289.452788 343.124896 
L 282.035025 345.076394 
L 275.60358 346.72384 
L 253.102213 352.370969 
L 242.822876 354.904354 
L 239.727731 355.925399 
L 237.951731 356.769243 
L 236.99801 357.405386 
L 235.924162 358.429088 
L 229.440196 365.212981 
L 229.100171 365.858305 
L 229.061063 366.48855 
L 229.330224 367.146196 
L 229.902376 367.730873 
L 230.810136 368.271058 
L 232.034169 368.777124 
L 234.355927 369.411267 
L 238.811237 370.263542 
L 246.060234 371.45232 
L 254.756976 372.872765 
L 266.22386 374.83796 
L 284.206159 377.780473 
L 291.073242 378.969097 
L 294.11219 379.640613 
L 296.090371 380.35525 
L 297.174146 380.888078 
L 298.335881 381.821645 
L 298.752271 382.469559 
L 298.870856 383.108779 
L 298.78245 383.751336 
L 298.517027 384.409617 
L 297.853941 385.445309 
L 295.500345 388.116644 
L 292.001232 391.744317 
L 288.809947 394.395725 
L 286.669109 396.370465 
L 285.992915 397.234696 
L 285.741452 397.799619 
L 285.772809 398.063341 
L 285.916381 398.301749 
L 286.600908 398.690357 
L 287.622067 398.957892 
L 288.758612 399.081038 
L 290.223941 398.983452 
L 291.139633 398.681875 
L 291.812899 398.087659 
L 292.822819 396.909465 
L 295.621589 393.926728 
L 295.621589 393.926728 
" clip-path="url(#p6f34ef5255)" style="fill: none; stroke: #00ff00; stroke-width: 2; stroke-linecap: square"/>
   </g>
   <g id="Path3DCollection_1">
    <defs>
     <path id="m0ab2cfa472" d="M 0 -5 
L -1.12257 -1.545085 
L -4.755283 -1.545085 
L -1.816356 0.59017 
L -2.938926 4.045085 
L -0 1.90983 
L 2.938926 4.045085 
L 1.816356 0.59017 
L 4.755283 -1.545085 
L 1.12257 -1.545085 
z
" style="stroke: #ff0000"/>
    </defs>
    <g clip-path="url(#p6f34ef5255)">
     <use xlink:href="#m0ab2cfa472" x="269.334729" y="399.97635" style="fill: #ff0000; stroke: #ff0000"/>
    </g>
   </g>
   <g id="legend_1">
    <g id="patch_6">
     <path d="M 63.44125 107.5846 
L 600.75875 107.5846 
Q 603.95875 107.5846 603.95875 104.3846 
L 603.95875 60.7396 
Q 603.95875 57.5396 600.75875 57.5396 
L 63.44125 57.5396 
Q 60.24125 57.5396 60.24125 60.7396 
L 60.24125 104.3846 
Q 60.24125 107.5846 63.44125 107.5846 
z
" style="fill: #ffffff; opacity: 0.8; stroke: #cccccc; stroke-linejoin: miter"/>
    </g>
    <g id="line2d_39">
     <g>
      <use xlink:href="#mcc9b53d709" x="82.64125" y="69.5396" style="fill: #ff0000; stroke: #ff0000; stroke-linejoin: bevel"/>
     </g>
    </g>
    <g id="text_32">
     <!-- Start -->
     <g transform="translate(111.44125 75.1396) scale(0.16 -0.16)">
      <defs>
       <path id="TimesNewRomanPSMT-53" d="M 2934 4334 
L 2934 2869 
L 2819 2869 
Q 2763 3291 2617 3541 
Q 2472 3791 2203 3937 
Q 1934 4084 1647 4084 
Q 1322 4084 1109 3886 
Q 897 3688 897 3434 
Q 897 3241 1031 3081 
Q 1225 2847 1953 2456 
Q 2547 2138 2764 1967 
Q 2981 1797 3098 1565 
Q 3216 1334 3216 1081 
Q 3216 600 2842 251 
Q 2469 -97 1881 -97 
Q 1697 -97 1534 -69 
Q 1438 -53 1133 45 
Q 828 144 747 144 
Q 669 144 623 97 
Q 578 50 556 -97 
L 441 -97 
L 441 1356 
L 556 1356 
Q 638 900 775 673 
Q 913 447 1195 297 
Q 1478 147 1816 147 
Q 2206 147 2432 353 
Q 2659 559 2659 841 
Q 2659 997 2573 1156 
Q 2488 1316 2306 1453 
Q 2184 1547 1640 1851 
Q 1097 2156 867 2337 
Q 638 2519 519 2737 
Q 400 2956 400 3219 
Q 400 3675 750 4004 
Q 1100 4334 1641 4334 
Q 1978 4334 2356 4169 
Q 2531 4091 2603 4091 
Q 2684 4091 2736 4139 
Q 2788 4188 2819 4334 
L 2934 4334 
z
" transform="scale(0.015625)"/>
       <path id="TimesNewRomanPSMT-74" d="M 1031 3803 
L 1031 2863 
L 1700 2863 
L 1700 2644 
L 1031 2644 
L 1031 788 
Q 1031 509 1111 412 
Q 1191 316 1316 316 
Q 1419 316 1516 380 
Q 1613 444 1666 569 
L 1788 569 
Q 1678 263 1478 108 
Q 1278 -47 1066 -47 
Q 922 -47 784 33 
Q 647 113 581 261 
Q 516 409 516 719 
L 516 2644 
L 63 2644 
L 63 2747 
Q 234 2816 414 2980 
Q 594 3144 734 3369 
Q 806 3488 934 3803 
L 1031 3803 
z
" transform="scale(0.015625)"/>
       <path id="TimesNewRomanPSMT-61" d="M 1822 413 
Q 1381 72 1269 19 
Q 1100 -59 909 -59 
Q 613 -59 420 144 
Q 228 347 228 678 
Q 228 888 322 1041 
Q 450 1253 767 1440 
Q 1084 1628 1822 1897 
L 1822 2009 
Q 1822 2438 1686 2597 
Q 1550 2756 1291 2756 
Q 1094 2756 978 2650 
Q 859 2544 859 2406 
L 866 2225 
Q 866 2081 792 2003 
Q 719 1925 600 1925 
Q 484 1925 411 2006 
Q 338 2088 338 2228 
Q 338 2497 613 2722 
Q 888 2947 1384 2947 
Q 1766 2947 2009 2819 
Q 2194 2722 2281 2516 
Q 2338 2381 2338 1966 
L 2338 994 
Q 2338 584 2353 492 
Q 2369 400 2405 369 
Q 2441 338 2488 338 
Q 2538 338 2575 359 
Q 2641 400 2828 588 
L 2828 413 
Q 2478 -56 2159 -56 
Q 2006 -56 1915 50 
Q 1825 156 1822 413 
z
M 1822 616 
L 1822 1706 
Q 1350 1519 1213 1441 
Q 966 1303 859 1153 
Q 753 1003 753 825 
Q 753 600 887 451 
Q 1022 303 1197 303 
Q 1434 303 1822 616 
z
" transform="scale(0.015625)"/>
       <path id="TimesNewRomanPSMT-72" d="M 1038 2947 
L 1038 2303 
Q 1397 2947 1775 2947 
Q 1947 2947 2059 2842 
Q 2172 2738 2172 2600 
Q 2172 2478 2090 2393 
Q 2009 2309 1897 2309 
Q 1788 2309 1652 2417 
Q 1516 2525 1450 2525 
Q 1394 2525 1328 2463 
Q 1188 2334 1038 2041 
L 1038 669 
Q 1038 431 1097 309 
Q 1138 225 1241 169 
Q 1344 113 1538 113 
L 1538 0 
L 72 0 
L 72 113 
Q 291 113 397 181 
Q 475 231 506 341 
Q 522 394 522 644 
L 522 1753 
Q 522 2253 501 2348 
Q 481 2444 426 2487 
Q 372 2531 291 2531 
Q 194 2531 72 2484 
L 41 2597 
L 906 2947 
L 1038 2947 
z
" transform="scale(0.015625)"/>
      </defs>
      <use xlink:href="#TimesNewRomanPSMT-53"/>
      <use xlink:href="#TimesNewRomanPSMT-74" x="55.615234"/>
      <use xlink:href="#TimesNewRomanPSMT-61" x="83.398438"/>
      <use xlink:href="#TimesNewRomanPSMT-72" x="127.783203"/>
      <use xlink:href="#TimesNewRomanPSMT-74" x="161.083984"/>
     </g>
    </g>
    <g id="patch_7">
     <path d="M 66.64125 97.7621 
L 98.64125 97.7621 
L 98.64125 86.5621 
L 66.64125 86.5621 
L 66.64125 97.7621 
z
" style="fill: none"/>
    </g>
    <g id="line2d_40">
     <path d="M 173.65875 69.5396 
L 189.65875 69.5396 
L 205.65875 69.5396 
" style="fill: none; stroke-dasharray: 10.175,4.4; stroke-dashoffset: 0; stroke: #808a87; stroke-width: 2.75"/>
    </g>
    <g id="text_33">
     <!-- GroundTruth -->
     <g transform="translate(218.45875 75.1396) scale(0.16 -0.16)">
      <defs>
       <path id="TimesNewRomanPSMT-47" d="M 3928 4334 
L 4038 2997 
L 3928 2997 
Q 3763 3497 3500 3750 
Q 3122 4116 2528 4116 
Q 1719 4116 1297 3475 
Q 944 2934 944 2188 
Q 944 1581 1178 1081 
Q 1413 581 1792 348 
Q 2172 116 2572 116 
Q 2806 116 3025 175 
Q 3244 234 3447 350 
L 3447 1575 
Q 3447 1894 3398 1992 
Q 3350 2091 3248 2142 
Q 3147 2194 2891 2194 
L 2891 2313 
L 4531 2313 
L 4531 2194 
L 4453 2194 
Q 4209 2194 4119 2031 
Q 4056 1916 4056 1575 
L 4056 278 
Q 3697 84 3347 -6 
Q 2997 -97 2569 -97 
Q 1341 -97 703 691 
Q 225 1281 225 2053 
Q 225 2613 494 3125 
Q 813 3734 1369 4063 
Q 1834 4334 2469 4334 
Q 2700 4334 2889 4296 
Q 3078 4259 3425 4131 
Q 3600 4066 3659 4066 
Q 3719 4066 3761 4120 
Q 3803 4175 3813 4334 
L 3928 4334 
z
" transform="scale(0.015625)"/>
       <path id="TimesNewRomanPSMT-6f" d="M 1600 2947 
Q 2250 2947 2644 2453 
Q 2978 2031 2978 1484 
Q 2978 1100 2793 706 
Q 2609 313 2286 112 
Q 1963 -88 1566 -88 
Q 919 -88 538 428 
Q 216 863 216 1403 
Q 216 1797 411 2186 
Q 606 2575 925 2761 
Q 1244 2947 1600 2947 
z
M 1503 2744 
Q 1338 2744 1170 2645 
Q 1003 2547 900 2300 
Q 797 2053 797 1666 
Q 797 1041 1045 587 
Q 1294 134 1700 134 
Q 2003 134 2200 384 
Q 2397 634 2397 1244 
Q 2397 2006 2069 2444 
Q 1847 2744 1503 2744 
z
" transform="scale(0.015625)"/>
       <path id="TimesNewRomanPSMT-75" d="M 2709 2863 
L 2709 1128 
Q 2709 631 2732 520 
Q 2756 409 2807 365 
Q 2859 322 2928 322 
Q 3025 322 3147 375 
L 3191 266 
L 2334 -88 
L 2194 -88 
L 2194 519 
Q 1825 119 1631 15 
Q 1438 -88 1222 -88 
Q 981 -88 804 51 
Q 628 191 559 409 
Q 491 628 491 1028 
L 491 2306 
Q 491 2509 447 2587 
Q 403 2666 317 2708 
Q 231 2750 6 2747 
L 6 2863 
L 1009 2863 
L 1009 947 
Q 1009 547 1148 422 
Q 1288 297 1484 297 
Q 1619 297 1789 381 
Q 1959 466 2194 703 
L 2194 2325 
Q 2194 2569 2105 2655 
Q 2016 2741 1734 2747 
L 1734 2863 
L 2709 2863 
z
" transform="scale(0.015625)"/>
       <path id="TimesNewRomanPSMT-6e" d="M 1034 2341 
Q 1538 2947 1994 2947 
Q 2228 2947 2397 2830 
Q 2566 2713 2666 2444 
Q 2734 2256 2734 1869 
L 2734 647 
Q 2734 375 2778 278 
Q 2813 200 2889 156 
Q 2966 113 3172 113 
L 3172 0 
L 1756 0 
L 1756 113 
L 1816 113 
Q 2016 113 2095 173 
Q 2175 234 2206 353 
Q 2219 400 2219 647 
L 2219 1819 
Q 2219 2209 2117 2386 
Q 2016 2563 1775 2563 
Q 1403 2563 1034 2156 
L 1034 647 
Q 1034 356 1069 288 
Q 1113 197 1189 155 
Q 1266 113 1500 113 
L 1500 0 
L 84 0 
L 84 113 
L 147 113 
Q 366 113 442 223 
Q 519 334 519 647 
L 519 1709 
Q 519 2225 495 2337 
Q 472 2450 423 2490 
Q 375 2531 294 2531 
Q 206 2531 84 2484 
L 38 2597 
L 900 2947 
L 1034 2947 
L 1034 2341 
z
" transform="scale(0.015625)"/>
       <path id="TimesNewRomanPSMT-64" d="M 2222 322 
Q 2013 103 1813 7 
Q 1613 -88 1381 -88 
Q 913 -88 563 304 
Q 213 697 213 1313 
Q 213 1928 600 2439 
Q 988 2950 1597 2950 
Q 1975 2950 2222 2709 
L 2222 3238 
Q 2222 3728 2198 3840 
Q 2175 3953 2125 3993 
Q 2075 4034 2000 4034 
Q 1919 4034 1784 3984 
L 1744 4094 
L 2597 4444 
L 2738 4444 
L 2738 1134 
Q 2738 631 2761 520 
Q 2784 409 2836 365 
Q 2888 322 2956 322 
Q 3041 322 3181 375 
L 3216 266 
L 2366 -88 
L 2222 -88 
L 2222 322 
z
M 2222 541 
L 2222 2016 
Q 2203 2228 2109 2403 
Q 2016 2578 1861 2667 
Q 1706 2756 1559 2756 
Q 1284 2756 1069 2509 
Q 784 2184 784 1559 
Q 784 928 1059 592 
Q 1334 256 1672 256 
Q 1956 256 2222 541 
z
" transform="scale(0.015625)"/>
       <path id="TimesNewRomanPSMT-54" d="M 3703 4238 
L 3750 3244 
L 3631 3244 
Q 3597 3506 3538 3619 
Q 3441 3800 3280 3886 
Q 3119 3972 2856 3972 
L 2259 3972 
L 2259 734 
Q 2259 344 2344 247 
Q 2463 116 2709 116 
L 2856 116 
L 2856 0 
L 1059 0 
L 1059 116 
L 1209 116 
Q 1478 116 1591 278 
Q 1659 378 1659 734 
L 1659 3972 
L 1150 3972 
Q 853 3972 728 3928 
Q 566 3869 450 3700 
Q 334 3531 313 3244 
L 194 3244 
L 244 4238 
L 3703 4238 
z
" transform="scale(0.015625)"/>
       <path id="TimesNewRomanPSMT-68" d="M 1041 4444 
L 1041 2350 
Q 1388 2731 1591 2839 
Q 1794 2947 1997 2947 
Q 2241 2947 2416 2812 
Q 2591 2678 2675 2391 
Q 2734 2191 2734 1659 
L 2734 647 
Q 2734 375 2778 275 
Q 2809 200 2884 156 
Q 2959 113 3159 113 
L 3159 0 
L 1753 0 
L 1753 113 
L 1819 113 
Q 2019 113 2097 173 
Q 2175 234 2206 353 
Q 2216 403 2216 647 
L 2216 1659 
Q 2216 2128 2167 2275 
Q 2119 2422 2012 2495 
Q 1906 2569 1756 2569 
Q 1603 2569 1437 2487 
Q 1272 2406 1041 2159 
L 1041 647 
Q 1041 353 1073 281 
Q 1106 209 1195 161 
Q 1284 113 1503 113 
L 1503 0 
L 84 0 
L 84 113 
Q 275 113 384 172 
Q 447 203 484 290 
Q 522 378 522 647 
L 522 3238 
Q 522 3728 498 3840 
Q 475 3953 426 3993 
Q 378 4034 297 4034 
Q 231 4034 84 3984 
L 41 4094 
L 897 4444 
L 1041 4444 
z
" transform="scale(0.015625)"/>
      </defs>
      <use xlink:href="#TimesNewRomanPSMT-47"/>
      <use xlink:href="#TimesNewRomanPSMT-72" x="72.216797"/>
      <use xlink:href="#TimesNewRomanPSMT-6f" x="105.517578"/>
      <use xlink:href="#TimesNewRomanPSMT-75" x="155.517578"/>
      <use xlink:href="#TimesNewRomanPSMT-6e" x="205.517578"/>
      <use xlink:href="#TimesNewRomanPSMT-64" x="255.517578"/>
      <use xlink:href="#TimesNewRomanPSMT-54" x="305.517578"/>
      <use xlink:href="#TimesNewRomanPSMT-72" x="363.101562"/>
      <use xlink:href="#TimesNewRomanPSMT-75" x="396.402344"/>
      <use xlink:href="#TimesNewRomanPSMT-74" x="446.402344"/>
      <use xlink:href="#TimesNewRomanPSMT-68" x="474.185547"/>
     </g>
    </g>
    <g id="line2d_41">
     <path d="M 173.65875 92.1621 
L 189.65875 92.1621 
L 205.65875 92.1621 
" style="fill: none; stroke: #0000ff; stroke-width: 2; stroke-linecap: square"/>
    </g>
    <g id="text_34">
     <!-- LOAM -->
     <g transform="translate(218.45875 97.7621) scale(0.16 -0.16)">
      <defs>
       <path id="TimesNewRomanPSMT-4c" d="M 3669 1172 
L 3772 1150 
L 3409 0 
L 128 0 
L 128 116 
L 288 116 
Q 556 116 672 291 
Q 738 391 738 753 
L 738 3488 
Q 738 3884 650 3984 
Q 528 4122 288 4122 
L 128 4122 
L 128 4238 
L 2047 4238 
L 2047 4122 
Q 1709 4125 1573 4059 
Q 1438 3994 1388 3894 
Q 1338 3794 1338 3416 
L 1338 753 
Q 1338 494 1388 397 
Q 1425 331 1503 300 
Q 1581 269 1991 269 
L 2300 269 
Q 2788 269 2984 341 
Q 3181 413 3343 595 
Q 3506 778 3669 1172 
z
" transform="scale(0.015625)"/>
       <path id="TimesNewRomanPSMT-4f" d="M 2341 4334 
Q 3166 4334 3770 3707 
Q 4375 3081 4375 2144 
Q 4375 1178 3765 540 
Q 3156 -97 2291 -97 
Q 1416 -97 820 525 
Q 225 1147 225 2134 
Q 225 3144 913 3781 
Q 1509 4334 2341 4334 
z
M 2281 4106 
Q 1713 4106 1369 3684 
Q 941 3159 941 2147 
Q 941 1109 1384 550 
Q 1725 125 2284 125 
Q 2881 125 3270 590 
Q 3659 1056 3659 2059 
Q 3659 3147 3231 3681 
Q 2888 4106 2281 4106 
z
" transform="scale(0.015625)"/>
       <path id="TimesNewRomanPSMT-41" d="M 2928 1419 
L 1288 1419 
L 1000 750 
Q 894 503 894 381 
Q 894 284 986 211 
Q 1078 138 1384 116 
L 1384 0 
L 50 0 
L 50 116 
Q 316 163 394 238 
Q 553 388 747 847 
L 2238 4334 
L 2347 4334 
L 3822 809 
Q 4000 384 4145 257 
Q 4291 131 4550 116 
L 4550 0 
L 2878 0 
L 2878 116 
Q 3131 128 3220 200 
Q 3309 272 3309 375 
Q 3309 513 3184 809 
L 2928 1419 
z
M 2841 1650 
L 2122 3363 
L 1384 1650 
L 2841 1650 
z
" transform="scale(0.015625)"/>
       <path id="TimesNewRomanPSMT-4d" d="M 2619 0 
L 981 3566 
L 981 734 
Q 981 344 1066 247 
Q 1181 116 1431 116 
L 1581 116 
L 1581 0 
L 106 0 
L 106 116 
L 256 116 
Q 525 116 638 278 
Q 706 378 706 734 
L 706 3503 
Q 706 3784 644 3909 
Q 600 4000 483 4061 
Q 366 4122 106 4122 
L 106 4238 
L 1306 4238 
L 2844 922 
L 4356 4238 
L 5556 4238 
L 5556 4122 
L 5409 4122 
Q 5138 4122 5025 3959 
Q 4956 3859 4956 3503 
L 4956 734 
Q 4956 344 5044 247 
Q 5159 116 5409 116 
L 5556 116 
L 5556 0 
L 3756 0 
L 3756 116 
L 3906 116 
Q 4178 116 4288 278 
Q 4356 378 4356 734 
L 4356 3566 
L 2722 0 
L 2619 0 
z
" transform="scale(0.015625)"/>
      </defs>
      <use xlink:href="#TimesNewRomanPSMT-4c"/>
      <use xlink:href="#TimesNewRomanPSMT-4f" x="61.083984"/>
      <use xlink:href="#TimesNewRomanPSMT-41" x="133.300781"/>
      <use xlink:href="#TimesNewRomanPSMT-4d" x="205.517578"/>
     </g>
    </g>
    <g id="line2d_42">
     <path d="M 334.32625 69.5396 
L 350.32625 69.5396 
L 366.32625 69.5396 
" style="fill: none; stroke: #aa00ff; stroke-width: 2; stroke-linecap: square"/>
    </g>
    <g id="text_35">
     <!-- LeGO-LOAM -->
     <g transform="translate(379.12625 75.1396) scale(0.16 -0.16)">
      <defs>
       <path id="TimesNewRomanPSMT-65" d="M 681 1784 
Q 678 1147 991 784 
Q 1303 422 1725 422 
Q 2006 422 2214 576 
Q 2422 731 2563 1106 
L 2659 1044 
Q 2594 616 2278 264 
Q 1963 -88 1488 -88 
Q 972 -88 605 314 
Q 238 716 238 1394 
Q 238 2128 614 2539 
Q 991 2950 1559 2950 
Q 2041 2950 2350 2633 
Q 2659 2316 2659 1784 
L 681 1784 
z
M 681 1966 
L 2006 1966 
Q 1991 2241 1941 2353 
Q 1863 2528 1708 2628 
Q 1553 2728 1384 2728 
Q 1125 2728 920 2526 
Q 716 2325 681 1966 
z
" transform="scale(0.015625)"/>
       <path id="TimesNewRomanPSMT-2d" d="M 259 1672 
L 1875 1672 
L 1875 1200 
L 259 1200 
L 259 1672 
z
" transform="scale(0.015625)"/>
      </defs>
      <use xlink:href="#TimesNewRomanPSMT-4c"/>
      <use xlink:href="#TimesNewRomanPSMT-65" x="61.083984"/>
      <use xlink:href="#TimesNewRomanPSMT-47" x="105.46875"/>
      <use xlink:href="#TimesNewRomanPSMT-4f" x="177.685547"/>
      <use xlink:href="#TimesNewRomanPSMT-2d" x="249.902344"/>
      <use xlink:href="#TimesNewRomanPSMT-4c" x="283.203125"/>
      <use xlink:href="#TimesNewRomanPSMT-4f" x="344.287109"/>
      <use xlink:href="#TimesNewRomanPSMT-41" x="416.503906"/>
      <use xlink:href="#TimesNewRomanPSMT-4d" x="488.720703"/>
     </g>
    </g>
    <g id="line2d_43">
     <path d="M 334.32625 92.1621 
L 350.32625 92.1621 
L 366.32625 92.1621 
" style="fill: none; stroke: #ff9c00; stroke-width: 2; stroke-linecap: square"/>
    </g>
    <g id="text_36">
     <!-- HDL-SLAM -->
     <g transform="translate(379.12625 97.7621) scale(0.16 -0.16)">
      <defs>
       <path id="TimesNewRomanPSMT-48" d="M 1316 2272 
L 3284 2272 
L 3284 3484 
Q 3284 3809 3244 3913 
Q 3213 3991 3113 4047 
Q 2978 4122 2828 4122 
L 2678 4122 
L 2678 4238 
L 4491 4238 
L 4491 4122 
L 4341 4122 
Q 4191 4122 4056 4050 
Q 3956 4000 3920 3898 
Q 3884 3797 3884 3484 
L 3884 750 
Q 3884 428 3925 325 
Q 3956 247 4053 191 
Q 4191 116 4341 116 
L 4491 116 
L 4491 0 
L 2678 0 
L 2678 116 
L 2828 116 
Q 3088 116 3206 269 
Q 3284 369 3284 750 
L 3284 2041 
L 1316 2041 
L 1316 750 
Q 1316 428 1356 325 
Q 1388 247 1488 191 
Q 1622 116 1772 116 
L 1925 116 
L 1925 0 
L 109 0 
L 109 116 
L 259 116 
Q 522 116 641 269 
Q 716 369 716 750 
L 716 3484 
Q 716 3809 675 3913 
Q 644 3991 547 4047 
Q 409 4122 259 4122 
L 109 4122 
L 109 4238 
L 1925 4238 
L 1925 4122 
L 1772 4122 
Q 1622 4122 1488 4050 
Q 1391 4000 1353 3898 
Q 1316 3797 1316 3484 
L 1316 2272 
z
" transform="scale(0.015625)"/>
       <path id="TimesNewRomanPSMT-44" d="M 109 0 
L 109 116 
L 269 116 
Q 538 116 650 288 
Q 719 391 719 750 
L 719 3488 
Q 719 3884 631 3984 
Q 509 4122 269 4122 
L 109 4122 
L 109 4238 
L 1834 4238 
Q 2784 4238 3279 4022 
Q 3775 3806 4076 3303 
Q 4378 2800 4378 2141 
Q 4378 1256 3841 663 
Q 3238 0 2003 0 
L 109 0 
z
M 1319 306 
Q 1716 219 1984 219 
Q 2709 219 3187 728 
Q 3666 1238 3666 2109 
Q 3666 2988 3187 3494 
Q 2709 4000 1959 4000 
Q 1678 4000 1319 3909 
L 1319 306 
z
" transform="scale(0.015625)"/>
      </defs>
      <use xlink:href="#TimesNewRomanPSMT-48"/>
      <use xlink:href="#TimesNewRomanPSMT-44" x="72.216797"/>
      <use xlink:href="#TimesNewRomanPSMT-4c" x="144.433594"/>
      <use xlink:href="#TimesNewRomanPSMT-2d" x="205.517578"/>
      <use xlink:href="#TimesNewRomanPSMT-53" x="238.818359"/>
      <use xlink:href="#TimesNewRomanPSMT-4c" x="294.433594"/>
      <use xlink:href="#TimesNewRomanPSMT-41" x="355.517578"/>
      <use xlink:href="#TimesNewRomanPSMT-4d" x="427.734375"/>
     </g>
    </g>
    <g id="line2d_44">
     <path d="M 503.54875 69.5396 
L 519.54875 69.5396 
L 535.54875 69.5396 
" style="fill: none; stroke: #ff0000; stroke-width: 2; stroke-linecap: square"/>
    </g>
    <g id="text_37">
     <!-- CT-ICP -->
     <g transform="translate(548.34875 75.1396) scale(0.16 -0.16)">
      <defs>
       <path id="TimesNewRomanPSMT-43" d="M 3853 4334 
L 3950 2894 
L 3853 2894 
Q 3659 3541 3300 3825 
Q 2941 4109 2438 4109 
Q 2016 4109 1675 3895 
Q 1334 3681 1139 3212 
Q 944 2744 944 2047 
Q 944 1472 1128 1050 
Q 1313 628 1683 403 
Q 2053 178 2528 178 
Q 2941 178 3256 354 
Q 3572 531 3950 1056 
L 4047 994 
Q 3728 428 3303 165 
Q 2878 -97 2294 -97 
Q 1241 -97 663 684 
Q 231 1266 231 2053 
Q 231 2688 515 3219 
Q 800 3750 1298 4042 
Q 1797 4334 2388 4334 
Q 2847 4334 3294 4109 
Q 3425 4041 3481 4041 
Q 3566 4041 3628 4100 
Q 3709 4184 3744 4334 
L 3853 4334 
z
" transform="scale(0.015625)"/>
       <path id="TimesNewRomanPSMT-49" d="M 1975 116 
L 1975 0 
L 159 0 
L 159 116 
L 309 116 
Q 572 116 691 269 
Q 766 369 766 750 
L 766 3488 
Q 766 3809 725 3913 
Q 694 3991 597 4047 
Q 459 4122 309 4122 
L 159 4122 
L 159 4238 
L 1975 4238 
L 1975 4122 
L 1822 4122 
Q 1563 4122 1444 3969 
Q 1366 3869 1366 3488 
L 1366 750 
Q 1366 428 1406 325 
Q 1438 247 1538 191 
Q 1672 116 1822 116 
L 1975 116 
z
" transform="scale(0.015625)"/>
       <path id="TimesNewRomanPSMT-50" d="M 1313 1984 
L 1313 750 
Q 1313 350 1400 253 
Q 1519 116 1759 116 
L 1922 116 
L 1922 0 
L 106 0 
L 106 116 
L 266 116 
Q 534 116 650 291 
Q 713 388 713 750 
L 713 3488 
Q 713 3888 628 3984 
Q 506 4122 266 4122 
L 106 4122 
L 106 4238 
L 1659 4238 
Q 2228 4238 2556 4120 
Q 2884 4003 3109 3725 
Q 3334 3447 3334 3066 
Q 3334 2547 2992 2222 
Q 2650 1897 2025 1897 
Q 1872 1897 1694 1919 
Q 1516 1941 1313 1984 
z
M 1313 2163 
Q 1478 2131 1606 2115 
Q 1734 2100 1825 2100 
Q 2150 2100 2386 2351 
Q 2622 2603 2622 3003 
Q 2622 3278 2509 3514 
Q 2397 3750 2190 3867 
Q 1984 3984 1722 3984 
Q 1563 3984 1313 3925 
L 1313 2163 
z
" transform="scale(0.015625)"/>
      </defs>
      <use xlink:href="#TimesNewRomanPSMT-43"/>
      <use xlink:href="#TimesNewRomanPSMT-54" x="66.699219"/>
      <use xlink:href="#TimesNewRomanPSMT-2d" x="118.658203"/>
      <use xlink:href="#TimesNewRomanPSMT-49" x="151.958984"/>
      <use xlink:href="#TimesNewRomanPSMT-43" x="185.259766"/>
      <use xlink:href="#TimesNewRomanPSMT-50" x="251.958984"/>
     </g>
    </g>
    <g id="line2d_45">
     <path d="M 503.54875 92.1621 
L 519.54875 92.1621 
L 535.54875 92.1621 
" style="fill: none; stroke: #00ff00; stroke-width: 2; stroke-linecap: square"/>
    </g>
    <g id="text_38">
     <!-- ROLO -->
     <g transform="translate(548.34875 97.7621) scale(0.16 -0.16)">
      <defs>
       <path id="TimesNewRomanPSMT-52" d="M 4325 0 
L 3194 0 
L 1759 1981 
Q 1600 1975 1500 1975 
Q 1459 1975 1412 1976 
Q 1366 1978 1316 1981 
L 1316 750 
Q 1316 350 1403 253 
Q 1522 116 1759 116 
L 1925 116 
L 1925 0 
L 109 0 
L 109 116 
L 269 116 
Q 538 116 653 291 
Q 719 388 719 750 
L 719 3488 
Q 719 3888 631 3984 
Q 509 4122 269 4122 
L 109 4122 
L 109 4238 
L 1653 4238 
Q 2328 4238 2648 4139 
Q 2969 4041 3192 3777 
Q 3416 3513 3416 3147 
Q 3416 2756 3161 2468 
Q 2906 2181 2372 2063 
L 3247 847 
Q 3547 428 3762 290 
Q 3978 153 4325 116 
L 4325 0 
z
M 1316 2178 
Q 1375 2178 1419 2176 
Q 1463 2175 1491 2175 
Q 2097 2175 2405 2437 
Q 2713 2700 2713 3106 
Q 2713 3503 2464 3751 
Q 2216 4000 1806 4000 
Q 1625 4000 1316 3941 
L 1316 2178 
z
" transform="scale(0.015625)"/>
      </defs>
      <use xlink:href="#TimesNewRomanPSMT-52"/>
      <use xlink:href="#TimesNewRomanPSMT-4f" x="66.699219"/>
      <use xlink:href="#TimesNewRomanPSMT-4c" x="138.916016"/>
      <use xlink:href="#TimesNewRomanPSMT-4f" x="200"/>
     </g>
    </g>
   </g>
  </g>
 </g>
 <defs>
  <clipPath id="p6f34ef5255">
   <rect x="42.12" y="43.74" width="579.96" height="579.96"/>
  </clipPath>
 </defs>
</svg>
