<?xml version="1.0" encoding="utf-8" standalone="no"?>
<!DOCTYPE svg PUBLIC "-//W3C//DTD SVG 1.1//EN"
  "http://www.w3.org/Graphics/SVG/1.1/DTD/svg11.dtd">
<svg xmlns:xlink="http://www.w3.org/1999/xlink" width="720pt" height="360pt" viewBox="0 0 720 360" xmlns="http://www.w3.org/2000/svg" version="1.1">
 <metadata>
  <rdf:RDF xmlns:dc="http://purl.org/dc/elements/1.1/" xmlns:cc="http://creativecommons.org/ns#" xmlns:rdf="http://www.w3.org/1999/02/22-rdf-syntax-ns#">
   <cc:Work>
    <dc:type rdf:resource="http://purl.org/dc/dcmitype/StillImage"/>
    <dc:date>2024-08-06T11:49:28.126578</dc:date>
    <dc:format>image/svg+xml</dc:format>
    <dc:creator>
     <cc:Agent>
      <dc:title>Matplotlib v3.8.3, https://matplotlib.org/</dc:title>
     </cc:Agent>
    </dc:creator>
   </cc:Work>
  </rdf:RDF>
 </metadata>
 <defs>
  <style type="text/css">*{stroke-linejoin: round; stroke-linecap: butt}</style>
 </defs>
 <g id="figure_1">
  <g id="patch_1">
   <path d="M 0 360 
L 720 360 
L 720 0 
L 0 0 
z
" style="fill: #ffffff"/>
  </g>
  <g id="axes_1">
   <g id="patch_2">
    <path d="M 82.8 313.2 
L 709.2 313.2 
L 709.2 19.8 
L 82.8 19.8 
z
" style="fill: #ffffff"/>
   </g>
   <g id="matplotlib.axis_1">
    <g id="xtick_1">
     <g id="line2d_1">
      <path d="M 98.861538 313.2 
L 98.861538 19.8 
" clip-path="url(#p725bf6c95d)" style="fill: none; stroke-dasharray: 2.96,1.28; stroke-dashoffset: 0; stroke: #bdc3c7; stroke-width: 0.8"/>
     </g>
     <g id="line2d_2">
      <defs>
       <path id="m075376ffb9" d="M 0 0 
L 0 -3.5 
" style="stroke: #000000; stroke-width: 0.8"/>
      </defs>
      <g>
       <use xlink:href="#m075376ffb9" x="98.861538" y="313.2" style="stroke: #000000; stroke-width: 0.8"/>
      </g>
     </g>
     <g id="text_1">
      <!-- 0 -->
      <g transform="translate(93.135288 330.377187) scale(0.18 -0.18)">
       <defs>
        <path id="DejaVuSans-30" d="M 2034 4250 
Q 1547 4250 1301 3770 
Q 1056 3291 1056 2328 
Q 1056 1369 1301 889 
Q 1547 409 2034 409 
Q 2525 409 2770 889 
Q 3016 1369 3016 2328 
Q 3016 3291 2770 3770 
Q 2525 4250 2034 4250 
z
M 2034 4750 
Q 2819 4750 3233 4129 
Q 3647 3509 3647 2328 
Q 3647 1150 3233 529 
Q 2819 -91 2034 -91 
Q 1250 -91 836 529 
Q 422 1150 422 2328 
Q 422 3509 836 4129 
Q 1250 4750 2034 4750 
z
" transform="scale(0.015625)"/>
       </defs>
       <use xlink:href="#DejaVuSans-30"/>
      </g>
     </g>
    </g>
    <g id="xtick_2">
     <g id="line2d_3">
      <path d="M 179.169231 313.2 
L 179.169231 19.8 
" clip-path="url(#p725bf6c95d)" style="fill: none; stroke-dasharray: 2.96,1.28; stroke-dashoffset: 0; stroke: #bdc3c7; stroke-width: 0.8"/>
     </g>
     <g id="line2d_4">
      <g>
       <use xlink:href="#m075376ffb9" x="179.169231" y="313.2" style="stroke: #000000; stroke-width: 0.8"/>
      </g>
     </g>
     <g id="text_2">
      <!-- 25 -->
      <g transform="translate(167.716731 330.377187) scale(0.18 -0.18)">
       <defs>
        <path id="DejaVuSans-32" d="M 1228 531 
L 3431 531 
L 3431 0 
L 469 0 
L 469 531 
Q 828 903 1448 1529 
Q 2069 2156 2228 2338 
Q 2531 2678 2651 2914 
Q 2772 3150 2772 3378 
Q 2772 3750 2511 3984 
Q 2250 4219 1831 4219 
Q 1534 4219 1204 4116 
Q 875 4013 500 3803 
L 500 4441 
Q 881 4594 1212 4672 
Q 1544 4750 1819 4750 
Q 2544 4750 2975 4387 
Q 3406 4025 3406 3419 
Q 3406 3131 3298 2873 
Q 3191 2616 2906 2266 
Q 2828 2175 2409 1742 
Q 1991 1309 1228 531 
z
" transform="scale(0.015625)"/>
        <path id="DejaVuSans-35" d="M 691 4666 
L 3169 4666 
L 3169 4134 
L 1269 4134 
L 1269 2991 
Q 1406 3038 1543 3061 
Q 1681 3084 1819 3084 
Q 2600 3084 3056 2656 
Q 3513 2228 3513 1497 
Q 3513 744 3044 326 
Q 2575 -91 1722 -91 
Q 1428 -91 1123 -41 
Q 819 9 494 109 
L 494 744 
Q 775 591 1075 516 
Q 1375 441 1709 441 
Q 2250 441 2565 725 
Q 2881 1009 2881 1497 
Q 2881 1984 2565 2268 
Q 2250 2553 1709 2553 
Q 1456 2553 1204 2497 
Q 953 2441 691 2322 
L 691 4666 
z
" transform="scale(0.015625)"/>
       </defs>
       <use xlink:href="#DejaVuSans-32"/>
       <use xlink:href="#DejaVuSans-35" x="63.623047"/>
      </g>
     </g>
    </g>
    <g id="xtick_3">
     <g id="line2d_5">
      <path d="M 259.476923 313.2 
L 259.476923 19.8 
" clip-path="url(#p725bf6c95d)" style="fill: none; stroke-dasharray: 2.96,1.28; stroke-dashoffset: 0; stroke: #bdc3c7; stroke-width: 0.8"/>
     </g>
     <g id="line2d_6">
      <g>
       <use xlink:href="#m075376ffb9" x="259.476923" y="313.2" style="stroke: #000000; stroke-width: 0.8"/>
      </g>
     </g>
     <g id="text_3">
      <!-- 50 -->
      <g transform="translate(248.024423 330.377187) scale(0.18 -0.18)">
       <use xlink:href="#DejaVuSans-35"/>
       <use xlink:href="#DejaVuSans-30" x="63.623047"/>
      </g>
     </g>
    </g>
    <g id="xtick_4">
     <g id="line2d_7">
      <path d="M 339.784615 313.2 
L 339.784615 19.8 
" clip-path="url(#p725bf6c95d)" style="fill: none; stroke-dasharray: 2.96,1.28; stroke-dashoffset: 0; stroke: #bdc3c7; stroke-width: 0.8"/>
     </g>
     <g id="line2d_8">
      <g>
       <use xlink:href="#m075376ffb9" x="339.784615" y="313.2" style="stroke: #000000; stroke-width: 0.8"/>
      </g>
     </g>
     <g id="text_4">
      <!-- 75 -->
      <g transform="translate(328.332115 330.377187) scale(0.18 -0.18)">
       <defs>
        <path id="DejaVuSans-37" d="M 525 4666 
L 3525 4666 
L 3525 4397 
L 1831 0 
L 1172 0 
L 2766 4134 
L 525 4134 
L 525 4666 
z
" transform="scale(0.015625)"/>
       </defs>
       <use xlink:href="#DejaVuSans-37"/>
       <use xlink:href="#DejaVuSans-35" x="63.623047"/>
      </g>
     </g>
    </g>
    <g id="xtick_5">
     <g id="line2d_9">
      <path d="M 420.092308 313.2 
L 420.092308 19.8 
" clip-path="url(#p725bf6c95d)" style="fill: none; stroke-dasharray: 2.96,1.28; stroke-dashoffset: 0; stroke: #bdc3c7; stroke-width: 0.8"/>
     </g>
     <g id="line2d_10">
      <g>
       <use xlink:href="#m075376ffb9" x="420.092308" y="313.2" style="stroke: #000000; stroke-width: 0.8"/>
      </g>
     </g>
     <g id="text_5">
      <!-- 100 -->
      <g transform="translate(402.913558 330.377187) scale(0.18 -0.18)">
       <defs>
        <path id="DejaVuSans-31" d="M 794 531 
L 1825 531 
L 1825 4091 
L 703 3866 
L 703 4441 
L 1819 4666 
L 2450 4666 
L 2450 531 
L 3481 531 
L 3481 0 
L 794 0 
L 794 531 
z
" transform="scale(0.015625)"/>
       </defs>
       <use xlink:href="#DejaVuSans-31"/>
       <use xlink:href="#DejaVuSans-30" x="63.623047"/>
       <use xlink:href="#DejaVuSans-30" x="127.246094"/>
      </g>
     </g>
    </g>
    <g id="xtick_6">
     <g id="line2d_11">
      <path d="M 500.4 313.2 
L 500.4 19.8 
" clip-path="url(#p725bf6c95d)" style="fill: none; stroke-dasharray: 2.96,1.28; stroke-dashoffset: 0; stroke: #bdc3c7; stroke-width: 0.8"/>
     </g>
     <g id="line2d_12">
      <g>
       <use xlink:href="#m075376ffb9" x="500.4" y="313.2" style="stroke: #000000; stroke-width: 0.8"/>
      </g>
     </g>
     <g id="text_6">
      <!-- 125 -->
      <g transform="translate(483.22125 330.377187) scale(0.18 -0.18)">
       <use xlink:href="#DejaVuSans-31"/>
       <use xlink:href="#DejaVuSans-32" x="63.623047"/>
       <use xlink:href="#DejaVuSans-35" x="127.246094"/>
      </g>
     </g>
    </g>
    <g id="xtick_7">
     <g id="line2d_13">
      <path d="M 580.707692 313.2 
L 580.707692 19.8 
" clip-path="url(#p725bf6c95d)" style="fill: none; stroke-dasharray: 2.96,1.28; stroke-dashoffset: 0; stroke: #bdc3c7; stroke-width: 0.8"/>
     </g>
     <g id="line2d_14">
      <g>
       <use xlink:href="#m075376ffb9" x="580.707692" y="313.2" style="stroke: #000000; stroke-width: 0.8"/>
      </g>
     </g>
     <g id="text_7">
      <!-- 150 -->
      <g transform="translate(563.528942 330.377187) scale(0.18 -0.18)">
       <use xlink:href="#DejaVuSans-31"/>
       <use xlink:href="#DejaVuSans-35" x="63.623047"/>
       <use xlink:href="#DejaVuSans-30" x="127.246094"/>
      </g>
     </g>
    </g>
    <g id="xtick_8">
     <g id="line2d_15">
      <path d="M 661.015385 313.2 
L 661.015385 19.8 
" clip-path="url(#p725bf6c95d)" style="fill: none; stroke-dasharray: 2.96,1.28; stroke-dashoffset: 0; stroke: #bdc3c7; stroke-width: 0.8"/>
     </g>
     <g id="line2d_16">
      <g>
       <use xlink:href="#m075376ffb9" x="661.015385" y="313.2" style="stroke: #000000; stroke-width: 0.8"/>
      </g>
     </g>
     <g id="text_8">
      <!-- 175 -->
      <g transform="translate(643.836635 330.377187) scale(0.18 -0.18)">
       <use xlink:href="#DejaVuSans-31"/>
       <use xlink:href="#DejaVuSans-37" x="63.623047"/>
       <use xlink:href="#DejaVuSans-35" x="127.246094"/>
      </g>
     </g>
    </g>
    <g id="text_9">
     <!-- Time(s) -->
     <g transform="translate(358.434375 354.785625) scale(0.24 -0.24)">
      <defs>
       <path id="TimesNewRomanPSMT-54" d="M 3703 4238 
L 3750 3244 
L 3631 3244 
Q 3597 3506 3538 3619 
Q 3441 3800 3280 3886 
Q 3119 3972 2856 3972 
L 2259 3972 
L 2259 734 
Q 2259 344 2344 247 
Q 2463 116 2709 116 
L 2856 116 
L 2856 0 
L 1059 0 
L 1059 116 
L 1209 116 
Q 1478 116 1591 278 
Q 1659 378 1659 734 
L 1659 3972 
L 1150 3972 
Q 853 3972 728 3928 
Q 566 3869 450 3700 
Q 334 3531 313 3244 
L 194 3244 
L 244 4238 
L 3703 4238 
z
" transform="scale(0.015625)"/>
       <path id="TimesNewRomanPSMT-69" d="M 928 4444 
Q 1059 4444 1151 4351 
Q 1244 4259 1244 4128 
Q 1244 3997 1151 3903 
Q 1059 3809 928 3809 
Q 797 3809 703 3903 
Q 609 3997 609 4128 
Q 609 4259 701 4351 
Q 794 4444 928 4444 
z
M 1188 2947 
L 1188 647 
Q 1188 378 1227 289 
Q 1266 200 1342 156 
Q 1419 113 1622 113 
L 1622 0 
L 231 0 
L 231 113 
Q 441 113 512 153 
Q 584 194 626 287 
Q 669 381 669 647 
L 669 1750 
Q 669 2216 641 2353 
Q 619 2453 572 2492 
Q 525 2531 444 2531 
Q 356 2531 231 2484 
L 188 2597 
L 1050 2947 
L 1188 2947 
z
" transform="scale(0.015625)"/>
       <path id="TimesNewRomanPSMT-6d" d="M 1050 2338 
Q 1363 2650 1419 2697 
Q 1559 2816 1721 2881 
Q 1884 2947 2044 2947 
Q 2313 2947 2506 2790 
Q 2700 2634 2766 2338 
Q 3088 2713 3309 2830 
Q 3531 2947 3766 2947 
Q 3994 2947 4170 2830 
Q 4347 2713 4450 2447 
Q 4519 2266 4519 1878 
L 4519 647 
Q 4519 378 4559 278 
Q 4591 209 4675 161 
Q 4759 113 4950 113 
L 4950 0 
L 3538 0 
L 3538 113 
L 3597 113 
Q 3781 113 3884 184 
Q 3956 234 3988 344 
Q 4000 397 4000 647 
L 4000 1878 
Q 4000 2228 3916 2372 
Q 3794 2572 3525 2572 
Q 3359 2572 3192 2489 
Q 3025 2406 2788 2181 
L 2781 2147 
L 2788 2013 
L 2788 647 
Q 2788 353 2820 281 
Q 2853 209 2943 161 
Q 3034 113 3253 113 
L 3253 0 
L 1806 0 
L 1806 113 
Q 2044 113 2133 169 
Q 2222 225 2256 338 
Q 2272 391 2272 647 
L 2272 1878 
Q 2272 2228 2169 2381 
Q 2031 2581 1784 2581 
Q 1616 2581 1450 2491 
Q 1191 2353 1050 2181 
L 1050 647 
Q 1050 366 1089 281 
Q 1128 197 1204 155 
Q 1281 113 1516 113 
L 1516 0 
L 100 0 
L 100 113 
Q 297 113 375 155 
Q 453 197 493 289 
Q 534 381 534 647 
L 534 1741 
Q 534 2213 506 2350 
Q 484 2453 437 2492 
Q 391 2531 309 2531 
Q 222 2531 100 2484 
L 53 2597 
L 916 2947 
L 1050 2947 
L 1050 2338 
z
" transform="scale(0.015625)"/>
       <path id="TimesNewRomanPSMT-65" d="M 681 1784 
Q 678 1147 991 784 
Q 1303 422 1725 422 
Q 2006 422 2214 576 
Q 2422 731 2563 1106 
L 2659 1044 
Q 2594 616 2278 264 
Q 1963 -88 1488 -88 
Q 972 -88 605 314 
Q 238 716 238 1394 
Q 238 2128 614 2539 
Q 991 2950 1559 2950 
Q 2041 2950 2350 2633 
Q 2659 2316 2659 1784 
L 681 1784 
z
M 681 1966 
L 2006 1966 
Q 1991 2241 1941 2353 
Q 1863 2528 1708 2628 
Q 1553 2728 1384 2728 
Q 1125 2728 920 2526 
Q 716 2325 681 1966 
z
" transform="scale(0.015625)"/>
       <path id="TimesNewRomanPSMT-28" d="M 1988 -1253 
L 1988 -1369 
Q 1516 -1131 1200 -813 
Q 750 -359 506 256 
Q 263 872 263 1534 
Q 263 2503 741 3301 
Q 1219 4100 1988 4444 
L 1988 4313 
Q 1603 4100 1356 3731 
Q 1109 3363 987 2797 
Q 866 2231 866 1616 
Q 866 947 969 400 
Q 1050 -31 1165 -292 
Q 1281 -553 1476 -793 
Q 1672 -1034 1988 -1253 
z
" transform="scale(0.015625)"/>
       <path id="TimesNewRomanPSMT-73" d="M 2050 2947 
L 2050 1972 
L 1947 1972 
Q 1828 2431 1642 2597 
Q 1456 2763 1169 2763 
Q 950 2763 815 2647 
Q 681 2531 681 2391 
Q 681 2216 781 2091 
Q 878 1963 1175 1819 
L 1631 1597 
Q 2266 1288 2266 781 
Q 2266 391 1970 151 
Q 1675 -88 1309 -88 
Q 1047 -88 709 6 
Q 606 38 541 38 
Q 469 38 428 -44 
L 325 -44 
L 325 978 
L 428 978 
Q 516 541 762 319 
Q 1009 97 1316 97 
Q 1531 97 1667 223 
Q 1803 350 1803 528 
Q 1803 744 1651 891 
Q 1500 1038 1047 1263 
Q 594 1488 453 1669 
Q 313 1847 313 2119 
Q 313 2472 555 2709 
Q 797 2947 1181 2947 
Q 1350 2947 1591 2875 
Q 1750 2828 1803 2828 
Q 1853 2828 1881 2850 
Q 1909 2872 1947 2947 
L 2050 2947 
z
" transform="scale(0.015625)"/>
       <path id="TimesNewRomanPSMT-29" d="M 144 4313 
L 144 4444 
Q 619 4209 934 3891 
Q 1381 3434 1625 2820 
Q 1869 2206 1869 1541 
Q 1869 572 1392 -226 
Q 916 -1025 144 -1369 
L 144 -1253 
Q 528 -1038 776 -670 
Q 1025 -303 1145 264 
Q 1266 831 1266 1447 
Q 1266 2113 1163 2663 
Q 1084 3094 967 3353 
Q 850 3613 656 3853 
Q 463 4094 144 4313 
z
" transform="scale(0.015625)"/>
      </defs>
      <use xlink:href="#TimesNewRomanPSMT-54"/>
      <use xlink:href="#TimesNewRomanPSMT-69" x="57.583984"/>
      <use xlink:href="#TimesNewRomanPSMT-6d" x="85.367188"/>
      <use xlink:href="#TimesNewRomanPSMT-65" x="163.150391"/>
      <use xlink:href="#TimesNewRomanPSMT-28" x="207.535156"/>
      <use xlink:href="#TimesNewRomanPSMT-73" x="240.835938"/>
      <use xlink:href="#TimesNewRomanPSMT-29" x="279.751953"/>
     </g>
    </g>
   </g>
   <g id="matplotlib.axis_2">
    <g id="ytick_1">
     <g id="line2d_17">
      <path d="M 82.8 288.75 
L 709.2 288.75 
" clip-path="url(#p725bf6c95d)" style="fill: none; stroke-dasharray: 2.96,1.28; stroke-dashoffset: 0; stroke: #bdc3c7; stroke-width: 0.8"/>
     </g>
     <g id="line2d_18">
      <defs>
       <path id="m7827bdd913" d="M 0 0 
L 3.5 0 
" style="stroke: #000000; stroke-width: 0.8"/>
      </defs>
      <g>
       <use xlink:href="#m7827bdd913" x="82.8" y="288.75" style="stroke: #000000; stroke-width: 0.8"/>
      </g>
     </g>
     <g id="text_10">
      <!-- −300 -->
      <g transform="translate(29.859063 295.588594) scale(0.18 -0.18)">
       <defs>
        <path id="DejaVuSans-2212" d="M 678 2272 
L 4684 2272 
L 4684 1741 
L 678 1741 
L 678 2272 
z
" transform="scale(0.015625)"/>
        <path id="DejaVuSans-33" d="M 2597 2516 
Q 3050 2419 3304 2112 
Q 3559 1806 3559 1356 
Q 3559 666 3084 287 
Q 2609 -91 1734 -91 
Q 1441 -91 1130 -33 
Q 819 25 488 141 
L 488 750 
Q 750 597 1062 519 
Q 1375 441 1716 441 
Q 2309 441 2620 675 
Q 2931 909 2931 1356 
Q 2931 1769 2642 2001 
Q 2353 2234 1838 2234 
L 1294 2234 
L 1294 2753 
L 1863 2753 
Q 2328 2753 2575 2939 
Q 2822 3125 2822 3475 
Q 2822 3834 2567 4026 
Q 2313 4219 1838 4219 
Q 1578 4219 1281 4162 
Q 984 4106 628 3988 
L 628 4550 
Q 988 4650 1302 4700 
Q 1616 4750 1894 4750 
Q 2613 4750 3031 4423 
Q 3450 4097 3450 3541 
Q 3450 3153 3228 2886 
Q 3006 2619 2597 2516 
z
" transform="scale(0.015625)"/>
       </defs>
       <use xlink:href="#DejaVuSans-2212"/>
       <use xlink:href="#DejaVuSans-33" x="83.789062"/>
       <use xlink:href="#DejaVuSans-30" x="147.412109"/>
       <use xlink:href="#DejaVuSans-30" x="211.035156"/>
      </g>
     </g>
    </g>
    <g id="ytick_2">
     <g id="line2d_19">
      <path d="M 82.8 239.85 
L 709.2 239.85 
" clip-path="url(#p725bf6c95d)" style="fill: none; stroke-dasharray: 2.96,1.28; stroke-dashoffset: 0; stroke: #bdc3c7; stroke-width: 0.8"/>
     </g>
     <g id="line2d_20">
      <g>
       <use xlink:href="#m7827bdd913" x="82.8" y="239.85" style="stroke: #000000; stroke-width: 0.8"/>
      </g>
     </g>
     <g id="text_11">
      <!-- −200 -->
      <g transform="translate(29.859063 246.688594) scale(0.18 -0.18)">
       <use xlink:href="#DejaVuSans-2212"/>
       <use xlink:href="#DejaVuSans-32" x="83.789062"/>
       <use xlink:href="#DejaVuSans-30" x="147.412109"/>
       <use xlink:href="#DejaVuSans-30" x="211.035156"/>
      </g>
     </g>
    </g>
    <g id="ytick_3">
     <g id="line2d_21">
      <path d="M 82.8 190.95 
L 709.2 190.95 
" clip-path="url(#p725bf6c95d)" style="fill: none; stroke-dasharray: 2.96,1.28; stroke-dashoffset: 0; stroke: #bdc3c7; stroke-width: 0.8"/>
     </g>
     <g id="line2d_22">
      <g>
       <use xlink:href="#m7827bdd913" x="82.8" y="190.95" style="stroke: #000000; stroke-width: 0.8"/>
      </g>
     </g>
     <g id="text_12">
      <!-- −100 -->
      <g transform="translate(29.859063 197.788594) scale(0.18 -0.18)">
       <use xlink:href="#DejaVuSans-2212"/>
       <use xlink:href="#DejaVuSans-31" x="83.789062"/>
       <use xlink:href="#DejaVuSans-30" x="147.412109"/>
       <use xlink:href="#DejaVuSans-30" x="211.035156"/>
      </g>
     </g>
    </g>
    <g id="ytick_4">
     <g id="line2d_23">
      <path d="M 82.8 142.05 
L 709.2 142.05 
" clip-path="url(#p725bf6c95d)" style="fill: none; stroke-dasharray: 2.96,1.28; stroke-dashoffset: 0; stroke: #bdc3c7; stroke-width: 0.8"/>
     </g>
     <g id="line2d_24">
      <g>
       <use xlink:href="#m7827bdd913" x="82.8" y="142.05" style="stroke: #000000; stroke-width: 0.8"/>
      </g>
     </g>
     <g id="text_13">
      <!-- 0 -->
      <g transform="translate(67.8475 148.888594) scale(0.18 -0.18)">
       <use xlink:href="#DejaVuSans-30"/>
      </g>
     </g>
    </g>
    <g id="ytick_5">
     <g id="line2d_25">
      <path d="M 82.8 93.15 
L 709.2 93.15 
" clip-path="url(#p725bf6c95d)" style="fill: none; stroke-dasharray: 2.96,1.28; stroke-dashoffset: 0; stroke: #bdc3c7; stroke-width: 0.8"/>
     </g>
     <g id="line2d_26">
      <g>
       <use xlink:href="#m7827bdd913" x="82.8" y="93.15" style="stroke: #000000; stroke-width: 0.8"/>
      </g>
     </g>
     <g id="text_14">
      <!-- 100 -->
      <g transform="translate(44.9425 99.988594) scale(0.18 -0.18)">
       <use xlink:href="#DejaVuSans-31"/>
       <use xlink:href="#DejaVuSans-30" x="63.623047"/>
       <use xlink:href="#DejaVuSans-30" x="127.246094"/>
      </g>
     </g>
    </g>
    <g id="ytick_6">
     <g id="line2d_27">
      <path d="M 82.8 44.25 
L 709.2 44.25 
" clip-path="url(#p725bf6c95d)" style="fill: none; stroke-dasharray: 2.96,1.28; stroke-dashoffset: 0; stroke: #bdc3c7; stroke-width: 0.8"/>
     </g>
     <g id="line2d_28">
      <g>
       <use xlink:href="#m7827bdd913" x="82.8" y="44.25" style="stroke: #000000; stroke-width: 0.8"/>
      </g>
     </g>
     <g id="text_15">
      <!-- 200 -->
      <g transform="translate(44.9425 51.088594) scale(0.18 -0.18)">
       <use xlink:href="#DejaVuSans-32"/>
       <use xlink:href="#DejaVuSans-30" x="63.623047"/>
       <use xlink:href="#DejaVuSans-30" x="127.246094"/>
      </g>
     </g>
    </g>
    <g id="text_16">
     <!-- Z(m) -->
     <g transform="translate(20.725313 191.154375) rotate(-90) scale(0.24 -0.24)">
      <defs>
       <path id="TimesNewRomanPSMT-5a" d="M 3681 4238 
L 897 256 
L 2634 256 
Q 3034 256 3248 431 
Q 3463 606 3628 1141 
L 3731 1122 
L 3531 0 
L 81 0 
L 81 116 
L 2800 3984 
L 1444 3984 
Q 1106 3984 954 3911 
Q 803 3838 723 3698 
Q 644 3559 578 3178 
L 459 3178 
L 547 4238 
L 3681 4238 
z
" transform="scale(0.015625)"/>
      </defs>
      <use xlink:href="#TimesNewRomanPSMT-5a"/>
      <use xlink:href="#TimesNewRomanPSMT-28" x="61.083984"/>
      <use xlink:href="#TimesNewRomanPSMT-6d" x="94.384766"/>
      <use xlink:href="#TimesNewRomanPSMT-29" x="172.167969"/>
     </g>
    </g>
   </g>
   <g id="line2d_29">
    <path d="M 98.861538 142.05 
L 130.419522 141.883808 
L 158.113189 141.682964 
L 183.874919 142.121506 
L 195.467648 142.21987 
L 210.924656 142.332824 
L 240.550552 142.328961 
L 251.499173 142.499439 
L 255.363628 142.720095 
L 259.227676 142.878653 
L 261.803897 143.034197 
L 265.668073 143.141933 
L 284.989365 143.502344 
L 296.582162 143.715668 
L 349.39394 145.039052 
L 354.545774 145.102875 
L 360.986155 145.234317 
L 372.578651 145.54223 
L 384.171645 146.177027 
L 394.476313 146.7464 
L 411.221353 147.5651 
L 415.085623 147.619444 
L 421.526018 147.793895 
L 430.5431 148.185071 
L 434.406973 148.228494 
L 439.558606 148.342332 
L 451.152431 148.554572 
L 467.896952 148.664843 
L 475.625441 148.659564 
L 516.844079 148.837006 
L 533.589327 148.969597 
L 538.741448 149.029619 
L 558.063229 149.420884 
L 582.5363 150.313177 
L 590.265254 150.599724 
L 595.417129 150.830343 
L 604.433666 151.207507 
L 610.874078 151.484583 
L 613.450244 151.546037 
L 617.314493 151.766876 
L 621.179038 151.919761 
L 638.568133 152.721218 
L 646.296189 152.977595 
L 654.025145 153.396636 
L 657.889098 153.60846 
L 671.413972 154.290317 
L 682.362645 154.843162 
L 695.888023 155.079542 
L 701.68387 155.133921 
L 703.616026 155.129076 
L 703.616026 155.129076 
" clip-path="url(#p725bf6c95d)" style="fill: none; stroke-dasharray: 10.175,4.4; stroke-dashoffset: 0; stroke: #808a87; stroke-width: 2.75"/>
   </g>
   <g id="line2d_30">
    <path d="M 98.5395 142.05 
L 123.013342 142.065728 
L 127.843863 142.063781 
L 134.605796 142.014445 
L 142.334264 141.946679 
L 154.249039 142.010309 
L 159.401365 142.133171 
L 163.587653 142.212111 
L 174.21455 142.539683 
L 188.705211 143.020009 
L 205.77284 144.229773 
L 218.009082 145.481573 
L 221.551333 145.822409 
L 232.499922 146.70916 
L 237.0083 146.949351 
L 250.533139 147.822722 
L 252.787314 148.023845 
L 257.939971 148.790858 
L 264.057987 149.803919 
L 266.956201 150.291676 
L 277.261359 152.239795 
L 289.175665 154.609181 
L 292.074161 155.170464 
L 312.683101 159.28639 
L 314.615205 159.705661 
L 324.275918 161.749882 
L 328.462081 162.824694 
L 332.004334 163.857791 
L 358.410502 171.904142 
L 378.053341 177.522647 
L 380.307385 178.214041 
L 381.917535 178.689833 
L 386.103758 179.903856 
L 388.679544 180.536532 
L 398.662581 182.751525 
L 424.746409 189.673212 
L 436.33901 191.91124 
L 437.94905 192.209685 
L 439.558606 192.539893 
L 441.813512 193.078767 
L 444.711496 193.785327 
L 459.84699 197.191155 
L 462.744975 197.783431 
L 464.6768 198.224381 
L 474.659376 200.612834 
L 483.353974 202.84753 
L 486.574145 203.651371 
L 490.438415 204.891895 
L 494.302673 206.169259 
L 505.251812 209.665497 
L 508.794026 210.657398 
L 538.741448 219.937938 
L 541.639672 220.889482 
L 547.758029 222.719539 
L 552.588388 224.165072 
L 555.486657 225.008374 
L 558.063229 225.760007 
L 569.333453 229.192378 
L 581.570273 232.343056 
L 584.790771 233.211044 
L 588.65471 234.243587 
L 591.553266 235.077861 
L 596.705178 236.733709 
L 602.179243 238.491071 
L 605.721749 239.673658 
L 626.331066 245.947042 
L 630.839384 247.113248 
L 635.991332 248.170036 
L 641.466346 248.777115 
L 644.364263 248.999919 
L 652.092807 249.422691 
L 658.211116 249.256288 
L 660.46528 249.101732 
L 662.397674 248.970698 
L 667.549967 248.590903 
L 678.820394 247.831907 
L 683.328725 247.837172 
L 685.904876 247.995059 
L 692.667342 248.865986 
L 695.888023 249.559587 
L 703.938009 251.517216 
L 704.260068 251.579005 
L 704.260068 251.579005 
" clip-path="url(#p725bf6c95d)" style="fill: none; stroke: #0000ff; stroke-width: 2; stroke-linecap: square"/>
   </g>
   <g id="line2d_31">
    <path d="M 101.434473 142.05 
L 101.437685 142.048704 
L 101.437685 142.048704 
L 149.740758 142.149258 
L 151.994891 142.176765 
L 156.503498 142.312398 
L 162.621582 142.594264 
L 165.197842 142.723645 
L 230.889993 145.340485 
L 246.024866 145.678914 
L 258.905702 146.569675 
L 260.837794 146.797173 
L 266.312156 147.2175 
L 279.192975 148.029872 
L 284.989365 148.40803 
L 284.989365 148.40803 
L 295.616282 149.068262 
L 302.378438 149.403762 
L 303.988864 149.416176 
L 304.310681 149.68353 
L 322.665713 150.955002 
L 330.072206 151.466401 
L 341.986992 152.444693 
L 353.901702 153.320644 
L 356.477845 153.471702 
L 365.494476 154.134314 
L 368.3925 154.321586 
L 380.951916 155.52509 
L 387.391921 156.299344 
L 389.001951 156.441736 
L 412.831661 158.809272 
L 423.458466 159.663478 
L 426.034524 159.923281 
L 442.779382 161.138116 
L 445.355565 161.328514 
L 448.253728 161.505141 
L 460.490783 162.230273 
L 480.455843 163.20037 
L 486.896174 163.404792 
L 487.862276 163.296012 
L 488.184272 163.442176 
L 489.15034 163.317355 
L 489.472353 163.565995 
L 490.438415 163.442618 
L 490.760429 163.628347 
L 491.726681 163.523946 
L 491.726681 163.523946 
L 492.692861 163.609165 
L 493.014564 163.574627 
L 493.336579 163.77976 
L 494.302673 163.680519 
L 494.624686 163.858106 
L 495.590727 163.762105 
L 495.912774 163.936282 
L 495.912774 163.936282 
L 496.556813 163.871939 
L 497.200833 164.048675 
L 498.167374 163.925596 
L 498.489091 164.101075 
L 499.132764 164.019168 
L 500.099037 164.123419 
L 500.743101 164.039832 
L 501.065102 164.239818 
L 502.031081 164.121142 
L 502.353146 164.31044 
L 503.319271 164.187302 
L 503.641239 164.380464 
L 504.607424 164.262348 
L 504.929632 164.447732 
L 505.895622 164.32957 
L 506.217824 164.529866 
L 507.183101 164.421907 
L 507.505493 164.617547 
L 508.471842 164.509615 
L 508.794026 164.704649 
L 509.759938 164.595197 
L 510.082176 164.778919 
L 511.047725 164.664577 
L 511.370055 164.860439 
L 512.335605 164.751565 
L 512.657909 164.942014 
L 513.623935 164.849395 
L 513.946162 165.007767 
L 514.91199 164.914823 
L 515.23396 165.089574 
L 516.200045 165.006411 
L 516.522029 165.172134 
L 517.488123 165.091506 
L 517.810186 165.240655 
L 518.776174 165.153976 
L 519.098244 165.329148 
L 520.064321 165.242542 
L 520.38632 165.39813 
L 521.35241 165.327784 
L 521.674413 165.499992 
L 522.640205 165.466766 
L 522.962479 165.575952 
L 523.928547 165.540129 
L 524.250575 165.646301 
L 525.216742 165.612647 
L 525.538815 165.725731 
L 527.79278 165.76912 
L 528.114834 165.890191 
L 530.369005 165.931774 
L 530.690986 166.04077 
L 531.656995 166.016012 
L 532.301055 166.114579 
L 532.945403 166.100241 
L 533.589327 166.198006 
L 534.233253 166.188082 
L 534.555224 166.305086 
L 536.809611 166.328858 
L 537.131423 166.440518 
L 538.097631 166.413167 
L 538.741448 166.511364 
L 539.38552 166.500705 
L 539.707829 166.624861 
L 541.961702 166.699739 
L 542.606225 166.806289 
L 544.537865 166.886392 
L 545.182208 166.985727 
L 545.825951 166.973921 
L 546.469996 167.090414 
L 547.114051 167.090842 
L 547.758029 167.213006 
L 549.690212 167.307802 
L 550.334198 167.403453 
L 550.978264 167.388992 
L 551.300282 167.511029 
L 553.554579 167.590893 
L 553.876467 167.718435 
L 556.130883 167.776158 
L 556.452733 167.893229 
L 557.418651 167.880803 
L 557.740737 168.001744 
L 558.706497 167.98959 
L 559.029009 168.111504 
L 561.283066 168.214989 
L 561.926975 168.340201 
L 562.57152 168.348328 
L 562.893513 168.469673 
L 563.859107 168.470599 
L 564.181186 168.594288 
L 566.435286 168.697448 
L 567.0798 168.788892 
L 567.723328 168.776484 
L 568.367397 168.879016 
L 569.011436 168.875994 
L 569.333453 169.000008 
L 570.29949 168.99987 
L 570.943522 169.099878 
L 572.875428 169.20128 
L 573.197707 169.318691 
L 574.807776 169.403847 
L 576.096178 169.507552 
L 577.062101 169.619922 
L 578.028482 169.637096 
L 578.672429 169.754983 
L 579.316176 169.761855 
L 579.960636 169.873639 
L 581.892516 169.94495 
L 582.21425 170.071992 
L 584.468883 170.130221 
L 585.112607 170.23615 
L 586.400547 170.350632 
L 588.332736 170.478059 
L 588.976764 170.567519 
L 589.620729 170.566399 
L 589.942831 170.687101 
L 590.909323 170.688259 
L 591.553266 170.799046 
L 593.48528 170.915018 
L 594.129012 171.035546 
L 596.061455 171.12895 
L 596.383437 171.254688 
L 597.349215 171.257954 
L 597.993303 171.369886 
L 599.925412 171.480743 
L 600.569421 171.58826 
L 602.50155 171.71255 
L 603.145618 171.81817 
L 603.789629 171.831274 
L 604.433666 171.948065 
L 605.399713 172.068843 
L 607.653879 172.194625 
L 608.297936 172.27043 
L 608.941945 172.271352 
L 609.586019 172.388266 
L 610.22989 172.394827 
L 610.874078 172.511189 
L 612.48415 172.603201 
L 614.094271 172.730642 
L 614.738778 172.82561 
L 616.670528 172.944281 
L 617.314493 173.05516 
L 619.246932 173.166767 
L 619.890952 173.279281 
L 621.822759 173.383257 
L 621.822759 173.383257 
L 622.466798 173.504739 
L 622.466798 173.504739 
L 624.398783 173.628913 
L 624.398783 173.628913 
L 626.00934 173.837164 
L 626.00934 173.837164 
L 626.653089 173.846678 
L 627.61912 173.965413 
L 629.551301 174.084681 
L 629.551301 174.084681 
L 630.19531 174.193552 
L 632.127963 174.281288 
L 632.771496 174.37925 
L 634.703614 174.483652 
L 635.348168 174.569743 
L 637.27974 174.638966 
L 637.923785 174.70083 
L 638.568133 174.687425 
L 638.889882 174.815808 
L 641.143786 174.864576 
L 641.788561 174.976088 
L 663.041427 176.130385 
L 664.007494 176.135444 
L 685.260402 177.100361 
L 704.260068 177.884915 
L 704.260068 177.884915 
" clip-path="url(#p725bf6c95d)" style="fill: none; stroke: #aa00ff; stroke-width: 2; stroke-linecap: square"/>
   </g>
   <g id="line2d_32">
    <path d="M 98.5395 142.05 
L 126.233656 142.154128 
L 133.961768 142.24378 
L 158.113189 142.50806 
L 166.163816 142.970095 
L 189.993183 144.140939 
L 196.755747 144.53414 
L 201.264041 144.72612 
L 205.450313 144.916227 
L 211.246659 145.198569 
L 238.940384 145.860277 
L 240.872542 145.899471 
L 248.601335 146.144363 
L 252.787312 146.185387 
L 258.905698 146.673446 
L 271.786474 146.839751 
L 277.905202 146.764176 
L 288.853218 146.706864 
L 292.396171 146.74502 
L 295.938252 146.764321 
L 303.34469 146.804308 
L 313.005118 146.899103 
L 316.547315 146.93827 
L 321.699488 146.816318 
L 326.208024 146.593319 
L 328.462081 146.49497 
L 330.394547 146.395593 
L 339.732872 145.805779 
L 341.342913 145.696207 
L 376.443463 142.541167 
L 377.409336 142.394422 
L 397.696951 140.051919 
L 398.984605 139.868978 
L 420.88247 136.984335 
L 428.610758 136.183509 
L 432.475019 135.782837 
L 437.627069 135.177223 
L 442.77938 134.512951 
L 466.930909 131.171453 
L 469.507087 130.808777 
L 473.693418 130.289105 
L 475.625437 130.014648 
L 477.235889 129.828208 
L 486.896172 128.446889 
L 488.18427 128.241316 
L 488.828787 128.151642 
L 492.692859 127.425201 
L 509.759937 124.609994 
L 527.470729 122.907826 
L 547.114051 121.656775 
L 551.622348 121.458491 
L 554.84288 121.343677 
L 557.740734 121.280185 
L 561.926972 121.17172 
L 564.503471 121.136953 
L 574.807773 121.105788 
L 578.672426 121.274956 
L 595.738718 121.408008 
L 597.993302 121.293088 
L 608.297935 120.9077 
L 614.094271 120.631151 
L 619.568882 120.429124 
L 621.500757 120.341001 
L 625.043013 120.198865 
L 629.229255 120.13507 
L 633.73751 120.254125 
L 638.889882 120.619675 
L 640.822004 120.786249 
L 645.330282 121.262788 
L 649.517387 121.888277 
L 666.905691 125.479296 
L 674.634164 127.486294 
L 680.752568 128.593159 
L 683.650744 128.986348 
L 685.904876 129.142416 
L 691.379749 129.384382 
L 694.277422 129.25351 
L 704.260066 128.538777 
L 704.260066 128.538777 
" clip-path="url(#p725bf6c95d)" style="fill: none; stroke: #ff9c00; stroke-width: 2; stroke-linecap: square"/>
   </g>
   <g id="line2d_33">
    <path d="M 98.5395 142.05 
L 134.605796 142.135058 
L 156.503498 142.351592 
L 168.739955 143.013598 
L 174.536298 143.323081 
L 218.331118 145.102727 
L 252.143248 146.074378 
L 253.431336 146.230005 
L 259.227676 146.647114 
L 262.125511 146.958113 
L 268.244261 147.302587 
L 276.617177 147.727295 
L 277.905202 147.809283 
L 289.819666 148.411818 
L 326.530001 150.418844 
L 327.174018 150.42904 
L 328.140363 150.591158 
L 332.32632 150.776434 
L 334.902487 150.964429 
L 338.122691 151.104016 
L 339.41071 151.195738 
L 340.698844 151.260856 
L 342.309008 151.3151 
L 346.173199 151.516416 
L 358.088057 151.955521 
L 366.782511 152.305189 
L 368.070597 152.318001 
L 371.290794 152.432216 
L 373.544987 152.631944 
L 374.833564 152.693754 
L 377.087299 152.821738 
L 379.019375 153.008301 
L 380.307385 153.076206 
L 382.884025 153.245413 
L 405.42535 154.731817 
L 407.035614 154.83834 
L 411.865417 155.07107 
L 412.509948 155.090098 
L 413.153393 155.143463 
L 414.119788 155.193728 
L 440.525744 156.293549 
L 441.491305 156.319719 
L 446.321603 156.474693 
L 448.898287 156.50338 
L 449.863909 156.550932 
L 450.83007 156.598051 
L 454.05038 156.667608 
L 458.558684 156.746589 
L 473.371133 156.961796 
L 475.625441 156.979423 
L 483.997998 157.028956 
L 485.608119 157.095595 
L 486.574145 157.056415 
L 489.472353 157.076995 
L 491.082526 157.089018 
L 493.014564 157.149392 
L 498.489091 157.233509 
L 501.065102 157.266164 
L 518.454158 157.609681 
L 521.030379 157.679113 
L 548.080136 158.565791 
L 550.978264 158.713433 
L 561.926975 159.259007 
L 563.215266 159.3416 
L 567.0798 159.550189 
L 570.943522 159.807393 
L 586.078802 160.723044 
L 587.688571 160.816773 
L 592.519115 161.096504 
L 597.671231 161.407258 
L 599.603408 161.510902 
L 607.010072 162.005387 
L 608.941945 162.100265 
L 635.669656 163.760412 
L 639.5342 163.979413 
L 640.822004 164.042389 
L 644.364263 164.208395 
L 647.906962 164.436258 
L 654.025145 164.974255 
L 657.889098 165.304949 
L 663.68546 165.664216 
L 666.905694 165.920668 
L 675.278157 166.652417 
L 676.244433 166.751746 
L 678.176583 166.899364 
L 682.040662 167.093527 
L 691.379751 167.523759 
L 691.701458 167.487536 
L 691.701458 167.487536 
" clip-path="url(#p725bf6c95d)" style="fill: none; stroke: #ff0000; stroke-width: 2; stroke-linecap: square"/>
   </g>
   <g id="line2d_34">
    <path d="M 99.183585 142.05 
L 145.554505 142.151954 
L 156.503498 142.333899 
L 165.519774 142.804803 
L 175.824396 143.354081 
L 187.417504 143.799181 
L 193.857895 144.080366 
L 200.297964 144.409192 
L 213.178823 144.941235 
L 229.923845 145.484804 
L 249.8891 145.993641 
L 258.905702 146.746452 
L 264.057987 147.203095 
L 285.95544 148.422009 
L 291.107622 148.690779 
L 327.174018 150.819457 
L 331.038263 151.062859 
L 336.190611 151.369012 
L 355.511815 152.325932 
L 360.664611 152.552097 
L 373.544987 153.215107 
L 381.273994 153.779494 
L 387.713903 154.326337 
L 409.611257 155.865481 
L 440.525744 157.386662 
L 472.727788 158.28162 
L 479.16814 158.375917 
L 486.896174 158.449652 
L 494.624686 158.610469 
L 498.489091 158.727942 
L 511.370055 159.038314 
L 537.131423 159.848064 
L 548.724118 160.434101 
L 562.893513 161.276484 
L 566.75766 161.522795 
L 604.111653 164.029052 
L 610.552086 164.45662 
L 618.280544 164.947815 
L 636.313704 166.16058 
L 646.618371 166.765299 
L 654.346871 167.424234 
L 658.211116 167.727316 
L 665.295522 168.209926 
L 686.548891 169.726164 
L 690.413551 169.886334 
L 702.005873 170.119711 
L 702.005873 170.119711 
" clip-path="url(#p725bf6c95d)" style="fill: none; stroke: #00ff00; stroke-width: 2; stroke-linecap: square"/>
   </g>
   <g id="patch_3">
    <path d="M 82.8 313.2 
L 82.8 19.8 
" style="fill: none; stroke: #000000; stroke-width: 0.8; stroke-linejoin: miter; stroke-linecap: square"/>
   </g>
   <g id="patch_4">
    <path d="M 709.2 313.2 
L 709.2 19.8 
" style="fill: none; stroke: #000000; stroke-width: 0.8; stroke-linejoin: miter; stroke-linecap: square"/>
   </g>
   <g id="patch_5">
    <path d="M 82.8 313.2 
L 709.2 313.2 
" style="fill: none; stroke: #000000; stroke-width: 0.8; stroke-linejoin: miter; stroke-linecap: square"/>
   </g>
   <g id="patch_6">
    <path d="M 82.8 19.8 
L 709.2 19.8 
" style="fill: none; stroke: #000000; stroke-width: 0.8; stroke-linejoin: miter; stroke-linecap: square"/>
   </g>
  </g>
 </g>
 <defs>
  <clipPath id="p725bf6c95d">
   <rect x="82.8" y="19.8" width="626.4" height="293.4"/>
  </clipPath>
 </defs>
</svg>
