<?xml version="1.0" encoding="utf-8" standalone="no"?>
<!DOCTYPE svg PUBLIC "-//W3C//DTD SVG 1.1//EN"
  "http://www.w3.org/Graphics/SVG/1.1/DTD/svg11.dtd">
<svg xmlns:xlink="http://www.w3.org/1999/xlink" width="720pt" height="360pt" viewBox="0 0 720 360" xmlns="http://www.w3.org/2000/svg" version="1.1">
 <metadata>
  <rdf:RDF xmlns:dc="http://purl.org/dc/elements/1.1/" xmlns:cc="http://creativecommons.org/ns#" xmlns:rdf="http://www.w3.org/1999/02/22-rdf-syntax-ns#">
   <cc:Work>
    <dc:type rdf:resource="http://purl.org/dc/dcmitype/StillImage"/>
    <dc:date>2024-08-06T11:49:52.267592</dc:date>
    <dc:format>image/svg+xml</dc:format>
    <dc:creator>
     <cc:Agent>
      <dc:title>Matplotlib v3.8.3, https://matplotlib.org/</dc:title>
     </cc:Agent>
    </dc:creator>
   </cc:Work>
  </rdf:RDF>
 </metadata>
 <defs>
  <style type="text/css">*{stroke-linejoin: round; stroke-linecap: butt}</style>
 </defs>
 <g id="figure_1">
  <g id="patch_1">
   <path d="M 0 360 
L 720 360 
L 720 0 
L 0 0 
z
" style="fill: #ffffff"/>
  </g>
  <g id="axes_1">
   <g id="patch_2">
    <path d="M 82.8 313.2 
L 709.2 313.2 
L 709.2 19.8 
L 82.8 19.8 
z
" style="fill: #ffffff"/>
   </g>
   <g id="matplotlib.axis_1">
    <g id="xtick_1">
     <g id="line2d_1">
      <path d="M 98.152941 313.2 
L 98.152941 19.8 
" clip-path="url(#p2256934af5)" style="fill: none; stroke-dasharray: 2.96,1.28; stroke-dashoffset: 0; stroke: #bdc3c7; stroke-width: 0.8"/>
     </g>
     <g id="line2d_2">
      <defs>
       <path id="m0e0e4e2aa4" d="M 0 0 
L 0 -3.5 
" style="stroke: #000000; stroke-width: 0.8"/>
      </defs>
      <g>
       <use xlink:href="#m0e0e4e2aa4" x="98.152941" y="313.2" style="stroke: #000000; stroke-width: 0.8"/>
      </g>
     </g>
     <g id="text_1">
      <!-- 0 -->
      <g transform="translate(92.426691 330.377187) scale(0.18 -0.18)">
       <defs>
        <path id="DejaVuSans-30" d="M 2034 4250 
Q 1547 4250 1301 3770 
Q 1056 3291 1056 2328 
Q 1056 1369 1301 889 
Q 1547 409 2034 409 
Q 2525 409 2770 889 
Q 3016 1369 3016 2328 
Q 3016 3291 2770 3770 
Q 2525 4250 2034 4250 
z
M 2034 4750 
Q 2819 4750 3233 4129 
Q 3647 3509 3647 2328 
Q 3647 1150 3233 529 
Q 2819 -91 2034 -91 
Q 1250 -91 836 529 
Q 422 1150 422 2328 
Q 422 3509 836 4129 
Q 1250 4750 2034 4750 
z
" transform="scale(0.015625)"/>
       </defs>
       <use xlink:href="#DejaVuSans-30"/>
      </g>
     </g>
    </g>
    <g id="xtick_2">
     <g id="line2d_3">
      <path d="M 174.917647 313.2 
L 174.917647 19.8 
" clip-path="url(#p2256934af5)" style="fill: none; stroke-dasharray: 2.96,1.28; stroke-dashoffset: 0; stroke: #bdc3c7; stroke-width: 0.8"/>
     </g>
     <g id="line2d_4">
      <g>
       <use xlink:href="#m0e0e4e2aa4" x="174.917647" y="313.2" style="stroke: #000000; stroke-width: 0.8"/>
      </g>
     </g>
     <g id="text_2">
      <!-- 25 -->
      <g transform="translate(163.465147 330.377187) scale(0.18 -0.18)">
       <defs>
        <path id="DejaVuSans-32" d="M 1228 531 
L 3431 531 
L 3431 0 
L 469 0 
L 469 531 
Q 828 903 1448 1529 
Q 2069 2156 2228 2338 
Q 2531 2678 2651 2914 
Q 2772 3150 2772 3378 
Q 2772 3750 2511 3984 
Q 2250 4219 1831 4219 
Q 1534 4219 1204 4116 
Q 875 4013 500 3803 
L 500 4441 
Q 881 4594 1212 4672 
Q 1544 4750 1819 4750 
Q 2544 4750 2975 4387 
Q 3406 4025 3406 3419 
Q 3406 3131 3298 2873 
Q 3191 2616 2906 2266 
Q 2828 2175 2409 1742 
Q 1991 1309 1228 531 
z
" transform="scale(0.015625)"/>
        <path id="DejaVuSans-35" d="M 691 4666 
L 3169 4666 
L 3169 4134 
L 1269 4134 
L 1269 2991 
Q 1406 3038 1543 3061 
Q 1681 3084 1819 3084 
Q 2600 3084 3056 2656 
Q 3513 2228 3513 1497 
Q 3513 744 3044 326 
Q 2575 -91 1722 -91 
Q 1428 -91 1123 -41 
Q 819 9 494 109 
L 494 744 
Q 775 591 1075 516 
Q 1375 441 1709 441 
Q 2250 441 2565 725 
Q 2881 1009 2881 1497 
Q 2881 1984 2565 2268 
Q 2250 2553 1709 2553 
Q 1456 2553 1204 2497 
Q 953 2441 691 2322 
L 691 4666 
z
" transform="scale(0.015625)"/>
       </defs>
       <use xlink:href="#DejaVuSans-32"/>
       <use xlink:href="#DejaVuSans-35" x="63.623047"/>
      </g>
     </g>
    </g>
    <g id="xtick_3">
     <g id="line2d_5">
      <path d="M 251.682353 313.2 
L 251.682353 19.8 
" clip-path="url(#p2256934af5)" style="fill: none; stroke-dasharray: 2.96,1.28; stroke-dashoffset: 0; stroke: #bdc3c7; stroke-width: 0.8"/>
     </g>
     <g id="line2d_6">
      <g>
       <use xlink:href="#m0e0e4e2aa4" x="251.682353" y="313.2" style="stroke: #000000; stroke-width: 0.8"/>
      </g>
     </g>
     <g id="text_3">
      <!-- 50 -->
      <g transform="translate(240.229853 330.377187) scale(0.18 -0.18)">
       <use xlink:href="#DejaVuSans-35"/>
       <use xlink:href="#DejaVuSans-30" x="63.623047"/>
      </g>
     </g>
    </g>
    <g id="xtick_4">
     <g id="line2d_7">
      <path d="M 328.447059 313.2 
L 328.447059 19.8 
" clip-path="url(#p2256934af5)" style="fill: none; stroke-dasharray: 2.96,1.28; stroke-dashoffset: 0; stroke: #bdc3c7; stroke-width: 0.8"/>
     </g>
     <g id="line2d_8">
      <g>
       <use xlink:href="#m0e0e4e2aa4" x="328.447059" y="313.2" style="stroke: #000000; stroke-width: 0.8"/>
      </g>
     </g>
     <g id="text_4">
      <!-- 75 -->
      <g transform="translate(316.994559 330.377187) scale(0.18 -0.18)">
       <defs>
        <path id="DejaVuSans-37" d="M 525 4666 
L 3525 4666 
L 3525 4397 
L 1831 0 
L 1172 0 
L 2766 4134 
L 525 4134 
L 525 4666 
z
" transform="scale(0.015625)"/>
       </defs>
       <use xlink:href="#DejaVuSans-37"/>
       <use xlink:href="#DejaVuSans-35" x="63.623047"/>
      </g>
     </g>
    </g>
    <g id="xtick_5">
     <g id="line2d_9">
      <path d="M 405.211765 313.2 
L 405.211765 19.8 
" clip-path="url(#p2256934af5)" style="fill: none; stroke-dasharray: 2.96,1.28; stroke-dashoffset: 0; stroke: #bdc3c7; stroke-width: 0.8"/>
     </g>
     <g id="line2d_10">
      <g>
       <use xlink:href="#m0e0e4e2aa4" x="405.211765" y="313.2" style="stroke: #000000; stroke-width: 0.8"/>
      </g>
     </g>
     <g id="text_5">
      <!-- 100 -->
      <g transform="translate(388.033015 330.377187) scale(0.18 -0.18)">
       <defs>
        <path id="DejaVuSans-31" d="M 794 531 
L 1825 531 
L 1825 4091 
L 703 3866 
L 703 4441 
L 1819 4666 
L 2450 4666 
L 2450 531 
L 3481 531 
L 3481 0 
L 794 0 
L 794 531 
z
" transform="scale(0.015625)"/>
       </defs>
       <use xlink:href="#DejaVuSans-31"/>
       <use xlink:href="#DejaVuSans-30" x="63.623047"/>
       <use xlink:href="#DejaVuSans-30" x="127.246094"/>
      </g>
     </g>
    </g>
    <g id="xtick_6">
     <g id="line2d_11">
      <path d="M 481.976471 313.2 
L 481.976471 19.8 
" clip-path="url(#p2256934af5)" style="fill: none; stroke-dasharray: 2.96,1.28; stroke-dashoffset: 0; stroke: #bdc3c7; stroke-width: 0.8"/>
     </g>
     <g id="line2d_12">
      <g>
       <use xlink:href="#m0e0e4e2aa4" x="481.976471" y="313.2" style="stroke: #000000; stroke-width: 0.8"/>
      </g>
     </g>
     <g id="text_6">
      <!-- 125 -->
      <g transform="translate(464.797721 330.377187) scale(0.18 -0.18)">
       <use xlink:href="#DejaVuSans-31"/>
       <use xlink:href="#DejaVuSans-32" x="63.623047"/>
       <use xlink:href="#DejaVuSans-35" x="127.246094"/>
      </g>
     </g>
    </g>
    <g id="xtick_7">
     <g id="line2d_13">
      <path d="M 558.741176 313.2 
L 558.741176 19.8 
" clip-path="url(#p2256934af5)" style="fill: none; stroke-dasharray: 2.96,1.28; stroke-dashoffset: 0; stroke: #bdc3c7; stroke-width: 0.8"/>
     </g>
     <g id="line2d_14">
      <g>
       <use xlink:href="#m0e0e4e2aa4" x="558.741176" y="313.2" style="stroke: #000000; stroke-width: 0.8"/>
      </g>
     </g>
     <g id="text_7">
      <!-- 150 -->
      <g transform="translate(541.562426 330.377187) scale(0.18 -0.18)">
       <use xlink:href="#DejaVuSans-31"/>
       <use xlink:href="#DejaVuSans-35" x="63.623047"/>
       <use xlink:href="#DejaVuSans-30" x="127.246094"/>
      </g>
     </g>
    </g>
    <g id="xtick_8">
     <g id="line2d_15">
      <path d="M 635.505882 313.2 
L 635.505882 19.8 
" clip-path="url(#p2256934af5)" style="fill: none; stroke-dasharray: 2.96,1.28; stroke-dashoffset: 0; stroke: #bdc3c7; stroke-width: 0.8"/>
     </g>
     <g id="line2d_16">
      <g>
       <use xlink:href="#m0e0e4e2aa4" x="635.505882" y="313.2" style="stroke: #000000; stroke-width: 0.8"/>
      </g>
     </g>
     <g id="text_8">
      <!-- 175 -->
      <g transform="translate(618.327132 330.377187) scale(0.18 -0.18)">
       <use xlink:href="#DejaVuSans-31"/>
       <use xlink:href="#DejaVuSans-37" x="63.623047"/>
       <use xlink:href="#DejaVuSans-35" x="127.246094"/>
      </g>
     </g>
    </g>
    <g id="text_9">
     <!-- Time(s) -->
     <g transform="translate(358.434375 354.785625) scale(0.24 -0.24)">
      <defs>
       <path id="TimesNewRomanPSMT-54" d="M 3703 4238 
L 3750 3244 
L 3631 3244 
Q 3597 3506 3538 3619 
Q 3441 3800 3280 3886 
Q 3119 3972 2856 3972 
L 2259 3972 
L 2259 734 
Q 2259 344 2344 247 
Q 2463 116 2709 116 
L 2856 116 
L 2856 0 
L 1059 0 
L 1059 116 
L 1209 116 
Q 1478 116 1591 278 
Q 1659 378 1659 734 
L 1659 3972 
L 1150 3972 
Q 853 3972 728 3928 
Q 566 3869 450 3700 
Q 334 3531 313 3244 
L 194 3244 
L 244 4238 
L 3703 4238 
z
" transform="scale(0.015625)"/>
       <path id="TimesNewRomanPSMT-69" d="M 928 4444 
Q 1059 4444 1151 4351 
Q 1244 4259 1244 4128 
Q 1244 3997 1151 3903 
Q 1059 3809 928 3809 
Q 797 3809 703 3903 
Q 609 3997 609 4128 
Q 609 4259 701 4351 
Q 794 4444 928 4444 
z
M 1188 2947 
L 1188 647 
Q 1188 378 1227 289 
Q 1266 200 1342 156 
Q 1419 113 1622 113 
L 1622 0 
L 231 0 
L 231 113 
Q 441 113 512 153 
Q 584 194 626 287 
Q 669 381 669 647 
L 669 1750 
Q 669 2216 641 2353 
Q 619 2453 572 2492 
Q 525 2531 444 2531 
Q 356 2531 231 2484 
L 188 2597 
L 1050 2947 
L 1188 2947 
z
" transform="scale(0.015625)"/>
       <path id="TimesNewRomanPSMT-6d" d="M 1050 2338 
Q 1363 2650 1419 2697 
Q 1559 2816 1721 2881 
Q 1884 2947 2044 2947 
Q 2313 2947 2506 2790 
Q 2700 2634 2766 2338 
Q 3088 2713 3309 2830 
Q 3531 2947 3766 2947 
Q 3994 2947 4170 2830 
Q 4347 2713 4450 2447 
Q 4519 2266 4519 1878 
L 4519 647 
Q 4519 378 4559 278 
Q 4591 209 4675 161 
Q 4759 113 4950 113 
L 4950 0 
L 3538 0 
L 3538 113 
L 3597 113 
Q 3781 113 3884 184 
Q 3956 234 3988 344 
Q 4000 397 4000 647 
L 4000 1878 
Q 4000 2228 3916 2372 
Q 3794 2572 3525 2572 
Q 3359 2572 3192 2489 
Q 3025 2406 2788 2181 
L 2781 2147 
L 2788 2013 
L 2788 647 
Q 2788 353 2820 281 
Q 2853 209 2943 161 
Q 3034 113 3253 113 
L 3253 0 
L 1806 0 
L 1806 113 
Q 2044 113 2133 169 
Q 2222 225 2256 338 
Q 2272 391 2272 647 
L 2272 1878 
Q 2272 2228 2169 2381 
Q 2031 2581 1784 2581 
Q 1616 2581 1450 2491 
Q 1191 2353 1050 2181 
L 1050 647 
Q 1050 366 1089 281 
Q 1128 197 1204 155 
Q 1281 113 1516 113 
L 1516 0 
L 100 0 
L 100 113 
Q 297 113 375 155 
Q 453 197 493 289 
Q 534 381 534 647 
L 534 1741 
Q 534 2213 506 2350 
Q 484 2453 437 2492 
Q 391 2531 309 2531 
Q 222 2531 100 2484 
L 53 2597 
L 916 2947 
L 1050 2947 
L 1050 2338 
z
" transform="scale(0.015625)"/>
       <path id="TimesNewRomanPSMT-65" d="M 681 1784 
Q 678 1147 991 784 
Q 1303 422 1725 422 
Q 2006 422 2214 576 
Q 2422 731 2563 1106 
L 2659 1044 
Q 2594 616 2278 264 
Q 1963 -88 1488 -88 
Q 972 -88 605 314 
Q 238 716 238 1394 
Q 238 2128 614 2539 
Q 991 2950 1559 2950 
Q 2041 2950 2350 2633 
Q 2659 2316 2659 1784 
L 681 1784 
z
M 681 1966 
L 2006 1966 
Q 1991 2241 1941 2353 
Q 1863 2528 1708 2628 
Q 1553 2728 1384 2728 
Q 1125 2728 920 2526 
Q 716 2325 681 1966 
z
" transform="scale(0.015625)"/>
       <path id="TimesNewRomanPSMT-28" d="M 1988 -1253 
L 1988 -1369 
Q 1516 -1131 1200 -813 
Q 750 -359 506 256 
Q 263 872 263 1534 
Q 263 2503 741 3301 
Q 1219 4100 1988 4444 
L 1988 4313 
Q 1603 4100 1356 3731 
Q 1109 3363 987 2797 
Q 866 2231 866 1616 
Q 866 947 969 400 
Q 1050 -31 1165 -292 
Q 1281 -553 1476 -793 
Q 1672 -1034 1988 -1253 
z
" transform="scale(0.015625)"/>
       <path id="TimesNewRomanPSMT-73" d="M 2050 2947 
L 2050 1972 
L 1947 1972 
Q 1828 2431 1642 2597 
Q 1456 2763 1169 2763 
Q 950 2763 815 2647 
Q 681 2531 681 2391 
Q 681 2216 781 2091 
Q 878 1963 1175 1819 
L 1631 1597 
Q 2266 1288 2266 781 
Q 2266 391 1970 151 
Q 1675 -88 1309 -88 
Q 1047 -88 709 6 
Q 606 38 541 38 
Q 469 38 428 -44 
L 325 -44 
L 325 978 
L 428 978 
Q 516 541 762 319 
Q 1009 97 1316 97 
Q 1531 97 1667 223 
Q 1803 350 1803 528 
Q 1803 744 1651 891 
Q 1500 1038 1047 1263 
Q 594 1488 453 1669 
Q 313 1847 313 2119 
Q 313 2472 555 2709 
Q 797 2947 1181 2947 
Q 1350 2947 1591 2875 
Q 1750 2828 1803 2828 
Q 1853 2828 1881 2850 
Q 1909 2872 1947 2947 
L 2050 2947 
z
" transform="scale(0.015625)"/>
       <path id="TimesNewRomanPSMT-29" d="M 144 4313 
L 144 4444 
Q 619 4209 934 3891 
Q 1381 3434 1625 2820 
Q 1869 2206 1869 1541 
Q 1869 572 1392 -226 
Q 916 -1025 144 -1369 
L 144 -1253 
Q 528 -1038 776 -670 
Q 1025 -303 1145 264 
Q 1266 831 1266 1447 
Q 1266 2113 1163 2663 
Q 1084 3094 967 3353 
Q 850 3613 656 3853 
Q 463 4094 144 4313 
z
" transform="scale(0.015625)"/>
      </defs>
      <use xlink:href="#TimesNewRomanPSMT-54"/>
      <use xlink:href="#TimesNewRomanPSMT-69" x="57.583984"/>
      <use xlink:href="#TimesNewRomanPSMT-6d" x="85.367188"/>
      <use xlink:href="#TimesNewRomanPSMT-65" x="163.150391"/>
      <use xlink:href="#TimesNewRomanPSMT-28" x="207.535156"/>
      <use xlink:href="#TimesNewRomanPSMT-73" x="240.835938"/>
      <use xlink:href="#TimesNewRomanPSMT-29" x="279.751953"/>
     </g>
    </g>
   </g>
   <g id="matplotlib.axis_2">
    <g id="ytick_1">
     <g id="line2d_17">
      <path d="M 82.8 282.315789 
L 709.2 282.315789 
" clip-path="url(#p2256934af5)" style="fill: none; stroke-dasharray: 2.96,1.28; stroke-dashoffset: 0; stroke: #bdc3c7; stroke-width: 0.8"/>
     </g>
     <g id="line2d_18">
      <defs>
       <path id="mb73789d273" d="M 0 0 
L 3.5 0 
" style="stroke: #000000; stroke-width: 0.8"/>
      </defs>
      <g>
       <use xlink:href="#mb73789d273" x="82.8" y="282.315789" style="stroke: #000000; stroke-width: 0.8"/>
      </g>
     </g>
     <g id="text_10">
      <!-- −100 -->
      <g transform="translate(29.859063 289.154383) scale(0.18 -0.18)">
       <defs>
        <path id="DejaVuSans-2212" d="M 678 2272 
L 4684 2272 
L 4684 1741 
L 678 1741 
L 678 2272 
z
" transform="scale(0.015625)"/>
       </defs>
       <use xlink:href="#DejaVuSans-2212"/>
       <use xlink:href="#DejaVuSans-31" x="83.789062"/>
       <use xlink:href="#DejaVuSans-30" x="147.412109"/>
       <use xlink:href="#DejaVuSans-30" x="211.035156"/>
      </g>
     </g>
    </g>
    <g id="ytick_2">
     <g id="line2d_19">
      <path d="M 82.8 243.710526 
L 709.2 243.710526 
" clip-path="url(#p2256934af5)" style="fill: none; stroke-dasharray: 2.96,1.28; stroke-dashoffset: 0; stroke: #bdc3c7; stroke-width: 0.8"/>
     </g>
     <g id="line2d_20">
      <g>
       <use xlink:href="#mb73789d273" x="82.8" y="243.710526" style="stroke: #000000; stroke-width: 0.8"/>
      </g>
     </g>
     <g id="text_11">
      <!-- −75 -->
      <g transform="translate(41.311563 250.54912) scale(0.18 -0.18)">
       <use xlink:href="#DejaVuSans-2212"/>
       <use xlink:href="#DejaVuSans-37" x="83.789062"/>
       <use xlink:href="#DejaVuSans-35" x="147.412109"/>
      </g>
     </g>
    </g>
    <g id="ytick_3">
     <g id="line2d_21">
      <path d="M 82.8 205.105263 
L 709.2 205.105263 
" clip-path="url(#p2256934af5)" style="fill: none; stroke-dasharray: 2.96,1.28; stroke-dashoffset: 0; stroke: #bdc3c7; stroke-width: 0.8"/>
     </g>
     <g id="line2d_22">
      <g>
       <use xlink:href="#mb73789d273" x="82.8" y="205.105263" style="stroke: #000000; stroke-width: 0.8"/>
      </g>
     </g>
     <g id="text_12">
      <!-- −50 -->
      <g transform="translate(41.311563 211.943857) scale(0.18 -0.18)">
       <use xlink:href="#DejaVuSans-2212"/>
       <use xlink:href="#DejaVuSans-35" x="83.789062"/>
       <use xlink:href="#DejaVuSans-30" x="147.412109"/>
      </g>
     </g>
    </g>
    <g id="ytick_4">
     <g id="line2d_23">
      <path d="M 82.8 166.5 
L 709.2 166.5 
" clip-path="url(#p2256934af5)" style="fill: none; stroke-dasharray: 2.96,1.28; stroke-dashoffset: 0; stroke: #bdc3c7; stroke-width: 0.8"/>
     </g>
     <g id="line2d_24">
      <g>
       <use xlink:href="#mb73789d273" x="82.8" y="166.5" style="stroke: #000000; stroke-width: 0.8"/>
      </g>
     </g>
     <g id="text_13">
      <!-- −25 -->
      <g transform="translate(41.311563 173.338594) scale(0.18 -0.18)">
       <use xlink:href="#DejaVuSans-2212"/>
       <use xlink:href="#DejaVuSans-32" x="83.789062"/>
       <use xlink:href="#DejaVuSans-35" x="147.412109"/>
      </g>
     </g>
    </g>
    <g id="ytick_5">
     <g id="line2d_25">
      <path d="M 82.8 127.894737 
L 709.2 127.894737 
" clip-path="url(#p2256934af5)" style="fill: none; stroke-dasharray: 2.96,1.28; stroke-dashoffset: 0; stroke: #bdc3c7; stroke-width: 0.8"/>
     </g>
     <g id="line2d_26">
      <g>
       <use xlink:href="#mb73789d273" x="82.8" y="127.894737" style="stroke: #000000; stroke-width: 0.8"/>
      </g>
     </g>
     <g id="text_14">
      <!-- 0 -->
      <g transform="translate(67.8475 134.733331) scale(0.18 -0.18)">
       <use xlink:href="#DejaVuSans-30"/>
      </g>
     </g>
    </g>
    <g id="ytick_6">
     <g id="line2d_27">
      <path d="M 82.8 89.289474 
L 709.2 89.289474 
" clip-path="url(#p2256934af5)" style="fill: none; stroke-dasharray: 2.96,1.28; stroke-dashoffset: 0; stroke: #bdc3c7; stroke-width: 0.8"/>
     </g>
     <g id="line2d_28">
      <g>
       <use xlink:href="#mb73789d273" x="82.8" y="89.289474" style="stroke: #000000; stroke-width: 0.8"/>
      </g>
     </g>
     <g id="text_15">
      <!-- 25 -->
      <g transform="translate(56.395 96.128067) scale(0.18 -0.18)">
       <use xlink:href="#DejaVuSans-32"/>
       <use xlink:href="#DejaVuSans-35" x="63.623047"/>
      </g>
     </g>
    </g>
    <g id="ytick_7">
     <g id="line2d_29">
      <path d="M 82.8 50.684211 
L 709.2 50.684211 
" clip-path="url(#p2256934af5)" style="fill: none; stroke-dasharray: 2.96,1.28; stroke-dashoffset: 0; stroke: #bdc3c7; stroke-width: 0.8"/>
     </g>
     <g id="line2d_30">
      <g>
       <use xlink:href="#mb73789d273" x="82.8" y="50.684211" style="stroke: #000000; stroke-width: 0.8"/>
      </g>
     </g>
     <g id="text_16">
      <!-- 50 -->
      <g transform="translate(56.395 57.522804) scale(0.18 -0.18)">
       <use xlink:href="#DejaVuSans-35"/>
       <use xlink:href="#DejaVuSans-30" x="63.623047"/>
      </g>
     </g>
    </g>
    <g id="text_17">
     <!-- Z(m) -->
     <g transform="translate(20.725313 191.154375) rotate(-90) scale(0.24 -0.24)">
      <defs>
       <path id="TimesNewRomanPSMT-5a" d="M 3681 4238 
L 897 256 
L 2634 256 
Q 3034 256 3248 431 
Q 3463 606 3628 1141 
L 3731 1122 
L 3531 0 
L 81 0 
L 81 116 
L 2800 3984 
L 1444 3984 
Q 1106 3984 954 3911 
Q 803 3838 723 3698 
Q 644 3559 578 3178 
L 459 3178 
L 547 4238 
L 3681 4238 
z
" transform="scale(0.015625)"/>
      </defs>
      <use xlink:href="#TimesNewRomanPSMT-5a"/>
      <use xlink:href="#TimesNewRomanPSMT-28" x="61.083984"/>
      <use xlink:href="#TimesNewRomanPSMT-6d" x="94.384766"/>
      <use xlink:href="#TimesNewRomanPSMT-29" x="172.167969"/>
     </g>
    </g>
   </g>
   <g id="line2d_31">
    <path d="M 98.152941 127.894737 
L 126.457563 127.890291 
L 132.610615 128.395921 
L 136.302623 129.016261 
L 138.763912 129.482062 
L 149.839666 132.049183 
L 159.684799 134.834962 
L 163.376709 135.44808 
L 164.607417 135.470813 
L 167.068628 135.696317 
L 178.144513 136.216947 
L 181.836173 136.316466 
L 186.758897 136.597385 
L 194.142791 137.783429 
L 205.21859 140.308279 
L 208.910464 141.105507 
L 212.6024 141.800752 
L 216.294319 142.36777 
L 221.216601 143.119495 
L 226.139527 143.742056 
L 234.754378 145.895483 
L 237.215191 146.622199 
L 239.676442 147.179449 
L 242.137731 147.577884 
L 244.599045 148.073545 
L 251.982845 149.913852 
L 255.67497 151.298378 
L 258.136103 152.238303 
L 264.289524 154.097891 
L 266.750561 154.505689 
L 274.750032 155.638394 
L 275.980617 156.053935 
L 277.210995 155.90268 
L 279.057005 156.066241 
L 287.671463 156.735029 
L 289.517447 156.818754 
L 290.748167 156.977761 
L 292.59403 157.081558 
L 293.824292 157.112399 
L 295.670633 157.39411 
L 301.20852 158.495891 
L 302.439151 158.808424 
L 303.670293 159.110976 
L 305.515731 159.696794 
L 306.746431 160.062141 
L 307.977082 160.37631 
L 308.592624 160.371744 
L 313.514925 161.556714 
L 314.745179 161.802014 
L 323.97536 163.792719 
L 336.281751 165.721159 
L 337.512379 165.895264 
L 338.742948 166.120268 
L 341.81969 166.77215 
L 343.050292 167.176175 
L 344.280831 167.494117 
L 344.896255 167.610599 
L 346.126909 168.046075 
L 346.74223 168.090535 
L 347.972837 168.427636 
L 349.818843 168.823806 
L 353.510778 169.484833 
L 355.356726 169.941076 
L 355.972329 169.936794 
L 362.125211 170.574417 
L 384.276752 171.546724 
L 402.736374 173.55538 
L 413.196468 175.189386 
L 415.658178 175.811909 
L 417.504084 176.478965 
L 418.734689 176.705442 
L 419.35005 176.949758 
L 421.195963 177.228241 
L 423.041657 177.191669 
L 423.657253 176.982198 
L 424.887908 176.970818 
L 426.118552 176.846223 
L 427.349166 176.565767 
L 433.502655 175.840646 
L 440.886362 174.755728 
L 445.808779 174.001274 
L 448.270077 173.801874 
L 449.500729 173.541897 
L 453.192598 173.209131 
L 458.115154 172.580977 
L 461.807591 171.790369 
L 464.268402 171.710158 
L 465.499023 171.488804 
L 467.960551 171.526292 
L 470.421597 171.172167 
L 481.497436 170.328331 
L 485.189274 169.803343 
L 488.88121 169.412257 
L 490.111813 169.386868 
L 492.573085 169.002409 
L 497.496063 168.36103 
L 499.956933 168.123761 
L 501.187629 167.890446 
L 503.648872 167.772022 
L 507.340768 167.26387 
L 508.571429 167.18996 
L 509.80205 166.922145 
L 512.263395 166.678435 
L 525.800399 165.234319 
L 528.261623 164.996954 
L 529.49291 164.761956 
L 534.415233 164.272357 
L 535.645484 164.426095 
L 539.337714 164.506656 
L 541.798743 164.801444 
L 544.260021 165.23269 
L 545.490615 165.287209 
L 554.105093 166.765349 
L 556.566402 167.502929 
L 557.79704 167.944617 
L 559.027652 168.126344 
L 563.950248 168.232389 
L 568.257477 168.716654 
L 569.488116 169.120662 
L 574.41103 169.681644 
L 576.871941 170.07554 
L 578.102586 170.407941 
L 579.333266 170.459584 
L 580.563853 170.395747 
L 583.02517 170.760599 
L 584.255814 170.811712 
L 589.178368 170.641666 
L 591.63961 170.884881 
L 592.870265 170.910688 
L 595.331388 171.504921 
L 597.792847 171.550011 
L 600.254106 172.085882 
L 602.715435 172.318508 
L 606.407354 173.242355 
L 607.638266 173.39812 
L 610.099133 173.376445 
L 612.560502 173.647853 
L 616.252479 173.885689 
L 619.944219 174.312886 
L 626.09757 175.360248 
L 633.48202 175.0125 
L 641.480591 173.806439 
L 649.47997 172.37604 
L 656.863592 171.896048 
L 659.940183 171.98574 
L 662.401469 172.102797 
L 663.631769 172.150594 
L 664.862727 172.403458 
L 680.861017 172.698508 
L 684.553249 172.748614 
L 685.783631 172.909657 
L 687.014244 172.808087 
L 690.09082 173.022976 
L 690.706194 172.952421 
L 693.782404 173.254819 
L 694.398104 173.057033 
L 695.013442 173.066149 
L 695.629184 173.200157 
L 698.705079 173.202749 
L 698.705079 173.202749 
" clip-path="url(#p2256934af5)" style="fill: none; stroke-dasharray: 10.175,4.4; stroke-dashoffset: 0; stroke: #808a87; stroke-width: 2.75"/>
   </g>
   <g id="line2d_32">
    <path d="M 97.537383 127.894737 
L 106.767236 127.906224 
L 118.150686 128.129799 
L 126.457563 128.320996 
L 132.918354 128.964825 
L 143.378809 131.073786 
L 146.455412 131.821523 
L 151.685612 133.185785 
L 157.531173 134.517863 
L 164.607417 134.965314 
L 166.761149 135.016184 
L 167.991609 135.037672 
L 174.452481 135.131119 
L 179.682557 135.463029 
L 183.067076 135.787761 
L 189.220298 136.576703 
L 194.142791 137.692571 
L 195.988709 138.104471 
L 215.064093 143.262424 
L 216.909638 143.628777 
L 219.37112 144.177456 
L 222.447494 144.628585 
L 226.7547 145.51633 
L 228.293003 145.932969 
L 229.831377 146.333164 
L 233.830713 147.590095 
L 235.676913 148.193289 
L 237.522823 148.692533 
L 242.753105 149.468157 
L 246.445013 150.006631 
L 254.444151 151.309361 
L 256.905825 151.740234 
L 259.674499 152.118762 
L 261.828485 152.243078 
L 263.366211 152.266185 
L 265.827571 152.286687 
L 266.750561 152.178518 
L 268.904588 151.986945 
L 274.134392 151.514409 
L 276.903857 151.191529 
L 278.134069 150.994093 
L 280.595559 150.640051 
L 281.51823 150.488515 
L 282.748929 150.328924 
L 289.517447 149.610824 
L 292.59403 149.260578 
L 294.13235 149.050809 
L 309.207705 147.850692 
L 310.438335 147.752075 
L 311.976638 147.710157 
L 322.437079 146.266253 
L 332.282372 144.172323 
L 335.358821 143.540011 
L 343.050292 142.482865 
L 347.049916 141.945476 
L 349.818843 141.566024 
L 355.356726 140.734489 
L 356.894788 140.300387 
L 359.356255 139.809891 
L 362.432888 139.293117 
L 365.509479 139.023078 
L 366.739782 138.975419 
L 372.893613 138.770546 
L 385.507153 138.304743 
L 389.506978 138.133663 
L 392.275892 137.935713 
L 399.659757 137.427839 
L 403.044018 137.219485 
L 406.735954 136.970603 
L 410.427869 136.665157 
L 417.811751 136.161202 
L 419.657672 135.978882 
L 420.580622 135.903351 
L 423.041657 135.167885 
L 423.965194 134.917971 
L 427.041491 134.098619 
L 427.964483 133.901506 
L 431.656436 133.231351 
L 435.040679 132.515619 
L 436.271315 132.291804 
L 437.80977 131.986363 
L 441.1939 131.337837 
L 443.347385 131.036269 
L 445.808779 130.741488 
L 463.653552 129.929587 
L 481.80501 130.423477 
L 482.72802 130.420998 
L 491.342488 130.514093 
L 496.880041 130.372507 
L 500.572263 130.349499 
L 503.341234 130.216605 
L 505.187165 130.1579 
L 513.186352 130.170339 
L 519.031844 130.532143 
L 521.185533 130.903587 
L 525.492753 131.416382 
L 530.722956 132.221345 
L 536.876419 133.596114 
L 538.414476 134.104476 
L 541.183396 135.047545 
L 545.182983 136.768349 
L 548.566898 137.845199 
L 549.798358 138.318199 
L 552.874483 139.316553 
L 554.413394 140.085337 
L 558.104704 142.191091 
L 563.02735 144.188367 
L 566.719187 146.404753 
L 567.642161 146.97113 
L 569.79576 148.432061 
L 573.795464 150.672794 
L 576.871941 152.784526 
L 578.717902 153.924803 
L 580.256105 154.640364 
L 591.024348 160.25172 
L 593.485716 161.92529 
L 595.023922 162.963375 
L 602.100091 167.643307 
L 603.023062 168.388982 
L 604.561372 169.858385 
L 606.71501 171.481126 
L 611.022234 174.475926 
L 611.945197 175.077472 
L 613.17586 175.845732 
L 614.406488 176.692709 
L 615.944789 177.609842 
L 618.098678 179.13617 
L 619.636713 180.153995 
L 620.867555 181.275125 
L 622.097967 182.384964 
L 624.559245 184.450335 
L 627.328206 185.869223 
L 629.174161 186.771273 
L 633.48202 188.767591 
L 634.096975 189.054696 
L 634.712873 189.191137 
L 638.711554 190.288831 
L 644.557139 191.026061 
L 647.633826 191.359456 
L 652.556334 192.72655 
L 660.247849 196.211307 
L 664.247402 198.933456 
L 666.093376 200.131952 
L 667.632149 201.153783 
L 670.400621 203.112616 
L 681.476353 211.23333 
L 686.398942 215.376154 
L 687.93751 216.888677 
L 691.013834 220.018652 
L 698.705079 228.09857 
L 698.705079 228.09857 
" clip-path="url(#p2256934af5)" style="fill: none; stroke: #0000ff; stroke-width: 2; stroke-linecap: square"/>
   </g>
   <g id="line2d_33">
    <path d="M 96.928222 127.894737 
L 114.766421 127.868814 
L 118.766007 127.866536 
L 121.227264 127.849518 
L 128.918784 128.105773 
L 128.918784 128.105773 
L 135.071958 128.727209 
L 135.687298 128.872739 
L 138.148583 129.240158 
L 138.148583 129.240158 
L 139.994629 129.57446 
L 140.60989 129.769243 
L 146.455412 130.978582 
L 151.377877 132.369951 
L 157.838869 134.106772 
L 158.146683 134.099213 
L 158.454346 134.369477 
L 159.377133 134.263582 
L 159.684799 134.637347 
L 160.608256 134.712954 
L 160.915435 134.882008 
L 163.069044 135.044648 
L 163.376709 135.236072 
L 165.530511 135.202026 
L 165.838008 135.367341 
L 166.761149 135.312245 
L 167.068628 135.445768 
L 167.991609 135.42018 
L 168.299323 135.551178 
L 169.22243 135.518077 
L 169.529902 135.676634 
L 171.683574 135.670577 
L 171.991029 135.814437 
L 172.914181 135.766375 
L 173.221878 135.894084 
L 174.144812 135.827705 
L 174.144812 135.827705 
L 175.067819 135.903077 
L 176.60608 135.856552 
L 176.913596 135.991109 
L 179.0675 135.910017 
L 179.375022 136.037314 
L 180.298039 135.966104 
L 180.605733 136.063587 
L 181.528659 136.001099 
L 181.836173 136.123663 
L 182.759324 136.060241 
L 183.067076 136.181819 
L 183.989945 136.129006 
L 184.605307 136.210295 
L 186.451239 136.253241 
L 186.758897 136.393352 
L 187.681921 136.386485 
L 187.98954 136.528936 
L 189.835356 136.697311 
L 191.066193 136.918306 
L 192.604455 137.208012 
L 193.219791 137.367784 
L 196.296375 137.921671 
L 197.219455 138.161164 
L 199.065312 138.582798 
L 199.065312 138.582798 
L 209.218082 140.850751 
L 209.833445 140.918284 
L 210.141089 141.09781 
L 213.525629 141.550673 
L 214.140716 141.693436 
L 215.986661 141.958221 
L 215.986661 141.958221 
L 218.755584 142.406352 
L 218.755584 142.406352 
L 219.678547 142.494032 
L 219.986213 142.648443 
L 223.370523 142.999367 
L 223.986069 143.118909 
L 224.908805 143.320059 
L 224.908805 143.320059 
L 227.062408 143.600613 
L 227.67773 143.781855 
L 230.754787 144.390103 
L 231.369929 144.629694 
L 233.2156 145.096561 
L 233.830713 145.345086 
L 237.830505 146.37185 
L 239.368478 146.660759 
L 239.984173 146.805152 
L 240.599466 146.841996 
L 240.907469 147.008269 
L 243.060695 147.297725 
L 243.675764 147.472987 
L 245.522018 147.805234 
L 246.137361 147.95688 
L 246.752678 148.042175 
L 247.060331 148.218208 
L 247.060331 148.218208 
L 247.983317 148.345157 
L 248.598526 148.564998 
L 251.0599 149.146073 
L 252.905838 149.625136 
L 252.905838 149.625136 
L 254.751839 150.345017 
L 261.520365 152.7019 
L 261.828485 152.661168 
L 263.67397 153.165591 
L 263.67397 153.165591 
L 272.288451 154.044421 
L 276.288195 154.46158 
L 276.595817 154.635703 
L 276.595817 154.635703 
L 282.748929 154.77862 
L 295.362995 155.240319 
L 301.823837 156.242352 
L 304.592775 156.845201 
L 305.208113 157.097288 
L 307.977082 157.569691 
L 308.900056 157.65734 
L 310.13112 157.880491 
L 311.361771 158.179725 
L 313.20728 158.754345 
L 313.514925 158.589824 
L 314.437905 158.88158 
L 314.745179 158.80739 
L 315.668556 159.104801 
L 315.976236 158.990834 
L 317.206842 159.177716 
L 319.052799 159.443466 
L 319.052799 159.443466 
L 321.20641 159.655089 
L 321.821723 159.927902 
L 322.437079 160.083641 
L 323.360068 160.108308 
L 324.283023 160.209291 
L 325.821351 160.570751 
L 326.129346 160.598583 
L 326.436622 160.500798 
L 339.666023 162.029205 
L 340.281777 162.265023 
L 341.512007 162.500215 
L 341.512007 162.500215 
L 342.742632 162.744128 
L 343.357977 162.998346 
L 343.357977 162.998346 
L 344.896255 163.339694 
L 345.203903 163.104052 
L 345.511594 163.367103 
L 346.126909 163.292888 
L 346.126909 163.292888 
L 346.74223 163.608321 
L 347.665187 163.514959 
L 347.972837 163.914623 
L 348.895868 163.800116 
L 349.203437 164.158468 
L 350.126457 164.016389 
L 350.434146 164.30574 
L 351.357103 164.198434 
L 351.664751 164.510017 
L 351.664751 164.510017 
L 352.587765 164.516914 
L 352.89534 164.655788 
L 353.510778 164.600841 
L 353.818398 164.779927 
L 354.741573 164.547785 
L 355.049123 165.015289 
L 355.972329 164.913126 
L 356.280015 165.133082 
L 357.202649 165.046493 
L 357.51032 165.27894 
L 358.433321 165.182891 
L 358.740954 165.377484 
L 359.664159 165.267536 
L 359.9716 165.449912 
L 360.894599 165.273613 
L 361.202252 165.500768 
L 362.125211 165.28415 
L 362.432888 165.554094 
L 363.355833 165.370367 
L 363.971108 165.54257 
L 364.586785 165.423054 
L 364.894176 165.637204 
L 365.817141 165.465391 
L 366.124841 165.687771 
L 367.047782 165.531614 
L 367.355447 165.685995 
L 368.278494 165.521822 
L 368.586381 165.714812 
L 369.509352 165.555525 
L 369.816741 165.742228 
L 370.739957 165.587986 
L 371.047339 165.766186 
L 371.970348 165.61486 
L 372.278157 165.811547 
L 373.201287 165.660292 
L 373.508609 165.814125 
L 374.431653 165.665605 
L 374.739271 165.871497 
L 375.66227 165.769179 
L 376.585513 165.871321 
L 376.892906 165.842783 
L 377.200604 165.961852 
L 378.123547 165.881647 
L 378.123547 165.881647 
L 378.431215 165.993105 
L 379.354183 165.908002 
L 379.66185 166.053977 
L 380.585317 165.966974 
L 380.892509 166.108601 
L 381.507608 166.063694 
L 381.507608 166.063694 
L 382.430787 166.134182 
L 383.046093 166.087383 
L 383.353801 166.219228 
L 384.276752 166.156581 
L 384.584438 166.329149 
L 385.507153 166.267052 
L 385.81507 166.477073 
L 386.738052 166.428398 
L 387.045697 166.564315 
L 387.968669 166.51283 
L 388.276369 166.652769 
L 389.199338 166.614171 
L 389.506978 166.750449 
L 390.42994 166.702543 
L 390.737618 166.813008 
L 391.660779 166.760666 
L 391.968237 166.974761 
L 392.891222 166.912679 
L 393.198902 167.06445 
L 394.1219 167.015583 
L 394.42954 167.246437 
L 396.583136 167.228612 
L 396.890814 167.435246 
L 397.813812 167.38625 
L 398.121728 167.529503 
L 399.04444 167.455984 
L 399.352088 167.664406 
L 400.275065 167.603555 
L 400.582729 167.764118 
L 401.505687 167.726965 
L 401.813346 167.917797 
L 403.966994 167.930132 
L 404.274961 168.08709 
L 405.197678 168.035072 
L 405.505315 168.248625 
L 405.505315 168.248625 
L 406.428294 168.206933 
L 406.735954 168.394673 
L 407.658906 168.358516 
L 407.966602 168.505259 
L 409.197241 168.467473 
L 409.504897 168.683029 
L 410.120697 168.680199 
L 410.427869 168.83366 
L 411.658801 168.848025 
L 411.966437 169.05424 
L 412.889134 169.097905 
L 413.196468 169.293447 
L 414.12022 169.343662 
L 414.42748 169.491763 
L 414.42748 169.491763 
L 415.350479 169.578286 
L 415.658178 169.773607 
L 415.658178 169.773607 
L 417.811751 170.121535 
L 418.119371 170.362249 
L 419.042351 170.425368 
L 419.35005 170.619699 
L 419.35005 170.619699 
L 423.657253 169.366709 
L 423.965194 169.345903 
L 424.272563 169.66862 
L 425.503232 169.599981 
L 426.118552 169.545857 
L 426.426213 169.87783 
L 427.349166 169.784792 
L 427.656814 169.979586 
L 428.88748 170.004594 
L 429.810492 169.976892 
L 430.11811 170.128533 
L 431.041114 170.091453 
L 431.348747 170.270089 
L 432.57939 170.219752 
L 432.887095 170.367734 
L 433.502655 170.306455 
L 433.810033 170.533135 
L 435.963673 170.425365 
L 436.578993 170.503746 
L 438.424763 170.368125 
L 438.732596 170.618344 
L 439.655866 170.61346 
L 440.886362 170.724053 
L 441.1939 170.522532 
L 444.578167 170.685587 
L 444.885786 170.597061 
L 445.808779 170.704309 
L 446.116408 170.574542 
L 449.500729 170.884844 
L 449.808641 170.75412 
L 454.11562 171.015466 
L 459.961121 171.074335 
L 459.961121 171.074335 
L 461.807591 170.970227 
L 462.422069 170.870399 
L 463.037778 170.891487 
L 463.345047 171.063922 
L 466.729322 171.156823 
L 467.037349 171.348608 
L 468.267959 171.306883 
L 468.575617 171.265818 
L 468.883264 171.484887 
L 471.652241 171.358427 
L 471.959862 171.563314 
L 472.883157 171.531762 
L 473.190516 171.697405 
L 474.113523 171.647827 
L 474.113523 171.647827 
L 475.036507 171.871145 
L 477.190084 171.914721 
L 478.728429 171.876311 
L 479.036153 171.872667 
L 479.651431 172.037835 
L 480.266994 172.217379 
L 480.574389 172.138037 
L 481.189684 172.268759 
L 481.497436 172.224831 
L 481.80501 172.024126 
L 483.035667 171.838534 
L 484.881414 171.539451 
L 485.189274 171.404482 
L 485.496902 171.510281 
L 486.419924 171.417975 
L 486.727572 171.666029 
L 490.419776 171.566411 
L 491.342488 171.363398 
L 491.650139 171.416897 
L 491.650139 171.416897 
L 492.573085 171.277707 
L 492.880793 171.412744 
L 493.803725 171.215534 
L 494.111431 171.293588 
L 495.034392 171.105809 
L 495.034392 171.105809 
L 495.342059 171.172323 
L 496.572665 170.921118 
L 497.188007 170.900135 
L 497.496063 170.839313 
L 497.803378 171.034471 
L 498.111013 171.081575 
L 498.111013 171.081575 
L 501.187629 170.695335 
L 501.8033 170.795581 
L 503.341234 170.732148 
L 506.110156 170.645125 
L 506.417848 170.430573 
L 509.80205 170.41359 
L 510.10976 170.203568 
L 513.186352 170.115438 
L 513.186352 170.115438 
L 514.109604 170.024814 
L 515.95528 170.068576 
L 516.57036 170.035392 
L 517.185934 170.069796 
L 517.801206 169.946223 
L 520.57018 170.046257 
L 520.877852 170.078237 
L 521.493161 170.029016 
L 521.493161 170.029016 
L 523.339121 170.118016 
L 525.492753 169.653611 
L 525.800399 169.515577 
L 526.108033 169.972886 
L 527.031516 169.57468 
L 527.031516 169.57468 
L 527.646443 170.002633 
L 528.261623 169.952646 
L 528.569623 170.257307 
L 530.722956 170.17839 
L 530.722956 170.17839 
L 531.030595 170.332935 
L 533.184336 170.37702 
L 533.491912 170.729483 
L 534.107312 170.788525 
L 534.722971 170.500063 
L 535.337737 170.545565 
L 535.337737 170.545565 
L 535.953171 171.020593 
L 536.568519 171.061451 
L 536.568519 171.061451 
L 539.029505 171.479176 
L 542.721966 172.451138 
L 543.029714 172.867074 
L 547.644259 173.997552 
L 547.951937 174.406463 
L 547.951937 174.406463 
L 550.105539 175.064055 
L 550.413225 174.94491 
L 552.874483 175.815742 
L 555.336522 176.849066 
L 555.336522 176.849066 
L 557.79704 178.051558 
L 558.719871 178.20746 
L 558.719871 178.20746 
L 559.335364 178.681949 
L 561.796598 179.345245 
L 567.642161 180.894073 
L 568.872803 181.367842 
L 568.872803 181.367842 
L 569.79576 181.4679 
L 570.103442 181.730737 
L 571.026752 181.787392 
L 571.334111 182.108877 
L 572.257087 182.15338 
L 572.564744 182.487647 
L 573.487446 182.579806 
L 573.795464 182.828805 
L 573.795464 182.828805 
L 574.41103 182.902839 
L 575.334504 183.257658 
L 575.949013 183.471519 
L 576.25666 183.766124 
L 576.25666 183.766124 
L 577.487316 184.151674 
L 580.256105 184.991691 
L 580.256105 184.991691 
L 582.102187 185.488375 
L 582.40982 185.441461 
L 584.871102 185.997288 
L 584.871102 185.997288 
L 587.024775 186.463341 
L 587.332404 186.533128 
L 587.640306 186.483381 
L 589.793687 187.021619 
L 590.101359 186.980655 
L 592.254968 187.544106 
L 592.870265 187.685117 
L 603.023062 191.077201 
L 603.023062 191.077201 
L 604.561372 191.880467 
L 607.330308 192.99475 
L 607.330308 192.99475 
L 610.099133 193.535279 
L 616.867497 195.455521 
L 617.483053 195.47334 
L 618.098678 195.550986 
L 618.406557 195.939642 
L 619.021399 196.137034 
L 619.636713 196.362029 
L 620.559666 196.43174 
L 620.559666 196.43174 
L 620.867555 196.744584 
L 623.020968 197.730724 
L 623.328624 197.961227 
L 624.251608 198.401287 
L 624.559245 198.310152 
L 625.174832 198.454711 
L 625.482266 198.450481 
L 625.789906 198.641046 
L 625.789906 198.641046 
L 626.405234 198.516511 
L 627.020228 198.514185 
L 627.328206 198.981737 
L 627.943535 199.014584 
L 628.55887 199.188543 
L 633.48202 199.670895 
L 634.096975 199.627294 
L 634.096975 199.627294 
L 635.020295 199.929076 
L 635.020295 199.929076 
L 635.635562 199.856033 
L 636.558054 200.099397 
L 636.865701 199.967428 
L 637.788671 200.205055 
L 638.096273 200.083495 
L 639.019282 200.312798 
L 639.327064 199.893422 
L 640.249917 200.098278 
L 640.557617 199.749166 
L 641.480591 199.942777 
L 641.788227 199.673284 
L 642.711219 199.875595 
L 643.018832 199.557781 
L 643.941845 199.74989 
L 644.249506 199.406975 
L 645.172508 199.58362 
L 645.480146 199.30178 
L 646.403202 199.504097 
L 646.710761 199.178425 
L 647.633826 199.408835 
L 647.941517 199.065773 
L 648.864435 199.35337 
L 649.172321 198.955413 
L 650.095078 199.27221 
L 650.402744 198.833206 
L 651.32569 199.140031 
L 651.633354 198.941314 
L 652.556334 199.264262 
L 652.556334 199.264262 
L 653.171624 199.071218 
L 653.786977 199.320902 
L 654.094632 198.958283 
L 655.017873 199.350628 
L 655.325274 199.078361 
L 655.325274 199.078361 
L 656.248503 199.528105 
L 656.555934 199.143943 
L 657.478892 199.590506 
L 657.786566 199.230891 
L 658.401857 199.531217 
L 658.401857 199.531217 
L 659.017196 199.447394 
L 659.940183 199.926614 
L 659.940183 199.926614 
L 660.555488 199.84355 
L 661.170826 200.198672 
L 661.170826 200.198672 
L 661.78627 200.193948 
L 661.78627 200.193948 
L 662.401469 200.578794 
L 662.709103 200.286934 
L 663.324861 200.669889 
L 663.939745 200.570973 
L 663.939745 200.570973 
L 664.862727 201.110962 
L 665.170415 200.933675 
L 665.785745 201.273757 
L 666.401043 201.148073 
L 666.401043 201.148073 
L 667.015958 201.481758 
L 667.632149 201.372986 
L 667.632149 201.372986 
L 668.554683 201.87779 
L 668.862334 201.638457 
L 669.477921 201.900781 
L 670.092927 201.718411 
L 670.092927 201.718411 
L 673.169549 202.360571 
L 673.477235 202.461408 
L 673.784839 202.301228 
L 674.092499 202.364329 
L 674.707847 202.225579 
L 675.015491 202.422505 
L 675.938557 202.270984 
L 676.246133 202.716161 
L 677.169131 202.686341 
L 677.476802 202.90809 
L 678.399756 203.063893 
L 679.014997 203.287055 
L 685.783631 204.576815 
L 686.091279 204.943505 
L 687.014244 205.135399 
L 687.321911 205.06964 
L 688.244911 205.220676 
L 688.552559 205.444587 
L 689.47554 205.600035 
L 690.09082 205.907988 
L 690.706194 206.087317 
L 691.013834 206.0003 
L 694.705753 206.860895 
L 695.629184 206.972198 
L 695.936399 207.228855 
L 698.705079 207.782899 
L 698.705079 207.782899 
" clip-path="url(#p2256934af5)" style="fill: none; stroke: #aa00ff; stroke-width: 2; stroke-linecap: square"/>
   </g>
   <g id="line2d_34">
    <path d="M 97.537383 127.894737 
L 127.380455 128.197485 
L 130.457077 128.338109 
L 131.07281 128.523043 
L 131.687695 128.47116 
L 132.303332 128.584592 
L 132.918353 128.420244 
L 136.302623 129.052191 
L 139.071526 129.571009 
L 141.225165 130.110001 
L 145.532428 130.998349 
L 147.685711 131.47817 
L 151.68561 132.535211 
L 153.531604 132.966116 
L 155.37785 133.406253 
L 159.992147 134.557187 
L 163.992328 134.905984 
L 165.222672 134.965921 
L 167.991609 135.057667 
L 168.914643 135.078682 
L 170.145253 135.117216 
L 171.068195 135.110561 
L 173.529507 135.106283 
L 185.835924 134.650805 
L 192.297145 135.021136 
L 194.758117 135.372505 
L 208.295385 137.413871 
L 215.064093 138.045964 
L 225.831838 138.626925 
L 226.7547 138.700944 
L 227.98537 138.881984 
L 230.754786 139.346614 
L 239.061148 141.056803 
L 240.291831 141.147921 
L 243.983718 141.782925 
L 246.445013 142.336589 
L 248.29097 142.807133 
L 249.521561 143.174362 
L 252.290558 144.268073 
L 255.674968 145.790846 
L 258.751403 146.959537 
L 264.596948 148.936735 
L 268.596823 149.931075 
L 270.134905 150.33928 
L 271.365478 150.557056 
L 274.13439 151.314539 
L 274.75003 151.478233 
L 275.980613 152.074105 
L 276.903854 152.012257 
L 278.134067 152.289853 
L 281.2106 153.024448 
L 282.441246 153.188327 
L 284.902531 153.759029 
L 285.517861 153.872225 
L 286.133163 154.045706 
L 286.748464 154.122456 
L 287.979089 154.368024 
L 289.517447 154.602883 
L 290.440739 154.885751 
L 291.363862 155.04971 
L 296.593756 156.328698 
L 299.977752 157.567826 
L 302.439149 158.658969 
L 303.362152 159.05285 
L 307.97708 161.351226 
L 308.900052 161.641572 
L 318.129842 166.019805 
L 324.898322 169.236676 
L 330.436266 171.53843 
L 341.819687 175.576923 
L 344.280829 176.75017 
L 344.896255 176.949755 
L 345.511591 177.266369 
L 350.434143 178.958321 
L 353.818395 179.940011 
L 356.280012 180.614814 
L 357.510317 180.978323 
L 358.433321 181.172951 
L 359.9716 181.427046 
L 362.74053 181.881543 
L 367.355447 182.227409 
L 380.277194 182.530008 
L 382.430784 182.661153 
L 385.199722 182.878979 
L 386.122697 182.969071 
L 387.66101 183.079398 
L 401.197707 184.518042 
L 402.4287 184.551318 
L 409.812555 185.325833 
L 410.735522 185.447493 
L 415.658176 186.059183 
L 416.273451 186.059301 
L 416.888376 186.263584 
L 418.119369 186.530297 
L 419.042351 186.506151 
L 420.580621 186.852006 
L 423.349591 186.497952 
L 423.965192 186.440576 
L 424.580255 186.386123 
L 425.810775 186.140168 
L 426.733874 186.030254 
L 429.195141 185.352842 
L 429.810488 185.289228 
L 432.579389 184.697455 
L 433.194996 184.663683 
L 435.656017 184.123342 
L 436.271313 184.051404 
L 436.886629 183.862431 
L 437.809768 183.807306 
L 438.732596 183.636652 
L 439.348022 183.514915 
L 439.963241 183.422148 
L 440.270921 183.248167 
L 441.1939 183.135867 
L 441.809191 182.940672 
L 442.731947 182.76728 
L 443.962821 182.460911 
L 444.578163 182.340593 
L 445.501146 181.901577 
L 446.116406 181.811161 
L 446.423787 181.85705 
L 447.962391 181.426092 
L 448.577697 181.284144 
L 449.808641 180.846112 
L 450.423708 180.818267 
L 452.269618 180.392299 
L 453.192598 180.08491 
L 454.423535 179.670924 
L 455.038859 179.552739 
L 455.962029 179.286715 
L 457.192202 179.089836 
L 459.345836 178.580226 
L 459.96112 178.28092 
L 460.576494 178.116034 
L 461.499498 177.539576 
L 461.807588 177.887722 
L 463.037776 177.78725 
L 463.653552 177.712827 
L 464.576069 177.543623 
L 466.72932 177.044543 
L 467.344737 176.82914 
L 468.267958 177.029265 
L 469.190934 176.369554 
L 470.113713 176.349337 
L 470.729239 176.102818 
L 471.652241 176.045024 
L 473.190516 175.637582 
L 475.036505 175.275422 
L 476.267119 174.887255 
L 478.113063 174.463864 
L 479.344061 174.081979 
L 479.958842 173.942155 
L 481.189681 173.526702 
L 482.112599 173.348105 
L 483.035667 173.12042 
L 485.189273 172.847484 
L 486.112223 172.805639 
L 486.419924 172.711927 
L 486.72757 172.738429 
L 488.265872 172.176242 
L 489.188828 171.906416 
L 490.419773 171.67396 
L 494.111429 170.811883 
L 496.572661 170.328463 
L 497.496061 170.164378 
L 498.111011 170.03759 
L 499.341623 169.842767 
L 499.956932 169.732817 
L 500.572262 169.625662 
L 501.495235 169.299921 
L 502.110588 169.265337 
L 503.341232 168.955198 
L 504.264337 168.772642 
L 505.187164 168.545367 
L 505.802505 168.420691 
L 507.03313 168.041171 
L 508.263797 167.863095 
L 509.494108 167.443851 
L 510.109758 167.298923 
L 511.032682 167.058656 
L 512.571007 166.655246 
L 514.416848 166.139292 
L 515.647617 165.665418 
L 516.262625 165.467821 
L 517.493571 165.022923 
L 526.72367 161.826793 
L 529.184382 160.722898 
L 531.030594 159.99995 
L 535.030198 158.467683 
L 542.414143 156.323823 
L 543.029713 156.180311 
L 543.644678 155.96095 
L 545.182981 155.593995 
L 546.105964 155.273969 
L 546.721278 155.103118 
L 547.336873 154.885575 
L 548.566895 154.792027 
L 549.798354 154.521854 
L 551.336668 154.181309 
L 554.413394 153.62903 
L 555.028485 153.532605 
L 557.489405 153.079552 
L 560.565984 151.530334 
L 561.488953 151.008996 
L 562.104302 150.801007 
L 563.334973 150.102592 
L 567.026829 148.5937 
L 568.8728 147.923133 
L 569.488115 147.683585 
L 570.718752 147.064009 
L 573.180298 145.852863 
L 577.487314 144.300354 
L 578.410063 143.949171 
L 580.256102 142.951929 
L 580.871864 142.669261 
L 581.79452 142.304935 
L 582.40982 142.049367 
L 583.025169 141.823553 
L 583.948148 141.39393 
L 584.563442 141.085302 
L 585.486261 140.632609 
L 587.640306 139.628396 
L 588.255015 139.343512 
L 590.716679 138.524821 
L 592.870264 137.783652 
L 593.485714 137.691296 
L 598.408141 136.317765 
L 599.023514 136.188054 
L 599.638835 135.964319 
L 600.254104 135.849125 
L 600.86945 135.577802 
L 603.638381 134.900116 
L 604.86903 134.571219 
L 608.253263 133.272464 
L 610.406875 131.949738 
L 610.714598 131.956616 
L 611.637543 131.64291 
L 612.252913 131.458475 
L 613.791149 130.692765 
L 615.329769 130.197557 
L 615.63711 130.011915 
L 616.560101 129.848094 
L 617.483052 129.429327 
L 618.098678 129.344361 
L 619.021399 129.008323 
L 619.636711 128.84115 
L 620.252287 128.604499 
L 622.712955 128.511969 
L 623.328623 128.777186 
L 623.943969 128.398853 
L 624.251608 128.274991 
L 625.174829 128.403021 
L 625.789905 127.972139 
L 626.097569 128.166657 
L 627.020225 127.968725 
L 627.943533 127.724156 
L 629.17416 127.524862 
L 629.789914 127.377971 
L 630.405058 127.376508 
L 631.02041 127.447269 
L 635.020293 127.432805 
L 635.635559 127.415814 
L 636.250362 127.28646 
L 639.01928 127.376801 
L 642.095907 127.323815 
L 643.018831 127.303414 
L 644.557138 127.295805 
L 645.787814 127.302046 
L 647.633825 126.929712 
L 647.941516 127.025256 
L 649.172317 126.809536 
L 650.095076 126.779124 
L 651.325687 126.934711 
L 652.556333 126.781517 
L 658.094232 126.741626 
L 659.324874 126.544972 
L 661.786269 126.512749 
L 662.709101 126.244713 
L 663.939744 125.852046 
L 664.555059 125.723466 
L 665.785741 125.532955 
L 667.939599 124.848436 
L 670.092927 124.063371 
L 671.01593 123.678507 
L 671.938549 123.424508 
L 672.554251 123.246447 
L 676.553779 121.225353 
L 679.630419 119.558862 
L 681.784041 118.261508 
L 682.707044 117.587194 
L 683.937585 116.760666 
L 685.168271 115.863335 
L 685.783628 115.462761 
L 686.706553 114.49285 
L 687.321911 114.016957 
L 688.244909 113.437054 
L 690.09082 111.92671 
L 691.321524 110.947357 
L 692.8598 109.765647 
L 698.705079 105.022631 
L 698.705079 105.022631 
" clip-path="url(#p2256934af5)" style="fill: none; stroke: #ff9c00; stroke-width: 2; stroke-linecap: square"/>
   </g>
   <g id="line2d_35">
    <path d="M 97.537383 127.894737 
L 113.843419 127.993769 
L 116.612648 128.081464 
L 121.534926 128.070501 
L 125.534514 128.164078 
L 127.995776 128.298533 
L 132.610615 128.802421 
L 133.226047 128.856602 
L 135.687298 129.437838 
L 139.686899 130.183973 
L 149.532435 132.678416 
L 152.60891 133.62188 
L 154.76224 134.297664 
L 157.838869 135.253711 
L 161.222998 136.018669 
L 162.761055 136.288662 
L 163.992329 136.444702 
L 166.145669 136.633616 
L 167.683997 136.761216 
L 171.068196 137.014053 
L 173.529507 137.16576 
L 180.913355 137.431344 
L 183.067076 137.565209 
L 186.451239 137.789301 
L 189.527758 138.136127 
L 190.450815 138.312845 
L 191.988758 138.617292 
L 194.450125 139.081736 
L 196.603911 139.651431 
L 197.834679 139.895206 
L 199.680617 140.326996 
L 200.295993 140.445069 
L 202.141719 140.967484 
L 204.911539 141.606646 
L 214.140716 143.488009 
L 216.909638 143.9331 
L 222.755171 144.809564 
L 223.986069 144.962315 
L 224.908805 145.102564 
L 228.600416 145.784862 
L 233.830713 147.176558 
L 239.061149 148.643298 
L 245.522018 149.921697 
L 246.752678 150.251793 
L 250.444839 151.236106 
L 253.213511 152.128444 
L 255.67497 153.09296 
L 257.2131 153.774069 
L 259.982007 154.739407 
L 262.44334 155.639198 
L 263.366211 155.858712 
L 265.212291 156.320777 
L 270.442501 157.209828 
L 271.673133 157.304043 
L 272.903778 157.690144 
L 274.134392 157.814493 
L 274.750032 157.917645 
L 275.980617 158.437759 
L 276.903857 158.205773 
L 277.518679 158.298418 
L 278.134069 158.429352 
L 279.672315 158.529306 
L 282.441247 158.836644 
L 283.979524 159.019877 
L 284.902532 159.184466 
L 285.517863 159.199167 
L 286.133166 159.299579 
L 286.748466 159.283401 
L 287.671463 159.347201 
L 295.055246 160.135043 
L 297.824245 160.68655 
L 299.977753 161.232013 
L 303.977466 162.397771 
L 304.900144 162.728809 
L 306.131367 163.080563 
L 307.977082 163.660222 
L 308.592624 163.68977 
L 323.667728 167.708257 
L 324.898323 167.952745 
L 326.436622 168.297509 
L 341.204348 171.260852 
L 342.127271 171.574902 
L 343.050292 171.893453 
L 345.203903 172.571565 
L 346.434537 172.975229 
L 347.049916 173.08274 
L 347.972837 173.345829 
L 355.972329 175.139715 
L 360.586892 175.780472 
L 365.509479 176.16813 
L 366.432136 176.124717 
L 367.970792 176.220202 
L 377.508253 176.546382 
L 383.353801 176.933639 
L 391.352892 177.849932 
L 393.198902 178.118882 
L 394.1219 178.263245 
L 399.352088 178.865513 
L 403.351668 179.407042 
L 407.043573 179.963902 
L 407.966602 180.075564 
L 408.889542 180.326177 
L 410.120697 180.444743 
L 411.350838 180.734663 
L 412.274301 180.948065 
L 415.658178 181.833988 
L 416.273451 181.983134 
L 418.119371 182.678979 
L 419.042351 182.922852 
L 419.965359 183.270337 
L 422.118934 183.424832 
L 423.041657 183.322079 
L 423.657253 183.143055 
L 424.272563 183.137224 
L 424.887908 183.10423 
L 425.503232 183.145763 
L 426.426213 182.989658 
L 427.041491 182.85628 
L 427.656814 182.704137 
L 430.425748 182.484003 
L 431.041114 182.416754 
L 431.964068 182.291279 
L 432.57939 182.217102 
L 433.194998 182.22655 
L 434.11774 181.946675 
L 436.271315 181.675884 
L 437.194305 181.53604 
L 438.732596 181.366738 
L 439.348023 181.276445 
L 439.963243 181.158403 
L 440.57855 180.925873 
L 441.809192 180.895294 
L 442.73195 180.718133 
L 444.578167 180.47491 
L 445.193664 180.278471 
L 446.423787 180.288786 
L 447.347148 180.130803 
L 448.270077 180.044623 
L 449.808641 179.796285 
L 450.116022 179.852427 
L 450.731344 179.704443 
L 459.038206 178.606108 
L 459.961121 178.359635 
L 460.268829 178.400209 
L 461.499498 178.032442 
L 462.115203 178.076026 
L 462.73008 177.908871 
L 463.345047 177.966958 
L 464.576071 178.005522 
L 465.806666 177.783572 
L 467.653022 177.713248 
L 468.267959 177.866703 
L 469.190934 177.606134 
L 469.806341 177.626296 
L 470.729243 177.358328 
L 471.652241 177.389943 
L 473.49821 177.265348 
L 474.113523 177.283196 
L 475.036507 177.183754 
L 475.65183 177.210344 
L 477.497742 176.91819 
L 478.728429 176.855661 
L 481.189684 176.616987 
L 481.80501 176.490969 
L 482.72802 176.333933 
L 483.34331 176.22906 
L 483.958641 176.072229 
L 485.804602 175.943503 
L 495.957409 174.673524 
L 496.572665 174.553837 
L 497.803378 174.494199 
L 499.64929 174.276623 
L 499.956933 174.324522 
L 500.879905 174.059504 
L 501.495238 174.021681 
L 503.033546 173.889275 
L 503.341234 173.911638 
L 504.264339 173.651115 
L 507.340768 173.23048 
L 510.725072 172.792384 
L 511.340394 172.641606 
L 512.263395 172.728198 
L 512.878678 172.495604 
L 514.41685 172.313797 
L 515.032273 172.162459 
L 515.647618 172.334618 
L 516.262626 172.085243 
L 516.57036 171.935784 
L 517.493574 172.070857 
L 520.262533 171.717817 
L 520.877852 171.644444 
L 521.493161 171.549503 
L 521.80084 171.561612 
L 522.416139 171.386981 
L 524.569781 171.3737 
L 525.185094 171.153963 
L 526.415698 171.156565 
L 527.338723 170.927704 
L 528.261623 170.952906 
L 528.877185 170.736747 
L 529.799979 170.745434 
L 530.722956 170.525441 
L 531.338183 170.658164 
L 533.491912 170.180775 
L 533.799562 170.382024 
L 534.722971 170.353247 
L 536.260733 170.341676 
L 536.876419 170.407497 
L 537.799148 170.374679 
L 538.722122 170.48541 
L 539.337714 170.477007 
L 540.260412 170.707967 
L 540.875787 170.671774 
L 543.029714 171.01713 
L 543.64468 171.045826 
L 544.875355 171.29243 
L 546.105964 171.260286 
L 547.644259 171.721201 
L 548.25961 171.821397 
L 549.182842 171.88947 
L 550.413225 171.936914 
L 552.566823 172.452602 
L 553.489811 172.614847 
L 555.643615 173.097236 
L 556.566402 173.384011 
L 559.335364 174.156516 
L 559.950638 174.227293 
L 560.873664 174.015055 
L 561.488953 174.160411 
L 562.104303 174.320718 
L 562.411968 174.289319 
L 562.71958 174.106357 
L 563.334973 174.106257 
L 564.25792 174.405297 
L 565.180933 174.316693 
L 565.795817 174.340483 
L 566.103835 174.418755 
L 566.411817 174.721282 
L 567.026832 174.781485 
L 567.949868 174.635622 
L 568.565183 174.7127 
L 568.872803 175.113244 
L 569.488116 175.343607 
L 570.103442 175.487931 
L 570.718752 175.147257 
L 571.334111 175.3567 
L 571.641745 175.597372 
L 572.872373 175.417604 
L 573.487446 175.386387 
L 573.795464 175.454802 
L 574.41103 175.900636 
L 575.026656 175.878406 
L 575.641817 175.712885 
L 576.564307 175.846301 
L 577.179627 176.169872 
L 577.794949 176.591524 
L 578.410063 176.77062 
L 578.717902 176.766784 
L 579.640924 176.318888 
L 580.256105 176.342779 
L 580.563853 176.255931 
L 580.871865 176.285149 
L 581.487033 176.838574 
L 583.332692 177.073491 
L 583.640524 176.86361 
L 584.255814 176.911238 
L 584.563442 176.969315 
L 585.17876 176.672909 
L 586.10177 176.716552 
L 586.717111 176.582172 
L 587.332404 176.771565 
L 587.640306 176.707782 
L 587.947745 176.529571 
L 588.563039 176.56541 
L 589.178368 176.97173 
L 591.024348 177.072184 
L 591.63961 177.106487 
L 591.947315 177.180675 
L 592.254968 177.111475 
L 592.562782 176.838664 
L 592.870265 176.867372 
L 593.485716 177.362203 
L 594.100945 177.499225 
L 594.716251 177.692925 
L 595.023922 177.683563 
L 595.639224 177.846046 
L 596.869846 177.603115 
L 597.177805 177.634714 
L 597.792847 177.57307 
L 598.100174 177.704665 
L 598.408141 178.090393 
L 599.023515 178.234194 
L 599.638836 178.086605 
L 600.56164 178.447251 
L 600.869451 178.263884 
L 601.177134 178.30319 
L 601.484794 178.474171 
L 602.407773 178.358895 
L 606.099686 179.681379 
L 606.71501 179.561394 
L 607.330308 179.831052 
L 608.253265 179.804403 
L 608.868607 179.582049 
L 609.79159 179.808644 
L 610.406878 179.808054 
L 612.560502 180.167359 
L 613.791151 180.254204 
L 615.329769 180.433735 
L 615.944789 180.394803 
L 616.560102 180.598252 
L 617.175413 180.413399 
L 618.098678 180.870137 
L 618.713725 180.729845 
L 619.944219 181.036994 
L 620.559666 181.042729 
L 621.482696 181.355596 
L 622.405681 181.421537 
L 623.020968 181.738745 
L 624.251608 181.905828 
L 624.559245 182.106907 
L 626.09757 182.256978 
L 626.712912 182.320007 
L 628.251188 182.31803 
L 628.866531 182.296733 
L 630.09717 182.267261 
L 631.943776 182.196018 
L 633.48202 182.167936 
L 634.096975 182.153285 
L 634.712873 182.01922 
L 635.635562 182.123966 
L 636.250363 181.848621 
L 637.480866 181.801823 
L 638.096273 181.766524 
L 644.864473 180.679166 
L 651.32569 179.722937 
L 653.171624 179.562003 
L 654.094632 179.483053 
L 659.324874 179.502359 
L 660.555488 179.634238 
L 663.939745 179.808681 
L 664.862727 180.157869 
L 667.939602 180.175613 
L 669.169996 180.350908 
L 670.092927 180.250905 
L 671.323573 180.320163 
L 671.938552 180.460674 
L 673.477235 180.253095 
L 674.707847 180.40471 
L 680.861017 180.42315 
L 684.245335 180.467291 
L 685.168271 180.501259 
L 685.783631 180.600704 
L 687.321911 180.495938 
L 688.244911 180.582634 
L 694.090443 180.764421 
L 694.705753 180.634702 
L 698.705079 180.722517 
L 698.705079 180.722517 
" clip-path="url(#p2256934af5)" style="fill: none; stroke: #ff0000; stroke-width: 2; stroke-linecap: square"/>
   </g>
   <g id="line2d_36">
    <path d="M 98.152941 127.894737 
L 123.996189 128.091488 
L 125.226865 127.966302 
L 131.380046 128.425034 
L 133.841335 128.706426 
L 136.302623 129.168744 
L 141.225166 130.193736 
L 149.839666 132.267918 
L 159.684799 135.055656 
L 163.376709 135.606434 
L 165.838008 135.772941 
L 173.221878 136.151011 
L 183.067076 136.331606 
L 186.758897 136.493181 
L 191.681483 137.084308 
L 195.373359 137.786393 
L 208.910464 140.617645 
L 213.833319 141.474566 
L 218.755584 142.10953 
L 221.216601 142.418645 
L 226.139527 142.977253 
L 228.600416 143.473022 
L 232.292896 144.370064 
L 238.446104 146.042268 
L 244.599045 147.113344 
L 251.982845 148.953912 
L 256.905825 150.821529 
L 258.751403 151.491923 
L 263.058807 152.83988 
L 265.519736 153.390545 
L 274.750032 154.779392 
L 275.980617 155.256559 
L 277.210995 155.042594 
L 278.442095 155.220843 
L 280.287649 155.435409 
L 281.51823 155.603076 
L 283.364257 155.74546 
L 287.671463 156.129545 
L 289.517447 156.249975 
L 290.132809 156.420469 
L 294.440369 156.762415 
L 298.131937 157.531319 
L 300.593202 158.088243 
L 307.977082 160.414131 
L 308.592624 160.420407 
L 314.130218 162.015437 
L 314.745179 162.074123 
L 316.591545 162.607897 
L 318.437468 163.006897 
L 323.360068 164.402553 
L 327.667266 165.306418 
L 330.74389 165.937347 
L 331.974506 166.192123 
L 341.204348 168.187045 
L 348.588197 170.500162 
L 354.741573 171.917063 
L 355.356726 172.11031 
L 356.587365 172.196724 
L 357.818429 172.448972 
L 364.586785 173.067074 
L 373.816202 173.392762 
L 377.508253 173.470811 
L 383.661132 173.888423 
L 403.966994 176.249581 
L 408.274109 176.917533 
L 410.735523 177.358031 
L 413.196468 177.815296 
L 415.658178 178.423015 
L 416.888376 178.92604 
L 420.580622 179.884179 
L 422.426579 179.829808 
L 423.657253 179.521336 
L 426.118552 179.385744 
L 427.349166 179.062539 
L 429.810492 178.803926 
L 439.655866 177.210743 
L 442.116851 176.658593 
L 451.961721 175.054068 
L 455.653905 174.44694 
L 456.884857 174.332725 
L 459.345838 173.800466 
L 460.576494 173.425829 
L 461.807591 173.17473 
L 464.268402 172.958238 
L 465.499023 172.620141 
L 466.729322 172.764469 
L 467.960551 172.702502 
L 470.421597 172.222761 
L 471.652241 172.174813 
L 472.883157 172.003126 
L 474.113523 171.992617 
L 476.574755 171.698878 
L 479.036153 171.332762 
L 481.497436 170.93226 
L 485.189274 170.192421 
L 486.419924 170.06084 
L 487.650823 169.800321 
L 490.111813 169.614985 
L 491.342488 169.280977 
L 493.803725 168.881541 
L 517.185934 165.195679 
L 518.416551 164.939861 
L 519.647429 164.878147 
L 520.877852 164.583845 
L 523.339121 164.267954 
L 528.261623 163.642403 
L 530.722956 163.264624 
L 531.953591 163.051828 
L 533.184336 163.08132 
L 534.415233 162.785492 
L 535.645484 162.910555 
L 538.10681 162.86886 
L 540.568101 163.043372 
L 549.182842 164.159992 
L 550.413225 164.218177 
L 551.643865 164.524538 
L 552.874483 164.626759 
L 555.336522 165.140298 
L 557.181748 165.831179 
L 558.412363 166.153403 
L 559.027652 166.199383 
L 560.873664 166.09723 
L 562.104303 166.169184 
L 563.334973 166.078415 
L 564.565557 166.225408 
L 565.795817 166.236936 
L 567.026832 166.438139 
L 568.257477 166.487397 
L 569.488116 166.841192 
L 575.641817 167.362159 
L 578.102586 167.88047 
L 579.333266 167.910645 
L 580.563853 167.789894 
L 584.255814 168.17347 
L 587.947745 167.889671 
L 592.870265 168.132203 
L 595.331388 168.718948 
L 597.792847 168.75095 
L 600.254106 169.300142 
L 602.715435 169.471308 
L 607.638266 170.524883 
L 610.099133 170.409272 
L 613.791151 170.752964 
L 619.944219 171.382347 
L 626.09757 172.630718 
L 632.250913 172.676321 
L 635.943087 172.66241 
L 637.173357 172.441459 
L 638.404398 172.377892 
L 647.018429 171.138731 
L 650.710408 170.64862 
L 659.940183 170.634874 
L 666.093376 171.231274 
L 672.24625 171.366042 
L 673.477235 171.195638 
L 674.707847 171.300661 
L 685.168271 170.985405 
L 685.783631 171.054079 
L 687.014244 170.905525 
L 689.47554 170.952518 
L 691.321525 170.833478 
L 691.93669 170.889705 
L 693.16775 170.809421 
L 693.782404 170.896977 
L 694.398104 170.692013 
L 698.705079 170.496498 
L 698.705079 170.496498 
" clip-path="url(#p2256934af5)" style="fill: none; stroke: #00ff00; stroke-width: 2; stroke-linecap: square"/>
   </g>
   <g id="patch_3">
    <path d="M 82.8 313.2 
L 82.8 19.8 
" style="fill: none; stroke: #000000; stroke-width: 0.8; stroke-linejoin: miter; stroke-linecap: square"/>
   </g>
   <g id="patch_4">
    <path d="M 709.2 313.2 
L 709.2 19.8 
" style="fill: none; stroke: #000000; stroke-width: 0.8; stroke-linejoin: miter; stroke-linecap: square"/>
   </g>
   <g id="patch_5">
    <path d="M 82.8 313.2 
L 709.2 313.2 
" style="fill: none; stroke: #000000; stroke-width: 0.8; stroke-linejoin: miter; stroke-linecap: square"/>
   </g>
   <g id="patch_6">
    <path d="M 82.8 19.8 
L 709.2 19.8 
" style="fill: none; stroke: #000000; stroke-width: 0.8; stroke-linejoin: miter; stroke-linecap: square"/>
   </g>
  </g>
 </g>
 <defs>
  <clipPath id="p2256934af5">
   <rect x="82.8" y="19.8" width="626.4" height="293.4"/>
  </clipPath>
 </defs>
</svg>
