<?xml version="1.0" encoding="utf-8" standalone="no"?>
<!DOCTYPE svg PUBLIC "-//W3C//DTD SVG 1.1//EN"
  "http://www.w3.org/Graphics/SVG/1.1/DTD/svg11.dtd">
<svg xmlns:xlink="http://www.w3.org/1999/xlink" width="720pt" height="360pt" viewBox="0 0 720 360" xmlns="http://www.w3.org/2000/svg" version="1.1">
 <metadata>
  <rdf:RDF xmlns:dc="http://purl.org/dc/elements/1.1/" xmlns:cc="http://creativecommons.org/ns#" xmlns:rdf="http://www.w3.org/1999/02/22-rdf-syntax-ns#">
   <cc:Work>
    <dc:type rdf:resource="http://purl.org/dc/dcmitype/StillImage"/>
    <dc:date>2024-08-06T11:50:13.439245</dc:date>
    <dc:format>image/svg+xml</dc:format>
    <dc:creator>
     <cc:Agent>
      <dc:title>Matplotlib v3.8.3, https://matplotlib.org/</dc:title>
     </cc:Agent>
    </dc:creator>
   </cc:Work>
  </rdf:RDF>
 </metadata>
 <defs>
  <style type="text/css">*{stroke-linejoin: round; stroke-linecap: butt}</style>
 </defs>
 <g id="figure_1">
  <g id="patch_1">
   <path d="M 0 360 
L 720 360 
L 720 0 
L 0 0 
z
" style="fill: #ffffff"/>
  </g>
  <g id="axes_1">
   <g id="patch_2">
    <path d="M 82.8 313.2 
L 709.2 313.2 
L 709.2 19.8 
L 82.8 19.8 
z
" style="fill: #ffffff"/>
   </g>
   <g id="matplotlib.axis_1">
    <g id="xtick_1">
     <g id="line2d_1">
      <path d="M 103.006452 313.2 
L 103.006452 19.8 
" clip-path="url(#p4e4d451586)" style="fill: none; stroke-dasharray: 2.96,1.28; stroke-dashoffset: 0; stroke: #bdc3c7; stroke-width: 0.8"/>
     </g>
     <g id="line2d_2">
      <defs>
       <path id="m00d8e2d011" d="M 0 0 
L 0 -3.5 
" style="stroke: #000000; stroke-width: 0.8"/>
      </defs>
      <g>
       <use xlink:href="#m00d8e2d011" x="103.006452" y="313.2" style="stroke: #000000; stroke-width: 0.8"/>
      </g>
     </g>
     <g id="text_1">
      <!-- 0 -->
      <g transform="translate(97.280202 330.377187) scale(0.18 -0.18)">
       <defs>
        <path id="DejaVuSans-30" d="M 2034 4250 
Q 1547 4250 1301 3770 
Q 1056 3291 1056 2328 
Q 1056 1369 1301 889 
Q 1547 409 2034 409 
Q 2525 409 2770 889 
Q 3016 1369 3016 2328 
Q 3016 3291 2770 3770 
Q 2525 4250 2034 4250 
z
M 2034 4750 
Q 2819 4750 3233 4129 
Q 3647 3509 3647 2328 
Q 3647 1150 3233 529 
Q 2819 -91 2034 -91 
Q 1250 -91 836 529 
Q 422 1150 422 2328 
Q 422 3509 836 4129 
Q 1250 4750 2034 4750 
z
" transform="scale(0.015625)"/>
       </defs>
       <use xlink:href="#DejaVuSans-30"/>
      </g>
     </g>
    </g>
    <g id="xtick_2">
     <g id="line2d_3">
      <path d="M 237.716129 313.2 
L 237.716129 19.8 
" clip-path="url(#p4e4d451586)" style="fill: none; stroke-dasharray: 2.96,1.28; stroke-dashoffset: 0; stroke: #bdc3c7; stroke-width: 0.8"/>
     </g>
     <g id="line2d_4">
      <g>
       <use xlink:href="#m00d8e2d011" x="237.716129" y="313.2" style="stroke: #000000; stroke-width: 0.8"/>
      </g>
     </g>
     <g id="text_2">
      <!-- 100 -->
      <g transform="translate(220.537379 330.377187) scale(0.18 -0.18)">
       <defs>
        <path id="DejaVuSans-31" d="M 794 531 
L 1825 531 
L 1825 4091 
L 703 3866 
L 703 4441 
L 1819 4666 
L 2450 4666 
L 2450 531 
L 3481 531 
L 3481 0 
L 794 0 
L 794 531 
z
" transform="scale(0.015625)"/>
       </defs>
       <use xlink:href="#DejaVuSans-31"/>
       <use xlink:href="#DejaVuSans-30" x="63.623047"/>
       <use xlink:href="#DejaVuSans-30" x="127.246094"/>
      </g>
     </g>
    </g>
    <g id="xtick_3">
     <g id="line2d_5">
      <path d="M 372.425806 313.2 
L 372.425806 19.8 
" clip-path="url(#p4e4d451586)" style="fill: none; stroke-dasharray: 2.96,1.28; stroke-dashoffset: 0; stroke: #bdc3c7; stroke-width: 0.8"/>
     </g>
     <g id="line2d_6">
      <g>
       <use xlink:href="#m00d8e2d011" x="372.425806" y="313.2" style="stroke: #000000; stroke-width: 0.8"/>
      </g>
     </g>
     <g id="text_3">
      <!-- 200 -->
      <g transform="translate(355.247056 330.377187) scale(0.18 -0.18)">
       <defs>
        <path id="DejaVuSans-32" d="M 1228 531 
L 3431 531 
L 3431 0 
L 469 0 
L 469 531 
Q 828 903 1448 1529 
Q 2069 2156 2228 2338 
Q 2531 2678 2651 2914 
Q 2772 3150 2772 3378 
Q 2772 3750 2511 3984 
Q 2250 4219 1831 4219 
Q 1534 4219 1204 4116 
Q 875 4013 500 3803 
L 500 4441 
Q 881 4594 1212 4672 
Q 1544 4750 1819 4750 
Q 2544 4750 2975 4387 
Q 3406 4025 3406 3419 
Q 3406 3131 3298 2873 
Q 3191 2616 2906 2266 
Q 2828 2175 2409 1742 
Q 1991 1309 1228 531 
z
" transform="scale(0.015625)"/>
       </defs>
       <use xlink:href="#DejaVuSans-32"/>
       <use xlink:href="#DejaVuSans-30" x="63.623047"/>
       <use xlink:href="#DejaVuSans-30" x="127.246094"/>
      </g>
     </g>
    </g>
    <g id="xtick_4">
     <g id="line2d_7">
      <path d="M 507.135484 313.2 
L 507.135484 19.8 
" clip-path="url(#p4e4d451586)" style="fill: none; stroke-dasharray: 2.96,1.28; stroke-dashoffset: 0; stroke: #bdc3c7; stroke-width: 0.8"/>
     </g>
     <g id="line2d_8">
      <g>
       <use xlink:href="#m00d8e2d011" x="507.135484" y="313.2" style="stroke: #000000; stroke-width: 0.8"/>
      </g>
     </g>
     <g id="text_4">
      <!-- 300 -->
      <g transform="translate(489.956734 330.377187) scale(0.18 -0.18)">
       <defs>
        <path id="DejaVuSans-33" d="M 2597 2516 
Q 3050 2419 3304 2112 
Q 3559 1806 3559 1356 
Q 3559 666 3084 287 
Q 2609 -91 1734 -91 
Q 1441 -91 1130 -33 
Q 819 25 488 141 
L 488 750 
Q 750 597 1062 519 
Q 1375 441 1716 441 
Q 2309 441 2620 675 
Q 2931 909 2931 1356 
Q 2931 1769 2642 2001 
Q 2353 2234 1838 2234 
L 1294 2234 
L 1294 2753 
L 1863 2753 
Q 2328 2753 2575 2939 
Q 2822 3125 2822 3475 
Q 2822 3834 2567 4026 
Q 2313 4219 1838 4219 
Q 1578 4219 1281 4162 
Q 984 4106 628 3988 
L 628 4550 
Q 988 4650 1302 4700 
Q 1616 4750 1894 4750 
Q 2613 4750 3031 4423 
Q 3450 4097 3450 3541 
Q 3450 3153 3228 2886 
Q 3006 2619 2597 2516 
z
" transform="scale(0.015625)"/>
       </defs>
       <use xlink:href="#DejaVuSans-33"/>
       <use xlink:href="#DejaVuSans-30" x="63.623047"/>
       <use xlink:href="#DejaVuSans-30" x="127.246094"/>
      </g>
     </g>
    </g>
    <g id="xtick_5">
     <g id="line2d_9">
      <path d="M 641.845161 313.2 
L 641.845161 19.8 
" clip-path="url(#p4e4d451586)" style="fill: none; stroke-dasharray: 2.96,1.28; stroke-dashoffset: 0; stroke: #bdc3c7; stroke-width: 0.8"/>
     </g>
     <g id="line2d_10">
      <g>
       <use xlink:href="#m00d8e2d011" x="641.845161" y="313.2" style="stroke: #000000; stroke-width: 0.8"/>
      </g>
     </g>
     <g id="text_5">
      <!-- 400 -->
      <g transform="translate(624.666411 330.377187) scale(0.18 -0.18)">
       <defs>
        <path id="DejaVuSans-34" d="M 2419 4116 
L 825 1625 
L 2419 1625 
L 2419 4116 
z
M 2253 4666 
L 3047 4666 
L 3047 1625 
L 3713 1625 
L 3713 1100 
L 3047 1100 
L 3047 0 
L 2419 0 
L 2419 1100 
L 313 1100 
L 313 1709 
L 2253 4666 
z
" transform="scale(0.015625)"/>
       </defs>
       <use xlink:href="#DejaVuSans-34"/>
       <use xlink:href="#DejaVuSans-30" x="63.623047"/>
       <use xlink:href="#DejaVuSans-30" x="127.246094"/>
      </g>
     </g>
    </g>
    <g id="text_6">
     <!-- Time(s) -->
     <g transform="translate(358.434375 354.785625) scale(0.24 -0.24)">
      <defs>
       <path id="TimesNewRomanPSMT-54" d="M 3703 4238 
L 3750 3244 
L 3631 3244 
Q 3597 3506 3538 3619 
Q 3441 3800 3280 3886 
Q 3119 3972 2856 3972 
L 2259 3972 
L 2259 734 
Q 2259 344 2344 247 
Q 2463 116 2709 116 
L 2856 116 
L 2856 0 
L 1059 0 
L 1059 116 
L 1209 116 
Q 1478 116 1591 278 
Q 1659 378 1659 734 
L 1659 3972 
L 1150 3972 
Q 853 3972 728 3928 
Q 566 3869 450 3700 
Q 334 3531 313 3244 
L 194 3244 
L 244 4238 
L 3703 4238 
z
" transform="scale(0.015625)"/>
       <path id="TimesNewRomanPSMT-69" d="M 928 4444 
Q 1059 4444 1151 4351 
Q 1244 4259 1244 4128 
Q 1244 3997 1151 3903 
Q 1059 3809 928 3809 
Q 797 3809 703 3903 
Q 609 3997 609 4128 
Q 609 4259 701 4351 
Q 794 4444 928 4444 
z
M 1188 2947 
L 1188 647 
Q 1188 378 1227 289 
Q 1266 200 1342 156 
Q 1419 113 1622 113 
L 1622 0 
L 231 0 
L 231 113 
Q 441 113 512 153 
Q 584 194 626 287 
Q 669 381 669 647 
L 669 1750 
Q 669 2216 641 2353 
Q 619 2453 572 2492 
Q 525 2531 444 2531 
Q 356 2531 231 2484 
L 188 2597 
L 1050 2947 
L 1188 2947 
z
" transform="scale(0.015625)"/>
       <path id="TimesNewRomanPSMT-6d" d="M 1050 2338 
Q 1363 2650 1419 2697 
Q 1559 2816 1721 2881 
Q 1884 2947 2044 2947 
Q 2313 2947 2506 2790 
Q 2700 2634 2766 2338 
Q 3088 2713 3309 2830 
Q 3531 2947 3766 2947 
Q 3994 2947 4170 2830 
Q 4347 2713 4450 2447 
Q 4519 2266 4519 1878 
L 4519 647 
Q 4519 378 4559 278 
Q 4591 209 4675 161 
Q 4759 113 4950 113 
L 4950 0 
L 3538 0 
L 3538 113 
L 3597 113 
Q 3781 113 3884 184 
Q 3956 234 3988 344 
Q 4000 397 4000 647 
L 4000 1878 
Q 4000 2228 3916 2372 
Q 3794 2572 3525 2572 
Q 3359 2572 3192 2489 
Q 3025 2406 2788 2181 
L 2781 2147 
L 2788 2013 
L 2788 647 
Q 2788 353 2820 281 
Q 2853 209 2943 161 
Q 3034 113 3253 113 
L 3253 0 
L 1806 0 
L 1806 113 
Q 2044 113 2133 169 
Q 2222 225 2256 338 
Q 2272 391 2272 647 
L 2272 1878 
Q 2272 2228 2169 2381 
Q 2031 2581 1784 2581 
Q 1616 2581 1450 2491 
Q 1191 2353 1050 2181 
L 1050 647 
Q 1050 366 1089 281 
Q 1128 197 1204 155 
Q 1281 113 1516 113 
L 1516 0 
L 100 0 
L 100 113 
Q 297 113 375 155 
Q 453 197 493 289 
Q 534 381 534 647 
L 534 1741 
Q 534 2213 506 2350 
Q 484 2453 437 2492 
Q 391 2531 309 2531 
Q 222 2531 100 2484 
L 53 2597 
L 916 2947 
L 1050 2947 
L 1050 2338 
z
" transform="scale(0.015625)"/>
       <path id="TimesNewRomanPSMT-65" d="M 681 1784 
Q 678 1147 991 784 
Q 1303 422 1725 422 
Q 2006 422 2214 576 
Q 2422 731 2563 1106 
L 2659 1044 
Q 2594 616 2278 264 
Q 1963 -88 1488 -88 
Q 972 -88 605 314 
Q 238 716 238 1394 
Q 238 2128 614 2539 
Q 991 2950 1559 2950 
Q 2041 2950 2350 2633 
Q 2659 2316 2659 1784 
L 681 1784 
z
M 681 1966 
L 2006 1966 
Q 1991 2241 1941 2353 
Q 1863 2528 1708 2628 
Q 1553 2728 1384 2728 
Q 1125 2728 920 2526 
Q 716 2325 681 1966 
z
" transform="scale(0.015625)"/>
       <path id="TimesNewRomanPSMT-28" d="M 1988 -1253 
L 1988 -1369 
Q 1516 -1131 1200 -813 
Q 750 -359 506 256 
Q 263 872 263 1534 
Q 263 2503 741 3301 
Q 1219 4100 1988 4444 
L 1988 4313 
Q 1603 4100 1356 3731 
Q 1109 3363 987 2797 
Q 866 2231 866 1616 
Q 866 947 969 400 
Q 1050 -31 1165 -292 
Q 1281 -553 1476 -793 
Q 1672 -1034 1988 -1253 
z
" transform="scale(0.015625)"/>
       <path id="TimesNewRomanPSMT-73" d="M 2050 2947 
L 2050 1972 
L 1947 1972 
Q 1828 2431 1642 2597 
Q 1456 2763 1169 2763 
Q 950 2763 815 2647 
Q 681 2531 681 2391 
Q 681 2216 781 2091 
Q 878 1963 1175 1819 
L 1631 1597 
Q 2266 1288 2266 781 
Q 2266 391 1970 151 
Q 1675 -88 1309 -88 
Q 1047 -88 709 6 
Q 606 38 541 38 
Q 469 38 428 -44 
L 325 -44 
L 325 978 
L 428 978 
Q 516 541 762 319 
Q 1009 97 1316 97 
Q 1531 97 1667 223 
Q 1803 350 1803 528 
Q 1803 744 1651 891 
Q 1500 1038 1047 1263 
Q 594 1488 453 1669 
Q 313 1847 313 2119 
Q 313 2472 555 2709 
Q 797 2947 1181 2947 
Q 1350 2947 1591 2875 
Q 1750 2828 1803 2828 
Q 1853 2828 1881 2850 
Q 1909 2872 1947 2947 
L 2050 2947 
z
" transform="scale(0.015625)"/>
       <path id="TimesNewRomanPSMT-29" d="M 144 4313 
L 144 4444 
Q 619 4209 934 3891 
Q 1381 3434 1625 2820 
Q 1869 2206 1869 1541 
Q 1869 572 1392 -226 
Q 916 -1025 144 -1369 
L 144 -1253 
Q 528 -1038 776 -670 
Q 1025 -303 1145 264 
Q 1266 831 1266 1447 
Q 1266 2113 1163 2663 
Q 1084 3094 967 3353 
Q 850 3613 656 3853 
Q 463 4094 144 4313 
z
" transform="scale(0.015625)"/>
      </defs>
      <use xlink:href="#TimesNewRomanPSMT-54"/>
      <use xlink:href="#TimesNewRomanPSMT-69" x="57.583984"/>
      <use xlink:href="#TimesNewRomanPSMT-6d" x="85.367188"/>
      <use xlink:href="#TimesNewRomanPSMT-65" x="163.150391"/>
      <use xlink:href="#TimesNewRomanPSMT-28" x="207.535156"/>
      <use xlink:href="#TimesNewRomanPSMT-73" x="240.835938"/>
      <use xlink:href="#TimesNewRomanPSMT-29" x="279.751953"/>
     </g>
    </g>
   </g>
   <g id="matplotlib.axis_2">
    <g id="ytick_1">
     <g id="line2d_11">
      <path d="M 82.8 305.478947 
L 709.2 305.478947 
" clip-path="url(#p4e4d451586)" style="fill: none; stroke-dasharray: 2.96,1.28; stroke-dashoffset: 0; stroke: #bdc3c7; stroke-width: 0.8"/>
     </g>
     <g id="line2d_12">
      <defs>
       <path id="m37d45cdc72" d="M 0 0 
L 3.5 0 
" style="stroke: #000000; stroke-width: 0.8"/>
      </defs>
      <g>
       <use xlink:href="#m37d45cdc72" x="82.8" y="305.478947" style="stroke: #000000; stroke-width: 0.8"/>
      </g>
     </g>
     <g id="text_7">
      <!-- −150 -->
      <g transform="translate(29.859063 312.317541) scale(0.18 -0.18)">
       <defs>
        <path id="DejaVuSans-2212" d="M 678 2272 
L 4684 2272 
L 4684 1741 
L 678 1741 
L 678 2272 
z
" transform="scale(0.015625)"/>
        <path id="DejaVuSans-35" d="M 691 4666 
L 3169 4666 
L 3169 4134 
L 1269 4134 
L 1269 2991 
Q 1406 3038 1543 3061 
Q 1681 3084 1819 3084 
Q 2600 3084 3056 2656 
Q 3513 2228 3513 1497 
Q 3513 744 3044 326 
Q 2575 -91 1722 -91 
Q 1428 -91 1123 -41 
Q 819 9 494 109 
L 494 744 
Q 775 591 1075 516 
Q 1375 441 1709 441 
Q 2250 441 2565 725 
Q 2881 1009 2881 1497 
Q 2881 1984 2565 2268 
Q 2250 2553 1709 2553 
Q 1456 2553 1204 2497 
Q 953 2441 691 2322 
L 691 4666 
z
" transform="scale(0.015625)"/>
       </defs>
       <use xlink:href="#DejaVuSans-2212"/>
       <use xlink:href="#DejaVuSans-31" x="83.789062"/>
       <use xlink:href="#DejaVuSans-35" x="147.412109"/>
       <use xlink:href="#DejaVuSans-30" x="211.035156"/>
      </g>
     </g>
    </g>
    <g id="ytick_2">
     <g id="line2d_13">
      <path d="M 82.8 266.873684 
L 709.2 266.873684 
" clip-path="url(#p4e4d451586)" style="fill: none; stroke-dasharray: 2.96,1.28; stroke-dashoffset: 0; stroke: #bdc3c7; stroke-width: 0.8"/>
     </g>
     <g id="line2d_14">
      <g>
       <use xlink:href="#m37d45cdc72" x="82.8" y="266.873684" style="stroke: #000000; stroke-width: 0.8"/>
      </g>
     </g>
     <g id="text_8">
      <!-- −100 -->
      <g transform="translate(29.859063 273.712278) scale(0.18 -0.18)">
       <use xlink:href="#DejaVuSans-2212"/>
       <use xlink:href="#DejaVuSans-31" x="83.789062"/>
       <use xlink:href="#DejaVuSans-30" x="147.412109"/>
       <use xlink:href="#DejaVuSans-30" x="211.035156"/>
      </g>
     </g>
    </g>
    <g id="ytick_3">
     <g id="line2d_15">
      <path d="M 82.8 228.268421 
L 709.2 228.268421 
" clip-path="url(#p4e4d451586)" style="fill: none; stroke-dasharray: 2.96,1.28; stroke-dashoffset: 0; stroke: #bdc3c7; stroke-width: 0.8"/>
     </g>
     <g id="line2d_16">
      <g>
       <use xlink:href="#m37d45cdc72" x="82.8" y="228.268421" style="stroke: #000000; stroke-width: 0.8"/>
      </g>
     </g>
     <g id="text_9">
      <!-- −50 -->
      <g transform="translate(41.311563 235.107015) scale(0.18 -0.18)">
       <use xlink:href="#DejaVuSans-2212"/>
       <use xlink:href="#DejaVuSans-35" x="83.789062"/>
       <use xlink:href="#DejaVuSans-30" x="147.412109"/>
      </g>
     </g>
    </g>
    <g id="ytick_4">
     <g id="line2d_17">
      <path d="M 82.8 189.663158 
L 709.2 189.663158 
" clip-path="url(#p4e4d451586)" style="fill: none; stroke-dasharray: 2.96,1.28; stroke-dashoffset: 0; stroke: #bdc3c7; stroke-width: 0.8"/>
     </g>
     <g id="line2d_18">
      <g>
       <use xlink:href="#m37d45cdc72" x="82.8" y="189.663158" style="stroke: #000000; stroke-width: 0.8"/>
      </g>
     </g>
     <g id="text_10">
      <!-- 0 -->
      <g transform="translate(67.8475 196.501752) scale(0.18 -0.18)">
       <use xlink:href="#DejaVuSans-30"/>
      </g>
     </g>
    </g>
    <g id="ytick_5">
     <g id="line2d_19">
      <path d="M 82.8 151.057895 
L 709.2 151.057895 
" clip-path="url(#p4e4d451586)" style="fill: none; stroke-dasharray: 2.96,1.28; stroke-dashoffset: 0; stroke: #bdc3c7; stroke-width: 0.8"/>
     </g>
     <g id="line2d_20">
      <g>
       <use xlink:href="#m37d45cdc72" x="82.8" y="151.057895" style="stroke: #000000; stroke-width: 0.8"/>
      </g>
     </g>
     <g id="text_11">
      <!-- 50 -->
      <g transform="translate(56.395 157.896488) scale(0.18 -0.18)">
       <use xlink:href="#DejaVuSans-35"/>
       <use xlink:href="#DejaVuSans-30" x="63.623047"/>
      </g>
     </g>
    </g>
    <g id="ytick_6">
     <g id="line2d_21">
      <path d="M 82.8 112.452632 
L 709.2 112.452632 
" clip-path="url(#p4e4d451586)" style="fill: none; stroke-dasharray: 2.96,1.28; stroke-dashoffset: 0; stroke: #bdc3c7; stroke-width: 0.8"/>
     </g>
     <g id="line2d_22">
      <g>
       <use xlink:href="#m37d45cdc72" x="82.8" y="112.452632" style="stroke: #000000; stroke-width: 0.8"/>
      </g>
     </g>
     <g id="text_12">
      <!-- 100 -->
      <g transform="translate(44.9425 119.291225) scale(0.18 -0.18)">
       <use xlink:href="#DejaVuSans-31"/>
       <use xlink:href="#DejaVuSans-30" x="63.623047"/>
       <use xlink:href="#DejaVuSans-30" x="127.246094"/>
      </g>
     </g>
    </g>
    <g id="ytick_7">
     <g id="line2d_23">
      <path d="M 82.8 73.847368 
L 709.2 73.847368 
" clip-path="url(#p4e4d451586)" style="fill: none; stroke-dasharray: 2.96,1.28; stroke-dashoffset: 0; stroke: #bdc3c7; stroke-width: 0.8"/>
     </g>
     <g id="line2d_24">
      <g>
       <use xlink:href="#m37d45cdc72" x="82.8" y="73.847368" style="stroke: #000000; stroke-width: 0.8"/>
      </g>
     </g>
     <g id="text_13">
      <!-- 150 -->
      <g transform="translate(44.9425 80.685962) scale(0.18 -0.18)">
       <use xlink:href="#DejaVuSans-31"/>
       <use xlink:href="#DejaVuSans-35" x="63.623047"/>
       <use xlink:href="#DejaVuSans-30" x="127.246094"/>
      </g>
     </g>
    </g>
    <g id="ytick_8">
     <g id="line2d_25">
      <path d="M 82.8 35.242105 
L 709.2 35.242105 
" clip-path="url(#p4e4d451586)" style="fill: none; stroke-dasharray: 2.96,1.28; stroke-dashoffset: 0; stroke: #bdc3c7; stroke-width: 0.8"/>
     </g>
     <g id="line2d_26">
      <g>
       <use xlink:href="#m37d45cdc72" x="82.8" y="35.242105" style="stroke: #000000; stroke-width: 0.8"/>
      </g>
     </g>
     <g id="text_14">
      <!-- 200 -->
      <g transform="translate(44.9425 42.080699) scale(0.18 -0.18)">
       <use xlink:href="#DejaVuSans-32"/>
       <use xlink:href="#DejaVuSans-30" x="63.623047"/>
       <use xlink:href="#DejaVuSans-30" x="127.246094"/>
      </g>
     </g>
    </g>
    <g id="text_15">
     <!-- Z(m) -->
     <g transform="translate(20.725313 191.154375) rotate(-90) scale(0.24 -0.24)">
      <defs>
       <path id="TimesNewRomanPSMT-5a" d="M 3681 4238 
L 897 256 
L 2634 256 
Q 3034 256 3248 431 
Q 3463 606 3628 1141 
L 3731 1122 
L 3531 0 
L 81 0 
L 81 116 
L 2800 3984 
L 1444 3984 
Q 1106 3984 954 3911 
Q 803 3838 723 3698 
Q 644 3559 578 3178 
L 459 3178 
L 547 4238 
L 3681 4238 
z
" transform="scale(0.015625)"/>
      </defs>
      <use xlink:href="#TimesNewRomanPSMT-5a"/>
      <use xlink:href="#TimesNewRomanPSMT-28" x="61.083984"/>
      <use xlink:href="#TimesNewRomanPSMT-6d" x="94.384766"/>
      <use xlink:href="#TimesNewRomanPSMT-29" x="172.167969"/>
     </g>
    </g>
   </g>
   <g id="line2d_27">
    <path d="M 103.006452 189.663161 
L 138.63929 189.565039 
L 141.608714 189.494018 
L 142.418532 189.540352 
L 143.228368 189.634795 
L 144.308155 189.644749 
L 145.117992 189.552532 
L 147.27756 189.567163 
L 150.516909 189.526215 
L 152.946432 189.530739 
L 156.185777 189.657858 
L 156.995613 189.713133 
L 157.535509 189.681063 
L 166.173773 189.62362 
L 166.713665 189.607711 
L 169.143183 189.60141 
L 171.572692 189.572431 
L 174.812043 189.614506 
L 175.621883 189.638626 
L 176.971611 189.652019 
L 179.67107 189.599172 
L 180.750853 189.610305 
L 192.088593 189.272434 
L 194.518101 189.318204 
L 197.487499 189.214786 
L 198.837231 189.23464 
L 200.186967 189.263039 
L 200.726852 189.268931 
L 201.266742 189.286774 
L 204.776042 189.369795 
L 205.585904 189.434201 
L 206.665667 189.505137 
L 207.745444 189.625159 
L 208.555284 189.703419 
L 216.653662 190.290694 
L 225.291976 191.686226 
L 226.911609 191.805047 
L 228.261334 191.85164 
L 230.420903 191.80776 
L 233.120408 191.918046 
L 234.200149 191.93118 
L 234.740039 191.940119 
L 236.629661 191.852789 
L 242.298522 191.843776 
L 243.378309 191.868472 
L 257.550468 190.973249 
L 269.428085 189.919228 
L 270.50787 189.805313 
L 272.532463 189.571642 
L 278.471273 188.689211 
L 280.630841 188.317962 
L 283.3303 187.889765 
L 289.809049 187.45664 
L 291.023762 187.452255 
L 292.643432 187.354149 
L 293.723218 187.340041 
L 294.533052 187.330906 
L 298.582267 187.454929 
L 299.257107 187.347174 
L 299.796997 187.398846 
L 300.471863 187.367812 
L 303.57624 187.290918 
L 304.790998 187.283417 
L 306.410672 187.228604 
L 307.490457 187.197292 
L 311.539644 187.148999 
L 313.15932 187.019041 
L 320.447858 186.640301 
L 322.067535 186.573402 
L 330.165911 186.301309 
L 330.435858 186.340559 
L 330.975748 186.244576 
L 331.245742 186.288129 
L 332.325479 186.193515 
L 333.405262 186.156613 
L 349.736988 185.194484 
L 362.154501 183.297166 
L 364.314065 182.836233 
L 369.712983 181.799077 
L 373.492228 181.482912 
L 375.651792 181.432093 
L 376.461633 181.346269 
L 378.621199 181.171212 
L 379.16109 181.04106 
L 379.835953 181.067215 
L 387.124495 179.918845 
L 394.143088 179.026754 
L 399.811952 178.635111 
L 401.971519 178.500556 
L 404.670976 178.136163 
L 408.450217 177.777183 
L 415.468812 176.667036 
L 416.548595 176.494307 
L 421.407622 175.738512 
L 425.726755 174.895266 
L 429.505998 174.444637 
L 430.315899 174.323626 
L 433.55519 174.132918 
L 434.63497 173.944118 
L 435.174861 173.953441 
L 436.794546 173.685404 
L 448.807127 173.582423 
L 455.285828 173.677498 
L 456.635633 173.693 
L 459.065071 173.609036 
L 465.813734 173.654458 
L 466.623561 173.586072 
L 468.783122 173.574817 
L 470.267825 173.624983 
L 471.617556 173.570845 
L 480.390797 173.525139 
L 482.010469 173.449292 
L 489.433989 173.329067 
L 489.838949 173.172077 
L 490.513765 173.203061 
L 491.188629 173.144727 
L 491.728521 173.169005 
L 491.998467 173.038538 
L 492.673332 173.002768 
L 493.48317 172.871239 
L 494.832898 172.706408 
L 495.912685 172.586152 
L 498.072249 172.401549 
L 499.152037 172.282367 
L 501.581598 172.247459 
L 513.999055 171.489768 
L 515.348786 171.46926 
L 516.158624 171.453233 
L 523.717161 171.444087 
L 525.066859 171.530159 
L 528.576138 171.643645 
L 529.92586 171.759484 
L 536.40456 172.715734 
L 536.944453 172.619696 
L 537.214401 172.808624 
L 538.699102 172.738474 
L 540.318777 172.729953 
L 541.128612 172.623178 
L 542.883262 172.562358 
L 555.70569 172.875622 
L 556.650502 172.76606 
L 559.754877 172.439597 
L 560.83466 172.402467 
L 561.914496 172.334893 
L 563.264174 172.527373 
L 567.043414 173.238988 
L 567.31336 173.344706 
L 568.258171 173.444093 
L 569.20299 173.546885 
L 570.147794 173.585576 
L 571.092606 173.64129 
L 576.896439 174.054638 
L 578.921031 174.327548 
L 579.595896 174.410955 
L 580.13579 174.416148 
L 580.945629 174.538735 
L 582.025408 174.616485 
L 582.295355 174.574243 
L 583.105195 174.729879 
L 587.829293 175.412415 
L 590.393731 175.807835 
L 592.013406 175.977032 
L 593.093187 176.227341 
L 593.633079 176.238168 
L 595.792648 176.766347 
L 596.872432 176.929169 
L 597.412327 177.183301 
L 599.031997 177.485744 
L 601.191564 177.978026 
L 606.320584 179.013201 
L 608.480103 179.467411 
L 609.289938 179.564308 
L 610.099779 179.736305 
L 615.63367 180.662509 
L 617.793234 181.0057 
L 619.9528 181.35046 
L 625.351718 182.129653 
L 626.971393 182.275965 
L 627.511282 182.422654 
L 628.051174 182.338094 
L 628.591076 182.419837 
L 629.130957 182.686457 
L 630.210741 182.772405 
L 630.750636 182.928127 
L 631.290548 182.924179 
L 631.830416 183.180952 
L 633.450091 183.421948 
L 639.118954 184.475041 
L 640.873601 184.904917 
L 641.683438 185.062496 
L 642.22333 185.297772 
L 642.763222 185.311048 
L 643.438087 185.536638 
L 643.977977 185.53971 
L 646.272518 186.025922 
L 649.916788 186.833254 
L 651.941381 187.487748 
L 657.205325 188.15808 
L 664.088944 188.261312 
L 666.518459 188.301592 
L 672.457312 188.921284 
L 675.696617 189.251259 
L 678.396073 189.367097 
L 678.396073 189.367097 
" clip-path="url(#p4e4d451586)" style="fill: none; stroke-dasharray: 10.175,4.4; stroke-dashoffset: 0; stroke: #808a87; stroke-width: 2.75"/>
   </g>
   <g id="line2d_28">
    <path d="M 100.846889 189.663158 
L 103.1414 189.672838 
L 112.319564 189.693273 
L 115.153992 189.711938 
L 120.82286 189.568518 
L 127.031614 188.977783 
L 129.191181 188.681005 
L 130.00102 188.626143 
L 130.810856 188.506533 
L 136.614701 187.625499 
L 137.424535 187.557154 
L 139.449126 187.374366 
L 140.933828 187.242904 
L 141.608713 187.155074 
L 142.553504 187.123251 
L 144.038207 187.042957 
L 144.578101 186.961956 
L 144.983022 186.891951 
L 148.087398 186.678619 
L 149.032206 186.621846 
L 149.572148 186.546357 
L 151.461719 186.332042 
L 153.891234 186.172197 
L 154.566102 186.185682 
L 156.725667 186.171463 
L 159.425125 185.983912 
L 160.09999 185.955915 
L 161.584692 185.993538 
L 164.689071 185.905167 
L 165.90383 185.983688 
L 168.603289 186.031059 
L 172.112585 186.060777 
L 174.137177 186.100525 
L 179.266151 186.099082 
L 179.806044 186.122831 
L 181.425719 186.105441 
L 187.904419 186.181895 
L 199.107179 184.86163 
L 199.647067 184.806786 
L 200.186967 184.716458 
L 203.021391 184.49212 
L 203.696256 184.343512 
L 204.37112 184.32935 
L 204.911013 184.317958 
L 205.315933 184.290827 
L 205.720851 184.331434 
L 207.340538 184.504576 
L 207.745444 184.627185 
L 208.150363 184.616061 
L 209.500094 184.805633 
L 210.309933 184.963118 
L 212.064583 185.115052 
L 213.819229 185.190019 
L 216.518688 185.489261 
L 218.813276 185.895654 
L 219.218193 186.001242 
L 222.052579 186.729281 
L 227.181553 187.262152 
L 235.549875 187.457325 
L 239.734037 187.455297 
L 240.948792 187.486472 
L 242.298522 187.489673 
L 242.838415 187.478415 
L 248.102359 186.972918 
L 249.857009 186.764466 
L 252.691442 186.559932 
L 253.231334 186.512332 
L 255.255927 186.397108 
L 255.930793 186.316725 
L 257.415495 186.090469 
L 261.599654 185.719455 
L 264.839012 185.539467 
L 265.243924 185.507901 
L 265.783815 185.408242 
L 266.458681 185.423044 
L 267.403492 185.322383 
L 271.317709 185.105664 
L 272.262518 184.965278 
L 273.477276 184.839719 
L 274.827003 184.641555 
L 275.771824 184.458502 
L 278.876192 183.885325 
L 281.440681 183.295015 
L 288.729222 182.721797 
L 290.078947 182.733369 
L 292.913426 182.64643 
L 297.097589 183.0843 
L 298.582267 183.354536 
L 302.226512 184.004004 
L 303.846187 184.319503 
L 312.484523 185.993309 
L 318.828184 186.093541 
L 321.392721 185.591628 
L 322.877372 185.172186 
L 325.306884 184.444879 
L 331.515643 182.187402 
L 332.190505 181.946475 
L 334.350072 181.149517 
L 338.534235 179.788667 
L 339.344071 179.526421 
L 340.288885 179.315569 
L 341.098723 179.026313 
L 341.773585 178.870006 
L 343.798178 178.392705 
L 346.63261 178.084185 
L 347.442452 178.096033 
L 358.780181 177.716301 
L 359.590015 177.727959 
L 360.264877 177.683358 
L 369.173092 177.729612 
L 370.387848 177.837502 
L 371.197687 177.967359 
L 371.737995 178.058507 
L 372.277471 178.099623 
L 372.952335 178.26084 
L 375.786765 178.667592 
L 381.05071 178.69713 
L 381.590604 178.730032 
L 382.400449 178.617066 
L 382.670393 178.56992 
L 383.075304 178.510634 
L 383.615252 178.524523 
L 385.369847 178.426343 
L 386.044713 178.356346 
L 388.069307 178.334897 
L 388.474222 178.255252 
L 388.744168 178.299769 
L 389.284061 178.229366 
L 389.688983 178.197684 
L 390.498817 178.082559 
L 391.173681 178.109837 
L 393.063333 178.078869 
L 393.468223 178.057786 
L 394.143088 178.092547 
L 402.376437 179.099761 
L 402.781379 179.112342 
L 403.051302 179.144532 
L 403.456232 179.17813 
L 404.805951 179.317309 
L 405.480813 179.449529 
L 406.560632 179.604248 
L 407.235464 179.680664 
L 411.014705 180.070592 
L 411.554598 180.130778 
L 412.769357 180.219444 
L 413.579191 180.276961 
L 415.873728 180.564285 
L 419.248116 180.886276 
L 420.192865 180.886997 
L 425.996701 181.430901 
L 426.40162 181.580447 
L 427.751351 181.644646 
L 429.505998 181.796735 
L 430.045891 181.797516 
L 430.720754 181.827605 
L 431.260648 181.824204 
L 434.23005 181.426558 
L 434.769943 181.305142 
L 435.714756 180.94745 
L 436.659563 180.481775 
L 437.19946 180.350535 
L 438.954105 179.72052 
L 439.898914 179.418075 
L 441.653562 178.808449 
L 442.733348 178.324715 
L 444.353023 177.751606 
L 445.297833 177.340223 
L 446.647566 176.729542 
L 448.807127 175.904906 
L 450.021932 175.479897 
L 453.801178 174.35697 
L 455.015883 174.10498 
L 455.555775 174.069341 
L 456.230655 173.809879 
L 456.905504 173.696008 
L 457.715342 173.520393 
L 458.390206 173.398055 
L 459.46999 173.214316 
L 465.138856 172.203164 
L 466.623561 171.760824 
L 467.433397 171.541687 
L 467.838316 171.493697 
L 468.918095 171.216125 
L 470.267825 170.956182 
L 471.077662 170.677141 
L 471.752529 170.491824 
L 472.697336 170.188315 
L 473.372204 169.974188 
L 474.317014 169.673686 
L 475.936688 169.246847 
L 477.556367 168.776311 
L 478.771119 168.398384 
L 480.930687 167.935908 
L 481.470579 167.80393 
L 485.114847 166.630025 
L 486.464576 166.218097 
L 487.139444 165.950165 
L 491.458574 164.082072 
L 491.863493 163.903951 
L 497.262412 161.157117 
L 502.931299 157.211754 
L 505.225813 155.217703 
L 505.900683 154.601024 
L 506.845489 153.762235 
L 507.790301 152.908609 
L 509.140031 151.724707 
L 510.624731 150.363417 
L 513.72911 147.67951 
L 514.269004 147.288999 
L 515.213844 146.465442 
L 515.888723 145.875411 
L 516.833486 144.991016 
L 517.508351 144.37931 
L 521.287595 140.837766 
L 522.772296 139.339972 
L 524.122023 137.857327 
L 525.606729 136.19208 
L 529.92586 131.025062 
L 532.895314 127.209096 
L 534.110022 125.431776 
L 538.969051 118.472389 
L 540.588722 116.496302 
L 541.938454 114.949963 
L 544.098018 112.51639 
L 544.907855 111.471029 
L 545.58272 110.663954 
L 547.202397 108.495158 
L 548.012233 107.515449 
L 551.251583 103.507464 
L 552.736285 101.781068 
L 553.951041 100.370312 
L 556.245582 97.688101 
L 562.049419 91.452275 
L 568.393145 85.951468 
L 570.957629 84.745679 
L 576.0866 84.8118 
L 576.761466 84.808682 
L 577.436329 84.851078 
L 577.97622 84.928303 
L 578.38114 84.917107 
L 578.921031 85.01756 
L 579.595896 85.000694 
L 581.485517 85.178666 
L 581.890436 85.215326 
L 582.295355 85.179449 
L 582.835248 85.280234 
L 583.510113 85.358485 
L 584.319949 85.462458 
L 585.264762 85.431435 
L 585.939623 85.463941 
L 586.344543 85.465981 
L 586.749462 85.433479 
L 587.424326 85.310397 
L 588.504107 85.311573 
L 588.909027 85.118848 
L 589.448921 85.2376 
L 589.988811 85.16961 
L 590.798647 85.157554 
L 591.338561 85.193007 
L 591.74346 85.149884 
L 595.117785 84.769271 
L 595.387733 84.651798 
L 595.92762 84.763844 
L 596.197565 84.672132 
L 596.467515 84.523536 
L 597.547347 84.571213 
L 598.222158 84.22934 
L 600.516709 83.619456 
L 602.946219 82.791331 
L 603.756053 82.520201 
L 604.700863 82.168232 
L 605.510697 81.841639 
L 606.590483 81.453186 
L 609.424914 80.888752 
L 611.719451 81.055521 
L 613.609071 81.618661 
L 614.823852 82.197406 
L 615.498694 82.52207 
L 618.198153 84.032566 
L 618.873017 84.299827 
L 619.412908 84.608519 
L 622.382314 86.438388 
L 622.787232 86.601496 
L 623.732044 86.899248 
L 626.026581 87.73328 
L 626.566474 87.953379 
L 627.781228 88.612143 
L 628.186146 88.774582 
L 631.560475 90.745161 
L 632.370309 91.262736 
L 634.394952 92.345698 
L 635.744633 93.181118 
L 636.284522 93.55571 
L 637.499282 94.354684 
L 638.039172 94.710889 
L 638.983982 95.443673 
L 639.658846 95.835148 
L 640.603658 96.562937 
L 642.62825 98.18797 
L 644.112951 99.254629 
L 644.652845 99.696438 
L 645.462679 100.2987 
L 647.892199 101.991738 
L 649.646843 103.490689 
L 651.941381 105.813988 
L 653.021165 106.963891 
L 655.045759 108.88289 
L 657.745217 110.795089 
L 658.555056 111.313545 
L 659.364892 111.851524 
L 662.469268 113.528902 
L 664.088944 114.280112 
L 665.033756 114.714834 
L 666.788406 115.545125 
L 671.917381 118.312059 
L 673.402075 118.818001 
L 674.346883 119.069271 
L 675.156746 119.229684 
L 676.236504 119.314327 
L 677.451261 119.447188 
L 677.856184 119.509606 
L 678.531044 119.471623 
L 679.340882 119.526504 
L 685.954556 119.542529 
L 685.954556 119.542529 
" clip-path="url(#p4e4d451586)" style="fill: none; stroke: #0000ff; stroke-width: 2; stroke-linecap: square"/>
   </g>
   <g id="line2d_29">
    <path d="M 101.926644 189.669998 
L 123.657292 189.589456 
L 124.062233 189.552952 
L 131.755669 189.269609 
L 132.970426 189.147919 
L 136.479724 188.874185 
L 140.933828 188.566541 
L 141.473722 188.490939 
L 142.148588 188.45012 
L 144.713077 188.284009 
L 144.983022 188.168962 
L 147.547507 188.023348 
L 149.032206 187.891444 
L 150.921836 187.623811 
L 158.750259 186.897061 
L 159.290159 186.806747 
L 162.529504 186.49806 
L 163.069394 186.419484 
L 163.609335 186.397584 
L 164.284202 186.335268 
L 165.228962 186.270937 
L 165.498907 186.190977 
L 167.38853 186.094609 
L 167.658475 185.979246 
L 171.032799 185.613747 
L 172.652476 185.546122 
L 173.462312 185.398676 
L 176.971611 185.106292 
L 181.425719 184.616557 
L 181.83064 184.519111 
L 185.879827 184.10519 
L 187.364528 183.980006 
L 187.634475 183.821245 
L 189.929015 183.465281 
L 191.683664 183.269733 
L 191.953614 183.344322 
L 193.843231 183.065902 
L 195.057995 182.85466 
L 198.702258 182.407528 
L 199.242152 182.374787 
L 199.647067 182.300782 
L 206.935607 181.682133 
L 213.279336 181.423562 
L 214.089174 181.380855 
L 215.573881 181.418815 
L 218.67826 181.583919 
L 219.218193 181.548603 
L 219.488092 181.631243 
L 220.297937 181.75818 
L 220.70285 181.866787 
L 221.377719 181.86625 
L 227.856415 181.593842 
L 228.666254 181.469978 
L 242.16355 179.980539 
L 244.323116 179.763876 
L 245.132953 179.65142 
L 245.402906 179.702632 
L 247.157578 179.497455 
L 247.832412 179.343518 
L 249.047171 179.145392 
L 255.795819 178.02531 
L 263.489277 176.580479 
L 264.569063 176.458722 
L 265.108955 176.356685 
L 275.771824 174.339004 
L 278.336299 173.757409 
L 282.250546 172.971112 
L 284.545058 172.71073 
L 285.354896 172.660475 
L 288.999164 172.357717 
L 293.993163 172.306862 
L 294.802998 172.312085 
L 296.152729 172.393202 
L 298.04235 172.525481 
L 299.392082 172.482446 
L 302.766403 172.526503 
L 309.784998 172.454924 
L 309.784998 172.454924 
L 310.324889 172.521621 
L 310.729809 172.431076 
L 318.828184 172.575259 
L 328.006348 173.438433 
L 329.89597 173.61501 
L 330.165911 173.581682 
L 333.675208 173.922811 
L 333.945156 173.868166 
L 339.074124 174.185021 
L 339.479044 174.156495 
L 346.63261 174.437632 
L 347.847372 174.401766 
L 349.332069 174.269456 
L 350.006935 174.207488 
L 356.890555 173.648084 
L 357.160499 173.509213 
L 358.51023 173.41758 
L 358.915147 173.274868 
L 362.154501 172.791504 
L 363.6392 172.575894 
L 366.068716 172.151366 
L 366.33866 172.159161 
L 369.847957 171.692134 
L 370.252876 171.705415 
L 370.252876 171.705415 
L 374.707031 171.467893 
L 375.246876 171.291958 
L 375.516819 171.467038 
L 376.056713 171.384028 
L 379.700981 171.10106 
L 380.105899 171.003439 
L 380.375846 171.046724 
L 382.400449 170.874243 
L 382.400449 170.874243 
L 383.615252 170.664696 
L 384.964926 170.464936 
L 385.234874 170.516452 
L 392.793361 169.852303 
L 393.603196 169.783599 
L 393.873142 169.688644 
L 399.002114 169.43789 
L 399.407031 169.376917 
L 402.241464 169.120244 
L 402.646382 168.901313 
L 403.051302 168.950701 
L 411.419625 167.779122 
L 413.039303 167.475007 
L 413.444218 167.423071 
L 416.278649 166.788504 
L 416.683568 166.738855 
L 417.493407 166.611372 
L 418.978108 166.357705 
L 419.518002 166.213823 
L 420.732757 165.970365 
L 422.217458 165.560783 
L 422.352431 165.684994 
L 425.591785 165.037437 
L 426.536593 164.878048 
L 426.806542 164.988015 
L 427.076489 164.966161 
L 427.346434 164.821691 
L 431.125675 164.652879 
L 441.113671 165.082759 
L 443.003292 165.141171 
L 448.132265 165.476529 
L 448.9421 165.543577 
L 451.911504 165.834186 
L 452.181498 165.776446 
L 453.531183 165.901241 
L 453.936102 165.86045 
L 454.880911 165.904257 
L 457.310425 165.996798 
L 457.580379 165.943237 
L 460.549772 165.962796 
L 460.819741 165.879157 
L 466.35361 165.949681 
L 467.973291 166.056238 
L 469.188043 166.232506 
L 469.457987 166.095629 
L 469.997882 166.066493 
L 470.807716 166.147136 
L 471.077662 166.233818 
L 472.967289 166.240199 
L 473.237229 166.15163 
L 479.985876 166.330934 
L 480.525769 166.304571 
L 481.605552 166.314778 
L 481.740526 166.13295 
L 482.145442 166.158795 
L 482.415387 166.346657 
L 483.225229 166.335568 
L 483.49517 166.219668 
L 486.464576 166.268423 
L 487.004471 166.325866 
L 487.544361 166.312932 
L 489.029075 166.303614 
L 489.703928 166.310804 
L 489.838949 166.007076 
L 490.243819 166.007576 
L 490.37879 166.252885 
L 490.783713 166.22822 
L 490.918733 166.010183 
L 491.998467 165.911557 
L 494.427981 165.841556 
L 494.562957 165.872216 
L 494.832898 165.746523 
L 495.102845 165.733707 
L 495.237818 166.122342 
L 498.477168 166.210029 
L 501.041654 166.415199 
L 501.311602 166.551149 
L 503.606139 166.835861 
L 504.281003 166.827169 
L 505.360788 166.856325 
L 505.900683 166.941025 
L 506.170652 166.884561 
L 510.894676 167.386649 
L 515.483758 167.966532 
L 516.833486 168.111786 
L 521.422571 168.787852 
L 522.637324 169.029911 
L 523.042267 169.074598 
L 530.465755 170.813695 
L 532.08543 171.459588 
L 532.355373 171.573944 
L 532.625349 171.537601 
L 533.975049 172.007414 
L 534.244996 172.033254 
L 534.784884 172.122641 
L 537.754292 172.861251 
L 538.024235 173.12637 
L 538.294188 173.179154 
L 538.564176 173.101114 
L 538.834078 173.140662 
L 539.104024 173.060076 
L 540.453752 173.167737 
L 540.858703 173.149794 
L 544.233036 173.536948 
L 544.637908 173.675284 
L 545.312774 173.73145 
L 545.58272 173.678816 
L 550.981638 174.297463 
L 553.951041 174.462874 
L 554.895853 174.465162 
L 556.110663 174.411364 
L 556.920446 174.325082 
L 559.889852 174.28008 
L 560.294769 174.414971 
L 560.564714 174.32351 
L 560.969633 174.34616 
L 561.239581 174.48251 
L 561.50953 174.51624 
L 561.779475 174.453593 
L 562.859257 174.739971 
L 563.129204 174.819587 
L 563.399149 174.809789 
L 565.693687 175.593664 
L 567.043414 176.044394 
L 568.123199 176.248541 
L 569.06801 176.358357 
L 571.092606 176.618858 
L 578.111194 177.606658 
L 580.945629 178.117889 
L 581.755463 178.262084 
L 584.724867 178.769397 
L 584.994814 178.73897 
L 587.424326 179.209549 
L 587.424326 179.209549 
L 587.829293 179.159469 
L 588.369136 179.404787 
L 590.663678 179.910371 
L 590.933621 179.860286 
L 591.608487 180.069137 
L 595.657673 180.935832 
L 596.332538 181.118532 
L 599.031997 181.899879 
L 603.621084 183.070338 
L 603.891023 183.080961 
L 607.940212 184.099465 
L 608.480103 184.214043 
L 609.019993 184.369949 
L 609.424914 184.434295 
L 612.664296 185.050585 
L 614.553883 185.340868 
L 620.897656 186.191248 
L 621.167604 186.1663 
L 623.057176 186.416109 
L 624.406931 186.496427 
L 625.351717 186.560862 
L 628.72604 186.875013 
L 633.855039 187.70028 
L 634.124956 187.658653 
L 644.517871 189.108624 
L 645.867601 189.294461 
L 647.892199 189.588391 
L 648.297111 189.623384 
L 652.61627 190.361729 
L 652.61627 190.361729 
L 653.021165 190.280745 
L 656.125543 190.469574 
L 657.880189 190.436031 
L 661.389487 190.325938 
L 661.929376 190.251 
L 662.739218 190.184394 
L 669.892779 190.271381 
L 673.402075 190.446604 
L 677.046342 190.537325 
L 677.856184 190.540445 
L 685.819584 190.534378 
L 685.819584 190.534378 
" clip-path="url(#p4e4d451586)" style="fill: none; stroke: #aa00ff; stroke-width: 2; stroke-linecap: square"/>
   </g>
   <g id="line2d_30">
    <path d="M 100.846887 189.663158 
L 120.147999 189.610472 
L 129.056207 189.306789 
L 130.001019 189.304707 
L 131.485721 189.25064 
L 149.437126 188.432031 
L 149.842052 188.368355 
L 150.651883 188.304052 
L 152.406531 188.217416 
L 154.161181 188.130262 
L 155.105991 188.102349 
L 156.590715 188.167351 
L 156.995612 188.124828 
L 157.400532 188.077642 
L 159.020207 187.958803 
L 166.173772 188.015375 
L 166.443721 188.077563 
L 166.713664 188.008756 
L 168.603288 188.013247 
L 171.032798 187.982341 
L 171.572692 188.017863 
L 174.272155 188.10519 
L 174.812042 188.123085 
L 175.351936 188.116054 
L 176.161772 188.18287 
L 178.456312 188.209991 
L 179.26615 188.204971 
L 179.806043 188.187046 
L 180.750853 188.210788 
L 181.425719 188.131259 
L 192.628477 188.307629 
L 201.131819 188.586039 
L 201.536712 188.667345 
L 204.236146 189.003622 
L 205.72085 189.328257 
L 206.665666 189.520745 
L 207.205553 189.608808 
L 211.794686 190.548789 
L 212.874422 190.693726 
L 215.70885 191.181227 
L 218.138361 191.75233 
L 219.218193 192.004306 
L 223.807226 193.40798 
L 231.500684 195.098346 
L 232.445495 195.447092 
L 237.169552 196.93813 
L 239.46409 197.422245 
L 241.218738 197.730548 
L 241.893602 197.846341 
L 247.562468 198.100783 
L 251.476681 198.31181 
L 256.335709 198.80667 
L 258.900195 199.252025 
L 263.759226 199.935286 
L 264.973979 200.223041 
L 266.053763 200.443544 
L 266.728624 200.616975 
L 271.992571 201.739998 
L 273.207332 201.900779 
L 275.501872 202.234368 
L 276.311708 202.339246 
L 278.201326 202.73929 
L 279.821004 203.069889 
L 280.63084 203.206484 
L 281.710625 203.434532 
L 283.060359 203.793681 
L 286.974567 204.831976 
L 294.128138 207.608775 
L 294.937975 207.861673 
L 296.692621 208.559988 
L 297.232512 208.733485 
L 298.042349 209.165151 
L 299.122135 209.615158 
L 299.93197 209.950471 
L 300.87679 210.381433 
L 302.901376 211.169418 
L 305.870779 212.200421 
L 309.650029 213.582223 
L 310.189915 213.787713 
L 310.729808 214.014288 
L 312.754474 214.697383 
L 317.883374 215.807729 
L 321.12275 215.79449 
L 323.282291 215.494913 
L 324.497048 215.207473 
L 328.546237 214.464895 
L 328.951184 214.380832 
L 329.491044 214.315045 
L 330.300882 214.164866 
L 330.840776 214.033654 
L 331.38067 213.966802 
L 332.730395 213.697713 
L 333.40526 213.568427 
L 334.215098 213.390064 
L 336.239696 213.042005 
L 336.644611 212.952251 
L 337.049531 212.842713 
L 342.718394 212.157227 
L 343.663206 212.122981 
L 344.203095 212.118086 
L 351.761635 212.974234 
L 352.166503 212.978721 
L 359.185091 213.745566 
L 360.264876 213.871409 
L 363.369254 214.327842 
L 364.179091 214.434608 
L 368.363255 215.245168 
L 368.768173 215.403572 
L 370.52282 215.850405 
L 372.817362 216.619002 
L 373.08731 216.714443 
L 373.762172 216.951647 
L 374.167092 217.157029 
L 374.70703 217.297115 
L 376.191683 217.832306 
L 376.461632 217.880135 
L 377.136494 218.155814 
L 377.541412 218.259914 
L 379.296063 218.629019 
L 380.375845 219.047038 
L 380.780764 219.084017 
L 382.805358 219.43074 
L 383.075303 219.449882 
L 383.345252 219.511425 
L 383.750173 219.669472 
L 384.020178 219.652598 
L 384.964925 219.935561 
L 386.044712 220.048697 
L 386.449627 220.216264 
L 387.394441 220.270909 
L 388.339281 220.508393 
L 390.363845 220.904568 
L 390.498816 220.801735 
L 390.903737 221.038773 
L 391.848546 221.229923 
L 392.11849 221.303905 
L 392.388437 221.322961 
L 392.658385 221.474334 
L 392.928359 221.420932 
L 393.198276 221.640431 
L 393.468222 221.538655 
L 393.73817 221.700428 
L 394.278061 221.913845 
L 394.682978 221.797583 
L 395.222869 222.252919 
L 395.492864 222.215413 
L 396.302654 222.489719 
L 396.572598 222.5344 
L 397.11249 222.536312 
L 397.247465 222.565989 
L 397.517408 222.823215 
L 399.542006 223.424764 
L 399.676978 223.426322 
L 399.81195 223.714315 
L 400.216866 223.741171 
L 400.756758 223.997434 
L 401.431625 224.087968 
L 402.106493 224.338859 
L 407.640381 226.432023 
L 411.284656 227.522096 
L 411.689571 227.717146 
L 411.959515 227.738205 
L 412.364438 227.897787 
L 413.849167 228.303164 
L 414.254055 228.395024 
L 414.793997 228.571919 
L 415.603784 228.704282 
L 415.873727 228.935313 
L 416.143676 229.054001 
L 417.358439 229.392475 
L 418.168271 229.566498 
L 418.573235 229.759285 
L 418.978107 229.689575 
L 419.248114 229.819209 
L 419.652975 229.882978 
L 421.137679 230.196935 
L 422.757349 230.503784 
L 423.027295 230.700374 
L 424.107079 230.87726 
L 424.78195 231.110346 
L 425.186863 231.1342 
L 425.726754 231.30815 
L 425.861732 231.212034 
L 426.806541 231.70194 
L 427.076489 231.684282 
L 427.616377 231.696915 
L 428.561187 232.114188 
L 429.101079 232.164825 
L 429.236052 232.156881 
L 429.505998 232.339124 
L 429.910918 232.424813 
L 430.9907 232.7229 
L 431.260647 232.847957 
L 432.88032 232.914769 
L 433.69016 232.918371 
L 435.579781 232.467044 
L 435.849727 232.370198 
L 436.119671 232.431069 
L 436.389617 232.208701 
L 436.659563 232.346888 
L 437.334429 232.159691 
L 437.874321 232.0147 
L 438.144265 231.784071 
L 438.954103 231.429819 
L 439.628968 231.096082 
L 439.898914 230.940653 
L 441.113669 230.309565 
L 441.383618 229.982932 
L 442.058485 229.556271 
L 443.00329 228.862515 
L 443.948102 228.226037 
L 445.297833 227.243125 
L 445.702753 226.823869 
L 446.512587 226.184635 
L 447.727346 225.119017 
L 449.077074 223.748735 
L 450.426803 222.572866 
L 450.69675 222.371231 
L 451.101674 221.935791 
L 451.371616 221.753235 
L 452.721345 220.553277 
L 455.015882 218.627859 
L 455.82572 218.058944 
L 456.230655 217.728214 
L 456.635633 217.523477 
L 456.905503 217.095132 
L 458.795123 215.749465 
L 459.604967 215.168371 
L 460.279831 214.617894 
L 461.76453 213.688544 
L 462.034476 213.405923 
L 462.30442 213.287254 
L 462.574367 213.032919 
L 462.844313 212.920521 
L 463.384206 212.473331 
L 464.868907 211.572135 
L 465.138855 211.303197 
L 465.408798 211.130843 
L 465.948689 210.695763 
L 469.323014 208.408019 
L 469.727931 208.103278 
L 469.997881 208.105679 
L 470.267823 207.668962 
L 470.942689 207.183078 
L 472.427395 206.495235 
L 472.697335 206.127708 
L 472.967288 206.074835 
L 473.102266 205.970101 
L 473.372202 205.533691 
L 473.777176 205.346515 
L 474.04707 205.006856 
L 474.317013 204.875164 
L 474.586956 204.566482 
L 475.261822 204.043163 
L 476.206638 203.377815 
L 476.476579 202.966565 
L 476.746528 202.812261 
L 477.016471 202.488629 
L 478.366199 201.581624 
L 478.636148 201.17045 
L 479.715928 200.714372 
L 479.985875 200.388065 
L 480.525769 200.223727 
L 480.795715 199.698197 
L 481.740525 198.929255 
L 482.280417 198.555816 
L 484.035112 197.532313 
L 484.30501 197.268224 
L 485.654787 196.767439 
L 485.789712 196.368825 
L 486.464575 196.149961 
L 486.734522 195.641471 
L 487.139444 195.473754 
L 487.40939 195.137858 
L 489.29901 194.083093 
L 489.568955 193.806064 
L 489.838948 193.713247 
L 490.108847 193.446326 
L 490.37879 193.32552 
L 490.648741 193.051003 
L 491.458573 192.607138 
L 492.268413 192.031269 
L 492.808303 191.679259 
L 495.507811 190.050347 
L 496.992464 189.248701 
L 497.397385 188.972598 
L 499.421979 187.724193 
L 500.096842 187.338804 
L 501.581597 186.749685 
L 501.716519 186.727224 
L 501.986466 186.441723 
L 507.11549 183.628758 
L 514.538946 180.991348 
L 515.888723 180.631282 
L 517.50835 180.186419 
L 518.588135 179.905286 
L 519.937868 179.545757 
L 522.502352 179.114451 
L 522.907266 179.096644 
L 525.33678 179.008256 
L 526.686512 179.071707 
L 527.766318 179.12236 
L 529.116025 179.283289 
L 529.655913 179.376968 
L 530.465754 179.532101 
L 531.140617 179.729869 
L 531.815479 180.038741 
L 532.2204 180.116882 
L 534.919857 180.935121 
L 536.674507 181.322166 
L 536.809487 181.26623 
L 537.2144 181.524677 
L 537.619317 181.645576 
L 538.024234 181.667666 
L 538.564176 181.821859 
L 539.238992 181.891918 
L 543.693096 183.016238 
L 551.926452 187.559426 
L 554.220988 189.044147 
L 555.165798 189.483324 
L 555.975636 189.738918 
L 557.460337 190.246653 
L 558.540121 190.558808 
L 559.754876 190.931218 
L 561.914496 191.333622 
L 562.589312 191.552884 
L 562.994229 191.6271 
L 563.399149 191.793817 
L 563.939037 192.014112 
L 564.613905 192.171555 
L 566.098609 192.516057 
L 566.36855 192.655557 
L 567.583305 192.835214 
L 569.068009 192.772297 
L 570.012822 192.654262 
L 572.307358 192.066853 
L 573.522119 191.748723 
L 577.166382 190.941524 
L 578.246166 190.73495 
L 580.540733 190.248768 
L 582.160388 189.953734 
L 582.700275 189.878733 
L 584.859839 189.532145 
L 585.129785 189.530125 
L 586.344543 189.411534 
L 586.479541 189.511692 
L 586.884434 189.426854 
L 588.504106 189.389179 
L 592.688319 189.509128 
L 593.22816 189.590308 
L 593.498109 189.565656 
L 593.903025 189.493495 
L 594.847837 189.677722 
L 596.062592 189.911585 
L 596.332537 189.924117 
L 596.737481 189.970098 
L 597.142376 189.86617 
L 597.547346 190.052425 
L 597.817241 190.007853 
L 598.35713 190.132047 
L 598.627076 190.25997 
L 598.897023 190.400516 
L 600.246753 190.564324 
L 600.651673 190.79402 
L 602.271346 191.037473 
L 602.676269 191.273722 
L 603.351132 191.411157 
L 603.756053 191.506284 
L 604.430973 191.740565 
L 604.835835 191.840338 
L 606.455507 192.33481 
L 608.480102 192.825573 
L 610.909614 192.979129 
L 611.584478 192.974831 
L 617.793234 192.049268 
L 621.977448 191.280055 
L 622.787231 191.137662 
L 623.192148 191.066201 
L 624.271932 190.94753 
L 624.676851 190.903659 
L 625.216743 190.892659 
L 625.756635 190.807066 
L 627.10637 190.608998 
L 636.419494 189.251749 
L 636.824412 189.201312 
L 637.09436 189.161561 
L 637.364304 189.064855 
L 638.039172 188.961492 
L 638.174141 189.034895 
L 638.579064 188.766875 
L 639.253927 188.680132 
L 639.658845 188.49218 
L 640.198735 188.424709 
L 641.143545 188.201837 
L 642.898198 187.665566 
L 643.168141 187.543978 
L 643.977977 187.392107 
L 644.247924 187.203005 
L 644.517871 187.260566 
L 645.057762 187.155561 
L 645.597654 187.041092 
L 645.867599 187.02359 
L 646.40749 186.909953 
L 647.487275 186.638808 
L 647.892199 186.549187 
L 648.837002 186.220763 
L 649.376898 186.176811 
L 650.726626 185.673452 
L 653.561054 183.979401 
L 654.235924 183.533671 
L 654.505865 183.387116 
L 655.045758 183.188269 
L 655.720622 182.724489 
L 656.125542 182.582715 
L 657.745216 181.673935 
L 658.420128 181.355666 
L 658.690028 181.301874 
L 658.959972 181.044388 
L 663.144133 179.036489 
L 671.377512 176.780321 
L 671.782401 176.735589 
L 674.076939 176.413723 
L 676.776397 176.261628 
L 685.414663 176.247473 
L 685.954555 176.249029 
L 685.954555 176.249029 
" clip-path="url(#p4e4d451586)" style="fill: none; stroke: #ff9c00; stroke-width: 2; stroke-linecap: square"/>
   </g>
   <g id="line2d_31">
    <path d="M 100.846889 189.663158 
L 111.104807 189.663929 
L 126.89664 189.590438 
L 136.479724 189.211196 
L 137.559508 189.097506 
L 138.099399 189.037884 
L 141.473722 188.554016 
L 142.958425 188.271874 
L 144.443127 188.101751 
L 144.848048 187.936618 
L 148.087398 187.384553 
L 150.921836 186.819644 
L 152.271559 186.587825 
L 153.216369 186.413771 
L 154.566102 186.184117 
L 154.836047 186.251426 
L 155.240965 186.208177 
L 155.645883 186.168466 
L 156.45572 185.92397 
L 156.725667 186.027128 
L 157.130585 186.060149 
L 157.535509 186.248608 
L 157.670475 186.221383 
L 158.345342 185.514617 
L 160.504961 185.192376 
L 160.90983 184.955007 
L 161.044801 184.931177 
L 161.719666 185.440767 
L 163.609335 185.000702 
L 164.689071 184.273552 
L 165.228962 184.535498 
L 165.633881 184.802934 
L 166.578693 184.916224 
L 167.118585 184.565927 
L 167.38853 184.5173 
L 167.793452 184.443587 
L 168.063398 184.634624 
L 168.333339 184.743458 
L 169.00823 184.183601 
L 169.548098 183.781791 
L 169.818067 183.984302 
L 170.222961 184.288328 
L 170.762853 184.303026 
L 171.707666 184.263822 
L 173.327344 183.698438 
L 173.867234 183.938297 
L 174.542097 183.942612 
L 175.216963 183.663534 
L 175.486909 183.574018 
L 175.891828 183.567613 
L 176.431718 183.780266 
L 177.781447 183.273443 
L 178.051394 183.199537 
L 178.591286 183.280999 
L 179.401123 183.11891 
L 179.941015 183.023935 
L 180.345941 183.159166 
L 181.155775 182.846182 
L 181.695663 182.755342 
L 181.83064 182.715952 
L 182.100615 182.808848 
L 182.910422 182.529694 
L 183.450314 182.371707 
L 184.26015 182.214317 
L 184.530096 182.194665 
L 184.800043 182.137923 
L 186.554692 181.868536 
L 186.95961 181.626204 
L 187.769449 181.752153 
L 188.039442 181.768719 
L 188.444314 181.705203 
L 188.984206 181.351546 
L 190.063989 181.178406 
L 191.008813 181.121776 
L 191.683664 180.985683 
L 192.628478 180.631513 
L 195.192962 180.261212 
L 200.051987 179.366885 
L 200.321981 179.356277 
L 201.13182 179.146456 
L 201.536713 179.078069 
L 201.94161 179.011781 
L 203.29134 178.809787 
L 205.045985 178.466708 
L 205.855824 178.386974 
L 208.285337 177.956125 
L 208.690255 177.988473 
L 209.365121 177.911627 
L 210.039984 177.800303 
L 210.444908 177.792463 
L 212.064583 177.613465 
L 212.334579 177.570519 
L 212.874423 177.521534 
L 213.414309 177.43783 
L 214.764039 177.310541 
L 215.708852 177.249548 
L 217.733493 177.235237 
L 218.273336 177.271325 
L 218.813276 177.248923 
L 219.893012 177.26524 
L 223.132366 177.300618 
L 223.942251 177.225002 
L 224.482139 177.221972 
L 225.022031 177.154793 
L 228.126364 176.735799 
L 232.715442 175.846695 
L 233.525279 175.658907 
L 238.51928 174.544591 
L 239.059171 174.448057 
L 240.273946 174.281601 
L 242.028576 174.076965 
L 243.648252 173.911553 
L 244.728035 173.762714 
L 245.942791 173.646436 
L 248.372304 173.247778 
L 253.231334 172.282923 
L 258.495276 171.014937 
L 260.384898 170.578547 
L 261.329711 170.276409 
L 262.004575 170.111809 
L 264.839012 169.416141 
L 265.648842 169.287521 
L 266.323709 169.100337 
L 267.943386 168.685624 
L 268.483277 168.574473 
L 278.471273 165.677965 
L 279.011164 165.523509 
L 280.090948 165.20273 
L 280.360894 165.113366 
L 283.195326 164.326026 
L 287.649444 163.507305 
L 288.594276 163.33136 
L 289.269158 163.241552 
L 292.373488 162.83133 
L 295.207919 162.730488 
L 296.557651 162.732455 
L 297.097589 162.754363 
L 298.312296 162.715093 
L 299.392082 162.530967 
L 299.796997 162.552773 
L 300.876792 162.427474 
L 301.416673 162.363585 
L 302.631431 162.291914 
L 303.171322 162.225321 
L 303.711214 162.216942 
L 304.386079 162.12153 
L 306.545645 161.981758 
L 307.085588 161.957669 
L 307.62543 161.863273 
L 308.300303 161.802931 
L 309.515053 161.772499 
L 310.324889 161.624044 
L 310.864781 161.645593 
L 311.404675 161.595694 
L 315.183955 161.281652 
L 320.987752 161.428094 
L 328.276295 162.244454 
L 328.546238 162.266849 
L 329.086139 162.353139 
L 329.35608 162.396084 
L 329.760994 162.39 
L 330.570832 162.512783 
L 331.785586 162.609734 
L 332.595424 162.747565 
L 334.080126 162.856247 
L 338.129319 163.147455 
L 338.669207 163.158518 
L 340.018939 163.258364 
L 344.877964 163.419297 
L 345.417856 163.393127 
L 346.902557 163.37017 
L 352.301523 162.781131 
L 352.571431 162.642551 
L 353.11131 162.639486 
L 354.191096 162.465608 
L 354.461042 162.456643 
L 354.730989 162.375062 
L 355.270878 162.309405 
L 355.540826 162.239469 
L 355.945744 162.16748 
L 356.620611 162.06405 
L 357.025528 162.041922 
L 358.375256 161.747821 
L 359.590015 161.533934 
L 359.859959 161.481992 
L 361.34467 161.14627 
L 361.614608 161.164722 
L 362.424445 160.925816 
L 362.559418 160.974812 
L 362.829368 160.9221 
L 363.504275 160.698985 
L 363.909149 160.716717 
L 364.314065 160.436406 
L 364.718983 160.492785 
L 364.988955 160.41747 
L 365.258877 160.350945 
L 365.39385 160.203138 
L 365.798769 160.228832 
L 366.068716 160.162159 
L 366.33866 160.101369 
L 366.608609 159.994836 
L 366.743578 160.027567 
L 367.148498 159.868713 
L 370.387848 159.27664 
L 371.467631 159.168223 
L 371.737995 159.073293 
L 372.142499 159.103338 
L 373.492228 158.955425 
L 373.897144 158.876147 
L 374.302062 158.808198 
L 375.381848 158.719339 
L 375.516819 158.662074 
L 375.786765 158.720573 
L 378.621199 158.276386 
L 378.891143 158.347897 
L 379.16109 158.278755 
L 379.296063 158.275342 
L 379.431037 158.129539 
L 379.835953 158.124419 
L 380.240873 158.161674 
L 380.375846 158.187478 
L 380.64579 158.039557 
L 381.725578 157.820018 
L 381.860554 157.863622 
L 382.265468 157.71271 
L 382.535413 157.616922 
L 382.805359 157.646092 
L 383.075304 157.492059 
L 383.345253 157.602143 
L 384.155089 157.334243 
L 384.829953 157.307948 
L 385.099946 157.16054 
L 385.639791 157.1871 
L 386.179683 157.192626 
L 386.449628 156.998995 
L 386.854548 157.098224 
L 387.124495 156.847167 
L 387.934332 156.8024 
L 388.204276 156.563824 
L 388.339281 156.589317 
L 388.609199 156.83076 
L 389.014115 156.527369 
L 389.284061 156.684931 
L 389.823951 156.420783 
L 390.228921 156.470034 
L 390.498817 156.37103 
L 390.768765 156.394181 
L 390.903737 156.513473 
L 391.308704 156.232635 
L 391.713576 156.281067 
L 391.983525 156.175912 
L 392.253469 156.282866 
L 392.523417 156.363128 
L 392.793361 156.069958 
L 393.198277 156.243181 
L 393.468223 155.845634 
L 393.73817 156.021688 
L 394.817952 156.049915 
L 395.222869 155.78262 
L 395.897735 155.635373 
L 396.302655 155.856066 
L 396.707572 155.647017 
L 397.247465 155.657062 
L 397.517409 155.628447 
L 397.78741 155.631663 
L 398.057311 155.70197 
L 398.597195 155.443759 
L 398.867143 155.122726 
L 399.542006 155.314673 
L 399.811951 155.273697 
L 400.351847 155.355948 
L 400.621788 155.037047 
L 400.756759 154.826147 
L 401.296653 154.946585 
L 401.431626 154.964147 
L 401.566605 154.866108 
L 401.971519 155.100841 
L 402.106494 155.056437 
L 402.646382 154.429912 
L 402.781379 154.468986 
L 403.051302 154.787822 
L 403.321246 154.735298 
L 404.805951 154.245616 
L 405.480813 154.378713 
L 405.750758 154.261808 
L 406.155682 153.687885 
L 406.290652 153.673731 
L 406.830544 154.043262 
L 407.775353 153.968895 
L 408.450217 153.377225 
L 408.855137 153.851523 
L 409.260061 153.44948 
L 409.530003 153.228226 
L 410.609785 152.908446 
L 410.879732 153.214292 
L 411.014705 153.238088 
L 411.554598 152.846192 
L 411.959516 152.891611 
L 412.229463 152.862206 
L 412.904325 152.496351 
L 413.444218 152.569052 
L 413.849168 152.118329 
L 414.254056 152.358528 
L 414.389028 152.362721 
L 414.928931 151.984282 
L 415.468812 152.043316 
L 417.628378 151.177529 
L 418.033299 151.428738 
L 418.303242 151.394789 
L 419.92292 150.365142 
L 420.86773 150.283564 
L 421.407622 150.10389 
L 422.082485 150.087356 
L 422.352431 150.149801 
L 423.027296 149.785754 
L 423.567189 149.857486 
L 424.242079 149.64605 
L 424.646972 149.431003 
L 425.051895 149.590953 
L 425.861733 148.919893 
L 426.131734 148.69556 
L 426.40162 149.107611 
L 426.536593 149.329553 
L 426.806542 149.276827 
L 427.21153 148.772837 
L 427.481405 148.520037 
L 427.751351 148.580542 
L 428.021296 148.421646 
L 428.156291 148.461703 
L 428.561188 149.042723 
L 428.696163 149.025129 
L 429.236052 148.317132 
L 429.505998 148.441058 
L 429.910918 148.296633 
L 430.180862 148.334387 
L 430.315899 148.294087 
L 430.855726 148.867908 
L 431.395623 148.367485 
L 432.205457 148.857278 
L 433.420214 148.467745 
L 434.095104 148.607514 
L 434.365023 148.587018 
L 434.769943 148.811699 
L 435.03989 148.721896 
L 435.444807 148.486851 
L 435.849728 148.623573 
L 436.119672 148.604867 
L 436.389617 148.568807 
L 436.794546 148.875517 
L 437.064506 148.684517 
L 438.819129 148.962742 
L 439.089076 149.215366 
L 439.359022 149.086451 
L 439.628968 149.084152 
L 441.788535 149.518267 
L 442.193454 149.364985 
L 445.972698 150.041606 
L 446.242643 150.018605 
L 446.512587 150.148315 
L 446.782536 150.237366 
L 446.917509 150.202681 
L 447.187458 150.429439 
L 447.592374 150.368849 
L 447.99729 150.517663 
L 448.267237 150.606179 
L 449.481992 150.607201 
L 449.75194 150.738236 
L 450.15686 150.68195 
L 450.69675 151.170997 
L 451.101675 151.027648 
L 451.371616 150.887272 
L 451.506593 150.907325 
L 451.911504 151.200895 
L 452.4514 151.504803 
L 452.721346 151.257646 
L 452.99129 151.148589 
L 453.261235 151.269784 
L 453.531183 151.686027 
L 455.015883 151.599014 
L 455.285828 151.693858 
L 455.690748 151.687328 
L 456.365614 151.779637 
L 456.635633 152.147804 
L 457.175449 151.520993 
L 457.985288 151.863726 
L 458.525183 151.843623 
L 458.795124 151.907546 
L 459.200044 152.051222 
L 459.335017 152.095523 
L 459.739939 151.933481 
L 460.279831 152.104977 
L 460.414801 152.036859 
L 461.089669 152.493762 
L 461.359614 152.136545 
L 461.494587 152.11335 
L 461.899503 152.651069 
L 462.169449 153.067568 
L 462.304421 152.985957 
L 462.709341 152.170148 
L 462.979287 152.370169 
L 463.249233 152.319222 
L 463.654152 152.466895 
L 463.924097 152.465955 
L 464.329017 153.262953 
L 464.46399 153.113797 
L 464.733936 152.435887 
L 467.433397 152.922237 
L 467.973291 152.898677 
L 468.243236 152.819511 
L 468.648153 153.247263 
L 468.918095 153.670074 
L 469.457987 153.893796 
L 469.59296 153.841465 
L 469.997882 152.964477 
L 471.34761 153.646314 
L 471.617556 153.987257 
L 471.752529 153.887016 
L 472.022473 153.367596 
L 472.292417 153.317416 
L 472.562363 153.421991 
L 472.967289 153.602256 
L 473.507174 153.550416 
L 473.777177 153.67704 
L 473.912093 153.672326 
L 474.586957 154.215414 
L 474.991883 154.180398 
L 475.261823 154.267931 
L 475.53177 154.119269 
L 476.071664 153.970659 
L 476.341606 154.359908 
L 477.286427 154.564382 
L 477.556367 154.090391 
L 477.826308 153.868245 
L 478.231229 154.410259 
L 478.501175 154.789901 
L 478.771119 154.856013 
L 479.580956 154.605291 
L 480.525769 154.76476 
L 480.930687 154.907682 
L 481.200635 154.884406 
L 481.740526 155.046281 
L 482.550363 155.008496 
L 483.225229 155.022221 
L 483.360226 155.137709 
L 483.765116 155.040122 
L 484.035113 155.070623 
L 484.574984 155.28997 
L 488.219227 155.529395 
L 488.354204 155.45457 
L 489.164034 155.770066 
L 489.433989 155.636867 
L 489.568955 155.64578 
L 490.243819 156.244186 
L 490.918733 155.580847 
L 491.593548 155.850754 
L 491.863493 155.73625 
L 492.133441 155.893596 
L 492.403386 156.235083 
L 493.888088 155.818317 
L 494.293008 156.079279 
L 494.697926 156.212343 
L 495.102845 156.078972 
L 495.912685 156.216407 
L 500.096843 156.962786 
L 500.366788 157.106746 
L 505.225813 158.287334 
L 505.765705 158.373462 
L 512.514353 160.0144 
L 513.72911 160.285919 
L 513.999055 160.431812 
L 515.753705 160.897285 
L 516.023648 160.969151 
L 517.103434 161.263927 
L 517.508351 161.366687 
L 518.453162 161.617649 
L 518.993052 161.772054 
L 519.397972 161.859976 
L 519.802892 162.010888 
L 520.882673 162.264603 
L 521.287595 162.424672 
L 524.79689 163.592172 
L 525.471757 163.840803 
L 525.876724 163.97207 
L 526.686512 164.24647 
L 527.496352 164.466771 
L 531.81548 166.171089 
L 533.030261 166.858838 
L 535.864669 167.996327 
L 536.134639 168.122696 
L 536.944453 168.501866 
L 537.079426 168.688714 
L 537.484342 168.149091 
L 537.889262 167.977489 
L 538.429155 169.640424 
L 538.699102 169.706983 
L 539.373965 169.932633 
L 539.913866 169.647173 
L 540.453752 170.096662 
L 540.858703 170.007227 
L 541.263593 169.987902 
L 541.938454 170.27238 
L 542.478345 170.36864 
L 542.883262 170.56267 
L 543.153206 170.594493 
L 543.558124 170.653018 
L 543.693097 170.531994 
L 543.963045 170.554489 
L 544.233036 170.578524 
L 544.637908 170.893987 
L 545.177802 170.992589 
L 545.58272 171.09257 
L 545.987639 171.142994 
L 546.527529 171.337107 
L 547.87726 171.644855 
L 548.41715 171.835543 
L 550.576719 172.167701 
L 551.116617 172.226161 
L 552.196395 172.399298 
L 553.41116 172.618718 
L 553.681096 172.666391 
L 554.086013 172.66137 
L 554.490935 172.681303 
L 555.435746 172.717156 
L 555.70569 172.771947 
L 557.730283 172.753723 
L 558.405149 172.811271 
L 559.080013 172.952916 
L 559.619906 173.272853 
L 560.159796 172.945509 
L 560.294769 173.0623 
L 560.699687 173.683634 
L 560.83466 173.602535 
L 561.239581 173.084615 
L 561.644503 173.333036 
L 562.049419 173.777012 
L 562.319362 173.767589 
L 562.859257 173.982116 
L 563.399149 174.062916 
L 564.07401 174.790525 
L 564.478934 174.671235 
L 564.883847 174.834208 
L 565.42374 175.235889 
L 565.693687 175.36532 
L 566.36855 176.203024 
L 566.638496 176.075118 
L 567.448333 176.298551 
L 567.988226 176.627761 
L 568.798062 176.954576 
L 569.06801 176.917122 
L 569.472931 177.153207 
L 570.012823 177.167447 
L 570.822659 177.449496 
L 571.227576 177.54388 
L 571.632494 177.751833 
L 572.037416 177.652633 
L 572.577305 177.782797 
L 573.252172 177.862894 
L 573.657087 178.176244 
L 574.466925 178.13949 
L 574.736871 178.269296 
L 575.681682 178.482288 
L 576.0866 178.569621 
L 577.031411 178.789017 
L 577.97622 179.059164 
L 578.246167 178.983853 
L 578.38114 179.04819 
L 578.78606 179.528827 
L 579.460924 179.474988 
L 580.675703 179.760916 
L 580.945629 179.742026 
L 581.755463 179.997368 
L 582.025408 179.942697 
L 582.295355 180.018173 
L 582.565302 180.068641 
L 582.835248 180.239114 
L 583.780059 180.410317 
L 584.050003 180.452101 
L 584.319949 180.597395 
L 584.724867 180.935222 
L 584.994814 181.254237 
L 585.399732 181.913435 
L 585.534704 181.910361 
L 585.804652 181.358175 
L 586.209571 180.595145 
L 586.479541 181.077346 
L 586.884435 181.657341 
L 587.019436 181.637848 
L 587.424326 181.27761 
L 587.964217 182.626464 
L 588.234167 182.56922 
L 588.369136 182.443127 
L 588.639082 181.873809 
L 588.909027 181.813206 
L 589.044001 181.874683 
L 589.718866 182.794697 
L 590.393731 182.394344 
L 590.798647 182.489379 
L 591.203569 182.594964 
L 592.418328 183.538993 
L 592.68832 183.512944 
L 593.363135 183.945192 
L 593.768053 183.878596 
L 594.037998 183.678385 
L 594.712863 184.45259 
L 595.117785 184.559144 
L 595.387733 184.189309 
L 595.657673 183.948408 
L 596.197565 184.035755 
L 596.602485 184.556978 
L 597.142377 184.935069 
L 597.412327 185.178937 
L 597.817242 185.680375 
L 597.952214 185.725087 
L 598.222158 185.435473 
L 598.492104 185.088789 
L 599.976807 185.291513 
L 601.056591 185.497579 
L 602.271346 185.791883 
L 603.621084 186.402063 
L 604.025996 186.755036 
L 604.430973 187.168693 
L 606.050589 187.311633 
L 606.860426 187.767274 
L 607.53529 188.252633 
L 607.80524 188.427747 
L 609.829861 189.125938 
L 610.234751 189.490467 
L 610.63967 189.623106 
L 611.179563 189.719532 
L 611.719451 190.042036 
L 614.688856 190.953283 
L 617.793234 191.144694 
L 620.357719 191.218038 
L 628.051174 190.967596 
L 628.456097 190.810666 
L 629.130957 190.799849 
L 630.210741 190.695547 
L 630.885608 190.6063 
L 631.155551 190.707626 
L 631.290548 190.689906 
L 631.560475 190.50601 
L 632.100361 190.493569 
L 632.370309 190.436522 
L 633.58512 190.518342 
L 633.855039 190.392528 
L 638.579064 190.259997 
L 638.983982 190.078872 
L 642.088357 189.836652 
L 642.493286 189.910553 
L 642.763222 189.805086 
L 643.573058 189.70242 
L 644.112951 189.579117 
L 645.192735 189.500827 
L 649.646843 188.908106 
L 650.051763 188.815884 
L 650.861599 188.806584 
L 651.131551 188.868729 
L 653.69603 188.90424 
L 654.235925 188.894385 
L 654.505867 188.881341 
L 657.340323 188.639017 
L 657.745217 188.580197 
L 659.364892 188.37568 
L 660.849594 188.231618 
L 661.659492 188.175576 
L 662.874186 187.940827 
L 665.033756 187.732014 
L 672.727215 186.058473 
L 674.076939 185.872188 
L 676.641424 185.548437 
L 677.991155 185.423002 
L 680.150722 185.341845 
L 682.310287 185.361924 
L 685.954556 185.370923 
L 685.954556 185.370923 
" clip-path="url(#p4e4d451586)" style="fill: none; stroke: #ff0000; stroke-width: 2; stroke-linecap: square"/>
   </g>
   <g id="line2d_32">
    <path d="M 100.981833 189.663158 
L 124.197207 189.543356 
L 128.246372 189.379036 
L 130.405943 189.249423 
L 131.485721 189.236569 
L 138.504321 188.58516 
L 139.584103 188.495092 
L 150.111992 187.673015 
L 150.921836 187.556787 
L 153.891234 187.326245 
L 154.971023 187.279835 
L 156.050803 187.185656 
L 156.860644 187.158332 
L 157.670475 187.037343 
L 158.750259 186.85958 
L 166.0388 186.200004 
L 166.308748 186.25685 
L 167.118585 186.094036 
L 170.897827 185.722987 
L 172.247557 185.61079 
L 173.327344 185.515623 
L 174.407126 185.487407 
L 177.376529 185.177607 
L 183.315343 184.437647 
L 185.204963 184.214329 
L 188.714263 183.824539 
L 194.923013 183.029431 
L 196.812682 182.754572 
L 199.242152 182.475522 
L 200.591903 182.371293 
L 201.13182 182.249666 
L 201.671667 182.230304 
L 202.4815 182.150361 
L 204.37112 181.987541 
L 204.911013 181.92531 
L 208.690255 181.728921 
L 209.500094 181.702805 
L 213.009392 181.567602 
L 214.629114 181.454515 
L 216.788634 181.51538 
L 219.218193 181.650891 
L 220.297937 181.723365 
L 221.647664 181.91597 
L 224.887013 181.907307 
L 227.58647 181.768605 
L 229.74604 181.467887 
L 230.82582 181.315759 
L 233.255395 181.102931 
L 237.034578 180.497302 
L 238.654253 180.263238 
L 241.893602 180.00672 
L 244.05322 179.866086 
L 249.452089 179.177295 
L 252.151578 178.746619 
L 255.390912 178.209197 
L 265.108955 176.281234 
L 267.538465 175.864253 
L 270.50787 175.222686 
L 275.906787 174.017841 
L 278.606247 173.275896 
L 279.955975 172.966704 
L 282.655435 172.292632 
L 285.354896 171.938417 
L 288.864193 171.468045 
L 289.40408 171.413783 
L 292.10354 171.190752 
L 294.533052 171.141572 
L 298.582267 171.220737 
L 299.122135 171.090012 
L 299.931971 171.114999 
L 302.091542 171.016152 
L 303.981161 170.935399 
L 304.790998 170.87633 
L 306.410672 170.78849 
L 307.490457 170.725191 
L 314.509051 170.374234 
L 316.668615 170.294957 
L 328.816183 171.009018 
L 329.89597 171.092249 
L 332.86537 171.318954 
L 334.485045 171.361061 
L 336.644612 171.440202 
L 344.203095 171.594244 
L 345.822776 171.605121 
L 353.381257 170.843179 
L 360.399851 169.776025 
L 361.47966 169.56767 
L 370.387848 167.907776 
L 372.817362 167.66964 
L 381.185685 166.779271 
L 391.443675 165.342054 
L 392.523417 165.32727 
L 394.682978 165.088744 
L 397.652382 164.864569 
L 399.542006 164.656834 
L 401.701572 164.429597 
L 404.131091 163.980449 
L 409.530003 163.196274 
L 416.278649 161.727538 
L 417.898324 161.457924 
L 425.996701 159.667335 
L 426.536593 159.714461 
L 427.616377 159.520309 
L 430.315899 159.285253 
L 435.714756 159.221878 
L 436.794546 159.198035 
L 458.390206 160.608194 
L 460.549772 160.623 
L 463.519178 160.801244 
L 466.218636 160.854042 
L 467.29842 160.846019 
L 468.10826 160.935911 
L 469.188043 161.013957 
L 470.267825 161.09205 
L 473.777177 161.189002 
L 478.3662 161.364565 
L 481.065659 161.395771 
L 481.605552 161.43837 
L 482.415387 161.430886 
L 491.053656 161.605936 
L 493.483169 161.479463 
L 494.832898 161.448696 
L 495.912685 161.461255 
L 500.501762 161.787414 
L 501.581598 162.006622 
L 506.440572 162.468994 
L 508.60014 162.726547 
L 510.219812 162.935876 
L 522.097432 164.731551 
L 529.655913 166.525735 
L 531.005644 166.938707 
L 532.355373 167.459662 
L 534.244996 168.150124 
L 535.324776 168.409849 
L 536.40456 168.771349 
L 536.944453 168.819858 
L 537.214401 168.982239 
L 539.643917 169.303946 
L 540.453752 169.407736 
L 541.803479 169.466429 
L 543.153206 169.662588 
L 547.202397 170.280694 
L 548.282177 170.505956 
L 555.840665 171.106281 
L 557.460339 170.995611 
L 559.080013 171.033572 
L 560.429742 171.225624 
L 562.859257 171.59362 
L 566.908468 173.169157 
L 568.798062 173.634303 
L 570.417744 173.959249 
L 577.166383 174.984845 
L 578.78606 175.366279 
L 579.056007 175.326984 
L 579.595896 175.472048 
L 580.405734 175.608658 
L 583.645085 176.197463 
L 583.915058 176.193492 
L 584.45492 176.417795 
L 585.534704 176.538944 
L 586.074598 176.581965 
L 586.614489 176.798823 
L 587.154382 176.829604 
L 587.694272 177.040743 
L 588.774054 177.173415 
L 589.313947 177.343197 
L 589.583893 177.557848 
L 589.85384 177.50984 
L 590.933621 177.606359 
L 591.473515 177.756923 
L 592.013406 177.764461 
L 593.093187 178.06481 
L 593.633079 178.114353 
L 595.522701 178.788981 
L 599.031997 179.782182 
L 600.651674 180.317217 
L 602.271346 180.704341 
L 603.081184 180.958216 
L 611.719451 183.23402 
L 616.038584 183.952162 
L 617.658261 184.204167 
L 620.357719 184.528973 
L 622.517336 184.803835 
L 625.216744 185.074182 
L 626.836423 185.154764 
L 631.155551 185.774075 
L 631.695442 185.897521 
L 632.775276 185.992055 
L 633.315117 186.16889 
L 634.394952 186.268371 
L 645.462679 187.968852 
L 647.082405 188.203396 
L 653.831002 189.223025 
L 661.119589 189.164342 
L 664.898782 188.991221 
L 668.138134 189.020529 
L 670.837674 189.25172 
L 678.935966 189.532606 
L 678.935966 189.532606 
" clip-path="url(#p4e4d451586)" style="fill: none; stroke: #00ff00; stroke-width: 2; stroke-linecap: square"/>
   </g>
   <g id="patch_3">
    <path d="M 82.8 313.2 
L 82.8 19.8 
" style="fill: none; stroke: #000000; stroke-width: 0.8; stroke-linejoin: miter; stroke-linecap: square"/>
   </g>
   <g id="patch_4">
    <path d="M 709.2 313.2 
L 709.2 19.8 
" style="fill: none; stroke: #000000; stroke-width: 0.8; stroke-linejoin: miter; stroke-linecap: square"/>
   </g>
   <g id="patch_5">
    <path d="M 82.8 313.2 
L 709.2 313.2 
" style="fill: none; stroke: #000000; stroke-width: 0.8; stroke-linejoin: miter; stroke-linecap: square"/>
   </g>
   <g id="patch_6">
    <path d="M 82.8 19.8 
L 709.2 19.8 
" style="fill: none; stroke: #000000; stroke-width: 0.8; stroke-linejoin: miter; stroke-linecap: square"/>
   </g>
  </g>
 </g>
 <defs>
  <clipPath id="p4e4d451586">
   <rect x="82.8" y="19.8" width="626.4" height="293.4"/>
  </clipPath>
 </defs>
</svg>
