<?xml version="1.0" encoding="utf-8" standalone="no"?>
<!DOCTYPE svg PUBLIC "-//W3C//DTD SVG 1.1//EN"
  "http://www.w3.org/Graphics/SVG/1.1/DTD/svg11.dtd">
<svg xmlns:xlink="http://www.w3.org/1999/xlink" width="720pt" height="360pt" viewBox="0 0 720 360" xmlns="http://www.w3.org/2000/svg" version="1.1">
 <metadata>
  <rdf:RDF xmlns:dc="http://purl.org/dc/elements/1.1/" xmlns:cc="http://creativecommons.org/ns#" xmlns:rdf="http://www.w3.org/1999/02/22-rdf-syntax-ns#">
   <cc:Work>
    <dc:type rdf:resource="http://purl.org/dc/dcmitype/StillImage"/>
    <dc:date>2024-08-06T11:50:35.033208</dc:date>
    <dc:format>image/svg+xml</dc:format>
    <dc:creator>
     <cc:Agent>
      <dc:title>Matplotlib v3.8.3, https://matplotlib.org/</dc:title>
     </cc:Agent>
    </dc:creator>
   </cc:Work>
  </rdf:RDF>
 </metadata>
 <defs>
  <style type="text/css">*{stroke-linejoin: round; stroke-linecap: butt}</style>
 </defs>
 <g id="figure_1">
  <g id="patch_1">
   <path d="M 0 360 
L 720 360 
L 720 0 
L 0 0 
z
" style="fill: #ffffff"/>
  </g>
  <g id="axes_1">
   <g id="patch_2">
    <path d="M 82.8 313.2 
L 709.2 313.2 
L 709.2 19.8 
L 82.8 19.8 
z
" style="fill: #ffffff"/>
   </g>
   <g id="matplotlib.axis_1">
    <g id="xtick_1">
     <g id="line2d_1">
      <path d="M 88.709434 313.2 
L 88.709434 19.8 
" clip-path="url(#pd68a00c077)" style="fill: none; stroke-dasharray: 2.96,1.28; stroke-dashoffset: 0; stroke: #bdc3c7; stroke-width: 0.8"/>
     </g>
     <g id="line2d_2">
      <defs>
       <path id="mdc136e55c7" d="M 0 0 
L 0 -3.5 
" style="stroke: #000000; stroke-width: 0.8"/>
      </defs>
      <g>
       <use xlink:href="#mdc136e55c7" x="88.709434" y="313.2" style="stroke: #000000; stroke-width: 0.8"/>
      </g>
     </g>
     <g id="text_1">
      <!-- 0 -->
      <g transform="translate(82.983184 330.377187) scale(0.18 -0.18)">
       <defs>
        <path id="DejaVuSans-30" d="M 2034 4250 
Q 1547 4250 1301 3770 
Q 1056 3291 1056 2328 
Q 1056 1369 1301 889 
Q 1547 409 2034 409 
Q 2525 409 2770 889 
Q 3016 1369 3016 2328 
Q 3016 3291 2770 3770 
Q 2525 4250 2034 4250 
z
M 2034 4750 
Q 2819 4750 3233 4129 
Q 3647 3509 3647 2328 
Q 3647 1150 3233 529 
Q 2819 -91 2034 -91 
Q 1250 -91 836 529 
Q 422 1150 422 2328 
Q 422 3509 836 4129 
Q 1250 4750 2034 4750 
z
" transform="scale(0.015625)"/>
       </defs>
       <use xlink:href="#DejaVuSans-30"/>
      </g>
     </g>
    </g>
    <g id="xtick_2">
     <g id="line2d_3">
      <path d="M 206.898113 313.2 
L 206.898113 19.8 
" clip-path="url(#pd68a00c077)" style="fill: none; stroke-dasharray: 2.96,1.28; stroke-dashoffset: 0; stroke: #bdc3c7; stroke-width: 0.8"/>
     </g>
     <g id="line2d_4">
      <g>
       <use xlink:href="#mdc136e55c7" x="206.898113" y="313.2" style="stroke: #000000; stroke-width: 0.8"/>
      </g>
     </g>
     <g id="text_2">
      <!-- 100 -->
      <g transform="translate(189.719363 330.377187) scale(0.18 -0.18)">
       <defs>
        <path id="DejaVuSans-31" d="M 794 531 
L 1825 531 
L 1825 4091 
L 703 3866 
L 703 4441 
L 1819 4666 
L 2450 4666 
L 2450 531 
L 3481 531 
L 3481 0 
L 794 0 
L 794 531 
z
" transform="scale(0.015625)"/>
       </defs>
       <use xlink:href="#DejaVuSans-31"/>
       <use xlink:href="#DejaVuSans-30" x="63.623047"/>
       <use xlink:href="#DejaVuSans-30" x="127.246094"/>
      </g>
     </g>
    </g>
    <g id="xtick_3">
     <g id="line2d_5">
      <path d="M 325.086792 313.2 
L 325.086792 19.8 
" clip-path="url(#pd68a00c077)" style="fill: none; stroke-dasharray: 2.96,1.28; stroke-dashoffset: 0; stroke: #bdc3c7; stroke-width: 0.8"/>
     </g>
     <g id="line2d_6">
      <g>
       <use xlink:href="#mdc136e55c7" x="325.086792" y="313.2" style="stroke: #000000; stroke-width: 0.8"/>
      </g>
     </g>
     <g id="text_3">
      <!-- 200 -->
      <g transform="translate(307.908042 330.377187) scale(0.18 -0.18)">
       <defs>
        <path id="DejaVuSans-32" d="M 1228 531 
L 3431 531 
L 3431 0 
L 469 0 
L 469 531 
Q 828 903 1448 1529 
Q 2069 2156 2228 2338 
Q 2531 2678 2651 2914 
Q 2772 3150 2772 3378 
Q 2772 3750 2511 3984 
Q 2250 4219 1831 4219 
Q 1534 4219 1204 4116 
Q 875 4013 500 3803 
L 500 4441 
Q 881 4594 1212 4672 
Q 1544 4750 1819 4750 
Q 2544 4750 2975 4387 
Q 3406 4025 3406 3419 
Q 3406 3131 3298 2873 
Q 3191 2616 2906 2266 
Q 2828 2175 2409 1742 
Q 1991 1309 1228 531 
z
" transform="scale(0.015625)"/>
       </defs>
       <use xlink:href="#DejaVuSans-32"/>
       <use xlink:href="#DejaVuSans-30" x="63.623047"/>
       <use xlink:href="#DejaVuSans-30" x="127.246094"/>
      </g>
     </g>
    </g>
    <g id="xtick_4">
     <g id="line2d_7">
      <path d="M 443.275472 313.2 
L 443.275472 19.8 
" clip-path="url(#pd68a00c077)" style="fill: none; stroke-dasharray: 2.96,1.28; stroke-dashoffset: 0; stroke: #bdc3c7; stroke-width: 0.8"/>
     </g>
     <g id="line2d_8">
      <g>
       <use xlink:href="#mdc136e55c7" x="443.275472" y="313.2" style="stroke: #000000; stroke-width: 0.8"/>
      </g>
     </g>
     <g id="text_4">
      <!-- 300 -->
      <g transform="translate(426.096722 330.377187) scale(0.18 -0.18)">
       <defs>
        <path id="DejaVuSans-33" d="M 2597 2516 
Q 3050 2419 3304 2112 
Q 3559 1806 3559 1356 
Q 3559 666 3084 287 
Q 2609 -91 1734 -91 
Q 1441 -91 1130 -33 
Q 819 25 488 141 
L 488 750 
Q 750 597 1062 519 
Q 1375 441 1716 441 
Q 2309 441 2620 675 
Q 2931 909 2931 1356 
Q 2931 1769 2642 2001 
Q 2353 2234 1838 2234 
L 1294 2234 
L 1294 2753 
L 1863 2753 
Q 2328 2753 2575 2939 
Q 2822 3125 2822 3475 
Q 2822 3834 2567 4026 
Q 2313 4219 1838 4219 
Q 1578 4219 1281 4162 
Q 984 4106 628 3988 
L 628 4550 
Q 988 4650 1302 4700 
Q 1616 4750 1894 4750 
Q 2613 4750 3031 4423 
Q 3450 4097 3450 3541 
Q 3450 3153 3228 2886 
Q 3006 2619 2597 2516 
z
" transform="scale(0.015625)"/>
       </defs>
       <use xlink:href="#DejaVuSans-33"/>
       <use xlink:href="#DejaVuSans-30" x="63.623047"/>
       <use xlink:href="#DejaVuSans-30" x="127.246094"/>
      </g>
     </g>
    </g>
    <g id="xtick_5">
     <g id="line2d_9">
      <path d="M 561.464151 313.2 
L 561.464151 19.8 
" clip-path="url(#pd68a00c077)" style="fill: none; stroke-dasharray: 2.96,1.28; stroke-dashoffset: 0; stroke: #bdc3c7; stroke-width: 0.8"/>
     </g>
     <g id="line2d_10">
      <g>
       <use xlink:href="#mdc136e55c7" x="561.464151" y="313.2" style="stroke: #000000; stroke-width: 0.8"/>
      </g>
     </g>
     <g id="text_5">
      <!-- 400 -->
      <g transform="translate(544.285401 330.377187) scale(0.18 -0.18)">
       <defs>
        <path id="DejaVuSans-34" d="M 2419 4116 
L 825 1625 
L 2419 1625 
L 2419 4116 
z
M 2253 4666 
L 3047 4666 
L 3047 1625 
L 3713 1625 
L 3713 1100 
L 3047 1100 
L 3047 0 
L 2419 0 
L 2419 1100 
L 313 1100 
L 313 1709 
L 2253 4666 
z
" transform="scale(0.015625)"/>
       </defs>
       <use xlink:href="#DejaVuSans-34"/>
       <use xlink:href="#DejaVuSans-30" x="63.623047"/>
       <use xlink:href="#DejaVuSans-30" x="127.246094"/>
      </g>
     </g>
    </g>
    <g id="xtick_6">
     <g id="line2d_11">
      <path d="M 679.65283 313.2 
L 679.65283 19.8 
" clip-path="url(#pd68a00c077)" style="fill: none; stroke-dasharray: 2.96,1.28; stroke-dashoffset: 0; stroke: #bdc3c7; stroke-width: 0.8"/>
     </g>
     <g id="line2d_12">
      <g>
       <use xlink:href="#mdc136e55c7" x="679.65283" y="313.2" style="stroke: #000000; stroke-width: 0.8"/>
      </g>
     </g>
     <g id="text_6">
      <!-- 500 -->
      <g transform="translate(662.47408 330.377187) scale(0.18 -0.18)">
       <defs>
        <path id="DejaVuSans-35" d="M 691 4666 
L 3169 4666 
L 3169 4134 
L 1269 4134 
L 1269 2991 
Q 1406 3038 1543 3061 
Q 1681 3084 1819 3084 
Q 2600 3084 3056 2656 
Q 3513 2228 3513 1497 
Q 3513 744 3044 326 
Q 2575 -91 1722 -91 
Q 1428 -91 1123 -41 
Q 819 9 494 109 
L 494 744 
Q 775 591 1075 516 
Q 1375 441 1709 441 
Q 2250 441 2565 725 
Q 2881 1009 2881 1497 
Q 2881 1984 2565 2268 
Q 2250 2553 1709 2553 
Q 1456 2553 1204 2497 
Q 953 2441 691 2322 
L 691 4666 
z
" transform="scale(0.015625)"/>
       </defs>
       <use xlink:href="#DejaVuSans-35"/>
       <use xlink:href="#DejaVuSans-30" x="63.623047"/>
       <use xlink:href="#DejaVuSans-30" x="127.246094"/>
      </g>
     </g>
    </g>
    <g id="text_7">
     <!-- Time(s) -->
     <g transform="translate(358.434375 354.785625) scale(0.24 -0.24)">
      <defs>
       <path id="TimesNewRomanPSMT-54" d="M 3703 4238 
L 3750 3244 
L 3631 3244 
Q 3597 3506 3538 3619 
Q 3441 3800 3280 3886 
Q 3119 3972 2856 3972 
L 2259 3972 
L 2259 734 
Q 2259 344 2344 247 
Q 2463 116 2709 116 
L 2856 116 
L 2856 0 
L 1059 0 
L 1059 116 
L 1209 116 
Q 1478 116 1591 278 
Q 1659 378 1659 734 
L 1659 3972 
L 1150 3972 
Q 853 3972 728 3928 
Q 566 3869 450 3700 
Q 334 3531 313 3244 
L 194 3244 
L 244 4238 
L 3703 4238 
z
" transform="scale(0.015625)"/>
       <path id="TimesNewRomanPSMT-69" d="M 928 4444 
Q 1059 4444 1151 4351 
Q 1244 4259 1244 4128 
Q 1244 3997 1151 3903 
Q 1059 3809 928 3809 
Q 797 3809 703 3903 
Q 609 3997 609 4128 
Q 609 4259 701 4351 
Q 794 4444 928 4444 
z
M 1188 2947 
L 1188 647 
Q 1188 378 1227 289 
Q 1266 200 1342 156 
Q 1419 113 1622 113 
L 1622 0 
L 231 0 
L 231 113 
Q 441 113 512 153 
Q 584 194 626 287 
Q 669 381 669 647 
L 669 1750 
Q 669 2216 641 2353 
Q 619 2453 572 2492 
Q 525 2531 444 2531 
Q 356 2531 231 2484 
L 188 2597 
L 1050 2947 
L 1188 2947 
z
" transform="scale(0.015625)"/>
       <path id="TimesNewRomanPSMT-6d" d="M 1050 2338 
Q 1363 2650 1419 2697 
Q 1559 2816 1721 2881 
Q 1884 2947 2044 2947 
Q 2313 2947 2506 2790 
Q 2700 2634 2766 2338 
Q 3088 2713 3309 2830 
Q 3531 2947 3766 2947 
Q 3994 2947 4170 2830 
Q 4347 2713 4450 2447 
Q 4519 2266 4519 1878 
L 4519 647 
Q 4519 378 4559 278 
Q 4591 209 4675 161 
Q 4759 113 4950 113 
L 4950 0 
L 3538 0 
L 3538 113 
L 3597 113 
Q 3781 113 3884 184 
Q 3956 234 3988 344 
Q 4000 397 4000 647 
L 4000 1878 
Q 4000 2228 3916 2372 
Q 3794 2572 3525 2572 
Q 3359 2572 3192 2489 
Q 3025 2406 2788 2181 
L 2781 2147 
L 2788 2013 
L 2788 647 
Q 2788 353 2820 281 
Q 2853 209 2943 161 
Q 3034 113 3253 113 
L 3253 0 
L 1806 0 
L 1806 113 
Q 2044 113 2133 169 
Q 2222 225 2256 338 
Q 2272 391 2272 647 
L 2272 1878 
Q 2272 2228 2169 2381 
Q 2031 2581 1784 2581 
Q 1616 2581 1450 2491 
Q 1191 2353 1050 2181 
L 1050 647 
Q 1050 366 1089 281 
Q 1128 197 1204 155 
Q 1281 113 1516 113 
L 1516 0 
L 100 0 
L 100 113 
Q 297 113 375 155 
Q 453 197 493 289 
Q 534 381 534 647 
L 534 1741 
Q 534 2213 506 2350 
Q 484 2453 437 2492 
Q 391 2531 309 2531 
Q 222 2531 100 2484 
L 53 2597 
L 916 2947 
L 1050 2947 
L 1050 2338 
z
" transform="scale(0.015625)"/>
       <path id="TimesNewRomanPSMT-65" d="M 681 1784 
Q 678 1147 991 784 
Q 1303 422 1725 422 
Q 2006 422 2214 576 
Q 2422 731 2563 1106 
L 2659 1044 
Q 2594 616 2278 264 
Q 1963 -88 1488 -88 
Q 972 -88 605 314 
Q 238 716 238 1394 
Q 238 2128 614 2539 
Q 991 2950 1559 2950 
Q 2041 2950 2350 2633 
Q 2659 2316 2659 1784 
L 681 1784 
z
M 681 1966 
L 2006 1966 
Q 1991 2241 1941 2353 
Q 1863 2528 1708 2628 
Q 1553 2728 1384 2728 
Q 1125 2728 920 2526 
Q 716 2325 681 1966 
z
" transform="scale(0.015625)"/>
       <path id="TimesNewRomanPSMT-28" d="M 1988 -1253 
L 1988 -1369 
Q 1516 -1131 1200 -813 
Q 750 -359 506 256 
Q 263 872 263 1534 
Q 263 2503 741 3301 
Q 1219 4100 1988 4444 
L 1988 4313 
Q 1603 4100 1356 3731 
Q 1109 3363 987 2797 
Q 866 2231 866 1616 
Q 866 947 969 400 
Q 1050 -31 1165 -292 
Q 1281 -553 1476 -793 
Q 1672 -1034 1988 -1253 
z
" transform="scale(0.015625)"/>
       <path id="TimesNewRomanPSMT-73" d="M 2050 2947 
L 2050 1972 
L 1947 1972 
Q 1828 2431 1642 2597 
Q 1456 2763 1169 2763 
Q 950 2763 815 2647 
Q 681 2531 681 2391 
Q 681 2216 781 2091 
Q 878 1963 1175 1819 
L 1631 1597 
Q 2266 1288 2266 781 
Q 2266 391 1970 151 
Q 1675 -88 1309 -88 
Q 1047 -88 709 6 
Q 606 38 541 38 
Q 469 38 428 -44 
L 325 -44 
L 325 978 
L 428 978 
Q 516 541 762 319 
Q 1009 97 1316 97 
Q 1531 97 1667 223 
Q 1803 350 1803 528 
Q 1803 744 1651 891 
Q 1500 1038 1047 1263 
Q 594 1488 453 1669 
Q 313 1847 313 2119 
Q 313 2472 555 2709 
Q 797 2947 1181 2947 
Q 1350 2947 1591 2875 
Q 1750 2828 1803 2828 
Q 1853 2828 1881 2850 
Q 1909 2872 1947 2947 
L 2050 2947 
z
" transform="scale(0.015625)"/>
       <path id="TimesNewRomanPSMT-29" d="M 144 4313 
L 144 4444 
Q 619 4209 934 3891 
Q 1381 3434 1625 2820 
Q 1869 2206 1869 1541 
Q 1869 572 1392 -226 
Q 916 -1025 144 -1369 
L 144 -1253 
Q 528 -1038 776 -670 
Q 1025 -303 1145 264 
Q 1266 831 1266 1447 
Q 1266 2113 1163 2663 
Q 1084 3094 967 3353 
Q 850 3613 656 3853 
Q 463 4094 144 4313 
z
" transform="scale(0.015625)"/>
      </defs>
      <use xlink:href="#TimesNewRomanPSMT-54"/>
      <use xlink:href="#TimesNewRomanPSMT-69" x="57.583984"/>
      <use xlink:href="#TimesNewRomanPSMT-6d" x="85.367188"/>
      <use xlink:href="#TimesNewRomanPSMT-65" x="163.150391"/>
      <use xlink:href="#TimesNewRomanPSMT-28" x="207.535156"/>
      <use xlink:href="#TimesNewRomanPSMT-73" x="240.835938"/>
      <use xlink:href="#TimesNewRomanPSMT-29" x="279.751953"/>
     </g>
    </g>
   </g>
   <g id="matplotlib.axis_2">
    <g id="ytick_1">
     <g id="line2d_13">
      <path d="M 82.8 274.08 
L 709.2 274.08 
" clip-path="url(#pd68a00c077)" style="fill: none; stroke-dasharray: 2.96,1.28; stroke-dashoffset: 0; stroke: #bdc3c7; stroke-width: 0.8"/>
     </g>
     <g id="line2d_14">
      <defs>
       <path id="m65dc36bab7" d="M 0 0 
L 3.5 0 
" style="stroke: #000000; stroke-width: 0.8"/>
      </defs>
      <g>
       <use xlink:href="#m65dc36bab7" x="82.8" y="274.08" style="stroke: #000000; stroke-width: 0.8"/>
      </g>
     </g>
     <g id="text_8">
      <!-- −100 -->
      <g transform="translate(29.859063 280.918594) scale(0.18 -0.18)">
       <defs>
        <path id="DejaVuSans-2212" d="M 678 2272 
L 4684 2272 
L 4684 1741 
L 678 1741 
L 678 2272 
z
" transform="scale(0.015625)"/>
       </defs>
       <use xlink:href="#DejaVuSans-2212"/>
       <use xlink:href="#DejaVuSans-31" x="83.789062"/>
       <use xlink:href="#DejaVuSans-30" x="147.412109"/>
       <use xlink:href="#DejaVuSans-30" x="211.035156"/>
      </g>
     </g>
    </g>
    <g id="ytick_2">
     <g id="line2d_15">
      <path d="M 82.8 225.18 
L 709.2 225.18 
" clip-path="url(#pd68a00c077)" style="fill: none; stroke-dasharray: 2.96,1.28; stroke-dashoffset: 0; stroke: #bdc3c7; stroke-width: 0.8"/>
     </g>
     <g id="line2d_16">
      <g>
       <use xlink:href="#m65dc36bab7" x="82.8" y="225.18" style="stroke: #000000; stroke-width: 0.8"/>
      </g>
     </g>
     <g id="text_9">
      <!-- −50 -->
      <g transform="translate(41.311563 232.018594) scale(0.18 -0.18)">
       <use xlink:href="#DejaVuSans-2212"/>
       <use xlink:href="#DejaVuSans-35" x="83.789062"/>
       <use xlink:href="#DejaVuSans-30" x="147.412109"/>
      </g>
     </g>
    </g>
    <g id="ytick_3">
     <g id="line2d_17">
      <path d="M 82.8 176.28 
L 709.2 176.28 
" clip-path="url(#pd68a00c077)" style="fill: none; stroke-dasharray: 2.96,1.28; stroke-dashoffset: 0; stroke: #bdc3c7; stroke-width: 0.8"/>
     </g>
     <g id="line2d_18">
      <g>
       <use xlink:href="#m65dc36bab7" x="82.8" y="176.28" style="stroke: #000000; stroke-width: 0.8"/>
      </g>
     </g>
     <g id="text_10">
      <!-- 0 -->
      <g transform="translate(67.8475 183.118594) scale(0.18 -0.18)">
       <use xlink:href="#DejaVuSans-30"/>
      </g>
     </g>
    </g>
    <g id="ytick_4">
     <g id="line2d_19">
      <path d="M 82.8 127.38 
L 709.2 127.38 
" clip-path="url(#pd68a00c077)" style="fill: none; stroke-dasharray: 2.96,1.28; stroke-dashoffset: 0; stroke: #bdc3c7; stroke-width: 0.8"/>
     </g>
     <g id="line2d_20">
      <g>
       <use xlink:href="#m65dc36bab7" x="82.8" y="127.38" style="stroke: #000000; stroke-width: 0.8"/>
      </g>
     </g>
     <g id="text_11">
      <!-- 50 -->
      <g transform="translate(56.395 134.218594) scale(0.18 -0.18)">
       <use xlink:href="#DejaVuSans-35"/>
       <use xlink:href="#DejaVuSans-30" x="63.623047"/>
      </g>
     </g>
    </g>
    <g id="ytick_5">
     <g id="line2d_21">
      <path d="M 82.8 78.48 
L 709.2 78.48 
" clip-path="url(#pd68a00c077)" style="fill: none; stroke-dasharray: 2.96,1.28; stroke-dashoffset: 0; stroke: #bdc3c7; stroke-width: 0.8"/>
     </g>
     <g id="line2d_22">
      <g>
       <use xlink:href="#m65dc36bab7" x="82.8" y="78.48" style="stroke: #000000; stroke-width: 0.8"/>
      </g>
     </g>
     <g id="text_12">
      <!-- 100 -->
      <g transform="translate(44.9425 85.318594) scale(0.18 -0.18)">
       <use xlink:href="#DejaVuSans-31"/>
       <use xlink:href="#DejaVuSans-30" x="63.623047"/>
       <use xlink:href="#DejaVuSans-30" x="127.246094"/>
      </g>
     </g>
    </g>
    <g id="ytick_6">
     <g id="line2d_23">
      <path d="M 82.8 29.58 
L 709.2 29.58 
" clip-path="url(#pd68a00c077)" style="fill: none; stroke-dasharray: 2.96,1.28; stroke-dashoffset: 0; stroke: #bdc3c7; stroke-width: 0.8"/>
     </g>
     <g id="line2d_24">
      <g>
       <use xlink:href="#m65dc36bab7" x="82.8" y="29.58" style="stroke: #000000; stroke-width: 0.8"/>
      </g>
     </g>
     <g id="text_13">
      <!-- 150 -->
      <g transform="translate(44.9425 36.418594) scale(0.18 -0.18)">
       <use xlink:href="#DejaVuSans-31"/>
       <use xlink:href="#DejaVuSans-35" x="63.623047"/>
       <use xlink:href="#DejaVuSans-30" x="127.246094"/>
      </g>
     </g>
    </g>
    <g id="text_14">
     <!-- Z(m) -->
     <g transform="translate(20.725313 191.154375) rotate(-90) scale(0.24 -0.24)">
      <defs>
       <path id="TimesNewRomanPSMT-5a" d="M 3681 4238 
L 897 256 
L 2634 256 
Q 3034 256 3248 431 
Q 3463 606 3628 1141 
L 3731 1122 
L 3531 0 
L 81 0 
L 81 116 
L 2800 3984 
L 1444 3984 
Q 1106 3984 954 3911 
Q 803 3838 723 3698 
Q 644 3559 578 3178 
L 459 3178 
L 547 4238 
L 3681 4238 
z
" transform="scale(0.015625)"/>
      </defs>
      <use xlink:href="#TimesNewRomanPSMT-5a"/>
      <use xlink:href="#TimesNewRomanPSMT-28" x="61.083984"/>
      <use xlink:href="#TimesNewRomanPSMT-6d" x="94.384766"/>
      <use xlink:href="#TimesNewRomanPSMT-29" x="172.167969"/>
     </g>
    </g>
   </g>
   <g id="line2d_25">
    <path d="M 88.709434 176.28 
L 91.088244 176.180311 
L 94.90173 175.805477 
L 97.284923 175.532422 
L 99.191545 175.320918 
L 101.097889 175.041879 
L 111.106666 173.474916 
L 131.601512 170.569058 
L 136.367809 170.220927 
L 138.273825 170.332834 
L 142.087043 169.862562 
L 143.516731 169.68093 
L 144.946744 169.413572 
L 147.329787 169.081151 
L 149.713196 168.854316 
L 151.619079 168.773474 
L 154.47906 168.826398 
L 166.156264 169.837278 
L 168.301169 169.902406 
L 181.64631 170.738449 
L 183.791135 170.647923 
L 194.753477 169.609221 
L 199.043151 168.694626 
L 199.996317 168.478265 
L 201.902714 168.202536 
L 204.285739 167.976136 
L 205.953749 167.746072 
L 210.719875 166.192809 
L 213.579516 165.165728 
L 215.485984 164.740283 
L 216.915852 164.571788 
L 218.345551 164.471787 
L 219.29878 164.426704 
L 220.252407 164.345856 
L 221.682278 164.266389 
L 223.112154 164.098648 
L 227.900352 163.175148 
L 232.227263 162.119057 
L 244.192235 159.342393 
L 245.627131 158.92968 
L 256.620803 156.223615 
L 260.441428 155.387024 
L 269.514004 152.502707 
L 272.139418 151.516645 
L 276.196856 150.221294 
L 280.969019 148.812224 
L 282.878062 148.225617 
L 290.990197 145.849129 
L 295.761657 144.165558 
L 297.193132 143.774498 
L 299.101832 143.625991 
L 301.010303 143.726509 
L 303.395742 144.128787 
L 310.552341 145.791912 
L 311.506337 146.109377 
L 315.800415 147.392742 
L 326.772926 150.589277 
L 330.828269 151.378408 
L 341.5622 152.745144 
L 346.809834 153.100937 
L 349.672387 153.381476 
L 351.58048 153.71602 
L 355.396939 154.212377 
L 360.644641 154.331116 
L 364.461116 155.136404 
L 366.369371 155.608196 
L 368.277584 156.218211 
L 372.571057 157.633439 
L 377.341546 159.141731 
L 384.259179 160.772385 
L 386.644376 161.374627 
L 388.552511 161.775179 
L 391.892239 162.408554 
L 395.231396 162.812855 
L 400.001939 163.632895 
L 407.157857 164.754639 
L 409.543432 165.041103 
L 417.164829 166.119194 
L 420.484686 167.080291 
L 423.807826 168.090695 
L 429.033868 169.809528 
L 430.460038 170.297557 
L 433.31316 171.192375 
L 437.11901 172.253832 
L 441.878557 173.394244 
L 444.735033 173.898169 
L 448.30625 174.440006 
L 451.878475 174.642156 
L 454.974449 174.301894 
L 459.262396 173.800049 
L 465.456501 172.945131 
L 472.843313 172.25923 
L 484.520242 171.736117 
L 502.633427 174.498734 
L 506.685311 174.76537 
L 508.115397 174.814146 
L 512.882568 174.842095 
L 515.504166 175.027582 
L 519.079504 175.173554 
L 536.723216 176.271572 
L 537.915959 176.263037 
L 540.062909 176.342262 
L 541.494048 176.358573 
L 547.456974 176.210003 
L 549.841843 176.040954 
L 559.857894 175.071433 
L 564.627339 174.466949 
L 572.257528 173.532588 
L 577.026554 172.673834 
L 577.980106 172.499404 
L 582.272117 171.888236 
L 584.656131 171.658658 
L 595.623457 170.440182 
L 597.053969 170.597389 
L 599.91484 170.641938 
L 605.159774 170.5674 
L 607.543812 170.24722 
L 608.020562 170.026517 
L 609.451065 169.748135 
L 611.358207 169.318645 
L 615.172923 168.477361 
L 617.080051 168.240793 
L 619.463792 168.295835 
L 624.708402 168.904074 
L 627.569197 168.691592 
L 629.953419 168.262372 
L 633.767388 167.251923 
L 636.628389 166.421671 
L 641.396135 165.012286 
L 648.070859 162.881939 
L 656.652713 160.389794 
L 659.036884 159.927274 
L 673.347384 157.974637 
L 675.731721 158.008736 
L 678.11502 158.19274 
L 689.557686 156.608054 
L 689.557686 156.608054 
" clip-path="url(#pd68a00c077)" style="fill: none; stroke-dasharray: 10.175,4.4; stroke-dashoffset: 0; stroke: #808a87; stroke-width: 2.75"/>
   </g>
   <g id="line2d_26">
    <path d="M 89.182189 176.28 
L 93.471949 175.70103 
L 94.186939 175.580729 
L 94.90173 175.486214 
L 95.974068 175.282782 
L 96.927702 175.198485 
L 97.880486 175.001305 
L 98.476467 174.912194 
L 116.588026 172.333034 
L 117.779541 172.150953 
L 118.971286 171.950002 
L 120.877571 171.520713 
L 121.473481 171.387498 
L 122.307512 171.197759 
L 124.094644 170.768803 
L 125.048281 170.488136 
L 125.881856 170.327076 
L 128.503524 169.735165 
L 128.98018 169.597272 
L 134.342283 168.350822 
L 135.057011 168.093142 
L 135.414427 167.987849 
L 135.891087 167.842181 
L 136.248528 167.78187 
L 137.320863 167.606087 
L 137.797458 167.560881 
L 146.614859 164.597107 
L 147.210694 164.392752 
L 151.738576 163.089945 
L 153.883509 162.886194 
L 155.789882 162.88376 
L 156.266498 162.924543 
L 156.981308 162.987236 
L 157.934631 163.014551 
L 158.292136 163.071936 
L 159.245317 163.101622 
L 164.488315 163.468764 
L 165.32257 163.496379 
L 171.876031 163.330755 
L 173.783939 163.076214 
L 174.616357 162.968291 
L 175.688724 162.817344 
L 176.880495 162.759097 
L 177.953001 162.746338 
L 180.693085 162.628028 
L 182.361399 162.345747 
L 190.702135 159.975258 
L 192.012849 159.302334 
L 193.204162 158.669683 
L 194.038203 158.20697 
L 197.493797 156.239228 
L 198.447009 155.610337 
L 202.498226 153.609539 
L 204.523761 152.985577 
L 204.76223 153.014739 
L 208.336803 151.875857 
L 209.051747 151.620439 
L 209.409411 151.485981 
L 210.839094 151.07137 
L 212.268907 150.641174 
L 212.507267 150.585464 
L 215.12861 150.045007 
L 215.962632 150.010507 
L 216.915852 149.903527 
L 218.703218 149.77201 
L 220.371366 149.594503 
L 220.848044 149.562467 
L 222.873634 149.184866 
L 223.469319 149.038076 
L 225.257898 148.507243 
L 236.293226 143.55042 
L 237.730923 142.741042 
L 239.047437 141.98584 
L 239.526373 141.806568 
L 239.765796 141.61331 
L 240.483902 141.227039 
L 241.321551 140.737052 
L 243.713756 139.345024 
L 245.387956 138.284763 
L 246.224847 137.805933 
L 247.539659 137.033143 
L 249.930377 135.745947 
L 252.081625 134.43442 
L 254.231622 133.176433 
L 258.29219 131.309229 
L 261.993681 128.944076 
L 263.545804 127.860512 
L 265.216889 126.535474 
L 267.365811 124.681205 
L 274.287385 118.207247 
L 275.122619 117.575277 
L 276.793306 116.433851 
L 277.270488 116.153234 
L 278.940835 115.104757 
L 280.253244 114.216496 
L 284.906294 111.301117 
L 291.944535 107.303195 
L 292.899088 106.704977 
L 295.403877 105.210829 
L 296.715481 104.551189 
L 297.551163 104.433969 
L 299.101832 104.582931 
L 300.056 104.853219 
L 301.964367 105.709107 
L 305.900686 108.75902 
L 307.689595 110.430196 
L 309.836679 112.232419 
L 315.084525 117.609883 
L 325.818899 128.790444 
L 329.873989 131.900789 
L 330.350941 132.191198 
L 332.736696 133.597044 
L 336.791801 135.518329 
L 339.892332 136.380388 
L 353.965791 138.960571 
L 358.617093 139.126481 
L 360.28687 139.134648 
L 361.717951 139.258214 
L 362.672073 139.316769 
L 369.231671 139.468506 
L 373.52559 139.602454 
L 374.837133 139.682236 
L 375.553082 139.763467 
L 380.681178 140.57652 
L 381.993035 141.045996 
L 385.690062 142.711188 
L 386.405837 142.970969 
L 386.882901 143.175722 
L 387.479189 143.368749 
L 390.341572 144.542918 
L 398.212887 146.259033 
L 404.414926 146.897048 
L 407.157857 146.810989 
L 407.992674 146.758442 
L 408.589158 146.738854 
L 413.359679 146.488771 
L 414.313786 146.423028 
L 414.909951 146.381398 
L 415.506186 146.376591 
L 416.927635 146.525007 
L 417.994664 146.67912 
L 419.179897 146.800388 
L 419.654554 146.922711 
L 421.196857 147.295186 
L 422.14616 147.514977 
L 423.095532 147.684063 
L 424.282701 147.855883 
L 424.87628 147.976663 
L 426.301323 148.197867 
L 429.033868 148.707868 
L 430.935813 149.091524 
L 432.005448 149.197585 
L 439.617384 149.307078 
L 441.997725 149.14459 
L 443.306639 149.080614 
L 446.044607 148.843264 
L 451.163808 148.072878 
L 451.997537 147.922853 
L 453.426578 147.729798 
L 454.974449 147.440088 
L 455.80806 147.269211 
L 460.215183 146.099087 
L 461.406539 145.787354 
L 464.384357 144.915893 
L 466.290447 144.275845 
L 467.243625 143.938649 
L 469.745331 143.272403 
L 475.821946 142.493461 
L 480.945705 142.221126 
L 482.375307 141.868829 
L 485.235211 140.679074 
L 488.333328 139.10737 
L 490.359421 137.670724 
L 491.312535 136.967414 
L 495.72166 133.798766 
L 496.675263 133.099203 
L 497.270921 132.763151 
L 497.747741 132.495962 
L 498.462826 132.156325 
L 501.680019 131.004239 
L 503.467891 130.303073 
L 504.659454 129.727923 
L 505.851096 129.404375 
L 508.353912 129.129929 
L 512.286438 128.865385 
L 514.67018 128.160002 
L 518.483544 126.3955 
L 519.31803 125.972632 
L 519.675147 125.827539 
L 522.535757 124.55439 
L 523.727471 124.096337 
L 524.442653 123.819669 
L 525.157377 123.595282 
L 529.44766 122.073076 
L 531.952153 121.289019 
L 537.677511 119.348523 
L 538.393074 119.172348 
L 541.374753 118.252606 
L 542.925185 117.763609 
L 543.879191 117.490576 
L 546.502655 116.688566 
L 547.337499 116.359658 
L 547.814732 116.185771 
L 548.64949 115.767365 
L 551.749854 114.460301 
L 552.345927 114.252287 
L 552.70369 114.079925 
L 553.419071 113.85177 
L 559.142858 111.286898 
L 560.811991 110.554162 
L 563.315692 109.517855 
L 564.269577 109.052897 
L 564.746486 108.814517 
L 565.46206 108.457628 
L 566.177064 108.141764 
L 567.250173 107.647471 
L 567.965427 107.382318 
L 569.277249 106.92255 
L 570.111508 106.725131 
L 572.138233 106.112187 
L 572.854098 105.965006 
L 574.761243 105.754462 
L 575.953459 105.871169 
L 576.90726 106.128964 
L 579.172383 107.614858 
L 579.768439 108.160408 
L 581.55689 110.110322 
L 583.344845 111.906953 
L 584.894749 113.434723 
L 586.206064 114.688466 
L 588.113178 116.670535 
L 589.186161 117.588378 
L 590.616578 118.813671 
L 595.861713 122.912876 
L 597.17308 123.557676 
L 598.126727 123.988149 
L 599.31883 124.331824 
L 604.921552 126.537039 
L 608.258878 128.331475 
L 612.073458 130.551911 
L 613.503666 131.504667 
L 615.530463 132.811049 
L 616.960534 133.544961 
L 618.152462 133.905975 
L 619.225731 134.072871 
L 619.940568 134.077998 
L 621.728584 133.829037 
L 623.755056 133.72726 
L 624.232023 133.77534 
L 624.968444 133.891008 
L 629.833876 136.008617 
L 632.695012 137.723134 
L 636.509123 140.570636 
L 637.224226 141.181523 
L 639.488754 142.828141 
L 643.66071 146.107462 
L 647.474781 149.213927 
L 647.951584 149.541735 
L 648.666686 150.069793 
L 650.097077 151.164796 
L 651.646765 152.248315 
L 655.460814 154.272303 
L 656.89106 154.666383 
L 658.321695 154.783614 
L 661.420389 154.45507 
L 661.777951 154.378838 
L 662.850551 154.214863 
L 666.315283 153.435538 
L 670.009917 152.351317 
L 670.844427 152.0393 
L 672.036192 151.687136 
L 672.632239 151.48366 
L 673.228186 151.344427 
L 675.49265 150.869589 
L 676.446413 150.760957 
L 678.830394 149.801173 
L 682.76364 147.100925 
L 684.551409 145.856961 
L 690.153587 141.894282 
L 690.153587 141.894282 
" clip-path="url(#pd68a00c077)" style="fill: none; stroke: #0000ff; stroke-width: 2; stroke-linecap: square"/>
   </g>
   <g id="line2d_27">
    <path d="M 90.017227 176.28 
L 91.327118 176.187579 
L 93.471949 175.801117 
L 93.829201 175.811286 
L 95.378721 175.495008 
L 100.144564 174.610678 
L 101.097889 174.493471 
L 101.097889 174.493471 
L 101.931923 174.330201 
L 103.71915 174.008911 
L 104.553339 173.844485 
L 107.889876 173.208801 
L 109.676851 172.799594 
L 110.034606 172.724578 
L 115.515804 170.812964 
L 125.167253 166.582792 
L 131.005806 163.704204 
L 136.844343 161.030333 
L 137.082563 161.01498 
L 138.393394 160.506271 
L 140.538158 159.452467 
L 144.232073 157.524102 
L 145.542462 156.738338 
L 145.542462 156.738338 
L 146.614859 156.174838 
L 147.210694 155.980949 
L 151.500308 154.222425 
L 153.525952 153.854556 
L 155.909249 153.644539 
L 156.147235 153.702293 
L 156.86223 153.649794 
L 157.220045 153.682225 
L 157.934631 153.723234 
L 158.649627 153.718724 
L 160.67521 153.730049 
L 162.462482 153.758744 
L 165.441307 153.695814 
L 167.109322 153.420698 
L 169.134819 153.13452 
L 173.544056 152.459983 
L 174.258764 152.311455 
L 174.258764 152.311455 
L 175.807748 151.983954 
L 176.880495 151.746082 
L 177.475984 151.622583 
L 185.459233 150.198711 
L 186.29309 150.228035 
L 193.680819 150.534015 
L 195.944659 150.296144 
L 198.685238 149.732636 
L 199.876857 149.487914 
L 201.306817 149.433257 
L 201.545334 149.567345 
L 202.736669 149.610207 
L 203.571088 149.599777 
L 207.026135 149.539672 
L 207.622195 149.403302 
L 209.051747 149.266258 
L 209.88585 149.199205 
L 210.719875 149.093729 
L 212.745856 148.848839 
L 213.222184 148.806703 
L 214.175785 148.74821 
L 217.630921 148.897183 
L 221.444183 149.343134 
L 222.635574 149.304951 
L 224.661 149.032604 
L 226.939653 148.607746 
L 227.540285 148.526006 
L 236.293226 146.224608 
L 237.371223 145.891972 
L 238.089585 145.710071 
L 239.40667 145.367972 
L 239.526373 145.389047 
L 239.885606 145.243944 
L 240.483902 145.009664 
L 242.398087 144.401573 
L 248.256895 142.528053 
L 249.332832 142.158732 
L 250.886405 141.581349 
L 251.603217 141.254551 
L 253.037032 140.530681 
L 255.067591 139.486244 
L 256.620803 138.634917 
L 258.889372 137.209133 
L 261.158292 135.460068 
L 261.993681 134.831802 
L 264.73997 132.457031 
L 268.081515 129.20915 
L 268.797836 128.482895 
L 271.900942 125.137746 
L 272.258721 124.801053 
L 273.332731 123.740258 
L 273.69095 123.460098 
L 276.31592 121.349797 
L 279.537566 119.120865 
L 283.832355 116.086373 
L 294.21089 110.709131 
L 295.28459 110.106984 
L 295.642463 109.958126 
L 296.715481 109.504703 
L 299.459597 109.620295 
L 300.533065 109.961902 
L 301.248837 110.272983 
L 302.441656 110.884669 
L 303.156931 111.349071 
L 304.826965 112.477755 
L 307.212635 114.266435 
L 307.689595 114.582352 
L 308.166724 114.995458 
L 314.845908 120.802905 
L 315.44242 121.421671 
L 326.653851 131.813917 
L 327.733385 132.745136 
L 328.681513 133.544963 
L 331.901517 136.098796 
L 333.45206 137.319786 
L 334.048349 137.81064 
L 334.048349 137.81064 
L 336.791801 139.921743 
L 337.62624 140.57679 
L 341.323919 143.30073 
L 344.066695 144.928784 
L 345.498025 145.592733 
L 347.167641 146.322834 
L 349.672387 147.462781 
L 350.387871 147.872853 
L 352.534509 149.025024 
L 353.608049 149.377705 
L 355.277629 149.72997 
L 356.828294 149.79246 
L 360.28687 149.939761 
L 361.598785 150.319273 
L 367.68124 152.556712 
L 368.87393 153.227565 
L 369.708734 153.699803 
L 371.85541 154.841852 
L 373.048022 155.539272 
L 373.52559 155.824799 
L 375.910303 157.140523 
L 376.387488 157.441584 
L 377.818679 158.176766 
L 378.772885 158.626822 
L 383.185632 161.581561 
L 392.011222 168.152189 
L 394.038791 169.348732 
L 395.231396 170.090613 
L 397.855223 171.750761 
L 398.332303 172.058098 
L 399.644106 172.964152 
L 400.717658 173.712339 
L 401.194752 174.064875 
L 402.983503 175.301452 
L 411.451432 180.28355 
L 414.075258 181.637048 
L 414.790819 182.046976 
L 419.179897 184.253766 
L 420.010475 184.715785 
L 428.320873 189.041719 
L 429.033868 189.499817 
L 433.31316 191.787379 
L 440.688534 195.182459 
L 443.902089 196.307971 
L 448.544594 197.433638 
L 449.973107 197.428363 
L 451.163808 197.30041 
L 451.640176 197.154141 
L 451.997537 197.083171 
L 454.37913 196.188014 
L 455.927163 195.470065 
L 456.165485 195.403298 
L 465.456501 190.271996 
L 466.052108 189.895667 
L 468.196649 188.800305 
L 470.579426 187.900891 
L 473.200585 187.163602 
L 475.940977 186.606315 
L 478.085751 186.430244 
L 479.992388 186.243125 
L 481.422244 185.809133 
L 482.613797 185.359312 
L 482.613797 185.359312 
L 483.924397 185.050424 
L 485.235211 185.104483 
L 486.784042 185.452582 
L 489.286594 186.108839 
L 490.597289 186.569006 
L 497.032516 188.804152 
L 497.509111 189.079527 
L 497.509111 189.079527 
L 498.228245 189.474918 
L 503.944563 192.72107 
L 504.659454 193.019531 
L 505.017058 193.179423 
L 506.327837 193.441557 
L 509.068817 193.639839 
L 511.214043 193.671095 
L 513.001534 193.745761 
L 514.908375 193.869367 
L 517.172825 194.090027 
L 518.006962 194.166863 
L 518.841109 194.227197 
L 519.19877 194.292788 
L 519.914049 194.430504 
L 520.509725 194.476639 
L 523.250483 194.901064 
L 527.42157 195.419111 
L 528.136749 195.527599 
L 529.209299 195.636278 
L 531.236519 195.837508 
L 531.71381 195.878095 
L 532.310028 195.935344 
L 535.530679 196.298866 
L 536.007747 196.276336 
L 536.365426 196.351038 
L 539.466494 196.547283 
L 541.255293 196.358713 
L 541.851764 196.147563 
L 543.402133 195.592708 
L 544.833306 195.073764 
L 545.429692 194.855432 
L 547.337499 193.875666 
L 551.153464 191.606753 
L 551.630565 191.366022 
L 551.630565 191.366022 
L 553.180889 190.550198 
L 556.161472 188.797206 
L 556.877082 188.284013 
L 558.904276 186.884914 
L 559.380998 186.609395 
L 560.096304 186.10455 
L 561.169436 185.352224 
L 563.196609 183.967266 
L 563.792691 183.588696 
L 569.51553 179.879275 
L 574.642086 177.00921 
L 575.357336 176.664266 
L 577.860797 175.407579 
L 578.93404 175.13664 
L 579.172383 175.169571 
L 586.086813 173.816148 
L 588.470861 173.19653 
L 588.709253 173.181555 
L 593.12019 171.986403 
L 595.027335 171.778198 
L 595.861713 171.915589 
L 597.411532 172.371936 
L 599.080316 173.079801 
L 602.298843 174.088163 
L 603.610239 174.18278 
L 604.563924 174.122522 
L 607.662894 173.414457 
L 608.497437 173.145616 
L 609.093391 172.979189 
L 610.762112 172.409743 
L 613.384786 171.557201 
L 615.172923 171.075411 
L 616.007119 171.008955 
L 617.080051 171.093555 
L 619.463792 171.997148 
L 620.894199 172.796991 
L 622.801415 173.918177 
L 623.874042 174.512976 
L 625.304708 174.915217 
L 625.781299 175.006579 
L 626.377334 175.079769 
L 627.688315 174.976898 
L 631.502823 173.769632 
L 633.529076 172.865334 
L 645.329889 166.794098 
L 647.117227 165.787916 
L 647.832372 165.405552 
L 649.858647 164.399256 
L 652.004113 163.337699 
L 654.269003 161.952946 
L 654.864934 161.517264 
L 662.137186 156.653482 
L 666.672661 153.893832 
L 669.057017 152.478194 
L 670.725143 151.560327 
L 671.440359 151.201997 
L 671.797845 151.058533 
L 672.751422 150.68602 
L 675.49265 149.772361 
L 677.161647 149.29784 
L 678.949517 148.451989 
L 680.61798 147.459921 
L 682.882742 146.038817 
L 683.597974 145.636588 
L 690.034113 142.065884 
L 690.034113 142.065884 
" clip-path="url(#pd68a00c077)" style="fill: none; stroke: #aa00ff; stroke-width: 2; stroke-linecap: square"/>
   </g>
   <g id="line2d_28">
    <path d="M 89.062895 176.28 
L 94.186939 176.192277 
L 97.046974 176.258907 
L 108.008782 176.535449 
L 109.796329 176.431155 
L 116.230654 176.046936 
L 119.32841 175.779398 
L 128.622662 174.790091 
L 130.409982 174.408979 
L 136.486863 173.523085 
L 137.678676 173.700661 
L 138.154967 173.669227 
L 141.967884 173.24373 
L 142.563635 173.205269 
L 143.278328 173.130767 
L 146.972488 172.696861 
L 147.925654 172.57543 
L 149.832524 172.379761 
L 150.547152 172.302516 
L 151.976876 172.276927 
L 156.62394 172.388879 
L 162.462482 172.425401 
L 166.156264 172.244597 
L 168.421665 172.157377 
L 169.492645 172.217837 
L 170.088414 172.249843 
L 171.16074 172.348108 
L 176.165317 173.00567 
L 177.953001 173.331464 
L 183.19528 173.972983 
L 188.319045 174.390746 
L 190.463877 174.746028 
L 194.276502 175.345114 
L 195.706412 175.570715 
L 204.404745 176.310615 
L 204.523761 176.16491 
L 204.643057 176.315515 
L 205.000511 176.28368 
L 205.477346 176.273583 
L 205.715363 176.267702 
L 206.311422 176.222404 
L 209.885849 175.538288 
L 212.268906 174.781734 
L 212.984055 174.66001 
L 213.341579 174.554801 
L 216.08179 174.297422 
L 216.796763 174.343305 
L 218.703218 174.455668 
L 224.541746 174.497898 
L 225.978655 174.431936 
L 226.819727 174.422093 
L 227.900351 174.419019 
L 231.620101 174.412964 
L 234.257435 174.384045 
L 234.616829 174.306132 
L 235.335454 174.263685 
L 238.568721 174.0995 
L 238.92775 174.130443 
L 239.047437 174.057677 
L 239.286944 174.155605 
L 239.64593 174.048836 
L 240.24437 174.02059 
L 242.039581 173.986829 
L 244.670438 173.989398 
L 249.45259 173.818632 
L 253.037031 173.562477 
L 260.799895 173.297094 
L 264.381471 173.360684 
L 268.91728 173.362274 
L 274.645423 173.564769 
L 276.793306 173.343168 
L 277.389823 173.2847 
L 278.224886 173.164284 
L 282.878062 173.104178 
L 286.099052 173.52225 
L 293.256678 174.565479 
L 295.403877 175.019645 
L 307.808894 177.736378 
L 309.120905 178.086116 
L 313.533942 179.176031 
L 313.891993 179.27626 
L 315.44242 179.694937 
L 322.002302 181.77029 
L 326.191497 184.025545 
L 327.011787 184.558639 
L 330.231613 186.594223 
L 332.855602 188.422572 
L 334.048348 189.40691 
L 339.057732 194.263058 
L 340.131137 195.463412 
L 343.828149 198.92682 
L 346.451889 200.917667 
L 352.17696 204.454945 
L 353.608049 204.716382 
L 355.158357 204.7974 
L 357.663042 204.789882 
L 361.121834 204.72018 
L 362.075759 204.459897 
L 368.277584 201.680385 
L 375.553082 199.447938 
L 376.983923 199.38098 
L 377.818678 199.478978 
L 379.369226 199.912718 
L 380.681177 200.614288 
L 381.873709 201.524384 
L 382.827807 202.425226 
L 393.800371 215.140014 
L 395.589083 217.146304 
L 398.451598 220.687436 
L 400.001938 222.79814 
L 403.222223 227.393099 
L 414.790819 243.415344 
L 415.743072 244.267669 
L 416.572159 244.806109 
L 417.876198 245.345863 
L 419.77332 245.561792 
L 420.959267 245.478096 
L 423.926655 244.76857 
L 425.707593 244.36205 
L 429.746885 243.817939 
L 430.935812 243.733087 
L 433.075167 243.578744 
L 433.788862 243.508822 
L 434.978027 243.461024 
L 437.119009 243.477155 
L 439.617384 243.621775 
L 442.235331 243.845062 
L 446.996466 244.065416 
L 448.425278 243.906232 
L 449.734673 243.45439 
L 450.806621 242.781045 
L 452.116458 241.633205 
L 454.498276 239.232273 
L 455.808059 237.660942 
L 458.071532 234.740989 
L 459.500613 232.754646 
L 464.265106 226.047405 
L 467.839187 220.996165 
L 469.626401 219.164523 
L 470.817705 218.195611 
L 473.677344 216.326982 
L 475.583526 215.48095 
L 476.894285 215.127967 
L 480.111441 214.435203 
L 481.302918 213.627353 
L 482.375306 212.591246 
L 483.567038 211.548304 
L 484.639419 211.011726 
L 485.473511 210.851802 
L 487.975909 210.780298 
L 488.690907 210.82115 
L 489.286593 210.821076 
L 490.120879 210.82875 
L 490.716836 210.858637 
L 491.789227 210.945751 
L 494.410722 211.05094 
L 496.079374 211.415593 
L 496.79422 211.746774 
L 497.747741 212.344459 
L 498.581612 213.038793 
L 499.654278 214.104769 
L 503.82525 218.191201 
L 505.493587 219.107386 
L 506.327836 219.383635 
L 507.87736 219.597885 
L 512.524873 219.636984 
L 516.934205 219.50506 
L 518.602764 219.594498 
L 525.515007 219.941617 
L 527.302526 219.938158 
L 528.972253 219.939684 
L 534.457033 219.745673 
L 536.007746 219.663887 
L 538.989524 219.512824 
L 540.301344 219.152237 
L 541.374753 218.531567 
L 542.447979 217.723772 
L 545.429691 214.927255 
L 547.933793 211.898822 
L 554.492314 203.734299 
L 555.68482 202.218569 
L 564.984812 189.387634 
L 565.938863 188.022925 
L 569.754145 182.969118 
L 572.138232 180.172214 
L 573.330592 178.923518 
L 576.668725 175.710175 
L 577.622672 175.13216 
L 578.338123 175.005859 
L 586.086813 175.113489 
L 587.636346 175.128047 
L 589.901704 174.99862 
L 590.73576 174.87336 
L 591.570332 174.864029 
L 593.477699 174.846354 
L 594.669958 175.148582 
L 595.26577 175.43943 
L 597.173079 177.096974 
L 598.365144 178.41393 
L 601.583477 182.016054 
L 603.133268 183.205568 
L 604.206302 183.761637 
L 605.040423 184.025615 
L 606.82851 184.492035 
L 608.020561 184.645707 
L 609.331778 184.772772 
L 609.808813 184.73242 
L 610.404597 184.816731 
L 611.239016 184.79829 
L 612.550354 184.907532 
L 613.265426 185.011007 
L 614.695964 185.283136 
L 616.007119 185.891267 
L 617.318246 186.954054 
L 618.867794 188.721244 
L 620.178946 190.372673 
L 621.609345 192.362663 
L 625.662137 197.328107 
L 626.615443 198.018309 
L 628.761339 198.850662 
L 630.072717 199.00769 
L 634.244173 199.149452 
L 635.793849 199.343518 
L 640.561494 200.203123 
L 643.183776 200.996605 
L 648.547309 203.338182 
L 650.45459 204.286584 
L 652.480888 204.78309 
L 653.315256 204.718264 
L 654.149669 204.428014 
L 654.626424 204.104312 
L 655.222191 203.703753 
L 656.891059 202.067408 
L 658.440595 200.02023 
L 661.301157 195.591961 
L 665.123163 190.001652 
L 667.745443 186.492843 
L 671.321141 182.485703 
L 672.394086 181.487332 
L 677.996122 176.638786 
L 679.187932 175.173959 
L 681.571542 171.883409 
L 683.71739 168.962853 
L 690.153587 160.999197 
L 690.153587 160.999197 
" clip-path="url(#pd68a00c077)" style="fill: none; stroke: #ff9c00; stroke-width: 2; stroke-linecap: square"/>
   </g>
   <g id="line2d_29">
    <path d="M 89.182189 176.28 
L 91.327118 176.246828 
L 91.922757 176.212667 
L 93.233676 176.15845 
L 94.305843 176.10001 
L 112.060048 175.346257 
L 112.894446 175.298038 
L 113.370859 175.263659 
L 114.205044 175.217232 
L 120.400984 174.833269 
L 120.997097 174.800022 
L 128.384526 174.454113 
L 128.98018 174.413448 
L 136.248528 174.059415 
L 138.154969 174.391983 
L 141.133839 174.308142 
L 141.610422 174.299274 
L 143.63607 174.260404 
L 143.993566 174.225974 
L 145.423598 174.180205 
L 145.900043 174.146072 
L 146.496095 174.13862 
L 147.687343 174.106633 
L 153.049321 174.022579 
L 153.764103 174.037554 
L 155.909249 173.932724 
L 156.385614 173.959932 
L 159.007081 173.965714 
L 159.483528 173.998136 
L 161.390064 174.00122 
L 168.658504 174.113042 
L 169.730907 174.24566 
L 176.999199 175.305768 
L 177.59509 175.418036 
L 179.739717 175.768618 
L 181.884858 176.140939 
L 182.599255 176.197455 
L 183.433672 176.211238 
L 184.506002 176.208426 
L 184.982788 176.232012 
L 185.459233 176.208353 
L 188.557304 176.388659 
L 193.91916 176.780047 
L 194.395807 176.848537 
L 194.634097 176.831481 
L 196.064218 176.952689 
L 196.65994 176.982763 
L 197.017234 176.99982 
L 199.043151 177.123042 
L 200.83012 177.264343 
L 201.306817 177.30876 
L 202.617458 177.438345 
L 204.404746 177.571185 
L 204.523761 177.457747 
L 204.76223 177.564287 
L 205.596444 177.535056 
L 206.311422 177.427418 
L 207.145126 177.220552 
L 207.383565 177.142869 
L 209.64792 176.710834 
L 211.434881 176.323135 
L 212.149886 176.160718 
L 212.745856 176.003927 
L 212.984055 175.994761 
L 213.222184 175.949068 
L 214.533065 175.684876 
L 217.15418 175.507543 
L 217.750049 175.514334 
L 220.967203 175.686089 
L 222.754521 175.744988 
L 224.661 175.819776 
L 225.377962 175.848066 
L 225.617896 175.887281 
L 226.21888 175.901211 
L 235.695039 176.569304 
L 237.132052 176.744837 
L 237.730923 176.79135 
L 239.167562 176.909373 
L 239.526373 176.980386 
L 239.64593 176.893293 
L 240.124806 177.017154 
L 240.483902 177.000469 
L 241.321551 177.08417 
L 248.376557 177.537141 
L 248.854672 177.507172 
L 249.571713 177.55186 
L 250.169234 177.54828 
L 252.200726 177.528835 
L 252.797951 177.509801 
L 253.275946 177.453698 
L 253.873226 177.377205 
L 254.47066 177.338358 
L 255.30679 177.231947 
L 255.664865 177.201285 
L 256.620803 177.084282 
L 257.4567 176.992422 
L 259.24771 176.754376 
L 259.844691 176.66938 
L 260.561277 176.56169 
L 261.755056 176.370908 
L 262.232551 176.296184 
L 262.710188 176.208015 
L 264.142684 175.977515 
L 264.858854 175.857097 
L 268.081515 175.346333 
L 269.274999 175.123027 
L 273.69095 174.305779 
L 274.406654 174.203192 
L 276.31592 173.953463 
L 276.912615 173.900382 
L 278.463786 173.683621 
L 280.014864 173.508832 
L 281.69326 173.310452 
L 282.6397 173.253961 
L 296.835249 172.912996 
L 306.377993 173.765454 
L 307.09324 173.888837 
L 307.808895 173.956646 
L 308.166724 174.005353 
L 309.001404 174.131826 
L 310.313767 174.315652 
L 320.690222 176.012472 
L 321.882989 176.233056 
L 325.461236 176.816569 
L 326.057596 176.937418 
L 328.442572 177.248654 
L 329.039248 177.328945 
L 329.635614 177.374748 
L 330.709212 177.423724 
L 331.305225 177.481967 
L 332.736696 177.572166 
L 333.928943 177.632943 
L 334.525357 177.700814 
L 335.002511 177.718487 
L 335.47958 177.728345 
L 337.74563 177.876949 
L 341.084637 178.093551 
L 342.158549 178.138836 
L 346.213713 178.226823 
L 348.479763 178.271046 
L 349.075842 178.306678 
L 349.672387 178.338407 
L 350.984268 178.412699 
L 351.93813 178.471375 
L 360.525383 178.606717 
L 361.598785 178.625222 
L 363.506839 178.636785 
L 366.966104 178.664951 
L 367.800514 178.716739 
L 368.396786 178.722341 
L 379.846266 179.103776 
L 380.442567 179.153271 
L 383.424493 179.422174 
L 391.414769 180.386371 
L 393.32327 180.426999 
L 394.157965 180.513845 
L 394.754404 180.542685 
L 395.589084 180.64652 
L 396.423774 180.702157 
L 397.974423 180.86638 
L 400.240485 181.103337 
L 401.671828 181.254925 
L 405.965248 181.6889 
L 407.992674 181.827329 
L 408.469781 181.900967 
L 409.185533 181.949278 
L 410.139516 182.041077 
L 411.093552 182.135368 
L 411.809186 182.205003 
L 413.359679 182.369858 
L 414.075258 182.398981 
L 414.432982 182.453698 
L 433.194647 183.313278 
L 434.264824 183.344804 
L 434.621444 183.378793 
L 434.978027 183.346524 
L 439.022678 183.436222 
L 442.592477 183.47551 
L 443.187652 183.451174 
L 444.020955 183.466648 
L 446.282562 183.452542 
L 447.710863 183.477634 
L 448.782347 183.452184 
L 454.26006 183.181231 
L 454.974449 183.09284 
L 455.927163 183.023212 
L 457.594732 182.885004 
L 458.547608 182.804666 
L 461.406539 182.495108 
L 463.907716 182.302217 
L 464.503454 182.2268 
L 470.486664 181.761373 
L 470.93702 181.735591 
L 472.247712 181.680485 
L 473.439173 181.625614 
L 474.630497 181.570956 
L 477.847384 181.513786 
L 486.069325 181.211882 
L 486.665049 181.238201 
L 487.499347 181.186865 
L 491.789228 181.011526 
L 492.266316 180.967545 
L 494.053533 180.930849 
L 495.48334 180.844217 
L 497.270921 180.799982 
L 497.747741 180.774061 
L 500.488672 180.711164 
L 502.752979 180.691252 
L 505.136176 180.490938 
L 506.685311 180.455674 
L 508.711207 180.430019 
L 512.763405 180.343295 
L 513.478248 180.317384 
L 513.83604 180.344882 
L 523.727471 179.624989 
L 524.203846 179.591401 
L 524.918912 179.512777 
L 526.110739 179.39866 
L 526.587631 179.413252 
L 528.017791 179.302928 
L 528.375136 179.271618 
L 529.686085 179.159945 
L 531.71381 179.00771 
L 533.631598 178.854287 
L 541.494048 178.300912 
L 542.447979 178.290835 
L 543.640542 178.234063 
L 546.264236 178.34689 
L 554.134511 178.332993 
L 555.207772 178.284871 
L 555.44632 178.311417 
L 555.923081 178.302996 
L 556.638531 178.30067 
L 557.234965 178.258716 
L 559.619475 178.236286 
L 560.096304 178.208117 
L 560.931136 178.21132 
L 561.884898 178.170768 
L 562.600401 178.142473 
L 564.031003 178.108365 
L 564.388753 178.100141 
L 564.984813 178.061397 
L 565.342415 178.091172 
L 566.534779 178.052399 
L 567.130973 178.049668 
L 567.488691 178.046815 
L 568.800299 178.038537 
L 569.396476 178.017586 
L 570.469633 177.983789 
L 571.304045 177.907006 
L 572.615301 177.850403 
L 574.284314 177.815584 
L 575.714944 177.744554 
L 579.053294 177.710073 
L 579.291707 177.735545 
L 579.649201 177.686072 
L 580.12592 177.783442 
L 580.245429 177.717035 
L 580.602854 177.904966 
L 580.722327 177.953634 
L 580.841299 177.875442 
L 581.318163 177.980786 
L 582.629743 178.225952 
L 584.179317 178.502675 
L 585.133001 178.670382 
L 588.470861 179.250554 
L 591.331976 179.673887 
L 592.285826 179.808261 
L 593.239483 179.945296 
L 597.053969 180.453749 
L 597.292495 180.474101 
L 598.126727 180.563538 
L 598.722642 180.574656 
L 604.444778 181.127774 
L 606.590252 181.350686 
L 607.18631 181.392297 
L 609.331779 181.608243 
L 610.404598 181.707338 
L 613.146478 181.87836 
L 613.861568 181.942837 
L 615.053349 182.071101 
L 620.059727 182.276527 
L 622.682071 182.214857 
L 638.058725 183.01489 
L 641.753502 183.258373 
L 643.064651 183.344735 
L 643.899042 183.408362 
L 645.806092 183.546356 
L 646.640393 183.596269 
L 649.977991 183.789364 
L 652.242632 183.930453 
L 654.507297 183.961439 
L 655.579947 184.003456 
L 655.93744 183.992472 
L 661.420389 184.075502 
L 661.777951 184.067314 
L 662.850551 184.054731 
L 673.109033 184.180482 
L 677.280727 184.846792 
L 678.23419 184.996346 
L 682.167968 185.067096 
L 682.882742 185.059381 
L 684.194233 185.092878 
L 686.339101 185.02008 
L 690.153587 184.889032 
L 690.153587 184.889032 
" clip-path="url(#pd68a00c077)" style="fill: none; stroke: #ff0000; stroke-width: 2; stroke-linecap: square"/>
   </g>
   <g id="line2d_30">
    <path d="M 89.182189 176.28 
L 95.140018 175.863101 
L 101.812612 175.326664 
L 102.765906 175.217518 
L 103.71915 175.186133 
L 104.434076 175.068401 
L 113.489975 174.050304 
L 121.354219 172.886653 
L 122.068991 172.795742 
L 136.129355 170.54865 
L 137.559204 170.721423 
L 138.512513 170.653431 
L 140.657229 170.350063 
L 141.610422 170.229592 
L 143.040252 170.069698 
L 146.376473 169.494601 
L 147.09205 169.42094 
L 148.521428 169.220411 
L 149.236577 169.153894 
L 151.143162 168.893922 
L 152.810983 168.782461 
L 153.764103 168.715094 
L 157.815372 168.644018 
L 158.292136 168.648899 
L 169.969317 168.662671 
L 173.30584 168.850484 
L 179.263255 169.273908 
L 185.697587 169.366086 
L 187.127349 169.437864 
L 188.557304 169.585769 
L 190.940264 169.803 
L 191.654941 169.909733 
L 195.706412 170.16906 
L 198.089478 170.325525 
L 199.757748 170.410992 
L 206.192267 170.918785 
L 212.149886 170.072204 
L 212.864683 170.017414 
L 213.102988 169.8903 
L 213.341579 169.930231 
L 213.579516 169.820799 
L 213.817993 169.898357 
L 214.294623 169.721646 
L 214.533065 169.820816 
L 215.009856 169.747465 
L 215.485984 169.69982 
L 217.869138 169.837074 
L 224.065004 170.335997 
L 224.541746 170.345033 
L 225.257898 170.406117 
L 225.498281 170.335936 
L 225.738531 170.429771 
L 226.21888 170.415821 
L 231.500023 170.609971 
L 233.178507 170.695421 
L 235.096033 170.789754 
L 237.251759 170.978497 
L 238.688366 171.055229 
L 239.40667 171.1126 
L 239.64593 171.032646 
L 240.124806 171.148238 
L 240.603391 171.14338 
L 241.560728 171.130379 
L 244.43167 171.23758 
L 250.169234 171.269505 
L 251.125574 171.181626 
L 253.275946 170.899448 
L 257.814548 169.767646 
L 264.500981 167.453791 
L 275.957952 162.671052 
L 276.912615 162.412331 
L 278.105623 162.030886 
L 280.969019 161.13518 
L 282.400876 160.759626 
L 285.264233 160.304175 
L 288.604369 159.981191 
L 291.944535 159.64699 
L 297.431464 159.210124 
L 300.771673 159.678774 
L 304.349878 160.6003 
L 309.598203 162.297492 
L 310.552341 162.62412 
L 312.699058 163.454921 
L 317.469847 165.320086 
L 319.139821 166.042228 
L 327.965672 169.57761 
L 330.828269 170.458376 
L 334.167686 171.370021 
L 337.02983 172.147413 
L 338.222639 172.46935 
L 341.800615 173.358643 
L 344.185812 173.820695 
L 349.672387 174.593545 
L 353.965791 175.257785 
L 355.635452 175.349563 
L 361.598785 175.484445 
L 363.268489 175.628663 
L 365.65397 175.756419 
L 367.562137 175.935891 
L 368.51597 176.073397 
L 377.341546 177.198667 
L 378.295997 177.340707 
L 380.204087 177.666348 
L 384.259179 178.71505 
L 386.644376 179.472606 
L 388.552511 179.992646 
L 392.369046 180.962875 
L 394.27743 181.321349 
L 394.992979 181.514243 
L 395.708479 181.659772 
L 397.616593 182.142802 
L 399.763441 182.705498 
L 403.341737 183.667914 
L 408.350439 184.801583 
L 409.066091 184.955082 
L 412.405745 185.673421 
L 412.882711 185.75905 
L 419.061691 186.863706 
L 424.520155 187.543486 
L 427.608192 187.947437 
L 428.320873 188.084729 
L 433.075167 188.687452 
L 434.264824 188.787976 
L 437.357238 189.1044 
L 438.070885 189.169476 
L 442.116426 189.502097 
L 445.449474 189.600937 
L 445.925172 189.682969 
L 450.449357 189.683672 
L 452.354601 189.502372 
L 456.880099 188.724217 
L 459.023851 188.262436 
L 464.503454 187.029713 
L 469.268954 186.054477 
L 471.651683 185.735201 
L 478.085751 185.295824 
L 481.183861 185.087658 
L 484.758501 184.651146 
L 490.478611 184.912686 
L 491.670006 184.988481 
L 492.385011 185.024835 
L 496.913374 185.38017 
L 497.628384 185.50846 
L 498.34375 185.593086 
L 502.871955 186.429156 
L 507.400444 186.753584 
L 540.77815 186.766565 
L 543.163639 186.490349 
L 545.310331 186.23666 
L 547.695471 185.831683 
L 548.64949 185.63442 
L 556.996257 183.764406 
L 559.619475 183.084453 
L 560.335124 182.899861 
L 561.050501 182.700422 
L 563.912012 181.967796 
L 566.057795 181.39243 
L 566.773465 181.216839 
L 567.727033 180.949335 
L 569.396476 180.545166 
L 574.403776 179.359685 
L 578.218586 178.536886 
L 579.172383 178.435231 
L 579.887737 178.358118 
L 581.318163 178.404188 
L 582.748723 178.442774 
L 585.371681 178.487927 
L 590.37828 178.524466 
L 592.047201 178.498147 
L 594.431375 178.523375 
L 599.91484 179.39585 
L 600.868447 179.57232 
L 604.921552 179.975881 
L 612.073458 179.579787 
L 612.550354 179.529222 
L 613.98054 179.460165 
L 615.88785 179.40754 
L 620.178947 180.007982 
L 621.847603 180.428498 
L 625.662138 181.117681 
L 628.999787 181.194273 
L 632.608243 180.8865 
L 634.244173 180.702005 
L 637.343265 180.389823 
L 642.110918 179.848191 
L 643.568747 179.694548 
L 645.92523 179.379011 
L 649.739289 178.835759 
L 654.745535 177.935604 
L 667.149426 174.729042 
L 670.487069 173.946063 
L 672.870813 173.494629 
L 675.969666 173.297956 
L 677.87724 173.310003 
L 687.411991 170.7967 
L 689.080907 170.31816 
L 689.79611 170.100188 
L 689.79611 170.100188 
" clip-path="url(#pd68a00c077)" style="fill: none; stroke: #00ff00; stroke-width: 2; stroke-linecap: square"/>
   </g>
   <g id="patch_3">
    <path d="M 82.8 313.2 
L 82.8 19.8 
" style="fill: none; stroke: #000000; stroke-width: 0.8; stroke-linejoin: miter; stroke-linecap: square"/>
   </g>
   <g id="patch_4">
    <path d="M 709.2 313.2 
L 709.2 19.8 
" style="fill: none; stroke: #000000; stroke-width: 0.8; stroke-linejoin: miter; stroke-linecap: square"/>
   </g>
   <g id="patch_5">
    <path d="M 82.8 313.2 
L 709.2 313.2 
" style="fill: none; stroke: #000000; stroke-width: 0.8; stroke-linejoin: miter; stroke-linecap: square"/>
   </g>
   <g id="patch_6">
    <path d="M 82.8 19.8 
L 709.2 19.8 
" style="fill: none; stroke: #000000; stroke-width: 0.8; stroke-linejoin: miter; stroke-linecap: square"/>
   </g>
  </g>
 </g>
 <defs>
  <clipPath id="pd68a00c077">
   <rect x="82.8" y="19.8" width="626.4" height="293.4"/>
  </clipPath>
 </defs>
</svg>
