<?xml version="1.0" encoding="utf-8" standalone="no"?>
<!DOCTYPE svg PUBLIC "-//W3C//DTD SVG 1.1//EN"
  "http://www.w3.org/Graphics/SVG/1.1/DTD/svg11.dtd">
<svg xmlns:xlink="http://www.w3.org/1999/xlink" width="720pt" height="360pt" viewBox="0 0 720 360" xmlns="http://www.w3.org/2000/svg" version="1.1">
 <metadata>
  <rdf:RDF xmlns:dc="http://purl.org/dc/elements/1.1/" xmlns:cc="http://creativecommons.org/ns#" xmlns:rdf="http://www.w3.org/1999/02/22-rdf-syntax-ns#">
   <cc:Work>
    <dc:type rdf:resource="http://purl.org/dc/dcmitype/StillImage"/>
    <dc:date>2024-08-10T16:39:12.457658</dc:date>
    <dc:format>image/svg+xml</dc:format>
    <dc:creator>
     <cc:Agent>
      <dc:title>Matplotlib v3.8.3, https://matplotlib.org/</dc:title>
     </cc:Agent>
    </dc:creator>
   </cc:Work>
  </rdf:RDF>
 </metadata>
 <defs>
  <style type="text/css">*{stroke-linejoin: round; stroke-linecap: butt}</style>
 </defs>
 <g id="figure_1">
  <g id="patch_1">
   <path d="M 0 360 
L 720 360 
L 720 0 
L 0 0 
z
" style="fill: #ffffff"/>
  </g>
  <g id="axes_1">
   <g id="patch_2">
    <path d="M 82.8 313.2 
L 709.2 313.2 
L 709.2 19.8 
L 82.8 19.8 
z
" style="fill: #ffffff"/>
   </g>
   <g id="matplotlib.axis_1">
    <g id="xtick_1">
     <g id="line2d_1">
      <path d="M 88.654206 313.2 
L 88.654206 19.8 
" clip-path="url(#p321a5dd852)" style="fill: none; stroke-dasharray: 2.96,1.28; stroke-dashoffset: 0; stroke: #bdc3c7; stroke-width: 0.8"/>
     </g>
     <g id="line2d_2">
      <defs>
       <path id="ma91eee2842" d="M 0 0 
L 0 -3.5 
" style="stroke: #000000; stroke-width: 0.8"/>
      </defs>
      <g>
       <use xlink:href="#ma91eee2842" x="88.654206" y="313.2" style="stroke: #000000; stroke-width: 0.8"/>
      </g>
     </g>
     <g id="text_1">
      <!-- 0 -->
      <g transform="translate(82.927956 330.377187) scale(0.18 -0.18)">
       <defs>
        <path id="DejaVuSans-30" d="M 2034 4250 
Q 1547 4250 1301 3770 
Q 1056 3291 1056 2328 
Q 1056 1369 1301 889 
Q 1547 409 2034 409 
Q 2525 409 2770 889 
Q 3016 1369 3016 2328 
Q 3016 3291 2770 3770 
Q 2525 4250 2034 4250 
z
M 2034 4750 
Q 2819 4750 3233 4129 
Q 3647 3509 3647 2328 
Q 3647 1150 3233 529 
Q 2819 -91 2034 -91 
Q 1250 -91 836 529 
Q 422 1150 422 2328 
Q 422 3509 836 4129 
Q 1250 4750 2034 4750 
z
" transform="scale(0.015625)"/>
       </defs>
       <use xlink:href="#DejaVuSans-30"/>
      </g>
     </g>
    </g>
    <g id="xtick_2">
     <g id="line2d_3">
      <path d="M 205.738318 313.2 
L 205.738318 19.8 
" clip-path="url(#p321a5dd852)" style="fill: none; stroke-dasharray: 2.96,1.28; stroke-dashoffset: 0; stroke: #bdc3c7; stroke-width: 0.8"/>
     </g>
     <g id="line2d_4">
      <g>
       <use xlink:href="#ma91eee2842" x="205.738318" y="313.2" style="stroke: #000000; stroke-width: 0.8"/>
      </g>
     </g>
     <g id="text_2">
      <!-- 100 -->
      <g transform="translate(188.559568 330.377187) scale(0.18 -0.18)">
       <defs>
        <path id="DejaVuSans-31" d="M 794 531 
L 1825 531 
L 1825 4091 
L 703 3866 
L 703 4441 
L 1819 4666 
L 2450 4666 
L 2450 531 
L 3481 531 
L 3481 0 
L 794 0 
L 794 531 
z
" transform="scale(0.015625)"/>
       </defs>
       <use xlink:href="#DejaVuSans-31"/>
       <use xlink:href="#DejaVuSans-30" x="63.623047"/>
       <use xlink:href="#DejaVuSans-30" x="127.246094"/>
      </g>
     </g>
    </g>
    <g id="xtick_3">
     <g id="line2d_5">
      <path d="M 322.82243 313.2 
L 322.82243 19.8 
" clip-path="url(#p321a5dd852)" style="fill: none; stroke-dasharray: 2.96,1.28; stroke-dashoffset: 0; stroke: #bdc3c7; stroke-width: 0.8"/>
     </g>
     <g id="line2d_6">
      <g>
       <use xlink:href="#ma91eee2842" x="322.82243" y="313.2" style="stroke: #000000; stroke-width: 0.8"/>
      </g>
     </g>
     <g id="text_3">
      <!-- 200 -->
      <g transform="translate(305.64368 330.377187) scale(0.18 -0.18)">
       <defs>
        <path id="DejaVuSans-32" d="M 1228 531 
L 3431 531 
L 3431 0 
L 469 0 
L 469 531 
Q 828 903 1448 1529 
Q 2069 2156 2228 2338 
Q 2531 2678 2651 2914 
Q 2772 3150 2772 3378 
Q 2772 3750 2511 3984 
Q 2250 4219 1831 4219 
Q 1534 4219 1204 4116 
Q 875 4013 500 3803 
L 500 4441 
Q 881 4594 1212 4672 
Q 1544 4750 1819 4750 
Q 2544 4750 2975 4387 
Q 3406 4025 3406 3419 
Q 3406 3131 3298 2873 
Q 3191 2616 2906 2266 
Q 2828 2175 2409 1742 
Q 1991 1309 1228 531 
z
" transform="scale(0.015625)"/>
       </defs>
       <use xlink:href="#DejaVuSans-32"/>
       <use xlink:href="#DejaVuSans-30" x="63.623047"/>
       <use xlink:href="#DejaVuSans-30" x="127.246094"/>
      </g>
     </g>
    </g>
    <g id="xtick_4">
     <g id="line2d_7">
      <path d="M 439.906542 313.2 
L 439.906542 19.8 
" clip-path="url(#p321a5dd852)" style="fill: none; stroke-dasharray: 2.96,1.28; stroke-dashoffset: 0; stroke: #bdc3c7; stroke-width: 0.8"/>
     </g>
     <g id="line2d_8">
      <g>
       <use xlink:href="#ma91eee2842" x="439.906542" y="313.2" style="stroke: #000000; stroke-width: 0.8"/>
      </g>
     </g>
     <g id="text_4">
      <!-- 300 -->
      <g transform="translate(422.727792 330.377187) scale(0.18 -0.18)">
       <defs>
        <path id="DejaVuSans-33" d="M 2597 2516 
Q 3050 2419 3304 2112 
Q 3559 1806 3559 1356 
Q 3559 666 3084 287 
Q 2609 -91 1734 -91 
Q 1441 -91 1130 -33 
Q 819 25 488 141 
L 488 750 
Q 750 597 1062 519 
Q 1375 441 1716 441 
Q 2309 441 2620 675 
Q 2931 909 2931 1356 
Q 2931 1769 2642 2001 
Q 2353 2234 1838 2234 
L 1294 2234 
L 1294 2753 
L 1863 2753 
Q 2328 2753 2575 2939 
Q 2822 3125 2822 3475 
Q 2822 3834 2567 4026 
Q 2313 4219 1838 4219 
Q 1578 4219 1281 4162 
Q 984 4106 628 3988 
L 628 4550 
Q 988 4650 1302 4700 
Q 1616 4750 1894 4750 
Q 2613 4750 3031 4423 
Q 3450 4097 3450 3541 
Q 3450 3153 3228 2886 
Q 3006 2619 2597 2516 
z
" transform="scale(0.015625)"/>
       </defs>
       <use xlink:href="#DejaVuSans-33"/>
       <use xlink:href="#DejaVuSans-30" x="63.623047"/>
       <use xlink:href="#DejaVuSans-30" x="127.246094"/>
      </g>
     </g>
    </g>
    <g id="xtick_5">
     <g id="line2d_9">
      <path d="M 556.990654 313.2 
L 556.990654 19.8 
" clip-path="url(#p321a5dd852)" style="fill: none; stroke-dasharray: 2.96,1.28; stroke-dashoffset: 0; stroke: #bdc3c7; stroke-width: 0.8"/>
     </g>
     <g id="line2d_10">
      <g>
       <use xlink:href="#ma91eee2842" x="556.990654" y="313.2" style="stroke: #000000; stroke-width: 0.8"/>
      </g>
     </g>
     <g id="text_5">
      <!-- 400 -->
      <g transform="translate(539.811904 330.377187) scale(0.18 -0.18)">
       <defs>
        <path id="DejaVuSans-34" d="M 2419 4116 
L 825 1625 
L 2419 1625 
L 2419 4116 
z
M 2253 4666 
L 3047 4666 
L 3047 1625 
L 3713 1625 
L 3713 1100 
L 3047 1100 
L 3047 0 
L 2419 0 
L 2419 1100 
L 313 1100 
L 313 1709 
L 2253 4666 
z
" transform="scale(0.015625)"/>
       </defs>
       <use xlink:href="#DejaVuSans-34"/>
       <use xlink:href="#DejaVuSans-30" x="63.623047"/>
       <use xlink:href="#DejaVuSans-30" x="127.246094"/>
      </g>
     </g>
    </g>
    <g id="xtick_6">
     <g id="line2d_11">
      <path d="M 674.074766 313.2 
L 674.074766 19.8 
" clip-path="url(#p321a5dd852)" style="fill: none; stroke-dasharray: 2.96,1.28; stroke-dashoffset: 0; stroke: #bdc3c7; stroke-width: 0.8"/>
     </g>
     <g id="line2d_12">
      <g>
       <use xlink:href="#ma91eee2842" x="674.074766" y="313.2" style="stroke: #000000; stroke-width: 0.8"/>
      </g>
     </g>
     <g id="text_6">
      <!-- 500 -->
      <g transform="translate(656.896016 330.377187) scale(0.18 -0.18)">
       <defs>
        <path id="DejaVuSans-35" d="M 691 4666 
L 3169 4666 
L 3169 4134 
L 1269 4134 
L 1269 2991 
Q 1406 3038 1543 3061 
Q 1681 3084 1819 3084 
Q 2600 3084 3056 2656 
Q 3513 2228 3513 1497 
Q 3513 744 3044 326 
Q 2575 -91 1722 -91 
Q 1428 -91 1123 -41 
Q 819 9 494 109 
L 494 744 
Q 775 591 1075 516 
Q 1375 441 1709 441 
Q 2250 441 2565 725 
Q 2881 1009 2881 1497 
Q 2881 1984 2565 2268 
Q 2250 2553 1709 2553 
Q 1456 2553 1204 2497 
Q 953 2441 691 2322 
L 691 4666 
z
" transform="scale(0.015625)"/>
       </defs>
       <use xlink:href="#DejaVuSans-35"/>
       <use xlink:href="#DejaVuSans-30" x="63.623047"/>
       <use xlink:href="#DejaVuSans-30" x="127.246094"/>
      </g>
     </g>
    </g>
    <g id="text_7">
     <!-- Time(s) -->
     <g transform="translate(358.434375 354.785625) scale(0.24 -0.24)">
      <defs>
       <path id="TimesNewRomanPSMT-54" d="M 3703 4238 
L 3750 3244 
L 3631 3244 
Q 3597 3506 3538 3619 
Q 3441 3800 3280 3886 
Q 3119 3972 2856 3972 
L 2259 3972 
L 2259 734 
Q 2259 344 2344 247 
Q 2463 116 2709 116 
L 2856 116 
L 2856 0 
L 1059 0 
L 1059 116 
L 1209 116 
Q 1478 116 1591 278 
Q 1659 378 1659 734 
L 1659 3972 
L 1150 3972 
Q 853 3972 728 3928 
Q 566 3869 450 3700 
Q 334 3531 313 3244 
L 194 3244 
L 244 4238 
L 3703 4238 
z
" transform="scale(0.015625)"/>
       <path id="TimesNewRomanPSMT-69" d="M 928 4444 
Q 1059 4444 1151 4351 
Q 1244 4259 1244 4128 
Q 1244 3997 1151 3903 
Q 1059 3809 928 3809 
Q 797 3809 703 3903 
Q 609 3997 609 4128 
Q 609 4259 701 4351 
Q 794 4444 928 4444 
z
M 1188 2947 
L 1188 647 
Q 1188 378 1227 289 
Q 1266 200 1342 156 
Q 1419 113 1622 113 
L 1622 0 
L 231 0 
L 231 113 
Q 441 113 512 153 
Q 584 194 626 287 
Q 669 381 669 647 
L 669 1750 
Q 669 2216 641 2353 
Q 619 2453 572 2492 
Q 525 2531 444 2531 
Q 356 2531 231 2484 
L 188 2597 
L 1050 2947 
L 1188 2947 
z
" transform="scale(0.015625)"/>
       <path id="TimesNewRomanPSMT-6d" d="M 1050 2338 
Q 1363 2650 1419 2697 
Q 1559 2816 1721 2881 
Q 1884 2947 2044 2947 
Q 2313 2947 2506 2790 
Q 2700 2634 2766 2338 
Q 3088 2713 3309 2830 
Q 3531 2947 3766 2947 
Q 3994 2947 4170 2830 
Q 4347 2713 4450 2447 
Q 4519 2266 4519 1878 
L 4519 647 
Q 4519 378 4559 278 
Q 4591 209 4675 161 
Q 4759 113 4950 113 
L 4950 0 
L 3538 0 
L 3538 113 
L 3597 113 
Q 3781 113 3884 184 
Q 3956 234 3988 344 
Q 4000 397 4000 647 
L 4000 1878 
Q 4000 2228 3916 2372 
Q 3794 2572 3525 2572 
Q 3359 2572 3192 2489 
Q 3025 2406 2788 2181 
L 2781 2147 
L 2788 2013 
L 2788 647 
Q 2788 353 2820 281 
Q 2853 209 2943 161 
Q 3034 113 3253 113 
L 3253 0 
L 1806 0 
L 1806 113 
Q 2044 113 2133 169 
Q 2222 225 2256 338 
Q 2272 391 2272 647 
L 2272 1878 
Q 2272 2228 2169 2381 
Q 2031 2581 1784 2581 
Q 1616 2581 1450 2491 
Q 1191 2353 1050 2181 
L 1050 647 
Q 1050 366 1089 281 
Q 1128 197 1204 155 
Q 1281 113 1516 113 
L 1516 0 
L 100 0 
L 100 113 
Q 297 113 375 155 
Q 453 197 493 289 
Q 534 381 534 647 
L 534 1741 
Q 534 2213 506 2350 
Q 484 2453 437 2492 
Q 391 2531 309 2531 
Q 222 2531 100 2484 
L 53 2597 
L 916 2947 
L 1050 2947 
L 1050 2338 
z
" transform="scale(0.015625)"/>
       <path id="TimesNewRomanPSMT-65" d="M 681 1784 
Q 678 1147 991 784 
Q 1303 422 1725 422 
Q 2006 422 2214 576 
Q 2422 731 2563 1106 
L 2659 1044 
Q 2594 616 2278 264 
Q 1963 -88 1488 -88 
Q 972 -88 605 314 
Q 238 716 238 1394 
Q 238 2128 614 2539 
Q 991 2950 1559 2950 
Q 2041 2950 2350 2633 
Q 2659 2316 2659 1784 
L 681 1784 
z
M 681 1966 
L 2006 1966 
Q 1991 2241 1941 2353 
Q 1863 2528 1708 2628 
Q 1553 2728 1384 2728 
Q 1125 2728 920 2526 
Q 716 2325 681 1966 
z
" transform="scale(0.015625)"/>
       <path id="TimesNewRomanPSMT-28" d="M 1988 -1253 
L 1988 -1369 
Q 1516 -1131 1200 -813 
Q 750 -359 506 256 
Q 263 872 263 1534 
Q 263 2503 741 3301 
Q 1219 4100 1988 4444 
L 1988 4313 
Q 1603 4100 1356 3731 
Q 1109 3363 987 2797 
Q 866 2231 866 1616 
Q 866 947 969 400 
Q 1050 -31 1165 -292 
Q 1281 -553 1476 -793 
Q 1672 -1034 1988 -1253 
z
" transform="scale(0.015625)"/>
       <path id="TimesNewRomanPSMT-73" d="M 2050 2947 
L 2050 1972 
L 1947 1972 
Q 1828 2431 1642 2597 
Q 1456 2763 1169 2763 
Q 950 2763 815 2647 
Q 681 2531 681 2391 
Q 681 2216 781 2091 
Q 878 1963 1175 1819 
L 1631 1597 
Q 2266 1288 2266 781 
Q 2266 391 1970 151 
Q 1675 -88 1309 -88 
Q 1047 -88 709 6 
Q 606 38 541 38 
Q 469 38 428 -44 
L 325 -44 
L 325 978 
L 428 978 
Q 516 541 762 319 
Q 1009 97 1316 97 
Q 1531 97 1667 223 
Q 1803 350 1803 528 
Q 1803 744 1651 891 
Q 1500 1038 1047 1263 
Q 594 1488 453 1669 
Q 313 1847 313 2119 
Q 313 2472 555 2709 
Q 797 2947 1181 2947 
Q 1350 2947 1591 2875 
Q 1750 2828 1803 2828 
Q 1853 2828 1881 2850 
Q 1909 2872 1947 2947 
L 2050 2947 
z
" transform="scale(0.015625)"/>
       <path id="TimesNewRomanPSMT-29" d="M 144 4313 
L 144 4444 
Q 619 4209 934 3891 
Q 1381 3434 1625 2820 
Q 1869 2206 1869 1541 
Q 1869 572 1392 -226 
Q 916 -1025 144 -1369 
L 144 -1253 
Q 528 -1038 776 -670 
Q 1025 -303 1145 264 
Q 1266 831 1266 1447 
Q 1266 2113 1163 2663 
Q 1084 3094 967 3353 
Q 850 3613 656 3853 
Q 463 4094 144 4313 
z
" transform="scale(0.015625)"/>
      </defs>
      <use xlink:href="#TimesNewRomanPSMT-54"/>
      <use xlink:href="#TimesNewRomanPSMT-69" x="57.583984"/>
      <use xlink:href="#TimesNewRomanPSMT-6d" x="85.367188"/>
      <use xlink:href="#TimesNewRomanPSMT-65" x="163.150391"/>
      <use xlink:href="#TimesNewRomanPSMT-28" x="207.535156"/>
      <use xlink:href="#TimesNewRomanPSMT-73" x="240.835938"/>
      <use xlink:href="#TimesNewRomanPSMT-29" x="279.751953"/>
     </g>
    </g>
   </g>
   <g id="matplotlib.axis_2">
    <g id="ytick_1">
     <g id="line2d_13">
      <path d="M 82.8 280.804286 
L 709.2 280.804286 
" clip-path="url(#p321a5dd852)" style="fill: none; stroke-dasharray: 2.96,1.28; stroke-dashoffset: 0; stroke: #bdc3c7; stroke-width: 0.8"/>
     </g>
     <g id="line2d_14">
      <defs>
       <path id="m942baed9db" d="M 0 0 
L 3.5 0 
" style="stroke: #000000; stroke-width: 0.8"/>
      </defs>
      <g>
       <use xlink:href="#m942baed9db" x="82.8" y="280.804286" style="stroke: #000000; stroke-width: 0.8"/>
      </g>
     </g>
     <g id="text_8">
      <!-- −400 -->
      <g transform="translate(29.859063 287.642879) scale(0.18 -0.18)">
       <defs>
        <path id="DejaVuSans-2212" d="M 678 2272 
L 4684 2272 
L 4684 1741 
L 678 1741 
L 678 2272 
z
" transform="scale(0.015625)"/>
       </defs>
       <use xlink:href="#DejaVuSans-2212"/>
       <use xlink:href="#DejaVuSans-34" x="83.789062"/>
       <use xlink:href="#DejaVuSans-30" x="147.412109"/>
       <use xlink:href="#DejaVuSans-30" x="211.035156"/>
      </g>
     </g>
    </g>
    <g id="ytick_2">
     <g id="line2d_15">
      <path d="M 82.8 238.89 
L 709.2 238.89 
" clip-path="url(#p321a5dd852)" style="fill: none; stroke-dasharray: 2.96,1.28; stroke-dashoffset: 0; stroke: #bdc3c7; stroke-width: 0.8"/>
     </g>
     <g id="line2d_16">
      <g>
       <use xlink:href="#m942baed9db" x="82.8" y="238.89" style="stroke: #000000; stroke-width: 0.8"/>
      </g>
     </g>
     <g id="text_9">
      <!-- −300 -->
      <g transform="translate(29.859063 245.728594) scale(0.18 -0.18)">
       <use xlink:href="#DejaVuSans-2212"/>
       <use xlink:href="#DejaVuSans-33" x="83.789062"/>
       <use xlink:href="#DejaVuSans-30" x="147.412109"/>
       <use xlink:href="#DejaVuSans-30" x="211.035156"/>
      </g>
     </g>
    </g>
    <g id="ytick_3">
     <g id="line2d_17">
      <path d="M 82.8 196.975714 
L 709.2 196.975714 
" clip-path="url(#p321a5dd852)" style="fill: none; stroke-dasharray: 2.96,1.28; stroke-dashoffset: 0; stroke: #bdc3c7; stroke-width: 0.8"/>
     </g>
     <g id="line2d_18">
      <g>
       <use xlink:href="#m942baed9db" x="82.8" y="196.975714" style="stroke: #000000; stroke-width: 0.8"/>
      </g>
     </g>
     <g id="text_10">
      <!-- −200 -->
      <g transform="translate(29.859063 203.814308) scale(0.18 -0.18)">
       <use xlink:href="#DejaVuSans-2212"/>
       <use xlink:href="#DejaVuSans-32" x="83.789062"/>
       <use xlink:href="#DejaVuSans-30" x="147.412109"/>
       <use xlink:href="#DejaVuSans-30" x="211.035156"/>
      </g>
     </g>
    </g>
    <g id="ytick_4">
     <g id="line2d_19">
      <path d="M 82.8 155.061429 
L 709.2 155.061429 
" clip-path="url(#p321a5dd852)" style="fill: none; stroke-dasharray: 2.96,1.28; stroke-dashoffset: 0; stroke: #bdc3c7; stroke-width: 0.8"/>
     </g>
     <g id="line2d_20">
      <g>
       <use xlink:href="#m942baed9db" x="82.8" y="155.061429" style="stroke: #000000; stroke-width: 0.8"/>
      </g>
     </g>
     <g id="text_11">
      <!-- −100 -->
      <g transform="translate(29.859063 161.900022) scale(0.18 -0.18)">
       <use xlink:href="#DejaVuSans-2212"/>
       <use xlink:href="#DejaVuSans-31" x="83.789062"/>
       <use xlink:href="#DejaVuSans-30" x="147.412109"/>
       <use xlink:href="#DejaVuSans-30" x="211.035156"/>
      </g>
     </g>
    </g>
    <g id="ytick_5">
     <g id="line2d_21">
      <path d="M 82.8 113.147143 
L 709.2 113.147143 
" clip-path="url(#p321a5dd852)" style="fill: none; stroke-dasharray: 2.96,1.28; stroke-dashoffset: 0; stroke: #bdc3c7; stroke-width: 0.8"/>
     </g>
     <g id="line2d_22">
      <g>
       <use xlink:href="#m942baed9db" x="82.8" y="113.147143" style="stroke: #000000; stroke-width: 0.8"/>
      </g>
     </g>
     <g id="text_12">
      <!-- 0 -->
      <g transform="translate(67.8475 119.985737) scale(0.18 -0.18)">
       <use xlink:href="#DejaVuSans-30"/>
      </g>
     </g>
    </g>
    <g id="ytick_6">
     <g id="line2d_23">
      <path d="M 82.8 71.232857 
L 709.2 71.232857 
" clip-path="url(#p321a5dd852)" style="fill: none; stroke-dasharray: 2.96,1.28; stroke-dashoffset: 0; stroke: #bdc3c7; stroke-width: 0.8"/>
     </g>
     <g id="line2d_24">
      <g>
       <use xlink:href="#m942baed9db" x="82.8" y="71.232857" style="stroke: #000000; stroke-width: 0.8"/>
      </g>
     </g>
     <g id="text_13">
      <!-- 100 -->
      <g transform="translate(44.9425 78.071451) scale(0.18 -0.18)">
       <use xlink:href="#DejaVuSans-31"/>
       <use xlink:href="#DejaVuSans-30" x="63.623047"/>
       <use xlink:href="#DejaVuSans-30" x="127.246094"/>
      </g>
     </g>
    </g>
    <g id="ytick_7">
     <g id="line2d_25">
      <path d="M 82.8 29.318571 
L 709.2 29.318571 
" clip-path="url(#p321a5dd852)" style="fill: none; stroke-dasharray: 2.96,1.28; stroke-dashoffset: 0; stroke: #bdc3c7; stroke-width: 0.8"/>
     </g>
     <g id="line2d_26">
      <g>
       <use xlink:href="#m942baed9db" x="82.8" y="29.318571" style="stroke: #000000; stroke-width: 0.8"/>
      </g>
     </g>
     <g id="text_14">
      <!-- 200 -->
      <g transform="translate(44.9425 36.157165) scale(0.18 -0.18)">
       <use xlink:href="#DejaVuSans-32"/>
       <use xlink:href="#DejaVuSans-30" x="63.623047"/>
       <use xlink:href="#DejaVuSans-30" x="127.246094"/>
      </g>
     </g>
    </g>
    <g id="text_15">
     <!-- Z(m) -->
     <g transform="translate(20.725313 191.154375) rotate(-90) scale(0.24 -0.24)">
      <defs>
       <path id="TimesNewRomanPSMT-5a" d="M 3681 4238 
L 897 256 
L 2634 256 
Q 3034 256 3248 431 
Q 3463 606 3628 1141 
L 3731 1122 
L 3531 0 
L 81 0 
L 81 116 
L 2800 3984 
L 1444 3984 
Q 1106 3984 954 3911 
Q 803 3838 723 3698 
Q 644 3559 578 3178 
L 459 3178 
L 547 4238 
L 3681 4238 
z
" transform="scale(0.015625)"/>
      </defs>
      <use xlink:href="#TimesNewRomanPSMT-5a"/>
      <use xlink:href="#TimesNewRomanPSMT-28" x="61.083984"/>
      <use xlink:href="#TimesNewRomanPSMT-6d" x="94.384766"/>
      <use xlink:href="#TimesNewRomanPSMT-29" x="172.167969"/>
     </g>
    </g>
   </g>
   <g id="line2d_27">
    <path d="M 88.654206 113.147143 
L 88.654206 113.14721 
L 106.73734 113.025123 
L 142.436126 111.666641 
L 149.247231 111.296178 
L 163.10405 110.581111 
L 164.513224 110.548054 
L 171.324321 110.143529 
L 182.127804 109.391713 
L 203.500191 107.783194 
L 209.606591 107.402846 
L 217.122171 107.038057 
L 235.676188 106.712712 
L 245.775204 106.512185 
L 257.04855 106.16504 
L 259.397163 106.050419 
L 269.054084 105.678305 
L 277.163158 105.38312 
L 282.602932 105.131216 
L 285.197802 105.026495 
L 293.90872 104.448651 
L 306.365318 103.322949 
L 313.17799 102.725956 
L 317.640916 102.292098 
L 331.263495 100.963282 
L 356.487045 98.46766 
L 363.032071 97.768682 
L 371.928675 96.724465 
L 376.614103 96.17942 
L 382.238001 95.715863 
L 384.112674 95.705603 
L 387.393722 95.909941 
L 393.487395 96.407991 
L 419.270021 98.720183 
L 424.192245 99.16202 
L 427.00494 99.429637 
L 431.692779 99.746308 
L 436.849386 100.138252 
L 445.756266 100.865662 
L 456.538315 101.952102 
L 462.398088 102.604081 
L 465.445183 102.735593 
L 471.539467 102.704804 
L 474.820834 102.684979 
L 503.182249 103.551789 
L 520.065597 104.297146 
L 524.990398 104.444065 
L 558.994368 104.514445 
L 565.794972 104.837342 
L 572.361166 105.450793 
L 573.299271 105.559064 
L 577.285915 106.015523 
L 597.688204 108.37305 
L 618.794042 110.317404 
L 622.07714 110.50347 
L 638.024046 111.426569 
L 643.652168 111.725784 
L 666.868614 112.823478 
L 679.766675 113.195873 
L 692.7816 113.143744 
L 698.52708 113.019687 
L 698.52708 113.019687 
" clip-path="url(#p321a5dd852)" style="fill: none; stroke-dasharray: 10.175,4.4; stroke-dashoffset: 0; stroke: #808a87; stroke-width: 2.75"/>
   </g>
   <g id="line2d_28">
    <path d="M 88.654206 113.147143 
L 107.32446 113.361407 
L 112.256554 113.631092 
L 115.074885 113.893746 
L 119.184961 114.457289 
L 124.351911 115.000765 
L 127.639994 115.159764 
L 130.458322 115.1045 
L 133.276661 114.9375 
L 135.977553 115.007915 
L 139.383055 115.243085 
L 148.072917 115.768081 
L 150.538975 115.584468 
L 153.592162 115.149512 
L 154.883913 114.991868 
L 156.4105 114.774748 
L 161.10773 114.422942 
L 163.57376 114.457946 
L 166.861832 115.080897 
L 169.210453 115.866175 
L 171.911464 117.39205 
L 175.199428 119.6107 
L 176.843448 120.812402 
L 178.722317 122.400939 
L 183.067253 125.927513 
L 190.817674 132.115158 
L 192.931449 133.920709 
L 198.568106 139.554869 
L 201.269191 141.84512 
L 204.087371 143.906852 
L 212.19005 149.585671 
L 213.834173 150.507253 
L 216.417557 151.970963 
L 223.345963 155.425292 
L 226.164308 156.571034 
L 229.217513 157.701679 
L 230.861542 158.32168 
L 237.320215 160.833091 
L 241.077996 162.239667 
L 243.074313 163.177038 
L 245.188022 164.36494 
L 253.290772 169.517841 
L 254.582765 170.367784 
L 255.756813 171.202583 
L 256.931128 172.073018 
L 258.692588 173.32254 
L 263.742096 176.6899 
L 266.442999 178.643023 
L 270.134471 180.974643 
L 273.122456 183.038967 
L 285.079906 193.199423 
L 290.026459 198.111174 
L 293.202836 201.72326 
L 301.431107 211.411312 
L 304.015775 214.349533 
L 314.470023 227.078855 
L 318.463101 232.365692 
L 326.918455 243.539697 
L 328.797399 245.889697 
L 331.263495 249.096127 
L 333.259854 251.750648 
L 339.832064 260.045684 
L 343.351097 264.370689 
L 346.133859 267.856423 
L 355.553277 279.186185 
L 357.18758 281.187858 
L 358.47245 282.716403 
L 361.979374 287.287005 
L 374.739787 304.943628 
L 377.19991 307.906668 
L 379.543042 310.305446 
L 381.652031 311.860392 
L 383.175161 312.587215 
L 384.932932 313.052176 
L 385.870346 313.046515 
L 387.276437 312.815286 
L 395.128037 310.729549 
L 396.768711 310.2723 
L 400.987637 309.178529 
L 402.042397 308.629348 
L 403.331515 307.71304 
L 405.206608 306.134488 
L 408.136478 303.251213 
L 410.949155 300.20212 
L 414.816623 295.842361 
L 418.332449 292.077435 
L 428.059689 281.275349 
L 430.638006 278.492607 
L 431.692779 277.328597 
L 433.567928 275.120646 
L 435.560376 272.787194 
L 448.334591 258.230753 
L 458.17902 246.235958 
L 459.585385 244.910458 
L 460.99173 243.89877 
L 462.046486 243.426353 
L 462.984048 243.26414 
L 464.038821 243.346746 
L 465.093656 243.626904 
L 466.968739 244.449754 
L 468.961042 245.29136 
L 470.6018 245.818553 
L 471.773743 246.027894 
L 472.9457 245.981434 
L 474.000472 245.692907 
L 475.055227 245.213192 
L 476.813177 244.176094 
L 480.91502 241.470242 
L 483.610408 239.40832 
L 487.946776 236.454964 
L 489.821854 235.125824 
L 506.346783 223.162241 
L 510.099064 221.171383 
L 516.782601 218.296818 
L 520.417454 216.771921 
L 522.293536 216.016544 
L 524.638617 215.254463 
L 526.749189 214.725913 
L 529.328995 214.185269 
L 537.536711 212.713376 
L 539.530058 212.377034 
L 544.220132 211.392223 
L 547.737771 210.598855 
L 549.965616 210.402699 
L 561.80831 209.258007 
L 568.960828 209.461233 
L 572.595669 209.822033 
L 583.734908 210.782521 
L 595.577604 211.161347 
L 598.157215 211.146131 
L 601.323108 211.190995 
L 603.433663 211.143167 
L 605.192485 211.166754 
L 609.413686 211.392139 
L 614.572835 211.887374 
L 617.738917 212.277007 
L 622.663402 213.261934 
L 625.712026 213.970912 
L 630.636715 215.091474 
L 632.981811 215.699882 
L 639.078976 217.592307 
L 642.596684 218.519037 
L 645.879893 219.369757 
L 654.439396 221.598224 
L 657.01889 222.238864 
L 663.820049 223.706342 
L 665.226931 224.041669 
L 668.040974 224.77094 
L 671.441298 225.614755 
L 674.959016 226.539736 
L 680.821656 228.276704 
L 682.93248 228.809134 
L 684.573798 229.050072 
L 685.746644 229.073772 
L 692.312595 228.608996 
L 694.423171 228.262286 
L 698.058082 227.497442 
L 698.761568 227.325477 
L 698.761568 227.325477 
" clip-path="url(#p321a5dd852)" style="fill: none; stroke: #0000ff; stroke-width: 2; stroke-linecap: square"/>
   </g>
   <g id="line2d_29">
    <path d="M 89.65202 113.147143 
L 95.229104 113.146333 
L 95.229104 113.146333 
L 103.684123 113.240527 
L 103.684123 113.240527 
L 115.779486 113.53743 
L 128.344712 113.498249 
L 134.216113 113.123527 
L 147.368335 111.806498 
L 147.955495 111.779774 
L 148.307781 111.761657 
L 149.364592 111.664189 
L 150.186591 111.588499 
L 151.713462 111.314872 
L 151.94815 111.45141 
L 153.592162 111.26973 
L 153.82703 111.27384 
L 153.82703 111.27384 
L 154.531607 111.176023 
L 154.766344 111.196113 
L 155.471059 111.08407 
L 155.70591 111.112345 
L 155.70591 111.112345 
L 156.4105 111.010412 
L 156.645363 111.03626 
L 157.349955 110.95073 
L 157.5848 110.973353 
L 158.289382 110.870014 
L 158.524257 110.875313 
L 159.228854 110.701424 
L 159.346279 110.797175 
L 159.698568 110.608224 
L 159.815978 110.723717 
L 159.815978 110.723717 
L 160.168274 110.551306 
L 160.285706 110.725672 
L 160.637996 110.580363 
L 160.872879 110.645572 
L 161.342594 110.653832 
L 162.047161 110.565599 
L 162.282029 110.588337 
L 163.22149 110.535433 
L 165.217804 110.409792 
L 165.217804 110.409792 
L 165.804954 110.440766 
L 165.804954 110.440766 
L 167.683846 110.381295 
L 167.683846 110.381295 
L 168.975563 110.370013 
L 169.327887 110.339255 
L 170.502192 110.344299 
L 170.502192 110.344299 
L 171.089342 110.26662 
L 172.263646 110.241661 
L 172.263646 110.241661 
L 174.259961 110.123694 
L 174.612287 110.139332 
L 175.669198 110.130327 
L 176.726006 110.125736 
L 185.533345 109.89704 
L 187.059912 109.854519 
L 191.052542 109.744041 
L 194.34059 109.598559 
L 195.397468 109.547089 
L 195.984635 109.563115 
L 199.155265 109.424113 
L 200.212152 109.4008 
L 203.382768 109.290248 
L 204.557147 109.262941 
L 211.837785 108.994424 
L 212.42502 109.005267 
L 215.478148 108.945219 
L 218.648743 109.015043 
L 219.588473 109.002073 
L 221.114899 109.118671 
L 221.819367 109.110112 
L 225.459709 109.234554 
L 226.164308 109.285162 
L 227.456215 109.354627 
L 230.156878 109.437715 
L 230.626851 109.521071 
L 231.448788 109.567068 
L 232.153265 109.563702 
L 265.268689 110.900312 
L 267.734663 110.953889 
L 270.134471 111.015907 
L 281.185995 111.19488 
L 281.422226 111.096116 
L 281.540337 111.266666 
L 281.894693 111.175352 
L 282.130816 111.244374 
L 282.130816 111.244374 
L 282.366881 111.144721 
L 282.4849 111.233818 
L 282.838975 111.118509 
L 282.956964 111.334886 
L 283.428977 111.35003 
L 283.428977 111.35003 
L 284.608363 111.402713 
L 284.608363 111.402713 
L 285.551436 111.41422 
L 287.083146 111.426827 
L 288.143116 111.435203 
L 293.085127 111.464159 
L 298.37584 111.388042 
L 299.080888 111.389851 
L 301.666108 111.325487 
L 302.371081 111.368845 
L 304.485821 111.287331 
L 305.073247 111.299556 
L 307.657569 111.242159 
L 307.657569 111.242159 
L 309.536948 111.215092 
L 311.063884 111.173213 
L 311.651189 111.17971 
L 314.35233 111.098973 
L 314.35233 111.098973 
L 314.939708 111.100296 
L 318.110678 111.001911 
L 318.932753 110.988781 
L 321.39902 110.90506 
L 321.868824 110.901627 
L 322.573341 110.890751 
L 324.334956 110.852096 
L 327.035804 110.732981 
L 327.505618 110.756623 
L 330.676332 110.773149 
L 330.793698 110.793093 
L 331.028639 110.695031 
L 331.380931 110.645178 
L 344.746802 110.26211 
L 345.78685 110.152723 
L 346.01818 110.238267 
L 347.176103 110.215299 
L 348.451791 110.16414 
L 352.754875 110.038667 
L 354.853262 109.971881 
L 356.603891 109.924002 
L 360.108581 109.79109 
L 360.108581 109.79109 
L 361.745407 109.742678 
L 361.745407 109.742678 
L 367.244963 109.480084 
L 367.596157 109.482068 
L 369.235286 109.416959 
L 380.94903 108.908233 
L 380.94903 108.908233 
L 387.276437 109.024928 
L 387.276437 109.024928 
L 396.065584 109.462803 
L 396.065584 109.462803 
L 397.706269 109.535887 
L 397.706269 109.535887 
L 398.878216 109.623299 
L 408.370864 110.029883 
L 411.183543 110.183329 
L 414.933827 110.33517 
L 417.043292 110.35716 
L 418.684028 110.33769 
L 419.973196 110.388045 
L 432.396051 110.563704 
L 434.505452 110.554966 
L 440.365253 110.648888 
L 443.29516 110.684916 
L 443.998341 110.713733 
L 446.107846 110.743634 
L 446.811014 110.772924 
L 449.389329 110.65802 
L 449.506518 110.792628 
L 449.85813 110.673968 
L 449.975449 110.800211 
L 450.326891 110.683766 
L 450.444049 110.817606 
L 450.795689 110.699376 
L 451.030072 110.808679 
L 451.264475 110.757242 
L 451.498916 110.83479 
L 451.850451 110.87325 
L 452.670822 110.8364 
L 452.905215 110.906837 
L 454.077164 110.921534 
L 454.311568 110.966352 
L 455.014738 111.002727 
L 455.366319 111.039046 
L 455.952308 111.079237 
L 456.655471 111.16988 
L 459.819765 111.41142 
L 466.968739 111.839263 
L 470.36749 111.894597 
L 470.36749 111.894597 
L 471.890952 111.879884 
L 471.890952 111.879884 
L 478.453736 111.864723 
L 480.680626 111.83123 
L 482.672975 111.791697 
L 483.493447 111.782569 
L 486.071638 111.759314 
L 486.071638 111.759314 
L 487.243596 111.734122 
L 491.697065 111.702041 
L 501.77588 111.600564 
L 508.457501 111.53716 
L 509.161035 111.555554 
L 518.306878 111.67117 
L 519.244871 111.715917 
L 520.534838 111.764423 
L 526.162918 111.756006 
L 535.308795 111.494375 
L 546.447965 111.06291 
L 548.558575 110.993739 
L 552.076179 110.909556 
L 555.359314 110.848102 
L 565.912217 110.889207 
L 565.912217 110.889207 
L 572.243964 111.206887 
L 572.595669 111.248133 
L 573.181994 111.162863 
L 573.416516 111.298518 
L 574.120041 111.314276 
L 574.354731 111.357985 
L 574.823581 111.418385 
L 576.582378 111.573694 
L 578.22386 111.663236 
L 579.161988 111.754584 
L 580.686318 111.847963 
L 581.038043 111.894363 
L 582.093343 111.959588 
L 582.562352 112.000136 
L 583.265895 112.077181 
L 584.907648 112.154955 
L 585.259218 112.197463 
L 585.84549 112.237024 
L 586.197248 112.285999 
L 586.666276 112.254311 
L 586.783515 112.258073 
L 586.783515 112.258073 
L 587.252652 112.389 
L 588.190584 112.440282 
L 588.190584 112.440282 
L 589.363121 112.559753 
L 589.949397 112.586012 
L 589.949397 112.586012 
L 591.942829 112.759236 
L 593.232487 112.82565 
L 593.232487 112.82565 
L 596.750166 113.076699 
L 596.750166 113.076699 
L 598.626237 113.212531 
L 598.626237 113.212531 
L 614.924606 113.841284 
L 616.331677 113.854044 
L 624.304972 113.974203 
L 627.587982 114.087563 
L 629.112417 114.116554 
L 636.851272 114.272759 
L 654.087623 114.540506 
L 665.930406 114.335139 
L 665.930406 114.335139 
L 673.082786 114.11285 
L 688.325884 113.83843 
L 698.644327 114.102948 
L 698.644327 114.102948 
" clip-path="url(#p321a5dd852)" style="fill: none; stroke: #aa00ff; stroke-width: 2; stroke-linecap: square"/>
   </g>
   <g id="line2d_30">
    <path d="M 88.654205 113.147143 
L 102.274946 113.257403 
L 104.271263 113.330306 
L 116.366909 113.758671 
L 119.30259 113.832732 
L 122.355682 113.891893 
L 129.049261 113.817396 
L 133.746375 113.658894 
L 147.485718 113.144402 
L 149.951918 113.058044 
L 150.773921 113.065811 
L 154.883912 112.932998 
L 157.702239 112.937297 
L 168.975562 112.472361 
L 176.726005 111.449422 
L 179.192052 111.012319 
L 181.070939 110.681682 
L 193.401059 108.526987 
L 195.045177 108.154381 
L 196.102056 107.929077 
L 210.193731 105.006995 
L 227.221125 101.707638 
L 229.334927 101.171102 
L 235.323881 99.800882 
L 240.490841 98.597908 
L 251.999034 94.809437 
L 259.397162 91.786061 
L 260.923756 91.209234 
L 267.265008 88.955708 
L 272.406945 87.433156 
L 276.807357 85.907443 
L 284.726248 82.966887 
L 286.611923 82.231104 
L 294.261508 78.840125 
L 297.670531 77.10385 
L 303.311077 74.246409 
L 317.17115 67.037284 
L 322.573341 64.116245 
L 345.324208 52.625283 
L 351.706748 49.299533 
L 354.969915 47.518399 
L 356.837227 46.46052 
L 363.851013 42.791383 
L 375.911217 36.359373 
L 377.434182 35.68477 
L 380.714637 34.493722 
L 382.238001 34.257647 
L 383.409679 34.212558 
L 384.464207 34.331024 
L 385.753181 34.655972 
L 388.448368 35.618806 
L 393.721785 37.940676 
L 396.885907 39.341679 
L 401.456411 41.244457 
L 409.074042 45.145736 
L 411.769544 46.737048 
L 416.574543 49.574384 
L 420.207593 51.67542 
L 423.371869 53.649054 
L 426.301612 55.483495 
L 429.817654 57.682153 
L 432.747535 59.488716 
L 436.61486 61.971636 
L 438.373055 63.083027 
L 442.24038 65.464405 
L 444.818707 66.998127 
L 449.154936 69.594954 
L 452.202043 71.5024 
L 454.780435 73.165493 
L 458.882212 75.702082 
L 460.405914 76.354524 
L 461.92925 76.726717 
L 463.101255 76.788035 
L 464.390567 76.648416 
L 468.843885 75.529423 
L 471.422166 74.975988 
L 473.180097 74.865917 
L 474.938024 75.057075 
L 476.930372 75.578241 
L 479.625866 76.445694 
L 483.02454 77.724311 
L 489.821854 80.428043 
L 491.814253 81.355062 
L 494.626938 82.637216 
L 506.112417 88.491795 
L 510.099064 90.000299 
L 519.831197 93.496358 
L 523.817913 94.512087 
L 525.92845 94.899218 
L 527.569987 95.165095 
L 531.908512 96.087579 
L 544.220131 99.662202 
L 546.213463 100.250208 
L 556.062959 102.993525 
L 565.326049 106.165 
L 567.553768 107.109821 
L 569.078088 107.776263 
L 572.243963 109.148434 
L 575.64433 110.677422 
L 577.872196 111.738371 
L 579.27922 112.419611 
L 590.770186 118.035045 
L 594.287758 119.609293 
L 595.343105 120.098345 
L 606.130519 124.612389 
L 611.524385 127.149642 
L 613.165751 127.896903 
L 617.035181 129.494802 
L 620.435687 130.583485 
L 622.663401 131.066819 
L 627.587981 131.603451 
L 631.926473 132.062339 
L 646.34885 133.729939 
L 649.749326 134.095434 
L 655.025645 135.023361 
L 661.709161 137.435249 
L 665.226931 138.933088 
L 669.330989 140.590825 
L 678.476556 143.901929 
L 681.642491 144.845989 
L 683.51893 145.019454 
L 685.277251 144.918233 
L 691.726311 144.02579 
L 695.243956 143.208258 
L 698.761567 141.997162 
L 698.761567 141.997162 
" clip-path="url(#p321a5dd852)" style="fill: none; stroke: #ff9c00; stroke-width: 2; stroke-linecap: square"/>
   </g>
   <g id="line2d_31">
    <path d="M 88.654206 113.147143 
L 101.218064 113.191274 
L 124.234499 113.716387 
L 125.643766 113.690315 
L 127.052815 113.659124 
L 142.553688 112.48824 
L 145.137148 112.234074 
L 147.016049 112.059175 
L 162.282029 110.718187 
L 165.922377 110.536312 
L 167.683846 110.457096 
L 175.669198 110.266697 
L 182.245237 110.138469 
L 198.215818 109.681692 
L 202.208447 109.55539 
L 205.144236 109.477895 
L 216.652429 109.246475 
L 223.93312 109.525325 
L 233.210173 109.979335 
L 234.502074 110.036805 
L 243.661473 110.418592 
L 259.279834 111.193893 
L 263.97697 111.350674 
L 268.451987 111.46828 
L 274.432179 111.643001 
L 278.939826 111.764982 
L 298.610794 112.050633 
L 301.666108 112.022189 
L 313.295459 111.920612 
L 326.096425 111.691143 
L 327.153364 111.674742 
L 355.203254 111.096443 
L 383.878322 110.196187 
L 415.871383 111.549852 
L 426.184447 111.629539 
L 430.16921 111.645571 
L 434.388278 111.545985 
L 457.358511 111.983772 
L 458.765 112.06575 
L 460.405915 112.170308 
L 468.023481 112.552171 
L 471.539467 112.558202 
L 476.695967 112.475964 
L 481.618236 112.355843 
L 485.13409 112.235262 
L 518.893171 111.523681 
L 522.410791 111.539011 
L 559.697736 110.587709 
L 562.8636 110.611698 
L 565.560634 110.679884 
L 570.719682 110.921564 
L 582.445103 111.844131 
L 585.72811 112.099261 
L 589.949397 112.421792 
L 590.535683 112.473484 
L 595.577604 112.592556 
L 614.455603 113.363544 
L 630.402208 113.579053 
L 631.809142 113.604885 
L 645.645302 113.816839 
L 646.34885 113.827154 
L 666.047591 113.55251 
L 680.001082 113.02677 
L 683.635763 112.905387 
L 691.37456 112.998749 
L 698.761568 113.262149 
L 698.761568 113.262149 
" clip-path="url(#p321a5dd852)" style="fill: none; stroke: #ff0000; stroke-width: 2; stroke-linecap: square"/>
   </g>
   <g id="line2d_32">
    <path d="M 88.771599 113.147143 
L 103.91898 113.257649 
L 126.700719 113.647166 
L 139.852785 112.721838 
L 147.133469 112.035029 
L 149.012373 111.819639 
L 149.951919 111.751349 
L 155.823343 111.241357 
L 164.983053 110.504096 
L 165.922377 110.46503 
L 169.445313 110.299918 
L 182.832387 109.889254 
L 193.870894 109.426367 
L 214.068921 108.511768 
L 218.531493 108.548791 
L 222.524007 108.717829 
L 253.05591 110.295889 
L 260.806318 110.600887 
L 282.248853 111.09839 
L 283.900778 111.136099 
L 300.373562 111.07975 
L 313.530337 110.759357 
L 319.872261 110.524767 
L 328.327663 110.205708 
L 341.005201 109.670764 
L 344.977674 109.48027 
L 349.148445 109.26303 
L 363.616882 108.432029 
L 379.543042 107.322605 
L 380.246017 107.276446 
L 381.183468 107.197567 
L 385.401646 107.222506 
L 403.214327 108.21437 
L 404.854897 108.298773 
L 411.886704 108.775815 
L 415.402571 108.983183 
L 426.418946 109.426458 
L 430.638006 109.544 
L 435.560376 109.620676 
L 439.779294 109.773886 
L 451.967645 110.199237 
L 456.421089 110.499488 
L 465.562378 111.182842 
L 472.594129 111.267125 
L 476.813177 111.255234 
L 483.376141 111.191069 
L 502.361853 110.917919 
L 507.284955 110.809015 
L 509.161035 110.811726 
L 517.134334 110.812955 
L 524.404119 110.884267 
L 538.943684 110.414121 
L 544.571897 110.200264 
L 550.200109 109.986051 
L 559.580473 109.812852 
L 565.912217 109.861518 
L 577.872196 110.434306 
L 581.624326 110.650394 
L 587.487063 110.963145 
L 589.363121 111.063761 
L 602.02661 111.566414 
L 627.119073 111.603837 
L 650.100983 111.888597 
L 656.432906 111.749002 
L 661.005629 111.536553 
L 667.806368 111.098626 
L 671.324104 110.87036 
L 685.394763 110.189431 
L 693.602504 110.421129 
L 698.52708 110.737168 
L 698.52708 110.737168 
" clip-path="url(#p321a5dd852)" style="fill: none; stroke: #00ff00; stroke-width: 2; stroke-linecap: square"/>
   </g>
   <g id="patch_3">
    <path d="M 82.8 313.2 
L 82.8 19.8 
" style="fill: none; stroke: #000000; stroke-width: 0.8; stroke-linejoin: miter; stroke-linecap: square"/>
   </g>
   <g id="patch_4">
    <path d="M 709.2 313.2 
L 709.2 19.8 
" style="fill: none; stroke: #000000; stroke-width: 0.8; stroke-linejoin: miter; stroke-linecap: square"/>
   </g>
   <g id="patch_5">
    <path d="M 82.8 313.2 
L 709.2 313.2 
" style="fill: none; stroke: #000000; stroke-width: 0.8; stroke-linejoin: miter; stroke-linecap: square"/>
   </g>
   <g id="patch_6">
    <path d="M 82.8 19.8 
L 709.2 19.8 
" style="fill: none; stroke: #000000; stroke-width: 0.8; stroke-linejoin: miter; stroke-linecap: square"/>
   </g>
  </g>
 </g>
 <defs>
  <clipPath id="p321a5dd852">
   <rect x="82.8" y="19.8" width="626.4" height="293.4"/>
  </clipPath>
 </defs>
</svg>
