<?xml version="1.0" encoding="utf-8" standalone="no"?>
<!DOCTYPE svg PUBLIC "-//W3C//DTD SVG 1.1//EN"
  "http://www.w3.org/Graphics/SVG/1.1/DTD/svg11.dtd">
<svg xmlns:xlink="http://www.w3.org/1999/xlink" width="648pt" height="648pt" viewBox="0 0 648 648" xmlns="http://www.w3.org/2000/svg" version="1.1">
 <metadata>
  <rdf:RDF xmlns:dc="http://purl.org/dc/elements/1.1/" xmlns:cc="http://creativecommons.org/ns#" xmlns:rdf="http://www.w3.org/1999/02/22-rdf-syntax-ns#">
   <cc:Work>
    <dc:type rdf:resource="http://purl.org/dc/dcmitype/StillImage"/>
    <dc:date>2024-08-10T15:56:09.895190</dc:date>
    <dc:format>image/svg+xml</dc:format>
    <dc:creator>
     <cc:Agent>
      <dc:title>Matplotlib v3.8.3, https://matplotlib.org/</dc:title>
     </cc:Agent>
    </dc:creator>
   </cc:Work>
  </rdf:RDF>
 </metadata>
 <defs>
  <style type="text/css">*{stroke-linejoin: round; stroke-linecap: butt}</style>
 </defs>
 <g id="figure_1">
  <g id="patch_1">
   <path d="M 0 648 
L 648 648 
L 648 0 
L 0 0 
z
" style="fill: #ffffff"/>
  </g>
  <g id="patch_2">
   <path d="M 42.12 623.7 
L 622.08 623.7 
L 622.08 43.74 
L 42.12 43.74 
z
" style="fill: #ffffff"/>
  </g>
  <g id="pane3d_1">
   <g id="patch_3">
    <path d="M 591.641981 489.247539 
L 418.721639 359.160244 
L 421.214465 114.703421 
L 600.431072 224.014277 
" style="fill: #ffffff; stroke: #ffffff; stroke-linejoin: miter"/>
   </g>
  </g>
  <g id="pane3d_2">
   <g id="patch_4">
    <path d="M 100.507323 419.513941 
L 418.721639 359.160244 
L 421.214465 114.703421 
L 92.568072 165.331726 
" style="fill: #ffffff; stroke: #ffffff; stroke-linejoin: miter"/>
   </g>
  </g>
  <g id="pane3d_3">
   <g id="patch_5">
    <path d="M 248.820944 562.626756 
L 591.641981 489.247539 
L 418.721639 359.160244 
L 100.507323 419.513941 
" style="fill: #ffffff; stroke: #ffffff; stroke-linejoin: miter"/>
   </g>
  </g>
  <g id="grid3d_1">
   <g id="Line3DCollection_1">
    <path d="M 288.827608 554.06352 
L 137.489922 412.499685 
L 130.812735 159.440098 
" style="fill: none; stroke: #bdc3c7; stroke-width: 0.5"/>
    <path d="M 356.577131 539.562055 
L 200.20993 400.603978 
L 195.643231 149.452895 
" style="fill: none; stroke: #bdc3c7; stroke-width: 0.5"/>
    <path d="M 423.024744 525.339259 
L 261.836834 388.915593 
L 259.307247 139.64539 
" style="fill: none; stroke: #bdc3c7; stroke-width: 0.5"/>
    <path d="M 488.207619 511.387173 
L 322.398965 377.429156 
L 321.835982 130.012776 
" style="fill: none; stroke: #bdc3c7; stroke-width: 0.5"/>
    <path d="M 552.161523 497.698143 
L 381.92368 366.13948 
L 383.259537 120.550416 
" style="fill: none; stroke: #bdc3c7; stroke-width: 0.5"/>
   </g>
  </g>
  <g id="grid3d_2">
   <g id="Line3DCollection_2">
    <path d="M 560.589873 199.713652 
L 553.295222 460.399422 
L 215.811594 530.774921 
" style="fill: none; stroke: #bdc3c7; stroke-width: 0.5"/>
    <path d="M 524.879745 177.93272 
L 518.878635 434.507959 
L 186.243467 502.243639 
" style="fill: none; stroke: #bdc3c7; stroke-width: 0.5"/>
    <path d="M 490.508111 156.968186 
L 485.710958 409.556046 
L 157.800153 474.797725 
" style="fill: none; stroke: #bdc3c7; stroke-width: 0.5"/>
    <path d="M 457.401101 136.774993 
L 453.725422 385.493452 
L 130.418665 448.376404 
" style="fill: none; stroke: #bdc3c7; stroke-width: 0.5"/>
    <path d="M 425.490183 117.31134 
L 422.859934 362.273466 
L 104.040634 422.923352 
" style="fill: none; stroke: #bdc3c7; stroke-width: 0.5"/>
   </g>
  </g>
  <g id="grid3d_3">
   <g id="Line3DCollection_3">
    <path d="M 99.765563 395.765833 
L 418.954853 336.290315 
L 592.461876 464.505133 
" style="fill: none; stroke: #bdc3c7; stroke-width: 0.5"/>
    <path d="M 97.895402 335.890954 
L 419.542559 278.657438 
L 594.53019 402.088475 
" style="fill: none; stroke: #bdc3c7; stroke-width: 0.5"/>
    <path d="M 95.995887 275.076293 
L 420.139073 220.160829 
L 596.632665 338.640921 
" style="fill: none; stroke: #bdc3c7; stroke-width: 0.5"/>
    <path d="M 94.066323 213.29955 
L 420.744594 160.780925 
L 598.770154 274.136717 
" style="fill: none; stroke: #bdc3c7; stroke-width: 0.5"/>
   </g>
  </g>
  <g id="axis3d_1">
   <g id="line2d_1">
    <path d="M 591.641981 489.247539 
L 248.820944 562.626756 
" style="fill: none; stroke: #000000; stroke-width: 0.8; stroke-linecap: square"/>
   </g>
   <g id="xtick_1">
    <g id="line2d_2">
     <path d="M 287.491369 552.813579 
L 291.506807 556.569688 
" style="fill: none; stroke: #000000; stroke-width: 0.8; stroke-linecap: square"/>
    </g>
    <g id="text_1">
     <!-- 30 -->
     <g transform="translate(283.281108 573.095031) scale(0.14 -0.14)">
      <defs>
       <path id="DejaVuSans-33" d="M 2597 2516 
Q 3050 2419 3304 2112 
Q 3559 1806 3559 1356 
Q 3559 666 3084 287 
Q 2609 -91 1734 -91 
Q 1441 -91 1130 -33 
Q 819 25 488 141 
L 488 750 
Q 750 597 1062 519 
Q 1375 441 1716 441 
Q 2309 441 2620 675 
Q 2931 909 2931 1356 
Q 2931 1769 2642 2001 
Q 2353 2234 1838 2234 
L 1294 2234 
L 1294 2753 
L 1863 2753 
Q 2328 2753 2575 2939 
Q 2822 3125 2822 3475 
Q 2822 3834 2567 4026 
Q 2313 4219 1838 4219 
Q 1578 4219 1281 4162 
Q 984 4106 628 3988 
L 628 4550 
Q 988 4650 1302 4700 
Q 1616 4750 1894 4750 
Q 2613 4750 3031 4423 
Q 3450 4097 3450 3541 
Q 3450 3153 3228 2886 
Q 3006 2619 2597 2516 
z
" transform="scale(0.015625)"/>
       <path id="DejaVuSans-30" d="M 2034 4250 
Q 1547 4250 1301 3770 
Q 1056 3291 1056 2328 
Q 1056 1369 1301 889 
Q 1547 409 2034 409 
Q 2525 409 2770 889 
Q 3016 1369 3016 2328 
Q 3016 3291 2770 3770 
Q 2525 4250 2034 4250 
z
M 2034 4750 
Q 2819 4750 3233 4129 
Q 3647 3509 3647 2328 
Q 3647 1150 3233 529 
Q 2819 -91 2034 -91 
Q 1250 -91 836 529 
Q 422 1150 422 2328 
Q 422 3509 836 4129 
Q 1250 4750 2034 4750 
z
" transform="scale(0.015625)"/>
      </defs>
      <use xlink:href="#DejaVuSans-33"/>
      <use xlink:href="#DejaVuSans-30" x="63.623047"/>
     </g>
    </g>
   </g>
   <g id="xtick_2">
    <g id="line2d_3">
     <path d="M 355.197741 538.33624 
L 359.342781 542.019793 
" style="fill: none; stroke: #000000; stroke-width: 0.8; stroke-linecap: square"/>
    </g>
    <g id="text_2">
     <!-- 110 -->
     <g transform="translate(346.63677 558.492217) scale(0.14 -0.14)">
      <defs>
       <path id="DejaVuSans-31" d="M 794 531 
L 1825 531 
L 1825 4091 
L 703 3866 
L 703 4441 
L 1819 4666 
L 2450 4666 
L 2450 531 
L 3481 531 
L 3481 0 
L 794 0 
L 794 531 
z
" transform="scale(0.015625)"/>
      </defs>
      <use xlink:href="#DejaVuSans-31"/>
      <use xlink:href="#DejaVuSans-31" x="63.623047"/>
      <use xlink:href="#DejaVuSans-30" x="127.246094"/>
     </g>
    </g>
   </g>
   <g id="xtick_3">
    <g id="line2d_4">
     <path d="M 421.6041 524.136876 
L 425.873041 527.749955 
" style="fill: none; stroke: #000000; stroke-width: 0.8; stroke-linecap: square"/>
    </g>
    <g id="text_3">
     <!-- 190 -->
     <g transform="translate(413.141358 544.170397) scale(0.14 -0.14)">
      <defs>
       <path id="DejaVuSans-39" d="M 703 97 
L 703 672 
Q 941 559 1184 500 
Q 1428 441 1663 441 
Q 2288 441 2617 861 
Q 2947 1281 2994 2138 
Q 2813 1869 2534 1725 
Q 2256 1581 1919 1581 
Q 1219 1581 811 2004 
Q 403 2428 403 3163 
Q 403 3881 828 4315 
Q 1253 4750 1959 4750 
Q 2769 4750 3195 4129 
Q 3622 3509 3622 2328 
Q 3622 1225 3098 567 
Q 2575 -91 1691 -91 
Q 1453 -91 1209 -44 
Q 966 3 703 97 
z
M 1959 2075 
Q 2384 2075 2632 2365 
Q 2881 2656 2881 3163 
Q 2881 3666 2632 3958 
Q 2384 4250 1959 4250 
Q 1534 4250 1286 3958 
Q 1038 3666 1038 3163 
Q 1038 2656 1286 2365 
Q 1534 2075 1959 2075 
z
" transform="scale(0.015625)"/>
      </defs>
      <use xlink:href="#DejaVuSans-31"/>
      <use xlink:href="#DejaVuSans-39" x="63.623047"/>
      <use xlink:href="#DejaVuSans-30" x="127.246094"/>
     </g>
    </g>
   </g>
   <g id="xtick_4">
    <g id="line2d_5">
     <path d="M 486.747532 510.207558 
L 491.134927 513.752167 
" style="fill: none; stroke: #000000; stroke-width: 0.8; stroke-linecap: square"/>
    </g>
    <g id="text_4">
     <!-- 270 -->
     <g transform="translate(478.378428 530.121539) scale(0.14 -0.14)">
      <defs>
       <path id="DejaVuSans-32" d="M 1228 531 
L 3431 531 
L 3431 0 
L 469 0 
L 469 531 
Q 828 903 1448 1529 
Q 2069 2156 2228 2338 
Q 2531 2678 2651 2914 
Q 2772 3150 2772 3378 
Q 2772 3750 2511 3984 
Q 2250 4219 1831 4219 
Q 1534 4219 1204 4116 
Q 875 4013 500 3803 
L 500 4441 
Q 881 4594 1212 4672 
Q 1544 4750 1819 4750 
Q 2544 4750 2975 4387 
Q 3406 4025 3406 3419 
Q 3406 3131 3298 2873 
Q 3191 2616 2906 2266 
Q 2828 2175 2409 1742 
Q 1991 1309 1228 531 
z
" transform="scale(0.015625)"/>
       <path id="DejaVuSans-37" d="M 525 4666 
L 3525 4666 
L 3525 4397 
L 1831 0 
L 1172 0 
L 2766 4134 
L 525 4134 
L 525 4666 
z
" transform="scale(0.015625)"/>
      </defs>
      <use xlink:href="#DejaVuSans-32"/>
      <use xlink:href="#DejaVuSans-37" x="63.623047"/>
      <use xlink:href="#DejaVuSans-30" x="127.246094"/>
     </g>
    </g>
   </g>
   <g id="xtick_5">
    <g id="line2d_6">
     <path d="M 550.663726 496.540655 
L 555.164368 500.018721 
" style="fill: none; stroke: #000000; stroke-width: 0.8; stroke-linecap: square"/>
    </g>
    <g id="text_5">
     <!-- 350 -->
     <g transform="translate(542.383873 516.337912) scale(0.14 -0.14)">
      <defs>
       <path id="DejaVuSans-35" d="M 691 4666 
L 3169 4666 
L 3169 4134 
L 1269 4134 
L 1269 2991 
Q 1406 3038 1543 3061 
Q 1681 3084 1819 3084 
Q 2600 3084 3056 2656 
Q 3513 2228 3513 1497 
Q 3513 744 3044 326 
Q 2575 -91 1722 -91 
Q 1428 -91 1123 -41 
Q 819 9 494 109 
L 494 744 
Q 775 591 1075 516 
Q 1375 441 1709 441 
Q 2250 441 2565 725 
Q 2881 1009 2881 1497 
Q 2881 1984 2565 2268 
Q 2250 2553 1709 2553 
Q 1456 2553 1204 2497 
Q 953 2441 691 2322 
L 691 4666 
z
" transform="scale(0.015625)"/>
      </defs>
      <use xlink:href="#DejaVuSans-33"/>
      <use xlink:href="#DejaVuSans-35" x="63.623047"/>
      <use xlink:href="#DejaVuSans-30" x="127.246094"/>
     </g>
    </g>
   </g>
   <g id="text_6">
    <!-- X (m) -->
    <g transform="translate(418.135916 566.696647) rotate(-12.081584) scale(0.18 -0.18)">
     <defs>
      <path id="TimesNewRomanPSMT-58" d="M 2613 2347 
L 3522 991 
Q 3900 428 4083 279 
Q 4266 131 4547 116 
L 4547 0 
L 2728 0 
L 2728 116 
Q 2909 119 2997 153 
Q 3063 181 3105 239 
Q 3147 297 3147 356 
Q 3147 428 3119 500 
Q 3097 553 2947 775 
L 2228 1863 
L 1341 725 
Q 1200 544 1172 483 
Q 1144 422 1144 356 
Q 1144 256 1228 190 
Q 1313 125 1550 116 
L 1550 0 
L 47 0 
L 47 116 
Q 206 131 322 181 
Q 516 263 691 400 
Q 866 538 1091 822 
L 2091 2084 
L 1256 3306 
Q 916 3803 678 3958 
Q 441 4113 131 4122 
L 131 4238 
L 2091 4238 
L 2091 4122 
Q 1841 4113 1748 4041 
Q 1656 3969 1656 3881 
Q 1656 3766 1806 3544 
L 2456 2572 
L 3209 3525 
Q 3341 3694 3370 3756 
Q 3400 3819 3400 3884 
Q 3400 3950 3363 4000 
Q 3316 4066 3244 4092 
Q 3172 4119 2947 4122 
L 2947 4238 
L 4450 4238 
L 4450 4122 
Q 4272 4113 4159 4066 
Q 3991 3994 3850 3872 
Q 3709 3750 3453 3422 
L 2613 2347 
z
" transform="scale(0.015625)"/>
      <path id="TimesNewRomanPSMT-20" transform="scale(0.015625)"/>
      <path id="TimesNewRomanPSMT-28" d="M 1988 -1253 
L 1988 -1369 
Q 1516 -1131 1200 -813 
Q 750 -359 506 256 
Q 263 872 263 1534 
Q 263 2503 741 3301 
Q 1219 4100 1988 4444 
L 1988 4313 
Q 1603 4100 1356 3731 
Q 1109 3363 987 2797 
Q 866 2231 866 1616 
Q 866 947 969 400 
Q 1050 -31 1165 -292 
Q 1281 -553 1476 -793 
Q 1672 -1034 1988 -1253 
z
" transform="scale(0.015625)"/>
      <path id="TimesNewRomanPSMT-6d" d="M 1050 2338 
Q 1363 2650 1419 2697 
Q 1559 2816 1721 2881 
Q 1884 2947 2044 2947 
Q 2313 2947 2506 2790 
Q 2700 2634 2766 2338 
Q 3088 2713 3309 2830 
Q 3531 2947 3766 2947 
Q 3994 2947 4170 2830 
Q 4347 2713 4450 2447 
Q 4519 2266 4519 1878 
L 4519 647 
Q 4519 378 4559 278 
Q 4591 209 4675 161 
Q 4759 113 4950 113 
L 4950 0 
L 3538 0 
L 3538 113 
L 3597 113 
Q 3781 113 3884 184 
Q 3956 234 3988 344 
Q 4000 397 4000 647 
L 4000 1878 
Q 4000 2228 3916 2372 
Q 3794 2572 3525 2572 
Q 3359 2572 3192 2489 
Q 3025 2406 2788 2181 
L 2781 2147 
L 2788 2013 
L 2788 647 
Q 2788 353 2820 281 
Q 2853 209 2943 161 
Q 3034 113 3253 113 
L 3253 0 
L 1806 0 
L 1806 113 
Q 2044 113 2133 169 
Q 2222 225 2256 338 
Q 2272 391 2272 647 
L 2272 1878 
Q 2272 2228 2169 2381 
Q 2031 2581 1784 2581 
Q 1616 2581 1450 2491 
Q 1191 2353 1050 2181 
L 1050 647 
Q 1050 366 1089 281 
Q 1128 197 1204 155 
Q 1281 113 1516 113 
L 1516 0 
L 100 0 
L 100 113 
Q 297 113 375 155 
Q 453 197 493 289 
Q 534 381 534 647 
L 534 1741 
Q 534 2213 506 2350 
Q 484 2453 437 2492 
Q 391 2531 309 2531 
Q 222 2531 100 2484 
L 53 2597 
L 916 2947 
L 1050 2947 
L 1050 2338 
z
" transform="scale(0.015625)"/>
      <path id="TimesNewRomanPSMT-29" d="M 144 4313 
L 144 4444 
Q 619 4209 934 3891 
Q 1381 3434 1625 2820 
Q 1869 2206 1869 1541 
Q 1869 572 1392 -226 
Q 916 -1025 144 -1369 
L 144 -1253 
Q 528 -1038 776 -670 
Q 1025 -303 1145 264 
Q 1266 831 1266 1447 
Q 1266 2113 1163 2663 
Q 1084 3094 967 3353 
Q 850 3613 656 3853 
Q 463 4094 144 4313 
z
" transform="scale(0.015625)"/>
     </defs>
     <use xlink:href="#TimesNewRomanPSMT-58"/>
     <use xlink:href="#TimesNewRomanPSMT-20" x="72.216797"/>
     <use xlink:href="#TimesNewRomanPSMT-28" x="97.216797"/>
     <use xlink:href="#TimesNewRomanPSMT-6d" x="130.517578"/>
     <use xlink:href="#TimesNewRomanPSMT-29" x="208.300781"/>
    </g>
   </g>
  </g>
  <g id="axis3d_2">
   <g id="line2d_7">
    <path d="M 100.507323 419.513941 
L 248.820944 562.626756 
" style="fill: none; stroke: #000000; stroke-width: 0.8; stroke-linecap: square"/>
   </g>
   <g id="xtick_6">
    <g id="line2d_8">
     <path d="M 218.645934 530.183876 
L 210.136074 531.958438 
" style="fill: none; stroke: #000000; stroke-width: 0.8; stroke-linecap: square"/>
    </g>
    <g id="text_7">
     <!-- −330 -->
     <g transform="translate(183.246861 554.219795) scale(0.14 -0.14)">
      <defs>
       <path id="DejaVuSans-2212" d="M 678 2272 
L 4684 2272 
L 4684 1741 
L 678 1741 
L 678 2272 
z
" transform="scale(0.015625)"/>
      </defs>
      <use xlink:href="#DejaVuSans-2212"/>
      <use xlink:href="#DejaVuSans-33" x="83.789062"/>
      <use xlink:href="#DejaVuSans-33" x="147.412109"/>
      <use xlink:href="#DejaVuSans-30" x="211.035156"/>
     </g>
    </g>
   </g>
   <g id="xtick_7">
    <g id="line2d_9">
     <path d="M 189.034519 501.675287 
L 180.654759 503.381687 
" style="fill: none; stroke: #000000; stroke-width: 0.8; stroke-linecap: square"/>
    </g>
    <g id="text_8">
     <!-- −210 -->
     <g transform="translate(153.920366 525.423518) scale(0.14 -0.14)">
      <use xlink:href="#DejaVuSans-2212"/>
      <use xlink:href="#DejaVuSans-32" x="83.789062"/>
      <use xlink:href="#DejaVuSans-31" x="147.412109"/>
      <use xlink:href="#DejaVuSans-30" x="211.035156"/>
     </g>
    </g>
   </g>
   <g id="xtick_8">
    <g id="line2d_10">
     <path d="M 160.549128 474.250785 
L 152.295822 475.892876 
" style="fill: none; stroke: #000000; stroke-width: 0.8; stroke-linecap: square"/>
    </g>
    <g id="text_9">
     <!-- −90 -->
     <g transform="translate(130.163875 497.723313) scale(0.14 -0.14)">
      <use xlink:href="#DejaVuSans-2212"/>
      <use xlink:href="#DejaVuSans-39" x="83.789062"/>
      <use xlink:href="#DejaVuSans-30" x="147.412109"/>
     </g>
    </g>
   </g>
   <g id="xtick_9">
    <g id="line2d_11">
     <path d="M 133.126731 447.849687 
L 124.996365 449.431038 
" style="fill: none; stroke: #000000; stroke-width: 0.8; stroke-linecap: square"/>
    </g>
    <g id="text_10">
     <!-- 30 -->
     <g transform="translate(108.873128 471.057769) scale(0.14 -0.14)">
      <use xlink:href="#DejaVuSans-33"/>
      <use xlink:href="#DejaVuSans-30" x="63.623047"/>
     </g>
    </g>
   </g>
   <g id="xtick_10">
    <g id="line2d_12">
     <path d="M 106.708916 422.415758 
L 98.698105 423.939676 
" style="fill: none; stroke: #000000; stroke-width: 0.8; stroke-linecap: square"/>
    </g>
    <g id="text_11">
     <!-- 150 -->
     <g transform="translate(78.258608 445.36998) scale(0.14 -0.14)">
      <use xlink:href="#DejaVuSans-31"/>
      <use xlink:href="#DejaVuSans-35" x="63.623047"/>
      <use xlink:href="#DejaVuSans-30" x="127.246094"/>
     </g>
    </g>
   </g>
   <g id="text_12">
    <!-- Y (m) -->
    <g transform="translate(117.552335 509.215122) rotate(-316.022394) scale(0.18 -0.18)">
     <defs>
      <path id="TimesNewRomanPSMT-59" d="M 3050 4238 
L 4528 4238 
L 4528 4122 
L 4447 4122 
Q 4366 4122 4209 4050 
Q 4053 3978 3925 3843 
Q 3797 3709 3609 3406 
L 2588 1797 
L 2588 734 
Q 2588 344 2675 247 
Q 2794 116 3050 116 
L 3188 116 
L 3188 0 
L 1388 0 
L 1388 116 
L 1538 116 
Q 1806 116 1919 278 
Q 1988 378 1988 734 
L 1988 1738 
L 825 3513 
Q 619 3825 545 3903 
Q 472 3981 241 4091 
Q 178 4122 59 4122 
L 59 4238 
L 1872 4238 
L 1872 4122 
L 1778 4122 
Q 1631 4122 1507 4053 
Q 1384 3984 1384 3847 
Q 1384 3734 1575 3441 
L 2459 2075 
L 3291 3381 
Q 3478 3675 3478 3819 
Q 3478 3906 3433 3975 
Q 3388 4044 3303 4083 
Q 3219 4122 3050 4122 
L 3050 4238 
z
" transform="scale(0.015625)"/>
     </defs>
     <use xlink:href="#TimesNewRomanPSMT-59"/>
     <use xlink:href="#TimesNewRomanPSMT-20" x="68.466797"/>
     <use xlink:href="#TimesNewRomanPSMT-28" x="93.466797"/>
     <use xlink:href="#TimesNewRomanPSMT-6d" x="126.767578"/>
     <use xlink:href="#TimesNewRomanPSMT-29" x="204.550781"/>
    </g>
   </g>
  </g>
  <g id="axis3d_3">
   <g id="line2d_13">
    <path d="M 100.507323 419.513941 
L 92.568072 165.331726 
" style="fill: none; stroke: #000000; stroke-width: 0.8; stroke-linecap: square"/>
   </g>
   <g id="xtick_11">
    <g id="line2d_14">
     <path d="M 102.43701 395.268054 
L 94.416691 396.762505 
" style="fill: none; stroke: #000000; stroke-width: 0.8; stroke-linecap: square"/>
    </g>
    <g id="text_13">
     <!-- −200 -->
     <g transform="translate(55.781597 402.949643) scale(0.14 -0.14)">
      <use xlink:href="#DejaVuSans-2212"/>
      <use xlink:href="#DejaVuSans-32" x="83.789062"/>
      <use xlink:href="#DejaVuSans-30" x="147.412109"/>
      <use xlink:href="#DejaVuSans-30" x="211.035156"/>
     </g>
    </g>
   </g>
   <g id="xtick_12">
    <g id="line2d_15">
     <path d="M 100.588346 335.411774 
L 92.503443 336.850392 
" style="fill: none; stroke: #000000; stroke-width: 0.8; stroke-linecap: square"/>
    </g>
    <g id="text_14">
     <!-- −100 -->
     <g transform="translate(53.724032 343.203881) scale(0.14 -0.14)">
      <use xlink:href="#DejaVuSans-2212"/>
      <use xlink:href="#DejaVuSans-31" x="83.789062"/>
      <use xlink:href="#DejaVuSans-30" x="147.412109"/>
      <use xlink:href="#DejaVuSans-30" x="211.035156"/>
     </g>
    </g>
   </g>
   <g id="xtick_13">
    <g id="line2d_16">
     <path d="M 98.710676 274.616361 
L 90.560142 275.997202 
" style="fill: none; stroke: #000000; stroke-width: 0.8; stroke-linecap: square"/>
    </g>
    <g id="text_15">
     <!-- 0 -->
     <g transform="translate(66.407539 282.522827) scale(0.14 -0.14)">
      <use xlink:href="#DejaVuSans-30"/>
     </g>
    </g>
   </g>
   <g id="xtick_14">
    <g id="line2d_17">
     <path d="M 96.803312 212.859536 
L 88.586075 214.180585 
" style="fill: none; stroke: #000000; stroke-width: 0.8; stroke-linecap: square"/>
    </g>
    <g id="text_16">
     <!-- 100 -->
     <g transform="translate(55.377292 220.884343) scale(0.14 -0.14)">
      <use xlink:href="#DejaVuSans-31"/>
      <use xlink:href="#DejaVuSans-30" x="63.623047"/>
      <use xlink:href="#DejaVuSans-30" x="127.246094"/>
     </g>
    </g>
   </g>
   <g id="text_17">
    <!-- Z (m) -->
    <g transform="translate(38.507365 267.047387) rotate(-271.789022) scale(0.18 -0.18)">
     <defs>
      <path id="TimesNewRomanPSMT-5a" d="M 3681 4238 
L 897 256 
L 2634 256 
Q 3034 256 3248 431 
Q 3463 606 3628 1141 
L 3731 1122 
L 3531 0 
L 81 0 
L 81 116 
L 2800 3984 
L 1444 3984 
Q 1106 3984 954 3911 
Q 803 3838 723 3698 
Q 644 3559 578 3178 
L 459 3178 
L 547 4238 
L 3681 4238 
z
" transform="scale(0.015625)"/>
     </defs>
     <use xlink:href="#TimesNewRomanPSMT-5a"/>
     <use xlink:href="#TimesNewRomanPSMT-20" x="61.083984"/>
     <use xlink:href="#TimesNewRomanPSMT-28" x="86.083984"/>
     <use xlink:href="#TimesNewRomanPSMT-6d" x="119.384766"/>
     <use xlink:href="#TimesNewRomanPSMT-29" x="197.167969"/>
    </g>
   </g>
  </g>
  <g id="axes_1">
   <g id="line2d_18">
    <defs>
     <path id="mb086b07e01" d="M 0 -3 
L -0.673542 -0.927051 
L -2.85317 -0.927051 
L -1.089814 0.354102 
L -1.763356 2.427051 
L -0 1.145898 
L 1.763356 2.427051 
L 1.089814 0.354102 
L 2.85317 -0.927051 
L 0.673542 -0.927051 
z
" style="stroke: #ff0000; stroke-linejoin: bevel"/>
    </defs>
    <g clip-path="url(#pdb4235559f)">
     <use xlink:href="#mb086b07e01" x="146.960666" y="304.90882" style="fill: #ff0000; stroke: #ff0000; stroke-linejoin: bevel"/>
    </g>
   </g>
   <g id="line2d_19">
    <path d="M 146.960666 304.90882 
L 151.740582 303.969328 
L 171.829013 300.125439 
L 177.12195 299.246021 
L 197.219469 295.334169 
L 209.909153 293.425597 
L 221.220809 292.158935 
L 234.445895 290.791877 
L 247.40906 289.054039 
L 253.504367 288.875525 
L 263.140108 288.897831 
L 273.642072 288.739396 
L 277.663717 288.781869 
L 301.78969 288.464948 
L 321.734232 288.784634 
L 330.075772 289.546225 
L 337.009799 290.457311 
L 346.545995 291.856384 
L 349.650984 292.332831 
L 357.042794 293.617352 
L 367.083259 296.829968 
L 372.36955 298.739809 
L 376.776811 300.112458 
L 381.235088 301.725901 
L 383.007127 302.298087 
L 385.585445 303.19651 
L 387.301467 303.616222 
L 394.001774 305.473416 
L 398.807534 306.791742 
L 400.559621 307.188607 
L 417.923087 311.622979 
L 432.940021 315.339078 
L 434.391494 315.879488 
L 435.865835 316.377812 
L 438.788681 317.485007 
L 442.513667 318.700411 
L 444.969733 319.375474 
L 448.604821 320.182035 
L 453.50735 321.044685 
L 471.179504 323.539266 
L 474.802411 323.937274 
L 488.829594 325.126497 
L 494.802005 325.868473 
L 497.081823 326.047805 
L 501.698493 326.374358 
L 505.167691 326.595289 
L 507.484455 326.809785 
L 509.816776 326.856715 
L 512.194045 326.972926 
L 514.494477 327.171645 
L 520.19508 327.775537 
L 526.81289 328.656126 
L 540.22725 331.117587 
L 548.030639 332.604548 
L 550.729982 332.852986 
L 557.68964 332.739833 
L 563.716304 332.275319 
L 564.652633 332.197285 
L 567.794615 331.603667 
L 571.440773 330.860075 
L 574.449919 330.222958 
L 580.210413 329.409159 
L 583.309105 329.401595 
L 585.225957 329.549329 
L 587.803579 330.021598 
L 589.412782 330.419565 
L 589.412782 330.419565 
" clip-path="url(#pdb4235559f)" style="fill: none; stroke-dasharray: 10.175,4.4; stroke-dashoffset: 0; stroke: #808a87; stroke-width: 2.75"/>
   </g>
   <g id="line2d_20">
    <path d="M 146.960666 304.90882 
L 158.759801 303.063585 
L 168.617335 301.616615 
L 184.467244 299.475109 
L 192.014265 298.305145 
L 198.005764 297.467451 
L 209.409497 296.263598 
L 223.128601 295.392839 
L 228.837793 295.086434 
L 247.957293 293.577792 
L 254.159961 293.761161 
L 259.658655 294.068751 
L 289.075754 294.99112 
L 294.607742 295.165889 
L 302.195576 295.527514 
L 322.016638 296.752272 
L 325.488132 297.210979 
L 337.133671 299.143296 
L 341.45998 299.960998 
L 345.589955 300.75977 
L 356.112775 302.919161 
L 364.326423 305.845831 
L 368.750887 307.617964 
L 373.939188 309.583039 
L 375.73481 310.229759 
L 383.696035 313.309973 
L 386.257136 314.15759 
L 396.858206 317.610901 
L 399.481353 318.285313 
L 404.517425 319.755774 
L 406.175535 320.286519 
L 408.665787 320.997261 
L 411.980742 322.013318 
L 415.267929 322.906219 
L 433.392147 328.183123 
L 437.074196 329.666406 
L 438.539866 330.24998 
L 443.116256 331.828381 
L 446.634375 332.811102 
L 452.455126 334.087169 
L 457.514944 335.040881 
L 471.204959 337.468659 
L 488.850336 339.755777 
L 494.726429 340.666036 
L 499.336861 341.249202 
L 515.419099 342.974439 
L 526.540751 344.893648 
L 531.850084 345.922296 
L 543.963627 348.913303 
L 547.484111 349.548868 
L 551.812673 349.968682 
L 562.531395 349.82069 
L 563.446212 349.77488 
L 565.087929 349.562898 
L 568.008554 349.096488 
L 575.020235 348.076315 
L 578.560146 347.836911 
L 582.648282 348.067589 
L 584.377063 348.372426 
L 586.117547 348.776128 
L 586.97151 349.027712 
L 586.97151 349.027712 
" clip-path="url(#pdb4235559f)" style="fill: none; stroke: #ff0000; stroke-width: 2; stroke-linecap: square"/>
   </g>
   <g id="line2d_21">
    <path d="M 146.96995 304.908687 
L 146.928322 304.913556 
L 147.071633 304.892726 
L 148.246733 304.723895 
L 156.735446 303.420014 
L 162.327896 302.515105 
L 174.734671 300.895649 
L 178.331898 300.406609 
L 197.41431 297.514195 
L 209.47387 296.231998 
L 223.182366 295.367841 
L 237.134307 294.400085 
L 241.297102 293.995928 
L 244.578472 293.708251 
L 246.629936 293.563094 
L 254.17288 293.713023 
L 270.000533 294.367465 
L 274.913571 294.618321 
L 276.231738 294.698059 
L 288.39993 295.024456 
L 301.899267 295.576171 
L 306.313143 295.837953 
L 308.035222 295.963917 
L 310.763907 296.109013 
L 319.516968 296.651001 
L 326.427512 297.503586 
L 328.86982 297.889005 
L 331.857329 298.352789 
L 350.567337 302.038545 
L 354.292907 302.851368 
L 354.976345 302.992036 
L 355.772642 303.220146 
L 356.965277 303.582691 
L 362.266249 305.468777 
L 364.442164 306.313198 
L 366.196446 307.022763 
L 373.010288 309.785196 
L 375.409035 310.671079 
L 380.75531 312.830443 
L 382.085123 313.327123 
L 385.296199 314.5502 
L 386.164978 314.82472 
L 388.702217 315.633593 
L 392.855429 317.009487 
L 397.643914 318.621756 
L 399.170857 318.995754 
L 400.68828 319.497283 
L 402.806949 320.100512 
L 404.63929 320.685415 
L 406.948287 321.422033 
L 411.888661 322.964942 
L 415.171844 323.917498 
L 420.185027 325.339572 
L 424.601992 326.61996 
L 430.821813 328.496986 
L 431.699086 328.86421 
L 432.456801 329.019929 
L 433.895512 329.652463 
L 441.293443 332.624629 
L 447.028224 334.380051 
L 450.15073 335.108722 
L 453.136396 335.746053 
L 455.402901 336.207202 
L 458.483163 336.808716 
L 466.696762 338.345532 
L 469.696076 338.862276 
L 472.293368 339.32177 
L 475.131544 339.69914 
L 492.025169 342.073447 
L 493.751412 342.395401 
L 501.745517 343.298783 
L 504.890367 343.678354 
L 506.625279 343.920414 
L 507.543882 343.910638 
L 508.365343 344.061746 
L 509.238769 344.084456 
L 510.994652 344.235486 
L 522.838021 346.043621 
L 526.882646 346.860699 
L 529.30838 347.385927 
L 533.763142 348.321404 
L 534.889754 348.569026 
L 540.756808 350.157168 
L 542.906705 350.707236 
L 545.933868 351.390419 
L 550.573873 351.945639 
L 556.120175 352.09117 
L 561.042265 351.973578 
L 562.976217 351.82207 
L 564.087134 351.68661 
L 564.690865 351.613915 
L 566.079499 351.41887 
L 568.183478 351.027338 
L 569.3498 350.825402 
L 573.516928 350.137103 
L 574.721839 349.963787 
L 576.93033 349.743612 
L 578.879769 349.654587 
L 584.142295 350.110773 
L 584.841381 350.274536 
L 586.001486 350.576093 
L 587.82883 351.130133 
L 587.82883 351.130133 
" clip-path="url(#pdb4235559f)" style="fill: none; stroke: #0000ff; stroke-width: 2; stroke-linecap: square"/>
   </g>
   <g id="Path3DCollection_1">
    <defs>
     <path id="m200548625e" d="M 0 -5 
L -1.12257 -1.545085 
L -4.755283 -1.545085 
L -1.816356 0.59017 
L -2.938926 4.045085 
L -0 1.90983 
L 2.938926 4.045085 
L 1.816356 0.59017 
L 4.755283 -1.545085 
L 1.12257 -1.545085 
z
" style="stroke: #ff0000"/>
    </defs>
    <g clip-path="url(#pdb4235559f)">
     <use xlink:href="#m200548625e" x="146.960666" y="304.90882" style="fill: #ff0000; stroke: #ff0000"/>
    </g>
   </g>
   <g id="legend_1">
    <g id="patch_6">
     <path d="M 74.2475 107.5846 
L 589.9525 107.5846 
Q 593.1525 107.5846 593.1525 104.3846 
L 593.1525 60.7396 
Q 593.1525 57.5396 589.9525 57.5396 
L 74.2475 57.5396 
Q 71.0475 57.5396 71.0475 60.7396 
L 71.0475 104.3846 
Q 71.0475 107.5846 74.2475 107.5846 
z
" style="fill: #ffffff; opacity: 0.8; stroke: #cccccc; stroke-linejoin: miter"/>
    </g>
    <g id="line2d_22">
     <g>
      <use xlink:href="#mb086b07e01" x="93.4475" y="69.5396" style="fill: #ff0000; stroke: #ff0000; stroke-linejoin: bevel"/>
     </g>
    </g>
    <g id="text_18">
     <!-- Start -->
     <g transform="translate(122.2475 75.1396) scale(0.16 -0.16)">
      <defs>
       <path id="TimesNewRomanPSMT-53" d="M 2934 4334 
L 2934 2869 
L 2819 2869 
Q 2763 3291 2617 3541 
Q 2472 3791 2203 3937 
Q 1934 4084 1647 4084 
Q 1322 4084 1109 3886 
Q 897 3688 897 3434 
Q 897 3241 1031 3081 
Q 1225 2847 1953 2456 
Q 2547 2138 2764 1967 
Q 2981 1797 3098 1565 
Q 3216 1334 3216 1081 
Q 3216 600 2842 251 
Q 2469 -97 1881 -97 
Q 1697 -97 1534 -69 
Q 1438 -53 1133 45 
Q 828 144 747 144 
Q 669 144 623 97 
Q 578 50 556 -97 
L 441 -97 
L 441 1356 
L 556 1356 
Q 638 900 775 673 
Q 913 447 1195 297 
Q 1478 147 1816 147 
Q 2206 147 2432 353 
Q 2659 559 2659 841 
Q 2659 997 2573 1156 
Q 2488 1316 2306 1453 
Q 2184 1547 1640 1851 
Q 1097 2156 867 2337 
Q 638 2519 519 2737 
Q 400 2956 400 3219 
Q 400 3675 750 4004 
Q 1100 4334 1641 4334 
Q 1978 4334 2356 4169 
Q 2531 4091 2603 4091 
Q 2684 4091 2736 4139 
Q 2788 4188 2819 4334 
L 2934 4334 
z
" transform="scale(0.015625)"/>
       <path id="TimesNewRomanPSMT-74" d="M 1031 3803 
L 1031 2863 
L 1700 2863 
L 1700 2644 
L 1031 2644 
L 1031 788 
Q 1031 509 1111 412 
Q 1191 316 1316 316 
Q 1419 316 1516 380 
Q 1613 444 1666 569 
L 1788 569 
Q 1678 263 1478 108 
Q 1278 -47 1066 -47 
Q 922 -47 784 33 
Q 647 113 581 261 
Q 516 409 516 719 
L 516 2644 
L 63 2644 
L 63 2747 
Q 234 2816 414 2980 
Q 594 3144 734 3369 
Q 806 3488 934 3803 
L 1031 3803 
z
" transform="scale(0.015625)"/>
       <path id="TimesNewRomanPSMT-61" d="M 1822 413 
Q 1381 72 1269 19 
Q 1100 -59 909 -59 
Q 613 -59 420 144 
Q 228 347 228 678 
Q 228 888 322 1041 
Q 450 1253 767 1440 
Q 1084 1628 1822 1897 
L 1822 2009 
Q 1822 2438 1686 2597 
Q 1550 2756 1291 2756 
Q 1094 2756 978 2650 
Q 859 2544 859 2406 
L 866 2225 
Q 866 2081 792 2003 
Q 719 1925 600 1925 
Q 484 1925 411 2006 
Q 338 2088 338 2228 
Q 338 2497 613 2722 
Q 888 2947 1384 2947 
Q 1766 2947 2009 2819 
Q 2194 2722 2281 2516 
Q 2338 2381 2338 1966 
L 2338 994 
Q 2338 584 2353 492 
Q 2369 400 2405 369 
Q 2441 338 2488 338 
Q 2538 338 2575 359 
Q 2641 400 2828 588 
L 2828 413 
Q 2478 -56 2159 -56 
Q 2006 -56 1915 50 
Q 1825 156 1822 413 
z
M 1822 616 
L 1822 1706 
Q 1350 1519 1213 1441 
Q 966 1303 859 1153 
Q 753 1003 753 825 
Q 753 600 887 451 
Q 1022 303 1197 303 
Q 1434 303 1822 616 
z
" transform="scale(0.015625)"/>
       <path id="TimesNewRomanPSMT-72" d="M 1038 2947 
L 1038 2303 
Q 1397 2947 1775 2947 
Q 1947 2947 2059 2842 
Q 2172 2738 2172 2600 
Q 2172 2478 2090 2393 
Q 2009 2309 1897 2309 
Q 1788 2309 1652 2417 
Q 1516 2525 1450 2525 
Q 1394 2525 1328 2463 
Q 1188 2334 1038 2041 
L 1038 669 
Q 1038 431 1097 309 
Q 1138 225 1241 169 
Q 1344 113 1538 113 
L 1538 0 
L 72 0 
L 72 113 
Q 291 113 397 181 
Q 475 231 506 341 
Q 522 394 522 644 
L 522 1753 
Q 522 2253 501 2348 
Q 481 2444 426 2487 
Q 372 2531 291 2531 
Q 194 2531 72 2484 
L 41 2597 
L 906 2947 
L 1038 2947 
z
" transform="scale(0.015625)"/>
      </defs>
      <use xlink:href="#TimesNewRomanPSMT-53"/>
      <use xlink:href="#TimesNewRomanPSMT-74" x="55.615234"/>
      <use xlink:href="#TimesNewRomanPSMT-61" x="83.398438"/>
      <use xlink:href="#TimesNewRomanPSMT-72" x="127.783203"/>
      <use xlink:href="#TimesNewRomanPSMT-74" x="161.083984"/>
     </g>
    </g>
    <g id="patch_7">
     <path d="M 77.4475 97.7621 
L 109.4475 97.7621 
L 109.4475 86.5621 
L 77.4475 86.5621 
L 77.4475 97.7621 
z
" style="fill: none"/>
    </g>
    <g id="line2d_23">
     <path d="M 184.465 69.5396 
L 200.465 69.5396 
L 216.465 69.5396 
" style="fill: none; stroke-dasharray: 10.175,4.4; stroke-dashoffset: 0; stroke: #808a87; stroke-width: 2.75"/>
    </g>
    <g id="text_19">
     <!-- GroundTruth -->
     <g transform="translate(229.265 75.1396) scale(0.16 -0.16)">
      <defs>
       <path id="TimesNewRomanPSMT-47" d="M 3928 4334 
L 4038 2997 
L 3928 2997 
Q 3763 3497 3500 3750 
Q 3122 4116 2528 4116 
Q 1719 4116 1297 3475 
Q 944 2934 944 2188 
Q 944 1581 1178 1081 
Q 1413 581 1792 348 
Q 2172 116 2572 116 
Q 2806 116 3025 175 
Q 3244 234 3447 350 
L 3447 1575 
Q 3447 1894 3398 1992 
Q 3350 2091 3248 2142 
Q 3147 2194 2891 2194 
L 2891 2313 
L 4531 2313 
L 4531 2194 
L 4453 2194 
Q 4209 2194 4119 2031 
Q 4056 1916 4056 1575 
L 4056 278 
Q 3697 84 3347 -6 
Q 2997 -97 2569 -97 
Q 1341 -97 703 691 
Q 225 1281 225 2053 
Q 225 2613 494 3125 
Q 813 3734 1369 4063 
Q 1834 4334 2469 4334 
Q 2700 4334 2889 4296 
Q 3078 4259 3425 4131 
Q 3600 4066 3659 4066 
Q 3719 4066 3761 4120 
Q 3803 4175 3813 4334 
L 3928 4334 
z
" transform="scale(0.015625)"/>
       <path id="TimesNewRomanPSMT-6f" d="M 1600 2947 
Q 2250 2947 2644 2453 
Q 2978 2031 2978 1484 
Q 2978 1100 2793 706 
Q 2609 313 2286 112 
Q 1963 -88 1566 -88 
Q 919 -88 538 428 
Q 216 863 216 1403 
Q 216 1797 411 2186 
Q 606 2575 925 2761 
Q 1244 2947 1600 2947 
z
M 1503 2744 
Q 1338 2744 1170 2645 
Q 1003 2547 900 2300 
Q 797 2053 797 1666 
Q 797 1041 1045 587 
Q 1294 134 1700 134 
Q 2003 134 2200 384 
Q 2397 634 2397 1244 
Q 2397 2006 2069 2444 
Q 1847 2744 1503 2744 
z
" transform="scale(0.015625)"/>
       <path id="TimesNewRomanPSMT-75" d="M 2709 2863 
L 2709 1128 
Q 2709 631 2732 520 
Q 2756 409 2807 365 
Q 2859 322 2928 322 
Q 3025 322 3147 375 
L 3191 266 
L 2334 -88 
L 2194 -88 
L 2194 519 
Q 1825 119 1631 15 
Q 1438 -88 1222 -88 
Q 981 -88 804 51 
Q 628 191 559 409 
Q 491 628 491 1028 
L 491 2306 
Q 491 2509 447 2587 
Q 403 2666 317 2708 
Q 231 2750 6 2747 
L 6 2863 
L 1009 2863 
L 1009 947 
Q 1009 547 1148 422 
Q 1288 297 1484 297 
Q 1619 297 1789 381 
Q 1959 466 2194 703 
L 2194 2325 
Q 2194 2569 2105 2655 
Q 2016 2741 1734 2747 
L 1734 2863 
L 2709 2863 
z
" transform="scale(0.015625)"/>
       <path id="TimesNewRomanPSMT-6e" d="M 1034 2341 
Q 1538 2947 1994 2947 
Q 2228 2947 2397 2830 
Q 2566 2713 2666 2444 
Q 2734 2256 2734 1869 
L 2734 647 
Q 2734 375 2778 278 
Q 2813 200 2889 156 
Q 2966 113 3172 113 
L 3172 0 
L 1756 0 
L 1756 113 
L 1816 113 
Q 2016 113 2095 173 
Q 2175 234 2206 353 
Q 2219 400 2219 647 
L 2219 1819 
Q 2219 2209 2117 2386 
Q 2016 2563 1775 2563 
Q 1403 2563 1034 2156 
L 1034 647 
Q 1034 356 1069 288 
Q 1113 197 1189 155 
Q 1266 113 1500 113 
L 1500 0 
L 84 0 
L 84 113 
L 147 113 
Q 366 113 442 223 
Q 519 334 519 647 
L 519 1709 
Q 519 2225 495 2337 
Q 472 2450 423 2490 
Q 375 2531 294 2531 
Q 206 2531 84 2484 
L 38 2597 
L 900 2947 
L 1034 2947 
L 1034 2341 
z
" transform="scale(0.015625)"/>
       <path id="TimesNewRomanPSMT-64" d="M 2222 322 
Q 2013 103 1813 7 
Q 1613 -88 1381 -88 
Q 913 -88 563 304 
Q 213 697 213 1313 
Q 213 1928 600 2439 
Q 988 2950 1597 2950 
Q 1975 2950 2222 2709 
L 2222 3238 
Q 2222 3728 2198 3840 
Q 2175 3953 2125 3993 
Q 2075 4034 2000 4034 
Q 1919 4034 1784 3984 
L 1744 4094 
L 2597 4444 
L 2738 4444 
L 2738 1134 
Q 2738 631 2761 520 
Q 2784 409 2836 365 
Q 2888 322 2956 322 
Q 3041 322 3181 375 
L 3216 266 
L 2366 -88 
L 2222 -88 
L 2222 322 
z
M 2222 541 
L 2222 2016 
Q 2203 2228 2109 2403 
Q 2016 2578 1861 2667 
Q 1706 2756 1559 2756 
Q 1284 2756 1069 2509 
Q 784 2184 784 1559 
Q 784 928 1059 592 
Q 1334 256 1672 256 
Q 1956 256 2222 541 
z
" transform="scale(0.015625)"/>
       <path id="TimesNewRomanPSMT-54" d="M 3703 4238 
L 3750 3244 
L 3631 3244 
Q 3597 3506 3538 3619 
Q 3441 3800 3280 3886 
Q 3119 3972 2856 3972 
L 2259 3972 
L 2259 734 
Q 2259 344 2344 247 
Q 2463 116 2709 116 
L 2856 116 
L 2856 0 
L 1059 0 
L 1059 116 
L 1209 116 
Q 1478 116 1591 278 
Q 1659 378 1659 734 
L 1659 3972 
L 1150 3972 
Q 853 3972 728 3928 
Q 566 3869 450 3700 
Q 334 3531 313 3244 
L 194 3244 
L 244 4238 
L 3703 4238 
z
" transform="scale(0.015625)"/>
       <path id="TimesNewRomanPSMT-68" d="M 1041 4444 
L 1041 2350 
Q 1388 2731 1591 2839 
Q 1794 2947 1997 2947 
Q 2241 2947 2416 2812 
Q 2591 2678 2675 2391 
Q 2734 2191 2734 1659 
L 2734 647 
Q 2734 375 2778 275 
Q 2809 200 2884 156 
Q 2959 113 3159 113 
L 3159 0 
L 1753 0 
L 1753 113 
L 1819 113 
Q 2019 113 2097 173 
Q 2175 234 2206 353 
Q 2216 403 2216 647 
L 2216 1659 
Q 2216 2128 2167 2275 
Q 2119 2422 2012 2495 
Q 1906 2569 1756 2569 
Q 1603 2569 1437 2487 
Q 1272 2406 1041 2159 
L 1041 647 
Q 1041 353 1073 281 
Q 1106 209 1195 161 
Q 1284 113 1503 113 
L 1503 0 
L 84 0 
L 84 113 
Q 275 113 384 172 
Q 447 203 484 290 
Q 522 378 522 647 
L 522 3238 
Q 522 3728 498 3840 
Q 475 3953 426 3993 
Q 378 4034 297 4034 
Q 231 4034 84 3984 
L 41 4094 
L 897 4444 
L 1041 4444 
z
" transform="scale(0.015625)"/>
      </defs>
      <use xlink:href="#TimesNewRomanPSMT-47"/>
      <use xlink:href="#TimesNewRomanPSMT-72" x="72.216797"/>
      <use xlink:href="#TimesNewRomanPSMT-6f" x="105.517578"/>
      <use xlink:href="#TimesNewRomanPSMT-75" x="155.517578"/>
      <use xlink:href="#TimesNewRomanPSMT-6e" x="205.517578"/>
      <use xlink:href="#TimesNewRomanPSMT-64" x="255.517578"/>
      <use xlink:href="#TimesNewRomanPSMT-54" x="305.517578"/>
      <use xlink:href="#TimesNewRomanPSMT-72" x="363.101562"/>
      <use xlink:href="#TimesNewRomanPSMT-75" x="396.402344"/>
      <use xlink:href="#TimesNewRomanPSMT-74" x="446.402344"/>
      <use xlink:href="#TimesNewRomanPSMT-68" x="474.185547"/>
     </g>
    </g>
    <g id="line2d_24">
     <path d="M 345.1325 69.5396 
L 361.1325 69.5396 
L 377.1325 69.5396 
" style="fill: none; stroke: #ff0000; stroke-width: 2; stroke-linecap: square"/>
    </g>
    <g id="text_20">
     <!-- ROLO -->
     <g transform="translate(389.9325 75.1396) scale(0.16 -0.16)">
      <defs>
       <path id="TimesNewRomanPSMT-52" d="M 4325 0 
L 3194 0 
L 1759 1981 
Q 1600 1975 1500 1975 
Q 1459 1975 1412 1976 
Q 1366 1978 1316 1981 
L 1316 750 
Q 1316 350 1403 253 
Q 1522 116 1759 116 
L 1925 116 
L 1925 0 
L 109 0 
L 109 116 
L 269 116 
Q 538 116 653 291 
Q 719 388 719 750 
L 719 3488 
Q 719 3888 631 3984 
Q 509 4122 269 4122 
L 109 4122 
L 109 4238 
L 1653 4238 
Q 2328 4238 2648 4139 
Q 2969 4041 3192 3777 
Q 3416 3513 3416 3147 
Q 3416 2756 3161 2468 
Q 2906 2181 2372 2063 
L 3247 847 
Q 3547 428 3762 290 
Q 3978 153 4325 116 
L 4325 0 
z
M 1316 2178 
Q 1375 2178 1419 2176 
Q 1463 2175 1491 2175 
Q 2097 2175 2405 2437 
Q 2713 2700 2713 3106 
Q 2713 3503 2464 3751 
Q 2216 4000 1806 4000 
Q 1625 4000 1316 3941 
L 1316 2178 
z
" transform="scale(0.015625)"/>
       <path id="TimesNewRomanPSMT-4f" d="M 2341 4334 
Q 3166 4334 3770 3707 
Q 4375 3081 4375 2144 
Q 4375 1178 3765 540 
Q 3156 -97 2291 -97 
Q 1416 -97 820 525 
Q 225 1147 225 2134 
Q 225 3144 913 3781 
Q 1509 4334 2341 4334 
z
M 2281 4106 
Q 1713 4106 1369 3684 
Q 941 3159 941 2147 
Q 941 1109 1384 550 
Q 1725 125 2284 125 
Q 2881 125 3270 590 
Q 3659 1056 3659 2059 
Q 3659 3147 3231 3681 
Q 2888 4106 2281 4106 
z
" transform="scale(0.015625)"/>
       <path id="TimesNewRomanPSMT-4c" d="M 3669 1172 
L 3772 1150 
L 3409 0 
L 128 0 
L 128 116 
L 288 116 
Q 556 116 672 291 
Q 738 391 738 753 
L 738 3488 
Q 738 3884 650 3984 
Q 528 4122 288 4122 
L 128 4122 
L 128 4238 
L 2047 4238 
L 2047 4122 
Q 1709 4125 1573 4059 
Q 1438 3994 1388 3894 
Q 1338 3794 1338 3416 
L 1338 753 
Q 1338 494 1388 397 
Q 1425 331 1503 300 
Q 1581 269 1991 269 
L 2300 269 
Q 2788 269 2984 341 
Q 3181 413 3343 595 
Q 3506 778 3669 1172 
z
" transform="scale(0.015625)"/>
      </defs>
      <use xlink:href="#TimesNewRomanPSMT-52"/>
      <use xlink:href="#TimesNewRomanPSMT-4f" x="66.699219"/>
      <use xlink:href="#TimesNewRomanPSMT-4c" x="138.916016"/>
      <use xlink:href="#TimesNewRomanPSMT-4f" x="200"/>
     </g>
    </g>
    <g id="line2d_25">
     <path d="M 465.4875 69.5396 
L 481.4875 69.5396 
L 497.4875 69.5396 
" style="fill: none; stroke: #0000ff; stroke-width: 2; stroke-linecap: square"/>
    </g>
    <g id="text_21">
     <!-- FAST-LIO2 -->
     <g transform="translate(510.2875 75.1396) scale(0.16 -0.16)">
      <defs>
       <path id="TimesNewRomanPSMT-46" d="M 1309 4006 
L 1309 2341 
L 2081 2341 
Q 2347 2341 2470 2458 
Q 2594 2575 2634 2922 
L 2750 2922 
L 2750 1488 
L 2634 1488 
Q 2631 1734 2570 1850 
Q 2509 1966 2401 2023 
Q 2294 2081 2081 2081 
L 1309 2081 
L 1309 750 
Q 1309 428 1350 325 
Q 1381 247 1481 191 
Q 1619 116 1769 116 
L 1922 116 
L 1922 0 
L 103 0 
L 103 116 
L 253 116 
Q 516 116 634 269 
Q 709 369 709 750 
L 709 3488 
Q 709 3809 669 3913 
Q 638 3991 541 4047 
Q 406 4122 253 4122 
L 103 4122 
L 103 4238 
L 3256 4238 
L 3297 3306 
L 3188 3306 
Q 3106 3603 2998 3742 
Q 2891 3881 2733 3943 
Q 2575 4006 2244 4006 
L 1309 4006 
z
" transform="scale(0.015625)"/>
       <path id="TimesNewRomanPSMT-41" d="M 2928 1419 
L 1288 1419 
L 1000 750 
Q 894 503 894 381 
Q 894 284 986 211 
Q 1078 138 1384 116 
L 1384 0 
L 50 0 
L 50 116 
Q 316 163 394 238 
Q 553 388 747 847 
L 2238 4334 
L 2347 4334 
L 3822 809 
Q 4000 384 4145 257 
Q 4291 131 4550 116 
L 4550 0 
L 2878 0 
L 2878 116 
Q 3131 128 3220 200 
Q 3309 272 3309 375 
Q 3309 513 3184 809 
L 2928 1419 
z
M 2841 1650 
L 2122 3363 
L 1384 1650 
L 2841 1650 
z
" transform="scale(0.015625)"/>
       <path id="TimesNewRomanPSMT-2d" d="M 259 1672 
L 1875 1672 
L 1875 1200 
L 259 1200 
L 259 1672 
z
" transform="scale(0.015625)"/>
       <path id="TimesNewRomanPSMT-49" d="M 1975 116 
L 1975 0 
L 159 0 
L 159 116 
L 309 116 
Q 572 116 691 269 
Q 766 369 766 750 
L 766 3488 
Q 766 3809 725 3913 
Q 694 3991 597 4047 
Q 459 4122 309 4122 
L 159 4122 
L 159 4238 
L 1975 4238 
L 1975 4122 
L 1822 4122 
Q 1563 4122 1444 3969 
Q 1366 3869 1366 3488 
L 1366 750 
Q 1366 428 1406 325 
Q 1438 247 1538 191 
Q 1672 116 1822 116 
L 1975 116 
z
" transform="scale(0.015625)"/>
       <path id="TimesNewRomanPSMT-32" d="M 2934 816 
L 2638 0 
L 138 0 
L 138 116 
Q 1241 1122 1691 1759 
Q 2141 2397 2141 2925 
Q 2141 3328 1894 3587 
Q 1647 3847 1303 3847 
Q 991 3847 742 3664 
Q 494 3481 375 3128 
L 259 3128 
Q 338 3706 661 4015 
Q 984 4325 1469 4325 
Q 1984 4325 2329 3994 
Q 2675 3663 2675 3213 
Q 2675 2891 2525 2569 
Q 2294 2063 1775 1497 
Q 997 647 803 472 
L 1909 472 
Q 2247 472 2383 497 
Q 2519 522 2628 598 
Q 2738 675 2819 816 
L 2934 816 
z
" transform="scale(0.015625)"/>
      </defs>
      <use xlink:href="#TimesNewRomanPSMT-46"/>
      <use xlink:href="#TimesNewRomanPSMT-41" x="48.240234"/>
      <use xlink:href="#TimesNewRomanPSMT-53" x="120.457031"/>
      <use xlink:href="#TimesNewRomanPSMT-54" x="176.072266"/>
      <use xlink:href="#TimesNewRomanPSMT-2d" x="228.03125"/>
      <use xlink:href="#TimesNewRomanPSMT-4c" x="261.332031"/>
      <use xlink:href="#TimesNewRomanPSMT-49" x="322.416016"/>
      <use xlink:href="#TimesNewRomanPSMT-4f" x="355.716797"/>
      <use xlink:href="#TimesNewRomanPSMT-32" x="427.933594"/>
     </g>
    </g>
   </g>
  </g>
 </g>
 <defs>
  <clipPath id="pdb4235559f">
   <rect x="42.12" y="43.74" width="579.96" height="579.96"/>
  </clipPath>
 </defs>
</svg>
