<?xml version="1.0" encoding="utf-8" standalone="no"?>
<!DOCTYPE svg PUBLIC "-//W3C//DTD SVG 1.1//EN"
  "http://www.w3.org/Graphics/SVG/1.1/DTD/svg11.dtd">
<svg xmlns:xlink="http://www.w3.org/1999/xlink" width="648pt" height="648pt" viewBox="0 0 648 648" xmlns="http://www.w3.org/2000/svg" version="1.1">
 <metadata>
  <rdf:RDF xmlns:dc="http://purl.org/dc/elements/1.1/" xmlns:cc="http://creativecommons.org/ns#" xmlns:rdf="http://www.w3.org/1999/02/22-rdf-syntax-ns#">
   <cc:Work>
    <dc:type rdf:resource="http://purl.org/dc/dcmitype/StillImage"/>
    <dc:date>2024-08-10T15:42:25.864221</dc:date>
    <dc:format>image/svg+xml</dc:format>
    <dc:creator>
     <cc:Agent>
      <dc:title>Matplotlib v3.8.3, https://matplotlib.org/</dc:title>
     </cc:Agent>
    </dc:creator>
   </cc:Work>
  </rdf:RDF>
 </metadata>
 <defs>
  <style type="text/css">*{stroke-linejoin: round; stroke-linecap: butt}</style>
 </defs>
 <g id="figure_1">
  <g id="patch_1">
   <path d="M 0 648 
L 648 648 
L 648 0 
L 0 0 
z
" style="fill: #ffffff"/>
  </g>
  <g id="patch_2">
   <path d="M 42.12 623.7 
L 622.08 623.7 
L 622.08 43.74 
L 42.12 43.74 
z
" style="fill: #ffffff"/>
  </g>
  <g id="pane3d_1">
   <g id="patch_3">
    <path d="M 591.641981 489.247539 
L 418.721639 359.160244 
L 421.214465 114.703421 
L 600.431072 224.014277 
" style="fill: #ffffff; stroke: #ffffff; stroke-linejoin: miter"/>
   </g>
  </g>
  <g id="pane3d_2">
   <g id="patch_4">
    <path d="M 100.507323 419.513941 
L 418.721639 359.160244 
L 421.214465 114.703421 
L 92.568072 165.331726 
" style="fill: #ffffff; stroke: #ffffff; stroke-linejoin: miter"/>
   </g>
  </g>
  <g id="pane3d_3">
   <g id="patch_5">
    <path d="M 248.820944 562.626756 
L 591.641981 489.247539 
L 418.721639 359.160244 
L 100.507323 419.513941 
" style="fill: #ffffff; stroke: #ffffff; stroke-linejoin: miter"/>
   </g>
  </g>
  <g id="grid3d_1">
   <g id="Line3DCollection_1">
    <path d="M 323.884758 546.559703 
L 169.930142 406.346954 
L 164.349241 154.273765 
" style="fill: none; stroke: #bdc3c7; stroke-width: 0.5"/>
    <path d="M 390.959043 532.20277 
L 232.083582 394.558704 
L 228.575012 144.379721 
" style="fill: none; stroke: #bdc3c7; stroke-width: 0.5"/>
    <path d="M 456.750742 518.120369 
L 293.158634 382.974985 
L 291.650512 134.662877 
" style="fill: none; stroke: #bdc3c7; stroke-width: 0.5"/>
    <path d="M 521.296294 504.304699 
L 353.18312 371.59052 
L 353.606369 125.118516 
" style="fill: none; stroke: #bdc3c7; stroke-width: 0.5"/>
    <path d="M 584.630771 490.748255 
L 412.183917 360.400212 
L 414.472131 115.742084 
" style="fill: none; stroke: #bdc3c7; stroke-width: 0.5"/>
   </g>
  </g>
  <g id="grid3d_2">
   <g id="Line3DCollection_2">
    <path d="M 559.977129 199.339916 
L 552.70504 459.955431 
L 215.304092 530.285216 
" style="fill: none; stroke: #bdc3c7; stroke-width: 0.5"/>
    <path d="M 524.290179 177.573122 
L 518.310061 434.080223 
L 185.755452 501.772736 
" style="fill: none; stroke: #bdc3c7; stroke-width: 0.5"/>
    <path d="M 489.940433 156.621938 
L 485.162826 409.143688 
L 157.330523 474.344563 
" style="fill: none; stroke: #bdc3c7; stroke-width: 0.5"/>
    <path d="M 456.854115 136.441365 
L 453.196649 385.095658 
L 129.9664 447.939999 
" style="fill: none; stroke: #bdc3c7; stroke-width: 0.5"/>
    <path d="M 424.962776 116.989655 
L 422.349512 361.889478 
L 103.604789 422.502791 
" style="fill: none; stroke: #bdc3c7; stroke-width: 0.5"/>
   </g>
  </g>
  <g id="grid3d_3">
   <g id="Line3DCollection_3">
    <path d="M 98.953733 369.774385 
L 419.210024 311.267206 
L 593.359519 437.416451 
" style="fill: none; stroke: #bdc3c7; stroke-width: 0.5"/>
    <path d="M 97.449784 321.624085 
L 419.682536 264.930679 
L 595.023268 387.208577 
" style="fill: none; stroke: #bdc3c7; stroke-width: 0.5"/>
    <path d="M 95.926944 272.869009 
L 420.160716 218.038453 
L 596.709007 336.337104 
" style="fill: none; stroke: #bdc3c7; stroke-width: 0.5"/>
    <path d="M 94.384856 223.497692 
L 420.644664 170.580472 
L 598.417174 284.788788 
" style="fill: none; stroke: #bdc3c7; stroke-width: 0.5"/>
    <path d="M 92.823154 173.498377 
L 421.134486 122.546435 
L 600.148221 232.550032 
" style="fill: none; stroke: #bdc3c7; stroke-width: 0.5"/>
   </g>
  </g>
  <g id="axis3d_1">
   <g id="line2d_1">
    <path d="M 591.641981 489.247539 
L 248.820944 562.626756 
" style="fill: none; stroke: #000000; stroke-width: 0.8; stroke-linecap: square"/>
   </g>
   <g id="xtick_1">
    <g id="line2d_2">
     <path d="M 322.526053 545.322275 
L 326.608967 549.040751 
" style="fill: none; stroke: #000000; stroke-width: 0.8; stroke-linecap: square"/>
    </g>
    <g id="text_1">
     <!-- 30 -->
     <g transform="translate(318.369474 565.538722) scale(0.14 -0.14)">
      <defs>
       <path id="DejaVuSans-33" d="M 2597 2516 
Q 3050 2419 3304 2112 
Q 3559 1806 3559 1356 
Q 3559 666 3084 287 
Q 2609 -91 1734 -91 
Q 1441 -91 1130 -33 
Q 819 25 488 141 
L 488 750 
Q 750 597 1062 519 
Q 1375 441 1716 441 
Q 2309 441 2620 675 
Q 2931 909 2931 1356 
Q 2931 1769 2642 2001 
Q 2353 2234 1838 2234 
L 1294 2234 
L 1294 2753 
L 1863 2753 
Q 2328 2753 2575 2939 
Q 2822 3125 2822 3475 
Q 2822 3834 2567 4026 
Q 2313 4219 1838 4219 
Q 1578 4219 1281 4162 
Q 984 4106 628 3988 
L 628 4550 
Q 988 4650 1302 4700 
Q 1616 4750 1894 4750 
Q 2613 4750 3031 4423 
Q 3450 4097 3450 3541 
Q 3450 3153 3228 2886 
Q 3006 2619 2597 2516 
z
" transform="scale(0.015625)"/>
       <path id="DejaVuSans-30" d="M 2034 4250 
Q 1547 4250 1301 3770 
Q 1056 3291 1056 2328 
Q 1056 1369 1301 889 
Q 1547 409 2034 409 
Q 2525 409 2770 889 
Q 3016 1369 3016 2328 
Q 3016 3291 2770 3770 
Q 2525 4250 2034 4250 
z
M 2034 4750 
Q 2819 4750 3233 4129 
Q 3647 3509 3647 2328 
Q 3647 1150 3233 529 
Q 2819 -91 2034 -91 
Q 1250 -91 836 529 
Q 422 1150 422 2328 
Q 422 3509 836 4129 
Q 1250 4750 2034 4750 
z
" transform="scale(0.015625)"/>
      </defs>
      <use xlink:href="#DejaVuSans-33"/>
      <use xlink:href="#DejaVuSans-30" x="63.623047"/>
     </g>
    </g>
   </g>
   <g id="xtick_2">
    <g id="line2d_3">
     <path d="M 389.558175 530.989107 
L 393.767723 534.63611 
" style="fill: none; stroke: #000000; stroke-width: 0.8; stroke-linecap: square"/>
    </g>
    <g id="text_2">
     <!-- 110 -->
     <g transform="translate(381.048381 551.081647) scale(0.14 -0.14)">
      <defs>
       <path id="DejaVuSans-31" d="M 794 531 
L 1825 531 
L 1825 4091 
L 703 3866 
L 703 4441 
L 1819 4666 
L 2450 4666 
L 2450 531 
L 3481 531 
L 3481 0 
L 794 0 
L 794 531 
z
" transform="scale(0.015625)"/>
      </defs>
      <use xlink:href="#DejaVuSans-31"/>
      <use xlink:href="#DejaVuSans-31" x="63.623047"/>
      <use xlink:href="#DejaVuSans-30" x="127.246094"/>
     </g>
    </g>
   </g>
   <g id="xtick_3">
    <g id="line2d_4">
     <path d="M 455.309563 516.929793 
L 459.640175 520.507364 
" style="fill: none; stroke: #000000; stroke-width: 0.8; stroke-linecap: square"/>
    </g>
    <g id="text_3">
     <!-- 190 -->
     <g transform="translate(446.895606 536.901392) scale(0.14 -0.14)">
      <defs>
       <path id="DejaVuSans-39" d="M 703 97 
L 703 672 
Q 941 559 1184 500 
Q 1428 441 1663 441 
Q 2288 441 2617 861 
Q 2947 1281 2994 2138 
Q 2813 1869 2534 1725 
Q 2256 1581 1919 1581 
Q 1219 1581 811 2004 
Q 403 2428 403 3163 
Q 403 3881 828 4315 
Q 1253 4750 1959 4750 
Q 2769 4750 3195 4129 
Q 3622 3509 3622 2328 
Q 3622 1225 3098 567 
Q 2575 -91 1691 -91 
Q 1453 -91 1209 -44 
Q 966 3 703 97 
z
M 1959 2075 
Q 2384 2075 2632 2365 
Q 2881 2656 2881 3163 
Q 2881 3666 2632 3958 
Q 2384 4250 1959 4250 
Q 1534 4250 1286 3958 
Q 1038 3666 1038 3163 
Q 1038 2656 1286 2365 
Q 1534 2075 1959 2075 
z
" transform="scale(0.015625)"/>
      </defs>
      <use xlink:href="#DejaVuSans-31"/>
      <use xlink:href="#DejaVuSans-39" x="63.623047"/>
      <use xlink:href="#DejaVuSans-30" x="127.246094"/>
     </g>
    </g>
   </g>
   <g id="xtick_4">
    <g id="line2d_5">
     <path d="M 519.816574 503.136559 
L 524.262929 506.646661 
" style="fill: none; stroke: #000000; stroke-width: 0.8; stroke-linecap: square"/>
    </g>
    <g id="text_4">
     <!-- 270 -->
     <g transform="translate(511.493971 522.990079) scale(0.14 -0.14)">
      <defs>
       <path id="DejaVuSans-32" d="M 1228 531 
L 3431 531 
L 3431 0 
L 469 0 
L 469 531 
Q 828 903 1448 1529 
Q 2069 2156 2228 2338 
Q 2531 2678 2651 2914 
Q 2772 3150 2772 3378 
Q 2772 3750 2511 3984 
Q 2250 4219 1831 4219 
Q 1534 4219 1204 4116 
Q 875 4013 500 3803 
L 500 4441 
Q 881 4594 1212 4672 
Q 1544 4750 1819 4750 
Q 2544 4750 2975 4387 
Q 3406 4025 3406 3419 
Q 3406 3131 3298 2873 
Q 3191 2616 2906 2266 
Q 2828 2175 2409 1742 
Q 1991 1309 1228 531 
z
" transform="scale(0.015625)"/>
       <path id="DejaVuSans-37" d="M 525 4666 
L 3525 4666 
L 3525 4397 
L 1831 0 
L 1172 0 
L 2766 4134 
L 525 4134 
L 525 4666 
z
" transform="scale(0.015625)"/>
      </defs>
      <use xlink:href="#DejaVuSans-32"/>
      <use xlink:href="#DejaVuSans-37" x="63.623047"/>
      <use xlink:href="#DejaVuSans-30" x="127.246094"/>
     </g>
    </g>
   </g>
   <g id="xtick_5">
    <g id="line2d_6">
     <path d="M 583.114203 489.601921 
L 587.671213 493.046445 
" style="fill: none; stroke: #000000; stroke-width: 0.8; stroke-linecap: square"/>
    </g>
    <g id="text_5">
     <!-- 350 -->
     <g transform="translate(574.878669 509.340131) scale(0.14 -0.14)">
      <defs>
       <path id="DejaVuSans-35" d="M 691 4666 
L 3169 4666 
L 3169 4134 
L 1269 4134 
L 1269 2991 
Q 1406 3038 1543 3061 
Q 1681 3084 1819 3084 
Q 2600 3084 3056 2656 
Q 3513 2228 3513 1497 
Q 3513 744 3044 326 
Q 2575 -91 1722 -91 
Q 1428 -91 1123 -41 
Q 819 9 494 109 
L 494 744 
Q 775 591 1075 516 
Q 1375 441 1709 441 
Q 2250 441 2565 725 
Q 2881 1009 2881 1497 
Q 2881 1984 2565 2268 
Q 2250 2553 1709 2553 
Q 1456 2553 1204 2497 
Q 953 2441 691 2322 
L 691 4666 
z
" transform="scale(0.015625)"/>
      </defs>
      <use xlink:href="#DejaVuSans-33"/>
      <use xlink:href="#DejaVuSans-35" x="63.623047"/>
      <use xlink:href="#DejaVuSans-30" x="127.246094"/>
     </g>
    </g>
   </g>
   <g id="text_6">
    <!-- X (m) -->
    <g transform="translate(418.135916 566.696647) rotate(-12.081584) scale(0.18 -0.18)">
     <defs>
      <path id="TimesNewRomanPSMT-58" d="M 2613 2347 
L 3522 991 
Q 3900 428 4083 279 
Q 4266 131 4547 116 
L 4547 0 
L 2728 0 
L 2728 116 
Q 2909 119 2997 153 
Q 3063 181 3105 239 
Q 3147 297 3147 356 
Q 3147 428 3119 500 
Q 3097 553 2947 775 
L 2228 1863 
L 1341 725 
Q 1200 544 1172 483 
Q 1144 422 1144 356 
Q 1144 256 1228 190 
Q 1313 125 1550 116 
L 1550 0 
L 47 0 
L 47 116 
Q 206 131 322 181 
Q 516 263 691 400 
Q 866 538 1091 822 
L 2091 2084 
L 1256 3306 
Q 916 3803 678 3958 
Q 441 4113 131 4122 
L 131 4238 
L 2091 4238 
L 2091 4122 
Q 1841 4113 1748 4041 
Q 1656 3969 1656 3881 
Q 1656 3766 1806 3544 
L 2456 2572 
L 3209 3525 
Q 3341 3694 3370 3756 
Q 3400 3819 3400 3884 
Q 3400 3950 3363 4000 
Q 3316 4066 3244 4092 
Q 3172 4119 2947 4122 
L 2947 4238 
L 4450 4238 
L 4450 4122 
Q 4272 4113 4159 4066 
Q 3991 3994 3850 3872 
Q 3709 3750 3453 3422 
L 2613 2347 
z
" transform="scale(0.015625)"/>
      <path id="TimesNewRomanPSMT-20" transform="scale(0.015625)"/>
      <path id="TimesNewRomanPSMT-28" d="M 1988 -1253 
L 1988 -1369 
Q 1516 -1131 1200 -813 
Q 750 -359 506 256 
Q 263 872 263 1534 
Q 263 2503 741 3301 
Q 1219 4100 1988 4444 
L 1988 4313 
Q 1603 4100 1356 3731 
Q 1109 3363 987 2797 
Q 866 2231 866 1616 
Q 866 947 969 400 
Q 1050 -31 1165 -292 
Q 1281 -553 1476 -793 
Q 1672 -1034 1988 -1253 
z
" transform="scale(0.015625)"/>
      <path id="TimesNewRomanPSMT-6d" d="M 1050 2338 
Q 1363 2650 1419 2697 
Q 1559 2816 1721 2881 
Q 1884 2947 2044 2947 
Q 2313 2947 2506 2790 
Q 2700 2634 2766 2338 
Q 3088 2713 3309 2830 
Q 3531 2947 3766 2947 
Q 3994 2947 4170 2830 
Q 4347 2713 4450 2447 
Q 4519 2266 4519 1878 
L 4519 647 
Q 4519 378 4559 278 
Q 4591 209 4675 161 
Q 4759 113 4950 113 
L 4950 0 
L 3538 0 
L 3538 113 
L 3597 113 
Q 3781 113 3884 184 
Q 3956 234 3988 344 
Q 4000 397 4000 647 
L 4000 1878 
Q 4000 2228 3916 2372 
Q 3794 2572 3525 2572 
Q 3359 2572 3192 2489 
Q 3025 2406 2788 2181 
L 2781 2147 
L 2788 2013 
L 2788 647 
Q 2788 353 2820 281 
Q 2853 209 2943 161 
Q 3034 113 3253 113 
L 3253 0 
L 1806 0 
L 1806 113 
Q 2044 113 2133 169 
Q 2222 225 2256 338 
Q 2272 391 2272 647 
L 2272 1878 
Q 2272 2228 2169 2381 
Q 2031 2581 1784 2581 
Q 1616 2581 1450 2491 
Q 1191 2353 1050 2181 
L 1050 647 
Q 1050 366 1089 281 
Q 1128 197 1204 155 
Q 1281 113 1516 113 
L 1516 0 
L 100 0 
L 100 113 
Q 297 113 375 155 
Q 453 197 493 289 
Q 534 381 534 647 
L 534 1741 
Q 534 2213 506 2350 
Q 484 2453 437 2492 
Q 391 2531 309 2531 
Q 222 2531 100 2484 
L 53 2597 
L 916 2947 
L 1050 2947 
L 1050 2338 
z
" transform="scale(0.015625)"/>
      <path id="TimesNewRomanPSMT-29" d="M 144 4313 
L 144 4444 
Q 619 4209 934 3891 
Q 1381 3434 1625 2820 
Q 1869 2206 1869 1541 
Q 1869 572 1392 -226 
Q 916 -1025 144 -1369 
L 144 -1253 
Q 528 -1038 776 -670 
Q 1025 -303 1145 264 
Q 1266 831 1266 1447 
Q 1266 2113 1163 2663 
Q 1084 3094 967 3353 
Q 850 3613 656 3853 
Q 463 4094 144 4313 
z
" transform="scale(0.015625)"/>
     </defs>
     <use xlink:href="#TimesNewRomanPSMT-58"/>
     <use xlink:href="#TimesNewRomanPSMT-20" x="72.216797"/>
     <use xlink:href="#TimesNewRomanPSMT-28" x="97.216797"/>
     <use xlink:href="#TimesNewRomanPSMT-6d" x="130.517578"/>
     <use xlink:href="#TimesNewRomanPSMT-29" x="208.300781"/>
    </g>
   </g>
  </g>
  <g id="axis3d_2">
   <g id="line2d_7">
    <path d="M 100.507323 419.513941 
L 248.820944 562.626756 
" style="fill: none; stroke: #000000; stroke-width: 0.8; stroke-linecap: square"/>
   </g>
   <g id="xtick_6">
    <g id="line2d_8">
     <path d="M 218.137693 529.694563 
L 209.630054 531.467945 
" style="fill: none; stroke: #000000; stroke-width: 0.8; stroke-linecap: square"/>
    </g>
    <g id="text_7">
     <!-- −130 -->
     <g transform="translate(182.7435 553.725536) scale(0.14 -0.14)">
      <defs>
       <path id="DejaVuSans-2212" d="M 678 2272 
L 4684 2272 
L 4684 1741 
L 678 1741 
L 678 2272 
z
" transform="scale(0.015625)"/>
      </defs>
      <use xlink:href="#DejaVuSans-2212"/>
      <use xlink:href="#DejaVuSans-31" x="83.789062"/>
      <use xlink:href="#DejaVuSans-33" x="147.412109"/>
      <use xlink:href="#DejaVuSans-30" x="211.035156"/>
     </g>
    </g>
   </g>
   <g id="xtick_7">
    <g id="line2d_9">
     <path d="M 188.545785 501.204755 
L 180.168184 502.910042 
" style="fill: none; stroke: #000000; stroke-width: 0.8; stroke-linecap: square"/>
    </g>
    <g id="text_8">
     <!-- −10 -->
     <g transform="translate(157.890094 524.948247) scale(0.14 -0.14)">
      <use xlink:href="#DejaVuSans-2212"/>
      <use xlink:href="#DejaVuSans-31" x="83.789062"/>
      <use xlink:href="#DejaVuSans-30" x="147.412109"/>
     </g>
    </g>
   </g>
   <g id="xtick_8">
    <g id="line2d_10">
     <path d="M 160.0788 473.797973 
L 151.827592 475.439013 
" style="fill: none; stroke: #000000; stroke-width: 0.8; stroke-linecap: square"/>
    </g>
    <g id="text_9">
     <!-- 110 -->
     <g transform="translate(131.110129 497.265957) scale(0.14 -0.14)">
      <use xlink:href="#DejaVuSans-31"/>
      <use xlink:href="#DejaVuSans-31" x="63.623047"/>
      <use xlink:href="#DejaVuSans-30" x="127.246094"/>
     </g>
    </g>
   </g>
   <g id="xtick_9">
    <g id="line2d_11">
     <path d="M 132.673787 447.413613 
L 124.545462 448.99397 
" style="fill: none; stroke: #000000; stroke-width: 0.8; stroke-linecap: square"/>
    </g>
    <g id="text_10">
     <!-- 230 -->
     <g transform="translate(103.970834 470.617335) scale(0.14 -0.14)">
      <use xlink:href="#DejaVuSans-32"/>
      <use xlink:href="#DejaVuSans-33" x="63.623047"/>
      <use xlink:href="#DejaVuSans-30" x="127.246094"/>
     </g>
    </g>
   </g>
   <g id="xtick_10">
    <g id="line2d_12">
     <path d="M 106.27241 421.995509 
L 98.263584 423.518488 
" style="fill: none; stroke: #000000; stroke-width: 0.8; stroke-linecap: square"/>
    </g>
    <g id="text_11">
     <!-- 350 -->
     <g transform="translate(77.826357 444.945545) scale(0.14 -0.14)">
      <use xlink:href="#DejaVuSans-33"/>
      <use xlink:href="#DejaVuSans-35" x="63.623047"/>
      <use xlink:href="#DejaVuSans-30" x="127.246094"/>
     </g>
    </g>
   </g>
   <g id="text_12">
    <!-- Y (m) -->
    <g transform="translate(117.552335 509.215122) rotate(-316.022394) scale(0.18 -0.18)">
     <defs>
      <path id="TimesNewRomanPSMT-59" d="M 3050 4238 
L 4528 4238 
L 4528 4122 
L 4447 4122 
Q 4366 4122 4209 4050 
Q 4053 3978 3925 3843 
Q 3797 3709 3609 3406 
L 2588 1797 
L 2588 734 
Q 2588 344 2675 247 
Q 2794 116 3050 116 
L 3188 116 
L 3188 0 
L 1388 0 
L 1388 116 
L 1538 116 
Q 1806 116 1919 278 
Q 1988 378 1988 734 
L 1988 1738 
L 825 3513 
Q 619 3825 545 3903 
Q 472 3981 241 4091 
Q 178 4122 59 4122 
L 59 4238 
L 1872 4238 
L 1872 4122 
L 1778 4122 
Q 1631 4122 1507 4053 
Q 1384 3984 1384 3847 
Q 1384 3734 1575 3441 
L 2459 2075 
L 3291 3381 
Q 3478 3675 3478 3819 
Q 3478 3906 3433 3975 
Q 3388 4044 3303 4083 
Q 3219 4122 3050 4122 
L 3050 4238 
z
" transform="scale(0.015625)"/>
     </defs>
     <use xlink:href="#TimesNewRomanPSMT-59"/>
     <use xlink:href="#TimesNewRomanPSMT-20" x="68.466797"/>
     <use xlink:href="#TimesNewRomanPSMT-28" x="93.466797"/>
     <use xlink:href="#TimesNewRomanPSMT-6d" x="126.767578"/>
     <use xlink:href="#TimesNewRomanPSMT-29" x="204.550781"/>
    </g>
   </g>
  </g>
  <g id="axis3d_3">
   <g id="line2d_13">
    <path d="M 100.507323 419.513941 
L 92.568072 165.331726 
" style="fill: none; stroke: #000000; stroke-width: 0.8; stroke-linecap: square"/>
   </g>
   <g id="xtick_11">
    <g id="line2d_14">
     <path d="M 101.634511 369.284638 
L 93.58616 370.75498 
" style="fill: none; stroke: #000000; stroke-width: 0.8; stroke-linecap: square"/>
    </g>
    <g id="text_13">
     <!-- −120 -->
     <g transform="translate(54.888406 377.013949) scale(0.14 -0.14)">
      <use xlink:href="#DejaVuSans-2212"/>
      <use xlink:href="#DejaVuSans-31" x="83.789062"/>
      <use xlink:href="#DejaVuSans-32" x="147.412109"/>
      <use xlink:href="#DejaVuSans-30" x="211.035156"/>
     </g>
    </g>
   </g>
   <g id="xtick_12">
    <g id="line2d_15">
     <path d="M 100.147851 321.149388 
L 92.047554 322.574549 
" style="fill: none; stroke: #000000; stroke-width: 0.8; stroke-linecap: square"/>
    </g>
    <g id="text_14">
     <!-- −40 -->
     <g transform="translate(57.687522 328.968133) scale(0.14 -0.14)">
      <defs>
       <path id="DejaVuSans-34" d="M 2419 4116 
L 825 1625 
L 2419 1625 
L 2419 4116 
z
M 2253 4666 
L 3047 4666 
L 3047 1625 
L 3713 1625 
L 3713 1100 
L 3047 1100 
L 3047 0 
L 2419 0 
L 2419 1100 
L 313 1100 
L 313 1709 
L 2253 4666 
z
" transform="scale(0.015625)"/>
      </defs>
      <use xlink:href="#DejaVuSans-2212"/>
      <use xlink:href="#DejaVuSans-34" x="83.789062"/>
      <use xlink:href="#DejaVuSans-30" x="147.412109"/>
     </g>
    </g>
   </g>
   <g id="xtick_13">
    <g id="line2d_16">
     <path d="M 98.642525 272.409782 
L 90.489609 273.788506 
" style="fill: none; stroke: #000000; stroke-width: 0.8; stroke-linecap: square"/>
    </g>
    <g id="text_15">
     <!-- 40 -->
     <g transform="translate(61.877941 280.320439) scale(0.14 -0.14)">
      <use xlink:href="#DejaVuSans-34"/>
      <use xlink:href="#DejaVuSans-30" x="63.623047"/>
     </g>
    </g>
   </g>
   <g id="xtick_14">
    <g id="line2d_17">
     <path d="M 97.11818 223.054365 
L 88.911957 224.385361 
" style="fill: none; stroke: #000000; stroke-width: 0.8; stroke-linecap: square"/>
    </g>
    <g id="text_16">
     <!-- 120 -->
     <g transform="translate(55.72771 231.059485) scale(0.14 -0.14)">
      <use xlink:href="#DejaVuSans-31"/>
      <use xlink:href="#DejaVuSans-32" x="63.623047"/>
      <use xlink:href="#DejaVuSans-30" x="127.246094"/>
     </g>
    </g>
   </g>
   <g id="xtick_15">
    <g id="line2d_18">
     <path d="M 95.574453 173.071391 
L 87.314221 174.35333 
" style="fill: none; stroke: #000000; stroke-width: 0.8; stroke-linecap: square"/>
    </g>
    <g id="text_17">
     <!-- 200 -->
     <g transform="translate(54.009706 181.173603) scale(0.14 -0.14)">
      <use xlink:href="#DejaVuSans-32"/>
      <use xlink:href="#DejaVuSans-30" x="63.623047"/>
      <use xlink:href="#DejaVuSans-30" x="127.246094"/>
     </g>
    </g>
   </g>
   <g id="text_18">
    <!-- Z (m) -->
    <g transform="translate(38.507365 267.047387) rotate(-271.789022) scale(0.18 -0.18)">
     <defs>
      <path id="TimesNewRomanPSMT-5a" d="M 3681 4238 
L 897 256 
L 2634 256 
Q 3034 256 3248 431 
Q 3463 606 3628 1141 
L 3731 1122 
L 3531 0 
L 81 0 
L 81 116 
L 2800 3984 
L 1444 3984 
Q 1106 3984 954 3911 
Q 803 3838 723 3698 
Q 644 3559 578 3178 
L 459 3178 
L 547 4238 
L 3681 4238 
z
" transform="scale(0.015625)"/>
     </defs>
     <use xlink:href="#TimesNewRomanPSMT-5a"/>
     <use xlink:href="#TimesNewRomanPSMT-20" x="61.083984"/>
     <use xlink:href="#TimesNewRomanPSMT-28" x="86.083984"/>
     <use xlink:href="#TimesNewRomanPSMT-6d" x="119.384766"/>
     <use xlink:href="#TimesNewRomanPSMT-29" x="197.167969"/>
    </g>
   </g>
  </g>
  <g id="axes_1">
   <g id="line2d_19">
    <defs>
     <path id="m2c1378d360" d="M 0 -3 
L -0.673542 -0.927051 
L -2.85317 -0.927051 
L -1.089814 0.354102 
L -1.763356 2.427051 
L -0 1.145898 
L 1.763356 2.427051 
L 1.089814 0.354102 
L 2.85317 -0.927051 
L 0.673542 -0.927051 
z
" style="stroke: #ff0000; stroke-linejoin: bevel"/>
    </defs>
    <g clip-path="url(#p554919b1d6)">
     <use xlink:href="#m2c1378d360" x="229.463941" y="362.281678" style="fill: #ff0000; stroke: #ff0000; stroke-linejoin: bevel"/>
    </g>
   </g>
   <g id="line2d_20">
    <path d="M 229.463941 362.281678 
L 235.85354 361.281194 
L 237.891013 360.945785 
L 242.71974 360.285646 
L 247.374654 359.669871 
L 252.117419 359.367066 
L 256.120894 359.361188 
L 257.346327 359.450817 
L 258.654266 359.563893 
L 259.810404 359.636646 
L 264.915059 359.91608 
L 267.145057 360.115524 
L 269.052371 360.2191 
L 273.286258 360.699094 
L 278.650177 361.517006 
L 280.310735 361.620596 
L 282.160172 361.790652 
L 307.089668 364.818807 
L 311.126155 365.226713 
L 313.277687 365.52247 
L 320.269571 366.398784 
L 321.961478 366.499055 
L 327.544357 366.67831 
L 336.344877 366.768129 
L 338.376288 366.770548 
L 346.615741 366.988759 
L 349.386081 366.913255 
L 352.243662 366.898503 
L 360.229291 366.480615 
L 362.814491 366.330971 
L 365.335859 366.1494 
L 370.81154 365.814354 
L 377.659498 365.347889 
L 381.568772 365.282631 
L 385.386001 365.369277 
L 389.387196 365.575783 
L 392.787532 365.646424 
L 394.280446 365.654144 
L 399.401689 365.456093 
L 409.211596 364.381524 
L 411.719725 364.027326 
L 414.627498 363.580728 
L 422.404311 362.656754 
L 425.233297 362.694584 
L 426.866546 362.652435 
L 438.062301 362.327219 
L 441.992701 361.952912 
L 461.604447 358.658465 
L 466.334743 357.498542 
L 473.098747 355.751347 
L 476.94475 354.58332 
L 480.402503 353.519707 
L 486.192108 351.792604 
L 488.487585 350.852239 
L 490.309753 349.634666 
L 491.241541 348.469009 
L 492.551684 346.75832 
L 494.387649 344.526724 
L 498.328802 341.319656 
L 499.2018 340.526711 
L 499.676925 340.091365 
L 499.977338 339.817739 
L 500.928798 338.599654 
L 501.028664 338.183571 
L 500.936734 337.478177 
L 500.369502 336.918271 
L 498.647217 336.25896 
L 497.488581 336.026982 
L 495.579506 335.729865 
L 479.243758 334.495256 
L 476.803484 334.409686 
L 472.598185 334.063754 
L 470.118222 333.567644 
L 469.119556 333.150214 
L 468.273334 332.559874 
L 467.890734 331.5627 
L 467.865585 331.325585 
L 467.604858 330.899076 
L 467.451847 330.066536 
L 467.326198 329.838108 
L 467.228515 329.034458 
L 467.162063 328.804439 
L 467.537021 327.283057 
L 468.42912 325.647134 
L 468.476026 325.333998 
L 468.849268 324.7531 
L 469.076694 324.175846 
L 469.702667 323.053062 
L 470.878047 321.070414 
L 471.27274 320.638208 
L 471.423959 320.346889 
L 472.262819 319.403443 
L 472.354963 319.244862 
L 472.888938 318.621493 
L 473.421995 317.794137 
L 474.304301 315.623527 
L 474.327933 315.039109 
L 474.522928 314.789537 
L 474.443852 314.490576 
L 475.487907 312.50347 
L 475.90908 311.570463 
L 476.501053 310.680902 
L 477.067013 310.057837 
L 477.753038 309.561373 
L 479.022825 308.543239 
L 481.878883 306.602591 
L 483.869134 305.147796 
L 484.152477 304.884725 
L 486.066154 303.650142 
L 491.296178 300.192986 
L 500.803709 295.566195 
L 501.634172 294.623224 
L 501.623223 293.980606 
L 500.909344 293.467888 
L 499.001828 292.922535 
L 497.692246 292.81146 
L 496.387852 292.733943 
L 494.472644 293.006321 
L 480.228356 297.416653 
L 473.451368 300.051933 
L 467.288966 303.216171 
L 465.273781 304.489111 
L 462.903957 306.163817 
L 460.24442 308.089824 
L 446.984119 315.33912 
L 441.453012 318.651528 
L 440.158829 319.38266 
L 438.118077 320.500933 
L 432.07988 323.708912 
L 431.527568 323.820807 
L 429.824652 324.5155 
L 428.427326 325.001587 
L 426.657325 325.49522 
L 425.371076 325.754421 
L 423.641639 326.172939 
L 418.837182 327.028805 
L 414.92872 327.544831 
L 411.453741 327.95633 
L 399.188186 328.884028 
L 384.350114 329.70951 
L 380.764416 329.806673 
L 372.952943 330.191939 
L 370.208102 330.286669 
L 361.016473 330.546279 
L 347.499936 330.443774 
L 344.5177 330.312355 
L 340.974832 330.069547 
L 328.676426 329.203238 
L 318.699326 328.756304 
L 315.239549 328.612583 
L 313.540035 328.506215 
L 312.843963 328.456137 
L 312.088145 328.551134 
L 307.475166 328.160526 
L 304.868595 327.958765 
L 303.23318 327.70803 
L 299.275222 326.989859 
L 294.498717 325.630524 
L 290.641989 324.139095 
L 288.888725 322.991178 
L 287.774806 322.045501 
L 286.066827 320.727483 
L 284.810739 319.940302 
L 283.364619 319.133937 
L 281.963398 318.572441 
L 279.795594 318.134976 
L 273.810466 317.677924 
L 268.44055 317.919567 
L 265.788632 318.11487 
L 257.97681 318.99376 
L 251.426374 320.334007 
L 250.245097 320.692548 
L 247.008461 321.617101 
L 235.188395 325.525308 
L 234.771281 325.597889 
L 234.020543 325.939537 
L 232.703582 326.408497 
L 232.049568 326.682548 
L 231.445077 326.781194 
L 226.846807 328.344969 
L 225.774452 328.561655 
L 219.915195 330.245477 
L 216.634568 330.972963 
L 215.999245 331.274884 
L 214.446583 331.515605 
L 209.757029 332.409586 
L 203.491252 333.465383 
L 201.398979 333.845683 
L 197.119844 334.85131 
L 194.744501 335.777672 
L 193.060147 336.660096 
L 192.281225 337.269421 
L 191.716133 338.047891 
L 191.540067 339.149891 
L 191.733218 339.361572 
L 191.920466 339.785983 
L 192.070704 339.994873 
L 194.0788 341.202801 
L 195.439759 341.707849 
L 195.994926 342.064698 
L 196.393267 342.065817 
L 197.102599 342.689791 
L 197.452739 342.815902 
L 197.694111 343.059431 
L 198.100496 343.141452 
L 198.30918 343.482048 
L 198.822714 343.819852 
L 200.714738 345.297496 
L 201.03213 345.43586 
L 201.74045 346.034697 
L 202.137419 346.264866 
L 202.903316 346.863364 
L 204.37737 347.830839 
L 204.869625 347.984161 
L 205.28948 348.373589 
L 205.784698 348.495403 
L 206.041582 348.773781 
L 208.237923 350.313124 
L 208.777379 350.902862 
L 209.407969 351.381199 
L 210.701872 352.786159 
L 211.007223 353.312956 
L 211.554931 353.80085 
L 211.718686 354.062948 
L 212.586987 354.96692 
L 212.94024 355.405966 
L 213.278837 355.648171 
L 213.621251 356.146297 
L 214.798872 357.1607 
L 215.280896 357.589042 
L 217.735561 359.427422 
L 218.647176 360.361297 
L 219.527469 361.325145 
L 220.604171 361.999136 
L 222.777815 362.835226 
L 224.602596 363.092881 
L 226.503609 362.930703 
L 227.481832 362.787491 
L 227.481832 362.787491 
" clip-path="url(#p554919b1d6)" style="fill: none; stroke-dasharray: 10.175,4.4; stroke-dashoffset: 0; stroke: #808a87; stroke-width: 2.75"/>
   </g>
   <g id="line2d_21">
    <path d="M 229.468141 362.281207 
L 233.758666 361.578521 
L 237.279023 360.919805 
L 240.142679 360.426319 
L 241.601035 360.172796 
L 252.435045 358.747921 
L 253.813285 358.690145 
L 258.962721 358.678402 
L 259.360379 358.747231 
L 260.508314 358.72871 
L 262.087152 358.715165 
L 265.588051 358.803487 
L 267.456378 358.863547 
L 274.817599 359.283003 
L 276.926594 359.48709 
L 281.440191 359.72974 
L 285.265782 360.062092 
L 286.577721 360.134605 
L 288.731551 360.205229 
L 292.481778 360.566675 
L 292.912803 360.672611 
L 294.277914 360.668908 
L 305.037447 361.436825 
L 305.779264 361.443432 
L 322.071678 362.448536 
L 323.703951 362.509122 
L 325.024021 362.508753 
L 341.38492 361.793692 
L 347.640384 361.634698 
L 348.788973 361.504454 
L 349.873271 361.47392 
L 351.594884 361.34871 
L 355.681794 361.039114 
L 357.482683 360.850315 
L 381.018845 358.367463 
L 387.016735 358.220565 
L 390.055574 358.179558 
L 395.482445 357.96158 
L 402.051839 357.274315 
L 404.818059 356.8099 
L 411.082962 355.789783 
L 415.262439 354.955924 
L 418.863131 354.214515 
L 423.515521 353.573365 
L 431.8696 352.961292 
L 439.687965 352.155413 
L 442.794227 351.615924 
L 456.831595 348.548592 
L 466.383203 345.893374 
L 486.132415 339.008566 
L 488.613817 337.851199 
L 490.16389 336.639445 
L 490.899965 335.653647 
L 491.210501 335.121652 
L 491.642164 334.45253 
L 492.21899 333.469018 
L 492.417022 333.022051 
L 493.944984 331.211354 
L 499.16512 325.942631 
L 499.420575 325.310025 
L 499.374806 324.704194 
L 499.343933 324.49161 
L 498.600668 323.883554 
L 496.742191 323.379549 
L 495.555374 323.235697 
L 493.595166 323.11639 
L 475.238215 323.067333 
L 472.793433 323.081619 
L 470.404802 323.002854 
L 468.363456 322.747178 
L 467.160116 322.432074 
L 466.152592 321.799169 
L 465.777048 321.1511 
L 465.684689 320.904463 
L 465.703216 320.627547 
L 465.447691 320.229916 
L 465.254792 319.45274 
L 465.110421 318.667195 
L 465.022338 317.925508 
L 465.443938 316.426371 
L 466.212083 315.009484 
L 466.240209 314.735977 
L 466.502728 314.469645 
L 466.567244 314.096936 
L 466.74165 313.851571 
L 466.793222 313.542675 
L 467.33183 312.688197 
L 467.737588 311.789439 
L 470.313386 308.357827 
L 470.619646 307.959738 
L 471.167233 307.092203 
L 471.799476 305.492916 
L 471.76993 305.241319 
L 471.991566 304.966641 
L 472.217911 303.590696 
L 472.518118 303.116263 
L 473.013957 301.999563 
L 473.186226 301.797348 
L 473.415367 301.062106 
L 473.706511 300.662426 
L 474.147445 300.053476 
L 474.696427 299.44988 
L 475.837164 298.557695 
L 478.023014 296.790726 
L 480.021457 295.376529 
L 482.675668 293.24332 
L 484.555177 291.969785 
L 485.670575 291.105518 
L 486.793572 290.269942 
L 487.494766 289.672291 
L 489.905101 288.142465 
L 491.513399 287.237127 
L 497.220693 284.175005 
L 497.624863 283.717057 
L 497.893039 283.521539 
L 497.981467 283.088499 
L 497.809731 282.628085 
L 496.94976 282.234176 
L 494.901488 281.899541 
L 493.526518 281.940311 
L 492.189506 281.994961 
L 490.310549 282.434625 
L 485.803904 284.124228 
L 483.732186 284.937304 
L 479.673784 286.471154 
L 476.162979 287.87937 
L 474.826357 288.43866 
L 467.078219 292.173538 
L 466.17028 292.773588 
L 465.507288 293.134784 
L 464.561922 293.724116 
L 461.894759 295.515065 
L 460.654796 296.470451 
L 459.934078 296.993813 
L 458.980227 297.796973 
L 457.163746 299.103803 
L 455.246721 300.143339 
L 454.432273 300.673119 
L 453.400853 301.231255 
L 444.040512 306.463008 
L 442.686632 307.256327 
L 439.142221 309.378324 
L 437.349856 310.490879 
L 436.093713 311.170876 
L 433.025903 312.850492 
L 431.816522 313.556341 
L 429.679497 314.66562 
L 427.423335 315.691979 
L 426.579493 316.021603 
L 424.921067 316.702776 
L 423.943242 316.99707 
L 422.078716 317.581772 
L 420.303695 318.036905 
L 410.718114 320.078599 
L 404.464311 321.087418 
L 397.265579 321.976296 
L 393.419106 322.372454 
L 377.091414 324.04638 
L 374.207944 324.29441 
L 366.400599 325.074751 
L 363.653601 325.300423 
L 355.081601 325.925478 
L 352.092593 326.093082 
L 343.048998 326.51968 
L 335.789191 326.524004 
L 328.004279 326.441961 
L 321.937512 326.479308 
L 316.149506 326.509663 
L 312.662757 326.484915 
L 306.10747 326.575691 
L 304.673947 326.513268 
L 298.919939 326.376541 
L 293.655802 325.766318 
L 291.813415 325.407281 
L 289.272233 324.837624 
L 285.593859 323.755752 
L 284.474369 323.23631 
L 283.216435 322.452217 
L 282.157525 321.687884 
L 279.98547 320.331051 
L 278.549301 319.661049 
L 277.256959 319.13585 
L 275.748165 318.728707 
L 273.452363 318.540583 
L 268.746265 318.5098 
L 259.117753 319.700494 
L 248.873366 321.639618 
L 244.154679 323.092974 
L 241.661314 323.96695 
L 239.672305 324.707284 
L 238.036409 325.387077 
L 227.96837 329.446248 
L 227.289614 329.72761 
L 226.649372 330.090651 
L 224.764679 330.737962 
L 224.06836 331.068563 
L 223.319162 331.271982 
L 222.034467 331.809765 
L 221.245355 331.986569 
L 220.30986 332.487784 
L 219.878959 332.501321 
L 215.117059 334.145567 
L 211.910154 335.052374 
L 211.284715 335.397034 
L 209.737011 335.72718 
L 203.055464 337.331448 
L 196.851122 338.777074 
L 192.699817 340.010017 
L 191.229629 340.668837 
L 189.568656 341.577376 
L 188.637947 342.224821 
L 188.157879 342.816162 
L 187.876036 343.588678 
L 187.793116 343.861902 
L 188.283158 344.792543 
L 188.601034 345.145754 
L 189.206628 345.504878 
L 190.110243 345.954941 
L 191.625495 346.320042 
L 192.575649 346.74663 
L 193.846103 347.297827 
L 196.105562 348.441653 
L 196.364299 348.685627 
L 196.708834 348.798067 
L 197.249167 349.163843 
L 198.242396 349.731396 
L 202.432835 352.045574 
L 202.968328 352.157929 
L 203.296247 352.463259 
L 204.185101 352.774538 
L 204.944872 353.186722 
L 205.37895 353.352426 
L 206.49777 354.069881 
L 207.243908 354.605103 
L 208.343998 355.409152 
L 209.027055 355.967299 
L 209.522893 356.383877 
L 209.726304 356.540045 
L 209.911922 356.839804 
L 210.6237 357.361267 
L 211.329066 357.958381 
L 214.172378 360.119206 
L 218.167177 362.596679 
L 219.709283 363.902271 
L 221.025874 364.558659 
L 222.279075 364.94795 
L 225.042614 365.229035 
L 226.532063 365.028636 
L 227.966319 364.749266 
L 227.966319 364.749266 
" clip-path="url(#p554919b1d6)" style="fill: none; stroke: #ff0000; stroke-width: 2; stroke-linecap: square"/>
   </g>
   <g id="line2d_22">
    <path d="M 229.470624 362.278941 
L 229.449903 362.262465 
L 229.708403 362.253466 
L 231.271418 361.944515 
L 232.388781 361.792826 
L 241.795512 360.053421 
L 244.130639 359.793468 
L 245.628232 359.530267 
L 251.209489 358.864109 
L 252.102672 358.781632 
L 253.210824 358.689648 
L 255.439424 358.689451 
L 256.232107 358.658461 
L 257.018439 358.740926 
L 258.075622 358.803618 
L 263.305468 358.758454 
L 265.609689 358.859138 
L 267.836327 358.994433 
L 270.111067 359.121016 
L 271.618449 359.245808 
L 273.59624 359.274953 
L 279.874489 359.81068 
L 281.806547 359.880938 
L 285.44719 360.211683 
L 286.572191 360.278821 
L 290.15942 360.46779 
L 296.869251 361.056366 
L 298.868309 361.185397 
L 301.623258 361.424799 
L 304.398735 361.622615 
L 308.682863 361.804495 
L 310.814786 361.925649 
L 312.870116 362.109256 
L 313.752278 362.143422 
L 315.845201 362.310577 
L 318.160221 362.479005 
L 321.596475 362.741389 
L 322.846214 362.724954 
L 324.12909 362.805574 
L 326.09029 362.76733 
L 332.180606 362.522981 
L 333.829591 362.456607 
L 339.330829 362.224281 
L 348.152621 361.992783 
L 349.267044 361.962505 
L 351.839932 361.809948 
L 354.700952 361.646159 
L 355.892533 361.527609 
L 357.723172 361.345901 
L 374.594138 359.58599 
L 378.155607 359.264052 
L 379.322183 359.215269 
L 380.665915 359.149768 
L 386.057599 359.03921 
L 390.398118 359.017916 
L 400.158042 358.451997 
L 405.549681 357.657806 
L 408.404992 357.239485 
L 412.494677 356.553011 
L 414.246617 356.241246 
L 423.174769 354.770009 
L 426.32544 354.654881 
L 427.879746 354.531177 
L 428.795737 354.505166 
L 429.288476 354.480717 
L 429.937275 354.400042 
L 431.191101 354.252148 
L 432.796825 354.128943 
L 436.079377 353.862449 
L 440.73641 353.329206 
L 444.573006 352.59746 
L 461.040822 349.066783 
L 470.438328 346.248217 
L 486.445102 340.795287 
L 488.750284 339.710592 
L 489.936595 338.8493 
L 490.733938 337.94386 
L 492.200245 335.733388 
L 493.021085 334.397432 
L 493.987591 333.352153 
L 495.156444 332.305984 
L 496.62943 330.957785 
L 499.365694 328.170785 
L 499.703188 327.198335 
L 499.530108 326.545807 
L 498.950406 326.1171 
L 498.578104 325.930794 
L 495.701814 325.373956 
L 493.197158 325.212141 
L 490.332385 325.163382 
L 486.408414 325.075859 
L 484.846493 325.030321 
L 479.526726 324.954711 
L 476.497208 324.978819 
L 475.886429 324.984313 
L 473.887717 324.993507 
L 471.649385 324.940716 
L 470.352747 324.794638 
L 468.985596 324.632553 
L 467.318689 324.123777 
L 466.452295 323.471305 
L 466.155394 322.623614 
L 466.120453 322.372491 
L 465.888599 321.915532 
L 465.762151 321.410494 
L 465.617414 320.552332 
L 465.715218 319.023426 
L 465.789065 318.797944 
L 466.074346 318.194757 
L 466.196202 317.936683 
L 466.464018 317.383624 
L 466.829595 316.688745 
L 466.882995 316.487845 
L 467.131988 316.209639 
L 467.237925 315.906596 
L 467.356594 315.789646 
L 467.589528 315.185965 
L 468.216381 314.0742 
L 469.26609 312.35171 
L 471.042197 310.278036 
L 471.332686 309.952231 
L 471.683429 309.410185 
L 472.263177 308.30034 
L 472.299159 308.028857 
L 472.49203 307.739062 
L 472.75559 306.976965 
L 472.845697 306.834068 
L 472.867381 306.365127 
L 472.963532 306.101168 
L 473.02166 305.874364 
L 473.021626 305.645242 
L 473.50566 304.770848 
L 473.641178 304.492228 
L 473.719694 304.332834 
L 473.887127 304.02486 
L 473.973652 303.82999 
L 474.120555 303.524611 
L 474.25216 303.207496 
L 474.316655 303.020709 
L 474.86146 302.28535 
L 476.285846 300.982967 
L 480.156837 298.079482 
L 480.734179 297.741329 
L 482.733227 296.160753 
L 483.642478 295.489098 
L 484.101375 295.175433 
L 487.226132 292.987388 
L 487.774536 292.553059 
L 488.171268 292.244143 
L 488.81439 291.763715 
L 491.477529 290.152583 
L 493.876942 288.951915 
L 494.424432 288.632259 
L 497.219961 287.176731 
L 498.148632 286.640379 
L 498.476306 286.465395 
L 498.823535 286.09441 
L 499.130191 285.726336 
L 499.148475 285.39809 
L 499.015971 285.036127 
L 497.357534 284.488917 
L 496.553762 284.381022 
L 495.945091 284.297942 
L 495.291581 284.318249 
L 494.574357 284.292342 
L 492.83014 284.470264 
L 491.076595 284.883802 
L 490.050287 285.252686 
L 488.560125 285.773076 
L 487.378098 286.255929 
L 485.451599 286.952161 
L 482.565439 288.005312 
L 478.400188 289.558021 
L 473.910564 291.367336 
L 472.202781 292.181531 
L 471.577588 292.427444 
L 470.477815 293.003268 
L 469.271273 293.592902 
L 468.46657 294.000037 
L 466.375881 295.193097 
L 465.574902 295.666261 
L 464.449333 296.400856 
L 463.266916 297.164909 
L 462.65539 297.602758 
L 462.226632 297.879736 
L 461.851549 298.129731 
L 458.444803 300.649607 
L 450.648382 304.88765 
L 445.32034 307.79223 
L 443.618945 308.775569 
L 440.832491 310.381421 
L 436.317699 312.920634 
L 435.259827 313.469974 
L 433.602401 314.391283 
L 431.485785 315.522474 
L 429.785147 316.315527 
L 428.807267 316.770032 
L 428.276085 317.012034 
L 427.23452 317.359888 
L 426.753015 317.607203 
L 425.260132 318.132381 
L 424.567578 318.311397 
L 424.046085 318.493664 
L 421.340654 319.167569 
L 419.770933 319.619163 
L 414.307353 320.711741 
L 404.037832 322.273178 
L 380.519167 324.550998 
L 375.139474 324.967744 
L 366.271731 325.705027 
L 347.760208 326.732525 
L 345.140483 326.802866 
L 331.857553 326.66476 
L 325.33611 326.584289 
L 314.270266 326.55084 
L 311.265675 326.540658 
L 305.112722 326.444205 
L 299.489871 326.236995 
L 297.939299 326.04304 
L 294.561919 325.586067 
L 287.638118 323.89437 
L 285.427184 322.937585 
L 284.606449 322.393096 
L 282.884654 321.159955 
L 282.104267 320.666142 
L 281.342308 320.162079 
L 278.737057 318.923085 
L 276.632214 318.402101 
L 269.584802 318.210233 
L 262.028136 318.996127 
L 250.010769 321.157538 
L 246.249329 322.241918 
L 235.015678 326.352246 
L 232.593644 327.262952 
L 230.503791 328.031663 
L 229.575012 328.487414 
L 220.934404 331.608849 
L 220.777056 331.608574 
L 219.449387 332.13498 
L 218.836227 332.299807 
L 217.475919 332.707405 
L 213.897284 333.795422 
L 213.039319 334.030226 
L 211.800632 334.437713 
L 209.43987 334.993032 
L 201.554316 336.732977 
L 197.217639 337.752242 
L 193.600887 338.834693 
L 191.978034 339.536908 
L 189.843318 340.78469 
L 189.248584 341.351905 
L 188.930826 341.901956 
L 188.770193 342.968219 
L 188.934875 343.221268 
L 189.093381 343.434489 
L 189.262022 343.669911 
L 189.925617 344.169175 
L 190.525369 344.485287 
L 194.622472 346.010076 
L 194.833818 346.148712 
L 195.35001 346.34601 
L 195.648482 346.414809 
L 195.884176 346.745706 
L 196.199048 346.787703 
L 196.374258 346.965902 
L 196.618229 347.063576 
L 197.123501 347.480762 
L 197.368964 347.575643 
L 198.990649 348.607074 
L 199.754992 349.098365 
L 200.135449 349.308108 
L 201.39142 350.035334 
L 202.102915 350.386835 
L 203.686661 351.140905 
L 203.979633 351.339923 
L 204.795568 351.693054 
L 206.284149 352.538636 
L 206.972912 352.965619 
L 208.359707 353.981546 
L 210.096397 355.510047 
L 210.419053 355.89149 
L 210.966799 356.34276 
L 212.405546 357.637447 
L 212.98591 358.126639 
L 213.950599 358.886256 
L 214.671427 359.374988 
L 215.648217 359.93764 
L 216.9907 360.713454 
L 218.166822 361.601467 
L 219.161214 362.558196 
L 220.046239 363.207796 
L 220.583442 363.48524 
L 221.686109 363.873639 
L 223.994029 364.372013 
L 226.234704 364.277729 
L 227.920339 363.91454 
L 227.917217 363.920254 
" clip-path="url(#p554919b1d6)" style="fill: none; stroke: #0000ff; stroke-width: 2; stroke-linecap: square"/>
   </g>
   <g id="Path3DCollection_1">
    <defs>
     <path id="me2e013ff92" d="M 0 -5 
L -1.12257 -1.545085 
L -4.755283 -1.545085 
L -1.816356 0.59017 
L -2.938926 4.045085 
L -0 1.90983 
L 2.938926 4.045085 
L 1.816356 0.59017 
L 4.755283 -1.545085 
L 1.12257 -1.545085 
z
" style="stroke: #ff0000"/>
    </defs>
    <g clip-path="url(#p554919b1d6)">
     <use xlink:href="#me2e013ff92" x="229.46393" y="362.280918" style="fill: #ff0000; stroke: #ff0000"/>
    </g>
   </g>
   <g id="legend_1">
    <g id="patch_6">
     <path d="M 74.2475 107.5846 
L 589.9525 107.5846 
Q 593.1525 107.5846 593.1525 104.3846 
L 593.1525 60.7396 
Q 593.1525 57.5396 589.9525 57.5396 
L 74.2475 57.5396 
Q 71.0475 57.5396 71.0475 60.7396 
L 71.0475 104.3846 
Q 71.0475 107.5846 74.2475 107.5846 
z
" style="fill: #ffffff; opacity: 0.8; stroke: #cccccc; stroke-linejoin: miter"/>
    </g>
    <g id="line2d_23">
     <g>
      <use xlink:href="#m2c1378d360" x="93.4475" y="69.5396" style="fill: #ff0000; stroke: #ff0000; stroke-linejoin: bevel"/>
     </g>
    </g>
    <g id="text_19">
     <!-- Start -->
     <g transform="translate(122.2475 75.1396) scale(0.16 -0.16)">
      <defs>
       <path id="TimesNewRomanPSMT-53" d="M 2934 4334 
L 2934 2869 
L 2819 2869 
Q 2763 3291 2617 3541 
Q 2472 3791 2203 3937 
Q 1934 4084 1647 4084 
Q 1322 4084 1109 3886 
Q 897 3688 897 3434 
Q 897 3241 1031 3081 
Q 1225 2847 1953 2456 
Q 2547 2138 2764 1967 
Q 2981 1797 3098 1565 
Q 3216 1334 3216 1081 
Q 3216 600 2842 251 
Q 2469 -97 1881 -97 
Q 1697 -97 1534 -69 
Q 1438 -53 1133 45 
Q 828 144 747 144 
Q 669 144 623 97 
Q 578 50 556 -97 
L 441 -97 
L 441 1356 
L 556 1356 
Q 638 900 775 673 
Q 913 447 1195 297 
Q 1478 147 1816 147 
Q 2206 147 2432 353 
Q 2659 559 2659 841 
Q 2659 997 2573 1156 
Q 2488 1316 2306 1453 
Q 2184 1547 1640 1851 
Q 1097 2156 867 2337 
Q 638 2519 519 2737 
Q 400 2956 400 3219 
Q 400 3675 750 4004 
Q 1100 4334 1641 4334 
Q 1978 4334 2356 4169 
Q 2531 4091 2603 4091 
Q 2684 4091 2736 4139 
Q 2788 4188 2819 4334 
L 2934 4334 
z
" transform="scale(0.015625)"/>
       <path id="TimesNewRomanPSMT-74" d="M 1031 3803 
L 1031 2863 
L 1700 2863 
L 1700 2644 
L 1031 2644 
L 1031 788 
Q 1031 509 1111 412 
Q 1191 316 1316 316 
Q 1419 316 1516 380 
Q 1613 444 1666 569 
L 1788 569 
Q 1678 263 1478 108 
Q 1278 -47 1066 -47 
Q 922 -47 784 33 
Q 647 113 581 261 
Q 516 409 516 719 
L 516 2644 
L 63 2644 
L 63 2747 
Q 234 2816 414 2980 
Q 594 3144 734 3369 
Q 806 3488 934 3803 
L 1031 3803 
z
" transform="scale(0.015625)"/>
       <path id="TimesNewRomanPSMT-61" d="M 1822 413 
Q 1381 72 1269 19 
Q 1100 -59 909 -59 
Q 613 -59 420 144 
Q 228 347 228 678 
Q 228 888 322 1041 
Q 450 1253 767 1440 
Q 1084 1628 1822 1897 
L 1822 2009 
Q 1822 2438 1686 2597 
Q 1550 2756 1291 2756 
Q 1094 2756 978 2650 
Q 859 2544 859 2406 
L 866 2225 
Q 866 2081 792 2003 
Q 719 1925 600 1925 
Q 484 1925 411 2006 
Q 338 2088 338 2228 
Q 338 2497 613 2722 
Q 888 2947 1384 2947 
Q 1766 2947 2009 2819 
Q 2194 2722 2281 2516 
Q 2338 2381 2338 1966 
L 2338 994 
Q 2338 584 2353 492 
Q 2369 400 2405 369 
Q 2441 338 2488 338 
Q 2538 338 2575 359 
Q 2641 400 2828 588 
L 2828 413 
Q 2478 -56 2159 -56 
Q 2006 -56 1915 50 
Q 1825 156 1822 413 
z
M 1822 616 
L 1822 1706 
Q 1350 1519 1213 1441 
Q 966 1303 859 1153 
Q 753 1003 753 825 
Q 753 600 887 451 
Q 1022 303 1197 303 
Q 1434 303 1822 616 
z
" transform="scale(0.015625)"/>
       <path id="TimesNewRomanPSMT-72" d="M 1038 2947 
L 1038 2303 
Q 1397 2947 1775 2947 
Q 1947 2947 2059 2842 
Q 2172 2738 2172 2600 
Q 2172 2478 2090 2393 
Q 2009 2309 1897 2309 
Q 1788 2309 1652 2417 
Q 1516 2525 1450 2525 
Q 1394 2525 1328 2463 
Q 1188 2334 1038 2041 
L 1038 669 
Q 1038 431 1097 309 
Q 1138 225 1241 169 
Q 1344 113 1538 113 
L 1538 0 
L 72 0 
L 72 113 
Q 291 113 397 181 
Q 475 231 506 341 
Q 522 394 522 644 
L 522 1753 
Q 522 2253 501 2348 
Q 481 2444 426 2487 
Q 372 2531 291 2531 
Q 194 2531 72 2484 
L 41 2597 
L 906 2947 
L 1038 2947 
z
" transform="scale(0.015625)"/>
      </defs>
      <use xlink:href="#TimesNewRomanPSMT-53"/>
      <use xlink:href="#TimesNewRomanPSMT-74" x="55.615234"/>
      <use xlink:href="#TimesNewRomanPSMT-61" x="83.398438"/>
      <use xlink:href="#TimesNewRomanPSMT-72" x="127.783203"/>
      <use xlink:href="#TimesNewRomanPSMT-74" x="161.083984"/>
     </g>
    </g>
    <g id="patch_7">
     <path d="M 77.4475 97.7621 
L 109.4475 97.7621 
L 109.4475 86.5621 
L 77.4475 86.5621 
L 77.4475 97.7621 
z
" style="fill: none"/>
    </g>
    <g id="line2d_24">
     <path d="M 184.465 69.5396 
L 200.465 69.5396 
L 216.465 69.5396 
" style="fill: none; stroke-dasharray: 10.175,4.4; stroke-dashoffset: 0; stroke: #808a87; stroke-width: 2.75"/>
    </g>
    <g id="text_20">
     <!-- GroundTruth -->
     <g transform="translate(229.265 75.1396) scale(0.16 -0.16)">
      <defs>
       <path id="TimesNewRomanPSMT-47" d="M 3928 4334 
L 4038 2997 
L 3928 2997 
Q 3763 3497 3500 3750 
Q 3122 4116 2528 4116 
Q 1719 4116 1297 3475 
Q 944 2934 944 2188 
Q 944 1581 1178 1081 
Q 1413 581 1792 348 
Q 2172 116 2572 116 
Q 2806 116 3025 175 
Q 3244 234 3447 350 
L 3447 1575 
Q 3447 1894 3398 1992 
Q 3350 2091 3248 2142 
Q 3147 2194 2891 2194 
L 2891 2313 
L 4531 2313 
L 4531 2194 
L 4453 2194 
Q 4209 2194 4119 2031 
Q 4056 1916 4056 1575 
L 4056 278 
Q 3697 84 3347 -6 
Q 2997 -97 2569 -97 
Q 1341 -97 703 691 
Q 225 1281 225 2053 
Q 225 2613 494 3125 
Q 813 3734 1369 4063 
Q 1834 4334 2469 4334 
Q 2700 4334 2889 4296 
Q 3078 4259 3425 4131 
Q 3600 4066 3659 4066 
Q 3719 4066 3761 4120 
Q 3803 4175 3813 4334 
L 3928 4334 
z
" transform="scale(0.015625)"/>
       <path id="TimesNewRomanPSMT-6f" d="M 1600 2947 
Q 2250 2947 2644 2453 
Q 2978 2031 2978 1484 
Q 2978 1100 2793 706 
Q 2609 313 2286 112 
Q 1963 -88 1566 -88 
Q 919 -88 538 428 
Q 216 863 216 1403 
Q 216 1797 411 2186 
Q 606 2575 925 2761 
Q 1244 2947 1600 2947 
z
M 1503 2744 
Q 1338 2744 1170 2645 
Q 1003 2547 900 2300 
Q 797 2053 797 1666 
Q 797 1041 1045 587 
Q 1294 134 1700 134 
Q 2003 134 2200 384 
Q 2397 634 2397 1244 
Q 2397 2006 2069 2444 
Q 1847 2744 1503 2744 
z
" transform="scale(0.015625)"/>
       <path id="TimesNewRomanPSMT-75" d="M 2709 2863 
L 2709 1128 
Q 2709 631 2732 520 
Q 2756 409 2807 365 
Q 2859 322 2928 322 
Q 3025 322 3147 375 
L 3191 266 
L 2334 -88 
L 2194 -88 
L 2194 519 
Q 1825 119 1631 15 
Q 1438 -88 1222 -88 
Q 981 -88 804 51 
Q 628 191 559 409 
Q 491 628 491 1028 
L 491 2306 
Q 491 2509 447 2587 
Q 403 2666 317 2708 
Q 231 2750 6 2747 
L 6 2863 
L 1009 2863 
L 1009 947 
Q 1009 547 1148 422 
Q 1288 297 1484 297 
Q 1619 297 1789 381 
Q 1959 466 2194 703 
L 2194 2325 
Q 2194 2569 2105 2655 
Q 2016 2741 1734 2747 
L 1734 2863 
L 2709 2863 
z
" transform="scale(0.015625)"/>
       <path id="TimesNewRomanPSMT-6e" d="M 1034 2341 
Q 1538 2947 1994 2947 
Q 2228 2947 2397 2830 
Q 2566 2713 2666 2444 
Q 2734 2256 2734 1869 
L 2734 647 
Q 2734 375 2778 278 
Q 2813 200 2889 156 
Q 2966 113 3172 113 
L 3172 0 
L 1756 0 
L 1756 113 
L 1816 113 
Q 2016 113 2095 173 
Q 2175 234 2206 353 
Q 2219 400 2219 647 
L 2219 1819 
Q 2219 2209 2117 2386 
Q 2016 2563 1775 2563 
Q 1403 2563 1034 2156 
L 1034 647 
Q 1034 356 1069 288 
Q 1113 197 1189 155 
Q 1266 113 1500 113 
L 1500 0 
L 84 0 
L 84 113 
L 147 113 
Q 366 113 442 223 
Q 519 334 519 647 
L 519 1709 
Q 519 2225 495 2337 
Q 472 2450 423 2490 
Q 375 2531 294 2531 
Q 206 2531 84 2484 
L 38 2597 
L 900 2947 
L 1034 2947 
L 1034 2341 
z
" transform="scale(0.015625)"/>
       <path id="TimesNewRomanPSMT-64" d="M 2222 322 
Q 2013 103 1813 7 
Q 1613 -88 1381 -88 
Q 913 -88 563 304 
Q 213 697 213 1313 
Q 213 1928 600 2439 
Q 988 2950 1597 2950 
Q 1975 2950 2222 2709 
L 2222 3238 
Q 2222 3728 2198 3840 
Q 2175 3953 2125 3993 
Q 2075 4034 2000 4034 
Q 1919 4034 1784 3984 
L 1744 4094 
L 2597 4444 
L 2738 4444 
L 2738 1134 
Q 2738 631 2761 520 
Q 2784 409 2836 365 
Q 2888 322 2956 322 
Q 3041 322 3181 375 
L 3216 266 
L 2366 -88 
L 2222 -88 
L 2222 322 
z
M 2222 541 
L 2222 2016 
Q 2203 2228 2109 2403 
Q 2016 2578 1861 2667 
Q 1706 2756 1559 2756 
Q 1284 2756 1069 2509 
Q 784 2184 784 1559 
Q 784 928 1059 592 
Q 1334 256 1672 256 
Q 1956 256 2222 541 
z
" transform="scale(0.015625)"/>
       <path id="TimesNewRomanPSMT-54" d="M 3703 4238 
L 3750 3244 
L 3631 3244 
Q 3597 3506 3538 3619 
Q 3441 3800 3280 3886 
Q 3119 3972 2856 3972 
L 2259 3972 
L 2259 734 
Q 2259 344 2344 247 
Q 2463 116 2709 116 
L 2856 116 
L 2856 0 
L 1059 0 
L 1059 116 
L 1209 116 
Q 1478 116 1591 278 
Q 1659 378 1659 734 
L 1659 3972 
L 1150 3972 
Q 853 3972 728 3928 
Q 566 3869 450 3700 
Q 334 3531 313 3244 
L 194 3244 
L 244 4238 
L 3703 4238 
z
" transform="scale(0.015625)"/>
       <path id="TimesNewRomanPSMT-68" d="M 1041 4444 
L 1041 2350 
Q 1388 2731 1591 2839 
Q 1794 2947 1997 2947 
Q 2241 2947 2416 2812 
Q 2591 2678 2675 2391 
Q 2734 2191 2734 1659 
L 2734 647 
Q 2734 375 2778 275 
Q 2809 200 2884 156 
Q 2959 113 3159 113 
L 3159 0 
L 1753 0 
L 1753 113 
L 1819 113 
Q 2019 113 2097 173 
Q 2175 234 2206 353 
Q 2216 403 2216 647 
L 2216 1659 
Q 2216 2128 2167 2275 
Q 2119 2422 2012 2495 
Q 1906 2569 1756 2569 
Q 1603 2569 1437 2487 
Q 1272 2406 1041 2159 
L 1041 647 
Q 1041 353 1073 281 
Q 1106 209 1195 161 
Q 1284 113 1503 113 
L 1503 0 
L 84 0 
L 84 113 
Q 275 113 384 172 
Q 447 203 484 290 
Q 522 378 522 647 
L 522 3238 
Q 522 3728 498 3840 
Q 475 3953 426 3993 
Q 378 4034 297 4034 
Q 231 4034 84 3984 
L 41 4094 
L 897 4444 
L 1041 4444 
z
" transform="scale(0.015625)"/>
      </defs>
      <use xlink:href="#TimesNewRomanPSMT-47"/>
      <use xlink:href="#TimesNewRomanPSMT-72" x="72.216797"/>
      <use xlink:href="#TimesNewRomanPSMT-6f" x="105.517578"/>
      <use xlink:href="#TimesNewRomanPSMT-75" x="155.517578"/>
      <use xlink:href="#TimesNewRomanPSMT-6e" x="205.517578"/>
      <use xlink:href="#TimesNewRomanPSMT-64" x="255.517578"/>
      <use xlink:href="#TimesNewRomanPSMT-54" x="305.517578"/>
      <use xlink:href="#TimesNewRomanPSMT-72" x="363.101562"/>
      <use xlink:href="#TimesNewRomanPSMT-75" x="396.402344"/>
      <use xlink:href="#TimesNewRomanPSMT-74" x="446.402344"/>
      <use xlink:href="#TimesNewRomanPSMT-68" x="474.185547"/>
     </g>
    </g>
    <g id="line2d_25">
     <path d="M 345.1325 69.5396 
L 361.1325 69.5396 
L 377.1325 69.5396 
" style="fill: none; stroke: #ff0000; stroke-width: 2; stroke-linecap: square"/>
    </g>
    <g id="text_21">
     <!-- ROLO -->
     <g transform="translate(389.9325 75.1396) scale(0.16 -0.16)">
      <defs>
       <path id="TimesNewRomanPSMT-52" d="M 4325 0 
L 3194 0 
L 1759 1981 
Q 1600 1975 1500 1975 
Q 1459 1975 1412 1976 
Q 1366 1978 1316 1981 
L 1316 750 
Q 1316 350 1403 253 
Q 1522 116 1759 116 
L 1925 116 
L 1925 0 
L 109 0 
L 109 116 
L 269 116 
Q 538 116 653 291 
Q 719 388 719 750 
L 719 3488 
Q 719 3888 631 3984 
Q 509 4122 269 4122 
L 109 4122 
L 109 4238 
L 1653 4238 
Q 2328 4238 2648 4139 
Q 2969 4041 3192 3777 
Q 3416 3513 3416 3147 
Q 3416 2756 3161 2468 
Q 2906 2181 2372 2063 
L 3247 847 
Q 3547 428 3762 290 
Q 3978 153 4325 116 
L 4325 0 
z
M 1316 2178 
Q 1375 2178 1419 2176 
Q 1463 2175 1491 2175 
Q 2097 2175 2405 2437 
Q 2713 2700 2713 3106 
Q 2713 3503 2464 3751 
Q 2216 4000 1806 4000 
Q 1625 4000 1316 3941 
L 1316 2178 
z
" transform="scale(0.015625)"/>
       <path id="TimesNewRomanPSMT-4f" d="M 2341 4334 
Q 3166 4334 3770 3707 
Q 4375 3081 4375 2144 
Q 4375 1178 3765 540 
Q 3156 -97 2291 -97 
Q 1416 -97 820 525 
Q 225 1147 225 2134 
Q 225 3144 913 3781 
Q 1509 4334 2341 4334 
z
M 2281 4106 
Q 1713 4106 1369 3684 
Q 941 3159 941 2147 
Q 941 1109 1384 550 
Q 1725 125 2284 125 
Q 2881 125 3270 590 
Q 3659 1056 3659 2059 
Q 3659 3147 3231 3681 
Q 2888 4106 2281 4106 
z
" transform="scale(0.015625)"/>
       <path id="TimesNewRomanPSMT-4c" d="M 3669 1172 
L 3772 1150 
L 3409 0 
L 128 0 
L 128 116 
L 288 116 
Q 556 116 672 291 
Q 738 391 738 753 
L 738 3488 
Q 738 3884 650 3984 
Q 528 4122 288 4122 
L 128 4122 
L 128 4238 
L 2047 4238 
L 2047 4122 
Q 1709 4125 1573 4059 
Q 1438 3994 1388 3894 
Q 1338 3794 1338 3416 
L 1338 753 
Q 1338 494 1388 397 
Q 1425 331 1503 300 
Q 1581 269 1991 269 
L 2300 269 
Q 2788 269 2984 341 
Q 3181 413 3343 595 
Q 3506 778 3669 1172 
z
" transform="scale(0.015625)"/>
      </defs>
      <use xlink:href="#TimesNewRomanPSMT-52"/>
      <use xlink:href="#TimesNewRomanPSMT-4f" x="66.699219"/>
      <use xlink:href="#TimesNewRomanPSMT-4c" x="138.916016"/>
      <use xlink:href="#TimesNewRomanPSMT-4f" x="200"/>
     </g>
    </g>
    <g id="line2d_26">
     <path d="M 465.4875 69.5396 
L 481.4875 69.5396 
L 497.4875 69.5396 
" style="fill: none; stroke: #0000ff; stroke-width: 2; stroke-linecap: square"/>
    </g>
    <g id="text_22">
     <!-- FAST-LIO2 -->
     <g transform="translate(510.2875 75.1396) scale(0.16 -0.16)">
      <defs>
       <path id="TimesNewRomanPSMT-46" d="M 1309 4006 
L 1309 2341 
L 2081 2341 
Q 2347 2341 2470 2458 
Q 2594 2575 2634 2922 
L 2750 2922 
L 2750 1488 
L 2634 1488 
Q 2631 1734 2570 1850 
Q 2509 1966 2401 2023 
Q 2294 2081 2081 2081 
L 1309 2081 
L 1309 750 
Q 1309 428 1350 325 
Q 1381 247 1481 191 
Q 1619 116 1769 116 
L 1922 116 
L 1922 0 
L 103 0 
L 103 116 
L 253 116 
Q 516 116 634 269 
Q 709 369 709 750 
L 709 3488 
Q 709 3809 669 3913 
Q 638 3991 541 4047 
Q 406 4122 253 4122 
L 103 4122 
L 103 4238 
L 3256 4238 
L 3297 3306 
L 3188 3306 
Q 3106 3603 2998 3742 
Q 2891 3881 2733 3943 
Q 2575 4006 2244 4006 
L 1309 4006 
z
" transform="scale(0.015625)"/>
       <path id="TimesNewRomanPSMT-41" d="M 2928 1419 
L 1288 1419 
L 1000 750 
Q 894 503 894 381 
Q 894 284 986 211 
Q 1078 138 1384 116 
L 1384 0 
L 50 0 
L 50 116 
Q 316 163 394 238 
Q 553 388 747 847 
L 2238 4334 
L 2347 4334 
L 3822 809 
Q 4000 384 4145 257 
Q 4291 131 4550 116 
L 4550 0 
L 2878 0 
L 2878 116 
Q 3131 128 3220 200 
Q 3309 272 3309 375 
Q 3309 513 3184 809 
L 2928 1419 
z
M 2841 1650 
L 2122 3363 
L 1384 1650 
L 2841 1650 
z
" transform="scale(0.015625)"/>
       <path id="TimesNewRomanPSMT-2d" d="M 259 1672 
L 1875 1672 
L 1875 1200 
L 259 1200 
L 259 1672 
z
" transform="scale(0.015625)"/>
       <path id="TimesNewRomanPSMT-49" d="M 1975 116 
L 1975 0 
L 159 0 
L 159 116 
L 309 116 
Q 572 116 691 269 
Q 766 369 766 750 
L 766 3488 
Q 766 3809 725 3913 
Q 694 3991 597 4047 
Q 459 4122 309 4122 
L 159 4122 
L 159 4238 
L 1975 4238 
L 1975 4122 
L 1822 4122 
Q 1563 4122 1444 3969 
Q 1366 3869 1366 3488 
L 1366 750 
Q 1366 428 1406 325 
Q 1438 247 1538 191 
Q 1672 116 1822 116 
L 1975 116 
z
" transform="scale(0.015625)"/>
       <path id="TimesNewRomanPSMT-32" d="M 2934 816 
L 2638 0 
L 138 0 
L 138 116 
Q 1241 1122 1691 1759 
Q 2141 2397 2141 2925 
Q 2141 3328 1894 3587 
Q 1647 3847 1303 3847 
Q 991 3847 742 3664 
Q 494 3481 375 3128 
L 259 3128 
Q 338 3706 661 4015 
Q 984 4325 1469 4325 
Q 1984 4325 2329 3994 
Q 2675 3663 2675 3213 
Q 2675 2891 2525 2569 
Q 2294 2063 1775 1497 
Q 997 647 803 472 
L 1909 472 
Q 2247 472 2383 497 
Q 2519 522 2628 598 
Q 2738 675 2819 816 
L 2934 816 
z
" transform="scale(0.015625)"/>
      </defs>
      <use xlink:href="#TimesNewRomanPSMT-46"/>
      <use xlink:href="#TimesNewRomanPSMT-41" x="48.240234"/>
      <use xlink:href="#TimesNewRomanPSMT-53" x="120.457031"/>
      <use xlink:href="#TimesNewRomanPSMT-54" x="176.072266"/>
      <use xlink:href="#TimesNewRomanPSMT-2d" x="228.03125"/>
      <use xlink:href="#TimesNewRomanPSMT-4c" x="261.332031"/>
      <use xlink:href="#TimesNewRomanPSMT-49" x="322.416016"/>
      <use xlink:href="#TimesNewRomanPSMT-4f" x="355.716797"/>
      <use xlink:href="#TimesNewRomanPSMT-32" x="427.933594"/>
     </g>
    </g>
   </g>
  </g>
 </g>
 <defs>
  <clipPath id="p554919b1d6">
   <rect x="42.12" y="43.74" width="579.96" height="579.96"/>
  </clipPath>
 </defs>
</svg>
