<?xml version="1.0" encoding="utf-8" standalone="no"?>
<!DOCTYPE svg PUBLIC "-//W3C//DTD SVG 1.1//EN"
  "http://www.w3.org/Graphics/SVG/1.1/DTD/svg11.dtd">
<svg xmlns:xlink="http://www.w3.org/1999/xlink" width="1843.2pt" height="792pt" viewBox="0 0 1843.2 792" xmlns="http://www.w3.org/2000/svg" version="1.1">
 <metadata>
  <rdf:RDF xmlns:dc="http://purl.org/dc/elements/1.1/" xmlns:cc="http://creativecommons.org/ns#" xmlns:rdf="http://www.w3.org/1999/02/22-rdf-syntax-ns#">
   <cc:Work>
    <dc:type rdf:resource="http://purl.org/dc/dcmitype/StillImage"/>
    <dc:date>2024-03-18T14:28:02.993376</dc:date>
    <dc:format>image/svg+xml</dc:format>
    <dc:creator>
     <cc:Agent>
      <dc:title>Matplotlib v3.7.0, https://matplotlib.org/</dc:title>
     </cc:Agent>
    </dc:creator>
   </cc:Work>
  </rdf:RDF>
 </metadata>
 <defs>
  <style type="text/css">*{stroke-linejoin: round; stroke-linecap: butt}</style>
 </defs>
 <g id="figure_1">
  <g id="patch_1">
   <path d="M 0 792 
L 1843.2 792 
L 1843.2 0 
L 0 0 
z
" style="fill: #ffffff"/>
  </g>
  <g id="axes_1">
   <g id="patch_2">
    <path d="M 230.4 704.88 
L 1658.88 704.88 
L 1658.88 39.6 
L 230.4 39.6 
z
" style="fill: #ffffff"/>
   </g>
   <g id="matplotlib.axis_1">
    <g id="xtick_1">
     <g id="line2d_1">
      <path d="M 360.261818 704.88 
L 360.261818 39.6 
" clip-path="url(#pa718317d9b)" style="fill: none; stroke-dasharray: 2.96,1.28; stroke-dashoffset: 0; stroke: #b0b0b0; stroke-width: 0.8"/>
     </g>
     <g id="line2d_2">
      <defs>
       <path id="m2e4c4a3de2" d="M 0 0 
L 0 -5 
" style="stroke: #000000; stroke-width: 0.8"/>
      </defs>
      <g>
       <use xlink:href="#m2e4c4a3de2" x="360.261818" y="704.88" style="stroke: #000000; stroke-width: 0.8"/>
      </g>
     </g>
     <g id="text_1">
      <!-- 0 -->
      <g transform="translate(349.127443 746.474531) scale(0.35 -0.35)">
       <defs>
        <path id="DejaVuSans-30" d="M 2034 4250 
Q 1547 4250 1301 3770 
Q 1056 3291 1056 2328 
Q 1056 1369 1301 889 
Q 1547 409 2034 409 
Q 2525 409 2770 889 
Q 3016 1369 3016 2328 
Q 3016 3291 2770 3770 
Q 2525 4250 2034 4250 
z
M 2034 4750 
Q 2819 4750 3233 4129 
Q 3647 3509 3647 2328 
Q 3647 1150 3233 529 
Q 2819 -91 2034 -91 
Q 1250 -91 836 529 
Q 422 1150 422 2328 
Q 422 3509 836 4129 
Q 1250 4750 2034 4750 
z
" transform="scale(0.015625)"/>
       </defs>
       <use xlink:href="#DejaVuSans-30"/>
      </g>
     </g>
    </g>
    <g id="xtick_2">
     <g id="line2d_3">
      <path d="M 648.843636 704.88 
L 648.843636 39.6 
" clip-path="url(#pa718317d9b)" style="fill: none; stroke-dasharray: 2.96,1.28; stroke-dashoffset: 0; stroke: #b0b0b0; stroke-width: 0.8"/>
     </g>
     <g id="line2d_4">
      <g>
       <use xlink:href="#m2e4c4a3de2" x="648.843636" y="704.88" style="stroke: #000000; stroke-width: 0.8"/>
      </g>
     </g>
     <g id="text_2">
      <!-- 200 -->
      <g transform="translate(615.440511 746.474531) scale(0.35 -0.35)">
       <defs>
        <path id="DejaVuSans-32" d="M 1228 531 
L 3431 531 
L 3431 0 
L 469 0 
L 469 531 
Q 828 903 1448 1529 
Q 2069 2156 2228 2338 
Q 2531 2678 2651 2914 
Q 2772 3150 2772 3378 
Q 2772 3750 2511 3984 
Q 2250 4219 1831 4219 
Q 1534 4219 1204 4116 
Q 875 4013 500 3803 
L 500 4441 
Q 881 4594 1212 4672 
Q 1544 4750 1819 4750 
Q 2544 4750 2975 4387 
Q 3406 4025 3406 3419 
Q 3406 3131 3298 2873 
Q 3191 2616 2906 2266 
Q 2828 2175 2409 1742 
Q 1991 1309 1228 531 
z
" transform="scale(0.015625)"/>
       </defs>
       <use xlink:href="#DejaVuSans-32"/>
       <use xlink:href="#DejaVuSans-30" x="63.623047"/>
       <use xlink:href="#DejaVuSans-30" x="127.246094"/>
      </g>
     </g>
    </g>
    <g id="xtick_3">
     <g id="line2d_5">
      <path d="M 937.425455 704.88 
L 937.425455 39.6 
" clip-path="url(#pa718317d9b)" style="fill: none; stroke-dasharray: 2.96,1.28; stroke-dashoffset: 0; stroke: #b0b0b0; stroke-width: 0.8"/>
     </g>
     <g id="line2d_6">
      <g>
       <use xlink:href="#m2e4c4a3de2" x="937.425455" y="704.88" style="stroke: #000000; stroke-width: 0.8"/>
      </g>
     </g>
     <g id="text_3">
      <!-- 400 -->
      <g transform="translate(904.02233 746.474531) scale(0.35 -0.35)">
       <defs>
        <path id="DejaVuSans-34" d="M 2419 4116 
L 825 1625 
L 2419 1625 
L 2419 4116 
z
M 2253 4666 
L 3047 4666 
L 3047 1625 
L 3713 1625 
L 3713 1100 
L 3047 1100 
L 3047 0 
L 2419 0 
L 2419 1100 
L 313 1100 
L 313 1709 
L 2253 4666 
z
" transform="scale(0.015625)"/>
       </defs>
       <use xlink:href="#DejaVuSans-34"/>
       <use xlink:href="#DejaVuSans-30" x="63.623047"/>
       <use xlink:href="#DejaVuSans-30" x="127.246094"/>
      </g>
     </g>
    </g>
    <g id="xtick_4">
     <g id="line2d_7">
      <path d="M 1226.007273 704.88 
L 1226.007273 39.6 
" clip-path="url(#pa718317d9b)" style="fill: none; stroke-dasharray: 2.96,1.28; stroke-dashoffset: 0; stroke: #b0b0b0; stroke-width: 0.8"/>
     </g>
     <g id="line2d_8">
      <g>
       <use xlink:href="#m2e4c4a3de2" x="1226.007273" y="704.88" style="stroke: #000000; stroke-width: 0.8"/>
      </g>
     </g>
     <g id="text_4">
      <!-- 600 -->
      <g transform="translate(1192.604148 746.474531) scale(0.35 -0.35)">
       <defs>
        <path id="DejaVuSans-36" d="M 2113 2584 
Q 1688 2584 1439 2293 
Q 1191 2003 1191 1497 
Q 1191 994 1439 701 
Q 1688 409 2113 409 
Q 2538 409 2786 701 
Q 3034 994 3034 1497 
Q 3034 2003 2786 2293 
Q 2538 2584 2113 2584 
z
M 3366 4563 
L 3366 3988 
Q 3128 4100 2886 4159 
Q 2644 4219 2406 4219 
Q 1781 4219 1451 3797 
Q 1122 3375 1075 2522 
Q 1259 2794 1537 2939 
Q 1816 3084 2150 3084 
Q 2853 3084 3261 2657 
Q 3669 2231 3669 1497 
Q 3669 778 3244 343 
Q 2819 -91 2113 -91 
Q 1303 -91 875 529 
Q 447 1150 447 2328 
Q 447 3434 972 4092 
Q 1497 4750 2381 4750 
Q 2619 4750 2861 4703 
Q 3103 4656 3366 4563 
z
" transform="scale(0.015625)"/>
       </defs>
       <use xlink:href="#DejaVuSans-36"/>
       <use xlink:href="#DejaVuSans-30" x="63.623047"/>
       <use xlink:href="#DejaVuSans-30" x="127.246094"/>
      </g>
     </g>
    </g>
    <g id="xtick_5">
     <g id="line2d_9">
      <path d="M 1514.589091 704.88 
L 1514.589091 39.6 
" clip-path="url(#pa718317d9b)" style="fill: none; stroke-dasharray: 2.96,1.28; stroke-dashoffset: 0; stroke: #b0b0b0; stroke-width: 0.8"/>
     </g>
     <g id="line2d_10">
      <g>
       <use xlink:href="#m2e4c4a3de2" x="1514.589091" y="704.88" style="stroke: #000000; stroke-width: 0.8"/>
      </g>
     </g>
     <g id="text_5">
      <!-- 800 -->
      <g transform="translate(1481.185966 746.474531) scale(0.35 -0.35)">
       <defs>
        <path id="DejaVuSans-38" d="M 2034 2216 
Q 1584 2216 1326 1975 
Q 1069 1734 1069 1313 
Q 1069 891 1326 650 
Q 1584 409 2034 409 
Q 2484 409 2743 651 
Q 3003 894 3003 1313 
Q 3003 1734 2745 1975 
Q 2488 2216 2034 2216 
z
M 1403 2484 
Q 997 2584 770 2862 
Q 544 3141 544 3541 
Q 544 4100 942 4425 
Q 1341 4750 2034 4750 
Q 2731 4750 3128 4425 
Q 3525 4100 3525 3541 
Q 3525 3141 3298 2862 
Q 3072 2584 2669 2484 
Q 3125 2378 3379 2068 
Q 3634 1759 3634 1313 
Q 3634 634 3220 271 
Q 2806 -91 2034 -91 
Q 1263 -91 848 271 
Q 434 634 434 1313 
Q 434 1759 690 2068 
Q 947 2378 1403 2484 
z
M 1172 3481 
Q 1172 3119 1398 2916 
Q 1625 2713 2034 2713 
Q 2441 2713 2670 2916 
Q 2900 3119 2900 3481 
Q 2900 3844 2670 4047 
Q 2441 4250 2034 4250 
Q 1625 4250 1398 4047 
Q 1172 3844 1172 3481 
z
" transform="scale(0.015625)"/>
       </defs>
       <use xlink:href="#DejaVuSans-38"/>
       <use xlink:href="#DejaVuSans-30" x="63.623047"/>
       <use xlink:href="#DejaVuSans-30" x="127.246094"/>
      </g>
     </g>
    </g>
    <g id="text_6">
     <!-- Time (s) -->
     <g transform="translate(885.481797 782.056563) scale(0.35 -0.35)">
      <defs>
       <path id="TimesNewRomanPSMT-54" d="M 3703 4238 
L 3750 3244 
L 3631 3244 
Q 3597 3506 3538 3619 
Q 3441 3800 3280 3886 
Q 3119 3972 2856 3972 
L 2259 3972 
L 2259 734 
Q 2259 344 2344 247 
Q 2463 116 2709 116 
L 2856 116 
L 2856 0 
L 1059 0 
L 1059 116 
L 1209 116 
Q 1478 116 1591 278 
Q 1659 378 1659 734 
L 1659 3972 
L 1150 3972 
Q 853 3972 728 3928 
Q 566 3869 450 3700 
Q 334 3531 313 3244 
L 194 3244 
L 244 4238 
L 3703 4238 
z
" transform="scale(0.015625)"/>
       <path id="TimesNewRomanPSMT-69" d="M 928 4444 
Q 1059 4444 1151 4351 
Q 1244 4259 1244 4128 
Q 1244 3997 1151 3903 
Q 1059 3809 928 3809 
Q 797 3809 703 3903 
Q 609 3997 609 4128 
Q 609 4259 701 4351 
Q 794 4444 928 4444 
z
M 1188 2947 
L 1188 647 
Q 1188 378 1227 289 
Q 1266 200 1342 156 
Q 1419 113 1622 113 
L 1622 0 
L 231 0 
L 231 113 
Q 441 113 512 153 
Q 584 194 626 287 
Q 669 381 669 647 
L 669 1750 
Q 669 2216 641 2353 
Q 619 2453 572 2492 
Q 525 2531 444 2531 
Q 356 2531 231 2484 
L 188 2597 
L 1050 2947 
L 1188 2947 
z
" transform="scale(0.015625)"/>
       <path id="TimesNewRomanPSMT-6d" d="M 1050 2338 
Q 1363 2650 1419 2697 
Q 1559 2816 1721 2881 
Q 1884 2947 2044 2947 
Q 2313 2947 2506 2790 
Q 2700 2634 2766 2338 
Q 3088 2713 3309 2830 
Q 3531 2947 3766 2947 
Q 3994 2947 4170 2830 
Q 4347 2713 4450 2447 
Q 4519 2266 4519 1878 
L 4519 647 
Q 4519 378 4559 278 
Q 4591 209 4675 161 
Q 4759 113 4950 113 
L 4950 0 
L 3538 0 
L 3538 113 
L 3597 113 
Q 3781 113 3884 184 
Q 3956 234 3988 344 
Q 4000 397 4000 647 
L 4000 1878 
Q 4000 2228 3916 2372 
Q 3794 2572 3525 2572 
Q 3359 2572 3192 2489 
Q 3025 2406 2788 2181 
L 2781 2147 
L 2788 2013 
L 2788 647 
Q 2788 353 2820 281 
Q 2853 209 2943 161 
Q 3034 113 3253 113 
L 3253 0 
L 1806 0 
L 1806 113 
Q 2044 113 2133 169 
Q 2222 225 2256 338 
Q 2272 391 2272 647 
L 2272 1878 
Q 2272 2228 2169 2381 
Q 2031 2581 1784 2581 
Q 1616 2581 1450 2491 
Q 1191 2353 1050 2181 
L 1050 647 
Q 1050 366 1089 281 
Q 1128 197 1204 155 
Q 1281 113 1516 113 
L 1516 0 
L 100 0 
L 100 113 
Q 297 113 375 155 
Q 453 197 493 289 
Q 534 381 534 647 
L 534 1741 
Q 534 2213 506 2350 
Q 484 2453 437 2492 
Q 391 2531 309 2531 
Q 222 2531 100 2484 
L 53 2597 
L 916 2947 
L 1050 2947 
L 1050 2338 
z
" transform="scale(0.015625)"/>
       <path id="TimesNewRomanPSMT-65" d="M 681 1784 
Q 678 1147 991 784 
Q 1303 422 1725 422 
Q 2006 422 2214 576 
Q 2422 731 2563 1106 
L 2659 1044 
Q 2594 616 2278 264 
Q 1963 -88 1488 -88 
Q 972 -88 605 314 
Q 238 716 238 1394 
Q 238 2128 614 2539 
Q 991 2950 1559 2950 
Q 2041 2950 2350 2633 
Q 2659 2316 2659 1784 
L 681 1784 
z
M 681 1966 
L 2006 1966 
Q 1991 2241 1941 2353 
Q 1863 2528 1708 2628 
Q 1553 2728 1384 2728 
Q 1125 2728 920 2526 
Q 716 2325 681 1966 
z
" transform="scale(0.015625)"/>
       <path id="TimesNewRomanPSMT-20" transform="scale(0.015625)"/>
       <path id="TimesNewRomanPSMT-28" d="M 1988 -1253 
L 1988 -1369 
Q 1516 -1131 1200 -813 
Q 750 -359 506 256 
Q 263 872 263 1534 
Q 263 2503 741 3301 
Q 1219 4100 1988 4444 
L 1988 4313 
Q 1603 4100 1356 3731 
Q 1109 3363 987 2797 
Q 866 2231 866 1616 
Q 866 947 969 400 
Q 1050 -31 1165 -292 
Q 1281 -553 1476 -793 
Q 1672 -1034 1988 -1253 
z
" transform="scale(0.015625)"/>
       <path id="TimesNewRomanPSMT-73" d="M 2050 2947 
L 2050 1972 
L 1947 1972 
Q 1828 2431 1642 2597 
Q 1456 2763 1169 2763 
Q 950 2763 815 2647 
Q 681 2531 681 2391 
Q 681 2216 781 2091 
Q 878 1963 1175 1819 
L 1631 1597 
Q 2266 1288 2266 781 
Q 2266 391 1970 151 
Q 1675 -88 1309 -88 
Q 1047 -88 709 6 
Q 606 38 541 38 
Q 469 38 428 -44 
L 325 -44 
L 325 978 
L 428 978 
Q 516 541 762 319 
Q 1009 97 1316 97 
Q 1531 97 1667 223 
Q 1803 350 1803 528 
Q 1803 744 1651 891 
Q 1500 1038 1047 1263 
Q 594 1488 453 1669 
Q 313 1847 313 2119 
Q 313 2472 555 2709 
Q 797 2947 1181 2947 
Q 1350 2947 1591 2875 
Q 1750 2828 1803 2828 
Q 1853 2828 1881 2850 
Q 1909 2872 1947 2947 
L 2050 2947 
z
" transform="scale(0.015625)"/>
       <path id="TimesNewRomanPSMT-29" d="M 144 4313 
L 144 4444 
Q 619 4209 934 3891 
Q 1381 3434 1625 2820 
Q 1869 2206 1869 1541 
Q 1869 572 1392 -226 
Q 916 -1025 144 -1369 
L 144 -1253 
Q 528 -1038 776 -670 
Q 1025 -303 1145 264 
Q 1266 831 1266 1447 
Q 1266 2113 1163 2663 
Q 1084 3094 967 3353 
Q 850 3613 656 3853 
Q 463 4094 144 4313 
z
" transform="scale(0.015625)"/>
      </defs>
      <use xlink:href="#TimesNewRomanPSMT-54"/>
      <use xlink:href="#TimesNewRomanPSMT-69" x="57.583984"/>
      <use xlink:href="#TimesNewRomanPSMT-6d" x="85.367188"/>
      <use xlink:href="#TimesNewRomanPSMT-65" x="163.150391"/>
      <use xlink:href="#TimesNewRomanPSMT-20" x="207.535156"/>
      <use xlink:href="#TimesNewRomanPSMT-28" x="232.535156"/>
      <use xlink:href="#TimesNewRomanPSMT-73" x="265.835938"/>
      <use xlink:href="#TimesNewRomanPSMT-29" x="304.751953"/>
     </g>
    </g>
   </g>
   <g id="matplotlib.axis_2">
    <g id="ytick_1">
     <g id="line2d_11">
      <path d="M 230.4 594 
L 1658.88 594 
" clip-path="url(#pa718317d9b)" style="fill: none; stroke-dasharray: 2.96,1.28; stroke-dashoffset: 0; stroke: #b0b0b0; stroke-width: 0.8"/>
     </g>
     <g id="line2d_12">
      <defs>
       <path id="med2ce2f25c" d="M 0 0 
L 5 0 
" style="stroke: #000000; stroke-width: 0.8"/>
      </defs>
      <g>
       <use xlink:href="#med2ce2f25c" x="230.4" y="594" style="stroke: #000000; stroke-width: 0.8"/>
      </g>
     </g>
     <g id="text_7">
      <!-- −1 -->
      <g transform="translate(163.802344 607.297266) scale(0.35 -0.35)">
       <defs>
        <path id="DejaVuSans-2212" d="M 678 2272 
L 4684 2272 
L 4684 1741 
L 678 1741 
L 678 2272 
z
" transform="scale(0.015625)"/>
        <path id="DejaVuSans-31" d="M 794 531 
L 1825 531 
L 1825 4091 
L 703 3866 
L 703 4441 
L 1819 4666 
L 2450 4666 
L 2450 531 
L 3481 531 
L 3481 0 
L 794 0 
L 794 531 
z
" transform="scale(0.015625)"/>
       </defs>
       <use xlink:href="#DejaVuSans-2212"/>
       <use xlink:href="#DejaVuSans-31" x="83.789062"/>
      </g>
     </g>
    </g>
    <g id="ytick_2">
     <g id="line2d_13">
      <path d="M 230.4 372.24 
L 1658.88 372.24 
" clip-path="url(#pa718317d9b)" style="fill: none; stroke-dasharray: 2.96,1.28; stroke-dashoffset: 0; stroke: #b0b0b0; stroke-width: 0.8"/>
     </g>
     <g id="line2d_14">
      <g>
       <use xlink:href="#med2ce2f25c" x="230.4" y="372.24" style="stroke: #000000; stroke-width: 0.8"/>
      </g>
     </g>
     <g id="text_8">
      <!-- 0 -->
      <g transform="translate(193.13125 385.537266) scale(0.35 -0.35)">
       <use xlink:href="#DejaVuSans-30"/>
      </g>
     </g>
    </g>
    <g id="ytick_3">
     <g id="line2d_15">
      <path d="M 230.4 150.48 
L 1658.88 150.48 
" clip-path="url(#pa718317d9b)" style="fill: none; stroke-dasharray: 2.96,1.28; stroke-dashoffset: 0; stroke: #b0b0b0; stroke-width: 0.8"/>
     </g>
     <g id="line2d_16">
      <g>
       <use xlink:href="#med2ce2f25c" x="230.4" y="150.48" style="stroke: #000000; stroke-width: 0.8"/>
      </g>
     </g>
     <g id="text_9">
      <!-- 1 -->
      <g transform="translate(193.13125 163.777266) scale(0.35 -0.35)">
       <use xlink:href="#DejaVuSans-31"/>
      </g>
     </g>
    </g>
    <g id="text_10">
     <!-- Error (m) -->
     <g transform="translate(152.315625 438.800156) rotate(-90) scale(0.35 -0.35)">
      <defs>
       <path id="TimesNewRomanPSMT-45" d="M 1338 4006 
L 1338 2331 
L 2269 2331 
Q 2631 2331 2753 2441 
Q 2916 2584 2934 2947 
L 3050 2947 
L 3050 1472 
L 2934 1472 
Q 2891 1781 2847 1869 
Q 2791 1978 2662 2040 
Q 2534 2103 2269 2103 
L 1338 2103 
L 1338 706 
Q 1338 425 1363 364 
Q 1388 303 1450 267 
Q 1513 231 1688 231 
L 2406 231 
Q 2766 231 2928 281 
Q 3091 331 3241 478 
Q 3434 672 3638 1063 
L 3763 1063 
L 3397 0 
L 131 0 
L 131 116 
L 281 116 
Q 431 116 566 188 
Q 666 238 702 338 
Q 738 438 738 747 
L 738 3500 
Q 738 3903 656 3997 
Q 544 4122 281 4122 
L 131 4122 
L 131 4238 
L 3397 4238 
L 3444 3309 
L 3322 3309 
Q 3256 3644 3176 3769 
Q 3097 3894 2941 3959 
Q 2816 4006 2500 4006 
L 1338 4006 
z
" transform="scale(0.015625)"/>
       <path id="TimesNewRomanPSMT-72" d="M 1038 2947 
L 1038 2303 
Q 1397 2947 1775 2947 
Q 1947 2947 2059 2842 
Q 2172 2738 2172 2600 
Q 2172 2478 2090 2393 
Q 2009 2309 1897 2309 
Q 1788 2309 1652 2417 
Q 1516 2525 1450 2525 
Q 1394 2525 1328 2463 
Q 1188 2334 1038 2041 
L 1038 669 
Q 1038 431 1097 309 
Q 1138 225 1241 169 
Q 1344 113 1538 113 
L 1538 0 
L 72 0 
L 72 113 
Q 291 113 397 181 
Q 475 231 506 341 
Q 522 394 522 644 
L 522 1753 
Q 522 2253 501 2348 
Q 481 2444 426 2487 
Q 372 2531 291 2531 
Q 194 2531 72 2484 
L 41 2597 
L 906 2947 
L 1038 2947 
z
" transform="scale(0.015625)"/>
       <path id="TimesNewRomanPSMT-6f" d="M 1600 2947 
Q 2250 2947 2644 2453 
Q 2978 2031 2978 1484 
Q 2978 1100 2793 706 
Q 2609 313 2286 112 
Q 1963 -88 1566 -88 
Q 919 -88 538 428 
Q 216 863 216 1403 
Q 216 1797 411 2186 
Q 606 2575 925 2761 
Q 1244 2947 1600 2947 
z
M 1503 2744 
Q 1338 2744 1170 2645 
Q 1003 2547 900 2300 
Q 797 2053 797 1666 
Q 797 1041 1045 587 
Q 1294 134 1700 134 
Q 2003 134 2200 384 
Q 2397 634 2397 1244 
Q 2397 2006 2069 2444 
Q 1847 2744 1503 2744 
z
" transform="scale(0.015625)"/>
      </defs>
      <use xlink:href="#TimesNewRomanPSMT-45"/>
      <use xlink:href="#TimesNewRomanPSMT-72" x="61.083984"/>
      <use xlink:href="#TimesNewRomanPSMT-72" x="94.384766"/>
      <use xlink:href="#TimesNewRomanPSMT-6f" x="127.685547"/>
      <use xlink:href="#TimesNewRomanPSMT-72" x="177.685547"/>
      <use xlink:href="#TimesNewRomanPSMT-20" x="210.986328"/>
      <use xlink:href="#TimesNewRomanPSMT-28" x="235.986328"/>
      <use xlink:href="#TimesNewRomanPSMT-6d" x="269.287109"/>
      <use xlink:href="#TimesNewRomanPSMT-29" x="347.070312"/>
     </g>
    </g>
   </g>
   <g id="line2d_17">
    <path d="M 360.261818 372.24 
L 363.147636 371.485008 
L 366.033455 372.199077 
L 367.476364 370.295068 
L 371.805091 371.505587 
L 373.248 371.520158 
L 379.019636 372.123447 
L 381.905455 372.034133 
L 389.12 372.216791 
L 392.005818 371.785212 
L 393.448727 371.765801 
L 396.334545 371.460441 
L 399.220364 372.211674 
L 400.663273 372.057955 
L 404.992 371.266071 
L 407.877818 372.16887 
L 413.649455 372.157592 
L 416.535273 371.896391 
L 422.306909 372.111143 
L 428.078545 371.819934 
L 430.964364 372.109087 
L 439.621818 372.216932 
L 442.507636 372.002797 
L 445.393455 372.106971 
L 454.050909 371.930795 
L 456.936727 372.184529 
L 465.594182 372.128764 
L 468.48 372.224617 
L 471.365818 372.017157 
L 474.251636 372.206739 
L 477.137455 372.03845 
L 485.794909 372.140733 
L 488.680727 371.775325 
L 491.566545 372.237016 
L 494.452364 371.831311 
L 497.338182 372.048276 
L 500.224 372.079719 
L 503.109818 371.92334 
L 505.995636 372.188391 
L 508.881455 371.975826 
L 511.767273 372.206013 
L 517.538909 372.234514 
L 520.424727 371.813012 
L 523.310545 371.728886 
L 526.196364 372.066695 
L 529.082182 371.585948 
L 531.968 372.209433 
L 534.853818 372.044548 
L 537.739636 371.128242 
L 540.625455 371.945476 
L 543.511273 372.213486 
L 546.397091 372.165 
L 549.282909 371.952665 
L 552.168727 372.235131 
L 555.054545 371.339623 
L 557.940364 371.266753 
L 560.826182 371.891424 
L 563.712 371.882318 
L 566.597818 371.050806 
L 569.483636 370.848155 
L 572.369455 372.046149 
L 575.255273 371.925687 
L 578.141091 372.201097 
L 581.026909 370.348173 
L 582.469818 370.915707 
L 585.355636 371.351124 
L 586.798545 370.390035 
L 589.684364 371.648341 
L 591.127273 370.855144 
L 594.013091 372.023357 
L 595.456 372.115647 
L 601.227636 372.135376 
L 604.113455 372.020557 
L 606.999273 372.13513 
L 609.885091 371.460172 
L 612.770909 371.933656 
L 615.656727 371.902302 
L 618.542545 371.24107 
L 621.428364 371.20506 
L 624.314182 372.020816 
L 630.085818 372.016384 
L 632.971636 371.814992 
L 635.857455 369.12033 
L 638.743273 372.04217 
L 641.629091 372.025632 
L 644.514909 370.599092 
L 647.400727 372.182401 
L 650.286545 372.101192 
L 653.172364 372.229034 
L 658.944 372.233295 
L 661.829818 371.583403 
L 664.715636 371.835372 
L 667.601455 371.833627 
L 670.487273 371.662839 
L 673.373091 372.092123 
L 676.258909 371.745419 
L 679.144727 372.032145 
L 682.030545 371.897782 
L 690.688 372.236424 
L 693.573818 371.556448 
L 696.459636 371.063064 
L 699.345455 371.780301 
L 702.231273 372.086578 
L 705.117091 372.051072 
L 708.002909 370.96288 
L 710.888727 371.557274 
L 713.774545 371.524426 
L 716.660364 372.195145 
L 719.546182 372.019629 
L 722.432 371.656408 
L 725.317818 372.015102 
L 728.203636 372.018242 
L 731.089455 371.390239 
L 733.975273 371.407795 
L 736.861091 371.899944 
L 739.746909 372.076269 
L 742.632727 371.657487 
L 745.518545 370.932501 
L 748.404364 371.560632 
L 751.290182 371.940955 
L 754.176 371.696126 
L 759.947636 371.672383 
L 762.833455 372.187873 
L 765.719273 372.042339 
L 768.605091 372.152334 
L 771.490909 371.677198 
L 774.376727 372.203 
L 777.262545 372.194623 
L 780.148364 371.815866 
L 783.034182 371.74443 
L 785.92 372.228271 
L 788.805818 371.128593 
L 791.691636 371.689148 
L 794.577455 371.531474 
L 797.463273 372.03379 
L 800.349091 371.700619 
L 803.234909 371.789346 
L 806.120727 372.172518 
L 811.892364 371.856233 
L 820.549818 372.124692 
L 826.321455 371.451065 
L 829.207273 372.030432 
L 834.978909 371.913331 
L 837.864727 371.750038 
L 840.750545 372.124787 
L 846.522182 371.574345 
L 849.408 372.153172 
L 855.179636 372.082665 
L 858.065455 372.114642 
L 860.951273 371.87101 
L 866.722909 371.931613 
L 869.608727 372.180839 
L 872.494545 371.718204 
L 878.266182 371.891797 
L 881.152 372.166841 
L 884.037818 371.950762 
L 886.923636 372.17052 
L 889.809455 372.167196 
L 892.695273 371.948569 
L 895.581091 372.05963 
L 898.466909 371.878642 
L 901.352727 372.218796 
L 904.238545 372.026297 
L 907.124364 372.188394 
L 910.010182 372.229721 
L 918.667636 372.02427 
L 921.553455 372.213014 
L 924.439273 372.091668 
L 927.325091 372.239937 
L 933.096727 371.725926 
L 935.982545 371.990862 
L 938.868364 371.67874 
L 941.754182 372.041697 
L 950.411636 371.972448 
L 953.297455 372.134374 
L 956.183273 371.917268 
L 959.069091 371.824131 
L 964.840727 372.235138 
L 967.726545 371.937789 
L 970.612364 372.078537 
L 973.498182 371.925718 
L 976.384 371.960264 
L 979.269818 371.615997 
L 982.155636 371.823494 
L 985.041455 372.212246 
L 987.927273 371.995772 
L 990.813091 372.13711 
L 993.698909 372.023076 
L 996.584727 371.730271 
L 999.470545 372.092904 
L 1002.356364 372.202527 
L 1005.242182 371.70959 
L 1008.128 372.044352 
L 1013.899636 372.082085 
L 1016.785455 371.99633 
L 1019.671273 371.752877 
L 1022.557091 371.746772 
L 1025.442909 370.996317 
L 1028.328727 371.78502 
L 1031.214545 372.046472 
L 1034.100364 372.131007 
L 1036.986182 371.498103 
L 1042.757818 372.127019 
L 1045.643636 371.87756 
L 1048.529455 371.905478 
L 1051.415273 371.326938 
L 1054.301091 371.893797 
L 1057.186909 372.094631 
L 1060.072727 371.770003 
L 1062.958545 372.035527 
L 1068.730182 372.226728 
L 1071.616 371.894034 
L 1074.501818 371.857779 
L 1077.387636 372.106511 
L 1080.273455 372.166934 
L 1086.045091 371.922565 
L 1094.702545 371.984576 
L 1097.588364 371.603467 
L 1100.474182 372.147067 
L 1106.245818 372.189168 
L 1112.017455 372.160688 
L 1114.903273 372.117487 
L 1117.789091 372.194835 
L 1120.674909 372.03815 
L 1126.446545 372.232298 
L 1132.218182 372.0898 
L 1135.104 372.204642 
L 1137.989818 371.955024 
L 1140.875636 372.073721 
L 1146.647273 371.923688 
L 1152.418909 372.192415 
L 1155.304727 371.868117 
L 1161.076364 371.895752 
L 1163.962182 371.682247 
L 1166.848 372.080735 
L 1169.733818 372.196859 
L 1172.619636 371.990555 
L 1178.391273 372.176628 
L 1181.277091 371.891027 
L 1184.162909 372.177715 
L 1189.934545 372.206197 
L 1192.820364 371.504834 
L 1195.706182 372.143316 
L 1198.592 371.853312 
L 1201.477818 371.797217 
L 1204.363636 372.085268 
L 1213.021091 372.22406 
L 1215.906909 371.829092 
L 1218.792727 372.182976 
L 1221.678545 372.234963 
L 1224.564364 372.159461 
L 1227.450182 371.947956 
L 1230.336 372.236819 
L 1233.221818 371.854212 
L 1236.107636 372.097673 
L 1241.879273 372.122719 
L 1247.650909 372.2116 
L 1250.536727 372.028049 
L 1259.194182 372.144587 
L 1262.08 371.891427 
L 1270.737455 372.168033 
L 1273.623273 371.937298 
L 1276.509091 371.908822 
L 1279.394909 372.118387 
L 1282.280727 371.930448 
L 1285.166545 372.190957 
L 1288.052364 372.230768 
L 1293.824 371.90673 
L 1296.709818 372.116828 
L 1299.595636 371.982371 
L 1302.481455 372.187954 
L 1305.367273 371.952967 
L 1308.253091 372.193614 
L 1311.138909 371.812959 
L 1314.024727 372.019229 
L 1316.910545 371.758075 
L 1319.796364 371.872958 
L 1322.682182 371.853878 
L 1325.568 372.059995 
L 1328.453818 371.573851 
L 1331.339636 372.182289 
L 1334.225455 372.128919 
L 1337.111273 371.593391 
L 1339.997091 371.827619 
L 1342.882909 371.756463 
L 1348.654545 371.989334 
L 1351.540364 372.192045 
L 1354.426182 371.647637 
L 1360.197818 372.009246 
L 1363.083636 371.962987 
L 1365.969455 371.372422 
L 1368.855273 372.059914 
L 1371.741091 372.10594 
L 1374.626909 371.646089 
L 1377.512727 371.879688 
L 1380.398545 371.572372 
L 1383.284364 372.189844 
L 1386.170182 372.086127 
L 1389.056 372.159193 
L 1391.941818 371.786623 
L 1394.827636 372.008021 
L 1403.485091 372.156875 
L 1406.370909 371.674142 
L 1409.256727 372.210215 
L 1412.142545 371.139951 
L 1415.028364 371.698546 
L 1417.914182 372.02159 
L 1423.685818 372.115549 
L 1426.571636 371.899721 
L 1429.457455 371.518639 
L 1432.343273 371.779114 
L 1438.114909 371.230248 
L 1441.000727 372.079462 
L 1443.886545 371.432396 
L 1446.772364 371.541384 
L 1449.658182 372.083982 
L 1452.544 371.383997 
L 1455.429818 372.009116 
L 1458.315636 371.923717 
L 1461.201455 371.693321 
L 1466.973091 371.943423 
L 1469.858909 370.929666 
L 1472.744727 372.226282 
L 1475.630545 370.978519 
L 1478.516364 371.005931 
L 1481.402182 371.241855 
L 1484.288 368.601728 
L 1485.730909 366.694036 
L 1488.616727 371.511854 
L 1491.502545 371.73342 
L 1494.388364 371.126758 
L 1497.274182 372.218015 
L 1500.16 371.857058 
L 1503.045818 371.610872 
L 1508.817455 371.550422 
L 1511.703273 371.94368 
L 1514.589091 371.838386 
L 1517.474909 371.243306 
L 1520.360727 371.791642 
L 1523.246545 372.108508 
L 1524.689455 372.148441 
L 1527.575273 371.839569 
L 1530.461091 371.815113 
L 1533.346909 371.487065 
L 1536.232727 371.650601 
L 1539.118545 372.106284 
L 1542.004364 371.777674 
L 1547.776 372.20406 
L 1550.661818 371.771971 
L 1553.547636 372.138828 
L 1554.990545 371.541128 
L 1557.876364 371.316839 
L 1560.762182 367.581957 
L 1562.205091 370.503755 
L 1563.648 371.702748 
L 1566.533818 368.622523 
L 1569.419636 371.436546 
L 1570.862545 368.481841 
L 1572.305455 368.405233 
L 1575.191273 370.879919 
L 1576.634182 371.896768 
L 1579.52 370.501772 
L 1582.405818 371.612899 
L 1583.848727 368.824199 
L 1583.848727 368.824199 
" clip-path="url(#pa718317d9b)" style="fill: none; stroke: #00ff00; stroke-width: 3; stroke-linecap: square"/>
   </g>
   <g id="line2d_18">
    <path d="M 360.261818 372.24 
L 363.147636 371.479026 
L 366.033455 372.192155 
L 367.476364 372.137079 
L 371.805091 371.746529 
L 373.248 371.85493 
L 377.576727 371.724274 
L 379.019636 371.191847 
L 381.905455 371.803484 
L 386.234182 372.109321 
L 392.005818 371.540157 
L 393.448727 371.881578 
L 396.334545 372.197987 
L 399.220364 372.127959 
L 400.663273 370.462043 
L 404.992 371.020094 
L 407.877818 372.180545 
L 410.763636 372.176991 
L 413.649455 372.025094 
L 416.535273 372.133292 
L 419.421091 371.900156 
L 422.306909 372.130354 
L 433.850182 372.143393 
L 439.621818 372.199991 
L 456.936727 372.23634 
L 462.708364 372.101697 
L 465.594182 372.186788 
L 471.365818 372.068761 
L 474.251636 372.235367 
L 477.137455 372.061826 
L 482.909091 372.173705 
L 485.794909 372.239009 
L 488.680727 372.076261 
L 497.338182 372.205469 
L 500.224 372.013462 
L 503.109818 372.139133 
L 505.995636 372.078782 
L 508.881455 372.217583 
L 511.767273 372.00096 
L 514.653091 372.166222 
L 526.196364 372.160218 
L 529.082182 372.23858 
L 531.968 372.054628 
L 537.739636 372.165385 
L 540.625455 371.978456 
L 543.511273 372.178333 
L 549.282909 372.211995 
L 552.168727 372.207592 
L 555.054545 372.055977 
L 563.712 372.206707 
L 569.483636 371.926381 
L 575.255273 372.179054 
L 578.141091 372.128796 
L 581.026909 369.470838 
L 582.469818 369.742544 
L 585.355636 371.792564 
L 586.798545 371.277183 
L 589.684364 371.885256 
L 591.127273 371.384932 
L 594.013091 372.228282 
L 609.885091 372.093538 
L 612.770909 371.921877 
L 618.542545 371.969996 
L 621.428364 372.192491 
L 624.314182 371.961404 
L 627.2 372.101412 
L 670.487273 372.202064 
L 673.373091 372.123761 
L 676.258909 372.22016 
L 684.916364 372.194923 
L 693.573818 372.194699 
L 705.117091 372.05188 
L 708.002909 371.995307 
L 710.888727 372.180333 
L 716.660364 372.198079 
L 719.546182 372.035175 
L 725.317818 372.207337 
L 728.203636 372.078644 
L 745.518545 372.174281 
L 748.404364 372.122324 
L 751.290182 372.205942 
L 754.176 371.914577 
L 759.947636 372.230592 
L 780.148364 372.17563 
L 783.034182 372.233196 
L 785.92 371.893802 
L 791.691636 372.230075 
L 794.577455 372.002755 
L 800.349091 372.139321 
L 803.234909 372.114231 
L 806.120727 372.237961 
L 809.006545 372.038616 
L 811.892364 372.173464 
L 814.778182 372.037966 
L 817.664 372.19959 
L 820.549818 371.966747 
L 823.435636 372.229487 
L 829.207273 372.14337 
L 843.636364 372.212968 
L 852.293818 372.163252 
L 855.179636 372.128457 
L 858.065455 372.219143 
L 863.837091 372.096999 
L 866.722909 372.21193 
L 869.608727 372.020111 
L 872.494545 372.105705 
L 875.380364 371.966643 
L 878.266182 372.123501 
L 904.238545 372.078145 
L 907.124364 372.197252 
L 910.010182 372.07597 
L 912.896 372.158939 
L 918.667636 372.179171 
L 927.325091 372.14174 
L 933.096727 372.054132 
L 935.982545 372.201441 
L 938.868364 372.072554 
L 941.754182 372.219769 
L 959.069091 372.192895 
L 961.954909 372.223114 
L 967.726545 372.118279 
L 970.612364 372.22554 
L 976.384 372.228707 
L 979.269818 372.047427 
L 985.041455 372.226315 
L 993.698909 372.237666 
L 1031.214545 372.040436 
L 1036.986182 372.210426 
L 1039.872 372.073782 
L 1042.757818 372.181335 
L 1045.643636 372.044519 
L 1054.301091 372.238811 
L 1062.958545 372.069199 
L 1068.730182 372.237666 
L 1071.616 372.080233 
L 1074.501818 372.035607 
L 1077.387636 372.199173 
L 1083.159273 372.0657 
L 1088.930909 372.183247 
L 1091.816727 372.064844 
L 1094.702545 372.229884 
L 1097.588364 372.147439 
L 1100.474182 372.224786 
L 1103.36 372.120346 
L 1106.245818 372.221109 
L 1109.131636 372.158817 
L 1112.017455 372.228841 
L 1114.903273 372.139948 
L 1117.789091 372.203735 
L 1120.674909 372.05997 
L 1123.560727 372.215605 
L 1132.218182 372.126953 
L 1137.989818 372.090419 
L 1140.875636 371.88973 
L 1143.761455 372.216145 
L 1146.647273 371.771032 
L 1149.533091 372.207278 
L 1155.304727 372.177458 
L 1158.190545 372.075719 
L 1166.848 372.232421 
L 1172.619636 372.052859 
L 1178.391273 372.162515 
L 1181.277091 372.029612 
L 1187.048727 372.081106 
L 1189.934545 371.905088 
L 1192.820364 372.03935 
L 1227.450182 372.234076 
L 1230.336 372.098624 
L 1233.221818 372.187327 
L 1238.993455 372.1102 
L 1241.879273 372.229537 
L 1267.851636 372.036828 
L 1270.737455 372.238981 
L 1273.623273 372.069096 
L 1279.394909 372.149492 
L 1285.166545 372.039719 
L 1288.052364 372.202902 
L 1293.824 372.00641 
L 1296.709818 372.175492 
L 1305.367273 372.204675 
L 1308.253091 372.231376 
L 1311.138909 372.101902 
L 1314.024727 372.166397 
L 1316.910545 371.955083 
L 1319.796364 372.217841 
L 1322.682182 372.134777 
L 1325.568 372.189792 
L 1331.339636 371.96401 
L 1334.225455 372.094863 
L 1342.882909 372.230945 
L 1345.768727 371.937723 
L 1348.654545 372.10302 
L 1354.426182 372.148443 
L 1357.312 372.217816 
L 1360.197818 372.053209 
L 1365.969455 372.184723 
L 1368.855273 372.032063 
L 1371.741091 372.2005 
L 1374.626909 372.064436 
L 1377.512727 372.138671 
L 1383.284364 372.060942 
L 1386.170182 372.037952 
L 1389.056 371.831512 
L 1391.941818 372.161771 
L 1397.713455 372.166382 
L 1412.142545 371.856303 
L 1417.914182 372.222797 
L 1420.8 371.677203 
L 1423.685818 372.155428 
L 1426.571636 372.087308 
L 1432.343273 372.217809 
L 1435.229091 371.975924 
L 1438.114909 372.202198 
L 1441.000727 372.1801 
L 1443.886545 371.999391 
L 1446.772364 372.091652 
L 1449.658182 371.7408 
L 1452.544 372.210235 
L 1455.429818 371.979959 
L 1458.315636 371.905772 
L 1461.201455 372.178735 
L 1464.087273 371.923707 
L 1466.973091 372.071395 
L 1469.858909 371.854281 
L 1472.744727 372.115497 
L 1475.630545 372.068633 
L 1478.516364 371.842791 
L 1481.402182 372.130352 
L 1484.288 372.211436 
L 1485.730909 371.987723 
L 1491.502545 372.148585 
L 1500.16 371.917397 
L 1505.931636 372.04855 
L 1508.817455 371.772401 
L 1511.703273 371.754173 
L 1514.589091 372.060079 
L 1517.474909 372.095994 
L 1520.360727 371.661554 
L 1523.246545 372.058092 
L 1524.689455 371.621874 
L 1527.575273 371.93988 
L 1536.232727 372.201058 
L 1539.118545 372.059638 
L 1547.776 372.23428 
L 1550.661818 372.012789 
L 1553.547636 371.976212 
L 1554.990545 370.920871 
L 1557.876364 369.643647 
L 1560.762182 371.671651 
L 1562.205091 371.377387 
L 1563.648 368.755656 
L 1566.533818 369.57598 
L 1569.419636 365.634064 
L 1570.862545 366.634485 
L 1572.305455 371.295653 
L 1575.191273 370.454435 
L 1576.634182 371.839246 
L 1579.52 371.490949 
L 1583.848727 371.769298 
L 1583.848727 371.769298 
" clip-path="url(#pa718317d9b)" style="fill: none; stroke: #0000ff; stroke-width: 3; stroke-linecap: square"/>
   </g>
   <g id="line2d_19">
    <path d="M 360.261818 372.24 
L 367.476364 371.894024 
L 371.805091 372.043965 
L 373.248 371.961075 
L 377.576727 372.107505 
L 379.019636 372.01724 
L 381.905455 372.162368 
L 392.005818 372.08667 
L 393.448727 371.392978 
L 396.334545 372.177363 
L 399.220364 371.94198 
L 400.663273 371.298299 
L 404.992 370.834353 
L 407.877818 372.059741 
L 413.649455 372.09964 
L 416.535273 372.225024 
L 419.421091 372.048481 
L 422.306909 372.120115 
L 425.192727 372.05403 
L 430.964364 372.225706 
L 433.850182 372.216978 
L 436.736 372.056753 
L 442.507636 372.18655 
L 445.393455 372.104523 
L 448.279273 372.235526 
L 454.050909 372.133559 
L 468.48 372.208906 
L 471.365818 372.094292 
L 474.251636 372.121467 
L 477.137455 371.95708 
L 480.023273 372.169752 
L 485.794909 372.167164 
L 491.566545 372.085223 
L 497.338182 372.146009 
L 503.109818 372.119834 
L 508.881455 372.154542 
L 511.767273 372.100164 
L 514.653091 372.181374 
L 517.538909 372.063044 
L 526.196364 372.207869 
L 543.511273 372.205405 
L 569.483636 372.070665 
L 572.369455 372.005782 
L 575.255273 372.226052 
L 578.141091 372.236854 
L 581.026909 368.878853 
L 582.469818 368.589602 
L 585.355636 370.23185 
L 586.798545 370.628398 
L 591.127273 371.189628 
L 594.013091 372.062973 
L 595.456 372.23946 
L 598.341818 372.188771 
L 601.227636 372.007543 
L 606.999273 372.158188 
L 609.885091 372.011325 
L 615.656727 372.085869 
L 621.428364 372.22545 
L 630.085818 372.176032 
L 641.629091 372.132201 
L 644.514909 371.923992 
L 647.400727 371.936457 
L 653.172364 372.235916 
L 661.829818 372.059707 
L 664.715636 372.180381 
L 667.601455 372.075628 
L 696.459636 372.216855 
L 699.345455 372.164691 
L 705.117091 372.223881 
L 708.002909 372.147613 
L 710.888727 372.219843 
L 713.774545 372.143655 
L 719.546182 372.184029 
L 722.432 372.216056 
L 728.203636 372.123458 
L 736.861091 372.126868 
L 748.404364 372.131164 
L 754.176 372.228606 
L 757.061818 372.153304 
L 765.719273 372.199778 
L 774.376727 372.139663 
L 777.262545 372.237793 
L 783.034182 372.185859 
L 791.691636 372.233404 
L 806.120727 372.17966 
L 811.892364 372.148757 
L 817.664 372.127952 
L 820.549818 372.222394 
L 823.435636 372.156423 
L 826.321455 372.213789 
L 829.207273 372.129115 
L 834.978909 372.238771 
L 837.864727 372.06132 
L 843.636364 372.168663 
L 852.293818 372.236206 
L 858.065455 372.105798 
L 860.951273 372.236418 
L 863.837091 372.121713 
L 866.722909 372.173712 
L 872.494545 372.025195 
L 878.266182 372.142452 
L 884.037818 372.201932 
L 889.809455 372.239947 
L 892.695273 372.108614 
L 895.581091 372.217027 
L 912.896 372.179806 
L 915.781818 372.189983 
L 918.667636 372.080169 
L 921.553455 372.175126 
L 930.210909 372.03647 
L 935.982545 372.122704 
L 944.64 372.142663 
L 947.525818 372.157071 
L 953.297455 372.030258 
L 959.069091 372.239022 
L 961.954909 372.143641 
L 964.840727 371.916319 
L 967.726545 372.212586 
L 982.155636 372.20217 
L 985.041455 372.063831 
L 990.813091 372.214304 
L 1005.242182 372.074564 
L 1008.128 372.195085 
L 1011.013818 372.198522 
L 1013.899636 372.065206 
L 1016.785455 372.224456 
L 1060.072727 372.237779 
L 1065.844364 372.117549 
L 1071.616 372.065893 
L 1074.501818 372.225672 
L 1077.387636 372.128494 
L 1091.816727 372.237304 
L 1094.702545 372.114562 
L 1097.588364 372.206189 
L 1103.36 372.144804 
L 1109.131636 372.201694 
L 1120.674909 372.226914 
L 1132.218182 372.163495 
L 1135.104 371.810893 
L 1137.989818 371.835373 
L 1140.875636 372.007946 
L 1143.761455 371.822208 
L 1146.647273 371.980268 
L 1149.533091 371.991424 
L 1152.418909 372.174386 
L 1155.304727 372.215573 
L 1158.190545 372.093413 
L 1175.505455 372.145254 
L 1178.391273 372.086884 
L 1184.162909 372.21515 
L 1195.706182 372.207775 
L 1198.592 371.981986 
L 1204.363636 372.237647 
L 1236.107636 372.215097 
L 1247.650909 372.239048 
L 1259.194182 372.137746 
L 1267.851636 372.118263 
L 1270.737455 372.02616 
L 1273.623273 372.209929 
L 1279.394909 372.222513 
L 1296.709818 372.170236 
L 1308.253091 372.205528 
L 1331.339636 372.18964 
L 1342.882909 372.21971 
L 1345.768727 372.11131 
L 1357.312 372.140654 
L 1360.197818 372.106182 
L 1363.083636 372.217186 
L 1365.969455 372.084214 
L 1368.855273 372.212084 
L 1380.398545 372.187406 
L 1389.056 372.229175 
L 1400.599273 372.014515 
L 1403.485091 372.156212 
L 1409.256727 372.143324 
L 1412.142545 371.869316 
L 1415.028364 372.150779 
L 1417.914182 372.218732 
L 1423.685818 372.080235 
L 1426.571636 372.057923 
L 1435.229091 372.237713 
L 1438.114909 372.156991 
L 1441.000727 371.953845 
L 1443.886545 372.026544 
L 1446.772364 372.220133 
L 1449.658182 372.110821 
L 1452.544 372.14799 
L 1455.429818 372.009083 
L 1458.315636 372.178537 
L 1461.201455 372.126788 
L 1466.973091 372.205779 
L 1472.744727 372.143588 
L 1475.630545 372.224667 
L 1478.516364 372.023398 
L 1481.402182 372.111938 
L 1484.288 368.424573 
L 1485.730909 368.599783 
L 1488.616727 372.16752 
L 1491.502545 372.214364 
L 1494.388364 372.112391 
L 1505.931636 372.237469 
L 1508.817455 372.106322 
L 1514.589091 372.213402 
L 1517.474909 372.194676 
L 1520.360727 372.036735 
L 1523.246545 372.176461 
L 1524.689455 370.389669 
L 1527.575273 370.384421 
L 1530.461091 372.206314 
L 1539.118545 372.108283 
L 1550.661818 372.211978 
L 1553.547636 372.195978 
L 1554.990545 367.517744 
L 1557.876364 367.185445 
L 1560.762182 361.116663 
L 1562.205091 361.454003 
L 1563.648 358.143853 
L 1566.533818 357.896577 
L 1569.419636 359.224295 
L 1570.862545 359.396511 
L 1572.305455 364.705875 
L 1575.191273 364.620249 
L 1576.634182 366.999647 
L 1579.52 366.944608 
L 1582.405818 372.105362 
L 1583.848727 369.848666 
L 1583.848727 369.848666 
" clip-path="url(#pa718317d9b)" style="fill: none; stroke: #9933fa; stroke-width: 3; stroke-linecap: square"/>
   </g>
   <g id="patch_3">
    <path d="M 230.4 704.88 
L 230.4 39.6 
" style="fill: none; stroke: #000000; stroke-width: 3; stroke-linejoin: miter; stroke-linecap: square"/>
   </g>
   <g id="patch_4">
    <path d="M 1658.88 704.88 
L 1658.88 39.6 
" style="fill: none; stroke: #000000; stroke-width: 3; stroke-linejoin: miter; stroke-linecap: square"/>
   </g>
   <g id="patch_5">
    <path d="M 230.4 704.88 
L 1658.88 704.88 
" style="fill: none; stroke: #000000; stroke-width: 3; stroke-linejoin: miter; stroke-linecap: square"/>
   </g>
   <g id="patch_6">
    <path d="M 230.4 39.6 
L 1658.88 39.6 
" style="fill: none; stroke: #000000; stroke-width: 3; stroke-linejoin: miter; stroke-linecap: square"/>
   </g>
   <g id="legend_1">
    <g id="patch_7">
     <path d="M 254.9 221.720312 
L 387.615625 221.720312 
Q 394.615625 221.720312 394.615625 214.720312 
L 394.615625 64.1 
Q 394.615625 57.1 387.615625 57.1 
L 254.9 57.1 
Q 247.9 57.1 247.9 64.1 
L 247.9 214.720312 
Q 247.9 221.720312 254.9 221.720312 
z
" style="fill: #ffffff; opacity: 0.8; stroke: #cccccc; stroke-linejoin: miter"/>
    </g>
    <g id="line2d_20">
     <path d="M 261.9 85.444531 
L 296.9 85.444531 
L 331.9 85.444531 
" style="fill: none; stroke: #00ff00; stroke-width: 3; stroke-linecap: square"/>
    </g>
    <g id="text_11">
     <!-- x -->
     <g transform="translate(359.9 97.694531) scale(0.35 -0.35)">
      <defs>
       <path id="DejaVuSans-78" d="M 3513 3500 
L 2247 1797 
L 3578 0 
L 2900 0 
L 1881 1375 
L 863 0 
L 184 0 
L 1544 1831 
L 300 3500 
L 978 3500 
L 1906 2253 
L 2834 3500 
L 3513 3500 
z
" transform="scale(0.015625)"/>
      </defs>
      <use xlink:href="#DejaVuSans-78"/>
     </g>
    </g>
    <g id="line2d_21">
     <path d="M 261.9 136.817969 
L 296.9 136.817969 
L 331.9 136.817969 
" style="fill: none; stroke: #0000ff; stroke-width: 3; stroke-linecap: square"/>
    </g>
    <g id="text_12">
     <!-- y -->
     <g transform="translate(359.9 149.067969) scale(0.35 -0.35)">
      <defs>
       <path id="DejaVuSans-79" d="M 2059 -325 
Q 1816 -950 1584 -1140 
Q 1353 -1331 966 -1331 
L 506 -1331 
L 506 -850 
L 844 -850 
Q 1081 -850 1212 -737 
Q 1344 -625 1503 -206 
L 1606 56 
L 191 3500 
L 800 3500 
L 1894 763 
L 2988 3500 
L 3597 3500 
L 2059 -325 
z
" transform="scale(0.015625)"/>
      </defs>
      <use xlink:href="#DejaVuSans-79"/>
     </g>
    </g>
    <g id="line2d_22">
     <path d="M 261.9 188.191406 
L 296.9 188.191406 
L 331.9 188.191406 
" style="fill: none; stroke: #9933fa; stroke-width: 3; stroke-linecap: square"/>
    </g>
    <g id="text_13">
     <!-- z -->
     <g transform="translate(359.9 200.441406) scale(0.35 -0.35)">
      <defs>
       <path id="DejaVuSans-7a" d="M 353 3500 
L 3084 3500 
L 3084 2975 
L 922 459 
L 3084 459 
L 3084 0 
L 275 0 
L 275 525 
L 2438 3041 
L 353 3041 
L 353 3500 
z
" transform="scale(0.015625)"/>
      </defs>
      <use xlink:href="#DejaVuSans-7a"/>
     </g>
    </g>
   </g>
  </g>
 </g>
 <defs>
  <clipPath id="pa718317d9b">
   <rect x="230.4" y="39.6" width="1428.48" height="665.28"/>
  </clipPath>
 </defs>
</svg>
