<?xml version="1.0" encoding="utf-8" standalone="no"?>
<!DOCTYPE svg PUBLIC "-//W3C//DTD SVG 1.1//EN"
  "http://www.w3.org/Graphics/SVG/1.1/DTD/svg11.dtd">
<svg xmlns:xlink="http://www.w3.org/1999/xlink" width="1843.2pt" height="913.68pt" viewBox="0 0 1843.2 913.68" xmlns="http://www.w3.org/2000/svg" version="1.1">
 <metadata>
  <rdf:RDF xmlns:dc="http://purl.org/dc/elements/1.1/" xmlns:cc="http://creativecommons.org/ns#" xmlns:rdf="http://www.w3.org/1999/02/22-rdf-syntax-ns#">
   <cc:Work>
    <dc:type rdf:resource="http://purl.org/dc/dcmitype/StillImage"/>
    <dc:date>2024-03-22T10:29:42.351861</dc:date>
    <dc:format>image/svg+xml</dc:format>
    <dc:creator>
     <cc:Agent>
      <dc:title>Matplotlib v3.7.0, https://matplotlib.org/</dc:title>
     </cc:Agent>
    </dc:creator>
   </cc:Work>
  </rdf:RDF>
 </metadata>
 <defs>
  <style type="text/css">*{stroke-linejoin: round; stroke-linecap: butt}</style>
 </defs>
 <g id="figure_1">
  <g id="patch_1">
   <path d="M 0 913.68 
L 1843.2 913.68 
L 1843.2 0 
L 0 0 
z
" style="fill: #ffffff"/>
  </g>
  <g id="axes_1">
   <g id="patch_2">
    <path d="M 230.4 813.1752 
L 1658.88 813.1752 
L 1658.88 109.6416 
L 230.4 109.6416 
z
" style="fill: #ffffff"/>
   </g>
   <g id="matplotlib.axis_1">
    <g id="xtick_1">
     <g id="line2d_1">
      <path d="M 444.272982 813.1752 
L 444.272982 109.6416 
" clip-path="url(#pa050433bde)" style="fill: none; stroke-dasharray: 2.96,1.28; stroke-dashoffset: 0; stroke: #808080; stroke-width: 0.8"/>
     </g>
     <g id="line2d_2">
      <defs>
       <path id="md8e677eb93" d="M 0 0 
L 0 -3.5 
" style="stroke: #000000; stroke-width: 0.8"/>
      </defs>
      <g>
       <use xlink:href="#md8e677eb93" x="444.272982" y="813.1752" style="stroke: #000000; stroke-width: 0.8"/>
      </g>
     </g>
     <g id="text_1">
      <!-- 0 -->
      <g transform="translate(436.319857 835.671294) scale(0.25 -0.25)">
       <defs>
        <path id="DejaVuSans-30" d="M 2034 4250 
Q 1547 4250 1301 3770 
Q 1056 3291 1056 2328 
Q 1056 1369 1301 889 
Q 1547 409 2034 409 
Q 2525 409 2770 889 
Q 3016 1369 3016 2328 
Q 3016 3291 2770 3770 
Q 2525 4250 2034 4250 
z
M 2034 4750 
Q 2819 4750 3233 4129 
Q 3647 3509 3647 2328 
Q 3647 1150 3233 529 
Q 2819 -91 2034 -91 
Q 1250 -91 836 529 
Q 422 1150 422 2328 
Q 422 3509 836 4129 
Q 1250 4750 2034 4750 
z
" transform="scale(0.015625)"/>
       </defs>
       <use xlink:href="#DejaVuSans-30"/>
      </g>
     </g>
    </g>
    <g id="xtick_2">
     <g id="line2d_3">
      <path d="M 1024.197439 813.1752 
L 1024.197439 109.6416 
" clip-path="url(#pa050433bde)" style="fill: none; stroke-dasharray: 2.96,1.28; stroke-dashoffset: 0; stroke: #808080; stroke-width: 0.8"/>
     </g>
     <g id="line2d_4">
      <g>
       <use xlink:href="#md8e677eb93" x="1024.197439" y="813.1752" style="stroke: #000000; stroke-width: 0.8"/>
      </g>
     </g>
     <g id="text_2">
      <!-- 100 -->
      <g transform="translate(1000.338064 835.671294) scale(0.25 -0.25)">
       <defs>
        <path id="DejaVuSans-31" d="M 794 531 
L 1825 531 
L 1825 4091 
L 703 3866 
L 703 4441 
L 1819 4666 
L 2450 4666 
L 2450 531 
L 3481 531 
L 3481 0 
L 794 0 
L 794 531 
z
" transform="scale(0.015625)"/>
       </defs>
       <use xlink:href="#DejaVuSans-31"/>
       <use xlink:href="#DejaVuSans-30" x="63.623047"/>
       <use xlink:href="#DejaVuSans-30" x="127.246094"/>
      </g>
     </g>
    </g>
    <g id="xtick_3">
     <g id="line2d_5">
      <path d="M 1604.121896 813.1752 
L 1604.121896 109.6416 
" clip-path="url(#pa050433bde)" style="fill: none; stroke-dasharray: 2.96,1.28; stroke-dashoffset: 0; stroke: #808080; stroke-width: 0.8"/>
     </g>
     <g id="line2d_6">
      <g>
       <use xlink:href="#md8e677eb93" x="1604.121896" y="813.1752" style="stroke: #000000; stroke-width: 0.8"/>
      </g>
     </g>
     <g id="text_3">
      <!-- 200 -->
      <g transform="translate(1580.262521 835.671294) scale(0.25 -0.25)">
       <defs>
        <path id="DejaVuSans-32" d="M 1228 531 
L 3431 531 
L 3431 0 
L 469 0 
L 469 531 
Q 828 903 1448 1529 
Q 2069 2156 2228 2338 
Q 2531 2678 2651 2914 
Q 2772 3150 2772 3378 
Q 2772 3750 2511 3984 
Q 2250 4219 1831 4219 
Q 1534 4219 1204 4116 
Q 875 4013 500 3803 
L 500 4441 
Q 881 4594 1212 4672 
Q 1544 4750 1819 4750 
Q 2544 4750 2975 4387 
Q 3406 4025 3406 3419 
Q 3406 3131 3298 2873 
Q 3191 2616 2906 2266 
Q 2828 2175 2409 1742 
Q 1991 1309 1228 531 
z
" transform="scale(0.015625)"/>
       </defs>
       <use xlink:href="#DejaVuSans-32"/>
       <use xlink:href="#DejaVuSans-30" x="63.623047"/>
       <use xlink:href="#DejaVuSans-30" x="127.246094"/>
      </g>
     </g>
    </g>
    <g id="text_4">
     <!--   -->
     <g transform="translate(941.515 888.229887) scale(0.25 -0.25)">
      <defs>
       <path id="TimesNewRomanPSMT-20" transform="scale(0.015625)"/>
      </defs>
      <use xlink:href="#TimesNewRomanPSMT-20"/>
     </g>
    </g>
   </g>
   <g id="matplotlib.axis_2">
    <g id="ytick_1">
     <g id="line2d_7">
      <path d="M 230.4 608.347743 
L 1658.88 608.347743 
" clip-path="url(#pa050433bde)" style="fill: none; stroke-dasharray: 2.96,1.28; stroke-dashoffset: 0; stroke: #808080; stroke-width: 0.8"/>
     </g>
     <g id="line2d_8">
      <defs>
       <path id="m1675a0d677" d="M 0 0 
L 3.5 0 
" style="stroke: #000000; stroke-width: 0.8"/>
      </defs>
      <g>
       <use xlink:href="#m1675a0d677" x="230.4" y="608.347743" style="stroke: #000000; stroke-width: 0.8"/>
      </g>
     </g>
     <g id="text_5">
      <!-- −200 -->
      <g transform="translate(158.232031 617.84579) scale(0.25 -0.25)">
       <defs>
        <path id="DejaVuSans-2212" d="M 678 2272 
L 4684 2272 
L 4684 1741 
L 678 1741 
L 678 2272 
z
" transform="scale(0.015625)"/>
       </defs>
       <use xlink:href="#DejaVuSans-2212"/>
       <use xlink:href="#DejaVuSans-32" x="83.789062"/>
       <use xlink:href="#DejaVuSans-30" x="147.412109"/>
       <use xlink:href="#DejaVuSans-30" x="211.035156"/>
      </g>
     </g>
    </g>
    <g id="ytick_2">
     <g id="line2d_9">
      <path d="M 230.4 402.168917 
L 1658.88 402.168917 
" clip-path="url(#pa050433bde)" style="fill: none; stroke-dasharray: 2.96,1.28; stroke-dashoffset: 0; stroke: #808080; stroke-width: 0.8"/>
     </g>
     <g id="line2d_10">
      <g>
       <use xlink:href="#m1675a0d677" x="230.4" y="402.168917" style="stroke: #000000; stroke-width: 0.8"/>
      </g>
     </g>
     <g id="text_6">
      <!-- 0 -->
      <g transform="translate(210.99375 411.666964) scale(0.25 -0.25)">
       <use xlink:href="#DejaVuSans-30"/>
      </g>
     </g>
    </g>
    <g id="ytick_3">
     <g id="line2d_11">
      <path d="M 230.4 195.990091 
L 1658.88 195.990091 
" clip-path="url(#pa050433bde)" style="fill: none; stroke-dasharray: 2.96,1.28; stroke-dashoffset: 0; stroke: #808080; stroke-width: 0.8"/>
     </g>
     <g id="line2d_12">
      <g>
       <use xlink:href="#m1675a0d677" x="230.4" y="195.990091" style="stroke: #000000; stroke-width: 0.8"/>
      </g>
     </g>
     <g id="text_7">
      <!-- 200 -->
      <g transform="translate(179.18125 205.488138) scale(0.25 -0.25)">
       <use xlink:href="#DejaVuSans-32"/>
       <use xlink:href="#DejaVuSans-30" x="63.623047"/>
       <use xlink:href="#DejaVuSans-30" x="127.246094"/>
      </g>
     </g>
    </g>
    <g id="text_8">
     <!--   -->
     <g transform="translate(122.884375 464.5334) rotate(-90) scale(0.25 -0.25)">
      <use xlink:href="#TimesNewRomanPSMT-20"/>
     </g>
    </g>
   </g>
   <g id="line2d_13">
    <path d="M 444.272982 402.168917 
L 487.293352 401.959669 
L 515.197778 401.645617 
L 548.915548 401.337805 
L 565.193732 401.834383 
L 574.495417 402.086999 
L 593.098617 402.299514 
L 625.654754 402.584507 
L 630.304934 402.629962 
L 655.884332 402.797033 
L 703.555104 402.806797 
L 717.507489 402.961514 
L 729.134474 403.640926 
L 733.785239 403.915857 
L 736.110725 404.155265 
L 747.737704 404.534994 
L 766.341816 404.854454 
L 770.991632 405.106391 
L 777.967835 405.161301 
L 782.618652 405.258009 
L 787.268839 405.3244 
L 796.571064 405.466711 
L 805.873443 405.841807 
L 819.826025 406.266538 
L 824.476533 406.471388 
L 826.801353 406.454955 
L 829.126706 406.615686 
L 836.102924 406.814215 
L 843.079064 407.037765 
L 854.706227 407.185595 
L 857.03156 407.345417 
L 859.356873 407.36089 
L 861.682315 407.514166 
L 864.007782 407.520017 
L 868.658693 407.755751 
L 896.564235 408.47034 
L 903.539514 408.514939 
L 908.190361 408.703776 
L 910.515757 408.667893 
L 919.817519 408.935124 
L 922.142755 408.94313 
L 924.468123 409.090081 
L 926.793514 409.063433 
L 933.769715 409.351363 
L 936.095072 409.378221 
L 980.277507 412.216592 
L 984.928523 412.396637 
L 996.556059 413.181585 
L 998.881497 413.207809 
L 1008.182525 413.795674 
L 1012.833339 413.837114 
L 1029.111447 414.410814 
L 1036.087527 414.784755 
L 1038.412495 414.806285 
L 1043.064468 415.102677 
L 1047.71483 415.044273 
L 1052.364459 415.303375 
L 1061.667589 415.458674 
L 1070.968358 415.726817 
L 1077.944718 415.797131 
L 1084.9212 415.960075 
L 1089.571513 415.949596 
L 1096.54831 416.064839 
L 1105.84941 416.067663 
L 1140.730385 416.053093 
L 1143.055828 416.182479 
L 1145.381216 415.960761 
L 1147.707493 416.073595 
L 1161.659004 416.163061 
L 1168.635219 416.212304 
L 1175.611437 416.233746 
L 1180.2628 416.298455 
L 1189.564405 416.392178 
L 1243.048049 416.978834 
L 1266.302036 417.574942 
L 1275.603612 417.818161 
L 1284.905858 418.344436 
L 1303.508428 418.973126 
L 1312.810992 419.516055 
L 1317.46089 419.589083 
L 1322.111951 419.761588 
L 1324.437095 419.969162 
L 1331.414129 420.193171 
L 1336.064585 420.448848 
L 1343.040254 420.763065 
L 1347.691987 420.907033 
L 1359.318055 421.624065 
L 1373.270464 422.188158 
L 1380.246672 422.653724 
L 1384.898005 422.850302 
L 1422.103907 424.752142 
L 1441.870014 425.787869 
L 1446.521161 426.089531 
L 1448.846041 426.31358 
L 1451.171485 426.344689 
L 1455.822421 426.653062 
L 1463.961123 427.035276 
L 1490.703188 428.856681 
L 1508.144265 429.494718 
L 1522.097067 429.637381 
L 1525.58356 429.600037 
L 1532.560429 429.75202 
L 1536.048589 429.741806 
L 1536.048589 429.741806 
" clip-path="url(#pa050433bde)" style="fill: none; stroke-dasharray: 9.25,4; stroke-dashoffset: 0; stroke: #808a87; stroke-width: 2.5"/>
   </g>
   <g id="line2d_14">
    <path d="M 444.272982 402.168917 
L 493.105985 402.260661 
L 504.733437 402.323836 
L 545.428451 402.631777 
L 558.217 403.29495 
L 584.95972 404.852989 
L 589.610546 405.021665 
L 593.098617 405.213316 
L 603.563796 405.608971 
L 617.515305 406.30376 
L 627.979574 406.875901 
L 633.793085 407.148614 
L 679.138213 409.046972 
L 693.090801 409.239324 
L 703.555104 409.578807 
L 717.507489 410.161771 
L 719.832816 410.41291 
L 722.158323 410.667078 
L 726.809396 411.140153 
L 727.972145 411.099228 
L 730.297245 411.426617 
L 732.622055 411.603626 
L 743.086849 412.747672 
L 758.20197 413.731371 
L 766.341816 414.229698 
L 772.154341 414.751505 
L 780.293342 415.254863 
L 797.733834 416.321872 
L 800.059591 416.580654 
L 809.360765 417.332174 
L 816.337907 417.834291 
L 820.987801 418.146307 
L 822.150495 418.341223 
L 823.313223 418.351754 
L 824.476533 418.50073 
L 825.638597 418.457347 
L 843.079064 419.820482 
L 845.404524 419.915376 
L 847.730263 420.091092 
L 850.05595 420.136075 
L 853.543395 420.390273 
L 855.868821 420.511336 
L 857.03156 420.660852 
L 858.194719 420.637056 
L 862.845713 421.063535 
L 864.007782 421.121896 
L 866.333088 421.407497 
L 868.658693 421.570612 
L 870.983889 421.743475 
L 875.634699 422.063403 
L 880.285565 422.409721 
L 884.936355 422.74959 
L 888.424897 422.975454 
L 890.749765 423.113278 
L 893.075277 423.237918 
L 896.564235 423.486076 
L 905.864946 423.973861 
L 918.654567 424.76205 
L 924.468123 425.158479 
L 926.793514 425.21588 
L 930.281584 425.467862 
L 946.55962 426.746467 
L 950.047636 427.15884 
L 957.024569 427.840581 
L 980.277507 430.168684 
L 982.603083 430.305833 
L 986.091277 430.669234 
L 991.904776 431.232118 
L 996.556059 431.713672 
L 998.881497 431.818669 
L 1003.531687 432.311307 
L 1007.019826 432.523598 
L 1008.182525 432.733636 
L 1010.50885 432.78493 
L 1046.552207 435.282651 
L 1047.71483 435.238201 
L 1048.877646 435.433991 
L 1051.201769 435.565539 
L 1053.527942 435.71448 
L 1063.992258 436.279953 
L 1067.480251 436.501466 
L 1077.944718 436.960976 
L 1082.596278 437.221972 
L 1087.246496 437.382589 
L 1119.801826 438.561583 
L 1120.964621 438.52199 
L 1125.615296 438.705758 
L 1136.079578 438.978315 
L 1143.055828 439.258179 
L 1145.381216 439.108361 
L 1146.543945 439.132888 
L 1147.707493 439.290001 
L 1176.774303 440.275207 
L 1179.099912 440.369734 
L 1183.750814 440.561591 
L 1193.051992 440.945502 
L 1195.377346 441.067372 
L 1201.190758 441.353642 
L 1243.048049 443.330837 
L 1250.024786 443.783524 
L 1253.512382 444.033992 
L 1261.651309 444.624071 
L 1267.465397 444.975153 
L 1283.742573 446.341234 
L 1287.23106 446.627209 
L 1293.044179 447.052192 
L 1317.46089 448.94297 
L 1320.949821 449.184998 
L 1338.389451 450.728846 
L 1340.714913 450.910455 
L 1344.202948 451.207205 
L 1345.365734 451.214375 
L 1348.853809 451.541099 
L 1361.643891 452.700945 
L 1362.806168 452.711362 
L 1365.13154 452.951358 
L 1374.433139 453.659744 
L 1377.921313 453.975614 
L 1394.199133 455.311371 
L 1396.524475 455.494671 
L 1400.012598 455.808123 
L 1415.127685 456.967682 
L 1416.290339 456.997145 
L 1419.778464 457.335415 
L 1426.754723 457.746523 
L 1434.893615 458.346209 
L 1446.521161 459.456329 
L 1450.009235 459.881595 
L 1452.334194 459.967261 
L 1456.98451 460.431153 
L 1459.310325 460.522533 
L 1460.473538 460.637545 
L 1465.123836 460.895913 
L 1468.611869 461.235795 
L 1469.774678 461.273623 
L 1472.100673 461.527583 
L 1476.75082 461.940709 
L 1480.238918 462.278294 
L 1491.866432 463.235115 
L 1498.842087 463.70848 
L 1501.167508 463.776572 
L 1505.818394 464.073531 
L 1512.794648 464.351495 
L 1534.885633 464.945373 
L 1534.885633 464.945373 
" clip-path="url(#pa050433bde)" style="fill: none; stroke: #7cfc00; stroke-width: 2.5; stroke-linecap: square"/>
   </g>
   <g id="line2d_15">
    <path d="M 443.6916 402.168917 
L 469.853088 402.166908 
L 479.154213 402.155785 
L 486.71226 402.188077 
L 496.595364 402.19797 
L 501.827223 402.15367 
L 509.384213 402.097619 
L 530.313167 401.957766 
L 546.009267 402.155528 
L 566.93779 402.683602 
L 575.07674 403.001676 
L 590.191313 403.528757 
L 598.331303 403.873492 
L 600.656092 403.904178 
L 610.539079 404.524654 
L 630.886361 406.063634 
L 636.118507 406.632122 
L 647.164134 407.917728 
L 650.652308 408.338619 
L 676.813022 411.238782 
L 678.557606 411.455919 
L 680.882436 411.675617 
L 686.696888 412.036886 
L 707.042541 413.3907 
L 715.763447 414.168374 
L 718.088815 414.338786 
L 720.414279 414.618043 
L 723.32099 414.925516 
L 727.390515 415.620223 
L 731.460519 416.379778 
L 740.761492 418.264776 
L 745.412219 419.039085 
L 760.52834 422.254279 
L 787.850954 428.64578 
L 790.176254 429.158686 
L 804.128619 432.423509 
L 808.779907 433.530497 
L 814.593525 434.904727 
L 819.826025 436.182955 
L 836.684204 440.112744 
L 839.0097 440.781648 
L 843.660504 441.90276 
L 853.543395 444.346961 
L 861.682315 446.975741 
L 864.007782 447.774103 
L 867.49587 448.974803 
L 893.075277 458.433409 
L 897.726066 460.009535 
L 905.864946 462.694576 
L 907.608959 463.278709 
L 909.934414 464.089238 
L 913.4225 465.296784 
L 916.330223 466.265574 
L 932.025664 471.21885 
L 937.258606 472.925914 
L 940.745961 474.063547 
L 944.234024 475.360546 
L 948.884767 477.184601 
L 961.674534 481.616453 
L 967.487336 483.304991 
L 970.976085 484.259712 
L 973.301572 484.928454 
L 977.37156 485.884664 
L 982.603083 487.154928 
L 986.672613 488.323798 
L 989.579291 489.338084 
L 993.649302 490.700705 
L 998.881497 492.313316 
L 1002.369592 493.405005 
L 1025.042583 500.287497 
L 1030.855739 502.06228 
L 1034.925043 503.126993 
L 1037.832278 503.839529 
L 1040.738634 504.603962 
L 1043.064468 505.127704 
L 1045.389887 505.694481 
L 1058.760368 508.475254 
L 1062.248055 509.395762 
L 1066.898925 510.762698 
L 1075.620033 513.146863 
L 1077.944718 513.783159 
L 1094.222307 518.010649 
L 1097.71047 518.791446 
L 1113.406952 522.75392 
L 1129.104131 527.637986 
L 1139.567684 530.617913 
L 1141.311688 531.015656 
L 1150.613329 534.380587 
L 1152.93909 535.340686 
L 1170.379277 541.937881 
L 1184.913362 547.012666 
L 1189.564405 548.650018 
L 1194.795887 550.519855 
L 1199.446735 552.125463 
L 1205.260265 554.125162 
L 1209.911057 555.731475 
L 1213.399042 557.082636 
L 1222.119892 560.370872 
L 1231.421471 563.850715 
L 1233.746512 564.623526 
L 1247.698854 569.902334 
L 1273.279157 578.643671 
L 1290.138106 584.711931 
L 1297.69496 587.160678 
L 1305.252737 589.387172 
L 1307.578207 590.123116 
L 1324.437095 595.279455 
L 1326.762391 595.993594 
L 1328.506581 596.528483 
L 1331.414129 597.548997 
L 1334.320548 598.490127 
L 1353.504563 605.729974 
L 1355.248595 606.407799 
L 1363.387494 609.546138 
L 1366.87615 610.846077 
L 1375.014543 613.809229 
L 1381.990702 616.140172 
L 1390.711006 619.219086 
L 1397.10583 621.392234 
L 1402.919326 623.118972 
L 1408.732391 624.86645 
L 1418.034289 626.609992 
L 1419.778464 626.691968 
L 1429.080172 627.637308 
L 1441.870014 628.513209 
L 1446.521161 628.526628 
L 1460.473538 627.692883 
L 1463.379748 627.435574 
L 1472.100673 626.6637 
L 1476.75082 626.148922 
L 1479.657595 625.828255 
L 1482.564259 625.609598 
L 1486.052412 625.369633 
L 1495.353969 625.106003 
L 1500.586157 625.231236 
L 1509.888223 626.240746 
L 1519.189418 628.035878 
L 1523.258851 629.155815 
L 1525.58356 629.788162 
L 1529.653462 630.897713 
L 1532.560429 631.805347 
L 1535.467213 632.700357 
L 1537.21129 633.074455 
L 1537.21129 633.074455 
" clip-path="url(#pa050433bde)" style="fill: none; stroke: #ffc0cb; stroke-opacity: 0.5; stroke-width: 2.5; stroke-linecap: square"/>
   </g>
   <g id="line2d_16">
    <path d="M 448.917954 402.168917 
L 448.923753 402.166185 
L 448.923753 402.166185 
L 501.245254 402.265329 
L 504.733437 402.290756 
L 519.848519 402.341534 
L 519.848519 402.341534 
L 525.080455 402.373897 
L 537.288988 402.418937 
L 543.683462 402.535263 
L 548.335187 402.722096 
L 552.985222 402.988955 
L 571.007283 403.992132 
L 574.495417 404.25376 
L 622.166121 406.442135 
L 623.910676 406.551054 
L 636.118507 407.090965 
L 637.862568 407.201668 
L 643.094746 407.454121 
L 646.582813 407.65666 
L 652.396285 407.906502 
L 652.396285 407.906502 
L 667.511378 408.603095 
L 695.416069 409.318033 
L 702.392452 409.548999 
L 712.856638 410.009473 
L 719.251534 410.312152 
L 719.832816 410.5869 
L 721.576972 410.728845 
L 722.158323 410.630769 
L 726.227765 410.99732 
L 728.553179 411.206913 
L 730.878556 411.386682 
L 731.460519 411.556482 
L 735.529303 411.968324 
L 736.692018 412.176755 
L 744.249719 412.923217 
L 756.457899 413.781354 
L 757.620273 413.885252 
L 762.852674 414.210591 
L 768.666286 414.67539 
L 782.618652 415.734556 
L 790.757899 416.276081 
L 800.640683 417.048529 
L 802.385142 417.225276 
L 809.942968 417.729845 
L 814.593525 417.698053 
L 815.174508 418.261681 
L 844.823167 420.790567 
L 846.566879 420.858619 
L 857.612917 421.637319 
L 868.077555 422.701832 
L 868.077555 422.701832 
L 872.147558 423.082604 
L 882.029554 423.983932 
L 886.099086 424.375978 
L 895.982552 425.236638 
L 898.888688 425.438406 
L 918.654567 427.055727 
L 923.305438 427.424834 
L 925.630861 427.644681 
L 929.700319 427.931086 
L 941.327255 429.096149 
L 946.55962 429.793473 
L 947.141006 429.690033 
L 956.442349 430.966922 
L 973.882882 433.289869 
L 979.115071 433.853032 
L 993.067639 435.499284 
L 994.811548 435.713258 
L 1009.345265 437.389761 
L 1012.833339 437.698083 
L 1027.949321 439.07659 
L 1030.274434 439.301087 
L 1033.181121 439.670985 
L 1039.575977 440.223821 
L 1042.483007 440.521714 
L 1048.877646 441.032864 
L 1051.783774 441.28798 
L 1062.829486 442.247734 
L 1064.573076 442.360995 
L 1079.107601 443.495011 
L 1080.851367 443.594618 
L 1094.222307 444.540509 
L 1118.639964 446.022042 
L 1120.964621 446.104133 
L 1123.871234 446.275781 
L 1141.311688 447.191332 
L 1141.893067 447.210405 
L 1142.474469 447.358984 
L 1143.055828 447.380357 
L 1144.799821 447.188405 
L 1146.543945 446.959078 
L 1147.12525 447.267217 
L 1148.869312 447.004074 
L 1149.450649 447.528247 
L 1151.194702 447.268148 
L 1151.77604 447.659696 
L 1153.520434 447.439603 
L 1153.520434 447.439603 
L 1154.683401 447.692851 
L 1155.845475 447.546445 
L 1156.426816 447.9789 
L 1158.170925 447.769684 
L 1158.752261 448.144066 
L 1160.496274 447.941681 
L 1161.077674 448.308875 
L 1161.077674 448.308875 
L 1162.24037 448.173229 
L 1163.403032 448.545819 
L 1165.147948 448.286348 
L 1165.728751 448.656287 
L 1166.890786 448.483613 
L 1168.053796 448.790123 
L 1168.053796 448.790123 
L 1169.79796 448.527177 
L 1170.379277 448.948781 
L 1172.123177 448.698592 
L 1172.704608 449.097663 
L 1174.448772 448.838067 
L 1175.030028 449.245286 
L 1176.774303 448.996277 
L 1177.355991 449.387097 
L 1179.099912 449.137993 
L 1179.68159 449.560251 
L 1181.424224 449.332654 
L 1182.006244 449.745095 
L 1183.750814 449.517557 
L 1184.33246 449.928721 
L 1186.07624 449.697978 
L 1186.657984 450.085295 
L 1188.401108 449.844244 
L 1188.983018 450.257154 
L 1190.726145 450.02763 
L 1191.308006 450.429127 
L 1193.051992 450.233871 
L 1193.633716 450.567745 
L 1195.377346 450.371805 
L 1195.958604 450.740209 
L 1197.702696 450.564888 
L 1198.283982 450.914259 
L 1200.028091 450.744282 
L 1200.609517 451.058712 
L 1202.353435 450.875978 
L 1202.934874 451.245271 
L 1204.678953 451.06269 
L 1205.260265 451.390696 
L 1207.004367 451.242395 
L 1207.585685 451.60544 
L 1209.329249 451.535392 
L 1209.911057 451.765576 
L 1211.65512 451.690054 
L 1212.236483 451.913883 
L 1213.980723 451.842935 
L 1214.562169 452.081334 
L 1216.305961 452.024916 
L 1216.887215 452.236629 
L 1218.631297 452.172807 
L 1219.212709 452.428044 
L 1220.95698 452.371466 
L 1221.538039 452.57343 
L 1223.28221 452.515707 
L 1223.863489 452.745489 
L 1225.607443 452.693296 
L 1226.188891 452.920498 
L 1227.933433 452.870865 
L 1228.514305 453.093765 
L 1230.258414 453.056048 
L 1230.839675 453.302712 
L 1232.58377 453.257228 
L 1233.165526 453.405248 
L 1234.909566 453.352827 
L 1235.49054 453.588225 
L 1237.234856 453.530565 
L 1237.816445 453.750622 
L 1239.559908 453.71511 
L 1240.141779 453.976852 
L 1241.885373 453.956461 
L 1242.467171 454.147838 
L 1244.210742 454.134707 
L 1244.792578 454.366813 
L 1246.536668 454.340932 
L 1247.11799 454.56281 
L 1248.861541 454.528202 
L 1249.443409 454.746777 
L 1251.186949 454.712728 
L 1251.768307 454.958799 
L 1253.512382 454.959218 
L 1254.093704 455.210394 
L 1255.837752 455.227786 
L 1256.419069 455.454123 
L 1258.163178 455.416606 
L 1258.744522 455.631488 
L 1260.488526 455.587768 
L 1261.069871 455.845043 
L 1262.81395 455.822689 
L 1263.395314 456.043014 
L 1265.139599 456.013409 
L 1265.720709 456.282288 
L 1267.465397 456.246796 
L 1268.046228 456.441681 
L 1269.790653 456.403978 
L 1270.371695 456.650784 
L 1272.115488 456.624589 
L 1272.696955 456.879551 
L 1274.440462 456.853929 
L 1275.022699 457.110945 
L 1276.766319 457.106704 
L 1277.347725 457.322203 
L 1279.091994 457.329108 
L 1279.672932 457.585215 
L 1281.418067 457.610209 
L 1281.999366 457.866025 
L 1283.742573 457.867978 
L 1284.324029 458.128733 
L 1286.068084 458.139039 
L 1286.64993 458.365558 
L 1288.393401 458.346213 
L 1288.975389 458.549167 
L 1290.718731 458.512833 
L 1291.29937 458.728698 
L 1293.044179 458.722617 
L 1293.625521 458.984061 
L 1295.369528 458.983769 
L 1295.950995 459.192024 
L 1297.69496 459.183108 
L 1298.27629 459.418986 
L 1300.019921 459.408375 
L 1300.601737 459.655897 
L 1302.345764 459.62344 
L 1302.927145 459.838413 
L 1304.671696 459.828741 
L 1305.252737 460.053494 
L 1306.997326 460.058416 
L 1307.578207 460.290944 
L 1309.322835 460.32715 
L 1309.903288 460.571663 
L 1311.647535 460.590161 
L 1312.229199 460.831344 
L 1313.972889 460.804342 
L 1314.554495 460.999478 
L 1316.298654 460.976157 
L 1316.879488 461.243983 
L 1318.623589 461.224724 
L 1319.204894 461.348406 
L 1320.949821 461.366739 
L 1321.530933 461.598397 
L 1323.275048 461.60173 
L 1323.856242 461.80809 
L 1325.599744 461.840906 
L 1325.599744 461.840906 
L 1326.762391 462.097418 
L 1327.925315 462.10004 
L 1328.506581 462.290328 
L 1330.250555 462.286276 
L 1330.832052 462.540736 
L 1332.57688 462.543177 
L 1333.157813 462.772416 
L 1334.901542 462.789026 
L 1335.48307 463.011042 
L 1337.227308 463.021222 
L 1337.808736 463.271536 
L 1339.552134 463.287022 
L 1340.133545 463.461823 
L 1341.878128 463.472228 
L 1342.45941 463.737305 
L 1344.202948 463.74419 
L 1344.78429 463.980071 
L 1346.528414 463.97928 
L 1347.109699 464.191869 
L 1348.853809 464.213867 
L 1349.43511 464.432752 
L 1351.179149 464.459807 
L 1351.760496 464.669719 
L 1353.504563 464.702554 
L 1354.085881 464.913036 
L 1355.829958 464.952844 
L 1356.411316 465.189752 
L 1358.155323 465.216375 
L 1358.736676 465.45368 
L 1360.480803 465.484467 
L 1361.062155 465.723184 
L 1362.806168 465.71885 
L 1363.387494 465.871586 
L 1365.13154 465.880602 
L 1365.712938 466.126123 
L 1367.456693 466.140908 
L 1368.038361 466.38637 
L 1369.782399 466.377513 
L 1370.36367 466.575489 
L 1372.107776 466.588312 
L 1372.689119 466.818425 
L 1374.433139 466.848862 
L 1375.014543 467.051888 
L 1376.75861 467.064778 
L 1377.339909 467.283569 
L 1379.084109 467.299251 
L 1379.665352 467.530532 
L 1381.40941 467.537571 
L 1381.990702 467.760035 
L 1383.735342 467.768288 
L 1384.316566 467.998582 
L 1386.059522 468.012691 
L 1386.641451 468.200871 
L 1388.385536 468.224686 
L 1388.385536 468.224686 
L 1389.548232 468.480789 
L 1389.548232 468.480789 
L 1390.711006 468.493019 
L 1391.291757 468.714751 
L 1393.036086 468.74257 
L 1393.036086 468.74257 
L 1394.780442 468.992506 
L 1395.361865 469.004917 
L 1395.943655 469.181598 
L 1395.943655 469.181598 
L 1397.10583 469.201654 
L 1398.268475 469.452023 
L 1400.012598 469.470104 
L 1400.593924 469.699906 
L 1402.33803 469.703405 
L 1402.33803 469.703405 
L 1402.919326 469.933876 
L 1404.082058 469.930179 
L 1405.825424 470.12384 
L 1406.989731 470.117886 
L 1407.570164 470.320647 
L 1409.314176 470.323565 
L 1409.895484 470.530951 
L 1411.639605 470.544502 
L 1412.220947 470.728427 
L 1413.383622 470.714985 
L 1415.127685 470.901465 
L 1416.290339 470.871931 
L 1416.871776 471.01296 
L 1418.6163 470.97409 
L 1419.197162 471.244743 
L 1420.941182 471.186721 
L 1421.522525 471.401383 
L 1423.26618 471.347554 
L 1423.848505 471.541019 
L 1452.915298 473.509917 
L 1462.798438 474.016093 
L 1463.961123 473.992866 
L 1497.679427 475.886479 
L 1499.423511 475.9144 
L 1512.213891 476.494115 
L 1518.607332 476.756429 
L 1520.352536 476.840082 
L 1526.746915 477.117435 
L 1537.21129 477.714937 
L 1537.21129 477.714937 
" clip-path="url(#pa050433bde)" style="fill: none; stroke: #a39480; stroke-opacity: 0.5; stroke-width: 2.5; stroke-linecap: square"/>
   </g>
   <g id="line2d_17">
    <path d="M 443.6916 402.168917 
L 472.177823 402.253614 
L 483.224008 402.360329 
L 504.152074 402.315924 
L 522.755181 402.439211 
L 544.265166 402.643782 
L 552.404806 403.043285 
L 566.356484 403.924939 
L 571.588697 404.291489 
L 577.402129 404.651391 
L 606.469596 406.014336 
L 611.701804 406.277689 
L 622.747417 406.938823 
L 625.654754 407.047924 
L 630.886361 407.308191 
L 635.536523 407.547662 
L 654.721832 408.397852 
L 661.116515 408.639375 
L 666.348635 408.839128 
L 670.999414 408.988722 
L 673.324921 409.092414 
L 682.626643 409.331446 
L 701.810461 409.750021 
L 705.880424 409.886234 
L 709.949938 410.000258 
L 720.414279 410.585704 
L 727.390515 411.319952 
L 728.553179 411.32365 
L 730.297245 411.561237 
L 733.785239 411.860406 
L 737.273347 412.368431 
L 745.412219 412.953675 
L 757.039235 413.69272 
L 768.666286 414.39428 
L 770.991632 414.633477 
L 774.480865 414.753759 
L 783.781416 415.275781 
L 785.525464 415.370094 
L 789.013583 415.580698 
L 818.662858 417.667676 
L 820.406995 417.773725 
L 822.731552 417.924051 
L 825.057295 418.196584 
L 826.22002 418.036307 
L 828.545358 418.314424 
L 832.033474 418.62044 
L 833.777475 418.733746 
L 835.521551 418.71082 
L 842.497804 419.291478 
L 844.823167 419.386532 
L 847.148568 419.534916 
L 850.636788 419.617004 
L 855.2875 419.811845 
L 856.450156 419.83334 
L 857.612917 420.153638 
L 859.356873 420.149776 
L 860.519613 420.104601 
L 862.845713 420.516117 
L 865.751712 420.565706 
L 869.239944 420.951279 
L 872.727997 421.105766 
L 874.471746 421.199158 
L 875.634699 421.187099 
L 878.541307 421.449668 
L 880.285565 421.497953 
L 882.029554 421.661117 
L 884.354932 421.756055 
L 886.099086 421.848825 
L 890.168462 422.083018 
L 891.33064 422.144389 
L 892.493906 422.124974 
L 894.238131 422.261919 
L 895.401177 422.36368 
L 898.888688 422.416403 
L 901.214114 422.592472 
L 902.958196 422.583604 
L 904.120857 422.594559 
L 905.864946 422.764158 
L 907.027648 422.751434 
L 908.771716 422.910211 
L 910.515757 422.831256 
L 912.842017 423.070918 
L 919.235975 423.331058 
L 920.979644 423.439539 
L 923.305438 423.48744 
L 924.468123 423.642932 
L 926.793514 423.593477 
L 928.537634 423.843117 
L 931.444327 423.845299 
L 933.769715 424.064247 
L 935.513708 424.002437 
L 945.39729 424.850338 
L 946.55962 424.877549 
L 948.884767 425.155992 
L 956.442349 425.75654 
L 958.76784 425.923517 
L 962.837218 426.340878 
L 965.744045 426.601805 
L 972.138869 427.146066 
L 973.882882 427.303113 
L 976.789312 427.474235 
L 978.533716 427.529604 
L 980.858676 427.729078 
L 982.603083 427.76058 
L 983.766649 427.903816 
L 985.509917 427.986867 
L 987.253954 428.122342 
L 988.41721 428.165989 
L 997.137822 428.926229 
L 998.881497 428.94673 
L 1006.438501 429.469876 
L 1007.019826 429.47801 
L 1008.182525 429.70704 
L 1010.50885 429.659633 
L 1011.089646 429.778311 
L 1012.833339 429.776127 
L 1013.996593 429.90845 
L 1018.065199 430.006389 
L 1024.460329 430.322763 
L 1029.111447 430.621475 
L 1034.925043 431.070421 
L 1041.900505 431.394734 
L 1043.064468 431.518034 
L 1045.97083 431.536007 
L 1047.133989 431.56991 
L 1047.71483 431.505707 
L 1049.458558 431.758017 
L 1051.201769 431.750691 
L 1052.364459 431.899187 
L 1053.527942 431.885615 
L 1058.178956 432.083991 
L 1059.340345 432.092892 
L 1060.504047 432.226043 
L 1062.248055 432.185752 
L 1063.992258 432.291684 
L 1068.642962 432.486825 
L 1073.293746 432.560026 
L 1074.456482 432.680293 
L 1076.201461 432.639069 
L 1077.364129 432.773268 
L 1079.107601 432.721126 
L 1080.270914 432.875822 
L 1081.432623 432.745631 
L 1084.9212 432.969626 
L 1099.455471 433.261966 
L 1104.105311 433.327024 
L 1113.406952 433.469809 
L 1130.266616 433.727863 
L 1137.242227 433.809178 
L 1138.405015 433.804558 
L 1140.730385 433.756873 
L 1143.055828 433.922342 
L 1146.543945 433.752801 
L 1150.613329 433.892444 
L 1156.426816 434.023925 
L 1165.728751 434.178303 
L 1167.472787 434.205422 
L 1170.379277 434.247147 
L 1193.051992 434.72283 
L 1204.096918 435.066914 
L 1206.422997 435.117712 
L 1230.258414 435.841419 
L 1232.002382 435.83604 
L 1234.909566 435.966308 
L 1243.048049 436.351252 
L 1246.536668 436.480789 
L 1252.349656 436.78122 
L 1254.093704 436.943927 
L 1258.744522 437.157739 
L 1260.488526 437.298232 
L 1277.347725 438.218339 
L 1278.510886 438.327939 
L 1280.254455 438.448393 
L 1281.418067 438.566719 
L 1309.322835 440.518244 
L 1310.485365 440.687014 
L 1322.693924 441.347052 
L 1325.018045 441.632025 
L 1332.57688 442.155465 
L 1333.739403 442.250986 
L 1336.064585 442.376758 
L 1338.389451 442.572984 
L 1342.45941 442.797481 
L 1344.202948 442.970857 
L 1346.528414 443.103263 
L 1351.179149 443.419928 
L 1352.341866 443.532722 
L 1355.248595 443.738629 
L 1361.643891 444.238224 
L 1363.387494 444.311194 
L 1366.87615 444.590039 
L 1393.036086 446.408784 
L 1395.943655 446.626073 
L 1398.268475 446.831251 
L 1437.218992 449.561186 
L 1450.590901 450.934175 
L 1451.752701 450.91427 
L 1453.496834 451.194256 
L 1457.566303 451.481885 
L 1458.728916 451.536785 
L 1459.891604 451.789537 
L 1462.798438 451.846555 
L 1464.542499 451.985199 
L 1465.705109 452.143115 
L 1466.867801 452.299766 
L 1469.193226 452.452385 
L 1472.100673 452.752893 
L 1484.889655 454.034944 
L 1486.052412 454.146998 
L 1487.796456 454.379135 
L 1489.54047 454.478819 
L 1490.703188 454.571689 
L 1491.866432 454.556571 
L 1493.609967 454.839051 
L 1495.93532 454.922419 
L 1498.260748 455.050157 
L 1500.004864 455.236729 
L 1501.167508 455.15655 
L 1505.818394 455.509466 
L 1508.725707 455.65779 
L 1513.958192 455.87188 
L 1514.538976 455.795516 
L 1514.538976 455.795516 
" clip-path="url(#pa050433bde)" style="fill: none; stroke: #ff6347; stroke-width: 2.5; stroke-linecap: square"/>
   </g>
   <g id="line2d_18">
    <path d="M 443.6916 402.168917 
L 480.316889 402.264453 
L 487.293348 402.322111 
L 502.408005 402.531308 
L 507.058767 402.576579 
L 527.98736 402.715557 
L 536.126274 402.757696 
L 543.102475 402.841288 
L 550.660927 403.098636 
L 571.588696 404.482772 
L 573.914025 404.667786 
L 579.146172 404.977268 
L 596.586848 406.008675 
L 600.074759 406.245962 
L 601.818853 406.298364 
L 607.051883 406.485953 
L 615.18992 406.99668 
L 618.677958 407.242885 
L 631.467723 407.907099 
L 636.69987 408.211405 
L 643.094744 408.604221 
L 659.95385 409.393787 
L 672.743493 409.794275 
L 674.488286 409.873995 
L 675.650277 409.838736 
L 676.813017 409.941431 
L 683.208154 410.037686 
L 685.533075 410.155033 
L 689.0216 410.137127 
L 700.648342 410.284248 
L 709.368528 410.661438 
L 712.27573 410.693178 
L 714.601291 410.800522 
L 718.670337 410.815023 
L 719.832813 410.935376 
L 720.995578 410.776687 
L 723.320987 411.018565 
L 724.483736 411.13342 
L 726.227762 411.299655 
L 727.972139 411.442551 
L 729.13447 411.580525 
L 733.203967 411.915918 
L 734.947912 412.060471 
L 740.761492 412.311328 
L 743.668236 412.314165 
L 748.319009 412.304029 
L 749.481805 412.231067 
L 757.039235 412.245834 
L 761.109649 412.141112 
L 766.922492 412.086614 
L 771.572994 412.168061 
L 779.711951 412.062182 
L 781.456056 412.09835 
L 784.362671 411.978785 
L 801.803784 412.192912 
L 802.385141 412.243507 
L 803.54804 412.171139 
L 809.360763 412.253964 
L 811.105401 412.171896 
L 821.569186 412.250594 
L 822.150491 412.374213 
L 823.894545 412.333978 
L 825.057293 412.349915 
L 826.220019 412.267087 
L 830.870752 412.39164 
L 833.777472 412.430889 
L 839.009696 412.443085 
L 861.682312 411.384501 
L 865.170424 411.157106 
L 871.565739 410.654075 
L 873.309877 410.551169 
L 890.168462 409.069964 
L 906.446134 407.441201 
L 907.608953 407.374675 
L 926.212299 405.286034 
L 929.11896 404.945337 
L 951.210719 402.415584 
L 954.117945 402.016485 
L 958.186851 401.559304 
L 962.255873 401.06303 
L 963.999874 400.800786 
L 974.464291 399.340926 
L 976.20827 399.094223 
L 977.371556 398.913575 
L 979.696909 398.531775 
L 981.440424 398.297997 
L 983.184436 398.020078 
L 984.347985 397.810383 
L 988.41721 397.167333 
L 989.579287 397.036119 
L 991.904772 396.66728 
L 993.649301 396.463233 
L 994.811545 396.236064 
L 999.462231 395.420059 
L 1003.531684 394.753236 
L 1005.275783 394.492438 
L 1015.158769 392.94795 
L 1030.27443 390.950287 
L 1034.925042 390.430333 
L 1036.668375 390.149207 
L 1049.458556 388.565903 
L 1050.621173 388.331602 
L 1053.527939 388.046865 
L 1058.178949 387.402566 
L 1061.667585 386.787522 
L 1068.642956 385.674471 
L 1070.387068 385.375163 
L 1072.131086 385.117843 
L 1073.293741 384.8941 
L 1077.364128 384.340555 
L 1079.107601 383.993761 
L 1083.177632 383.426565 
L 1084.340293 383.208077 
L 1087.246493 382.727342 
L 1108.756121 379.235113 
L 1110.500135 378.941955 
L 1112.826422 378.627112 
L 1113.988292 378.402301 
L 1142.474467 374.082318 
L 1145.381212 373.345191 
L 1148.869312 372.722902 
L 1152.357522 371.876209 
L 1158.170924 370.705849 
L 1159.333551 370.437948 
L 1161.077672 370.171229 
L 1178.519052 366.637196 
L 1189.564403 364.922353 
L 1193.633715 364.441654 
L 1196.539949 364.02644 
L 1199.446733 363.67846 
L 1201.772091 363.419585 
L 1203.516232 363.263777 
L 1232.583768 360.53263 
L 1237.816442 360.182334 
L 1240.141779 359.988153 
L 1246.536664 359.550177 
L 1247.69885 359.560551 
L 1248.280146 359.38932 
L 1260.488519 358.879091 
L 1262.232574 358.715595 
L 1281.999362 358.115449 
L 1291.299367 357.855641 
L 1293.625518 357.904287 
L 1294.788223 357.949153 
L 1295.950992 357.904067 
L 1300.019918 358.028217 
L 1301.764406 357.981447 
L 1309.322835 358.271788 
L 1309.903287 358.380947 
L 1314.554495 358.410905 
L 1321.530928 358.617506 
L 1324.437092 358.779197 
L 1326.181157 358.767399 
L 1329.669205 358.825152 
L 1341.878121 358.584413 
L 1343.04025 358.504107 
L 1344.784286 358.463141 
L 1347.691982 358.297809 
L 1360.4808 357.845401 
L 1362.224813 357.69355 
L 1375.014543 356.999966 
L 1376.177199 356.995223 
L 1379.66535 356.795623 
L 1380.82734 356.749966 
L 1382.572754 356.586533 
L 1384.898004 356.518909 
L 1396.524472 355.964746 
L 1407.570162 356.048564 
L 1409.314175 356.154259 
L 1411.05879 356.292866 
L 1412.803232 356.354206 
L 1416.290334 356.651727 
L 1418.616296 356.895671 
L 1421.522522 357.261771 
L 1423.848502 357.47755 
L 1427.336033 357.910009 
L 1433.730914 358.815663 
L 1439.545996 359.921807 
L 1447.684278 361.804267 
L 1451.17148 362.700872 
L 1452.334194 362.896556 
L 1455.240138 363.667394 
L 1462.798438 365.432999 
L 1472.681528 368.10983 
L 1477.33211 369.521338 
L 1481.401643 370.738054 
L 1487.215201 372.29418 
L 1489.540466 372.828924 
L 1490.703185 373.087253 
L 1494.191275 373.684269 
L 1497.098138 374.151696 
L 1498.842083 374.418474 
L 1500.004859 374.628545 
L 1502.330196 374.802912 
L 1503.493239 374.950011 
L 1504.655588 374.999483 
L 1506.980998 375.28253 
L 1511.050264 375.457882 
L 1516.863971 375.440622 
L 1519.770762 375.149089 
L 1522.097066 375.074909 
L 1527.328314 374.607846 
L 1537.211288 373.684989 
L 1537.211288 373.684989 
" clip-path="url(#pa050433bde)" style="fill: none; stroke: #d2b48c; stroke-opacity: 0.5; stroke-width: 2.5; stroke-linecap: square"/>
   </g>
   <g id="patch_3">
    <path d="M 230.4 813.1752 
L 230.4 109.6416 
" style="fill: none; stroke: #000000; stroke-width: 3; stroke-linejoin: miter; stroke-linecap: square"/>
   </g>
   <g id="patch_4">
    <path d="M 1658.88 813.1752 
L 1658.88 109.6416 
" style="fill: none; stroke: #000000; stroke-width: 3; stroke-linejoin: miter; stroke-linecap: square"/>
   </g>
   <g id="patch_5">
    <path d="M 230.4 813.1752 
L 1658.88 813.1752 
" style="fill: none; stroke: #000000; stroke-width: 3; stroke-linejoin: miter; stroke-linecap: square"/>
   </g>
   <g id="patch_6">
    <path d="M 230.4 109.6416 
L 1658.88 109.6416 
" style="fill: none; stroke: #000000; stroke-width: 3; stroke-linejoin: miter; stroke-linecap: square"/>
   </g>
   <g id="legend_1">
    <g id="patch_7">
     <path d="M 297.8968 730.32184 
L 533.185862 730.32184 
Q 538.185862 730.32184 538.185862 725.32184 
L 538.185862 507.649965 
Q 538.185862 502.649965 533.185862 502.649965 
L 297.8968 502.649965 
Q 292.8968 502.649965 292.8968 507.649965 
L 292.8968 725.32184 
Q 292.8968 730.32184 297.8968 730.32184 
z
" style="fill: #ffffff; opacity: 0.8; stroke: #cccccc; stroke-linejoin: miter"/>
    </g>
    <g id="line2d_19">
     <path d="M 302.8968 522.896059 
L 327.8968 522.896059 
L 352.8968 522.896059 
" style="fill: none; stroke-dasharray: 9.25,4; stroke-dashoffset: 0; stroke: #808a87; stroke-width: 2.5"/>
    </g>
    <g id="text_9">
     <!-- GroundTruth -->
     <g transform="translate(372.8968 531.646059) scale(0.25 -0.25)">
      <defs>
       <path id="DejaVuSans-47" d="M 3809 666 
L 3809 1919 
L 2778 1919 
L 2778 2438 
L 4434 2438 
L 4434 434 
Q 4069 175 3628 42 
Q 3188 -91 2688 -91 
Q 1594 -91 976 548 
Q 359 1188 359 2328 
Q 359 3472 976 4111 
Q 1594 4750 2688 4750 
Q 3144 4750 3555 4637 
Q 3966 4525 4313 4306 
L 4313 3634 
Q 3963 3931 3569 4081 
Q 3175 4231 2741 4231 
Q 1884 4231 1454 3753 
Q 1025 3275 1025 2328 
Q 1025 1384 1454 906 
Q 1884 428 2741 428 
Q 3075 428 3337 486 
Q 3600 544 3809 666 
z
" transform="scale(0.015625)"/>
       <path id="DejaVuSans-72" d="M 2631 2963 
Q 2534 3019 2420 3045 
Q 2306 3072 2169 3072 
Q 1681 3072 1420 2755 
Q 1159 2438 1159 1844 
L 1159 0 
L 581 0 
L 581 3500 
L 1159 3500 
L 1159 2956 
Q 1341 3275 1631 3429 
Q 1922 3584 2338 3584 
Q 2397 3584 2469 3576 
Q 2541 3569 2628 3553 
L 2631 2963 
z
" transform="scale(0.015625)"/>
       <path id="DejaVuSans-6f" d="M 1959 3097 
Q 1497 3097 1228 2736 
Q 959 2375 959 1747 
Q 959 1119 1226 758 
Q 1494 397 1959 397 
Q 2419 397 2687 759 
Q 2956 1122 2956 1747 
Q 2956 2369 2687 2733 
Q 2419 3097 1959 3097 
z
M 1959 3584 
Q 2709 3584 3137 3096 
Q 3566 2609 3566 1747 
Q 3566 888 3137 398 
Q 2709 -91 1959 -91 
Q 1206 -91 779 398 
Q 353 888 353 1747 
Q 353 2609 779 3096 
Q 1206 3584 1959 3584 
z
" transform="scale(0.015625)"/>
       <path id="DejaVuSans-75" d="M 544 1381 
L 544 3500 
L 1119 3500 
L 1119 1403 
Q 1119 906 1312 657 
Q 1506 409 1894 409 
Q 2359 409 2629 706 
Q 2900 1003 2900 1516 
L 2900 3500 
L 3475 3500 
L 3475 0 
L 2900 0 
L 2900 538 
Q 2691 219 2414 64 
Q 2138 -91 1772 -91 
Q 1169 -91 856 284 
Q 544 659 544 1381 
z
M 1991 3584 
L 1991 3584 
z
" transform="scale(0.015625)"/>
       <path id="DejaVuSans-6e" d="M 3513 2113 
L 3513 0 
L 2938 0 
L 2938 2094 
Q 2938 2591 2744 2837 
Q 2550 3084 2163 3084 
Q 1697 3084 1428 2787 
Q 1159 2491 1159 1978 
L 1159 0 
L 581 0 
L 581 3500 
L 1159 3500 
L 1159 2956 
Q 1366 3272 1645 3428 
Q 1925 3584 2291 3584 
Q 2894 3584 3203 3211 
Q 3513 2838 3513 2113 
z
" transform="scale(0.015625)"/>
       <path id="DejaVuSans-64" d="M 2906 2969 
L 2906 4863 
L 3481 4863 
L 3481 0 
L 2906 0 
L 2906 525 
Q 2725 213 2448 61 
Q 2172 -91 1784 -91 
Q 1150 -91 751 415 
Q 353 922 353 1747 
Q 353 2572 751 3078 
Q 1150 3584 1784 3584 
Q 2172 3584 2448 3432 
Q 2725 3281 2906 2969 
z
M 947 1747 
Q 947 1113 1208 752 
Q 1469 391 1925 391 
Q 2381 391 2643 752 
Q 2906 1113 2906 1747 
Q 2906 2381 2643 2742 
Q 2381 3103 1925 3103 
Q 1469 3103 1208 2742 
Q 947 2381 947 1747 
z
" transform="scale(0.015625)"/>
       <path id="DejaVuSans-54" d="M -19 4666 
L 3928 4666 
L 3928 4134 
L 2272 4134 
L 2272 0 
L 1638 0 
L 1638 4134 
L -19 4134 
L -19 4666 
z
" transform="scale(0.015625)"/>
       <path id="DejaVuSans-74" d="M 1172 4494 
L 1172 3500 
L 2356 3500 
L 2356 3053 
L 1172 3053 
L 1172 1153 
Q 1172 725 1289 603 
Q 1406 481 1766 481 
L 2356 481 
L 2356 0 
L 1766 0 
Q 1100 0 847 248 
Q 594 497 594 1153 
L 594 3053 
L 172 3053 
L 172 3500 
L 594 3500 
L 594 4494 
L 1172 4494 
z
" transform="scale(0.015625)"/>
       <path id="DejaVuSans-68" d="M 3513 2113 
L 3513 0 
L 2938 0 
L 2938 2094 
Q 2938 2591 2744 2837 
Q 2550 3084 2163 3084 
Q 1697 3084 1428 2787 
Q 1159 2491 1159 1978 
L 1159 0 
L 581 0 
L 581 4863 
L 1159 4863 
L 1159 2956 
Q 1366 3272 1645 3428 
Q 1925 3584 2291 3584 
Q 2894 3584 3203 3211 
Q 3513 2838 3513 2113 
z
" transform="scale(0.015625)"/>
      </defs>
      <use xlink:href="#DejaVuSans-47"/>
      <use xlink:href="#DejaVuSans-72" x="77.490234"/>
      <use xlink:href="#DejaVuSans-6f" x="116.353516"/>
      <use xlink:href="#DejaVuSans-75" x="177.535156"/>
      <use xlink:href="#DejaVuSans-6e" x="240.914062"/>
      <use xlink:href="#DejaVuSans-64" x="304.292969"/>
      <use xlink:href="#DejaVuSans-54" x="367.769531"/>
      <use xlink:href="#DejaVuSans-72" x="414.103516"/>
      <use xlink:href="#DejaVuSans-75" x="455.216797"/>
      <use xlink:href="#DejaVuSans-74" x="518.595703"/>
      <use xlink:href="#DejaVuSans-68" x="557.804688"/>
     </g>
    </g>
    <g id="line2d_20">
     <path d="M 302.8968 559.591371 
L 327.8968 559.591371 
L 352.8968 559.591371 
" style="fill: none; stroke: #7cfc00; stroke-width: 2.5; stroke-linecap: square"/>
    </g>
    <g id="text_10">
     <!-- ROLO -->
     <g transform="translate(372.8968 568.341371) scale(0.25 -0.25)">
      <defs>
       <path id="DejaVuSans-52" d="M 2841 2188 
Q 3044 2119 3236 1894 
Q 3428 1669 3622 1275 
L 4263 0 
L 3584 0 
L 2988 1197 
Q 2756 1666 2539 1819 
Q 2322 1972 1947 1972 
L 1259 1972 
L 1259 0 
L 628 0 
L 628 4666 
L 2053 4666 
Q 2853 4666 3247 4331 
Q 3641 3997 3641 3322 
Q 3641 2881 3436 2590 
Q 3231 2300 2841 2188 
z
M 1259 4147 
L 1259 2491 
L 2053 2491 
Q 2509 2491 2742 2702 
Q 2975 2913 2975 3322 
Q 2975 3731 2742 3939 
Q 2509 4147 2053 4147 
L 1259 4147 
z
" transform="scale(0.015625)"/>
       <path id="DejaVuSans-4f" d="M 2522 4238 
Q 1834 4238 1429 3725 
Q 1025 3213 1025 2328 
Q 1025 1447 1429 934 
Q 1834 422 2522 422 
Q 3209 422 3611 934 
Q 4013 1447 4013 2328 
Q 4013 3213 3611 3725 
Q 3209 4238 2522 4238 
z
M 2522 4750 
Q 3503 4750 4090 4092 
Q 4678 3434 4678 2328 
Q 4678 1225 4090 567 
Q 3503 -91 2522 -91 
Q 1538 -91 948 565 
Q 359 1222 359 2328 
Q 359 3434 948 4092 
Q 1538 4750 2522 4750 
z
" transform="scale(0.015625)"/>
       <path id="DejaVuSans-4c" d="M 628 4666 
L 1259 4666 
L 1259 531 
L 3531 531 
L 3531 0 
L 628 0 
L 628 4666 
z
" transform="scale(0.015625)"/>
      </defs>
      <use xlink:href="#DejaVuSans-52"/>
      <use xlink:href="#DejaVuSans-4f" x="69.482422"/>
      <use xlink:href="#DejaVuSans-4c" x="148.193359"/>
      <use xlink:href="#DejaVuSans-4f" x="200.28125"/>
     </g>
    </g>
    <g id="line2d_21">
     <path d="M 302.8968 596.286684 
L 327.8968 596.286684 
L 352.8968 596.286684 
" style="fill: none; stroke: #ffc0cb; stroke-opacity: 0.5; stroke-width: 2.5; stroke-linecap: square"/>
    </g>
    <g id="text_11">
     <!-- LOAM -->
     <g transform="translate(372.8968 605.036684) scale(0.25 -0.25)">
      <defs>
       <path id="DejaVuSans-41" d="M 2188 4044 
L 1331 1722 
L 3047 1722 
L 2188 4044 
z
M 1831 4666 
L 2547 4666 
L 4325 0 
L 3669 0 
L 3244 1197 
L 1141 1197 
L 716 0 
L 50 0 
L 1831 4666 
z
" transform="scale(0.015625)"/>
       <path id="DejaVuSans-4d" d="M 628 4666 
L 1569 4666 
L 2759 1491 
L 3956 4666 
L 4897 4666 
L 4897 0 
L 4281 0 
L 4281 4097 
L 3078 897 
L 2444 897 
L 1241 4097 
L 1241 0 
L 628 0 
L 628 4666 
z
" transform="scale(0.015625)"/>
      </defs>
      <use xlink:href="#DejaVuSans-4c"/>
      <use xlink:href="#DejaVuSans-4f" x="52.087891"/>
      <use xlink:href="#DejaVuSans-41" x="129.048828"/>
      <use xlink:href="#DejaVuSans-4d" x="197.457031"/>
     </g>
    </g>
    <g id="line2d_22">
     <path d="M 302.8968 632.981996 
L 327.8968 632.981996 
L 352.8968 632.981996 
" style="fill: none; stroke: #a39480; stroke-opacity: 0.5; stroke-width: 2.5; stroke-linecap: square"/>
    </g>
    <g id="text_12">
     <!-- LeGO-LOAM -->
     <g transform="translate(372.8968 641.731996) scale(0.25 -0.25)">
      <defs>
       <path id="DejaVuSans-65" d="M 3597 1894 
L 3597 1613 
L 953 1613 
Q 991 1019 1311 708 
Q 1631 397 2203 397 
Q 2534 397 2845 478 
Q 3156 559 3463 722 
L 3463 178 
Q 3153 47 2828 -22 
Q 2503 -91 2169 -91 
Q 1331 -91 842 396 
Q 353 884 353 1716 
Q 353 2575 817 3079 
Q 1281 3584 2069 3584 
Q 2775 3584 3186 3129 
Q 3597 2675 3597 1894 
z
M 3022 2063 
Q 3016 2534 2758 2815 
Q 2500 3097 2075 3097 
Q 1594 3097 1305 2825 
Q 1016 2553 972 2059 
L 3022 2063 
z
" transform="scale(0.015625)"/>
       <path id="DejaVuSans-2d" d="M 313 2009 
L 1997 2009 
L 1997 1497 
L 313 1497 
L 313 2009 
z
" transform="scale(0.015625)"/>
      </defs>
      <use xlink:href="#DejaVuSans-4c"/>
      <use xlink:href="#DejaVuSans-65" x="53.962891"/>
      <use xlink:href="#DejaVuSans-47" x="115.486328"/>
      <use xlink:href="#DejaVuSans-4f" x="192.976562"/>
      <use xlink:href="#DejaVuSans-2d" x="274.4375"/>
      <use xlink:href="#DejaVuSans-4c" x="310.521484"/>
      <use xlink:href="#DejaVuSans-4f" x="362.609375"/>
      <use xlink:href="#DejaVuSans-41" x="439.570312"/>
      <use xlink:href="#DejaVuSans-4d" x="507.978516"/>
     </g>
    </g>
    <g id="line2d_23">
     <path d="M 302.8968 669.677309 
L 327.8968 669.677309 
L 352.8968 669.677309 
" style="fill: none; stroke: #ff6347; stroke-width: 2.5; stroke-linecap: square"/>
    </g>
    <g id="text_13">
     <!-- CT-ICP -->
     <g transform="translate(372.8968 678.427309) scale(0.25 -0.25)">
      <defs>
       <path id="DejaVuSans-43" d="M 4122 4306 
L 4122 3641 
Q 3803 3938 3442 4084 
Q 3081 4231 2675 4231 
Q 1875 4231 1450 3742 
Q 1025 3253 1025 2328 
Q 1025 1406 1450 917 
Q 1875 428 2675 428 
Q 3081 428 3442 575 
Q 3803 722 4122 1019 
L 4122 359 
Q 3791 134 3420 21 
Q 3050 -91 2638 -91 
Q 1578 -91 968 557 
Q 359 1206 359 2328 
Q 359 3453 968 4101 
Q 1578 4750 2638 4750 
Q 3056 4750 3426 4639 
Q 3797 4528 4122 4306 
z
" transform="scale(0.015625)"/>
       <path id="DejaVuSans-49" d="M 628 4666 
L 1259 4666 
L 1259 0 
L 628 0 
L 628 4666 
z
" transform="scale(0.015625)"/>
       <path id="DejaVuSans-50" d="M 1259 4147 
L 1259 2394 
L 2053 2394 
Q 2494 2394 2734 2622 
Q 2975 2850 2975 3272 
Q 2975 3691 2734 3919 
Q 2494 4147 2053 4147 
L 1259 4147 
z
M 628 4666 
L 2053 4666 
Q 2838 4666 3239 4311 
Q 3641 3956 3641 3272 
Q 3641 2581 3239 2228 
Q 2838 1875 2053 1875 
L 1259 1875 
L 1259 0 
L 628 0 
L 628 4666 
z
" transform="scale(0.015625)"/>
      </defs>
      <use xlink:href="#DejaVuSans-43"/>
      <use xlink:href="#DejaVuSans-54" x="69.824219"/>
      <use xlink:href="#DejaVuSans-2d" x="121.783203"/>
      <use xlink:href="#DejaVuSans-49" x="157.867188"/>
      <use xlink:href="#DejaVuSans-43" x="187.359375"/>
      <use xlink:href="#DejaVuSans-50" x="257.183594"/>
     </g>
    </g>
    <g id="line2d_24">
     <path d="M 302.8968 706.372621 
L 327.8968 706.372621 
L 352.8968 706.372621 
" style="fill: none; stroke: #d2b48c; stroke-opacity: 0.5; stroke-width: 2.5; stroke-linecap: square"/>
    </g>
    <g id="text_14">
     <!-- HDL-SLAM -->
     <g transform="translate(372.8968 715.122621) scale(0.25 -0.25)">
      <defs>
       <path id="DejaVuSans-48" d="M 628 4666 
L 1259 4666 
L 1259 2753 
L 3553 2753 
L 3553 4666 
L 4184 4666 
L 4184 0 
L 3553 0 
L 3553 2222 
L 1259 2222 
L 1259 0 
L 628 0 
L 628 4666 
z
" transform="scale(0.015625)"/>
       <path id="DejaVuSans-44" d="M 1259 4147 
L 1259 519 
L 2022 519 
Q 2988 519 3436 956 
Q 3884 1394 3884 2338 
Q 3884 3275 3436 3711 
Q 2988 4147 2022 4147 
L 1259 4147 
z
M 628 4666 
L 1925 4666 
Q 3281 4666 3915 4102 
Q 4550 3538 4550 2338 
Q 4550 1131 3912 565 
Q 3275 0 1925 0 
L 628 0 
L 628 4666 
z
" transform="scale(0.015625)"/>
       <path id="DejaVuSans-53" d="M 3425 4513 
L 3425 3897 
Q 3066 4069 2747 4153 
Q 2428 4238 2131 4238 
Q 1616 4238 1336 4038 
Q 1056 3838 1056 3469 
Q 1056 3159 1242 3001 
Q 1428 2844 1947 2747 
L 2328 2669 
Q 3034 2534 3370 2195 
Q 3706 1856 3706 1288 
Q 3706 609 3251 259 
Q 2797 -91 1919 -91 
Q 1588 -91 1214 -16 
Q 841 59 441 206 
L 441 856 
Q 825 641 1194 531 
Q 1563 422 1919 422 
Q 2459 422 2753 634 
Q 3047 847 3047 1241 
Q 3047 1584 2836 1778 
Q 2625 1972 2144 2069 
L 1759 2144 
Q 1053 2284 737 2584 
Q 422 2884 422 3419 
Q 422 4038 858 4394 
Q 1294 4750 2059 4750 
Q 2388 4750 2728 4690 
Q 3069 4631 3425 4513 
z
" transform="scale(0.015625)"/>
      </defs>
      <use xlink:href="#DejaVuSans-48"/>
      <use xlink:href="#DejaVuSans-44" x="75.195312"/>
      <use xlink:href="#DejaVuSans-4c" x="152.197266"/>
      <use xlink:href="#DejaVuSans-2d" x="206.160156"/>
      <use xlink:href="#DejaVuSans-53" x="242.244141"/>
      <use xlink:href="#DejaVuSans-4c" x="305.720703"/>
      <use xlink:href="#DejaVuSans-41" x="363.683594"/>
      <use xlink:href="#DejaVuSans-4d" x="432.091797"/>
     </g>
    </g>
   </g>
  </g>
 </g>
 <defs>
  <clipPath id="pa050433bde">
   <rect x="230.4" y="109.6416" width="1428.48" height="703.5336"/>
  </clipPath>
 </defs>
</svg>
