<?xml version="1.0" encoding="utf-8" standalone="no"?>
<!DOCTYPE svg PUBLIC "-//W3C//DTD SVG 1.1//EN"
  "http://www.w3.org/Graphics/SVG/1.1/DTD/svg11.dtd">
<svg xmlns:xlink="http://www.w3.org/1999/xlink" width="1843.2pt" height="913.68pt" viewBox="0 0 1843.2 913.68" xmlns="http://www.w3.org/2000/svg" version="1.1">
 <metadata>
  <rdf:RDF xmlns:dc="http://purl.org/dc/elements/1.1/" xmlns:cc="http://creativecommons.org/ns#" xmlns:rdf="http://www.w3.org/1999/02/22-rdf-syntax-ns#">
   <cc:Work>
    <dc:type rdf:resource="http://purl.org/dc/dcmitype/StillImage"/>
    <dc:date>2024-03-22T10:32:02.977228</dc:date>
    <dc:format>image/svg+xml</dc:format>
    <dc:creator>
     <cc:Agent>
      <dc:title>Matplotlib v3.7.0, https://matplotlib.org/</dc:title>
     </cc:Agent>
    </dc:creator>
   </cc:Work>
  </rdf:RDF>
 </metadata>
 <defs>
  <style type="text/css">*{stroke-linejoin: round; stroke-linecap: butt}</style>
 </defs>
 <g id="figure_1">
  <g id="patch_1">
   <path d="M 0 913.68 
L 1843.2 913.68 
L 1843.2 0 
L 0 0 
z
" style="fill: #ffffff"/>
  </g>
  <g id="axes_1">
   <g id="patch_2">
    <path d="M 230.4 813.1752 
L 1658.88 813.1752 
L 1658.88 109.6416 
L 230.4 109.6416 
z
" style="fill: #ffffff"/>
   </g>
   <g id="matplotlib.axis_1">
    <g id="xtick_1">
     <g id="line2d_1">
      <path d="M 473.356443 813.1752 
L 473.356443 109.6416 
" clip-path="url(#pc89efc8772)" style="fill: none; stroke-dasharray: 2.96,1.28; stroke-dashoffset: 0; stroke: #808080; stroke-width: 0.8"/>
     </g>
     <g id="line2d_2">
      <defs>
       <path id="mb8d8bc7b30" d="M 0 0 
L 0 -3.5 
" style="stroke: #000000; stroke-width: 0.8"/>
      </defs>
      <g>
       <use xlink:href="#mb8d8bc7b30" x="473.356443" y="813.1752" style="stroke: #000000; stroke-width: 0.8"/>
      </g>
     </g>
     <g id="text_1">
      <!-- 0 -->
      <g transform="translate(465.403318 835.671294) scale(0.25 -0.25)">
       <defs>
        <path id="DejaVuSans-30" d="M 2034 4250 
Q 1547 4250 1301 3770 
Q 1056 3291 1056 2328 
Q 1056 1369 1301 889 
Q 1547 409 2034 409 
Q 2525 409 2770 889 
Q 3016 1369 3016 2328 
Q 3016 3291 2770 3770 
Q 2525 4250 2034 4250 
z
M 2034 4750 
Q 2819 4750 3233 4129 
Q 3647 3509 3647 2328 
Q 3647 1150 3233 529 
Q 2819 -91 2034 -91 
Q 1250 -91 836 529 
Q 422 1150 422 2328 
Q 422 3509 836 4129 
Q 1250 4750 2034 4750 
z
" transform="scale(0.015625)"/>
       </defs>
       <use xlink:href="#DejaVuSans-30"/>
      </g>
     </g>
    </g>
    <g id="xtick_2">
     <g id="line2d_3">
      <path d="M 1045.92444 813.1752 
L 1045.92444 109.6416 
" clip-path="url(#pc89efc8772)" style="fill: none; stroke-dasharray: 2.96,1.28; stroke-dashoffset: 0; stroke: #808080; stroke-width: 0.8"/>
     </g>
     <g id="line2d_4">
      <g>
       <use xlink:href="#mb8d8bc7b30" x="1045.92444" y="813.1752" style="stroke: #000000; stroke-width: 0.8"/>
      </g>
     </g>
     <g id="text_2">
      <!-- 100 -->
      <g transform="translate(1022.065065 835.671294) scale(0.25 -0.25)">
       <defs>
        <path id="DejaVuSans-31" d="M 794 531 
L 1825 531 
L 1825 4091 
L 703 3866 
L 703 4441 
L 1819 4666 
L 2450 4666 
L 2450 531 
L 3481 531 
L 3481 0 
L 794 0 
L 794 531 
z
" transform="scale(0.015625)"/>
       </defs>
       <use xlink:href="#DejaVuSans-31"/>
       <use xlink:href="#DejaVuSans-30" x="63.623047"/>
       <use xlink:href="#DejaVuSans-30" x="127.246094"/>
      </g>
     </g>
    </g>
    <g id="xtick_3">
     <g id="line2d_5">
      <path d="M 1618.492436 813.1752 
L 1618.492436 109.6416 
" clip-path="url(#pc89efc8772)" style="fill: none; stroke-dasharray: 2.96,1.28; stroke-dashoffset: 0; stroke: #808080; stroke-width: 0.8"/>
     </g>
     <g id="line2d_6">
      <g>
       <use xlink:href="#mb8d8bc7b30" x="1618.492436" y="813.1752" style="stroke: #000000; stroke-width: 0.8"/>
      </g>
     </g>
     <g id="text_3">
      <!-- 200 -->
      <g transform="translate(1594.633061 835.671294) scale(0.25 -0.25)">
       <defs>
        <path id="DejaVuSans-32" d="M 1228 531 
L 3431 531 
L 3431 0 
L 469 0 
L 469 531 
Q 828 903 1448 1529 
Q 2069 2156 2228 2338 
Q 2531 2678 2651 2914 
Q 2772 3150 2772 3378 
Q 2772 3750 2511 3984 
Q 2250 4219 1831 4219 
Q 1534 4219 1204 4116 
Q 875 4013 500 3803 
L 500 4441 
Q 881 4594 1212 4672 
Q 1544 4750 1819 4750 
Q 2544 4750 2975 4387 
Q 3406 4025 3406 3419 
Q 3406 3131 3298 2873 
Q 3191 2616 2906 2266 
Q 2828 2175 2409 1742 
Q 1991 1309 1228 531 
z
" transform="scale(0.015625)"/>
       </defs>
       <use xlink:href="#DejaVuSans-32"/>
       <use xlink:href="#DejaVuSans-30" x="63.623047"/>
       <use xlink:href="#DejaVuSans-30" x="127.246094"/>
      </g>
     </g>
    </g>
    <g id="text_4">
     <!--   -->
     <g transform="translate(941.515 888.229887) scale(0.25 -0.25)">
      <defs>
       <path id="TimesNewRomanPSMT-20" transform="scale(0.015625)"/>
      </defs>
      <use xlink:href="#TimesNewRomanPSMT-20"/>
     </g>
    </g>
   </g>
   <g id="matplotlib.axis_2">
    <g id="ytick_1">
     <g id="line2d_7">
      <path d="M 230.4 653.805376 
L 1658.88 653.805376 
" clip-path="url(#pc89efc8772)" style="fill: none; stroke-dasharray: 2.96,1.28; stroke-dashoffset: 0; stroke: #808080; stroke-width: 0.8"/>
     </g>
     <g id="line2d_8">
      <defs>
       <path id="mef3bbe225d" d="M 0 0 
L 3.5 0 
" style="stroke: #000000; stroke-width: 0.8"/>
      </defs>
      <g>
       <use xlink:href="#mef3bbe225d" x="230.4" y="653.805376" style="stroke: #000000; stroke-width: 0.8"/>
      </g>
     </g>
     <g id="text_5">
      <!-- −200 -->
      <g transform="translate(158.232031 663.303423) scale(0.25 -0.25)">
       <defs>
        <path id="DejaVuSans-2212" d="M 678 2272 
L 4684 2272 
L 4684 1741 
L 678 1741 
L 678 2272 
z
" transform="scale(0.015625)"/>
       </defs>
       <use xlink:href="#DejaVuSans-2212"/>
       <use xlink:href="#DejaVuSans-32" x="83.789062"/>
       <use xlink:href="#DejaVuSans-30" x="147.412109"/>
       <use xlink:href="#DejaVuSans-30" x="211.035156"/>
      </g>
     </g>
    </g>
    <g id="ytick_2">
     <g id="line2d_9">
      <path d="M 230.4 424.020889 
L 1658.88 424.020889 
" clip-path="url(#pc89efc8772)" style="fill: none; stroke-dasharray: 2.96,1.28; stroke-dashoffset: 0; stroke: #808080; stroke-width: 0.8"/>
     </g>
     <g id="line2d_10">
      <g>
       <use xlink:href="#mef3bbe225d" x="230.4" y="424.020889" style="stroke: #000000; stroke-width: 0.8"/>
      </g>
     </g>
     <g id="text_6">
      <!-- 0 -->
      <g transform="translate(210.99375 433.518936) scale(0.25 -0.25)">
       <use xlink:href="#DejaVuSans-30"/>
      </g>
     </g>
    </g>
    <g id="ytick_3">
     <g id="line2d_11">
      <path d="M 230.4 194.236403 
L 1658.88 194.236403 
" clip-path="url(#pc89efc8772)" style="fill: none; stroke-dasharray: 2.96,1.28; stroke-dashoffset: 0; stroke: #808080; stroke-width: 0.8"/>
     </g>
     <g id="line2d_12">
      <g>
       <use xlink:href="#mef3bbe225d" x="230.4" y="194.236403" style="stroke: #000000; stroke-width: 0.8"/>
      </g>
     </g>
     <g id="text_7">
      <!-- 200 -->
      <g transform="translate(179.18125 203.73445) scale(0.25 -0.25)">
       <use xlink:href="#DejaVuSans-32"/>
       <use xlink:href="#DejaVuSans-30" x="63.623047"/>
       <use xlink:href="#DejaVuSans-30" x="127.246094"/>
      </g>
     </g>
    </g>
    <g id="text_8">
     <!--   -->
     <g transform="translate(122.884375 464.5334) rotate(-90) scale(0.25 -0.25)">
      <use xlink:href="#TimesNewRomanPSMT-20"/>
     </g>
    </g>
   </g>
   <g id="line2d_13">
    <path d="M 473.356443 424.020889 
L 526.135649 424.017582 
L 537.609152 424.39378 
L 562.851612 426.390382 
L 578.914957 428.165541 
L 588.093979 429.184551 
L 594.978228 429.640722 
L 599.567776 429.760564 
L 617.925704 430.172283 
L 631.694561 430.338245 
L 640.873406 430.635271 
L 647.757716 431.046756 
L 654.641902 431.577953 
L 675.294794 433.479871 
L 686.768638 434.367233 
L 695.947647 434.942542 
L 716.599899 436.20796 
L 723.485212 436.893478 
L 732.663741 437.954483 
L 737.253199 438.369087 
L 755.611246 439.876662 
L 764.790324 441.038935 
L 771.674652 442.132973 
L 783.148845 443.516542 
L 788.88545 443.879087 
L 798.064325 444.391382 
L 800.35989 444.52094 
L 803.801156 444.796405 
L 804.949051 444.971876 
L 807.243318 444.859339 
L 810.685546 444.981032 
L 827.896974 445.480427 
L 830.190976 445.540916 
L 833.633964 445.705109 
L 839.370675 445.810125 
L 851.991144 446.788738 
L 855.433295 447.113488 
L 864.612382 448.187806 
L 866.907104 448.287449 
L 901.328372 451.172621 
L 927.718185 452.946435 
L 932.30744 453.483592 
L 934.602425 453.746967 
L 935.749793 453.89426 
L 936.897172 453.927339 
L 940.33932 454.302758 
L 956.40256 455.411295 
L 960.992501 455.615575 
L 971.318504 455.902777 
L 989.676556 456.105518 
L 1006.887234 456.49881 
L 1047.045497 458.304707 
L 1058.519776 459.017083 
L 1065.403711 459.67219 
L 1068.845743 460.168493 
L 1072.287889 460.518772 
L 1075.729936 460.725969 
L 1079.171574 460.698758 
L 1080.319466 460.542908 
L 1084.909014 460.44174 
L 1087.203722 460.233076 
L 1098.67804 459.693571 
L 1117.035361 458.667133 
L 1121.625085 458.325043 
L 1126.214632 458.176685 
L 1128.509409 457.983257 
L 1137.688895 457.628611 
L 1144.572598 457.268314 
L 1151.45783 456.680087 
L 1156.046469 456.620409 
L 1158.341189 456.455716 
L 1162.931163 456.483609 
L 1167.52024 456.220133 
L 1188.173191 455.592302 
L 1197.352081 455.092666 
L 1201.941603 454.910726 
L 1204.23629 454.891836 
L 1208.825788 454.605791 
L 1218.005591 454.128592 
L 1222.594339 453.95206 
L 1224.889198 453.778469 
L 1229.478642 453.690359 
L 1236.362865 453.312284 
L 1238.65766 453.257293 
L 1240.95238 453.058034 
L 1247.837614 452.773534 
L 1282.258028 451.245809 
L 1284.55298 451.281525 
L 1286.848215 451.086541 
L 1291.437551 451.205676 
L 1296.027091 451.260864 
L 1300.616137 451.480192 
L 1305.205645 451.801048 
L 1309.795119 451.9896 
L 1314.385155 452.357997 
L 1316.679431 452.38264 
L 1325.859831 453.179383 
L 1330.447922 453.818773 
L 1332.742626 453.953982 
L 1341.921716 454.032881 
L 1349.953341 454.393184 
L 1352.248096 454.693773 
L 1363.72281 455.220576 
L 1370.6062 455.689957 
L 1372.900856 455.642461 
L 1379.7852 455.951947 
L 1388.964214 455.825429 
L 1393.553654 456.006386 
L 1395.84844 456.025587 
L 1400.437659 456.467708 
L 1405.027505 456.501256 
L 1409.616977 456.899954 
L 1414.20658 457.073033 
L 1423.38611 457.876284 
L 1427.974851 457.860158 
L 1437.154075 458.214145 
L 1441.743537 458.327293 
L 1446.332835 458.556888 
L 1457.806897 459.336146 
L 1473.871725 458.948184 
L 1480.755255 458.634665 
L 1486.491387 458.180082 
L 1503.702089 457.049604 
L 1511.734155 456.823643 
L 1518.617306 456.756159 
L 1536.976041 457.253902 
L 1541.565495 457.242097 
L 1543.859651 457.308371 
L 1546.155051 457.212241 
L 1550.744642 457.315572 
L 1566.808328 457.39304 
L 1570.249965 457.469662 
L 1572.544732 457.472414 
L 1577.134154 457.597171 
L 1579.429031 457.591997 
L 1580.576121 457.666206 
L 1581.723832 457.611404 
L 1584.017796 457.769666 
L 1585.165882 457.62251 
L 1593.197035 457.730925 
L 1593.197035 457.730925 
" clip-path="url(#pc89efc8772)" style="fill: none; stroke-dasharray: 9.25,4; stroke-dashoffset: 0; stroke: #808a87; stroke-width: 2.5"/>
   </g>
   <g id="line2d_14">
    <path d="M 472.782351 424.020889 
L 522.119489 424.220094 
L 535.888199 424.588428 
L 537.036167 424.696869 
L 538.182989 424.615873 
L 542.772552 425.047133 
L 553.098971 425.904115 
L 571.456958 427.739268 
L 587.520278 429.606074 
L 593.830228 430.067802 
L 596.126165 430.140795 
L 599.567776 430.274359 
L 608.746798 430.546048 
L 619.073153 430.707625 
L 625.957441 430.767347 
L 639.726073 431.088 
L 654.641902 432.115023 
L 684.473996 434.747173 
L 687.91611 434.976967 
L 691.358921 435.191387 
L 695.374517 435.44304 
L 705.700357 436.029599 
L 710.290349 436.265871 
L 716.02667 436.668401 
L 728.647958 438.003917 
L 732.090076 438.43241 
L 756.184982 440.558514 
L 767.658839 442.200332 
L 769.953543 442.586273 
L 782.575254 444.281256 
L 794.048644 445.123889 
L 797.490583 445.312485 
L 799.785082 445.504375 
L 802.080149 445.624356 
L 805.522587 445.99287 
L 806.670603 445.90506 
L 818.143345 446.441786 
L 841.091082 447.37768 
L 843.386063 447.615015 
L 849.123574 448.127245 
L 857.154357 449.06014 
L 860.597286 449.51691 
L 867.480817 450.209586 
L 869.775457 450.435208 
L 876.659781 451.245965 
L 880.101955 451.606217 
L 886.986747 452.293857 
L 890.428276 452.664687 
L 899.607361 453.479532 
L 923.702276 455.37712 
L 933.455011 456.48385 
L 935.749793 456.870394 
L 954.108401 458.505246 
L 958.124288 458.772775 
L 966.728967 459.121516 
L 987.381603 459.401781 
L 1004.018744 459.753552 
L 1020.082008 460.451764 
L 1057.946131 462.521572 
L 1064.829949 463.200436 
L 1067.124692 463.486413 
L 1069.419446 463.843768 
L 1071.714127 464.017116 
L 1074.00883 464.342113 
L 1079.171574 464.342429 
L 1080.319466 464.206948 
L 1084.909014 464.12076 
L 1086.056396 464.059261 
L 1087.203722 463.865537 
L 1097.530215 463.484699 
L 1101.545971 463.14164 
L 1109.57781 462.714984 
L 1111.872356 462.465963 
L 1113.019789 462.534339 
L 1115.314548 462.352663 
L 1124.493658 461.86542 
L 1126.788249 461.731999 
L 1127.935657 461.572303 
L 1130.230475 461.546353 
L 1141.131298 461.01827 
L 1142.278482 461.038006 
L 1144.572598 460.876219 
L 1146.867437 460.637787 
L 1150.883334 460.215249 
L 1156.620173 460.169422 
L 1157.767125 460.018558 
L 1160.062297 460.165013 
L 1162.357719 459.919899 
L 1163.504383 460.134303 
L 1164.651732 459.960205 
L 1172.683401 459.526469 
L 1177.272976 459.496236 
L 1190.467842 458.931397 
L 1192.762562 458.687607 
L 1197.352081 458.556884 
L 1201.941603 458.35588 
L 1204.23629 458.358146 
L 1207.677843 458.065768 
L 1223.168 457.431907 
L 1224.889198 457.200377 
L 1227.183868 457.194329 
L 1228.331252 457.086889 
L 1229.478642 457.14564 
L 1236.362865 456.741069 
L 1239.805124 456.631872 
L 1240.95238 456.478174 
L 1243.247125 456.424925 
L 1245.542014 456.301983 
L 1250.131435 456.09581 
L 1251.278836 455.977791 
L 1252.426217 456.0176 
L 1257.015712 455.701296 
L 1261.605264 455.495576 
L 1263.899784 455.436481 
L 1270.784263 455.152285 
L 1274.226554 455.005278 
L 1287.994933 454.392572 
L 1289.142246 454.488851 
L 1292.584959 454.484602 
L 1296.027091 454.518378 
L 1297.174028 454.697306 
L 1298.321376 454.624069 
L 1302.911509 454.934222 
L 1309.795119 455.195874 
L 1313.236612 455.465703 
L 1321.268902 455.886552 
L 1326.432461 456.38463 
L 1332.168709 457.06146 
L 1339.053309 457.070857 
L 1340.200802 456.997508 
L 1350.527116 457.451896 
L 1351.67441 457.68887 
L 1353.969131 457.790629 
L 1363.149767 458.114119 
L 1370.032412 458.650463 
L 1373.475202 458.54548 
L 1376.91675 458.814436 
L 1390.685302 458.743104 
L 1395.275079 458.735265 
L 1399.864331 459.164978 
L 1403.306399 459.27347 
L 1404.453775 459.195831 
L 1405.600572 459.23672 
L 1406.748556 459.42806 
L 1407.895905 459.429228 
L 1409.043398 459.575994 
L 1414.780208 459.773051 
L 1418.222359 460.186335 
L 1420.517143 460.421603 
L 1423.958873 460.54806 
L 1426.253979 460.459477 
L 1435.433011 460.718189 
L 1437.72834 460.784396 
L 1441.169886 460.762192 
L 1442.317131 460.978264 
L 1444.612068 461.00801 
L 1446.907287 461.116997 
L 1451.495662 461.471806 
L 1452.643686 461.601734 
L 1453.791115 461.57889 
L 1456.086283 461.836375 
L 1457.233201 461.776458 
L 1458.380595 461.881027 
L 1464.117261 461.685852 
L 1467.560376 461.72134 
L 1471.002743 461.57485 
L 1472.148784 461.573373 
L 1473.296891 461.444295 
L 1475.592249 461.489354 
L 1476.73866 461.274931 
L 1482.475738 461.004583 
L 1487.065031 460.679949 
L 1503.128392 459.510171 
L 1506.57021 459.419406 
L 1518.044219 459.158551 
L 1522.633771 459.30232 
L 1537.549715 459.624378 
L 1542.139149 459.57416 
L 1543.285892 459.662002 
L 1546.728636 459.526061 
L 1549.023413 459.602142 
L 1554.759686 459.51231 
L 1557.055074 459.546461 
L 1571.971011 459.455643 
L 1574.265783 459.55886 
L 1584.592191 459.585884 
L 1585.739551 459.468447 
L 1589.181734 459.526258 
L 1592.624386 459.483754 
L 1592.624386 459.483754 
" clip-path="url(#pc89efc8772)" style="fill: none; stroke: #7cfc00; stroke-width: 2.5; stroke-linecap: square"/>
   </g>
   <g id="line2d_15">
    <path d="M 472.208622 424.020889 
L 491.714145 424.043355 
L 528.43025 424.383045 
L 535.314529 424.682719 
L 538.756739 424.860871 
L 561.130175 426.669991 
L 581.210351 428.73108 
L 586.373306 428.993037 
L 589.815935 429.155123 
L 597.27311 429.281535 
L 605.878656 429.323264 
L 614.483486 429.398185 
L 620.220259 429.496432 
L 626.531179 429.693238 
L 644.889255 430.603102 
L 652.920362 431.349321 
L 662.673582 432.307487 
L 678.737416 434.157035 
L 683.327174 434.657431 
L 693.079219 435.571587 
L 695.947647 435.83926 
L 700.537124 436.187743 
L 706.847795 436.621442 
L 717.748354 437.60777 
L 726.352756 438.674616 
L 730.369044 439.196472 
L 740.695418 439.928641 
L 742.990206 440.071931 
L 756.184982 440.886861 
L 765.364067 441.491652 
L 768.806136 441.750944 
L 772.247788 441.909488 
L 776.264131 442.07749 
L 788.311612 442.079116 
L 794.048644 441.840785 
L 796.916951 441.70355 
L 802.080149 441.57604 
L 806.096205 441.404489 
L 811.259234 441.060705 
L 814.127639 440.925474 
L 820.437572 440.548454 
L 823.880357 440.482248 
L 826.748798 440.307206 
L 831.338432 440.152032 
L 837.648889 439.832879 
L 842.812039 439.613203 
L 865.186486 438.929447 
L 883.544086 438.146135 
L 887.559863 437.929828 
L 893.296804 437.545165 
L 924.850464 435.085533 
L 931.734637 434.792628 
L 951.239415 433.676074 
L 955.255249 433.299944 
L 965.581588 432.521286 
L 977.629634 432.215929 
L 1014.345261 431.696134 
L 1033.850625 431.17403 
L 1075.729936 429.857011 
L 1084.909014 428.814669 
L 1089.498536 428.407395 
L 1095.80906 427.936427 
L 1100.398582 427.557486 
L 1118.182957 426.296681 
L 1129.656736 425.907836 
L 1134.246318 425.839536 
L 1151.45783 425.486183 
L 1158.341189 425.575162 
L 1160.062297 425.638941 
L 1163.504383 425.656018 
L 1168.668183 425.654401 
L 1181.288759 425.869337 
L 1189.32028 425.880453 
L 1209.399566 425.953917 
L 1217.431164 425.868914 
L 1226.037231 425.792781 
L 1240.378168 425.658088 
L 1253.573147 425.848231 
L 1262.178991 426.259532 
L 1285.126511 427.673121 
L 1286.848215 427.796115 
L 1289.142246 428.030998 
L 1294.305545 428.641056 
L 1299.468708 429.342717 
L 1306.926677 430.623028 
L 1313.810889 431.528803 
L 1317.826514 432.02352 
L 1321.268902 432.518941 
L 1324.712443 433.228315 
L 1332.168709 434.837023 
L 1336.758614 435.512666 
L 1342.495427 436.702717 
L 1349.379747 438.379186 
L 1351.67441 439.057602 
L 1360.854466 441.116582 
L 1371.179884 443.677924 
L 1378.06387 445.113398 
L 1386.66949 446.780143 
L 1395.275079 448.811314 
L 1398.143269 449.669739 
L 1404.453775 451.266259 
L 1407.895905 452.1921 
L 1414.780208 454.149389 
L 1417.648671 455.242654 
L 1421.664528 456.450004 
L 1429.696144 458.678193 
L 1431.990977 459.253802 
L 1439.448905 461.182953 
L 1445.185946 462.744453 
L 1446.907287 463.283128 
L 1452.643686 465.374914 
L 1458.954317 466.963493 
L 1464.691961 468.070146 
L 1467.560376 468.542842 
L 1472.72327 469.525079 
L 1474.44497 469.693486 
L 1477.886072 470.131291 
L 1487.638763 470.802019 
L 1490.507177 470.904827 
L 1499.112654 471.33828 
L 1508.865239 472.575941 
L 1522.060062 474.998604 
L 1532.960182 477.900149 
L 1541.565495 480.320622 
L 1563.36574 486.755338 
L 1570.249965 489.108752 
L 1573.118909 490.234098 
L 1578.855284 492.56286 
L 1593.197035 498.574475 
L 1593.197035 498.574475 
" clip-path="url(#pc89efc8772)" style="fill: none; stroke: #ffc0cb; stroke-opacity: 0.5; stroke-width: 2.5; stroke-linecap: square"/>
   </g>
   <g id="line2d_16">
    <path d="M 471.072727 424.020889 
L 514.661674 423.99292 
L 514.661674 423.99292 
L 526.7092 424.052921 
L 526.7092 424.052921 
L 535.314529 424.29609 
L 536.461885 424.371492 
L 536.461885 424.371492 
L 540.477693 424.553209 
L 549.65672 425.128793 
L 554.820041 425.599093 
L 554.820041 425.599093 
L 562.851612 426.256268 
L 573.751944 427.476789 
L 582.35718 428.460516 
L 586.373306 428.82893 
L 587.520278 428.759433 
L 588.093979 429.037522 
L 589.815935 429.093775 
L 590.962236 429.238865 
L 594.404529 429.340561 
L 594.978228 429.482984 
L 598.994389 429.457654 
L 599.567776 429.580651 
L 601.289142 429.539659 
L 602.436207 429.631024 
L 604.157352 429.717429 
L 605.878656 429.692802 
L 606.451995 429.810771 
L 610.467914 429.806265 
L 611.04122 429.913299 
L 615.057348 429.923171 
L 615.057348 429.923171 
L 616.778466 429.979249 
L 619.646837 429.944634 
L 620.220259 430.044746 
L 624.23661 429.984413 
L 624.810043 430.079124 
L 628.825897 430.052179 
L 629.973245 430.126796 
L 632.268059 430.173738 
L 635.710246 430.194904 
L 636.857592 430.255144 
L 638.004959 430.239778 
L 639.152353 430.340106 
L 640.873406 430.4449 
L 644.889255 430.592303 
L 646.036597 430.705754 
L 649.478768 430.950146 
L 651.199862 431.103134 
L 656.936495 431.569295 
L 667.836862 432.533068 
L 670.131626 432.77371 
L 674.147352 433.102301 
L 677.01581 433.367315 
L 678.16328 433.493013 
L 690.784382 434.336598 
L 692.506275 434.458612 
L 699.963423 434.883047 
L 701.11077 435.017059 
L 706.847795 435.259026 
L 708.568793 435.371201 
L 708.568793 435.371201 
L 711.437373 435.582632 
L 714.305631 435.797141 
L 722.337349 436.525321 
L 725.205763 436.819378 
L 726.352756 437.004286 
L 735.532731 437.939518 
L 738.974348 438.118016 
L 740.121726 438.266647 
L 743.563765 438.457087 
L 744.710675 438.587485 
L 748.153357 438.834684 
L 749.874453 438.979229 
L 752.742905 439.236396 
L 753.890076 439.399963 
L 759.627128 439.937066 
L 780.853945 442.705402 
L 780.853945 442.705402 
L 783.722098 442.921629 
L 783.722098 442.921629 
L 794.048644 443.302674 
L 795.7696 443.403324 
L 807.817051 443.96732 
L 810.112236 443.955695 
L 810.112236 443.955695 
L 814.701324 443.992392 
L 815.848715 444.039104 
L 833.059917 444.259644 
L 837.648889 444.300325 
L 838.796317 444.264332 
L 853.138518 445.112062 
L 858.301714 445.560594 
L 859.449126 445.748151 
L 864.612382 446.099628 
L 866.907104 446.187949 
L 869.201842 446.366681 
L 873.217665 446.806902 
L 874.365054 446.981033 
L 874.938715 446.858627 
L 876.659781 447.075699 
L 877.232749 447.0205 
L 878.954558 447.24178 
L 879.528283 447.156986 
L 882.396403 447.335136 
L 885.265105 447.493753 
L 885.265105 447.493753 
L 889.28091 447.651204 
L 890.428276 447.854182 
L 892.14942 447.949328 
L 915.6707 449.099873 
L 923.702276 449.417592 
L 924.850464 449.593045 
L 927.144455 449.768033 
L 927.144455 449.768033 
L 930.586607 450.138652 
L 930.586607 450.138652 
L 933.455011 450.392622 
L 934.028678 450.2173 
L 934.602425 450.413015 
L 935.749793 450.357797 
L 935.749793 450.357797 
L 936.897172 450.592486 
L 938.618197 450.523022 
L 939.191867 450.82038 
L 940.913029 450.735184 
L 941.486549 451.001805 
L 943.20769 450.896096 
L 943.781433 451.111379 
L 945.502457 451.031541 
L 946.076124 451.263365 
L 946.076124 451.263365 
L 949.518383 451.330939 
L 950.091998 451.464183 
L 951.813428 451.291465 
L 952.386912 451.639297 
L 954.108401 451.563285 
L 954.682137 451.726937 
L 956.40256 451.662513 
L 956.976269 451.835458 
L 958.697376 451.763996 
L 959.271013 451.908777 
L 960.992501 451.826973 
L 961.565781 451.962664 
L 963.286884 451.831495 
L 963.86056 452.000502 
L 965.581588 451.839334 
L 966.155309 452.040178 
L 967.87631 451.903481 
L 969.597368 451.987132 
L 970.171647 451.942682 
L 970.744835 452.102014 
L 972.465873 451.974181 
L 973.039638 452.139636 
L 974.760632 452.023453 
L 975.334329 452.138315 
L 977.055522 452.016167 
L 977.629634 452.159756 
L 979.350685 452.041243 
L 979.923868 452.180153 
L 981.645376 452.065394 
L 982.218547 452.197978 
L 983.939667 452.085389 
L 984.513634 452.231728 
L 986.234981 452.119191 
L 986.808039 452.233646 
L 988.529225 452.123145 
L 989.102837 452.276332 
L 990.82394 452.200205 
L 992.545496 452.276201 
L 994.839769 452.301748 
L 997.708194 452.303492 
L 998.281896 452.4121 
L 1000.003871 452.347369 
L 1000.576687 452.452742 
L 1004.592443 452.436955 
L 1005.166222 452.535051 
L 1006.887234 452.48844 
L 1007.460973 452.616834 
L 1009.181546 452.570633 
L 1009.755713 452.726892 
L 1011.476783 452.690677 
L 1012.050445 452.791802 
L 1013.771496 452.753496 
L 1014.345261 452.857614 
L 1018.360992 452.894646 
L 1019.50841 452.964214 
L 1020.656119 452.937891 
L 1021.229432 453.097181 
L 1022.950508 453.050991 
L 1023.524234 453.163912 
L 1025.245336 453.127554 
L 1025.818987 453.299314 
L 1029.834765 453.286051 
L 1030.408487 453.439791 
L 1032.129587 453.403337 
L 1032.703755 453.50992 
L 1034.424322 453.455221 
L 1034.997989 453.610291 
L 1036.719051 453.565016 
L 1037.292747 453.684478 
L 1039.013772 453.656836 
L 1039.587459 453.798819 
L 1043.603335 453.807996 
L 1044.177596 453.924776 
L 1045.898172 453.886074 
L 1046.471818 454.044961 
L 1046.471818 454.044961 
L 1048.192883 454.013942 
L 1048.766572 454.153624 
L 1050.487588 454.126722 
L 1051.061344 454.235902 
L 1053.356097 454.207788 
L 1053.92978 454.368166 
L 1055.078053 454.36606 
L 1056.22451 454.482553 
L 1057.946131 454.490926 
L 1058.519776 454.644354 
L 1060.240315 454.676842 
L 1060.813397 454.822329 
L 1064.829949 455.034254 
L 1065.403711 455.179577 
L 1065.403711 455.179577 
L 1069.419446 455.438442 
L 1069.993061 455.617538 
L 1071.714127 455.6645 
L 1072.287889 455.809086 
L 1072.287889 455.809086 
L 1080.893678 454.861357 
L 1081.466825 455.101464 
L 1084.335106 455.032157 
L 1084.909014 455.010127 
L 1085.482704 455.257121 
L 1087.203722 455.187899 
L 1087.777387 455.332829 
L 1091.793319 455.330825 
L 1092.366929 455.443649 
L 1094.08804 455.416061 
L 1094.661681 455.548969 
L 1096.956442 455.511517 
L 1097.530215 455.621619 
L 1098.67804 455.576027 
L 1099.251203 455.744681 
L 1103.267064 455.664498 
L 1104.414442 455.722815 
L 1107.856221 455.62191 
L 1108.430233 455.808078 
L 1110.725002 455.816014 
L 1112.446328 455.886727 
L 1113.019789 455.736791 
L 1119.330381 455.858108 
L 1120.478089 455.818805 
L 1121.625085 455.872037 
L 1122.198717 455.775488 
L 1128.509409 456.006359 
L 1129.083568 455.909098 
L 1138.836283 456.125446 
L 1146.867437 456.186201 
L 1153.177981 456.004077 
L 1153.751742 456.011302 
L 1154.324702 456.139596 
L 1164.078068 456.289811 
L 1164.651732 456.452802 
L 1169.815002 456.358714 
L 1170.388619 456.511153 
L 1172.110272 456.487678 
L 1172.683401 456.61092 
L 1174.404517 456.574033 
L 1174.404517 456.574033 
L 1176.699244 456.755306 
L 1178.993941 456.858156 
L 1181.288759 456.726412 
L 1182.436113 456.768142 
L 1183.583672 456.741318 
L 1185.304199 456.930791 
L 1185.878803 456.997791 
L 1187.0257 456.989651 
L 1188.173191 457.003335 
L 1188.746718 456.854007 
L 1192.762562 456.658669 
L 1195.057306 456.39298 
L 1196.204699 456.444102 
L 1197.352081 456.403019 
L 1197.925746 456.587576 
L 1205.383656 456.456557 
L 1206.531111 456.362412 
L 1207.104783 456.402216 
L 1207.104783 456.402216 
L 1208.825788 456.298656 
L 1209.399566 456.399127 
L 1213.415351 456.170761 
L 1213.415351 456.170761 
L 1213.989053 456.220249 
L 1216.283744 456.033348 
L 1217.431164 456.017735 
L 1218.005591 455.972483 
L 1219.152279 456.152731 
L 1219.152279 456.152731 
L 1225.462792 455.932581 
L 1229.478642 455.889826 
L 1250.7051 455.373607 
L 1254.720998 455.399947 
L 1255.868287 455.308006 
L 1265.621056 455.408566 
L 1266.768448 455.395627 
L 1269.636912 455.186536 
L 1270.784263 454.987598 
L 1271.357903 455.327845 
L 1273.079908 455.031572 
L 1273.079908 455.031572 
L 1274.226554 455.349977 
L 1275.373671 455.312786 
L 1275.947993 455.539459 
L 1281.684349 455.605203 
L 1284.55298 455.628528 
L 1285.126511 455.890767 
L 1285.126511 455.890767 
L 1286.274039 455.934696 
L 1287.422049 455.720074 
L 1288.568395 455.753929 
L 1288.568395 455.753929 
L 1289.715986 456.107359 
L 1293.15815 456.266719 
L 1296.600448 456.552476 
L 1296.600448 456.552476 
L 1297.747633 456.636815 
L 1298.321376 456.849562 
L 1302.337656 457.171712 
L 1302.911509 457.481176 
L 1311.516182 458.322274 
L 1312.089905 458.626511 
L 1312.089905 458.626511 
L 1316.105695 459.115773 
L 1316.679431 459.027126 
L 1322.416295 459.847353 
L 1325.859831 460.443855 
L 1325.859831 460.443855 
L 1330.447922 461.338532 
L 1332.168709 461.454526 
L 1332.168709 461.454526 
L 1333.316411 461.807556 
L 1344.216556 462.893067 
L 1344.216556 462.893067 
L 1352.248096 463.86134 
L 1352.821755 463.880357 
L 1353.395484 464.075912 
L 1355.117167 464.118065 
L 1355.690296 464.357256 
L 1357.411354 464.390367 
L 1357.985038 464.639068 
L 1359.705586 464.707636 
L 1360.279943 464.892896 
L 1360.279943 464.892896 
L 1361.42778 464.947979 
L 1363.72281 465.293026 
L 1364.295634 465.371088 
L 1364.869299 465.59028 
L 1364.869299 465.59028 
L 1368.311369 466.001463 
L 1371.179884 466.322584 
L 1373.475202 466.650276 
L 1374.622296 466.721378 
L 1376.343004 466.836763 
L 1381.506205 467.288465 
L 1384.374744 467.546427 
L 1390.111591 468.012431 
L 1391.258806 468.053699 
L 1394.701103 468.401171 
L 1396.422187 468.581659 
L 1414.780208 471.029862 
L 1414.780208 471.029862 
L 1418.222359 471.721111 
L 1420.517143 472.126646 
L 1424.53289 472.560822 
L 1433.138278 473.493137 
L 1436.580414 473.861633 
L 1441.743537 474.300675 
L 1442.891483 474.358444 
L 1443.465581 474.647612 
L 1444.612068 474.794475 
L 1445.759435 474.961876 
L 1447.480451 475.013743 
L 1447.480451 475.013743 
L 1448.054568 475.246504 
L 1452.070004 475.980211 
L 1452.643686 476.151711 
L 1454.364761 476.479124 
L 1454.938406 476.411317 
L 1456.086283 476.518872 
L 1456.659549 476.515725 
L 1457.233201 476.657509 
L 1457.233201 476.657509 
L 1458.380595 476.564852 
L 1459.527364 476.563122 
L 1460.101647 476.910989 
L 1461.249041 476.935428 
L 1462.396447 477.064857 
L 1481.901821 477.901324 
L 1482.475738 477.589301 
L 1484.196568 477.741718 
L 1484.770332 477.481972 
L 1486.491387 477.626022 
L 1487.065031 477.425514 
L 1488.78612 477.576037 
L 1489.359723 477.339577 
L 1491.080851 477.48251 
L 1491.654541 477.227375 
L 1493.375651 477.358802 
L 1493.949298 477.149108 
L 1495.670506 477.299636 
L 1496.244007 477.057329 
L 1497.965233 477.228758 
L 1498.538979 476.973514 
L 1500.259931 477.187492 
L 1500.834041 476.891404 
L 1502.554692 477.127107 
L 1503.128392 476.80048 
L 1504.849395 477.028763 
L 1505.423093 476.880914 
L 1507.144159 477.121193 
L 1507.144159 477.121193 
L 1508.291481 476.977565 
L 1509.43892 477.163335 
L 1510.012602 476.893539 
L 1511.734155 477.185452 
L 1512.30736 476.982879 
L 1512.30736 476.982879 
L 1514.028891 477.317498 
L 1514.602154 477.031674 
L 1516.32318 477.363925 
L 1516.896896 477.096365 
L 1518.044219 477.319813 
L 1518.044219 477.319813 
L 1519.191632 477.257447 
L 1520.912712 477.613996 
L 1520.912712 477.613996 
L 1522.060062 477.552195 
L 1523.207474 477.816412 
L 1523.207474 477.816412 
L 1524.355084 477.812898 
L 1524.355084 477.812898 
L 1525.502235 478.099231 
L 1526.075877 477.882081 
L 1527.224071 478.167007 
L 1528.370636 478.093411 
L 1528.370636 478.093411 
L 1530.091707 478.495174 
L 1530.665448 478.363269 
L 1531.812843 478.616297 
L 1532.960182 478.522786 
L 1532.960182 478.522786 
L 1534.106805 478.771053 
L 1535.255807 478.690125 
L 1535.255807 478.690125 
L 1536.976041 479.065708 
L 1537.549715 478.88764 
L 1538.697591 479.082814 
L 1540.418135 478.986958 
L 1547.302324 479.427703 
L 1548.449755 479.32447 
L 1549.023413 479.470987 
L 1550.744642 479.358252 
L 1551.318173 479.689473 
L 1553.039274 479.667287 
L 1553.612983 479.832272 
L 1555.334001 479.948192 
L 1556.481233 480.114229 
L 1569.102603 481.073835 
L 1569.67627 481.34666 
L 1573.118909 481.514698 
L 1573.692115 481.552881 
L 1574.265783 481.719475 
L 1575.986852 481.835131 
L 1577.134154 482.064254 
L 1578.281633 482.197678 
L 1578.855284 482.132935 
L 1586.313294 482.802722 
L 1587.461458 482.856047 
L 1588.034319 483.047004 
L 1593.197035 483.459224 
L 1593.197035 483.459224 
" clip-path="url(#pc89efc8772)" style="fill: none; stroke: #a39480; stroke-opacity: 0.5; stroke-width: 2.5; stroke-linecap: square"/>
   </g>
   <g id="line2d_17">
    <path d="M 472.208622 424.020889 
L 505.482733 424.134204 
L 513.515255 424.145517 
L 524.988139 424.224711 
L 533.593482 424.534368 
L 535.314529 424.63356 
L 541.625225 425.013136 
L 545.06734 425.294683 
L 565.719463 427.143979 
L 569.735906 427.642775 
L 589.241845 429.965791 
L 596.126165 430.382229 
L 604.157352 430.639672 
L 613.909999 430.91871 
L 629.973245 431.174053 
L 642.594584 431.592822 
L 646.036597 431.830019 
L 651.199862 432.236798 
L 673.000158 434.271937 
L 677.590187 434.726081 
L 690.210741 435.650972 
L 716.599899 437.331488 
L 728.075099 438.549654 
L 732.663741 439.118265 
L 744.13752 440.023833 
L 745.284917 440.134461 
L 748.726998 440.490983 
L 752.169603 440.854507 
L 760.774559 441.805132 
L 763.643002 442.225558 
L 767.658839 442.881905 
L 769.953543 443.275612 
L 775.69044 444.087408 
L 782.575254 444.984422 
L 788.88545 445.447485 
L 791.754486 445.624784 
L 794.622209 445.831883 
L 797.490583 445.99464 
L 799.785082 446.192891 
L 801.506422 446.281766 
L 803.227678 446.456952 
L 805.522587 446.664812 
L 806.670603 446.572885 
L 808.390787 446.714066 
L 827.322423 447.443385 
L 829.617303 447.491572 
L 833.059917 447.725179 
L 836.501579 447.794454 
L 839.370675 447.92762 
L 846.254285 448.488751 
L 851.991144 449.067907 
L 854.285885 449.320613 
L 856.581575 449.568889 
L 858.301714 449.88644 
L 861.74378 450.274951 
L 864.037696 450.607356 
L 867.480817 450.850007 
L 874.938715 451.683844 
L 876.659781 451.889463 
L 877.80712 451.990786 
L 885.265105 452.74365 
L 891.0021 453.359574 
L 900.181057 454.177063 
L 904.196921 454.461338 
L 907.065307 454.688667 
L 909.934091 454.902237 
L 913.949524 455.188573 
L 916.24427 455.40722 
L 917.391675 455.48493 
L 919.112064 455.57789 
L 931.160263 456.840064 
L 932.881296 457.068049 
L 934.602425 457.352477 
L 936.323422 457.561646 
L 937.470911 457.641636 
L 940.33932 457.982728 
L 943.20769 458.227627 
L 948.370784 458.714345 
L 950.665529 458.898636 
L 953.53419 459.190505 
L 955.255249 459.237836 
L 965.581588 459.770426 
L 982.218547 460.049091 
L 985.661266 460.10149 
L 998.855584 460.296736 
L 1024.671656 461.434707 
L 1026.392674 461.552823 
L 1030.408487 461.722802 
L 1051.634747 462.921938 
L 1053.356097 463.037972 
L 1054.503465 463.049241 
L 1057.946131 463.363229 
L 1064.829949 464.087409 
L 1068.271985 464.586173 
L 1069.419446 464.736797 
L 1072.287889 465.058821 
L 1074.00883 465.24959 
L 1077.450985 465.336352 
L 1079.745774 465.177716 
L 1082.040576 465.074082 
L 1084.335106 465.063636 
L 1088.924777 464.771869 
L 1095.80906 464.492967 
L 1096.956442 464.437777 
L 1098.104356 464.444807 
L 1099.82498 464.236575 
L 1103.840719 464.035101 
L 1105.561804 463.931054 
L 1108.430233 463.80509 
L 1109.57781 463.737911 
L 1110.725002 463.650085 
L 1111.872356 463.477078 
L 1114.740802 463.437702 
L 1118.182957 463.246931 
L 1119.330381 463.141553 
L 1120.478089 462.995399 
L 1123.346162 462.943557 
L 1129.083568 462.636643 
L 1129.656736 462.678414 
L 1131.37775 462.540793 
L 1132.525225 462.516777 
L 1133.672518 462.475198 
L 1137.688895 462.266429 
L 1139.409609 462.173101 
L 1145.720141 461.860266 
L 1147.441255 461.576727 
L 1149.162223 461.526466 
L 1150.309566 461.346764 
L 1154.324702 461.275588 
L 1156.620173 461.30428 
L 1158.914847 461.139146 
L 1162.931163 461.132936 
L 1163.504383 461.200997 
L 1165.799084 461.024908 
L 1166.946135 460.954613 
L 1168.093902 460.822756 
L 1170.388619 460.823857 
L 1173.257153 460.753577 
L 1174.978188 460.720613 
L 1188.746718 460.177424 
L 1190.467842 460.060586 
L 1191.615165 459.982559 
L 1192.762562 459.865873 
L 1196.778318 459.743421 
L 1199.072901 459.615571 
L 1205.957359 459.332587 
L 1214.562685 458.886336 
L 1216.856904 458.738241 
L 1223.168 458.483371 
L 1224.315391 458.368367 
L 1226.037231 458.310307 
L 1227.183868 458.190947 
L 1229.478642 458.164462 
L 1231.199594 458.041427 
L 1232.920778 458.016743 
L 1234.068162 457.89805 
L 1235.215279 457.860116 
L 1238.65766 457.661592 
L 1251.278836 457.03385 
L 1252.426217 457.03343 
L 1253.573147 456.788278 
L 1255.868287 456.852832 
L 1259.883545 456.574297 
L 1261.031552 456.637553 
L 1262.752621 456.500878 
L 1263.899784 456.426514 
L 1265.621056 456.375437 
L 1278.81594 455.824126 
L 1279.963282 455.738956 
L 1281.110486 455.837704 
L 1285.126511 455.482518 
L 1285.700182 455.632251 
L 1287.994933 455.594258 
L 1289.715986 455.551841 
L 1291.437551 455.651203 
L 1293.15815 455.626786 
L 1295.452379 455.684015 
L 1296.600448 455.774648 
L 1297.747633 455.874759 
L 1298.895114 455.84783 
L 1306.353049 456.309611 
L 1308.647746 456.285695 
L 1312.089905 456.679773 
L 1315.532898 456.733357 
L 1316.679431 456.789119 
L 1321.268902 457.190902 
L 1328.726902 457.93672 
L 1332.168709 458.384601 
L 1334.463704 458.493205 
L 1336.758614 458.368316 
L 1338.47961 458.562716 
L 1339.053309 458.539354 
L 1340.200802 458.372808 
L 1341.921716 458.545507 
L 1343.069073 458.625775 
L 1345.937477 458.635657 
L 1346.511768 458.860743 
L 1347.658576 458.905535 
L 1349.953341 458.791226 
L 1350.527116 458.854358 
L 1351.10073 459.15237 
L 1352.248096 459.323764 
L 1353.395484 459.431144 
L 1354.542844 459.177676 
L 1355.690296 459.333506 
L 1356.263936 459.512571 
L 1360.279943 459.406496 
L 1361.42778 459.738205 
L 1362.575728 459.721665 
L 1364.295634 459.623427 
L 1366.016603 459.796144 
L 1368.311369 460.343387 
L 1369.45874 460.382635 
L 1371.179884 460.049393 
L 1372.327004 460.067168 
L 1373.475202 460.02429 
L 1374.622296 460.436049 
L 1378.06387 460.610832 
L 1378.637879 460.454676 
L 1379.7852 460.490112 
L 1380.35883 460.533322 
L 1381.506205 460.312791 
L 1383.227328 460.345262 
L 1384.374744 460.24528 
L 1386.096213 460.338737 
L 1387.242458 460.182227 
L 1388.390555 460.388933 
L 1388.964214 460.53512 
L 1392.406386 460.609859 
L 1393.553654 460.635381 
L 1394.701103 460.639092 
L 1395.275079 460.436116 
L 1395.84844 460.457475 
L 1396.996061 460.825639 
L 1401.585377 461.129491 
L 1402.73203 460.952762 
L 1403.880644 461.028393 
L 1405.027505 460.982528 
L 1405.600572 461.080438 
L 1406.174835 461.367426 
L 1407.322312 461.474417 
L 1409.043398 461.484461 
L 1409.616977 461.668038 
L 1411.338133 461.525751 
L 1411.911823 461.652964 
L 1413.632888 461.567197 
L 1420.517143 462.551151 
L 1421.664528 462.46188 
L 1422.811865 462.66251 
L 1424.53289 462.642683 
L 1425.680309 462.477247 
L 1427.40138 462.645838 
L 1428.548699 462.645399 
L 1433.711979 462.966689 
L 1437.154075 463.095867 
L 1441.743537 463.230022 
L 1442.317131 463.403945 
L 1442.891483 463.43561 
L 1444.038353 463.33123 
L 1446.332835 463.559754 
L 1447.480451 463.564022 
L 1449.201611 463.7968 
L 1450.922688 463.845862 
L 1452.070004 464.081871 
L 1454.364761 464.206183 
L 1454.938406 464.35579 
L 1457.806897 464.467446 
L 1458.954317 464.514341 
L 1461.822717 464.51287 
L 1463.543771 464.475539 
L 1464.691961 464.456808 
L 1468.13302 464.466255 
L 1470.428241 464.388099 
L 1476.165687 464.260335 
L 1477.312405 464.138104 
L 1485.343969 463.756204 
L 1497.965233 462.952357 
L 1503.128392 462.595263 
L 1507.144159 462.503167 
L 1520.338943 462.458997 
L 1528.944319 462.759683 
L 1530.665448 462.903675 
L 1532.960182 462.911988 
L 1538.123407 463.049293 
L 1540.418135 462.973217 
L 1543.285892 463.130961 
L 1546.155051 462.976518 
L 1549.023413 463.08596 
L 1551.891839 463.097858 
L 1554.186715 463.069684 
L 1558.202546 463.107516 
L 1568.528889 463.208356 
L 1570.249965 463.194882 
L 1575.986852 463.282125 
L 1577.70789 463.255543 
L 1580.001987 463.284891 
L 1581.150043 463.319392 
L 1582.871659 463.292151 
L 1584.017796 463.407886 
L 1586.313294 463.271608 
L 1588.607994 463.353325 
L 1592.624386 463.323053 
L 1593.197035 463.325777 
L 1593.197035 463.325777 
" clip-path="url(#pc89efc8772)" style="fill: none; stroke: #ff6347; stroke-width: 2.5; stroke-linecap: square"/>
   </g>
   <g id="line2d_18">
    <path d="M 472.208622 424.020889 
L 529.578171 424.274802 
L 537.609145 424.454912 
L 538.756732 424.461045 
L 541.625219 424.707127 
L 546.214713 424.989369 
L 550.804188 425.367888 
L 554.246307 425.721859 
L 562.851609 426.424159 
L 591.536126 429.102066 
L 601.862493 429.320201 
L 613.909999 429.386419 
L 638.004955 429.046925 
L 646.036594 429.196257 
L 659.231486 429.960914 
L 664.968384 430.339502 
L 685.047523 431.350694 
L 686.768635 431.413195 
L 706.273376 431.916418 
L 710.290347 431.975734 
L 716.026666 432.226103 
L 740.695414 434.033511 
L 743.563762 434.215324 
L 756.759496 435.559243 
L 760.774553 436.202967 
L 768.232442 437.525704 
L 776.837806 438.809557 
L 787.164178 440.006469 
L 789.45906 440.205368 
L 801.506418 441.445674 
L 802.654394 441.567466 
L 804.949045 442.010806 
L 806.670598 441.96479 
L 809.538928 442.233296 
L 827.89697 443.744544 
L 830.190976 443.892266 
L 833.059913 444.201287 
L 835.927832 444.417087 
L 841.664728 444.949673 
L 846.254284 445.567535 
L 849.12357 445.98202 
L 853.712183 446.826325 
L 856.581574 447.321053 
L 860.597285 448.136388 
L 862.891288 448.61945 
L 864.612378 448.913163 
L 866.33343 449.129186 
L 884.691416 452.613827 
L 891.575722 454.007511 
L 897.312549 454.977024 
L 903.049429 455.973254 
L 905.344166 456.305768 
L 908.213185 456.724704 
L 916.817622 457.983884 
L 920.260142 458.392273 
L 922.554908 458.683058 
L 928.291725 459.613202 
L 930.586606 460.050403 
L 933.455011 460.51877 
L 935.175429 460.837945 
L 943.207688 461.952414 
L 951.813423 462.972973 
L 954.682133 463.245644 
L 968.450061 464.270336 
L 983.366181 464.548034 
L 996.560667 464.634305 
L 1007.46097 464.883966 
L 1018.360986 465.236444 
L 1034.42432 466.037548 
L 1037.292747 466.1019 
L 1048.192877 466.53542 
L 1052.782333 466.77401 
L 1056.224508 466.841251 
L 1065.403706 467.29636 
L 1067.124691 467.336283 
L 1068.845737 467.580987 
L 1069.993057 467.646878 
L 1072.287886 467.696106 
L 1073.435243 467.854714 
L 1079.745774 467.622812 
L 1080.893674 467.580124 
L 1082.040574 467.539609 
L 1084.909014 467.339259 
L 1086.629998 467.201731 
L 1087.777385 466.995284 
L 1096.95644 466.283208 
L 1098.104353 466.258081 
L 1102.693382 465.856056 
L 1103.840715 465.802534 
L 1105.561798 465.622888 
L 1108.430233 465.49395 
L 1109.577809 465.403375 
L 1110.724998 465.334355 
L 1111.298725 465.20491 
L 1113.019789 465.121356 
L 1114.167112 464.976128 
L 1117.035357 464.737266 
L 1119.903992 464.399629 
L 1121.051447 464.203021 
L 1122.198713 464.13575 
L 1122.771881 464.169891 
L 1125.640894 463.849251 
L 1126.788246 463.743639 
L 1129.083568 463.417734 
L 1130.230474 463.397017 
L 1141.705068 462.181292 
L 1146.293792 461.843633 
L 1150.883334 460.957608 
L 1151.457825 461.216635 
L 1160.062297 460.754045 
L 1161.209676 460.491051 
L 1162.357716 460.477843 
L 1163.50438 460.577927 
L 1165.22544 460.087089 
L 1166.946132 460.072047 
L 1168.093895 459.888632 
L 1170.388618 459.775118 
L 1185.304197 458.281057 
L 1188.173187 457.951817 
L 1195.057304 457.466601 
L 1196.778315 457.435468 
L 1203.662674 456.709257 
L 1211.120536 455.97863 
L 1215.136484 455.689738 
L 1219.725955 455.35516 
L 1224.315391 454.981072 
L 1226.037228 454.822943 
L 1227.757519 454.667336 
L 1228.904991 454.570665 
L 1231.199594 454.36461 
L 1236.362862 453.871292 
L 1239.805124 453.540148 
L 1241.52616 453.338364 
L 1243.820903 453.085582 
L 1248.410409 452.592376 
L 1249.557526 452.475577 
L 1251.852522 452.123005 
L 1252.999318 451.975989 
L 1255.868285 451.568356 
L 1259.883544 451.02477 
L 1261.031548 450.900493 
L 1264.473684 450.408624 
L 1275.373666 448.776597 
L 1279.963279 447.998597 
L 1289.715986 446.550503 
L 1301.189773 445.195202 
L 1302.911508 445.065903 
L 1304.63196 444.857337 
L 1306.353046 444.721389 
L 1310.368816 444.15018 
L 1312.663618 444.051657 
L 1314.958859 443.900753 
L 1318.974185 443.529802 
L 1324.138486 443.1677 
L 1325.859826 443.061225 
L 1329.874279 442.758878 
L 1335.611129 441.60623 
L 1337.332176 441.218344 
L 1339.053305 440.913697 
L 1340.774422 440.543962 
L 1349.379745 439.13861 
L 1350.527116 438.941797 
L 1351.67441 438.861013 
L 1360.279941 437.209783 
L 1370.032409 435.734065 
L 1372.326998 435.223731 
L 1374.04823 434.95061 
L 1380.932519 433.69349 
L 1387.81682 432.472305 
L 1393.553652 431.710121 
L 1398.143265 431.196568 
L 1401.011672 430.846103 
L 1402.732027 430.567441 
L 1403.880639 430.436184 
L 1405.027502 430.330734 
L 1406.174833 430.287785 
L 1407.895903 430.086116 
L 1412.485454 429.49866 
L 1414.206576 429.313201 
L 1419.943977 428.785326 
L 1421.664527 428.471132 
L 1422.811861 428.364075 
L 1423.958867 428.097503 
L 1425.107183 427.871176 
L 1426.253974 427.531442 
L 1427.97485 427.180392 
L 1428.548694 427.037888 
L 1429.696144 426.93794 
L 1441.743535 425.162655 
L 1443.465579 425.001644 
L 1446.907285 424.548966 
L 1451.495657 424.480122 
L 1452.643684 424.677449 
L 1453.79111 424.395961 
L 1454.938404 424.322154 
L 1456.086276 424.399062 
L 1457.233199 424.078478 
L 1457.806896 424.223204 
L 1460.674687 423.942182 
L 1465.264885 423.614405 
L 1469.280941 423.653327 
L 1472.723266 423.641276 
L 1473.871723 423.61823 
L 1475.017638 423.708466 
L 1477.312404 423.582455 
L 1480.180695 423.651689 
L 1487.638758 423.596112 
L 1490.507177 423.567667 
L 1495.670503 423.456786 
L 1496.817706 423.334256 
L 1499.686151 423.274555 
L 1502.554688 423.190852 
L 1504.849391 423.306612 
L 1507.144158 423.192633 
L 1517.470595 423.162953 
L 1519.765354 423.016638 
L 1524.355081 422.992664 
L 1526.649587 422.740814 
L 1531.239148 422.314173 
L 1534.681295 421.931527 
L 1546.155049 420.198928 
L 1554.186712 418.54094 
L 1559.923477 417.276671 
L 1562.218776 416.666871 
L 1563.939326 416.220516 
L 1569.102599 414.771259 
L 1570.823562 414.049627 
L 1571.971011 413.695554 
L 1573.692111 413.264094 
L 1577.134154 412.14037 
L 1579.42903 411.411712 
L 1582.29743 410.532497 
L 1593.197035 407.003601 
L 1593.197035 407.003601 
" clip-path="url(#pc89efc8772)" style="fill: none; stroke: #d2b48c; stroke-opacity: 0.5; stroke-width: 2.5; stroke-linecap: square"/>
   </g>
   <g id="patch_3">
    <path d="M 230.4 813.1752 
L 230.4 109.6416 
" style="fill: none; stroke: #000000; stroke-width: 3; stroke-linejoin: miter; stroke-linecap: square"/>
   </g>
   <g id="patch_4">
    <path d="M 1658.88 813.1752 
L 1658.88 109.6416 
" style="fill: none; stroke: #000000; stroke-width: 3; stroke-linejoin: miter; stroke-linecap: square"/>
   </g>
   <g id="patch_5">
    <path d="M 230.4 813.1752 
L 1658.88 813.1752 
" style="fill: none; stroke: #000000; stroke-width: 3; stroke-linejoin: miter; stroke-linecap: square"/>
   </g>
   <g id="patch_6">
    <path d="M 230.4 109.6416 
L 1658.88 109.6416 
" style="fill: none; stroke: #000000; stroke-width: 3; stroke-linejoin: miter; stroke-linecap: square"/>
   </g>
   <g id="legend_1">
    <g id="patch_7">
     <path d="M 297.8968 730.32184 
L 533.185862 730.32184 
Q 538.185862 730.32184 538.185862 725.32184 
L 538.185862 507.649965 
Q 538.185862 502.649965 533.185862 502.649965 
L 297.8968 502.649965 
Q 292.8968 502.649965 292.8968 507.649965 
L 292.8968 725.32184 
Q 292.8968 730.32184 297.8968 730.32184 
z
" style="fill: #ffffff; opacity: 0.8; stroke: #cccccc; stroke-linejoin: miter"/>
    </g>
    <g id="line2d_19">
     <path d="M 302.8968 522.896059 
L 327.8968 522.896059 
L 352.8968 522.896059 
" style="fill: none; stroke-dasharray: 9.25,4; stroke-dashoffset: 0; stroke: #808a87; stroke-width: 2.5"/>
    </g>
    <g id="text_9">
     <!-- GroundTruth -->
     <g transform="translate(372.8968 531.646059) scale(0.25 -0.25)">
      <defs>
       <path id="DejaVuSans-47" d="M 3809 666 
L 3809 1919 
L 2778 1919 
L 2778 2438 
L 4434 2438 
L 4434 434 
Q 4069 175 3628 42 
Q 3188 -91 2688 -91 
Q 1594 -91 976 548 
Q 359 1188 359 2328 
Q 359 3472 976 4111 
Q 1594 4750 2688 4750 
Q 3144 4750 3555 4637 
Q 3966 4525 4313 4306 
L 4313 3634 
Q 3963 3931 3569 4081 
Q 3175 4231 2741 4231 
Q 1884 4231 1454 3753 
Q 1025 3275 1025 2328 
Q 1025 1384 1454 906 
Q 1884 428 2741 428 
Q 3075 428 3337 486 
Q 3600 544 3809 666 
z
" transform="scale(0.015625)"/>
       <path id="DejaVuSans-72" d="M 2631 2963 
Q 2534 3019 2420 3045 
Q 2306 3072 2169 3072 
Q 1681 3072 1420 2755 
Q 1159 2438 1159 1844 
L 1159 0 
L 581 0 
L 581 3500 
L 1159 3500 
L 1159 2956 
Q 1341 3275 1631 3429 
Q 1922 3584 2338 3584 
Q 2397 3584 2469 3576 
Q 2541 3569 2628 3553 
L 2631 2963 
z
" transform="scale(0.015625)"/>
       <path id="DejaVuSans-6f" d="M 1959 3097 
Q 1497 3097 1228 2736 
Q 959 2375 959 1747 
Q 959 1119 1226 758 
Q 1494 397 1959 397 
Q 2419 397 2687 759 
Q 2956 1122 2956 1747 
Q 2956 2369 2687 2733 
Q 2419 3097 1959 3097 
z
M 1959 3584 
Q 2709 3584 3137 3096 
Q 3566 2609 3566 1747 
Q 3566 888 3137 398 
Q 2709 -91 1959 -91 
Q 1206 -91 779 398 
Q 353 888 353 1747 
Q 353 2609 779 3096 
Q 1206 3584 1959 3584 
z
" transform="scale(0.015625)"/>
       <path id="DejaVuSans-75" d="M 544 1381 
L 544 3500 
L 1119 3500 
L 1119 1403 
Q 1119 906 1312 657 
Q 1506 409 1894 409 
Q 2359 409 2629 706 
Q 2900 1003 2900 1516 
L 2900 3500 
L 3475 3500 
L 3475 0 
L 2900 0 
L 2900 538 
Q 2691 219 2414 64 
Q 2138 -91 1772 -91 
Q 1169 -91 856 284 
Q 544 659 544 1381 
z
M 1991 3584 
L 1991 3584 
z
" transform="scale(0.015625)"/>
       <path id="DejaVuSans-6e" d="M 3513 2113 
L 3513 0 
L 2938 0 
L 2938 2094 
Q 2938 2591 2744 2837 
Q 2550 3084 2163 3084 
Q 1697 3084 1428 2787 
Q 1159 2491 1159 1978 
L 1159 0 
L 581 0 
L 581 3500 
L 1159 3500 
L 1159 2956 
Q 1366 3272 1645 3428 
Q 1925 3584 2291 3584 
Q 2894 3584 3203 3211 
Q 3513 2838 3513 2113 
z
" transform="scale(0.015625)"/>
       <path id="DejaVuSans-64" d="M 2906 2969 
L 2906 4863 
L 3481 4863 
L 3481 0 
L 2906 0 
L 2906 525 
Q 2725 213 2448 61 
Q 2172 -91 1784 -91 
Q 1150 -91 751 415 
Q 353 922 353 1747 
Q 353 2572 751 3078 
Q 1150 3584 1784 3584 
Q 2172 3584 2448 3432 
Q 2725 3281 2906 2969 
z
M 947 1747 
Q 947 1113 1208 752 
Q 1469 391 1925 391 
Q 2381 391 2643 752 
Q 2906 1113 2906 1747 
Q 2906 2381 2643 2742 
Q 2381 3103 1925 3103 
Q 1469 3103 1208 2742 
Q 947 2381 947 1747 
z
" transform="scale(0.015625)"/>
       <path id="DejaVuSans-54" d="M -19 4666 
L 3928 4666 
L 3928 4134 
L 2272 4134 
L 2272 0 
L 1638 0 
L 1638 4134 
L -19 4134 
L -19 4666 
z
" transform="scale(0.015625)"/>
       <path id="DejaVuSans-74" d="M 1172 4494 
L 1172 3500 
L 2356 3500 
L 2356 3053 
L 1172 3053 
L 1172 1153 
Q 1172 725 1289 603 
Q 1406 481 1766 481 
L 2356 481 
L 2356 0 
L 1766 0 
Q 1100 0 847 248 
Q 594 497 594 1153 
L 594 3053 
L 172 3053 
L 172 3500 
L 594 3500 
L 594 4494 
L 1172 4494 
z
" transform="scale(0.015625)"/>
       <path id="DejaVuSans-68" d="M 3513 2113 
L 3513 0 
L 2938 0 
L 2938 2094 
Q 2938 2591 2744 2837 
Q 2550 3084 2163 3084 
Q 1697 3084 1428 2787 
Q 1159 2491 1159 1978 
L 1159 0 
L 581 0 
L 581 4863 
L 1159 4863 
L 1159 2956 
Q 1366 3272 1645 3428 
Q 1925 3584 2291 3584 
Q 2894 3584 3203 3211 
Q 3513 2838 3513 2113 
z
" transform="scale(0.015625)"/>
      </defs>
      <use xlink:href="#DejaVuSans-47"/>
      <use xlink:href="#DejaVuSans-72" x="77.490234"/>
      <use xlink:href="#DejaVuSans-6f" x="116.353516"/>
      <use xlink:href="#DejaVuSans-75" x="177.535156"/>
      <use xlink:href="#DejaVuSans-6e" x="240.914062"/>
      <use xlink:href="#DejaVuSans-64" x="304.292969"/>
      <use xlink:href="#DejaVuSans-54" x="367.769531"/>
      <use xlink:href="#DejaVuSans-72" x="414.103516"/>
      <use xlink:href="#DejaVuSans-75" x="455.216797"/>
      <use xlink:href="#DejaVuSans-74" x="518.595703"/>
      <use xlink:href="#DejaVuSans-68" x="557.804688"/>
     </g>
    </g>
    <g id="line2d_20">
     <path d="M 302.8968 559.591371 
L 327.8968 559.591371 
L 352.8968 559.591371 
" style="fill: none; stroke: #7cfc00; stroke-width: 2.5; stroke-linecap: square"/>
    </g>
    <g id="text_10">
     <!-- ROLO -->
     <g transform="translate(372.8968 568.341371) scale(0.25 -0.25)">
      <defs>
       <path id="DejaVuSans-52" d="M 2841 2188 
Q 3044 2119 3236 1894 
Q 3428 1669 3622 1275 
L 4263 0 
L 3584 0 
L 2988 1197 
Q 2756 1666 2539 1819 
Q 2322 1972 1947 1972 
L 1259 1972 
L 1259 0 
L 628 0 
L 628 4666 
L 2053 4666 
Q 2853 4666 3247 4331 
Q 3641 3997 3641 3322 
Q 3641 2881 3436 2590 
Q 3231 2300 2841 2188 
z
M 1259 4147 
L 1259 2491 
L 2053 2491 
Q 2509 2491 2742 2702 
Q 2975 2913 2975 3322 
Q 2975 3731 2742 3939 
Q 2509 4147 2053 4147 
L 1259 4147 
z
" transform="scale(0.015625)"/>
       <path id="DejaVuSans-4f" d="M 2522 4238 
Q 1834 4238 1429 3725 
Q 1025 3213 1025 2328 
Q 1025 1447 1429 934 
Q 1834 422 2522 422 
Q 3209 422 3611 934 
Q 4013 1447 4013 2328 
Q 4013 3213 3611 3725 
Q 3209 4238 2522 4238 
z
M 2522 4750 
Q 3503 4750 4090 4092 
Q 4678 3434 4678 2328 
Q 4678 1225 4090 567 
Q 3503 -91 2522 -91 
Q 1538 -91 948 565 
Q 359 1222 359 2328 
Q 359 3434 948 4092 
Q 1538 4750 2522 4750 
z
" transform="scale(0.015625)"/>
       <path id="DejaVuSans-4c" d="M 628 4666 
L 1259 4666 
L 1259 531 
L 3531 531 
L 3531 0 
L 628 0 
L 628 4666 
z
" transform="scale(0.015625)"/>
      </defs>
      <use xlink:href="#DejaVuSans-52"/>
      <use xlink:href="#DejaVuSans-4f" x="69.482422"/>
      <use xlink:href="#DejaVuSans-4c" x="148.193359"/>
      <use xlink:href="#DejaVuSans-4f" x="200.28125"/>
     </g>
    </g>
    <g id="line2d_21">
     <path d="M 302.8968 596.286684 
L 327.8968 596.286684 
L 352.8968 596.286684 
" style="fill: none; stroke: #ffc0cb; stroke-opacity: 0.5; stroke-width: 2.5; stroke-linecap: square"/>
    </g>
    <g id="text_11">
     <!-- LOAM -->
     <g transform="translate(372.8968 605.036684) scale(0.25 -0.25)">
      <defs>
       <path id="DejaVuSans-41" d="M 2188 4044 
L 1331 1722 
L 3047 1722 
L 2188 4044 
z
M 1831 4666 
L 2547 4666 
L 4325 0 
L 3669 0 
L 3244 1197 
L 1141 1197 
L 716 0 
L 50 0 
L 1831 4666 
z
" transform="scale(0.015625)"/>
       <path id="DejaVuSans-4d" d="M 628 4666 
L 1569 4666 
L 2759 1491 
L 3956 4666 
L 4897 4666 
L 4897 0 
L 4281 0 
L 4281 4097 
L 3078 897 
L 2444 897 
L 1241 4097 
L 1241 0 
L 628 0 
L 628 4666 
z
" transform="scale(0.015625)"/>
      </defs>
      <use xlink:href="#DejaVuSans-4c"/>
      <use xlink:href="#DejaVuSans-4f" x="52.087891"/>
      <use xlink:href="#DejaVuSans-41" x="129.048828"/>
      <use xlink:href="#DejaVuSans-4d" x="197.457031"/>
     </g>
    </g>
    <g id="line2d_22">
     <path d="M 302.8968 632.981996 
L 327.8968 632.981996 
L 352.8968 632.981996 
" style="fill: none; stroke: #a39480; stroke-opacity: 0.5; stroke-width: 2.5; stroke-linecap: square"/>
    </g>
    <g id="text_12">
     <!-- LeGO-LOAM -->
     <g transform="translate(372.8968 641.731996) scale(0.25 -0.25)">
      <defs>
       <path id="DejaVuSans-65" d="M 3597 1894 
L 3597 1613 
L 953 1613 
Q 991 1019 1311 708 
Q 1631 397 2203 397 
Q 2534 397 2845 478 
Q 3156 559 3463 722 
L 3463 178 
Q 3153 47 2828 -22 
Q 2503 -91 2169 -91 
Q 1331 -91 842 396 
Q 353 884 353 1716 
Q 353 2575 817 3079 
Q 1281 3584 2069 3584 
Q 2775 3584 3186 3129 
Q 3597 2675 3597 1894 
z
M 3022 2063 
Q 3016 2534 2758 2815 
Q 2500 3097 2075 3097 
Q 1594 3097 1305 2825 
Q 1016 2553 972 2059 
L 3022 2063 
z
" transform="scale(0.015625)"/>
       <path id="DejaVuSans-2d" d="M 313 2009 
L 1997 2009 
L 1997 1497 
L 313 1497 
L 313 2009 
z
" transform="scale(0.015625)"/>
      </defs>
      <use xlink:href="#DejaVuSans-4c"/>
      <use xlink:href="#DejaVuSans-65" x="53.962891"/>
      <use xlink:href="#DejaVuSans-47" x="115.486328"/>
      <use xlink:href="#DejaVuSans-4f" x="192.976562"/>
      <use xlink:href="#DejaVuSans-2d" x="274.4375"/>
      <use xlink:href="#DejaVuSans-4c" x="310.521484"/>
      <use xlink:href="#DejaVuSans-4f" x="362.609375"/>
      <use xlink:href="#DejaVuSans-41" x="439.570312"/>
      <use xlink:href="#DejaVuSans-4d" x="507.978516"/>
     </g>
    </g>
    <g id="line2d_23">
     <path d="M 302.8968 669.677309 
L 327.8968 669.677309 
L 352.8968 669.677309 
" style="fill: none; stroke: #ff6347; stroke-width: 2.5; stroke-linecap: square"/>
    </g>
    <g id="text_13">
     <!-- CT-ICP -->
     <g transform="translate(372.8968 678.427309) scale(0.25 -0.25)">
      <defs>
       <path id="DejaVuSans-43" d="M 4122 4306 
L 4122 3641 
Q 3803 3938 3442 4084 
Q 3081 4231 2675 4231 
Q 1875 4231 1450 3742 
Q 1025 3253 1025 2328 
Q 1025 1406 1450 917 
Q 1875 428 2675 428 
Q 3081 428 3442 575 
Q 3803 722 4122 1019 
L 4122 359 
Q 3791 134 3420 21 
Q 3050 -91 2638 -91 
Q 1578 -91 968 557 
Q 359 1206 359 2328 
Q 359 3453 968 4101 
Q 1578 4750 2638 4750 
Q 3056 4750 3426 4639 
Q 3797 4528 4122 4306 
z
" transform="scale(0.015625)"/>
       <path id="DejaVuSans-49" d="M 628 4666 
L 1259 4666 
L 1259 0 
L 628 0 
L 628 4666 
z
" transform="scale(0.015625)"/>
       <path id="DejaVuSans-50" d="M 1259 4147 
L 1259 2394 
L 2053 2394 
Q 2494 2394 2734 2622 
Q 2975 2850 2975 3272 
Q 2975 3691 2734 3919 
Q 2494 4147 2053 4147 
L 1259 4147 
z
M 628 4666 
L 2053 4666 
Q 2838 4666 3239 4311 
Q 3641 3956 3641 3272 
Q 3641 2581 3239 2228 
Q 2838 1875 2053 1875 
L 1259 1875 
L 1259 0 
L 628 0 
L 628 4666 
z
" transform="scale(0.015625)"/>
      </defs>
      <use xlink:href="#DejaVuSans-43"/>
      <use xlink:href="#DejaVuSans-54" x="69.824219"/>
      <use xlink:href="#DejaVuSans-2d" x="121.783203"/>
      <use xlink:href="#DejaVuSans-49" x="157.867188"/>
      <use xlink:href="#DejaVuSans-43" x="187.359375"/>
      <use xlink:href="#DejaVuSans-50" x="257.183594"/>
     </g>
    </g>
    <g id="line2d_24">
     <path d="M 302.8968 706.372621 
L 327.8968 706.372621 
L 352.8968 706.372621 
" style="fill: none; stroke: #d2b48c; stroke-opacity: 0.5; stroke-width: 2.5; stroke-linecap: square"/>
    </g>
    <g id="text_14">
     <!-- HDL-SLAM -->
     <g transform="translate(372.8968 715.122621) scale(0.25 -0.25)">
      <defs>
       <path id="DejaVuSans-48" d="M 628 4666 
L 1259 4666 
L 1259 2753 
L 3553 2753 
L 3553 4666 
L 4184 4666 
L 4184 0 
L 3553 0 
L 3553 2222 
L 1259 2222 
L 1259 0 
L 628 0 
L 628 4666 
z
" transform="scale(0.015625)"/>
       <path id="DejaVuSans-44" d="M 1259 4147 
L 1259 519 
L 2022 519 
Q 2988 519 3436 956 
Q 3884 1394 3884 2338 
Q 3884 3275 3436 3711 
Q 2988 4147 2022 4147 
L 1259 4147 
z
M 628 4666 
L 1925 4666 
Q 3281 4666 3915 4102 
Q 4550 3538 4550 2338 
Q 4550 1131 3912 565 
Q 3275 0 1925 0 
L 628 0 
L 628 4666 
z
" transform="scale(0.015625)"/>
       <path id="DejaVuSans-53" d="M 3425 4513 
L 3425 3897 
Q 3066 4069 2747 4153 
Q 2428 4238 2131 4238 
Q 1616 4238 1336 4038 
Q 1056 3838 1056 3469 
Q 1056 3159 1242 3001 
Q 1428 2844 1947 2747 
L 2328 2669 
Q 3034 2534 3370 2195 
Q 3706 1856 3706 1288 
Q 3706 609 3251 259 
Q 2797 -91 1919 -91 
Q 1588 -91 1214 -16 
Q 841 59 441 206 
L 441 856 
Q 825 641 1194 531 
Q 1563 422 1919 422 
Q 2459 422 2753 634 
Q 3047 847 3047 1241 
Q 3047 1584 2836 1778 
Q 2625 1972 2144 2069 
L 1759 2144 
Q 1053 2284 737 2584 
Q 422 2884 422 3419 
Q 422 4038 858 4394 
Q 1294 4750 2059 4750 
Q 2388 4750 2728 4690 
Q 3069 4631 3425 4513 
z
" transform="scale(0.015625)"/>
      </defs>
      <use xlink:href="#DejaVuSans-48"/>
      <use xlink:href="#DejaVuSans-44" x="75.195312"/>
      <use xlink:href="#DejaVuSans-4c" x="152.197266"/>
      <use xlink:href="#DejaVuSans-2d" x="206.160156"/>
      <use xlink:href="#DejaVuSans-53" x="242.244141"/>
      <use xlink:href="#DejaVuSans-4c" x="305.720703"/>
      <use xlink:href="#DejaVuSans-41" x="363.683594"/>
      <use xlink:href="#DejaVuSans-4d" x="432.091797"/>
     </g>
    </g>
   </g>
  </g>
 </g>
 <defs>
  <clipPath id="pc89efc8772">
   <rect x="230.4" y="109.6416" width="1428.48" height="703.5336"/>
  </clipPath>
 </defs>
</svg>
