<?xml version="1.0" encoding="utf-8" standalone="no"?>
<!DOCTYPE svg PUBLIC "-//W3C//DTD SVG 1.1//EN"
  "http://www.w3.org/Graphics/SVG/1.1/DTD/svg11.dtd">
<svg xmlns:xlink="http://www.w3.org/1999/xlink" width="1843.2pt" height="792pt" viewBox="0 0 1843.2 792" xmlns="http://www.w3.org/2000/svg" version="1.1">
 <metadata>
  <rdf:RDF xmlns:dc="http://purl.org/dc/elements/1.1/" xmlns:cc="http://creativecommons.org/ns#" xmlns:rdf="http://www.w3.org/1999/02/22-rdf-syntax-ns#">
   <cc:Work>
    <dc:type rdf:resource="http://purl.org/dc/dcmitype/StillImage"/>
    <dc:date>2024-03-18T14:29:08.659131</dc:date>
    <dc:format>image/svg+xml</dc:format>
    <dc:creator>
     <cc:Agent>
      <dc:title>Matplotlib v3.7.0, https://matplotlib.org/</dc:title>
     </cc:Agent>
    </dc:creator>
   </cc:Work>
  </rdf:RDF>
 </metadata>
 <defs>
  <style type="text/css">*{stroke-linejoin: round; stroke-linecap: butt}</style>
 </defs>
 <g id="figure_1">
  <g id="patch_1">
   <path d="M 0 792 
L 1843.2 792 
L 1843.2 0 
L 0 0 
z
" style="fill: #ffffff"/>
  </g>
  <g id="axes_1">
   <g id="patch_2">
    <path d="M 230.4 704.88 
L 1658.88 704.88 
L 1658.88 39.6 
L 230.4 39.6 
z
" style="fill: #ffffff"/>
   </g>
   <g id="matplotlib.axis_1">
    <g id="xtick_1">
     <g id="line2d_1">
      <path d="M 338.436303 704.88 
L 338.436303 39.6 
" clip-path="url(#p497a952305)" style="fill: none; stroke-dasharray: 2.96,1.28; stroke-dashoffset: 0; stroke: #b0b0b0; stroke-width: 0.8"/>
     </g>
     <g id="line2d_2">
      <defs>
       <path id="m37b74f6b49" d="M 0 0 
L 0 -5 
" style="stroke: #000000; stroke-width: 0.8"/>
      </defs>
      <g>
       <use xlink:href="#m37b74f6b49" x="338.436303" y="704.88" style="stroke: #000000; stroke-width: 0.8"/>
      </g>
     </g>
     <g id="text_1">
      <!-- 0 -->
      <g transform="translate(327.301928 746.474531) scale(0.35 -0.35)">
       <defs>
        <path id="DejaVuSans-30" d="M 2034 4250 
Q 1547 4250 1301 3770 
Q 1056 3291 1056 2328 
Q 1056 1369 1301 889 
Q 1547 409 2034 409 
Q 2525 409 2770 889 
Q 3016 1369 3016 2328 
Q 3016 3291 2770 3770 
Q 2525 4250 2034 4250 
z
M 2034 4750 
Q 2819 4750 3233 4129 
Q 3647 3509 3647 2328 
Q 3647 1150 3233 529 
Q 2819 -91 2034 -91 
Q 1250 -91 836 529 
Q 422 1150 422 2328 
Q 422 3509 836 4129 
Q 1250 4750 2034 4750 
z
" transform="scale(0.015625)"/>
       </defs>
       <use xlink:href="#DejaVuSans-30"/>
      </g>
     </g>
    </g>
    <g id="xtick_2">
     <g id="line2d_3">
      <path d="M 578.516975 704.88 
L 578.516975 39.6 
" clip-path="url(#p497a952305)" style="fill: none; stroke-dasharray: 2.96,1.28; stroke-dashoffset: 0; stroke: #b0b0b0; stroke-width: 0.8"/>
     </g>
     <g id="line2d_4">
      <g>
       <use xlink:href="#m37b74f6b49" x="578.516975" y="704.88" style="stroke: #000000; stroke-width: 0.8"/>
      </g>
     </g>
     <g id="text_2">
      <!-- 200 -->
      <g transform="translate(545.11385 746.474531) scale(0.35 -0.35)">
       <defs>
        <path id="DejaVuSans-32" d="M 1228 531 
L 3431 531 
L 3431 0 
L 469 0 
L 469 531 
Q 828 903 1448 1529 
Q 2069 2156 2228 2338 
Q 2531 2678 2651 2914 
Q 2772 3150 2772 3378 
Q 2772 3750 2511 3984 
Q 2250 4219 1831 4219 
Q 1534 4219 1204 4116 
Q 875 4013 500 3803 
L 500 4441 
Q 881 4594 1212 4672 
Q 1544 4750 1819 4750 
Q 2544 4750 2975 4387 
Q 3406 4025 3406 3419 
Q 3406 3131 3298 2873 
Q 3191 2616 2906 2266 
Q 2828 2175 2409 1742 
Q 1991 1309 1228 531 
z
" transform="scale(0.015625)"/>
       </defs>
       <use xlink:href="#DejaVuSans-32"/>
       <use xlink:href="#DejaVuSans-30" x="63.623047"/>
       <use xlink:href="#DejaVuSans-30" x="127.246094"/>
      </g>
     </g>
    </g>
    <g id="xtick_3">
     <g id="line2d_5">
      <path d="M 818.597647 704.88 
L 818.597647 39.6 
" clip-path="url(#p497a952305)" style="fill: none; stroke-dasharray: 2.96,1.28; stroke-dashoffset: 0; stroke: #b0b0b0; stroke-width: 0.8"/>
     </g>
     <g id="line2d_6">
      <g>
       <use xlink:href="#m37b74f6b49" x="818.597647" y="704.88" style="stroke: #000000; stroke-width: 0.8"/>
      </g>
     </g>
     <g id="text_3">
      <!-- 400 -->
      <g transform="translate(785.194522 746.474531) scale(0.35 -0.35)">
       <defs>
        <path id="DejaVuSans-34" d="M 2419 4116 
L 825 1625 
L 2419 1625 
L 2419 4116 
z
M 2253 4666 
L 3047 4666 
L 3047 1625 
L 3713 1625 
L 3713 1100 
L 3047 1100 
L 3047 0 
L 2419 0 
L 2419 1100 
L 313 1100 
L 313 1709 
L 2253 4666 
z
" transform="scale(0.015625)"/>
       </defs>
       <use xlink:href="#DejaVuSans-34"/>
       <use xlink:href="#DejaVuSans-30" x="63.623047"/>
       <use xlink:href="#DejaVuSans-30" x="127.246094"/>
      </g>
     </g>
    </g>
    <g id="xtick_4">
     <g id="line2d_7">
      <path d="M 1058.678319 704.88 
L 1058.678319 39.6 
" clip-path="url(#p497a952305)" style="fill: none; stroke-dasharray: 2.96,1.28; stroke-dashoffset: 0; stroke: #b0b0b0; stroke-width: 0.8"/>
     </g>
     <g id="line2d_8">
      <g>
       <use xlink:href="#m37b74f6b49" x="1058.678319" y="704.88" style="stroke: #000000; stroke-width: 0.8"/>
      </g>
     </g>
     <g id="text_4">
      <!-- 600 -->
      <g transform="translate(1025.275194 746.474531) scale(0.35 -0.35)">
       <defs>
        <path id="DejaVuSans-36" d="M 2113 2584 
Q 1688 2584 1439 2293 
Q 1191 2003 1191 1497 
Q 1191 994 1439 701 
Q 1688 409 2113 409 
Q 2538 409 2786 701 
Q 3034 994 3034 1497 
Q 3034 2003 2786 2293 
Q 2538 2584 2113 2584 
z
M 3366 4563 
L 3366 3988 
Q 3128 4100 2886 4159 
Q 2644 4219 2406 4219 
Q 1781 4219 1451 3797 
Q 1122 3375 1075 2522 
Q 1259 2794 1537 2939 
Q 1816 3084 2150 3084 
Q 2853 3084 3261 2657 
Q 3669 2231 3669 1497 
Q 3669 778 3244 343 
Q 2819 -91 2113 -91 
Q 1303 -91 875 529 
Q 447 1150 447 2328 
Q 447 3434 972 4092 
Q 1497 4750 2381 4750 
Q 2619 4750 2861 4703 
Q 3103 4656 3366 4563 
z
" transform="scale(0.015625)"/>
       </defs>
       <use xlink:href="#DejaVuSans-36"/>
       <use xlink:href="#DejaVuSans-30" x="63.623047"/>
       <use xlink:href="#DejaVuSans-30" x="127.246094"/>
      </g>
     </g>
    </g>
    <g id="xtick_5">
     <g id="line2d_9">
      <path d="M 1298.758992 704.88 
L 1298.758992 39.6 
" clip-path="url(#p497a952305)" style="fill: none; stroke-dasharray: 2.96,1.28; stroke-dashoffset: 0; stroke: #b0b0b0; stroke-width: 0.8"/>
     </g>
     <g id="line2d_10">
      <g>
       <use xlink:href="#m37b74f6b49" x="1298.758992" y="704.88" style="stroke: #000000; stroke-width: 0.8"/>
      </g>
     </g>
     <g id="text_5">
      <!-- 800 -->
      <g transform="translate(1265.355867 746.474531) scale(0.35 -0.35)">
       <defs>
        <path id="DejaVuSans-38" d="M 2034 2216 
Q 1584 2216 1326 1975 
Q 1069 1734 1069 1313 
Q 1069 891 1326 650 
Q 1584 409 2034 409 
Q 2484 409 2743 651 
Q 3003 894 3003 1313 
Q 3003 1734 2745 1975 
Q 2488 2216 2034 2216 
z
M 1403 2484 
Q 997 2584 770 2862 
Q 544 3141 544 3541 
Q 544 4100 942 4425 
Q 1341 4750 2034 4750 
Q 2731 4750 3128 4425 
Q 3525 4100 3525 3541 
Q 3525 3141 3298 2862 
Q 3072 2584 2669 2484 
Q 3125 2378 3379 2068 
Q 3634 1759 3634 1313 
Q 3634 634 3220 271 
Q 2806 -91 2034 -91 
Q 1263 -91 848 271 
Q 434 634 434 1313 
Q 434 1759 690 2068 
Q 947 2378 1403 2484 
z
M 1172 3481 
Q 1172 3119 1398 2916 
Q 1625 2713 2034 2713 
Q 2441 2713 2670 2916 
Q 2900 3119 2900 3481 
Q 2900 3844 2670 4047 
Q 2441 4250 2034 4250 
Q 1625 4250 1398 4047 
Q 1172 3844 1172 3481 
z
" transform="scale(0.015625)"/>
       </defs>
       <use xlink:href="#DejaVuSans-38"/>
       <use xlink:href="#DejaVuSans-30" x="63.623047"/>
       <use xlink:href="#DejaVuSans-30" x="127.246094"/>
      </g>
     </g>
    </g>
    <g id="xtick_6">
     <g id="line2d_11">
      <path d="M 1538.839664 704.88 
L 1538.839664 39.6 
" clip-path="url(#p497a952305)" style="fill: none; stroke-dasharray: 2.96,1.28; stroke-dashoffset: 0; stroke: #b0b0b0; stroke-width: 0.8"/>
     </g>
     <g id="line2d_12">
      <g>
       <use xlink:href="#m37b74f6b49" x="1538.839664" y="704.88" style="stroke: #000000; stroke-width: 0.8"/>
      </g>
     </g>
     <g id="text_6">
      <!-- 1000 -->
      <g transform="translate(1494.302164 746.474531) scale(0.35 -0.35)">
       <defs>
        <path id="DejaVuSans-31" d="M 794 531 
L 1825 531 
L 1825 4091 
L 703 3866 
L 703 4441 
L 1819 4666 
L 2450 4666 
L 2450 531 
L 3481 531 
L 3481 0 
L 794 0 
L 794 531 
z
" transform="scale(0.015625)"/>
       </defs>
       <use xlink:href="#DejaVuSans-31"/>
       <use xlink:href="#DejaVuSans-30" x="63.623047"/>
       <use xlink:href="#DejaVuSans-30" x="127.246094"/>
       <use xlink:href="#DejaVuSans-30" x="190.869141"/>
      </g>
     </g>
    </g>
    <g id="text_7">
     <!-- Time (s) -->
     <g transform="translate(885.481797 782.056563) scale(0.35 -0.35)">
      <defs>
       <path id="TimesNewRomanPSMT-54" d="M 3703 4238 
L 3750 3244 
L 3631 3244 
Q 3597 3506 3538 3619 
Q 3441 3800 3280 3886 
Q 3119 3972 2856 3972 
L 2259 3972 
L 2259 734 
Q 2259 344 2344 247 
Q 2463 116 2709 116 
L 2856 116 
L 2856 0 
L 1059 0 
L 1059 116 
L 1209 116 
Q 1478 116 1591 278 
Q 1659 378 1659 734 
L 1659 3972 
L 1150 3972 
Q 853 3972 728 3928 
Q 566 3869 450 3700 
Q 334 3531 313 3244 
L 194 3244 
L 244 4238 
L 3703 4238 
z
" transform="scale(0.015625)"/>
       <path id="TimesNewRomanPSMT-69" d="M 928 4444 
Q 1059 4444 1151 4351 
Q 1244 4259 1244 4128 
Q 1244 3997 1151 3903 
Q 1059 3809 928 3809 
Q 797 3809 703 3903 
Q 609 3997 609 4128 
Q 609 4259 701 4351 
Q 794 4444 928 4444 
z
M 1188 2947 
L 1188 647 
Q 1188 378 1227 289 
Q 1266 200 1342 156 
Q 1419 113 1622 113 
L 1622 0 
L 231 0 
L 231 113 
Q 441 113 512 153 
Q 584 194 626 287 
Q 669 381 669 647 
L 669 1750 
Q 669 2216 641 2353 
Q 619 2453 572 2492 
Q 525 2531 444 2531 
Q 356 2531 231 2484 
L 188 2597 
L 1050 2947 
L 1188 2947 
z
" transform="scale(0.015625)"/>
       <path id="TimesNewRomanPSMT-6d" d="M 1050 2338 
Q 1363 2650 1419 2697 
Q 1559 2816 1721 2881 
Q 1884 2947 2044 2947 
Q 2313 2947 2506 2790 
Q 2700 2634 2766 2338 
Q 3088 2713 3309 2830 
Q 3531 2947 3766 2947 
Q 3994 2947 4170 2830 
Q 4347 2713 4450 2447 
Q 4519 2266 4519 1878 
L 4519 647 
Q 4519 378 4559 278 
Q 4591 209 4675 161 
Q 4759 113 4950 113 
L 4950 0 
L 3538 0 
L 3538 113 
L 3597 113 
Q 3781 113 3884 184 
Q 3956 234 3988 344 
Q 4000 397 4000 647 
L 4000 1878 
Q 4000 2228 3916 2372 
Q 3794 2572 3525 2572 
Q 3359 2572 3192 2489 
Q 3025 2406 2788 2181 
L 2781 2147 
L 2788 2013 
L 2788 647 
Q 2788 353 2820 281 
Q 2853 209 2943 161 
Q 3034 113 3253 113 
L 3253 0 
L 1806 0 
L 1806 113 
Q 2044 113 2133 169 
Q 2222 225 2256 338 
Q 2272 391 2272 647 
L 2272 1878 
Q 2272 2228 2169 2381 
Q 2031 2581 1784 2581 
Q 1616 2581 1450 2491 
Q 1191 2353 1050 2181 
L 1050 647 
Q 1050 366 1089 281 
Q 1128 197 1204 155 
Q 1281 113 1516 113 
L 1516 0 
L 100 0 
L 100 113 
Q 297 113 375 155 
Q 453 197 493 289 
Q 534 381 534 647 
L 534 1741 
Q 534 2213 506 2350 
Q 484 2453 437 2492 
Q 391 2531 309 2531 
Q 222 2531 100 2484 
L 53 2597 
L 916 2947 
L 1050 2947 
L 1050 2338 
z
" transform="scale(0.015625)"/>
       <path id="TimesNewRomanPSMT-65" d="M 681 1784 
Q 678 1147 991 784 
Q 1303 422 1725 422 
Q 2006 422 2214 576 
Q 2422 731 2563 1106 
L 2659 1044 
Q 2594 616 2278 264 
Q 1963 -88 1488 -88 
Q 972 -88 605 314 
Q 238 716 238 1394 
Q 238 2128 614 2539 
Q 991 2950 1559 2950 
Q 2041 2950 2350 2633 
Q 2659 2316 2659 1784 
L 681 1784 
z
M 681 1966 
L 2006 1966 
Q 1991 2241 1941 2353 
Q 1863 2528 1708 2628 
Q 1553 2728 1384 2728 
Q 1125 2728 920 2526 
Q 716 2325 681 1966 
z
" transform="scale(0.015625)"/>
       <path id="TimesNewRomanPSMT-20" transform="scale(0.015625)"/>
       <path id="TimesNewRomanPSMT-28" d="M 1988 -1253 
L 1988 -1369 
Q 1516 -1131 1200 -813 
Q 750 -359 506 256 
Q 263 872 263 1534 
Q 263 2503 741 3301 
Q 1219 4100 1988 4444 
L 1988 4313 
Q 1603 4100 1356 3731 
Q 1109 3363 987 2797 
Q 866 2231 866 1616 
Q 866 947 969 400 
Q 1050 -31 1165 -292 
Q 1281 -553 1476 -793 
Q 1672 -1034 1988 -1253 
z
" transform="scale(0.015625)"/>
       <path id="TimesNewRomanPSMT-73" d="M 2050 2947 
L 2050 1972 
L 1947 1972 
Q 1828 2431 1642 2597 
Q 1456 2763 1169 2763 
Q 950 2763 815 2647 
Q 681 2531 681 2391 
Q 681 2216 781 2091 
Q 878 1963 1175 1819 
L 1631 1597 
Q 2266 1288 2266 781 
Q 2266 391 1970 151 
Q 1675 -88 1309 -88 
Q 1047 -88 709 6 
Q 606 38 541 38 
Q 469 38 428 -44 
L 325 -44 
L 325 978 
L 428 978 
Q 516 541 762 319 
Q 1009 97 1316 97 
Q 1531 97 1667 223 
Q 1803 350 1803 528 
Q 1803 744 1651 891 
Q 1500 1038 1047 1263 
Q 594 1488 453 1669 
Q 313 1847 313 2119 
Q 313 2472 555 2709 
Q 797 2947 1181 2947 
Q 1350 2947 1591 2875 
Q 1750 2828 1803 2828 
Q 1853 2828 1881 2850 
Q 1909 2872 1947 2947 
L 2050 2947 
z
" transform="scale(0.015625)"/>
       <path id="TimesNewRomanPSMT-29" d="M 144 4313 
L 144 4444 
Q 619 4209 934 3891 
Q 1381 3434 1625 2820 
Q 1869 2206 1869 1541 
Q 1869 572 1392 -226 
Q 916 -1025 144 -1369 
L 144 -1253 
Q 528 -1038 776 -670 
Q 1025 -303 1145 264 
Q 1266 831 1266 1447 
Q 1266 2113 1163 2663 
Q 1084 3094 967 3353 
Q 850 3613 656 3853 
Q 463 4094 144 4313 
z
" transform="scale(0.015625)"/>
      </defs>
      <use xlink:href="#TimesNewRomanPSMT-54"/>
      <use xlink:href="#TimesNewRomanPSMT-69" x="57.583984"/>
      <use xlink:href="#TimesNewRomanPSMT-6d" x="85.367188"/>
      <use xlink:href="#TimesNewRomanPSMT-65" x="163.150391"/>
      <use xlink:href="#TimesNewRomanPSMT-20" x="207.535156"/>
      <use xlink:href="#TimesNewRomanPSMT-28" x="232.535156"/>
      <use xlink:href="#TimesNewRomanPSMT-73" x="265.835938"/>
      <use xlink:href="#TimesNewRomanPSMT-29" x="304.751953"/>
     </g>
    </g>
   </g>
   <g id="matplotlib.axis_2">
    <g id="ytick_1">
     <g id="line2d_13">
      <path d="M 230.4 594 
L 1658.88 594 
" clip-path="url(#p497a952305)" style="fill: none; stroke-dasharray: 2.96,1.28; stroke-dashoffset: 0; stroke: #b0b0b0; stroke-width: 0.8"/>
     </g>
     <g id="line2d_14">
      <defs>
       <path id="mf5fa1d3e10" d="M 0 0 
L 5 0 
" style="stroke: #000000; stroke-width: 0.8"/>
      </defs>
      <g>
       <use xlink:href="#mf5fa1d3e10" x="230.4" y="594" style="stroke: #000000; stroke-width: 0.8"/>
      </g>
     </g>
     <g id="text_8">
      <!-- −1 -->
      <g transform="translate(163.802344 607.297266) scale(0.35 -0.35)">
       <defs>
        <path id="DejaVuSans-2212" d="M 678 2272 
L 4684 2272 
L 4684 1741 
L 678 1741 
L 678 2272 
z
" transform="scale(0.015625)"/>
       </defs>
       <use xlink:href="#DejaVuSans-2212"/>
       <use xlink:href="#DejaVuSans-31" x="83.789062"/>
      </g>
     </g>
    </g>
    <g id="ytick_2">
     <g id="line2d_15">
      <path d="M 230.4 372.24 
L 1658.88 372.24 
" clip-path="url(#p497a952305)" style="fill: none; stroke-dasharray: 2.96,1.28; stroke-dashoffset: 0; stroke: #b0b0b0; stroke-width: 0.8"/>
     </g>
     <g id="line2d_16">
      <g>
       <use xlink:href="#mf5fa1d3e10" x="230.4" y="372.24" style="stroke: #000000; stroke-width: 0.8"/>
      </g>
     </g>
     <g id="text_9">
      <!-- 0 -->
      <g transform="translate(193.13125 385.537266) scale(0.35 -0.35)">
       <use xlink:href="#DejaVuSans-30"/>
      </g>
     </g>
    </g>
    <g id="ytick_3">
     <g id="line2d_17">
      <path d="M 230.4 150.48 
L 1658.88 150.48 
" clip-path="url(#p497a952305)" style="fill: none; stroke-dasharray: 2.96,1.28; stroke-dashoffset: 0; stroke: #b0b0b0; stroke-width: 0.8"/>
     </g>
     <g id="line2d_18">
      <g>
       <use xlink:href="#mf5fa1d3e10" x="230.4" y="150.48" style="stroke: #000000; stroke-width: 0.8"/>
      </g>
     </g>
     <g id="text_10">
      <!-- 1 -->
      <g transform="translate(193.13125 163.777266) scale(0.35 -0.35)">
       <use xlink:href="#DejaVuSans-31"/>
      </g>
     </g>
    </g>
    <g id="text_11">
     <!-- Error (m) -->
     <g transform="translate(152.315625 438.800156) rotate(-90) scale(0.35 -0.35)">
      <defs>
       <path id="TimesNewRomanPSMT-45" d="M 1338 4006 
L 1338 2331 
L 2269 2331 
Q 2631 2331 2753 2441 
Q 2916 2584 2934 2947 
L 3050 2947 
L 3050 1472 
L 2934 1472 
Q 2891 1781 2847 1869 
Q 2791 1978 2662 2040 
Q 2534 2103 2269 2103 
L 1338 2103 
L 1338 706 
Q 1338 425 1363 364 
Q 1388 303 1450 267 
Q 1513 231 1688 231 
L 2406 231 
Q 2766 231 2928 281 
Q 3091 331 3241 478 
Q 3434 672 3638 1063 
L 3763 1063 
L 3397 0 
L 131 0 
L 131 116 
L 281 116 
Q 431 116 566 188 
Q 666 238 702 338 
Q 738 438 738 747 
L 738 3500 
Q 738 3903 656 3997 
Q 544 4122 281 4122 
L 131 4122 
L 131 4238 
L 3397 4238 
L 3444 3309 
L 3322 3309 
Q 3256 3644 3176 3769 
Q 3097 3894 2941 3959 
Q 2816 4006 2500 4006 
L 1338 4006 
z
" transform="scale(0.015625)"/>
       <path id="TimesNewRomanPSMT-72" d="M 1038 2947 
L 1038 2303 
Q 1397 2947 1775 2947 
Q 1947 2947 2059 2842 
Q 2172 2738 2172 2600 
Q 2172 2478 2090 2393 
Q 2009 2309 1897 2309 
Q 1788 2309 1652 2417 
Q 1516 2525 1450 2525 
Q 1394 2525 1328 2463 
Q 1188 2334 1038 2041 
L 1038 669 
Q 1038 431 1097 309 
Q 1138 225 1241 169 
Q 1344 113 1538 113 
L 1538 0 
L 72 0 
L 72 113 
Q 291 113 397 181 
Q 475 231 506 341 
Q 522 394 522 644 
L 522 1753 
Q 522 2253 501 2348 
Q 481 2444 426 2487 
Q 372 2531 291 2531 
Q 194 2531 72 2484 
L 41 2597 
L 906 2947 
L 1038 2947 
z
" transform="scale(0.015625)"/>
       <path id="TimesNewRomanPSMT-6f" d="M 1600 2947 
Q 2250 2947 2644 2453 
Q 2978 2031 2978 1484 
Q 2978 1100 2793 706 
Q 2609 313 2286 112 
Q 1963 -88 1566 -88 
Q 919 -88 538 428 
Q 216 863 216 1403 
Q 216 1797 411 2186 
Q 606 2575 925 2761 
Q 1244 2947 1600 2947 
z
M 1503 2744 
Q 1338 2744 1170 2645 
Q 1003 2547 900 2300 
Q 797 2053 797 1666 
Q 797 1041 1045 587 
Q 1294 134 1700 134 
Q 2003 134 2200 384 
Q 2397 634 2397 1244 
Q 2397 2006 2069 2444 
Q 1847 2744 1503 2744 
z
" transform="scale(0.015625)"/>
      </defs>
      <use xlink:href="#TimesNewRomanPSMT-45"/>
      <use xlink:href="#TimesNewRomanPSMT-72" x="61.083984"/>
      <use xlink:href="#TimesNewRomanPSMT-72" x="94.384766"/>
      <use xlink:href="#TimesNewRomanPSMT-6f" x="127.685547"/>
      <use xlink:href="#TimesNewRomanPSMT-72" x="177.685547"/>
      <use xlink:href="#TimesNewRomanPSMT-20" x="210.986328"/>
      <use xlink:href="#TimesNewRomanPSMT-28" x="235.986328"/>
      <use xlink:href="#TimesNewRomanPSMT-6d" x="269.287109"/>
      <use xlink:href="#TimesNewRomanPSMT-29" x="347.070312"/>
     </g>
    </g>
   </g>
   <g id="line2d_19">
    <path d="M 338.436303 372.24 
L 340.837109 371.95112 
L 346.839126 372.104358 
L 349.239933 371.749739 
L 351.640739 371.788349 
L 352.841143 372.13213 
L 355.24195 372.003894 
L 362.44437 372.196018 
L 366.04558 371.590213 
L 368.446387 371.414111 
L 373.248 372.073758 
L 375.648807 371.881929 
L 378.049613 370.708388 
L 379.250017 371.988803 
L 381.650824 370.952184 
L 384.05163 371.372843 
L 386.452437 372.237012 
L 388.853244 372.232041 
L 391.25405 370.987818 
L 393.654857 370.899628 
L 397.256067 372.213837 
L 398.456471 372.138617 
L 402.057681 371.073655 
L 403.258084 371.825873 
L 406.859294 372.150715 
L 408.059697 371.906027 
L 411.660908 370.202262 
L 414.061714 371.967277 
L 415.262118 371.188078 
L 418.863328 372.155199 
L 432.067765 370.965121 
L 435.668975 371.753145 
L 436.869378 370.807494 
L 439.270185 370.712631 
L 441.670992 370.933994 
L 444.071798 371.406438 
L 446.472605 372.120156 
L 448.873412 371.967774 
L 451.274218 372.18628 
L 453.675025 372.090714 
L 456.075832 371.840049 
L 458.476639 372.109804 
L 460.877445 371.900364 
L 463.278252 372.223058 
L 475.282286 371.991101 
L 480.083899 372.178602 
L 482.484706 372.225863 
L 484.885513 372.014328 
L 487.286319 371.934099 
L 492.087933 371.459707 
L 494.488739 372.124298 
L 496.889546 372.230106 
L 499.290353 371.961749 
L 501.69116 371.880287 
L 504.091966 371.98567 
L 506.492773 371.70774 
L 511.294387 372.049135 
L 513.695193 371.486289 
L 518.496807 372.079773 
L 520.897613 372.056556 
L 523.29842 372.186726 
L 528.100034 371.976369 
L 530.50084 371.958875 
L 532.901647 372.207419 
L 535.302454 372.234973 
L 537.703261 372.127233 
L 542.504874 372.235135 
L 544.905681 371.54428 
L 546.106084 372.228346 
L 549.707294 371.685826 
L 553.308504 372.151741 
L 559.310521 372.220617 
L 560.510924 371.797359 
L 562.911731 371.343341 
L 565.312538 371.281957 
L 567.713345 369.762888 
L 571.314555 370.170621 
L 572.514958 371.974768 
L 574.915765 370.429445 
L 578.516975 372.185719 
L 580.917782 370.602475 
L 582.118185 371.74953 
L 586.919798 371.908519 
L 590.521008 371.577912 
L 592.921815 372.205351 
L 594.122218 371.467405 
L 597.723429 370.570887 
L 600.124235 369.669812 
L 601.324639 370.926598 
L 603.725445 371.390016 
L 607.326655 369.954577 
L 608.527059 372.182487 
L 610.927866 368.703445 
L 613.328672 368.943118 
L 615.729479 372.149854 
L 618.130286 371.509121 
L 621.731496 371.894417 
L 624.132303 371.889067 
L 625.332706 371.283667 
L 626.533109 372.222049 
L 627.733513 371.61455 
L 627.733513 372.118897 
L 628.933916 371.979397 
L 631.334723 370.986069 
L 633.735529 372.06236 
L 633.735529 371.595367 
L 636.136336 372.032409 
L 636.136336 371.453802 
L 638.537143 372.194315 
L 638.537143 371.790159 
L 639.737546 371.691615 
L 642.138353 372.164334 
L 644.53916 371.860468 
L 645.739563 372.13544 
L 645.739563 372.104075 
L 649.340773 371.020067 
L 649.340773 370.774212 
L 650.541176 371.534306 
L 652.941983 370.698792 
L 654.142387 370.744851 
L 655.34279 372.220262 
L 656.543193 371.73911 
L 656.543193 371.937434 
L 658.944 370.607178 
L 658.944 363.991121 
L 661.344807 368.993955 
L 661.344807 371.169938 
L 662.54521 371.980198 
L 663.745613 371.811441 
L 664.946017 371.313732 
L 664.946017 372.205894 
L 666.14642 371.553419 
L 667.346824 371.611505 
L 668.547227 370.037414 
L 669.74763 370.743123 
L 670.948034 372.217018 
L 673.34884 371.030308 
L 674.549244 370.759447 
L 675.749647 371.680159 
L 676.95005 369.133374 
L 676.95005 367.113046 
L 679.350857 371.953215 
L 681.751664 371.723377 
L 684.152471 371.663604 
L 685.352874 370.245516 
L 685.352874 370.561208 
L 686.553277 371.823456 
L 687.753681 372.063585 
L 690.154487 371.407835 
L 691.354891 372.209561 
L 691.354891 372.103124 
L 693.755697 371.480883 
L 693.755697 370.500348 
L 696.156504 371.980704 
L 696.156504 372.137132 
L 697.356908 371.538835 
L 698.557311 370.737032 
L 699.757714 370.764874 
L 702.158521 370.422574 
L 703.358924 372.066043 
L 704.559328 371.331741 
L 704.559328 371.051852 
L 705.759731 369.700404 
L 708.160538 370.834971 
L 709.360941 371.152562 
L 710.561345 371.133871 
L 711.761748 370.796822 
L 712.962151 371.654253 
L 714.162555 371.275527 
L 715.362958 371.888657 
L 715.362958 371.624051 
L 716.563361 371.165129 
L 718.964168 371.982857 
L 720.164571 372.085841 
L 721.364975 370.853891 
L 722.565378 371.553793 
L 723.765782 371.284896 
L 723.765782 371.560221 
L 724.966185 371.531755 
L 726.166588 371.327618 
L 727.366992 370.830921 
L 729.767798 372.158737 
L 729.767798 370.622774 
L 730.968202 371.623717 
L 732.168605 372.027073 
L 733.369008 372.104738 
L 734.569412 371.614025 
L 735.769815 372.123776 
L 738.170622 369.703581 
L 738.170622 369.802147 
L 740.571429 371.376668 
L 741.771832 371.69913 
L 741.771832 371.942884 
L 744.172639 370.524489 
L 744.172639 369.463041 
L 745.373042 371.468717 
L 747.773849 371.906293 
L 748.974252 371.586353 
L 750.174655 371.72182 
L 751.375059 372.146251 
L 752.575462 371.517283 
L 752.575462 370.523325 
L 753.775866 371.944751 
L 756.176672 371.575304 
L 756.176672 371.854107 
L 757.377076 372.048842 
L 758.577479 371.787937 
L 759.777882 371.784863 
L 762.178689 369.814078 
L 762.178689 370.052116 
L 763.379092 372.150224 
L 764.579496 371.996918 
L 766.980303 371.122673 
L 768.180706 371.37676 
L 768.180706 370.479876 
L 769.381109 371.056881 
L 771.781916 371.788785 
L 772.982319 371.830749 
L 772.982319 371.46771 
L 774.182723 371.23138 
L 776.583529 370.610739 
L 777.783933 371.768406 
L 777.783933 370.677796 
L 780.184739 370.585406 
L 781.385143 370.998299 
L 781.385143 370.293888 
L 782.585546 371.100189 
L 783.78595 372.083555 
L 786.186756 370.372769 
L 787.38716 370.904455 
L 788.587563 370.832247 
L 789.787966 371.266404 
L 790.98837 371.228625 
L 792.188773 372.190898 
L 793.389176 371.78132 
L 794.58958 371.972188 
L 795.789983 370.709588 
L 796.990387 371.666313 
L 798.19079 372.139143 
L 799.391193 372.076002 
L 799.391193 371.451308 
L 800.591597 371.473615 
L 801.792 372.128086 
L 804.192807 371.846439 
L 805.39321 370.620157 
L 806.593613 370.895477 
L 807.794017 371.591651 
L 810.194824 371.005679 
L 811.395227 371.968918 
L 812.59563 371.805209 
L 814.996437 370.169205 
L 816.19684 372.042112 
L 819.79805 371.962155 
L 820.998454 370.718497 
L 823.399261 370.646592 
L 825.800067 370.382566 
L 827.000471 369.128532 
L 829.401277 372.138851 
L 831.802084 372.044454 
L 834.202891 370.161706 
L 836.603697 369.937758 
L 837.804101 370.695821 
L 840.204908 371.294825 
L 842.605714 370.618173 
L 845.006521 371.418618 
L 847.407328 371.44087 
L 849.808134 372.013622 
L 851.008538 371.385772 
L 853.409345 372.059395 
L 854.609748 371.45776 
L 857.010555 370.61816 
L 858.210958 371.941622 
L 860.611765 371.456168 
L 861.812168 371.922206 
L 864.212975 371.908886 
L 866.613782 371.513542 
L 869.014588 372.156006 
L 872.615798 371.175538 
L 873.816202 372.190667 
L 876.217008 371.140886 
L 878.617815 371.641746 
L 885.820235 372.001283 
L 887.020639 370.348223 
L 889.421445 368.296684 
L 890.621849 368.044797 
L 891.822252 371.590336 
L 893.022655 371.625032 
L 894.223059 370.919914 
L 895.423462 371.433692 
L 896.623866 372.239467 
L 901.425479 369.40527 
L 903.826286 372.195999 
L 906.227092 372.085118 
L 908.627899 372.1583 
L 911.028706 371.945827 
L 913.429513 372.092116 
L 915.830319 370.760256 
L 918.231126 369.789265 
L 919.431529 369.124306 
L 920.631933 371.089253 
L 926.63395 370.940154 
L 929.034756 372.038552 
L 930.23516 372.160261 
L 932.635966 371.536738 
L 936.237176 369.397823 
L 938.637983 369.730118 
L 939.838387 371.796182 
L 944.64 369.618256 
L 948.24121 369.807674 
L 949.441613 371.193435 
L 951.84242 370.430303 
L 955.44363 371.192076 
L 956.644034 371.810342 
L 959.04484 371.297006 
L 961.445647 371.266703 
L 963.846454 371.117341 
L 966.247261 372.146529 
L 968.648067 369.747757 
L 971.048874 368.712902 
L 973.449681 369.342265 
L 975.850487 370.687018 
L 977.050891 367.313752 
L 980.652101 366.056491 
L 981.852504 368.841495 
L 984.253311 370.231547 
L 986.654118 372.112904 
L 989.054924 370.587672 
L 991.455731 372.007685 
L 995.056941 370.926087 
L 997.457748 372.128356 
L 999.858555 371.889703 
L 1007.060975 371.673452 
L 1009.461782 371.738748 
L 1010.662185 372.008678 
L 1015.463798 371.130992 
L 1020.265412 371.216376 
L 1022.666218 371.818092 
L 1025.067025 371.890363 
L 1026.267429 369.504686 
L 1028.668235 371.96417 
L 1031.069042 371.053084 
L 1033.469849 371.05739 
L 1035.870655 372.077893 
L 1037.071059 369.811416 
L 1039.471866 370.563245 
L 1041.872672 372.025407 
L 1044.273479 372.113498 
L 1049.075092 372.131739 
L 1051.475899 372.141236 
L 1053.876706 371.741564 
L 1056.277513 371.842651 
L 1058.678319 372.087596 
L 1061.079126 372.011582 
L 1065.880739 371.660068 
L 1068.281546 371.958808 
L 1073.08316 372.131587 
L 1080.28558 372.093098 
L 1082.686387 372.212328 
L 1089.888807 371.756198 
L 1097.091227 372.229171 
L 1099.492034 372.110515 
L 1101.89284 371.616787 
L 1104.293647 371.693134 
L 1106.694454 371.260986 
L 1109.095261 371.507808 
L 1111.496067 371.41216 
L 1113.896874 372.01217 
L 1116.297681 372.128703 
L 1118.698487 371.771874 
L 1121.099294 372.194691 
L 1123.500101 371.839781 
L 1125.900908 372.139061 
L 1128.301714 371.046293 
L 1130.702521 370.50791 
L 1133.103328 371.650071 
L 1135.504134 371.489559 
L 1137.904941 371.589254 
L 1140.305748 370.764794 
L 1141.506151 371.190265 
L 1145.107361 371.940093 
L 1146.307765 370.071536 
L 1148.708571 370.10573 
L 1152.309782 368.173604 
L 1154.710588 372.238377 
L 1154.710588 372.197152 
L 1155.910992 368.774804 
L 1158.311798 369.446275 
L 1161.913008 370.188901 
L 1163.113412 371.936059 
L 1164.313815 371.258438 
L 1166.714622 370.581461 
L 1169.115429 370.830905 
L 1172.716639 370.79841 
L 1173.917042 368.621308 
L 1177.518252 369.284194 
L 1179.919059 367.108804 
L 1181.119462 370.64213 
L 1184.720672 368.468838 
L 1185.921076 368.915848 
L 1189.522286 371.317332 
L 1191.923092 370.323237 
L 1193.123496 370.687661 
L 1195.524303 366.864223 
L 1199.125513 368.882414 
L 1201.526319 371.153719 
L 1202.726723 371.590818 
L 1208.728739 371.62985 
L 1211.129546 371.504293 
L 1212.32995 369.70896 
L 1214.730756 368.649608 
L 1217.131563 371.405761 
L 1220.732773 371.135529 
L 1221.933176 371.241324 
L 1224.333983 372.067361 
L 1227.935193 371.627434 
L 1230.336 370.884269 
L 1232.736807 369.78687 
L 1235.137613 372.115752 
L 1237.53842 371.763798 
L 1238.738824 368.731604 
L 1241.13963 366.747727 
L 1244.74084 372.168829 
L 1247.141647 371.258041 
L 1248.34205 371.877721 
L 1253.143664 371.242753 
L 1255.544471 371.318432 
L 1257.945277 370.740066 
L 1260.346084 366.829464 
L 1263.947294 371.336026 
L 1266.348101 366.73414 
L 1267.548504 370.938649 
L 1269.949311 370.637734 
L 1272.350118 371.011639 
L 1275.951328 368.151607 
L 1278.352134 367.277335 
L 1279.552538 371.351007 
L 1281.953345 364.893104 
L 1285.554555 365.709319 
L 1287.955361 372.105169 
L 1290.356168 369.465156 
L 1292.756975 370.660249 
L 1293.957378 370.812301 
L 1297.558588 372.20501 
L 1299.959395 367.532884 
L 1302.360202 369.740416 
L 1304.761008 371.179707 
L 1307.161815 369.757388 
L 1308.362218 372.229944 
L 1310.763025 370.156215 
L 1311.963429 371.109582 
L 1315.564639 372.143653 
L 1317.965445 372.234008 
L 1320.366252 372.19759 
L 1322.767059 370.957007 
L 1325.167866 371.362428 
L 1326.368269 369.756818 
L 1328.769076 371.511379 
L 1331.169882 371.752695 
L 1332.370286 370.287878 
L 1335.971496 371.055751 
L 1337.171899 371.584256 
L 1339.572706 370.132479 
L 1341.973513 371.344048 
L 1344.374319 369.614248 
L 1346.775126 371.811061 
L 1349.175933 371.870873 
L 1351.576739 370.819632 
L 1353.977546 371.022004 
L 1357.578756 372.162247 
L 1358.77916 370.476637 
L 1362.38037 369.369101 
L 1364.781176 371.807414 
L 1367.181983 369.544753 
L 1369.58279 370.020046 
L 1371.983597 370.197841 
L 1373.184 371.733866 
L 1375.584807 371.711658 
L 1379.186017 369.982074 
L 1381.586824 372.0358 
L 1383.98763 371.819181 
L 1386.388437 368.035743 
L 1387.58884 370.539698 
L 1388.789244 369.890501 
L 1388.789244 371.069011 
L 1389.989647 371.730608 
L 1392.390454 370.265754 
L 1392.390454 369.161868 
L 1393.590857 370.601682 
L 1395.991664 371.930943 
L 1397.192067 371.718709 
L 1398.392471 371.791315 
L 1399.592874 371.519507 
L 1400.793277 371.910972 
L 1400.793277 369.589366 
L 1403.194084 371.015321 
L 1404.394487 370.038644 
L 1405.594891 370.735514 
L 1405.594891 369.532173 
L 1407.995697 370.027102 
L 1409.196101 372.15237 
L 1409.196101 371.873869 
L 1410.396504 372.225357 
L 1412.797311 370.860504 
L 1413.997714 371.678454 
L 1415.198118 371.514836 
L 1416.398521 370.935174 
L 1416.398521 368.435399 
L 1418.799328 368.751269 
L 1418.799328 369.707356 
L 1419.999731 369.103115 
L 1421.200134 371.810799 
L 1422.400538 371.12568 
L 1424.801345 370.166304 
L 1424.801345 372.114096 
L 1428.402555 372.039635 
L 1428.402555 371.337085 
L 1429.602958 371.867228 
L 1432.003765 372.178345 
L 1433.204168 371.77027 
L 1435.604975 372.118838 
L 1438.005782 372.023785 
L 1438.005782 371.805307 
L 1441.606992 372.220623 
L 1444.007798 372.056297 
L 1446.408605 371.732207 
L 1447.609008 371.909821 
L 1447.609008 372.088654 
L 1448.809412 370.620176 
L 1450.009815 370.485429 
L 1451.210218 371.888628 
L 1453.611025 371.558038 
L 1454.811429 371.580874 
L 1454.811429 369.596543 
L 1456.011832 371.020933 
L 1457.212235 371.382696 
L 1458.412639 372.072145 
L 1459.613042 371.978163 
L 1462.013849 371.467332 
L 1462.013849 371.963446 
L 1464.414655 370.365202 
L 1465.615059 370.369185 
L 1466.815462 371.484103 
L 1468.015866 371.958548 
L 1469.216269 370.982588 
L 1471.617076 369.90477 
L 1472.817479 372.012605 
L 1472.817479 370.901601 
L 1474.017882 371.922564 
L 1476.418689 372.177756 
L 1477.619092 371.164998 
L 1478.819496 371.859261 
L 1478.819496 370.281202 
L 1480.019899 371.559298 
L 1481.220303 370.66858 
L 1483.621109 371.871576 
L 1484.821513 371.187058 
L 1484.821513 370.83246 
L 1487.222319 372.187452 
L 1487.222319 372.086264 
L 1490.823529 372.051813 
L 1490.823529 371.908667 
L 1493.224336 370.472579 
L 1494.424739 372.22334 
L 1498.02595 371.947255 
L 1499.226353 372.224032 
L 1501.62716 372.10051 
L 1502.827563 371.716713 
L 1505.22837 372.121644 
L 1506.428773 372.001649 
L 1507.629176 372.197033 
L 1510.029983 372.117715 
L 1511.230387 371.681495 
L 1516.032 372.196356 
L 1517.232403 372.061005 
L 1518.432807 372.050975 
L 1519.63321 372.224611 
L 1520.833613 371.842585 
L 1522.034017 371.761505 
L 1523.23442 372.031385 
L 1524.434824 371.814437 
L 1525.635227 371.897075 
L 1526.83563 371.416957 
L 1528.036034 371.366563 
L 1529.236437 369.810761 
L 1530.43684 371.267088 
L 1531.637244 372.08603 
L 1532.837647 371.864349 
L 1534.03805 372.139343 
L 1536.438857 371.594224 
L 1537.639261 372.239927 
L 1538.839664 372.221762 
L 1540.040067 371.597751 
L 1541.240471 372.127361 
L 1542.440874 372.070564 
L 1543.641277 372.13301 
L 1544.841681 370.723712 
L 1546.042084 370.210139 
L 1547.242487 371.607127 
L 1548.442891 372.116754 
L 1549.643294 372.016666 
L 1550.843697 371.175307 
L 1552.044101 370.762396 
L 1553.244504 371.997283 
L 1555.645311 371.892499 
L 1558.046118 372.21903 
L 1559.246521 371.77068 
L 1560.446924 370.106388 
L 1561.647328 371.368102 
L 1562.847731 368.150374 
L 1564.048134 371.371919 
L 1565.248538 371.780617 
L 1566.448941 371.547176 
L 1567.649345 371.106484 
L 1568.849748 372.063114 
L 1570.050151 371.663385 
L 1571.250555 370.895595 
L 1572.450958 371.395141 
L 1572.450958 371.706398 
L 1573.651361 371.507301 
L 1576.052168 372.183566 
L 1576.052168 371.36762 
L 1578.452975 370.955633 
L 1579.653378 371.388289 
L 1580.853782 369.790146 
L 1582.054185 370.550815 
L 1582.054185 372.062466 
L 1583.254588 371.033315 
L 1585.655395 368.319643 
L 1586.855798 371.775864 
L 1588.056202 370.055757 
L 1589.256605 371.30962 
L 1589.256605 368.947866 
L 1590.457008 370.12303 
L 1591.657412 368.526042 
L 1592.857815 371.747371 
L 1595.258622 369.822753 
L 1596.459025 369.727989 
L 1598.859832 372.0765 
L 1601.260639 371.472168 
L 1603.661445 372.098148 
L 1606.062252 371.733881 
L 1608.463059 372.160208 
L 1609.663462 372.08456 
L 1612.064269 372.133336 
L 1614.465076 371.620116 
L 1616.865882 371.902056 
L 1618.066286 368.694747 
L 1620.467092 368.880562 
L 1620.467092 368.880562 
" clip-path="url(#p497a952305)" style="fill: none; stroke: #00ff00; stroke-width: 3; stroke-linecap: square"/>
   </g>
   <g id="line2d_20">
    <path d="M 338.436303 372.24 
L 340.837109 372.218574 
L 343.237916 371.975787 
L 346.839126 372.134036 
L 349.239933 371.768181 
L 352.841143 372.183749 
L 355.24195 371.833065 
L 357.642756 372.119323 
L 362.44437 371.96013 
L 366.04558 372.201584 
L 368.446387 371.990684 
L 370.847193 372.22385 
L 373.248 372.199763 
L 375.648807 371.546001 
L 378.049613 370.238402 
L 379.250017 371.35542 
L 381.650824 370.315026 
L 384.05163 370.533772 
L 386.452437 371.135203 
L 388.853244 371.231785 
L 391.25405 372.100564 
L 397.256067 371.029369 
L 398.456471 372.046181 
L 402.057681 372.061218 
L 403.258084 372.196607 
L 406.859294 372.230148 
L 408.059697 370.419345 
L 411.660908 370.679683 
L 414.061714 371.811756 
L 415.262118 372.205505 
L 418.863328 372.211763 
L 420.063731 371.886196 
L 422.464538 371.887653 
L 424.865345 371.546746 
L 427.266151 372.067199 
L 429.666958 370.173466 
L 432.067765 371.82155 
L 435.668975 369.741541 
L 436.869378 371.993638 
L 439.270185 369.472281 
L 441.670992 369.112391 
L 444.071798 371.911029 
L 448.873412 372.224381 
L 451.274218 372.204007 
L 453.675025 371.930964 
L 456.075832 372.0699 
L 468.079866 372.158046 
L 472.881479 371.848059 
L 475.282286 372.1183 
L 480.083899 372.228854 
L 489.687126 372.236171 
L 492.087933 371.957046 
L 494.488739 372.092769 
L 499.290353 372.196373 
L 501.69116 371.995168 
L 506.492773 372.091107 
L 508.89358 372.195304 
L 511.294387 372.139028 
L 513.695193 371.89793 
L 516.096 372.186595 
L 523.29842 372.117481 
L 525.699227 372.201167 
L 530.50084 372.069218 
L 535.302454 372.215677 
L 537.703261 372.090454 
L 540.104067 372.222294 
L 544.905681 372.041434 
L 546.106084 372.215658 
L 549.707294 371.333793 
L 552.108101 371.911965 
L 553.308504 371.301118 
L 555.709311 371.941873 
L 559.310521 371.647277 
L 560.510924 370.208149 
L 562.911731 371.639339 
L 565.312538 371.502208 
L 567.713345 370.930672 
L 571.314555 371.940672 
L 572.514958 371.781227 
L 574.915765 372.166697 
L 578.516975 370.643517 
L 580.917782 371.780244 
L 582.118185 370.920207 
L 585.719395 370.533293 
L 586.919798 369.825695 
L 590.521008 370.388112 
L 594.122218 368.370892 
L 597.723429 369.951009 
L 600.124235 368.857995 
L 601.324639 371.319659 
L 603.725445 370.641436 
L 607.326655 369.769502 
L 608.527059 370.778345 
L 610.927866 371.54748 
L 613.328672 371.508232 
L 615.729479 372.216413 
L 618.130286 371.910993 
L 621.731496 372.075533 
L 624.132303 371.694187 
L 627.733513 372.155392 
L 627.733513 371.992615 
L 628.933916 372.144496 
L 631.334723 371.359833 
L 632.535126 371.263413 
L 633.735529 370.5913 
L 633.735529 368.261399 
L 636.136336 369.78704 
L 636.136336 371.687349 
L 638.537143 371.696068 
L 638.537143 369.922835 
L 639.737546 371.88588 
L 642.138353 370.672275 
L 643.338756 371.303392 
L 645.739563 372.161917 
L 645.739563 371.730939 
L 646.939966 372.153108 
L 649.340773 371.066586 
L 649.340773 370.418773 
L 650.541176 371.910457 
L 652.941983 370.30249 
L 654.142387 371.634018 
L 655.34279 371.985388 
L 656.543193 370.382676 
L 658.944 371.282765 
L 658.944 370.974329 
L 661.344807 366.577465 
L 661.344807 368.258729 
L 662.54521 369.946493 
L 663.745613 369.469916 
L 664.946017 372.140409 
L 666.14642 371.184351 
L 667.346824 371.35156 
L 668.547227 370.187549 
L 669.74763 371.04689 
L 670.948034 372.148587 
L 673.34884 371.462055 
L 674.549244 372.01421 
L 675.749647 372.072433 
L 676.95005 371.185435 
L 676.95005 370.983598 
L 679.350857 370.931018 
L 680.551261 372.089791 
L 681.751664 371.26746 
L 684.152471 370.79659 
L 685.352874 371.207346 
L 685.352874 368.88313 
L 686.553277 371.036009 
L 687.753681 371.583688 
L 690.154487 371.224838 
L 691.354891 372.133396 
L 693.755697 370.112307 
L 693.755697 368.723614 
L 696.156504 370.213577 
L 696.156504 371.472815 
L 697.356908 371.449586 
L 698.557311 371.293833 
L 699.757714 372.039135 
L 702.158521 371.547329 
L 703.358924 371.719797 
L 704.559328 372.161418 
L 704.559328 371.861604 
L 705.759731 371.93992 
L 708.160538 370.316298 
L 709.360941 371.572528 
L 710.561345 371.877137 
L 711.761748 371.838023 
L 712.962151 372.108379 
L 714.162555 371.103129 
L 715.362958 370.653586 
L 715.362958 369.733843 
L 716.563361 371.141133 
L 718.964168 372.218265 
L 720.164571 370.379332 
L 721.364975 370.785838 
L 722.565378 368.667397 
L 723.765782 370.681307 
L 723.765782 369.605975 
L 724.966185 371.752975 
L 726.166588 370.870274 
L 727.366992 370.127141 
L 729.767798 371.336702 
L 730.968202 372.229079 
L 732.168605 371.783592 
L 733.369008 371.138169 
L 734.569412 371.88536 
L 735.769815 371.190284 
L 738.170622 371.587805 
L 738.170622 371.381429 
L 740.571429 371.214569 
L 741.771832 372.14171 
L 741.771832 370.909288 
L 744.172639 371.044083 
L 744.172639 371.782271 
L 745.373042 371.728964 
L 748.974252 372.014286 
L 751.375059 371.780941 
L 752.575462 372.024853 
L 752.575462 371.70815 
L 753.775866 371.575949 
L 756.176672 370.878528 
L 756.176672 372.007915 
L 757.377076 371.27998 
L 758.577479 371.585057 
L 759.777882 371.769021 
L 762.178689 371.123766 
L 762.178689 370.319577 
L 763.379092 371.824532 
L 764.579496 371.941595 
L 766.980303 371.834505 
L 768.180706 372.219439 
L 768.180706 371.318259 
L 769.381109 371.870898 
L 771.781916 371.609554 
L 772.982319 372.194688 
L 772.982319 371.490797 
L 774.182723 372.19906 
L 777.783933 370.998408 
L 777.783933 371.4995 
L 780.184739 371.249968 
L 781.385143 370.725652 
L 781.385143 369.875189 
L 782.585546 371.893979 
L 783.78595 371.987581 
L 786.186756 370.777511 
L 787.38716 371.021702 
L 788.587563 372.210552 
L 789.787966 370.981311 
L 789.787966 369.732913 
L 790.98837 371.142957 
L 792.188773 372.081178 
L 793.389176 372.226949 
L 795.789983 371.879977 
L 795.789983 370.835597 
L 796.990387 370.710332 
L 798.19079 372.194202 
L 799.391193 371.771036 
L 799.391193 371.77998 
L 800.591597 372.187393 
L 804.192807 372.160812 
L 805.39321 371.71204 
L 807.794017 372.013926 
L 810.194824 371.363559 
L 811.395227 372.235902 
L 812.59563 371.64989 
L 816.19684 371.882094 
L 819.79805 371.809993 
L 820.998454 370.491603 
L 823.399261 371.454494 
L 829.401277 372.078077 
L 831.802084 371.685628 
L 834.202891 372.011588 
L 836.603697 372.062526 
L 837.804101 370.294961 
L 840.204908 371.887248 
L 842.605714 372.146799 
L 847.407328 372.137178 
L 849.808134 372.104118 
L 851.008538 370.776072 
L 853.409345 370.915964 
L 854.609748 371.297874 
L 857.010555 370.718252 
L 858.210958 370.977338 
L 861.812168 371.559095 
L 864.212975 371.267342 
L 866.613782 371.792145 
L 869.014588 372.169735 
L 872.615798 371.787451 
L 876.217008 372.234827 
L 878.617815 371.93169 
L 882.219025 369.790071 
L 883.419429 372.174095 
L 885.820235 366.940182 
L 887.020639 372.130698 
L 889.421445 370.735709 
L 890.621849 364.896922 
L 891.822252 369.61445 
L 893.022655 371.900541 
L 894.223059 370.609056 
L 895.423462 368.841213 
L 896.623866 371.384409 
L 899.024672 371.080695 
L 901.425479 371.119424 
L 906.227092 372.097273 
L 908.627899 372.024143 
L 911.028706 372.062406 
L 913.429513 371.970881 
L 915.830319 372.188974 
L 918.231126 371.681427 
L 920.631933 372.077297 
L 923.032739 369.712151 
L 926.63395 371.109819 
L 929.034756 369.368693 
L 930.23516 370.836321 
L 932.635966 371.273593 
L 936.237176 369.854584 
L 938.637983 369.644621 
L 939.838387 371.626487 
L 943.439597 371.66489 
L 944.64 370.445328 
L 948.24121 371.043047 
L 949.441613 371.854192 
L 951.84242 372.182651 
L 955.44363 371.498303 
L 956.644034 370.418791 
L 959.04484 371.71831 
L 961.445647 372.037439 
L 966.247261 372.101245 
L 968.648067 371.157194 
L 971.048874 369.892952 
L 973.449681 371.744253 
L 975.850487 368.467478 
L 977.050891 370.72318 
L 980.652101 368.807025 
L 981.852504 369.281043 
L 984.253311 372.22112 
L 986.654118 372.019486 
L 991.455731 370.694052 
L 992.656134 370.126648 
L 995.056941 369.303758 
L 997.457748 372.028991 
L 1002.259361 372.143331 
L 1007.060975 372.050359 
L 1009.461782 372.215116 
L 1010.662185 372.066652 
L 1015.463798 372.17641 
L 1020.265412 371.98418 
L 1022.666218 372.056266 
L 1025.067025 371.127515 
L 1026.267429 371.117985 
L 1028.668235 372.122359 
L 1033.469849 372.108468 
L 1035.870655 372.208196 
L 1037.071059 370.671037 
L 1039.471866 370.56461 
L 1041.872672 372.154541 
L 1046.674286 372.075526 
L 1051.475899 372.117301 
L 1053.876706 372.17111 
L 1056.277513 372.092863 
L 1058.678319 372.157865 
L 1061.079126 372.102045 
L 1063.479933 371.795323 
L 1070.682353 372.224135 
L 1077.884773 372.234564 
L 1080.28558 371.985285 
L 1082.686387 372.003888 
L 1085.087193 372.227374 
L 1089.888807 372.145784 
L 1092.289613 371.997636 
L 1094.69042 372.106811 
L 1097.091227 372.098895 
L 1099.492034 372.231526 
L 1101.89284 372.183644 
L 1104.293647 371.992941 
L 1106.694454 372.089794 
L 1109.095261 372.058497 
L 1111.496067 372.199229 
L 1113.896874 372.03084 
L 1116.297681 372.150715 
L 1123.500101 372.100975 
L 1128.301714 372.129188 
L 1130.702521 372.069642 
L 1133.103328 371.011138 
L 1135.504134 371.402963 
L 1137.904941 371.952751 
L 1140.305748 372.091749 
L 1141.506151 370.348549 
L 1145.107361 369.316439 
L 1146.307765 370.958919 
L 1148.708571 369.221604 
L 1152.309782 364.454348 
L 1154.710588 368.820771 
L 1154.710588 367.691099 
L 1155.910992 370.017659 
L 1158.311798 372.045871 
L 1161.913008 371.443062 
L 1163.113412 372.03065 
L 1164.313815 371.510065 
L 1166.714622 372.036801 
L 1169.115429 368.736948 
L 1172.716639 371.282173 
L 1173.917042 370.945879 
L 1177.518252 370.152908 
L 1179.919059 372.18786 
L 1181.119462 370.595563 
L 1185.921076 370.862124 
L 1189.522286 368.119058 
L 1191.923092 367.487256 
L 1193.123496 369.924685 
L 1195.524303 370.138779 
L 1199.125513 369.760905 
L 1201.526319 371.554125 
L 1202.726723 369.638776 
L 1206.327933 371.124969 
L 1208.728739 370.38714 
L 1211.129546 370.049233 
L 1212.32995 372.108631 
L 1214.730756 372.138601 
L 1217.131563 368.875255 
L 1220.732773 370.271443 
L 1221.933176 368.884539 
L 1224.333983 369.741376 
L 1227.935193 369.395146 
L 1230.336 371.690826 
L 1232.736807 371.943723 
L 1235.137613 371.796963 
L 1237.53842 370.279179 
L 1238.738824 369.824697 
L 1241.13963 370.375056 
L 1244.74084 368.919148 
L 1247.141647 371.506847 
L 1248.34205 372.08396 
L 1250.742857 371.545064 
L 1257.945277 370.339318 
L 1260.346084 369.852279 
L 1263.947294 371.433552 
L 1266.348101 369.640773 
L 1267.548504 371.348013 
L 1269.949311 371.834883 
L 1272.350118 370.893446 
L 1275.951328 371.931733 
L 1279.552538 369.283708 
L 1281.953345 369.690735 
L 1285.554555 368.375681 
L 1287.955361 371.426516 
L 1290.356168 371.141671 
L 1292.756975 368.40347 
L 1293.957378 371.870435 
L 1297.558588 369.601923 
L 1299.959395 370.537321 
L 1302.360202 371.281933 
L 1304.761008 371.605731 
L 1307.161815 369.249183 
L 1308.362218 371.335884 
L 1310.763025 369.924765 
L 1311.963429 370.764456 
L 1314.364235 372.042772 
L 1315.564639 370.334154 
L 1317.965445 367.46096 
L 1320.366252 369.431202 
L 1322.767059 372.048984 
L 1325.167866 372.065872 
L 1326.368269 369.780841 
L 1328.769076 370.957254 
L 1331.169882 368.742105 
L 1332.370286 371.457955 
L 1335.971496 371.576367 
L 1337.171899 369.302323 
L 1339.572706 370.954545 
L 1341.973513 370.690442 
L 1344.374319 370.968881 
L 1346.775126 371.026426 
L 1349.175933 370.956643 
L 1351.576739 371.348469 
L 1353.977546 370.5692 
L 1357.578756 370.588058 
L 1358.77916 370.016104 
L 1362.38037 371.205091 
L 1364.781176 371.360568 
L 1367.181983 372.049296 
L 1369.58279 372.232589 
L 1373.184 371.785117 
L 1375.584807 371.925275 
L 1379.186017 371.115754 
L 1381.586824 370.703086 
L 1383.98763 372.135429 
L 1386.388437 368.404358 
L 1387.58884 369.84519 
L 1388.789244 370.152119 
L 1388.789244 368.369059 
L 1389.989647 370.27644 
L 1392.390454 372.185525 
L 1392.390454 370.640888 
L 1393.590857 371.558811 
L 1395.991664 371.98496 
L 1397.192067 371.331986 
L 1398.392471 371.740798 
L 1399.592874 370.536947 
L 1400.793277 370.222374 
L 1400.793277 368.587725 
L 1403.194084 371.838623 
L 1404.394487 372.168188 
L 1405.594891 370.240698 
L 1405.594891 369.530543 
L 1407.995697 369.972595 
L 1409.196101 372.079097 
L 1412.797311 371.257235 
L 1413.997714 371.485632 
L 1416.398521 370.049134 
L 1418.799328 371.567488 
L 1418.799328 368.093312 
L 1419.999731 369.830996 
L 1421.200134 368.843033 
L 1422.400538 370.499139 
L 1424.801345 371.787054 
L 1424.801345 371.047505 
L 1427.202151 371.244959 
L 1428.402555 371.854128 
L 1428.402555 371.850594 
L 1429.602958 372.144816 
L 1432.003765 372.199457 
L 1433.204168 371.846482 
L 1434.404571 372.222254 
L 1435.604975 371.871666 
L 1436.805378 371.656563 
L 1438.005782 372.179083 
L 1438.005782 372.101767 
L 1441.606992 372.070387 
L 1441.606992 371.42197 
L 1442.807395 370.941534 
L 1444.007798 372.207246 
L 1446.408605 371.984279 
L 1447.609008 370.617181 
L 1447.609008 372.168638 
L 1448.809412 371.529683 
L 1450.009815 371.302957 
L 1451.210218 371.432901 
L 1453.611025 371.006516 
L 1454.811429 370.041797 
L 1454.811429 368.24496 
L 1456.011832 371.503635 
L 1457.212235 370.65526 
L 1458.412639 371.6416 
L 1459.613042 372.045216 
L 1462.013849 370.68404 
L 1462.013849 371.79874 
L 1464.414655 371.949657 
L 1465.615059 370.474548 
L 1466.815462 372.066942 
L 1466.815462 371.874835 
L 1468.015866 372.026288 
L 1469.216269 370.646271 
L 1471.617076 372.222519 
L 1472.817479 370.228832 
L 1472.817479 370.554116 
L 1474.017882 371.313389 
L 1476.418689 370.608828 
L 1477.619092 371.707946 
L 1478.819496 370.662657 
L 1478.819496 372.23292 
L 1480.019899 371.659291 
L 1481.220303 371.463147 
L 1483.621109 369.565511 
L 1484.821513 371.395047 
L 1487.222319 371.048636 
L 1487.222319 369.621034 
L 1488.422723 370.997539 
L 1490.823529 371.702594 
L 1490.823529 371.415081 
L 1492.023933 371.307429 
L 1494.424739 372.19633 
L 1511.230387 372.19233 
L 1512.43079 371.946914 
L 1516.032 372.235752 
L 1517.232403 372.125752 
L 1519.63321 372.155955 
L 1520.833613 372.08851 
L 1523.23442 372.202989 
L 1524.434824 372.051552 
L 1525.635227 372.186585 
L 1526.83563 372.014167 
L 1529.236437 372.191553 
L 1530.43684 372.006348 
L 1531.637244 372.017709 
L 1532.837647 372.227389 
L 1538.839664 372.189812 
L 1541.240471 372.220155 
L 1542.440874 372.229639 
L 1543.641277 372.116509 
L 1544.841681 372.157872 
L 1547.242487 371.711203 
L 1548.442891 372.065028 
L 1549.643294 372.21707 
L 1550.843697 371.599397 
L 1553.244504 372.234246 
L 1554.444908 372.109797 
L 1555.645311 372.199388 
L 1556.845714 371.913578 
L 1558.046118 372.227428 
L 1559.246521 371.825212 
L 1560.446924 371.697244 
L 1561.647328 372.20156 
L 1562.847731 371.586617 
L 1564.048134 372.0796 
L 1571.250555 372.162518 
L 1572.450958 371.65544 
L 1572.450958 371.054841 
L 1573.651361 371.861033 
L 1576.052168 371.868117 
L 1578.452975 372.189117 
L 1579.653378 371.968388 
L 1580.853782 371.166425 
L 1582.054185 371.172926 
L 1582.054185 371.921655 
L 1583.254588 372.209519 
L 1585.655395 372.171813 
L 1586.855798 369.541385 
L 1588.056202 369.808473 
L 1589.256605 368.465452 
L 1589.256605 364.262634 
L 1591.657412 369.151775 
L 1592.857815 369.412997 
L 1595.258622 370.903309 
L 1596.459025 369.264663 
L 1598.859832 372.198623 
L 1606.062252 372.201379 
L 1608.463059 371.398607 
L 1609.663462 371.748482 
L 1612.064269 372.059361 
L 1614.465076 372.063004 
L 1616.865882 372.236063 
L 1618.066286 369.740741 
L 1620.467092 369.062417 
L 1620.467092 369.062417 
" clip-path="url(#p497a952305)" style="fill: none; stroke: #0000ff; stroke-width: 3; stroke-linecap: square"/>
   </g>
   <g id="line2d_21">
    <path d="M 338.436303 372.24 
L 340.837109 371.640282 
L 343.237916 371.971572 
L 344.438319 371.945909 
L 349.239933 372.032907 
L 351.640739 372.033654 
L 352.841143 371.868454 
L 355.24195 372.104384 
L 360.043563 372.23198 
L 366.04558 371.866531 
L 368.446387 372.187995 
L 378.049613 372.125419 
L 379.250017 371.65481 
L 381.650824 372.22469 
L 388.853244 371.833548 
L 393.654857 372.137768 
L 397.256067 369.261301 
L 398.456471 369.252169 
L 403.258084 369.610373 
L 406.859294 370.073873 
L 408.059697 370.708925 
L 411.660908 370.297414 
L 414.061714 372.227889 
L 415.262118 370.714466 
L 418.863328 371.589592 
L 420.063731 370.699732 
L 422.464538 371.550745 
L 424.865345 371.840333 
L 427.266151 371.867578 
L 429.666958 372.043557 
L 432.067765 371.537398 
L 435.668975 365.169815 
L 436.869378 364.51242 
L 439.270185 372.145323 
L 441.670992 368.327335 
L 444.071798 372.184881 
L 446.472605 372.211773 
L 448.873412 372.098066 
L 451.274218 372.224211 
L 453.675025 372.057527 
L 456.075832 372.221019 
L 460.877445 372.068392 
L 472.881479 372.225163 
L 477.683092 372.214555 
L 484.885513 372.211456 
L 487.286319 372.227099 
L 489.687126 372.113385 
L 492.087933 372.237356 
L 508.89358 372.202289 
L 516.096 372.228712 
L 523.29842 372.118911 
L 528.100034 372.207801 
L 532.901647 372.143529 
L 542.504874 372.238718 
L 544.905681 371.927793 
L 546.106084 371.561107 
L 549.707294 371.482639 
L 552.108101 372.133391 
L 553.308504 371.552582 
L 555.709311 372.165484 
L 559.310521 372.159509 
L 560.510924 372.045122 
L 562.911731 372.119552 
L 565.312538 371.713464 
L 567.713345 371.664234 
L 571.314555 370.660326 
L 572.514958 370.593245 
L 574.915765 371.930991 
L 578.516975 370.790013 
L 580.917782 372.01359 
L 582.118185 370.266478 
L 585.719395 370.482611 
L 586.919798 369.857059 
L 590.521008 368.535114 
L 592.921815 372.046833 
L 594.122218 367.183667 
L 597.723429 365.619762 
L 600.124235 372.196698 
L 601.324639 364.232342 
L 603.725445 372.062126 
L 607.326655 366.137323 
L 608.527059 367.102205 
L 610.927866 372.231686 
L 613.328672 371.524474 
L 615.729479 371.325055 
L 618.130286 372.068458 
L 621.731496 370.595505 
L 624.132303 372.028804 
L 625.332706 372.178642 
L 626.533109 372.178801 
L 627.733513 371.934058 
L 627.733513 371.480604 
L 628.933916 372.211079 
L 631.334723 371.292037 
L 632.535126 372.107953 
L 633.735529 372.204867 
L 633.735529 370.973009 
L 636.136336 370.434246 
L 636.136336 370.515669 
L 638.537143 369.714583 
L 638.537143 369.406817 
L 639.737546 372.144699 
L 642.138353 369.603262 
L 643.338756 372.051803 
L 644.53916 372.235268 
L 645.739563 372.14758 
L 645.739563 369.615607 
L 646.939966 372.206691 
L 649.340773 369.402693 
L 649.340773 369.150839 
L 650.541176 372.063118 
L 652.941983 369.430556 
L 654.142387 371.741341 
L 655.34279 371.879785 
L 656.543193 372.144091 
L 656.543193 368.503372 
L 658.944 368.482619 
L 658.944 368.859515 
L 661.344807 367.785347 
L 661.344807 367.212958 
L 662.54521 371.30536 
L 663.745613 366.256298 
L 664.946017 371.639589 
L 664.946017 366.421178 
L 666.14642 371.582487 
L 667.346824 371.645854 
L 668.547227 371.880261 
L 669.74763 371.668589 
L 670.948034 372.128335 
L 673.34884 370.700059 
L 674.549244 372.169337 
L 675.749647 372.231223 
L 676.95005 371.622881 
L 676.95005 371.757176 
L 679.350857 370.892036 
L 680.551261 371.378958 
L 681.751664 370.793272 
L 682.952067 370.769744 
L 684.152471 372.038506 
L 685.352874 371.84941 
L 685.352874 368.077754 
L 686.553277 372.215626 
L 687.753681 371.973527 
L 690.154487 367.325839 
L 691.354891 371.828975 
L 691.354891 368.159785 
L 693.755697 368.717793 
L 693.755697 369.252775 
L 696.156504 369.726532 
L 697.356908 371.852027 
L 698.557311 372.066369 
L 699.757714 372.145835 
L 702.158521 370.219455 
L 703.358924 371.866038 
L 704.559328 371.867466 
L 704.559328 370.606344 
L 705.759731 371.850996 
L 708.160538 371.783849 
L 709.360941 372.064307 
L 710.561345 372.203466 
L 712.962151 372.213009 
L 723.765782 372.172668 
L 723.765782 371.754109 
L 724.966185 372.123048 
L 726.166588 372.205343 
L 729.767798 372.200478 
L 729.767798 372.201219 
L 730.968202 371.848432 
L 733.369008 372.109909 
L 734.569412 371.914998 
L 735.769815 372.22546 
L 738.170622 370.199787 
L 738.170622 369.233398 
L 740.571429 369.178675 
L 741.771832 371.968292 
L 741.771832 368.872548 
L 744.172639 368.735716 
L 744.172639 368.54744 
L 745.373042 371.983942 
L 747.773849 367.957709 
L 748.974252 372.129868 
L 751.375059 372.227046 
L 752.575462 372.086566 
L 752.575462 366.642578 
L 753.775866 372.189455 
L 756.176672 366.87606 
L 757.377076 371.86128 
L 759.777882 371.870004 
L 762.178689 369.022017 
L 762.178689 369.609633 
L 763.379092 372.068273 
L 764.579496 372.166878 
L 766.980303 370.602246 
L 768.180706 371.968821 
L 768.180706 370.984403 
L 769.381109 372.211661 
L 771.781916 371.449621 
L 772.982319 372.2133 
L 772.982319 371.841876 
L 774.182723 371.906327 
L 776.583529 371.852821 
L 777.783933 371.962159 
L 777.783933 371.668193 
L 780.184739 371.50815 
L 781.385143 371.948465 
L 781.385143 370.803053 
L 782.585546 372.015137 
L 783.78595 371.766904 
L 786.186756 371.011632 
L 787.38716 371.97046 
L 788.587563 372.101106 
L 789.787966 371.982515 
L 789.787966 369.585893 
L 790.98837 372.03914 
L 792.188773 370.628682 
L 793.389176 372.17666 
L 794.58958 372.074141 
L 795.789983 372.230483 
L 795.789983 368.863349 
L 796.990387 369.113379 
L 798.19079 372.235612 
L 799.391193 370.117518 
L 799.391193 370.359882 
L 800.591597 372.150171 
L 801.792 372.074141 
L 802.992403 372.183322 
L 804.192807 372.154982 
L 805.39321 372.237991 
L 814.996437 371.950263 
L 816.19684 371.047532 
L 819.79805 370.893675 
L 820.998454 370.718247 
L 823.399261 371.317495 
L 825.800067 369.651348 
L 827.000471 369.494848 
L 829.401277 369.934397 
L 831.802084 371.794477 
L 836.603697 372.12659 
L 837.804101 367.476365 
L 840.204908 371.049409 
L 842.605714 372.232757 
L 845.006521 371.527289 
L 847.407328 371.707608 
L 849.808134 371.350301 
L 851.008538 372.170765 
L 853.409345 372.058571 
L 854.609748 372.152603 
L 858.210958 371.953832 
L 860.611765 371.380253 
L 861.812168 371.347737 
L 864.212975 372.190565 
L 866.613782 371.876163 
L 872.615798 372.159424 
L 876.217008 371.690769 
L 878.617815 371.932736 
L 882.219025 369.062199 
L 883.419429 369.034732 
L 885.820235 368.568536 
L 887.020639 368.009735 
L 889.421445 367.590621 
L 890.621849 366.988412 
L 891.822252 371.670968 
L 893.022655 372.200293 
L 894.223059 372.11821 
L 895.423462 369.602099 
L 896.623866 371.593617 
L 899.024672 371.622855 
L 901.425479 372.234581 
L 903.826286 372.055372 
L 906.227092 372.062457 
L 908.627899 372.216631 
L 911.028706 372.222949 
L 913.429513 372.059522 
L 915.830319 372.110702 
L 918.231126 370.371382 
L 919.431529 372.024971 
L 920.631933 369.640787 
L 923.032739 372.034924 
L 926.63395 371.081488 
L 929.034756 372.096678 
L 930.23516 371.774174 
L 932.635966 372.065312 
L 936.237176 371.883592 
L 938.637983 371.941896 
L 939.838387 371.389109 
L 943.439597 371.847454 
L 944.64 372.121039 
L 948.24121 372.210709 
L 949.441613 371.860804 
L 951.84242 372.170236 
L 955.44363 372.174373 
L 956.644034 371.196313 
L 959.04484 372.119505 
L 961.445647 372.20833 
L 963.846454 372.096321 
L 966.247261 372.180625 
L 968.648067 371.692104 
L 971.048874 372.119492 
L 973.449681 372.154612 
L 975.850487 371.848313 
L 977.050891 372.225143 
L 980.652101 372.232889 
L 981.852504 370.718656 
L 984.253311 372.006267 
L 986.654118 372.11176 
L 989.054924 371.310132 
L 991.455731 371.209557 
L 992.656134 368.662925 
L 995.056941 370.48914 
L 997.457748 372.170976 
L 1002.259361 371.834725 
L 1004.660168 372.131924 
L 1007.060975 372.174518 
L 1009.461782 372.062292 
L 1010.662185 372.170057 
L 1013.062992 372.192878 
L 1015.463798 371.982654 
L 1017.864605 372.229631 
L 1026.267429 372.16861 
L 1028.668235 372.123491 
L 1033.469849 372.221297 
L 1039.471866 372.080982 
L 1046.674286 372.233226 
L 1056.277513 371.94216 
L 1058.678319 372.140899 
L 1061.079126 372.203426 
L 1063.479933 372.010114 
L 1065.880739 372.132472 
L 1068.281546 371.847064 
L 1070.682353 371.830945 
L 1073.08316 372.060725 
L 1075.483966 372.154612 
L 1077.884773 372.065246 
L 1080.28558 372.202421 
L 1104.293647 372.00829 
L 1106.694454 372.224482 
L 1109.095261 372.148876 
L 1111.496067 372.219882 
L 1116.297681 372.20521 
L 1123.500101 372.192521 
L 1125.900908 372.111892 
L 1130.702521 372.202858 
L 1133.103328 371.883856 
L 1135.504134 372.113954 
L 1140.305748 372.079852 
L 1141.506151 371.174291 
L 1145.107361 370.1494 
L 1146.307765 370.020525 
L 1148.708571 371.982621 
L 1152.309782 368.707456 
L 1154.710588 371.629755 
L 1154.710588 370.006911 
L 1155.910992 371.84682 
L 1158.311798 371.914231 
L 1161.913008 370.636388 
L 1163.113412 371.078871 
L 1164.313815 372.085496 
L 1166.714622 371.86247 
L 1169.115429 371.976567 
L 1172.716639 370.859996 
L 1173.917042 371.447995 
L 1177.518252 372.067004 
L 1179.919059 372.050296 
L 1181.119462 371.802949 
L 1184.720672 371.431935 
L 1185.921076 370.94689 
L 1189.522286 370.271732 
L 1191.923092 371.997874 
L 1193.123496 368.754486 
L 1195.524303 371.742054 
L 1199.125513 369.364995 
L 1201.526319 372.219486 
L 1202.726723 369.651401 
L 1206.327933 369.723783 
L 1208.728739 371.802169 
L 1211.129546 372.164922 
L 1212.32995 370.195742 
L 1214.730756 371.914971 
L 1217.131563 371.530515 
L 1220.732773 371.90934 
L 1221.933176 372.14877 
L 1224.333983 371.997689 
L 1227.935193 371.97083 
L 1230.336 371.749985 
L 1232.736807 372.091166 
L 1235.137613 372.213855 
L 1237.53842 372.177611 
L 1238.738824 370.839323 
L 1241.13963 372.121144 
L 1244.74084 370.944855 
L 1247.141647 372.076891 
L 1248.34205 372.054949 
L 1250.742857 372.191305 
L 1253.143664 371.054114 
L 1255.544471 371.398335 
L 1257.945277 372.017754 
L 1260.346084 371.033679 
L 1263.947294 365.38751 
L 1266.348101 372.016538 
L 1267.548504 365.952814 
L 1269.949311 371.610483 
L 1272.350118 372.028645 
L 1275.951328 364.31625 
L 1278.352134 372.11665 
L 1279.552538 364.337557 
L 1281.953345 371.991714 
L 1285.554555 363.630557 
L 1287.955361 371.806346 
L 1290.356168 372.016829 
L 1292.756975 371.959463 
L 1293.957378 364.790218 
L 1297.558588 365.192519 
L 1299.959395 372.236828 
L 1302.360202 370.233677 
L 1304.761008 372.106869 
L 1307.161815 371.42419 
L 1308.362218 370.966162 
L 1310.763025 370.818016 
L 1311.963429 371.886658 
L 1314.364235 372.162702 
L 1315.564639 372.051565 
L 1317.965445 371.583492 
L 1322.767059 371.618969 
L 1325.167866 371.359422 
L 1326.368269 366.802198 
L 1328.769076 371.801482 
L 1331.169882 365.902586 
L 1332.370286 365.851036 
L 1335.971496 365.018571 
L 1337.171899 364.294044 
L 1339.572706 371.615109 
L 1341.973513 371.650851 
L 1344.374319 372.011541 
L 1346.775126 371.439734 
L 1349.175933 372.118422 
L 1351.576739 372.221019 
L 1353.977546 371.594542 
L 1357.578756 362.287298 
L 1358.77916 363.716077 
L 1362.38037 365.968385 
L 1364.781176 371.204719 
L 1367.181983 371.932392 
L 1369.58279 371.97432 
L 1371.983597 372.20677 
L 1373.184 371.374041 
L 1375.584807 372.165213 
L 1381.586824 371.226013 
L 1383.98763 371.950303 
L 1386.388437 372.007232 
L 1387.58884 371.879375 
L 1388.789244 372.186666 
L 1388.789244 370.056703 
L 1389.989647 371.499043 
L 1392.390454 370.041039 
L 1392.390454 370.514268 
L 1393.590857 372.003016 
L 1395.991664 371.157267 
L 1397.192067 372.159965 
L 1403.194084 371.95785 
L 1404.394487 372.164579 
L 1405.594891 372.050045 
L 1407.995697 371.930912 
L 1409.196101 372.123748 
L 1409.196101 371.978748 
L 1410.396504 372.071868 
L 1412.797311 371.528413 
L 1413.997714 372.218032 
L 1415.198118 371.910993 
L 1416.398521 372.197531 
L 1416.398521 370.796748 
L 1418.799328 370.689445 
L 1418.799328 370.923138 
L 1419.999731 372.18163 
L 1422.400538 371.964975 
L 1424.801345 370.834353 
L 1424.801345 370.867292 
L 1427.202151 370.861529 
L 1428.402555 371.871048 
L 1428.402555 371.347235 
L 1429.602958 372.035915 
L 1432.003765 371.531823 
L 1434.404571 372.200584 
L 1435.604975 372.150515 
L 1436.805378 372.236167 
L 1438.005782 371.954836 
L 1438.005782 371.709723 
L 1439.206185 372.044652 
L 1441.606992 371.06338 
L 1441.606992 371.212954 
L 1442.807395 371.920404 
L 1444.007798 372.196196 
L 1446.408605 370.479095 
L 1447.609008 372.156251 
L 1447.609008 370.289999 
L 1448.809412 372.087135 
L 1451.210218 372.222777 
L 1453.611025 371.044439 
L 1454.811429 372.110795 
L 1454.811429 372.046146 
L 1456.011832 372.003439 
L 1458.412639 372.153594 
L 1459.613042 372.076944 
L 1472.817479 372.084306 
L 1472.817479 372.040819 
L 1474.017882 371.508256 
L 1476.418689 370.864027 
L 1477.619092 372.122374 
L 1478.819496 372.110887 
L 1478.819496 371.504105 
L 1480.019899 372.121105 
L 1481.220303 371.605817 
L 1483.621109 371.356553 
L 1484.821513 372.096242 
L 1484.821513 371.692196 
L 1487.222319 371.783836 
L 1487.222319 372.001734 
L 1488.422723 372.163812 
L 1490.823529 371.733621 
L 1492.023933 372.044771 
L 1493.224336 372.198126 
L 1494.424739 372.206744 
L 1495.625143 371.930767 
L 1496.825546 372.162662 
L 1501.62716 372.018864 
L 1502.827563 372.224403 
L 1505.22837 372.106565 
L 1506.428773 372.047454 
L 1507.629176 372.206228 
L 1510.029983 372.171928 
L 1512.43079 371.92544 
L 1513.631193 372.054037 
L 1514.831597 371.996883 
L 1518.432807 372.216697 
L 1520.833613 372.190895 
L 1523.23442 371.888337 
L 1524.434824 372.095872 
L 1525.635227 372.121343 
L 1526.83563 372.017066 
L 1529.236437 372.132895 
L 1530.43684 371.818705 
L 1531.637244 372.115395 
L 1532.837647 371.928176 
L 1535.238454 372.186111 
L 1537.639261 372.075067 
L 1538.839664 372.224086 
L 1542.440874 371.872119 
L 1544.841681 372.178312 
L 1548.442891 372.056152 
L 1549.643294 371.430032 
L 1550.843697 372.006162 
L 1552.044101 372.226795 
L 1553.244504 371.901687 
L 1555.645311 372.078199 
L 1556.845714 372.004113 
L 1558.046118 372.239418 
L 1559.246521 371.968517 
L 1560.446924 372.235982 
L 1561.647328 372.112196 
L 1564.048134 371.58139 
L 1565.248538 371.96208 
L 1568.849748 371.913451 
L 1570.050151 372.216115 
L 1571.250555 372.094378 
L 1572.450958 371.416682 
L 1572.450958 371.039191 
L 1573.651361 372.031527 
L 1576.052168 371.788833 
L 1576.052168 372.154665 
L 1578.452975 372.046119 
L 1579.653378 372.205858 
L 1580.853782 372.011515 
L 1583.254588 372.182608 
L 1586.855798 372.226214 
L 1588.056202 371.873903 
L 1589.256605 370.533262 
L 1590.457008 371.893809 
L 1591.657412 371.664161 
L 1592.857815 372.153555 
L 1595.258622 371.382434 
L 1596.459025 372.147263 
L 1598.859832 372.090902 
L 1603.661445 372.14146 
L 1609.663462 371.846767 
L 1612.064269 372.136649 
L 1618.066286 372.224297 
L 1620.467092 372.106089 
L 1620.467092 372.106089 
" clip-path="url(#p497a952305)" style="fill: none; stroke: #9933fa; stroke-width: 3; stroke-linecap: square"/>
   </g>
   <g id="patch_3">
    <path d="M 230.4 704.88 
L 230.4 39.6 
" style="fill: none; stroke: #000000; stroke-width: 3; stroke-linejoin: miter; stroke-linecap: square"/>
   </g>
   <g id="patch_4">
    <path d="M 1658.88 704.88 
L 1658.88 39.6 
" style="fill: none; stroke: #000000; stroke-width: 3; stroke-linejoin: miter; stroke-linecap: square"/>
   </g>
   <g id="patch_5">
    <path d="M 230.4 704.88 
L 1658.88 704.88 
" style="fill: none; stroke: #000000; stroke-width: 3; stroke-linejoin: miter; stroke-linecap: square"/>
   </g>
   <g id="patch_6">
    <path d="M 230.4 39.6 
L 1658.88 39.6 
" style="fill: none; stroke: #000000; stroke-width: 3; stroke-linejoin: miter; stroke-linecap: square"/>
   </g>
   <g id="legend_1">
    <g id="patch_7">
     <path d="M 254.9 221.720312 
L 387.615625 221.720312 
Q 394.615625 221.720312 394.615625 214.720312 
L 394.615625 64.1 
Q 394.615625 57.1 387.615625 57.1 
L 254.9 57.1 
Q 247.9 57.1 247.9 64.1 
L 247.9 214.720312 
Q 247.9 221.720312 254.9 221.720312 
z
" style="fill: #ffffff; opacity: 0.8; stroke: #cccccc; stroke-linejoin: miter"/>
    </g>
    <g id="line2d_22">
     <path d="M 261.9 85.444531 
L 296.9 85.444531 
L 331.9 85.444531 
" style="fill: none; stroke: #00ff00; stroke-width: 3; stroke-linecap: square"/>
    </g>
    <g id="text_12">
     <!-- x -->
     <g transform="translate(359.9 97.694531) scale(0.35 -0.35)">
      <defs>
       <path id="DejaVuSans-78" d="M 3513 3500 
L 2247 1797 
L 3578 0 
L 2900 0 
L 1881 1375 
L 863 0 
L 184 0 
L 1544 1831 
L 300 3500 
L 978 3500 
L 1906 2253 
L 2834 3500 
L 3513 3500 
z
" transform="scale(0.015625)"/>
      </defs>
      <use xlink:href="#DejaVuSans-78"/>
     </g>
    </g>
    <g id="line2d_23">
     <path d="M 261.9 136.817969 
L 296.9 136.817969 
L 331.9 136.817969 
" style="fill: none; stroke: #0000ff; stroke-width: 3; stroke-linecap: square"/>
    </g>
    <g id="text_13">
     <!-- y -->
     <g transform="translate(359.9 149.067969) scale(0.35 -0.35)">
      <defs>
       <path id="DejaVuSans-79" d="M 2059 -325 
Q 1816 -950 1584 -1140 
Q 1353 -1331 966 -1331 
L 506 -1331 
L 506 -850 
L 844 -850 
Q 1081 -850 1212 -737 
Q 1344 -625 1503 -206 
L 1606 56 
L 191 3500 
L 800 3500 
L 1894 763 
L 2988 3500 
L 3597 3500 
L 2059 -325 
z
" transform="scale(0.015625)"/>
      </defs>
      <use xlink:href="#DejaVuSans-79"/>
     </g>
    </g>
    <g id="line2d_24">
     <path d="M 261.9 188.191406 
L 296.9 188.191406 
L 331.9 188.191406 
" style="fill: none; stroke: #9933fa; stroke-width: 3; stroke-linecap: square"/>
    </g>
    <g id="text_14">
     <!-- z -->
     <g transform="translate(359.9 200.441406) scale(0.35 -0.35)">
      <defs>
       <path id="DejaVuSans-7a" d="M 353 3500 
L 3084 3500 
L 3084 2975 
L 922 459 
L 3084 459 
L 3084 0 
L 275 0 
L 275 525 
L 2438 3041 
L 353 3041 
L 353 3500 
z
" transform="scale(0.015625)"/>
      </defs>
      <use xlink:href="#DejaVuSans-7a"/>
     </g>
    </g>
   </g>
  </g>
 </g>
 <defs>
  <clipPath id="p497a952305">
   <rect x="230.4" y="39.6" width="1428.48" height="665.28"/>
  </clipPath>
 </defs>
</svg>
