<?xml version="1.0" encoding="utf-8" standalone="no"?>
<!DOCTYPE svg PUBLIC "-//W3C//DTD SVG 1.1//EN"
  "http://www.w3.org/Graphics/SVG/1.1/DTD/svg11.dtd">
<svg xmlns:xlink="http://www.w3.org/1999/xlink" width="1843.2pt" height="913.68pt" viewBox="0 0 1843.2 913.68" xmlns="http://www.w3.org/2000/svg" version="1.1">
 <metadata>
  <rdf:RDF xmlns:dc="http://purl.org/dc/elements/1.1/" xmlns:cc="http://creativecommons.org/ns#" xmlns:rdf="http://www.w3.org/1999/02/22-rdf-syntax-ns#">
   <cc:Work>
    <dc:type rdf:resource="http://purl.org/dc/dcmitype/StillImage"/>
    <dc:date>2024-03-22T10:34:00.456587</dc:date>
    <dc:format>image/svg+xml</dc:format>
    <dc:creator>
     <cc:Agent>
      <dc:title>Matplotlib v3.7.0, https://matplotlib.org/</dc:title>
     </cc:Agent>
    </dc:creator>
   </cc:Work>
  </rdf:RDF>
 </metadata>
 <defs>
  <style type="text/css">*{stroke-linejoin: round; stroke-linecap: butt}</style>
 </defs>
 <g id="figure_1">
  <g id="patch_1">
   <path d="M 0 913.68 
L 1843.2 913.68 
L 1843.2 0 
L 0 0 
z
" style="fill: #ffffff"/>
  </g>
  <g id="axes_1">
   <g id="patch_2">
    <path d="M 230.4 813.1752 
L 1658.88 813.1752 
L 1658.88 109.6416 
L 230.4 109.6416 
z
" style="fill: #ffffff"/>
   </g>
   <g id="matplotlib.axis_1">
    <g id="xtick_1">
     <g id="line2d_1">
      <path d="M 335.834018 813.1752 
L 335.834018 109.6416 
" clip-path="url(#pa0614ecac5)" style="fill: none; stroke-dasharray: 2.96,1.28; stroke-dashoffset: 0; stroke: #808080; stroke-width: 0.8"/>
     </g>
     <g id="line2d_2">
      <defs>
       <path id="meda2d0e13e" d="M 0 0 
L 0 -3.5 
" style="stroke: #000000; stroke-width: 0.8"/>
      </defs>
      <g>
       <use xlink:href="#meda2d0e13e" x="335.834018" y="813.1752" style="stroke: #000000; stroke-width: 0.8"/>
      </g>
     </g>
     <g id="text_1">
      <!-- 0 -->
      <g transform="translate(327.880893 835.671294) scale(0.25 -0.25)">
       <defs>
        <path id="DejaVuSans-30" d="M 2034 4250 
Q 1547 4250 1301 3770 
Q 1056 3291 1056 2328 
Q 1056 1369 1301 889 
Q 1547 409 2034 409 
Q 2525 409 2770 889 
Q 3016 1369 3016 2328 
Q 3016 3291 2770 3770 
Q 2525 4250 2034 4250 
z
M 2034 4750 
Q 2819 4750 3233 4129 
Q 3647 3509 3647 2328 
Q 3647 1150 3233 529 
Q 2819 -91 2034 -91 
Q 1250 -91 836 529 
Q 422 1150 422 2328 
Q 422 3509 836 4129 
Q 1250 4750 2034 4750 
z
" transform="scale(0.015625)"/>
       </defs>
       <use xlink:href="#DejaVuSans-30"/>
      </g>
     </g>
    </g>
    <g id="xtick_2">
     <g id="line2d_3">
      <path d="M 581.809367 813.1752 
L 581.809367 109.6416 
" clip-path="url(#pa0614ecac5)" style="fill: none; stroke-dasharray: 2.96,1.28; stroke-dashoffset: 0; stroke: #808080; stroke-width: 0.8"/>
     </g>
     <g id="line2d_4">
      <g>
       <use xlink:href="#meda2d0e13e" x="581.809367" y="813.1752" style="stroke: #000000; stroke-width: 0.8"/>
      </g>
     </g>
     <g id="text_2">
      <!-- 100 -->
      <g transform="translate(557.949992 835.671294) scale(0.25 -0.25)">
       <defs>
        <path id="DejaVuSans-31" d="M 794 531 
L 1825 531 
L 1825 4091 
L 703 3866 
L 703 4441 
L 1819 4666 
L 2450 4666 
L 2450 531 
L 3481 531 
L 3481 0 
L 794 0 
L 794 531 
z
" transform="scale(0.015625)"/>
       </defs>
       <use xlink:href="#DejaVuSans-31"/>
       <use xlink:href="#DejaVuSans-30" x="63.623047"/>
       <use xlink:href="#DejaVuSans-30" x="127.246094"/>
      </g>
     </g>
    </g>
    <g id="xtick_3">
     <g id="line2d_5">
      <path d="M 827.784716 813.1752 
L 827.784716 109.6416 
" clip-path="url(#pa0614ecac5)" style="fill: none; stroke-dasharray: 2.96,1.28; stroke-dashoffset: 0; stroke: #808080; stroke-width: 0.8"/>
     </g>
     <g id="line2d_6">
      <g>
       <use xlink:href="#meda2d0e13e" x="827.784716" y="813.1752" style="stroke: #000000; stroke-width: 0.8"/>
      </g>
     </g>
     <g id="text_3">
      <!-- 200 -->
      <g transform="translate(803.925341 835.671294) scale(0.25 -0.25)">
       <defs>
        <path id="DejaVuSans-32" d="M 1228 531 
L 3431 531 
L 3431 0 
L 469 0 
L 469 531 
Q 828 903 1448 1529 
Q 2069 2156 2228 2338 
Q 2531 2678 2651 2914 
Q 2772 3150 2772 3378 
Q 2772 3750 2511 3984 
Q 2250 4219 1831 4219 
Q 1534 4219 1204 4116 
Q 875 4013 500 3803 
L 500 4441 
Q 881 4594 1212 4672 
Q 1544 4750 1819 4750 
Q 2544 4750 2975 4387 
Q 3406 4025 3406 3419 
Q 3406 3131 3298 2873 
Q 3191 2616 2906 2266 
Q 2828 2175 2409 1742 
Q 1991 1309 1228 531 
z
" transform="scale(0.015625)"/>
       </defs>
       <use xlink:href="#DejaVuSans-32"/>
       <use xlink:href="#DejaVuSans-30" x="63.623047"/>
       <use xlink:href="#DejaVuSans-30" x="127.246094"/>
      </g>
     </g>
    </g>
    <g id="xtick_4">
     <g id="line2d_7">
      <path d="M 1073.760066 813.1752 
L 1073.760066 109.6416 
" clip-path="url(#pa0614ecac5)" style="fill: none; stroke-dasharray: 2.96,1.28; stroke-dashoffset: 0; stroke: #808080; stroke-width: 0.8"/>
     </g>
     <g id="line2d_8">
      <g>
       <use xlink:href="#meda2d0e13e" x="1073.760066" y="813.1752" style="stroke: #000000; stroke-width: 0.8"/>
      </g>
     </g>
     <g id="text_4">
      <!-- 300 -->
      <g transform="translate(1049.900691 835.671294) scale(0.25 -0.25)">
       <defs>
        <path id="DejaVuSans-33" d="M 2597 2516 
Q 3050 2419 3304 2112 
Q 3559 1806 3559 1356 
Q 3559 666 3084 287 
Q 2609 -91 1734 -91 
Q 1441 -91 1130 -33 
Q 819 25 488 141 
L 488 750 
Q 750 597 1062 519 
Q 1375 441 1716 441 
Q 2309 441 2620 675 
Q 2931 909 2931 1356 
Q 2931 1769 2642 2001 
Q 2353 2234 1838 2234 
L 1294 2234 
L 1294 2753 
L 1863 2753 
Q 2328 2753 2575 2939 
Q 2822 3125 2822 3475 
Q 2822 3834 2567 4026 
Q 2313 4219 1838 4219 
Q 1578 4219 1281 4162 
Q 984 4106 628 3988 
L 628 4550 
Q 988 4650 1302 4700 
Q 1616 4750 1894 4750 
Q 2613 4750 3031 4423 
Q 3450 4097 3450 3541 
Q 3450 3153 3228 2886 
Q 3006 2619 2597 2516 
z
" transform="scale(0.015625)"/>
       </defs>
       <use xlink:href="#DejaVuSans-33"/>
       <use xlink:href="#DejaVuSans-30" x="63.623047"/>
       <use xlink:href="#DejaVuSans-30" x="127.246094"/>
      </g>
     </g>
    </g>
    <g id="xtick_5">
     <g id="line2d_9">
      <path d="M 1319.735415 813.1752 
L 1319.735415 109.6416 
" clip-path="url(#pa0614ecac5)" style="fill: none; stroke-dasharray: 2.96,1.28; stroke-dashoffset: 0; stroke: #808080; stroke-width: 0.8"/>
     </g>
     <g id="line2d_10">
      <g>
       <use xlink:href="#meda2d0e13e" x="1319.735415" y="813.1752" style="stroke: #000000; stroke-width: 0.8"/>
      </g>
     </g>
     <g id="text_5">
      <!-- 400 -->
      <g transform="translate(1295.87604 835.671294) scale(0.25 -0.25)">
       <defs>
        <path id="DejaVuSans-34" d="M 2419 4116 
L 825 1625 
L 2419 1625 
L 2419 4116 
z
M 2253 4666 
L 3047 4666 
L 3047 1625 
L 3713 1625 
L 3713 1100 
L 3047 1100 
L 3047 0 
L 2419 0 
L 2419 1100 
L 313 1100 
L 313 1709 
L 2253 4666 
z
" transform="scale(0.015625)"/>
       </defs>
       <use xlink:href="#DejaVuSans-34"/>
       <use xlink:href="#DejaVuSans-30" x="63.623047"/>
       <use xlink:href="#DejaVuSans-30" x="127.246094"/>
      </g>
     </g>
    </g>
    <g id="xtick_6">
     <g id="line2d_11">
      <path d="M 1565.710764 813.1752 
L 1565.710764 109.6416 
" clip-path="url(#pa0614ecac5)" style="fill: none; stroke-dasharray: 2.96,1.28; stroke-dashoffset: 0; stroke: #808080; stroke-width: 0.8"/>
     </g>
     <g id="line2d_12">
      <g>
       <use xlink:href="#meda2d0e13e" x="1565.710764" y="813.1752" style="stroke: #000000; stroke-width: 0.8"/>
      </g>
     </g>
     <g id="text_6">
      <!-- 500 -->
      <g transform="translate(1541.851389 835.671294) scale(0.25 -0.25)">
       <defs>
        <path id="DejaVuSans-35" d="M 691 4666 
L 3169 4666 
L 3169 4134 
L 1269 4134 
L 1269 2991 
Q 1406 3038 1543 3061 
Q 1681 3084 1819 3084 
Q 2600 3084 3056 2656 
Q 3513 2228 3513 1497 
Q 3513 744 3044 326 
Q 2575 -91 1722 -91 
Q 1428 -91 1123 -41 
Q 819 9 494 109 
L 494 744 
Q 775 591 1075 516 
Q 1375 441 1709 441 
Q 2250 441 2565 725 
Q 2881 1009 2881 1497 
Q 2881 1984 2565 2268 
Q 2250 2553 1709 2553 
Q 1456 2553 1204 2497 
Q 953 2441 691 2322 
L 691 4666 
z
" transform="scale(0.015625)"/>
       </defs>
       <use xlink:href="#DejaVuSans-35"/>
       <use xlink:href="#DejaVuSans-30" x="63.623047"/>
       <use xlink:href="#DejaVuSans-30" x="127.246094"/>
      </g>
     </g>
    </g>
    <g id="text_7">
     <!--   -->
     <g transform="translate(941.515 888.229887) scale(0.25 -0.25)">
      <defs>
       <path id="TimesNewRomanPSMT-20" transform="scale(0.015625)"/>
      </defs>
      <use xlink:href="#TimesNewRomanPSMT-20"/>
     </g>
    </g>
   </g>
   <g id="matplotlib.axis_2">
    <g id="ytick_1">
     <g id="line2d_13">
      <path d="M 230.4 759.095397 
L 1658.88 759.095397 
" clip-path="url(#pa0614ecac5)" style="fill: none; stroke-dasharray: 2.96,1.28; stroke-dashoffset: 0; stroke: #808080; stroke-width: 0.8"/>
     </g>
     <g id="line2d_14">
      <defs>
       <path id="m342b919b87" d="M 0 0 
L 3.5 0 
" style="stroke: #000000; stroke-width: 0.8"/>
      </defs>
      <g>
       <use xlink:href="#m342b919b87" x="230.4" y="759.095397" style="stroke: #000000; stroke-width: 0.8"/>
      </g>
     </g>
     <g id="text_8">
      <!-- −400 -->
      <g transform="translate(158.232031 768.593444) scale(0.25 -0.25)">
       <defs>
        <path id="DejaVuSans-2212" d="M 678 2272 
L 4684 2272 
L 4684 1741 
L 678 1741 
L 678 2272 
z
" transform="scale(0.015625)"/>
       </defs>
       <use xlink:href="#DejaVuSans-2212"/>
       <use xlink:href="#DejaVuSans-34" x="83.789062"/>
       <use xlink:href="#DejaVuSans-30" x="147.412109"/>
       <use xlink:href="#DejaVuSans-30" x="211.035156"/>
      </g>
     </g>
    </g>
    <g id="ytick_2">
     <g id="line2d_15">
      <path d="M 230.4 588.743006 
L 1658.88 588.743006 
" clip-path="url(#pa0614ecac5)" style="fill: none; stroke-dasharray: 2.96,1.28; stroke-dashoffset: 0; stroke: #808080; stroke-width: 0.8"/>
     </g>
     <g id="line2d_16">
      <g>
       <use xlink:href="#m342b919b87" x="230.4" y="588.743006" style="stroke: #000000; stroke-width: 0.8"/>
      </g>
     </g>
     <g id="text_9">
      <!-- −200 -->
      <g transform="translate(158.232031 598.241053) scale(0.25 -0.25)">
       <use xlink:href="#DejaVuSans-2212"/>
       <use xlink:href="#DejaVuSans-32" x="83.789062"/>
       <use xlink:href="#DejaVuSans-30" x="147.412109"/>
       <use xlink:href="#DejaVuSans-30" x="211.035156"/>
      </g>
     </g>
    </g>
    <g id="ytick_3">
     <g id="line2d_17">
      <path d="M 230.4 418.390615 
L 1658.88 418.390615 
" clip-path="url(#pa0614ecac5)" style="fill: none; stroke-dasharray: 2.96,1.28; stroke-dashoffset: 0; stroke: #808080; stroke-width: 0.8"/>
     </g>
     <g id="line2d_18">
      <g>
       <use xlink:href="#m342b919b87" x="230.4" y="418.390615" style="stroke: #000000; stroke-width: 0.8"/>
      </g>
     </g>
     <g id="text_10">
      <!-- 0 -->
      <g transform="translate(210.99375 427.888662) scale(0.25 -0.25)">
       <use xlink:href="#DejaVuSans-30"/>
      </g>
     </g>
    </g>
    <g id="ytick_4">
     <g id="line2d_19">
      <path d="M 230.4 248.038224 
L 1658.88 248.038224 
" clip-path="url(#pa0614ecac5)" style="fill: none; stroke-dasharray: 2.96,1.28; stroke-dashoffset: 0; stroke: #808080; stroke-width: 0.8"/>
     </g>
     <g id="line2d_20">
      <g>
       <use xlink:href="#m342b919b87" x="230.4" y="248.038224" style="stroke: #000000; stroke-width: 0.8"/>
      </g>
     </g>
     <g id="text_11">
      <!-- 200 -->
      <g transform="translate(179.18125 257.536271) scale(0.25 -0.25)">
       <use xlink:href="#DejaVuSans-32"/>
       <use xlink:href="#DejaVuSans-30" x="63.623047"/>
       <use xlink:href="#DejaVuSans-30" x="127.246094"/>
      </g>
     </g>
    </g>
    <g id="text_12">
     <!--   -->
     <g transform="translate(122.884375 464.5334) rotate(-90) scale(0.25 -0.25)">
      <use xlink:href="#TimesNewRomanPSMT-20"/>
     </g>
    </g>
   </g>
   <g id="line2d_21">
    <path d="M 335.834018 418.390615 
L 340.784819 418.303793 
L 348.721481 417.977342 
L 353.681404 417.739532 
L 359.632913 417.434997 
L 363.600474 417.155432 
L 378.48041 416.156992 
L 381.455596 416.009361 
L 424.109942 413.446895 
L 436.012826 413.161232 
L 438.987877 413.211096 
L 459.819422 412.030488 
L 463.787048 411.888031 
L 466.76214 411.853014 
L 472.71436 411.899107 
L 497.017062 412.779505 
L 502.968745 412.880004 
L 532.230721 413.51282 
L 538.678541 413.291174 
L 543.638309 413.1774 
L 553.557944 412.763766 
L 557.52528 412.502071 
L 571.412898 411.355772 
L 576.372471 411.158595 
L 579.843947 410.958227 
L 589.763252 409.605456 
L 595.714762 408.710948 
L 599.682522 408.340419 
L 602.658376 408.193672 
L 606.626441 408.103319 
L 618.529456 407.583216 
L 628.517603 406.683474 
L 641.491782 405.395515 
L 644.483586 405.144013 
L 685.292679 400.923063 
L 694.238658 400.067324 
L 702.190364 399.112328 
L 714.610194 397.299293 
L 725.041049 395.791313 
L 731.993831 395.012065 
L 756.822573 391.887693 
L 766.75298 390.421433 
L 769.732178 390.08085 
L 773.704581 389.951512 
L 777.676508 390.039055 
L 782.641106 390.389408 
L 797.535483 391.837861 
L 799.520949 392.114348 
L 809.450007 393.357089 
L 829.308383 395.816319 
L 835.761922 396.418851 
L 850.655184 397.29476 
L 856.612889 397.624591 
L 862.073484 397.893585 
L 874.980621 398.253509 
L 879.945024 398.498961 
L 885.902153 398.939332 
L 890.866468 399.171431 
L 903.277962 399.388196 
L 915.688472 400.616189 
L 920.652305 401.346764 
L 930.581269 402.704812 
L 934.552187 403.257072 
L 941.999014 403.9897 
L 949.941744 404.776593 
L 959.870145 405.758044 
L 966.820817 406.309664 
L 974.76321 406.742435 
L 995.613228 408.152052 
L 1019.41836 409.541343 
L 1028.303965 410.616251 
L 1031.267535 411.00562 
L 1036.208741 411.651532 
L 1040.163713 412.197159 
L 1044.120311 412.755337 
L 1047.088468 413.180372 
L 1053.026411 413.959689 
L 1061.937672 414.992618 
L 1066.89011 415.521963 
L 1074.815578 416.208736 
L 1079.770325 416.565914 
L 1084.230167 416.788123 
L 1091.664713 416.96418 
L 1099.100262 416.629455 
L 1118.931687 415.55959 
L 1123.890491 415.275655 
L 1135.296924 414.888837 
L 1159.599055 414.433246 
L 1198.2892 416.877085 
L 1205.729197 417.07149 
L 1208.705506 417.11397 
L 1220.114478 417.200539 
L 1232.516219 417.454734 
L 1251.366227 418.049662 
L 1255.336403 418.097804 
L 1282.64076 418.455994 
L 1288.597414 418.36376 
L 1299.517933 418.032487 
L 1320.362714 417.116185 
L 1352.12403 415.249925 
L 1354.108571 415.098009 
L 1363.041143 414.56573 
L 1368.995241 414.317581 
L 1383.881765 413.570015 
L 1387.850738 413.369486 
L 1391.820753 413.378242 
L 1396.78257 413.510501 
L 1398.766613 413.479157 
L 1410.675142 413.415385 
L 1415.636822 413.136532 
L 1416.629039 412.944318 
L 1420.598797 412.626774 
L 1425.560073 412.135621 
L 1429.529278 411.773145 
L 1434.49091 411.407301 
L 1439.45261 411.404407 
L 1444.414064 411.672721 
L 1450.368479 411.97265 
L 1456.32105 411.845263 
L 1463.268093 411.306979 
L 1470.213567 410.527862 
L 1478.151986 409.559302 
L 1515.858049 404.731467 
L 1533.718984 403.462252 
L 1554.573124 402.442124 
L 1558.541936 402.51272 
L 1562.510259 402.638018 
L 1586.32484 401.25788 
L 1586.32484 401.25788 
" clip-path="url(#pa0614ecac5)" style="fill: none; stroke-dasharray: 9.25,4; stroke-dashoffset: 0; stroke: #808a87; stroke-width: 2.5"/>
   </g>
   <g id="line2d_22">
    <path d="M 335.834018 418.390615 
L 342.273656 418.288278 
L 346.737459 417.992413 
L 353.681404 417.436291 
L 357.153232 417.149741 
L 366.080491 416.279307 
L 376.991955 415.093487 
L 388.895712 413.252001 
L 418.653838 407.79236 
L 435.02106 404.571922 
L 439.980504 403.73808 
L 461.803656 398.876721 
L 464.778842 398.343211 
L 469.738773 397.799222 
L 477.178303 397.457156 
L 481.146108 397.287212 
L 483.625928 397.158348 
L 487.097603 396.969476 
L 498.00814 396.141614 
L 509.916541 394.400472 
L 514.872166 393.655986 
L 519.831588 392.645705 
L 527.767504 390.973734 
L 530.743336 390.468689 
L 533.718914 390.15774 
L 536.695609 390.014849 
L 539.670478 390.156758 
L 547.110027 391.014716 
L 552.069581 391.517901 
L 560.501587 392.168917 
L 568.43663 392.451615 
L 572.404389 392.964 
L 579.843947 394.041557 
L 585.299653 394.509498 
L 597.699297 395.876922 
L 613.074278 397.12429 
L 617.041442 396.909307 
L 620.520204 396.522238 
L 624.519834 395.955483 
L 627.018497 395.501951 
L 632.0128 394.588386 
L 652.953189 390.488678 
L 657.932398 389.285956 
L 673.855959 385.763879 
L 679.823461 383.928652 
L 688.274496 381.17919 
L 693.244199 379.150601 
L 703.182931 374.350794 
L 708.167666 371.669634 
L 719.080418 365.421207 
L 722.06053 363.887633 
L 726.530247 361.85706 
L 741.429265 355.888871 
L 745.401749 354.688462 
L 751.857167 353.031564 
L 758.312252 351.34673 
L 763.774108 349.667653 
L 766.75298 348.684954 
L 768.738086 348.164657 
L 770.72559 347.951086 
L 772.710841 347.970608 
L 775.193764 348.219614 
L 778.172948 348.747553 
L 780.655454 349.418568 
L 785.61978 351.11714 
L 790.088693 352.746679 
L 799.024576 356.229798 
L 807.960828 359.698795 
L 819.876192 363.865334 
L 823.847475 365.037969 
L 826.826818 365.787218 
L 841.719459 368.950019 
L 846.683953 369.822296 
L 861.079576 372.012124 
L 874.484536 373.356775 
L 876.966257 373.617469 
L 889.873922 375.601436 
L 898.809423 375.73981 
L 902.284739 376.07704 
L 904.766491 376.672055 
L 908.738138 377.78689 
L 912.213493 378.8114 
L 916.184787 380.199786 
L 935.545167 387.72118 
L 939.516698 388.698342 
L 945.970163 390.183896 
L 950.4381 391.121284 
L 959.870145 392.63874 
L 968.309641 393.658105 
L 971.28824 393.899718 
L 993.131157 395.904701 
L 1016.459387 397.410328 
L 1018.431501 397.764734 
L 1023.366126 398.964737 
L 1033.243825 401.940553 
L 1043.131234 405.093034 
L 1048.573104 406.737068 
L 1056.491349 408.939182 
L 1061.442985 410.182926 
L 1072.338612 412.507986 
L 1077.292964 413.304665 
L 1080.265785 413.707198 
L 1090.673013 414.627029 
L 1093.647433 414.644102 
L 1103.065229 414.199839 
L 1113.973256 413.450976 
L 1129.841385 412.273236 
L 1138.768143 411.864139 
L 1143.727844 411.7329 
L 1152.159696 411.535106 
L 1156.6236 411.317832 
L 1160.094922 411.456241 
L 1165.550839 412.115776 
L 1195.312138 416.489928 
L 1204.737778 417.413104 
L 1207.713532 417.509251 
L 1219.618336 417.703467 
L 1223.587523 417.867496 
L 1228.547609 418.162259 
L 1258.314778 419.523854 
L 1268.244357 419.60367 
L 1280.158785 419.39208 
L 1288.101215 418.879236 
L 1298.525096 417.737087 
L 1310.933596 416.190118 
L 1317.881761 415.093935 
L 1321.8526 414.505843 
L 1331.777336 412.989307 
L 1346.168408 410.684153 
L 1352.619841 409.694477 
L 1356.093905 409.428517 
L 1359.070749 409.225191 
L 1366.017859 408.557614 
L 1370.484241 408.132776 
L 1374.453242 407.68906 
L 1379.911763 406.984009 
L 1382.392672 406.701087 
L 1385.866524 406.305645 
L 1388.347101 406.119794 
L 1392.812643 406.095944 
L 1397.774445 406.475631 
L 1402.736385 406.890537 
L 1405.217232 406.967074 
L 1409.187084 406.859561 
L 1414.148131 406.434645 
L 1425.063964 404.958205 
L 1427.544698 404.555328 
L 1434.49091 403.710239 
L 1437.467594 403.672593 
L 1440.940923 403.904176 
L 1450.368479 404.929625 
L 1453.344846 404.91216 
L 1456.818395 404.656499 
L 1460.291191 404.211545 
L 1466.740641 403.008454 
L 1478.647986 400.284319 
L 1498.493552 395.059088 
L 1502.959044 393.875014 
L 1506.431344 393.007786 
L 1514.370426 391.319444 
L 1517.346464 390.791249 
L 1520.32355 390.387205 
L 1553.579321 387.359276 
L 1559.593329 386.96384 
L 1567.471724 386.187632 
L 1571.44047 385.60793 
L 1586.82105 383.508174 
L 1586.82105 383.508174 
" clip-path="url(#pa0614ecac5)" style="fill: none; stroke: #7cfc00; stroke-width: 2.5; stroke-linecap: square"/>
   </g>
   <g id="line2d_23">
    <path d="M 336.81792 418.390615 
L 346.985459 417.812983 
L 349.217408 417.62637 
L 349.961279 417.603596 
L 352.193246 417.483648 
L 366.824518 416.505906 
L 367.320771 416.531089 
L 370.048311 416.378794 
L 370.792352 416.358867 
L 372.77615 416.243129 
L 374.016244 416.146991 
L 376.24851 416.031797 
L 377.736188 415.918703 
L 400.551133 414.477189 
L 408.486542 413.708139 
L 416.670371 412.861368 
L 417.661871 412.787465 
L 426.837285 411.864677 
L 431.053077 411.436481 
L 432.293015 411.260498 
L 433.036872 411.168796 
L 434.028901 411.041931 
L 435.02106 410.96291 
L 436.261105 410.89843 
L 446.428202 409.716652 
L 448.411763 409.42681 
L 462.546852 407.354607 
L 471.970428 406.728157 
L 476.930258 406.790433 
L 484.370049 406.95666 
L 487.345237 407.043266 
L 503.216058 407.271418 
L 508.175972 407.136214 
L 510.904367 406.987054 
L 515.368287 406.744527 
L 522.063355 406.5954 
L 530.247187 406.319104 
L 535.455164 405.721773 
L 549.094005 403.973813 
L 552.317821 403.285849 
L 554.797453 402.695517 
L 557.02951 402.196995 
L 559.509058 401.581096 
L 563.725156 400.543797 
L 565.212562 400.138665 
L 570.172712 399.020548 
L 574.140357 398.45995 
L 575.628468 398.287948 
L 598.442832 395.572356 
L 603.898242 395.38254 
L 616.793928 394.62569 
L 620.520204 394.099428 
L 621.269987 393.98157 
L 644.98165 389.408183 
L 646.228242 389.114365 
L 647.722524 388.768314 
L 650.463236 388.159475 
L 651.708414 387.862211 
L 653.700046 387.379797 
L 654.946107 387.050174 
L 657.435281 386.468198 
L 658.928961 386.07141 
L 659.674926 385.911751 
L 661.666507 385.360751 
L 671.368504 383.088607 
L 676.093576 381.879791 
L 678.083098 381.334891 
L 685.292679 379.925701 
L 687.032355 379.574863 
L 695.730122 377.359659 
L 701.692978 375.58252 
L 704.177015 374.727143 
L 705.41927 374.262619 
L 707.157995 373.621478 
L 709.144818 372.901376 
L 712.871157 371.378819 
L 715.106802 370.465424 
L 720.073694 368.492222 
L 723.302253 367.414833 
L 727.275876 366.269273 
L 728.268991 366.024876 
L 731.993831 365.051048 
L 736.215499 363.839649 
L 739.443444 362.93042 
L 747.140538 361.107351 
L 753.595546 359.63872 
L 763.774108 357.037696 
L 769.235654 355.875149 
L 772.710841 355.873244 
L 774.945406 356.066004 
L 780.406813 357.125075 
L 788.598812 359.891996 
L 797.78301 363.335502 
L 800.265225 364.402995 
L 810.443618 368.797722 
L 812.67765 369.750374 
L 813.918388 370.242634 
L 818.138454 372.160414 
L 822.854609 374.318388 
L 826.081331 375.680155 
L 827.08957 376.09398 
L 832.038752 377.991396 
L 837.499852 379.676129 
L 846.187079 381.794103 
L 848.669913 382.292414 
L 854.626868 383.217271 
L 858.846936 383.66106 
L 861.825027 383.857453 
L 863.562613 384.035736 
L 877.710943 385.153914 
L 878.952478 385.25461 
L 880.937677 385.461327 
L 883.419888 385.649612 
L 891.859501 386.00958 
L 913.453679 386.235093 
L 915.688472 386.255042 
L 936.786147 386.791845 
L 940.013062 386.982361 
L 941.750628 387.112765 
L 950.189902 388.418378 
L 953.91279 389.154789 
L 955.898918 389.475375 
L 960.366734 390.196401 
L 961.855889 390.463901 
L 965.082458 390.956233 
L 966.075533 390.983658 
L 982.954072 392.423272 
L 984.940108 392.539563 
L 986.676932 392.62814 
L 997.847488 392.741957 
L 1000.329187 392.679633 
L 1001.819078 392.659342 
L 1003.804656 392.620594 
L 1013.98118 392.378772 
L 1016.706029 392.357671 
L 1025.834112 392.943743 
L 1027.562387 393.116914 
L 1030.773046 393.402496 
L 1035.467502 393.740609 
L 1039.42285 394.011043 
L 1046.841234 394.618847 
L 1049.314989 394.772486 
L 1053.026411 394.883976 
L 1055.253628 394.858836 
L 1056.491349 394.835382 
L 1072.338612 394.751366 
L 1074.815578 394.681539 
L 1084.72621 394.20604 
L 1087.451463 394.018561 
L 1088.442574 393.955595 
L 1090.673013 393.771437 
L 1104.553761 392.627755 
L 1131.577268 389.409619 
L 1133.808761 389.281288 
L 1140.008228 389.009251 
L 1146.704025 388.904956 
L 1150.919313 388.793382 
L 1154.143355 388.54933 
L 1159.847089 387.609042 
L 1168.775002 385.648595 
L 1170.758918 385.065263 
L 1178.943924 382.555276 
L 1181.423419 381.836357 
L 1187.623844 380.149939 
L 1189.855905 379.750947 
L 1204.489193 377.534985 
L 1208.705506 377.33763 
L 1217.635274 377.069674 
L 1219.86672 376.835032 
L 1224.579306 376.138707 
L 1229.044225 375.181346 
L 1230.283787 374.945094 
L 1232.020526 374.576809 
L 1233.011937 374.400338 
L 1238.964931 373.31026 
L 1253.357807 371.151891 
L 1258.563291 370.460426 
L 1265.266102 369.43944 
L 1267.996994 369.097015 
L 1290.583551 366.180951 
L 1301.999721 364.165086 
L 1304.480902 363.775737 
L 1328.800233 359.167389 
L 1332.273743 358.547204 
L 1340.710822 357.402595 
L 1342.447248 357.251543 
L 1343.687518 357.13444 
L 1349.642412 357.065196 
L 1351.131693 357.176106 
L 1355.597062 358.237577 
L 1357.334076 358.847764 
L 1360.559353 360.331181 
L 1361.552606 360.761971 
L 1364.7774 362.114484 
L 1367.75405 363.347093 
L 1371.724288 364.955201 
L 1372.716894 365.414777 
L 1380.903773 368.523882 
L 1384.12955 369.621017 
L 1390.331658 371.63576 
L 1393.556916 372.388369 
L 1396.037899 372.848479 
L 1398.518915 373.147793 
L 1410.179352 375.068364 
L 1417.372783 376.688409 
L 1429.032999 379.686197 
L 1431.265739 380.27024 
L 1435.979465 381.273572 
L 1437.715641 381.486134 
L 1440.197248 381.645206 
L 1450.864411 381.390975 
L 1453.344846 381.678353 
L 1458.306163 382.52389 
L 1459.794933 382.855385 
L 1463.268093 383.606933 
L 1471.205856 385.788305 
L 1473.934843 386.646577 
L 1481.377141 389.037938 
L 1482.865091 389.500374 
L 1496.01322 393.910209 
L 1499.485739 395.030338 
L 1510.647933 398.233197 
L 1516.850364 399.396011 
L 1518.834528 399.595452 
L 1520.57149 399.651604 
L 1524.540262 399.538583 
L 1534.479327 398.822465 
L 1540.929004 398.162896 
L 1550.603803 396.86226 
L 1561.766455 395.816614 
L 1564.247023 395.26174 
L 1569.208093 393.878531 
L 1587.565034 388.443328 
L 1587.565034 388.443328 
" clip-path="url(#pa0614ecac5)" style="fill: none; stroke: #ffc0cb; stroke-opacity: 0.5; stroke-width: 2.5; stroke-linecap: square"/>
   </g>
   <g id="line2d_24">
    <path d="M 338.555808 418.390615 
L 341.281965 418.310124 
L 345.745808 417.973545 
L 346.489324 417.982402 
L 350.70541 417.60459 
L 351.697299 417.528871 
L 357.649482 417.037939 
L 359.881129 416.935095 
L 363.352783 416.692492 
L 367.072375 416.412673 
L 369.056466 416.252953 
L 375.5037 415.761856 
L 376.49612 415.628526 
L 376.991955 415.626166 
L 391.374697 413.683355 
L 392.863761 413.458837 
L 396.334988 412.86352 
L 408.982318 410.499035 
L 414.190099 409.440492 
L 422.869412 407.63819 
L 427.085806 406.788049 
L 430.309201 406.17129 
L 435.764714 405.147691 
L 437.996459 404.91038 
L 439.236724 404.652923 
L 443.700428 403.735142 
L 451.883532 401.948911 
L 452.875617 401.691219 
L 458.579376 400.511616 
L 466.76214 399.156042 
L 468.994813 398.970253 
L 473.210474 398.766393 
L 477.674234 398.681465 
L 478.418922 398.70971 
L 479.906124 398.745426 
L 481.642568 398.736822 
L 488.089582 398.753983 
L 489.577518 398.777912 
L 491.561393 398.764571 
L 494.784941 398.746086 
L 498.257115 398.550322 
L 504.208719 398.187402 
L 512.392601 397.645232 
L 514.128031 397.500265 
L 521.319597 396.854346 
L 522.316115 396.744309 
L 524.791431 396.554624 
L 535.950647 395.749383 
L 540.662274 395.705509 
L 554.301416 395.967864 
L 559.261767 395.743258 
L 564.220853 395.348251 
L 565.212562 395.233518 
L 566.700543 395.106235 
L 569.180606 394.927505 
L 569.675959 395.005067 
L 570.172712 395.009189 
L 570.420516 395.131631 
L 573.148532 395.163299 
L 575.380261 395.163904 
L 581.331717 395.149218 
L 595.467339 394.428723 
L 595.962969 394.394977 
L 596.955725 394.412566 
L 604.394513 394.55726 
L 613.074278 394.936948 
L 618.529456 394.702604 
L 619.770379 394.5932 
L 630.51493 393.548249 
L 631.763366 393.376607 
L 647.971529 391.620292 
L 649.466471 391.468642 
L 649.96442 391.404447 
L 651.957096 391.129446 
L 652.704235 391.039287 
L 654.447629 390.789029 
L 664.403236 389.406738 
L 665.149642 389.366123 
L 666.144639 389.203636 
L 673.358199 388.170788 
L 674.850033 387.886172 
L 678.083098 387.19588 
L 682.557944 386.251961 
L 685.540377 385.544197 
L 689.517603 384.509228 
L 689.517603 384.509228 
L 694.736143 382.839628 
L 695.978132 382.46119 
L 698.463418 381.593589 
L 712.126126 376.093841 
L 720.073694 372.632585 
L 720.819223 372.388587 
L 726.282334 370.550679 
L 732.987254 368.609453 
L 741.925609 365.966646 
L 763.525508 361.283487 
L 765.760102 360.759063 
L 766.75298 360.578699 
L 768.491313 360.2671 
L 769.732178 360.171418 
L 770.973292 360.155179 
L 772.959289 360.224896 
L 775.690404 360.475295 
L 777.179869 360.729528 
L 780.15852 361.323592 
L 782.641106 361.970352 
L 785.124252 362.682875 
L 791.577511 364.65676 
L 792.322387 364.941936 
L 795.549724 366.022172 
L 796.294292 366.315749 
L 803.493264 368.970312 
L 805.975014 369.897074 
L 808.953944 371.085763 
L 832.535194 380.208904 
L 833.528571 380.573435 
L 839.73393 382.68525 
L 862.818301 390.001217 
L 870.760635 391.747244 
L 878.704189 393.237426 
L 886.39825 394.865048 
L 890.121677 395.243427 
L 893.597152 395.325073 
L 899.802063 395.358799 
L 905.510989 396.039456 
L 908.48976 396.443356 
L 911.964779 396.927133 
L 917.673783 398.031706 
L 920.900907 398.7862 
L 929.588429 400.795259 
L 931.077294 401.151831 
L 933.559066 401.721618 
L 934.552187 401.983819 
L 937.77911 402.663223 
L 939.764406 403.082496 
L 943.488255 404.000462 
L 944.728883 404.378667 
L 948.452214 405.483826 
L 950.189902 406.106673 
L 954.161992 407.408655 
L 957.388082 408.38761 
L 960.118356 409.252755 
L 967.565043 411.446058 
L 971.28824 412.354019 
L 973.522064 412.94144 
L 977.990334 414.103059 
L 986.181291 416.461413 
L 989.904056 417.538376 
L 1007.775861 421.926463 
L 1011.250857 422.69523 
L 1011.250857 422.69523 
L 1016.952058 423.919856 
L 1017.938214 424.085867 
L 1023.612137 425.335145 
L 1025.340744 425.737527 
L 1042.636419 429.50508 
L 1043.87365 429.845011 
L 1052.531098 431.822567 
L 1054.016447 432.095825 
L 1068.376108 434.853187 
L 1075.806464 435.933074 
L 1079.523215 436.337603 
L 1085.716798 436.853317 
L 1088.194917 436.796973 
L 1095.381806 436.008107 
L 1106.288416 433.820773 
L 1110.998405 432.722994 
L 1113.973256 432.055116 
L 1125.626245 429.294827 
L 1130.833612 428.477788 
L 1138.27237 427.645688 
L 1142.487969 427.351778 
L 1146.704025 427.222223 
L 1149.926546 427.08875 
L 1152.903133 426.729413 
L 1157.367496 426.111175 
L 1159.103203 426.016596 
L 1162.079513 426.124604 
L 1170.26361 427.04996 
L 1177.207612 428.001544 
L 1181.176003 428.542538 
L 1185.639713 429.298178 
L 1186.135884 429.432087 
L 1186.135884 429.432087 
L 1190.600124 430.495278 
L 1191.592067 430.76131 
L 1193.328649 431.16397 
L 1194.072301 431.385697 
L 1202.00931 433.083262 
L 1206.225927 433.411093 
L 1208.953605 433.496249 
L 1222.098876 433.673045 
L 1223.339104 433.707784 
L 1227.307978 433.864282 
L 1228.547609 433.940808 
L 1240.948844 434.639826 
L 1243.429079 434.809466 
L 1245.413256 434.8831 
L 1253.847076 435.309975 
L 1254.591082 435.317975 
L 1259.556582 435.53776 
L 1265.762438 435.825491 
L 1266.755317 435.805869 
L 1267.499722 435.870928 
L 1274.20199 436.034717 
L 1274.20199 436.034717 
L 1278.421486 435.778719 
L 1281.400401 435.331875 
L 1287.604883 434.316044 
L 1289.094429 434.008417 
L 1294.057745 432.805513 
L 1298.525096 431.666609 
L 1299.021316 431.586524 
L 1309.195929 429.144805 
L 1326.071857 424.377275 
L 1328.800233 423.61138 
L 1328.800233 423.61138 
L 1341.950411 420.206178 
L 1355.349363 417.457906 
L 1362.29626 416.950096 
L 1365.025139 416.745891 
L 1366.017859 416.638006 
L 1368.002773 416.515605 
L 1388.843643 414.446825 
L 1392.068342 414.6563 
L 1393.805267 414.845965 
L 1404.224811 416.452296 
L 1407.697905 416.56847 
L 1416.132593 415.848359 
L 1418.613735 415.527234 
L 1419.854186 415.372883 
L 1422.583355 414.990647 
L 1432.258712 413.811672 
L 1434.49091 413.814627 
L 1436.723687 414.03834 
L 1438.708186 414.335022 
L 1441.685057 414.944287 
L 1451.111657 417.052084 
L 1454.584831 417.326929 
L 1455.826075 417.319209 
L 1460.786854 416.954783 
L 1466.492373 416.029406 
L 1473.190598 414.709645 
L 1474.431056 414.459634 
L 1488.819242 411.387947 
L 1494.028116 410.177532 
L 1496.508757 409.591048 
L 1503.45443 408.084011 
L 1505.936142 407.569797 
L 1509.160273 406.900939 
L 1510.896765 406.487684 
L 1512.137417 406.129119 
L 1517.842712 404.448436 
L 1519.827271 403.861078 
L 1544.649881 397.431785 
L 1546.386289 397.022453 
L 1548.618896 396.549624 
L 1549.362898 396.424678 
L 1551.34749 396.100248 
L 1557.301773 395.280703 
L 1560.52609 394.891251 
L 1564.517666 394.094589 
L 1566.727807 393.533615 
L 1568.711973 393.021545 
L 1573.921434 391.702586 
L 1587.316384 388.59278 
L 1587.316384 388.59278 
" clip-path="url(#pa0614ecac5)" style="fill: none; stroke: #a39480; stroke-opacity: 0.5; stroke-width: 2.5; stroke-linecap: square"/>
   </g>
   <g id="line2d_25">
    <path d="M 336.81792 418.390615 
L 341.281965 418.361724 
L 342.769615 418.336137 
L 345.993472 418.260246 
L 359.632913 418.011779 
L 360.873315 418.015877 
L 393.855197 417.34227 
L 400.055477 417.171234 
L 406.006431 417.057547 
L 408.734203 416.995431 
L 409.974247 416.973485 
L 414.190099 416.896497 
L 417.661871 416.803823 
L 419.150239 416.786214 
L 424.109942 416.632889 
L 430.805517 416.454663 
L 433.780817 416.394315 
L 439.73266 416.73308 
L 460.563316 416.494924 
L 461.307349 416.490666 
L 465.02694 416.460593 
L 472.466397 416.412712 
L 475.442454 416.350043 
L 479.906124 416.344067 
L 480.401874 416.342124 
L 481.642568 416.383368 
L 482.138117 416.375052 
L 483.377645 416.397562 
L 486.10616 416.411038 
L 492.801328 416.43194 
L 496.273467 416.422257 
L 499.000574 416.43618 
L 509.16853 416.877112 
L 531.735473 418.326102 
L 535.206702 418.328279 
L 536.446627 418.325921 
L 538.430467 418.348621 
L 541.40654 418.422387 
L 548.349894 418.654993 
L 549.341542 418.664303 
L 555.789455 418.885766 
L 556.285386 418.870912 
L 559.509058 418.962303 
L 562.733533 419.062233 
L 564.220853 419.082148 
L 566.700543 419.148641 
L 569.429007 419.236115 
L 572.652282 419.398472 
L 581.331717 419.32582 
L 584.065495 419.057843 
L 585.051459 419.003635 
L 588.027471 418.742475 
L 592.24241 418.33381 
L 602.410528 417.739546 
L 604.394513 417.72378 
L 612.826139 417.895256 
L 614.809866 417.924661 
L 619.521688 417.987532 
L 620.269796 418.014434 
L 620.769149 418.048587 
L 622.270511 418.06701 
L 625.269574 418.121947 
L 627.268417 418.159197 
L 631.763366 418.301373 
L 633.510969 418.363071 
L 641.242665 418.602586 
L 644.234148 418.759336 
L 649.466471 418.95813 
L 649.715596 419.000597 
L 649.96442 418.924746 
L 650.961061 419.032619 
L 651.708414 419.018088 
L 653.700046 419.098884 
L 654.946107 419.132956 
L 657.18555 419.222894 
L 658.928961 419.236128 
L 659.674926 419.297343 
L 661.914776 419.316901 
L 662.910295 419.35256 
L 665.149642 419.435192 
L 666.144639 419.437976 
L 672.113685 419.498537 
L 674.104111 419.476531 
L 678.331333 419.412815 
L 679.574396 419.346195 
L 680.817782 419.312362 
L 682.557944 419.219687 
L 683.800493 419.171284 
L 688.523433 418.933043 
L 732.242037 416.063455 
L 735.221787 415.903058 
L 742.670393 415.712609 
L 773.952524 415.562546 
L 802.499809 417.011785 
L 804.734338 417.159651 
L 805.975014 417.228112 
L 807.960828 417.372232 
L 810.939524 417.558414 
L 817.150131 418.054187 
L 818.882729 418.186743 
L 821.116932 418.349731 
L 829.556579 418.939864 
L 832.535194 419.128341 
L 834.024491 419.177563 
L 835.017426 419.265002 
L 836.506604 419.29112 
L 844.946199 419.548508 
L 846.683953 419.591846 
L 850.406964 419.67986 
L 851.648758 419.704183 
L 864.059051 420.025894 
L 870.264759 420.096046 
L 871.50538 420.082035 
L 898.063897 420.410967 
L 902.284739 420.419875 
L 914.199154 420.466201 
L 915.191853 420.485769 
L 941.750628 420.849904 
L 942.991656 420.893011 
L 949.941744 421.157445 
L 954.90609 421.439234 
L 955.650749 421.532118 
L 958.133195 421.602717 
L 964.587298 421.985539 
L 965.330935 421.955369 
L 968.061319 421.98635 
L 975.011867 422.202933 
L 983.698797 422.580445 
L 985.685025 422.660528 
L 986.181291 422.697711 
L 987.918683 422.746445 
L 989.408256 422.830505 
L 1021.885366 423.986128 
L 1023.119335 424.006241 
L 1024.35369 424.052919 
L 1025.834112 424.080127 
L 1027.562387 424.131831 
L 1046.594386 424.432448 
L 1053.521326 424.510409 
L 1055.996673 424.533697 
L 1056.491349 424.545008 
L 1069.118862 424.626706 
L 1074.815578 424.664948 
L 1076.302007 424.636711 
L 1100.834557 424.250856 
L 1112.237715 423.790564 
L 1116.204503 423.648458 
L 1117.939935 423.569815 
L 1130.392245 423.164464 
L 1131.825425 423.139066 
L 1140.999884 422.978671 
L 1201.761564 422.106569 
L 1203.248973 422.046984 
L 1206.721006 422.027292 
L 1230.531908 421.624316 
L 1232.020526 421.591528 
L 1234.004626 421.529179 
L 1234.748106 421.50955 
L 1236.484212 421.457088 
L 1282.64076 420.092452 
L 1289.342844 420.220551 
L 1331.529256 419.931858 
L 1332.273743 419.929374 
L 1335.003473 419.922164 
L 1336.740514 419.895047 
L 1338.477706 419.874482 
L 1340.462356 419.794684 
L 1342.198689 419.787475 
L 1351.627508 419.608801 
L 1352.619841 419.571881 
L 1359.319678 419.716888 
L 1359.815706 419.84822 
L 1360.063311 419.780121 
L 1361.055765 419.871867 
L 1364.033059 420.09719 
L 1365.770087 420.211474 
L 1369.739967 420.535677 
L 1370.732129 420.554341 
L 1372.220965 420.704093 
L 1379.167433 421.180153 
L 1388.347101 421.724956 
L 1389.587417 421.84151 
L 1391.075959 421.856155 
L 1393.805267 422.025626 
L 1394.301688 422.04335 
L 1396.78257 422.144229 
L 1401.743992 422.255122 
L 1404.224811 422.38027 
L 1407.946455 422.545998 
L 1410.179352 422.665538 
L 1412.412011 422.743149 
L 1416.381413 422.909656 
L 1420.102192 423.054621 
L 1421.342671 423.098536 
L 1424.072011 423.220271 
L 1426.552204 423.239133 
L 1429.777399 423.393619 
L 1437.219833 423.611096 
L 1446.894682 423.55614 
L 1468.72482 423.955194 
L 1476.167908 424.168304 
L 1480.384619 424.267477 
L 1482.617118 424.350285 
L 1509.160273 425.052099 
L 1520.819338 425.126035 
L 1524.044575 425.137838 
L 1527.765242 425.179891 
L 1528.509403 425.17276 
L 1530.989993 425.162066 
L 1540.929004 425.211648 
L 1543.905916 425.214281 
L 1556.557393 425.457358 
L 1562.510259 425.976027 
L 1569.704005 426.046109 
L 1571.936608 426.020528 
L 1573.425021 426.04371 
L 1576.897974 426.043445 
L 1578.634424 426.008989 
L 1587.565034 425.888412 
L 1587.565034 425.888412 
" clip-path="url(#pa0614ecac5)" style="fill: none; stroke: #ff6347; stroke-width: 2.5; stroke-linecap: square"/>
   </g>
   <g id="line2d_26">
    <path d="M 336.569645 418.390615 
L 348.721479 418.304211 
L 359.136929 418.445656 
L 360.625268 418.430715 
L 365.088473 418.463237 
L 378.480409 418.546303 
L 381.952353 418.477743 
L 415.925236 417.279423 
L 421.382128 416.882029 
L 427.085805 416.425691 
L 433.036871 416.01314 
L 433.780816 415.968156 
L 436.261103 416.063728 
L 437.996457 416.155671 
L 441.468635 415.953417 
L 447.420117 415.736257 
L 448.164092 415.686849 
L 450.891855 415.604225 
L 452.379789 415.522583 
L 467.258899 414.888935 
L 468.994812 414.887584 
L 473.458543 414.934819 
L 475.442453 414.989242 
L 476.930256 414.999129 
L 489.577517 415.031556 
L 495.033231 414.937587 
L 498.504944 414.825233 
L 499.496569 414.778386 
L 500.984881 414.832511 
L 502.224745 414.812182 
L 503.960768 414.852787 
L 505.200688 414.880662 
L 507.681211 414.97774 
L 513.632561 415.262748 
L 519.583474 415.655811 
L 529.255084 416.289518 
L 542.149833 416.687459 
L 548.349893 417.0948 
L 549.34154 417.130393 
L 560.749159 417.923755 
L 562.981471 417.993777 
L 567.692642 418.203456 
L 568.93261 418.202441 
L 571.163745 418.286846 
L 572.404388 418.336583 
L 576.620147 418.417278 
L 576.867844 418.29038 
L 577.116125 418.421546 
L 577.86006 418.393819 
L 578.852455 418.385026 
L 579.347817 418.379904 
L 580.83588 418.323714 
L 588.523738 417.680038 
L 591.251329 417.322089 
L 595.962967 416.815972 
L 596.458686 416.83312 
L 597.203049 416.719206 
L 603.154387 416.713518 
L 605.633877 416.786471 
L 610.098207 416.87602 
L 618.529455 416.838543 
L 622.01992 416.790282 
L 633.260992 416.764572 
L 638.749835 416.739385 
L 639.49781 416.67153 
L 641.242663 416.626793 
L 647.473607 416.513135 
L 648.718831 416.455144 
L 649.217295 416.540432 
L 649.96442 416.447445 
L 651.459117 416.414753 
L 653.451738 416.394445 
L 668.881027 416.30031 
L 673.855959 416.115645 
L 677.834101 416.023864 
L 694.984649 415.786309 
L 714.112885 415.97907 
L 718.831875 416.083821 
L 725.289152 415.920597 
L 734.973442 415.56111 
L 737.473702 415.568915 
L 763.029267 417.027638 
L 778.669428 418.32918 
L 781.151868 418.540378 
L 790.088693 419.454208 
L 797.286946 420.254248 
L 812.180719 421.874453 
L 814.16661 422.115005 
L 816.648546 422.470393 
L 823.599302 423.602199 
L 830.54921 425.284145 
L 841.967583 428.335537 
L 847.925428 430.365945 
L 849.910641 431.119945 
L 858.101873 434.637271 
L 862.073483 436.389327 
L 865.548298 437.682922 
L 866.54092 438.044124 
L 869.023733 438.833401 
L 869.768379 439.087531 
L 877.710942 441.383642 
L 878.952478 441.715031 
L 883.91659 442.899652 
L 886.894855 443.142575 
L 890.369928 443.227053 
L 896.327105 443.220957 
L 903.525327 443.097957 
L 905.015121 442.884551 
L 907.248808 442.494732 
L 909.730914 442.021534 
L 919.411079 440.256033 
L 932.566505 438.586889 
L 935.04895 438.49402 
L 938.027487 438.630039 
L 940.261253 438.885942 
L 942.991654 439.447161 
L 946.963536 440.750505 
L 948.700545 441.504248 
L 959.870145 446.898332 
L 965.579211 449.822855 
L 972.777579 453.155648 
L 975.507814 454.474309 
L 982.209398 458.043269 
L 990.400883 462.90615 
L 1014.229113 476.739441 
L 1015.718615 477.350358 
L 1017.198589 477.833906 
L 1020.898868 478.541611 
L 1025.093517 478.73195 
L 1030.773044 478.338074 
L 1040.65865 477.464939 
L 1046.594384 477.171606 
L 1052.036717 477.010724 
L 1052.779762 476.977518 
L 1055.007022 476.917738 
L 1056.491348 476.900063 
L 1061.195156 476.915626 
L 1063.175981 476.948314 
L 1066.395002 477.044523 
L 1082.49647 477.394106 
L 1086.212429 477.088355 
L 1088.442572 476.605911 
L 1091.416643 475.604068 
L 1096.869097 473.328533 
L 1099.347597 472.105669 
L 1104.305055 469.452816 
L 1112.237712 464.883729 
L 1115.708647 462.814265 
L 1124.635117 457.454771 
L 1127.609657 456.132032 
L 1130.08914 455.206942 
L 1132.321532 454.518135 
L 1133.064429 454.253483 
L 1135.792485 453.561189 
L 1139.512486 452.765213 
L 1143.975394 452.204668 
L 1150.681665 451.55905 
L 1152.90313 450.917255 
L 1155.134995 450.014887 
L 1157.615238 449.106566 
L 1159.847088 448.639247 
L 1161.583008 448.499967 
L 1167.287889 448.456047 
L 1171.751606 448.475747 
L 1174.231085 448.562849 
L 1178.695387 448.652524 
L 1181.176002 448.731184 
L 1183.903748 449.024373 
L 1188.128274 450.126403 
L 1190.848628 451.235931 
L 1193.328647 452.319577 
L 1199.033074 454.696065 
L 1202.009309 455.454224 
L 1205.234255 455.951659 
L 1207.961522 456.113174 
L 1217.635272 456.157834 
L 1226.811456 456.006795 
L 1228.05161 456.062665 
L 1252.358525 456.413041 
L 1258.066725 456.327534 
L 1263.031474 456.244754 
L 1267.251573 456.162962 
L 1270.230445 456.098322 
L 1270.974957 456.12631 
L 1272.961017 456.043043 
L 1275.691189 455.729 
L 1278.173456 455.121728 
L 1280.158785 454.484918 
L 1286.364352 452.049369 
L 1291.328119 449.555341 
L 1296.539056 446.658406 
L 1305.473953 442.183615 
L 1306.71458 441.496474 
L 1307.459249 441.11509 
L 1311.429582 438.853611 
L 1323.837641 431.623935 
L 1327.806891 429.377679 
L 1330.040477 428.046154 
L 1335.499364 424.959174 
L 1337.980669 423.67575 
L 1339.469224 422.91108 
L 1342.695121 421.461418 
L 1348.650035 418.86597 
L 1351.627508 417.817446 
L 1353.115711 417.434185 
L 1354.604894 417.278914 
L 1376.438166 417.351788 
L 1383.385134 417.143035 
L 1387.106604 417.210148 
L 1389.338559 417.490853 
L 1391.323932 418.042709 
L 1393.805265 418.999059 
L 1396.534096 420.249102 
L 1402.984388 423.295775 
L 1405.961992 424.275883 
L 1407.450233 424.6419 
L 1410.426746 425.136443 
L 1414.397111 425.546596 
L 1418.86182 425.770042 
L 1426.056483 425.904525 
L 1427.544698 425.994643 
L 1430.769597 426.271861 
L 1433.002507 426.705786 
L 1434.739695 427.195717 
L 1437.467592 428.33347 
L 1449.375809 434.863456 
L 1450.119863 435.260731 
L 1453.344845 436.721879 
L 1455.081148 437.256461 
L 1457.313832 437.743676 
L 1462.275898 438.175453 
L 1466.49237 438.230829 
L 1470.213567 438.290774 
L 1478.647985 438.735854 
L 1483.857564 439.173354 
L 1493.036414 440.473732 
L 1497.00498 441.194767 
L 1506.431344 443.007703 
L 1508.664411 443.212383 
L 1511.393035 443.11064 
L 1512.633354 442.905346 
L 1513.625581 442.623427 
L 1514.865496 442.274572 
L 1518.338759 440.849442 
L 1521.316212 439.217415 
L 1525.036405 436.830509 
L 1529.749573 433.770524 
L 1536.463547 429.766587 
L 1542.665768 426.428444 
L 1550.603801 422.925796 
L 1562.262808 418.703089 
L 1564.743215 417.427339 
L 1567.471723 415.885998 
L 1577.145995 410.486949 
L 1583.348169 407.245559 
L 1585.332564 406.18089 
L 1587.565034 405.082223 
L 1587.565034 405.082223 
" clip-path="url(#pa0614ecac5)" style="fill: none; stroke: #d2b48c; stroke-opacity: 0.5; stroke-width: 2.5; stroke-linecap: square"/>
   </g>
   <g id="patch_3">
    <path d="M 230.4 813.1752 
L 230.4 109.6416 
" style="fill: none; stroke: #000000; stroke-width: 3; stroke-linejoin: miter; stroke-linecap: square"/>
   </g>
   <g id="patch_4">
    <path d="M 1658.88 813.1752 
L 1658.88 109.6416 
" style="fill: none; stroke: #000000; stroke-width: 3; stroke-linejoin: miter; stroke-linecap: square"/>
   </g>
   <g id="patch_5">
    <path d="M 230.4 813.1752 
L 1658.88 813.1752 
" style="fill: none; stroke: #000000; stroke-width: 3; stroke-linejoin: miter; stroke-linecap: square"/>
   </g>
   <g id="patch_6">
    <path d="M 230.4 109.6416 
L 1658.88 109.6416 
" style="fill: none; stroke: #000000; stroke-width: 3; stroke-linejoin: miter; stroke-linecap: square"/>
   </g>
   <g id="legend_1">
    <g id="patch_7">
     <path d="M 297.8968 730.32184 
L 533.185862 730.32184 
Q 538.185862 730.32184 538.185862 725.32184 
L 538.185862 507.649965 
Q 538.185862 502.649965 533.185862 502.649965 
L 297.8968 502.649965 
Q 292.8968 502.649965 292.8968 507.649965 
L 292.8968 725.32184 
Q 292.8968 730.32184 297.8968 730.32184 
z
" style="fill: #ffffff; opacity: 0.8; stroke: #cccccc; stroke-linejoin: miter"/>
    </g>
    <g id="line2d_27">
     <path d="M 302.8968 522.896059 
L 327.8968 522.896059 
L 352.8968 522.896059 
" style="fill: none; stroke-dasharray: 9.25,4; stroke-dashoffset: 0; stroke: #808a87; stroke-width: 2.5"/>
    </g>
    <g id="text_13">
     <!-- GroundTruth -->
     <g transform="translate(372.8968 531.646059) scale(0.25 -0.25)">
      <defs>
       <path id="DejaVuSans-47" d="M 3809 666 
L 3809 1919 
L 2778 1919 
L 2778 2438 
L 4434 2438 
L 4434 434 
Q 4069 175 3628 42 
Q 3188 -91 2688 -91 
Q 1594 -91 976 548 
Q 359 1188 359 2328 
Q 359 3472 976 4111 
Q 1594 4750 2688 4750 
Q 3144 4750 3555 4637 
Q 3966 4525 4313 4306 
L 4313 3634 
Q 3963 3931 3569 4081 
Q 3175 4231 2741 4231 
Q 1884 4231 1454 3753 
Q 1025 3275 1025 2328 
Q 1025 1384 1454 906 
Q 1884 428 2741 428 
Q 3075 428 3337 486 
Q 3600 544 3809 666 
z
" transform="scale(0.015625)"/>
       <path id="DejaVuSans-72" d="M 2631 2963 
Q 2534 3019 2420 3045 
Q 2306 3072 2169 3072 
Q 1681 3072 1420 2755 
Q 1159 2438 1159 1844 
L 1159 0 
L 581 0 
L 581 3500 
L 1159 3500 
L 1159 2956 
Q 1341 3275 1631 3429 
Q 1922 3584 2338 3584 
Q 2397 3584 2469 3576 
Q 2541 3569 2628 3553 
L 2631 2963 
z
" transform="scale(0.015625)"/>
       <path id="DejaVuSans-6f" d="M 1959 3097 
Q 1497 3097 1228 2736 
Q 959 2375 959 1747 
Q 959 1119 1226 758 
Q 1494 397 1959 397 
Q 2419 397 2687 759 
Q 2956 1122 2956 1747 
Q 2956 2369 2687 2733 
Q 2419 3097 1959 3097 
z
M 1959 3584 
Q 2709 3584 3137 3096 
Q 3566 2609 3566 1747 
Q 3566 888 3137 398 
Q 2709 -91 1959 -91 
Q 1206 -91 779 398 
Q 353 888 353 1747 
Q 353 2609 779 3096 
Q 1206 3584 1959 3584 
z
" transform="scale(0.015625)"/>
       <path id="DejaVuSans-75" d="M 544 1381 
L 544 3500 
L 1119 3500 
L 1119 1403 
Q 1119 906 1312 657 
Q 1506 409 1894 409 
Q 2359 409 2629 706 
Q 2900 1003 2900 1516 
L 2900 3500 
L 3475 3500 
L 3475 0 
L 2900 0 
L 2900 538 
Q 2691 219 2414 64 
Q 2138 -91 1772 -91 
Q 1169 -91 856 284 
Q 544 659 544 1381 
z
M 1991 3584 
L 1991 3584 
z
" transform="scale(0.015625)"/>
       <path id="DejaVuSans-6e" d="M 3513 2113 
L 3513 0 
L 2938 0 
L 2938 2094 
Q 2938 2591 2744 2837 
Q 2550 3084 2163 3084 
Q 1697 3084 1428 2787 
Q 1159 2491 1159 1978 
L 1159 0 
L 581 0 
L 581 3500 
L 1159 3500 
L 1159 2956 
Q 1366 3272 1645 3428 
Q 1925 3584 2291 3584 
Q 2894 3584 3203 3211 
Q 3513 2838 3513 2113 
z
" transform="scale(0.015625)"/>
       <path id="DejaVuSans-64" d="M 2906 2969 
L 2906 4863 
L 3481 4863 
L 3481 0 
L 2906 0 
L 2906 525 
Q 2725 213 2448 61 
Q 2172 -91 1784 -91 
Q 1150 -91 751 415 
Q 353 922 353 1747 
Q 353 2572 751 3078 
Q 1150 3584 1784 3584 
Q 2172 3584 2448 3432 
Q 2725 3281 2906 2969 
z
M 947 1747 
Q 947 1113 1208 752 
Q 1469 391 1925 391 
Q 2381 391 2643 752 
Q 2906 1113 2906 1747 
Q 2906 2381 2643 2742 
Q 2381 3103 1925 3103 
Q 1469 3103 1208 2742 
Q 947 2381 947 1747 
z
" transform="scale(0.015625)"/>
       <path id="DejaVuSans-54" d="M -19 4666 
L 3928 4666 
L 3928 4134 
L 2272 4134 
L 2272 0 
L 1638 0 
L 1638 4134 
L -19 4134 
L -19 4666 
z
" transform="scale(0.015625)"/>
       <path id="DejaVuSans-74" d="M 1172 4494 
L 1172 3500 
L 2356 3500 
L 2356 3053 
L 1172 3053 
L 1172 1153 
Q 1172 725 1289 603 
Q 1406 481 1766 481 
L 2356 481 
L 2356 0 
L 1766 0 
Q 1100 0 847 248 
Q 594 497 594 1153 
L 594 3053 
L 172 3053 
L 172 3500 
L 594 3500 
L 594 4494 
L 1172 4494 
z
" transform="scale(0.015625)"/>
       <path id="DejaVuSans-68" d="M 3513 2113 
L 3513 0 
L 2938 0 
L 2938 2094 
Q 2938 2591 2744 2837 
Q 2550 3084 2163 3084 
Q 1697 3084 1428 2787 
Q 1159 2491 1159 1978 
L 1159 0 
L 581 0 
L 581 4863 
L 1159 4863 
L 1159 2956 
Q 1366 3272 1645 3428 
Q 1925 3584 2291 3584 
Q 2894 3584 3203 3211 
Q 3513 2838 3513 2113 
z
" transform="scale(0.015625)"/>
      </defs>
      <use xlink:href="#DejaVuSans-47"/>
      <use xlink:href="#DejaVuSans-72" x="77.490234"/>
      <use xlink:href="#DejaVuSans-6f" x="116.353516"/>
      <use xlink:href="#DejaVuSans-75" x="177.535156"/>
      <use xlink:href="#DejaVuSans-6e" x="240.914062"/>
      <use xlink:href="#DejaVuSans-64" x="304.292969"/>
      <use xlink:href="#DejaVuSans-54" x="367.769531"/>
      <use xlink:href="#DejaVuSans-72" x="414.103516"/>
      <use xlink:href="#DejaVuSans-75" x="455.216797"/>
      <use xlink:href="#DejaVuSans-74" x="518.595703"/>
      <use xlink:href="#DejaVuSans-68" x="557.804688"/>
     </g>
    </g>
    <g id="line2d_28">
     <path d="M 302.8968 559.591371 
L 327.8968 559.591371 
L 352.8968 559.591371 
" style="fill: none; stroke: #7cfc00; stroke-width: 2.5; stroke-linecap: square"/>
    </g>
    <g id="text_14">
     <!-- ROLO -->
     <g transform="translate(372.8968 568.341371) scale(0.25 -0.25)">
      <defs>
       <path id="DejaVuSans-52" d="M 2841 2188 
Q 3044 2119 3236 1894 
Q 3428 1669 3622 1275 
L 4263 0 
L 3584 0 
L 2988 1197 
Q 2756 1666 2539 1819 
Q 2322 1972 1947 1972 
L 1259 1972 
L 1259 0 
L 628 0 
L 628 4666 
L 2053 4666 
Q 2853 4666 3247 4331 
Q 3641 3997 3641 3322 
Q 3641 2881 3436 2590 
Q 3231 2300 2841 2188 
z
M 1259 4147 
L 1259 2491 
L 2053 2491 
Q 2509 2491 2742 2702 
Q 2975 2913 2975 3322 
Q 2975 3731 2742 3939 
Q 2509 4147 2053 4147 
L 1259 4147 
z
" transform="scale(0.015625)"/>
       <path id="DejaVuSans-4f" d="M 2522 4238 
Q 1834 4238 1429 3725 
Q 1025 3213 1025 2328 
Q 1025 1447 1429 934 
Q 1834 422 2522 422 
Q 3209 422 3611 934 
Q 4013 1447 4013 2328 
Q 4013 3213 3611 3725 
Q 3209 4238 2522 4238 
z
M 2522 4750 
Q 3503 4750 4090 4092 
Q 4678 3434 4678 2328 
Q 4678 1225 4090 567 
Q 3503 -91 2522 -91 
Q 1538 -91 948 565 
Q 359 1222 359 2328 
Q 359 3434 948 4092 
Q 1538 4750 2522 4750 
z
" transform="scale(0.015625)"/>
       <path id="DejaVuSans-4c" d="M 628 4666 
L 1259 4666 
L 1259 531 
L 3531 531 
L 3531 0 
L 628 0 
L 628 4666 
z
" transform="scale(0.015625)"/>
      </defs>
      <use xlink:href="#DejaVuSans-52"/>
      <use xlink:href="#DejaVuSans-4f" x="69.482422"/>
      <use xlink:href="#DejaVuSans-4c" x="148.193359"/>
      <use xlink:href="#DejaVuSans-4f" x="200.28125"/>
     </g>
    </g>
    <g id="line2d_29">
     <path d="M 302.8968 596.286684 
L 327.8968 596.286684 
L 352.8968 596.286684 
" style="fill: none; stroke: #ffc0cb; stroke-opacity: 0.5; stroke-width: 2.5; stroke-linecap: square"/>
    </g>
    <g id="text_15">
     <!-- LOAM -->
     <g transform="translate(372.8968 605.036684) scale(0.25 -0.25)">
      <defs>
       <path id="DejaVuSans-41" d="M 2188 4044 
L 1331 1722 
L 3047 1722 
L 2188 4044 
z
M 1831 4666 
L 2547 4666 
L 4325 0 
L 3669 0 
L 3244 1197 
L 1141 1197 
L 716 0 
L 50 0 
L 1831 4666 
z
" transform="scale(0.015625)"/>
       <path id="DejaVuSans-4d" d="M 628 4666 
L 1569 4666 
L 2759 1491 
L 3956 4666 
L 4897 4666 
L 4897 0 
L 4281 0 
L 4281 4097 
L 3078 897 
L 2444 897 
L 1241 4097 
L 1241 0 
L 628 0 
L 628 4666 
z
" transform="scale(0.015625)"/>
      </defs>
      <use xlink:href="#DejaVuSans-4c"/>
      <use xlink:href="#DejaVuSans-4f" x="52.087891"/>
      <use xlink:href="#DejaVuSans-41" x="129.048828"/>
      <use xlink:href="#DejaVuSans-4d" x="197.457031"/>
     </g>
    </g>
    <g id="line2d_30">
     <path d="M 302.8968 632.981996 
L 327.8968 632.981996 
L 352.8968 632.981996 
" style="fill: none; stroke: #a39480; stroke-opacity: 0.5; stroke-width: 2.5; stroke-linecap: square"/>
    </g>
    <g id="text_16">
     <!-- LeGO-LOAM -->
     <g transform="translate(372.8968 641.731996) scale(0.25 -0.25)">
      <defs>
       <path id="DejaVuSans-65" d="M 3597 1894 
L 3597 1613 
L 953 1613 
Q 991 1019 1311 708 
Q 1631 397 2203 397 
Q 2534 397 2845 478 
Q 3156 559 3463 722 
L 3463 178 
Q 3153 47 2828 -22 
Q 2503 -91 2169 -91 
Q 1331 -91 842 396 
Q 353 884 353 1716 
Q 353 2575 817 3079 
Q 1281 3584 2069 3584 
Q 2775 3584 3186 3129 
Q 3597 2675 3597 1894 
z
M 3022 2063 
Q 3016 2534 2758 2815 
Q 2500 3097 2075 3097 
Q 1594 3097 1305 2825 
Q 1016 2553 972 2059 
L 3022 2063 
z
" transform="scale(0.015625)"/>
       <path id="DejaVuSans-2d" d="M 313 2009 
L 1997 2009 
L 1997 1497 
L 313 1497 
L 313 2009 
z
" transform="scale(0.015625)"/>
      </defs>
      <use xlink:href="#DejaVuSans-4c"/>
      <use xlink:href="#DejaVuSans-65" x="53.962891"/>
      <use xlink:href="#DejaVuSans-47" x="115.486328"/>
      <use xlink:href="#DejaVuSans-4f" x="192.976562"/>
      <use xlink:href="#DejaVuSans-2d" x="274.4375"/>
      <use xlink:href="#DejaVuSans-4c" x="310.521484"/>
      <use xlink:href="#DejaVuSans-4f" x="362.609375"/>
      <use xlink:href="#DejaVuSans-41" x="439.570312"/>
      <use xlink:href="#DejaVuSans-4d" x="507.978516"/>
     </g>
    </g>
    <g id="line2d_31">
     <path d="M 302.8968 669.677309 
L 327.8968 669.677309 
L 352.8968 669.677309 
" style="fill: none; stroke: #ff6347; stroke-width: 2.5; stroke-linecap: square"/>
    </g>
    <g id="text_17">
     <!-- CT-ICP -->
     <g transform="translate(372.8968 678.427309) scale(0.25 -0.25)">
      <defs>
       <path id="DejaVuSans-43" d="M 4122 4306 
L 4122 3641 
Q 3803 3938 3442 4084 
Q 3081 4231 2675 4231 
Q 1875 4231 1450 3742 
Q 1025 3253 1025 2328 
Q 1025 1406 1450 917 
Q 1875 428 2675 428 
Q 3081 428 3442 575 
Q 3803 722 4122 1019 
L 4122 359 
Q 3791 134 3420 21 
Q 3050 -91 2638 -91 
Q 1578 -91 968 557 
Q 359 1206 359 2328 
Q 359 3453 968 4101 
Q 1578 4750 2638 4750 
Q 3056 4750 3426 4639 
Q 3797 4528 4122 4306 
z
" transform="scale(0.015625)"/>
       <path id="DejaVuSans-49" d="M 628 4666 
L 1259 4666 
L 1259 0 
L 628 0 
L 628 4666 
z
" transform="scale(0.015625)"/>
       <path id="DejaVuSans-50" d="M 1259 4147 
L 1259 2394 
L 2053 2394 
Q 2494 2394 2734 2622 
Q 2975 2850 2975 3272 
Q 2975 3691 2734 3919 
Q 2494 4147 2053 4147 
L 1259 4147 
z
M 628 4666 
L 2053 4666 
Q 2838 4666 3239 4311 
Q 3641 3956 3641 3272 
Q 3641 2581 3239 2228 
Q 2838 1875 2053 1875 
L 1259 1875 
L 1259 0 
L 628 0 
L 628 4666 
z
" transform="scale(0.015625)"/>
      </defs>
      <use xlink:href="#DejaVuSans-43"/>
      <use xlink:href="#DejaVuSans-54" x="69.824219"/>
      <use xlink:href="#DejaVuSans-2d" x="121.783203"/>
      <use xlink:href="#DejaVuSans-49" x="157.867188"/>
      <use xlink:href="#DejaVuSans-43" x="187.359375"/>
      <use xlink:href="#DejaVuSans-50" x="257.183594"/>
     </g>
    </g>
    <g id="line2d_32">
     <path d="M 302.8968 706.372621 
L 327.8968 706.372621 
L 352.8968 706.372621 
" style="fill: none; stroke: #d2b48c; stroke-opacity: 0.5; stroke-width: 2.5; stroke-linecap: square"/>
    </g>
    <g id="text_18">
     <!-- HDL-SLAM -->
     <g transform="translate(372.8968 715.122621) scale(0.25 -0.25)">
      <defs>
       <path id="DejaVuSans-48" d="M 628 4666 
L 1259 4666 
L 1259 2753 
L 3553 2753 
L 3553 4666 
L 4184 4666 
L 4184 0 
L 3553 0 
L 3553 2222 
L 1259 2222 
L 1259 0 
L 628 0 
L 628 4666 
z
" transform="scale(0.015625)"/>
       <path id="DejaVuSans-44" d="M 1259 4147 
L 1259 519 
L 2022 519 
Q 2988 519 3436 956 
Q 3884 1394 3884 2338 
Q 3884 3275 3436 3711 
Q 2988 4147 2022 4147 
L 1259 4147 
z
M 628 4666 
L 1925 4666 
Q 3281 4666 3915 4102 
Q 4550 3538 4550 2338 
Q 4550 1131 3912 565 
Q 3275 0 1925 0 
L 628 0 
L 628 4666 
z
" transform="scale(0.015625)"/>
       <path id="DejaVuSans-53" d="M 3425 4513 
L 3425 3897 
Q 3066 4069 2747 4153 
Q 2428 4238 2131 4238 
Q 1616 4238 1336 4038 
Q 1056 3838 1056 3469 
Q 1056 3159 1242 3001 
Q 1428 2844 1947 2747 
L 2328 2669 
Q 3034 2534 3370 2195 
Q 3706 1856 3706 1288 
Q 3706 609 3251 259 
Q 2797 -91 1919 -91 
Q 1588 -91 1214 -16 
Q 841 59 441 206 
L 441 856 
Q 825 641 1194 531 
Q 1563 422 1919 422 
Q 2459 422 2753 634 
Q 3047 847 3047 1241 
Q 3047 1584 2836 1778 
Q 2625 1972 2144 2069 
L 1759 2144 
Q 1053 2284 737 2584 
Q 422 2884 422 3419 
Q 422 4038 858 4394 
Q 1294 4750 2059 4750 
Q 2388 4750 2728 4690 
Q 3069 4631 3425 4513 
z
" transform="scale(0.015625)"/>
      </defs>
      <use xlink:href="#DejaVuSans-48"/>
      <use xlink:href="#DejaVuSans-44" x="75.195312"/>
      <use xlink:href="#DejaVuSans-4c" x="152.197266"/>
      <use xlink:href="#DejaVuSans-2d" x="206.160156"/>
      <use xlink:href="#DejaVuSans-53" x="242.244141"/>
      <use xlink:href="#DejaVuSans-4c" x="305.720703"/>
      <use xlink:href="#DejaVuSans-41" x="363.683594"/>
      <use xlink:href="#DejaVuSans-4d" x="432.091797"/>
     </g>
    </g>
   </g>
  </g>
 </g>
 <defs>
  <clipPath id="pa0614ecac5">
   <rect x="230.4" y="109.6416" width="1428.48" height="703.5336"/>
  </clipPath>
 </defs>
</svg>
