<?xml version="1.0" encoding="utf-8" standalone="no"?>
<!DOCTYPE svg PUBLIC "-//W3C//DTD SVG 1.1//EN"
  "http://www.w3.org/Graphics/SVG/1.1/DTD/svg11.dtd">
<svg xmlns:xlink="http://www.w3.org/1999/xlink" width="1843.2pt" height="720pt" viewBox="0 0 1843.2 720" xmlns="http://www.w3.org/2000/svg" version="1.1">
 <metadata>
  <rdf:RDF xmlns:dc="http://purl.org/dc/elements/1.1/" xmlns:cc="http://creativecommons.org/ns#" xmlns:rdf="http://www.w3.org/1999/02/22-rdf-syntax-ns#">
   <cc:Work>
    <dc:type rdf:resource="http://purl.org/dc/dcmitype/StillImage"/>
    <dc:date>2024-03-12T16:12:46.973039</dc:date>
    <dc:format>image/svg+xml</dc:format>
    <dc:creator>
     <cc:Agent>
      <dc:title>Matplotlib v3.7.0, https://matplotlib.org/</dc:title>
     </cc:Agent>
    </dc:creator>
   </cc:Work>
  </rdf:RDF>
 </metadata>
 <defs>
  <style type="text/css">*{stroke-linejoin: round; stroke-linecap: butt}</style>
 </defs>
 <g id="figure_1">
  <g id="patch_1">
   <path d="M 0 720 
L 1843.2 720 
L 1843.2 0 
L 0 0 
z
" style="fill: #ffffff"/>
  </g>
  <g id="axes_1">
   <g id="patch_2">
    <path d="M 230.4 640.8 
L 1658.88 640.8 
L 1658.88 86.4 
L 230.4 86.4 
z
" style="fill: #ffffff"/>
   </g>
   <g id="matplotlib.axis_1">
    <g id="xtick_1">
     <g id="line2d_1">
      <path d="M 295.330909 640.8 
L 295.330909 86.4 
" clip-path="url(#p87bc051718)" style="fill: none; stroke: #b0b0b0; stroke-width: 0.8; stroke-linecap: square"/>
     </g>
     <g id="line2d_2">
      <defs>
       <path id="m04ff937151" d="M 0 0 
L 0 -5 
" style="stroke: #000000; stroke-width: 0.8"/>
      </defs>
      <g>
       <use xlink:href="#m04ff937151" x="295.330909" y="640.8" style="stroke: #000000; stroke-width: 0.8"/>
      </g>
     </g>
     <g id="text_1">
      <!-- 0 -->
      <g transform="translate(282.605909 674.69375) scale(0.4 -0.4)">
       <defs>
        <path id="DejaVuSans-30" d="M 2034 4250 
Q 1547 4250 1301 3770 
Q 1056 3291 1056 2328 
Q 1056 1369 1301 889 
Q 1547 409 2034 409 
Q 2525 409 2770 889 
Q 3016 1369 3016 2328 
Q 3016 3291 2770 3770 
Q 2525 4250 2034 4250 
z
M 2034 4750 
Q 2819 4750 3233 4129 
Q 3647 3509 3647 2328 
Q 3647 1150 3233 529 
Q 2819 -91 2034 -91 
Q 1250 -91 836 529 
Q 422 1150 422 2328 
Q 422 3509 836 4129 
Q 1250 4750 2034 4750 
z
" transform="scale(0.015625)"/>
       </defs>
       <use xlink:href="#DejaVuSans-30"/>
      </g>
     </g>
    </g>
    <g id="xtick_2">
     <g id="line2d_3">
      <path d="M 1233.722241 640.8 
L 1233.722241 86.4 
" clip-path="url(#p87bc051718)" style="fill: none; stroke: #b0b0b0; stroke-width: 0.8; stroke-linecap: square"/>
     </g>
     <g id="line2d_4">
      <g>
       <use xlink:href="#m04ff937151" x="1233.722241" y="640.8" style="stroke: #000000; stroke-width: 0.8"/>
      </g>
     </g>
     <g id="text_2">
      <!-- 100 -->
      <g transform="translate(1195.547241 674.69375) scale(0.4 -0.4)">
       <defs>
        <path id="DejaVuSans-31" d="M 794 531 
L 1825 531 
L 1825 4091 
L 703 3866 
L 703 4441 
L 1819 4666 
L 2450 4666 
L 2450 531 
L 3481 531 
L 3481 0 
L 794 0 
L 794 531 
z
" transform="scale(0.015625)"/>
       </defs>
       <use xlink:href="#DejaVuSans-31"/>
       <use xlink:href="#DejaVuSans-30" x="63.623047"/>
       <use xlink:href="#DejaVuSans-30" x="127.246094"/>
      </g>
     </g>
    </g>
    <g id="text_3">
     <!-- Time(s) -->
     <g transform="translate(882.030625 714.7875) scale(0.4 -0.4)">
      <defs>
       <path id="TimesNewRomanPSMT-54" d="M 3703 4238 
L 3750 3244 
L 3631 3244 
Q 3597 3506 3538 3619 
Q 3441 3800 3280 3886 
Q 3119 3972 2856 3972 
L 2259 3972 
L 2259 734 
Q 2259 344 2344 247 
Q 2463 116 2709 116 
L 2856 116 
L 2856 0 
L 1059 0 
L 1059 116 
L 1209 116 
Q 1478 116 1591 278 
Q 1659 378 1659 734 
L 1659 3972 
L 1150 3972 
Q 853 3972 728 3928 
Q 566 3869 450 3700 
Q 334 3531 313 3244 
L 194 3244 
L 244 4238 
L 3703 4238 
z
" transform="scale(0.015625)"/>
       <path id="TimesNewRomanPSMT-69" d="M 928 4444 
Q 1059 4444 1151 4351 
Q 1244 4259 1244 4128 
Q 1244 3997 1151 3903 
Q 1059 3809 928 3809 
Q 797 3809 703 3903 
Q 609 3997 609 4128 
Q 609 4259 701 4351 
Q 794 4444 928 4444 
z
M 1188 2947 
L 1188 647 
Q 1188 378 1227 289 
Q 1266 200 1342 156 
Q 1419 113 1622 113 
L 1622 0 
L 231 0 
L 231 113 
Q 441 113 512 153 
Q 584 194 626 287 
Q 669 381 669 647 
L 669 1750 
Q 669 2216 641 2353 
Q 619 2453 572 2492 
Q 525 2531 444 2531 
Q 356 2531 231 2484 
L 188 2597 
L 1050 2947 
L 1188 2947 
z
" transform="scale(0.015625)"/>
       <path id="TimesNewRomanPSMT-6d" d="M 1050 2338 
Q 1363 2650 1419 2697 
Q 1559 2816 1721 2881 
Q 1884 2947 2044 2947 
Q 2313 2947 2506 2790 
Q 2700 2634 2766 2338 
Q 3088 2713 3309 2830 
Q 3531 2947 3766 2947 
Q 3994 2947 4170 2830 
Q 4347 2713 4450 2447 
Q 4519 2266 4519 1878 
L 4519 647 
Q 4519 378 4559 278 
Q 4591 209 4675 161 
Q 4759 113 4950 113 
L 4950 0 
L 3538 0 
L 3538 113 
L 3597 113 
Q 3781 113 3884 184 
Q 3956 234 3988 344 
Q 4000 397 4000 647 
L 4000 1878 
Q 4000 2228 3916 2372 
Q 3794 2572 3525 2572 
Q 3359 2572 3192 2489 
Q 3025 2406 2788 2181 
L 2781 2147 
L 2788 2013 
L 2788 647 
Q 2788 353 2820 281 
Q 2853 209 2943 161 
Q 3034 113 3253 113 
L 3253 0 
L 1806 0 
L 1806 113 
Q 2044 113 2133 169 
Q 2222 225 2256 338 
Q 2272 391 2272 647 
L 2272 1878 
Q 2272 2228 2169 2381 
Q 2031 2581 1784 2581 
Q 1616 2581 1450 2491 
Q 1191 2353 1050 2181 
L 1050 647 
Q 1050 366 1089 281 
Q 1128 197 1204 155 
Q 1281 113 1516 113 
L 1516 0 
L 100 0 
L 100 113 
Q 297 113 375 155 
Q 453 197 493 289 
Q 534 381 534 647 
L 534 1741 
Q 534 2213 506 2350 
Q 484 2453 437 2492 
Q 391 2531 309 2531 
Q 222 2531 100 2484 
L 53 2597 
L 916 2947 
L 1050 2947 
L 1050 2338 
z
" transform="scale(0.015625)"/>
       <path id="TimesNewRomanPSMT-65" d="M 681 1784 
Q 678 1147 991 784 
Q 1303 422 1725 422 
Q 2006 422 2214 576 
Q 2422 731 2563 1106 
L 2659 1044 
Q 2594 616 2278 264 
Q 1963 -88 1488 -88 
Q 972 -88 605 314 
Q 238 716 238 1394 
Q 238 2128 614 2539 
Q 991 2950 1559 2950 
Q 2041 2950 2350 2633 
Q 2659 2316 2659 1784 
L 681 1784 
z
M 681 1966 
L 2006 1966 
Q 1991 2241 1941 2353 
Q 1863 2528 1708 2628 
Q 1553 2728 1384 2728 
Q 1125 2728 920 2526 
Q 716 2325 681 1966 
z
" transform="scale(0.015625)"/>
       <path id="TimesNewRomanPSMT-28" d="M 1988 -1253 
L 1988 -1369 
Q 1516 -1131 1200 -813 
Q 750 -359 506 256 
Q 263 872 263 1534 
Q 263 2503 741 3301 
Q 1219 4100 1988 4444 
L 1988 4313 
Q 1603 4100 1356 3731 
Q 1109 3363 987 2797 
Q 866 2231 866 1616 
Q 866 947 969 400 
Q 1050 -31 1165 -292 
Q 1281 -553 1476 -793 
Q 1672 -1034 1988 -1253 
z
" transform="scale(0.015625)"/>
       <path id="TimesNewRomanPSMT-73" d="M 2050 2947 
L 2050 1972 
L 1947 1972 
Q 1828 2431 1642 2597 
Q 1456 2763 1169 2763 
Q 950 2763 815 2647 
Q 681 2531 681 2391 
Q 681 2216 781 2091 
Q 878 1963 1175 1819 
L 1631 1597 
Q 2266 1288 2266 781 
Q 2266 391 1970 151 
Q 1675 -88 1309 -88 
Q 1047 -88 709 6 
Q 606 38 541 38 
Q 469 38 428 -44 
L 325 -44 
L 325 978 
L 428 978 
Q 516 541 762 319 
Q 1009 97 1316 97 
Q 1531 97 1667 223 
Q 1803 350 1803 528 
Q 1803 744 1651 891 
Q 1500 1038 1047 1263 
Q 594 1488 453 1669 
Q 313 1847 313 2119 
Q 313 2472 555 2709 
Q 797 2947 1181 2947 
Q 1350 2947 1591 2875 
Q 1750 2828 1803 2828 
Q 1853 2828 1881 2850 
Q 1909 2872 1947 2947 
L 2050 2947 
z
" transform="scale(0.015625)"/>
       <path id="TimesNewRomanPSMT-29" d="M 144 4313 
L 144 4444 
Q 619 4209 934 3891 
Q 1381 3434 1625 2820 
Q 1869 2206 1869 1541 
Q 1869 572 1392 -226 
Q 916 -1025 144 -1369 
L 144 -1253 
Q 528 -1038 776 -670 
Q 1025 -303 1145 264 
Q 1266 831 1266 1447 
Q 1266 2113 1163 2663 
Q 1084 3094 967 3353 
Q 850 3613 656 3853 
Q 463 4094 144 4313 
z
" transform="scale(0.015625)"/>
      </defs>
      <use xlink:href="#TimesNewRomanPSMT-54"/>
      <use xlink:href="#TimesNewRomanPSMT-69" x="57.583984"/>
      <use xlink:href="#TimesNewRomanPSMT-6d" x="85.367188"/>
      <use xlink:href="#TimesNewRomanPSMT-65" x="163.150391"/>
      <use xlink:href="#TimesNewRomanPSMT-28" x="207.535156"/>
      <use xlink:href="#TimesNewRomanPSMT-73" x="240.835938"/>
      <use xlink:href="#TimesNewRomanPSMT-29" x="279.751953"/>
     </g>
    </g>
   </g>
   <g id="matplotlib.axis_2">
    <g id="ytick_1">
     <g id="line2d_5">
      <path d="M 230.4 629.329655 
L 1658.88 629.329655 
" clip-path="url(#p87bc051718)" style="fill: none; stroke: #b0b0b0; stroke-width: 0.8; stroke-linecap: square"/>
     </g>
     <g id="line2d_6">
      <defs>
       <path id="mc9ae52c6e8" d="M 0 0 
L 5 0 
" style="stroke: #000000; stroke-width: 0.8"/>
      </defs>
      <g>
       <use xlink:href="#mc9ae52c6e8" x="230.4" y="629.329655" style="stroke: #000000; stroke-width: 0.8"/>
      </g>
     </g>
     <g id="text_4">
      <!-- 0 -->
      <g transform="translate(201.45 644.52653) scale(0.4 -0.4)">
       <use xlink:href="#DejaVuSans-30"/>
      </g>
     </g>
    </g>
    <g id="ytick_2">
     <g id="line2d_7">
      <path d="M 230.4 476.391724 
L 1658.88 476.391724 
" clip-path="url(#p87bc051718)" style="fill: none; stroke: #b0b0b0; stroke-width: 0.8; stroke-linecap: square"/>
     </g>
     <g id="line2d_8">
      <g>
       <use xlink:href="#mc9ae52c6e8" x="230.4" y="476.391724" style="stroke: #000000; stroke-width: 0.8"/>
      </g>
     </g>
     <g id="text_5">
      <!-- 10 -->
      <g transform="translate(176 491.588599) scale(0.4 -0.4)">
       <use xlink:href="#DejaVuSans-31"/>
       <use xlink:href="#DejaVuSans-30" x="63.623047"/>
      </g>
     </g>
    </g>
    <g id="ytick_3">
     <g id="line2d_9">
      <path d="M 230.4 323.453793 
L 1658.88 323.453793 
" clip-path="url(#p87bc051718)" style="fill: none; stroke: #b0b0b0; stroke-width: 0.8; stroke-linecap: square"/>
     </g>
     <g id="line2d_10">
      <g>
       <use xlink:href="#mc9ae52c6e8" x="230.4" y="323.453793" style="stroke: #000000; stroke-width: 0.8"/>
      </g>
     </g>
     <g id="text_6">
      <!-- 20 -->
      <g transform="translate(176 338.650668) scale(0.4 -0.4)">
       <defs>
        <path id="DejaVuSans-32" d="M 1228 531 
L 3431 531 
L 3431 0 
L 469 0 
L 469 531 
Q 828 903 1448 1529 
Q 2069 2156 2228 2338 
Q 2531 2678 2651 2914 
Q 2772 3150 2772 3378 
Q 2772 3750 2511 3984 
Q 2250 4219 1831 4219 
Q 1534 4219 1204 4116 
Q 875 4013 500 3803 
L 500 4441 
Q 881 4594 1212 4672 
Q 1544 4750 1819 4750 
Q 2544 4750 2975 4387 
Q 3406 4025 3406 3419 
Q 3406 3131 3298 2873 
Q 3191 2616 2906 2266 
Q 2828 2175 2409 1742 
Q 1991 1309 1228 531 
z
" transform="scale(0.015625)"/>
       </defs>
       <use xlink:href="#DejaVuSans-32"/>
       <use xlink:href="#DejaVuSans-30" x="63.623047"/>
      </g>
     </g>
    </g>
    <g id="ytick_4">
     <g id="line2d_11">
      <path d="M 230.4 170.515862 
L 1658.88 170.515862 
" clip-path="url(#p87bc051718)" style="fill: none; stroke: #b0b0b0; stroke-width: 0.8; stroke-linecap: square"/>
     </g>
     <g id="line2d_12">
      <g>
       <use xlink:href="#mc9ae52c6e8" x="230.4" y="170.515862" style="stroke: #000000; stroke-width: 0.8"/>
      </g>
     </g>
     <g id="text_7">
      <!-- 30 -->
      <g transform="translate(176 185.712737) scale(0.4 -0.4)">
       <defs>
        <path id="DejaVuSans-33" d="M 2597 2516 
Q 3050 2419 3304 2112 
Q 3559 1806 3559 1356 
Q 3559 666 3084 287 
Q 2609 -91 1734 -91 
Q 1441 -91 1130 -33 
Q 819 25 488 141 
L 488 750 
Q 750 597 1062 519 
Q 1375 441 1716 441 
Q 2309 441 2620 675 
Q 2931 909 2931 1356 
Q 2931 1769 2642 2001 
Q 2353 2234 1838 2234 
L 1294 2234 
L 1294 2753 
L 1863 2753 
Q 2328 2753 2575 2939 
Q 2822 3125 2822 3475 
Q 2822 3834 2567 4026 
Q 2313 4219 1838 4219 
Q 1578 4219 1281 4162 
Q 984 4106 628 3988 
L 628 4550 
Q 988 4650 1302 4700 
Q 1616 4750 1894 4750 
Q 2613 4750 3031 4423 
Q 3450 4097 3450 3541 
Q 3450 3153 3228 2886 
Q 3006 2619 2597 2516 
z
" transform="scale(0.015625)"/>
       </defs>
       <use xlink:href="#DejaVuSans-33"/>
       <use xlink:href="#DejaVuSans-30" x="63.623047"/>
      </g>
     </g>
    </g>
    <g id="text_8">
     <!-- Error(m) -->
     <g transform="translate(163.44375 434.66875) rotate(-90) scale(0.4 -0.4)">
      <defs>
       <path id="TimesNewRomanPSMT-45" d="M 1338 4006 
L 1338 2331 
L 2269 2331 
Q 2631 2331 2753 2441 
Q 2916 2584 2934 2947 
L 3050 2947 
L 3050 1472 
L 2934 1472 
Q 2891 1781 2847 1869 
Q 2791 1978 2662 2040 
Q 2534 2103 2269 2103 
L 1338 2103 
L 1338 706 
Q 1338 425 1363 364 
Q 1388 303 1450 267 
Q 1513 231 1688 231 
L 2406 231 
Q 2766 231 2928 281 
Q 3091 331 3241 478 
Q 3434 672 3638 1063 
L 3763 1063 
L 3397 0 
L 131 0 
L 131 116 
L 281 116 
Q 431 116 566 188 
Q 666 238 702 338 
Q 738 438 738 747 
L 738 3500 
Q 738 3903 656 3997 
Q 544 4122 281 4122 
L 131 4122 
L 131 4238 
L 3397 4238 
L 3444 3309 
L 3322 3309 
Q 3256 3644 3176 3769 
Q 3097 3894 2941 3959 
Q 2816 4006 2500 4006 
L 1338 4006 
z
" transform="scale(0.015625)"/>
       <path id="TimesNewRomanPSMT-72" d="M 1038 2947 
L 1038 2303 
Q 1397 2947 1775 2947 
Q 1947 2947 2059 2842 
Q 2172 2738 2172 2600 
Q 2172 2478 2090 2393 
Q 2009 2309 1897 2309 
Q 1788 2309 1652 2417 
Q 1516 2525 1450 2525 
Q 1394 2525 1328 2463 
Q 1188 2334 1038 2041 
L 1038 669 
Q 1038 431 1097 309 
Q 1138 225 1241 169 
Q 1344 113 1538 113 
L 1538 0 
L 72 0 
L 72 113 
Q 291 113 397 181 
Q 475 231 506 341 
Q 522 394 522 644 
L 522 1753 
Q 522 2253 501 2348 
Q 481 2444 426 2487 
Q 372 2531 291 2531 
Q 194 2531 72 2484 
L 41 2597 
L 906 2947 
L 1038 2947 
z
" transform="scale(0.015625)"/>
       <path id="TimesNewRomanPSMT-6f" d="M 1600 2947 
Q 2250 2947 2644 2453 
Q 2978 2031 2978 1484 
Q 2978 1100 2793 706 
Q 2609 313 2286 112 
Q 1963 -88 1566 -88 
Q 919 -88 538 428 
Q 216 863 216 1403 
Q 216 1797 411 2186 
Q 606 2575 925 2761 
Q 1244 2947 1600 2947 
z
M 1503 2744 
Q 1338 2744 1170 2645 
Q 1003 2547 900 2300 
Q 797 2053 797 1666 
Q 797 1041 1045 587 
Q 1294 134 1700 134 
Q 2003 134 2200 384 
Q 2397 634 2397 1244 
Q 2397 2006 2069 2444 
Q 1847 2744 1503 2744 
z
" transform="scale(0.015625)"/>
      </defs>
      <use xlink:href="#TimesNewRomanPSMT-45"/>
      <use xlink:href="#TimesNewRomanPSMT-72" x="61.083984"/>
      <use xlink:href="#TimesNewRomanPSMT-72" x="94.384766"/>
      <use xlink:href="#TimesNewRomanPSMT-6f" x="127.685547"/>
      <use xlink:href="#TimesNewRomanPSMT-72" x="177.685547"/>
      <use xlink:href="#TimesNewRomanPSMT-28" x="210.986328"/>
      <use xlink:href="#TimesNewRomanPSMT-6d" x="244.287109"/>
      <use xlink:href="#TimesNewRomanPSMT-29" x="322.070312"/>
     </g>
    </g>
   </g>
   <g id="line2d_13">
    <path d="M 295.330909 612.084267 
L 296.308978 611.900307 
L 297.287234 611.402098 
L 298.265532 611.313072 
L 299.2438 611.388654 
L 300.222059 611.211629 
L 301.200323 611.194782 
L 302.178604 611.312662 
L 303.156868 611.169864 
L 305.114624 611.244681 
L 306.092878 611.578247 
L 308.049434 611.036861 
L 309.027697 610.956269 
L 310.984271 610.532336 
L 311.962507 610.839954 
L 316.853918 611.00538 
L 320.767001 611.614553 
L 321.745274 611.669009 
L 322.723528 611.877845 
L 323.701839 611.766602 
L 325.657165 612.095378 
L 326.635447 612.014896 
L 328.590848 612.298014 
L 329.569102 612.323672 
L 330.546193 612.850892 
L 332.502776 613.110997 
L 333.479839 613.442024 
L 334.45813 613.383926 
L 336.413513 613.70702 
L 337.391786 613.826213 
L 338.368886 613.63207 
L 339.34714 613.798203 
L 340.324474 613.672316 
L 342.27965 613.704617 
L 344.235295 613.771408 
L 345.212142 613.609597 
L 346.190387 613.57625 
L 347.167487 613.052363 
L 348.145778 612.730334 
L 349.124005 612.646552 
L 350.102306 612.440664 
L 351.079406 612.355424 
L 352.057669 612.727806 
L 353.035914 612.369976 
L 354.991306 612.587543 
L 355.969597 613.005819 
L 356.946707 612.943137 
L 357.92498 613.50236 
L 358.902089 614.214348 
L 359.880325 615.310806 
L 360.857453 620.907952 
L 361.834525 619.067239 
L 362.812844 619.341336 
L 363.789907 617.247757 
L 364.767241 616.757119 
L 365.745299 616.547378 
L 366.722389 617.164722 
L 367.700662 617.567874 
L 368.677753 617.743534 
L 369.65505 618.351084 
L 371.610263 617.999036 
L 374.541572 618.12216 
L 375.519817 618.338921 
L 376.496945 618.439749 
L 378.451127 618.12191 
L 379.428227 617.897782 
L 380.405345 618.162938 
L 381.383628 618.011845 
L 382.360699 618.020562 
L 383.337818 617.89546 
L 387.246209 618.12337 
L 388.22329 617.908542 
L 389.201666 617.997466 
L 392.132919 617.607488 
L 394.088245 617.532736 
L 395.065392 617.710002 
L 396.043665 617.660541 
L 397.020718 617.440127 
L 397.998991 617.338775 
L 398.976326 617.639945 
L 399.954411 618.202651 
L 401.911144 618.13242 
L 402.890356 617.999826 
L 403.868629 618.051406 
L 406.805888 617.267776 
L 407.786413 617.09446 
L 408.765905 616.72458 
L 411.706824 616.182806 
L 412.687255 616.034332 
L 413.669 616.036518 
L 416.612077 615.230424 
L 417.592602 614.832056 
L 418.573221 614.850906 
L 420.534553 614.632907 
L 423.47397 614.370125 
L 424.45365 614.144316 
L 427.391847 614.226193 
L 431.308411 614.046288 
L 432.286684 613.826343 
L 433.266083 613.872989 
L 434.24445 613.597065 
L 436.202122 613.787739 
L 437.179457 613.537859 
L 438.156322 613.422809 
L 439.132249 613.09116 
L 442.057872 612.538429 
L 443.032673 612.429253 
L 444.983307 612.596608 
L 445.959046 612.914805 
L 447.908929 612.606586 
L 448.883543 612.71087 
L 449.856936 612.491862 
L 450.831643 612.573775 
L 451.806256 612.542895 
L 452.780213 612.212658 
L 453.755858 612.701614 
L 455.706586 612.764155 
L 456.683733 612.828004 
L 458.636713 613.344746 
L 459.61264 613.579692 
L 460.589787 613.45331 
L 461.566934 614.141845 
L 462.543987 613.821216 
L 464.499313 612.731576 
L 465.47646 612.574318 
L 466.4537 613.536143 
L 467.43066 613.031739 
L 468.407806 613.650513 
L 469.386079 613.765553 
L 470.363132 612.908622 
L 471.340279 612.509859 
L 472.318458 612.939369 
L 473.295887 612.768209 
L 474.273878 611.613317 
L 475.251213 611.347765 
L 476.229298 610.883714 
L 477.20804 611.656952 
L 478.185 611.351414 
L 479.164962 611.37736 
L 482.098279 610.946519 
L 483.076083 610.706136 
L 484.054637 610.652092 
L 486.993679 609.737792 
L 487.969418 609.529097 
L 488.950319 609.111616 
L 489.929718 608.903447 
L 491.881759 608.115638 
L 492.859939 607.593811 
L 493.838118 606.490577 
L 495.794945 606.678272 
L 496.773969 606.063714 
L 498.732016 605.395179 
L 499.709069 604.61039 
L 500.687436 604.304893 
L 501.66965 602.797869 
L 502.645296 603.218894 
L 503.623569 602.552532 
L 504.603531 602.320136 
L 507.540039 599.853513 
L 509.49696 600.237591 
L 510.475045 600.806173 
L 511.454257 600.717013 
L 512.4345 600.372338 
L 515.366316 600.634989 
L 516.344402 600.201599 
L 517.321548 599.940272 
L 519.278001 599.753554 
L 520.256367 599.91306 
L 521.23389 599.917675 
L 523.19006 599.120324 
L 524.168615 599.113298 
L 525.146794 598.851513 
L 526.124785 598.83297 
L 528.081331 598.4591 
L 530.041537 598.129743 
L 531.016995 598.243352 
L 531.994611 597.884748 
L 532.973165 597.860807 
L 533.952001 598.035971 
L 534.929336 597.902961 
L 536.886069 597.354884 
L 537.865375 597.174062 
L 538.843741 596.867545 
L 540.800287 597.061363 
L 541.778748 597.341086 
L 542.756927 597.441219 
L 543.735012 597.411245 
L 544.713567 597.988695 
L 546.669644 598.000685 
L 548.625533 597.550175 
L 549.603899 597.959987 
L 550.581703 598.209486 
L 551.560445 597.715075 
L 552.538437 598.819243 
L 553.516522 597.680319 
L 554.494701 597.624245 
L 555.475602 599.125534 
L 556.451529 599.348496 
L 557.429614 599.383527 
L 560.36462 600.770645 
L 561.342612 601.540887 
L 563.299252 600.506343 
L 564.277431 601.675632 
L 567.213563 602.757171 
L 568.191743 602.952718 
L 569.170391 602.564684 
L 571.126655 602.922703 
L 572.105304 602.721195 
L 574.062131 603.51601 
L 575.039747 603.20949 
L 576.019334 603.163795 
L 577.975692 603.791574 
L 578.954247 604.123546 
L 581.888784 604.523483 
L 582.867151 604.856489 
L 584.824917 605.096385 
L 585.803002 605.371237 
L 586.780149 605.255757 
L 587.758234 605.608135 
L 588.736695 605.703529 
L 591.67142 606.394027 
L 592.64988 606.359086 
L 593.632564 606.490275 
L 595.588641 606.884815 
L 598.524492 607.360724 
L 599.503985 607.767746 
L 601.461563 607.588475 
L 602.439554 607.894308 
L 603.419235 608.456213 
L 607.331388 609.818502 
L 609.285119 610.314741 
L 611.241477 611.14581 
L 614.175452 611.876929 
L 616.128807 612.73 
L 617.104452 613.030459 
L 618.081412 613.451842 
L 619.058746 613.574773 
L 621.991125 614.687017 
L 625.90281 615.433419 
L 626.880426 615.91942 
L 628.834532 616.458129 
L 629.812523 616.630562 
L 630.789576 616.621163 
L 631.766629 617.030769 
L 632.743776 617.292152 
L 633.720829 617.975134 
L 635.673903 618.827684 
L 637.626883 619.193151 
L 638.603936 619.557576 
L 639.581177 619.789684 
L 642.517028 620.880228 
L 643.501494 621.147345 
L 644.479861 621.607347 
L 646.441287 622.050606 
L 647.421624 622.559121 
L 649.382674 622.841133 
L 650.3632 623.250627 
L 652.326596 624.366202 
L 653.307872 624.770851 
L 654.279951 624.975965 
L 655.258975 625.494443 
L 656.237342 625.694041 
L 658.193137 626.559689 
L 659.17019 626.65024 
L 661.125891 627.440242 
L 664.059303 628.263224 
L 666.015567 628.884567 
L 666.993934 628.876372 
L 670.909841 629.299415 
L 673.845598 628.904234 
L 674.823871 628.919486 
L 675.802144 628.805799 
L 677.758878 628.96068 
L 678.736775 628.646856 
L 679.715236 628.620608 
L 680.693227 628.224757 
L 681.670656 629.087442 
L 682.649022 629.168552 
L 683.625794 629.123153 
L 684.602753 628.840366 
L 685.581308 628.82291 
L 687.535602 627.569247 
L 689.49074 624.347151 
L 690.468074 624.524874 
L 692.422274 624.122393 
L 693.400266 624.447155 
L 694.377882 624.385877 
L 695.35456 624.642617 
L 696.331988 624.3514 
L 697.307634 624.583987 
L 698.28478 624.614668 
L 699.260801 624.220293 
L 705.116363 624.255338 
L 708.045176 623.349788 
L 709.022323 623.381855 
L 709.998063 623.547455 
L 711.949916 623.579969 
L 712.92575 623.349915 
L 713.901677 623.49165 
L 715.85766 623.143895 
L 716.83246 623.481009 
L 717.806229 623.264475 
L 718.783188 623.276694 
L 719.758834 623.106256 
L 720.734573 623.121949 
L 721.711908 622.924327 
L 722.690087 623.000743 
L 724.643442 622.770303 
L 725.619932 622.929527 
L 726.598205 623.391299 
L 727.577417 623.453179 
L 728.564698 622.929249 
L 729.534995 623.376803 
L 730.513925 623.605185 
L 731.494637 623.614641 
L 732.475819 624.091055 
L 733.455781 624.134973 
L 734.435368 625.615923 
L 735.415987 628.975342 
L 736.395011 628.920116 
L 737.374504 628.577788 
L 738.353903 629.050304 
L 739.333395 629.044466 
L 740.314202 627.250494 
L 741.294821 628.780475 
L 742.275815 629.176564 
L 743.255871 628.760062 
L 744.23527 628.741815 
L 746.19435 628.061596 
L 747.174218 627.969919 
L 748.153242 627.411598 
L 749.131233 627.332692 
L 750.109694 627.026758 
L 751.088061 626.478269 
L 752.066615 626.405264 
L 753.044888 625.978632 
L 754.023349 625.676749 
L 755.001903 625.064972 
L 756.956385 624.327491 
L 757.934658 623.896208 
L 758.969516 623.270726 
L 760.868538 622.929258 
L 763.802513 621.734856 
L 764.779472 621.452838 
L 765.756619 621.358103 
L 767.711757 620.358893 
L 768.689936 620.345569 
L 769.667083 619.732681 
L 770.645168 619.477045 
L 771.622784 618.961113 
L 775.533061 617.496807 
L 776.510208 617.321965 
L 777.503495 617.427118 
L 782.377594 615.57787 
L 785.314195 615.041743 
L 786.290967 615.079905 
L 787.269334 614.845432 
L 789.225786 613.855551 
L 790.20556 614.190741 
L 791.183082 614.026969 
L 792.161262 613.453259 
L 794.128599 614.370977 
L 803.880925 610.301226 
L 804.855538 610.021133 
L 810.707722 607.663031 
L 812.660139 607.046842 
L 813.635221 606.499586 
L 814.61143 606.178358 
L 815.587544 605.63107 
L 816.565067 605.519345 
L 817.540149 605.243511 
L 818.517577 604.804117 
L 819.495287 604.645587 
L 823.404156 603.48358 
L 824.382336 602.587476 
L 825.360984 602.072434 
L 826.339538 602.713855 
L 827.317154 602.813996 
L 828.296741 602.04394 
L 829.277454 601.047976 
L 830.256759 600.579442 
L 831.238692 601.158546 
L 833.201056 600.077198 
L 834.181769 599.973652 
L 835.162294 599.491054 
L 836.142631 598.87214 
L 837.125878 598.447829 
L 838.103306 596.958314 
L 839.08233 597.582807 
L 840.061916 597.426669 
L 844.961351 595.189161 
L 846.921463 594.026067 
L 848.882513 593.104828 
L 849.863038 592.855341 
L 852.805834 591.642351 
L 854.766884 590.639033 
L 856.722773 589.892552 
L 857.70236 589.40766 
L 858.680726 589.079247 
L 859.658999 589.026641 
L 860.637648 588.802879 
L 862.593631 588.887066 
L 864.548863 589.49087 
L 865.527886 589.620098 
L 866.504658 589.513893 
L 867.481899 589.523878 
L 868.45989 589.728898 
L 869.437037 589.780069 
L 870.415122 590.211066 
L 871.392269 590.412565 
L 874.326901 592.441153 
L 875.304704 592.822478 
L 877.257684 592.483627 
L 878.235582 592.843973 
L 879.212916 593.601718 
L 880.189876 593.480067 
L 881.167867 593.72455 
L 883.124695 593.910965 
L 885.105639 593.762468 
L 886.05942 591.448852 
L 887.038443 591.89358 
L 888.994239 591.498565 
L 889.972324 590.934334 
L 890.949471 590.837606 
L 891.927931 590.529131 
L 892.906204 590.979331 
L 893.88429 591.749882 
L 894.865096 591.786207 
L 895.841305 591.502574 
L 896.81939 592.254202 
L 897.797663 592.749977 
L 898.775748 592.643364 
L 899.753834 592.214444 
L 901.715822 593.382491 
L 902.689403 593.422797 
L 903.667113 593.717188 
L 904.644448 594.321539 
L 905.622345 594.420795 
L 906.600618 594.734728 
L 907.578985 595.314433 
L 911.491045 596.448718 
L 912.46913 596.485152 
L 914.424831 596.829062 
L 915.401791 596.694754 
L 916.380157 596.75403 
L 917.358055 597.135043 
L 919.314882 597.477504 
L 922.248388 594.022003 
L 923.226661 593.589135 
L 924.221449 595.56117 
L 925.183676 595.328952 
L 926.161573 594.958831 
L 927.140128 594.835286 
L 928.118119 594.417868 
L 929.096861 593.153705 
L 930.074947 592.918466 
L 931.052938 592.213669 
L 932.029803 595.223807 
L 933.00817 595.322592 
L 933.986912 595.239154 
L 934.965185 596.123777 
L 936.920605 596.421141 
L 937.898597 597.367763 
L 940.83107 598.632938 
L 942.786396 599.403261 
L 943.763542 599.87813 
L 944.741628 600.631872 
L 945.719056 601.038808 
L 946.697423 601.260844 
L 947.674664 601.932289 
L 949.629896 603.0738 
L 950.60648 603.623984 
L 951.584753 604.369282 
L 952.562087 604.929889 
L 953.540642 605.742233 
L 957.452045 608.151525 
L 958.429473 608.517322 
L 960.386863 609.911328 
L 962.36152 610.640957 
L 963.319806 611.425809 
L 964.296483 611.817302 
L 965.274756 612.685659 
L 967.233273 613.864194 
L 968.207511 614.175102 
L 969.184658 615.25979 
L 970.161711 615.551105 
L 971.139702 616.059327 
L 972.116755 617.136947 
L 974.072081 618.453577 
L 975.051105 618.930849 
L 976.027689 619.61835 
L 977.983202 620.809869 
L 978.961569 621.477642 
L 979.93881 621.98263 
L 980.915488 622.82196 
L 981.894042 623.285388 
L 985.803193 625.942111 
L 986.780809 626.464165 
L 989.714595 628.476229 
L 991.66964 629.21036 
L 992.647725 628.66856 
L 997.537307 624.555696 
L 998.515205 623.574484 
L 1001.44749 621.420802 
L 1003.404036 619.608068 
L 1004.380151 618.977229 
L 1005.357297 618.052766 
L 1006.334444 617.329797 
L 1007.31131 616.856248 
L 1008.28855 616.02553 
L 1009.265603 615.410165 
L 1010.244346 615.012579 
L 1013.176443 612.666561 
L 1014.156499 612.051381 
L 1015.135898 611.199481 
L 1016.110418 610.612904 
L 1017.089629 609.640892 
L 1018.064148 608.973223 
L 1019.042609 608.491283 
L 1020.01938 607.814096 
L 1020.996434 607.370698 
L 1021.984653 607.306068 
L 1022.952135 607.000711 
L 1023.929188 606.949553 
L 1024.90793 607.762264 
L 1025.884514 608.220389 
L 1026.861473 606.891462 
L 1027.840122 606.938686 
L 1028.818113 606.124382 
L 1029.79648 604.743806 
L 1030.774377 603.561902 
L 1032.732143 603.046859 
L 1033.710792 602.381997 
L 1034.689252 602.521562 
L 1036.647018 602.081449 
L 1037.624165 601.509056 
L 1038.603376 601.291601 
L 1039.58118 601.345524 
L 1040.559547 601.104947 
L 1041.552083 601.083391 
L 1042.516374 600.750946 
L 1043.494929 600.686015 
L 1045.451005 600.253328 
L 1046.429278 600.331298 
L 1047.407551 600.105198 
L 1048.386012 599.526355 
L 1049.364003 599.26631 
L 1050.344059 598.842619 
L 1051.32252 598.061102 
L 1055.236175 596.605436 
L 1056.215762 596.211856 
L 1058.173152 594.88425 
L 1059.1518 594.505005 
L 1062.088778 592.565353 
L 1063.06874 592.364103 
L 1064.047763 591.550625 
L 1067.96489 588.88873 
L 1068.944102 588.539737 
L 1074.821434 585.038377 
L 1077.76179 583.130861 
L 1078.744473 582.878848 
L 1079.720963 581.818648 
L 1085.598296 578.135191 
L 1091.469247 573.724256 
L 1092.446769 572.627499 
L 1094.41101 571.257014 
L 1095.381776 570.203319 
L 1096.360331 569.477679 
L 1097.337477 568.271249 
L 1101.239872 564.235944 
L 1102.214485 563.731368 
L 1104.163711 561.891731 
L 1106.114627 560.528784 
L 1107.087176 559.617931 
L 1108.061977 559.243184 
L 1109.036402 558.471167 
L 1110.011485 557.429829 
L 1110.987036 556.707989 
L 1111.961743 555.802803 
L 1112.938609 555.243043 
L 1119.775071 549.507464 
L 1125.638891 543.973502 
L 1126.617633 543.213044 
L 1127.594405 541.746908 
L 1128.572584 540.975224 
L 1130.52866 539.852947 
L 1132.484737 538.015813 
L 1133.461884 537.420711 
L 1138.352873 533.566754 
L 1140.310639 532.249212 
L 1141.286942 530.821897 
L 1142.265308 530.365537 
L 1143.242268 529.508834 
L 1145.197406 528.562552 
L 1146.175679 527.725509 
L 1147.152638 527.311601 
L 1148.132037 526.42028 
L 1149.11031 525.833571 
L 1151.066105 524.444934 
L 1152.04466 523.801043 
L 1153.023871 523.423997 
L 1155.965447 522.582534 
L 1156.941749 522.046723 
L 1157.923212 521.746543 
L 1158.903174 520.986474 
L 1159.88248 521.036653 
L 1161.844562 520.653859 
L 1162.825369 520.311544 
L 1164.788296 519.378556 
L 1165.768539 519.007349 
L 1166.748783 518.508481 
L 1167.737566 517.815059 
L 1169.689795 517.089736 
L 1170.670133 516.197789 
L 1171.649532 515.069419 
L 1172.630244 514.553049 
L 1173.609925 514.201449 
L 1174.589042 514.091662 
L 1175.568441 513.669709 
L 1176.548216 512.419902 
L 1177.527146 511.56766 
L 1178.505606 512.046194 
L 1179.484161 512.326496 
L 1180.463841 511.746392 
L 1181.441739 511.620114 
L 1182.421138 510.918679 
L 1183.423246 509.514221 
L 1184.377965 508.942918 
L 1185.354925 507.750704 
L 1187.309406 507.351519 
L 1188.286178 506.871404 
L 1189.262386 506.22376 
L 1190.236812 505.73913 
L 1191.211706 505.060401 
L 1192.187258 504.960711 
L 1193.163936 505.270567 
L 1194.139863 504.117624 
L 1195.115977 503.765743 
L 1196.08984 504.121278 
L 1197.066142 503.249388 
L 1198.040943 502.805881 
L 1199.01565 503.004076 
L 1199.991202 502.657553 
L 1200.964971 502.487665 
L 1201.939959 501.710531 
L 1202.915605 501.854547 
L 1203.890218 501.507404 
L 1204.865582 500.910171 
L 1205.841321 500.994692 
L 1208.766475 499.222799 
L 1209.741651 499.004942 
L 1210.717203 498.404421 
L 1213.644984 497.654859 
L 1216.586747 496.729758 
L 1218.527058 496.028971 
L 1219.504299 495.869185 
L 1221.458124 495.318382 
L 1222.435834 495.231278 
L 1223.412793 494.902676 
L 1224.389564 494.401753 
L 1226.343858 494.256718 
L 1227.322319 493.86343 
L 1228.298903 494.283935 
L 1229.277457 493.6716 
L 1230.256105 493.512898 
L 1232.210118 493.388159 
L 1233.188203 492.995044 
L 1236.12077 492.222955 
L 1237.098573 491.718953 
L 1239.052304 491.190533 
L 1240.030108 490.985346 
L 1241.006973 490.523793 
L 1246.873796 488.659193 
L 1247.850661 487.943444 
L 1248.829403 487.647249 
L 1252.738742 485.824799 
L 1254.694349 485.518187 
L 1255.671215 484.964881 
L 1256.658402 484.669827 
L 1257.626822 484.93614 
L 1258.603688 484.804709 
L 1261.537099 483.999145 
L 1262.513964 484.22199 
L 1263.491768 484.094891 
L 1264.468633 484.383625 
L 1265.446437 484.027424 
L 1266.423303 484.363942 
L 1267.402983 484.927554 
L 1268.380787 485.288168 
L 1270.336394 485.732145 
L 1271.314198 486.139167 
L 1272.291064 486.687268 
L 1274.246671 487.43134 
L 1275.224475 488.071082 
L 1276.200402 488.159891 
L 1277.177267 488.656831 
L 1278.155071 488.853952 
L 1279.132875 488.726252 
L 1280.110679 489.842278 
L 1281.087544 490.297905 
L 1282.066286 490.170807 
L 1283.04409 490.583246 
L 1284.021894 490.8017 
L 1284.999697 491.190005 
L 1287.934985 491.636994 
L 1288.912789 492.253543 
L 1289.890593 492.559934 
L 1292.826819 492.818009 
L 1293.805562 493.144729 
L 1294.783365 493.249471 
L 1296.739911 493.749468 
L 1298.696457 494.268484 
L 1300.652065 494.896838 
L 1302.606734 495.908261 
L 1303.585476 496.093697 
L 1304.56328 495.174286 
L 1305.541084 495.995131 
L 1306.517949 495.792965 
L 1307.494814 496.651816 
L 1308.472618 497.032489 
L 1309.461683 497.652278 
L 1310.426349 498.020801 
L 1311.404153 498.749393 
L 1312.38008 499.156724 
L 1314.33381 499.734467 
L 1316.286603 500.703156 
L 1317.263468 501.223038 
L 1318.240334 502.46141 
L 1319.216261 503.050878 
L 1321.169991 504.760064 
L 1322.146857 506.278767 
L 1323.12466 507.325606 
L 1324.102464 507.282775 
L 1325.07933 508.806896 
L 1326.056195 509.731937 
L 1327.033999 510.862279 
L 1328.009926 511.715493 
L 1328.987729 512.75298 
L 1330.949906 514.004913 
L 1331.929586 514.798267 
L 1332.896129 515.747158 
L 1333.872995 516.509777 
L 1334.851737 517.043478 
L 1335.828602 518.023553 
L 1336.806406 518.843271 
L 1337.782333 520.023714 
L 1343.64634 525.552702 
L 1344.627898 526.781379 
L 1345.600071 527.545719 
L 1346.576937 528.646998 
L 1348.531606 530.386429 
L 1349.508471 531.628639 
L 1350.486275 532.50491 
L 1351.46314 533.637391 
L 1353.418748 535.656775 
L 1355.376232 537.582211 
L 1360.260559 541.777523 
L 1361.238363 542.40541 
L 1362.215228 543.180015 
L 1363.193032 544.329588 
L 1364.171774 545.218591 
L 1365.148639 545.82917 
L 1366.126443 547.07277 
L 1367.104247 547.504284 
L 1368.082051 548.442878 
L 1369.071115 549.662611 
L 1370.037658 550.372387 
L 1371.0164 551.294902 
L 1371.994204 552.618372 
L 1372.97107 553.617429 
L 1373.948873 553.489256 
L 1374.926677 554.550315 
L 1375.905419 556.01014 
L 1377.858212 558.068607 
L 1378.8332 558.882153 
L 1381.76192 561.825244 
L 1387.61842 567.657772 
L 1388.594347 568.353991 
L 1389.570274 569.465667 
L 1390.547139 570.177905 
L 1391.523066 571.475833 
L 1392.499932 572.039418 
L 1396.411147 575.790755 
L 1401.301104 579.841182 
L 1407.169803 583.970869 
L 1410.104153 585.374294 
L 1413.043195 586.479527 
L 1414.01443 587.157529 
L 1414.992233 587.281447 
L 1416.946903 588.275886 
L 1417.923768 588.534953 
L 1419.879376 589.347647 
L 1420.856241 589.546117 
L 1421.834983 589.398618 
L 1422.81091 589.735197 
L 1423.789652 590.235578 
L 1424.767456 590.176889 
L 1425.746198 590.733925 
L 1426.723064 591.430417 
L 1427.700867 592.3631 
L 1428.679609 593.581738 
L 1429.657413 594.035958 
L 1430.635217 594.713603 
L 1431.612082 595.659599 
L 1432.590825 597.411631 
L 1433.569567 597.700486 
L 1434.545494 598.302379 
L 1435.524236 599.077816 
L 1437.48172 599.9195 
L 1438.459524 600.045092 
L 1439.438266 600.015263 
L 1440.417008 600.337342 
L 1441.39575 600.308573 
L 1442.406398 600.095557 
L 1443.353235 600.337642 
L 1444.332915 600.151754 
L 1450.203491 600.403433 
L 1451.183172 600.425964 
L 1452.160976 600.666209 
L 1453.139718 600.653933 
L 1454.117522 601.087295 
L 1455.103771 600.860608 
L 1456.075006 601.243471 
L 1459.014048 601.449151 
L 1460.968717 602.084633 
L 1461.948397 601.768062 
L 1462.926201 601.887368 
L 1463.90682 602.255558 
L 1464.885562 602.238821 
L 1466.843047 602.674376 
L 1467.822727 603.220956 
L 1468.800531 603.191071 
L 1469.78115 603.39679 
L 1470.759892 603.856181 
L 1472.718315 603.950465 
L 1473.697057 604.475475 
L 1474.676737 604.623061 
L 1475.656418 605.131545 
L 1477.613902 605.612427 
L 1478.591706 605.59959 
L 1479.570448 606.074254 
L 1480.548252 606.377422 
L 1481.53544 607.013552 
L 1482.505736 607.166208 
L 1487.396632 608.711189 
L 1488.374436 608.898617 
L 1490.330982 609.805852 
L 1491.308785 609.850859 
L 1499.134031 611.855814 
L 1500.110896 612.39228 
L 1501.089638 612.311754 
L 1502.065565 612.568193 
L 1503.043369 612.679701 
L 1504.018358 612.51068 
L 1505.972088 612.561896 
L 1506.948015 613.199393 
L 1507.923942 613.226241 
L 1508.900808 613.418634 
L 1509.876735 613.797817 
L 1510.854538 613.716145 
L 1511.830465 613.787352 
L 1512.807331 614.061601 
L 1513.783258 614.001752 
L 1514.760123 614.254564 
L 1517.688843 614.456728 
L 1522.599444 615.927621 
L 1523.54722 616.04069 
L 1524.524085 616.619065 
L 1525.500012 616.518744 
L 1526.475001 616.978009 
L 1528.427793 617.028684 
L 1530.380585 617.72212 
L 1531.356512 617.886573 
L 1532.333378 618.368825 
L 1533.311181 617.598098 
L 1534.287108 618.305835 
L 1536.240839 618.487438 
L 1537.218643 618.404725 
L 1538.211461 618.924775 
L 1540.152993 619.142895 
L 1541.145811 619.420015 
L 1542.129245 619.571783 
L 1543.087342 620.030749 
L 1546.023569 620.858702 
L 1547.010756 621.454788 
L 1550.919156 623.128564 
L 1551.898837 623.354307 
L 1553.859136 623.386451 
L 1554.840694 623.706603 
L 1555.821313 623.678234 
L 1556.801932 623.764843 
L 1557.782551 624.088224 
L 1559.745665 624.144214 
L 1561.707842 624.374449 
L 1562.68846 624.254276 
L 1564.64876 624.681983 
L 1566.606244 625.232332 
L 1568.564667 626.282062 
L 1570.52309 626.862868 
L 1572.478697 627.855614 
L 1573.457439 627.985355 
L 1574.434305 628.567466 
L 1576.401173 629.06809 
L 1577.363024 629.171496 
L 1578.363349 628.950188 
L 1579.313001 628.4602 
L 1580.288928 627.813534 
L 1581.263917 627.02528 
L 1582.252981 626.636584 
L 1583.213894 626.107998 
L 1584.189821 625.140126 
L 1585.165748 624.870965 
L 1586.140737 624.014438 
L 1589.067579 622.119055 
L 1591.019433 621.296502 
L 1591.99536 620.998146 
L 1592.971287 620.22889 
L 1593.949091 619.984906 
L 1593.949091 619.984906 
" clip-path="url(#p87bc051718)" style="fill: none; stroke: #00ff00; stroke-width: 3; stroke-linecap: square"/>
   </g>
   <g id="line2d_14">
    <path d="M 295.330909 629.311701 
L 296.308978 629.128498 
L 297.287234 628.260873 
L 298.265532 628.341618 
L 299.2438 628.30449 
L 300.222059 628.139783 
L 301.200323 628.314956 
L 302.178604 628.335706 
L 304.136387 628.893957 
L 305.114624 629.294661 
L 307.071358 628.604416 
L 308.049434 628.144474 
L 309.027697 627.820315 
L 310.005979 627.754643 
L 310.984271 627.565325 
L 311.962507 627.528751 
L 312.940789 627.171087 
L 313.919081 627.084409 
L 314.897354 626.709653 
L 317.832173 626.368769 
L 319.788925 626.303775 
L 321.745274 626.279803 
L 324.67892 626.662769 
L 329.569102 626.16475 
L 333.479839 626.40762 
L 334.45813 626.560418 
L 335.436385 626.519375 
L 336.413513 626.325051 
L 337.391786 626.653486 
L 338.368886 627.143242 
L 339.34714 626.833857 
L 341.301368 627.196262 
L 342.27965 627.305565 
L 343.25675 627.186801 
L 345.212142 627.244421 
L 346.190387 626.970746 
L 347.167487 627.105911 
L 348.145778 626.84813 
L 349.124005 626.887198 
L 350.102306 625.775854 
L 351.079406 625.272145 
L 352.057669 624.4684 
L 353.035914 624.166247 
L 354.013033 623.422142 
L 354.991306 623.088517 
L 356.946707 622.042937 
L 357.92498 622.178565 
L 358.902089 621.961705 
L 360.857453 621.860199 
L 361.834525 620.921298 
L 363.789907 624.590978 
L 364.767241 624.181319 
L 367.700662 623.583574 
L 369.65505 622.943719 
L 370.633126 623.320402 
L 372.587373 622.979392 
L 373.564463 623.59742 
L 374.541572 623.281913 
L 375.519817 623.463413 
L 376.496945 623.405786 
L 377.474045 623.801742 
L 378.451127 623.914168 
L 379.428227 623.840825 
L 383.337818 624.340819 
L 385.291999 624.749904 
L 386.269128 624.913971 
L 387.246209 624.878938 
L 388.22329 624.971101 
L 389.201666 625.253464 
L 390.178719 625.083043 
L 391.155772 625.08523 
L 392.132919 624.910631 
L 393.110254 625.010973 
L 394.088245 624.760192 
L 395.065392 625.088801 
L 396.043665 625.092631 
L 397.020718 625.283643 
L 398.976326 625.325528 
L 399.954411 625.736048 
L 400.932684 625.923701 
L 402.890356 625.491864 
L 404.848122 625.449878 
L 405.827521 625.573194 
L 407.786413 625.454146 
L 409.746524 624.965355 
L 411.706824 625.079616 
L 412.687255 624.934144 
L 413.669 624.907512 
L 415.631364 625.075392 
L 416.612077 625.132831 
L 417.592602 625.070301 
L 418.573221 625.247318 
L 420.534553 624.958253 
L 421.513952 625.10882 
L 422.494571 625.007587 
L 423.47397 625.033923 
L 424.45365 624.941433 
L 425.432862 625.00686 
L 426.412354 624.938197 
L 427.391847 625.036737 
L 429.349895 624.99506 
L 431.308411 625.063707 
L 432.286684 624.919751 
L 434.24445 625.003708 
L 437.179457 625.206024 
L 438.156322 625.05518 
L 440.10705 625.189836 
L 441.082977 625.075257 
L 442.057872 625.219719 
L 444.008412 625.271035 
L 446.934691 625.520357 
L 447.908929 625.714964 
L 448.883543 625.49158 
L 449.856936 625.609291 
L 453.755858 625.263791 
L 454.730659 625.503213 
L 459.61264 625.00731 
L 460.589787 624.720478 
L 463.52226 624.287815 
L 464.499313 624.599475 
L 465.47646 624.748746 
L 466.4537 625.018218 
L 467.43066 624.745935 
L 468.407806 624.851142 
L 469.386079 624.639303 
L 472.318458 624.515669 
L 476.229298 624.188169 
L 477.20804 624.509819 
L 478.185 624.387098 
L 479.164962 624.610522 
L 480.141358 624.569654 
L 481.119725 624.795717 
L 482.098279 624.635214 
L 484.054637 624.812959 
L 485.03291 624.621361 
L 486.011934 624.732879 
L 486.993679 624.605116 
L 488.950319 624.741217 
L 490.903956 625.272005 
L 491.881759 625.362975 
L 492.859939 625.068228 
L 493.838118 624.594437 
L 494.816766 625.102861 
L 495.794945 624.735773 
L 498.732016 625.817975 
L 499.709069 625.723798 
L 500.687436 625.34537 
L 501.66965 624.605964 
L 502.645296 624.454873 
L 503.623569 624.515917 
L 504.603531 625.542563 
L 505.581335 625.433066 
L 506.56064 625.840802 
L 507.540039 626.471965 
L 509.49696 627.326913 
L 510.475045 627.04164 
L 511.454257 627.657327 
L 512.4345 627.8096 
L 513.409864 627.272189 
L 514.388419 627.685681 
L 515.366316 627.473471 
L 516.344402 627.919472 
L 517.321548 628.026686 
L 519.278001 628.625133 
L 520.256367 628.953808 
L 521.23389 628.692399 
L 522.211975 628.876954 
L 524.168615 628.769656 
L 526.124785 629.217643 
L 527.103058 629.286681 
L 528.081331 628.907822 
L 529.059604 628.966895 
L 530.041537 628.690269 
L 531.016995 628.173716 
L 531.994611 628.72381 
L 534.929336 628.234087 
L 537.865375 627.951371 
L 538.843741 627.730888 
L 539.821733 627.731279 
L 540.800287 627.442419 
L 542.756927 626.51524 
L 543.735012 625.940732 
L 545.691464 625.409961 
L 546.669644 625.599021 
L 547.64848 626.695343 
L 548.625533 626.08233 
L 549.603899 625.693246 
L 550.581703 623.567343 
L 551.560445 623.353337 
L 553.516522 619.65434 
L 554.494701 619.64607 
L 555.475602 620.372993 
L 556.451529 619.830293 
L 557.429614 622.292984 
L 558.408638 621.446978 
L 559.386254 620.939873 
L 560.36462 620.101179 
L 561.342612 620.316148 
L 562.321166 619.941418 
L 563.299252 620.0443 
L 564.277431 619.922238 
L 565.257299 620.293747 
L 566.235197 620.089423 
L 567.213563 620.046866 
L 568.191743 620.1333 
L 569.170391 620.892083 
L 570.149227 620.792699 
L 572.105304 621.403724 
L 574.062131 620.823614 
L 577.975692 621.009677 
L 578.954247 620.842957 
L 582.867151 620.952104 
L 583.846456 620.681315 
L 584.824917 620.616621 
L 585.803002 620.27468 
L 586.780149 620.481308 
L 588.736695 620.421254 
L 589.714968 620.537624 
L 591.67142 620.458203 
L 594.608209 620.821137 
L 596.565975 620.9286 
L 597.545093 620.680945 
L 599.503985 620.643723 
L 601.461563 620.704822 
L 602.439554 620.597926 
L 603.419235 620.700574 
L 604.397226 620.548786 
L 605.375781 620.257319 
L 606.353021 620.739263 
L 607.331388 620.567039 
L 608.307972 620.603939 
L 611.241477 620.193629 
L 612.218624 620.104933 
L 613.196897 620.310432 
L 614.175452 620.165391 
L 620.035893 619.893551 
L 621.991125 619.800857 
L 622.968272 619.958239 
L 628.834532 619.702328 
L 629.812523 619.928694 
L 633.720829 619.80375 
L 634.696756 619.621731 
L 635.673903 619.644489 
L 636.64983 619.819673 
L 641.537629 619.698607 
L 643.501494 619.536605 
L 651.34288 619.29675 
L 652.326596 619.096879 
L 653.307872 619.108138 
L 654.279951 618.950343 
L 655.258975 619.090526 
L 657.215896 618.956797 
L 660.148744 619.030701 
L 662.103977 619.355431 
L 663.08103 619.213011 
L 666.015567 619.338195 
L 666.993934 619.549784 
L 667.97352 619.402546 
L 668.951512 619.513603 
L 669.931755 619.378689 
L 672.867419 619.499392 
L 673.845598 619.182398 
L 675.802144 619.212183 
L 679.715236 618.459247 
L 680.693227 618.767499 
L 682.649022 619.13708 
L 683.625794 618.748959 
L 684.602753 618.903821 
L 685.581308 619.503555 
L 686.558173 619.616484 
L 687.535602 620.036416 
L 688.512748 620.035186 
L 690.468074 621.813442 
L 691.445315 621.690172 
L 692.422274 622.510879 
L 693.400266 622.807482 
L 694.377882 622.898758 
L 695.35456 622.408874 
L 696.331988 622.276368 
L 698.28478 620.776903 
L 699.260801 620.763353 
L 700.236728 620.537412 
L 701.212374 620.535912 
L 702.196183 620.671316 
L 703.164697 620.448448 
L 705.116363 620.469881 
L 706.093604 620.324837 
L 707.069437 620.369417 
L 709.022323 620.138589 
L 709.998063 620.26006 
L 710.97399 620.062071 
L 711.949916 620.046911 
L 713.901677 619.732051 
L 714.880513 619.650793 
L 715.85766 619.329893 
L 716.83246 619.257946 
L 718.783188 619.435678 
L 722.690087 621.43593 
L 723.666014 621.69525 
L 724.643442 622.18378 
L 725.619932 622.279096 
L 726.598205 622.786823 
L 727.577417 622.785068 
L 728.564698 621.652259 
L 729.534995 620.266296 
L 730.513925 620.628742 
L 731.494637 620.400336 
L 732.475819 621.45058 
L 733.455781 621.422846 
L 735.415987 624.36068 
L 736.395011 624.05655 
L 737.374504 623.576481 
L 738.353903 622.201865 
L 739.333395 622.114996 
L 740.314202 621.549006 
L 741.294821 622.54732 
L 742.275815 622.168516 
L 743.255871 622.521523 
L 744.23527 622.372361 
L 745.216171 622.858838 
L 746.19435 622.79139 
L 747.174218 623.086401 
L 748.153242 623.579053 
L 750.109694 623.851433 
L 751.088061 624.009638 
L 756.956385 623.814318 
L 760.868538 623.21528 
L 762.823958 623.200327 
L 763.802513 622.987505 
L 764.779472 623.01596 
L 766.734892 622.800942 
L 767.711757 622.864539 
L 768.689936 622.666436 
L 769.667083 622.905019 
L 770.645168 622.697376 
L 771.622784 623.008641 
L 772.599744 622.827578 
L 775.533061 622.789839 
L 782.377594 622.795192 
L 785.314195 623.050505 
L 786.290967 622.880696 
L 788.247513 623.056137 
L 789.225786 622.777126 
L 790.20556 622.964211 
L 791.183082 622.784511 
L 793.139628 622.837277 
L 794.128599 622.674766 
L 795.09533 622.78473 
L 797.050843 622.674177 
L 798.028084 622.86704 
L 799.003636 622.797595 
L 800.954645 623.366579 
L 805.83062 622.909759 
L 806.806266 623.094498 
L 809.731701 623.144134 
L 813.635221 623.452329 
L 814.61143 623.339715 
L 817.540149 623.657434 
L 818.517577 623.541115 
L 819.495287 623.635733 
L 820.472153 623.414873 
L 822.427385 623.470465 
L 823.404156 623.262098 
L 824.382336 623.22437 
L 825.360984 623.560392 
L 826.339538 623.570179 
L 827.317154 623.233952 
L 828.296741 623.627078 
L 829.277454 623.213508 
L 830.256759 623.293124 
L 831.238692 623.201396 
L 832.219405 623.3101 
L 833.201056 623.588568 
L 834.181769 623.623803 
L 835.162294 623.542766 
L 836.142631 623.963075 
L 837.125878 624.103195 
L 838.103306 624.434929 
L 840.061916 623.935564 
L 842.020996 624.261663 
L 843.000301 624.04927 
L 843.981014 624.357786 
L 845.94197 624.206289 
L 846.921463 624.116771 
L 849.863038 624.387677 
L 851.82437 624.242372 
L 852.805834 624.537534 
L 853.789174 624.599786 
L 854.766884 624.473896 
L 857.70236 624.601749 
L 858.680726 624.508275 
L 859.658999 624.529827 
L 861.615452 624.204331 
L 862.593631 624.191099 
L 864.548863 624.717343 
L 865.527886 624.577307 
L 868.45989 624.842026 
L 869.437037 624.683641 
L 870.415122 624.69099 
L 871.392269 624.576764 
L 872.369229 624.719479 
L 874.326901 624.234129 
L 875.304704 624.226914 
L 876.280256 624.52552 
L 878.235582 624.739348 
L 879.212916 624.658196 
L 881.167867 624.16295 
L 882.146609 624.170947 
L 883.124695 624.448838 
L 884.102592 624.108052 
L 885.105639 624.241201 
L 886.05942 625.302375 
L 888.016622 624.64276 
L 888.994239 625.314302 
L 889.972324 625.070761 
L 890.949471 625.086236 
L 891.927931 625.675157 
L 892.906204 624.923907 
L 893.88429 624.520019 
L 894.865096 623.95445 
L 895.841305 623.917585 
L 896.81939 623.500782 
L 897.797663 623.804164 
L 898.775748 622.369311 
L 900.735391 624.271055 
L 901.715822 624.483277 
L 902.689403 623.780002 
L 903.667113 623.457491 
L 907.578985 626.029252 
L 909.536282 626.364241 
L 910.514555 626.116594 
L 912.46913 626.406685 
L 914.424831 626.644158 
L 915.401791 626.547908 
L 916.380157 627.041047 
L 917.358055 627.379589 
L 918.336797 627.901309 
L 919.314882 628.183949 
L 920.293718 627.585677 
L 921.271428 626.165636 
L 922.248388 625.461029 
L 923.226661 625.317071 
L 924.221449 625.758247 
L 925.183676 625.773678 
L 926.161573 626.013229 
L 927.140128 625.90087 
L 928.118119 625.545671 
L 929.096861 625.488847 
L 930.074947 626.09051 
L 931.052938 627.269691 
L 933.986912 627.256735 
L 934.965185 626.559675 
L 935.942238 626.701445 
L 936.920605 626.504333 
L 937.898597 626.470793 
L 938.875462 625.981576 
L 939.853923 626.00219 
L 940.83107 625.473494 
L 941.809718 625.637696 
L 942.786396 625.573631 
L 943.763542 625.260717 
L 944.741628 625.209476 
L 945.719056 625.347475 
L 946.697423 625.136508 
L 947.674664 625.172655 
L 948.651717 624.962023 
L 949.629896 625.02723 
L 950.60648 624.978606 
L 951.584753 625.043164 
L 952.562087 625.219853 
L 954.517507 625.015101 
L 959.407371 624.554172 
L 960.386863 624.620442 
L 961.365981 624.351257 
L 962.36152 624.479018 
L 964.296483 624.381811 
L 966.251809 624.35811 
L 968.207511 623.667645 
L 971.139702 623.529358 
L 972.116755 623.158406 
L 973.093902 623.271405 
L 974.072081 623.155101 
L 975.051105 623.192278 
L 977.983202 622.818082 
L 978.961569 622.731245 
L 979.93881 622.503297 
L 980.915488 622.508827 
L 981.894042 622.680841 
L 985.803193 622.369416 
L 987.759269 622.243357 
L 988.736041 621.979582 
L 989.714595 621.86736 
L 990.691367 622.093407 
L 994.603145 621.198497 
L 996.559879 621.10858 
L 997.537307 620.614678 
L 998.515205 620.620152 
L 1002.424824 620.038058 
L 1003.404036 620.063741 
L 1004.380151 620.396417 
L 1005.357297 620.048011 
L 1007.31131 620.324427 
L 1009.265603 620.123402 
L 1010.244346 620.303768 
L 1012.199015 620.173004 
L 1013.176443 619.854035 
L 1015.135898 619.886742 
L 1016.110418 619.598788 
L 1017.089629 619.641979 
L 1018.064148 619.861567 
L 1019.042609 619.745726 
L 1020.996434 619.882022 
L 1021.984653 620.134111 
L 1022.952135 620.049005 
L 1023.929188 620.604401 
L 1024.90793 622.866902 
L 1025.884514 624.356837 
L 1026.861473 625.365395 
L 1027.840122 625.510803 
L 1029.79648 623.804832 
L 1030.774377 621.841462 
L 1031.753683 620.275846 
L 1032.732143 619.924747 
L 1033.710792 619.961928 
L 1035.666962 619.544856 
L 1036.647018 619.835516 
L 1041.552083 619.909484 
L 1042.516374 620.018126 
L 1043.494929 619.740128 
L 1044.473296 620.049165 
L 1046.429278 619.740103 
L 1047.407551 619.965228 
L 1048.386012 619.8007 
L 1049.364003 619.854642 
L 1051.32252 620.179999 
L 1052.300136 619.888396 
L 1053.278315 620.128647 
L 1054.258747 619.796393 
L 1056.215762 619.766966 
L 1057.193753 619.769672 
L 1058.173152 620.103749 
L 1059.1518 619.909588 
L 1060.131387 619.555937 
L 1061.111255 619.837705 
L 1064.047763 620.013585 
L 1065.025943 619.756521 
L 1066.005342 619.713056 
L 1066.984647 619.494148 
L 1070.902524 619.291523 
L 1072.862073 619.397934 
L 1073.840721 619.122531 
L 1074.821434 619.168358 
L 1075.802898 618.99553 
L 1078.744473 619.07672 
L 1079.720963 618.869892 
L 1084.619084 618.67202 
L 1086.576006 618.31391 
L 1087.555498 618.581833 
L 1089.512889 618.628392 
L 1090.498012 618.413994 
L 1091.469247 618.671894 
L 1093.444092 618.836231 
L 1094.41101 618.483967 
L 1095.381776 618.725005 
L 1098.313029 618.931822 
L 1099.289238 618.91824 
L 1101.239872 619.137189 
L 1104.163711 619.349445 
L 1115.868736 620.397471 
L 1120.75325 620.359495 
L 1121.731617 620.6482 
L 1122.707732 620.235637 
L 1123.685066 620.615148 
L 1124.661838 620.482018 
L 1127.594405 620.713305 
L 1129.549824 620.618217 
L 1131.507309 620.810769 
L 1132.484737 620.677536 
L 1133.461884 620.795882 
L 1134.439782 621.060404 
L 1135.418148 620.996082 
L 1137.374694 621.004116 
L 1138.352873 620.81972 
L 1141.286942 621.388594 
L 1145.197406 621.590588 
L 1147.152638 621.87335 
L 1148.132037 621.80883 
L 1149.11031 622.195689 
L 1151.066105 622.676192 
L 1152.04466 623.227819 
L 1153.023871 623.275118 
L 1155.965447 623.87116 
L 1157.923212 623.730568 
L 1158.903174 623.289712 
L 1161.844562 622.944675 
L 1162.825369 622.852999 
L 1163.807208 622.557294 
L 1164.788296 622.437419 
L 1165.768539 622.121695 
L 1166.748783 621.498513 
L 1167.737566 621.054925 
L 1168.710771 620.815614 
L 1170.670133 619.831618 
L 1171.649532 620.699126 
L 1172.630244 620.297673 
L 1173.609925 620.648915 
L 1175.568441 620.881247 
L 1176.548216 621.388137 
L 1177.527146 622.029493 
L 1178.505606 622.211906 
L 1179.484161 621.920458 
L 1180.463841 621.940403 
L 1181.441739 623.019228 
L 1182.421138 622.956409 
L 1184.377965 623.970266 
L 1185.354925 624.420189 
L 1186.333198 624.726248 
L 1187.309406 624.15906 
L 1188.286178 625.25977 
L 1190.236812 625.965315 
L 1191.211706 626.958344 
L 1192.187258 628.498131 
L 1193.163936 628.553398 
L 1194.139863 628.069847 
L 1195.115977 628.218654 
L 1196.08984 627.491954 
L 1197.066142 627.195794 
L 1198.040943 625.669029 
L 1199.01565 625.679137 
L 1201.939959 623.532915 
L 1202.915605 622.349384 
L 1203.890218 621.618271 
L 1207.798899 617.316106 
L 1217.550568 607.717514 
L 1218.527058 606.622625 
L 1220.481446 604.775707 
L 1221.458124 603.681166 
L 1223.412793 601.928152 
L 1224.389564 601.363721 
L 1226.343858 599.343016 
L 1227.322319 598.370062 
L 1228.298903 597.238986 
L 1232.210118 593.517994 
L 1234.165162 591.503417 
L 1235.142028 590.695269 
L 1236.12077 589.600515 
L 1238.075439 587.808292 
L 1239.052304 586.674669 
L 1240.030108 585.815445 
L 1241.006973 584.779888 
L 1241.986654 584.046811 
L 1243.946953 582.040429 
L 1245.895054 580.469701 
L 1246.873796 579.327992 
L 1249.806269 576.699375 
L 1253.715607 572.189634 
L 1254.694349 571.709043 
L 1255.671215 570.741921 
L 1256.658402 570.100765 
L 1257.626822 569.078528 
L 1258.603688 567.84494 
L 1260.559295 565.966994 
L 1261.537099 562.149896 
L 1262.513964 560.338208 
L 1264.468633 558.45701 
L 1265.446437 556.981522 
L 1266.423303 556.698635 
L 1267.402983 555.601449 
L 1270.336394 554.353233 
L 1271.314198 553.959276 
L 1273.269806 552.606274 
L 1274.246671 551.564942 
L 1277.177267 550.230137 
L 1280.110679 547.525317 
L 1281.087544 546.931255 
L 1282.066286 546.676777 
L 1283.04409 545.85662 
L 1284.021894 545.266383 
L 1284.999697 544.393875 
L 1286.955305 543.17011 
L 1290.869335 540.06376 
L 1291.848077 539.736571 
L 1292.826819 539.126328 
L 1293.805562 538.793022 
L 1295.762108 537.576966 
L 1297.717715 537.147582 
L 1298.696457 537.025339 
L 1299.674261 536.550421 
L 1300.652065 536.240637 
L 1303.585476 536.057537 
L 1304.56328 534.580059 
L 1306.517949 534.198226 
L 1307.494814 533.139727 
L 1308.472618 532.597726 
L 1309.461683 532.206871 
L 1310.426349 532.146746 
L 1311.404153 531.681777 
L 1312.38008 531.989142 
L 1313.356945 532.067959 
L 1314.33381 531.928636 
L 1315.310676 531.992014 
L 1316.286603 531.787093 
L 1317.263468 532.213118 
L 1318.240334 533.355627 
L 1319.216261 533.267259 
L 1320.193126 533.903127 
L 1321.169991 534.047055 
L 1322.146857 535.305577 
L 1324.102464 535.364062 
L 1326.056195 536.029394 
L 1328.009926 536.595168 
L 1328.987729 536.486743 
L 1329.964595 537.676023 
L 1331.929586 538.545039 
L 1332.896129 538.845024 
L 1334.851737 539.89901 
L 1335.828602 540.549103 
L 1336.806406 540.822345 
L 1338.759198 541.984445 
L 1339.737002 542.259558 
L 1342.668537 543.559511 
L 1343.64634 544.224375 
L 1346.576937 545.322361 
L 1347.55474 545.938522 
L 1348.531606 546.110751 
L 1349.508471 546.878907 
L 1350.486275 547.234794 
L 1351.46314 547.74992 
L 1354.396552 548.942496 
L 1358.304951 550.66712 
L 1359.281817 550.761179 
L 1362.215228 552.098936 
L 1363.193032 552.684053 
L 1365.148639 552.73957 
L 1366.126443 553.280922 
L 1367.104247 553.503302 
L 1369.071115 554.131919 
L 1370.037658 553.767163 
L 1371.0164 553.90597 
L 1371.994204 554.605259 
L 1372.97107 554.855792 
L 1373.948873 555.380747 
L 1374.926677 555.557133 
L 1376.881346 556.401054 
L 1377.858212 556.131366 
L 1378.8332 556.940867 
L 1381.76192 557.339459 
L 1382.736908 557.782968 
L 1386.641555 558.567418 
L 1387.61842 558.811883 
L 1388.594347 558.836815 
L 1390.547139 559.322581 
L 1391.523066 559.255501 
L 1392.499932 559.505466 
L 1393.478674 559.417989 
L 1395.434281 559.658748 
L 1398.367693 560.088316 
L 1399.344558 560.099733 
L 1400.322362 560.344826 
L 1402.278908 560.559697 
L 1403.256711 560.398652 
L 1404.234515 560.70907 
L 1405.213257 560.59239 
L 1406.191061 560.752298 
L 1407.169803 560.67432 
L 1408.147607 560.772439 
L 1409.126349 561.084708 
L 1412.064453 561.116914 
L 1413.043195 561.292676 
L 1414.992233 561.295922 
L 1415.975668 561.659923 
L 1419.879376 562.604423 
L 1420.856241 561.971516 
L 1421.834983 561.587135 
L 1423.789652 562.727436 
L 1424.767456 563.005889 
L 1425.746198 562.326376 
L 1426.723064 562.930354 
L 1427.700867 562.547846 
L 1428.679609 563.838347 
L 1429.657413 564.518663 
L 1430.635217 565.474101 
L 1432.590825 567.891329 
L 1433.569567 568.7664 
L 1434.545494 570.291943 
L 1436.502978 572.407594 
L 1437.48172 573.094254 
L 1440.417008 576.25172 
L 1441.39575 577.197216 
L 1442.406398 578.777462 
L 1444.332915 581.085633 
L 1448.246946 585.939988 
L 1457.053748 595.083076 
L 1459.014048 597.082391 
L 1459.990913 598.195915 
L 1460.968717 599.113215 
L 1466.843047 605.623094 
L 1467.822727 606.498824 
L 1468.800531 607.655173 
L 1473.697057 612.427423 
L 1482.505736 621.805838 
L 1484.463221 624.308101 
L 1486.419767 626.454533 
L 1487.396632 627.899764 
L 1488.374436 629.086849 
L 1489.353178 628.539643 
L 1491.308785 626.21498 
L 1493.26627 623.652016 
L 1494.244073 622.753882 
L 1495.224692 621.600349 
L 1496.202496 620.695971 
L 1502.065565 614.347302 
L 1503.043369 613.534445 
L 1508.900808 607.415738 
L 1509.876735 606.491479 
L 1514.760123 601.19866 
L 1518.664769 597.057302 
L 1520.617562 595.147982 
L 1522.599444 592.861474 
L 1524.524085 590.624396 
L 1528.427793 586.609924 
L 1531.356512 583.260232 
L 1532.333378 582.496819 
L 1533.311181 581.416423 
L 1534.287108 579.607857 
L 1535.263974 578.742399 
L 1536.240839 577.664671 
L 1537.218643 576.346753 
L 1539.175189 574.410823 
L 1540.152993 573.346691 
L 1541.145811 571.659418 
L 1542.129245 570.239729 
L 1543.087342 569.24345 
L 1545.061718 566.672464 
L 1547.010756 564.403766 
L 1550.919156 559.729321 
L 1551.898837 558.800497 
L 1552.879456 557.407693 
L 1554.840694 555.136816 
L 1559.745665 549.999371 
L 1561.707842 548.502582 
L 1563.667203 546.216482 
L 1565.626564 544.245008 
L 1568.564667 541.82927 
L 1569.544348 540.93001 
L 1571.500893 538.486462 
L 1572.478697 537.578224 
L 1574.434305 535.058893 
L 1575.410232 534.030201 
L 1576.401173 532.643319 
L 1579.313001 529.174887 
L 1580.288928 527.79259 
L 1583.213894 524.103965 
L 1588.091652 517.079068 
L 1589.067579 515.491502 
L 1591.019433 512.976556 
L 1593.949091 509.396118 
L 1593.949091 509.396118 
" clip-path="url(#p87bc051718)" style="fill: none; stroke: #0000ff; stroke-width: 3; stroke-linecap: square"/>
   </g>
   <g id="line2d_15">
    <path d="M 295.330909 628.986849 
L 296.308978 628.451173 
L 297.287234 626.745632 
L 298.265532 626.029599 
L 299.2438 625.645774 
L 300.222059 625.874508 
L 301.200323 625.512416 
L 302.178604 625.768796 
L 303.156868 625.630434 
L 304.136387 625.659253 
L 307.071358 624.924842 
L 309.027697 624.221929 
L 310.005979 623.551369 
L 311.962507 622.562484 
L 312.940789 622.457903 
L 313.919081 622.230519 
L 314.897354 622.293892 
L 315.875617 621.653537 
L 316.853918 621.96528 
L 317.832173 621.876342 
L 318.810464 621.175728 
L 319.788925 621.003635 
L 320.767001 621.225496 
L 321.745274 621.6984 
L 323.701839 621.640624 
L 324.67892 621.940822 
L 325.657165 622.49076 
L 327.613748 622.319914 
L 328.590848 622.310486 
L 329.569102 622.450125 
L 330.546193 622.442226 
L 331.524494 622.556893 
L 332.502776 621.861436 
L 333.479839 621.309741 
L 334.45813 621.68506 
L 335.436385 621.886474 
L 337.391786 621.795152 
L 339.34714 622.017869 
L 340.324474 622.073652 
L 341.301368 621.587907 
L 343.25675 621.373322 
L 345.212142 620.117272 
L 346.190387 620.035489 
L 347.167487 619.542526 
L 348.145778 619.268575 
L 349.124005 619.413781 
L 353.035914 618.423879 
L 355.969597 618.051782 
L 356.946707 617.858146 
L 357.92498 618.095976 
L 358.902089 617.856392 
L 359.880325 617.93581 
L 361.834525 616.723012 
L 362.812844 617.371611 
L 363.789907 616.326211 
L 364.767241 615.854728 
L 365.745299 615.90085 
L 366.722389 615.362178 
L 367.700662 615.201823 
L 368.677753 614.552207 
L 369.65505 614.43571 
L 370.633126 614.097801 
L 371.610263 613.976619 
L 372.587373 613.319044 
L 374.541572 612.606035 
L 375.519817 612.079531 
L 376.496945 611.806004 
L 378.451127 609.653608 
L 379.428227 609.484561 
L 380.405345 609.479139 
L 381.383628 607.875182 
L 384.314899 607.382506 
L 386.269128 606.11296 
L 387.246209 605.77789 
L 388.22329 605.597593 
L 389.201666 605.576459 
L 390.178719 604.889127 
L 391.155772 604.876222 
L 392.132919 604.484054 
L 394.088245 603.253165 
L 395.065392 603.2498 
L 396.043665 602.831326 
L 397.020718 603.044454 
L 397.998991 602.980595 
L 398.976326 602.641675 
L 400.932684 601.235371 
L 401.911144 601.001068 
L 402.890356 601.218174 
L 403.868629 600.911481 
L 404.848122 599.543202 
L 405.827521 596.412013 
L 406.805888 593.951506 
L 407.786413 592.136259 
L 408.765905 591.06888 
L 409.746524 590.345559 
L 410.725923 589.368056 
L 411.706824 588.638465 
L 412.687255 588.16163 
L 414.649619 587.847439 
L 415.631364 586.872672 
L 417.592602 586.429523 
L 418.573221 585.674117 
L 419.554028 585.941706 
L 421.513952 584.815258 
L 422.494571 584.242406 
L 423.47397 583.908734 
L 424.45365 584.18553 
L 425.432862 583.377249 
L 426.412354 583.202273 
L 428.371246 582.209222 
L 429.349895 581.859484 
L 430.329012 581.378281 
L 432.286684 580.937031 
L 433.266083 580.523055 
L 434.24445 579.87056 
L 435.222629 580.034087 
L 436.202122 579.46253 
L 437.179457 579.073892 
L 438.156322 578.809723 
L 439.132249 579.015378 
L 440.10705 578.16959 
L 441.082977 577.700606 
L 443.032673 577.534169 
L 444.008412 576.815349 
L 444.983307 576.761589 
L 445.959046 576.477928 
L 446.934691 576.338331 
L 447.908929 574.811759 
L 448.883543 575.344285 
L 449.856936 575.461708 
L 450.831643 574.542119 
L 451.806256 574.610833 
L 452.780213 573.882078 
L 453.755858 573.560326 
L 454.730659 573.079758 
L 456.683733 572.525701 
L 457.65966 572.574152 
L 458.636713 571.959372 
L 459.61264 571.711901 
L 461.566934 570.668426 
L 462.543987 570.55922 
L 463.52226 570.101685 
L 464.499313 569.209893 
L 465.47646 568.819385 
L 470.363132 567.972685 
L 472.318458 567.281065 
L 474.273878 566.934704 
L 475.251213 566.326446 
L 476.229298 566.073764 
L 477.20804 566.034745 
L 478.185 566.138946 
L 479.164962 565.658497 
L 480.141358 565.576919 
L 481.119725 565.141634 
L 483.076083 564.919763 
L 484.054637 564.159371 
L 486.011934 563.619892 
L 488.950319 562.714813 
L 489.929718 562.628071 
L 490.903956 562.267489 
L 491.881759 562.165833 
L 492.859939 562.224677 
L 493.838118 561.873462 
L 495.794945 561.893907 
L 496.773969 562.071113 
L 497.751397 561.834322 
L 499.709069 561.879354 
L 500.687436 562.000199 
L 501.66965 562.303173 
L 503.623569 562.289185 
L 504.603531 562.051012 
L 505.581335 562.647447 
L 506.56064 562.940284 
L 508.523285 563.776986 
L 509.49696 564.880406 
L 512.4345 566.669499 
L 514.388419 568.308091 
L 515.366316 569.529794 
L 516.344402 570.221699 
L 517.321548 571.306071 
L 518.299821 572.028405 
L 519.278001 572.951688 
L 520.256367 573.634652 
L 521.23389 574.7118 
L 522.211975 576.053686 
L 523.19006 576.592858 
L 525.146794 578.912046 
L 526.124785 579.939009 
L 527.103058 581.154167 
L 529.059604 583.194985 
L 530.041537 584.621936 
L 531.994611 586.405596 
L 532.973165 587.541186 
L 534.929336 588.7468 
L 535.907609 589.499425 
L 536.886069 590.014748 
L 538.843741 591.266089 
L 541.778748 592.630174 
L 542.756927 593.462515 
L 543.735012 594.073842 
L 545.691464 594.504166 
L 546.669644 594.28918 
L 547.64848 594.692901 
L 548.625533 594.545986 
L 549.603899 593.878089 
L 550.581703 593.905454 
L 552.538437 594.814141 
L 553.516522 594.724413 
L 554.494701 594.882497 
L 555.475602 594.829139 
L 556.451529 595.454175 
L 557.429614 595.554618 
L 558.408638 595.26477 
L 559.386254 595.398511 
L 560.36462 595.32114 
L 561.342612 594.964594 
L 562.321166 595.525764 
L 563.299252 595.320467 
L 564.277431 594.983989 
L 565.257299 595.356918 
L 566.235197 595.592855 
L 567.213563 595.308512 
L 569.170391 594.251359 
L 570.149227 594.627985 
L 571.126655 593.975994 
L 573.083389 594.186731 
L 575.039747 593.74442 
L 576.019334 594.433581 
L 576.997607 594.253309 
L 577.975692 594.316197 
L 579.93252 593.773969 
L 580.910793 593.91652 
L 581.888784 593.512791 
L 582.867151 592.972273 
L 583.846456 593.367991 
L 584.824917 593.338382 
L 585.803002 593.420731 
L 586.780149 593.121095 
L 589.714968 593.277106 
L 590.693241 592.871865 
L 592.64988 592.5297 
L 593.632564 592.763379 
L 594.608209 592.559628 
L 595.588641 592.925367 
L 596.565975 592.621896 
L 597.545093 593.158512 
L 598.524492 592.581323 
L 599.503985 592.834707 
L 600.482539 592.765344 
L 601.461563 592.413798 
L 602.439554 592.720519 
L 603.419235 592.33854 
L 604.397226 593.069944 
L 605.375781 592.45235 
L 606.353021 592.294915 
L 607.331388 592.26693 
L 608.307972 592.445749 
L 613.196897 592.069882 
L 614.175452 591.847788 
L 615.151754 591.893795 
L 617.104452 591.711544 
L 618.081412 591.270019 
L 619.058746 591.392384 
L 620.035893 591.907457 
L 621.012571 591.505575 
L 622.968272 591.008183 
L 627.861326 590.362441 
L 629.812523 590.543833 
L 630.789576 590.547233 
L 631.766629 591.084691 
L 632.743776 590.382234 
L 637.626883 589.046348 
L 638.603936 588.497643 
L 639.581177 588.199375 
L 641.537629 588.069101 
L 642.517028 587.498655 
L 644.479861 587.119971 
L 645.460292 587.279839 
L 646.441287 587.072244 
L 648.402243 586.061221 
L 649.382674 585.81581 
L 650.3632 585.423671 
L 651.34288 585.521727 
L 652.326596 585.463749 
L 653.307872 585.216747 
L 654.279951 585.387849 
L 655.258975 585.175081 
L 656.237342 585.164666 
L 657.215896 584.787497 
L 658.193137 584.791217 
L 660.148744 584.439106 
L 661.125891 584.644647 
L 664.059303 584.228473 
L 665.037575 584.449071 
L 667.97352 583.952528 
L 668.951512 583.775489 
L 669.931755 583.750293 
L 670.909841 583.274942 
L 671.889146 583.294788 
L 672.867419 583.528555 
L 674.823871 582.969737 
L 675.802144 582.436457 
L 678.736775 581.924511 
L 679.715236 581.94726 
L 680.693227 582.228205 
L 681.670656 582.354468 
L 682.649022 581.700593 
L 683.625794 581.713549 
L 684.602753 582.228604 
L 685.581308 581.320063 
L 686.558173 581.945461 
L 688.512748 581.465638 
L 689.49074 581.872174 
L 690.468074 582.43323 
L 691.445315 582.737207 
L 692.422274 583.381764 
L 694.377882 584.927613 
L 695.35456 585.240651 
L 698.28478 587.127232 
L 699.260801 588.169175 
L 700.236728 588.713454 
L 701.212374 589.574089 
L 703.164697 590.717095 
L 704.141844 591.744875 
L 706.093604 593.365944 
L 707.069437 593.601546 
L 708.045176 594.666571 
L 709.022323 595.274555 
L 709.998063 596.039088 
L 710.97399 596.954194 
L 711.949916 597.498652 
L 712.92575 598.673427 
L 713.901677 599.508705 
L 714.880513 599.88635 
L 715.85766 600.581042 
L 716.83246 600.623139 
L 719.758834 602.275787 
L 720.734573 602.970322 
L 721.711908 603.015804 
L 722.690087 603.838714 
L 723.666014 603.798827 
L 724.643442 603.913283 
L 725.619932 604.974175 
L 726.598205 604.953392 
L 727.577417 605.342922 
L 728.564698 606.002477 
L 729.534995 606.437636 
L 730.513925 606.715433 
L 731.494637 606.79948 
L 732.475819 607.516755 
L 733.455781 607.374372 
L 734.435368 607.616321 
L 735.415987 607.591483 
L 736.395011 607.749276 
L 737.374504 607.379438 
L 738.353903 608.059304 
L 739.333395 608.538749 
L 740.314202 607.601365 
L 741.294821 608.114025 
L 746.19435 606.715472 
L 747.174218 605.925175 
L 748.153242 606.403448 
L 749.131233 606.190059 
L 750.109694 606.292255 
L 751.088061 606.615178 
L 752.066615 606.184663 
L 754.023349 606.3566 
L 756.956385 606.013272 
L 757.934658 605.780966 
L 758.969516 605.671605 
L 759.890734 605.76166 
L 760.868538 604.864899 
L 762.823958 605.915307 
L 763.802513 605.658152 
L 764.779472 605.658283 
L 765.756619 605.434132 
L 766.734892 605.404709 
L 767.711757 605.70392 
L 768.689936 605.865895 
L 769.667083 605.776987 
L 770.645168 606.130289 
L 771.622784 605.678714 
L 772.599744 605.606907 
L 773.577829 606.844955 
L 774.555257 607.031813 
L 775.533061 606.166785 
L 776.510208 606.030519 
L 777.503495 606.313442 
L 778.465909 606.417797 
L 779.443807 606.296621 
L 781.399133 606.269306 
L 782.377594 606.924936 
L 783.355679 607.005076 
L 785.314195 606.679591 
L 786.290967 606.668283 
L 787.269334 606.319979 
L 788.247513 606.522351 
L 789.225786 606.087498 
L 790.20556 606.099468 
L 791.183082 606.546928 
L 792.161262 606.317884 
L 793.139628 606.304312 
L 794.128599 606.028715 
L 795.09533 606.595817 
L 797.050843 606.413237 
L 798.028084 606.1614 
L 799.003636 606.502167 
L 799.978343 606.404315 
L 800.954645 606.428988 
L 801.93076 605.776851 
L 802.90481 605.840955 
L 803.880925 605.567104 
L 804.855538 605.677908 
L 805.83062 605.928614 
L 806.806266 605.352456 
L 807.781161 604.961517 
L 808.757182 605.169235 
L 809.731701 605.097474 
L 810.707722 605.220168 
L 811.683836 605.556546 
L 812.660139 605.137846 
L 813.635221 605.115632 
L 814.61143 604.88152 
L 815.587544 604.873149 
L 816.565067 605.044723 
L 817.540149 604.535496 
L 818.517577 604.700623 
L 820.472153 604.692374 
L 821.449393 604.940989 
L 822.427385 604.716552 
L 823.404156 604.367678 
L 824.382336 604.30058 
L 827.317154 604.459932 
L 828.296741 604.900674 
L 829.277454 604.235422 
L 830.256759 603.826762 
L 831.238692 604.134257 
L 832.219405 603.633958 
L 833.201056 603.28699 
L 834.181769 603.070401 
L 835.162294 601.917341 
L 836.142631 602.594793 
L 837.125878 602.908953 
L 838.103306 602.18124 
L 839.08233 602.253559 
L 840.061916 601.982334 
L 841.041315 601.475555 
L 842.020996 601.934584 
L 843.000301 600.597083 
L 843.981014 601.116678 
L 844.961351 600.5286 
L 845.94197 600.557774 
L 846.921463 599.997396 
L 847.902082 599.913322 
L 848.882513 600.436928 
L 849.863038 600.000654 
L 850.843751 599.442194 
L 852.805834 599.66054 
L 853.789174 599.212785 
L 854.766884 599.170923 
L 855.744969 599.603255 
L 857.70236 598.972971 
L 859.658999 598.868898 
L 860.637648 598.765317 
L 861.615452 598.331069 
L 863.57181 597.852186 
L 864.548863 597.777699 
L 866.504658 597.177615 
L 867.481899 597.223728 
L 868.45989 597.033919 
L 871.392269 597.163271 
L 872.369229 597.232657 
L 874.326901 596.867709 
L 875.304704 596.98245 
L 876.280256 596.678969 
L 877.257684 596.146699 
L 878.235582 596.137925 
L 880.189876 595.60303 
L 881.167867 595.630233 
L 883.124695 594.515409 
L 885.105639 593.02825 
L 886.05942 591.552908 
L 887.038443 590.895455 
L 888.994239 588.471969 
L 889.972324 587.037312 
L 890.949471 586.221519 
L 891.927931 585.229004 
L 893.88429 582.521773 
L 894.865096 580.512943 
L 895.841305 579.348501 
L 897.797663 576.190738 
L 898.775748 574.957696 
L 899.753834 573.930095 
L 900.735391 573.115862 
L 901.715822 571.329382 
L 902.689403 570.551488 
L 905.622345 565.788418 
L 906.600618 564.449857 
L 907.578985 562.702316 
L 910.514555 558.625453 
L 911.491045 557.346882 
L 913.454535 554.0227 
L 914.424831 553.064563 
L 916.380157 550.4363 
L 917.358055 549.505147 
L 919.314882 547.211684 
L 920.293718 546.229116 
L 921.271428 544.87771 
L 922.248388 543.848945 
L 923.226661 542.42361 
L 924.221449 542.048629 
L 925.183676 541.886408 
L 927.140128 541.01557 
L 928.118119 541.027296 
L 931.052938 539.807312 
L 932.029803 540.264111 
L 933.00817 539.523686 
L 933.986912 540.46851 
L 935.942238 540.417373 
L 936.920605 540.887975 
L 939.853923 540.476975 
L 940.83107 540.130172 
L 941.809718 541.072111 
L 942.786396 541.497224 
L 943.763542 541.546273 
L 944.741628 541.977415 
L 945.719056 542.631654 
L 949.629896 544.461115 
L 951.584753 545.164694 
L 952.562087 545.52747 
L 953.540642 545.620559 
L 954.517507 546.456183 
L 955.496531 546.385773 
L 956.473772 546.751106 
L 958.429473 548.018808 
L 960.386863 548.489932 
L 961.365981 548.642795 
L 964.296483 549.931856 
L 965.274756 550.60551 
L 966.251809 550.550411 
L 967.233273 550.899251 
L 968.207511 551.094613 
L 969.184658 551.613407 
L 971.139702 552.041421 
L 972.116755 552.711337 
L 973.093902 552.674596 
L 974.072081 553.39835 
L 975.051105 553.412826 
L 976.027689 554.023174 
L 977.006337 554.239463 
L 977.983202 554.850681 
L 978.961569 554.838862 
L 979.93881 555.371172 
L 980.915488 555.15993 
L 982.871377 556.100616 
L 983.848148 556.572482 
L 984.825952 556.731386 
L 985.803193 556.737506 
L 986.780809 556.533128 
L 988.736041 557.715485 
L 989.714595 557.052364 
L 990.691367 557.84611 
L 991.66964 557.702609 
L 992.647725 558.629341 
L 993.625998 559.758153 
L 995.581981 560.399029 
L 996.559879 560.639141 
L 997.537307 561.471963 
L 998.515205 562.056821 
L 999.49207 563.118338 
L 1000.470343 563.30161 
L 1001.44749 563.741225 
L 1002.424824 564.387243 
L 1004.380151 565.078613 
L 1005.357297 565.505772 
L 1006.334444 566.176196 
L 1007.31131 567.089097 
L 1010.244346 568.83079 
L 1011.220836 569.193956 
L 1012.199015 569.419188 
L 1013.176443 569.430873 
L 1014.156499 569.294738 
L 1015.135898 570.014729 
L 1016.110418 571.160759 
L 1017.089629 570.828398 
L 1018.064148 571.681386 
L 1020.01938 572.537814 
L 1021.984653 572.237384 
L 1022.952135 571.993056 
L 1023.929188 572.665295 
L 1024.90793 572.993789 
L 1025.884514 573.142537 
L 1028.818113 574.653337 
L 1029.79648 575.362522 
L 1031.753683 575.361249 
L 1032.732143 576.014393 
L 1034.689252 576.239893 
L 1035.666962 576.876122 
L 1036.647018 576.67775 
L 1037.624165 576.922857 
L 1038.603376 577.011778 
L 1039.58118 576.812661 
L 1040.559547 576.466123 
L 1042.516374 576.187846 
L 1043.494929 576.346464 
L 1044.473296 575.883949 
L 1045.451005 576.073906 
L 1046.429278 575.945221 
L 1047.407551 575.644697 
L 1048.386012 575.851891 
L 1049.364003 576.782744 
L 1050.344059 576.874456 
L 1051.32252 577.364451 
L 1054.258747 578.36989 
L 1055.236175 578.624452 
L 1056.215762 580.308258 
L 1057.193753 579.680398 
L 1058.173152 579.666121 
L 1059.1518 580.639392 
L 1060.131387 580.144043 
L 1061.111255 580.468877 
L 1062.088778 580.225411 
L 1063.06874 580.711631 
L 1067.96489 582.4255 
L 1068.944102 582.458912 
L 1069.923595 582.707618 
L 1070.902524 582.515601 
L 1072.862073 583.460981 
L 1073.840721 583.456088 
L 1074.821434 583.806797 
L 1075.802898 583.425009 
L 1076.783048 583.835519 
L 1079.720963 585.739651 
L 1080.700925 585.662762 
L 1081.679855 586.385012 
L 1082.659536 585.601885 
L 1083.640154 586.113536 
L 1084.619084 587.166063 
L 1085.598296 586.870559 
L 1086.576006 587.316556 
L 1087.555498 587.320625 
L 1088.533959 587.772473 
L 1089.512889 587.804232 
L 1090.498012 588.363666 
L 1091.469247 587.942231 
L 1092.446769 588.437297 
L 1093.444092 588.500396 
L 1094.41101 589.129816 
L 1095.381776 589.592439 
L 1096.360331 589.648527 
L 1099.289238 590.374298 
L 1103.189098 591.667356 
L 1104.163711 591.434768 
L 1105.139451 591.855314 
L 1106.114627 591.598359 
L 1107.087176 591.586426 
L 1108.061977 592.181593 
L 1109.036402 591.856839 
L 1110.987036 592.007817 
L 1111.961743 592.318839 
L 1112.938609 592.218816 
L 1113.916506 592.761975 
L 1114.892433 592.799255 
L 1115.868736 593.335477 
L 1116.8441 593.103231 
L 1117.820965 593.906767 
L 1118.798018 594.25583 
L 1119.775071 594.333165 
L 1121.731617 594.297285 
L 1122.707732 595.047865 
L 1123.685066 594.964134 
L 1124.661838 595.421588 
L 1126.617633 595.709943 
L 1127.594405 595.997087 
L 1128.572584 594.392597 
L 1129.549824 596.214156 
L 1130.52866 598.35426 
L 1131.507309 596.885146 
L 1132.484737 596.747248 
L 1133.461884 597.768626 
L 1138.352873 599.324594 
L 1139.331146 599.899464 
L 1140.310639 600.308284 
L 1142.265308 600.778984 
L 1143.242268 600.483297 
L 1144.220541 601.355333 
L 1146.175679 600.634684 
L 1147.152638 600.726941 
L 1148.132037 600.157902 
L 1149.11031 600.3657 
L 1150.088208 599.863156 
L 1152.04466 600.518899 
L 1154.003364 600.516887 
L 1155.965447 601.393483 
L 1156.941749 601.979604 
L 1157.923212 602.176148 
L 1158.903174 602.851611 
L 1159.88248 603.199341 
L 1160.8646 603.159011 
L 1162.825369 604.389334 
L 1163.807208 605.272396 
L 1164.788296 605.630593 
L 1166.748783 606.681535 
L 1168.710771 607.081829 
L 1170.670133 607.674276 
L 1171.649532 607.497202 
L 1172.630244 607.119526 
L 1173.609925 606.912703 
L 1174.589042 605.655112 
L 1175.568441 605.272592 
L 1176.548216 605.659778 
L 1177.527146 605.015536 
L 1179.484161 603.30166 
L 1180.463841 602.909201 
L 1182.421138 601.751124 
L 1183.423246 601.667671 
L 1184.377965 601.759763 
L 1185.354925 601.153057 
L 1186.333198 600.30015 
L 1188.286178 599.24002 
L 1189.262386 598.015101 
L 1190.236812 597.252279 
L 1194.139863 591.886747 
L 1195.115977 589.829989 
L 1196.08984 588.207751 
L 1197.066142 586.32215 
L 1198.040943 584.802238 
L 1199.01565 582.814359 
L 1200.964971 578.39389 
L 1201.939959 575.555563 
L 1203.890218 570.854994 
L 1205.841321 564.40999 
L 1206.816028 561.955698 
L 1209.741651 553.932133 
L 1210.717203 551.533316 
L 1212.669244 546.049097 
L 1217.550568 533.241733 
L 1218.527058 530.941728 
L 1220.481446 525.708636 
L 1221.458124 523.043494 
L 1222.435834 520.723791 
L 1224.389564 515.574816 
L 1225.366711 513.259464 
L 1226.343858 510.174826 
L 1228.298903 504.991936 
L 1229.277457 503.573605 
L 1230.256105 501.511651 
L 1231.233252 498.759839 
L 1232.210118 497.055596 
L 1237.098573 486.28505 
L 1239.052304 481.115834 
L 1243.946953 470.637771 
L 1244.918188 468.808051 
L 1248.829403 459.754761 
L 1249.806269 457.635912 
L 1252.738742 450.388881 
L 1253.715607 448.733682 
L 1254.694349 446.794168 
L 1255.671215 444.477918 
L 1256.658402 442.605054 
L 1258.603688 438.36168 
L 1260.559295 434.688857 
L 1264.468633 426.244171 
L 1266.423303 421.643052 
L 1268.380787 417.663956 
L 1272.291064 409.206623 
L 1274.246671 404.071321 
L 1280.110679 389.532685 
L 1283.04409 383.342548 
L 1284.021894 381.871216 
L 1284.999697 379.628252 
L 1286.955305 375.72077 
L 1287.934985 373.469579 
L 1290.869335 367.943471 
L 1291.848077 366.503195 
L 1292.826819 364.425236 
L 1295.762108 360.555812 
L 1299.674261 357.02668 
L 1302.606734 354.245156 
L 1303.585476 353.386626 
L 1304.56328 352.09622 
L 1306.517949 351.364741 
L 1308.472618 350.770241 
L 1309.461683 350.340629 
L 1310.426349 349.51143 
L 1312.38008 348.705944 
L 1313.356945 348.368435 
L 1316.286603 346.832118 
L 1317.263468 346.372914 
L 1318.240334 345.738837 
L 1320.193126 345.620416 
L 1321.169991 344.662552 
L 1322.146857 344.252358 
L 1323.12466 343.693792 
L 1324.102464 344.009262 
L 1325.07933 344.478421 
L 1326.056195 344.493233 
L 1327.033999 345.372288 
L 1328.009926 345.737152 
L 1328.987729 345.576455 
L 1331.929586 346.329817 
L 1332.896129 346.807414 
L 1334.851737 347.148792 
L 1335.828602 347.141002 
L 1336.806406 347.32577 
L 1338.759198 347.238125 
L 1339.737002 347.501825 
L 1340.713868 347.537901 
L 1342.668537 346.854915 
L 1343.64634 347.201975 
L 1344.627898 346.54738 
L 1345.600071 346.874858 
L 1346.576937 346.702643 
L 1347.55474 346.38794 
L 1348.531606 346.258135 
L 1350.486275 345.158205 
L 1351.46314 345.119546 
L 1352.444698 344.516268 
L 1353.418748 344.221025 
L 1355.376232 343.434088 
L 1356.352159 343.294626 
L 1357.328086 342.917581 
L 1358.304951 342.860255 
L 1359.281817 342.96674 
L 1360.260559 341.678124 
L 1361.238363 341.92226 
L 1362.215228 340.903232 
L 1363.193032 340.561124 
L 1364.171774 341.134455 
L 1365.148639 339.470829 
L 1366.126443 339.965273 
L 1367.104247 338.646295 
L 1368.082051 338.162337 
L 1369.071115 338.033931 
L 1371.0164 335.985684 
L 1372.97107 334.413988 
L 1373.948873 333.346049 
L 1375.905419 331.600103 
L 1376.881346 331.063869 
L 1377.858212 329.598625 
L 1380.786931 328.154877 
L 1381.76192 327.704783 
L 1382.736908 326.659361 
L 1384.688762 325.850463 
L 1385.665628 325.283983 
L 1386.641555 324.115783 
L 1388.594347 323.233045 
L 1398.367693 315.469691 
L 1399.344558 314.501003 
L 1400.322362 313.999923 
L 1401.301104 312.725394 
L 1402.278908 311.980248 
L 1403.256711 311.895823 
L 1404.234515 311.957843 
L 1405.213257 310.962559 
L 1406.191061 310.349856 
L 1411.084772 308.313875 
L 1412.064453 307.631265 
L 1413.043195 307.254522 
L 1414.01443 307.13566 
L 1415.975668 306.630315 
L 1416.946903 306.620908 
L 1417.923768 306.266579 
L 1418.90251 306.202767 
L 1419.879376 306.00267 
L 1420.856241 305.929491 
L 1421.834983 304.850768 
L 1422.81091 304.55787 
L 1423.789652 305.084158 
L 1424.767456 304.958444 
L 1425.746198 304.977814 
L 1426.723064 305.244763 
L 1427.700867 305.865443 
L 1428.679609 306.200308 
L 1430.635217 307.702763 
L 1434.545494 312.176271 
L 1435.524236 314.033119 
L 1436.502978 315.487446 
L 1437.48172 317.385815 
L 1438.459524 318.328524 
L 1439.438266 319.984168 
L 1440.417008 322.304435 
L 1442.406398 325.792483 
L 1444.332915 329.841306 
L 1445.310719 331.720042 
L 1446.294153 334.949165 
L 1447.278526 336.716844 
L 1448.246946 337.92611 
L 1450.203491 342.219937 
L 1451.183172 345.083193 
L 1452.160976 346.586304 
L 1453.139718 348.441013 
L 1455.103771 353.450898 
L 1459.014048 361.88532 
L 1460.968717 366.907572 
L 1461.948397 368.695708 
L 1463.90682 373.513292 
L 1464.885562 376.316414 
L 1465.864304 378.417737 
L 1470.759892 390.536773 
L 1471.740511 393.16706 
L 1472.718315 394.660909 
L 1476.64079 403.735226 
L 1477.613902 405.595348 
L 1478.591706 407.859388 
L 1479.570448 410.461076 
L 1480.548252 413.490111 
L 1481.53544 416.026216 
L 1482.505736 417.886169 
L 1484.463221 423.162625 
L 1485.441024 425.430373 
L 1486.419767 428.074842 
L 1488.374436 432.502893 
L 1490.330982 437.701419 
L 1491.308785 439.771717 
L 1493.26627 445.043608 
L 1496.202496 451.867388 
L 1497.179362 453.685619 
L 1498.158104 456.253705 
L 1499.134031 458.474988 
L 1500.110896 461.101144 
L 1501.089638 462.814297 
L 1503.043369 467.806845 
L 1504.018358 469.992903 
L 1504.995223 472.702788 
L 1505.972088 474.949177 
L 1510.854538 489.057851 
L 1511.830465 491.496612 
L 1512.807331 493.435962 
L 1513.783258 496.356604 
L 1515.73605 501.550121 
L 1516.711977 504.472425 
L 1517.688843 506.195511 
L 1518.664769 509.230585 
L 1519.640696 511.076603 
L 1520.617562 513.838827 
L 1521.599119 516.080326 
L 1522.599444 519.438716 
L 1523.54722 520.577641 
L 1524.524085 523.813342 
L 1525.500012 525.751318 
L 1526.475001 528.274351 
L 1527.462188 530.122854 
L 1528.427793 532.668492 
L 1529.404658 534.786027 
L 1531.356512 539.781578 
L 1532.333378 541.799782 
L 1533.311181 544.278232 
L 1534.287108 545.552604 
L 1535.263974 549.066354 
L 1536.240839 551.339403 
L 1542.129245 568.977849 
L 1547.981991 588.637766 
L 1548.960734 591.356814 
L 1549.941353 594.838 
L 1554.840694 609.064871 
L 1555.821313 611.544496 
L 1557.782551 617.475821 
L 1558.765046 620.02402 
L 1559.745665 623.259211 
L 1561.707842 628.505843 
L 1562.68846 627.131473 
L 1563.667203 624.548729 
L 1564.64876 621.339465 
L 1566.606244 616.022 
L 1567.585925 612.268432 
L 1570.52309 603.008053 
L 1571.500893 600.581441 
L 1573.457439 593.930882 
L 1574.434305 590.653346 
L 1576.401173 585.256067 
L 1578.363349 577.744568 
L 1579.313001 574.978239 
L 1581.263917 568.220264 
L 1582.252981 565.765101 
L 1583.213894 562.762225 
L 1584.189821 559.195471 
L 1590.043506 541.816981 
L 1591.019433 539.87515 
L 1591.99536 536.993861 
L 1593.949091 529.408442 
L 1593.949091 529.408442 
" clip-path="url(#p87bc051718)" style="fill: none; stroke: #9933fa; stroke-width: 3; stroke-linecap: square"/>
   </g>
   <g id="patch_3">
    <path d="M 230.4 640.8 
L 230.4 86.4 
" style="fill: none; stroke: #000000; stroke-width: 3; stroke-linejoin: miter; stroke-linecap: square"/>
   </g>
   <g id="patch_4">
    <path d="M 1658.88 640.8 
L 1658.88 86.4 
" style="fill: none; stroke: #000000; stroke-width: 3; stroke-linejoin: miter; stroke-linecap: square"/>
   </g>
   <g id="patch_5">
    <path d="M 230.4 640.8 
L 1658.88 640.8 
" style="fill: none; stroke: #000000; stroke-width: 3; stroke-linejoin: miter; stroke-linecap: square"/>
   </g>
   <g id="patch_6">
    <path d="M 230.4 86.4 
L 1658.88 86.4 
" style="fill: none; stroke: #000000; stroke-width: 3; stroke-linejoin: miter; stroke-linecap: square"/>
   </g>
   <g id="text_9">
    <!-- kitti05 -->
    <g transform="translate(872.836875 77.041406) scale(0.45 -0.45)">
     <defs>
      <path id="DejaVuSans-6b" d="M 581 4863 
L 1159 4863 
L 1159 1991 
L 2875 3500 
L 3609 3500 
L 1753 1863 
L 3688 0 
L 2938 0 
L 1159 1709 
L 1159 0 
L 581 0 
L 581 4863 
z
" transform="scale(0.015625)"/>
      <path id="DejaVuSans-69" d="M 603 3500 
L 1178 3500 
L 1178 0 
L 603 0 
L 603 3500 
z
M 603 4863 
L 1178 4863 
L 1178 4134 
L 603 4134 
L 603 4863 
z
" transform="scale(0.015625)"/>
      <path id="DejaVuSans-74" d="M 1172 4494 
L 1172 3500 
L 2356 3500 
L 2356 3053 
L 1172 3053 
L 1172 1153 
Q 1172 725 1289 603 
Q 1406 481 1766 481 
L 2356 481 
L 2356 0 
L 1766 0 
Q 1100 0 847 248 
Q 594 497 594 1153 
L 594 3053 
L 172 3053 
L 172 3500 
L 594 3500 
L 594 4494 
L 1172 4494 
z
" transform="scale(0.015625)"/>
      <path id="DejaVuSans-35" d="M 691 4666 
L 3169 4666 
L 3169 4134 
L 1269 4134 
L 1269 2991 
Q 1406 3038 1543 3061 
Q 1681 3084 1819 3084 
Q 2600 3084 3056 2656 
Q 3513 2228 3513 1497 
Q 3513 744 3044 326 
Q 2575 -91 1722 -91 
Q 1428 -91 1123 -41 
Q 819 9 494 109 
L 494 744 
Q 775 591 1075 516 
Q 1375 441 1709 441 
Q 2250 441 2565 725 
Q 2881 1009 2881 1497 
Q 2881 1984 2565 2268 
Q 2250 2553 1709 2553 
Q 1456 2553 1204 2497 
Q 953 2441 691 2322 
L 691 4666 
z
" transform="scale(0.015625)"/>
     </defs>
     <use xlink:href="#DejaVuSans-6b"/>
     <use xlink:href="#DejaVuSans-69" x="57.910156"/>
     <use xlink:href="#DejaVuSans-74" x="85.693359"/>
     <use xlink:href="#DejaVuSans-74" x="124.902344"/>
     <use xlink:href="#DejaVuSans-69" x="164.111328"/>
     <use xlink:href="#DejaVuSans-30" x="191.894531"/>
     <use xlink:href="#DejaVuSans-35" x="255.517578"/>
    </g>
   </g>
   <g id="legend_1">
    <g id="patch_7">
     <path d="M 258.4 294.5375 
L 410.075 294.5375 
Q 418.075 294.5375 418.075 286.5375 
L 418.075 114.4 
Q 418.075 106.4 410.075 106.4 
L 258.4 106.4 
Q 250.4 106.4 250.4 114.4 
L 250.4 286.5375 
Q 250.4 294.5375 258.4 294.5375 
z
" style="fill: #ffffff; opacity: 0.8; stroke: #cccccc; stroke-linejoin: miter"/>
    </g>
    <g id="line2d_16">
     <path d="M 266.4 138.79375 
L 306.4 138.79375 
L 346.4 138.79375 
" style="fill: none; stroke: #00ff00; stroke-width: 3; stroke-linecap: square"/>
    </g>
    <g id="text_10">
     <!-- x -->
     <g transform="translate(378.4 152.79375) scale(0.4 -0.4)">
      <defs>
       <path id="DejaVuSans-78" d="M 3513 3500 
L 2247 1797 
L 3578 0 
L 2900 0 
L 1881 1375 
L 863 0 
L 184 0 
L 1544 1831 
L 300 3500 
L 978 3500 
L 1906 2253 
L 2834 3500 
L 3513 3500 
z
" transform="scale(0.015625)"/>
      </defs>
      <use xlink:href="#DejaVuSans-78"/>
     </g>
    </g>
    <g id="line2d_17">
     <path d="M 266.4 197.50625 
L 306.4 197.50625 
L 346.4 197.50625 
" style="fill: none; stroke: #0000ff; stroke-width: 3; stroke-linecap: square"/>
    </g>
    <g id="text_11">
     <!-- y -->
     <g transform="translate(378.4 211.50625) scale(0.4 -0.4)">
      <defs>
       <path id="DejaVuSans-79" d="M 2059 -325 
Q 1816 -950 1584 -1140 
Q 1353 -1331 966 -1331 
L 506 -1331 
L 506 -850 
L 844 -850 
Q 1081 -850 1212 -737 
Q 1344 -625 1503 -206 
L 1606 56 
L 191 3500 
L 800 3500 
L 1894 763 
L 2988 3500 
L 3597 3500 
L 2059 -325 
z
" transform="scale(0.015625)"/>
      </defs>
      <use xlink:href="#DejaVuSans-79"/>
     </g>
    </g>
    <g id="line2d_18">
     <path d="M 266.4 256.21875 
L 306.4 256.21875 
L 346.4 256.21875 
" style="fill: none; stroke: #9933fa; stroke-width: 3; stroke-linecap: square"/>
    </g>
    <g id="text_12">
     <!-- z -->
     <g transform="translate(378.4 270.21875) scale(0.4 -0.4)">
      <defs>
       <path id="DejaVuSans-7a" d="M 353 3500 
L 3084 3500 
L 3084 2975 
L 922 459 
L 3084 459 
L 3084 0 
L 275 0 
L 275 525 
L 2438 3041 
L 353 3041 
L 353 3500 
z
" transform="scale(0.015625)"/>
      </defs>
      <use xlink:href="#DejaVuSans-7a"/>
     </g>
    </g>
   </g>
  </g>
 </g>
 <defs>
  <clipPath id="p87bc051718">
   <rect x="230.4" y="86.4" width="1428.48" height="554.4"/>
  </clipPath>
 </defs>
</svg>
