<?xml version="1.0" encoding="utf-8" standalone="no"?>
<!DOCTYPE svg PUBLIC "-//W3C//DTD SVG 1.1//EN"
  "http://www.w3.org/Graphics/SVG/1.1/DTD/svg11.dtd">
<svg xmlns:xlink="http://www.w3.org/1999/xlink" width="1843.2pt" height="720pt" viewBox="0 0 1843.2 720" xmlns="http://www.w3.org/2000/svg" version="1.1">
 <metadata>
  <rdf:RDF xmlns:dc="http://purl.org/dc/elements/1.1/" xmlns:cc="http://creativecommons.org/ns#" xmlns:rdf="http://www.w3.org/1999/02/22-rdf-syntax-ns#">
   <cc:Work>
    <dc:type rdf:resource="http://purl.org/dc/dcmitype/StillImage"/>
    <dc:date>2024-03-12T16:13:11.243169</dc:date>
    <dc:format>image/svg+xml</dc:format>
    <dc:creator>
     <cc:Agent>
      <dc:title>Matplotlib v3.7.0, https://matplotlib.org/</dc:title>
     </cc:Agent>
    </dc:creator>
   </cc:Work>
  </rdf:RDF>
 </metadata>
 <defs>
  <style type="text/css">*{stroke-linejoin: round; stroke-linecap: butt}</style>
 </defs>
 <g id="figure_1">
  <g id="patch_1">
   <path d="M 0 720 
L 1843.2 720 
L 1843.2 0 
L 0 0 
z
" style="fill: #ffffff"/>
  </g>
  <g id="axes_1">
   <g id="patch_2">
    <path d="M 230.4 640.8 
L 1658.88 640.8 
L 1658.88 86.4 
L 230.4 86.4 
z
" style="fill: #ffffff"/>
   </g>
   <g id="matplotlib.axis_1">
    <g id="xtick_1">
     <g id="line2d_1">
      <path d="M 295.330909 640.8 
L 295.330909 86.4 
" clip-path="url(#p859034f539)" style="fill: none; stroke: #b0b0b0; stroke-width: 0.8; stroke-linecap: square"/>
     </g>
     <g id="line2d_2">
      <defs>
       <path id="m803bec7b4f" d="M 0 0 
L 0 -5 
" style="stroke: #000000; stroke-width: 0.8"/>
      </defs>
      <g>
       <use xlink:href="#m803bec7b4f" x="295.330909" y="640.8" style="stroke: #000000; stroke-width: 0.8"/>
      </g>
     </g>
     <g id="text_1">
      <!-- 0 -->
      <g transform="translate(282.605909 674.69375) scale(0.4 -0.4)">
       <defs>
        <path id="DejaVuSans-30" d="M 2034 4250 
Q 1547 4250 1301 3770 
Q 1056 3291 1056 2328 
Q 1056 1369 1301 889 
Q 1547 409 2034 409 
Q 2525 409 2770 889 
Q 3016 1369 3016 2328 
Q 3016 3291 2770 3770 
Q 2525 4250 2034 4250 
z
M 2034 4750 
Q 2819 4750 3233 4129 
Q 3647 3509 3647 2328 
Q 3647 1150 3233 529 
Q 2819 -91 2034 -91 
Q 1250 -91 836 529 
Q 422 1150 422 2328 
Q 422 3509 836 4129 
Q 1250 4750 2034 4750 
z
" transform="scale(0.015625)"/>
       </defs>
       <use xlink:href="#DejaVuSans-30"/>
      </g>
     </g>
    </g>
    <g id="xtick_2">
     <g id="line2d_3">
      <path d="M 927.170273 640.8 
L 927.170273 86.4 
" clip-path="url(#p859034f539)" style="fill: none; stroke: #b0b0b0; stroke-width: 0.8; stroke-linecap: square"/>
     </g>
     <g id="line2d_4">
      <g>
       <use xlink:href="#m803bec7b4f" x="927.170273" y="640.8" style="stroke: #000000; stroke-width: 0.8"/>
      </g>
     </g>
     <g id="text_2">
      <!-- 100 -->
      <g transform="translate(888.995273 674.69375) scale(0.4 -0.4)">
       <defs>
        <path id="DejaVuSans-31" d="M 794 531 
L 1825 531 
L 1825 4091 
L 703 3866 
L 703 4441 
L 1819 4666 
L 2450 4666 
L 2450 531 
L 3481 531 
L 3481 0 
L 794 0 
L 794 531 
z
" transform="scale(0.015625)"/>
       </defs>
       <use xlink:href="#DejaVuSans-31"/>
       <use xlink:href="#DejaVuSans-30" x="63.623047"/>
       <use xlink:href="#DejaVuSans-30" x="127.246094"/>
      </g>
     </g>
    </g>
    <g id="xtick_3">
     <g id="line2d_5">
      <path d="M 1559.009638 640.8 
L 1559.009638 86.4 
" clip-path="url(#p859034f539)" style="fill: none; stroke: #b0b0b0; stroke-width: 0.8; stroke-linecap: square"/>
     </g>
     <g id="line2d_6">
      <g>
       <use xlink:href="#m803bec7b4f" x="1559.009638" y="640.8" style="stroke: #000000; stroke-width: 0.8"/>
      </g>
     </g>
     <g id="text_3">
      <!-- 200 -->
      <g transform="translate(1520.834638 674.69375) scale(0.4 -0.4)">
       <defs>
        <path id="DejaVuSans-32" d="M 1228 531 
L 3431 531 
L 3431 0 
L 469 0 
L 469 531 
Q 828 903 1448 1529 
Q 2069 2156 2228 2338 
Q 2531 2678 2651 2914 
Q 2772 3150 2772 3378 
Q 2772 3750 2511 3984 
Q 2250 4219 1831 4219 
Q 1534 4219 1204 4116 
Q 875 4013 500 3803 
L 500 4441 
Q 881 4594 1212 4672 
Q 1544 4750 1819 4750 
Q 2544 4750 2975 4387 
Q 3406 4025 3406 3419 
Q 3406 3131 3298 2873 
Q 3191 2616 2906 2266 
Q 2828 2175 2409 1742 
Q 1991 1309 1228 531 
z
" transform="scale(0.015625)"/>
       </defs>
       <use xlink:href="#DejaVuSans-32"/>
       <use xlink:href="#DejaVuSans-30" x="63.623047"/>
       <use xlink:href="#DejaVuSans-30" x="127.246094"/>
      </g>
     </g>
    </g>
    <g id="text_4">
     <!-- Time(s) -->
     <g transform="translate(882.030625 714.7875) scale(0.4 -0.4)">
      <defs>
       <path id="TimesNewRomanPSMT-54" d="M 3703 4238 
L 3750 3244 
L 3631 3244 
Q 3597 3506 3538 3619 
Q 3441 3800 3280 3886 
Q 3119 3972 2856 3972 
L 2259 3972 
L 2259 734 
Q 2259 344 2344 247 
Q 2463 116 2709 116 
L 2856 116 
L 2856 0 
L 1059 0 
L 1059 116 
L 1209 116 
Q 1478 116 1591 278 
Q 1659 378 1659 734 
L 1659 3972 
L 1150 3972 
Q 853 3972 728 3928 
Q 566 3869 450 3700 
Q 334 3531 313 3244 
L 194 3244 
L 244 4238 
L 3703 4238 
z
" transform="scale(0.015625)"/>
       <path id="TimesNewRomanPSMT-69" d="M 928 4444 
Q 1059 4444 1151 4351 
Q 1244 4259 1244 4128 
Q 1244 3997 1151 3903 
Q 1059 3809 928 3809 
Q 797 3809 703 3903 
Q 609 3997 609 4128 
Q 609 4259 701 4351 
Q 794 4444 928 4444 
z
M 1188 2947 
L 1188 647 
Q 1188 378 1227 289 
Q 1266 200 1342 156 
Q 1419 113 1622 113 
L 1622 0 
L 231 0 
L 231 113 
Q 441 113 512 153 
Q 584 194 626 287 
Q 669 381 669 647 
L 669 1750 
Q 669 2216 641 2353 
Q 619 2453 572 2492 
Q 525 2531 444 2531 
Q 356 2531 231 2484 
L 188 2597 
L 1050 2947 
L 1188 2947 
z
" transform="scale(0.015625)"/>
       <path id="TimesNewRomanPSMT-6d" d="M 1050 2338 
Q 1363 2650 1419 2697 
Q 1559 2816 1721 2881 
Q 1884 2947 2044 2947 
Q 2313 2947 2506 2790 
Q 2700 2634 2766 2338 
Q 3088 2713 3309 2830 
Q 3531 2947 3766 2947 
Q 3994 2947 4170 2830 
Q 4347 2713 4450 2447 
Q 4519 2266 4519 1878 
L 4519 647 
Q 4519 378 4559 278 
Q 4591 209 4675 161 
Q 4759 113 4950 113 
L 4950 0 
L 3538 0 
L 3538 113 
L 3597 113 
Q 3781 113 3884 184 
Q 3956 234 3988 344 
Q 4000 397 4000 647 
L 4000 1878 
Q 4000 2228 3916 2372 
Q 3794 2572 3525 2572 
Q 3359 2572 3192 2489 
Q 3025 2406 2788 2181 
L 2781 2147 
L 2788 2013 
L 2788 647 
Q 2788 353 2820 281 
Q 2853 209 2943 161 
Q 3034 113 3253 113 
L 3253 0 
L 1806 0 
L 1806 113 
Q 2044 113 2133 169 
Q 2222 225 2256 338 
Q 2272 391 2272 647 
L 2272 1878 
Q 2272 2228 2169 2381 
Q 2031 2581 1784 2581 
Q 1616 2581 1450 2491 
Q 1191 2353 1050 2181 
L 1050 647 
Q 1050 366 1089 281 
Q 1128 197 1204 155 
Q 1281 113 1516 113 
L 1516 0 
L 100 0 
L 100 113 
Q 297 113 375 155 
Q 453 197 493 289 
Q 534 381 534 647 
L 534 1741 
Q 534 2213 506 2350 
Q 484 2453 437 2492 
Q 391 2531 309 2531 
Q 222 2531 100 2484 
L 53 2597 
L 916 2947 
L 1050 2947 
L 1050 2338 
z
" transform="scale(0.015625)"/>
       <path id="TimesNewRomanPSMT-65" d="M 681 1784 
Q 678 1147 991 784 
Q 1303 422 1725 422 
Q 2006 422 2214 576 
Q 2422 731 2563 1106 
L 2659 1044 
Q 2594 616 2278 264 
Q 1963 -88 1488 -88 
Q 972 -88 605 314 
Q 238 716 238 1394 
Q 238 2128 614 2539 
Q 991 2950 1559 2950 
Q 2041 2950 2350 2633 
Q 2659 2316 2659 1784 
L 681 1784 
z
M 681 1966 
L 2006 1966 
Q 1991 2241 1941 2353 
Q 1863 2528 1708 2628 
Q 1553 2728 1384 2728 
Q 1125 2728 920 2526 
Q 716 2325 681 1966 
z
" transform="scale(0.015625)"/>
       <path id="TimesNewRomanPSMT-28" d="M 1988 -1253 
L 1988 -1369 
Q 1516 -1131 1200 -813 
Q 750 -359 506 256 
Q 263 872 263 1534 
Q 263 2503 741 3301 
Q 1219 4100 1988 4444 
L 1988 4313 
Q 1603 4100 1356 3731 
Q 1109 3363 987 2797 
Q 866 2231 866 1616 
Q 866 947 969 400 
Q 1050 -31 1165 -292 
Q 1281 -553 1476 -793 
Q 1672 -1034 1988 -1253 
z
" transform="scale(0.015625)"/>
       <path id="TimesNewRomanPSMT-73" d="M 2050 2947 
L 2050 1972 
L 1947 1972 
Q 1828 2431 1642 2597 
Q 1456 2763 1169 2763 
Q 950 2763 815 2647 
Q 681 2531 681 2391 
Q 681 2216 781 2091 
Q 878 1963 1175 1819 
L 1631 1597 
Q 2266 1288 2266 781 
Q 2266 391 1970 151 
Q 1675 -88 1309 -88 
Q 1047 -88 709 6 
Q 606 38 541 38 
Q 469 38 428 -44 
L 325 -44 
L 325 978 
L 428 978 
Q 516 541 762 319 
Q 1009 97 1316 97 
Q 1531 97 1667 223 
Q 1803 350 1803 528 
Q 1803 744 1651 891 
Q 1500 1038 1047 1263 
Q 594 1488 453 1669 
Q 313 1847 313 2119 
Q 313 2472 555 2709 
Q 797 2947 1181 2947 
Q 1350 2947 1591 2875 
Q 1750 2828 1803 2828 
Q 1853 2828 1881 2850 
Q 1909 2872 1947 2947 
L 2050 2947 
z
" transform="scale(0.015625)"/>
       <path id="TimesNewRomanPSMT-29" d="M 144 4313 
L 144 4444 
Q 619 4209 934 3891 
Q 1381 3434 1625 2820 
Q 1869 2206 1869 1541 
Q 1869 572 1392 -226 
Q 916 -1025 144 -1369 
L 144 -1253 
Q 528 -1038 776 -670 
Q 1025 -303 1145 264 
Q 1266 831 1266 1447 
Q 1266 2113 1163 2663 
Q 1084 3094 967 3353 
Q 850 3613 656 3853 
Q 463 4094 144 4313 
z
" transform="scale(0.015625)"/>
      </defs>
      <use xlink:href="#TimesNewRomanPSMT-54"/>
      <use xlink:href="#TimesNewRomanPSMT-69" x="57.583984"/>
      <use xlink:href="#TimesNewRomanPSMT-6d" x="85.367188"/>
      <use xlink:href="#TimesNewRomanPSMT-65" x="163.150391"/>
      <use xlink:href="#TimesNewRomanPSMT-28" x="207.535156"/>
      <use xlink:href="#TimesNewRomanPSMT-73" x="240.835938"/>
      <use xlink:href="#TimesNewRomanPSMT-29" x="279.751953"/>
     </g>
    </g>
   </g>
   <g id="matplotlib.axis_2">
    <g id="ytick_1">
     <g id="line2d_7">
      <path d="M 230.4 629.329655 
L 1658.88 629.329655 
" clip-path="url(#p859034f539)" style="fill: none; stroke: #b0b0b0; stroke-width: 0.8; stroke-linecap: square"/>
     </g>
     <g id="line2d_8">
      <defs>
       <path id="m4b97475199" d="M 0 0 
L 5 0 
" style="stroke: #000000; stroke-width: 0.8"/>
      </defs>
      <g>
       <use xlink:href="#m4b97475199" x="230.4" y="629.329655" style="stroke: #000000; stroke-width: 0.8"/>
      </g>
     </g>
     <g id="text_5">
      <!-- 0 -->
      <g transform="translate(201.45 644.52653) scale(0.4 -0.4)">
       <use xlink:href="#DejaVuSans-30"/>
      </g>
     </g>
    </g>
    <g id="ytick_2">
     <g id="line2d_9">
      <path d="M 230.4 476.391724 
L 1658.88 476.391724 
" clip-path="url(#p859034f539)" style="fill: none; stroke: #b0b0b0; stroke-width: 0.8; stroke-linecap: square"/>
     </g>
     <g id="line2d_10">
      <g>
       <use xlink:href="#m4b97475199" x="230.4" y="476.391724" style="stroke: #000000; stroke-width: 0.8"/>
      </g>
     </g>
     <g id="text_6">
      <!-- 10 -->
      <g transform="translate(176 491.588599) scale(0.4 -0.4)">
       <use xlink:href="#DejaVuSans-31"/>
       <use xlink:href="#DejaVuSans-30" x="63.623047"/>
      </g>
     </g>
    </g>
    <g id="ytick_3">
     <g id="line2d_11">
      <path d="M 230.4 323.453793 
L 1658.88 323.453793 
" clip-path="url(#p859034f539)" style="fill: none; stroke: #b0b0b0; stroke-width: 0.8; stroke-linecap: square"/>
     </g>
     <g id="line2d_12">
      <g>
       <use xlink:href="#m4b97475199" x="230.4" y="323.453793" style="stroke: #000000; stroke-width: 0.8"/>
      </g>
     </g>
     <g id="text_7">
      <!-- 20 -->
      <g transform="translate(176 338.650668) scale(0.4 -0.4)">
       <use xlink:href="#DejaVuSans-32"/>
       <use xlink:href="#DejaVuSans-30" x="63.623047"/>
      </g>
     </g>
    </g>
    <g id="ytick_4">
     <g id="line2d_13">
      <path d="M 230.4 170.515862 
L 1658.88 170.515862 
" clip-path="url(#p859034f539)" style="fill: none; stroke: #b0b0b0; stroke-width: 0.8; stroke-linecap: square"/>
     </g>
     <g id="line2d_14">
      <g>
       <use xlink:href="#m4b97475199" x="230.4" y="170.515862" style="stroke: #000000; stroke-width: 0.8"/>
      </g>
     </g>
     <g id="text_8">
      <!-- 30 -->
      <g transform="translate(176 185.712737) scale(0.4 -0.4)">
       <defs>
        <path id="DejaVuSans-33" d="M 2597 2516 
Q 3050 2419 3304 2112 
Q 3559 1806 3559 1356 
Q 3559 666 3084 287 
Q 2609 -91 1734 -91 
Q 1441 -91 1130 -33 
Q 819 25 488 141 
L 488 750 
Q 750 597 1062 519 
Q 1375 441 1716 441 
Q 2309 441 2620 675 
Q 2931 909 2931 1356 
Q 2931 1769 2642 2001 
Q 2353 2234 1838 2234 
L 1294 2234 
L 1294 2753 
L 1863 2753 
Q 2328 2753 2575 2939 
Q 2822 3125 2822 3475 
Q 2822 3834 2567 4026 
Q 2313 4219 1838 4219 
Q 1578 4219 1281 4162 
Q 984 4106 628 3988 
L 628 4550 
Q 988 4650 1302 4700 
Q 1616 4750 1894 4750 
Q 2613 4750 3031 4423 
Q 3450 4097 3450 3541 
Q 3450 3153 3228 2886 
Q 3006 2619 2597 2516 
z
" transform="scale(0.015625)"/>
       </defs>
       <use xlink:href="#DejaVuSans-33"/>
       <use xlink:href="#DejaVuSans-30" x="63.623047"/>
      </g>
     </g>
    </g>
    <g id="text_9">
     <!-- Error(m) -->
     <g transform="translate(163.44375 434.66875) rotate(-90) scale(0.4 -0.4)">
      <defs>
       <path id="TimesNewRomanPSMT-45" d="M 1338 4006 
L 1338 2331 
L 2269 2331 
Q 2631 2331 2753 2441 
Q 2916 2584 2934 2947 
L 3050 2947 
L 3050 1472 
L 2934 1472 
Q 2891 1781 2847 1869 
Q 2791 1978 2662 2040 
Q 2534 2103 2269 2103 
L 1338 2103 
L 1338 706 
Q 1338 425 1363 364 
Q 1388 303 1450 267 
Q 1513 231 1688 231 
L 2406 231 
Q 2766 231 2928 281 
Q 3091 331 3241 478 
Q 3434 672 3638 1063 
L 3763 1063 
L 3397 0 
L 131 0 
L 131 116 
L 281 116 
Q 431 116 566 188 
Q 666 238 702 338 
Q 738 438 738 747 
L 738 3500 
Q 738 3903 656 3997 
Q 544 4122 281 4122 
L 131 4122 
L 131 4238 
L 3397 4238 
L 3444 3309 
L 3322 3309 
Q 3256 3644 3176 3769 
Q 3097 3894 2941 3959 
Q 2816 4006 2500 4006 
L 1338 4006 
z
" transform="scale(0.015625)"/>
       <path id="TimesNewRomanPSMT-72" d="M 1038 2947 
L 1038 2303 
Q 1397 2947 1775 2947 
Q 1947 2947 2059 2842 
Q 2172 2738 2172 2600 
Q 2172 2478 2090 2393 
Q 2009 2309 1897 2309 
Q 1788 2309 1652 2417 
Q 1516 2525 1450 2525 
Q 1394 2525 1328 2463 
Q 1188 2334 1038 2041 
L 1038 669 
Q 1038 431 1097 309 
Q 1138 225 1241 169 
Q 1344 113 1538 113 
L 1538 0 
L 72 0 
L 72 113 
Q 291 113 397 181 
Q 475 231 506 341 
Q 522 394 522 644 
L 522 1753 
Q 522 2253 501 2348 
Q 481 2444 426 2487 
Q 372 2531 291 2531 
Q 194 2531 72 2484 
L 41 2597 
L 906 2947 
L 1038 2947 
z
" transform="scale(0.015625)"/>
       <path id="TimesNewRomanPSMT-6f" d="M 1600 2947 
Q 2250 2947 2644 2453 
Q 2978 2031 2978 1484 
Q 2978 1100 2793 706 
Q 2609 313 2286 112 
Q 1963 -88 1566 -88 
Q 919 -88 538 428 
Q 216 863 216 1403 
Q 216 1797 411 2186 
Q 606 2575 925 2761 
Q 1244 2947 1600 2947 
z
M 1503 2744 
Q 1338 2744 1170 2645 
Q 1003 2547 900 2300 
Q 797 2053 797 1666 
Q 797 1041 1045 587 
Q 1294 134 1700 134 
Q 2003 134 2200 384 
Q 2397 634 2397 1244 
Q 2397 2006 2069 2444 
Q 1847 2744 1503 2744 
z
" transform="scale(0.015625)"/>
      </defs>
      <use xlink:href="#TimesNewRomanPSMT-45"/>
      <use xlink:href="#TimesNewRomanPSMT-72" x="61.083984"/>
      <use xlink:href="#TimesNewRomanPSMT-72" x="94.384766"/>
      <use xlink:href="#TimesNewRomanPSMT-6f" x="127.685547"/>
      <use xlink:href="#TimesNewRomanPSMT-72" x="177.685547"/>
      <use xlink:href="#TimesNewRomanPSMT-28" x="210.986328"/>
      <use xlink:href="#TimesNewRomanPSMT-6d" x="244.287109"/>
      <use xlink:href="#TimesNewRomanPSMT-29" x="322.070312"/>
     </g>
    </g>
   </g>
   <g id="line2d_15">
    <path d="M 295.330909 616.964415 
L 296.644288 615.114802 
L 297.300522 614.442736 
L 297.957642 614.915752 
L 298.61395 615.057857 
L 299.271087 616.044828 
L 299.928179 617.429307 
L 300.585305 618.250734 
L 301.241629 620.262504 
L 301.898747 621.640469 
L 302.555841 626.746783 
L 303.212164 625.540057 
L 303.869296 619.47986 
L 304.52639 611.498766 
L 306.497728 595.962041 
L 307.811973 591.727029 
L 309.125422 588.346157 
L 310.439623 583.720674 
L 311.096085 581.645488 
L 312.410165 578.609136 
L 313.067487 576.959106 
L 313.72362 575.785543 
L 314.380752 575.118023 
L 315.695111 573.556376 
L 317.008383 572.51645 
L 318.978951 571.306396 
L 320.292368 570.020837 
L 320.949487 569.46181 
L 321.605191 568.610024 
L 322.262146 567.956556 
L 323.574792 567.353293 
L 324.888203 566.59061 
L 325.543762 566.299093 
L 326.199276 566.164184 
L 326.854816 565.824717 
L 328.165244 564.002061 
L 329.473821 561.370277 
L 331.438014 555.287612 
L 332.747286 552.386033 
L 333.40239 551.441091 
L 334.71268 547.943674 
L 335.367271 547.067229 
L 336.678338 545.768438 
L 337.989405 544.009436 
L 339.300465 542.852136 
L 341.268689 540.147636 
L 341.924456 538.964696 
L 343.236066 537.200606 
L 344.549502 535.61394 
L 345.863747 534.300263 
L 347.180298 532.663104 
L 349.157981 530.931261 
L 350.477874 529.701428 
L 351.137236 529.272742 
L 353.775147 524.044808 
L 354.433858 523.348164 
L 355.092532 522.410868 
L 355.750447 521.744255 
L 356.408363 521.326768 
L 359.038388 518.078943 
L 359.695501 517.199941 
L 360.352613 515.719546 
L 361.009726 514.565756 
L 362.322373 513.236939 
L 364.948423 510.097641 
L 365.605536 509.533958 
L 366.261891 508.80114 
L 368.233356 507.276377 
L 368.889648 506.643507 
L 369.546824 505.853984 
L 370.860102 504.741234 
L 371.517215 504.160363 
L 372.174328 503.413757 
L 372.831441 503.027258 
L 373.488554 502.808158 
L 374.145667 502.879272 
L 374.802906 503.06527 
L 375.460019 503.099787 
L 376.117006 503.489179 
L 376.774119 502.737767 
L 377.43041 501.815678 
L 378.743878 498.84818 
L 380.057282 495.686412 
L 382.027105 493.310329 
L 383.995284 490.711914 
L 386.617544 487.33184 
L 387.928484 484.759599 
L 388.584018 483.47076 
L 390.550618 480.668993 
L 391.861684 478.431003 
L 393.828284 474.055046 
L 394.483944 472.838499 
L 395.795706 471.057694 
L 400.387598 464.113879 
L 401.043132 463.399709 
L 402.355083 461.586492 
L 403.667097 459.931672 
L 404.323136 459.200811 
L 408.260127 452.178514 
L 410.227675 448.645589 
L 411.5395 446.481599 
L 412.850567 444.155718 
L 414.817988 440.663029 
L 417.441069 436.439723 
L 418.751188 434.900612 
L 420.062255 433.777618 
L 420.717788 433.485174 
L 423.341501 431.601871 
L 423.997224 432.059695 
L 424.652568 431.442022 
L 425.308859 431.068019 
L 426.620116 429.854223 
L 427.275523 429.612126 
L 427.930235 429.818909 
L 428.585768 429.044848 
L 429.241301 428.549944 
L 429.896961 427.913942 
L 430.552368 427.900599 
L 431.207901 427.655207 
L 431.863498 427.231879 
L 432.518968 426.944583 
L 433.830856 426.883513 
L 434.486389 427.397437 
L 436.453811 429.93421 
L 437.765636 431.201614 
L 438.421169 430.834823 
L 439.076702 431.333917 
L 440.388527 431.29665 
L 441.044882 431.216977 
L 441.700415 431.585943 
L 442.355949 431.716769 
L 443.668595 431.830288 
L 444.324886 432.175646 
L 444.98042 432.142862 
L 445.636774 432.259138 
L 446.948789 431.885586 
L 447.604196 431.749479 
L 448.260487 431.456486 
L 449.572312 430.146562 
L 450.227846 429.708035 
L 450.883569 430.490399 
L 451.539734 430.527518 
L 454.163573 431.248036 
L 454.819738 431.848558 
L 455.476093 431.760749 
L 456.788739 431.995704 
L 458.102144 432.622153 
L 459.414853 433.621447 
L 471.237958 448.204211 
L 472.549972 450.049686 
L 477.141865 457.490996 
L 479.107833 461.052675 
L 483.037684 467.717671 
L 484.348435 470.119079 
L 485.004284 471.094921 
L 485.659881 471.869591 
L 486.970316 473.674407 
L 487.626481 474.381277 
L 496.808686 487.373719 
L 500.087111 492.926492 
L 500.742708 493.843989 
L 502.053711 495.873981 
L 504.020438 499.003582 
L 504.676097 500.056975 
L 505.331378 500.885896 
L 505.986975 501.913428 
L 507.298104 503.506034 
L 509.264009 506.383343 
L 511.229662 509.229942 
L 512.559936 510.988158 
L 514.507518 513.048195 
L 515.818585 514.044851 
L 516.474118 514.373196 
L 517.129525 514.868351 
L 517.785374 515.119623 
L 519.096567 516.344133 
L 521.719332 520.109795 
L 525.654997 524.683185 
L 526.307876 525.334797 
L 526.963662 525.694719 
L 527.618943 525.906223 
L 528.275487 526.564277 
L 529.596347 526.98652 
L 531.55208 526.552269 
L 532.207992 526.537329 
L 532.86321 526.275096 
L 533.518869 526.247843 
L 534.17535 525.952167 
L 535.486164 525.613082 
L 536.141635 525.814392 
L 536.797989 525.676752 
L 538.11032 523.103835 
L 539.422081 521.664405 
L 540.734033 520.932908 
L 543.357177 520.255455 
L 544.013468 520.317507 
L 544.669002 520.11244 
L 545.324535 520.062763 
L 545.980005 519.889359 
L 546.635539 519.528996 
L 547.291135 519.615797 
L 547.946669 519.09025 
L 548.602202 518.99456 
L 549.913205 518.094777 
L 550.568739 517.678601 
L 552.53774 515.106813 
L 553.194031 514.655836 
L 555.167897 511.182455 
L 561.754065 500.524841 
L 563.072082 498.165614 
L 564.388645 495.775648 
L 567.020888 490.769713 
L 570.965335 483.418957 
L 573.591259 479.377972 
L 574.904032 477.522779 
L 577.525597 473.651193 
L 580.147288 469.71101 
L 582.766578 465.518247 
L 584.73242 462.010776 
L 587.357333 457.712225 
L 589.975043 452.917034 
L 591.942844 449.569832 
L 594.565483 444.281331 
L 595.877181 441.663622 
L 596.532715 440.366295 
L 597.844666 438.331605 
L 599.155669 436.501747 
L 605.7165 425.707681 
L 607.687965 422.462711 
L 608.345773 421.714538 
L 609.66082 419.958455 
L 610.976563 418.131187 
L 612.292431 416.171422 
L 613.608173 414.777176 
L 614.9248 413.874156 
L 617.55717 412.016178 
L 618.215862 411.769467 
L 618.874555 411.999398 
L 619.53331 411.942041 
L 620.849053 411.165307 
L 621.506987 410.555538 
L 622.165048 411.310793 
L 622.822919 411.031498 
L 624.137018 409.938322 
L 624.793373 409.67482 
L 625.449665 409.933129 
L 626.761679 409.32346 
L 627.417844 409.27995 
L 628.073378 409.528843 
L 628.728911 409.473612 
L 629.384444 409.287771 
L 630.039978 409.269972 
L 630.694753 409.407075 
L 632.659773 408.995656 
L 633.314611 409.012522 
L 634.624794 409.344165 
L 635.279505 409.258374 
L 635.935039 409.422977 
L 637.245347 409.111216 
L 640.522193 408.929401 
L 641.177726 408.440536 
L 641.833259 408.171198 
L 642.488793 409.12142 
L 643.143568 409.024815 
L 643.799101 408.739984 
L 644.454634 408.715524 
L 645.10941 408.366319 
L 645.76488 408.207126 
L 646.419655 409.409595 
L 647.075188 409.42821 
L 648.385497 409.812683 
L 649.04103 410.383098 
L 650.352033 412.090346 
L 651.662342 413.873907 
L 656.252655 421.526629 
L 658.876368 426.379386 
L 660.188256 428.858887 
L 660.843726 430.221731 
L 662.156436 432.55804 
L 663.469019 435.146448 
L 668.717266 447.162823 
L 671.994933 454.937624 
L 679.20978 470.341945 
L 683.146139 477.829273 
L 683.802557 478.951646 
L 685.114319 481.580612 
L 689.709371 489.754213 
L 691.022775 491.581242 
L 694.307582 495.647882 
L 695.621808 496.834599 
L 710.71803 514.813591 
L 713.340984 517.602452 
L 716.620231 520.019931 
L 717.275764 520.518088 
L 717.932055 520.794642 
L 718.587589 521.210079 
L 719.243122 521.3431 
L 720.55501 521.365063 
L 721.211302 521.873288 
L 722.523948 521.737209 
L 725.806733 522.577116 
L 727.119821 522.799232 
L 727.776934 523.103934 
L 729.747452 522.960267 
L 731.060982 522.414674 
L 731.718032 522.328338 
L 732.375145 522.427017 
L 733.031437 522.130278 
L 733.68855 522.037547 
L 734.345663 522.224806 
L 735.002017 522.223401 
L 735.658435 522.098271 
L 736.314664 522.131734 
L 736.970955 522.290738 
L 738.282843 522.35287 
L 740.250201 522.425042 
L 740.905735 522.359974 
L 741.561331 522.509151 
L 742.217623 522.253978 
L 746.151644 522.44141 
L 748.118181 522.722058 
L 749.42849 522.965519 
L 750.084023 522.916382 
L 750.738861 522.725349 
L 751.39351 522.719428 
L 752.048222 522.987358 
L 755.322793 523.330462 
L 757.288571 523.790558 
L 758.599638 523.803742 
L 759.255171 524.319102 
L 760.566238 524.117684 
L 761.221771 524.233509 
L 764.499438 523.733699 
L 765.154971 523.260072 
L 765.810505 522.930985 
L 766.466164 522.745477 
L 767.122393 522.369854 
L 768.43485 522.002198 
L 769.091583 521.907579 
L 769.74857 522.157345 
L 770.405556 522.169213 
L 771.061911 522.337123 
L 771.719024 521.917322 
L 772.376137 522.145565 
L 773.03325 521.976085 
L 774.348234 521.991822 
L 775.006168 522.291005 
L 776.321974 522.141936 
L 777.637779 522.424525 
L 779.612277 522.305902 
L 780.271096 522.454823 
L 780.929662 522.476624 
L 781.588355 522.342328 
L 782.247048 522.564202 
L 782.90574 522.640133 
L 783.564433 522.600225 
L 786.196865 523.107314 
L 787.511849 523.703655 
L 788.169152 523.647401 
L 789.483188 524.210472 
L 790.796656 524.321066 
L 792.110186 524.586324 
L 794.079882 523.997855 
L 794.735353 524.206457 
L 796.704354 523.688011 
L 797.360645 523.890246 
L 798.017 523.837067 
L 799.329646 523.245341 
L 799.985938 523.244249 
L 800.642229 523.126067 
L 802.610535 523.192269 
L 803.266005 522.991275 
L 803.922297 522.98051 
L 805.233364 522.565453 
L 805.889718 522.553617 
L 806.54443 522.679284 
L 807.855623 522.396946 
L 808.510272 522.392755 
L 809.165805 522.513525 
L 809.820517 522.873242 
L 811.786359 522.645421 
L 813.095846 522.783313 
L 813.75138 522.688306 
L 815.717158 522.747678 
L 816.372755 522.972811 
L 818.338533 524.073668 
L 818.994067 524.988923 
L 819.648779 525.249702 
L 820.304312 525.771443 
L 820.959087 526.621023 
L 821.614621 527.866839 
L 822.269333 528.632087 
L 824.235933 531.802676 
L 824.892287 533.134675 
L 826.862046 536.295402 
L 827.519159 537.939174 
L 828.834965 540.308919 
L 834.107664 547.641419 
L 836.082984 550.767606 
L 837.399547 553.429828 
L 839.372466 557.773149 
L 841.344626 561.886749 
L 842.658031 564.749338 
L 843.971561 567.379207 
L 845.284145 569.394918 
L 845.940436 570.597928 
L 846.596791 572.120371 
L 847.909437 576.181999 
L 850.53473 583.474193 
L 851.190263 585.090863 
L 851.846555 586.28701 
L 855.128202 594.799356 
L 855.784493 596.743032 
L 857.098719 599.899755 
L 858.412187 604.864221 
L 860.382704 611.544488 
L 862.354865 618.604476 
L 865.640556 627.778787 
L 866.297542 628.727739 
L 869.583865 618.831414 
L 872.213138 610.241012 
L 873.52749 606.888828 
L 875.497882 601.56714 
L 876.811349 596.744947 
L 877.467704 595.244215 
L 878.781235 593.211906 
L 881.408802 587.544798 
L 882.065915 586.393433 
L 882.722965 585.4823 
L 885.350658 583.056407 
L 888.635465 579.60777 
L 890.605982 577.167676 
L 891.263095 576.579649 
L 893.233676 574.107539 
L 894.54708 573.388557 
L 895.203435 573.190869 
L 895.85979 573.439518 
L 896.516839 573.445445 
L 897.173131 573.643468 
L 897.829486 573.553335 
L 898.48584 573.647253 
L 899.142132 573.269984 
L 901.111891 573.533851 
L 901.769004 573.856232 
L 903.738827 574.015524 
L 904.395876 574.378867 
L 905.052231 574.471882 
L 905.709344 574.077318 
L 906.365635 573.871346 
L 907.022748 573.34823 
L 908.992508 572.334956 
L 910.96391 571.981345 
L 912.277314 572.458605 
L 914.248653 572.456672 
L 915.562057 572.574317 
L 916.875525 572.37331 
L 917.532638 572.644396 
L 918.189056 572.651728 
L 918.846043 572.949368 
L 920.160268 573.138667 
L 920.816623 572.863058 
L 921.473736 573.12835 
L 922.787141 573.929336 
L 924.101366 575.184291 
L 924.758479 575.475897 
L 925.414834 575.431643 
L 926.728302 574.781421 
L 927.385731 574.474347 
L 928.04158 573.785667 
L 929.355174 572.785326 
L 931.981098 570.702832 
L 933.952437 568.99063 
L 935.923144 567.593703 
L 937.893851 565.951167 
L 939.863294 563.561141 
L 941.178784 561.688002 
L 943.152018 557.980938 
L 945.125253 555.382148 
L 945.782997 554.702938 
L 946.440742 553.790246 
L 947.098487 553.08456 
L 953.683517 543.582981 
L 956.313232 539.642308 
L 957.62809 537.915085 
L 959.601324 535.252698 
L 961.57519 532.348602 
L 963.547161 529.919383 
L 966.826407 526.742574 
L 970.101231 522.802807 
L 971.411034 520.89137 
L 974.031272 516.597824 
L 977.307991 511.852715 
L 977.963208 510.907395 
L 978.619057 510.163861 
L 979.275538 509.231022 
L 981.242454 507.341642 
L 983.867115 505.913278 
L 985.179445 505.519777 
L 986.491144 504.05556 
L 987.146361 502.993933 
L 987.802842 502.247863 
L 988.45806 500.744585 
L 989.114541 500.367999 
L 989.77039 499.449984 
L 991.082721 498.770266 
L 991.739202 498.565841 
L 992.395683 498.127799 
L 993.708013 497.594692 
L 994.365126 497.558603 
L 996.995473 494.157524 
L 997.65385 493.655097 
L 998.312858 493.43086 
L 999.630875 493.21905 
L 1000.290516 492.837674 
L 1000.949524 492.685264 
L 1001.609164 492.936977 
L 1002.92655 492.849158 
L 1003.585558 493.179648 
L 1004.901048 493.524561 
L 1005.560056 493.731139 
L 1006.217801 493.790803 
L 1006.875546 493.719944 
L 1007.53329 494.025641 
L 1008.191667 493.807435 
L 1008.849412 493.71368 
L 1009.506525 493.410677 
L 1010.163638 493.240554 
L 1010.820751 493.455701 
L 1011.477232 493.00676 
L 1012.133713 493.01052 
L 1012.78893 492.602527 
L 1013.445411 492.435335 
L 1014.100629 493.010465 
L 1016.067545 493.972634 
L 1017.377348 494.840026 
L 1018.033197 494.903379 
L 1019.998849 495.651676 
L 1020.654698 496.866915 
L 1021.309284 497.768011 
L 1022.619719 498.301246 
L 1023.930786 498.689041 
L 1024.586003 498.879502 
L 1025.897701 498.912037 
L 1026.553551 499.06334 
L 1028.521098 498.491719 
L 1029.17758 498.317671 
L 1029.832797 498.363432 
L 1030.489278 498.171031 
L 1031.800977 498.221837 
L 1033.768524 498.15838 
L 1034.423742 498.420399 
L 1035.080223 498.225605 
L 1037.047771 498.846024 
L 1037.70362 498.926874 
L 1038.359469 499.428735 
L 1039.01595 499.66037 
L 1040.328281 499.807278 
L 1040.984762 500.224383 
L 1041.641243 500.255094 
L 1042.29646 500.627615 
L 1044.265272 500.831978 
L 1044.921753 501.08372 
L 1046.23282 501.035907 
L 1047.54515 501.218727 
L 1048.200367 501.28868 
L 1048.856848 501.082166 
L 1049.512066 500.995104 
L 1050.823133 501.14447 
L 1052.79068 501.268328 
L 1054.102379 501.532498 
L 1054.758228 501.625142 
L 1055.413446 501.16154 
L 1056.726408 500.653087 
L 1057.381625 500.611049 
L 1058.694587 500.232777 
L 1059.3517 500.302739 
L 1060.00755 500.218077 
L 1060.664031 500.407679 
L 1061.321144 500.367702 
L 1062.634106 500.603937 
L 1063.291219 500.952625 
L 1063.947068 501.152308 
L 1064.604181 501.611932 
L 1065.260662 501.725832 
L 1065.91967 501.990224 
L 1066.57552 502.061612 
L 1067.231369 502.300936 
L 1067.88785 502.399981 
L 1068.544963 502.776795 
L 1069.858557 502.76812 
L 1070.513774 503.314365 
L 1073.146649 503.931507 
L 1075.110406 503.882693 
L 1076.424 504.531607 
L 1077.080481 504.485698 
L 1077.736962 505.023876 
L 1078.394707 505.406098 
L 1079.051188 506.000524 
L 1081.677112 506.271353 
L 1082.990075 506.174185 
L 1083.646556 505.980853 
L 1084.96015 505.995538 
L 1086.929593 505.363797 
L 1087.586074 505.31273 
L 1088.242555 505.545748 
L 1088.899668 505.552591 
L 1089.556149 505.782715 
L 1090.213262 505.497358 
L 1090.869111 505.706267 
L 1092.183969 506.428655 
L 1092.84045 506.559501 
L 1093.497563 505.799071 
L 1094.154044 505.445709 
L 1095.46827 503.520076 
L 1096.125383 501.869778 
L 1096.782496 501.635732 
L 1097.439609 500.63715 
L 1098.098617 501.094001 
L 1098.754467 501.397469 
L 1099.410948 501.276535 
L 1100.068061 501.453682 
L 1100.725174 501.274275 
L 1101.382918 501.215436 
L 1102.040031 501.636761 
L 1102.697776 501.729316 
L 1103.355521 502.271802 
L 1104.670379 502.35022 
L 1105.330019 502.617994 
L 1105.985868 502.565272 
L 1107.299462 502.637901 
L 1107.958471 502.379618 
L 1108.615584 502.27177 
L 1109.272065 502.314917 
L 1109.929178 502.681357 
L 1113.876278 503.001446 
L 1114.534655 502.945542 
L 1115.186713 503.19394 
L 1115.843826 503.264434 
L 1116.500939 503.605804 
L 1118.47291 503.647596 
L 1119.130023 503.803855 
L 1120.445512 503.531222 
L 1121.101993 503.619208 
L 1122.416219 504.249418 
L 1123.073964 504.894594 
L 1124.393244 505.633733 
L 1125.051621 506.184909 
L 1125.703679 506.449904 
L 1127.017273 507.184996 
L 1128.989244 507.9914 
L 1129.646989 507.954423 
L 1130.305997 508.18116 
L 1132.277968 509.450303 
L 1132.940767 509.892213 
L 1133.589666 509.35236 
L 1134.903892 509.645397 
L 1135.561005 510.030881 
L 1136.218118 510.588197 
L 1137.532344 510.044086 
L 1138.847202 509.779722 
L 1139.504947 509.397013 
L 1140.821068 507.991818 
L 1142.136557 506.638825 
L 1142.794302 505.444245 
L 1144.111055 503.528288 
L 1146.085553 499.257945 
L 1148.717164 492.917616 
L 1150.690399 487.101125 
L 1153.32201 479.252643 
L 1155.296508 470.274199 
L 1157.928751 459.89599 
L 1159.246136 455.087479 
L 1162.538651 444.277498 
L 1164.512517 437.951465 
L 1167.140968 430.554612 
L 1169.10978 424.11755 
L 1171.733809 414.519864 
L 1173.044875 409.771784 
L 1180.252267 384.939226 
L 1184.187995 372.286807 
L 1189.441107 355.37758 
L 1194.039002 340.954813 
L 1197.323935 331.522431 
L 1199.294642 325.176492 
L 1200.608868 322.820868 
L 1204.551545 314.420239 
L 1207.179997 307.963585 
L 1208.494855 303.911106 
L 1211.123938 296.107239 
L 1214.409503 287.258019 
L 1218.350285 278.325806 
L 1220.319729 274.205989 
L 1221.633323 271.563693 
L 1222.289804 269.908363 
L 1224.916992 261.958364 
L 1226.231218 258.540092 
L 1229.518046 249.296615 
L 1232.147761 242.585642 
L 1232.805506 241.355067 
L 1233.463883 240.539822 
L 1234.121628 239.360636 
L 1234.779372 238.945352 
L 1236.095494 238.515167 
L 1236.752607 237.955296 
L 1238.066833 237.417612 
L 1238.722682 236.378711 
L 1240.035644 236.2923 
L 1240.692125 235.663362 
L 1241.347974 235.293736 
L 1242.004456 234.478142 
L 1243.972635 233.495374 
L 1245.285597 233.201321 
L 1245.941447 232.81033 
L 1247.255041 232.44222 
L 1247.911522 232.141543 
L 1248.568003 232.139349 
L 1249.223852 231.853294 
L 1249.880333 231.355173 
L 1251.847881 230.967673 
L 1255.784872 230.24271 
L 1257.754947 229.662432 
L 1259.725022 228.824837 
L 1261.695729 228.318968 
L 1265.637775 227.863674 
L 1266.952001 228.392364 
L 1267.608482 228.890825 
L 1268.921444 229.366417 
L 1269.578557 229.73562 
L 1270.235038 229.928521 
L 1272.205745 231.636205 
L 1272.862226 232.430256 
L 1274.833565 233.86482 
L 1275.490678 234.473228 
L 1276.80364 236.087616 
L 1278.116603 237.577784 
L 1278.773716 238.682242 
L 1279.430197 239.220864 
L 1280.08731 240.188912 
L 1281.400904 241.260368 
L 1282.057385 241.780894 
L 1284.685205 244.530502 
L 1285.342318 245.497501 
L 1286.656543 246.886161 
L 1287.314288 247.353299 
L 1289.284995 249.463704 
L 1289.942108 249.967453 
L 1291.913447 252.045145 
L 1294.543794 254.490095 
L 1295.859284 256.930419 
L 1297.175405 258.768994 
L 1297.83315 259.80337 
L 1298.490263 261.387446 
L 1299.805121 263.774329 
L 1301.118083 266.019108 
L 1302.428518 268.382341 
L 1307.01504 278.108014 
L 1307.671521 279.217358 
L 1308.983219 282.064497 
L 1309.639068 283.200111 
L 1310.29555 284.812122 
L 1310.950767 286.052218 
L 1312.263729 289.338275 
L 1312.919578 290.904116 
L 1313.575428 292.062266 
L 1314.231909 293.693442 
L 1314.889022 294.769078 
L 1315.544871 296.112294 
L 1318.82854 304.445063 
L 1320.141502 307.926819 
L 1321.455096 310.767478 
L 1322.769322 313.906559 
L 1327.365954 323.176508 
L 1329.993142 328.973893 
L 1330.648991 329.686391 
L 1331.962585 331.718366 
L 1332.619698 332.860388 
L 1334.590405 335.504207 
L 1335.903999 337.797906 
L 1337.218225 339.87342 
L 1339.189564 342.461798 
L 1340.502526 344.502201 
L 1341.159639 345.872215 
L 1343.129714 348.890754 
L 1345.754375 353.164268 
L 1346.410224 354.750675 
L 1347.066073 355.767422 
L 1348.377772 358.619303 
L 1349.690102 361.116496 
L 1351.656386 365.552487 
L 1352.967453 368.860695 
L 1354.27852 371.438736 
L 1356.900021 378.070456 
L 1358.211088 381.39276 
L 1361.490334 388.199522 
L 1363.461673 391.949122 
L 1364.777162 395.832927 
L 1366.093284 398.965567 
L 1369.378217 405.532457 
L 1370.03533 406.610523 
L 1370.692443 407.252497 
L 1371.349555 407.497936 
L 1372.663781 409.247005 
L 1373.321526 409.903759 
L 1373.979903 411.043391 
L 1374.638279 411.454754 
L 1375.954401 412.604628 
L 1377.270522 413.435755 
L 1377.927635 413.660416 
L 1379.901501 413.612264 
L 1381.216991 412.42751 
L 1381.874104 412.181778 
L 1382.531849 412.304943 
L 1383.188962 412.742041 
L 1383.846074 412.846041 
L 1385.1603 413.985752 
L 1385.817413 413.907884 
L 1386.474526 414.233112 
L 1388.447129 416.359231 
L 1389.104873 416.49262 
L 1390.419099 417.923621 
L 1391.732693 419.322807 
L 1392.389806 419.431318 
L 1394.35925 420.631395 
L 1395.015731 420.122347 
L 1395.672844 420.205882 
L 1396.329957 420.406764 
L 1396.98707 420.346502 
L 1397.643551 420.633814 
L 1398.300664 420.762422 
L 1398.957777 420.102271 
L 1400.272634 420.343376 
L 1400.929747 420.491592 
L 1401.587492 419.92434 
L 1402.90235 419.935496 
L 1403.560726 419.790847 
L 1404.218471 419.500482 
L 1404.875584 419.754867 
L 1405.533329 419.378989 
L 1407.504668 419.11469 
L 1408.161149 418.702405 
L 1408.81763 418.560395 
L 1409.473479 418.702862 
L 1410.12996 418.636164 
L 1411.441659 418.24094 
L 1412.097508 418.302452 
L 1412.753357 417.992436 
L 1414.720273 416.179271 
L 1415.376122 416.555064 
L 1416.687821 416.815179 
L 1417.344934 416.629628 
L 1418.000151 416.808596 
L 1418.656001 416.86389 
L 1419.312482 417.193713 
L 1419.967699 417.104061 
L 1421.279398 417.363614 
L 1421.935247 418.000579 
L 1422.591728 418.259412 
L 1423.246945 418.064568 
L 1423.903426 418.114855 
L 1424.558644 417.962308 
L 1425.215125 418.056693 
L 1425.870974 417.821424 
L 1426.526824 417.920799 
L 1427.182673 417.772693 
L 1429.807333 417.906294 
L 1430.461919 418.365949 
L 1431.1184 418.297462 
L 1431.773618 418.102869 
L 1432.429467 417.670449 
L 1433.084684 418.058409 
L 1435.052232 417.899352 
L 1436.363299 418.499168 
L 1437.019148 418.520739 
L 1437.674365 418.227606 
L 1438.9848 418.689827 
L 1439.640018 418.638044 
L 1440.951084 418.928367 
L 1441.606934 419.061195 
L 1442.918 418.39893 
L 1444.88618 417.705403 
L 1445.542661 417.673012 
L 1446.197878 417.32351 
L 1448.821275 417.154614 
L 1449.477125 417.138438 
L 1450.133606 416.943761 
L 1452.756371 416.719066 
L 1453.411588 416.47006 
L 1455.379136 416.232437 
L 1457.347316 415.363494 
L 1458.003165 415.61708 
L 1458.659014 415.633792 
L 1459.314864 415.508227 
L 1459.971345 414.760482 
L 1461.282411 414.759155 
L 1462.59411 414.548011 
L 1463.249327 414.249717 
L 1463.905808 414.503098 
L 1464.561658 414.240859 
L 1465.873356 413.966352 
L 1466.529837 413.641918 
L 1467.185055 413.751246 
L 1468.498017 414.480211 
L 1469.153234 414.479568 
L 1469.809715 415.191174 
L 1470.464933 415.46196 
L 1471.121414 415.153408 
L 1471.777895 415.506514 
L 1472.434376 415.343038 
L 1473.090225 415.454147 
L 1474.40382 414.022424 
L 1475.717414 413.288103 
L 1476.373895 413.06519 
L 1477.031008 412.63396 
L 1477.687489 412.435983 
L 1479.000451 411.721757 
L 1479.657564 411.77858 
L 1480.314677 411.495032 
L 1480.971158 411.337055 
L 1482.285384 411.238502 
L 1482.942497 411.003027 
L 1483.59961 411.630463 
L 1484.913204 411.764494 
L 1485.570317 412.153065 
L 1490.165052 411.709997 
L 1490.820902 411.235103 
L 1491.476119 411.257481 
L 1493.44114 410.631045 
L 1494.096989 410.138152 
L 1494.752206 410.006268 
L 1495.407424 409.586581 
L 1497.373708 408.985975 
L 1498.684774 408.930339 
L 1499.339992 409.18788 
L 1499.995209 409.305864 
L 1500.650427 409.830035 
L 1501.960862 411.058865 
L 1503.27256 412.169337 
L 1505.242003 415.366316 
L 1505.898484 416.154377 
L 1506.556229 417.485101 
L 1507.869823 420.786925 
L 1508.526936 421.989073 
L 1513.13115 437.899138 
L 1515.103752 446.152176 
L 1516.41861 452.262806 
L 1519.049589 466.070701 
L 1521.681832 480.295404 
L 1523.657593 487.702343 
L 1524.973715 491.919114 
L 1526.289836 496.828116 
L 1530.233146 512.879804 
L 1531.547372 518.185739 
L 1532.203853 520.731531 
L 1534.17456 529.78622 
L 1541.397115 559.802341 
L 1544.02304 569.61472 
L 1545.33537 575.356765 
L 1554.555802 617.067169 
L 1557.191836 627.753186 
L 1557.850213 628.176274 
L 1565.077823 599.357642 
L 1567.705643 589.974264 
L 1569.675718 583.614987 
L 1570.989312 579.754024 
L 1573.614605 573.242778 
L 1575.584048 568.813859 
L 1576.895746 566.165994 
L 1578.862662 562.88114 
L 1580.174993 561.070711 
L 1581.486691 559.474505 
L 1582.143172 559.274079 
L 1584.765938 557.043495 
L 1585.420523 556.151637 
L 1586.73159 554.89424 
L 1587.388071 554.970914 
L 1588.043288 554.515876 
L 1589.355619 553.077675 
L 1590.010836 552.62842 
L 1590.667317 552.819405 
L 1593.291978 551.831262 
L 1593.949091 551.967002 
L 1593.949091 551.967002 
" clip-path="url(#p859034f539)" style="fill: none; stroke: #00ff00; stroke-width: 3; stroke-linecap: square"/>
   </g>
   <g id="line2d_16">
    <path d="M 295.330909 629.270319 
L 296.644288 628.471442 
L 297.300522 628.283031 
L 298.61395 627.647074 
L 299.928179 628.726512 
L 300.585305 628.681382 
L 301.241629 629.061476 
L 301.898747 628.93915 
L 302.555841 628.93578 
L 303.869296 629.258781 
L 304.52639 629.197041 
L 305.840615 628.886945 
L 306.497728 628.451631 
L 307.811973 627.83808 
L 308.469105 627.335034 
L 309.782522 627.062733 
L 310.439623 626.581504 
L 311.096085 626.259648 
L 311.753059 626.168546 
L 313.067487 625.315072 
L 313.72362 624.123077 
L 314.380752 624.165529 
L 318.321838 616.497612 
L 318.978951 615.581073 
L 319.636057 614.020264 
L 322.262146 610.909665 
L 322.918482 608.196067 
L 324.888203 603.058695 
L 325.543762 601.857781 
L 326.199276 601.143695 
L 326.854816 600.745498 
L 327.509572 600.131456 
L 328.165244 599.939574 
L 328.819905 600.122639 
L 329.473821 599.884944 
L 330.784092 600.352671 
L 332.092777 600.306396 
L 332.747286 600.670956 
L 333.40239 600.614541 
L 335.367271 597.859173 
L 336.023771 596.518045 
L 337.334029 595.891591 
L 337.989405 595.756977 
L 339.956953 592.71323 
L 340.612713 592.273683 
L 341.268689 592.050137 
L 341.924456 591.995049 
L 342.580533 591.740819 
L 344.549502 590.481518 
L 345.206918 589.921456 
L 345.863747 589.78775 
L 346.52165 589.366637 
L 347.839035 589.056103 
L 348.497727 589.176714 
L 349.157981 589.131803 
L 349.817596 589.239995 
L 351.797483 589.20602 
L 352.456959 588.871927 
L 353.116562 588.377729 
L 354.433858 587.823994 
L 355.092532 587.665928 
L 355.750447 587.280302 
L 357.723353 586.904685 
L 359.038388 586.774497 
L 359.695501 587.102712 
L 360.352613 587.101929 
L 361.009726 587.409834 
L 362.322373 588.5712 
L 363.635777 588.981229 
L 364.292132 589.217776 
L 364.948423 589.623175 
L 365.605536 589.616133 
L 366.261891 589.865734 
L 366.91913 589.825592 
L 371.517215 590.746211 
L 372.831441 590.613557 
L 373.488554 590.603349 
L 374.145667 590.396119 
L 375.460019 589.202264 
L 376.117006 588.313433 
L 376.774119 588.84672 
L 377.43041 588.883711 
L 378.087649 589.205032 
L 379.400991 590.011331 
L 380.057282 589.591135 
L 381.369992 589.35761 
L 382.683523 589.309525 
L 383.33893 589.109377 
L 384.650818 589.343159 
L 385.306351 589.706966 
L 386.617544 590.018912 
L 387.272951 590.70551 
L 388.584018 590.979226 
L 389.239551 590.883378 
L 389.895021 590.908085 
L 391.861684 590.166835 
L 392.517218 589.963783 
L 393.828284 590.013788 
L 395.139351 589.547821 
L 397.763127 589.753667 
L 398.419356 589.216567 
L 399.075774 589.653974 
L 400.387598 589.563441 
L 401.043132 588.93539 
L 401.699423 588.648431 
L 403.011248 588.521386 
L 404.323136 587.962939 
L 404.978733 587.572731 
L 405.635277 587.466491 
L 406.291316 587.184551 
L 406.947797 586.71856 
L 407.603141 586.90501 
L 408.260127 586.460703 
L 408.915787 586.644553 
L 410.227675 586.487833 
L 410.883967 586.307394 
L 412.195097 586.216014 
L 413.507048 585.961969 
L 416.785536 585.912847 
L 417.441069 586.160986 
L 418.096476 586.713324 
L 418.751188 587.088637 
L 419.406721 587.662471 
L 420.062255 587.650891 
L 420.717788 587.826754 
L 421.37408 588.175004 
L 422.029676 588.669044 
L 423.341501 589.239406 
L 423.997224 588.959308 
L 425.308859 589.535471 
L 425.964519 589.872664 
L 427.275523 590.084013 
L 427.930235 589.650201 
L 428.585768 589.49994 
L 429.241301 589.505922 
L 429.896961 589.21763 
L 431.863498 587.760291 
L 433.830856 585.634708 
L 435.142681 582.58098 
L 435.798214 580.404154 
L 437.10947 575.135096 
L 437.765636 572.983787 
L 438.421169 571.607408 
L 439.076702 570.606327 
L 439.732994 569.872621 
L 441.044882 568.175787 
L 441.700415 567.439473 
L 443.668595 563.889945 
L 444.324886 562.414498 
L 444.98042 561.249429 
L 445.636774 560.3822 
L 446.948789 560.763125 
L 447.604196 561.750655 
L 448.260487 563.034093 
L 448.916842 564.923034 
L 449.572312 566.257369 
L 450.227846 567.016157 
L 450.883569 567.011279 
L 451.539734 566.612576 
L 452.195267 565.983805 
L 452.851622 564.913553 
L 453.507913 563.411837 
L 454.163573 562.685286 
L 455.476093 562.102682 
L 456.132448 561.753576 
L 456.788739 561.59062 
L 458.102144 562.099052 
L 458.758498 561.89056 
L 459.414853 561.95525 
L 461.384612 561.051171 
L 462.698017 560.681612 
L 463.354372 560.304915 
L 464.011485 560.222792 
L 465.324826 559.771978 
L 465.981181 559.794014 
L 467.295406 559.222518 
L 467.953214 558.682422 
L 468.610327 558.386484 
L 470.580908 558.020513 
L 471.237958 557.581362 
L 472.549972 556.983371 
L 473.86186 556.053515 
L 474.518152 555.557858 
L 476.486458 554.43081 
L 478.453058 552.537297 
L 482.383162 549.590343 
L 483.693407 549.079284 
L 485.004284 548.665702 
L 485.659881 548.355131 
L 486.316615 548.334427 
L 486.970316 547.866501 
L 487.626481 547.68922 
L 488.282014 547.729334 
L 489.593081 547.043298 
L 490.905853 546.170589 
L 491.56126 546.105533 
L 492.216794 546.167734 
L 493.52944 545.811466 
L 494.184973 545.636632 
L 496.153153 545.679405 
L 497.465104 545.579324 
L 498.120574 545.556912 
L 498.776045 545.419376 
L 499.431641 544.994652 
L 500.742708 545.056582 
L 501.398241 544.790206 
L 504.020438 544.175043 
L 504.676097 543.923905 
L 507.298104 544.242954 
L 507.953575 544.045049 
L 508.609613 544.211769 
L 511.885448 543.52587 
L 513.196704 543.47968 
L 513.851921 543.644993 
L 514.507518 543.566874 
L 515.818585 544.089746 
L 516.474118 544.535878 
L 517.785374 544.588297 
L 518.440718 544.204992 
L 519.096567 543.953096 
L 519.751595 543.900904 
L 520.407192 543.532825 
L 521.063736 542.948787 
L 521.719332 542.527257 
L 522.374866 542.343543 
L 523.030525 541.817927 
L 524.341213 540.123992 
L 525.020314 539.726458 
L 525.654997 538.90833 
L 526.963662 536.770919 
L 528.930831 533.971977 
L 530.89661 530.810808 
L 531.55208 530.052559 
L 533.518869 526.923606 
L 534.830821 524.560395 
L 536.797989 521.177616 
L 538.11032 520.606296 
L 538.766169 520.110947 
L 543.357177 514.409842 
L 547.946669 509.23003 
L 549.913205 506.347451 
L 550.568739 505.354383 
L 551.225093 504.624273 
L 553.194031 501.913114 
L 554.509079 500.721922 
L 555.167897 500.092337 
L 555.825705 499.784346 
L 558.459717 499.373307 
L 562.413452 498.933614 
L 565.705146 497.846848 
L 567.020888 497.909114 
L 567.67857 497.67653 
L 568.993427 497.615151 
L 569.650351 497.32064 
L 572.278297 497.456185 
L 573.591259 497.718328 
L 574.247803 497.758658 
L 574.904032 497.602066 
L 575.559628 497.632851 
L 576.217373 497.925005 
L 577.525597 498.077952 
L 578.180372 497.963348 
L 578.835715 497.723085 
L 581.456332 498.012514 
L 582.766578 498.345149 
L 584.07676 498.508493 
L 586.042918 498.936779 
L 586.699525 499.126334 
L 588.66404 499.295007 
L 589.975043 499.459617 
L 590.630703 499.571834 
L 591.942844 499.581604 
L 593.253658 499.967504 
L 593.910013 500.124357 
L 594.565483 499.995547 
L 595.221648 500.370576 
L 597.188248 499.435536 
L 597.844666 499.377522 
L 599.155669 498.563571 
L 600.467494 498.417602 
L 601.779382 498.029963 
L 602.434916 497.659306 
L 606.373676 496.492606 
L 608.345773 495.978779 
L 609.003012 495.964923 
L 610.976563 495.419634 
L 613.608173 495.260998 
L 614.267056 494.969301 
L 618.215862 494.041781 
L 618.874555 493.5689 
L 619.53331 493.368385 
L 620.191181 493.356817 
L 620.849053 493.480505 
L 621.506987 493.438174 
L 622.165048 492.647279 
L 624.137018 491.875736 
L 624.793373 491.229325 
L 626.761679 488.576726 
L 629.384444 483.486718 
L 630.694753 480.646575 
L 633.314611 475.607875 
L 635.279505 471.381797 
L 637.900881 466.590025 
L 639.867481 463.445881 
L 641.833259 461.536927 
L 642.488793 460.56808 
L 643.143568 460.028934 
L 645.10941 459.381284 
L 645.76488 459.470478 
L 647.075188 459.1093 
L 647.730722 459.20243 
L 649.04103 458.952543 
L 649.696627 458.921509 
L 650.352033 459.057728 
L 652.317875 458.764133 
L 652.973409 458.940725 
L 654.284475 458.83991 
L 658.22014 459.478426 
L 658.876368 459.835121 
L 659.531901 459.999935 
L 660.188256 459.823579 
L 663.469019 460.6185 
L 664.1255 460.66618 
L 664.781728 460.875927 
L 665.43802 460.842154 
L 666.093553 460.969869 
L 666.749908 460.959511 
L 667.405378 461.189894 
L 668.717266 461.344535 
L 669.372799 461.163359 
L 670.028333 461.186435 
L 670.683866 461.008201 
L 672.650466 460.959761 
L 673.305999 460.730197 
L 673.962354 460.815866 
L 674.617887 460.706708 
L 675.27361 460.830877 
L 675.929712 460.632494 
L 676.586067 460.933153 
L 677.2416 460.795164 
L 680.521605 461.188466 
L 681.177138 461.370919 
L 683.146139 461.425013 
L 683.802557 461.773575 
L 684.457964 461.670586 
L 685.114319 461.769078 
L 685.770737 461.730779 
L 686.426965 461.896183 
L 687.083383 461.74961 
L 690.36661 461.607487 
L 691.679888 461.849928 
L 694.307582 462.074352 
L 694.964695 461.914804 
L 695.621808 462.124668 
L 697.592388 462.13001 
L 700.873972 462.371997 
L 701.530264 462.38075 
L 702.186619 462.564864 
L 702.84291 462.436365 
L 703.499265 462.602576 
L 705.468266 462.180569 
L 706.780912 462.395513 
L 708.093558 462.070315 
L 708.74985 462.23753 
L 709.406205 462.163108 
L 710.062496 462.276323 
L 710.71803 462.199479 
L 711.373689 462.303251 
L 712.029854 462.223955 
L 712.685451 462.310523 
L 713.340984 462.619789 
L 715.308343 462.796182 
L 715.963876 462.778098 
L 717.932055 463.025682 
L 718.587589 462.919126 
L 719.243122 462.62759 
L 720.55501 462.391202 
L 722.523948 462.74753 
L 723.180366 462.706956 
L 723.836594 462.870122 
L 724.492949 463.264963 
L 725.149241 463.424339 
L 725.806733 463.82672 
L 727.776934 465.692017 
L 729.090339 467.545041 
L 731.060982 471.230538 
L 734.345663 479.232297 
L 735.658435 482.690978 
L 736.314664 484.261031 
L 737.626552 487.694872 
L 738.282843 489.278786 
L 738.938377 490.566226 
L 741.561331 496.533045 
L 742.217623 497.789429 
L 743.52869 499.542476 
L 744.184349 500.771277 
L 746.151644 503.233454 
L 748.118181 504.91867 
L 749.42849 505.681323 
L 750.738861 506.73861 
L 751.39351 507.16543 
L 755.322793 511.966541 
L 756.633038 513.930743 
L 757.944231 515.988574 
L 759.910705 518.9988 
L 765.154971 529.306414 
L 767.122393 535.480898 
L 769.091583 540.801597 
L 769.74857 542.450746 
L 771.061911 544.91975 
L 774.348234 550.300476 
L 775.006168 551.019188 
L 778.954343 553.875574 
L 780.271096 554.73914 
L 781.588355 556.059326 
L 783.564433 558.057627 
L 786.854736 562.158824 
L 788.169152 563.575965 
L 788.826075 564.518491 
L 789.483188 565.186365 
L 792.110186 568.864674 
L 793.423465 570.929717 
L 794.735353 573.558987 
L 796.704354 577.503153 
L 805.233364 597.746371 
L 806.54443 600.397672 
L 809.165805 604.962159 
L 810.476051 606.649458 
L 811.786359 607.967197 
L 812.441071 608.822274 
L 813.095846 610.059618 
L 813.75138 610.860574 
L 814.406092 611.951341 
L 815.061625 612.737049 
L 815.717158 613.794728 
L 816.372755 614.290927 
L 817.027467 615.711036 
L 818.338533 617.703075 
L 818.994067 618.425402 
L 819.648779 619.381021 
L 820.959087 620.701887 
L 821.614621 620.908941 
L 822.269333 621.302106 
L 822.924866 622.098103 
L 823.580462 622.605154 
L 826.204934 623.601657 
L 826.862046 623.617975 
L 827.519159 623.517655 
L 828.834965 622.607482 
L 829.493657 622.105287 
L 830.15235 621.803923 
L 830.811864 621.812378 
L 833.44815 620.736965 
L 834.107664 620.706558 
L 834.766357 620.326961 
L 835.425049 620.085187 
L 836.740855 619.248356 
L 838.714595 618.743725 
L 839.372466 618.302617 
L 842.658031 617.047597 
L 843.315144 617.286452 
L 843.971561 616.908142 
L 844.62779 617.089029 
L 845.284145 617.402073 
L 845.940436 617.510649 
L 846.596791 617.473538 
L 847.909437 617.898466 
L 849.22202 617.998152 
L 849.878375 617.859133 
L 850.53473 617.975645 
L 851.190263 618.237027 
L 852.502909 618.96154 
L 853.159264 619.194147 
L 854.471847 620.661702 
L 855.128202 621.223723 
L 855.784493 621.534814 
L 857.098719 622.779124 
L 857.755895 622.630973 
L 858.412187 622.335805 
L 859.0693 622.507999 
L 860.382704 622.660852 
L 861.040639 623.009351 
L 861.697752 622.953555 
L 862.354865 623.156224 
L 863.66909 623.887636 
L 864.983316 624.26948 
L 866.297542 625.996753 
L 867.611894 626.917284 
L 868.268881 626.715372 
L 869.583865 626.597148 
L 870.241041 625.892879 
L 870.898091 624.896981 
L 871.556152 624.148436 
L 872.870251 623.230895 
L 874.183719 621.94873 
L 874.840832 621.619286 
L 876.811349 619.967106 
L 877.467704 620.118313 
L 878.124754 620.458749 
L 878.781235 620.428657 
L 879.438221 619.757349 
L 880.094576 619.309193 
L 880.751689 618.668054 
L 882.065915 618.145908 
L 882.722965 618.088357 
L 883.380078 617.67035 
L 884.037191 616.945733 
L 885.350658 615.103976 
L 886.007771 614.000868 
L 886.664884 613.205022 
L 887.321997 612.887726 
L 887.978352 612.76951 
L 888.635465 612.491874 
L 889.291883 612.336923 
L 889.948869 611.452962 
L 891.91945 609.824964 
L 892.576563 608.940882 
L 893.233676 608.373772 
L 893.889967 608.009198 
L 894.54708 607.791478 
L 895.203435 606.990376 
L 896.516839 605.91671 
L 897.829486 604.651365 
L 899.142132 601.519424 
L 899.799245 599.853694 
L 901.111891 597.16056 
L 903.082472 592.602719 
L 905.052231 587.120007 
L 907.022748 579.642581 
L 908.992508 572.344898 
L 910.30686 568.913442 
L 911.620959 565.909873 
L 912.277314 564.901634 
L 912.934427 564.266545 
L 913.59154 563.235971 
L 914.248653 562.576784 
L 915.562057 562.168731 
L 916.218412 562.246394 
L 917.532638 562.705842 
L 918.189056 563.262245 
L 918.846043 563.285985 
L 919.503219 563.523082 
L 920.160268 563.490634 
L 920.816623 564.337414 
L 921.473736 564.508355 
L 922.130849 564.989799 
L 922.787141 565.787452 
L 924.758479 571.304382 
L 926.07201 573.027922 
L 926.728302 573.519013 
L 927.385731 573.836772 
L 928.04158 574.51802 
L 929.355174 575.173433 
L 930.011655 575.318851 
L 930.668768 575.103828 
L 931.981098 574.307422 
L 933.295324 573.32955 
L 933.952437 573.381096 
L 935.266031 574.623592 
L 936.579625 575.692531 
L 937.236738 576.422652 
L 938.550332 577.394091 
L 939.207445 577.93915 
L 939.863294 578.312467 
L 940.521671 578.492861 
L 941.178784 578.46631 
L 942.494274 577.796971 
L 943.810395 577.772624 
L 946.440742 577.231021 
L 947.756864 577.128497 
L 954.34063 575.347713 
L 955.656119 575.17399 
L 956.313232 575.247145 
L 958.286467 574.931931 
L 960.916814 574.47808 
L 961.57519 574.627303 
L 962.232303 575.101467 
L 962.890048 575.249358 
L 964.203642 575.895369 
L 965.515341 576.362126 
L 966.17119 576.791145 
L 966.826407 576.733543 
L 968.791428 577.083316 
L 969.446013 577.308523 
L 970.101231 577.303254 
L 973.376686 576.027407 
L 974.031272 576.078316 
L 974.686489 575.981807 
L 975.341707 575.737264 
L 975.997556 575.279778 
L 977.307991 574.182144 
L 980.586605 572.404157 
L 982.554785 570.98487 
L 983.867115 570.293666 
L 984.523596 569.870304 
L 985.179445 570.177436 
L 985.835295 570.293783 
L 987.146361 569.296317 
L 988.45806 567.013721 
L 989.77039 563.515698 
L 991.082721 561.475842 
L 991.739202 560.259701 
L 992.395683 559.301789 
L 994.365126 555.405049 
L 1001.609164 532.010749 
L 1003.585558 525.996776 
L 1005.560056 520.50381 
L 1010.163638 507.874005 
L 1012.133713 503.173325 
L 1013.445411 500.298821 
L 1014.756478 498.210825 
L 1015.412327 498.105479 
L 1017.377348 500.093493 
L 1018.688414 500.689814 
L 1019.998849 500.300752 
L 1020.654698 501.486747 
L 1021.309284 502.183397 
L 1021.964501 502.378823 
L 1022.619719 502.362648 
L 1023.930786 501.983112 
L 1024.586003 501.585044 
L 1025.242484 501.323222 
L 1026.553551 500.344752 
L 1027.210032 499.515211 
L 1028.521098 496.472239 
L 1029.17758 495.416758 
L 1029.832797 494.739342 
L 1031.144496 492.773822 
L 1031.800977 491.799415 
L 1035.73544 484.52163 
L 1036.39129 483.839299 
L 1038.359469 480.864939 
L 1039.01595 480.122491 
L 1040.328281 479.011002 
L 1043.609423 475.65871 
L 1045.577602 473.91568 
L 1046.23282 473.340433 
L 1047.54515 472.461724 
L 1048.856848 471.573306 
L 1050.167915 470.902719 
L 1054.758228 469.002484 
L 1058.694587 465.112575 
L 1059.3517 464.590312 
L 1060.00755 463.909606 
L 1061.321144 461.840498 
L 1062.634106 459.084603 
L 1064.604181 454.973333 
L 1067.88785 449.338418 
L 1075.110406 433.1898 
L 1075.766887 432.067446 
L 1077.736962 429.51806 
L 1079.051188 427.849005 
L 1081.021263 424.311707 
L 1082.990075 420.838857 
L 1084.303669 418.339517 
L 1086.273744 416.341578 
L 1087.586074 415.635495 
L 1088.242555 415.751004 
L 1088.899668 415.716927 
L 1092.183969 416.597525 
L 1093.497563 416.031072 
L 1094.154044 414.959629 
L 1094.811789 413.546301 
L 1097.439609 403.323412 
L 1098.098617 401.414171 
L 1098.754467 400.124986 
L 1099.410948 399.491436 
L 1100.068061 399.038977 
L 1101.382918 397.831307 
L 1102.040031 397.555514 
L 1103.355521 396.269375 
L 1105.330019 394.065426 
L 1107.958471 389.941157 
L 1109.272065 387.246239 
L 1109.929178 386.039078 
L 1110.586922 385.139193 
L 1114.534655 376.870234 
L 1115.843826 373.946096 
L 1118.47291 367.019188 
L 1121.101993 360.095133 
L 1121.759106 358.854606 
L 1122.416219 357.879243 
L 1123.073964 357.460489 
L 1124.393244 355.366597 
L 1125.051621 354.131873 
L 1127.675018 348.228974 
L 1128.332131 347.051499 
L 1128.989244 346.267618 
L 1129.646989 345.665518 
L 1130.305997 345.213975 
L 1130.972588 345.018248 
L 1132.277968 344.27139 
L 1132.940767 344.026008 
L 1133.589666 344.261398 
L 1134.903892 343.762439 
L 1135.561005 343.140038 
L 1136.218118 342.712013 
L 1136.875231 342.918367 
L 1138.189457 341.887919 
L 1138.847202 341.485923 
L 1139.504947 340.931567 
L 1140.821068 340.473767 
L 1142.136557 339.701969 
L 1143.452679 339.283674 
L 1144.111055 339.246211 
L 1144.769432 338.995795 
L 1146.085553 338.861502 
L 1146.744562 338.726633 
L 1147.402307 338.914358 
L 1148.060052 338.903706 
L 1149.374909 338.460176 
L 1150.032022 338.456226 
L 1151.348144 338.234657 
L 1152.005888 338.428869 
L 1153.979755 338.494232 
L 1154.637499 337.985732 
L 1157.271006 337.32511 
L 1157.928751 337.335667 
L 1159.246136 336.838367 
L 1159.904512 336.868668 
L 1160.562889 336.727775 
L 1161.221897 336.843538 
L 1161.880274 336.69645 
L 1163.197027 335.373878 
L 1163.855404 334.848652 
L 1165.170261 335.215484 
L 1165.827374 335.604601 
L 1166.484487 336.12964 
L 1167.140968 336.349811 
L 1168.453931 336.352614 
L 1169.10978 336.256267 
L 1170.42211 335.825116 
L 1171.07796 336.039096 
L 1172.389026 336.18321 
L 1173.044875 336.654904 
L 1173.700093 336.775975 
L 1174.35531 337.054639 
L 1176.320331 338.475757 
L 1179.59705 339.858861 
L 1180.252267 339.783683 
L 1180.908116 339.896594 
L 1181.564597 339.890129 
L 1182.219815 340.087696 
L 1183.531513 339.975808 
L 1184.187995 340.259682 
L 1186.156806 340.481112 
L 1187.4704 340.295346 
L 1188.127513 340.150758 
L 1188.783994 340.192183 
L 1189.441107 339.924803 
L 1190.754701 340.100705 
L 1191.411814 339.801932 
L 1193.382521 339.611863 
L 1194.039002 339.827401 
L 1195.353228 339.670418 
L 1196.009709 340.006743 
L 1196.666822 340.039401 
L 1197.323935 339.953454 
L 1197.980416 339.185104 
L 1199.294642 338.508393 
L 1199.951755 338.356251 
L 1205.865771 338.230774 
L 1207.179997 337.917746 
L 1207.83711 337.275214 
L 1209.809081 335.902127 
L 1212.438796 332.945683 
L 1215.066616 329.168391 
L 1215.723097 328.130411 
L 1216.379578 326.808434 
L 1218.350285 323.878849 
L 1219.006135 323.597421 
L 1219.663247 322.961561 
L 1220.319729 322.583101 
L 1220.976842 321.939047 
L 1221.633323 321.818364 
L 1222.289804 322.28885 
L 1224.261143 322.068847 
L 1224.916992 322.145281 
L 1225.574105 322.570427 
L 1226.888962 323.74839 
L 1228.20382 324.366881 
L 1229.518046 325.106526 
L 1230.175791 325.262764 
L 1232.147761 326.390162 
L 1233.463883 326.907654 
L 1234.121628 328.187716 
L 1236.095494 329.640828 
L 1236.752607 329.660766 
L 1238.066833 330.773969 
L 1238.722682 332.459606 
L 1240.692125 334.061976 
L 1241.347974 334.258376 
L 1242.660937 336.577024 
L 1243.972635 338.789699 
L 1261.038616 373.023065 
L 1262.352842 376.154359 
L 1263.009955 377.77381 
L 1264.324181 382.466026 
L 1265.637775 386.500559 
L 1266.294888 387.109844 
L 1266.952001 387.543081 
L 1268.921444 390.079364 
L 1270.892151 393.051564 
L 1272.862226 396.65658 
L 1276.147159 402.023714 
L 1276.80364 403.014624 
L 1278.773716 406.604989 
L 1280.08731 407.056038 
L 1281.400904 407.965072 
L 1282.057385 408.65148 
L 1282.714498 409.62143 
L 1284.028092 410.937786 
L 1285.342318 413.317538 
L 1288.627882 418.876571 
L 1290.599221 422.499273 
L 1293.885418 428.314502 
L 1295.859284 434.392689 
L 1296.517029 435.673396 
L 1297.175405 436.282943 
L 1297.83315 437.498087 
L 1299.148008 442.14135 
L 1300.461602 446.830762 
L 1301.7733 451.586884 
L 1302.428518 453.64516 
L 1303.083735 456.299105 
L 1304.394802 460.361056 
L 1305.705237 464.963149 
L 1307.01504 468.814996 
L 1307.671521 470.532291 
L 1308.983219 475.275916 
L 1309.639068 477.267144 
L 1310.29555 478.847007 
L 1314.231909 492.799824 
L 1314.889022 494.821832 
L 1316.201984 499.430122 
L 1318.172059 506.474381 
L 1319.484389 513.034358 
L 1320.798615 517.934277 
L 1322.112209 522.021731 
L 1324.082916 530.338407 
L 1327.365954 542.213309 
L 1329.993142 551.907444 
L 1331.306104 555.739837 
L 1332.619698 559.252601 
L 1335.903999 567.283321 
L 1337.218225 571.134457 
L 1338.532451 574.08322 
L 1339.189564 575.157339 
L 1340.502526 578.678947 
L 1342.473233 582.969592 
L 1343.129714 584.227007 
L 1343.786195 584.732825 
L 1344.442676 586.202283 
L 1345.754375 588.555604 
L 1346.410224 589.951058 
L 1349.690102 600.123558 
L 1352.967453 612.661718 
L 1356.900021 629.112587 
L 1358.211088 624.449209 
L 1360.177372 617.448602 
L 1363.461673 606.734509 
L 1364.777162 601.455582 
L 1368.063991 589.835201 
L 1370.03533 584.183341 
L 1371.349555 582.04997 
L 1372.663781 579.256083 
L 1373.979903 575.935212 
L 1378.58538 561.607151 
L 1379.901501 557.849739 
L 1380.559246 555.108225 
L 1381.874104 551.016749 
L 1386.474526 542.306658 
L 1387.132903 541.57121 
L 1387.790016 540.661325 
L 1388.447129 540.427532 
L 1389.104873 539.535551 
L 1389.761986 539.148427 
L 1390.419099 539.151906 
L 1391.07558 538.88797 
L 1391.732693 539.082644 
L 1392.389806 538.676742 
L 1393.702769 539.127947 
L 1394.35925 539.576275 
L 1395.015731 539.201915 
L 1396.329957 540.008574 
L 1396.98707 540.525769 
L 1397.643551 540.826102 
L 1398.300664 541.415525 
L 1398.957777 541.501608 
L 1399.615521 542.568469 
L 1400.272634 543.215447 
L 1401.587492 545.116338 
L 1402.90235 547.678099 
L 1406.847555 557.245632 
L 1410.12996 567.241073 
L 1411.441659 571.715439 
L 1412.753357 576.525778 
L 1414.720273 585.350601 
L 1418.000151 599.862799 
L 1421.935247 616.867317 
L 1423.903426 625.24242 
L 1424.558644 627.82067 
L 1425.215125 628.072147 
L 1429.807333 608.353696 
L 1431.1184 602.716745 
L 1433.740534 593.303295 
L 1437.019148 580.816987 
L 1443.57385 557.372456 
L 1446.197878 548.80724 
L 1449.477125 538.73603 
L 1452.756371 529.156423 
L 1456.035617 517.910151 
L 1460.626562 502.713981 
L 1467.185055 482.663121 
L 1469.809715 465.831069 
L 1471.777895 455.724315 
L 1480.314677 416.168174 
L 1481.628271 410.618628 
L 1486.882647 390.215299 
L 1488.196241 385.754327 
L 1489.508571 381.701315 
L 1491.476119 376.818282 
L 1499.995209 357.425081 
L 1500.650427 356.794119 
L 1501.306276 355.704147 
L 1502.616711 353.023948 
L 1503.27256 352.159289 
L 1504.58489 349.7699 
L 1505.242003 348.387694 
L 1505.898484 348.015303 
L 1507.869823 344.339718 
L 1508.526936 344.342374 
L 1509.184049 343.570746 
L 1509.841162 343.182368 
L 1511.814396 342.460033 
L 1512.472773 342.51597 
L 1513.13115 342.185246 
L 1513.788894 342.194233 
L 1514.446007 341.898175 
L 1515.103752 342.039496 
L 1515.760865 341.882912 
L 1516.41861 341.544318 
L 1517.075723 341.606291 
L 1517.734099 341.11456 
L 1519.707334 341.558986 
L 1521.681832 342.061647 
L 1522.34084 342.866402 
L 1522.998585 343.899469 
L 1523.657593 344.576117 
L 1524.315338 344.969942 
L 1524.973715 345.762774 
L 1525.632091 346.232966 
L 1526.289836 346.903127 
L 1527.604694 347.968746 
L 1528.262439 348.206991 
L 1529.576665 349.120714 
L 1530.233146 349.612708 
L 1530.890259 349.964547 
L 1532.203853 349.739623 
L 1532.860966 349.967838 
L 1533.518079 350.007673 
L 1534.17456 349.935199 
L 1536.801116 350.43921 
L 1538.114078 351.027142 
L 1538.771191 351.305789 
L 1539.42704 351.755533 
L 1540.740634 352.331195 
L 1541.397115 352.944328 
L 1542.710709 353.60201 
L 1543.365927 353.882181 
L 1544.678889 354.101171 
L 1545.33537 354.568975 
L 1547.306077 355.415195 
L 1547.964454 355.961874 
L 1550.599224 356.146064 
L 1551.258864 356.308567 
L 1551.917873 356.011222 
L 1552.577513 356.253252 
L 1553.237153 356.172268 
L 1554.555802 356.38848 
L 1555.215442 356.114384 
L 1557.850213 356.04833 
L 1558.507957 355.732041 
L 1559.824079 355.644932 
L 1562.451899 354.528356 
L 1563.764229 354.396754 
L 1564.421342 354.45452 
L 1565.077823 354.086686 
L 1567.705643 353.39216 
L 1569.018605 353.151875 
L 1570.332199 352.656872 
L 1571.645793 352.363274 
L 1572.302274 352.367105 
L 1572.958124 351.97861 
L 1573.614605 352.037853 
L 1574.935781 351.557493 
L 1577.551596 350.15213 
L 1581.486691 347.705995 
L 1582.79839 346.563857 
L 1583.454871 346.214982 
L 1584.110088 346.86188 
L 1584.765938 346.753041 
L 1585.420523 346.036289 
L 1586.075741 345.722876 
L 1587.388071 344.37352 
L 1588.699138 342.655576 
L 1589.355619 341.628276 
L 1590.667317 338.98022 
L 1591.979016 335.975984 
L 1593.949091 330.551028 
L 1593.949091 330.551028 
" clip-path="url(#p859034f539)" style="fill: none; stroke: #0000ff; stroke-width: 3; stroke-linecap: square"/>
   </g>
   <g id="line2d_17">
    <path d="M 295.330909 626.500447 
L 298.61395 600.25501 
L 301.898747 572.76574 
L 303.869296 538.728863 
L 304.52639 521.85516 
L 306.497728 489.101465 
L 311.753059 447.168941 
L 316.352059 412.612064 
L 319.636057 389.450175 
L 322.262146 371.514019 
L 323.574792 382.77294 
L 324.888203 391.988661 
L 326.199276 398.794904 
L 327.509572 404.138591 
L 328.819905 408.324771 
L 330.784092 413.793073 
L 334.056988 421.548527 
L 336.023771 425.087321 
L 340.612713 431.107117 
L 341.924456 432.519493 
L 342.580533 433.479166 
L 344.549502 436.963161 
L 347.839035 441.124438 
L 351.797483 445.362198 
L 353.116562 447.525829 
L 358.380554 454.548871 
L 359.038388 455.040901 
L 360.352613 456.715842 
L 361.009726 457.646333 
L 362.978727 459.106389 
L 363.635777 459.843004 
L 365.605536 461.508048 
L 367.576117 463.091124 
L 368.233356 463.576605 
L 369.546824 464.962386 
L 370.202989 465.295961 
L 372.831441 467.776512 
L 373.488554 468.13156 
L 374.145667 469.105417 
L 375.460019 470.514797 
L 376.117006 470.431395 
L 377.43041 471.23389 
L 378.743878 471.147916 
L 379.400991 470.521655 
L 380.057282 470.143991 
L 380.713637 469.157053 
L 381.369992 468.522066 
L 382.027105 468.168032 
L 382.683523 468.092774 
L 383.33893 468.138284 
L 383.995284 468.305836 
L 385.306351 468.321533 
L 385.961884 468.478754 
L 386.617544 468.764755 
L 387.928484 469.036421 
L 389.239551 469.509489 
L 390.550618 469.043289 
L 391.206277 468.999822 
L 391.861684 469.141062 
L 392.517218 468.716844 
L 393.172751 468.758378 
L 395.139351 470.580768 
L 397.107531 471.269727 
L 397.763127 471.475824 
L 398.419356 472.188033 
L 399.731244 473.97388 
L 400.387598 474.376667 
L 401.043132 474.480002 
L 402.355083 473.036933 
L 403.667097 470.90958 
L 405.635277 468.85792 
L 406.947797 468.054189 
L 407.603141 467.794069 
L 408.260127 467.405573 
L 408.915787 467.418172 
L 410.227675 466.949479 
L 410.883967 466.809418 
L 412.850567 466.07847 
L 414.162455 465.935244 
L 417.441069 465.395767 
L 418.751188 465.392686 
L 420.717788 465.301232 
L 422.68521 465.344176 
L 423.341501 465.0938 
L 424.652568 465.327681 
L 429.241301 464.97479 
L 429.896961 464.819355 
L 431.207901 464.782095 
L 432.518968 464.717443 
L 433.830856 464.805779 
L 434.486389 465.108106 
L 435.798214 466.585887 
L 437.765636 466.846384 
L 441.044882 466.091018 
L 441.700415 466.041726 
L 442.355949 466.197326 
L 443.012303 466.088707 
L 443.668595 465.747601 
L 444.98042 464.446813 
L 446.292308 462.616152 
L 448.260487 458.855284 
L 448.916842 457.972792 
L 450.227846 456.583032 
L 450.883569 455.351529 
L 451.539734 454.638115 
L 452.195267 454.280355 
L 452.851622 454.072003 
L 454.819738 454.49979 
L 455.476093 454.208912 
L 456.132448 454.233277 
L 456.788739 453.986897 
L 458.102144 454.370365 
L 459.414853 454.26814 
L 460.071271 454.458018 
L 460.728258 454.489889 
L 461.384612 454.343279 
L 462.040904 453.898477 
L 462.698017 454.054462 
L 467.295406 458.741257 
L 467.953214 459.240594 
L 471.237958 460.567867 
L 471.89387 460.911928 
L 473.206327 462.138449 
L 473.86186 462.487879 
L 474.518152 463.007852 
L 475.829977 463.172895 
L 476.486458 463.494482 
L 479.107833 466.33045 
L 480.418078 467.565113 
L 481.072727 468.529249 
L 482.383162 469.784265 
L 483.037684 470.363136 
L 485.659881 471.792844 
L 486.316615 471.833303 
L 486.970316 472.099068 
L 488.282014 472.417553 
L 488.937674 473.071815 
L 489.593081 473.563434 
L 490.249372 474.427342 
L 494.184973 478.180582 
L 495.496798 478.943261 
L 496.153153 479.205802 
L 496.808686 479.327441 
L 498.120574 480.299861 
L 498.776045 480.737102 
L 500.087111 481.813808 
L 500.742708 482.18283 
L 502.053711 482.377216 
L 502.709245 482.602349 
L 507.298104 482.3693 
L 507.953575 482.606781 
L 508.609613 482.723274 
L 509.264009 482.986682 
L 510.574065 483.032576 
L 511.885448 483.387416 
L 512.559936 483.644291 
L 513.196704 483.763295 
L 513.851921 483.747168 
L 514.507518 483.553948 
L 515.162925 483.191764 
L 516.474118 482.854913 
L 517.785374 481.865473 
L 518.440718 480.938672 
L 519.096567 480.374806 
L 519.751595 480.052036 
L 520.407192 479.985745 
L 521.063736 479.726015 
L 522.374866 479.705398 
L 523.030525 479.615346 
L 523.685932 479.899675 
L 524.341213 479.922635 
L 525.020314 479.538545 
L 525.654997 479.629681 
L 526.307876 479.468436 
L 528.930831 478.347304 
L 529.596347 477.88532 
L 530.89661 477.471194 
L 531.55208 477.260371 
L 532.86321 476.528231 
L 533.518869 476.183363 
L 535.486164 474.618453 
L 536.141635 474.464918 
L 536.797989 474.18628 
L 538.766169 480.015109 
L 540.078499 481.10304 
L 541.389756 480.989259 
L 544.669002 479.530567 
L 548.602202 477.352923 
L 549.913205 476.724805 
L 551.881385 476.077469 
L 552.53774 475.724922 
L 553.194031 475.643049 
L 553.851144 475.225287 
L 554.509079 475.185805 
L 555.825705 474.697517 
L 559.777039 474.083991 
L 560.43649 473.808289 
L 563.072082 473.349498 
L 563.729953 473.360412 
L 568.993427 472.279407 
L 569.650351 472.38683 
L 570.307969 472.13464 
L 571.62131 472.127815 
L 572.278297 472.1377 
L 573.591259 471.829148 
L 574.247803 471.76523 
L 574.904032 471.489674 
L 575.559628 471.547632 
L 576.870758 471.23171 
L 577.525597 471.385763 
L 578.835715 471.317737 
L 580.801557 470.894073 
L 581.456332 470.608633 
L 582.111108 470.622586 
L 584.07676 469.924642 
L 584.73242 469.623751 
L 585.387321 469.548997 
L 590.630703 467.687033 
L 591.942844 466.919147 
L 595.221648 465.950778 
L 595.877181 465.907772 
L 596.532715 466.203458 
L 597.188248 466.292908 
L 597.844666 466.265081 
L 598.500199 466.01831 
L 599.155669 465.512195 
L 600.467494 465.007029 
L 601.123028 465.147796 
L 601.779382 465.013713 
L 602.434916 464.624694 
L 603.091207 464.625296 
L 605.7165 463.831787 
L 606.373676 463.551114 
L 607.030726 463.425217 
L 609.003012 462.511179 
L 612.950302 461.441913 
L 614.9248 460.365522 
L 615.582671 460.084126 
L 618.874555 457.970572 
L 619.53331 457.722451 
L 620.191181 456.845212 
L 620.849053 456.680087 
L 621.506987 456.14459 
L 622.165048 455.242299 
L 622.822919 454.844984 
L 628.728911 447.830978 
L 630.694753 444.975465 
L 639.867481 433.291276 
L 643.143568 430.263295 
L 644.454634 429.219893 
L 646.419655 427.942572 
L 647.075188 427.69385 
L 649.04103 427.531005 
L 651.662342 428.215624 
L 654.284475 429.735885 
L 654.940767 430.170234 
L 656.252655 430.828592 
L 657.563722 431.780045 
L 658.876368 432.891487 
L 660.843726 434.479663 
L 662.812727 436.394942 
L 664.781728 438.007388 
L 665.43802 438.110892 
L 666.749908 438.814811 
L 667.405378 439.010842 
L 668.061733 439.090609 
L 668.717266 439.282342 
L 670.028333 439.363748 
L 671.994933 439.18428 
L 672.650466 439.403308 
L 673.305999 439.376107 
L 673.962354 439.65206 
L 674.617887 439.781137 
L 675.27361 439.752686 
L 676.586067 440.038207 
L 678.553425 440.40537 
L 679.20978 440.584379 
L 680.521605 440.732835 
L 681.177138 440.861344 
L 682.489848 441.300708 
L 683.146139 441.507367 
L 683.802557 441.487769 
L 684.457964 441.640854 
L 685.770737 441.770933 
L 686.426965 441.829 
L 690.36661 441.115241 
L 692.993419 441.365414 
L 694.307582 441.392947 
L 696.935212 441.011202 
L 698.905793 440.732709 
L 699.561326 440.74986 
L 701.530264 440.383249 
L 702.84291 440.466436 
L 704.15562 440.346412 
L 706.124557 439.844077 
L 706.780912 439.608905 
L 707.437204 439.603274 
L 708.74985 439.869157 
L 709.406205 440.251154 
L 710.71803 440.570628 
L 714.652051 441.154925 
L 715.963876 440.98042 
L 717.275764 441.183659 
L 719.243122 441.410948 
L 719.898656 441.481766 
L 721.211302 442.007713 
L 721.867593 442.436691 
L 722.523948 443.028661 
L 723.836594 443.99237 
L 724.492949 444.49489 
L 725.149241 444.818382 
L 725.806733 445.410283 
L 726.462771 445.588717 
L 727.119821 445.906084 
L 727.776934 446.41162 
L 728.434047 446.737225 
L 729.747452 447.68513 
L 731.718032 450.044633 
L 732.375145 451.233604 
L 733.031437 452.096303 
L 735.658435 456.169442 
L 740.905735 463.176106 
L 741.561331 464.357053 
L 742.217623 464.907975 
L 742.873156 466.064758 
L 745.496174 468.812883 
L 746.151644 469.043318 
L 747.462648 470.228315 
L 748.118181 470.616021 
L 750.084023 472.137822 
L 750.738861 472.58137 
L 751.39351 473.173803 
L 752.702997 473.877912 
L 753.357772 474.619219 
L 754.667259 475.430531 
L 755.977505 476.544075 
L 756.633038 476.970851 
L 757.288571 477.742685 
L 757.944231 478.083984 
L 759.255171 479.398743 
L 759.910705 479.973948 
L 761.221771 481.383847 
L 763.188371 483.373254 
L 765.154971 485.762714 
L 766.466164 487.739151 
L 769.091583 490.929444 
L 769.74857 491.534449 
L 774.348234 493.910276 
L 776.321974 494.644595 
L 776.979845 495.033763 
L 778.295651 495.366083 
L 778.954343 495.769826 
L 780.271096 495.842729 
L 780.929662 496.39103 
L 781.588355 496.405731 
L 782.90574 496.898493 
L 783.564433 496.866552 
L 784.222304 497.03598 
L 784.880996 497.076827 
L 785.538931 497.001163 
L 788.169152 497.475352 
L 788.826075 497.843167 
L 790.140364 498.272189 
L 791.453832 498.427176 
L 792.110186 499.089946 
L 792.767173 499.141271 
L 793.423465 499.611149 
L 794.079882 499.800221 
L 794.735353 500.135383 
L 796.704354 500.756998 
L 797.360645 501.102494 
L 798.673291 502.045225 
L 799.985938 502.703143 
L 801.298647 503.166317 
L 801.954117 503.103447 
L 802.610535 503.390661 
L 803.266005 503.840347 
L 803.922297 503.843901 
L 805.233364 504.290305 
L 806.54443 504.500377 
L 807.200027 504.290339 
L 807.855623 504.393005 
L 808.510272 504.727063 
L 809.820517 504.701153 
L 811.130826 503.965353 
L 813.095846 502.393333 
L 813.75138 502.154322 
L 814.406092 502.072466 
L 815.061625 501.244998 
L 815.717158 500.810992 
L 816.372755 501.244551 
L 818.338533 501.503531 
L 818.994067 501.986316 
L 819.648779 501.879466 
L 820.304312 501.584336 
L 820.959087 501.635532 
L 822.269333 500.766439 
L 823.580462 500.164246 
L 824.235933 500.001554 
L 824.892287 499.090952 
L 825.548579 498.429228 
L 826.204934 498.099543 
L 826.862046 497.991394 
L 827.519159 498.333853 
L 828.834965 498.347971 
L 829.493657 498.539707 
L 830.15235 498.285983 
L 830.811864 498.363718 
L 831.471315 498.26486 
L 832.789584 497.866942 
L 835.425049 497.278255 
L 836.082984 496.636382 
L 836.740855 496.738457 
L 837.399547 496.058536 
L 839.372466 495.486301 
L 840.029579 494.914633 
L 840.687513 494.656722 
L 842.001739 493.845337 
L 843.971561 492.653955 
L 844.62779 492.496993 
L 845.284145 492.075543 
L 845.940436 491.96157 
L 846.596791 491.471047 
L 847.253082 491.154052 
L 847.909437 490.634253 
L 852.502909 487.928957 
L 853.815556 487.253928 
L 854.471847 486.501671 
L 855.784493 485.67132 
L 856.441606 484.997249 
L 857.098719 484.607058 
L 857.755895 484.512027 
L 859.726539 483.173316 
L 860.382704 482.627696 
L 861.040639 482.254092 
L 861.697752 481.60323 
L 862.354865 481.170789 
L 863.011977 480.95724 
L 863.66909 480.289719 
L 864.983316 479.524082 
L 866.297542 478.536291 
L 866.954655 477.719011 
L 867.611894 477.407974 
L 868.926247 475.610544 
L 869.583865 475.172485 
L 872.870251 471.862353 
L 873.52749 470.830123 
L 874.183719 470.220372 
L 874.840832 469.415923 
L 875.497882 468.844611 
L 876.154363 467.802953 
L 876.811349 467.124938 
L 877.467704 467.040892 
L 878.124754 466.042955 
L 878.781235 466.274099 
L 880.094576 465.031472 
L 881.408802 465.10007 
L 882.065915 464.640181 
L 882.722965 464.670662 
L 883.380078 464.265865 
L 884.037191 464.269313 
L 884.693545 464.035247 
L 886.664884 463.961438 
L 887.321997 463.703393 
L 887.978352 463.275641 
L 889.291883 461.650767 
L 891.263095 459.880782 
L 891.91945 459.563026 
L 893.233676 458.509475 
L 893.889967 458.392651 
L 895.203435 458.599751 
L 895.85979 458.462722 
L 896.516839 458.77517 
L 897.173131 458.547541 
L 897.829486 458.891087 
L 899.142132 459.190123 
L 901.111891 458.693591 
L 903.082472 457.233215 
L 904.395876 456.704473 
L 905.709344 456.670354 
L 906.365635 457.110759 
L 907.679103 457.196325 
L 908.336469 457.369262 
L 908.992508 457.277751 
L 912.277314 456.128757 
L 913.59154 456.025619 
L 914.248653 455.771408 
L 914.904944 455.250671 
L 916.218412 454.463653 
L 918.846043 452.530121 
L 919.503219 452.104052 
L 920.160268 451.817732 
L 920.816623 451.313859 
L 921.473736 451.148216 
L 922.130849 451.180605 
L 922.787141 451.49144 
L 923.444317 451.367919 
L 924.758479 450.037078 
L 925.414834 449.027369 
L 926.07201 447.624136 
L 926.728302 447.627753 
L 927.385731 447.934658 
L 928.04158 447.635995 
L 929.355174 447.635995 
L 930.011655 447.893068 
L 930.668768 448.45928 
L 931.324617 448.523826 
L 931.981098 448.413808 
L 932.638211 448.675286 
L 933.295324 448.720097 
L 933.952437 447.641238 
L 935.266031 443.936411 
L 935.923144 442.492112 
L 936.579625 441.462352 
L 937.236738 441.592335 
L 937.893851 441.91651 
L 939.207445 441.913553 
L 940.521671 441.501181 
L 941.178784 441.819442 
L 941.836529 442.605061 
L 942.494274 443.092339 
L 943.152018 443.316908 
L 944.46814 442.039759 
L 945.125253 441.891752 
L 945.782997 441.612064 
L 947.098487 441.382658 
L 949.731993 437.768691 
L 951.049379 435.451724 
L 951.708387 434.375041 
L 952.366764 433.68417 
L 953.024508 432.702643 
L 956.313232 429.622625 
L 956.970345 429.326041 
L 957.62809 428.737898 
L 958.286467 428.69285 
L 958.94358 428.062475 
L 960.259069 427.615881 
L 960.916814 427.589682 
L 961.57519 427.306745 
L 962.232303 426.736512 
L 962.890048 425.847407 
L 963.547161 425.272496 
L 964.859491 424.493241 
L 965.515341 424.522965 
L 966.17119 424.250422 
L 966.826407 423.716532 
L 969.446013 422.113406 
L 970.101231 421.464875 
L 971.411034 420.583217 
L 972.066251 419.726904 
L 972.721469 419.34343 
L 974.686489 417.563595 
L 975.341707 417.240945 
L 975.997556 416.727049 
L 976.652141 416.373247 
L 977.307991 416.213907 
L 978.619057 415.402445 
L 979.275538 415.219339 
L 979.930756 414.769071 
L 980.586605 414.597532 
L 982.554785 413.245778 
L 987.146361 411.594856 
L 987.802842 411.314855 
L 988.45806 411.171834 
L 990.42624 410.243193 
L 991.082721 410.197054 
L 991.739202 409.933349 
L 993.051532 409.677003 
L 994.365126 409.446382 
L 995.022239 409.394312 
L 996.337097 409.504425 
L 998.971235 409.417954 
L 1000.290516 409.259619 
L 1000.949524 409.293876 
L 1001.609164 409.10731 
L 1002.268173 409.207479 
L 1002.92655 409.084699 
L 1004.243303 409.272013 
L 1005.560056 409.309679 
L 1006.217801 409.256644 
L 1006.875546 408.979367 
L 1007.53329 408.96144 
L 1008.191667 408.639517 
L 1009.506525 408.179368 
L 1012.133713 406.914591 
L 1012.78893 406.512433 
L 1013.445411 406.414066 
L 1015.412327 406.685299 
L 1018.033197 406.411285 
L 1018.688414 406.009432 
L 1019.998849 405.69639 
L 1020.654698 406.934574 
L 1021.309284 410.357698 
L 1021.964501 411.516355 
L 1022.619719 412.368173 
L 1024.586003 413.904884 
L 1027.210032 414.692735 
L 1029.17758 413.309532 
L 1029.832797 413.353762 
L 1031.144496 413.696841 
L 1033.112675 413.74783 
L 1035.080223 413.388736 
L 1035.73544 413.106049 
L 1037.70362 411.490421 
L 1038.359469 411.149745 
L 1040.328281 411.137136 
L 1040.984762 411.362143 
L 1043.609423 411.265479 
L 1044.921753 411.105658 
L 1045.577602 410.961253 
L 1046.888669 411.121483 
L 1048.856848 411.460923 
L 1052.79068 411.590098 
L 1054.758228 411.507558 
L 1055.413446 411.297576 
L 1056.069927 411.584762 
L 1057.381625 411.42105 
L 1058.038106 411.636362 
L 1060.664031 410.973717 
L 1061.977625 410.32359 
L 1062.634106 410.049993 
L 1063.291219 409.985989 
L 1063.947068 410.080497 
L 1065.91967 409.976462 
L 1067.88785 409.427467 
L 1069.200812 409.308746 
L 1069.858557 409.179878 
L 1071.170887 408.575285 
L 1072.490168 408.27458 
L 1073.797444 407.548524 
L 1074.453293 407.408072 
L 1075.110406 407.095592 
L 1076.424 406.815664 
L 1077.736962 406.476543 
L 1079.051188 406.502161 
L 1080.363518 406.49749 
L 1081.021263 406.481406 
L 1082.990075 406.017959 
L 1084.303669 405.999012 
L 1084.96015 405.707035 
L 1086.273744 405.590284 
L 1087.586074 405.453139 
L 1090.869111 403.697875 
L 1091.527488 403.596732 
L 1092.84045 403.055004 
L 1093.497563 403.308154 
L 1094.154044 403.163031 
L 1094.811789 403.26064 
L 1096.125383 404.054357 
L 1097.439609 405.072618 
L 1098.098617 404.967681 
L 1098.754467 405.079923 
L 1099.410948 404.990935 
L 1100.068061 405.099348 
L 1100.725174 404.932275 
L 1101.382918 404.378441 
L 1102.040031 404.13138 
L 1102.697776 404.158167 
L 1103.355521 404.364671 
L 1104.012002 404.283102 
L 1106.642981 403.384804 
L 1107.958471 403.507451 
L 1109.929178 401.947148 
L 1110.586922 401.538582 
L 1111.244035 400.787447 
L 1111.901148 400.243699 
L 1113.214742 398.750671 
L 1113.876278 398.053943 
L 1115.843826 395.493493 
L 1116.500939 394.738942 
L 1117.158684 393.8074 
L 1118.47291 392.332081 
L 1119.789663 390.758954 
L 1120.445512 390.216936 
L 1121.101993 389.490032 
L 1122.416219 388.363746 
L 1123.073964 388.113111 
L 1123.731077 388.008151 
L 1125.051621 387.17719 
L 1126.360792 386.097275 
L 1129.646989 383.779951 
L 1130.305997 383.426943 
L 1131.617696 382.138469 
L 1133.589666 380.907054 
L 1134.247411 380.68469 
L 1134.903892 380.669329 
L 1135.561005 380.185418 
L 1136.218118 379.129635 
L 1136.875231 378.472937 
L 1138.189457 378.520354 
L 1138.847202 378.024607 
L 1139.504947 377.785843 
L 1140.162691 377.257272 
L 1141.478181 376.440852 
L 1144.769432 373.886606 
L 1148.060052 370.735362 
L 1150.690399 367.522204 
L 1153.32201 363.781659 
L 1155.296508 358.950401 
L 1157.928751 353.882476 
L 1160.562889 349.091309 
L 1162.538651 344.865362 
L 1164.512517 342.27393 
L 1165.827374 339.760783 
L 1167.140968 336.87355 
L 1167.79745 335.728838 
L 1169.10978 333.93796 
L 1169.765629 332.736848 
L 1170.42211 331.774412 
L 1171.07796 330.080309 
L 1171.733809 328.771055 
L 1172.389026 326.932039 
L 1174.35531 322.50043 
L 1175.664481 318.927555 
L 1177.630134 312.713816 
L 1178.941832 308.303119 
L 1179.59705 306.537397 
L 1182.875664 299.038321 
L 1184.187995 294.87754 
L 1185.500957 290.730622 
L 1190.09822 279.271243 
L 1194.696115 269.316064 
L 1196.666822 264.828352 
L 1197.323935 262.889351 
L 1198.637529 258.359656 
L 1199.294642 256.316087 
L 1205.865771 241.478432 
L 1207.179997 238.398551 
L 1207.83711 236.685266 
L 1209.809081 228.976827 
L 1211.781051 221.571953 
L 1216.379578 206.352989 
L 1217.693172 202.590837 
L 1221.633323 192.906681 
L 1229.518046 174.781347 
L 1231.490649 169.976379 
L 1233.463883 166.305013 
L 1234.121628 164.948353 
L 1236.095494 162.5565 
L 1236.752607 162.239625 
L 1237.40972 162.225221 
L 1238.722682 161.939788 
L 1239.379163 161.84618 
L 1240.035644 162.133885 
L 1241.347974 162.041609 
L 1242.004456 162.27127 
L 1242.660937 162.301731 
L 1243.317418 162.703619 
L 1244.629116 163.040649 
L 1245.941447 163.820735 
L 1246.59856 164.040784 
L 1247.911522 164.975651 
L 1248.568003 165.103073 
L 1251.192032 166.362667 
L 1251.847881 166.558943 
L 1253.15958 167.219613 
L 1253.816061 167.469894 
L 1255.128391 168.345636 
L 1257.098466 169.479745 
L 1257.754947 169.651625 
L 1259.069173 170.358685 
L 1259.725022 170.695901 
L 1263.009955 172.935687 
L 1264.324181 173.652003 
L 1265.637775 174.57265 
L 1266.294888 174.940295 
L 1267.608482 176.596677 
L 1269.578557 179.062601 
L 1270.235038 180.152041 
L 1270.892151 180.878015 
L 1271.548632 182.070851 
L 1275.490678 187.745476 
L 1277.460121 190.934677 
L 1278.773716 193.028697 
L 1279.430197 193.551749 
L 1280.08731 193.89946 
L 1281.400904 195.092784 
L 1282.057385 195.727958 
L 1282.714498 196.570381 
L 1283.371611 197.15098 
L 1284.685205 198.8899 
L 1286.000062 200.662633 
L 1289.284995 204.156957 
L 1290.599221 205.564424 
L 1291.256334 206.331546 
L 1291.913447 206.912528 
L 1293.885418 209.220305 
L 1294.543794 209.706852 
L 1295.859284 209.967602 
L 1297.175405 211.387726 
L 1299.148008 213.486401 
L 1299.805121 214.017931 
L 1300.461602 214.877577 
L 1305.049387 222.506115 
L 1305.705237 224.069968 
L 1307.671521 227.731571 
L 1308.32737 229.481138 
L 1308.983219 230.844634 
L 1310.29555 234.314073 
L 1310.950767 235.362876 
L 1311.607248 236.969842 
L 1312.263729 238.121339 
L 1313.575428 241.157973 
L 1318.172059 250.086696 
L 1318.82854 251.074022 
L 1322.112209 258.580965 
L 1324.082916 262.651265 
L 1326.052991 265.92634 
L 1328.022435 269.057429 
L 1329.336029 271.112665 
L 1329.993142 272.096708 
L 1331.306104 274.507632 
L 1332.619698 276.761221 
L 1333.933292 279.436325 
L 1335.247518 281.632348 
L 1336.561112 283.757735 
L 1337.218225 284.714504 
L 1339.846677 289.633766 
L 1342.473233 294.895587 
L 1343.129714 296.150693 
L 1345.098525 300.74196 
L 1345.754375 301.942074 
L 1348.377772 308.527192 
L 1349.690102 310.643698 
L 1350.34532 311.627258 
L 1351.000537 313.107739 
L 1351.656386 315.033053 
L 1352.967453 317.468723 
L 1356.900021 323.565965 
L 1358.211088 325.873447 
L 1361.490334 332.740034 
L 1362.803296 335.59338 
L 1363.461673 336.998962 
L 1364.777162 340.265319 
L 1368.063991 347.359279 
L 1370.03533 351.060201 
L 1370.692443 351.901724 
L 1373.321526 356.630829 
L 1374.638279 358.729711 
L 1376.612777 361.734218 
L 1377.270522 362.486864 
L 1377.927635 363.491811 
L 1379.901501 365.747095 
L 1381.216991 369.098065 
L 1381.874104 370.074117 
L 1382.531849 369.998018 
L 1383.188962 370.15489 
L 1384.503187 371.138378 
L 1389.104873 375.14415 
L 1390.419099 376.112174 
L 1394.35925 378.606227 
L 1396.329957 380.125896 
L 1398.300664 381.310775 
L 1398.957777 381.414975 
L 1399.615521 381.913039 
L 1400.272634 382.150079 
L 1400.929747 382.141963 
L 1401.587492 382.871606 
L 1402.90235 382.756913 
L 1403.560726 383.111976 
L 1404.218471 383.051941 
L 1404.875584 383.507201 
L 1408.161149 383.729851 
L 1408.81763 383.686221 
L 1409.473479 383.925013 
L 1410.12996 383.594167 
L 1410.785809 383.595891 
L 1411.441659 383.45829 
L 1412.097508 383.062696 
L 1414.720273 385.037643 
L 1415.376122 384.692186 
L 1416.031972 384.138015 
L 1416.687821 383.83481 
L 1417.344934 384.100246 
L 1418.000151 383.996135 
L 1418.656001 384.048296 
L 1419.312482 383.719321 
L 1420.62418 383.550997 
L 1421.935247 382.122601 
L 1422.591728 381.301582 
L 1423.903426 380.181409 
L 1425.870974 378.398095 
L 1430.461919 375.901836 
L 1431.1184 375.371633 
L 1432.429467 373.446262 
L 1433.084684 372.755812 
L 1433.740534 371.854718 
L 1435.052232 370.81485 
L 1436.363299 370.039224 
L 1437.019148 369.434064 
L 1437.674365 369.079625 
L 1438.9848 368.021971 
L 1439.640018 367.328333 
L 1440.295867 367.316101 
L 1442.918 364.562515 
L 1443.57385 363.711092 
L 1444.229699 363.40749 
L 1444.88618 362.735714 
L 1445.542661 362.467835 
L 1446.197878 361.903273 
L 1446.85436 361.788094 
L 1447.509577 361.50469 
L 1448.165426 360.882751 
L 1448.821275 360.730363 
L 1449.477125 360.157153 
L 1450.133606 359.786236 
L 1450.788823 359.264535 
L 1451.444673 359.006019 
L 1457.347316 355.104624 
L 1458.003165 354.834565 
L 1459.314864 353.728199 
L 1461.937629 351.750366 
L 1463.905808 350.24832 
L 1464.561658 349.442007 
L 1465.873356 348.460751 
L 1466.529837 347.602911 
L 1467.185055 347.083133 
L 1467.841536 347.39854 
L 1468.498017 347.473988 
L 1469.153234 347.318489 
L 1469.809715 348.189884 
L 1470.464933 348.221849 
L 1471.121414 348.391413 
L 1471.777895 348.086103 
L 1472.434376 348.070044 
L 1473.090225 347.701976 
L 1473.746707 347.069096 
L 1474.40382 346.155377 
L 1475.717414 345.102941 
L 1476.373895 344.160093 
L 1477.031008 343.683387 
L 1479.000451 340.186926 
L 1480.971158 337.91916 
L 1481.628271 337.600781 
L 1482.285384 337.407255 
L 1482.942497 336.881225 
L 1483.59961 336.840385 
L 1484.913204 335.962351 
L 1485.570317 335.819358 
L 1486.882647 334.306185 
L 1487.53976 334.022119 
L 1488.196241 332.938791 
L 1489.508571 331.192253 
L 1490.820902 330.201845 
L 1491.476119 329.260387 
L 1492.131968 328.812284 
L 1492.786554 328.164772 
L 1493.44114 328.171978 
L 1494.096989 328.472463 
L 1494.752206 328.074308 
L 1495.407424 328.117343 
L 1496.717858 327.626725 
L 1497.373708 327.418285 
L 1498.028925 327.377691 
L 1500.650427 327.860971 
L 1501.960862 327.871327 
L 1503.27256 328.074291 
L 1504.58489 327.761447 
L 1505.242003 327.763526 
L 1505.898484 327.403309 
L 1507.21271 327.356582 
L 1509.184049 327.973907 
L 1511.814396 329.767917 
L 1514.446007 331.935332 
L 1518.391844 336.110404 
L 1521.681832 339.878613 
L 1522.998585 340.302124 
L 1523.657593 340.663442 
L 1524.315338 340.771236 
L 1526.947581 342.562164 
L 1527.604694 343.264948 
L 1528.262439 343.621298 
L 1528.919552 344.203503 
L 1530.233146 345.05561 
L 1530.890259 345.512884 
L 1532.203853 345.666613 
L 1532.860966 345.930779 
L 1533.518079 346.387439 
L 1534.17456 347.023957 
L 1534.831673 347.477261 
L 1535.487522 347.692032 
L 1536.144003 347.778063 
L 1536.801116 348.003818 
L 1538.114078 348.928936 
L 1538.771191 349.159029 
L 1539.42704 349.512821 
L 1540.740634 349.909883 
L 1541.397115 350.733837 
L 1542.053597 350.834677 
L 1542.710709 351.281265 
L 1544.02304 351.718781 
L 1544.678889 352.107928 
L 1545.992483 352.225929 
L 1546.648332 352.346158 
L 1549.280575 353.433682 
L 1549.939584 353.510213 
L 1550.599224 353.459187 
L 1551.258864 353.662787 
L 1551.917873 353.676454 
L 1554.555802 354.45433 
L 1555.215442 354.798414 
L 1558.507957 355.736152 
L 1559.165702 356.083315 
L 1560.481192 356.20893 
L 1561.138305 356.161131 
L 1562.451899 356.289845 
L 1563.107748 356.257894 
L 1563.764229 356.473309 
L 1565.734304 356.518464 
L 1567.047898 356.552185 
L 1568.361492 356.551271 
L 1570.332199 356.212569 
L 1572.302274 355.611836 
L 1572.958124 355.427398 
L 1575.584048 353.953038 
L 1577.551596 353.110475 
L 1578.207445 352.974046 
L 1578.862662 352.693535 
L 1579.519144 352.223763 
L 1582.143172 350.979524 
L 1582.79839 350.436174 
L 1583.454871 350.06774 
L 1584.110088 349.24267 
L 1585.420523 348.377323 
L 1586.73159 347.458798 
L 1588.043288 346.462161 
L 1589.355619 344.923288 
L 1590.010836 344.268044 
L 1591.979016 341.543007 
L 1592.635497 340.292663 
L 1593.291978 339.457447 
L 1593.949091 338.12027 
L 1593.949091 338.12027 
" clip-path="url(#p859034f539)" style="fill: none; stroke: #9933fa; stroke-width: 3; stroke-linecap: square"/>
   </g>
   <g id="patch_3">
    <path d="M 230.4 640.8 
L 230.4 86.4 
" style="fill: none; stroke: #000000; stroke-width: 3; stroke-linejoin: miter; stroke-linecap: square"/>
   </g>
   <g id="patch_4">
    <path d="M 1658.88 640.8 
L 1658.88 86.4 
" style="fill: none; stroke: #000000; stroke-width: 3; stroke-linejoin: miter; stroke-linecap: square"/>
   </g>
   <g id="patch_5">
    <path d="M 230.4 640.8 
L 1658.88 640.8 
" style="fill: none; stroke: #000000; stroke-width: 3; stroke-linejoin: miter; stroke-linecap: square"/>
   </g>
   <g id="patch_6">
    <path d="M 230.4 86.4 
L 1658.88 86.4 
" style="fill: none; stroke: #000000; stroke-width: 3; stroke-linejoin: miter; stroke-linecap: square"/>
   </g>
   <g id="text_10">
    <!-- kitti08 -->
    <g transform="translate(872.836875 77.041406) scale(0.45 -0.45)">
     <defs>
      <path id="DejaVuSans-6b" d="M 581 4863 
L 1159 4863 
L 1159 1991 
L 2875 3500 
L 3609 3500 
L 1753 1863 
L 3688 0 
L 2938 0 
L 1159 1709 
L 1159 0 
L 581 0 
L 581 4863 
z
" transform="scale(0.015625)"/>
      <path id="DejaVuSans-69" d="M 603 3500 
L 1178 3500 
L 1178 0 
L 603 0 
L 603 3500 
z
M 603 4863 
L 1178 4863 
L 1178 4134 
L 603 4134 
L 603 4863 
z
" transform="scale(0.015625)"/>
      <path id="DejaVuSans-74" d="M 1172 4494 
L 1172 3500 
L 2356 3500 
L 2356 3053 
L 1172 3053 
L 1172 1153 
Q 1172 725 1289 603 
Q 1406 481 1766 481 
L 2356 481 
L 2356 0 
L 1766 0 
Q 1100 0 847 248 
Q 594 497 594 1153 
L 594 3053 
L 172 3053 
L 172 3500 
L 594 3500 
L 594 4494 
L 1172 4494 
z
" transform="scale(0.015625)"/>
      <path id="DejaVuSans-38" d="M 2034 2216 
Q 1584 2216 1326 1975 
Q 1069 1734 1069 1313 
Q 1069 891 1326 650 
Q 1584 409 2034 409 
Q 2484 409 2743 651 
Q 3003 894 3003 1313 
Q 3003 1734 2745 1975 
Q 2488 2216 2034 2216 
z
M 1403 2484 
Q 997 2584 770 2862 
Q 544 3141 544 3541 
Q 544 4100 942 4425 
Q 1341 4750 2034 4750 
Q 2731 4750 3128 4425 
Q 3525 4100 3525 3541 
Q 3525 3141 3298 2862 
Q 3072 2584 2669 2484 
Q 3125 2378 3379 2068 
Q 3634 1759 3634 1313 
Q 3634 634 3220 271 
Q 2806 -91 2034 -91 
Q 1263 -91 848 271 
Q 434 634 434 1313 
Q 434 1759 690 2068 
Q 947 2378 1403 2484 
z
M 1172 3481 
Q 1172 3119 1398 2916 
Q 1625 2713 2034 2713 
Q 2441 2713 2670 2916 
Q 2900 3119 2900 3481 
Q 2900 3844 2670 4047 
Q 2441 4250 2034 4250 
Q 1625 4250 1398 4047 
Q 1172 3844 1172 3481 
z
" transform="scale(0.015625)"/>
     </defs>
     <use xlink:href="#DejaVuSans-6b"/>
     <use xlink:href="#DejaVuSans-69" x="57.910156"/>
     <use xlink:href="#DejaVuSans-74" x="85.693359"/>
     <use xlink:href="#DejaVuSans-74" x="124.902344"/>
     <use xlink:href="#DejaVuSans-69" x="164.111328"/>
     <use xlink:href="#DejaVuSans-30" x="191.894531"/>
     <use xlink:href="#DejaVuSans-38" x="255.517578"/>
    </g>
   </g>
   <g id="legend_1">
    <g id="patch_7">
     <path d="M 258.4 294.5375 
L 410.075 294.5375 
Q 418.075 294.5375 418.075 286.5375 
L 418.075 114.4 
Q 418.075 106.4 410.075 106.4 
L 258.4 106.4 
Q 250.4 106.4 250.4 114.4 
L 250.4 286.5375 
Q 250.4 294.5375 258.4 294.5375 
z
" style="fill: #ffffff; opacity: 0.8; stroke: #cccccc; stroke-linejoin: miter"/>
    </g>
    <g id="line2d_18">
     <path d="M 266.4 138.79375 
L 306.4 138.79375 
L 346.4 138.79375 
" style="fill: none; stroke: #00ff00; stroke-width: 3; stroke-linecap: square"/>
    </g>
    <g id="text_11">
     <!-- x -->
     <g transform="translate(378.4 152.79375) scale(0.4 -0.4)">
      <defs>
       <path id="DejaVuSans-78" d="M 3513 3500 
L 2247 1797 
L 3578 0 
L 2900 0 
L 1881 1375 
L 863 0 
L 184 0 
L 1544 1831 
L 300 3500 
L 978 3500 
L 1906 2253 
L 2834 3500 
L 3513 3500 
z
" transform="scale(0.015625)"/>
      </defs>
      <use xlink:href="#DejaVuSans-78"/>
     </g>
    </g>
    <g id="line2d_19">
     <path d="M 266.4 197.50625 
L 306.4 197.50625 
L 346.4 197.50625 
" style="fill: none; stroke: #0000ff; stroke-width: 3; stroke-linecap: square"/>
    </g>
    <g id="text_12">
     <!-- y -->
     <g transform="translate(378.4 211.50625) scale(0.4 -0.4)">
      <defs>
       <path id="DejaVuSans-79" d="M 2059 -325 
Q 1816 -950 1584 -1140 
Q 1353 -1331 966 -1331 
L 506 -1331 
L 506 -850 
L 844 -850 
Q 1081 -850 1212 -737 
Q 1344 -625 1503 -206 
L 1606 56 
L 191 3500 
L 800 3500 
L 1894 763 
L 2988 3500 
L 3597 3500 
L 2059 -325 
z
" transform="scale(0.015625)"/>
      </defs>
      <use xlink:href="#DejaVuSans-79"/>
     </g>
    </g>
    <g id="line2d_20">
     <path d="M 266.4 256.21875 
L 306.4 256.21875 
L 346.4 256.21875 
" style="fill: none; stroke: #9933fa; stroke-width: 3; stroke-linecap: square"/>
    </g>
    <g id="text_13">
     <!-- z -->
     <g transform="translate(378.4 270.21875) scale(0.4 -0.4)">
      <defs>
       <path id="DejaVuSans-7a" d="M 353 3500 
L 3084 3500 
L 3084 2975 
L 922 459 
L 3084 459 
L 3084 0 
L 275 0 
L 275 525 
L 2438 3041 
L 353 3041 
L 353 3500 
z
" transform="scale(0.015625)"/>
      </defs>
      <use xlink:href="#DejaVuSans-7a"/>
     </g>
    </g>
   </g>
  </g>
 </g>
 <defs>
  <clipPath id="p859034f539">
   <rect x="230.4" y="86.4" width="1428.48" height="554.4"/>
  </clipPath>
 </defs>
</svg>
