<?xml version="1.0" encoding="utf-8" standalone="no"?>
<!DOCTYPE svg PUBLIC "-//W3C//DTD SVG 1.1//EN"
  "http://www.w3.org/Graphics/SVG/1.1/DTD/svg11.dtd">
<svg xmlns:xlink="http://www.w3.org/1999/xlink" width="1843.2pt" height="720pt" viewBox="0 0 1843.2 720" xmlns="http://www.w3.org/2000/svg" version="1.1">
 <metadata>
  <rdf:RDF xmlns:dc="http://purl.org/dc/elements/1.1/" xmlns:cc="http://creativecommons.org/ns#" xmlns:rdf="http://www.w3.org/1999/02/22-rdf-syntax-ns#">
   <cc:Work>
    <dc:type rdf:resource="http://purl.org/dc/dcmitype/StillImage"/>
    <dc:date>2024-03-12T16:11:47.495488</dc:date>
    <dc:format>image/svg+xml</dc:format>
    <dc:creator>
     <cc:Agent>
      <dc:title>Matplotlib v3.7.0, https://matplotlib.org/</dc:title>
     </cc:Agent>
    </dc:creator>
   </cc:Work>
  </rdf:RDF>
 </metadata>
 <defs>
  <style type="text/css">*{stroke-linejoin: round; stroke-linecap: butt}</style>
 </defs>
 <g id="figure_1">
  <g id="patch_1">
   <path d="M 0 720 
L 1843.2 720 
L 1843.2 0 
L 0 0 
z
" style="fill: #ffffff"/>
  </g>
  <g id="axes_1">
   <g id="patch_2">
    <path d="M 230.4 640.8 
L 1658.88 640.8 
L 1658.88 86.4 
L 230.4 86.4 
z
" style="fill: #ffffff"/>
   </g>
   <g id="matplotlib.axis_1">
    <g id="xtick_1">
     <g id="line2d_1">
      <path d="M 295.330909 640.8 
L 295.330909 86.4 
" clip-path="url(#pdff1c23749)" style="fill: none; stroke: #b0b0b0; stroke-width: 0.8; stroke-linecap: square"/>
     </g>
     <g id="line2d_2">
      <defs>
       <path id="m13c08f5c72" d="M 0 0 
L 0 -5 
" style="stroke: #000000; stroke-width: 0.8"/>
      </defs>
      <g>
       <use xlink:href="#m13c08f5c72" x="295.330909" y="640.8" style="stroke: #000000; stroke-width: 0.8"/>
      </g>
     </g>
     <g id="text_1">
      <!-- 0 -->
      <g transform="translate(282.605909 674.69375) scale(0.4 -0.4)">
       <defs>
        <path id="DejaVuSans-30" d="M 2034 4250 
Q 1547 4250 1301 3770 
Q 1056 3291 1056 2328 
Q 1056 1369 1301 889 
Q 1547 409 2034 409 
Q 2525 409 2770 889 
Q 3016 1369 3016 2328 
Q 3016 3291 2770 3770 
Q 2525 4250 2034 4250 
z
M 2034 4750 
Q 2819 4750 3233 4129 
Q 3647 3509 3647 2328 
Q 3647 1150 3233 529 
Q 2819 -91 2034 -91 
Q 1250 -91 836 529 
Q 422 1150 422 2328 
Q 422 3509 836 4129 
Q 1250 4750 2034 4750 
z
" transform="scale(0.015625)"/>
       </defs>
       <use xlink:href="#DejaVuSans-30"/>
      </g>
     </g>
    </g>
    <g id="xtick_2">
     <g id="line2d_3">
      <path d="M 997.843579 640.8 
L 997.843579 86.4 
" clip-path="url(#pdff1c23749)" style="fill: none; stroke: #b0b0b0; stroke-width: 0.8; stroke-linecap: square"/>
     </g>
     <g id="line2d_4">
      <g>
       <use xlink:href="#m13c08f5c72" x="997.843579" y="640.8" style="stroke: #000000; stroke-width: 0.8"/>
      </g>
     </g>
     <g id="text_2">
      <!-- 100 -->
      <g transform="translate(959.668579 674.69375) scale(0.4 -0.4)">
       <defs>
        <path id="DejaVuSans-31" d="M 794 531 
L 1825 531 
L 1825 4091 
L 703 3866 
L 703 4441 
L 1819 4666 
L 2450 4666 
L 2450 531 
L 3481 531 
L 3481 0 
L 794 0 
L 794 531 
z
" transform="scale(0.015625)"/>
       </defs>
       <use xlink:href="#DejaVuSans-31"/>
       <use xlink:href="#DejaVuSans-30" x="63.623047"/>
       <use xlink:href="#DejaVuSans-30" x="127.246094"/>
      </g>
     </g>
    </g>
    <g id="text_3">
     <!-- Time(s) -->
     <g transform="translate(882.030625 714.7875) scale(0.4 -0.4)">
      <defs>
       <path id="TimesNewRomanPSMT-54" d="M 3703 4238 
L 3750 3244 
L 3631 3244 
Q 3597 3506 3538 3619 
Q 3441 3800 3280 3886 
Q 3119 3972 2856 3972 
L 2259 3972 
L 2259 734 
Q 2259 344 2344 247 
Q 2463 116 2709 116 
L 2856 116 
L 2856 0 
L 1059 0 
L 1059 116 
L 1209 116 
Q 1478 116 1591 278 
Q 1659 378 1659 734 
L 1659 3972 
L 1150 3972 
Q 853 3972 728 3928 
Q 566 3869 450 3700 
Q 334 3531 313 3244 
L 194 3244 
L 244 4238 
L 3703 4238 
z
" transform="scale(0.015625)"/>
       <path id="TimesNewRomanPSMT-69" d="M 928 4444 
Q 1059 4444 1151 4351 
Q 1244 4259 1244 4128 
Q 1244 3997 1151 3903 
Q 1059 3809 928 3809 
Q 797 3809 703 3903 
Q 609 3997 609 4128 
Q 609 4259 701 4351 
Q 794 4444 928 4444 
z
M 1188 2947 
L 1188 647 
Q 1188 378 1227 289 
Q 1266 200 1342 156 
Q 1419 113 1622 113 
L 1622 0 
L 231 0 
L 231 113 
Q 441 113 512 153 
Q 584 194 626 287 
Q 669 381 669 647 
L 669 1750 
Q 669 2216 641 2353 
Q 619 2453 572 2492 
Q 525 2531 444 2531 
Q 356 2531 231 2484 
L 188 2597 
L 1050 2947 
L 1188 2947 
z
" transform="scale(0.015625)"/>
       <path id="TimesNewRomanPSMT-6d" d="M 1050 2338 
Q 1363 2650 1419 2697 
Q 1559 2816 1721 2881 
Q 1884 2947 2044 2947 
Q 2313 2947 2506 2790 
Q 2700 2634 2766 2338 
Q 3088 2713 3309 2830 
Q 3531 2947 3766 2947 
Q 3994 2947 4170 2830 
Q 4347 2713 4450 2447 
Q 4519 2266 4519 1878 
L 4519 647 
Q 4519 378 4559 278 
Q 4591 209 4675 161 
Q 4759 113 4950 113 
L 4950 0 
L 3538 0 
L 3538 113 
L 3597 113 
Q 3781 113 3884 184 
Q 3956 234 3988 344 
Q 4000 397 4000 647 
L 4000 1878 
Q 4000 2228 3916 2372 
Q 3794 2572 3525 2572 
Q 3359 2572 3192 2489 
Q 3025 2406 2788 2181 
L 2781 2147 
L 2788 2013 
L 2788 647 
Q 2788 353 2820 281 
Q 2853 209 2943 161 
Q 3034 113 3253 113 
L 3253 0 
L 1806 0 
L 1806 113 
Q 2044 113 2133 169 
Q 2222 225 2256 338 
Q 2272 391 2272 647 
L 2272 1878 
Q 2272 2228 2169 2381 
Q 2031 2581 1784 2581 
Q 1616 2581 1450 2491 
Q 1191 2353 1050 2181 
L 1050 647 
Q 1050 366 1089 281 
Q 1128 197 1204 155 
Q 1281 113 1516 113 
L 1516 0 
L 100 0 
L 100 113 
Q 297 113 375 155 
Q 453 197 493 289 
Q 534 381 534 647 
L 534 1741 
Q 534 2213 506 2350 
Q 484 2453 437 2492 
Q 391 2531 309 2531 
Q 222 2531 100 2484 
L 53 2597 
L 916 2947 
L 1050 2947 
L 1050 2338 
z
" transform="scale(0.015625)"/>
       <path id="TimesNewRomanPSMT-65" d="M 681 1784 
Q 678 1147 991 784 
Q 1303 422 1725 422 
Q 2006 422 2214 576 
Q 2422 731 2563 1106 
L 2659 1044 
Q 2594 616 2278 264 
Q 1963 -88 1488 -88 
Q 972 -88 605 314 
Q 238 716 238 1394 
Q 238 2128 614 2539 
Q 991 2950 1559 2950 
Q 2041 2950 2350 2633 
Q 2659 2316 2659 1784 
L 681 1784 
z
M 681 1966 
L 2006 1966 
Q 1991 2241 1941 2353 
Q 1863 2528 1708 2628 
Q 1553 2728 1384 2728 
Q 1125 2728 920 2526 
Q 716 2325 681 1966 
z
" transform="scale(0.015625)"/>
       <path id="TimesNewRomanPSMT-28" d="M 1988 -1253 
L 1988 -1369 
Q 1516 -1131 1200 -813 
Q 750 -359 506 256 
Q 263 872 263 1534 
Q 263 2503 741 3301 
Q 1219 4100 1988 4444 
L 1988 4313 
Q 1603 4100 1356 3731 
Q 1109 3363 987 2797 
Q 866 2231 866 1616 
Q 866 947 969 400 
Q 1050 -31 1165 -292 
Q 1281 -553 1476 -793 
Q 1672 -1034 1988 -1253 
z
" transform="scale(0.015625)"/>
       <path id="TimesNewRomanPSMT-73" d="M 2050 2947 
L 2050 1972 
L 1947 1972 
Q 1828 2431 1642 2597 
Q 1456 2763 1169 2763 
Q 950 2763 815 2647 
Q 681 2531 681 2391 
Q 681 2216 781 2091 
Q 878 1963 1175 1819 
L 1631 1597 
Q 2266 1288 2266 781 
Q 2266 391 1970 151 
Q 1675 -88 1309 -88 
Q 1047 -88 709 6 
Q 606 38 541 38 
Q 469 38 428 -44 
L 325 -44 
L 325 978 
L 428 978 
Q 516 541 762 319 
Q 1009 97 1316 97 
Q 1531 97 1667 223 
Q 1803 350 1803 528 
Q 1803 744 1651 891 
Q 1500 1038 1047 1263 
Q 594 1488 453 1669 
Q 313 1847 313 2119 
Q 313 2472 555 2709 
Q 797 2947 1181 2947 
Q 1350 2947 1591 2875 
Q 1750 2828 1803 2828 
Q 1853 2828 1881 2850 
Q 1909 2872 1947 2947 
L 2050 2947 
z
" transform="scale(0.015625)"/>
       <path id="TimesNewRomanPSMT-29" d="M 144 4313 
L 144 4444 
Q 619 4209 934 3891 
Q 1381 3434 1625 2820 
Q 1869 2206 1869 1541 
Q 1869 572 1392 -226 
Q 916 -1025 144 -1369 
L 144 -1253 
Q 528 -1038 776 -670 
Q 1025 -303 1145 264 
Q 1266 831 1266 1447 
Q 1266 2113 1163 2663 
Q 1084 3094 967 3353 
Q 850 3613 656 3853 
Q 463 4094 144 4313 
z
" transform="scale(0.015625)"/>
      </defs>
      <use xlink:href="#TimesNewRomanPSMT-54"/>
      <use xlink:href="#TimesNewRomanPSMT-69" x="57.583984"/>
      <use xlink:href="#TimesNewRomanPSMT-6d" x="85.367188"/>
      <use xlink:href="#TimesNewRomanPSMT-65" x="163.150391"/>
      <use xlink:href="#TimesNewRomanPSMT-28" x="207.535156"/>
      <use xlink:href="#TimesNewRomanPSMT-73" x="240.835938"/>
      <use xlink:href="#TimesNewRomanPSMT-29" x="279.751953"/>
     </g>
    </g>
   </g>
   <g id="matplotlib.axis_2">
    <g id="ytick_1">
     <g id="line2d_5">
      <path d="M 230.4 629.329655 
L 1658.88 629.329655 
" clip-path="url(#pdff1c23749)" style="fill: none; stroke: #b0b0b0; stroke-width: 0.8; stroke-linecap: square"/>
     </g>
     <g id="line2d_6">
      <defs>
       <path id="m716f037b61" d="M 0 0 
L 5 0 
" style="stroke: #000000; stroke-width: 0.8"/>
      </defs>
      <g>
       <use xlink:href="#m716f037b61" x="230.4" y="629.329655" style="stroke: #000000; stroke-width: 0.8"/>
      </g>
     </g>
     <g id="text_4">
      <!-- 0 -->
      <g transform="translate(201.45 644.52653) scale(0.4 -0.4)">
       <use xlink:href="#DejaVuSans-30"/>
      </g>
     </g>
    </g>
    <g id="ytick_2">
     <g id="line2d_7">
      <path d="M 230.4 476.391724 
L 1658.88 476.391724 
" clip-path="url(#pdff1c23749)" style="fill: none; stroke: #b0b0b0; stroke-width: 0.8; stroke-linecap: square"/>
     </g>
     <g id="line2d_8">
      <g>
       <use xlink:href="#m716f037b61" x="230.4" y="476.391724" style="stroke: #000000; stroke-width: 0.8"/>
      </g>
     </g>
     <g id="text_5">
      <!-- 10 -->
      <g transform="translate(176 491.588599) scale(0.4 -0.4)">
       <use xlink:href="#DejaVuSans-31"/>
       <use xlink:href="#DejaVuSans-30" x="63.623047"/>
      </g>
     </g>
    </g>
    <g id="ytick_3">
     <g id="line2d_9">
      <path d="M 230.4 323.453793 
L 1658.88 323.453793 
" clip-path="url(#pdff1c23749)" style="fill: none; stroke: #b0b0b0; stroke-width: 0.8; stroke-linecap: square"/>
     </g>
     <g id="line2d_10">
      <g>
       <use xlink:href="#m716f037b61" x="230.4" y="323.453793" style="stroke: #000000; stroke-width: 0.8"/>
      </g>
     </g>
     <g id="text_6">
      <!-- 20 -->
      <g transform="translate(176 338.650668) scale(0.4 -0.4)">
       <defs>
        <path id="DejaVuSans-32" d="M 1228 531 
L 3431 531 
L 3431 0 
L 469 0 
L 469 531 
Q 828 903 1448 1529 
Q 2069 2156 2228 2338 
Q 2531 2678 2651 2914 
Q 2772 3150 2772 3378 
Q 2772 3750 2511 3984 
Q 2250 4219 1831 4219 
Q 1534 4219 1204 4116 
Q 875 4013 500 3803 
L 500 4441 
Q 881 4594 1212 4672 
Q 1544 4750 1819 4750 
Q 2544 4750 2975 4387 
Q 3406 4025 3406 3419 
Q 3406 3131 3298 2873 
Q 3191 2616 2906 2266 
Q 2828 2175 2409 1742 
Q 1991 1309 1228 531 
z
" transform="scale(0.015625)"/>
       </defs>
       <use xlink:href="#DejaVuSans-32"/>
       <use xlink:href="#DejaVuSans-30" x="63.623047"/>
      </g>
     </g>
    </g>
    <g id="ytick_4">
     <g id="line2d_11">
      <path d="M 230.4 170.515862 
L 1658.88 170.515862 
" clip-path="url(#pdff1c23749)" style="fill: none; stroke: #b0b0b0; stroke-width: 0.8; stroke-linecap: square"/>
     </g>
     <g id="line2d_12">
      <g>
       <use xlink:href="#m716f037b61" x="230.4" y="170.515862" style="stroke: #000000; stroke-width: 0.8"/>
      </g>
     </g>
     <g id="text_7">
      <!-- 30 -->
      <g transform="translate(176 185.712737) scale(0.4 -0.4)">
       <defs>
        <path id="DejaVuSans-33" d="M 2597 2516 
Q 3050 2419 3304 2112 
Q 3559 1806 3559 1356 
Q 3559 666 3084 287 
Q 2609 -91 1734 -91 
Q 1441 -91 1130 -33 
Q 819 25 488 141 
L 488 750 
Q 750 597 1062 519 
Q 1375 441 1716 441 
Q 2309 441 2620 675 
Q 2931 909 2931 1356 
Q 2931 1769 2642 2001 
Q 2353 2234 1838 2234 
L 1294 2234 
L 1294 2753 
L 1863 2753 
Q 2328 2753 2575 2939 
Q 2822 3125 2822 3475 
Q 2822 3834 2567 4026 
Q 2313 4219 1838 4219 
Q 1578 4219 1281 4162 
Q 984 4106 628 3988 
L 628 4550 
Q 988 4650 1302 4700 
Q 1616 4750 1894 4750 
Q 2613 4750 3031 4423 
Q 3450 4097 3450 3541 
Q 3450 3153 3228 2886 
Q 3006 2619 2597 2516 
z
" transform="scale(0.015625)"/>
       </defs>
       <use xlink:href="#DejaVuSans-33"/>
       <use xlink:href="#DejaVuSans-30" x="63.623047"/>
      </g>
     </g>
    </g>
    <g id="text_8">
     <!-- Error(m) -->
     <g transform="translate(163.44375 434.66875) rotate(-90) scale(0.4 -0.4)">
      <defs>
       <path id="TimesNewRomanPSMT-45" d="M 1338 4006 
L 1338 2331 
L 2269 2331 
Q 2631 2331 2753 2441 
Q 2916 2584 2934 2947 
L 3050 2947 
L 3050 1472 
L 2934 1472 
Q 2891 1781 2847 1869 
Q 2791 1978 2662 2040 
Q 2534 2103 2269 2103 
L 1338 2103 
L 1338 706 
Q 1338 425 1363 364 
Q 1388 303 1450 267 
Q 1513 231 1688 231 
L 2406 231 
Q 2766 231 2928 281 
Q 3091 331 3241 478 
Q 3434 672 3638 1063 
L 3763 1063 
L 3397 0 
L 131 0 
L 131 116 
L 281 116 
Q 431 116 566 188 
Q 666 238 702 338 
Q 738 438 738 747 
L 738 3500 
Q 738 3903 656 3997 
Q 544 4122 281 4122 
L 131 4122 
L 131 4238 
L 3397 4238 
L 3444 3309 
L 3322 3309 
Q 3256 3644 3176 3769 
Q 3097 3894 2941 3959 
Q 2816 4006 2500 4006 
L 1338 4006 
z
" transform="scale(0.015625)"/>
       <path id="TimesNewRomanPSMT-72" d="M 1038 2947 
L 1038 2303 
Q 1397 2947 1775 2947 
Q 1947 2947 2059 2842 
Q 2172 2738 2172 2600 
Q 2172 2478 2090 2393 
Q 2009 2309 1897 2309 
Q 1788 2309 1652 2417 
Q 1516 2525 1450 2525 
Q 1394 2525 1328 2463 
Q 1188 2334 1038 2041 
L 1038 669 
Q 1038 431 1097 309 
Q 1138 225 1241 169 
Q 1344 113 1538 113 
L 1538 0 
L 72 0 
L 72 113 
Q 291 113 397 181 
Q 475 231 506 341 
Q 522 394 522 644 
L 522 1753 
Q 522 2253 501 2348 
Q 481 2444 426 2487 
Q 372 2531 291 2531 
Q 194 2531 72 2484 
L 41 2597 
L 906 2947 
L 1038 2947 
z
" transform="scale(0.015625)"/>
       <path id="TimesNewRomanPSMT-6f" d="M 1600 2947 
Q 2250 2947 2644 2453 
Q 2978 2031 2978 1484 
Q 2978 1100 2793 706 
Q 2609 313 2286 112 
Q 1963 -88 1566 -88 
Q 919 -88 538 428 
Q 216 863 216 1403 
Q 216 1797 411 2186 
Q 606 2575 925 2761 
Q 1244 2947 1600 2947 
z
M 1503 2744 
Q 1338 2744 1170 2645 
Q 1003 2547 900 2300 
Q 797 2053 797 1666 
Q 797 1041 1045 587 
Q 1294 134 1700 134 
Q 2003 134 2200 384 
Q 2397 634 2397 1244 
Q 2397 2006 2069 2444 
Q 1847 2744 1503 2744 
z
" transform="scale(0.015625)"/>
      </defs>
      <use xlink:href="#TimesNewRomanPSMT-45"/>
      <use xlink:href="#TimesNewRomanPSMT-72" x="61.083984"/>
      <use xlink:href="#TimesNewRomanPSMT-72" x="94.384766"/>
      <use xlink:href="#TimesNewRomanPSMT-6f" x="127.685547"/>
      <use xlink:href="#TimesNewRomanPSMT-72" x="177.685547"/>
      <use xlink:href="#TimesNewRomanPSMT-28" x="210.986328"/>
      <use xlink:href="#TimesNewRomanPSMT-6d" x="244.287109"/>
      <use xlink:href="#TimesNewRomanPSMT-29" x="322.070312"/>
     </g>
    </g>
   </g>
   <g id="line2d_13">
    <path d="M 295.330909 629.292844 
L 329.134519 629.090584 
L 336.176794 629.205848 
L 341.810782 628.876906 
L 347.445557 628.758794 
L 353.078586 628.826842 
L 358.712979 628.669393 
L 364.347128 629.043929 
L 369.979505 628.839779 
L 375.614249 629.241589 
L 392.516029 629.055904 
L 413.643241 629.182519 
L 416.459704 629.081997 
L 419.277151 629.214052 
L 422.09474 628.853153 
L 433.361898 628.775239 
L 436.178865 628.481433 
L 438.995718 628.454479 
L 447.446668 628.021704 
L 450.263729 628.043174 
L 453.080604 627.82807 
L 455.897627 627.915581 
L 469.982129 627.72854 
L 472.798687 627.868733 
L 475.616331 627.590446 
L 478.433147 627.751643 
L 481.250578 627.717805 
L 484.067941 627.516236 
L 486.884134 627.719438 
L 489.70184 627.737699 
L 492.517981 627.387652 
L 495.334705 627.451652 
L 498.151982 627.280713 
L 503.786596 627.218638 
L 506.602302 627.014677 
L 515.053614 627.073368 
L 517.870646 626.924598 
L 531.95543 626.950851 
L 534.772429 626.822384 
L 537.589404 626.911996 
L 540.405707 626.86229 
L 543.223262 626.701151 
L 546.040321 626.767077 
L 548.857179 626.721221 
L 551.674057 626.838486 
L 554.491093 627.102422 
L 557.308084 627.176165 
L 560.125553 626.977338 
L 562.942025 627.051548 
L 565.758953 626.821567 
L 568.575897 627.106739 
L 571.392899 626.659729 
L 574.21092 626.828218 
L 579.844423 626.891227 
L 595.33701 627.106039 
L 599.562486 626.889827 
L 610.830314 626.91748 
L 617.872671 626.477588 
L 620.690107 626.571984 
L 626.323524 625.702817 
L 629.140499 625.836535 
L 631.957503 625.711451 
L 634.774407 625.368522 
L 637.591411 625.401893 
L 640.408386 624.872505 
L 646.042297 624.172061 
L 648.859168 624.635523 
L 651.67543 624.711133 
L 657.310038 625.177396 
L 660.126987 624.938197 
L 665.761045 625.08615 
L 668.577931 624.909026 
L 674.211789 624.931429 
L 677.028742 624.576248 
L 679.84686 624.964801 
L 688.296673 624.906693 
L 691.113596 625.000972 
L 693.930597 625.288711 
L 696.748128 625.267008 
L 699.564467 625.025475 
L 705.198472 625.271209 
L 708.01526 625.049512 
L 710.832408 625.15756 
L 713.649304 624.712767 
L 716.465988 624.875422 
L 719.283976 625.151492 
L 722.100045 624.520474 
L 724.917087 624.647658 
L 727.734217 624.226435 
L 733.368324 623.907425 
L 736.186018 624.099017 
L 739.002879 624.031342 
L 744.636502 623.590049 
L 747.453688 623.789809 
L 750.270372 623.515605 
L 753.086728 623.495536 
L 755.903637 624.04581 
L 758.720682 623.469633 
L 761.537564 623.681294 
L 767.171296 623.594716 
L 772.805401 623.479201 
L 778.43937 623.930995 
L 781.256282 623.611518 
L 784.073244 623.860519 
L 789.707743 623.850484 
L 792.524107 623.854451 
L 803.791937 623.465665 
L 812.242764 623.541509 
L 815.059818 623.383054 
L 817.876769 623.560178 
L 823.510713 623.380954 
L 826.327598 623.287375 
L 843.230074 623.688529 
L 846.046299 623.439062 
L 851.680273 623.677094 
L 857.314144 623.791909 
L 860.13117 623.689929 
L 868.583004 624.288043 
L 871.398954 624.062146 
L 877.032853 624.612653 
L 879.849981 624.383489 
L 882.66686 624.633656 
L 885.48344 624.449998 
L 891.117582 624.4633 
L 893.934592 624.631556 
L 896.751625 624.409626 
L 899.569665 624.552678 
L 910.836353 624.647425 
L 913.654504 624.465633 
L 916.470257 624.745904 
L 924.921143 624.58885 
L 927.738204 624.543811 
L 930.555091 624.643457 
L 933.372033 624.348484 
L 936.18901 624.64019 
L 939.00596 624.546378 
L 941.823619 624.802145 
L 944.640518 624.819881 
L 947.456836 625.049045 
L 950.274767 624.675895 
L 953.090789 625.13329 
L 955.907659 624.869588 
L 972.810157 625.218935 
L 975.62642 624.973202 
L 978.443366 625.268175 
L 981.260368 625.278676 
L 984.07736 625.484037 
L 989.711212 625.57785 
L 992.528908 625.684264 
L 998.163155 625.681464 
L 1003.796731 625.777843 
L 1006.613633 625.722769 
L 1012.247091 625.90386 
L 1015.064918 625.700366 
L 1020.698748 625.934198 
L 1023.515615 626.127891 
L 1026.332885 626.012142 
L 1034.782555 626.624024 
L 1037.599495 626.708502 
L 1046.050846 626.698234 
L 1048.867354 626.91853 
L 1051.684359 626.982472 
L 1054.501358 626.751908 
L 1057.318218 626.690766 
L 1060.135217 626.979672 
L 1062.95327 627.045014 
L 1065.769525 627.275112 
L 1068.586108 627.773579 
L 1071.404106 627.361457 
L 1074.221141 627.694702 
L 1077.036943 627.6849 
L 1082.671547 628.321986 
L 1085.488993 627.844055 
L 1088.305072 628.321986 
L 1091.122435 628.240308 
L 1093.938757 628.443803 
L 1096.755665 628.333654 
L 1099.572619 628.797584 
L 1102.389642 628.696303 
L 1105.207649 629.049617 
L 1108.0235 629.147631 
L 1110.840436 629.049151 
L 1113.658537 629.269914 
L 1116.474452 629.227441 
L 1119.291349 628.882995 
L 1122.108332 628.897464 
L 1130.559336 628.407864 
L 1133.376115 628.444736 
L 1136.193072 628.131094 
L 1144.643957 628.164698 
L 1153.094855 627.583153 
L 1158.728742 627.291914 
L 1161.545755 627.328319 
L 1164.362728 626.925531 
L 1169.996982 626.642227 
L 1175.630567 626.575018 
L 1181.264422 626.321583 
L 1186.899262 626.014009 
L 1198.166886 625.807247 
L 1200.983346 625.874923 
L 1203.80068 625.598153 
L 1206.617017 625.667229 
L 1212.25107 625.444132 
L 1215.067977 625.512274 
L 1217.884924 625.384857 
L 1220.701908 625.382057 
L 1226.33582 625.673296 
L 1229.153127 625.33165 
L 1231.969654 625.656961 
L 1234.786728 625.540278 
L 1237.6036 624.984403 
L 1243.237579 624.918594 
L 1246.054555 625.084283 
L 1248.871477 624.688497 
L 1251.688981 624.599351 
L 1257.323041 624.661893 
L 1262.956868 624.528409 
L 1265.773837 624.262373 
L 1268.590807 624.272174 
L 1271.40779 624.434129 
L 1274.224139 624.157825 
L 1277.041094 624.120487 
L 1282.675032 624.496671 
L 1288.308939 624.066813 
L 1291.125891 624.149891 
L 1293.942994 624.115353 
L 1296.760033 624.376721 
L 1302.394198 624.586283 
L 1305.210701 624.685696 
L 1308.027426 624.507406 
L 1310.845639 624.717901 
L 1313.661701 624.325381 
L 1316.479268 624.074281 
L 1319.296299 624.344984 
L 1322.111536 624.282909 
L 1324.929404 624.480802 
L 1333.380299 624.151758 
L 1336.197267 624.446731 
L 1344.648072 624.359452 
L 1347.465648 624.065413 
L 1350.282481 624.488737 
L 1353.098946 624.427128 
L 1355.915911 624.78931 
L 1358.733646 624.826649 
L 1361.550494 624.472868 
L 1364.366863 624.769708 
L 1367.18385 624.741704 
L 1370.000894 624.981603 
L 1372.81829 624.972735 
L 1375.635075 624.847652 
L 1378.452355 624.922795 
L 1384.08612 624.807046 
L 1386.902447 624.863987 
L 1392.536388 624.814047 
L 1400.987271 624.752905 
L 1403.80418 624.588617 
L 1412.255129 624.656759 
L 1415.072115 624.303912 
L 1417.888963 624.570414 
L 1420.70598 624.560613 
L 1423.522968 624.415927 
L 1426.339884 624.646024 
L 1429.156895 624.547078 
L 1431.973794 624.687563 
L 1434.791313 624.373454 
L 1437.607647 624.633423 
L 1440.424643 624.426195 
L 1446.058651 624.579282 
L 1454.509485 624.583949 
L 1460.14453 624.697831 
L 1462.96041 624.511606 
L 1468.594304 624.864454 
L 1471.411247 624.833183 
L 1474.228256 625.941666 
L 1478.454281 625.932331 
L 1486.904522 626.595554 
L 1491.129974 626.722504 
L 1505.216373 627.777313 
L 1508.031756 628.203437 
L 1510.848715 628.272513 
L 1513.666442 628.553951 
L 1516.482538 629.174234 
L 1522.116508 629.324521 
L 1524.933431 628.694436 
L 1527.750477 628.279514 
L 1531.975927 628.075086 
L 1534.792768 627.746042 
L 1540.426745 626.659029 
L 1543.243328 626.222637 
L 1546.060607 626.325317 
L 1548.877666 625.985538 
L 1557.329169 625.25604 
L 1560.145457 624.868654 
L 1568.596419 625.299912 
L 1577.047022 626.097553 
L 1581.272628 625.936998 
L 1593.949091 626.217969 
L 1593.949091 626.217969 
" clip-path="url(#pdff1c23749)" style="fill: none; stroke: #00ff00; stroke-width: 3; stroke-linecap: square"/>
   </g>
   <g id="line2d_14">
    <path d="M 295.330909 629.172878 
L 329.134519 629.250514 
L 341.810782 629.05937 
L 347.445557 629.223089 
L 358.712979 629.150835 
L 364.347128 628.866408 
L 381.248199 629.207436 
L 386.882088 629.327192 
L 406.600802 629.215892 
L 413.643241 628.973124 
L 419.277151 628.85354 
L 427.72773 628.89964 
L 430.544903 628.634072 
L 433.361898 628.533733 
L 436.178865 628.073096 
L 438.995718 628.205413 
L 441.812801 628.147766 
L 444.629685 627.8745 
L 453.080604 627.838874 
L 458.7145 627.303458 
L 461.531405 627.322313 
L 464.348401 627.07832 
L 467.165036 627.148034 
L 472.798687 626.609774 
L 478.433147 626.29941 
L 481.250578 626.254681 
L 486.884134 625.897534 
L 492.517981 626.026526 
L 498.151982 625.92312 
L 500.968941 625.51374 
L 503.786596 625.546736 
L 506.602302 625.112984 
L 509.419789 625.355727 
L 512.236712 624.857799 
L 515.053614 624.886922 
L 531.95543 624.356098 
L 534.772429 624.043776 
L 537.589404 624.258014 
L 548.857179 623.894137 
L 554.491093 623.99702 
L 557.308084 623.866308 
L 560.125553 623.378612 
L 562.942025 623.330164 
L 565.758953 623.139859 
L 568.575897 623.295738 
L 571.392899 623.279583 
L 574.21092 622.986341 
L 577.026803 623.293154 
L 579.844423 623.135217 
L 582.660692 623.37151 
L 586.886066 623.197041 
L 599.562486 623.022072 
L 603.787946 622.887329 
L 608.01262 622.961875 
L 610.830314 622.822611 
L 615.055692 622.449508 
L 617.872671 622.752007 
L 620.690107 622.619536 
L 623.507265 622.354339 
L 626.323524 622.601931 
L 629.140499 622.323287 
L 631.957503 622.275811 
L 634.774407 622.342904 
L 637.591411 622.188796 
L 640.408386 621.758631 
L 646.042297 621.196281 
L 648.859168 621.719586 
L 657.310038 622.066848 
L 660.126987 621.472803 
L 662.944074 621.530357 
L 665.761045 621.370852 
L 668.577931 621.477514 
L 677.028742 621.30427 
L 679.84686 621.354531 
L 682.663633 621.082165 
L 685.48022 620.942613 
L 688.296673 621.1847 
L 691.113596 621.285601 
L 705.198472 620.939754 
L 708.01526 620.710532 
L 710.832408 620.708548 
L 716.465988 620.342807 
L 719.283976 620.407158 
L 724.917087 619.7304 
L 727.734217 619.531486 
L 730.551723 619.61363 
L 733.368324 619.316673 
L 739.002879 619.091476 
L 741.819999 618.780809 
L 747.453688 618.571015 
L 753.086728 618.542077 
L 755.903637 618.778943 
L 758.720682 618.301362 
L 764.354518 618.418744 
L 767.171296 618.118462 
L 781.256282 617.980018 
L 784.073244 618.138706 
L 789.707743 617.713924 
L 798.157977 617.12882 
L 800.974954 617.061961 
L 803.791937 617.143581 
L 806.60884 616.833089 
L 809.426335 616.94452 
L 812.242764 616.726674 
L 815.059818 616.351774 
L 817.876769 616.429718 
L 823.510713 615.947295 
L 834.778417 615.451453 
L 837.594808 615.544215 
L 843.230074 615.401396 
L 854.497185 614.914364 
L 857.314144 614.583919 
L 860.13117 614.647278 
L 862.948234 614.537246 
L 865.766132 614.598855 
L 868.583004 614.51286 
L 874.215945 614.750892 
L 877.032853 614.315083 
L 879.849981 614.263509 
L 882.66686 614.013109 
L 893.934592 613.668079 
L 896.751625 613.823733 
L 899.569665 613.509391 
L 902.385534 613.432614 
L 905.202734 613.809848 
L 908.019532 613.675547 
L 910.836353 613.372989 
L 913.654504 613.183381 
L 916.470257 613.156777 
L 919.287323 612.976969 
L 922.104231 612.613737 
L 924.921143 613.074283 
L 927.738204 613.122122 
L 930.555091 612.231019 
L 933.372033 612.665194 
L 936.18901 612.525992 
L 939.00596 612.629489 
L 941.823619 612.417477 
L 944.640518 612.604636 
L 947.456836 612.377572 
L 950.274767 612.302079 
L 953.090789 612.550029 
L 955.907659 612.102668 
L 958.724093 612.18878 
L 961.542258 612.499388 
L 967.175548 612.078165 
L 969.993642 612.277692 
L 972.810157 612.353069 
L 975.62642 611.768257 
L 978.443366 612.177112 
L 981.260368 611.835232 
L 989.711212 611.576197 
L 992.528908 611.415176 
L 995.345192 611.623104 
L 998.163155 611.497087 
L 1000.979104 611.212382 
L 1003.796731 611.175277 
L 1006.613633 610.615901 
L 1009.430568 611.055094 
L 1012.247091 611.059061 
L 1015.064918 610.571796 
L 1026.332885 610.119068 
L 1029.148837 609.965981 
L 1031.965571 609.506485 
L 1034.782555 609.749418 
L 1037.599495 609.174407 
L 1051.684359 607.816691 
L 1054.501358 608.182374 
L 1057.318218 607.763951 
L 1060.135217 608.03302 
L 1062.95327 607.183339 
L 1065.769525 606.947407 
L 1068.586108 606.99478 
L 1071.404106 606.832825 
L 1074.221141 607.054989 
L 1077.036943 606.581025 
L 1079.85459 606.538319 
L 1082.671547 606.053854 
L 1085.488993 606.415802 
L 1088.305072 605.674869 
L 1091.122435 605.92877 
L 1093.938757 605.216074 
L 1096.755665 605.203473 
L 1099.572619 604.748645 
L 1102.389642 604.81282 
L 1105.207649 605.017481 
L 1108.0235 604.230808 
L 1110.840436 604.377361 
L 1113.658537 604.363359 
L 1116.474452 604.512013 
L 1119.291349 604.085189 
L 1122.108332 604.32112 
L 1124.925492 604.205605 
L 1127.743206 604.476075 
L 1130.559336 604.200004 
L 1133.376115 604.328355 
L 1136.193072 604.759379 
L 1139.010036 603.893129 
L 1141.827057 604.334656 
L 1144.643957 604.490076 
L 1153.094855 604.080755 
L 1158.728742 604.386696 
L 1161.545755 603.920666 
L 1164.362728 604.262079 
L 1167.179637 604.144697 
L 1169.996982 604.275381 
L 1172.813509 603.94657 
L 1175.630567 604.151931 
L 1178.44744 603.879127 
L 1181.264422 603.883095 
L 1184.082063 603.688935 
L 1186.899262 603.77318 
L 1192.533264 603.50411 
L 1195.350373 603.286848 
L 1198.166886 603.509711 
L 1200.983346 603.299216 
L 1203.80068 603.420566 
L 1206.617017 603.070285 
L 1209.433951 603.13096 
L 1212.25107 602.830153 
L 1215.067977 602.642528 
L 1217.884924 602.920232 
L 1220.701908 602.769011 
L 1223.518831 602.410563 
L 1226.33582 602.659797 
L 1229.153127 602.404029 
L 1234.786728 602.466571 
L 1237.6036 602.253275 
L 1246.054555 602.131926 
L 1248.871477 601.726804 
L 1254.505471 602.002175 
L 1257.323041 601.512109 
L 1260.13992 601.560182 
L 1262.956868 601.738473 
L 1265.773837 601.401494 
L 1268.590807 601.539179 
L 1274.224139 600.792879 
L 1277.041094 600.944099 
L 1279.858009 600.664995 
L 1282.675032 600.848886 
L 1285.491928 600.518908 
L 1291.125891 600.099318 
L 1293.942994 600.221135 
L 1296.760033 599.795478 
L 1299.576821 599.763273 
L 1302.394198 599.503772 
L 1305.210701 599.637256 
L 1308.027426 598.969833 
L 1310.845639 598.992236 
L 1313.661701 599.540176 
L 1316.479268 599.158858 
L 1319.296299 599.125721 
L 1322.111536 599.26714 
L 1324.929404 599.035175 
L 1327.746451 598.621186 
L 1330.563283 598.804144 
L 1339.014457 597.964031 
L 1341.8315 597.88282 
L 1344.648072 598.153056 
L 1347.465648 597.746535 
L 1350.282481 598.243602 
L 1355.915911 597.134186 
L 1358.733646 596.954962 
L 1361.550494 597.025904 
L 1370.000894 596.702461 
L 1375.635075 596.687992 
L 1381.268597 596.069109 
L 1384.08612 596.22453 
L 1386.902447 595.724663 
L 1389.719416 595.903887 
L 1392.536388 595.718128 
L 1395.35333 595.392351 
L 1398.170269 595.187457 
L 1403.80418 595.508567 
L 1406.621234 595.191191 
L 1412.255129 594.843011 
L 1415.072115 594.894817 
L 1417.888963 594.47056 
L 1420.70598 594.571841 
L 1423.522968 594.434155 
L 1426.339884 594.141049 
L 1429.156895 594.361346 
L 1431.973794 594.011298 
L 1434.791313 593.865212 
L 1437.607647 593.849343 
L 1440.424643 593.55297 
L 1446.058651 593.594976 
L 1448.876213 593.35741 
L 1451.692468 593.529634 
L 1454.509485 593.044235 
L 1457.326446 593.176319 
L 1460.14453 593.069438 
L 1465.777271 593.08064 
L 1468.594304 593.074572 
L 1474.228256 592.079505 
L 1478.454281 591.741126 
L 1482.679771 591.74906 
L 1486.904522 591.591306 
L 1496.765018 590.97569 
L 1508.031756 591.059701 
L 1510.848715 590.667648 
L 1519.299591 590.289597 
L 1522.116508 589.992757 
L 1524.933431 590.192518 
L 1527.750477 590.235923 
L 1534.792768 589.86394 
L 1537.609757 589.983889 
L 1540.426745 590.235923 
L 1543.243328 590.295198 
L 1546.060607 590.118308 
L 1548.877666 590.220521 
L 1551.69467 589.898478 
L 1554.510759 590.043164 
L 1557.329169 589.972688 
L 1560.145457 589.571301 
L 1564.37086 588.801664 
L 1572.82176 588.593502 
L 1577.047022 588.129106 
L 1585.498871 587.703916 
L 1593.949091 587.750122 
L 1593.949091 587.750122 
" clip-path="url(#pdff1c23749)" style="fill: none; stroke: #0000ff; stroke-width: 3; stroke-linecap: square"/>
   </g>
   <g id="line2d_15">
    <path d="M 295.330909 628.567291 
L 329.134519 627.707745 
L 336.176794 626.788388 
L 347.445557 624.021942 
L 353.078586 623.24008 
L 358.712979 622.303444 
L 369.979505 620.099221 
L 381.248199 618.574301 
L 392.516029 615.842053 
L 398.149941 614.817711 
L 402.375052 613.54253 
L 406.600802 612.579183 
L 410.826351 611.984031 
L 413.643241 611.075319 
L 416.459704 609.941429 
L 422.09474 608.075291 
L 424.912112 606.992887 
L 427.72773 606.422451 
L 430.544903 604.96345 
L 433.361898 603.635024 
L 436.178865 602.560727 
L 438.995718 601.184725 
L 441.812801 600.319459 
L 450.263729 596.527871 
L 453.080604 595.347203 
L 455.897627 593.889639 
L 464.348401 589.233467 
L 472.798687 585.125984 
L 475.616331 583.617828 
L 478.433147 582.585484 
L 481.250578 581.210688 
L 484.067941 579.653427 
L 486.884134 578.293989 
L 489.70184 577.213089 
L 492.517981 575.889615 
L 495.334705 574.801425 
L 498.151982 573.214481 
L 509.419789 567.825838 
L 515.053614 564.660888 
L 517.870646 563.356536 
L 520.687627 561.810775 
L 523.504557 560.466975 
L 529.138528 557.464435 
L 531.95543 556.330453 
L 540.405707 551.96364 
L 543.223262 550.363832 
L 546.040321 549.30892 
L 548.857179 547.865379 
L 551.674057 546.765634 
L 554.491093 544.903003 
L 557.308084 543.846943 
L 560.125553 542.400881 
L 562.942025 541.661328 
L 565.758953 540.125088 
L 568.575897 538.420295 
L 571.392899 538.112916 
L 574.21092 536.735734 
L 586.886066 532.446593 
L 591.112649 531.199433 
L 595.33701 530.256379 
L 603.787946 527.493885 
L 608.01262 526.525046 
L 610.830314 524.997739 
L 615.055692 524.325383 
L 620.690107 522.481491 
L 623.507265 521.517363 
L 626.323524 521.625201 
L 631.957503 518.371903 
L 634.774407 516.337077 
L 637.591411 514.572945 
L 640.408386 513.094824 
L 643.225316 512.144515 
L 646.042297 510.685311 
L 648.859168 508.165915 
L 651.67543 507.11911 
L 654.493114 505.772534 
L 657.310038 504.075768 
L 662.944074 501.254658 
L 665.761045 499.999629 
L 668.577931 498.616567 
L 674.211789 495.626406 
L 677.028742 494.154804 
L 679.84686 493.046311 
L 682.663633 491.125817 
L 685.48022 489.85123 
L 688.296673 488.8717 
L 691.113596 486.728955 
L 693.930597 485.081375 
L 696.748128 484.096893 
L 699.564467 482.719045 
L 702.381438 481.172588 
L 705.198472 479.803539 
L 708.01526 477.697484 
L 710.832408 476.911355 
L 713.649304 475.181279 
L 716.465988 474.151696 
L 719.283976 472.290896 
L 722.100045 470.813745 
L 724.917087 469.944023 
L 733.368324 465.596868 
L 739.002879 462.471698 
L 741.819999 461.397557 
L 744.636502 460.080876 
L 747.453688 459.414314 
L 750.270372 457.547381 
L 755.903637 455.178473 
L 758.720682 453.853487 
L 761.537564 452.800012 
L 764.354518 451.18173 
L 767.171296 450.232964 
L 775.623503 446.334467 
L 778.43937 445.400096 
L 781.256282 444.054187 
L 789.707743 441.113645 
L 792.524107 439.811586 
L 798.157977 437.618847 
L 800.974954 436.176128 
L 803.791937 435.25969 
L 820.693895 428.208449 
L 826.327598 426.126814 
L 840.412385 421.152133 
L 846.046299 419.508771 
L 848.863355 418.267052 
L 854.497185 416.585907 
L 857.314144 415.51461 
L 860.13117 414.310958 
L 862.948234 413.697785 
L 865.766132 412.956801 
L 868.583004 411.956191 
L 871.398954 411.281752 
L 874.215945 410.298207 
L 877.032853 409.502338 
L 879.849981 408.566582 
L 882.66686 408.855648 
L 885.48344 407.655876 
L 888.300655 406.866498 
L 891.117582 405.938377 
L 893.934592 405.891588 
L 896.751625 404.625657 
L 899.569665 404.240678 
L 902.385534 403.325727 
L 905.202734 402.765579 
L 908.019532 401.866614 
L 910.836353 401.478835 
L 913.654504 400.223916 
L 919.287323 399.116367 
L 922.104231 398.184702 
L 924.921143 397.748455 
L 930.555091 395.831816 
L 936.18901 395.067459 
L 939.00596 394.00034 
L 941.823619 393.818578 
L 944.640518 392.559021 
L 947.456836 392.22003 
L 950.274767 391.191139 
L 953.090789 390.596161 
L 958.724093 388.946491 
L 961.542258 388.424906 
L 964.359699 387.545617 
L 967.175548 386.792724 
L 969.993642 386.161997 
L 972.810157 385.647719 
L 975.62642 385.002626 
L 978.443366 384.636273 
L 981.260368 383.427677 
L 984.07736 382.899966 
L 986.894922 382.198311 
L 989.711212 381.690947 
L 992.528908 380.932818 
L 998.163155 379.674194 
L 1000.979104 378.83586 
L 1003.796731 378.305626 
L 1009.430568 376.802699 
L 1012.247091 376.868056 
L 1015.064918 375.962396 
L 1017.881005 374.894184 
L 1020.698748 374.49443 
L 1023.515615 373.621952 
L 1037.599495 370.405223 
L 1043.234572 369.31538 
L 1046.050846 368.48027 
L 1048.867354 368.117563 
L 1051.684359 367.64109 
L 1060.135217 365.752761 
L 1062.95327 365.109593 
L 1065.769525 364.630072 
L 1068.586108 363.321873 
L 1071.404106 363.678177 
L 1074.221141 362.582194 
L 1077.036943 362.14624 
L 1079.85459 362.027107 
L 1082.671547 361.272624 
L 1085.488993 360.755152 
L 1088.305072 359.956345 
L 1091.122435 359.452729 
L 1093.938757 358.754706 
L 1096.755665 358.583635 
L 1110.840436 355.647862 
L 1113.658537 355.435559 
L 1116.474452 354.745645 
L 1119.291349 354.360316 
L 1127.743206 352.834883 
L 1130.559336 352.544417 
L 1133.376115 351.853133 
L 1136.193072 352.430214 
L 1144.643957 350.546144 
L 1150.277908 350.157446 
L 1153.094855 349.246156 
L 1155.912078 349.025145 
L 1158.728742 349.035078 
L 1164.362728 347.93908 
L 1167.179637 347.863281 
L 1172.813509 346.816392 
L 1184.082063 345.321545 
L 1186.899262 344.755533 
L 1192.533264 343.379293 
L 1198.166886 342.380638 
L 1200.983346 341.869803 
L 1217.884924 337.508273 
L 1220.701908 336.613261 
L 1226.33582 335.304552 
L 1229.153127 334.399738 
L 1231.969654 333.748913 
L 1234.786728 332.907925 
L 1240.420619 331.65041 
L 1243.237579 330.724126 
L 1246.054555 330.098738 
L 1248.871477 328.954317 
L 1262.956868 324.638178 
L 1265.773837 323.66528 
L 1268.590807 322.391021 
L 1271.40779 321.482707 
L 1274.224139 320.117581 
L 1277.041094 319.344531 
L 1279.858009 318.179604 
L 1282.675032 316.615622 
L 1288.308939 314.790447 
L 1291.125891 313.514875 
L 1293.942994 312.082803 
L 1302.394198 309.021466 
L 1305.210701 307.631137 
L 1310.845639 305.452356 
L 1313.661701 304.892893 
L 1316.479268 303.703579 
L 1319.296299 302.307941 
L 1322.111536 301.408991 
L 1324.929404 300.339597 
L 1327.746451 299.438809 
L 1330.563283 298.167087 
L 1341.8315 293.808826 
L 1344.648072 292.874696 
L 1347.465648 291.429322 
L 1350.282481 290.776309 
L 1353.098946 289.258971 
L 1355.915911 288.322741 
L 1358.733646 286.750008 
L 1361.550494 285.833847 
L 1364.366863 284.646517 
L 1367.18385 283.662067 
L 1370.000894 282.551718 
L 1372.81829 281.89958 
L 1375.635075 280.757114 
L 1378.452355 279.990773 
L 1381.268597 278.826049 
L 1384.08612 278.101131 
L 1386.902447 277.10163 
L 1389.719416 276.27896 
L 1392.536388 275.201282 
L 1403.80418 271.780125 
L 1409.438117 269.923563 
L 1412.255129 269.584571 
L 1415.072115 268.426119 
L 1420.70598 267.320233 
L 1423.522968 266.382632 
L 1426.339884 265.960212 
L 1429.156895 265.018148 
L 1431.973794 264.690212 
L 1434.791313 263.786361 
L 1437.607647 263.459855 
L 1446.058651 261.781145 
L 1448.876213 261.062849 
L 1451.692468 260.208325 
L 1454.509485 259.641832 
L 1457.326446 258.746091 
L 1460.14453 257.662374 
L 1462.96041 256.893875 
L 1465.777271 255.73764 
L 1468.594304 254.963948 
L 1471.411247 253.809843 
L 1474.228256 246.649074 
L 1482.679771 243.736682 
L 1491.129974 240.537805 
L 1496.765018 237.245291 
L 1499.58088 235.378723 
L 1502.399051 234.496925 
L 1505.216373 232.605445 
L 1508.031756 231.54031 
L 1510.848715 230.086593 
L 1513.666442 229.081725 
L 1516.482538 227.053814 
L 1519.299591 225.738395 
L 1522.116508 224.03775 
L 1524.933431 222.509648 
L 1527.750477 221.392793 
L 1531.975927 220.1155 
L 1534.792768 218.369699 
L 1540.426745 215.511972 
L 1543.243328 213.749251 
L 1546.060607 212.643598 
L 1551.69467 209.499008 
L 1554.510759 208.097624 
L 1557.329169 207.154567 
L 1560.145457 205.280911 
L 1564.37086 203.560721 
L 1568.596419 202.298334 
L 1577.047022 201.506148 
L 1581.272628 200.475668 
L 1585.498871 200.627734 
L 1593.949091 199.659416 
L 1593.949091 199.659416 
" clip-path="url(#pdff1c23749)" style="fill: none; stroke: #9933fa; stroke-width: 3; stroke-linecap: square"/>
   </g>
   <g id="patch_3">
    <path d="M 230.4 640.8 
L 230.4 86.4 
" style="fill: none; stroke: #000000; stroke-width: 3; stroke-linejoin: miter; stroke-linecap: square"/>
   </g>
   <g id="patch_4">
    <path d="M 1658.88 640.8 
L 1658.88 86.4 
" style="fill: none; stroke: #000000; stroke-width: 3; stroke-linejoin: miter; stroke-linecap: square"/>
   </g>
   <g id="patch_5">
    <path d="M 230.4 640.8 
L 1658.88 640.8 
" style="fill: none; stroke: #000000; stroke-width: 3; stroke-linejoin: miter; stroke-linecap: square"/>
   </g>
   <g id="patch_6">
    <path d="M 230.4 86.4 
L 1658.88 86.4 
" style="fill: none; stroke: #000000; stroke-width: 3; stroke-linejoin: miter; stroke-linecap: square"/>
   </g>
   <g id="text_9">
    <!-- Off1 -->
    <g transform="translate(896.77125 77.041406) scale(0.45 -0.45)">
     <defs>
      <path id="DejaVuSans-4f" d="M 2522 4238 
Q 1834 4238 1429 3725 
Q 1025 3213 1025 2328 
Q 1025 1447 1429 934 
Q 1834 422 2522 422 
Q 3209 422 3611 934 
Q 4013 1447 4013 2328 
Q 4013 3213 3611 3725 
Q 3209 4238 2522 4238 
z
M 2522 4750 
Q 3503 4750 4090 4092 
Q 4678 3434 4678 2328 
Q 4678 1225 4090 567 
Q 3503 -91 2522 -91 
Q 1538 -91 948 565 
Q 359 1222 359 2328 
Q 359 3434 948 4092 
Q 1538 4750 2522 4750 
z
" transform="scale(0.015625)"/>
      <path id="DejaVuSans-66" d="M 2375 4863 
L 2375 4384 
L 1825 4384 
Q 1516 4384 1395 4259 
Q 1275 4134 1275 3809 
L 1275 3500 
L 2222 3500 
L 2222 3053 
L 1275 3053 
L 1275 0 
L 697 0 
L 697 3053 
L 147 3053 
L 147 3500 
L 697 3500 
L 697 3744 
Q 697 4328 969 4595 
Q 1241 4863 1831 4863 
L 2375 4863 
z
" transform="scale(0.015625)"/>
     </defs>
     <use xlink:href="#DejaVuSans-4f"/>
     <use xlink:href="#DejaVuSans-66" x="78.710938"/>
     <use xlink:href="#DejaVuSans-66" x="113.916016"/>
     <use xlink:href="#DejaVuSans-31" x="149.121094"/>
    </g>
   </g>
   <g id="legend_1">
    <g id="patch_7">
     <path d="M 258.4 294.5375 
L 410.075 294.5375 
Q 418.075 294.5375 418.075 286.5375 
L 418.075 114.4 
Q 418.075 106.4 410.075 106.4 
L 258.4 106.4 
Q 250.4 106.4 250.4 114.4 
L 250.4 286.5375 
Q 250.4 294.5375 258.4 294.5375 
z
" style="fill: #ffffff; opacity: 0.8; stroke: #cccccc; stroke-linejoin: miter"/>
    </g>
    <g id="line2d_16">
     <path d="M 266.4 138.79375 
L 306.4 138.79375 
L 346.4 138.79375 
" style="fill: none; stroke: #00ff00; stroke-width: 3; stroke-linecap: square"/>
    </g>
    <g id="text_10">
     <!-- x -->
     <g transform="translate(378.4 152.79375) scale(0.4 -0.4)">
      <defs>
       <path id="DejaVuSans-78" d="M 3513 3500 
L 2247 1797 
L 3578 0 
L 2900 0 
L 1881 1375 
L 863 0 
L 184 0 
L 1544 1831 
L 300 3500 
L 978 3500 
L 1906 2253 
L 2834 3500 
L 3513 3500 
z
" transform="scale(0.015625)"/>
      </defs>
      <use xlink:href="#DejaVuSans-78"/>
     </g>
    </g>
    <g id="line2d_17">
     <path d="M 266.4 197.50625 
L 306.4 197.50625 
L 346.4 197.50625 
" style="fill: none; stroke: #0000ff; stroke-width: 3; stroke-linecap: square"/>
    </g>
    <g id="text_11">
     <!-- y -->
     <g transform="translate(378.4 211.50625) scale(0.4 -0.4)">
      <defs>
       <path id="DejaVuSans-79" d="M 2059 -325 
Q 1816 -950 1584 -1140 
Q 1353 -1331 966 -1331 
L 506 -1331 
L 506 -850 
L 844 -850 
Q 1081 -850 1212 -737 
Q 1344 -625 1503 -206 
L 1606 56 
L 191 3500 
L 800 3500 
L 1894 763 
L 2988 3500 
L 3597 3500 
L 2059 -325 
z
" transform="scale(0.015625)"/>
      </defs>
      <use xlink:href="#DejaVuSans-79"/>
     </g>
    </g>
    <g id="line2d_18">
     <path d="M 266.4 256.21875 
L 306.4 256.21875 
L 346.4 256.21875 
" style="fill: none; stroke: #9933fa; stroke-width: 3; stroke-linecap: square"/>
    </g>
    <g id="text_12">
     <!-- z -->
     <g transform="translate(378.4 270.21875) scale(0.4 -0.4)">
      <defs>
       <path id="DejaVuSans-7a" d="M 353 3500 
L 3084 3500 
L 3084 2975 
L 922 459 
L 3084 459 
L 3084 0 
L 275 0 
L 275 525 
L 2438 3041 
L 353 3041 
L 353 3500 
z
" transform="scale(0.015625)"/>
      </defs>
      <use xlink:href="#DejaVuSans-7a"/>
     </g>
    </g>
   </g>
  </g>
 </g>
 <defs>
  <clipPath id="pdff1c23749">
   <rect x="230.4" y="86.4" width="1428.48" height="554.4"/>
  </clipPath>
 </defs>
</svg>
