<?xml version="1.0" encoding="utf-8" standalone="no"?>
<!DOCTYPE svg PUBLIC "-//W3C//DTD SVG 1.1//EN"
  "http://www.w3.org/Graphics/SVG/1.1/DTD/svg11.dtd">
<svg xmlns:xlink="http://www.w3.org/1999/xlink" width="1843.2pt" height="720pt" viewBox="0 0 1843.2 720" xmlns="http://www.w3.org/2000/svg" version="1.1">
 <metadata>
  <rdf:RDF xmlns:dc="http://purl.org/dc/elements/1.1/" xmlns:cc="http://creativecommons.org/ns#" xmlns:rdf="http://www.w3.org/1999/02/22-rdf-syntax-ns#">
   <cc:Work>
    <dc:type rdf:resource="http://purl.org/dc/dcmitype/StillImage"/>
    <dc:date>2024-03-12T16:01:43.425392</dc:date>
    <dc:format>image/svg+xml</dc:format>
    <dc:creator>
     <cc:Agent>
      <dc:title>Matplotlib v3.7.0, https://matplotlib.org/</dc:title>
     </cc:Agent>
    </dc:creator>
   </cc:Work>
  </rdf:RDF>
 </metadata>
 <defs>
  <style type="text/css">*{stroke-linejoin: round; stroke-linecap: butt}</style>
 </defs>
 <g id="figure_1">
  <g id="patch_1">
   <path d="M 0 720 
L 1843.2 720 
L 1843.2 0 
L 0 0 
z
" style="fill: #ffffff"/>
  </g>
  <g id="axes_1">
   <g id="patch_2">
    <path d="M 230.4 640.8 
L 1658.88 640.8 
L 1658.88 86.4 
L 230.4 86.4 
z
" style="fill: #ffffff"/>
   </g>
   <g id="matplotlib.axis_1">
    <g id="xtick_1">
     <g id="line2d_1">
      <path d="M 295.330909 640.8 
L 295.330909 86.4 
" clip-path="url(#p92235a89cc)" style="fill: none; stroke: #b0b0b0; stroke-width: 0.8; stroke-linecap: square"/>
     </g>
     <g id="line2d_2">
      <defs>
       <path id="mc76a44415c" d="M 0 0 
L 0 -5 
" style="stroke: #000000; stroke-width: 0.8"/>
      </defs>
      <g>
       <use xlink:href="#mc76a44415c" x="295.330909" y="640.8" style="stroke: #000000; stroke-width: 0.8"/>
      </g>
     </g>
     <g id="text_1">
      <!-- 0 -->
      <g transform="translate(282.605909 674.69375) scale(0.4 -0.4)">
       <defs>
        <path id="DejaVuSans-30" d="M 2034 4250 
Q 1547 4250 1301 3770 
Q 1056 3291 1056 2328 
Q 1056 1369 1301 889 
Q 1547 409 2034 409 
Q 2525 409 2770 889 
Q 3016 1369 3016 2328 
Q 3016 3291 2770 3770 
Q 2525 4250 2034 4250 
z
M 2034 4750 
Q 2819 4750 3233 4129 
Q 3647 3509 3647 2328 
Q 3647 1150 3233 529 
Q 2819 -91 2034 -91 
Q 1250 -91 836 529 
Q 422 1150 422 2328 
Q 422 3509 836 4129 
Q 1250 4750 2034 4750 
z
" transform="scale(0.015625)"/>
       </defs>
       <use xlink:href="#DejaVuSans-30"/>
      </g>
     </g>
    </g>
    <g id="xtick_2">
     <g id="line2d_3">
      <path d="M 985.125075 640.8 
L 985.125075 86.4 
" clip-path="url(#p92235a89cc)" style="fill: none; stroke: #b0b0b0; stroke-width: 0.8; stroke-linecap: square"/>
     </g>
     <g id="line2d_4">
      <g>
       <use xlink:href="#mc76a44415c" x="985.125075" y="640.8" style="stroke: #000000; stroke-width: 0.8"/>
      </g>
     </g>
     <g id="text_2">
      <!-- 100 -->
      <g transform="translate(946.950075 674.69375) scale(0.4 -0.4)">
       <defs>
        <path id="DejaVuSans-31" d="M 794 531 
L 1825 531 
L 1825 4091 
L 703 3866 
L 703 4441 
L 1819 4666 
L 2450 4666 
L 2450 531 
L 3481 531 
L 3481 0 
L 794 0 
L 794 531 
z
" transform="scale(0.015625)"/>
       </defs>
       <use xlink:href="#DejaVuSans-31"/>
       <use xlink:href="#DejaVuSans-30" x="63.623047"/>
       <use xlink:href="#DejaVuSans-30" x="127.246094"/>
      </g>
     </g>
    </g>
    <g id="text_3">
     <!-- Time(s) -->
     <g transform="translate(882.030625 714.7875) scale(0.4 -0.4)">
      <defs>
       <path id="TimesNewRomanPSMT-54" d="M 3703 4238 
L 3750 3244 
L 3631 3244 
Q 3597 3506 3538 3619 
Q 3441 3800 3280 3886 
Q 3119 3972 2856 3972 
L 2259 3972 
L 2259 734 
Q 2259 344 2344 247 
Q 2463 116 2709 116 
L 2856 116 
L 2856 0 
L 1059 0 
L 1059 116 
L 1209 116 
Q 1478 116 1591 278 
Q 1659 378 1659 734 
L 1659 3972 
L 1150 3972 
Q 853 3972 728 3928 
Q 566 3869 450 3700 
Q 334 3531 313 3244 
L 194 3244 
L 244 4238 
L 3703 4238 
z
" transform="scale(0.015625)"/>
       <path id="TimesNewRomanPSMT-69" d="M 928 4444 
Q 1059 4444 1151 4351 
Q 1244 4259 1244 4128 
Q 1244 3997 1151 3903 
Q 1059 3809 928 3809 
Q 797 3809 703 3903 
Q 609 3997 609 4128 
Q 609 4259 701 4351 
Q 794 4444 928 4444 
z
M 1188 2947 
L 1188 647 
Q 1188 378 1227 289 
Q 1266 200 1342 156 
Q 1419 113 1622 113 
L 1622 0 
L 231 0 
L 231 113 
Q 441 113 512 153 
Q 584 194 626 287 
Q 669 381 669 647 
L 669 1750 
Q 669 2216 641 2353 
Q 619 2453 572 2492 
Q 525 2531 444 2531 
Q 356 2531 231 2484 
L 188 2597 
L 1050 2947 
L 1188 2947 
z
" transform="scale(0.015625)"/>
       <path id="TimesNewRomanPSMT-6d" d="M 1050 2338 
Q 1363 2650 1419 2697 
Q 1559 2816 1721 2881 
Q 1884 2947 2044 2947 
Q 2313 2947 2506 2790 
Q 2700 2634 2766 2338 
Q 3088 2713 3309 2830 
Q 3531 2947 3766 2947 
Q 3994 2947 4170 2830 
Q 4347 2713 4450 2447 
Q 4519 2266 4519 1878 
L 4519 647 
Q 4519 378 4559 278 
Q 4591 209 4675 161 
Q 4759 113 4950 113 
L 4950 0 
L 3538 0 
L 3538 113 
L 3597 113 
Q 3781 113 3884 184 
Q 3956 234 3988 344 
Q 4000 397 4000 647 
L 4000 1878 
Q 4000 2228 3916 2372 
Q 3794 2572 3525 2572 
Q 3359 2572 3192 2489 
Q 3025 2406 2788 2181 
L 2781 2147 
L 2788 2013 
L 2788 647 
Q 2788 353 2820 281 
Q 2853 209 2943 161 
Q 3034 113 3253 113 
L 3253 0 
L 1806 0 
L 1806 113 
Q 2044 113 2133 169 
Q 2222 225 2256 338 
Q 2272 391 2272 647 
L 2272 1878 
Q 2272 2228 2169 2381 
Q 2031 2581 1784 2581 
Q 1616 2581 1450 2491 
Q 1191 2353 1050 2181 
L 1050 647 
Q 1050 366 1089 281 
Q 1128 197 1204 155 
Q 1281 113 1516 113 
L 1516 0 
L 100 0 
L 100 113 
Q 297 113 375 155 
Q 453 197 493 289 
Q 534 381 534 647 
L 534 1741 
Q 534 2213 506 2350 
Q 484 2453 437 2492 
Q 391 2531 309 2531 
Q 222 2531 100 2484 
L 53 2597 
L 916 2947 
L 1050 2947 
L 1050 2338 
z
" transform="scale(0.015625)"/>
       <path id="TimesNewRomanPSMT-65" d="M 681 1784 
Q 678 1147 991 784 
Q 1303 422 1725 422 
Q 2006 422 2214 576 
Q 2422 731 2563 1106 
L 2659 1044 
Q 2594 616 2278 264 
Q 1963 -88 1488 -88 
Q 972 -88 605 314 
Q 238 716 238 1394 
Q 238 2128 614 2539 
Q 991 2950 1559 2950 
Q 2041 2950 2350 2633 
Q 2659 2316 2659 1784 
L 681 1784 
z
M 681 1966 
L 2006 1966 
Q 1991 2241 1941 2353 
Q 1863 2528 1708 2628 
Q 1553 2728 1384 2728 
Q 1125 2728 920 2526 
Q 716 2325 681 1966 
z
" transform="scale(0.015625)"/>
       <path id="TimesNewRomanPSMT-28" d="M 1988 -1253 
L 1988 -1369 
Q 1516 -1131 1200 -813 
Q 750 -359 506 256 
Q 263 872 263 1534 
Q 263 2503 741 3301 
Q 1219 4100 1988 4444 
L 1988 4313 
Q 1603 4100 1356 3731 
Q 1109 3363 987 2797 
Q 866 2231 866 1616 
Q 866 947 969 400 
Q 1050 -31 1165 -292 
Q 1281 -553 1476 -793 
Q 1672 -1034 1988 -1253 
z
" transform="scale(0.015625)"/>
       <path id="TimesNewRomanPSMT-73" d="M 2050 2947 
L 2050 1972 
L 1947 1972 
Q 1828 2431 1642 2597 
Q 1456 2763 1169 2763 
Q 950 2763 815 2647 
Q 681 2531 681 2391 
Q 681 2216 781 2091 
Q 878 1963 1175 1819 
L 1631 1597 
Q 2266 1288 2266 781 
Q 2266 391 1970 151 
Q 1675 -88 1309 -88 
Q 1047 -88 709 6 
Q 606 38 541 38 
Q 469 38 428 -44 
L 325 -44 
L 325 978 
L 428 978 
Q 516 541 762 319 
Q 1009 97 1316 97 
Q 1531 97 1667 223 
Q 1803 350 1803 528 
Q 1803 744 1651 891 
Q 1500 1038 1047 1263 
Q 594 1488 453 1669 
Q 313 1847 313 2119 
Q 313 2472 555 2709 
Q 797 2947 1181 2947 
Q 1350 2947 1591 2875 
Q 1750 2828 1803 2828 
Q 1853 2828 1881 2850 
Q 1909 2872 1947 2947 
L 2050 2947 
z
" transform="scale(0.015625)"/>
       <path id="TimesNewRomanPSMT-29" d="M 144 4313 
L 144 4444 
Q 619 4209 934 3891 
Q 1381 3434 1625 2820 
Q 1869 2206 1869 1541 
Q 1869 572 1392 -226 
Q 916 -1025 144 -1369 
L 144 -1253 
Q 528 -1038 776 -670 
Q 1025 -303 1145 264 
Q 1266 831 1266 1447 
Q 1266 2113 1163 2663 
Q 1084 3094 967 3353 
Q 850 3613 656 3853 
Q 463 4094 144 4313 
z
" transform="scale(0.015625)"/>
      </defs>
      <use xlink:href="#TimesNewRomanPSMT-54"/>
      <use xlink:href="#TimesNewRomanPSMT-69" x="57.583984"/>
      <use xlink:href="#TimesNewRomanPSMT-6d" x="85.367188"/>
      <use xlink:href="#TimesNewRomanPSMT-65" x="163.150391"/>
      <use xlink:href="#TimesNewRomanPSMT-28" x="207.535156"/>
      <use xlink:href="#TimesNewRomanPSMT-73" x="240.835938"/>
      <use xlink:href="#TimesNewRomanPSMT-29" x="279.751953"/>
     </g>
    </g>
   </g>
   <g id="matplotlib.axis_2">
    <g id="ytick_1">
     <g id="line2d_5">
      <path d="M 230.4 585.36 
L 1658.88 585.36 
" clip-path="url(#p92235a89cc)" style="fill: none; stroke: #b0b0b0; stroke-width: 0.8; stroke-linecap: square"/>
     </g>
     <g id="line2d_6">
      <defs>
       <path id="ma92375cd9b" d="M 0 0 
L 5 0 
" style="stroke: #000000; stroke-width: 0.8"/>
      </defs>
      <g>
       <use xlink:href="#ma92375cd9b" x="230.4" y="585.36" style="stroke: #000000; stroke-width: 0.8"/>
      </g>
     </g>
     <g id="text_4">
      <!-- −0.1 -->
      <g transform="translate(129.76875 600.556875) scale(0.4 -0.4)">
       <defs>
        <path id="DejaVuSans-2212" d="M 678 2272 
L 4684 2272 
L 4684 1741 
L 678 1741 
L 678 2272 
z
" transform="scale(0.015625)"/>
        <path id="DejaVuSans-2e" d="M 684 794 
L 1344 794 
L 1344 0 
L 684 0 
L 684 794 
z
" transform="scale(0.015625)"/>
       </defs>
       <use xlink:href="#DejaVuSans-2212"/>
       <use xlink:href="#DejaVuSans-30" x="83.789062"/>
       <use xlink:href="#DejaVuSans-2e" x="147.412109"/>
       <use xlink:href="#DejaVuSans-31" x="179.199219"/>
      </g>
     </g>
    </g>
    <g id="ytick_2">
     <g id="line2d_7">
      <path d="M 230.4 474.48 
L 1658.88 474.48 
" clip-path="url(#p92235a89cc)" style="fill: none; stroke: #b0b0b0; stroke-width: 0.8; stroke-linecap: square"/>
     </g>
     <g id="line2d_8">
      <g>
       <use xlink:href="#ma92375cd9b" x="230.4" y="474.48" style="stroke: #000000; stroke-width: 0.8"/>
      </g>
     </g>
     <g id="text_5">
      <!-- 0.0 -->
      <g transform="translate(163.2875 489.676875) scale(0.4 -0.4)">
       <use xlink:href="#DejaVuSans-30"/>
       <use xlink:href="#DejaVuSans-2e" x="63.623047"/>
       <use xlink:href="#DejaVuSans-30" x="95.410156"/>
      </g>
     </g>
    </g>
    <g id="ytick_3">
     <g id="line2d_9">
      <path d="M 230.4 363.6 
L 1658.88 363.6 
" clip-path="url(#p92235a89cc)" style="fill: none; stroke: #b0b0b0; stroke-width: 0.8; stroke-linecap: square"/>
     </g>
     <g id="line2d_10">
      <g>
       <use xlink:href="#ma92375cd9b" x="230.4" y="363.6" style="stroke: #000000; stroke-width: 0.8"/>
      </g>
     </g>
     <g id="text_6">
      <!-- 0.1 -->
      <g transform="translate(163.2875 378.796875) scale(0.4 -0.4)">
       <use xlink:href="#DejaVuSans-30"/>
       <use xlink:href="#DejaVuSans-2e" x="63.623047"/>
       <use xlink:href="#DejaVuSans-31" x="95.410156"/>
      </g>
     </g>
    </g>
    <g id="ytick_4">
     <g id="line2d_11">
      <path d="M 230.4 252.72 
L 1658.88 252.72 
" clip-path="url(#p92235a89cc)" style="fill: none; stroke: #b0b0b0; stroke-width: 0.8; stroke-linecap: square"/>
     </g>
     <g id="line2d_12">
      <g>
       <use xlink:href="#ma92375cd9b" x="230.4" y="252.72" style="stroke: #000000; stroke-width: 0.8"/>
      </g>
     </g>
     <g id="text_7">
      <!-- 0.2 -->
      <g transform="translate(163.2875 267.916875) scale(0.4 -0.4)">
       <defs>
        <path id="DejaVuSans-32" d="M 1228 531 
L 3431 531 
L 3431 0 
L 469 0 
L 469 531 
Q 828 903 1448 1529 
Q 2069 2156 2228 2338 
Q 2531 2678 2651 2914 
Q 2772 3150 2772 3378 
Q 2772 3750 2511 3984 
Q 2250 4219 1831 4219 
Q 1534 4219 1204 4116 
Q 875 4013 500 3803 
L 500 4441 
Q 881 4594 1212 4672 
Q 1544 4750 1819 4750 
Q 2544 4750 2975 4387 
Q 3406 4025 3406 3419 
Q 3406 3131 3298 2873 
Q 3191 2616 2906 2266 
Q 2828 2175 2409 1742 
Q 1991 1309 1228 531 
z
" transform="scale(0.015625)"/>
       </defs>
       <use xlink:href="#DejaVuSans-30"/>
       <use xlink:href="#DejaVuSans-2e" x="63.623047"/>
       <use xlink:href="#DejaVuSans-32" x="95.410156"/>
      </g>
     </g>
    </g>
    <g id="ytick_5">
     <g id="line2d_13">
      <path d="M 230.4 141.84 
L 1658.88 141.84 
" clip-path="url(#p92235a89cc)" style="fill: none; stroke: #b0b0b0; stroke-width: 0.8; stroke-linecap: square"/>
     </g>
     <g id="line2d_14">
      <g>
       <use xlink:href="#ma92375cd9b" x="230.4" y="141.84" style="stroke: #000000; stroke-width: 0.8"/>
      </g>
     </g>
     <g id="text_8">
      <!-- 0.3 -->
      <g transform="translate(163.2875 157.036875) scale(0.4 -0.4)">
       <defs>
        <path id="DejaVuSans-33" d="M 2597 2516 
Q 3050 2419 3304 2112 
Q 3559 1806 3559 1356 
Q 3559 666 3084 287 
Q 2609 -91 1734 -91 
Q 1441 -91 1130 -33 
Q 819 25 488 141 
L 488 750 
Q 750 597 1062 519 
Q 1375 441 1716 441 
Q 2309 441 2620 675 
Q 2931 909 2931 1356 
Q 2931 1769 2642 2001 
Q 2353 2234 1838 2234 
L 1294 2234 
L 1294 2753 
L 1863 2753 
Q 2328 2753 2575 2939 
Q 2822 3125 2822 3475 
Q 2822 3834 2567 4026 
Q 2313 4219 1838 4219 
Q 1578 4219 1281 4162 
Q 984 4106 628 3988 
L 628 4550 
Q 988 4650 1302 4700 
Q 1616 4750 1894 4750 
Q 2613 4750 3031 4423 
Q 3450 4097 3450 3541 
Q 3450 3153 3228 2886 
Q 3006 2619 2597 2516 
z
" transform="scale(0.015625)"/>
       </defs>
       <use xlink:href="#DejaVuSans-30"/>
       <use xlink:href="#DejaVuSans-2e" x="63.623047"/>
       <use xlink:href="#DejaVuSans-33" x="95.410156"/>
      </g>
     </g>
    </g>
    <g id="text_9">
     <!-- Error(rad) -->
     <g transform="translate(117.2125 444.65) rotate(-90) scale(0.4 -0.4)">
      <defs>
       <path id="TimesNewRomanPSMT-45" d="M 1338 4006 
L 1338 2331 
L 2269 2331 
Q 2631 2331 2753 2441 
Q 2916 2584 2934 2947 
L 3050 2947 
L 3050 1472 
L 2934 1472 
Q 2891 1781 2847 1869 
Q 2791 1978 2662 2040 
Q 2534 2103 2269 2103 
L 1338 2103 
L 1338 706 
Q 1338 425 1363 364 
Q 1388 303 1450 267 
Q 1513 231 1688 231 
L 2406 231 
Q 2766 231 2928 281 
Q 3091 331 3241 478 
Q 3434 672 3638 1063 
L 3763 1063 
L 3397 0 
L 131 0 
L 131 116 
L 281 116 
Q 431 116 566 188 
Q 666 238 702 338 
Q 738 438 738 747 
L 738 3500 
Q 738 3903 656 3997 
Q 544 4122 281 4122 
L 131 4122 
L 131 4238 
L 3397 4238 
L 3444 3309 
L 3322 3309 
Q 3256 3644 3176 3769 
Q 3097 3894 2941 3959 
Q 2816 4006 2500 4006 
L 1338 4006 
z
" transform="scale(0.015625)"/>
       <path id="TimesNewRomanPSMT-72" d="M 1038 2947 
L 1038 2303 
Q 1397 2947 1775 2947 
Q 1947 2947 2059 2842 
Q 2172 2738 2172 2600 
Q 2172 2478 2090 2393 
Q 2009 2309 1897 2309 
Q 1788 2309 1652 2417 
Q 1516 2525 1450 2525 
Q 1394 2525 1328 2463 
Q 1188 2334 1038 2041 
L 1038 669 
Q 1038 431 1097 309 
Q 1138 225 1241 169 
Q 1344 113 1538 113 
L 1538 0 
L 72 0 
L 72 113 
Q 291 113 397 181 
Q 475 231 506 341 
Q 522 394 522 644 
L 522 1753 
Q 522 2253 501 2348 
Q 481 2444 426 2487 
Q 372 2531 291 2531 
Q 194 2531 72 2484 
L 41 2597 
L 906 2947 
L 1038 2947 
z
" transform="scale(0.015625)"/>
       <path id="TimesNewRomanPSMT-6f" d="M 1600 2947 
Q 2250 2947 2644 2453 
Q 2978 2031 2978 1484 
Q 2978 1100 2793 706 
Q 2609 313 2286 112 
Q 1963 -88 1566 -88 
Q 919 -88 538 428 
Q 216 863 216 1403 
Q 216 1797 411 2186 
Q 606 2575 925 2761 
Q 1244 2947 1600 2947 
z
M 1503 2744 
Q 1338 2744 1170 2645 
Q 1003 2547 900 2300 
Q 797 2053 797 1666 
Q 797 1041 1045 587 
Q 1294 134 1700 134 
Q 2003 134 2200 384 
Q 2397 634 2397 1244 
Q 2397 2006 2069 2444 
Q 1847 2744 1503 2744 
z
" transform="scale(0.015625)"/>
       <path id="TimesNewRomanPSMT-61" d="M 1822 413 
Q 1381 72 1269 19 
Q 1100 -59 909 -59 
Q 613 -59 420 144 
Q 228 347 228 678 
Q 228 888 322 1041 
Q 450 1253 767 1440 
Q 1084 1628 1822 1897 
L 1822 2009 
Q 1822 2438 1686 2597 
Q 1550 2756 1291 2756 
Q 1094 2756 978 2650 
Q 859 2544 859 2406 
L 866 2225 
Q 866 2081 792 2003 
Q 719 1925 600 1925 
Q 484 1925 411 2006 
Q 338 2088 338 2228 
Q 338 2497 613 2722 
Q 888 2947 1384 2947 
Q 1766 2947 2009 2819 
Q 2194 2722 2281 2516 
Q 2338 2381 2338 1966 
L 2338 994 
Q 2338 584 2353 492 
Q 2369 400 2405 369 
Q 2441 338 2488 338 
Q 2538 338 2575 359 
Q 2641 400 2828 588 
L 2828 413 
Q 2478 -56 2159 -56 
Q 2006 -56 1915 50 
Q 1825 156 1822 413 
z
M 1822 616 
L 1822 1706 
Q 1350 1519 1213 1441 
Q 966 1303 859 1153 
Q 753 1003 753 825 
Q 753 600 887 451 
Q 1022 303 1197 303 
Q 1434 303 1822 616 
z
" transform="scale(0.015625)"/>
       <path id="TimesNewRomanPSMT-64" d="M 2222 322 
Q 2013 103 1813 7 
Q 1613 -88 1381 -88 
Q 913 -88 563 304 
Q 213 697 213 1313 
Q 213 1928 600 2439 
Q 988 2950 1597 2950 
Q 1975 2950 2222 2709 
L 2222 3238 
Q 2222 3728 2198 3840 
Q 2175 3953 2125 3993 
Q 2075 4034 2000 4034 
Q 1919 4034 1784 3984 
L 1744 4094 
L 2597 4444 
L 2738 4444 
L 2738 1134 
Q 2738 631 2761 520 
Q 2784 409 2836 365 
Q 2888 322 2956 322 
Q 3041 322 3181 375 
L 3216 266 
L 2366 -88 
L 2222 -88 
L 2222 322 
z
M 2222 541 
L 2222 2016 
Q 2203 2228 2109 2403 
Q 2016 2578 1861 2667 
Q 1706 2756 1559 2756 
Q 1284 2756 1069 2509 
Q 784 2184 784 1559 
Q 784 928 1059 592 
Q 1334 256 1672 256 
Q 1956 256 2222 541 
z
" transform="scale(0.015625)"/>
      </defs>
      <use xlink:href="#TimesNewRomanPSMT-45"/>
      <use xlink:href="#TimesNewRomanPSMT-72" x="61.083984"/>
      <use xlink:href="#TimesNewRomanPSMT-72" x="94.384766"/>
      <use xlink:href="#TimesNewRomanPSMT-6f" x="127.685547"/>
      <use xlink:href="#TimesNewRomanPSMT-72" x="177.685547"/>
      <use xlink:href="#TimesNewRomanPSMT-28" x="210.986328"/>
      <use xlink:href="#TimesNewRomanPSMT-72" x="244.287109"/>
      <use xlink:href="#TimesNewRomanPSMT-61" x="277.587891"/>
      <use xlink:href="#TimesNewRomanPSMT-64" x="321.972656"/>
      <use xlink:href="#TimesNewRomanPSMT-29" x="371.972656"/>
     </g>
    </g>
   </g>
   <g id="line2d_15">
    <path d="M 295.330909 429.57728 
L 328.522468 429.490269 
L 335.437937 431.451199 
L 340.968416 442.462311 
L 346.501712 448.096388 
L 352.033059 451.356782 
L 357.566039 450.915558 
L 363.096876 450.084385 
L 368.628828 450.352784 
L 374.161264 448.202241 
L 379.692777 449.49119 
L 385.224625 450.501534 
L 390.756423 447.8709 
L 396.288434 452.19212 
L 400.437099 451.996016 
L 404.586285 449.181078 
L 408.735251 450.40106 
L 411.501176 447.0922 
L 414.267133 444.190953 
L 417.033069 444.498782 
L 419.798554 444.201863 
L 422.564806 445.137583 
L 425.33097 441.905591 
L 428.097 442.158196 
L 430.862216 439.630432 
L 433.628848 440.05018 
L 436.394864 440.06735 
L 439.160727 438.808407 
L 441.926168 439.52406 
L 444.692761 438.819146 
L 447.45866 441.307403 
L 450.224662 440.550591 
L 452.990594 440.439254 
L 455.756534 440.108687 
L 458.522706 440.287049 
L 461.28852 440.664054 
L 464.054015 442.275731 
L 466.820506 438.779907 
L 469.586409 439.553358 
L 472.352336 442.507384 
L 475.11846 442.789687 
L 477.884201 443.543152 
L 483.416106 443.868848 
L 486.18243 446.963545 
L 488.94912 446.510428 
L 491.713996 445.204421 
L 494.479993 445.853036 
L 497.245947 448.775597 
L 500.011881 446.8152 
L 502.777821 451.522931 
L 505.543817 450.510778 
L 508.309463 455.109063 
L 511.076403 454.060433 
L 513.841671 454.767331 
L 516.607585 454.274707 
L 519.373637 457.288656 
L 522.139557 463.77786 
L 524.90665 465.102889 
L 527.671455 464.00943 
L 530.436635 466.64104 
L 533.203396 469.890089 
L 535.969391 472.475877 
L 538.736377 469.143372 
L 541.501324 470.552998 
L 544.267861 471.813657 
L 547.033131 472.60315 
L 552.564602 473.021177 
L 555.331757 470.906934 
L 558.097039 469.680472 
L 560.862982 468.632889 
L 563.628169 473.645098 
L 566.394951 468.153277 
L 569.16171 470.155437 
L 571.92687 471.219782 
L 574.692581 471.633747 
L 578.841912 467.772968 
L 582.9917 466.806812 
L 587.140566 464.30855 
L 591.28856 461.489155 
L 595.437479 459.467243 
L 599.586491 458.561898 
L 603.73538 459.067404 
L 606.501244 457.852345 
L 609.267215 458.977169 
L 612.033147 459.500175 
L 614.799138 460.453453 
L 617.565122 461.547223 
L 620.331116 464.055937 
L 623.09699 464.829264 
L 625.863075 467.675387 
L 628.629057 471.062984 
L 631.395318 471.575766 
L 634.160895 474.127647 
L 636.927621 467.69111 
L 639.692771 466.898567 
L 642.458833 463.477041 
L 645.224815 456.631489 
L 647.990712 461.352518 
L 650.756621 451.052517 
L 653.522543 460.916447 
L 656.288603 453.402208 
L 659.054515 459.269149 
L 661.820552 457.896212 
L 664.58649 457.917042 
L 667.352358 457.272592 
L 670.118373 459.57101 
L 672.884611 462.08449 
L 675.651391 459.461866 
L 678.417362 468.388644 
L 681.182213 458.716445 
L 683.948109 457.473627 
L 686.715253 459.189401 
L 689.480582 458.246134 
L 692.245989 462.504905 
L 695.012076 456.985789 
L 697.777928 462.530755 
L 700.543888 452.381835 
L 703.309118 461.570859 
L 706.076947 460.682317 
L 708.84245 464.894308 
L 711.607699 457.200021 
L 714.373698 458.634375 
L 717.140682 458.82593 
L 719.905842 460.101284 
L 722.672498 458.248837 
L 728.20467 457.929298 
L 730.970604 458.318896 
L 733.736078 454.500337 
L 736.501661 454.126619 
L 739.267617 455.234722 
L 742.034432 453.741885 
L 744.799287 456.510122 
L 747.566003 449.71764 
L 750.331272 459.128012 
L 753.097177 455.799951 
L 755.863201 457.202373 
L 758.629059 454.204044 
L 764.160917 454.421627 
L 766.927928 450.936374 
L 769.692882 452.123765 
L 772.458913 449.916959 
L 775.225274 449.779873 
L 777.991574 446.82504 
L 780.756759 446.669805 
L 783.52287 445.98625 
L 786.28875 444.607 
L 789.054605 441.053863 
L 791.820614 439.664065 
L 794.586652 440.998035 
L 797.3525 438.379643 
L 800.118703 438.967836 
L 802.88442 435.417985 
L 805.651083 434.735479 
L 808.41635 432.542694 
L 811.182354 436.917991 
L 813.948347 429.925851 
L 816.714244 430.985415 
L 819.480253 429.696151 
L 822.246155 427.812882 
L 825.012107 432.602798 
L 827.778125 429.131642 
L 830.544299 428.057571 
L 833.311096 428.700108 
L 836.07593 428.52875 
L 838.841918 429.7423 
L 841.607878 427.929072 
L 844.373875 425.527295 
L 847.139851 428.249434 
L 849.905806 430.553019 
L 852.672788 429.177347 
L 855.438773 429.007398 
L 858.203612 428.160302 
L 860.969835 427.620573 
L 866.501521 428.550941 
L 869.267471 426.488189 
L 872.033483 425.272322 
L 874.799403 422.934987 
L 877.56535 423.088266 
L 880.331255 421.720809 
L 883.096733 423.554687 
L 885.863281 422.676728 
L 888.630002 420.296462 
L 891.395827 421.738707 
L 894.161275 420.981516 
L 896.927205 419.501068 
L 899.693014 420.232502 
L 902.459777 419.638238 
L 905.225954 420.698766 
L 907.990922 420.737313 
L 910.75688 418.488203 
L 913.522771 419.108782 
L 916.288635 420.724535 
L 919.05482 420.138361 
L 921.820658 420.404641 
L 924.586721 420.933042 
L 927.352615 420.919983 
L 930.118627 420.649598 
L 932.884283 421.356606 
L 935.650453 419.142355 
L 938.416458 418.837637 
L 941.182454 420.522856 
L 943.948338 417.833397 
L 946.714398 417.635551 
L 949.48069 420.733242 
L 952.246891 419.715389 
L 955.012897 421.341006 
L 957.778176 418.661196 
L 960.54409 418.876287 
L 963.310031 422.297026 
L 966.076053 418.642026 
L 968.843111 421.701042 
L 971.607987 421.36712 
L 974.373983 419.840327 
L 977.139893 420.307871 
L 979.905878 421.209187 
L 982.671101 419.726304 
L 985.437771 419.859489 
L 988.20375 419.227206 
L 990.970067 419.72962 
L 993.736799 418.633533 
L 996.502279 421.3544 
L 999.267804 420.485451 
L 1002.033249 419.339619 
L 1004.800085 420.186838 
L 1007.566561 420.879994 
L 1010.332544 421.99798 
L 1013.097958 421.653822 
L 1015.863639 421.182109 
L 1018.628484 421.410642 
L 1021.395269 420.488977 
L 1024.162257 421.578089 
L 1026.925989 420.586988 
L 1029.694141 421.788047 
L 1032.459229 418.364962 
L 1035.22501 419.142926 
L 1037.991035 419.144634 
L 1040.756988 418.240447 
L 1043.522933 418.030817 
L 1046.289947 419.016175 
L 1049.055056 418.820436 
L 1051.821962 419.531714 
L 1054.58788 418.458691 
L 1057.353269 421.073488 
L 1060.119104 418.182112 
L 1062.884608 419.226399 
L 1065.650574 418.346503 
L 1068.416519 416.983161 
L 1071.183196 419.422872 
L 1073.949107 418.661726 
L 1076.715184 420.234264 
L 1079.48039 418.63099 
L 1082.246439 418.570133 
L 1085.012408 418.677203 
L 1087.778269 419.27376 
L 1090.545281 418.959675 
L 1093.309998 419.353592 
L 1096.076148 418.667772 
L 1098.842211 418.988623 
L 1101.608164 417.978158 
L 1104.374024 419.290332 
L 1107.140052 418.505439 
L 1109.906885 418.322247 
L 1112.67297 417.535606 
L 1115.437905 418.407504 
L 1118.203868 417.23741 
L 1123.735794 416.570808 
L 1126.501805 412.773651 
L 1129.267749 415.895137 
L 1132.034752 414.98489 
L 1134.799853 414.710007 
L 1137.565761 414.14044 
L 1140.332284 414.669467 
L 1143.097498 413.909536 
L 1145.863427 413.554713 
L 1148.629449 413.743357 
L 1151.395369 414.431371 
L 1156.927344 413.957541 
L 1159.693296 414.814621 
L 1162.459184 415.222935 
L 1165.225243 414.201976 
L 1167.992145 415.536276 
L 1170.757831 415.810862 
L 1173.52375 418.087302 
L 1176.289468 417.779672 
L 1179.055617 420.104872 
L 1181.821675 419.414753 
L 1184.587791 421.47246 
L 1187.352318 419.856941 
L 1190.118778 424.598437 
L 1192.884772 420.626248 
L 1195.6507 422.175638 
L 1198.416752 424.372225 
L 1201.182684 422.459177 
L 1203.949456 423.213067 
L 1206.71504 421.187947 
L 1209.480618 421.451303 
L 1212.247076 422.851365 
L 1215.012456 422.33689 
L 1217.778422 419.671364 
L 1220.544967 420.341833 
L 1223.310359 422.581058 
L 1226.076274 422.943894 
L 1228.842643 423.767938 
L 1231.608781 423.845659 
L 1234.374311 424.047555 
L 1237.140646 425.39506 
L 1242.672059 425.11029 
L 1245.438072 424.773708 
L 1248.20506 425.459368 
L 1250.969997 426.558806 
L 1253.736591 428.749413 
L 1256.501918 429.214601 
L 1259.267774 427.918614 
L 1262.033704 430.00522 
L 1264.799706 431.150696 
L 1270.33165 430.27497 
L 1273.097649 430.077911 
L 1275.863824 430.076354 
L 1278.629586 429.745412 
L 1281.396622 428.686309 
L 1284.161458 428.779938 
L 1286.928475 429.07642 
L 1289.693428 430.443391 
L 1292.459835 428.74494 
L 1295.226063 428.328075 
L 1297.991786 430.578609 
L 1300.758334 430.281165 
L 1303.523254 431.820713 
L 1306.288334 432.636654 
L 1309.05509 436.328631 
L 1311.82105 435.259663 
L 1317.352985 438.788592 
L 1320.119632 439.603227 
L 1322.885946 442.495407 
L 1325.651739 440.217284 
L 1328.417968 437.308957 
L 1331.183471 438.410938 
L 1333.948814 437.380797 
L 1336.714718 437.179389 
L 1339.481044 434.626708 
L 1342.246698 435.249741 
L 1345.012532 432.4388 
L 1347.778732 434.405991 
L 1350.545567 435.321359 
L 1353.311378 432.890398 
L 1356.077076 428.673023 
L 1358.842401 429.261516 
L 1361.608435 425.353632 
L 1364.374322 427.385034 
L 1367.140377 429.266362 
L 1369.90735 424.640575 
L 1372.672196 423.172332 
L 1375.438172 424.365987 
L 1378.204186 421.42377 
L 1380.970073 424.251347 
L 1383.736038 423.290095 
L 1386.502516 426.365455 
L 1389.268005 419.628551 
L 1392.033968 418.459226 
L 1394.799878 420.644165 
L 1397.565841 421.753632 
L 1400.331804 405.261892 
L 1403.098734 419.292861 
L 1405.863779 417.86553 
L 1408.629691 411.106224 
L 1411.396463 415.736832 
L 1414.162242 409.737861 
L 1416.92821 411.673754 
L 1419.693479 409.26197 
L 1422.459486 419.285504 
L 1425.225518 415.65754 
L 1427.991407 417.471905 
L 1430.757306 415.71297 
L 1433.523345 420.619747 
L 1436.289283 428.001434 
L 1439.054469 427.598169 
L 1441.82125 428.87894 
L 1444.587407 428.402705 
L 1447.354261 435.686924 
L 1450.119092 435.931411 
L 1452.885006 471.384754 
L 1455.650987 407.276923 
L 1459.799468 459.658143 
L 1463.948935 429.008141 
L 1468.097833 459.92081 
L 1470.863469 456.503183 
L 1473.629782 460.316356 
L 1476.395712 463.907278 
L 1479.163585 465.636051 
L 1481.927895 465.744727 
L 1484.693634 468.232868 
L 1487.460225 471.557494 
L 1490.225567 472.009949 
L 1492.991579 470.746094 
L 1495.757476 465.776766 
L 1498.523659 461.146268 
L 1501.289435 458.00203 
L 1504.055953 456.76207 
L 1508.20428 453.105507 
L 1510.970157 448.888336 
L 1513.736133 450.744647 
L 1516.502721 449.044879 
L 1519.268753 450.220694 
L 1522.034025 448.244267 
L 1524.800083 449.061654 
L 1527.565987 446.991914 
L 1530.331876 448.391395 
L 1533.097831 448.917659 
L 1535.863965 452.329701 
L 1540.012768 456.946598 
L 1544.161696 463.656348 
L 1548.310691 470.012083 
L 1552.459607 467.202538 
L 1556.608526 452.830161 
L 1560.758148 441.175161 
L 1564.907128 435.045051 
L 1569.055443 422.48597 
L 1573.203497 417.117489 
L 1577.354382 417.011862 
L 1581.501407 411.792519 
L 1585.651159 409.33179 
L 1589.800081 408.255409 
L 1593.949091 407.488461 
L 1593.949091 407.488461 
" clip-path="url(#p92235a89cc)" style="fill: none; stroke: #00ff00; stroke-width: 1.5; stroke-linecap: square"/>
   </g>
   <g id="line2d_16">
    <path d="M 295.330909 412.452412 
L 335.437937 402.968126 
L 340.968416 405.111658 
L 346.501712 410.158578 
L 352.033059 410.780348 
L 357.566039 410.706515 
L 363.096876 407.846452 
L 368.628828 406.400489 
L 374.161264 409.188448 
L 379.692777 405.882834 
L 385.224625 401.769118 
L 390.756423 404.411051 
L 396.288434 407.738212 
L 400.437099 408.589712 
L 404.586285 406.722228 
L 408.735251 409.416188 
L 411.501176 409.871693 
L 414.267133 409.466755 
L 417.033069 409.809764 
L 419.798554 410.580426 
L 422.564806 411.498094 
L 425.33097 411.623301 
L 430.862216 409.241955 
L 433.628848 409.89571 
L 436.394864 410.822245 
L 439.160727 411.398105 
L 441.926168 411.239457 
L 444.692761 411.676867 
L 447.45866 411.271814 
L 450.224662 411.700109 
L 452.990594 411.203576 
L 458.522706 411.216061 
L 461.28852 411.513458 
L 469.586409 411.155978 
L 472.352336 410.842154 
L 475.11846 410.29436 
L 477.884201 409.250791 
L 480.650146 410.100299 
L 483.416106 409.604174 
L 486.18243 409.735602 
L 494.479993 408.427264 
L 497.245947 409.189489 
L 500.011881 407.471939 
L 502.777821 407.284654 
L 508.309463 406.236337 
L 511.076403 405.914241 
L 513.841671 406.114243 
L 516.607585 407.026188 
L 519.373637 405.394046 
L 522.139557 406.655305 
L 530.436635 405.383091 
L 535.969391 406.186336 
L 538.736377 405.544092 
L 541.501324 405.875936 
L 544.267861 404.819334 
L 547.033131 404.842815 
L 549.799229 405.551886 
L 552.564602 405.339138 
L 555.331757 406.268448 
L 558.097039 405.712218 
L 560.862982 405.009416 
L 563.628169 403.228693 
L 566.394951 406.289268 
L 569.16171 404.6694 
L 571.92687 405.351633 
L 574.692581 405.723963 
L 578.841912 404.729674 
L 582.9917 405.049612 
L 587.140566 406.327004 
L 591.28856 405.928116 
L 595.437479 406.848811 
L 599.586491 407.404618 
L 603.73538 408.134763 
L 606.501244 407.353971 
L 609.267215 407.535276 
L 612.033147 407.836814 
L 614.799138 408.285885 
L 617.565122 408.091064 
L 620.331116 406.459632 
L 623.09699 406.513358 
L 625.863075 406.382046 
L 628.629057 406.007401 
L 631.395318 406.014687 
L 634.160895 405.361152 
L 636.927621 405.64523 
L 639.692771 405.217622 
L 642.458833 406.163909 
L 645.224815 407.563886 
L 647.990712 407.841219 
L 650.756621 408.389529 
L 653.522543 408.736938 
L 656.288603 407.141687 
L 659.054515 407.741981 
L 661.820552 409.071575 
L 664.58649 408.595026 
L 667.352358 408.736487 
L 670.118373 407.951106 
L 672.884611 408.756391 
L 675.651391 409.3611 
L 678.417362 408.075029 
L 681.182213 410.42161 
L 683.948109 409.326059 
L 686.715253 408.466893 
L 689.480582 409.007149 
L 692.245989 409.099786 
L 695.012076 408.660426 
L 697.777928 408.996671 
L 700.543888 409.714481 
L 703.309118 409.001332 
L 706.076947 409.392329 
L 708.84245 410.974423 
L 711.607699 408.911086 
L 714.373698 408.648466 
L 717.140682 408.869962 
L 719.905842 410.076415 
L 722.672498 408.630244 
L 725.438461 409.860594 
L 728.20467 410.590176 
L 730.970604 410.26969 
L 733.736078 411.259719 
L 736.501661 411.39775 
L 739.267617 412.081976 
L 742.034432 411.311323 
L 744.799287 411.162194 
L 747.566003 410.534652 
L 750.331272 411.030328 
L 755.863201 410.034732 
L 758.629059 411.13645 
L 761.395074 410.898657 
L 764.160917 411.433438 
L 766.927928 411.508397 
L 769.692882 412.754938 
L 772.458913 412.883913 
L 775.225274 414.0832 
L 777.991574 414.807474 
L 780.756759 414.11849 
L 783.52287 414.913796 
L 786.28875 417.471911 
L 789.054605 417.563292 
L 791.820614 417.462258 
L 794.586652 416.430401 
L 797.3525 419.60598 
L 800.118703 420.380576 
L 802.88442 421.474206 
L 805.651083 422.716544 
L 808.41635 422.780003 
L 811.182354 424.498753 
L 813.948347 423.60054 
L 816.714244 425.154896 
L 819.480253 426.510628 
L 822.246155 426.509219 
L 825.012107 428.51497 
L 827.778125 427.168528 
L 833.311096 428.828351 
L 836.07593 428.245263 
L 838.841918 428.596869 
L 844.373875 427.806938 
L 847.139851 428.856946 
L 849.905806 428.958204 
L 852.672788 428.351844 
L 855.438773 429.510341 
L 858.203612 429.894653 
L 860.969835 429.226664 
L 863.735599 429.747424 
L 866.501521 430.734258 
L 869.267471 430.472504 
L 872.033483 430.643095 
L 874.799403 433.100523 
L 877.56535 435.193565 
L 880.331255 433.752257 
L 883.096733 434.935088 
L 885.863281 435.757681 
L 888.630002 436.800703 
L 891.395827 437.143382 
L 894.161275 437.832994 
L 896.927205 439.669477 
L 899.693014 438.836326 
L 902.459777 439.467969 
L 905.225954 441.029965 
L 907.990922 440.40683 
L 910.75688 440.617169 
L 916.288635 439.54156 
L 919.05482 440.075969 
L 921.820658 440.07107 
L 924.586721 439.01723 
L 927.352615 438.362719 
L 930.118627 439.003504 
L 932.884283 438.815772 
L 935.650453 441.423037 
L 938.416458 440.46584 
L 941.182454 440.870874 
L 943.948338 440.639656 
L 946.714398 442.120824 
L 949.48069 440.84182 
L 952.246891 439.875205 
L 955.012897 440.991666 
L 960.54409 440.713416 
L 963.310031 439.205862 
L 966.076053 438.962809 
L 968.843111 440.100891 
L 971.607987 439.067689 
L 974.373983 438.388921 
L 977.139893 438.187047 
L 979.905878 437.389203 
L 982.671101 437.11997 
L 985.437771 437.479357 
L 988.20375 438.394777 
L 990.970067 438.096519 
L 993.736799 437.949849 
L 996.502279 437.413478 
L 999.267804 437.212531 
L 1004.800085 437.643511 
L 1007.566561 437.396672 
L 1010.332544 436.949368 
L 1013.097958 437.587854 
L 1015.863639 437.685805 
L 1018.628484 437.517716 
L 1021.395269 437.734286 
L 1024.162257 438.572461 
L 1026.925989 438.489083 
L 1029.694141 439.954785 
L 1032.459229 438.587761 
L 1035.22501 439.015885 
L 1037.991035 439.314374 
L 1040.756988 437.777395 
L 1043.522933 439.835945 
L 1046.289947 439.446551 
L 1049.055056 439.521609 
L 1051.821962 439.144893 
L 1054.58788 439.671874 
L 1057.353269 437.810421 
L 1060.119104 440.499093 
L 1062.884608 440.739848 
L 1065.650574 441.376705 
L 1068.416519 440.623562 
L 1071.183196 439.37852 
L 1073.949107 439.933007 
L 1076.715184 439.822358 
L 1079.48039 440.463878 
L 1082.246439 440.042327 
L 1085.012408 440.404199 
L 1087.778269 440.544209 
L 1090.545281 440.282942 
L 1093.309998 439.296655 
L 1096.076148 440.993266 
L 1098.842211 442.042506 
L 1101.608164 441.133181 
L 1104.374024 440.846339 
L 1107.140052 441.918555 
L 1109.906885 442.215211 
L 1112.67297 442.776954 
L 1115.437905 443.734328 
L 1118.203868 445.360887 
L 1120.96987 444.901423 
L 1123.735794 444.735143 
L 1126.501805 451.319659 
L 1129.267749 446.716348 
L 1132.034752 448.191858 
L 1134.799853 449.266704 
L 1137.565761 448.25455 
L 1140.332284 449.560752 
L 1143.097498 450.110148 
L 1145.863427 450.354258 
L 1148.629449 449.624021 
L 1151.395369 449.265844 
L 1154.161431 448.642212 
L 1156.927344 447.876114 
L 1159.693296 446.490344 
L 1162.459184 445.726122 
L 1165.225243 445.204817 
L 1167.992145 444.868012 
L 1170.757831 443.182499 
L 1173.52375 441.33793 
L 1176.289468 439.650161 
L 1179.055617 438.698638 
L 1181.821675 437.569135 
L 1184.587791 436.016059 
L 1187.352318 435.85007 
L 1190.118778 434.030478 
L 1192.884772 433.016043 
L 1198.416752 432.370318 
L 1201.182684 432.137817 
L 1206.71504 432.201226 
L 1209.480618 432.776109 
L 1212.247076 432.144257 
L 1215.012456 430.674878 
L 1217.778422 431.834841 
L 1220.544967 431.185984 
L 1223.310359 429.858981 
L 1226.076274 429.686614 
L 1228.842643 429.064989 
L 1231.608781 429.349676 
L 1234.374311 427.731374 
L 1237.140646 427.885393 
L 1239.906038 427.293589 
L 1242.672059 427.478276 
L 1245.438072 426.166812 
L 1248.20506 425.986283 
L 1250.969997 424.967665 
L 1253.736591 424.088805 
L 1256.501918 422.273182 
L 1262.033704 422.354482 
L 1264.799706 423.42545 
L 1267.565819 422.816297 
L 1270.33165 421.848083 
L 1273.097649 420.582892 
L 1275.863824 420.42172 
L 1278.629586 421.744664 
L 1281.396622 422.939785 
L 1284.161458 423.105693 
L 1286.928475 423.067633 
L 1289.693428 423.290194 
L 1292.459835 422.737276 
L 1295.226063 422.462116 
L 1297.991786 421.137407 
L 1303.523254 421.456104 
L 1306.288334 419.378642 
L 1309.05509 419.300396 
L 1311.82105 418.222384 
L 1314.587095 416.914738 
L 1320.119632 418.574051 
L 1322.885946 417.394983 
L 1325.651739 417.21942 
L 1328.417968 416.832127 
L 1331.183471 417.630948 
L 1333.948814 416.5561 
L 1336.714718 415.626474 
L 1339.481044 418.981902 
L 1342.246698 418.42974 
L 1345.012532 419.471849 
L 1347.778732 420.345393 
L 1350.545567 421.629374 
L 1353.311378 420.966181 
L 1356.077076 423.808304 
L 1358.842401 423.947274 
L 1361.608435 426.161219 
L 1364.374322 423.476831 
L 1367.140377 425.188437 
L 1369.90735 429.36386 
L 1372.672196 428.75874 
L 1375.438172 428.767732 
L 1378.204186 427.708691 
L 1380.970073 430.622141 
L 1383.736038 429.78032 
L 1386.502516 429.850738 
L 1389.268005 428.910655 
L 1392.033968 431.165447 
L 1394.799878 430.628444 
L 1397.565841 435.299176 
L 1400.331804 431.734731 
L 1403.098734 433.879645 
L 1405.863779 433.167067 
L 1411.396463 435.349437 
L 1414.162242 434.562557 
L 1416.92821 436.222415 
L 1419.693479 436.046022 
L 1422.459486 434.560748 
L 1425.225518 433.388161 
L 1427.991407 435.482352 
L 1430.757306 430.452154 
L 1433.523345 427.771203 
L 1436.289283 426.473467 
L 1439.054469 423.218512 
L 1441.82125 422.641037 
L 1444.587407 416.727668 
L 1447.354261 413.781673 
L 1450.119092 413.415107 
L 1452.885006 417.03472 
L 1455.650987 419.207408 
L 1459.799468 416.756764 
L 1463.948935 405.816096 
L 1468.097833 400.949124 
L 1470.863469 406.81414 
L 1473.629782 406.708414 
L 1476.395712 405.009472 
L 1479.163585 403.611594 
L 1481.927895 405.345323 
L 1484.693634 402.474067 
L 1487.460225 400.905587 
L 1490.225567 403.527834 
L 1492.991579 406.757675 
L 1495.757476 403.759048 
L 1498.523659 404.273523 
L 1501.289435 406.042296 
L 1504.055953 406.49919 
L 1508.20428 406.902321 
L 1510.970157 406.901164 
L 1513.736133 408.444431 
L 1516.502721 409.689205 
L 1519.268753 407.681013 
L 1524.800083 408.398482 
L 1527.565987 408.952693 
L 1530.331876 408.460309 
L 1533.097831 408.317432 
L 1535.863965 406.803921 
L 1540.012768 406.08437 
L 1544.161696 405.134753 
L 1548.310691 401.913834 
L 1552.459607 401.639091 
L 1560.758148 412.293983 
L 1564.907128 418.157895 
L 1573.203497 434.446879 
L 1577.354382 436.046574 
L 1581.501407 442.520955 
L 1585.651159 445.917496 
L 1589.800081 451.285586 
L 1593.949091 453.920669 
L 1593.949091 453.920669 
" clip-path="url(#p92235a89cc)" style="fill: none; stroke: #0000ff; stroke-width: 1.5; stroke-linecap: square"/>
   </g>
   <g id="line2d_17">
    <path d="M 295.330909 474.48 
L 328.522468 473.347813 
L 335.437937 474.213955 
L 340.968416 474.335308 
L 346.501712 473.836943 
L 352.033059 474.254845 
L 357.566039 474.414195 
L 363.096876 474.00139 
L 368.628828 474.333032 
L 390.756423 474.194531 
L 396.288434 473.958765 
L 400.437099 474.446485 
L 404.586285 473.704023 
L 408.735251 473.445611 
L 411.501176 472.605004 
L 414.267133 471.592957 
L 417.033069 471.732043 
L 419.798554 472.086275 
L 422.564806 471.673008 
L 425.33097 470.674253 
L 428.097 470.745102 
L 430.862216 470.188627 
L 433.628848 470.77528 
L 436.394864 470.640027 
L 441.926168 471.44951 
L 444.692761 471.611396 
L 447.45866 471.88699 
L 450.224662 471.813548 
L 452.990594 471.905611 
L 458.522706 473.010894 
L 461.28852 472.614785 
L 464.054015 472.630994 
L 466.820506 472.869412 
L 469.586409 472.489108 
L 472.352336 471.958986 
L 475.11846 472.417252 
L 477.884201 473.691964 
L 483.416106 473.73783 
L 486.18243 472.986317 
L 488.94912 472.069703 
L 491.713996 472.460032 
L 494.479993 472.502648 
L 497.245947 471.773576 
L 500.011881 472.164188 
L 502.777821 473.010195 
L 505.543817 472.645219 
L 508.309463 472.945176 
L 511.076403 472.674708 
L 513.841671 473.073381 
L 516.607585 472.333409 
L 519.373637 473.114084 
L 524.90665 473.489581 
L 527.671455 472.754036 
L 533.203396 473.331098 
L 535.969391 473.318706 
L 538.736377 472.849618 
L 541.501324 473.4588 
L 544.267861 472.861382 
L 547.033131 473.624404 
L 549.799229 473.163428 
L 552.564602 473.395601 
L 555.331757 473.0293 
L 558.097039 473.33427 
L 560.862982 472.761075 
L 563.628169 472.395318 
L 566.394951 472.838499 
L 569.16171 473.59696 
L 571.92687 473.07738 
L 574.692581 473.245247 
L 578.841912 472.490686 
L 582.9917 473.259754 
L 587.140566 472.603905 
L 591.28856 472.519319 
L 595.437479 472.590869 
L 599.586491 472.103545 
L 603.73538 472.855029 
L 606.501244 472.775751 
L 609.267215 472.351612 
L 612.033147 472.126205 
L 617.565122 472.274424 
L 620.331116 472.737547 
L 623.09699 472.298365 
L 625.863075 472.547242 
L 628.629057 472.338465 
L 631.395318 473.090036 
L 634.160895 472.726279 
L 636.927621 473.507722 
L 639.692771 473.50184 
L 645.224815 472.926001 
L 647.990712 472.497972 
L 650.756621 471.747855 
L 653.522543 473.441368 
L 656.288603 473.613235 
L 659.054515 473.973291 
L 661.820552 473.087888 
L 664.58649 473.163627 
L 667.352358 473.120206 
L 670.118373 472.37683 
L 672.884611 473.334138 
L 675.651391 473.643834 
L 678.417362 473.129458 
L 681.182213 473.745744 
L 683.948109 472.824389 
L 686.715253 472.545623 
L 689.480582 472.818639 
L 692.245989 472.065019 
L 695.012076 472.375045 
L 700.543888 472.280603 
L 706.076947 472.704667 
L 708.84245 472.265204 
L 711.607699 472.634877 
L 714.373698 472.466546 
L 717.140682 473.13002 
L 719.905842 472.736688 
L 722.672498 473.534621 
L 725.438461 472.751161 
L 728.20467 472.261735 
L 730.970604 472.966019 
L 733.736078 472.988621 
L 736.501661 473.624338 
L 739.267617 473.170037 
L 742.034432 473.624932 
L 744.799287 472.528373 
L 747.566003 473.773304 
L 750.331272 472.892494 
L 753.097177 473.338169 
L 755.863201 472.982806 
L 758.629059 472.773632 
L 761.395074 472.854856 
L 764.160917 472.409015 
L 766.927928 472.651961 
L 769.692882 472.153777 
L 772.458913 471.998797 
L 775.225274 471.509337 
L 780.756759 472.075395 
L 783.52287 473.833776 
L 786.28875 473.371875 
L 789.054605 472.731599 
L 791.820614 473.679853 
L 794.586652 472.731467 
L 797.3525 472.947778 
L 800.118703 471.947313 
L 802.88442 472.700801 
L 805.651083 472.722016 
L 808.41635 473.327066 
L 811.182354 472.752285 
L 816.714244 472.855253 
L 819.480253 473.209163 
L 822.246155 472.727766 
L 825.012107 472.827825 
L 827.778125 472.202023 
L 830.544299 471.042282 
L 833.311096 471.947842 
L 836.07593 471.703046 
L 838.841918 472.186624 
L 841.607878 472.016245 
L 844.373875 471.988751 
L 847.139851 472.902441 
L 849.905806 472.395137 
L 852.672788 472.485613 
L 855.438773 472.458649 
L 858.203612 472.719306 
L 860.969835 473.206585 
L 863.735599 472.438756 
L 866.501521 472.610721 
L 869.267471 471.230042 
L 872.033483 473.147369 
L 874.799403 474.14215 
L 877.56535 473.576951 
L 880.331255 473.465392 
L 883.096733 474.479075 
L 885.863281 474.061388 
L 888.630002 474.416686 
L 891.395827 473.318012 
L 894.161275 473.619513 
L 896.927205 474.37505 
L 899.693014 474.038786 
L 902.459777 473.81646 
L 905.225954 472.433601 
L 907.990922 473.539677 
L 910.75688 473.206982 
L 913.522771 473.270428 
L 916.288635 474.024775 
L 919.05482 472.743429 
L 921.820658 473.53439 
L 924.586721 473.501477 
L 927.352615 474.467707 
L 930.118627 473.093307 
L 932.884283 472.725981 
L 935.650453 474.469293 
L 941.182454 474.027418 
L 943.948338 474.323764 
L 946.714398 473.514034 
L 949.48069 474.396991 
L 952.246891 473.049424 
L 955.012897 473.493678 
L 957.778176 474.173344 
L 960.54409 472.611646 
L 966.076053 472.564723 
L 968.843111 472.566705 
L 971.607987 472.382976 
L 974.373983 471.543638 
L 977.139893 472.321513 
L 979.905878 472.962979 
L 982.671101 472.529695 
L 985.437771 472.694787 
L 988.20375 473.223768 
L 990.970067 473.907135 
L 993.736799 474.42726 
L 996.502279 473.635242 
L 999.267804 472.007455 
L 1004.800085 473.401946 
L 1007.566561 471.928147 
L 1010.332544 472.003357 
L 1013.097958 472.521368 
L 1015.863639 472.22978 
L 1018.628484 472.11148 
L 1021.395269 470.888822 
L 1024.162257 472.777399 
L 1026.925989 472.127606 
L 1029.694141 471.260906 
L 1032.459229 472.045522 
L 1035.22501 471.204466 
L 1040.756988 470.867805 
L 1043.522933 471.50557 
L 1046.289947 471.349863 
L 1049.055056 470.94817 
L 1051.821962 470.277757 
L 1054.58788 471.330433 
L 1057.353269 470.372926 
L 1060.119104 469.73027 
L 1062.884608 470.926625 
L 1065.650574 470.702581 
L 1068.416519 469.903557 
L 1071.183196 469.984716 
L 1073.949107 469.544691 
L 1079.48039 470.605165 
L 1082.246439 470.178226 
L 1085.012408 469.460625 
L 1087.778269 469.946119 
L 1090.545281 470.033093 
L 1096.076148 469.469877 
L 1098.842211 470.091913 
L 1101.608164 469.494727 
L 1104.374024 469.857427 
L 1107.140052 469.094356 
L 1109.906885 469.666824 
L 1112.67297 469.603378 
L 1115.437905 469.290114 
L 1118.203868 469.344571 
L 1120.96987 468.824578 
L 1123.735794 466.397899 
L 1126.501805 470.052523 
L 1129.267749 470.263085 
L 1132.034752 467.941621 
L 1134.799853 469.365588 
L 1137.565761 471.641186 
L 1140.332284 470.104866 
L 1143.097498 470.967072 
L 1148.629449 470.184967 
L 1151.395369 469.935413 
L 1154.161431 469.441591 
L 1162.459184 469.818698 
L 1165.225243 470.24643 
L 1167.992145 470.308951 
L 1173.52375 470.957423 
L 1176.289468 470.072747 
L 1179.055617 470.364202 
L 1181.821675 470.335255 
L 1184.587791 470.712495 
L 1187.352318 470.456199 
L 1190.118778 470.492284 
L 1201.182684 469.710708 
L 1206.71504 470.435249 
L 1209.480618 470.730801 
L 1215.012456 469.83608 
L 1217.778422 470.488583 
L 1220.544967 470.773958 
L 1223.310359 470.023378 
L 1226.076274 470.154169 
L 1231.608781 471.278817 
L 1234.374311 470.02893 
L 1237.140646 469.711237 
L 1239.906038 470.488715 
L 1242.672059 470.627107 
L 1245.438072 471.003025 
L 1250.969997 469.77693 
L 1253.736591 470.012539 
L 1256.501918 471.057879 
L 1259.267774 470.747456 
L 1262.033704 469.734236 
L 1264.799706 470.292891 
L 1267.565819 470.586263 
L 1270.33165 470.292297 
L 1273.097649 469.526714 
L 1275.863824 470.973615 
L 1278.629586 470.280136 
L 1281.396622 470.32131 
L 1284.161458 471.337438 
L 1286.928475 471.206515 
L 1289.693428 472.044663 
L 1292.459835 471.077772 
L 1295.226063 469.944599 
L 1297.991786 469.869786 
L 1300.758334 470.253833 
L 1303.523254 470.495787 
L 1306.288334 470.245902 
L 1309.05509 470.527444 
L 1311.82105 469.29474 
L 1314.587095 469.573968 
L 1317.352985 470.680375 
L 1320.119632 471.175452 
L 1322.885946 471.010493 
L 1325.651739 469.97044 
L 1328.417968 468.354417 
L 1331.183471 469.792791 
L 1333.948814 468.342454 
L 1336.714718 470.671982 
L 1339.481044 472.329576 
L 1342.246698 471.191578 
L 1345.012532 470.33889 
L 1347.778732 470.026749 
L 1350.545567 469.455007 
L 1353.311378 470.07506 
L 1356.077076 470.451771 
L 1358.842401 470.296394 
L 1361.608435 470.755255 
L 1367.140377 470.504114 
L 1369.90735 470.667289 
L 1372.672196 471.346823 
L 1375.438172 470.972756 
L 1378.204186 472.347949 
L 1380.970073 471.602458 
L 1383.736038 471.037193 
L 1386.502516 469.50702 
L 1389.268005 472.021796 
L 1394.799878 470.884658 
L 1397.565841 472.515552 
L 1400.331804 473.599818 
L 1403.098734 473.711642 
L 1405.863779 473.116835 
L 1408.629691 473.471671 
L 1411.396463 473.296269 
L 1414.162242 473.342531 
L 1416.92821 473.621694 
L 1419.693479 473.273798 
L 1422.459486 473.184445 
L 1427.991407 474.260913 
L 1430.757306 473.164816 
L 1433.523345 472.622154 
L 1436.289283 472.408553 
L 1439.054469 472.372468 
L 1441.82125 472.573975 
L 1444.587407 471.995889 
L 1447.354261 471.827294 
L 1450.119092 472.255753 
L 1452.885006 451.74487 
L 1455.650987 436.967823 
L 1459.799468 440.261004 
L 1463.948935 450.464383 
L 1468.097833 452.181392 
L 1470.863469 469.196514 
L 1473.629782 469.4749 
L 1476.395712 468.593644 
L 1479.163585 468.031213 
L 1481.927895 468.054349 
L 1484.693634 467.456614 
L 1487.460225 467.245862 
L 1490.225567 466.43562 
L 1492.991579 466.506435 
L 1495.757476 465.90231 
L 1498.523659 465.948192 
L 1501.289435 465.704718 
L 1504.055953 464.549537 
L 1508.20428 464.488272 
L 1510.970157 464.250085 
L 1513.736133 464.367923 
L 1516.502721 464.13922 
L 1519.268753 463.656898 
L 1522.034025 463.365839 
L 1524.800083 463.238352 
L 1527.565987 463.58215 
L 1530.331876 464.78898 
L 1533.097831 465.413527 
L 1535.863965 465.422978 
L 1540.012768 466.464584 
L 1544.161696 467.051856 
L 1548.310691 467.512294 
L 1552.459607 469.063641 
L 1556.608526 469.761993 
L 1560.758148 471.370219 
L 1564.907128 469.6887 
L 1569.055443 466.28971 
L 1573.203497 466.209279 
L 1577.354382 469.480187 
L 1581.501407 469.845663 
L 1585.651159 468.604632 
L 1593.949091 469.834692 
L 1593.949091 469.834692 
" clip-path="url(#p92235a89cc)" style="fill: none; stroke: #9933fa; stroke-width: 1.5; stroke-linecap: square"/>
   </g>
   <g id="patch_3">
    <path d="M 230.4 640.8 
L 230.4 86.4 
" style="fill: none; stroke: #000000; stroke-width: 3; stroke-linejoin: miter; stroke-linecap: square"/>
   </g>
   <g id="patch_4">
    <path d="M 1658.88 640.8 
L 1658.88 86.4 
" style="fill: none; stroke: #000000; stroke-width: 3; stroke-linejoin: miter; stroke-linecap: square"/>
   </g>
   <g id="patch_5">
    <path d="M 230.4 640.8 
L 1658.88 640.8 
" style="fill: none; stroke: #000000; stroke-width: 3; stroke-linejoin: miter; stroke-linecap: square"/>
   </g>
   <g id="patch_6">
    <path d="M 230.4 86.4 
L 1658.88 86.4 
" style="fill: none; stroke: #000000; stroke-width: 3; stroke-linejoin: miter; stroke-linecap: square"/>
   </g>
   <g id="text_10">
    <!-- Off1 -->
    <g transform="translate(896.77125 77.041406) scale(0.45 -0.45)">
     <defs>
      <path id="DejaVuSans-4f" d="M 2522 4238 
Q 1834 4238 1429 3725 
Q 1025 3213 1025 2328 
Q 1025 1447 1429 934 
Q 1834 422 2522 422 
Q 3209 422 3611 934 
Q 4013 1447 4013 2328 
Q 4013 3213 3611 3725 
Q 3209 4238 2522 4238 
z
M 2522 4750 
Q 3503 4750 4090 4092 
Q 4678 3434 4678 2328 
Q 4678 1225 4090 567 
Q 3503 -91 2522 -91 
Q 1538 -91 948 565 
Q 359 1222 359 2328 
Q 359 3434 948 4092 
Q 1538 4750 2522 4750 
z
" transform="scale(0.015625)"/>
      <path id="DejaVuSans-66" d="M 2375 4863 
L 2375 4384 
L 1825 4384 
Q 1516 4384 1395 4259 
Q 1275 4134 1275 3809 
L 1275 3500 
L 2222 3500 
L 2222 3053 
L 1275 3053 
L 1275 0 
L 697 0 
L 697 3053 
L 147 3053 
L 147 3500 
L 697 3500 
L 697 3744 
Q 697 4328 969 4595 
Q 1241 4863 1831 4863 
L 2375 4863 
z
" transform="scale(0.015625)"/>
     </defs>
     <use xlink:href="#DejaVuSans-4f"/>
     <use xlink:href="#DejaVuSans-66" x="78.710938"/>
     <use xlink:href="#DejaVuSans-66" x="113.916016"/>
     <use xlink:href="#DejaVuSans-31" x="149.121094"/>
    </g>
   </g>
   <g id="legend_1">
    <g id="patch_7">
     <path d="M 258.4 294.5375 
L 485.93125 294.5375 
Q 493.93125 294.5375 493.93125 286.5375 
L 493.93125 114.4 
Q 493.93125 106.4 485.93125 106.4 
L 258.4 106.4 
Q 250.4 106.4 250.4 114.4 
L 250.4 286.5375 
Q 250.4 294.5375 258.4 294.5375 
z
" style="fill: #ffffff; opacity: 0.8; stroke: #cccccc; stroke-linejoin: miter"/>
    </g>
    <g id="line2d_18">
     <path d="M 266.4 138.79375 
L 306.4 138.79375 
L 346.4 138.79375 
" style="fill: none; stroke: #00ff00; stroke-width: 1.5; stroke-linecap: square"/>
    </g>
    <g id="text_11">
     <!-- roll -->
     <g transform="translate(378.4 152.79375) scale(0.4 -0.4)">
      <defs>
       <path id="DejaVuSans-72" d="M 2631 2963 
Q 2534 3019 2420 3045 
Q 2306 3072 2169 3072 
Q 1681 3072 1420 2755 
Q 1159 2438 1159 1844 
L 1159 0 
L 581 0 
L 581 3500 
L 1159 3500 
L 1159 2956 
Q 1341 3275 1631 3429 
Q 1922 3584 2338 3584 
Q 2397 3584 2469 3576 
Q 2541 3569 2628 3553 
L 2631 2963 
z
" transform="scale(0.015625)"/>
       <path id="DejaVuSans-6f" d="M 1959 3097 
Q 1497 3097 1228 2736 
Q 959 2375 959 1747 
Q 959 1119 1226 758 
Q 1494 397 1959 397 
Q 2419 397 2687 759 
Q 2956 1122 2956 1747 
Q 2956 2369 2687 2733 
Q 2419 3097 1959 3097 
z
M 1959 3584 
Q 2709 3584 3137 3096 
Q 3566 2609 3566 1747 
Q 3566 888 3137 398 
Q 2709 -91 1959 -91 
Q 1206 -91 779 398 
Q 353 888 353 1747 
Q 353 2609 779 3096 
Q 1206 3584 1959 3584 
z
" transform="scale(0.015625)"/>
       <path id="DejaVuSans-6c" d="M 603 4863 
L 1178 4863 
L 1178 0 
L 603 0 
L 603 4863 
z
" transform="scale(0.015625)"/>
      </defs>
      <use xlink:href="#DejaVuSans-72"/>
      <use xlink:href="#DejaVuSans-6f" x="38.863281"/>
      <use xlink:href="#DejaVuSans-6c" x="100.044922"/>
      <use xlink:href="#DejaVuSans-6c" x="127.828125"/>
     </g>
    </g>
    <g id="line2d_19">
     <path d="M 266.4 197.50625 
L 306.4 197.50625 
L 346.4 197.50625 
" style="fill: none; stroke: #0000ff; stroke-width: 1.5; stroke-linecap: square"/>
    </g>
    <g id="text_12">
     <!-- pitch -->
     <g transform="translate(378.4 211.50625) scale(0.4 -0.4)">
      <defs>
       <path id="DejaVuSans-70" d="M 1159 525 
L 1159 -1331 
L 581 -1331 
L 581 3500 
L 1159 3500 
L 1159 2969 
Q 1341 3281 1617 3432 
Q 1894 3584 2278 3584 
Q 2916 3584 3314 3078 
Q 3713 2572 3713 1747 
Q 3713 922 3314 415 
Q 2916 -91 2278 -91 
Q 1894 -91 1617 61 
Q 1341 213 1159 525 
z
M 3116 1747 
Q 3116 2381 2855 2742 
Q 2594 3103 2138 3103 
Q 1681 3103 1420 2742 
Q 1159 2381 1159 1747 
Q 1159 1113 1420 752 
Q 1681 391 2138 391 
Q 2594 391 2855 752 
Q 3116 1113 3116 1747 
z
" transform="scale(0.015625)"/>
       <path id="DejaVuSans-69" d="M 603 3500 
L 1178 3500 
L 1178 0 
L 603 0 
L 603 3500 
z
M 603 4863 
L 1178 4863 
L 1178 4134 
L 603 4134 
L 603 4863 
z
" transform="scale(0.015625)"/>
       <path id="DejaVuSans-74" d="M 1172 4494 
L 1172 3500 
L 2356 3500 
L 2356 3053 
L 1172 3053 
L 1172 1153 
Q 1172 725 1289 603 
Q 1406 481 1766 481 
L 2356 481 
L 2356 0 
L 1766 0 
Q 1100 0 847 248 
Q 594 497 594 1153 
L 594 3053 
L 172 3053 
L 172 3500 
L 594 3500 
L 594 4494 
L 1172 4494 
z
" transform="scale(0.015625)"/>
       <path id="DejaVuSans-63" d="M 3122 3366 
L 3122 2828 
Q 2878 2963 2633 3030 
Q 2388 3097 2138 3097 
Q 1578 3097 1268 2742 
Q 959 2388 959 1747 
Q 959 1106 1268 751 
Q 1578 397 2138 397 
Q 2388 397 2633 464 
Q 2878 531 3122 666 
L 3122 134 
Q 2881 22 2623 -34 
Q 2366 -91 2075 -91 
Q 1284 -91 818 406 
Q 353 903 353 1747 
Q 353 2603 823 3093 
Q 1294 3584 2113 3584 
Q 2378 3584 2631 3529 
Q 2884 3475 3122 3366 
z
" transform="scale(0.015625)"/>
       <path id="DejaVuSans-68" d="M 3513 2113 
L 3513 0 
L 2938 0 
L 2938 2094 
Q 2938 2591 2744 2837 
Q 2550 3084 2163 3084 
Q 1697 3084 1428 2787 
Q 1159 2491 1159 1978 
L 1159 0 
L 581 0 
L 581 4863 
L 1159 4863 
L 1159 2956 
Q 1366 3272 1645 3428 
Q 1925 3584 2291 3584 
Q 2894 3584 3203 3211 
Q 3513 2838 3513 2113 
z
" transform="scale(0.015625)"/>
      </defs>
      <use xlink:href="#DejaVuSans-70"/>
      <use xlink:href="#DejaVuSans-69" x="63.476562"/>
      <use xlink:href="#DejaVuSans-74" x="91.259766"/>
      <use xlink:href="#DejaVuSans-63" x="130.46875"/>
      <use xlink:href="#DejaVuSans-68" x="185.449219"/>
     </g>
    </g>
    <g id="line2d_20">
     <path d="M 266.4 256.21875 
L 306.4 256.21875 
L 346.4 256.21875 
" style="fill: none; stroke: #9933fa; stroke-width: 1.5; stroke-linecap: square"/>
    </g>
    <g id="text_13">
     <!-- yaw -->
     <g transform="translate(378.4 270.21875) scale(0.4 -0.4)">
      <defs>
       <path id="DejaVuSans-79" d="M 2059 -325 
Q 1816 -950 1584 -1140 
Q 1353 -1331 966 -1331 
L 506 -1331 
L 506 -850 
L 844 -850 
Q 1081 -850 1212 -737 
Q 1344 -625 1503 -206 
L 1606 56 
L 191 3500 
L 800 3500 
L 1894 763 
L 2988 3500 
L 3597 3500 
L 2059 -325 
z
" transform="scale(0.015625)"/>
       <path id="DejaVuSans-61" d="M 2194 1759 
Q 1497 1759 1228 1600 
Q 959 1441 959 1056 
Q 959 750 1161 570 
Q 1363 391 1709 391 
Q 2188 391 2477 730 
Q 2766 1069 2766 1631 
L 2766 1759 
L 2194 1759 
z
M 3341 1997 
L 3341 0 
L 2766 0 
L 2766 531 
Q 2569 213 2275 61 
Q 1981 -91 1556 -91 
Q 1019 -91 701 211 
Q 384 513 384 1019 
Q 384 1609 779 1909 
Q 1175 2209 1959 2209 
L 2766 2209 
L 2766 2266 
Q 2766 2663 2505 2880 
Q 2244 3097 1772 3097 
Q 1472 3097 1187 3025 
Q 903 2953 641 2809 
L 641 3341 
Q 956 3463 1253 3523 
Q 1550 3584 1831 3584 
Q 2591 3584 2966 3190 
Q 3341 2797 3341 1997 
z
" transform="scale(0.015625)"/>
       <path id="DejaVuSans-77" d="M 269 3500 
L 844 3500 
L 1563 769 
L 2278 3500 
L 2956 3500 
L 3675 769 
L 4391 3500 
L 4966 3500 
L 4050 0 
L 3372 0 
L 2619 2869 
L 1863 0 
L 1184 0 
L 269 3500 
z
" transform="scale(0.015625)"/>
      </defs>
      <use xlink:href="#DejaVuSans-79"/>
      <use xlink:href="#DejaVuSans-61" x="59.179688"/>
      <use xlink:href="#DejaVuSans-77" x="120.458984"/>
     </g>
    </g>
   </g>
  </g>
 </g>
 <defs>
  <clipPath id="p92235a89cc">
   <rect x="230.4" y="86.4" width="1428.48" height="554.4"/>
  </clipPath>
 </defs>
</svg>
