<?xml version="1.0" encoding="utf-8" standalone="no"?>
<!DOCTYPE svg PUBLIC "-//W3C//DTD SVG 1.1//EN"
  "http://www.w3.org/Graphics/SVG/1.1/DTD/svg11.dtd">
<svg xmlns:xlink="http://www.w3.org/1999/xlink" width="1843.2pt" height="720pt" viewBox="0 0 1843.2 720" xmlns="http://www.w3.org/2000/svg" version="1.1">
 <metadata>
  <rdf:RDF xmlns:dc="http://purl.org/dc/elements/1.1/" xmlns:cc="http://creativecommons.org/ns#" xmlns:rdf="http://www.w3.org/1999/02/22-rdf-syntax-ns#">
   <cc:Work>
    <dc:type rdf:resource="http://purl.org/dc/dcmitype/StillImage"/>
    <dc:date>2024-03-12T16:15:13.514880</dc:date>
    <dc:format>image/svg+xml</dc:format>
    <dc:creator>
     <cc:Agent>
      <dc:title>Matplotlib v3.7.0, https://matplotlib.org/</dc:title>
     </cc:Agent>
    </dc:creator>
   </cc:Work>
  </rdf:RDF>
 </metadata>
 <defs>
  <style type="text/css">*{stroke-linejoin: round; stroke-linecap: butt}</style>
 </defs>
 <g id="figure_1">
  <g id="patch_1">
   <path d="M 0 720 
L 1843.2 720 
L 1843.2 0 
L 0 0 
z
" style="fill: #ffffff"/>
  </g>
  <g id="axes_1">
   <g id="patch_2">
    <path d="M 230.4 640.8 
L 1658.88 640.8 
L 1658.88 86.4 
L 230.4 86.4 
z
" style="fill: #ffffff"/>
   </g>
   <g id="matplotlib.axis_1">
    <g id="xtick_1">
     <g id="line2d_1">
      <path d="M 295.330909 640.8 
L 295.330909 86.4 
" clip-path="url(#p4a787996fb)" style="fill: none; stroke: #b0b0b0; stroke-width: 0.8; stroke-linecap: square"/>
     </g>
     <g id="line2d_2">
      <defs>
       <path id="m28cdf78dcd" d="M 0 0 
L 0 -5 
" style="stroke: #000000; stroke-width: 0.8"/>
      </defs>
      <g>
       <use xlink:href="#m28cdf78dcd" x="295.330909" y="640.8" style="stroke: #000000; stroke-width: 0.8"/>
      </g>
     </g>
     <g id="text_1">
      <!-- 0 -->
      <g transform="translate(282.605909 674.69375) scale(0.4 -0.4)">
       <defs>
        <path id="DejaVuSans-30" d="M 2034 4250 
Q 1547 4250 1301 3770 
Q 1056 3291 1056 2328 
Q 1056 1369 1301 889 
Q 1547 409 2034 409 
Q 2525 409 2770 889 
Q 3016 1369 3016 2328 
Q 3016 3291 2770 3770 
Q 2525 4250 2034 4250 
z
M 2034 4750 
Q 2819 4750 3233 4129 
Q 3647 3509 3647 2328 
Q 3647 1150 3233 529 
Q 2819 -91 2034 -91 
Q 1250 -91 836 529 
Q 422 1150 422 2328 
Q 422 3509 836 4129 
Q 1250 4750 2034 4750 
z
" transform="scale(0.015625)"/>
       </defs>
       <use xlink:href="#DejaVuSans-30"/>
      </g>
     </g>
    </g>
    <g id="xtick_2">
     <g id="line2d_3">
      <path d="M 988.422049 640.8 
L 988.422049 86.4 
" clip-path="url(#p4a787996fb)" style="fill: none; stroke: #b0b0b0; stroke-width: 0.8; stroke-linecap: square"/>
     </g>
     <g id="line2d_4">
      <g>
       <use xlink:href="#m28cdf78dcd" x="988.422049" y="640.8" style="stroke: #000000; stroke-width: 0.8"/>
      </g>
     </g>
     <g id="text_2">
      <!-- 100 -->
      <g transform="translate(950.247049 674.69375) scale(0.4 -0.4)">
       <defs>
        <path id="DejaVuSans-31" d="M 794 531 
L 1825 531 
L 1825 4091 
L 703 3866 
L 703 4441 
L 1819 4666 
L 2450 4666 
L 2450 531 
L 3481 531 
L 3481 0 
L 794 0 
L 794 531 
z
" transform="scale(0.015625)"/>
       </defs>
       <use xlink:href="#DejaVuSans-31"/>
       <use xlink:href="#DejaVuSans-30" x="63.623047"/>
       <use xlink:href="#DejaVuSans-30" x="127.246094"/>
      </g>
     </g>
    </g>
    <g id="text_3">
     <!-- Time(s) -->
     <g transform="translate(882.030625 714.7875) scale(0.4 -0.4)">
      <defs>
       <path id="TimesNewRomanPSMT-54" d="M 3703 4238 
L 3750 3244 
L 3631 3244 
Q 3597 3506 3538 3619 
Q 3441 3800 3280 3886 
Q 3119 3972 2856 3972 
L 2259 3972 
L 2259 734 
Q 2259 344 2344 247 
Q 2463 116 2709 116 
L 2856 116 
L 2856 0 
L 1059 0 
L 1059 116 
L 1209 116 
Q 1478 116 1591 278 
Q 1659 378 1659 734 
L 1659 3972 
L 1150 3972 
Q 853 3972 728 3928 
Q 566 3869 450 3700 
Q 334 3531 313 3244 
L 194 3244 
L 244 4238 
L 3703 4238 
z
" transform="scale(0.015625)"/>
       <path id="TimesNewRomanPSMT-69" d="M 928 4444 
Q 1059 4444 1151 4351 
Q 1244 4259 1244 4128 
Q 1244 3997 1151 3903 
Q 1059 3809 928 3809 
Q 797 3809 703 3903 
Q 609 3997 609 4128 
Q 609 4259 701 4351 
Q 794 4444 928 4444 
z
M 1188 2947 
L 1188 647 
Q 1188 378 1227 289 
Q 1266 200 1342 156 
Q 1419 113 1622 113 
L 1622 0 
L 231 0 
L 231 113 
Q 441 113 512 153 
Q 584 194 626 287 
Q 669 381 669 647 
L 669 1750 
Q 669 2216 641 2353 
Q 619 2453 572 2492 
Q 525 2531 444 2531 
Q 356 2531 231 2484 
L 188 2597 
L 1050 2947 
L 1188 2947 
z
" transform="scale(0.015625)"/>
       <path id="TimesNewRomanPSMT-6d" d="M 1050 2338 
Q 1363 2650 1419 2697 
Q 1559 2816 1721 2881 
Q 1884 2947 2044 2947 
Q 2313 2947 2506 2790 
Q 2700 2634 2766 2338 
Q 3088 2713 3309 2830 
Q 3531 2947 3766 2947 
Q 3994 2947 4170 2830 
Q 4347 2713 4450 2447 
Q 4519 2266 4519 1878 
L 4519 647 
Q 4519 378 4559 278 
Q 4591 209 4675 161 
Q 4759 113 4950 113 
L 4950 0 
L 3538 0 
L 3538 113 
L 3597 113 
Q 3781 113 3884 184 
Q 3956 234 3988 344 
Q 4000 397 4000 647 
L 4000 1878 
Q 4000 2228 3916 2372 
Q 3794 2572 3525 2572 
Q 3359 2572 3192 2489 
Q 3025 2406 2788 2181 
L 2781 2147 
L 2788 2013 
L 2788 647 
Q 2788 353 2820 281 
Q 2853 209 2943 161 
Q 3034 113 3253 113 
L 3253 0 
L 1806 0 
L 1806 113 
Q 2044 113 2133 169 
Q 2222 225 2256 338 
Q 2272 391 2272 647 
L 2272 1878 
Q 2272 2228 2169 2381 
Q 2031 2581 1784 2581 
Q 1616 2581 1450 2491 
Q 1191 2353 1050 2181 
L 1050 647 
Q 1050 366 1089 281 
Q 1128 197 1204 155 
Q 1281 113 1516 113 
L 1516 0 
L 100 0 
L 100 113 
Q 297 113 375 155 
Q 453 197 493 289 
Q 534 381 534 647 
L 534 1741 
Q 534 2213 506 2350 
Q 484 2453 437 2492 
Q 391 2531 309 2531 
Q 222 2531 100 2484 
L 53 2597 
L 916 2947 
L 1050 2947 
L 1050 2338 
z
" transform="scale(0.015625)"/>
       <path id="TimesNewRomanPSMT-65" d="M 681 1784 
Q 678 1147 991 784 
Q 1303 422 1725 422 
Q 2006 422 2214 576 
Q 2422 731 2563 1106 
L 2659 1044 
Q 2594 616 2278 264 
Q 1963 -88 1488 -88 
Q 972 -88 605 314 
Q 238 716 238 1394 
Q 238 2128 614 2539 
Q 991 2950 1559 2950 
Q 2041 2950 2350 2633 
Q 2659 2316 2659 1784 
L 681 1784 
z
M 681 1966 
L 2006 1966 
Q 1991 2241 1941 2353 
Q 1863 2528 1708 2628 
Q 1553 2728 1384 2728 
Q 1125 2728 920 2526 
Q 716 2325 681 1966 
z
" transform="scale(0.015625)"/>
       <path id="TimesNewRomanPSMT-28" d="M 1988 -1253 
L 1988 -1369 
Q 1516 -1131 1200 -813 
Q 750 -359 506 256 
Q 263 872 263 1534 
Q 263 2503 741 3301 
Q 1219 4100 1988 4444 
L 1988 4313 
Q 1603 4100 1356 3731 
Q 1109 3363 987 2797 
Q 866 2231 866 1616 
Q 866 947 969 400 
Q 1050 -31 1165 -292 
Q 1281 -553 1476 -793 
Q 1672 -1034 1988 -1253 
z
" transform="scale(0.015625)"/>
       <path id="TimesNewRomanPSMT-73" d="M 2050 2947 
L 2050 1972 
L 1947 1972 
Q 1828 2431 1642 2597 
Q 1456 2763 1169 2763 
Q 950 2763 815 2647 
Q 681 2531 681 2391 
Q 681 2216 781 2091 
Q 878 1963 1175 1819 
L 1631 1597 
Q 2266 1288 2266 781 
Q 2266 391 1970 151 
Q 1675 -88 1309 -88 
Q 1047 -88 709 6 
Q 606 38 541 38 
Q 469 38 428 -44 
L 325 -44 
L 325 978 
L 428 978 
Q 516 541 762 319 
Q 1009 97 1316 97 
Q 1531 97 1667 223 
Q 1803 350 1803 528 
Q 1803 744 1651 891 
Q 1500 1038 1047 1263 
Q 594 1488 453 1669 
Q 313 1847 313 2119 
Q 313 2472 555 2709 
Q 797 2947 1181 2947 
Q 1350 2947 1591 2875 
Q 1750 2828 1803 2828 
Q 1853 2828 1881 2850 
Q 1909 2872 1947 2947 
L 2050 2947 
z
" transform="scale(0.015625)"/>
       <path id="TimesNewRomanPSMT-29" d="M 144 4313 
L 144 4444 
Q 619 4209 934 3891 
Q 1381 3434 1625 2820 
Q 1869 2206 1869 1541 
Q 1869 572 1392 -226 
Q 916 -1025 144 -1369 
L 144 -1253 
Q 528 -1038 776 -670 
Q 1025 -303 1145 264 
Q 1266 831 1266 1447 
Q 1266 2113 1163 2663 
Q 1084 3094 967 3353 
Q 850 3613 656 3853 
Q 463 4094 144 4313 
z
" transform="scale(0.015625)"/>
      </defs>
      <use xlink:href="#TimesNewRomanPSMT-54"/>
      <use xlink:href="#TimesNewRomanPSMT-69" x="57.583984"/>
      <use xlink:href="#TimesNewRomanPSMT-6d" x="85.367188"/>
      <use xlink:href="#TimesNewRomanPSMT-65" x="163.150391"/>
      <use xlink:href="#TimesNewRomanPSMT-28" x="207.535156"/>
      <use xlink:href="#TimesNewRomanPSMT-73" x="240.835938"/>
      <use xlink:href="#TimesNewRomanPSMT-29" x="279.751953"/>
     </g>
    </g>
   </g>
   <g id="matplotlib.axis_2">
    <g id="ytick_1">
     <g id="line2d_5">
      <path d="M 230.4 629.329655 
L 1658.88 629.329655 
" clip-path="url(#p4a787996fb)" style="fill: none; stroke: #b0b0b0; stroke-width: 0.8; stroke-linecap: square"/>
     </g>
     <g id="line2d_6">
      <defs>
       <path id="m193d2444d3" d="M 0 0 
L 5 0 
" style="stroke: #000000; stroke-width: 0.8"/>
      </defs>
      <g>
       <use xlink:href="#m193d2444d3" x="230.4" y="629.329655" style="stroke: #000000; stroke-width: 0.8"/>
      </g>
     </g>
     <g id="text_4">
      <!-- 0 -->
      <g transform="translate(201.45 644.52653) scale(0.4 -0.4)">
       <use xlink:href="#DejaVuSans-30"/>
      </g>
     </g>
    </g>
    <g id="ytick_2">
     <g id="line2d_7">
      <path d="M 230.4 476.391724 
L 1658.88 476.391724 
" clip-path="url(#p4a787996fb)" style="fill: none; stroke: #b0b0b0; stroke-width: 0.8; stroke-linecap: square"/>
     </g>
     <g id="line2d_8">
      <g>
       <use xlink:href="#m193d2444d3" x="230.4" y="476.391724" style="stroke: #000000; stroke-width: 0.8"/>
      </g>
     </g>
     <g id="text_5">
      <!-- 10 -->
      <g transform="translate(176 491.588599) scale(0.4 -0.4)">
       <use xlink:href="#DejaVuSans-31"/>
       <use xlink:href="#DejaVuSans-30" x="63.623047"/>
      </g>
     </g>
    </g>
    <g id="ytick_3">
     <g id="line2d_9">
      <path d="M 230.4 323.453793 
L 1658.88 323.453793 
" clip-path="url(#p4a787996fb)" style="fill: none; stroke: #b0b0b0; stroke-width: 0.8; stroke-linecap: square"/>
     </g>
     <g id="line2d_10">
      <g>
       <use xlink:href="#m193d2444d3" x="230.4" y="323.453793" style="stroke: #000000; stroke-width: 0.8"/>
      </g>
     </g>
     <g id="text_6">
      <!-- 20 -->
      <g transform="translate(176 338.650668) scale(0.4 -0.4)">
       <defs>
        <path id="DejaVuSans-32" d="M 1228 531 
L 3431 531 
L 3431 0 
L 469 0 
L 469 531 
Q 828 903 1448 1529 
Q 2069 2156 2228 2338 
Q 2531 2678 2651 2914 
Q 2772 3150 2772 3378 
Q 2772 3750 2511 3984 
Q 2250 4219 1831 4219 
Q 1534 4219 1204 4116 
Q 875 4013 500 3803 
L 500 4441 
Q 881 4594 1212 4672 
Q 1544 4750 1819 4750 
Q 2544 4750 2975 4387 
Q 3406 4025 3406 3419 
Q 3406 3131 3298 2873 
Q 3191 2616 2906 2266 
Q 2828 2175 2409 1742 
Q 1991 1309 1228 531 
z
" transform="scale(0.015625)"/>
       </defs>
       <use xlink:href="#DejaVuSans-32"/>
       <use xlink:href="#DejaVuSans-30" x="63.623047"/>
      </g>
     </g>
    </g>
    <g id="ytick_4">
     <g id="line2d_11">
      <path d="M 230.4 170.515862 
L 1658.88 170.515862 
" clip-path="url(#p4a787996fb)" style="fill: none; stroke: #b0b0b0; stroke-width: 0.8; stroke-linecap: square"/>
     </g>
     <g id="line2d_12">
      <g>
       <use xlink:href="#m193d2444d3" x="230.4" y="170.515862" style="stroke: #000000; stroke-width: 0.8"/>
      </g>
     </g>
     <g id="text_7">
      <!-- 30 -->
      <g transform="translate(176 185.712737) scale(0.4 -0.4)">
       <defs>
        <path id="DejaVuSans-33" d="M 2597 2516 
Q 3050 2419 3304 2112 
Q 3559 1806 3559 1356 
Q 3559 666 3084 287 
Q 2609 -91 1734 -91 
Q 1441 -91 1130 -33 
Q 819 25 488 141 
L 488 750 
Q 750 597 1062 519 
Q 1375 441 1716 441 
Q 2309 441 2620 675 
Q 2931 909 2931 1356 
Q 2931 1769 2642 2001 
Q 2353 2234 1838 2234 
L 1294 2234 
L 1294 2753 
L 1863 2753 
Q 2328 2753 2575 2939 
Q 2822 3125 2822 3475 
Q 2822 3834 2567 4026 
Q 2313 4219 1838 4219 
Q 1578 4219 1281 4162 
Q 984 4106 628 3988 
L 628 4550 
Q 988 4650 1302 4700 
Q 1616 4750 1894 4750 
Q 2613 4750 3031 4423 
Q 3450 4097 3450 3541 
Q 3450 3153 3228 2886 
Q 3006 2619 2597 2516 
z
" transform="scale(0.015625)"/>
       </defs>
       <use xlink:href="#DejaVuSans-33"/>
       <use xlink:href="#DejaVuSans-30" x="63.623047"/>
      </g>
     </g>
    </g>
    <g id="text_8">
     <!-- Error(m) -->
     <g transform="translate(163.44375 434.66875) rotate(-90) scale(0.4 -0.4)">
      <defs>
       <path id="TimesNewRomanPSMT-45" d="M 1338 4006 
L 1338 2331 
L 2269 2331 
Q 2631 2331 2753 2441 
Q 2916 2584 2934 2947 
L 3050 2947 
L 3050 1472 
L 2934 1472 
Q 2891 1781 2847 1869 
Q 2791 1978 2662 2040 
Q 2534 2103 2269 2103 
L 1338 2103 
L 1338 706 
Q 1338 425 1363 364 
Q 1388 303 1450 267 
Q 1513 231 1688 231 
L 2406 231 
Q 2766 231 2928 281 
Q 3091 331 3241 478 
Q 3434 672 3638 1063 
L 3763 1063 
L 3397 0 
L 131 0 
L 131 116 
L 281 116 
Q 431 116 566 188 
Q 666 238 702 338 
Q 738 438 738 747 
L 738 3500 
Q 738 3903 656 3997 
Q 544 4122 281 4122 
L 131 4122 
L 131 4238 
L 3397 4238 
L 3444 3309 
L 3322 3309 
Q 3256 3644 3176 3769 
Q 3097 3894 2941 3959 
Q 2816 4006 2500 4006 
L 1338 4006 
z
" transform="scale(0.015625)"/>
       <path id="TimesNewRomanPSMT-72" d="M 1038 2947 
L 1038 2303 
Q 1397 2947 1775 2947 
Q 1947 2947 2059 2842 
Q 2172 2738 2172 2600 
Q 2172 2478 2090 2393 
Q 2009 2309 1897 2309 
Q 1788 2309 1652 2417 
Q 1516 2525 1450 2525 
Q 1394 2525 1328 2463 
Q 1188 2334 1038 2041 
L 1038 669 
Q 1038 431 1097 309 
Q 1138 225 1241 169 
Q 1344 113 1538 113 
L 1538 0 
L 72 0 
L 72 113 
Q 291 113 397 181 
Q 475 231 506 341 
Q 522 394 522 644 
L 522 1753 
Q 522 2253 501 2348 
Q 481 2444 426 2487 
Q 372 2531 291 2531 
Q 194 2531 72 2484 
L 41 2597 
L 906 2947 
L 1038 2947 
z
" transform="scale(0.015625)"/>
       <path id="TimesNewRomanPSMT-6f" d="M 1600 2947 
Q 2250 2947 2644 2453 
Q 2978 2031 2978 1484 
Q 2978 1100 2793 706 
Q 2609 313 2286 112 
Q 1963 -88 1566 -88 
Q 919 -88 538 428 
Q 216 863 216 1403 
Q 216 1797 411 2186 
Q 606 2575 925 2761 
Q 1244 2947 1600 2947 
z
M 1503 2744 
Q 1338 2744 1170 2645 
Q 1003 2547 900 2300 
Q 797 2053 797 1666 
Q 797 1041 1045 587 
Q 1294 134 1700 134 
Q 2003 134 2200 384 
Q 2397 634 2397 1244 
Q 2397 2006 2069 2444 
Q 1847 2744 1503 2744 
z
" transform="scale(0.015625)"/>
      </defs>
      <use xlink:href="#TimesNewRomanPSMT-45"/>
      <use xlink:href="#TimesNewRomanPSMT-72" x="61.083984"/>
      <use xlink:href="#TimesNewRomanPSMT-72" x="94.384766"/>
      <use xlink:href="#TimesNewRomanPSMT-6f" x="127.685547"/>
      <use xlink:href="#TimesNewRomanPSMT-72" x="177.685547"/>
      <use xlink:href="#TimesNewRomanPSMT-28" x="210.986328"/>
      <use xlink:href="#TimesNewRomanPSMT-6d" x="244.287109"/>
      <use xlink:href="#TimesNewRomanPSMT-29" x="322.070312"/>
     </g>
    </g>
   </g>
   <g id="line2d_13">
    <path d="M 295.330909 629.329655 
L 310.608348 629.109811 
L 317.552829 629.177932 
L 323.108526 628.966602 
L 328.663594 629.075018 
L 332.830746 629.290742 
L 336.998037 629.326279 
L 339.774675 629.209297 
L 342.552981 629.244185 
L 345.330717 629.029081 
L 348.108572 628.999269 
L 350.886309 629.219682 
L 353.664117 628.940038 
L 356.441992 629.093855 
L 359.219914 629.131441 
L 361.99752 629.009187 
L 373.108542 629.106004 
L 375.886515 628.79525 
L 381.442119 628.939557 
L 384.219131 628.895072 
L 386.997723 629.225633 
L 392.55325 629.317695 
L 395.331115 629.189578 
L 398.108847 629.297101 
L 400.886675 629.17861 
L 403.664434 629.309352 
L 406.442216 629.011521 
L 409.220111 628.983692 
L 411.997841 629.174001 
L 414.775656 629.249961 
L 417.553452 629.178201 
L 423.109044 629.274348 
L 425.887609 629.153115 
L 428.664074 629.147981 
L 431.442839 629.271489 
L 436.997993 628.948629 
L 456.442512 628.831538 
L 459.220361 629.09629 
L 461.99775 629.165716 
L 464.776015 629.121494 
L 467.553724 629.305502 
L 475.887354 629.194304 
L 478.664852 629.320437 
L 486.998531 629.233042 
L 489.777235 628.939703 
L 492.55396 629.14343 
L 495.331686 629.039116 
L 498.109484 628.509378 
L 500.887544 628.640646 
L 503.66506 628.562352 
L 506.442913 628.628977 
L 509.220625 628.328637 
L 511.998563 628.369826 
L 514.776191 628.259794 
L 517.553786 628.311018 
L 520.331866 628.235408 
L 525.887529 628.283248 
L 528.665316 628.207404 
L 531.443084 628.411482 
L 534.220883 628.25011 
L 539.776429 628.344623 
L 542.554992 628.113941 
L 548.109814 628.047432 
L 550.887814 627.997959 
L 553.665469 628.071469 
L 561.998843 627.720372 
L 564.776622 627.774746 
L 567.554394 627.579186 
L 570.332163 627.920365 
L 573.109388 627.730406 
L 575.88775 627.910564 
L 578.666517 627.849889 
L 581.443404 627.565651 
L 584.221381 627.815351 
L 592.554602 627.887228 
L 595.332144 627.588521 
L 598.110726 627.592955 
L 600.887992 627.370091 
L 603.666766 627.26111 
L 606.443578 627.303816 
L 609.221297 627.229606 
L 614.776816 627.543948 
L 617.555482 627.242907 
L 620.332423 627.372892 
L 623.110258 627.188067 
L 625.888083 627.248041 
L 628.665802 626.996241 
L 631.443683 627.178966 
L 634.221475 627.066484 
L 636.999155 626.592287 
L 639.777079 626.728572 
L 642.554747 626.479338 
L 648.11039 626.230104 
L 650.888587 626.07445 
L 653.666865 626.063249 
L 655.055547 625.632691 
L 656.44384 625.757541 
L 657.832693 625.502706 
L 659.221622 625.643892 
L 660.610404 625.475403 
L 661.999384 625.679364 
L 663.388346 625.393258 
L 664.77826 625.368755 
L 666.166107 625.093385 
L 667.555337 624.93703 
L 668.943877 624.921628 
L 670.333302 625.092218 
L 671.721641 624.661893 
L 673.110129 624.522574 
L 674.499443 624.141956 
L 675.888339 624.007305 
L 677.27744 624.36272 
L 678.666522 624.188863 
L 680.055714 623.787242 
L 681.444066 623.716299 
L 682.833413 623.262171 
L 684.221761 623.355751 
L 685.610673 623.316545 
L 686.999538 623.479201 
L 688.388427 623.303477 
L 692.555072 623.314912 
L 693.94469 623.030207 
L 695.332837 623.107217 
L 699.49956 622.489267 
L 700.888567 622.615051 
L 702.278391 622.412957 
L 703.666363 621.858249 
L 705.055236 622.128019 
L 706.444164 621.604815 
L 707.833002 621.79034 
L 709.221825 621.378918 
L 710.610706 621.456628 
L 713.388661 621.158155 
L 714.77744 621.248233 
L 717.554769 620.608114 
L 718.944214 620.941825 
L 720.333082 621.037038 
L 721.722592 620.865515 
L 723.11086 620.988032 
L 724.500725 620.794106 
L 725.888846 620.790605 
L 728.666593 621.086045 
L 732.833758 620.610448 
L 734.222044 620.413954 
L 735.611606 620.560741 
L 738.38959 620.609747 
L 739.777486 620.334377 
L 741.166534 620.55724 
L 742.555347 620.241965 
L 743.944324 620.386417 
L 748.111001 619.905686 
L 749.499926 619.88515 
L 750.888536 620.339044 
L 753.666616 619.548404 
L 755.055507 619.942324 
L 756.444388 619.797638 
L 759.223313 619.726462 
L 760.611127 619.913387 
L 761.999324 619.706159 
L 763.388823 619.850845 
L 764.778431 619.610713 
L 766.16675 619.920855 
L 767.555588 619.988297 
L 771.722321 619.70966 
L 773.110954 619.965427 
L 774.500091 619.692624 
L 775.888098 619.931589 
L 777.278916 619.844078 
L 781.444551 619.941857 
L 782.833386 619.786437 
L 785.611221 619.771268 
L 787.000204 619.977096 
L 789.77792 619.68749 
L 791.166818 619.665087 
L 795.333511 620.06274 
L 796.722398 619.779436 
L 798.111369 619.851779 
L 799.500276 619.798338 
L 800.889213 620.084443 
L 803.666941 620.03497 
L 805.055774 620.308707 
L 806.44443 620.313608 
L 807.833558 620.467628 
L 810.611318 619.866014 
L 813.38912 619.875582 
L 814.778021 620.072075 
L 816.166905 619.513867 
L 817.555611 619.689123 
L 820.333658 619.317607 
L 821.723158 619.467894 
L 824.500354 619.568707 
L 825.889195 619.446191 
L 828.66697 619.719928 
L 830.055888 620.055506 
L 832.833681 619.887717 
L 834.222206 619.777802 
L 837.000434 620.023535 
L 838.389077 619.827275 
L 839.777583 619.850845 
L 843.944932 619.224027 
L 845.333877 619.21936 
L 848.111586 619.716194 
L 850.88915 619.756216 
L 852.278281 619.546654 
L 855.056104 619.414336 
L 857.833916 619.56789 
L 859.222721 619.328575 
L 860.611708 619.698575 
L 863.389513 619.941974 
L 864.778371 619.618764 
L 866.167265 619.599745 
L 867.556087 619.277351 
L 868.945102 619.71351 
L 870.333761 619.246314 
L 871.722925 619.214226 
L 874.501067 619.468127 
L 875.889586 618.903968 
L 877.279123 618.587292 
L 891.167367 618.69779 
L 893.945118 618.979111 
L 898.11188 618.719726 
L 903.667558 619.491347 
L 912.000939 618.783551 
L 920.334223 618.917153 
L 928.667411 618.665702 
L 935.612077 618.986345 
L 941.167678 619.054255 
L 946.723306 618.911085 
L 957.834854 617.798519 
L 962.001057 619.448641 
L 966.167816 617.909484 
L 970.334545 617.228875 
L 974.501205 616.920251 
L 978.667921 617.341591 
L 982.834612 617.523732 
L 987.001325 617.024681 
L 989.779085 617.132729 
L 992.556794 616.989327 
L 995.334352 616.975325 
L 998.112481 617.277532 
L 1000.89024 617.219541 
L 1003.668649 616.721307 
L 1006.445068 616.625744 
L 1014.778419 616.749661 
L 1020.334892 616.148747 
L 1023.112532 615.946536 
L 1024.501476 616.765063 
L 1025.890335 616.145946 
L 1027.279213 616.56927 
L 1028.667564 616.043499 
L 1030.057084 615.82367 
L 1032.834911 616.064969 
L 1035.612711 616.060535 
L 1038.390445 615.411081 
L 1041.168308 615.475723 
L 1043.946133 615.249592 
L 1046.723883 615.666148 
L 1049.501636 615.250992 
L 1052.280059 615.95342 
L 1055.057418 615.489725 
L 1060.612826 614.999892 
L 1063.39021 615.100705 
L 1066.169045 614.864774 
L 1068.946513 614.776328 
L 1071.723964 614.905846 
L 1074.501518 614.277861 
L 1077.279631 614.21602 
L 1080.05736 614.282995 
L 1085.612988 614.037962 
L 1088.390805 614.17168 
L 1091.168544 613.778227 
L 1096.724068 613.52806 
L 1099.502534 613.748123 
L 1102.279713 613.693516 
L 1105.058209 613.341602 
L 1110.61312 613.257357 
L 1113.390948 613.073699 
L 1127.27907 612.876273 
L 1130.058192 612.571732 
L 1132.835406 612.950016 
L 1135.61325 612.551662 
L 1138.391051 612.319464 
L 1141.169465 612.465317 
L 1143.946639 612.29076 
L 1146.724398 612.371971 
L 1149.502119 612.276992 
L 1152.279985 611.942113 
L 1155.057967 612.155876 
L 1160.613561 611.86627 
L 1163.391225 611.847367 
L 1166.168974 611.500821 
L 1168.946755 611.734886 
L 1174.502945 611.711082 
L 1177.280165 611.904542 
L 1180.057874 611.656942 
L 1182.835746 611.954015 
L 1185.613442 611.527658 
L 1188.391234 611.362202 
L 1193.946621 611.417976 
L 1199.502508 611.094066 
L 1202.280214 611.123236 
L 1210.613635 610.872603 
L 1216.169228 610.858834 
L 1218.946958 611.063728 
L 1221.724797 610.790225 
L 1224.502548 610.987885 
L 1230.058279 610.899906 
L 1232.837094 610.740052 
L 1238.391577 611.209115 
L 1243.947141 610.648573 
L 1249.502774 610.794426 
L 1252.280282 610.497586 
L 1255.058335 609.979049 
L 1257.836173 609.720248 
L 1260.613914 611.04856 
L 1263.392785 611.809796 
L 1266.169373 611.498254 
L 1268.948624 611.341899 
L 1271.725078 611.596734 
L 1274.502858 610.715081 
L 1277.280888 611.226617 
L 1280.059262 611.031757 
L 1282.836174 611.077264 
L 1285.614634 611.320196 
L 1288.391862 611.026157 
L 1291.170251 610.920676 
L 1293.947472 610.700146 
L 1296.725271 611.868137 
L 1299.503811 611.222416 
L 1302.280853 611.160341 
L 1305.058539 610.971316 
L 1307.836391 611.406075 
L 1313.392609 611.635939 
L 1316.169821 610.314394 
L 1318.947614 610.52909 
L 1321.725357 610.535157 
L 1324.503082 610.710881 
L 1327.282656 610.473782 
L 1330.058732 610.418242 
L 1332.836521 610.53049 
L 1335.61425 610.328863 
L 1338.392121 610.602366 
L 1341.169883 610.322562 
L 1343.947646 610.38137 
L 1346.7255 610.327229 
L 1349.503395 610.05886 
L 1350.891307 610.084063 
L 1353.669945 609.987917 
L 1356.447749 610.296892 
L 1359.225539 610.482884 
L 1362.003324 609.853732 
L 1364.781177 610.065627 
L 1367.559514 610.460481 
L 1370.33751 610.03879 
L 1375.892259 609.889437 
L 1378.670064 610.298292 
L 1384.225618 610.190011 
L 1387.003476 610.449046 
L 1389.781288 610.515788 
L 1395.336447 610.379736 
L 1398.114711 609.994451 
L 1400.892492 610.58183 
L 1403.670246 610.096898 
L 1406.447841 610.458614 
L 1409.225743 609.604499 
L 1412.003572 610.401439 
L 1414.781454 610.034356 
L 1417.558802 610.341698 
L 1420.336128 609.231582 
L 1423.11479 612.820032 
L 1425.892645 609.770888 
L 1428.670328 609.96108 
L 1434.226022 609.261919 
L 1437.003677 609.403572 
L 1439.781469 609.011752 
L 1442.559398 609.021553 
L 1445.337805 609.3646 
L 1456.448245 608.913272 
L 1459.226057 609.208945 
L 1462.003869 608.99355 
L 1464.78175 609.104165 
L 1467.559393 608.864032 
L 1473.114719 609.508119 
L 1475.892894 609.244883 
L 1478.670716 609.896205 
L 1481.448485 609.153638 
L 1484.225901 609.496217 
L 1487.004022 609.312793 
L 1489.781807 609.431809 
L 1498.115831 609.44161 
L 1500.89331 609.821761 
L 1503.672155 609.71628 
L 1506.450429 610.178576 
L 1512.004215 609.978116 
L 1514.782913 610.188611 
L 1517.55988 609.93891 
L 1521.726475 609.919774 
L 1525.893036 610.109267 
L 1530.059848 610.456047 
L 1537.004468 610.423842 
L 1545.337662 611.118102 
L 1548.115397 610.871669 
L 1560.614765 610.366201 
L 1563.393344 610.389771 
L 1566.171144 610.567362 
L 1568.948944 610.625469 
L 1571.725968 610.939812 
L 1574.50448 611.077497 
L 1577.282292 610.915308 
L 1580.06016 611.136538 
L 1585.615659 611.213782 
L 1588.393451 611.236418 
L 1591.170519 611.526257 
L 1593.949091 611.566863 
L 1593.949091 611.566863 
" clip-path="url(#p4a787996fb)" style="fill: none; stroke: #00ff00; stroke-width: 3; stroke-linecap: square"/>
   </g>
   <g id="line2d_14">
    <path d="M 295.330909 629.329655 
L 310.608348 629.187503 
L 332.830746 629.262318 
L 345.330717 628.991246 
L 348.108572 628.955848 
L 350.886309 629.181201 
L 356.441992 629.210714 
L 359.219914 629.165306 
L 361.99752 629.314889 
L 364.775364 629.320214 
L 367.553196 629.030848 
L 389.775691 629.090999 
L 392.55325 629.047414 
L 400.886675 629.204327 
L 403.664434 629.095942 
L 406.442216 629.2682 
L 411.997841 629.222661 
L 420.331265 628.87746 
L 428.664074 628.66466 
L 431.442839 628.69526 
L 434.220211 628.873806 
L 436.997993 628.917023 
L 439.775426 629.168776 
L 442.553565 628.90895 
L 445.331511 628.911097 
L 450.886941 628.696963 
L 453.664857 628.918193 
L 456.442512 628.974604 
L 461.99775 629.323023 
L 464.776015 629.1964 
L 467.553724 629.319265 
L 470.331388 628.903571 
L 473.108937 629.029577 
L 475.887354 628.948447 
L 478.664852 628.686298 
L 481.442804 628.71164 
L 484.220146 628.361308 
L 486.998531 628.412896 
L 495.331686 627.673786 
L 498.109484 627.868179 
L 500.887544 627.381424 
L 503.66506 627.195199 
L 506.442913 627.372877 
L 514.776191 627.035417 
L 523.109643 626.591718 
L 525.887529 626.711609 
L 531.443084 626.48736 
L 534.220883 626.183927 
L 542.554992 625.609733 
L 548.109814 625.684206 
L 550.887814 625.172174 
L 556.443891 625.176725 
L 559.221986 624.831812 
L 570.332163 624.419981 
L 581.443404 623.965533 
L 592.554602 623.126878 
L 600.887992 622.784444 
L 603.666766 622.415553 
L 609.221297 622.369347 
L 611.999707 622.095348 
L 614.776816 622.083679 
L 617.555482 621.902938 
L 620.332423 621.932226 
L 623.110258 621.541515 
L 625.888083 621.815485 
L 628.665802 621.570802 
L 631.443683 621.562459 
L 634.221475 621.41153 
L 636.999155 621.614324 
L 639.777079 621.298757 
L 648.11039 621.659539 
L 650.888587 621.63066 
L 653.666865 622.326554 
L 655.055547 622.544633 
L 656.44384 622.201295 
L 657.832693 622.326087 
L 661.999384 622.156139 
L 663.388346 621.962155 
L 666.166107 622.084204 
L 667.555337 622.295399 
L 668.943877 622.072361 
L 670.333302 622.43291 
L 671.721641 622.930152 
L 674.499443 622.726016 
L 675.888339 622.827646 
L 677.27744 622.552976 
L 680.055714 622.481566 
L 681.444066 622.321945 
L 682.833413 622.53629 
L 684.221761 622.345981 
L 685.610673 622.368384 
L 686.999538 622.50677 
L 688.388427 622.301642 
L 689.777339 622.669308 
L 691.167199 622.881903 
L 692.555072 622.393588 
L 693.94469 623.005353 
L 695.332837 622.337697 
L 696.72236 623.380021 
L 698.110986 622.436643 
L 699.49956 622.919125 
L 700.888567 623.122969 
L 702.278391 622.932077 
L 703.666363 623.034291 
L 706.444164 622.884937 
L 707.833002 622.93021 
L 709.221825 623.201263 
L 710.610706 623.305927 
L 713.388661 623.185044 
L 714.77744 623.280374 
L 716.166582 623.619569 
L 718.944214 623.368119 
L 720.333082 623.595066 
L 723.11086 623.507088 
L 724.500725 623.407324 
L 730.055575 623.880821 
L 734.222044 623.802061 
L 735.611606 623.895173 
L 736.998984 624.258639 
L 738.38959 624.324914 
L 739.777486 623.947214 
L 741.166534 624.059812 
L 742.555347 623.678144 
L 743.944324 623.720966 
L 745.333197 624.347317 
L 746.722172 623.866119 
L 748.111001 623.873354 
L 749.499926 624.165876 
L 750.888536 624.250121 
L 752.277725 624.124921 
L 753.666616 624.383139 
L 755.055507 624.449298 
L 757.833323 624.26634 
L 759.223313 624.525842 
L 760.611127 624.596084 
L 761.999324 624.354785 
L 763.388823 624.56178 
L 764.778431 624.437163 
L 767.555588 625.03341 
L 768.944569 624.729802 
L 770.333965 625.337951 
L 771.722321 625.130956 
L 773.110954 625.201899 
L 774.500091 624.940297 
L 775.888098 625.351253 
L 777.278916 625.551946 
L 778.66669 625.871189 
L 780.055627 626.32205 
L 781.444551 626.345153 
L 782.833386 626.114822 
L 784.221471 626.1972 
L 785.611221 625.897793 
L 787.000204 626.258108 
L 788.389076 626.458568 
L 789.77792 626.453901 
L 791.166818 626.562649 
L 792.555682 626.815383 
L 793.944603 627.21327 
L 795.333511 627.247108 
L 796.722398 627.069051 
L 799.500276 627.206969 
L 800.889213 627.681867 
L 802.278037 627.915698 
L 803.666941 627.939735 
L 805.055774 628.142062 
L 806.44443 628.119192 
L 807.833558 628.362125 
L 809.222533 628.265278 
L 810.611318 628.419533 
L 813.38912 628.089088 
L 814.778021 628.200636 
L 817.555611 627.985941 
L 818.94475 628.25291 
L 824.500354 628.269246 
L 825.889195 628.315919 
L 827.278218 628.224906 
L 828.66697 628.626994 
L 830.055888 628.44777 
L 831.444751 628.581721 
L 832.833681 628.858025 
L 835.611445 628.762579 
L 837.000434 629.131995 
L 839.777583 628.947637 
L 843.944932 629.163033 
L 845.333877 629.027214 
L 846.72271 629.09069 
L 848.111586 628.850557 
L 849.500497 629.284382 
L 856.445003 629.301651 
L 857.833916 629.100724 
L 859.222721 629.21484 
L 860.611708 628.97214 
L 864.778371 628.980775 
L 866.167265 629.26828 
L 867.556087 628.979841 
L 868.945102 629.239576 
L 870.333761 628.97074 
L 875.889586 628.535048 
L 877.279123 627.95327 
L 880.056191 628.044982 
L 885.612296 627.893762 
L 888.389637 628.116392 
L 891.167367 627.991308 
L 893.945118 628.070186 
L 898.11188 627.957937 
L 903.667558 628.487442 
L 912.000939 628.470873 
L 920.334223 627.894695 
L 928.667411 628.830021 
L 941.167678 629.170034 
L 952.278906 628.456404 
L 957.834854 629.325921 
L 962.001057 628.925001 
L 966.167816 629.154165 
L 978.667921 629.252178 
L 982.834612 628.807385 
L 987.001325 629.254512 
L 995.334352 629.043083 
L 998.112481 628.298183 
L 1000.89024 629.09349 
L 1003.668649 629.310519 
L 1006.445068 628.634695 
L 1009.223701 628.330387 
L 1012.001625 628.428867 
L 1016.168189 628.374727 
L 1018.945903 628.626294 
L 1020.334892 628.509611 
L 1023.112532 628.454537 
L 1024.501476 627.989208 
L 1025.890335 628.10309 
L 1027.279213 627.572885 
L 1028.667564 627.490741 
L 1030.057084 627.847322 
L 1032.834911 627.858057 
L 1038.390445 628.057817 
L 1041.168308 627.55515 
L 1043.946133 628.170766 
L 1046.723883 627.614891 
L 1052.280059 627.13836 
L 1055.057418 627.746975 
L 1060.612826 627.50801 
L 1063.39021 627.213504 
L 1066.169045 627.539747 
L 1068.946513 627.372658 
L 1074.501518 627.438 
L 1077.279631 627.269511 
L 1080.05736 626.926465 
L 1082.835128 627.090754 
L 1085.612988 626.577818 
L 1096.724068 626.745841 
L 1099.502534 626.459269 
L 1105.058209 626.321117 
L 1107.835229 625.927664 
L 1110.61312 626.127891 
L 1116.169771 625.758241 
L 1118.946542 625.975737 
L 1121.724299 625.620089 
L 1127.27907 625.706434 
L 1135.61325 625.473536 
L 1141.169465 625.327916 
L 1143.946639 625.181363 
L 1152.279985 625.087084 
L 1160.613561 624.619421 
L 1163.391225 624.835517 
L 1166.168974 624.624555 
L 1171.72457 624.924662 
L 1174.502945 624.625022 
L 1177.280165 624.839717 
L 1180.057874 624.733303 
L 1182.835746 624.199364 
L 1185.613442 624.447664 
L 1199.502508 624.267507 
L 1205.058132 624.395857 
L 1207.83582 623.879188 
L 1210.613635 624.080815 
L 1213.39146 623.92306 
L 1216.169228 623.889456 
L 1218.946958 623.637889 
L 1221.724797 623.929128 
L 1224.502548 623.525407 
L 1230.058279 624.050478 
L 1235.613755 623.678494 
L 1238.391577 623.809645 
L 1241.1694 624.688963 
L 1243.947141 624.274508 
L 1246.725471 624.083149 
L 1249.502774 624.951732 
L 1252.280282 626.456001 
L 1255.058335 626.229171 
L 1257.836173 626.375257 
L 1260.613914 623.817579 
L 1263.392785 622.845849 
L 1266.169373 622.548542 
L 1268.948624 623.471733 
L 1271.725078 622.647022 
L 1274.502858 623.489002 
L 1285.614634 622.912124 
L 1288.391862 623.084814 
L 1291.170251 623.434395 
L 1293.947472 623.341982 
L 1299.503811 622.941061 
L 1305.058539 623.098816 
L 1310.61422 622.929393 
L 1313.392609 621.987066 
L 1316.169821 622.849582 
L 1324.503082 623.011538 
L 1327.282656 623.297643 
L 1330.058732 623.098816 
L 1332.836521 623.124019 
L 1335.61425 623.362051 
L 1338.392121 622.80571 
L 1339.781055 622.735234 
L 1343.947646 622.946195 
L 1346.7255 622.92846 
L 1349.503395 623.033941 
L 1350.891307 623.292975 
L 1353.669945 623.12682 
L 1356.447749 622.470131 
L 1362.003324 622.659624 
L 1367.559514 623.289242 
L 1370.33751 623.290175 
L 1373.115632 623.545943 
L 1375.892259 623.145489 
L 1378.670064 623.692963 
L 1381.447947 623.384921 
L 1387.003476 624.051411 
L 1389.781288 623.76904 
L 1395.336447 623.57628 
L 1400.892492 623.862852 
L 1403.670246 623.65049 
L 1414.781454 623.943596 
L 1417.558802 623.661225 
L 1420.336128 622.842115 
L 1423.11479 626.112022 
L 1425.892645 623.042342 
L 1428.670328 623.804978 
L 1431.448229 623.772307 
L 1434.226022 623.913259 
L 1437.003677 623.369986 
L 1442.559398 623.360185 
L 1445.337805 623.713032 
L 1448.114922 623.416659 
L 1453.669682 623.451664 
L 1456.448245 623.331714 
L 1462.003869 623.592149 
L 1464.78175 623.397056 
L 1467.559393 623.346649 
L 1470.337258 623.461465 
L 1473.114719 623.376987 
L 1478.670716 623.42366 
L 1484.225901 623.264972 
L 1489.781807 623.345716 
L 1492.559652 623.266372 
L 1495.338363 623.430194 
L 1498.115831 623.058211 
L 1500.89331 623.524473 
L 1503.672155 623.579547 
L 1506.450429 623.827848 
L 1509.227259 623.811045 
L 1512.004215 623.309311 
L 1517.55988 623.319112 
L 1525.893036 624.036009 
L 1530.059848 623.838116 
L 1534.226446 624.232035 
L 1537.004468 623.983735 
L 1539.782623 624.39259 
L 1542.559957 624.433662 
L 1548.115397 624.753839 
L 1556.448884 624.371121 
L 1566.171144 625.062814 
L 1568.948944 624.809846 
L 1571.725968 625.060013 
L 1574.50448 624.766907 
L 1580.06016 625.046012 
L 1582.837937 625.285911 
L 1585.615659 625.370855 
L 1588.393451 625.651827 
L 1591.170519 625.593019 
L 1593.949091 625.77411 
L 1593.949091 625.77411 
" clip-path="url(#p4a787996fb)" style="fill: none; stroke: #0000ff; stroke-width: 3; stroke-linecap: square"/>
   </g>
   <g id="line2d_15">
    <path d="M 295.330909 629.329655 
L 317.552829 628.306206 
L 323.108526 628.36389 
L 328.663594 628.306396 
L 332.830746 628.146711 
L 339.774675 627.641269 
L 345.330717 626.858881 
L 348.108572 626.927433 
L 350.886309 627.108384 
L 353.664117 626.921785 
L 356.441992 628.216879 
L 359.219914 627.817978 
L 364.775364 627.723937 
L 367.553196 628.032138 
L 370.33091 628.040669 
L 373.108542 627.734483 
L 375.886515 628.595359 
L 378.664269 628.050106 
L 384.219131 627.627252 
L 389.775691 627.932077 
L 392.55325 627.767154 
L 395.331115 627.303808 
L 398.108847 627.319562 
L 400.886675 627.114134 
L 403.664434 627.169051 
L 406.442216 627.44029 
L 414.775656 627.115873 
L 417.553452 627.086491 
L 420.331265 626.88478 
L 423.109044 626.969163 
L 428.664074 626.746781 
L 431.442839 627.360297 
L 434.220211 627.143917 
L 436.997993 627.074476 
L 439.775426 627.815723 
L 448.109194 627.707508 
L 450.886941 627.859647 
L 456.442512 627.852237 
L 464.776015 628.712449 
L 467.553724 629.286439 
L 470.331388 629.009865 
L 473.108937 629.200101 
L 478.664852 629.276288 
L 486.998531 628.795046 
L 492.55396 628.274635 
L 495.331686 628.297621 
L 500.887544 626.995256 
L 503.66506 627.221212 
L 506.442913 626.818475 
L 509.220625 626.897331 
L 511.998563 626.705877 
L 514.776191 626.700911 
L 517.553786 626.393117 
L 523.109643 626.188908 
L 525.887529 625.696509 
L 528.665316 625.772111 
L 531.443084 625.531797 
L 534.220883 625.47762 
L 550.887814 624.045285 
L 564.776622 623.417373 
L 567.554394 623.001007 
L 570.332163 622.898181 
L 573.109388 622.388468 
L 575.88775 622.156387 
L 578.666517 622.172241 
L 581.443404 622.036394 
L 584.221381 621.755087 
L 586.998883 621.805086 
L 589.776084 621.38904 
L 595.332144 621.212602 
L 598.110726 621.148091 
L 600.887992 620.604132 
L 606.443578 620.746383 
L 609.221297 620.465324 
L 611.999707 620.357772 
L 614.776816 620.065891 
L 617.555482 620.578272 
L 620.332423 619.974076 
L 628.665802 619.808737 
L 634.221475 619.959418 
L 636.999155 619.893595 
L 639.777079 620.028873 
L 642.554747 619.822448 
L 645.332598 619.977621 
L 648.11039 619.947706 
L 653.666865 619.596696 
L 655.055547 619.935323 
L 659.221622 620.135944 
L 663.388346 619.757572 
L 664.77826 620.02794 
L 667.555337 619.704526 
L 670.333302 620.128083 
L 671.721641 619.852683 
L 673.110129 619.927331 
L 674.499443 619.868027 
L 677.27744 620.16723 
L 685.610673 620.507184 
L 686.999538 620.371278 
L 689.777339 620.814963 
L 691.167199 620.629904 
L 693.94469 620.822139 
L 695.332837 621.246425 
L 696.72236 621.432475 
L 699.49956 620.811404 
L 700.888567 621.128576 
L 705.055236 621.494696 
L 706.444164 621.823273 
L 710.610706 622.055705 
L 711.999747 622.113142 
L 713.388661 622.499944 
L 716.166582 622.64215 
L 717.554769 622.773856 
L 718.944214 623.325501 
L 720.333082 623.026473 
L 721.722592 623.245282 
L 723.11086 623.332968 
L 724.500725 623.698447 
L 725.888846 623.3533 
L 727.277603 623.696492 
L 728.666593 624.175649 
L 732.833758 624.397287 
L 738.38959 625.188131 
L 741.166534 625.211788 
L 742.555347 625.457171 
L 745.333197 625.681872 
L 750.888536 627.076752 
L 752.277725 626.88408 
L 755.055507 627.553603 
L 757.833323 627.849948 
L 759.223313 628.184359 
L 760.611127 628.657419 
L 761.999324 628.657623 
L 763.388823 628.532977 
L 764.778431 628.938419 
L 766.16675 629.025114 
L 767.555588 629.247511 
L 768.944569 628.955076 
L 770.333965 628.847699 
L 771.722321 628.454246 
L 774.500091 628.131677 
L 775.888098 627.774833 
L 777.278916 627.686709 
L 780.055627 627.244512 
L 782.833386 626.533041 
L 784.221471 626.634701 
L 785.611221 625.915762 
L 788.389076 625.542466 
L 789.77792 625.496318 
L 791.166818 625.145833 
L 792.555682 625.182968 
L 793.944603 624.644478 
L 796.722398 623.987469 
L 799.500276 623.629108 
L 803.666941 622.261328 
L 805.055774 622.149576 
L 807.833558 621.723452 
L 812.000302 620.423231 
L 813.38912 620.234205 
L 814.778021 619.810969 
L 818.94475 619.185114 
L 821.723158 618.761236 
L 824.500354 617.719467 
L 827.278218 617.368398 
L 828.66697 616.892393 
L 831.444751 616.825884 
L 832.833681 616.283456 
L 835.611445 615.718276 
L 837.000434 615.649638 
L 838.389077 615.168994 
L 839.777583 614.880001 
L 841.167098 614.452885 
L 842.557427 614.246736 
L 845.333877 613.360738 
L 849.500497 612.959205 
L 850.88915 612.459833 
L 855.056104 611.318329 
L 867.556087 609.44196 
L 868.945102 609.287881 
L 870.333761 608.813013 
L 871.722925 608.508122 
L 874.501067 608.525974 
L 875.889586 607.845658 
L 877.279123 603.632578 
L 880.056191 603.565748 
L 882.834056 603.746197 
L 885.612296 603.47949 
L 888.389637 603.528264 
L 891.167367 603.230432 
L 893.945118 603.322757 
L 898.11188 603.156747 
L 903.667558 603.469368 
L 912.000939 602.942197 
L 920.334223 602.943918 
L 928.667411 603.165673 
L 935.612077 602.805475 
L 941.167678 602.858332 
L 952.278906 603.508544 
L 957.834854 604.182152 
L 962.001057 604.526423 
L 966.167816 604.178359 
L 970.334545 604.601741 
L 974.501205 604.512334 
L 978.667921 604.894031 
L 982.834612 605.705586 
L 987.001325 605.841754 
L 989.779085 605.129554 
L 992.556794 606.302387 
L 995.334352 605.733473 
L 998.112481 606.697357 
L 1000.89024 607.168229 
L 1003.668649 607.351478 
L 1006.445068 608.289663 
L 1009.223701 608.590558 
L 1012.001625 609.450332 
L 1014.778419 609.289806 
L 1016.168189 609.404592 
L 1018.945903 610.096402 
L 1020.334892 610.905361 
L 1023.112532 610.612255 
L 1024.501476 611.103342 
L 1025.890335 611.990041 
L 1027.279213 613.283552 
L 1028.667564 613.674234 
L 1030.057084 614.211586 
L 1038.390445 614.460148 
L 1041.168308 615.639428 
L 1043.946133 615.619009 
L 1046.723883 616.396434 
L 1049.501636 616.968732 
L 1052.280059 618.124938 
L 1055.057418 617.12354 
L 1060.612826 618.247834 
L 1063.39021 618.92462 
L 1066.169045 618.548612 
L 1068.946513 619.461068 
L 1071.723964 619.539507 
L 1074.501518 619.93191 
L 1077.279631 620.778412 
L 1080.05736 621.48154 
L 1082.835128 621.692093 
L 1085.612988 622.396709 
L 1088.390805 623.34837 
L 1093.945739 624.387194 
L 1096.724068 625.476249 
L 1099.502534 625.328004 
L 1105.058209 626.826701 
L 1107.835229 627.070393 
L 1110.61312 627.931479 
L 1113.390948 628.029784 
L 1116.169771 628.691082 
L 1118.946542 629.140717 
L 1121.724299 629.243398 
L 1124.50205 628.826958 
L 1127.27907 628.088971 
L 1130.058192 627.813893 
L 1132.835406 627.111231 
L 1135.61325 626.828481 
L 1143.946639 625.251314 
L 1146.724398 624.42529 
L 1149.502119 624.068826 
L 1155.057967 622.850662 
L 1157.836213 622.434047 
L 1160.613561 622.186301 
L 1163.391225 621.138085 
L 1166.168974 620.99617 
L 1171.72457 619.526847 
L 1182.835746 617.886643 
L 1185.613442 617.352792 
L 1188.391234 617.006158 
L 1193.946621 615.914244 
L 1196.725556 615.853394 
L 1202.280214 615.121504 
L 1205.058132 614.938167 
L 1210.613635 614.319809 
L 1213.39146 613.685582 
L 1216.169228 613.782924 
L 1224.502548 613.519688 
L 1227.280325 612.842814 
L 1232.837094 612.587279 
L 1238.391577 611.9637 
L 1241.1694 611.291901 
L 1243.947141 611.540143 
L 1246.725471 611.949202 
L 1249.502774 610.998678 
L 1252.280282 610.404444 
L 1255.058335 610.066998 
L 1257.836173 610.912625 
L 1263.392785 609.573374 
L 1266.169373 609.550183 
L 1268.948624 607.99046 
L 1271.725078 607.936232 
L 1274.502858 607.25119 
L 1277.280888 606.75389 
L 1285.614634 605.676415 
L 1291.170251 604.901032 
L 1293.947472 604.670672 
L 1296.725271 604.297696 
L 1299.503811 604.085072 
L 1302.280853 603.521408 
L 1305.058539 603.301987 
L 1307.836391 603.340638 
L 1310.61422 603.200619 
L 1313.392609 602.824377 
L 1321.725357 602.583515 
L 1324.503082 602.16235 
L 1327.282656 602.204444 
L 1330.058732 601.811662 
L 1332.836521 601.607263 
L 1338.392121 601.781353 
L 1339.781055 601.607876 
L 1341.169883 601.832227 
L 1343.947646 601.739814 
L 1346.7255 601.520422 
L 1350.891307 600.973707 
L 1353.669945 601.125277 
L 1356.447749 601.083272 
L 1359.225539 600.873243 
L 1364.781177 599.942906 
L 1370.33751 600.041882 
L 1373.115632 600.10912 
L 1375.892259 599.848539 
L 1378.670064 600.201153 
L 1381.447947 599.934184 
L 1387.003476 600.30573 
L 1395.336447 601.330726 
L 1398.114711 602.286238 
L 1400.892492 602.296506 
L 1403.670246 603.110745 
L 1406.447841 603.496701 
L 1409.225743 604.412862 
L 1412.003572 604.68622 
L 1414.781454 605.840383 
L 1417.558802 606.141336 
L 1420.336128 607.172984 
L 1423.11479 608.713454 
L 1425.892645 608.550652 
L 1428.670328 609.130243 
L 1431.448229 610.069915 
L 1434.226022 610.772606 
L 1437.003677 611.231459 
L 1442.559398 612.322527 
L 1448.114922 613.135978 
L 1450.892457 613.103016 
L 1453.669682 614.074863 
L 1456.448245 614.244607 
L 1462.003869 615.257818 
L 1464.78175 615.808092 
L 1467.559393 615.950737 
L 1470.337258 616.280131 
L 1473.114719 616.908903 
L 1478.670716 617.491615 
L 1484.225901 617.389664 
L 1487.004022 617.573993 
L 1492.559652 617.107059 
L 1500.89331 616.067361 
L 1509.227259 614.441829 
L 1512.004215 614.438708 
L 1514.782913 613.69582 
L 1517.55988 613.086738 
L 1521.726475 612.323694 
L 1525.893036 611.857635 
L 1530.059848 610.952093 
L 1539.782623 610.384491 
L 1545.337662 609.544845 
L 1548.115397 608.950056 
L 1552.28274 608.248795 
L 1556.448884 608.292668 
L 1563.393344 607.282869 
L 1566.171144 607.179139 
L 1568.948944 606.412594 
L 1571.725968 605.977689 
L 1574.50448 605.906601 
L 1577.282292 605.621283 
L 1580.06016 604.859289 
L 1582.837937 604.490106 
L 1593.949091 602.52707 
L 1593.949091 602.52707 
" clip-path="url(#p4a787996fb)" style="fill: none; stroke: #9933fa; stroke-width: 3; stroke-linecap: square"/>
   </g>
   <g id="patch_3">
    <path d="M 230.4 640.8 
L 230.4 86.4 
" style="fill: none; stroke: #000000; stroke-width: 3; stroke-linejoin: miter; stroke-linecap: square"/>
   </g>
   <g id="patch_4">
    <path d="M 1658.88 640.8 
L 1658.88 86.4 
" style="fill: none; stroke: #000000; stroke-width: 3; stroke-linejoin: miter; stroke-linecap: square"/>
   </g>
   <g id="patch_5">
    <path d="M 230.4 640.8 
L 1658.88 640.8 
" style="fill: none; stroke: #000000; stroke-width: 3; stroke-linejoin: miter; stroke-linecap: square"/>
   </g>
   <g id="patch_6">
    <path d="M 230.4 86.4 
L 1658.88 86.4 
" style="fill: none; stroke: #000000; stroke-width: 3; stroke-linejoin: miter; stroke-linecap: square"/>
   </g>
   <g id="text_9">
    <!-- Off2 -->
    <g transform="translate(896.77125 77.041406) scale(0.45 -0.45)">
     <defs>
      <path id="DejaVuSans-4f" d="M 2522 4238 
Q 1834 4238 1429 3725 
Q 1025 3213 1025 2328 
Q 1025 1447 1429 934 
Q 1834 422 2522 422 
Q 3209 422 3611 934 
Q 4013 1447 4013 2328 
Q 4013 3213 3611 3725 
Q 3209 4238 2522 4238 
z
M 2522 4750 
Q 3503 4750 4090 4092 
Q 4678 3434 4678 2328 
Q 4678 1225 4090 567 
Q 3503 -91 2522 -91 
Q 1538 -91 948 565 
Q 359 1222 359 2328 
Q 359 3434 948 4092 
Q 1538 4750 2522 4750 
z
" transform="scale(0.015625)"/>
      <path id="DejaVuSans-66" d="M 2375 4863 
L 2375 4384 
L 1825 4384 
Q 1516 4384 1395 4259 
Q 1275 4134 1275 3809 
L 1275 3500 
L 2222 3500 
L 2222 3053 
L 1275 3053 
L 1275 0 
L 697 0 
L 697 3053 
L 147 3053 
L 147 3500 
L 697 3500 
L 697 3744 
Q 697 4328 969 4595 
Q 1241 4863 1831 4863 
L 2375 4863 
z
" transform="scale(0.015625)"/>
     </defs>
     <use xlink:href="#DejaVuSans-4f"/>
     <use xlink:href="#DejaVuSans-66" x="78.710938"/>
     <use xlink:href="#DejaVuSans-66" x="113.916016"/>
     <use xlink:href="#DejaVuSans-32" x="149.121094"/>
    </g>
   </g>
   <g id="legend_1">
    <g id="patch_7">
     <path d="M 258.4 294.5375 
L 410.075 294.5375 
Q 418.075 294.5375 418.075 286.5375 
L 418.075 114.4 
Q 418.075 106.4 410.075 106.4 
L 258.4 106.4 
Q 250.4 106.4 250.4 114.4 
L 250.4 286.5375 
Q 250.4 294.5375 258.4 294.5375 
z
" style="fill: #ffffff; opacity: 0.8; stroke: #cccccc; stroke-linejoin: miter"/>
    </g>
    <g id="line2d_16">
     <path d="M 266.4 138.79375 
L 306.4 138.79375 
L 346.4 138.79375 
" style="fill: none; stroke: #00ff00; stroke-width: 3; stroke-linecap: square"/>
    </g>
    <g id="text_10">
     <!-- x -->
     <g transform="translate(378.4 152.79375) scale(0.4 -0.4)">
      <defs>
       <path id="DejaVuSans-78" d="M 3513 3500 
L 2247 1797 
L 3578 0 
L 2900 0 
L 1881 1375 
L 863 0 
L 184 0 
L 1544 1831 
L 300 3500 
L 978 3500 
L 1906 2253 
L 2834 3500 
L 3513 3500 
z
" transform="scale(0.015625)"/>
      </defs>
      <use xlink:href="#DejaVuSans-78"/>
     </g>
    </g>
    <g id="line2d_17">
     <path d="M 266.4 197.50625 
L 306.4 197.50625 
L 346.4 197.50625 
" style="fill: none; stroke: #0000ff; stroke-width: 3; stroke-linecap: square"/>
    </g>
    <g id="text_11">
     <!-- y -->
     <g transform="translate(378.4 211.50625) scale(0.4 -0.4)">
      <defs>
       <path id="DejaVuSans-79" d="M 2059 -325 
Q 1816 -950 1584 -1140 
Q 1353 -1331 966 -1331 
L 506 -1331 
L 506 -850 
L 844 -850 
Q 1081 -850 1212 -737 
Q 1344 -625 1503 -206 
L 1606 56 
L 191 3500 
L 800 3500 
L 1894 763 
L 2988 3500 
L 3597 3500 
L 2059 -325 
z
" transform="scale(0.015625)"/>
      </defs>
      <use xlink:href="#DejaVuSans-79"/>
     </g>
    </g>
    <g id="line2d_18">
     <path d="M 266.4 256.21875 
L 306.4 256.21875 
L 346.4 256.21875 
" style="fill: none; stroke: #9933fa; stroke-width: 3; stroke-linecap: square"/>
    </g>
    <g id="text_12">
     <!-- z -->
     <g transform="translate(378.4 270.21875) scale(0.4 -0.4)">
      <defs>
       <path id="DejaVuSans-7a" d="M 353 3500 
L 3084 3500 
L 3084 2975 
L 922 459 
L 3084 459 
L 3084 0 
L 275 0 
L 275 525 
L 2438 3041 
L 353 3041 
L 353 3500 
z
" transform="scale(0.015625)"/>
      </defs>
      <use xlink:href="#DejaVuSans-7a"/>
     </g>
    </g>
   </g>
  </g>
 </g>
 <defs>
  <clipPath id="p4a787996fb">
   <rect x="230.4" y="86.4" width="1428.48" height="554.4"/>
  </clipPath>
 </defs>
</svg>
