<?xml version="1.0" encoding="utf-8" standalone="no"?>
<!DOCTYPE svg PUBLIC "-//W3C//DTD SVG 1.1//EN"
  "http://www.w3.org/Graphics/SVG/1.1/DTD/svg11.dtd">
<svg xmlns:xlink="http://www.w3.org/1999/xlink" width="1843.2pt" height="720pt" viewBox="0 0 1843.2 720" xmlns="http://www.w3.org/2000/svg" version="1.1">
 <metadata>
  <rdf:RDF xmlns:dc="http://purl.org/dc/elements/1.1/" xmlns:cc="http://creativecommons.org/ns#" xmlns:rdf="http://www.w3.org/1999/02/22-rdf-syntax-ns#">
   <cc:Work>
    <dc:type rdf:resource="http://purl.org/dc/dcmitype/StillImage"/>
    <dc:date>2024-03-12T16:02:10.847139</dc:date>
    <dc:format>image/svg+xml</dc:format>
    <dc:creator>
     <cc:Agent>
      <dc:title>Matplotlib v3.7.0, https://matplotlib.org/</dc:title>
     </cc:Agent>
    </dc:creator>
   </cc:Work>
  </rdf:RDF>
 </metadata>
 <defs>
  <style type="text/css">*{stroke-linejoin: round; stroke-linecap: butt}</style>
 </defs>
 <g id="figure_1">
  <g id="patch_1">
   <path d="M 0 720 
L 1843.2 720 
L 1843.2 0 
L 0 0 
z
" style="fill: #ffffff"/>
  </g>
  <g id="axes_1">
   <g id="patch_2">
    <path d="M 230.4 640.8 
L 1658.88 640.8 
L 1658.88 86.4 
L 230.4 86.4 
z
" style="fill: #ffffff"/>
   </g>
   <g id="matplotlib.axis_1">
    <g id="xtick_1">
     <g id="line2d_1">
      <path d="M 295.330909 640.8 
L 295.330909 86.4 
" clip-path="url(#pcb86e1b0f6)" style="fill: none; stroke: #b0b0b0; stroke-width: 0.8; stroke-linecap: square"/>
     </g>
     <g id="line2d_2">
      <defs>
       <path id="m1d875cfb30" d="M 0 0 
L 0 -5 
" style="stroke: #000000; stroke-width: 0.8"/>
      </defs>
      <g>
       <use xlink:href="#m1d875cfb30" x="295.330909" y="640.8" style="stroke: #000000; stroke-width: 0.8"/>
      </g>
     </g>
     <g id="text_1">
      <!-- 0 -->
      <g transform="translate(282.605909 674.69375) scale(0.4 -0.4)">
       <defs>
        <path id="DejaVuSans-30" d="M 2034 4250 
Q 1547 4250 1301 3770 
Q 1056 3291 1056 2328 
Q 1056 1369 1301 889 
Q 1547 409 2034 409 
Q 2525 409 2770 889 
Q 3016 1369 3016 2328 
Q 3016 3291 2770 3770 
Q 2525 4250 2034 4250 
z
M 2034 4750 
Q 2819 4750 3233 4129 
Q 3647 3509 3647 2328 
Q 3647 1150 3233 529 
Q 2819 -91 2034 -91 
Q 1250 -91 836 529 
Q 422 1150 422 2328 
Q 422 3509 836 4129 
Q 1250 4750 2034 4750 
z
" transform="scale(0.015625)"/>
       </defs>
       <use xlink:href="#DejaVuSans-30"/>
      </g>
     </g>
    </g>
    <g id="xtick_2">
     <g id="line2d_3">
      <path d="M 895.368328 640.8 
L 895.368328 86.4 
" clip-path="url(#pcb86e1b0f6)" style="fill: none; stroke: #b0b0b0; stroke-width: 0.8; stroke-linecap: square"/>
     </g>
     <g id="line2d_4">
      <g>
       <use xlink:href="#m1d875cfb30" x="895.368328" y="640.8" style="stroke: #000000; stroke-width: 0.8"/>
      </g>
     </g>
     <g id="text_2">
      <!-- 100 -->
      <g transform="translate(857.193328 674.69375) scale(0.4 -0.4)">
       <defs>
        <path id="DejaVuSans-31" d="M 794 531 
L 1825 531 
L 1825 4091 
L 703 3866 
L 703 4441 
L 1819 4666 
L 2450 4666 
L 2450 531 
L 3481 531 
L 3481 0 
L 794 0 
L 794 531 
z
" transform="scale(0.015625)"/>
       </defs>
       <use xlink:href="#DejaVuSans-31"/>
       <use xlink:href="#DejaVuSans-30" x="63.623047"/>
       <use xlink:href="#DejaVuSans-30" x="127.246094"/>
      </g>
     </g>
    </g>
    <g id="xtick_3">
     <g id="line2d_5">
      <path d="M 1495.405746 640.8 
L 1495.405746 86.4 
" clip-path="url(#pcb86e1b0f6)" style="fill: none; stroke: #b0b0b0; stroke-width: 0.8; stroke-linecap: square"/>
     </g>
     <g id="line2d_6">
      <g>
       <use xlink:href="#m1d875cfb30" x="1495.405746" y="640.8" style="stroke: #000000; stroke-width: 0.8"/>
      </g>
     </g>
     <g id="text_3">
      <!-- 200 -->
      <g transform="translate(1457.230746 674.69375) scale(0.4 -0.4)">
       <defs>
        <path id="DejaVuSans-32" d="M 1228 531 
L 3431 531 
L 3431 0 
L 469 0 
L 469 531 
Q 828 903 1448 1529 
Q 2069 2156 2228 2338 
Q 2531 2678 2651 2914 
Q 2772 3150 2772 3378 
Q 2772 3750 2511 3984 
Q 2250 4219 1831 4219 
Q 1534 4219 1204 4116 
Q 875 4013 500 3803 
L 500 4441 
Q 881 4594 1212 4672 
Q 1544 4750 1819 4750 
Q 2544 4750 2975 4387 
Q 3406 4025 3406 3419 
Q 3406 3131 3298 2873 
Q 3191 2616 2906 2266 
Q 2828 2175 2409 1742 
Q 1991 1309 1228 531 
z
" transform="scale(0.015625)"/>
       </defs>
       <use xlink:href="#DejaVuSans-32"/>
       <use xlink:href="#DejaVuSans-30" x="63.623047"/>
       <use xlink:href="#DejaVuSans-30" x="127.246094"/>
      </g>
     </g>
    </g>
    <g id="text_4">
     <!-- Time(s) -->
     <g transform="translate(882.030625 714.7875) scale(0.4 -0.4)">
      <defs>
       <path id="TimesNewRomanPSMT-54" d="M 3703 4238 
L 3750 3244 
L 3631 3244 
Q 3597 3506 3538 3619 
Q 3441 3800 3280 3886 
Q 3119 3972 2856 3972 
L 2259 3972 
L 2259 734 
Q 2259 344 2344 247 
Q 2463 116 2709 116 
L 2856 116 
L 2856 0 
L 1059 0 
L 1059 116 
L 1209 116 
Q 1478 116 1591 278 
Q 1659 378 1659 734 
L 1659 3972 
L 1150 3972 
Q 853 3972 728 3928 
Q 566 3869 450 3700 
Q 334 3531 313 3244 
L 194 3244 
L 244 4238 
L 3703 4238 
z
" transform="scale(0.015625)"/>
       <path id="TimesNewRomanPSMT-69" d="M 928 4444 
Q 1059 4444 1151 4351 
Q 1244 4259 1244 4128 
Q 1244 3997 1151 3903 
Q 1059 3809 928 3809 
Q 797 3809 703 3903 
Q 609 3997 609 4128 
Q 609 4259 701 4351 
Q 794 4444 928 4444 
z
M 1188 2947 
L 1188 647 
Q 1188 378 1227 289 
Q 1266 200 1342 156 
Q 1419 113 1622 113 
L 1622 0 
L 231 0 
L 231 113 
Q 441 113 512 153 
Q 584 194 626 287 
Q 669 381 669 647 
L 669 1750 
Q 669 2216 641 2353 
Q 619 2453 572 2492 
Q 525 2531 444 2531 
Q 356 2531 231 2484 
L 188 2597 
L 1050 2947 
L 1188 2947 
z
" transform="scale(0.015625)"/>
       <path id="TimesNewRomanPSMT-6d" d="M 1050 2338 
Q 1363 2650 1419 2697 
Q 1559 2816 1721 2881 
Q 1884 2947 2044 2947 
Q 2313 2947 2506 2790 
Q 2700 2634 2766 2338 
Q 3088 2713 3309 2830 
Q 3531 2947 3766 2947 
Q 3994 2947 4170 2830 
Q 4347 2713 4450 2447 
Q 4519 2266 4519 1878 
L 4519 647 
Q 4519 378 4559 278 
Q 4591 209 4675 161 
Q 4759 113 4950 113 
L 4950 0 
L 3538 0 
L 3538 113 
L 3597 113 
Q 3781 113 3884 184 
Q 3956 234 3988 344 
Q 4000 397 4000 647 
L 4000 1878 
Q 4000 2228 3916 2372 
Q 3794 2572 3525 2572 
Q 3359 2572 3192 2489 
Q 3025 2406 2788 2181 
L 2781 2147 
L 2788 2013 
L 2788 647 
Q 2788 353 2820 281 
Q 2853 209 2943 161 
Q 3034 113 3253 113 
L 3253 0 
L 1806 0 
L 1806 113 
Q 2044 113 2133 169 
Q 2222 225 2256 338 
Q 2272 391 2272 647 
L 2272 1878 
Q 2272 2228 2169 2381 
Q 2031 2581 1784 2581 
Q 1616 2581 1450 2491 
Q 1191 2353 1050 2181 
L 1050 647 
Q 1050 366 1089 281 
Q 1128 197 1204 155 
Q 1281 113 1516 113 
L 1516 0 
L 100 0 
L 100 113 
Q 297 113 375 155 
Q 453 197 493 289 
Q 534 381 534 647 
L 534 1741 
Q 534 2213 506 2350 
Q 484 2453 437 2492 
Q 391 2531 309 2531 
Q 222 2531 100 2484 
L 53 2597 
L 916 2947 
L 1050 2947 
L 1050 2338 
z
" transform="scale(0.015625)"/>
       <path id="TimesNewRomanPSMT-65" d="M 681 1784 
Q 678 1147 991 784 
Q 1303 422 1725 422 
Q 2006 422 2214 576 
Q 2422 731 2563 1106 
L 2659 1044 
Q 2594 616 2278 264 
Q 1963 -88 1488 -88 
Q 972 -88 605 314 
Q 238 716 238 1394 
Q 238 2128 614 2539 
Q 991 2950 1559 2950 
Q 2041 2950 2350 2633 
Q 2659 2316 2659 1784 
L 681 1784 
z
M 681 1966 
L 2006 1966 
Q 1991 2241 1941 2353 
Q 1863 2528 1708 2628 
Q 1553 2728 1384 2728 
Q 1125 2728 920 2526 
Q 716 2325 681 1966 
z
" transform="scale(0.015625)"/>
       <path id="TimesNewRomanPSMT-28" d="M 1988 -1253 
L 1988 -1369 
Q 1516 -1131 1200 -813 
Q 750 -359 506 256 
Q 263 872 263 1534 
Q 263 2503 741 3301 
Q 1219 4100 1988 4444 
L 1988 4313 
Q 1603 4100 1356 3731 
Q 1109 3363 987 2797 
Q 866 2231 866 1616 
Q 866 947 969 400 
Q 1050 -31 1165 -292 
Q 1281 -553 1476 -793 
Q 1672 -1034 1988 -1253 
z
" transform="scale(0.015625)"/>
       <path id="TimesNewRomanPSMT-73" d="M 2050 2947 
L 2050 1972 
L 1947 1972 
Q 1828 2431 1642 2597 
Q 1456 2763 1169 2763 
Q 950 2763 815 2647 
Q 681 2531 681 2391 
Q 681 2216 781 2091 
Q 878 1963 1175 1819 
L 1631 1597 
Q 2266 1288 2266 781 
Q 2266 391 1970 151 
Q 1675 -88 1309 -88 
Q 1047 -88 709 6 
Q 606 38 541 38 
Q 469 38 428 -44 
L 325 -44 
L 325 978 
L 428 978 
Q 516 541 762 319 
Q 1009 97 1316 97 
Q 1531 97 1667 223 
Q 1803 350 1803 528 
Q 1803 744 1651 891 
Q 1500 1038 1047 1263 
Q 594 1488 453 1669 
Q 313 1847 313 2119 
Q 313 2472 555 2709 
Q 797 2947 1181 2947 
Q 1350 2947 1591 2875 
Q 1750 2828 1803 2828 
Q 1853 2828 1881 2850 
Q 1909 2872 1947 2947 
L 2050 2947 
z
" transform="scale(0.015625)"/>
       <path id="TimesNewRomanPSMT-29" d="M 144 4313 
L 144 4444 
Q 619 4209 934 3891 
Q 1381 3434 1625 2820 
Q 1869 2206 1869 1541 
Q 1869 572 1392 -226 
Q 916 -1025 144 -1369 
L 144 -1253 
Q 528 -1038 776 -670 
Q 1025 -303 1145 264 
Q 1266 831 1266 1447 
Q 1266 2113 1163 2663 
Q 1084 3094 967 3353 
Q 850 3613 656 3853 
Q 463 4094 144 4313 
z
" transform="scale(0.015625)"/>
      </defs>
      <use xlink:href="#TimesNewRomanPSMT-54"/>
      <use xlink:href="#TimesNewRomanPSMT-69" x="57.583984"/>
      <use xlink:href="#TimesNewRomanPSMT-6d" x="85.367188"/>
      <use xlink:href="#TimesNewRomanPSMT-65" x="163.150391"/>
      <use xlink:href="#TimesNewRomanPSMT-28" x="207.535156"/>
      <use xlink:href="#TimesNewRomanPSMT-73" x="240.835938"/>
      <use xlink:href="#TimesNewRomanPSMT-29" x="279.751953"/>
     </g>
    </g>
   </g>
   <g id="matplotlib.axis_2">
    <g id="ytick_1">
     <g id="line2d_7">
      <path d="M 230.4 585.36 
L 1658.88 585.36 
" clip-path="url(#pcb86e1b0f6)" style="fill: none; stroke: #b0b0b0; stroke-width: 0.8; stroke-linecap: square"/>
     </g>
     <g id="line2d_8">
      <defs>
       <path id="mbacee3fe81" d="M 0 0 
L 5 0 
" style="stroke: #000000; stroke-width: 0.8"/>
      </defs>
      <g>
       <use xlink:href="#mbacee3fe81" x="230.4" y="585.36" style="stroke: #000000; stroke-width: 0.8"/>
      </g>
     </g>
     <g id="text_5">
      <!-- −0.1 -->
      <g transform="translate(129.76875 600.556875) scale(0.4 -0.4)">
       <defs>
        <path id="DejaVuSans-2212" d="M 678 2272 
L 4684 2272 
L 4684 1741 
L 678 1741 
L 678 2272 
z
" transform="scale(0.015625)"/>
        <path id="DejaVuSans-2e" d="M 684 794 
L 1344 794 
L 1344 0 
L 684 0 
L 684 794 
z
" transform="scale(0.015625)"/>
       </defs>
       <use xlink:href="#DejaVuSans-2212"/>
       <use xlink:href="#DejaVuSans-30" x="83.789062"/>
       <use xlink:href="#DejaVuSans-2e" x="147.412109"/>
       <use xlink:href="#DejaVuSans-31" x="179.199219"/>
      </g>
     </g>
    </g>
    <g id="ytick_2">
     <g id="line2d_9">
      <path d="M 230.4 474.48 
L 1658.88 474.48 
" clip-path="url(#pcb86e1b0f6)" style="fill: none; stroke: #b0b0b0; stroke-width: 0.8; stroke-linecap: square"/>
     </g>
     <g id="line2d_10">
      <g>
       <use xlink:href="#mbacee3fe81" x="230.4" y="474.48" style="stroke: #000000; stroke-width: 0.8"/>
      </g>
     </g>
     <g id="text_6">
      <!-- 0.0 -->
      <g transform="translate(163.2875 489.676875) scale(0.4 -0.4)">
       <use xlink:href="#DejaVuSans-30"/>
       <use xlink:href="#DejaVuSans-2e" x="63.623047"/>
       <use xlink:href="#DejaVuSans-30" x="95.410156"/>
      </g>
     </g>
    </g>
    <g id="ytick_3">
     <g id="line2d_11">
      <path d="M 230.4 363.6 
L 1658.88 363.6 
" clip-path="url(#pcb86e1b0f6)" style="fill: none; stroke: #b0b0b0; stroke-width: 0.8; stroke-linecap: square"/>
     </g>
     <g id="line2d_12">
      <g>
       <use xlink:href="#mbacee3fe81" x="230.4" y="363.6" style="stroke: #000000; stroke-width: 0.8"/>
      </g>
     </g>
     <g id="text_7">
      <!-- 0.1 -->
      <g transform="translate(163.2875 378.796875) scale(0.4 -0.4)">
       <use xlink:href="#DejaVuSans-30"/>
       <use xlink:href="#DejaVuSans-2e" x="63.623047"/>
       <use xlink:href="#DejaVuSans-31" x="95.410156"/>
      </g>
     </g>
    </g>
    <g id="ytick_4">
     <g id="line2d_13">
      <path d="M 230.4 252.72 
L 1658.88 252.72 
" clip-path="url(#pcb86e1b0f6)" style="fill: none; stroke: #b0b0b0; stroke-width: 0.8; stroke-linecap: square"/>
     </g>
     <g id="line2d_14">
      <g>
       <use xlink:href="#mbacee3fe81" x="230.4" y="252.72" style="stroke: #000000; stroke-width: 0.8"/>
      </g>
     </g>
     <g id="text_8">
      <!-- 0.2 -->
      <g transform="translate(163.2875 267.916875) scale(0.4 -0.4)">
       <use xlink:href="#DejaVuSans-30"/>
       <use xlink:href="#DejaVuSans-2e" x="63.623047"/>
       <use xlink:href="#DejaVuSans-32" x="95.410156"/>
      </g>
     </g>
    </g>
    <g id="ytick_5">
     <g id="line2d_15">
      <path d="M 230.4 141.84 
L 1658.88 141.84 
" clip-path="url(#pcb86e1b0f6)" style="fill: none; stroke: #b0b0b0; stroke-width: 0.8; stroke-linecap: square"/>
     </g>
     <g id="line2d_16">
      <g>
       <use xlink:href="#mbacee3fe81" x="230.4" y="141.84" style="stroke: #000000; stroke-width: 0.8"/>
      </g>
     </g>
     <g id="text_9">
      <!-- 0.3 -->
      <g transform="translate(163.2875 157.036875) scale(0.4 -0.4)">
       <defs>
        <path id="DejaVuSans-33" d="M 2597 2516 
Q 3050 2419 3304 2112 
Q 3559 1806 3559 1356 
Q 3559 666 3084 287 
Q 2609 -91 1734 -91 
Q 1441 -91 1130 -33 
Q 819 25 488 141 
L 488 750 
Q 750 597 1062 519 
Q 1375 441 1716 441 
Q 2309 441 2620 675 
Q 2931 909 2931 1356 
Q 2931 1769 2642 2001 
Q 2353 2234 1838 2234 
L 1294 2234 
L 1294 2753 
L 1863 2753 
Q 2328 2753 2575 2939 
Q 2822 3125 2822 3475 
Q 2822 3834 2567 4026 
Q 2313 4219 1838 4219 
Q 1578 4219 1281 4162 
Q 984 4106 628 3988 
L 628 4550 
Q 988 4650 1302 4700 
Q 1616 4750 1894 4750 
Q 2613 4750 3031 4423 
Q 3450 4097 3450 3541 
Q 3450 3153 3228 2886 
Q 3006 2619 2597 2516 
z
" transform="scale(0.015625)"/>
       </defs>
       <use xlink:href="#DejaVuSans-30"/>
       <use xlink:href="#DejaVuSans-2e" x="63.623047"/>
       <use xlink:href="#DejaVuSans-33" x="95.410156"/>
      </g>
     </g>
    </g>
    <g id="text_10">
     <!-- Error(rad) -->
     <g transform="translate(117.2125 444.65) rotate(-90) scale(0.4 -0.4)">
      <defs>
       <path id="TimesNewRomanPSMT-45" d="M 1338 4006 
L 1338 2331 
L 2269 2331 
Q 2631 2331 2753 2441 
Q 2916 2584 2934 2947 
L 3050 2947 
L 3050 1472 
L 2934 1472 
Q 2891 1781 2847 1869 
Q 2791 1978 2662 2040 
Q 2534 2103 2269 2103 
L 1338 2103 
L 1338 706 
Q 1338 425 1363 364 
Q 1388 303 1450 267 
Q 1513 231 1688 231 
L 2406 231 
Q 2766 231 2928 281 
Q 3091 331 3241 478 
Q 3434 672 3638 1063 
L 3763 1063 
L 3397 0 
L 131 0 
L 131 116 
L 281 116 
Q 431 116 566 188 
Q 666 238 702 338 
Q 738 438 738 747 
L 738 3500 
Q 738 3903 656 3997 
Q 544 4122 281 4122 
L 131 4122 
L 131 4238 
L 3397 4238 
L 3444 3309 
L 3322 3309 
Q 3256 3644 3176 3769 
Q 3097 3894 2941 3959 
Q 2816 4006 2500 4006 
L 1338 4006 
z
" transform="scale(0.015625)"/>
       <path id="TimesNewRomanPSMT-72" d="M 1038 2947 
L 1038 2303 
Q 1397 2947 1775 2947 
Q 1947 2947 2059 2842 
Q 2172 2738 2172 2600 
Q 2172 2478 2090 2393 
Q 2009 2309 1897 2309 
Q 1788 2309 1652 2417 
Q 1516 2525 1450 2525 
Q 1394 2525 1328 2463 
Q 1188 2334 1038 2041 
L 1038 669 
Q 1038 431 1097 309 
Q 1138 225 1241 169 
Q 1344 113 1538 113 
L 1538 0 
L 72 0 
L 72 113 
Q 291 113 397 181 
Q 475 231 506 341 
Q 522 394 522 644 
L 522 1753 
Q 522 2253 501 2348 
Q 481 2444 426 2487 
Q 372 2531 291 2531 
Q 194 2531 72 2484 
L 41 2597 
L 906 2947 
L 1038 2947 
z
" transform="scale(0.015625)"/>
       <path id="TimesNewRomanPSMT-6f" d="M 1600 2947 
Q 2250 2947 2644 2453 
Q 2978 2031 2978 1484 
Q 2978 1100 2793 706 
Q 2609 313 2286 112 
Q 1963 -88 1566 -88 
Q 919 -88 538 428 
Q 216 863 216 1403 
Q 216 1797 411 2186 
Q 606 2575 925 2761 
Q 1244 2947 1600 2947 
z
M 1503 2744 
Q 1338 2744 1170 2645 
Q 1003 2547 900 2300 
Q 797 2053 797 1666 
Q 797 1041 1045 587 
Q 1294 134 1700 134 
Q 2003 134 2200 384 
Q 2397 634 2397 1244 
Q 2397 2006 2069 2444 
Q 1847 2744 1503 2744 
z
" transform="scale(0.015625)"/>
       <path id="TimesNewRomanPSMT-61" d="M 1822 413 
Q 1381 72 1269 19 
Q 1100 -59 909 -59 
Q 613 -59 420 144 
Q 228 347 228 678 
Q 228 888 322 1041 
Q 450 1253 767 1440 
Q 1084 1628 1822 1897 
L 1822 2009 
Q 1822 2438 1686 2597 
Q 1550 2756 1291 2756 
Q 1094 2756 978 2650 
Q 859 2544 859 2406 
L 866 2225 
Q 866 2081 792 2003 
Q 719 1925 600 1925 
Q 484 1925 411 2006 
Q 338 2088 338 2228 
Q 338 2497 613 2722 
Q 888 2947 1384 2947 
Q 1766 2947 2009 2819 
Q 2194 2722 2281 2516 
Q 2338 2381 2338 1966 
L 2338 994 
Q 2338 584 2353 492 
Q 2369 400 2405 369 
Q 2441 338 2488 338 
Q 2538 338 2575 359 
Q 2641 400 2828 588 
L 2828 413 
Q 2478 -56 2159 -56 
Q 2006 -56 1915 50 
Q 1825 156 1822 413 
z
M 1822 616 
L 1822 1706 
Q 1350 1519 1213 1441 
Q 966 1303 859 1153 
Q 753 1003 753 825 
Q 753 600 887 451 
Q 1022 303 1197 303 
Q 1434 303 1822 616 
z
" transform="scale(0.015625)"/>
       <path id="TimesNewRomanPSMT-64" d="M 2222 322 
Q 2013 103 1813 7 
Q 1613 -88 1381 -88 
Q 913 -88 563 304 
Q 213 697 213 1313 
Q 213 1928 600 2439 
Q 988 2950 1597 2950 
Q 1975 2950 2222 2709 
L 2222 3238 
Q 2222 3728 2198 3840 
Q 2175 3953 2125 3993 
Q 2075 4034 2000 4034 
Q 1919 4034 1784 3984 
L 1744 4094 
L 2597 4444 
L 2738 4444 
L 2738 1134 
Q 2738 631 2761 520 
Q 2784 409 2836 365 
Q 2888 322 2956 322 
Q 3041 322 3181 375 
L 3216 266 
L 2366 -88 
L 2222 -88 
L 2222 322 
z
M 2222 541 
L 2222 2016 
Q 2203 2228 2109 2403 
Q 2016 2578 1861 2667 
Q 1706 2756 1559 2756 
Q 1284 2756 1069 2509 
Q 784 2184 784 1559 
Q 784 928 1059 592 
Q 1334 256 1672 256 
Q 1956 256 2222 541 
z
" transform="scale(0.015625)"/>
      </defs>
      <use xlink:href="#TimesNewRomanPSMT-45"/>
      <use xlink:href="#TimesNewRomanPSMT-72" x="61.083984"/>
      <use xlink:href="#TimesNewRomanPSMT-72" x="94.384766"/>
      <use xlink:href="#TimesNewRomanPSMT-6f" x="127.685547"/>
      <use xlink:href="#TimesNewRomanPSMT-72" x="177.685547"/>
      <use xlink:href="#TimesNewRomanPSMT-28" x="210.986328"/>
      <use xlink:href="#TimesNewRomanPSMT-72" x="244.287109"/>
      <use xlink:href="#TimesNewRomanPSMT-61" x="277.587891"/>
      <use xlink:href="#TimesNewRomanPSMT-64" x="321.972656"/>
      <use xlink:href="#TimesNewRomanPSMT-29" x="371.972656"/>
     </g>
    </g>
   </g>
   <g id="line2d_17">
    <path d="M 295.330909 467.421757 
L 308.557214 469.74512 
L 314.569337 467.840212 
L 319.379131 467.670726 
L 324.188381 468.390958 
L 327.796056 465.904978 
L 331.40385 464.170979 
L 333.8077 463.165413 
L 336.212993 461.911342 
L 338.617793 460.819084 
L 341.022696 459.861804 
L 343.427497 461.868464 
L 345.832359 460.208337 
L 348.237279 472.388784 
L 350.642241 467.250312 
L 353.046927 463.664884 
L 355.451821 463.29722 
L 357.856704 466.557082 
L 360.261485 466.876553 
L 362.666195 463.106324 
L 365.0712 465.623484 
L 367.476016 464.560192 
L 369.880914 465.573669 
L 372.285087 465.691641 
L 374.690628 466.477655 
L 377.09563 466.633135 
L 379.500276 464.3835 
L 381.905187 469.750831 
L 384.309984 467.438367 
L 386.714864 462.172359 
L 389.119684 467.41974 
L 391.524524 463.375883 
L 393.929461 464.602959 
L 396.334256 463.757885 
L 398.739124 464.302677 
L 401.143976 463.985503 
L 403.548843 466.184738 
L 405.953679 465.69662 
L 408.359197 471.946962 
L 410.762897 471.52143 
L 413.168588 468.420235 
L 415.573073 472.483868 
L 417.977913 470.296398 
L 420.38245 472.705698 
L 422.787599 470.550222 
L 425.192581 474.042654 
L 427.597335 470.987659 
L 430.002144 472.972183 
L 432.4071 470.557201 
L 434.81183 473.576035 
L 437.216728 474.461164 
L 439.621227 469.501935 
L 442.026485 467.398545 
L 444.431261 468.213357 
L 446.836 466.095956 
L 449.240638 469.02505 
L 451.646027 465.098975 
L 454.050621 466.826941 
L 456.455608 465.901636 
L 458.860067 467.281509 
L 461.265429 469.221841 
L 463.671067 469.801458 
L 466.074991 467.714858 
L 468.479782 467.955561 
L 470.884636 473.528612 
L 473.289716 468.94269 
L 475.694326 466.914817 
L 478.099227 467.357065 
L 480.504007 466.552835 
L 482.908981 464.959615 
L 485.313688 467.688807 
L 487.718366 467.483872 
L 490.123463 467.694108 
L 492.528298 470.278039 
L 494.933228 464.446445 
L 497.338072 470.277257 
L 499.742901 466.883667 
L 502.147755 468.413239 
L 504.552696 471.192692 
L 506.957418 468.523803 
L 511.767152 468.922624 
L 514.171972 468.473373 
L 516.577001 470.421 
L 518.98173 471.112092 
L 521.387124 470.875456 
L 523.792235 469.678578 
L 528.601111 469.29588 
L 531.005942 470.580572 
L 533.41077 469.67382 
L 535.815128 467.893386 
L 538.22047 466.418003 
L 540.626162 465.767592 
L 543.030228 468.464138 
L 545.435237 462.3419 
L 547.839833 469.882512 
L 550.244171 462.836942 
L 552.649647 470.241138 
L 555.054279 463.866761 
L 557.459812 465.382672 
L 559.864205 467.864789 
L 562.269903 465.025862 
L 564.673903 465.056499 
L 567.078688 461.852862 
L 569.484072 462.872311 
L 571.888329 461.805564 
L 574.293934 463.10103 
L 576.698046 461.736606 
L 579.102932 463.939204 
L 581.507809 461.978688 
L 583.912594 460.419978 
L 586.31752 460.877089 
L 588.722368 460.442812 
L 591.127119 459.650049 
L 593.532082 459.45338 
L 595.936823 457.41655 
L 598.341723 458.241741 
L 600.746571 455.34502 
L 603.15177 459.491964 
L 605.557039 455.603806 
L 606.759278 454.923038 
L 607.96118 456.575848 
L 609.163567 456.296613 
L 610.36602 456.332667 
L 611.568346 455.388974 
L 612.770843 454.980374 
L 613.973324 455.604148 
L 616.378145 455.871204 
L 617.580858 455.213485 
L 618.782975 456.39086 
L 619.985857 455.480256 
L 622.38987 455.634841 
L 623.592656 456.614417 
L 624.79508 456.744512 
L 625.997682 454.72638 
L 627.200267 454.80194 
L 628.402948 455.472902 
L 629.604901 456.367339 
L 630.807716 457.858601 
L 632.009665 456.097375 
L 633.212104 455.136999 
L 634.414501 452.935943 
L 635.616919 453.934655 
L 636.819358 454.356468 
L 638.022616 453.460687 
L 639.224154 452.787611 
L 640.427204 455.236924 
L 641.62898 454.366398 
L 642.831946 453.335969 
L 644.034137 452.117677 
L 645.236282 454.114765 
L 646.438802 454.262691 
L 647.642031 454.709481 
L 648.843655 455.466422 
L 650.046059 453.848197 
L 652.450885 455.891284 
L 653.653246 455.474622 
L 654.855657 455.575032 
L 656.058207 456.207543 
L 657.260647 454.677378 
L 658.46297 455.036856 
L 659.665607 459.743016 
L 660.867417 460.779488 
L 662.070317 456.0482 
L 663.272716 455.775782 
L 664.475673 456.709405 
L 665.677553 456.166815 
L 666.880816 453.646653 
L 668.082569 455.035568 
L 669.284873 455.613771 
L 670.487379 455.151629 
L 671.689877 456.176659 
L 672.893041 456.758012 
L 674.095065 456.202438 
L 676.499962 455.88882 
L 677.701071 456.414705 
L 678.904976 456.029463 
L 680.106535 455.892535 
L 681.30909 457.000964 
L 682.511443 456.223683 
L 683.713937 455.274115 
L 684.916341 459.982759 
L 686.118834 459.490672 
L 687.3212 459.876222 
L 688.52365 460.772602 
L 689.725826 457.541239 
L 690.928504 457.219236 
L 692.130924 460.326113 
L 693.333344 459.207898 
L 694.535755 457.287041 
L 695.738213 456.250487 
L 698.143072 456.205278 
L 699.344891 456.85738 
L 700.547837 456.720895 
L 701.750878 455.04913 
L 702.952803 459.480143 
L 705.357674 463.991919 
L 706.560532 457.766812 
L 707.762488 455.264277 
L 708.964685 456.027455 
L 710.167318 453.13093 
L 711.368972 454.621452 
L 712.57306 453.432305 
L 713.774513 452.582194 
L 714.976973 456.859301 
L 716.179421 455.945953 
L 717.381793 456.20194 
L 718.583514 464.462566 
L 719.786678 452.36168 
L 720.989178 447.997703 
L 722.191581 457.422035 
L 723.393961 456.456908 
L 724.596386 453.72375 
L 725.798783 460.016702 
L 727.001229 457.489116 
L 728.203663 451.389054 
L 729.40608 455.986126 
L 730.608569 459.030235 
L 731.811003 457.798804 
L 733.013463 457.197037 
L 734.215824 456.912463 
L 735.418255 457.938852 
L 736.620625 456.350415 
L 737.822842 458.128285 
L 739.025466 458.05551 
L 740.227959 459.380145 
L 741.430287 465.177148 
L 742.632787 462.564977 
L 743.835144 461.601897 
L 745.037573 461.893131 
L 746.239987 459.406112 
L 747.442247 457.448512 
L 748.644881 459.20914 
L 749.847315 459.804273 
L 751.050263 457.563492 
L 752.252116 458.08123 
L 753.454595 456.917466 
L 754.656972 456.01754 
L 755.859506 455.286778 
L 757.061806 458.751825 
L 758.264249 454.569615 
L 759.466644 456.242038 
L 760.669098 460.545173 
L 761.871201 461.296048 
L 763.073922 464.408505 
L 764.276427 461.209879 
L 765.478632 464.488746 
L 766.680719 461.609167 
L 767.883679 469.393818 
L 769.087344 470.041801 
L 770.288563 473.862138 
L 771.49103 470.578876 
L 772.6934 471.165455 
L 773.895807 461.252976 
L 775.098244 466.09775 
L 776.300458 468.114498 
L 777.503085 467.63343 
L 778.705547 468.567803 
L 779.907961 464.385668 
L 781.110388 465.788679 
L 782.312827 466.836774 
L 783.515172 465.627738 
L 784.717675 462.217732 
L 785.919943 462.251799 
L 787.122535 459.043563 
L 788.324926 458.532136 
L 789.527349 456.490365 
L 790.729708 463.002877 
L 791.932236 455.102791 
L 793.134455 463.062211 
L 794.337111 466.460912 
L 796.742263 460.151777 
L 797.944361 454.661752 
L 799.14734 453.125334 
L 801.551562 455.791187 
L 803.956473 453.323231 
L 806.361709 447.870719 
L 808.766167 449.412804 
L 811.170962 446.408465 
L 813.575775 448.645157 
L 817.183112 441.204868 
L 821.99289 443.067053 
L 829.207439 445.991513 
L 836.421906 444.532419 
L 843.636287 450.473473 
L 849.64857 451.496135 
L 854.458281 462.046223 
L 859.268016 464.626666 
L 864.077727 465.489501 
L 868.887739 460.037283 
L 872.494592 456.325473 
L 876.101926 461.868998 
L 879.709234 451.239961 
L 883.316483 456.356295 
L 886.923779 464.744684 
L 890.531055 461.069713 
L 894.138349 474.144787 
L 896.54317 470.039029 
L 898.947947 457.070449 
L 901.352592 451.906847 
L 906.162552 464.645606 
L 908.567935 448.017623 
L 910.971595 450.903549 
L 913.377171 471.008142 
L 915.782134 465.331683 
L 918.186118 440.095288 
L 919.389299 446.963091 
L 921.79408 458.010561 
L 922.996585 467.886356 
L 925.401301 445.286374 
L 926.603767 452.312249 
L 927.80616 444.55026 
L 929.008568 449.907826 
L 930.21052 448.799393 
L 931.413485 463.667318 
L 933.818363 455.726749 
L 936.223219 465.405949 
L 938.628017 465.382438 
L 941.032927 463.206838 
L 943.437804 469.249683 
L 945.842617 464.653403 
L 948.247431 469.219916 
L 950.652825 464.454561 
L 953.057299 460.789203 
L 955.462011 465.924138 
L 957.866844 463.423235 
L 960.271339 463.358474 
L 962.67709 463.781592 
L 965.081658 462.336393 
L 967.486212 467.313453 
L 969.890854 462.460663 
L 972.29598 461.120508 
L 974.700774 464.900818 
L 977.105602 464.115754 
L 979.510509 463.781174 
L 981.915379 464.572347 
L 984.320181 462.482176 
L 986.724513 462.650528 
L 989.129827 461.627128 
L 991.535259 462.991879 
L 993.939576 458.050502 
L 996.345034 456.746186 
L 998.749214 459.985096 
L 1001.154148 457.024355 
L 1003.559028 457.114772 
L 1005.964769 458.825374 
L 1008.368733 454.755009 
L 1010.773552 453.41184 
L 1013.178364 454.015217 
L 1015.582545 453.37623 
L 1017.988545 452.92818 
L 1020.392892 452.188204 
L 1022.797786 448.835959 
L 1025.202642 449.991319 
L 1027.608029 447.633277 
L 1030.012343 447.706603 
L 1032.417163 444.306532 
L 1034.821949 447.250608 
L 1037.226862 443.927718 
L 1039.631875 447.249286 
L 1042.037117 444.062318 
L 1044.44158 453.474423 
L 1046.846318 447.685876 
L 1049.25113 446.394633 
L 1051.655968 442.924568 
L 1054.060836 444.606114 
L 1056.46619 443.820591 
L 1058.870543 443.739445 
L 1061.27532 444.327854 
L 1063.680237 442.139785 
L 1066.085002 435.584073 
L 1068.48985 447.643737 
L 1070.894753 451.285223 
L 1073.299377 438.515474 
L 1075.705215 439.552242 
L 1078.109337 447.390098 
L 1080.514111 458.317785 
L 1082.919068 455.025664 
L 1085.323826 441.970585 
L 1087.728694 442.154815 
L 1090.133571 436.871995 
L 1092.5384 442.46968 
L 1094.943194 435.142144 
L 1097.348083 438.977958 
L 1099.752896 439.185567 
L 1102.157731 442.43557 
L 1104.56272 441.596799 
L 1106.968454 445.067415 
L 1109.372324 435.734244 
L 1111.777198 439.422925 
L 1114.182073 439.666553 
L 1116.586877 441.583009 
L 1118.992192 432.726844 
L 1121.396617 438.494866 
L 1123.801219 435.450333 
L 1126.206294 439.486295 
L 1128.611182 434.035666 
L 1131.015986 433.330879 
L 1133.421768 430.837096 
L 1135.825575 442.301258 
L 1138.231687 434.7999 
L 1140.635376 434.35883 
L 1143.040215 435.710167 
L 1147.850621 429.440258 
L 1150.254708 430.850495 
L 1152.660135 435.007958 
L 1155.064495 431.353288 
L 1157.46986 429.606006 
L 1159.874215 430.073958 
L 1162.279069 432.140773 
L 1164.684565 431.502346 
L 1167.088764 429.466851 
L 1169.493521 429.324704 
L 1171.898421 431.305685 
L 1174.303302 431.855907 
L 1176.708667 432.726507 
L 1179.113013 438.726692 
L 1181.517863 435.277086 
L 1183.922668 432.68433 
L 1186.327459 435.300391 
L 1188.73385 437.286608 
L 1191.137213 430.288154 
L 1193.542058 435.065739 
L 1195.946852 431.909658 
L 1198.351769 432.214676 
L 1199.554227 431.925442 
L 1200.756592 432.934768 
L 1203.161415 431.923768 
L 1205.566317 431.980667 
L 1207.971254 435.604295 
L 1209.172827 434.275582 
L 1211.578408 436.028822 
L 1213.983266 432.84244 
L 1216.388113 442.213377 
L 1218.792956 439.685105 
L 1221.197857 445.581872 
L 1223.603178 442.549068 
L 1226.008202 447.473468 
L 1228.413336 444.497805 
L 1230.817176 445.971672 
L 1233.222036 450.102018 
L 1235.626963 452.00005 
L 1238.031707 457.224548 
L 1240.436613 450.742426 
L 1242.841478 453.125548 
L 1245.246335 450.326968 
L 1247.650807 451.445153 
L 1250.056065 445.954532 
L 1252.460903 448.658296 
L 1254.865718 445.782371 
L 1257.270396 444.435876 
L 1259.675341 441.287197 
L 1262.08022 441.115172 
L 1264.485147 438.849302 
L 1266.889611 436.404731 
L 1269.294056 433.37374 
L 1271.699658 431.477741 
L 1274.104561 434.401084 
L 1276.509315 423.727006 
L 1278.914257 431.291158 
L 1281.319107 430.303143 
L 1283.723837 429.148346 
L 1286.128685 432.509351 
L 1288.533652 433.970312 
L 1290.939033 433.073866 
L 1293.343297 437.909361 
L 1295.747923 433.465967 
L 1298.15228 435.733845 
L 1300.557797 428.756329 
L 1302.962662 432.749566 
L 1305.367528 435.089073 
L 1307.772453 437.631813 
L 1310.177173 439.61108 
L 1312.582084 439.809489 
L 1314.986646 437.6033 
L 1317.391827 434.048946 
L 1319.796701 431.875882 
L 1322.201529 436.902523 
L 1324.606053 434.869829 
L 1327.011186 434.985411 
L 1329.416028 443.549188 
L 1331.820922 439.828786 
L 1334.226566 440.157916 
L 1341.441472 444.878899 
L 1346.250753 440.070579 
L 1348.654878 438.949451 
L 1351.06051 441.219745 
L 1353.464645 442.936163 
L 1357.071837 440.0691 
L 1360.678999 439.710799 
L 1367.893574 440.464864 
L 1370.298622 438.657211 
L 1372.703785 438.559704 
L 1375.108237 440.04513 
L 1377.513009 439.948876 
L 1379.917809 441.641753 
L 1383.525648 442.4074 
L 1387.13245 447.993809 
L 1390.739024 455.658689 
L 1393.144554 454.046729 
L 1395.549409 449.43351 
L 1397.954265 449.556803 
L 1400.358448 446.196721 
L 1402.76392 448.436092 
L 1405.168785 449.018422 
L 1407.573699 448.514143 
L 1409.978535 448.593112 
L 1412.383323 451.294957 
L 1414.788171 449.469757 
L 1417.192393 449.421051 
L 1419.597917 451.320133 
L 1422.002709 449.859566 
L 1424.407695 449.360668 
L 1426.812415 448.663934 
L 1429.217234 446.414382 
L 1431.62213 444.959351 
L 1434.026895 445.169872 
L 1436.432313 446.531303 
L 1438.836752 448.129667 
L 1441.24205 444.208019 
L 1443.646394 444.794899 
L 1444.848803 444.637224 
L 1446.051191 444.903043 
L 1447.253663 444.874189 
L 1448.456093 445.614509 
L 1449.65854 443.651151 
L 1450.860922 442.784753 
L 1452.063268 443.435877 
L 1453.265796 445.600957 
L 1454.468242 442.019942 
L 1455.670366 442.737588 
L 1456.873139 441.411316 
L 1458.076032 440.801086 
L 1459.277158 440.981828 
L 1460.480323 442.961329 
L 1461.682784 443.295086 
L 1462.886031 443.345402 
L 1464.087572 438.82237 
L 1465.290048 443.788171 
L 1466.492966 443.61096 
L 1467.695625 443.206953 
L 1468.896777 438.359572 
L 1470.099778 441.059925 
L 1471.302126 440.902742 
L 1472.504609 442.248359 
L 1473.707013 442.274808 
L 1474.908662 441.976311 
L 1476.112378 443.257929 
L 1477.314254 443.715085 
L 1479.718343 444.19484 
L 1480.921521 446.485832 
L 1482.123994 444.241481 
L 1483.326353 441.37955 
L 1484.528893 444.026794 
L 1485.73125 445.092953 
L 1486.93358 445.24809 
L 1488.135959 442.83534 
L 1489.338833 445.290087 
L 1490.541371 444.922334 
L 1491.743338 441.557153 
L 1492.94577 445.290481 
L 1494.148187 446.027884 
L 1496.553075 445.784727 
L 1497.755734 444.882273 
L 1498.957901 444.704343 
L 1500.160338 445.649625 
L 1501.362735 446.192531 
L 1502.565109 447.092796 
L 1503.7676 442.249936 
L 1504.970037 441.333399 
L 1506.172453 441.3168 
L 1507.374431 441.952327 
L 1508.577209 444.32887 
L 1509.780255 441.700748 
L 1510.983076 441.854009 
L 1512.18492 441.504315 
L 1513.387013 439.700407 
L 1514.589403 440.561931 
L 1515.791875 439.884263 
L 1516.994223 440.82619 
L 1518.196742 439.262819 
L 1519.399903 438.483352 
L 1520.601518 441.424482 
L 1521.803895 442.422867 
L 1523.006393 441.147089 
L 1524.209466 438.822032 
L 1525.411251 440.18255 
L 1526.613327 447.395757 
L 1527.816068 450.055863 
L 1529.018479 434.920982 
L 1530.220863 442.849367 
L 1531.423333 440.570485 
L 1532.625804 441.362519 
L 1533.828287 441.922338 
L 1535.030626 440.098225 
L 1536.233409 443.69723 
L 1537.436002 445.150715 
L 1538.637947 445.644631 
L 1539.840308 442.968971 
L 1541.04326 444.009362 
L 1542.245703 445.702129 
L 1543.447578 448.981642 
L 1544.650571 458.938909 
L 1545.852487 446.747335 
L 1547.054846 440.837975 
L 1548.257854 439.380153 
L 1549.459793 441.054821 
L 1550.66214 435.707708 
L 1551.864538 443.428893 
L 1553.067562 443.504327 
L 1554.269936 442.344227 
L 1555.472816 440.655004 
L 1556.674246 441.349718 
L 1557.876689 441.182149 
L 1559.079743 437.884717 
L 1560.281555 448.260454 
L 1561.48398 454.270832 
L 1562.685892 432.976971 
L 1563.88914 443.777892 
L 1565.091281 443.33679 
L 1566.293654 438.872465 
L 1567.496127 445.563099 
L 1568.698565 444.387364 
L 1569.900968 441.9409 
L 1571.103341 448.667491 
L 1572.305799 454.33857 
L 1573.508233 452.666283 
L 1574.710261 454.063627 
L 1575.913042 457.414377 
L 1577.115467 453.627312 
L 1578.317889 459.598505 
L 1579.520566 455.564646 
L 1580.722919 464.85362 
L 1581.925147 448.945003 
L 1583.12763 437.411467 
L 1584.329994 448.936069 
L 1585.532419 452.84594 
L 1586.734841 447.945493 
L 1587.937326 440.634418 
L 1589.139718 448.104017 
L 1590.342727 445.576915 
L 1591.544557 450.256899 
L 1592.747 446.446885 
L 1593.949091 464.448806 
L 1593.949091 464.448806 
" clip-path="url(#pcb86e1b0f6)" style="fill: none; stroke: #00ff00; stroke-width: 1.5; stroke-linecap: square"/>
   </g>
   <g id="line2d_18">
    <path d="M 295.330909 463.970385 
L 308.557214 467.02414 
L 314.569337 467.411196 
L 319.379131 466.182099 
L 324.188381 466.740115 
L 327.796056 470.028562 
L 331.40385 473.153622 
L 333.8077 474.23179 
L 336.212993 471.030698 
L 338.617793 471.84427 
L 341.022696 472.32609 
L 343.427497 473.564697 
L 345.832359 473.021762 
L 348.237279 473.149874 
L 350.642241 474.159134 
L 353.046927 473.522153 
L 355.451821 474.146266 
L 357.856704 472.082867 
L 360.261485 472.464064 
L 362.666195 473.890067 
L 365.0712 469.23616 
L 367.476016 471.673553 
L 369.880914 472.900425 
L 372.285087 473.813114 
L 374.690628 470.326564 
L 377.09563 470.589741 
L 379.500276 473.007969 
L 381.905187 470.189445 
L 384.309984 471.996806 
L 386.714864 471.952386 
L 389.119684 471.074732 
L 391.524524 470.004212 
L 396.334256 471.741378 
L 398.739124 473.334617 
L 401.143976 473.104823 
L 403.548843 473.39114 
L 405.953679 472.676811 
L 408.359197 473.792899 
L 410.762897 472.76053 
L 413.168588 473.904657 
L 415.573073 473.666941 
L 417.977913 470.630775 
L 420.38245 470.271022 
L 422.787599 466.153908 
L 425.192581 469.340645 
L 427.597335 467.570162 
L 430.002144 465.561244 
L 432.4071 467.466008 
L 434.81183 469.638451 
L 437.216728 466.855608 
L 439.621227 466.067566 
L 442.026485 467.151639 
L 444.431261 464.207825 
L 446.836 463.792142 
L 449.240638 465.655656 
L 451.646027 465.096439 
L 456.455608 466.18857 
L 458.860067 465.578881 
L 461.265429 465.348172 
L 463.671067 464.421596 
L 466.074991 465.05472 
L 470.884636 464.479928 
L 473.289716 467.071014 
L 475.694326 466.169568 
L 478.099227 467.133716 
L 482.908981 466.334693 
L 485.313688 466.999108 
L 487.718366 466.482287 
L 490.123463 466.898264 
L 492.528298 466.177441 
L 494.933228 469.166914 
L 497.338072 468.340439 
L 499.742901 466.766382 
L 502.147755 466.903344 
L 504.552696 466.067963 
L 506.957418 466.078728 
L 509.362935 466.635103 
L 511.767152 465.342307 
L 514.171972 465.672665 
L 516.577001 465.383192 
L 518.98173 464.349418 
L 521.387124 464.538922 
L 523.792235 465.72699 
L 526.196274 465.929163 
L 528.601111 465.802246 
L 531.005942 465.043215 
L 535.815128 464.156139 
L 538.22047 464.274605 
L 543.030228 466.034819 
L 545.435237 465.798557 
L 547.839833 466.208387 
L 550.244171 467.246614 
L 552.649647 465.225453 
L 555.054279 468.152918 
L 557.459812 467.938324 
L 559.864205 468.976617 
L 562.269903 468.576015 
L 564.673903 467.66563 
L 567.078688 468.12549 
L 569.484072 466.93515 
L 571.888329 467.000025 
L 574.293934 468.316555 
L 576.698046 468.402398 
L 579.102932 467.948329 
L 581.507809 471.675487 
L 583.912594 469.724876 
L 586.31752 471.561449 
L 591.127119 474.447005 
L 593.532082 473.163808 
L 595.936823 474.39339 
L 598.341723 473.473934 
L 600.746571 473.515538 
L 603.15177 472.057567 
L 605.557039 470.964346 
L 606.759278 471.481076 
L 607.96118 472.723528 
L 609.163567 472.545127 
L 610.36602 473.322754 
L 611.568346 473.256474 
L 612.770843 472.246947 
L 613.973324 472.55656 
L 615.176629 471.899687 
L 616.378145 472.782934 
L 617.580858 474.076333 
L 618.782975 474.234291 
L 619.985857 474.006728 
L 621.187799 473.565092 
L 622.38987 473.731956 
L 623.592656 474.103318 
L 624.79508 473.572406 
L 627.200267 474.166256 
L 628.402948 473.030568 
L 629.604901 472.922895 
L 630.807716 472.100391 
L 632.009665 473.381423 
L 633.212104 473.555092 
L 634.414501 471.53436 
L 635.616919 471.894066 
L 636.819358 470.272422 
L 638.022616 470.881719 
L 639.224154 471.697218 
L 640.427204 469.356443 
L 641.62898 468.639093 
L 642.831946 471.9486 
L 644.034137 472.140601 
L 645.236282 469.845162 
L 646.438802 469.637784 
L 647.642031 469.188402 
L 648.843655 468.446252 
L 650.046059 467.482221 
L 651.24851 467.283349 
L 652.450885 468.158562 
L 653.653246 466.610982 
L 654.855657 467.091534 
L 656.058207 466.393566 
L 657.260647 466.122504 
L 658.46297 466.520229 
L 659.665607 468.20885 
L 660.867417 466.648419 
L 662.070317 466.853916 
L 663.272716 465.063637 
L 664.475673 467.178563 
L 665.677553 466.224367 
L 666.880816 464.307957 
L 668.082569 464.742319 
L 669.284873 465.308098 
L 670.487379 466.026102 
L 671.689877 465.171276 
L 672.893041 464.865811 
L 674.095065 463.830505 
L 675.296961 463.797689 
L 676.499962 461.798848 
L 677.701071 462.277834 
L 678.904976 461.432804 
L 680.106535 462.898086 
L 681.30909 462.319628 
L 682.511443 463.185972 
L 683.713937 463.346851 
L 684.916341 461.512521 
L 686.118834 462.493026 
L 687.3212 462.20528 
L 688.52365 461.27758 
L 689.725826 460.07479 
L 690.928504 460.20597 
L 692.130924 460.037524 
L 693.333344 460.758967 
L 694.535755 460.982474 
L 695.738213 460.100557 
L 696.941585 458.395188 
L 698.143072 460.203599 
L 699.344891 461.630292 
L 700.547837 461.856757 
L 701.750878 461.489687 
L 702.952803 462.119 
L 704.155177 463.604452 
L 705.357674 462.798439 
L 706.560532 459.709178 
L 707.762488 461.53231 
L 708.964685 462.24139 
L 710.167318 460.634429 
L 711.368972 461.474883 
L 712.57306 461.519072 
L 713.774513 461.067936 
L 714.976973 461.730583 
L 716.179421 461.359036 
L 717.381793 462.610046 
L 718.583514 463.454329 
L 719.786678 461.449302 
L 720.989178 461.087849 
L 722.191581 462.157861 
L 723.393961 462.049507 
L 724.596386 461.045242 
L 725.798783 460.986047 
L 727.001229 459.281541 
L 728.203663 457.967911 
L 729.40608 459.180077 
L 730.608569 459.819255 
L 731.811003 459.167809 
L 733.013463 457.975577 
L 735.418255 457.761091 
L 736.620625 456.553345 
L 737.822842 456.70595 
L 739.025466 458.397388 
L 740.227959 459.393687 
L 741.430287 457.007467 
L 742.632787 456.805815 
L 745.037573 454.603672 
L 746.239987 456.424404 
L 747.442247 457.513536 
L 748.644881 458.173309 
L 749.847315 456.531374 
L 751.050263 456.281654 
L 752.252116 457.638256 
L 753.454595 456.228039 
L 754.656972 455.126953 
L 755.859506 455.421845 
L 757.061806 455.130485 
L 758.264249 456.334064 
L 759.466644 456.265896 
L 760.669098 455.155301 
L 761.871201 454.437427 
L 763.073922 454.736462 
L 764.276427 456.341168 
L 765.478632 454.074162 
L 766.680719 456.555121 
L 767.883679 454.709849 
L 769.087344 455.088856 
L 770.288563 456.17827 
L 771.49103 455.458611 
L 772.6934 454.567707 
L 773.895807 451.842608 
L 775.098244 454.025466 
L 776.300458 453.743792 
L 777.503085 455.31737 
L 778.705547 454.719936 
L 779.907961 456.903083 
L 781.110388 456.758735 
L 782.312827 455.60006 
L 783.515172 455.41947 
L 784.717675 456.425536 
L 785.919943 456.842008 
L 787.122535 456.116145 
L 788.324926 457.387937 
L 789.527349 459.466819 
L 790.729708 457.496262 
L 791.932236 460.863182 
L 793.134455 457.082434 
L 794.337111 457.436352 
L 796.742263 462.844871 
L 797.944361 470.415835 
L 799.14734 470.695179 
L 801.551562 471.64891 
L 803.956473 469.679993 
L 806.361709 469.282447 
L 808.766167 472.384422 
L 811.170962 471.737454 
L 813.575775 472.581724 
L 817.183112 474.121431 
L 821.99289 474.23071 
L 829.207439 471.487726 
L 836.421906 469.241984 
L 843.636287 464.561941 
L 849.64857 466.017412 
L 854.458281 463.468877 
L 859.268016 456.17176 
L 864.077727 465.321378 
L 868.887739 450.65183 
L 872.494592 449.45726 
L 876.101926 453.884621 
L 883.316483 450.346331 
L 886.923779 451.18286 
L 890.531055 448.66349 
L 894.138349 448.986446 
L 896.54317 450.58864 
L 898.947947 449.938987 
L 901.352592 448.882214 
L 903.757732 452.920357 
L 906.162552 449.059384 
L 908.567935 451.783483 
L 910.971595 449.937075 
L 913.377171 453.722792 
L 915.782134 451.49356 
L 918.186118 450.272922 
L 919.389299 452.510638 
L 921.79408 452.141325 
L 922.996585 450.531456 
L 925.401301 451.945295 
L 926.603767 449.566176 
L 927.80616 449.158741 
L 929.008568 449.390885 
L 930.21052 446.550481 
L 931.413485 447.848593 
L 933.818363 446.851569 
L 936.223219 446.325628 
L 938.628017 440.062289 
L 943.437804 442.40733 
L 945.842617 442.890024 
L 948.247431 443.994576 
L 950.652825 442.58887 
L 953.057299 443.903294 
L 955.462011 442.179875 
L 960.271339 442.768411 
L 962.67709 442.635488 
L 965.081658 443.337063 
L 967.486212 441.618171 
L 969.890854 442.703643 
L 972.29598 441.147001 
L 974.700774 442.860912 
L 977.105602 440.525932 
L 979.510509 441.82456 
L 981.915379 442.37645 
L 984.320181 440.898992 
L 986.724513 442.532711 
L 989.129827 441.261138 
L 991.535259 443.232509 
L 993.939576 441.429039 
L 996.345034 441.117509 
L 998.749214 442.615637 
L 1001.154148 441.330524 
L 1003.559028 444.230867 
L 1005.964769 443.501122 
L 1008.368733 444.886592 
L 1010.773552 446.046556 
L 1013.178364 447.461014 
L 1015.582545 448.021599 
L 1017.988545 451.550273 
L 1020.392892 449.543746 
L 1022.797786 450.975264 
L 1025.202642 451.617532 
L 1027.608029 451.839196 
L 1030.012343 451.357766 
L 1032.417163 453.023456 
L 1034.821949 453.82514 
L 1037.226862 454.058114 
L 1039.631875 455.018929 
L 1042.037117 457.069994 
L 1044.44158 456.283284 
L 1046.846318 456.107308 
L 1049.25113 458.165378 
L 1051.655968 457.475403 
L 1054.060836 458.06372 
L 1058.870543 457.580138 
L 1061.27532 459.26226 
L 1063.680237 459.365834 
L 1066.085002 461.487886 
L 1068.48985 460.024682 
L 1070.894753 466.799204 
L 1073.299377 464.093544 
L 1075.705215 461.061112 
L 1078.109337 464.072065 
L 1080.514111 467.878456 
L 1082.919068 467.414391 
L 1085.323826 463.585653 
L 1087.728694 457.982235 
L 1090.133571 457.178922 
L 1092.5384 456.785276 
L 1094.943194 455.118547 
L 1097.348083 453.762004 
L 1099.752896 452.103955 
L 1102.157731 455.82614 
L 1104.56272 454.368455 
L 1106.968454 454.842935 
L 1109.372324 452.34269 
L 1111.777198 453.52855 
L 1114.182073 454.856783 
L 1116.586877 454.685354 
L 1118.992192 455.150737 
L 1123.801219 458.066168 
L 1126.206294 458.380327 
L 1128.611182 458.356833 
L 1131.015986 458.14386 
L 1138.231687 463.440549 
L 1140.635376 463.080378 
L 1143.040215 463.177959 
L 1145.445269 464.196449 
L 1147.850621 464.996493 
L 1150.254708 466.239375 
L 1152.660135 466.059904 
L 1155.064495 464.776846 
L 1157.46986 464.36642 
L 1159.874215 465.833853 
L 1162.279069 464.731292 
L 1164.684565 464.366263 
L 1167.088764 463.011153 
L 1169.493521 464.223542 
L 1171.898421 464.649539 
L 1174.303302 460.851319 
L 1176.708667 459.966595 
L 1179.113013 462.386985 
L 1181.517863 462.502617 
L 1183.922668 463.134856 
L 1186.327459 464.660577 
L 1188.73385 466.661293 
L 1191.137213 466.578245 
L 1195.946852 472.260999 
L 1198.351769 473.759045 
L 1199.554227 471.020067 
L 1200.756592 468.748071 
L 1205.566317 461.732748 
L 1207.971254 459.947638 
L 1209.172827 456.544845 
L 1211.578408 453.998097 
L 1213.983266 448.946947 
L 1218.792956 449.711375 
L 1221.197857 447.065491 
L 1223.603178 443.367026 
L 1226.008202 443.701469 
L 1228.413336 438.471573 
L 1230.817176 440.805367 
L 1233.222036 443.610575 
L 1235.626963 442.401101 
L 1238.031707 445.969033 
L 1240.436613 442.736523 
L 1242.841478 444.6499 
L 1245.246335 443.220481 
L 1247.650807 443.09729 
L 1250.056065 440.673609 
L 1252.460903 444.143844 
L 1254.865718 444.248753 
L 1257.270396 445.683166 
L 1259.675341 448.141863 
L 1262.08022 449.762356 
L 1264.485147 453.037442 
L 1266.889611 457.224737 
L 1269.294056 457.058435 
L 1271.699658 458.834949 
L 1274.104561 462.779033 
L 1276.509315 471.024433 
L 1278.914257 474.3388 
L 1281.319107 470.333452 
L 1283.723837 463.345107 
L 1286.128685 460.409144 
L 1288.533652 455.834804 
L 1290.939033 453.20169 
L 1293.343297 452.18975 
L 1295.747923 449.822632 
L 1298.15228 448.267806 
L 1302.962662 448.459317 
L 1305.367528 447.50768 
L 1307.772453 445.213159 
L 1310.177173 445.689632 
L 1312.582084 446.644834 
L 1314.986646 447.155348 
L 1317.391827 442.122994 
L 1319.796701 445.399269 
L 1322.201529 444.908223 
L 1324.606053 448.475813 
L 1327.011186 444.798276 
L 1329.416028 444.89049 
L 1331.820922 442.756457 
L 1334.226566 441.825718 
L 1336.631134 443.591682 
L 1339.035712 444.724032 
L 1341.441472 443.783333 
L 1343.846738 444.951142 
L 1346.250753 440.712034 
L 1348.654878 440.272058 
L 1351.06051 442.425721 
L 1353.464645 444.039674 
L 1357.071837 441.58943 
L 1360.678999 440.85213 
L 1364.286379 441.344932 
L 1367.893574 443.079475 
L 1370.298622 442.069059 
L 1372.703785 441.349874 
L 1375.108237 441.546759 
L 1377.513009 442.181691 
L 1379.917809 438.924906 
L 1383.525648 441.22918 
L 1387.13245 440.687384 
L 1390.739024 440.546694 
L 1393.144554 439.407913 
L 1395.549409 437.555525 
L 1397.954265 437.813632 
L 1400.358448 440.774704 
L 1402.76392 438.103484 
L 1405.168785 438.81091 
L 1407.573699 438.463227 
L 1409.978535 438.505254 
L 1412.383323 436.753657 
L 1414.788171 435.982639 
L 1417.192393 436.958719 
L 1419.597917 437.154082 
L 1422.002709 435.456556 
L 1424.407695 434.644372 
L 1426.812415 437.344025 
L 1431.62213 436.669049 
L 1434.026895 437.772375 
L 1436.432313 435.484386 
L 1438.836752 435.000578 
L 1443.646394 438.375797 
L 1444.848803 438.276718 
L 1446.051191 435.854458 
L 1447.253663 436.374741 
L 1448.456093 435.655602 
L 1449.65854 435.752632 
L 1450.860922 436.386506 
L 1452.063268 437.165049 
L 1453.265796 437.417464 
L 1454.468242 438.337613 
L 1455.670366 439.579553 
L 1456.873139 438.065749 
L 1458.076032 440.354775 
L 1459.277158 438.568144 
L 1461.682784 438.72428 
L 1462.886031 438.480635 
L 1464.087572 439.929581 
L 1465.290048 436.179601 
L 1466.492966 437.389538 
L 1467.695625 440.148168 
L 1468.896777 439.028304 
L 1470.099778 439.914341 
L 1471.302126 438.744501 
L 1472.504609 437.965957 
L 1476.112378 437.943685 
L 1477.314254 439.670278 
L 1478.516259 439.32897 
L 1479.718343 438.725788 
L 1480.921521 438.362287 
L 1482.123994 437.743133 
L 1484.528893 435.983453 
L 1485.73125 436.505688 
L 1486.93358 435.072072 
L 1488.135959 435.784798 
L 1489.338833 435.463745 
L 1490.541371 435.784205 
L 1491.743338 435.734464 
L 1492.94577 436.292748 
L 1494.148187 436.133364 
L 1495.351153 435.790781 
L 1496.553075 435.298554 
L 1497.755734 435.47784 
L 1498.957901 435.473045 
L 1500.160338 435.233034 
L 1501.362735 435.783447 
L 1502.565109 435.155056 
L 1503.7676 435.962488 
L 1506.172453 435.505674 
L 1507.374431 436.30203 
L 1508.577209 434.769433 
L 1509.780255 434.753986 
L 1510.983076 434.008675 
L 1512.18492 435.535088 
L 1513.387013 434.351654 
L 1516.994223 434.98759 
L 1518.196742 434.615943 
L 1519.399903 434.55459 
L 1520.601518 433.429738 
L 1521.803895 433.929991 
L 1523.006393 433.592093 
L 1524.209466 433.423575 
L 1525.411251 433.615697 
L 1526.613327 434.500374 
L 1529.018479 433.064921 
L 1530.220863 431.487072 
L 1531.423333 433.915081 
L 1532.625804 433.545916 
L 1533.828287 432.204488 
L 1535.030626 432.0813 
L 1536.233409 432.526778 
L 1538.637947 431.555378 
L 1539.840308 432.258749 
L 1541.04326 432.696304 
L 1542.245703 431.753013 
L 1543.447578 429.088925 
L 1544.650571 428.495038 
L 1545.852487 427.662511 
L 1547.054846 431.724611 
L 1548.257854 431.264748 
L 1549.459793 431.376977 
L 1550.66214 428.157654 
L 1551.864538 430.913232 
L 1553.067562 429.700365 
L 1554.269936 428.907544 
L 1555.472816 429.512678 
L 1556.674246 426.773531 
L 1557.876689 426.798886 
L 1559.079743 429.313888 
L 1560.281555 425.713565 
L 1561.48398 426.878037 
L 1562.685892 430.668343 
L 1563.88914 428.871658 
L 1565.091281 428.573689 
L 1566.293654 427.917194 
L 1567.496127 427.666679 
L 1568.698565 425.68897 
L 1569.900968 426.019767 
L 1571.103341 426.591663 
L 1572.305799 425.1024 
L 1573.508233 424.350103 
L 1574.710261 424.018538 
L 1575.913042 424.564976 
L 1577.115467 424.178435 
L 1578.317889 424.166432 
L 1579.520566 423.153102 
L 1580.722919 421.800744 
L 1581.925147 424.771471 
L 1583.12763 425.378879 
L 1584.329994 425.03429 
L 1585.532419 423.25579 
L 1586.734841 424.588637 
L 1587.937326 421.389281 
L 1589.139718 421.150011 
L 1590.342727 423.236001 
L 1591.544557 424.006363 
L 1592.747 423.356977 
L 1593.949091 422.867927 
L 1593.949091 422.867927 
" clip-path="url(#pcb86e1b0f6)" style="fill: none; stroke: #0000ff; stroke-width: 1.5; stroke-linecap: square"/>
   </g>
   <g id="line2d_19">
    <path d="M 295.330909 474.48 
L 308.557214 474.243143 
L 314.569337 474.476729 
L 319.379131 474.185302 
L 324.188381 474.34502 
L 331.40385 474.140456 
L 333.8077 473.652558 
L 336.212993 474.062425 
L 338.617793 474.060847 
L 341.022696 473.871876 
L 343.427497 474.146303 
L 345.832359 474.18864 
L 348.237279 473.925723 
L 350.642241 474.272716 
L 353.046927 474.070658 
L 355.451821 474.159078 
L 357.856704 473.741726 
L 360.261485 473.663647 
L 365.0712 473.932823 
L 367.476016 474.476683 
L 369.880914 474.090042 
L 372.285087 474.4509 
L 374.690628 473.750073 
L 377.09563 473.601644 
L 379.500276 473.910208 
L 381.905187 473.945269 
L 384.309984 473.704686 
L 386.714864 473.185271 
L 389.119684 473.648675 
L 391.524524 471.710861 
L 393.929461 472.511653 
L 396.334256 471.649679 
L 398.739124 471.80793 
L 401.143976 470.639912 
L 403.548843 471.214412 
L 405.953679 470.78364 
L 408.359197 471.155064 
L 413.168588 472.501577 
L 415.573073 473.747909 
L 417.977913 474.245051 
L 420.38245 474.370836 
L 422.787599 474.139671 
L 425.192581 473.636994 
L 427.597335 473.431224 
L 430.002144 472.8384 
L 432.4071 471.687845 
L 434.81183 471.935681 
L 437.216728 471.825642 
L 439.621227 470.786019 
L 444.431261 470.620828 
L 446.836 469.829768 
L 449.240638 469.914 
L 456.455608 468.448859 
L 461.265429 468.22455 
L 463.671067 468.235587 
L 466.074991 468.702775 
L 468.479782 468.63467 
L 470.884636 469.654333 
L 473.289716 469.080378 
L 475.694326 469.409174 
L 478.099227 470.073243 
L 480.504007 470.208825 
L 482.908981 470.096242 
L 485.313688 469.470902 
L 487.718366 469.903425 
L 490.123463 469.203668 
L 494.933228 469.723761 
L 497.338072 468.790476 
L 499.742901 469.633548 
L 502.147755 468.972883 
L 504.552696 467.898101 
L 506.957418 467.91188 
L 509.362935 468.134801 
L 511.767152 467.836043 
L 514.171972 468.473246 
L 516.577001 467.960919 
L 518.98173 468.546903 
L 521.387124 468.252209 
L 523.792235 468.432468 
L 531.005942 468.646962 
L 535.815128 468.144879 
L 538.22047 467.172899 
L 540.626162 467.458671 
L 543.030228 467.944463 
L 547.839833 466.701647 
L 550.244171 466.781516 
L 552.649647 466.622108 
L 555.054279 466.844566 
L 557.459812 465.493859 
L 559.864205 468.287071 
L 562.269903 467.069932 
L 564.673903 467.718238 
L 567.078688 466.854777 
L 569.484072 467.249034 
L 571.888329 466.884054 
L 574.293934 467.630933 
L 576.698046 466.810893 
L 579.102932 465.475751 
L 581.507809 466.733238 
L 583.912594 467.766285 
L 586.31752 467.925825 
L 588.722368 466.440064 
L 591.127119 469.711237 
L 593.532082 469.282513 
L 595.936823 469.584345 
L 598.341723 469.57919 
L 600.746571 470.214575 
L 603.15177 469.7727 
L 605.557039 470.805681 
L 606.759278 470.408218 
L 609.163567 471.313249 
L 611.568346 471.536104 
L 612.770843 472.610457 
L 613.973324 472.883407 
L 615.176629 472.999857 
L 616.378145 472.622617 
L 617.580858 472.421969 
L 618.782975 471.358058 
L 619.985857 470.866351 
L 621.187799 471.26778 
L 622.38987 470.867012 
L 623.592656 471.039506 
L 624.79508 470.211271 
L 625.997682 470.02807 
L 627.200267 470.483692 
L 628.402948 470.129716 
L 629.604901 470.228322 
L 630.807716 469.789222 
L 632.009665 469.716259 
L 633.212104 469.380788 
L 634.414501 470.698748 
L 635.616919 470.840576 
L 636.819358 470.74012 
L 638.022616 471.258659 
L 639.224154 471.400355 
L 640.427204 471.281658 
L 641.62898 470.181002 
L 642.831946 468.852071 
L 644.034137 469.36453 
L 645.236282 468.449453 
L 646.438802 468.849031 
L 647.642031 468.758885 
L 648.843655 468.938781 
L 650.046059 469.857559 
L 651.24851 469.847778 
L 652.450885 469.343514 
L 653.653246 471.191512 
L 654.855657 470.952268 
L 656.058207 471.621095 
L 657.260647 471.481249 
L 658.46297 471.102291 
L 659.665607 472.207442 
L 660.867417 472.562343 
L 662.070317 471.54562 
L 663.272716 470.153376 
L 664.475673 471.699081 
L 665.677553 469.910827 
L 666.880816 470.916183 
L 668.082569 470.977646 
L 670.487379 469.709783 
L 671.689877 469.391892 
L 672.893041 469.348008 
L 675.296961 470.218541 
L 676.499962 470.275906 
L 677.701071 472.011684 
L 678.904976 471.813812 
L 680.106535 471.267251 
L 681.30909 471.489841 
L 682.511443 471.45944 
L 683.713937 470.514358 
L 684.916341 471.342197 
L 686.118834 471.456796 
L 687.3212 471.282848 
L 688.52365 471.798083 
L 689.725826 472.08174 
L 690.928504 472.059005 
L 692.130924 471.921538 
L 693.333344 472.329708 
L 695.738213 472.558642 
L 696.941585 472.249475 
L 698.143072 472.446158 
L 699.344891 472.263354 
L 700.547837 472.44325 
L 701.750878 472.140031 
L 702.952803 472.720298 
L 704.155177 472.010495 
L 705.357674 472.138841 
L 706.560532 474.343194 
L 707.762488 472.663989 
L 710.167318 472.989547 
L 711.368972 472.814806 
L 712.57306 473.224297 
L 713.774513 472.809122 
L 714.976973 473.404986 
L 716.179421 472.724527 
L 717.381793 471.640261 
L 718.583514 472.847983 
L 719.786678 472.49242 
L 722.191581 473.112738 
L 723.393961 472.98611 
L 724.596386 471.52738 
L 725.798783 472.528241 
L 727.001229 472.026224 
L 728.203663 472.503656 
L 729.40608 473.38159 
L 733.013463 473.715211 
L 734.215824 473.493943 
L 735.418255 474.293627 
L 736.620625 474.170701 
L 737.822842 473.257871 
L 739.025466 473.325811 
L 740.227959 473.065153 
L 741.430287 473.698292 
L 742.632787 472.829081 
L 743.835144 472.839655 
L 746.239987 471.556459 
L 751.050263 471.360569 
L 752.252116 470.550311 
L 753.454595 471.164151 
L 755.859506 471.456267 
L 757.061806 471.812623 
L 758.264249 470.997076 
L 759.466644 471.43459 
L 760.669098 472.496518 
L 761.871201 471.894045 
L 763.073922 471.897217 
L 764.276427 472.548332 
L 765.478632 471.831128 
L 766.680719 471.471864 
L 767.883679 473.081015 
L 769.087344 472.46083 
L 770.288563 473.243595 
L 771.49103 473.096612 
L 772.6934 472.343454 
L 773.895807 472.231102 
L 775.098244 471.722741 
L 776.300458 472.470082 
L 777.503085 472.503391 
L 778.705547 473.842632 
L 779.907961 473.563469 
L 781.110388 473.436313 
L 783.515172 471.38912 
L 784.717675 471.564654 
L 785.919943 472.948835 
L 787.122535 472.90363 
L 788.324926 473.637754 
L 789.527349 473.375774 
L 790.729708 472.526126 
L 791.932236 472.687649 
L 793.134455 472.239297 
L 794.337111 472.542252 
L 796.742263 472.355086 
L 797.944361 473.589905 
L 801.551562 473.066475 
L 803.956473 473.246768 
L 806.361709 474.088882 
L 808.766167 473.902509 
L 813.575775 474.327201 
L 817.183112 473.408555 
L 821.99289 472.967605 
L 829.207439 473.619645 
L 836.421906 474.423956 
L 849.64857 471.438952 
L 854.458281 471.158071 
L 859.268016 470.26639 
L 864.077727 470.159985 
L 868.887739 472.290649 
L 872.494592 471.960663 
L 876.101926 469.977512 
L 879.709234 472.745676 
L 883.316483 473.192838 
L 886.923779 471.967338 
L 890.531055 473.168187 
L 894.138349 472.351385 
L 896.54317 471.325806 
L 898.947947 468.386602 
L 901.352592 468.340009 
L 903.757732 468.81678 
L 906.162552 470.367507 
L 908.567935 472.521169 
L 910.971595 473.149484 
L 913.377171 472.107911 
L 915.782134 472.040962 
L 918.186118 474.356148 
L 919.389299 472.525201 
L 921.79408 471.202153 
L 922.996585 472.901912 
L 925.401301 472.279347 
L 926.603767 472.763322 
L 927.80616 472.219999 
L 930.21052 471.803634 
L 931.413485 472.643567 
L 933.818363 471.589372 
L 936.223219 468.566498 
L 938.628017 467.019406 
L 943.437804 470.75998 
L 945.842617 471.549156 
L 948.247431 471.941167 
L 950.652825 472.961161 
L 953.057299 471.620599 
L 955.462011 471.5403 
L 957.866844 472.263189 
L 960.271339 472.312095 
L 965.081658 471.25357 
L 967.486212 470.982834 
L 969.890854 471.607249 
L 972.29598 471.426527 
L 974.700774 471.909246 
L 977.105602 472.944771 
L 979.510509 471.602524 
L 981.915379 472.186888 
L 986.724513 472.647929 
L 989.129827 471.900059 
L 991.535259 470.765994 
L 993.939576 472.323132 
L 996.345034 472.823629 
L 998.749214 472.787478 
L 1001.154148 474.243366 
L 1003.559028 473.891901 
L 1005.964769 473.327397 
L 1008.368733 473.157348 
L 1010.773552 471.89497 
L 1013.178364 472.444307 
L 1015.582545 472.344248 
L 1017.988545 472.380795 
L 1020.392892 472.175587 
L 1022.797786 472.155099 
L 1025.202642 471.895235 
L 1027.608029 471.484752 
L 1030.012343 472.750038 
L 1032.417163 472.351121 
L 1034.821949 473.011819 
L 1037.226862 472.474312 
L 1039.631875 472.421837 
L 1042.037117 472.70285 
L 1044.44158 472.3268 
L 1046.846318 473.178166 
L 1049.25113 473.887308 
L 1051.655968 474.367119 
L 1054.060836 474.251726 
L 1056.46619 474.426203 
L 1058.870543 472.967737 
L 1061.27532 472.941433 
L 1063.680237 473.219803 
L 1066.085002 474.187884 
L 1068.48985 472.970248 
L 1070.894753 473.556596 
L 1073.299377 472.844546 
L 1075.705215 472.686327 
L 1078.109337 473.098595 
L 1080.514111 472.607152 
L 1082.919068 472.516609 
L 1085.323826 471.42851 
L 1087.728694 474.294288 
L 1090.133571 472.153645 
L 1092.5384 474.285961 
L 1094.943194 473.690361 
L 1097.348083 474.032639 
L 1099.752896 473.248023 
L 1102.157731 474.023056 
L 1104.56272 474.430961 
L 1106.968454 473.412256 
L 1109.372324 474.173146 
L 1111.777198 473.824523 
L 1114.182073 474.238641 
L 1116.586877 473.682695 
L 1118.992192 474.04513 
L 1121.396617 471.57047 
L 1123.801219 471.699477 
L 1126.206294 473.200769 
L 1128.611182 472.122186 
L 1131.015986 470.640986 
L 1133.421768 470.714213 
L 1135.825575 471.478738 
L 1140.635376 473.663397 
L 1143.040215 473.62599 
L 1145.445269 474.448409 
L 1147.850621 474.332224 
L 1150.254708 473.647006 
L 1152.660135 473.876602 
L 1155.064495 473.628237 
L 1157.46986 473.64846 
L 1159.874215 474.458851 
L 1162.279069 474.425939 
L 1164.684565 474.228331 
L 1167.088764 473.760416 
L 1169.493521 472.089406 
L 1171.898421 473.93899 
L 1174.303302 473.192706 
L 1176.708667 474.163827 
L 1179.113013 474.14215 
L 1181.517863 472.181403 
L 1183.922668 472.659363 
L 1186.327459 472.632266 
L 1188.73385 471.188869 
L 1191.137213 471.880959 
L 1193.542058 470.299434 
L 1195.946852 470.766424 
L 1198.351769 470.780303 
L 1199.554227 469.616068 
L 1200.756592 469.881484 
L 1203.161415 469.817773 
L 1205.566317 470.189726 
L 1207.971254 469.602717 
L 1209.172827 472.967737 
L 1211.578408 473.367315 
L 1213.983266 473.571664 
L 1216.388113 472.697959 
L 1218.792956 472.776474 
L 1221.197857 471.969123 
L 1223.603178 473.210286 
L 1226.008202 472.389982 
L 1228.413336 473.378418 
L 1230.817176 471.569677 
L 1233.222036 473.261572 
L 1238.031707 472.846793 
L 1240.436613 471.660088 
L 1242.841478 471.630215 
L 1245.246335 472.409015 
L 1247.650807 473.959742 
L 1250.056065 473.403796 
L 1252.460903 473.831793 
L 1254.865718 473.321317 
L 1257.270396 474.450392 
L 1259.675341 473.888366 
L 1262.08022 472.056097 
L 1264.485147 473.16746 
L 1266.889611 472.415096 
L 1269.294056 470.423683 
L 1271.699658 469.548921 
L 1274.104561 470.16937 
L 1276.509315 471.139434 
L 1278.914257 471.735959 
L 1281.319107 472.966547 
L 1283.723837 472.812823 
L 1286.128685 473.566509 
L 1288.533652 472.972628 
L 1290.939033 471.950485 
L 1293.343297 471.984323 
L 1295.747923 470.483824 
L 1298.15228 470.162232 
L 1300.557797 470.870977 
L 1302.962662 470.148089 
L 1305.367528 471.072154 
L 1307.772453 470.270619 
L 1310.177173 470.786515 
L 1312.582084 467.856233 
L 1314.986646 468.824116 
L 1317.391827 469.480319 
L 1319.796701 470.784532 
L 1322.201529 469.99562 
L 1327.011186 467.499679 
L 1329.416028 466.049871 
L 1331.820922 466.466897 
L 1334.226566 466.384681 
L 1336.631134 466.855239 
L 1341.441472 465.274442 
L 1343.846738 466.297575 
L 1346.250753 466.0007 
L 1348.654878 464.364652 
L 1351.06051 466.670321 
L 1353.464645 465.699464 
L 1357.071837 467.363336 
L 1360.678999 466.633443 
L 1364.286379 467.611239 
L 1367.893574 466.923576 
L 1370.298622 468.322033 
L 1372.703785 467.191966 
L 1375.108237 467.696362 
L 1379.917809 466.630535 
L 1383.525648 468.038971 
L 1387.13245 468.354549 
L 1390.739024 466.136977 
L 1393.144554 467.7836 
L 1395.549409 467.838653 
L 1397.954265 469.006589 
L 1400.358448 466.783136 
L 1402.76392 466.336502 
L 1405.168785 467.586719 
L 1407.573699 467.066594 
L 1412.383323 468.290904 
L 1414.788171 466.850283 
L 1417.192393 466.762119 
L 1419.597917 467.913665 
L 1422.002709 467.782411 
L 1424.407695 467.842817 
L 1426.812415 468.099377 
L 1429.217234 467.935607 
L 1431.62213 468.21999 
L 1434.026895 468.062565 
L 1436.432313 468.538939 
L 1438.836752 469.348338 
L 1441.24205 468.558237 
L 1443.646394 468.451899 
L 1444.848803 469.051794 
L 1446.051191 469.47034 
L 1447.253663 469.256408 
L 1448.456093 469.231558 
L 1449.65854 468.209879 
L 1450.860922 468.605028 
L 1452.063268 469.425597 
L 1453.265796 469.729411 
L 1454.468242 469.446217 
L 1455.670366 468.879366 
L 1456.873139 468.580641 
L 1458.076032 468.660147 
L 1459.277158 469.554076 
L 1461.682784 468.121252 
L 1462.886031 468.755581 
L 1465.290048 469.05272 
L 1466.492966 469.495454 
L 1467.695625 468.08378 
L 1468.896777 468.19752 
L 1470.099778 469.255747 
L 1471.302126 469.383895 
L 1472.504609 467.668208 
L 1473.707013 469.801978 
L 1474.908662 470.834166 
L 1478.516259 468.005595 
L 1480.921521 471.089734 
L 1482.123994 471.372994 
L 1483.326353 472.539212 
L 1484.528893 471.972626 
L 1485.73125 471.943877 
L 1488.135959 471.482373 
L 1489.338833 471.957227 
L 1490.541371 471.47431 
L 1491.743338 472.051074 
L 1492.94577 472.387206 
L 1494.148187 471.443049 
L 1495.351153 470.673634 
L 1496.553075 470.513036 
L 1497.755734 469.762126 
L 1498.957901 468.838193 
L 1500.160338 470.484816 
L 1501.362735 469.028068 
L 1502.565109 469.215895 
L 1503.7676 469.733112 
L 1504.970037 469.503253 
L 1506.172453 468.469016 
L 1507.374431 468.581831 
L 1508.577209 468.883067 
L 1509.780255 468.022977 
L 1510.983076 469.676804 
L 1512.18492 467.952195 
L 1513.387013 468.467694 
L 1514.589403 467.539201 
L 1515.791875 468.302206 
L 1516.994223 468.623071 
L 1518.196742 467.705152 
L 1519.399903 467.645605 
L 1521.803895 469.158595 
L 1523.006393 467.929923 
L 1524.209466 469.457452 
L 1525.411251 470.130774 
L 1526.613327 468.347543 
L 1527.816068 467.121581 
L 1529.018479 467.950345 
L 1530.220863 471.018688 
L 1531.423333 471.18226 
L 1532.625804 468.766023 
L 1533.828287 467.020794 
L 1535.030626 467.613155 
L 1536.233409 467.626704 
L 1537.436002 466.296584 
L 1538.637947 466.531995 
L 1539.840308 466.34093 
L 1541.04326 467.333662 
L 1542.245703 469.069308 
L 1543.447578 468.492478 
L 1544.650571 469.162494 
L 1545.852487 471.063298 
L 1547.054846 471.055698 
L 1548.257854 470.506758 
L 1549.459793 464.409328 
L 1550.66214 470.89966 
L 1551.864538 469.68685 
L 1553.067562 468.001564 
L 1554.269936 466.886698 
L 1555.472816 467.963298 
L 1556.674246 469.263017 
L 1557.876689 469.194284 
L 1559.079743 468.110414 
L 1560.281555 468.281255 
L 1561.48398 466.858544 
L 1562.685892 468.783999 
L 1563.88914 465.832899 
L 1565.091281 465.474495 
L 1566.293654 465.487052 
L 1567.496127 463.958068 
L 1568.698565 465.459228 
L 1569.900968 465.734888 
L 1571.103341 465.067845 
L 1573.508233 465.025812 
L 1574.710261 465.201148 
L 1575.913042 466.96594 
L 1577.115467 467.958474 
L 1578.317889 467.264202 
L 1579.520566 468.471197 
L 1580.722919 466.901899 
L 1581.925147 465.589887 
L 1583.12763 467.690017 
L 1584.329994 467.425395 
L 1585.532419 464.698603 
L 1586.734841 466.257128 
L 1587.937326 469.658695 
L 1589.139718 466.459429 
L 1590.342727 464.747773 
L 1591.544557 466.444294 
L 1592.747 467.458902 
L 1593.949091 465.051191 
L 1593.949091 465.051191 
" clip-path="url(#pcb86e1b0f6)" style="fill: none; stroke: #9933fa; stroke-width: 1.5; stroke-linecap: square"/>
   </g>
   <g id="patch_3">
    <path d="M 230.4 640.8 
L 230.4 86.4 
" style="fill: none; stroke: #000000; stroke-width: 3; stroke-linejoin: miter; stroke-linecap: square"/>
   </g>
   <g id="patch_4">
    <path d="M 1658.88 640.8 
L 1658.88 86.4 
" style="fill: none; stroke: #000000; stroke-width: 3; stroke-linejoin: miter; stroke-linecap: square"/>
   </g>
   <g id="patch_5">
    <path d="M 230.4 640.8 
L 1658.88 640.8 
" style="fill: none; stroke: #000000; stroke-width: 3; stroke-linejoin: miter; stroke-linecap: square"/>
   </g>
   <g id="patch_6">
    <path d="M 230.4 86.4 
L 1658.88 86.4 
" style="fill: none; stroke: #000000; stroke-width: 3; stroke-linejoin: miter; stroke-linecap: square"/>
   </g>
   <g id="text_11">
    <!-- Off2 -->
    <g transform="translate(896.77125 77.041406) scale(0.45 -0.45)">
     <defs>
      <path id="DejaVuSans-4f" d="M 2522 4238 
Q 1834 4238 1429 3725 
Q 1025 3213 1025 2328 
Q 1025 1447 1429 934 
Q 1834 422 2522 422 
Q 3209 422 3611 934 
Q 4013 1447 4013 2328 
Q 4013 3213 3611 3725 
Q 3209 4238 2522 4238 
z
M 2522 4750 
Q 3503 4750 4090 4092 
Q 4678 3434 4678 2328 
Q 4678 1225 4090 567 
Q 3503 -91 2522 -91 
Q 1538 -91 948 565 
Q 359 1222 359 2328 
Q 359 3434 948 4092 
Q 1538 4750 2522 4750 
z
" transform="scale(0.015625)"/>
      <path id="DejaVuSans-66" d="M 2375 4863 
L 2375 4384 
L 1825 4384 
Q 1516 4384 1395 4259 
Q 1275 4134 1275 3809 
L 1275 3500 
L 2222 3500 
L 2222 3053 
L 1275 3053 
L 1275 0 
L 697 0 
L 697 3053 
L 147 3053 
L 147 3500 
L 697 3500 
L 697 3744 
Q 697 4328 969 4595 
Q 1241 4863 1831 4863 
L 2375 4863 
z
" transform="scale(0.015625)"/>
     </defs>
     <use xlink:href="#DejaVuSans-4f"/>
     <use xlink:href="#DejaVuSans-66" x="78.710938"/>
     <use xlink:href="#DejaVuSans-66" x="113.916016"/>
     <use xlink:href="#DejaVuSans-32" x="149.121094"/>
    </g>
   </g>
   <g id="legend_1">
    <g id="patch_7">
     <path d="M 258.4 294.5375 
L 485.93125 294.5375 
Q 493.93125 294.5375 493.93125 286.5375 
L 493.93125 114.4 
Q 493.93125 106.4 485.93125 106.4 
L 258.4 106.4 
Q 250.4 106.4 250.4 114.4 
L 250.4 286.5375 
Q 250.4 294.5375 258.4 294.5375 
z
" style="fill: #ffffff; opacity: 0.8; stroke: #cccccc; stroke-linejoin: miter"/>
    </g>
    <g id="line2d_20">
     <path d="M 266.4 138.79375 
L 306.4 138.79375 
L 346.4 138.79375 
" style="fill: none; stroke: #00ff00; stroke-width: 1.5; stroke-linecap: square"/>
    </g>
    <g id="text_12">
     <!-- roll -->
     <g transform="translate(378.4 152.79375) scale(0.4 -0.4)">
      <defs>
       <path id="DejaVuSans-72" d="M 2631 2963 
Q 2534 3019 2420 3045 
Q 2306 3072 2169 3072 
Q 1681 3072 1420 2755 
Q 1159 2438 1159 1844 
L 1159 0 
L 581 0 
L 581 3500 
L 1159 3500 
L 1159 2956 
Q 1341 3275 1631 3429 
Q 1922 3584 2338 3584 
Q 2397 3584 2469 3576 
Q 2541 3569 2628 3553 
L 2631 2963 
z
" transform="scale(0.015625)"/>
       <path id="DejaVuSans-6f" d="M 1959 3097 
Q 1497 3097 1228 2736 
Q 959 2375 959 1747 
Q 959 1119 1226 758 
Q 1494 397 1959 397 
Q 2419 397 2687 759 
Q 2956 1122 2956 1747 
Q 2956 2369 2687 2733 
Q 2419 3097 1959 3097 
z
M 1959 3584 
Q 2709 3584 3137 3096 
Q 3566 2609 3566 1747 
Q 3566 888 3137 398 
Q 2709 -91 1959 -91 
Q 1206 -91 779 398 
Q 353 888 353 1747 
Q 353 2609 779 3096 
Q 1206 3584 1959 3584 
z
" transform="scale(0.015625)"/>
       <path id="DejaVuSans-6c" d="M 603 4863 
L 1178 4863 
L 1178 0 
L 603 0 
L 603 4863 
z
" transform="scale(0.015625)"/>
      </defs>
      <use xlink:href="#DejaVuSans-72"/>
      <use xlink:href="#DejaVuSans-6f" x="38.863281"/>
      <use xlink:href="#DejaVuSans-6c" x="100.044922"/>
      <use xlink:href="#DejaVuSans-6c" x="127.828125"/>
     </g>
    </g>
    <g id="line2d_21">
     <path d="M 266.4 197.50625 
L 306.4 197.50625 
L 346.4 197.50625 
" style="fill: none; stroke: #0000ff; stroke-width: 1.5; stroke-linecap: square"/>
    </g>
    <g id="text_13">
     <!-- pitch -->
     <g transform="translate(378.4 211.50625) scale(0.4 -0.4)">
      <defs>
       <path id="DejaVuSans-70" d="M 1159 525 
L 1159 -1331 
L 581 -1331 
L 581 3500 
L 1159 3500 
L 1159 2969 
Q 1341 3281 1617 3432 
Q 1894 3584 2278 3584 
Q 2916 3584 3314 3078 
Q 3713 2572 3713 1747 
Q 3713 922 3314 415 
Q 2916 -91 2278 -91 
Q 1894 -91 1617 61 
Q 1341 213 1159 525 
z
M 3116 1747 
Q 3116 2381 2855 2742 
Q 2594 3103 2138 3103 
Q 1681 3103 1420 2742 
Q 1159 2381 1159 1747 
Q 1159 1113 1420 752 
Q 1681 391 2138 391 
Q 2594 391 2855 752 
Q 3116 1113 3116 1747 
z
" transform="scale(0.015625)"/>
       <path id="DejaVuSans-69" d="M 603 3500 
L 1178 3500 
L 1178 0 
L 603 0 
L 603 3500 
z
M 603 4863 
L 1178 4863 
L 1178 4134 
L 603 4134 
L 603 4863 
z
" transform="scale(0.015625)"/>
       <path id="DejaVuSans-74" d="M 1172 4494 
L 1172 3500 
L 2356 3500 
L 2356 3053 
L 1172 3053 
L 1172 1153 
Q 1172 725 1289 603 
Q 1406 481 1766 481 
L 2356 481 
L 2356 0 
L 1766 0 
Q 1100 0 847 248 
Q 594 497 594 1153 
L 594 3053 
L 172 3053 
L 172 3500 
L 594 3500 
L 594 4494 
L 1172 4494 
z
" transform="scale(0.015625)"/>
       <path id="DejaVuSans-63" d="M 3122 3366 
L 3122 2828 
Q 2878 2963 2633 3030 
Q 2388 3097 2138 3097 
Q 1578 3097 1268 2742 
Q 959 2388 959 1747 
Q 959 1106 1268 751 
Q 1578 397 2138 397 
Q 2388 397 2633 464 
Q 2878 531 3122 666 
L 3122 134 
Q 2881 22 2623 -34 
Q 2366 -91 2075 -91 
Q 1284 -91 818 406 
Q 353 903 353 1747 
Q 353 2603 823 3093 
Q 1294 3584 2113 3584 
Q 2378 3584 2631 3529 
Q 2884 3475 3122 3366 
z
" transform="scale(0.015625)"/>
       <path id="DejaVuSans-68" d="M 3513 2113 
L 3513 0 
L 2938 0 
L 2938 2094 
Q 2938 2591 2744 2837 
Q 2550 3084 2163 3084 
Q 1697 3084 1428 2787 
Q 1159 2491 1159 1978 
L 1159 0 
L 581 0 
L 581 4863 
L 1159 4863 
L 1159 2956 
Q 1366 3272 1645 3428 
Q 1925 3584 2291 3584 
Q 2894 3584 3203 3211 
Q 3513 2838 3513 2113 
z
" transform="scale(0.015625)"/>
      </defs>
      <use xlink:href="#DejaVuSans-70"/>
      <use xlink:href="#DejaVuSans-69" x="63.476562"/>
      <use xlink:href="#DejaVuSans-74" x="91.259766"/>
      <use xlink:href="#DejaVuSans-63" x="130.46875"/>
      <use xlink:href="#DejaVuSans-68" x="185.449219"/>
     </g>
    </g>
    <g id="line2d_22">
     <path d="M 266.4 256.21875 
L 306.4 256.21875 
L 346.4 256.21875 
" style="fill: none; stroke: #9933fa; stroke-width: 1.5; stroke-linecap: square"/>
    </g>
    <g id="text_14">
     <!-- yaw -->
     <g transform="translate(378.4 270.21875) scale(0.4 -0.4)">
      <defs>
       <path id="DejaVuSans-79" d="M 2059 -325 
Q 1816 -950 1584 -1140 
Q 1353 -1331 966 -1331 
L 506 -1331 
L 506 -850 
L 844 -850 
Q 1081 -850 1212 -737 
Q 1344 -625 1503 -206 
L 1606 56 
L 191 3500 
L 800 3500 
L 1894 763 
L 2988 3500 
L 3597 3500 
L 2059 -325 
z
" transform="scale(0.015625)"/>
       <path id="DejaVuSans-61" d="M 2194 1759 
Q 1497 1759 1228 1600 
Q 959 1441 959 1056 
Q 959 750 1161 570 
Q 1363 391 1709 391 
Q 2188 391 2477 730 
Q 2766 1069 2766 1631 
L 2766 1759 
L 2194 1759 
z
M 3341 1997 
L 3341 0 
L 2766 0 
L 2766 531 
Q 2569 213 2275 61 
Q 1981 -91 1556 -91 
Q 1019 -91 701 211 
Q 384 513 384 1019 
Q 384 1609 779 1909 
Q 1175 2209 1959 2209 
L 2766 2209 
L 2766 2266 
Q 2766 2663 2505 2880 
Q 2244 3097 1772 3097 
Q 1472 3097 1187 3025 
Q 903 2953 641 2809 
L 641 3341 
Q 956 3463 1253 3523 
Q 1550 3584 1831 3584 
Q 2591 3584 2966 3190 
Q 3341 2797 3341 1997 
z
" transform="scale(0.015625)"/>
       <path id="DejaVuSans-77" d="M 269 3500 
L 844 3500 
L 1563 769 
L 2278 3500 
L 2956 3500 
L 3675 769 
L 4391 3500 
L 4966 3500 
L 4050 0 
L 3372 0 
L 2619 2869 
L 1863 0 
L 1184 0 
L 269 3500 
z
" transform="scale(0.015625)"/>
      </defs>
      <use xlink:href="#DejaVuSans-79"/>
      <use xlink:href="#DejaVuSans-61" x="59.179688"/>
      <use xlink:href="#DejaVuSans-77" x="120.458984"/>
     </g>
    </g>
   </g>
  </g>
 </g>
 <defs>
  <clipPath id="pcb86e1b0f6">
   <rect x="230.4" y="86.4" width="1428.48" height="554.4"/>
  </clipPath>
 </defs>
</svg>
