<?xml version="1.0" encoding="utf-8" standalone="no"?>
<!DOCTYPE svg PUBLIC "-//W3C//DTD SVG 1.1//EN"
  "http://www.w3.org/Graphics/SVG/1.1/DTD/svg11.dtd">
<svg xmlns:xlink="http://www.w3.org/1999/xlink" width="1843.2pt" height="720pt" viewBox="0 0 1843.2 720" xmlns="http://www.w3.org/2000/svg" version="1.1">
 <metadata>
  <rdf:RDF xmlns:dc="http://purl.org/dc/elements/1.1/" xmlns:cc="http://creativecommons.org/ns#" xmlns:rdf="http://www.w3.org/1999/02/22-rdf-syntax-ns#">
   <cc:Work>
    <dc:type rdf:resource="http://purl.org/dc/dcmitype/StillImage"/>
    <dc:date>2024-03-12T16:10:31.371795</dc:date>
    <dc:format>image/svg+xml</dc:format>
    <dc:creator>
     <cc:Agent>
      <dc:title>Matplotlib v3.7.0, https://matplotlib.org/</dc:title>
     </cc:Agent>
    </dc:creator>
   </cc:Work>
  </rdf:RDF>
 </metadata>
 <defs>
  <style type="text/css">*{stroke-linejoin: round; stroke-linecap: butt}</style>
 </defs>
 <g id="figure_1">
  <g id="patch_1">
   <path d="M 0 720 
L 1843.2 720 
L 1843.2 0 
L 0 0 
z
" style="fill: #ffffff"/>
  </g>
  <g id="axes_1">
   <g id="patch_2">
    <path d="M 230.4 640.8 
L 1658.88 640.8 
L 1658.88 86.4 
L 230.4 86.4 
z
" style="fill: #ffffff"/>
   </g>
   <g id="matplotlib.axis_1">
    <g id="xtick_1">
     <g id="line2d_1">
      <path d="M 295.330909 640.8 
L 295.330909 86.4 
" clip-path="url(#p7181476379)" style="fill: none; stroke: #b0b0b0; stroke-width: 0.8; stroke-linecap: square"/>
     </g>
     <g id="line2d_2">
      <defs>
       <path id="m02359aeb98" d="M 0 0 
L 0 -5 
" style="stroke: #000000; stroke-width: 0.8"/>
      </defs>
      <g>
       <use xlink:href="#m02359aeb98" x="295.330909" y="640.8" style="stroke: #000000; stroke-width: 0.8"/>
      </g>
     </g>
     <g id="text_1">
      <!-- 0 -->
      <g transform="translate(282.605909 674.69375) scale(0.4 -0.4)">
       <defs>
        <path id="DejaVuSans-30" d="M 2034 4250 
Q 1547 4250 1301 3770 
Q 1056 3291 1056 2328 
Q 1056 1369 1301 889 
Q 1547 409 2034 409 
Q 2525 409 2770 889 
Q 3016 1369 3016 2328 
Q 3016 3291 2770 3770 
Q 2525 4250 2034 4250 
z
M 2034 4750 
Q 2819 4750 3233 4129 
Q 3647 3509 3647 2328 
Q 3647 1150 3233 529 
Q 2819 -91 2034 -91 
Q 1250 -91 836 529 
Q 422 1150 422 2328 
Q 422 3509 836 4129 
Q 1250 4750 2034 4750 
z
" transform="scale(0.015625)"/>
       </defs>
       <use xlink:href="#DejaVuSans-30"/>
      </g>
     </g>
    </g>
    <g id="xtick_2">
     <g id="line2d_3">
      <path d="M 988.422049 640.8 
L 988.422049 86.4 
" clip-path="url(#p7181476379)" style="fill: none; stroke: #b0b0b0; stroke-width: 0.8; stroke-linecap: square"/>
     </g>
     <g id="line2d_4">
      <g>
       <use xlink:href="#m02359aeb98" x="988.422049" y="640.8" style="stroke: #000000; stroke-width: 0.8"/>
      </g>
     </g>
     <g id="text_2">
      <!-- 100 -->
      <g transform="translate(950.247049 674.69375) scale(0.4 -0.4)">
       <defs>
        <path id="DejaVuSans-31" d="M 794 531 
L 1825 531 
L 1825 4091 
L 703 3866 
L 703 4441 
L 1819 4666 
L 2450 4666 
L 2450 531 
L 3481 531 
L 3481 0 
L 794 0 
L 794 531 
z
" transform="scale(0.015625)"/>
       </defs>
       <use xlink:href="#DejaVuSans-31"/>
       <use xlink:href="#DejaVuSans-30" x="63.623047"/>
       <use xlink:href="#DejaVuSans-30" x="127.246094"/>
      </g>
     </g>
    </g>
    <g id="text_3">
     <!-- Time(s) -->
     <g transform="translate(882.030625 714.7875) scale(0.4 -0.4)">
      <defs>
       <path id="TimesNewRomanPSMT-54" d="M 3703 4238 
L 3750 3244 
L 3631 3244 
Q 3597 3506 3538 3619 
Q 3441 3800 3280 3886 
Q 3119 3972 2856 3972 
L 2259 3972 
L 2259 734 
Q 2259 344 2344 247 
Q 2463 116 2709 116 
L 2856 116 
L 2856 0 
L 1059 0 
L 1059 116 
L 1209 116 
Q 1478 116 1591 278 
Q 1659 378 1659 734 
L 1659 3972 
L 1150 3972 
Q 853 3972 728 3928 
Q 566 3869 450 3700 
Q 334 3531 313 3244 
L 194 3244 
L 244 4238 
L 3703 4238 
z
" transform="scale(0.015625)"/>
       <path id="TimesNewRomanPSMT-69" d="M 928 4444 
Q 1059 4444 1151 4351 
Q 1244 4259 1244 4128 
Q 1244 3997 1151 3903 
Q 1059 3809 928 3809 
Q 797 3809 703 3903 
Q 609 3997 609 4128 
Q 609 4259 701 4351 
Q 794 4444 928 4444 
z
M 1188 2947 
L 1188 647 
Q 1188 378 1227 289 
Q 1266 200 1342 156 
Q 1419 113 1622 113 
L 1622 0 
L 231 0 
L 231 113 
Q 441 113 512 153 
Q 584 194 626 287 
Q 669 381 669 647 
L 669 1750 
Q 669 2216 641 2353 
Q 619 2453 572 2492 
Q 525 2531 444 2531 
Q 356 2531 231 2484 
L 188 2597 
L 1050 2947 
L 1188 2947 
z
" transform="scale(0.015625)"/>
       <path id="TimesNewRomanPSMT-6d" d="M 1050 2338 
Q 1363 2650 1419 2697 
Q 1559 2816 1721 2881 
Q 1884 2947 2044 2947 
Q 2313 2947 2506 2790 
Q 2700 2634 2766 2338 
Q 3088 2713 3309 2830 
Q 3531 2947 3766 2947 
Q 3994 2947 4170 2830 
Q 4347 2713 4450 2447 
Q 4519 2266 4519 1878 
L 4519 647 
Q 4519 378 4559 278 
Q 4591 209 4675 161 
Q 4759 113 4950 113 
L 4950 0 
L 3538 0 
L 3538 113 
L 3597 113 
Q 3781 113 3884 184 
Q 3956 234 3988 344 
Q 4000 397 4000 647 
L 4000 1878 
Q 4000 2228 3916 2372 
Q 3794 2572 3525 2572 
Q 3359 2572 3192 2489 
Q 3025 2406 2788 2181 
L 2781 2147 
L 2788 2013 
L 2788 647 
Q 2788 353 2820 281 
Q 2853 209 2943 161 
Q 3034 113 3253 113 
L 3253 0 
L 1806 0 
L 1806 113 
Q 2044 113 2133 169 
Q 2222 225 2256 338 
Q 2272 391 2272 647 
L 2272 1878 
Q 2272 2228 2169 2381 
Q 2031 2581 1784 2581 
Q 1616 2581 1450 2491 
Q 1191 2353 1050 2181 
L 1050 647 
Q 1050 366 1089 281 
Q 1128 197 1204 155 
Q 1281 113 1516 113 
L 1516 0 
L 100 0 
L 100 113 
Q 297 113 375 155 
Q 453 197 493 289 
Q 534 381 534 647 
L 534 1741 
Q 534 2213 506 2350 
Q 484 2453 437 2492 
Q 391 2531 309 2531 
Q 222 2531 100 2484 
L 53 2597 
L 916 2947 
L 1050 2947 
L 1050 2338 
z
" transform="scale(0.015625)"/>
       <path id="TimesNewRomanPSMT-65" d="M 681 1784 
Q 678 1147 991 784 
Q 1303 422 1725 422 
Q 2006 422 2214 576 
Q 2422 731 2563 1106 
L 2659 1044 
Q 2594 616 2278 264 
Q 1963 -88 1488 -88 
Q 972 -88 605 314 
Q 238 716 238 1394 
Q 238 2128 614 2539 
Q 991 2950 1559 2950 
Q 2041 2950 2350 2633 
Q 2659 2316 2659 1784 
L 681 1784 
z
M 681 1966 
L 2006 1966 
Q 1991 2241 1941 2353 
Q 1863 2528 1708 2628 
Q 1553 2728 1384 2728 
Q 1125 2728 920 2526 
Q 716 2325 681 1966 
z
" transform="scale(0.015625)"/>
       <path id="TimesNewRomanPSMT-28" d="M 1988 -1253 
L 1988 -1369 
Q 1516 -1131 1200 -813 
Q 750 -359 506 256 
Q 263 872 263 1534 
Q 263 2503 741 3301 
Q 1219 4100 1988 4444 
L 1988 4313 
Q 1603 4100 1356 3731 
Q 1109 3363 987 2797 
Q 866 2231 866 1616 
Q 866 947 969 400 
Q 1050 -31 1165 -292 
Q 1281 -553 1476 -793 
Q 1672 -1034 1988 -1253 
z
" transform="scale(0.015625)"/>
       <path id="TimesNewRomanPSMT-73" d="M 2050 2947 
L 2050 1972 
L 1947 1972 
Q 1828 2431 1642 2597 
Q 1456 2763 1169 2763 
Q 950 2763 815 2647 
Q 681 2531 681 2391 
Q 681 2216 781 2091 
Q 878 1963 1175 1819 
L 1631 1597 
Q 2266 1288 2266 781 
Q 2266 391 1970 151 
Q 1675 -88 1309 -88 
Q 1047 -88 709 6 
Q 606 38 541 38 
Q 469 38 428 -44 
L 325 -44 
L 325 978 
L 428 978 
Q 516 541 762 319 
Q 1009 97 1316 97 
Q 1531 97 1667 223 
Q 1803 350 1803 528 
Q 1803 744 1651 891 
Q 1500 1038 1047 1263 
Q 594 1488 453 1669 
Q 313 1847 313 2119 
Q 313 2472 555 2709 
Q 797 2947 1181 2947 
Q 1350 2947 1591 2875 
Q 1750 2828 1803 2828 
Q 1853 2828 1881 2850 
Q 1909 2872 1947 2947 
L 2050 2947 
z
" transform="scale(0.015625)"/>
       <path id="TimesNewRomanPSMT-29" d="M 144 4313 
L 144 4444 
Q 619 4209 934 3891 
Q 1381 3434 1625 2820 
Q 1869 2206 1869 1541 
Q 1869 572 1392 -226 
Q 916 -1025 144 -1369 
L 144 -1253 
Q 528 -1038 776 -670 
Q 1025 -303 1145 264 
Q 1266 831 1266 1447 
Q 1266 2113 1163 2663 
Q 1084 3094 967 3353 
Q 850 3613 656 3853 
Q 463 4094 144 4313 
z
" transform="scale(0.015625)"/>
      </defs>
      <use xlink:href="#TimesNewRomanPSMT-54"/>
      <use xlink:href="#TimesNewRomanPSMT-69" x="57.583984"/>
      <use xlink:href="#TimesNewRomanPSMT-6d" x="85.367188"/>
      <use xlink:href="#TimesNewRomanPSMT-65" x="163.150391"/>
      <use xlink:href="#TimesNewRomanPSMT-28" x="207.535156"/>
      <use xlink:href="#TimesNewRomanPSMT-73" x="240.835938"/>
      <use xlink:href="#TimesNewRomanPSMT-29" x="279.751953"/>
     </g>
    </g>
   </g>
   <g id="matplotlib.axis_2">
    <g id="ytick_1">
     <g id="line2d_5">
      <path d="M 230.4 542.964706 
L 1658.88 542.964706 
" clip-path="url(#p7181476379)" style="fill: none; stroke: #b0b0b0; stroke-width: 0.8; stroke-linecap: square"/>
     </g>
     <g id="line2d_6">
      <defs>
       <path id="m2ffc0fb04d" d="M 0 0 
L 5 0 
" style="stroke: #000000; stroke-width: 0.8"/>
      </defs>
      <g>
       <use xlink:href="#m2ffc0fb04d" x="230.4" y="542.964706" style="stroke: #000000; stroke-width: 0.8"/>
      </g>
     </g>
     <g id="text_4">
      <!-- 0 -->
      <g transform="translate(201.45 558.161581) scale(0.4 -0.4)">
       <use xlink:href="#DejaVuSans-30"/>
      </g>
     </g>
    </g>
    <g id="ytick_2">
     <g id="line2d_7">
      <path d="M 230.4 412.517647 
L 1658.88 412.517647 
" clip-path="url(#p7181476379)" style="fill: none; stroke: #b0b0b0; stroke-width: 0.8; stroke-linecap: square"/>
     </g>
     <g id="line2d_8">
      <g>
       <use xlink:href="#m2ffc0fb04d" x="230.4" y="412.517647" style="stroke: #000000; stroke-width: 0.8"/>
      </g>
     </g>
     <g id="text_5">
      <!-- 1 -->
      <g transform="translate(201.45 427.714522) scale(0.4 -0.4)">
       <use xlink:href="#DejaVuSans-31"/>
      </g>
     </g>
    </g>
    <g id="ytick_3">
     <g id="line2d_9">
      <path d="M 230.4 282.070588 
L 1658.88 282.070588 
" clip-path="url(#p7181476379)" style="fill: none; stroke: #b0b0b0; stroke-width: 0.8; stroke-linecap: square"/>
     </g>
     <g id="line2d_10">
      <g>
       <use xlink:href="#m2ffc0fb04d" x="230.4" y="282.070588" style="stroke: #000000; stroke-width: 0.8"/>
      </g>
     </g>
     <g id="text_6">
      <!-- 2 -->
      <g transform="translate(201.45 297.267463) scale(0.4 -0.4)">
       <defs>
        <path id="DejaVuSans-32" d="M 1228 531 
L 3431 531 
L 3431 0 
L 469 0 
L 469 531 
Q 828 903 1448 1529 
Q 2069 2156 2228 2338 
Q 2531 2678 2651 2914 
Q 2772 3150 2772 3378 
Q 2772 3750 2511 3984 
Q 2250 4219 1831 4219 
Q 1534 4219 1204 4116 
Q 875 4013 500 3803 
L 500 4441 
Q 881 4594 1212 4672 
Q 1544 4750 1819 4750 
Q 2544 4750 2975 4387 
Q 3406 4025 3406 3419 
Q 3406 3131 3298 2873 
Q 3191 2616 2906 2266 
Q 2828 2175 2409 1742 
Q 1991 1309 1228 531 
z
" transform="scale(0.015625)"/>
       </defs>
       <use xlink:href="#DejaVuSans-32"/>
      </g>
     </g>
    </g>
    <g id="ytick_4">
     <g id="line2d_11">
      <path d="M 230.4 151.623529 
L 1658.88 151.623529 
" clip-path="url(#p7181476379)" style="fill: none; stroke: #b0b0b0; stroke-width: 0.8; stroke-linecap: square"/>
     </g>
     <g id="line2d_12">
      <g>
       <use xlink:href="#m2ffc0fb04d" x="230.4" y="151.623529" style="stroke: #000000; stroke-width: 0.8"/>
      </g>
     </g>
     <g id="text_7">
      <!-- 3 -->
      <g transform="translate(201.45 166.820404) scale(0.4 -0.4)">
       <defs>
        <path id="DejaVuSans-33" d="M 2597 2516 
Q 3050 2419 3304 2112 
Q 3559 1806 3559 1356 
Q 3559 666 3084 287 
Q 2609 -91 1734 -91 
Q 1441 -91 1130 -33 
Q 819 25 488 141 
L 488 750 
Q 750 597 1062 519 
Q 1375 441 1716 441 
Q 2309 441 2620 675 
Q 2931 909 2931 1356 
Q 2931 1769 2642 2001 
Q 2353 2234 1838 2234 
L 1294 2234 
L 1294 2753 
L 1863 2753 
Q 2328 2753 2575 2939 
Q 2822 3125 2822 3475 
Q 2822 3834 2567 4026 
Q 2313 4219 1838 4219 
Q 1578 4219 1281 4162 
Q 984 4106 628 3988 
L 628 4550 
Q 988 4650 1302 4700 
Q 1616 4750 1894 4750 
Q 2613 4750 3031 4423 
Q 3450 4097 3450 3541 
Q 3450 3153 3228 2886 
Q 3006 2619 2597 2516 
z
" transform="scale(0.015625)"/>
       </defs>
       <use xlink:href="#DejaVuSans-33"/>
      </g>
     </g>
    </g>
    <g id="text_8">
     <!-- Error(m) -->
     <g transform="translate(188.89375 434.66875) rotate(-90) scale(0.4 -0.4)">
      <defs>
       <path id="TimesNewRomanPSMT-45" d="M 1338 4006 
L 1338 2331 
L 2269 2331 
Q 2631 2331 2753 2441 
Q 2916 2584 2934 2947 
L 3050 2947 
L 3050 1472 
L 2934 1472 
Q 2891 1781 2847 1869 
Q 2791 1978 2662 2040 
Q 2534 2103 2269 2103 
L 1338 2103 
L 1338 706 
Q 1338 425 1363 364 
Q 1388 303 1450 267 
Q 1513 231 1688 231 
L 2406 231 
Q 2766 231 2928 281 
Q 3091 331 3241 478 
Q 3434 672 3638 1063 
L 3763 1063 
L 3397 0 
L 131 0 
L 131 116 
L 281 116 
Q 431 116 566 188 
Q 666 238 702 338 
Q 738 438 738 747 
L 738 3500 
Q 738 3903 656 3997 
Q 544 4122 281 4122 
L 131 4122 
L 131 4238 
L 3397 4238 
L 3444 3309 
L 3322 3309 
Q 3256 3644 3176 3769 
Q 3097 3894 2941 3959 
Q 2816 4006 2500 4006 
L 1338 4006 
z
" transform="scale(0.015625)"/>
       <path id="TimesNewRomanPSMT-72" d="M 1038 2947 
L 1038 2303 
Q 1397 2947 1775 2947 
Q 1947 2947 2059 2842 
Q 2172 2738 2172 2600 
Q 2172 2478 2090 2393 
Q 2009 2309 1897 2309 
Q 1788 2309 1652 2417 
Q 1516 2525 1450 2525 
Q 1394 2525 1328 2463 
Q 1188 2334 1038 2041 
L 1038 669 
Q 1038 431 1097 309 
Q 1138 225 1241 169 
Q 1344 113 1538 113 
L 1538 0 
L 72 0 
L 72 113 
Q 291 113 397 181 
Q 475 231 506 341 
Q 522 394 522 644 
L 522 1753 
Q 522 2253 501 2348 
Q 481 2444 426 2487 
Q 372 2531 291 2531 
Q 194 2531 72 2484 
L 41 2597 
L 906 2947 
L 1038 2947 
z
" transform="scale(0.015625)"/>
       <path id="TimesNewRomanPSMT-6f" d="M 1600 2947 
Q 2250 2947 2644 2453 
Q 2978 2031 2978 1484 
Q 2978 1100 2793 706 
Q 2609 313 2286 112 
Q 1963 -88 1566 -88 
Q 919 -88 538 428 
Q 216 863 216 1403 
Q 216 1797 411 2186 
Q 606 2575 925 2761 
Q 1244 2947 1600 2947 
z
M 1503 2744 
Q 1338 2744 1170 2645 
Q 1003 2547 900 2300 
Q 797 2053 797 1666 
Q 797 1041 1045 587 
Q 1294 134 1700 134 
Q 2003 134 2200 384 
Q 2397 634 2397 1244 
Q 2397 2006 2069 2444 
Q 1847 2744 1503 2744 
z
" transform="scale(0.015625)"/>
      </defs>
      <use xlink:href="#TimesNewRomanPSMT-45"/>
      <use xlink:href="#TimesNewRomanPSMT-72" x="61.083984"/>
      <use xlink:href="#TimesNewRomanPSMT-72" x="94.384766"/>
      <use xlink:href="#TimesNewRomanPSMT-6f" x="127.685547"/>
      <use xlink:href="#TimesNewRomanPSMT-72" x="177.685547"/>
      <use xlink:href="#TimesNewRomanPSMT-28" x="210.986328"/>
      <use xlink:href="#TimesNewRomanPSMT-6d" x="244.287109"/>
      <use xlink:href="#TimesNewRomanPSMT-29" x="322.070312"/>
     </g>
    </g>
   </g>
   <g id="line2d_13">
    <path d="M 295.330909 542.964706 
L 310.608348 541.089564 
L 317.552829 541.670593 
L 323.108526 539.868072 
L 328.663594 540.792798 
L 332.830746 542.632796 
L 336.998037 542.935906 
L 339.774675 541.938124 
L 342.552981 542.235698 
L 345.330717 540.400988 
L 348.108572 540.146706 
L 350.886309 542.0267 
L 353.664117 539.641502 
L 356.441992 540.953466 
L 359.219914 541.274055 
L 361.99752 540.231301 
L 364.775364 540.39427 
L 367.553196 541.181748 
L 370.33091 541.267089 
L 373.108542 541.057095 
L 375.886515 538.406543 
L 378.664269 539.171628 
L 381.442119 539.637396 
L 384.219131 539.257964 
L 386.997723 542.077456 
L 389.775691 542.321288 
L 392.55325 542.862695 
L 395.331115 541.76993 
L 398.108847 542.687036 
L 400.886675 541.676378 
L 403.664434 542.791536 
L 406.442216 540.251206 
L 409.220111 540.013843 
L 411.997841 541.637066 
L 414.775656 542.284962 
L 417.553452 541.672895 
L 420.331265 542.222263 
L 423.109044 542.492966 
L 425.887609 541.45892 
L 428.664074 541.41513 
L 431.442839 542.468583 
L 436.997993 539.714776 
L 439.775426 539.474925 
L 442.553565 540.065595 
L 445.331511 539.589874 
L 448.109194 538.518009 
L 450.886941 538.969844 
L 453.664857 539.07932 
L 456.442512 538.71606 
L 459.220361 540.974242 
L 461.99775 541.566405 
L 464.776015 541.189212 
L 467.553724 542.758693 
L 470.331388 542.518842 
L 473.108937 542.534766 
L 475.887354 541.810237 
L 478.664852 542.886083 
L 481.442804 542.654193 
L 484.220146 542.765659 
L 486.998531 542.140654 
L 489.777235 539.63864 
L 492.55396 541.376315 
L 495.331686 540.486578 
L 498.109484 535.968224 
L 500.887544 537.08786 
L 503.66506 536.42006 
L 506.442913 536.988337 
L 509.220625 534.42661 
L 511.998563 534.777927 
L 514.776191 533.839423 
L 517.553786 534.27633 
L 520.331866 533.631419 
L 523.109643 534.048422 
L 525.887529 534.039465 
L 528.665316 533.392564 
L 531.443084 535.133225 
L 534.220883 533.756819 
L 536.998782 533.873261 
L 539.776429 534.562957 
L 542.554992 532.595383 
L 545.332055 532.718792 
L 548.109814 532.028101 
L 550.887814 531.606122 
L 553.665469 532.233118 
L 556.443891 531.060735 
L 559.221986 530.390944 
L 561.998843 529.238465 
L 564.776622 529.702243 
L 567.554394 528.034234 
L 570.332163 530.944293 
L 573.109388 529.324055 
L 575.88775 530.860693 
L 578.666517 530.343173 
L 581.443404 527.918787 
L 584.221381 530.048584 
L 586.998883 530.345163 
L 589.776084 530.858703 
L 592.554602 530.661647 
L 595.332144 528.113853 
L 598.110726 528.151672 
L 600.887992 526.250778 
L 603.666766 525.321232 
L 606.443578 525.685487 
L 609.221297 525.052519 
L 611.999707 526.497596 
L 614.776816 527.733674 
L 617.555482 525.165975 
L 620.332423 526.274664 
L 623.110258 524.698216 
L 625.888083 525.209766 
L 628.665802 523.062055 
L 631.443683 524.620588 
L 634.221475 523.661185 
L 636.999155 519.616561 
L 639.777079 520.778992 
L 642.554747 518.653177 
L 645.332598 517.831115 
L 650.888587 515.199721 
L 653.666865 515.104179 
L 655.055547 511.431773 
L 656.44384 512.496671 
L 657.832693 510.323084 
L 659.221622 511.527315 
L 660.610404 510.0902 
L 661.999384 511.829866 
L 663.388346 509.389557 
L 664.77826 509.180558 
L 666.166107 506.83181 
L 667.555337 505.498199 
L 668.943877 505.366828 
L 670.333302 506.821858 
L 671.721641 503.151442 
L 673.110129 501.963135 
L 674.499443 498.716688 
L 675.888339 497.56819 
L 677.27744 500.599667 
L 678.666522 499.116771 
L 680.055714 495.691182 
L 681.444066 495.086081 
L 682.833413 491.212638 
L 684.221761 492.010814 
L 685.610673 491.676416 
L 686.999538 493.06377 
L 688.388427 491.56495 
L 689.777339 491.369885 
L 691.167199 490.780707 
L 692.555072 491.662483 
L 693.94469 489.234116 
L 695.332837 489.89097 
L 696.72236 488.193104 
L 698.110986 486.240458 
L 699.49956 484.620221 
L 700.888567 485.693081 
L 702.278391 483.969339 
L 703.666363 479.238006 
L 705.055236 481.538982 
L 706.444164 477.076361 
L 707.833002 478.65878 
L 709.221825 475.149592 
L 710.610706 475.812417 
L 713.388661 473.266613 
L 714.77744 474.034932 
L 716.166582 471.660308 
L 717.554769 468.575089 
L 718.944214 471.421453 
L 720.333082 472.233562 
L 721.722592 470.770571 
L 723.11086 471.815565 
L 724.500725 470.161489 
L 725.888846 470.131632 
L 727.277603 471.106959 
L 728.666593 472.65156 
L 730.055575 471.524957 
L 731.445325 469.69373 
L 732.833758 468.594994 
L 734.222044 466.919023 
L 735.611606 468.171025 
L 736.998984 467.944112 
L 738.38959 468.589022 
L 739.777486 466.240275 
L 741.166534 468.141168 
L 742.555347 465.452051 
L 743.944324 466.684148 
L 745.333197 465.069882 
L 746.722172 464.225925 
L 748.111001 462.583792 
L 749.499926 462.408631 
L 750.888536 466.280084 
L 752.277725 462.754972 
L 753.666616 459.536391 
L 755.055507 462.896295 
L 756.444388 461.662207 
L 757.833323 461.443256 
L 759.223313 461.055115 
L 760.611127 462.649477 
L 761.999324 460.881945 
L 763.388823 462.116033 
L 764.778431 460.067845 
L 766.16675 462.713172 
L 767.555588 463.288416 
L 768.944569 462.352898 
L 770.333965 460.611242 
L 771.722321 460.911802 
L 773.110954 463.093351 
L 774.500091 460.766498 
L 775.888098 462.804733 
L 777.278916 462.058309 
L 778.66669 462.356879 
L 780.055627 463.30633 
L 781.444551 462.892314 
L 782.833386 461.566665 
L 784.221471 461.286009 
L 785.611221 461.437285 
L 787.000204 463.192874 
L 788.389076 461.528846 
L 789.77792 460.722708 
L 791.166818 460.531623 
L 795.333511 463.923374 
L 796.722398 461.506951 
L 798.111369 462.123995 
L 799.500276 461.668178 
L 800.889213 464.108487 
L 802.278037 464.128392 
L 803.666941 463.686509 
L 805.055774 466.021324 
L 806.44443 466.063123 
L 807.833558 467.37683 
L 809.222533 464.584208 
L 810.611318 462.245413 
L 812.000302 461.914996 
L 813.38912 462.327022 
L 814.778021 464.002993 
L 816.166905 459.241803 
L 817.555611 460.736641 
L 818.94475 459.568239 
L 820.333658 457.567822 
L 821.723158 458.849681 
L 823.111395 459.174127 
L 824.500354 459.709562 
L 825.889195 458.664568 
L 828.66697 460.999382 
L 830.055888 463.86167 
L 831.444751 463.439692 
L 834.222206 461.493018 
L 837.000434 463.588976 
L 838.389077 461.914996 
L 839.777583 462.116033 
L 841.167098 460.039979 
L 842.557427 458.692435 
L 843.944932 456.769646 
L 845.333877 456.729837 
L 848.111586 460.967535 
L 849.500497 461.049144 
L 850.88915 461.3089 
L 852.278281 459.521463 
L 853.66722 458.867595 
L 855.056104 458.39287 
L 856.445003 458.686463 
L 857.833916 459.702595 
L 859.222721 457.661374 
L 860.611708 460.817255 
L 862.000424 461.735854 
L 863.389513 462.893309 
L 864.778371 460.136516 
L 866.167265 459.974293 
L 867.556087 457.224467 
L 868.945102 460.944645 
L 870.333761 456.959735 
L 871.722925 456.686047 
L 874.501067 458.851672 
L 875.889586 454.039725 
L 877.279123 451.338665 
L 880.056191 451.678039 
L 882.834056 452.416501 
L 885.612296 451.438188 
L 888.389637 452.100017 
L 891.167367 452.281149 
L 893.945118 454.680654 
L 898.11188 452.468253 
L 903.667558 459.049723 
L 912.000939 453.012645 
L 920.334223 454.152186 
L 928.667411 452.007461 
L 935.612077 454.742358 
L 941.167678 455.321583 
L 946.723306 454.100434 
L 952.278906 449.824917 
L 957.834854 444.610896 
L 962.001057 458.685468 
L 966.167816 445.557362 
L 970.334545 439.752173 
L 974.501205 437.119784 
L 978.667921 440.713567 
L 982.834612 442.267124 
L 987.001325 438.010517 
L 989.779085 438.932102 
L 992.556794 437.708961 
L 995.334352 437.589534 
L 998.112481 440.167185 
L 1000.89024 439.672554 
L 1003.668649 435.422913 
L 1006.445068 434.607818 
L 1009.223701 435.252729 
L 1012.001625 435.375142 
L 1014.778419 435.664755 
L 1016.168189 434.145035 
L 1018.945903 432.008272 
L 1020.334892 430.53931 
L 1023.112532 428.814572 
L 1024.501476 435.796125 
L 1025.890335 430.515424 
L 1027.279213 434.126126 
L 1028.667564 429.64161 
L 1030.057084 427.766593 
L 1032.834911 429.824733 
L 1035.612711 429.786914 
L 1038.390445 424.247452 
L 1041.168308 424.798811 
L 1043.946133 422.870051 
L 1046.723883 426.42303 
L 1049.501636 422.881994 
L 1052.280059 428.873291 
L 1055.057418 424.918239 
L 1057.835053 422.758585 
L 1060.612826 420.740254 
L 1063.39021 421.600135 
L 1066.169045 419.587776 
L 1068.946513 418.83339 
L 1071.723964 419.938097 
L 1074.501518 414.581758 
L 1077.279631 414.054285 
L 1080.05736 414.625549 
L 1082.835128 413.910972 
L 1085.612988 412.535561 
L 1088.390805 413.676097 
L 1091.168544 410.320175 
L 1093.945739 409.48617 
L 1096.724068 408.186397 
L 1099.502534 410.063405 
L 1102.279713 409.597636 
L 1105.058209 406.596016 
L 1110.61312 405.877459 
L 1113.390948 404.310963 
L 1116.169771 404.024337 
L 1118.946542 403.015171 
L 1121.724299 404.173621 
L 1124.50205 402.603145 
L 1127.27907 402.627031 
L 1130.058192 400.029475 
L 1132.835406 403.256017 
L 1135.61325 399.858295 
L 1138.391051 397.877783 
L 1141.169465 399.121823 
L 1143.946639 397.632956 
L 1146.724398 398.325638 
L 1149.502119 397.515519 
L 1152.279985 394.659203 
L 1155.057967 396.482468 
L 1157.836213 395.061276 
L 1160.613561 394.012302 
L 1163.391225 393.851074 
L 1166.168974 390.895235 
L 1168.946755 392.89167 
L 1171.72457 392.865794 
L 1174.502945 392.688643 
L 1177.280165 394.338738 
L 1180.057874 392.226855 
L 1182.835746 394.760716 
L 1185.613442 391.124138 
L 1188.391234 389.712899 
L 1191.169088 390.234401 
L 1193.946621 390.18862 
L 1196.725556 388.377298 
L 1199.502508 387.425856 
L 1202.280214 387.674664 
L 1205.058132 386.683413 
L 1207.83582 385.520982 
L 1213.39146 385.586667 
L 1216.169228 385.419468 
L 1218.946958 387.167096 
L 1221.724797 384.834272 
L 1224.502548 386.520195 
L 1227.280325 386.311196 
L 1230.058279 385.76979 
L 1232.837094 384.406322 
L 1235.613755 386.237549 
L 1238.391577 388.407155 
L 1241.1694 386.277358 
L 1243.947141 383.62606 
L 1246.725471 384.619301 
L 1249.502774 384.8701 
L 1252.280282 382.33823 
L 1255.058335 377.915418 
L 1257.836173 375.707993 
L 1260.613914 387.037715 
L 1263.392785 393.530609 
L 1266.169373 390.87334 
L 1268.948624 389.539729 
L 1271.725078 391.713316 
L 1274.502858 384.193342 
L 1277.280888 388.55644 
L 1280.059262 386.894402 
L 1282.836174 387.282543 
L 1285.614634 389.354616 
L 1288.391862 386.846631 
L 1291.170251 385.946941 
L 1293.947472 384.065952 
L 1296.725271 394.028226 
L 1299.503811 388.520611 
L 1302.280853 387.991148 
L 1305.058539 386.378872 
L 1307.836391 390.087107 
L 1310.61422 390.644436 
L 1313.392609 392.047714 
L 1316.169821 380.775715 
L 1318.947614 382.606942 
L 1321.725357 382.658694 
L 1324.503082 384.157514 
L 1327.282656 382.135202 
L 1330.058732 381.661472 
L 1332.836521 382.618885 
L 1335.61425 380.899124 
L 1338.392121 383.231948 
L 1339.781055 381.675405 
L 1341.169883 380.845381 
L 1343.947646 381.346978 
L 1346.7255 380.885191 
L 1349.503395 378.596157 
L 1350.891307 378.811127 
L 1353.669945 377.991056 
L 1356.447749 380.62643 
L 1359.225539 382.21283 
L 1362.003324 376.846539 
L 1364.781177 378.65388 
L 1367.559514 382.021746 
L 1370.33751 378.424977 
L 1373.115632 377.350126 
L 1375.892259 377.15108 
L 1378.670064 380.638373 
L 1381.447947 380.395537 
L 1384.225618 379.714798 
L 1387.003476 381.924213 
L 1389.781288 382.493486 
L 1392.55909 381.633605 
L 1395.336447 381.333045 
L 1398.114711 378.046789 
L 1400.892492 383.056787 
L 1403.670246 378.920603 
L 1406.447841 382.005822 
L 1409.225743 374.720723 
L 1412.003572 381.518158 
L 1414.781454 378.387158 
L 1417.558802 381.008599 
L 1420.336128 371.539962 
L 1423.11479 402.147329 
L 1425.892645 376.139924 
L 1428.670328 377.762152 
L 1431.448229 374.625181 
L 1434.226022 371.798722 
L 1437.003677 373.006934 
L 1439.781469 369.664944 
L 1442.559398 369.748544 
L 1445.337805 372.674526 
L 1448.114922 371.611618 
L 1450.892457 370.922918 
L 1453.669682 369.615183 
L 1456.448245 368.824968 
L 1459.226057 371.346886 
L 1462.003869 369.509688 
L 1464.78175 370.453168 
L 1467.559393 368.40498 
L 1470.337258 371.323001 
L 1473.114719 373.898662 
L 1475.892894 371.653418 
L 1478.670716 377.208803 
L 1481.448485 370.875146 
L 1484.225901 373.797148 
L 1487.004022 372.232643 
L 1489.781807 373.24778 
L 1492.559652 373.160199 
L 1495.338363 373.440855 
L 1498.115831 373.331379 
L 1500.89331 376.573845 
L 1503.672155 375.674156 
L 1506.450429 379.617265 
L 1512.004215 377.907456 
L 1514.782913 379.702855 
L 1517.55988 377.573058 
L 1521.726475 377.40984 
L 1525.893036 379.026097 
L 1530.059848 381.983927 
L 1534.226446 382.029708 
L 1537.004468 381.709243 
L 1539.782623 383.594212 
L 1542.559957 385.224403 
L 1545.337662 387.630874 
L 1548.115397 385.528944 
L 1552.28274 383.974391 
L 1556.448884 382.244678 
L 1560.614765 381.217598 
L 1563.393344 381.418635 
L 1566.171144 382.933378 
L 1568.948944 383.429004 
L 1571.725968 386.110159 
L 1574.50448 387.284533 
L 1577.282292 385.90116 
L 1580.06016 387.78812 
L 1582.837937 388.456916 
L 1585.615659 388.446964 
L 1588.393451 388.640039 
L 1591.170519 391.112196 
L 1593.949091 391.458536 
L 1593.949091 391.458536 
" clip-path="url(#p7181476379)" style="fill: none; stroke: #00ff00; stroke-width: 3; stroke-linecap: square"/>
   </g>
   <g id="line2d_14">
    <path d="M 295.330909 542.964706 
L 310.608348 541.752234 
L 317.552829 542.216838 
L 323.108526 542.244395 
L 328.663594 542.879338 
L 332.830746 542.390364 
L 336.998037 541.346297 
L 339.774675 540.48846 
L 342.552981 540.474095 
L 348.108572 539.776352 
L 350.886309 541.698483 
L 353.664117 542.05864 
L 356.441992 541.950211 
L 359.219914 541.562902 
L 361.99752 542.838758 
L 364.775364 542.884178 
L 367.553196 540.416056 
L 370.33091 540.538318 
L 373.108542 540.864317 
L 375.886515 540.914839 
L 378.664269 541.154025 
L 381.442119 541.179318 
L 384.219131 540.898064 
L 386.997723 541.741054 
L 389.775691 540.92911 
L 392.55325 540.557356 
L 395.331115 541.18408 
L 398.108847 541.171251 
L 400.886675 541.895733 
L 403.664434 540.971272 
L 406.442216 542.44053 
L 409.220111 542.571683 
L 411.997841 542.052109 
L 414.775656 540.758712 
L 417.553452 539.622374 
L 420.331265 539.107746 
L 423.109044 538.224758 
L 425.887609 537.844361 
L 428.664074 537.292692 
L 431.442839 537.553691 
L 434.220211 539.076583 
L 436.997993 539.445192 
L 439.775426 541.592499 
L 442.553565 539.376334 
L 445.331511 539.394653 
L 448.109194 538.061944 
L 450.886941 537.568215 
L 453.664857 539.455175 
L 456.442512 539.936331 
L 461.99775 542.908141 
L 464.776015 541.82812 
L 467.553724 542.876084 
L 470.331388 539.33046 
L 473.108937 540.405218 
L 475.887354 539.71322 
L 478.664852 537.477245 
L 481.442804 537.693397 
L 484.220146 534.705275 
L 486.998531 535.145292 
L 489.777235 532.796544 
L 492.55396 531.002763 
L 495.331686 528.841119 
L 498.109484 530.499175 
L 500.887544 526.34744 
L 503.66506 524.75905 
L 506.442913 526.27454 
L 509.220625 525.475617 
L 511.998563 525.23502 
L 514.776191 523.396204 
L 520.331866 520.762571 
L 523.109643 519.61171 
L 525.887529 520.634311 
L 528.665316 519.521392 
L 531.443084 518.721599 
L 534.220883 516.133498 
L 536.998782 514.635922 
L 539.776429 513.605608 
L 542.554992 511.235961 
L 545.332055 511.948547 
L 548.109814 511.871168 
L 550.887814 507.503841 
L 553.665469 507.621776 
L 556.443891 507.542655 
L 559.221986 504.600749 
L 561.998843 503.958326 
L 564.776622 502.945429 
L 567.554394 503.093718 
L 570.332163 501.088077 
L 573.109388 500.283681 
L 575.88775 499.759442 
L 578.666517 498.015547 
L 581.443404 497.211897 
L 584.221381 495.364248 
L 589.776084 492.418113 
L 592.554602 490.058666 
L 595.332144 489.015912 
L 598.110726 487.344917 
L 600.887992 487.137909 
L 603.666766 483.991483 
L 606.443578 483.859863 
L 609.221297 483.597371 
L 611.999707 481.260317 
L 614.776816 481.160794 
L 617.555482 479.619179 
L 620.332423 479.868983 
L 623.110258 476.536448 
L 625.888083 478.873253 
L 628.665802 476.786251 
L 631.443683 476.715092 
L 634.221475 475.42776 
L 636.999155 477.157473 
L 639.777079 474.465868 
L 645.332598 476.608105 
L 648.11039 477.543125 
L 650.888587 477.296805 
L 653.666865 483.232369 
L 655.055547 485.092458 
L 656.44384 482.163988 
L 657.832693 483.228389 
L 661.999384 481.778833 
L 663.388346 480.12426 
L 666.166107 481.165272 
L 667.555337 482.966642 
L 668.943877 481.064256 
L 670.333302 484.139523 
L 671.721641 488.380705 
L 673.110129 487.230714 
L 674.499443 486.639546 
L 675.888339 487.506394 
L 677.27744 485.163617 
L 678.666522 484.985471 
L 680.055714 484.554535 
L 681.444066 483.193058 
L 682.833413 485.021299 
L 684.221761 483.398076 
L 685.610673 483.58916 
L 686.999538 484.769505 
L 688.388427 483.019887 
L 689.777339 486.155864 
L 691.167199 487.969177 
L 692.555072 483.80413 
L 693.94469 489.022132 
L 695.332837 483.327414 
L 696.72236 492.217822 
L 698.110986 484.171371 
L 699.49956 488.286656 
L 700.888567 490.025326 
L 702.278391 488.397126 
L 703.666363 489.26895 
L 705.055236 488.333431 
L 706.444164 487.995053 
L 707.833002 488.381203 
L 709.221825 490.693127 
L 710.610706 491.58585 
L 713.388661 490.554789 
L 714.77744 491.367894 
L 716.166582 494.261034 
L 717.554769 492.734348 
L 718.944214 492.116309 
L 720.333082 494.052035 
L 721.722592 494.062983 
L 724.500725 492.450707 
L 725.888846 493.517595 
L 727.277603 493.789294 
L 728.666593 495.337875 
L 730.055575 496.489358 
L 731.445325 495.995723 
L 732.833758 495.348822 
L 734.222044 495.817577 
L 735.611606 496.611772 
L 736.998984 499.71192 
L 738.38959 500.277212 
L 739.777486 497.055645 
L 741.166534 498.016044 
L 742.555347 494.76064 
L 743.944324 495.12589 
L 745.333197 500.468296 
L 746.722172 496.363959 
L 748.111001 496.425663 
L 749.499926 498.92071 
L 750.888536 499.639268 
L 752.277725 498.571384 
L 753.666616 500.773832 
L 755.055507 501.338129 
L 756.444388 500.703171 
L 757.833323 499.777605 
L 759.223313 501.991001 
L 760.611127 502.590131 
L 761.999324 500.531991 
L 763.388823 502.297533 
L 764.778431 501.234625 
L 766.16675 504.112836 
L 767.555588 506.320261 
L 768.944569 503.730667 
L 770.333965 508.917817 
L 771.722321 507.152275 
L 773.110954 507.757376 
L 774.500091 505.526066 
L 775.888098 509.031273 
L 777.278916 510.743072 
L 778.66669 513.466027 
L 780.055627 517.311604 
L 781.444551 517.50866 
L 782.833386 515.544072 
L 784.221471 516.246706 
L 785.611221 513.69294 
L 787.000204 516.766217 
L 788.389076 518.476025 
L 789.77792 518.436216 
L 791.166818 519.363772 
L 792.555682 521.519445 
L 793.944603 524.913186 
L 795.333511 525.201804 
L 796.722398 523.68308 
L 798.111369 524.740016 
L 799.500276 524.859444 
L 800.889213 528.910038 
L 802.278037 530.904484 
L 803.666941 531.109501 
L 805.055774 532.835234 
L 806.44443 532.640168 
L 807.833558 534.712241 
L 809.222533 533.886199 
L 810.611318 535.201896 
L 812.000302 533.474173 
L 813.38912 532.383398 
L 814.778021 533.33484 
L 816.166905 532.273923 
L 817.555611 531.503613 
L 818.94475 533.780704 
L 820.333658 533.63341 
L 821.723158 534.01956 
L 823.111395 534.053398 
L 824.500354 533.920037 
L 825.889195 534.31813 
L 827.278218 533.541849 
L 828.66697 536.971418 
L 830.055888 535.442742 
L 831.444751 536.585268 
L 832.833681 538.941978 
L 834.222206 538.129868 
L 835.611445 538.127878 
L 837.000434 541.278783 
L 839.777583 539.706316 
L 841.167098 540.255684 
L 842.557427 540.028771 
L 843.944932 541.543514 
L 845.333877 540.385064 
L 846.72271 540.926471 
L 848.111586 538.878283 
L 849.500497 542.578556 
L 850.88915 542.64026 
L 852.278281 542.148616 
L 853.66722 542.500928 
L 855.056104 542.196387 
L 856.445003 542.72585 
L 857.833916 541.012061 
L 859.222721 541.985398 
L 860.611708 539.915315 
L 863.389513 540.379093 
L 864.778371 539.988962 
L 866.167265 542.441214 
L 867.556087 539.981 
L 868.945102 542.196387 
L 870.333761 539.903372 
L 871.722925 539.075339 
L 874.501067 537.584481 
L 875.889586 536.187175 
L 877.279123 531.224948 
L 880.056191 532.007201 
L 882.834056 531.029883 
L 885.612296 530.71738 
L 888.389637 532.616283 
L 891.167367 531.549394 
L 893.945118 532.222171 
L 898.11188 531.264758 
L 903.667558 535.781121 
L 912.000939 535.639798 
L 920.334223 530.725342 
L 928.667411 538.703122 
L 935.612077 540.53634 
L 941.167678 541.603228 
L 952.278906 535.516389 
L 957.834854 542.932858 
L 962.001057 539.513241 
L 966.167816 541.467877 
L 974.501205 541.730618 
L 978.667921 542.303872 
L 982.834612 538.510047 
L 987.001325 542.323776 
L 989.779085 541.408163 
L 992.556794 540.755291 
L 995.334352 540.520416 
L 998.112481 534.166854 
L 1000.89024 540.950356 
L 1003.668649 542.801488 
L 1006.445068 537.037104 
L 1009.223701 534.441538 
L 1012.001625 535.281514 
L 1014.778419 534.477367 
L 1016.168189 534.819727 
L 1018.945903 536.965447 
L 1020.334892 535.970215 
L 1023.112532 535.500465 
L 1024.501476 531.53148 
L 1025.890335 532.502826 
L 1027.279213 527.980492 
L 1028.667564 527.279848 
L 1030.057084 530.321278 
L 1032.834911 530.412839 
L 1035.612711 531.475747 
L 1038.390445 532.116676 
L 1041.168308 527.829216 
L 1043.946133 533.080061 
L 1046.723883 528.338775 
L 1049.501636 525.970123 
L 1052.280059 524.274247 
L 1055.057418 529.465378 
L 1057.835053 528.880182 
L 1060.612826 527.427143 
L 1063.39021 524.915177 
L 1066.169045 527.697846 
L 1068.946513 526.272673 
L 1071.723964 526.865832 
L 1074.501518 526.830003 
L 1077.279631 525.392888 
L 1080.05736 522.466906 
L 1082.835128 523.868193 
L 1085.612988 519.493153 
L 1088.390805 519.620542 
L 1091.168544 520.42469 
L 1093.945739 519.22643 
L 1096.724068 520.926287 
L 1099.502534 518.481997 
L 1102.279713 517.677849 
L 1105.058209 517.303642 
L 1107.835229 513.947719 
L 1110.61312 515.655538 
L 1113.390948 513.995491 
L 1116.169771 512.502642 
L 1118.946542 514.357755 
L 1121.724299 511.324288 
L 1124.50205 512.076683 
L 1127.27907 512.060759 
L 1130.058192 511.129222 
L 1132.835406 509.934944 
L 1135.61325 510.074276 
L 1138.391051 509.783668 
L 1141.169465 508.832227 
L 1143.946639 507.582215 
L 1146.724398 507.586196 
L 1149.502119 507.036828 
L 1152.279985 506.778068 
L 1155.057967 505.253372 
L 1157.836213 503.322622 
L 1160.613561 502.789177 
L 1163.391225 504.632347 
L 1166.168974 502.832968 
L 1168.946755 504.441263 
L 1171.72457 505.392705 
L 1174.502945 502.836949 
L 1177.280165 504.668176 
L 1180.057874 503.760524 
L 1182.835746 499.206342 
L 1185.613442 501.324196 
L 1188.391234 500.890275 
L 1191.169088 501.284386 
L 1193.946621 499.978642 
L 1196.725556 500.524029 
L 1199.502508 499.787557 
L 1202.280214 500.249345 
L 1205.058132 500.882313 
L 1207.83582 496.475425 
L 1210.613635 498.195186 
L 1213.39146 496.849632 
L 1216.169228 496.563006 
L 1218.946958 494.417285 
L 1221.724797 496.901384 
L 1224.502548 493.457881 
L 1227.280325 495.790705 
L 1230.058279 497.936426 
L 1232.837094 496.766033 
L 1235.613755 494.763626 
L 1238.391577 495.882267 
L 1241.1694 503.382336 
L 1243.947141 499.847271 
L 1246.725471 498.215091 
L 1249.502774 505.623598 
L 1252.280282 518.45413 
L 1255.058335 516.519399 
L 1257.836173 517.76543 
L 1260.613914 495.949943 
L 1263.392785 487.66165 
L 1266.169373 485.125798 
L 1268.948624 493.000075 
L 1271.725078 485.965774 
L 1274.502858 493.147369 
L 1277.280888 491.9929 
L 1280.059262 491.276333 
L 1282.836174 488.828062 
L 1285.614634 488.226942 
L 1288.391862 489.699885 
L 1291.170251 492.6816 
L 1293.947472 491.893377 
L 1296.725271 489.779504 
L 1299.503811 488.473759 
L 1302.280853 489.317716 
L 1305.058539 489.819313 
L 1310.61422 488.374236 
L 1313.392609 480.336742 
L 1316.169821 487.693497 
L 1318.947614 488.191113 
L 1321.725357 489.03507 
L 1324.503082 489.074879 
L 1327.282656 491.515188 
L 1330.058732 489.819313 
L 1332.836521 490.034283 
L 1335.61425 492.064557 
L 1338.392121 487.31929 
L 1339.781055 486.71817 
L 1343.947646 488.517549 
L 1346.7255 488.366274 
L 1349.503395 489.265964 
L 1350.891307 491.475379 
L 1353.669945 490.058169 
L 1356.447749 484.457003 
L 1362.003324 486.073259 
L 1367.559514 491.443532 
L 1370.33751 491.451494 
L 1373.115632 493.633042 
L 1375.892259 490.217406 
L 1378.670064 494.887035 
L 1381.447947 492.259622 
L 1384.225618 494.711874 
L 1387.003476 497.944388 
L 1389.781288 495.535926 
L 1392.55909 494.389419 
L 1395.336447 493.891803 
L 1398.114711 495.416498 
L 1400.892492 496.336093 
L 1403.670246 494.52477 
L 1406.447841 495.197547 
L 1409.225743 495.153757 
L 1412.003572 495.922076 
L 1414.781454 497.024793 
L 1417.558802 494.616332 
L 1420.336128 487.629802 
L 1423.11479 515.520186 
L 1425.892645 489.337621 
L 1428.670328 495.842457 
L 1431.448229 495.563793 
L 1434.226022 496.766033 
L 1437.003677 492.132232 
L 1439.781469 491.972995 
L 1442.559398 492.048633 
L 1445.337805 495.058215 
L 1448.114922 492.530325 
L 1453.669682 492.828895 
L 1456.448245 491.805796 
L 1459.226057 492.598001 
L 1462.003869 494.027154 
L 1464.78175 492.363126 
L 1467.559393 491.933186 
L 1470.337258 492.912494 
L 1473.114719 492.191946 
L 1475.892894 492.753257 
L 1478.670716 492.590039 
L 1481.448485 491.726178 
L 1484.225901 491.236523 
L 1487.004022 491.937167 
L 1489.781807 491.925224 
L 1492.559652 491.248466 
L 1495.338363 492.645772 
L 1498.115831 489.472972 
L 1500.89331 493.44992 
L 1503.672155 493.919669 
L 1506.450429 496.037523 
L 1509.227259 495.89421 
L 1512.004215 491.614712 
L 1514.782913 491.813758 
L 1517.55988 491.698311 
L 1521.726475 494.345628 
L 1525.893036 497.813017 
L 1530.059848 496.125103 
L 1534.226446 499.485007 
L 1537.004468 497.367153 
L 1539.782623 500.854446 
L 1542.559957 501.204768 
L 1545.337662 502.932491 
L 1548.115397 503.935685 
L 1552.28274 502.231847 
L 1556.448884 500.671324 
L 1560.614765 503.410202 
L 1563.393344 504.445244 
L 1566.171144 506.571059 
L 1568.948944 504.413396 
L 1571.725968 506.547174 
L 1574.50448 504.047151 
L 1577.282292 504.899069 
L 1580.06016 506.427746 
L 1582.837937 508.473943 
L 1585.615659 509.198472 
L 1588.393451 511.594991 
L 1591.170519 511.093394 
L 1593.949091 512.637994 
L 1593.949091 512.637994 
" clip-path="url(#p7181476379)" style="fill: none; stroke: #0000ff; stroke-width: 3; stroke-linecap: square"/>
   </g>
   <g id="line2d_15">
    <path d="M 295.330909 542.964706 
L 310.608348 537.398608 
L 317.552829 534.235289 
L 323.108526 534.727294 
L 328.663594 534.236908 
L 332.830746 532.874888 
L 336.998037 530.159707 
L 339.774675 528.563767 
L 345.330717 521.890451 
L 348.108572 522.475164 
L 350.886309 524.018565 
L 353.664117 522.426987 
L 356.441992 533.473379 
L 359.219914 530.070989 
L 364.775364 529.268874 
L 367.553196 531.897649 
L 370.33091 531.970416 
L 373.108542 529.358826 
L 375.886515 536.701594 
L 378.664269 532.050905 
L 381.442119 530.083767 
L 384.219131 528.444208 
L 386.997723 529.287076 
L 389.775691 531.044189 
L 392.55325 529.637491 
L 395.331115 525.685424 
L 398.108847 525.819796 
L 400.886675 524.067612 
L 403.664434 524.536025 
L 406.442216 526.849535 
L 411.997841 524.487103 
L 414.775656 524.082448 
L 417.553452 523.831836 
L 420.331265 522.111359 
L 423.109044 522.831099 
L 425.887609 521.472762 
L 428.664074 520.934311 
L 431.442839 526.167241 
L 434.220211 524.321645 
L 436.997993 523.729358 
L 439.775426 530.051756 
L 442.553565 529.587729 
L 445.331511 528.233529 
L 448.109194 529.128741 
L 450.886941 530.426399 
L 453.664857 530.297516 
L 456.442512 530.363202 
L 459.220361 532.602225 
L 461.99775 534.562086 
L 464.776015 537.700301 
L 467.553724 542.596097 
L 470.331388 540.237086 
L 473.108937 541.859687 
L 475.887354 542.465784 
L 478.664852 542.509512 
L 481.442804 541.340923 
L 486.998531 538.404801 
L 489.777235 536.064202 
L 492.55396 533.966004 
L 495.331686 534.162065 
L 498.109484 528.833219 
L 500.887544 523.053658 
L 503.66506 524.980924 
L 506.442913 521.545819 
L 509.220625 522.218409 
L 511.998563 520.58542 
L 514.776191 520.54306 
L 517.553786 517.917762 
L 520.331866 517.168539 
L 523.109643 516.175982 
L 525.887529 511.976102 
L 528.665316 512.620951 
L 531.443084 510.571208 
L 534.220883 510.109109 
L 536.998782 507.985284 
L 542.554992 503.286171 
L 545.332055 501.752643 
L 548.109814 499.292678 
L 550.887814 497.892138 
L 553.665469 496.966199 
L 556.443891 496.276627 
L 559.221986 494.93717 
L 561.998843 494.483841 
L 564.776622 492.536421 
L 567.554394 488.98506 
L 570.332163 488.108011 
L 573.109388 483.760464 
L 575.88775 481.780948 
L 578.666517 481.916175 
L 581.443404 480.757476 
L 584.221381 478.358096 
L 586.998883 478.784553 
L 589.776084 475.235929 
L 592.554602 474.887846 
L 595.332144 473.731013 
L 598.110726 473.180774 
L 600.887992 468.541127 
L 606.443578 469.754439 
L 609.221297 467.357174 
L 611.999707 466.439819 
L 614.776816 463.950246 
L 617.555482 468.320558 
L 620.332423 463.167122 
L 623.110258 462.418957 
L 625.888083 461.851799 
L 628.665802 461.756878 
L 631.443683 462.788685 
L 634.221475 463.042096 
L 636.999155 462.480661 
L 639.777079 463.634508 
L 642.554747 461.873818 
L 645.332598 463.197353 
L 648.11039 462.9422 
L 650.888587 461.176036 
L 653.666865 459.948293 
L 655.055547 462.836581 
L 656.44384 463.513463 
L 657.832693 463.416055 
L 659.221622 464.547758 
L 660.610404 463.431481 
L 661.999384 462.852753 
L 663.388346 461.320469 
L 664.77826 463.626546 
L 666.166107 462.535274 
L 667.555337 460.868012 
L 668.943877 462.426794 
L 670.333302 464.480704 
L 671.721641 462.131708 
L 673.110129 462.768407 
L 674.499443 462.262581 
L 675.888339 463.859431 
L 677.27744 464.814605 
L 678.666522 465.265942 
L 680.055714 466.09099 
L 681.444066 465.673241 
L 682.833413 465.685682 
L 684.221761 467.248196 
L 685.610673 467.714213 
L 686.999538 466.555017 
L 688.388427 468.611415 
L 689.777339 470.339387 
L 691.167199 468.760949 
L 692.555072 469.459104 
L 693.94469 470.400593 
L 695.332837 474.019506 
L 696.72236 475.606404 
L 698.110986 473.114591 
L 699.49956 470.309032 
L 700.888567 473.014322 
L 702.278391 474.118283 
L 703.666363 475.650443 
L 705.055236 476.137111 
L 706.444164 478.939685 
L 707.833002 479.899835 
L 709.221825 481.317543 
L 710.610706 480.922187 
L 711.999747 481.41209 
L 713.388661 484.711284 
L 714.77744 485.078525 
L 716.166582 485.924223 
L 717.554769 487.047592 
L 718.944214 491.7528 
L 720.333082 489.202269 
L 721.722592 491.068578 
L 723.11086 491.816495 
L 724.500725 494.933811 
L 725.888846 491.989914 
L 727.277603 494.91714 
L 728.666593 499.004061 
L 730.055575 499.446939 
L 731.445325 500.656644 
L 732.833758 500.894504 
L 734.222044 502.537384 
L 735.611606 503.666226 
L 736.998984 505.759448 
L 738.38959 507.639939 
L 739.777486 507.834755 
L 741.166534 507.841722 
L 742.555347 509.934695 
L 743.944324 510.763226 
L 745.333197 511.851263 
L 746.722172 514.750872 
L 748.111001 516.790849 
L 749.499926 520.068646 
L 750.888536 523.748765 
L 752.277725 522.105388 
L 753.666616 524.78729 
L 755.055507 527.81603 
L 756.444388 528.854554 
L 757.833323 530.34367 
L 759.223313 533.196005 
L 760.611127 537.230925 
L 761.999324 537.232667 
L 763.388823 536.16951 
L 764.778431 539.627693 
L 766.16675 540.36715 
L 767.555588 542.264063 
L 768.944569 539.769762 
L 770.333965 538.8539 
L 771.722321 535.497977 
L 773.110954 534.520162 
L 774.500091 532.746658 
L 775.888098 529.70299 
L 777.278916 528.951341 
L 778.66669 527.245513 
L 780.055627 525.17966 
L 781.444551 522.318119 
L 782.833386 519.111232 
L 784.221471 519.978328 
L 785.611221 513.846206 
L 788.389076 510.66221 
L 789.77792 510.268595 
L 791.166818 507.279167 
L 792.555682 507.5959 
L 793.944603 503.002903 
L 795.333511 499.828362 
L 796.722398 497.399 
L 798.111369 495.653363 
L 799.500276 494.342394 
L 800.889213 490.73418 
L 803.666941 482.676035 
L 805.055774 481.722851 
L 806.44443 479.728655 
L 807.833558 478.088264 
L 812.000302 466.998144 
L 813.38912 465.385868 
L 814.778021 461.775912 
L 817.555611 458.722789 
L 818.94475 456.437736 
L 820.333658 454.495541 
L 821.723158 452.822307 
L 824.500354 443.936626 
L 825.889195 442.912781 
L 827.278218 440.942222 
L 828.66697 436.882172 
L 830.055888 437.062061 
L 831.444751 436.31489 
L 832.833681 431.688305 
L 834.222206 429.511732 
L 835.611445 426.86765 
L 837.000434 426.282204 
L 838.389077 422.182595 
L 839.777583 419.717654 
L 841.167098 416.074607 
L 842.557427 414.31628 
L 843.944932 410.117645 
L 845.333877 406.759234 
L 846.72271 405.68936 
L 848.111586 404.080567 
L 849.500497 403.334392 
L 850.88915 399.075047 
L 852.278281 395.846515 
L 853.66722 392.188041 
L 855.056104 389.338692 
L 856.445003 387.499503 
L 857.833916 386.056665 
L 859.222721 383.775593 
L 860.611708 382.036177 
L 862.000424 380.75805 
L 863.389513 378.40134 
L 864.778371 375.540546 
L 866.167265 374.518691 
L 868.945102 372.020161 
L 870.333761 367.969815 
L 871.722925 365.369274 
L 874.501067 365.521544 
L 875.889586 359.718844 
L 877.279123 323.78375 
L 880.056191 323.213731 
L 882.834056 324.752858 
L 885.612296 322.478006 
L 888.389637 322.894013 
L 891.167367 320.353683 
L 893.945118 321.14116 
L 898.11188 319.725194 
L 903.667558 322.391669 
L 912.000939 317.895211 
L 920.334223 317.909891 
L 928.667411 319.801329 
L 935.612077 316.729048 
L 941.167678 317.179888 
L 946.723306 319.804066 
L 952.278906 322.725819 
L 957.834854 328.471293 
L 962.001057 331.407726 
L 966.167816 328.438948 
L 970.334545 332.050148 
L 974.501205 331.287551 
L 978.667921 334.543204 
L 982.834612 341.465292 
L 987.001325 342.626728 
L 989.779085 336.55208 
L 992.556794 346.555655 
L 995.334352 341.703153 
L 998.112481 349.924516 
L 1000.89024 353.940775 
L 1003.668649 355.503787 
L 1006.445068 363.505951 
L 1009.223701 366.072405 
L 1012.001625 373.405773 
L 1014.778419 372.036582 
L 1016.168189 373.015642 
L 1018.945903 378.916373 
L 1020.334892 385.816317 
L 1023.112532 383.316294 
L 1024.501476 387.504977 
L 1025.890335 395.067994 
L 1027.279213 406.100888 
L 1028.667564 409.433174 
L 1030.057084 414.016467 
L 1032.834911 414.547672 
L 1035.612711 414.737263 
L 1038.390445 416.13656 
L 1041.168308 426.195121 
L 1043.946133 426.020956 
L 1046.723883 432.651938 
L 1049.501636 437.533303 
L 1052.280059 447.395058 
L 1055.057418 438.853727 
L 1060.612826 448.443286 
L 1063.39021 454.215881 
L 1066.169045 451.008745 
L 1068.946513 458.79146 
L 1071.723964 459.460505 
L 1074.501518 462.80747 
L 1077.279631 470.02763 
L 1080.05736 476.024899 
L 1082.835128 477.820795 
L 1085.612988 483.830753 
L 1088.390805 491.947866 
L 1091.168544 496.093007 
L 1093.945739 500.808417 
L 1096.724068 510.097415 
L 1099.502534 508.832973 
L 1102.279713 515.384586 
L 1105.058209 521.615983 
L 1107.835229 523.694525 
L 1110.61312 531.039089 
L 1113.390948 531.877572 
L 1116.169771 537.51805 
L 1118.946542 541.353176 
L 1121.724299 542.228981 
L 1124.50205 538.676997 
L 1127.27907 532.382403 
L 1130.058192 530.036144 
L 1132.835406 524.042856 
L 1135.61325 521.63116 
L 1138.391051 516.984173 
L 1141.169465 511.534779 
L 1143.946639 508.178857 
L 1146.724398 501.13336 
L 1149.502119 498.092926 
L 1155.057967 487.702703 
L 1157.836213 484.149227 
L 1160.613561 482.0361 
L 1163.391225 473.095433 
L 1166.168974 471.884982 
L 1168.946755 465.440108 
L 1171.72457 459.352522 
L 1174.502945 456.006054 
L 1177.280165 451.956704 
L 1180.057874 448.547288 
L 1182.835746 445.362545 
L 1185.613442 440.809109 
L 1188.391234 437.852524 
L 1191.169088 432.794008 
L 1193.946621 428.539142 
L 1196.725556 428.020128 
L 1199.502508 424.666196 
L 1202.280214 421.777535 
L 1205.058132 420.213777 
L 1207.83582 417.361939 
L 1210.613635 414.939544 
L 1213.39146 409.52996 
L 1216.169228 410.360233 
L 1218.946958 409.374455 
L 1221.724797 409.015425 
L 1224.502548 408.114989 
L 1227.280325 402.341648 
L 1232.837094 400.16209 
L 1235.613755 397.377181 
L 1238.391577 394.843321 
L 1241.1694 389.113272 
L 1243.947141 391.230628 
L 1246.725471 394.719663 
L 1249.502774 386.612254 
L 1252.280282 381.543786 
L 1255.058335 378.665574 
L 1257.836173 385.87827 
L 1263.392785 374.455245 
L 1266.169373 374.257443 
L 1268.948624 360.953927 
L 1271.725078 360.491393 
L 1274.502858 354.648385 
L 1277.280888 350.406706 
L 1280.059262 347.543174 
L 1291.170251 334.602918 
L 1293.947472 332.638081 
L 1296.725271 329.456822 
L 1299.503811 327.64326 
L 1302.280853 322.835543 
L 1305.058539 320.964009 
L 1307.836391 321.29368 
L 1310.61422 320.099401 
L 1313.392609 316.890275 
L 1318.947614 315.362345 
L 1321.725357 314.835867 
L 1324.503082 311.243577 
L 1327.282656 311.602607 
L 1330.058732 308.252407 
L 1332.836521 306.50901 
L 1335.61425 307.619937 
L 1338.392121 307.993896 
L 1339.781055 306.514234 
L 1341.169883 308.427817 
L 1343.947646 307.639593 
L 1346.7255 305.768308 
L 1349.503395 302.447716 
L 1350.891307 301.105148 
L 1353.669945 302.397955 
L 1356.447749 302.039671 
L 1359.225539 300.248253 
L 1362.003324 295.985177 
L 1364.781177 292.313019 
L 1367.559514 292.46106 
L 1370.33751 293.157225 
L 1373.115632 293.730727 
L 1375.892259 291.508125 
L 1378.670064 294.515717 
L 1381.447947 292.238626 
L 1384.225618 293.925544 
L 1387.003476 295.407693 
L 1392.55909 301.403967 
L 1395.336447 304.150309 
L 1398.114711 312.300265 
L 1400.892492 312.387845 
L 1403.670246 319.332824 
L 1406.447841 322.624803 
L 1409.225743 330.439116 
L 1412.003572 332.770696 
L 1414.781454 342.615034 
L 1417.558802 345.181986 
L 1420.336128 353.981331 
L 1423.11479 367.120633 
L 1425.892645 365.732036 
L 1428.670328 370.675602 
L 1431.448229 378.690455 
L 1434.226022 384.683992 
L 1437.003677 388.597742 
L 1439.781469 393.663473 
L 1442.559398 397.903908 
L 1445.337805 400.984898 
L 1448.114922 404.842168 
L 1450.892457 404.561015 
L 1453.669682 412.850303 
L 1456.448245 414.298117 
L 1459.226057 418.39076 
L 1464.78175 427.633729 
L 1467.559393 428.850401 
L 1470.337258 431.659941 
L 1473.114719 437.022998 
L 1475.892894 439.938779 
L 1478.670716 441.993187 
L 1481.448485 441.424909 
L 1484.225901 441.123603 
L 1487.004022 442.695821 
L 1489.781807 441.1241 
L 1492.559652 438.713151 
L 1495.338363 435.785178 
L 1498.115831 432.304851 
L 1500.89331 429.845135 
L 1503.672155 425.259852 
L 1506.450429 420.933827 
L 1509.227259 415.980308 
L 1512.004215 415.953686 
L 1514.782913 409.617292 
L 1517.55988 404.422181 
L 1521.726475 397.91386 
L 1525.893036 393.938655 
L 1530.059848 386.214907 
L 1534.226446 384.240367 
L 1537.004468 382.245922 
L 1539.782623 381.373601 
L 1545.337662 374.211911 
L 1548.115397 369.138715 
L 1552.28274 363.157371 
L 1556.448884 363.531578 
L 1560.614765 358.59448 
L 1563.393344 354.918591 
L 1566.171144 354.033829 
L 1568.948944 347.495652 
L 1571.725968 343.786173 
L 1574.50448 343.179828 
L 1577.282292 340.746237 
L 1580.06016 334.246874 
L 1582.837937 331.09796 
L 1585.615659 326.812739 
L 1588.393451 322.095339 
L 1591.170519 318.747876 
L 1593.949091 314.354424 
L 1593.949091 314.354424 
" clip-path="url(#p7181476379)" style="fill: none; stroke: #9933fa; stroke-width: 3; stroke-linecap: square"/>
   </g>
   <g id="patch_3">
    <path d="M 230.4 640.8 
L 230.4 86.4 
" style="fill: none; stroke: #000000; stroke-width: 3; stroke-linejoin: miter; stroke-linecap: square"/>
   </g>
   <g id="patch_4">
    <path d="M 1658.88 640.8 
L 1658.88 86.4 
" style="fill: none; stroke: #000000; stroke-width: 3; stroke-linejoin: miter; stroke-linecap: square"/>
   </g>
   <g id="patch_5">
    <path d="M 230.4 640.8 
L 1658.88 640.8 
" style="fill: none; stroke: #000000; stroke-width: 3; stroke-linejoin: miter; stroke-linecap: square"/>
   </g>
   <g id="patch_6">
    <path d="M 230.4 86.4 
L 1658.88 86.4 
" style="fill: none; stroke: #000000; stroke-width: 3; stroke-linejoin: miter; stroke-linecap: square"/>
   </g>
   <g id="text_9">
    <!-- Off2 -->
    <g transform="translate(896.77125 77.041406) scale(0.45 -0.45)">
     <defs>
      <path id="DejaVuSans-4f" d="M 2522 4238 
Q 1834 4238 1429 3725 
Q 1025 3213 1025 2328 
Q 1025 1447 1429 934 
Q 1834 422 2522 422 
Q 3209 422 3611 934 
Q 4013 1447 4013 2328 
Q 4013 3213 3611 3725 
Q 3209 4238 2522 4238 
z
M 2522 4750 
Q 3503 4750 4090 4092 
Q 4678 3434 4678 2328 
Q 4678 1225 4090 567 
Q 3503 -91 2522 -91 
Q 1538 -91 948 565 
Q 359 1222 359 2328 
Q 359 3434 948 4092 
Q 1538 4750 2522 4750 
z
" transform="scale(0.015625)"/>
      <path id="DejaVuSans-66" d="M 2375 4863 
L 2375 4384 
L 1825 4384 
Q 1516 4384 1395 4259 
Q 1275 4134 1275 3809 
L 1275 3500 
L 2222 3500 
L 2222 3053 
L 1275 3053 
L 1275 0 
L 697 0 
L 697 3053 
L 147 3053 
L 147 3500 
L 697 3500 
L 697 3744 
Q 697 4328 969 4595 
Q 1241 4863 1831 4863 
L 2375 4863 
z
" transform="scale(0.015625)"/>
     </defs>
     <use xlink:href="#DejaVuSans-4f"/>
     <use xlink:href="#DejaVuSans-66" x="78.710938"/>
     <use xlink:href="#DejaVuSans-66" x="113.916016"/>
     <use xlink:href="#DejaVuSans-32" x="149.121094"/>
    </g>
   </g>
   <g id="legend_1">
    <g id="patch_7">
     <path d="M 258.4 294.5375 
L 410.075 294.5375 
Q 418.075 294.5375 418.075 286.5375 
L 418.075 114.4 
Q 418.075 106.4 410.075 106.4 
L 258.4 106.4 
Q 250.4 106.4 250.4 114.4 
L 250.4 286.5375 
Q 250.4 294.5375 258.4 294.5375 
z
" style="fill: #ffffff; opacity: 0.8; stroke: #cccccc; stroke-linejoin: miter"/>
    </g>
    <g id="line2d_16">
     <path d="M 266.4 138.79375 
L 306.4 138.79375 
L 346.4 138.79375 
" style="fill: none; stroke: #00ff00; stroke-width: 3; stroke-linecap: square"/>
    </g>
    <g id="text_10">
     <!-- x -->
     <g transform="translate(378.4 152.79375) scale(0.4 -0.4)">
      <defs>
       <path id="DejaVuSans-78" d="M 3513 3500 
L 2247 1797 
L 3578 0 
L 2900 0 
L 1881 1375 
L 863 0 
L 184 0 
L 1544 1831 
L 300 3500 
L 978 3500 
L 1906 2253 
L 2834 3500 
L 3513 3500 
z
" transform="scale(0.015625)"/>
      </defs>
      <use xlink:href="#DejaVuSans-78"/>
     </g>
    </g>
    <g id="line2d_17">
     <path d="M 266.4 197.50625 
L 306.4 197.50625 
L 346.4 197.50625 
" style="fill: none; stroke: #0000ff; stroke-width: 3; stroke-linecap: square"/>
    </g>
    <g id="text_11">
     <!-- y -->
     <g transform="translate(378.4 211.50625) scale(0.4 -0.4)">
      <defs>
       <path id="DejaVuSans-79" d="M 2059 -325 
Q 1816 -950 1584 -1140 
Q 1353 -1331 966 -1331 
L 506 -1331 
L 506 -850 
L 844 -850 
Q 1081 -850 1212 -737 
Q 1344 -625 1503 -206 
L 1606 56 
L 191 3500 
L 800 3500 
L 1894 763 
L 2988 3500 
L 3597 3500 
L 2059 -325 
z
" transform="scale(0.015625)"/>
      </defs>
      <use xlink:href="#DejaVuSans-79"/>
     </g>
    </g>
    <g id="line2d_18">
     <path d="M 266.4 256.21875 
L 306.4 256.21875 
L 346.4 256.21875 
" style="fill: none; stroke: #9933fa; stroke-width: 3; stroke-linecap: square"/>
    </g>
    <g id="text_12">
     <!-- z -->
     <g transform="translate(378.4 270.21875) scale(0.4 -0.4)">
      <defs>
       <path id="DejaVuSans-7a" d="M 353 3500 
L 3084 3500 
L 3084 2975 
L 922 459 
L 3084 459 
L 3084 0 
L 275 0 
L 275 525 
L 2438 3041 
L 353 3041 
L 353 3500 
z
" transform="scale(0.015625)"/>
      </defs>
      <use xlink:href="#DejaVuSans-7a"/>
     </g>
    </g>
   </g>
  </g>
 </g>
 <defs>
  <clipPath id="p7181476379">
   <rect x="230.4" y="86.4" width="1428.48" height="554.4"/>
  </clipPath>
 </defs>
</svg>
