<?xml version="1.0" encoding="utf-8" standalone="no"?>
<!DOCTYPE svg PUBLIC "-//W3C//DTD SVG 1.1//EN"
  "http://www.w3.org/Graphics/SVG/1.1/DTD/svg11.dtd">
<svg xmlns:xlink="http://www.w3.org/1999/xlink" width="648pt" height="648pt" viewBox="0 0 648 648" xmlns="http://www.w3.org/2000/svg" version="1.1">
 <metadata>
  <rdf:RDF xmlns:dc="http://purl.org/dc/elements/1.1/" xmlns:cc="http://creativecommons.org/ns#" xmlns:rdf="http://www.w3.org/1999/02/22-rdf-syntax-ns#">
   <cc:Work>
    <dc:type rdf:resource="http://purl.org/dc/dcmitype/StillImage"/>
    <dc:date>2024-08-10T15:39:05.754320</dc:date>
    <dc:format>image/svg+xml</dc:format>
    <dc:creator>
     <cc:Agent>
      <dc:title>Matplotlib v3.8.3, https://matplotlib.org/</dc:title>
     </cc:Agent>
    </dc:creator>
   </cc:Work>
  </rdf:RDF>
 </metadata>
 <defs>
  <style type="text/css">*{stroke-linejoin: round; stroke-linecap: butt}</style>
 </defs>
 <g id="figure_1">
  <g id="patch_1">
   <path d="M 0 648 
L 648 648 
L 648 0 
L 0 0 
z
" style="fill: #ffffff"/>
  </g>
  <g id="patch_2">
   <path d="M 42.12 623.7 
L 622.08 623.7 
L 622.08 43.74 
L 42.12 43.74 
z
" style="fill: #ffffff"/>
  </g>
  <g id="pane3d_1">
   <g id="patch_3">
    <path d="M 591.641981 489.247539 
L 418.721639 359.160244 
L 421.214465 114.703421 
L 600.431072 224.014277 
" style="fill: #ffffff; stroke: #ffffff; stroke-linejoin: miter"/>
   </g>
  </g>
  <g id="pane3d_2">
   <g id="patch_4">
    <path d="M 100.507323 419.513941 
L 418.721639 359.160244 
L 421.214465 114.703421 
L 92.568072 165.331726 
" style="fill: #ffffff; stroke: #ffffff; stroke-linejoin: miter"/>
   </g>
  </g>
  <g id="pane3d_3">
   <g id="patch_5">
    <path d="M 248.820944 562.626756 
L 591.641981 489.247539 
L 418.721639 359.160244 
L 100.507323 419.513941 
" style="fill: #ffffff; stroke: #ffffff; stroke-linejoin: miter"/>
   </g>
  </g>
  <g id="grid3d_1">
   <g id="Line3DCollection_1">
    <path d="M 321.503808 547.069334 
L 167.725947 406.765009 
L 162.070876 154.62475 
" style="fill: none; stroke: #bdc3c7; stroke-width: 0.5"/>
    <path d="M 388.623846 532.702608 
L 229.917803 394.969473 
L 226.337641 144.72439 
" style="fill: none; stroke: #bdc3c7; stroke-width: 0.5"/>
    <path d="M 454.459992 518.610693 
L 291.030274 383.378657 
L 289.453039 135.0014 
" style="fill: none; stroke: #bdc3c7; stroke-width: 0.5"/>
    <path d="M 519.048735 504.785779 
L 351.091219 371.987278 
L 351.447735 125.451055 
" style="fill: none; stroke: #bdc3c7; stroke-width: 0.5"/>
    <path d="M 582.425192 491.220349 
L 410.127545 360.790231 
L 412.351317 116.068798 
" style="fill: none; stroke: #bdc3c7; stroke-width: 0.5"/>
   </g>
  </g>
  <g id="grid3d_2">
   <g id="Line3DCollection_2">
    <path d="M 571.957672 206.647294 
L 564.242124 468.634733 
L 225.227853 539.860987 
" style="fill: none; stroke: #bdc3c7; stroke-width: 0.5"/>
    <path d="M 545.999837 190.814648 
L 539.238939 449.824935 
L 203.728871 519.115894 
" style="fill: none; stroke: #bdc3c7; stroke-width: 0.5"/>
    <path d="M 520.748648 175.413011 
L 514.894374 431.510615 
L 182.824033 498.944112 
" style="fill: none; stroke: #bdc3c7; stroke-width: 0.5"/>
    <path d="M 496.175639 160.425021 
L 491.182745 413.672449 
L 162.489046 479.322197 
" style="fill: none; stroke: #bdc3c7; stroke-width: 0.5"/>
    <path d="M 472.25385 145.834235 
L 468.079684 396.292108 
L 142.700923 460.227969 
" style="fill: none; stroke: #bdc3c7; stroke-width: 0.5"/>
    <path d="M 448.957732 131.625069 
L 445.56206 379.352187 
L 123.437895 441.640424 
" style="fill: none; stroke: #bdc3c7; stroke-width: 0.5"/>
    <path d="M 426.263055 117.782744 
L 423.607898 362.836157 
L 104.679337 423.539658 
" style="fill: none; stroke: #bdc3c7; stroke-width: 0.5"/>
   </g>
  </g>
  <g id="grid3d_3">
   <g id="Line3DCollection_3">
    <path d="M 99.213378 378.087155 
L 419.128422 319.269456 
L 593.072394 446.081171 
" style="fill: none; stroke: #bdc3c7; stroke-width: 0.5"/>
    <path d="M 97.712678 330.040879 
L 419.599959 273.028559 
L 594.732363 395.987374 
" style="fill: none; stroke: #bdc3c7; stroke-width: 0.5"/>
    <path d="M 96.193149 281.391794 
L 420.077145 226.233689 
L 596.414246 345.232247 
" style="fill: none; stroke: #bdc3c7; stroke-width: 0.5"/>
    <path d="M 94.654435 232.128482 
L 420.560083 178.87483 
L 598.118481 293.802606 
" style="fill: none; stroke: #bdc3c7; stroke-width: 0.5"/>
    <path d="M 93.09617 182.239237 
L 421.048876 130.941724 
L 599.845516 241.684914 
" style="fill: none; stroke: #bdc3c7; stroke-width: 0.5"/>
   </g>
  </g>
  <g id="axis3d_1">
   <g id="line2d_1">
    <path d="M 591.641981 489.247539 
L 248.820944 562.626756 
" style="fill: none; stroke: #000000; stroke-width: 0.8; stroke-linecap: square"/>
   </g>
   <g id="xtick_1">
    <g id="line2d_2">
     <path d="M 320.146619 545.831058 
L 324.224979 549.552084 
" style="fill: none; stroke: #000000; stroke-width: 0.8; stroke-linecap: square"/>
    </g>
    <g id="text_1">
     <!-- 30 -->
     <g transform="translate(315.986419 566.051915) scale(0.14 -0.14)">
      <defs>
       <path id="DejaVuSans-33" d="M 2597 2516 
Q 3050 2419 3304 2112 
Q 3559 1806 3559 1356 
Q 3559 666 3084 287 
Q 2609 -91 1734 -91 
Q 1441 -91 1130 -33 
Q 819 25 488 141 
L 488 750 
Q 750 597 1062 519 
Q 1375 441 1716 441 
Q 2309 441 2620 675 
Q 2931 909 2931 1356 
Q 2931 1769 2642 2001 
Q 2353 2234 1838 2234 
L 1294 2234 
L 1294 2753 
L 1863 2753 
Q 2328 2753 2575 2939 
Q 2822 3125 2822 3475 
Q 2822 3834 2567 4026 
Q 2313 4219 1838 4219 
Q 1578 4219 1281 4162 
Q 984 4106 628 3988 
L 628 4550 
Q 988 4650 1302 4700 
Q 1616 4750 1894 4750 
Q 2613 4750 3031 4423 
Q 3450 4097 3450 3541 
Q 3450 3153 3228 2886 
Q 3006 2619 2597 2516 
z
" transform="scale(0.015625)"/>
       <path id="DejaVuSans-30" d="M 2034 4250 
Q 1547 4250 1301 3770 
Q 1056 3291 1056 2328 
Q 1056 1369 1301 889 
Q 1547 409 2034 409 
Q 2525 409 2770 889 
Q 3016 1369 3016 2328 
Q 3016 3291 2770 3770 
Q 2525 4250 2034 4250 
z
M 2034 4750 
Q 2819 4750 3233 4129 
Q 3647 3509 3647 2328 
Q 3647 1150 3233 529 
Q 2819 -91 2034 -91 
Q 1250 -91 836 529 
Q 422 1150 422 2328 
Q 422 3509 836 4129 
Q 1250 4750 2034 4750 
z
" transform="scale(0.015625)"/>
      </defs>
      <use xlink:href="#DejaVuSans-33"/>
      <use xlink:href="#DejaVuSans-30" x="63.623047"/>
     </g>
    </g>
   </g>
   <g id="xtick_2">
    <g id="line2d_3">
     <path d="M 387.224428 531.488122 
L 391.429621 535.137601 
" style="fill: none; stroke: #000000; stroke-width: 0.8; stroke-linecap: square"/>
    </g>
    <g id="text_2">
     <!-- 110 -->
     <g transform="translate(378.711182 551.584965) scale(0.14 -0.14)">
      <defs>
       <path id="DejaVuSans-31" d="M 794 531 
L 1825 531 
L 1825 4091 
L 703 3866 
L 703 4441 
L 1819 4666 
L 2450 4666 
L 2450 531 
L 3481 531 
L 3481 0 
L 794 0 
L 794 531 
z
" transform="scale(0.015625)"/>
      </defs>
      <use xlink:href="#DejaVuSans-31"/>
      <use xlink:href="#DejaVuSans-31" x="63.623047"/>
      <use xlink:href="#DejaVuSans-30" x="127.246094"/>
     </g>
    </g>
   </g>
   <g id="xtick_3">
    <g id="line2d_4">
     <path d="M 453.020199 517.419317 
L 457.346649 520.999294 
" style="fill: none; stroke: #000000; stroke-width: 0.8; stroke-linecap: square"/>
    </g>
    <g id="text_3">
     <!-- 190 -->
     <g transform="translate(444.602952 537.395117) scale(0.14 -0.14)">
      <defs>
       <path id="DejaVuSans-39" d="M 703 97 
L 703 672 
Q 941 559 1184 500 
Q 1428 441 1663 441 
Q 2288 441 2617 861 
Q 2947 1281 2994 2138 
Q 2813 1869 2534 1725 
Q 2256 1581 1919 1581 
Q 1219 1581 811 2004 
Q 403 2428 403 3163 
Q 403 3881 828 4315 
Q 1253 4750 1959 4750 
Q 2769 4750 3195 4129 
Q 3622 3509 3622 2328 
Q 3622 1225 3098 567 
Q 2575 -91 1691 -91 
Q 1453 -91 1209 -44 
Q 966 3 703 97 
z
M 1959 2075 
Q 2384 2075 2632 2365 
Q 2881 2656 2881 3163 
Q 2881 3666 2632 3958 
Q 2384 4250 1959 4250 
Q 1534 4250 1286 3958 
Q 1038 3666 1038 3163 
Q 1038 2656 1286 2365 
Q 1534 2075 1959 2075 
z
" transform="scale(0.015625)"/>
      </defs>
      <use xlink:href="#DejaVuSans-31"/>
      <use xlink:href="#DejaVuSans-39" x="63.623047"/>
      <use xlink:href="#DejaVuSans-30" x="127.246094"/>
     </g>
    </g>
   </g>
   <g id="xtick_4">
    <g id="line2d_5">
     <path d="M 517.57034 503.616861 
L 522.012715 507.129301 
" style="fill: none; stroke: #000000; stroke-width: 0.8; stroke-linecap: square"/>
    </g>
    <g id="text_4">
     <!-- 270 -->
     <g transform="translate(509.2446 523.474483) scale(0.14 -0.14)">
      <defs>
       <path id="DejaVuSans-32" d="M 1228 531 
L 3431 531 
L 3431 0 
L 469 0 
L 469 531 
Q 828 903 1448 1529 
Q 2069 2156 2228 2338 
Q 2531 2678 2651 2914 
Q 2772 3150 2772 3378 
Q 2772 3750 2511 3984 
Q 2250 4219 1831 4219 
Q 1534 4219 1204 4116 
Q 875 4013 500 3803 
L 500 4441 
Q 881 4594 1212 4672 
Q 1544 4750 1819 4750 
Q 2544 4750 2975 4387 
Q 3406 4025 3406 3419 
Q 3406 3131 3298 2873 
Q 3191 2616 2906 2266 
Q 2828 2175 2409 1742 
Q 1991 1309 1228 531 
z
" transform="scale(0.015625)"/>
       <path id="DejaVuSans-37" d="M 525 4666 
L 3525 4666 
L 3525 4397 
L 1831 0 
L 1172 0 
L 2766 4134 
L 525 4134 
L 525 4666 
z
" transform="scale(0.015625)"/>
      </defs>
      <use xlink:href="#DejaVuSans-32"/>
      <use xlink:href="#DejaVuSans-37" x="63.623047"/>
      <use xlink:href="#DejaVuSans-30" x="127.246094"/>
     </g>
    </g>
   </g>
   <g id="xtick_5">
    <g id="line2d_6">
     <path d="M 580.909891 490.073258 
L 585.463096 493.520056 
" style="fill: none; stroke: #000000; stroke-width: 0.8; stroke-linecap: square"/>
    </g>
    <g id="text_5">
     <!-- 350 -->
     <g transform="translate(572.671368 509.815475) scale(0.14 -0.14)">
      <defs>
       <path id="DejaVuSans-35" d="M 691 4666 
L 3169 4666 
L 3169 4134 
L 1269 4134 
L 1269 2991 
Q 1406 3038 1543 3061 
Q 1681 3084 1819 3084 
Q 2600 3084 3056 2656 
Q 3513 2228 3513 1497 
Q 3513 744 3044 326 
Q 2575 -91 1722 -91 
Q 1428 -91 1123 -41 
Q 819 9 494 109 
L 494 744 
Q 775 591 1075 516 
Q 1375 441 1709 441 
Q 2250 441 2565 725 
Q 2881 1009 2881 1497 
Q 2881 1984 2565 2268 
Q 2250 2553 1709 2553 
Q 1456 2553 1204 2497 
Q 953 2441 691 2322 
L 691 4666 
z
" transform="scale(0.015625)"/>
      </defs>
      <use xlink:href="#DejaVuSans-33"/>
      <use xlink:href="#DejaVuSans-35" x="63.623047"/>
      <use xlink:href="#DejaVuSans-30" x="127.246094"/>
     </g>
    </g>
   </g>
   <g id="text_6">
    <!-- X (m) -->
    <g transform="translate(418.135916 566.696647) rotate(-12.081584) scale(0.18 -0.18)">
     <defs>
      <path id="TimesNewRomanPSMT-58" d="M 2613 2347 
L 3522 991 
Q 3900 428 4083 279 
Q 4266 131 4547 116 
L 4547 0 
L 2728 0 
L 2728 116 
Q 2909 119 2997 153 
Q 3063 181 3105 239 
Q 3147 297 3147 356 
Q 3147 428 3119 500 
Q 3097 553 2947 775 
L 2228 1863 
L 1341 725 
Q 1200 544 1172 483 
Q 1144 422 1144 356 
Q 1144 256 1228 190 
Q 1313 125 1550 116 
L 1550 0 
L 47 0 
L 47 116 
Q 206 131 322 181 
Q 516 263 691 400 
Q 866 538 1091 822 
L 2091 2084 
L 1256 3306 
Q 916 3803 678 3958 
Q 441 4113 131 4122 
L 131 4238 
L 2091 4238 
L 2091 4122 
Q 1841 4113 1748 4041 
Q 1656 3969 1656 3881 
Q 1656 3766 1806 3544 
L 2456 2572 
L 3209 3525 
Q 3341 3694 3370 3756 
Q 3400 3819 3400 3884 
Q 3400 3950 3363 4000 
Q 3316 4066 3244 4092 
Q 3172 4119 2947 4122 
L 2947 4238 
L 4450 4238 
L 4450 4122 
Q 4272 4113 4159 4066 
Q 3991 3994 3850 3872 
Q 3709 3750 3453 3422 
L 2613 2347 
z
" transform="scale(0.015625)"/>
      <path id="TimesNewRomanPSMT-20" transform="scale(0.015625)"/>
      <path id="TimesNewRomanPSMT-28" d="M 1988 -1253 
L 1988 -1369 
Q 1516 -1131 1200 -813 
Q 750 -359 506 256 
Q 263 872 263 1534 
Q 263 2503 741 3301 
Q 1219 4100 1988 4444 
L 1988 4313 
Q 1603 4100 1356 3731 
Q 1109 3363 987 2797 
Q 866 2231 866 1616 
Q 866 947 969 400 
Q 1050 -31 1165 -292 
Q 1281 -553 1476 -793 
Q 1672 -1034 1988 -1253 
z
" transform="scale(0.015625)"/>
      <path id="TimesNewRomanPSMT-6d" d="M 1050 2338 
Q 1363 2650 1419 2697 
Q 1559 2816 1721 2881 
Q 1884 2947 2044 2947 
Q 2313 2947 2506 2790 
Q 2700 2634 2766 2338 
Q 3088 2713 3309 2830 
Q 3531 2947 3766 2947 
Q 3994 2947 4170 2830 
Q 4347 2713 4450 2447 
Q 4519 2266 4519 1878 
L 4519 647 
Q 4519 378 4559 278 
Q 4591 209 4675 161 
Q 4759 113 4950 113 
L 4950 0 
L 3538 0 
L 3538 113 
L 3597 113 
Q 3781 113 3884 184 
Q 3956 234 3988 344 
Q 4000 397 4000 647 
L 4000 1878 
Q 4000 2228 3916 2372 
Q 3794 2572 3525 2572 
Q 3359 2572 3192 2489 
Q 3025 2406 2788 2181 
L 2781 2147 
L 2788 2013 
L 2788 647 
Q 2788 353 2820 281 
Q 2853 209 2943 161 
Q 3034 113 3253 113 
L 3253 0 
L 1806 0 
L 1806 113 
Q 2044 113 2133 169 
Q 2222 225 2256 338 
Q 2272 391 2272 647 
L 2272 1878 
Q 2272 2228 2169 2381 
Q 2031 2581 1784 2581 
Q 1616 2581 1450 2491 
Q 1191 2353 1050 2181 
L 1050 647 
Q 1050 366 1089 281 
Q 1128 197 1204 155 
Q 1281 113 1516 113 
L 1516 0 
L 100 0 
L 100 113 
Q 297 113 375 155 
Q 453 197 493 289 
Q 534 381 534 647 
L 534 1741 
Q 534 2213 506 2350 
Q 484 2453 437 2492 
Q 391 2531 309 2531 
Q 222 2531 100 2484 
L 53 2597 
L 916 2947 
L 1050 2947 
L 1050 2338 
z
" transform="scale(0.015625)"/>
      <path id="TimesNewRomanPSMT-29" d="M 144 4313 
L 144 4444 
Q 619 4209 934 3891 
Q 1381 3434 1625 2820 
Q 1869 2206 1869 1541 
Q 1869 572 1392 -226 
Q 916 -1025 144 -1369 
L 144 -1253 
Q 528 -1038 776 -670 
Q 1025 -303 1145 264 
Q 1266 831 1266 1447 
Q 1266 2113 1163 2663 
Q 1084 3094 967 3353 
Q 850 3613 656 3853 
Q 463 4094 144 4313 
z
" transform="scale(0.015625)"/>
     </defs>
     <use xlink:href="#TimesNewRomanPSMT-58"/>
     <use xlink:href="#TimesNewRomanPSMT-20" x="72.216797"/>
     <use xlink:href="#TimesNewRomanPSMT-28" x="97.216797"/>
     <use xlink:href="#TimesNewRomanPSMT-6d" x="130.517578"/>
     <use xlink:href="#TimesNewRomanPSMT-29" x="208.300781"/>
    </g>
   </g>
  </g>
  <g id="axis3d_2">
   <g id="line2d_7">
    <path d="M 100.507323 419.513941 
L 248.820944 562.626756 
" style="fill: none; stroke: #000000; stroke-width: 0.8; stroke-linecap: square"/>
   </g>
   <g id="xtick_6">
    <g id="line2d_8">
     <path d="M 228.075882 539.262622 
L 219.524879 541.059171 
" style="fill: none; stroke: #000000; stroke-width: 0.8; stroke-linecap: square"/>
    </g>
    <g id="text_7">
     <!-- −170 -->
     <g transform="translate(192.58631 563.39039) scale(0.14 -0.14)">
      <defs>
       <path id="DejaVuSans-2212" d="M 678 2272 
L 4684 2272 
L 4684 1741 
L 678 1741 
L 678 2272 
z
" transform="scale(0.015625)"/>
      </defs>
      <use xlink:href="#DejaVuSans-2212"/>
      <use xlink:href="#DejaVuSans-31" x="83.789062"/>
      <use xlink:href="#DejaVuSans-37" x="147.412109"/>
      <use xlink:href="#DejaVuSans-30" x="211.035156"/>
     </g>
    </g>
   </g>
   <g id="xtick_7">
    <g id="line2d_9">
     <path d="M 206.545578 518.534176 
L 198.088714 520.280723 
" style="fill: none; stroke: #000000; stroke-width: 0.8; stroke-linecap: square"/>
    </g>
    <g id="text_8">
     <!-- −90 -->
     <g transform="translate(175.716547 542.452401) scale(0.14 -0.14)">
      <use xlink:href="#DejaVuSans-2212"/>
      <use xlink:href="#DejaVuSans-39" x="83.789062"/>
      <use xlink:href="#DejaVuSans-30" x="147.412109"/>
     </g>
    </g>
   </g>
   <g id="xtick_8">
    <g id="line2d_10">
     <path d="M 185.610049 498.378355 
L 177.245424 500.076959 
" style="fill: none; stroke: #000000; stroke-width: 0.8; stroke-linecap: square"/>
    </g>
    <g id="text_9">
     <!-- −10 -->
     <g transform="translate(154.982669 522.093387) scale(0.14 -0.14)">
      <use xlink:href="#DejaVuSans-2212"/>
      <use xlink:href="#DejaVuSans-31" x="83.789062"/>
      <use xlink:href="#DejaVuSans-30" x="147.412109"/>
     </g>
    </g>
   </g>
   <g id="xtick_9">
    <g id="line2d_11">
     <path d="M 165.244987 478.771755 
L 156.970747 480.424363 
" style="fill: none; stroke: #000000; stroke-width: 0.8; stroke-linecap: square"/>
    </g>
    <g id="text_10">
     <!-- 70 -->
     <g transform="translate(140.680084 502.289662) scale(0.14 -0.14)">
      <use xlink:href="#DejaVuSans-37"/>
      <use xlink:href="#DejaVuSans-30" x="63.623047"/>
     </g>
    </g>
   </g>
   <g id="xtick_10">
    <g id="line2d_12">
     <path d="M 145.427388 459.692228 
L 137.24173 461.300683 
" style="fill: none; stroke: #000000; stroke-width: 0.8; stroke-linecap: square"/>
    </g>
    <g id="text_11">
     <!-- 150 -->
     <g transform="translate(116.600657 483.018812) scale(0.14 -0.14)">
      <use xlink:href="#DejaVuSans-31"/>
      <use xlink:href="#DejaVuSans-35" x="63.623047"/>
      <use xlink:href="#DejaVuSans-30" x="127.246094"/>
     </g>
    </g>
   </g>
   <g id="xtick_11">
    <g id="line2d_13">
     <path d="M 126.135468 441.118802 
L 118.036635 442.68485 
" style="fill: none; stroke: #000000; stroke-width: 0.8; stroke-linecap: square"/>
    </g>
    <g id="text_12">
     <!-- 230 -->
     <g transform="translate(97.496053 464.259616) scale(0.14 -0.14)">
      <use xlink:href="#DejaVuSans-32"/>
      <use xlink:href="#DejaVuSans-33" x="63.623047"/>
      <use xlink:href="#DejaVuSans-30" x="127.246094"/>
     </g>
    </g>
   </g>
   <g id="xtick_12">
    <g id="line2d_14">
     <path d="M 107.348586 423.031605 
L 99.334867 424.556902 
" style="fill: none; stroke: #000000; stroke-width: 0.8; stroke-linecap: square"/>
    </g>
    <g id="text_13">
     <!-- 310 -->
     <g transform="translate(78.892044 445.991964) scale(0.14 -0.14)">
      <use xlink:href="#DejaVuSans-33"/>
      <use xlink:href="#DejaVuSans-31" x="63.623047"/>
      <use xlink:href="#DejaVuSans-30" x="127.246094"/>
     </g>
    </g>
   </g>
   <g id="text_14">
    <!-- Y (m) -->
    <g transform="translate(117.552335 509.215122) rotate(-316.022394) scale(0.18 -0.18)">
     <defs>
      <path id="TimesNewRomanPSMT-59" d="M 3050 4238 
L 4528 4238 
L 4528 4122 
L 4447 4122 
Q 4366 4122 4209 4050 
Q 4053 3978 3925 3843 
Q 3797 3709 3609 3406 
L 2588 1797 
L 2588 734 
Q 2588 344 2675 247 
Q 2794 116 3050 116 
L 3188 116 
L 3188 0 
L 1388 0 
L 1388 116 
L 1538 116 
Q 1806 116 1919 278 
Q 1988 378 1988 734 
L 1988 1738 
L 825 3513 
Q 619 3825 545 3903 
Q 472 3981 241 4091 
Q 178 4122 59 4122 
L 59 4238 
L 1872 4238 
L 1872 4122 
L 1778 4122 
Q 1631 4122 1507 4053 
Q 1384 3984 1384 3847 
Q 1384 3734 1575 3441 
L 2459 2075 
L 3291 3381 
Q 3478 3675 3478 3819 
Q 3478 3906 3433 3975 
Q 3388 4044 3303 4083 
Q 3219 4122 3050 4122 
L 3050 4238 
z
" transform="scale(0.015625)"/>
     </defs>
     <use xlink:href="#TimesNewRomanPSMT-59"/>
     <use xlink:href="#TimesNewRomanPSMT-20" x="68.466797"/>
     <use xlink:href="#TimesNewRomanPSMT-28" x="93.466797"/>
     <use xlink:href="#TimesNewRomanPSMT-6d" x="126.767578"/>
     <use xlink:href="#TimesNewRomanPSMT-29" x="204.550781"/>
    </g>
   </g>
  </g>
  <g id="axis3d_3">
   <g id="line2d_15">
    <path d="M 100.507323 419.513941 
L 92.568072 165.331726 
" style="fill: none; stroke: #000000; stroke-width: 0.8; stroke-linecap: square"/>
   </g>
   <g id="xtick_13">
    <g id="line2d_16">
     <path d="M 101.891172 377.594831 
L 93.851787 379.072906 
" style="fill: none; stroke: #000000; stroke-width: 0.8; stroke-linecap: square"/>
    </g>
    <g id="text_15">
     <!-- −120 -->
     <g transform="translate(55.174071 385.308838) scale(0.14 -0.14)">
      <use xlink:href="#DejaVuSans-2212"/>
      <use xlink:href="#DejaVuSans-31" x="83.789062"/>
      <use xlink:href="#DejaVuSans-32" x="147.412109"/>
      <use xlink:href="#DejaVuSans-30" x="211.035156"/>
     </g>
    </g>
   </g>
   <g id="xtick_14">
    <g id="line2d_17">
     <path d="M 100.407722 329.563536 
L 92.316508 330.996643 
" style="fill: none; stroke: #000000; stroke-width: 0.8; stroke-linecap: square"/>
    </g>
    <g id="text_16">
     <!-- −40 -->
     <g transform="translate(57.976752 337.366552) scale(0.14 -0.14)">
      <defs>
       <path id="DejaVuSans-34" d="M 2419 4116 
L 825 1625 
L 2419 1625 
L 2419 4116 
z
M 2253 4666 
L 3047 4666 
L 3047 1625 
L 3713 1625 
L 3713 1100 
L 3047 1100 
L 3047 0 
L 2419 0 
L 2419 1100 
L 313 1100 
L 313 1709 
L 2253 4666 
z
" transform="scale(0.015625)"/>
      </defs>
      <use xlink:href="#DejaVuSans-2212"/>
      <use xlink:href="#DejaVuSans-34" x="83.789062"/>
      <use xlink:href="#DejaVuSans-30" x="147.412109"/>
     </g>
    </g>
   </g>
   <g id="xtick_15">
    <g id="line2d_18">
     <path d="M 98.905668 280.929846 
L 90.761951 282.316738 
" style="fill: none; stroke: #000000; stroke-width: 0.8; stroke-linecap: square"/>
    </g>
    <g id="text_17">
     <!-- 40 -->
     <g transform="translate(62.170804 288.824337) scale(0.14 -0.14)">
      <use xlink:href="#DejaVuSans-34"/>
      <use xlink:href="#DejaVuSans-30" x="63.623047"/>
     </g>
    </g>
   </g>
   <g id="xtick_16">
    <g id="line2d_19">
     <path d="M 97.384656 231.682358 
L 89.187753 233.021749 
" style="fill: none; stroke: #000000; stroke-width: 0.8; stroke-linecap: square"/>
    </g>
    <g id="text_18">
     <!-- 120 -->
     <g transform="translate(56.024274 239.670864) scale(0.14 -0.14)">
      <use xlink:href="#DejaVuSans-31"/>
      <use xlink:href="#DejaVuSans-32" x="63.623047"/>
      <use xlink:href="#DejaVuSans-30" x="127.246094"/>
     </g>
    </g>
   </g>
   <g id="xtick_17">
    <g id="line2d_20">
     <path d="M 95.844326 181.809378 
L 87.593538 183.099945 
" style="fill: none; stroke: #000000; stroke-width: 0.8; stroke-linecap: square"/>
    </g>
    <g id="text_19">
     <!-- 200 -->
     <g transform="translate(54.310043 189.894512) scale(0.14 -0.14)">
      <use xlink:href="#DejaVuSans-32"/>
      <use xlink:href="#DejaVuSans-30" x="63.623047"/>
      <use xlink:href="#DejaVuSans-30" x="127.246094"/>
     </g>
    </g>
   </g>
   <g id="text_20">
    <!-- Z (m) -->
    <g transform="translate(38.507365 267.047387) rotate(-271.789022) scale(0.18 -0.18)">
     <defs>
      <path id="TimesNewRomanPSMT-5a" d="M 3681 4238 
L 897 256 
L 2634 256 
Q 3034 256 3248 431 
Q 3463 606 3628 1141 
L 3731 1122 
L 3531 0 
L 81 0 
L 81 116 
L 2800 3984 
L 1444 3984 
Q 1106 3984 954 3911 
Q 803 3838 723 3698 
Q 644 3559 578 3178 
L 459 3178 
L 547 4238 
L 3681 4238 
z
" transform="scale(0.015625)"/>
     </defs>
     <use xlink:href="#TimesNewRomanPSMT-5a"/>
     <use xlink:href="#TimesNewRomanPSMT-20" x="61.083984"/>
     <use xlink:href="#TimesNewRomanPSMT-28" x="86.083984"/>
     <use xlink:href="#TimesNewRomanPSMT-6d" x="119.384766"/>
     <use xlink:href="#TimesNewRomanPSMT-29" x="197.167969"/>
    </g>
   </g>
  </g>
  <g id="axes_1">
   <g id="line2d_21">
    <defs>
     <path id="mf2b03cdc0f" d="M 0 -3 
L -0.673542 -0.927051 
L -2.85317 -0.927051 
L -1.089814 0.354102 
L -1.763356 2.427051 
L -0 1.145898 
L 1.763356 2.427051 
L 1.089814 0.354102 
L 2.85317 -0.927051 
L 0.673542 -0.927051 
z
" style="stroke: #ff0000; stroke-linejoin: bevel"/>
    </defs>
    <g clip-path="url(#pb96ac82c4e)">
     <use xlink:href="#mf2b03cdc0f" x="224.020106" y="368.815473" style="fill: #ff0000; stroke: #ff0000; stroke-linejoin: bevel"/>
    </g>
   </g>
   <g id="line2d_22">
    <path d="M 224.020106 368.815473 
L 230.40519 367.82082 
L 232.442111 367.488207 
L 237.958519 366.73265 
L 243.282008 366.142892 
L 245.284853 366.021463 
L 248.134917 365.992663 
L 251.163944 366.0738 
L 252.894176 366.183769 
L 254.499253 366.340163 
L 259.678253 366.695441 
L 261.943586 366.930338 
L 263.881845 367.065143 
L 268.189782 367.618392 
L 273.653977 368.53401 
L 275.344681 368.667444 
L 277.230011 368.872704 
L 299.636905 372.009845 
L 301.144743 372.163406 
L 303.005862 372.38879 
L 305.55037 372.677828 
L 319.945332 374.549171 
L 323.470298 374.572765 
L 332.379627 374.763559 
L 334.437988 374.790902 
L 342.787178 375.109198 
L 346.753268 375.029553 
L 349.056725 375.037773 
L 357.177077 374.700265 
L 359.778527 374.504513 
L 362.258721 374.376384 
L 373.271799 373.620397 
L 375.580011 373.620105 
L 379.814792 373.6383 
L 382.824233 373.802956 
L 386.370579 373.961419 
L 393.394216 374.076699 
L 398.498267 373.675342 
L 405.174436 372.977191 
L 417.460107 371.278763 
L 419.863085 371.197655 
L 425.911858 371.243467 
L 427.223055 371.186576 
L 429.235927 371.160618 
L 435.757565 370.994377 
L 438.140771 370.793075 
L 442.004317 370.24677 
L 453.141331 368.499042 
L 455.958903 367.975111 
L 462.671234 366.507443 
L 468.868581 364.891536 
L 471.746066 364.110881 
L 476.789924 362.504589 
L 483.159002 360.575972 
L 485.419066 359.605528 
L 487.007312 358.50721 
L 487.696292 357.703214 
L 490.237814 353.706113 
L 496.797544 347.45008 
L 497.188053 346.525945 
L 497.147085 345.844603 
L 497.058639 345.572748 
L 496.444412 344.975328 
L 494.653729 344.261422 
L 493.463526 344.004189 
L 491.512659 343.67375 
L 474.895934 342.212036 
L 472.422765 342.099563 
L 468.149347 341.697989 
L 465.608178 341.151964 
L 464.568998 340.701589 
L 463.674249 340.072008 
L 463.22622 339.022499 
L 463.186368 338.773668 
L 462.897771 338.324909 
L 462.697843 337.455308 
L 462.556511 337.214326 
L 462.413875 336.375228 
L 462.332809 336.13358 
L 462.630086 334.551504 
L 463.447087 332.857663 
L 463.479646 332.533491 
L 463.826461 331.932289 
L 464.026645 331.334051 
L 464.520993 330.45426 
L 464.765782 329.830247 
L 465.677393 328.112738 
L 466.049509 327.663106 
L 466.183154 327.358046 
L 466.966805 326.371636 
L 467.05026 326.206339 
L 467.545054 325.55236 
L 468.02865 324.68657 
L 468.794595 322.426653 
L 468.788397 321.819473 
L 468.968968 321.558806 
L 468.873601 321.247325 
L 469.814561 319.181905 
L 470.192909 318.216906 
L 470.738857 317.2926 
L 471.274038 316.646511 
L 471.932658 316.129389 
L 473.150326 315.072359 
L 475.485807 313.298455 
L 476.524341 312.596261 
L 479.965259 310.012686 
L 482.251612 308.444446 
L 483.40402 307.648145 
L 484.136749 307.083593 
L 486.795927 305.531809 
L 489.337674 304.310813 
L 492.876916 302.592255 
L 493.683432 302.116235 
L 494.440396 301.754955 
L 494.970261 301.270615 
L 495.18415 301.077303 
L 495.222481 300.243112 
L 495.178527 300.110323 
L 494.422072 299.564717 
L 492.467519 298.982284 
L 491.140614 298.856765 
L 489.823709 298.768575 
L 487.911108 299.040679 
L 476.991908 302.482058 
L 474.306272 303.418552 
L 472.687615 303.99002 
L 465.734261 306.956127 
L 464.800327 307.486758 
L 463.71197 308.08026 
L 459.240254 310.895116 
L 457.269455 312.374906 
L 455.651564 313.733522 
L 453.902116 314.95238 
L 451.963998 316.069826 
L 449.729313 317.392282 
L 447.069232 318.817968 
L 443.831769 320.732062 
L 438.978591 323.777367 
L 436.203646 325.658643 
L 434.951378 326.422815 
L 432.972109 327.589512 
L 427.102816 330.930965 
L 426.561454 331.051925 
L 424.890956 331.772119 
L 423.226782 332.381302 
L 415.19439 334.166764 
L 410.771148 334.788198 
L 404.558798 335.452675 
L 393.521255 336.186408 
L 386.098836 336.542504 
L 383.813121 336.687184 
L 355.065851 337.523095 
L 352.043977 337.498112 
L 345.176794 337.369129 
L 340.56865 337.209615 
L 320.591384 335.605146 
L 315.509988 335.30318 
L 313.746196 335.168754 
L 305.301289 334.72267 
L 302.832866 334.474095 
L 296.136933 333.651729 
L 291.227907 332.525478 
L 285.476932 330.544382 
L 283.307595 329.41484 
L 281.854556 328.342486 
L 280.702429 327.328027 
L 279.319694 326.253775 
L 278.001588 325.410032 
L 276.498842 324.551989 
L 275.055471 323.951283 
L 272.840978 323.468368 
L 266.7707 322.922892 
L 261.346547 323.102249 
L 258.673111 323.271237 
L 250.824002 324.095444 
L 244.292769 325.434835 
L 243.122592 325.799979 
L 239.911972 326.738734 
L 229.372104 330.325828 
L 227.788579 330.786399 
L 227.045776 331.132606 
L 225.74216 331.609722 
L 225.09477 331.887604 
L 224.492836 331.987119 
L 219.92365 333.56264 
L 218.853355 333.778201 
L 213.002535 335.450306 
L 209.718539 336.164261 
L 209.083946 336.46406 
L 207.523354 336.692568 
L 203.513041 337.426957 
L 198.544826 338.245673 
L 197.052643 338.46097 
L 190.604545 339.811465 
L 189.329312 340.227782 
L 187.229369 341.153362 
L 185.703286 342.105392 
L 185.184636 342.667911 
L 184.786692 343.524166 
L 184.690053 343.776828 
L 184.928493 344.571312 
L 185.135232 345.013692 
L 185.296264 345.232768 
L 187.364173 346.499134 
L 188.755351 347.034892 
L 189.325257 347.405914 
L 189.73145 347.415776 
L 190.467656 348.06515 
L 190.825368 348.198956 
L 191.076286 348.45137 
L 191.491611 348.54281 
L 191.710528 348.89242 
L 192.243263 349.248939 
L 194.207611 350.795895 
L 194.535458 350.944739 
L 195.273868 351.572341 
L 195.682523 351.8139 
L 196.477832 352.440559 
L 197.999556 353.454057 
L 198.505283 353.621115 
L 198.942038 354.02644 
L 199.449295 354.160684 
L 199.719146 354.451254 
L 201.999684 356.071928 
L 202.567494 356.688376 
L 203.224875 357.192526 
L 204.593604 358.668529 
L 204.925609 359.220283 
L 205.507725 359.741558 
L 205.684437 360.015786 
L 206.610085 360.974889 
L 206.987449 361.436817 
L 207.34417 361.696739 
L 207.716356 362.22321 
L 208.96326 363.304755 
L 209.474792 363.761681 
L 212.066901 365.734127 
L 213.048868 366.736234 
L 213.995034 367.763595 
L 215.120291 368.484998 
L 217.346227 369.372604 
L 219.195512 369.655713 
L 221.092434 369.491884 
L 222.066817 369.346329 
L 222.066817 369.346329 
" clip-path="url(#pb96ac82c4e)" style="fill: none; stroke-dasharray: 10.175,4.4; stroke-dashoffset: 0; stroke: #808a87; stroke-width: 2.75"/>
   </g>
   <g id="line2d_23">
    <path d="M 224.024317 368.815019 
L 228.316381 368.121001 
L 231.835234 367.466914 
L 234.701965 366.981284 
L 236.162025 366.731889 
L 246.280119 365.440957 
L 248.440365 365.331921 
L 253.202501 365.350152 
L 255.634862 365.438033 
L 256.450357 365.425058 
L 257.514099 365.480624 
L 259.646111 365.577634 
L 268.141724 366.088767 
L 272.380482 366.540592 
L 273.635051 366.680639 
L 276.13085 366.79777 
L 279.213103 367.071096 
L 280.829156 367.286407 
L 283.054893 367.407686 
L 284.8022 367.516395 
L 287.765735 367.865422 
L 288.205485 367.979519 
L 289.594306 367.999142 
L 300.561045 368.965958 
L 301.316378 368.985608 
L 318.367188 370.30143 
L 321.818779 370.393826 
L 324.937697 370.2369 
L 341.16702 369.842936 
L 343.301908 369.812973 
L 346.104224 369.666646 
L 347.842472 369.556673 
L 351.966604 369.281007 
L 353.780927 369.104494 
L 370.331676 367.355515 
L 371.860039 367.13087 
L 375.85879 366.808237 
L 394.634629 366.295882 
L 403.327114 365.062465 
L 409.002307 364.103165 
L 411.343695 363.648181 
L 417.784951 362.429359 
L 421.02169 362.143704 
L 425.494224 361.916239 
L 425.927145 361.96902 
L 427.312381 361.75324 
L 429.428214 361.613072 
L 438.210167 360.720804 
L 445.233168 359.319716 
L 457.956167 356.416884 
L 463.422245 354.774047 
L 481.838164 348.361122 
L 484.654591 347.107211 
L 485.80447 346.457548 
L 486.879322 345.555979 
L 487.378522 344.891493 
L 487.71538 344.346915 
L 487.989921 343.785637 
L 488.375353 343.07888 
L 488.942226 341.825963 
L 489.213155 341.341655 
L 489.418848 341.042957 
L 489.634482 340.66759 
L 494.232966 335.636384 
L 494.618753 335.176581 
L 494.86755 334.874269 
L 494.922266 334.739194 
L 495.388375 334.159031 
L 495.60354 333.494483 
L 495.514462 332.854327 
L 495.466905 332.628471 
L 494.66782 331.976088 
L 492.741388 331.417894 
L 491.524236 331.249757 
L 489.523607 331.098004 
L 471.470289 330.799863 
L 466.540793 330.740885 
L 463.870006 330.383922 
L 462.627379 330.036836 
L 461.561389 329.356683 
L 461.13579 328.668434 
L 461.027242 328.408932 
L 461.03083 328.120307 
L 460.746917 327.700023 
L 460.507644 326.886286 
L 460.317112 326.064418 
L 460.184855 325.287963 
L 460.530901 323.730255 
L 461.235083 322.264445 
L 461.248266 321.979319 
L 461.498622 321.70369 
L 461.548277 321.319817 
L 461.709667 321.06437 
L 461.746907 320.744528 
L 462.248597 319.862105 
L 462.610406 318.92969 
L 464.998514 315.353503 
L 465.165902 315.20163 
L 466.325689 312.366804 
L 466.282702 312.104949 
L 466.490956 311.820206 
L 466.641983 310.38682 
L 466.913711 309.890563 
L 467.355164 308.733103 
L 467.514717 308.521141 
L 467.709693 307.760473 
L 467.981307 307.346232 
L 468.211362 306.937877 
L 468.90609 306.084724 
L 470.000505 305.158073 
L 472.098641 303.326431 
L 473.653676 302.191003 
L 478.009736 298.631785 
L 478.763836 298.054299 
L 483.241238 294.638811 
L 485.224349 293.519495 
L 490.853571 290.410109 
L 491.238949 289.939123 
L 491.499355 289.738296 
L 491.560193 289.284807 
L 491.356004 288.79999 
L 490.454363 288.373511 
L 488.362521 288.003792 
L 486.972712 288.031488 
L 485.625622 288.076878 
L 483.7533 288.51881 
L 480.323226 289.820193 
L 479.661118 290.130244 
L 477.973956 290.808524 
L 470.242658 293.898823 
L 462.465627 297.631165 
L 461.569744 298.201883 
L 460.649839 298.751248 
L 454.229862 303.380588 
L 452.415108 304.994554 
L 449.532884 306.833361 
L 448.745099 307.383163 
L 447.741678 307.962303 
L 438.643212 313.392533 
L 437.330609 314.217617 
L 433.897051 316.425389 
L 432.164267 317.584423 
L 430.943787 318.292249 
L 428.262735 319.861438 
L 424.36032 322.104224 
L 423.191236 322.673797 
L 422.496288 322.987753 
L 421.664968 323.326972 
L 420.036094 324.031203 
L 419.073796 324.337879 
L 417.234011 324.941917 
L 415.473941 325.408394 
L 407.261486 327.235655 
L 395.413339 328.985657 
L 384.77541 330.025657 
L 377.226638 330.810187 
L 367.016349 331.654842 
L 363.439182 331.998844 
L 349.892549 332.936133 
L 346.870517 333.071905 
L 337.715238 333.390858 
L 330.341037 333.28635 
L 322.42124 333.07544 
L 316.248746 333.010395 
L 310.363067 332.945262 
L 306.823659 332.868594 
L 300.173492 332.864307 
L 298.718039 332.780246 
L 292.30443 332.487286 
L 286.065559 331.54285 
L 280.986658 330.229345 
L 278.601024 329.301505 
L 277.449229 328.698978 
L 273.254283 325.86558 
L 271.760014 325.141631 
L 270.423951 324.575583 
L 268.87415 324.129171 
L 266.534832 323.896898 
L 261.766418 323.799021 
L 252.778455 324.795891 
L 248.408042 325.440988 
L 244.304655 326.196846 
L 238.509831 327.741481 
L 235.464541 328.873317 
L 234.230744 329.274126 
L 232.28269 330.07898 
L 230.184379 330.923437 
L 227.684218 332.024339 
L 226.804697 332.338101 
L 220.424811 334.99642 
L 219.790742 335.362463 
L 218.542513 335.808648 
L 216.486181 336.556855 
L 215.210905 337.098786 
L 214.422386 337.273794 
L 213.491004 337.774714 
L 213.059688 337.786975 
L 210.203143 338.797274 
L 209.034117 339.174796 
L 206.566406 339.986881 
L 205.103809 340.32254 
L 204.479779 340.665597 
L 202.925462 340.984413 
L 196.221145 342.544296 
L 190.001833 343.954741 
L 185.861408 345.183794 
L 184.40614 345.851328 
L 183.260612 346.419715 
L 181.578072 347.764065 
L 181.185834 348.609057 
L 181.197324 349.394046 
L 181.237987 349.697655 
L 181.624165 350.115578 
L 181.962179 350.48819 
L 182.588026 350.867344 
L 183.516441 351.342171 
L 185.059009 351.736168 
L 186.0325 352.186177 
L 187.335348 352.769977 
L 189.657477 353.976028 
L 189.924851 354.228032 
L 190.279041 354.35037 
L 190.838183 354.73444 
L 191.865289 355.33543 
L 196.186075 357.777979 
L 196.734887 357.904218 
L 197.076562 358.222583 
L 197.990203 358.558997 
L 198.774891 358.995729 
L 199.220837 359.173382 
L 200.381318 359.931476 
L 201.159561 360.497916 
L 202.306337 361.347238 
L 203.023445 361.938364 
L 203.544503 362.379333 
L 203.760662 362.548026 
L 203.960247 362.860841 
L 204.71314 363.422686 
L 205.457034 364.057164 
L 208.461061 366.375193 
L 212.668115 369.061958 
L 214.307627 370.462416 
L 215.674802 371.168621 
L 216.958215 371.588072 
L 219.754908 371.90404 
L 221.245287 371.706728 
L 222.673982 371.424156 
L 222.673982 371.424156 
" clip-path="url(#pb96ac82c4e)" style="fill: none; stroke: #ff0000; stroke-width: 2; stroke-linecap: square"/>
   </g>
   <g id="line2d_24">
    <path d="M 224.026811 368.812776 
L 224.005655 368.795914 
L 224.265453 368.788509 
L 225.827766 368.481685 
L 226.946808 368.333402 
L 236.356139 366.61285 
L 238.69565 366.360492 
L 240.196934 366.103444 
L 245.810221 365.476843 
L 246.711018 365.403027 
L 247.830028 365.323127 
L 250.084721 365.350585 
L 250.886588 365.329446 
L 251.683964 365.4231 
L 252.755345 365.500377 
L 257.53738 365.521517 
L 264.773784 365.976435 
L 266.701649 366.153861 
L 269.93642 366.393401 
L 273.42152 366.784635 
L 287.742543 368.03326 
L 288.898721 368.159185 
L 290.545024 368.302163 
L 291.838907 368.441105 
L 293.193941 368.515863 
L 306.44585 369.556529 
L 308.542912 369.779467 
L 309.443226 369.830873 
L 311.581087 370.040333 
L 313.948462 370.258011 
L 317.455607 370.586692 
L 318.72732 370.591056 
L 320.258585 370.702444 
L 322.021869 370.680728 
L 328.18769 370.507466 
L 329.575062 370.463422 
L 344.367573 370.169565 
L 345.493945 370.150125 
L 347.492969 370.033396 
L 350.9808 369.881948 
L 352.182604 369.772769 
L 354.026674 369.603306 
L 370.608728 367.994562 
L 371.758153 367.851875 
L 376.311735 367.552126 
L 378.492244 367.464722 
L 381.045346 367.417518 
L 384.864653 367.466263 
L 386.650607 367.470937 
L 396.253724 367.038094 
L 399.563101 366.59122 
L 406.939296 365.511688 
L 409.158848 365.121342 
L 410.915701 364.813575 
L 419.493201 363.409175 
L 422.133993 363.272801 
L 424.070076 363.259408 
L 424.766352 363.17724 
L 425.476225 363.171217 
L 426.194112 363.127974 
L 427.383576 363.013167 
L 429.823792 362.834975 
L 434.884234 362.477568 
L 440.959944 361.548615 
L 443.887912 360.981817 
L 446.14754 360.559715 
L 451.472269 359.416312 
L 452.81521 359.149517 
L 454.927965 358.666599 
L 456.758881 358.260125 
L 463.367698 356.432587 
L 471.095263 353.976382 
L 473.742548 353.016667 
L 484.38384 349.225443 
L 486.754135 347.707924 
L 487.585799 346.661922 
L 488.587706 344.865366 
L 489.244504 343.507158 
L 490.623736 341.741826 
L 491.780295 340.590929 
L 495.609599 336.397552 
L 495.883032 335.374184 
L 495.660762 334.682593 
L 495.038425 334.219877 
L 494.647902 334.01912 
L 491.849975 333.408321 
L 488.041097 333.138041 
L 485.187141 333.069668 
L 481.020666 332.892554 
L 478.789778 332.820344 
L 466.059452 332.494781 
L 463.061476 331.859155 
L 462.050553 331.231604 
L 461.537973 330.40691 
L 461.512667 330.054228 
L 461.409113 329.805356 
L 461.19372 329.384493 
L 461.036938 328.8555 
L 460.840345 327.956391 
L 460.852766 326.360556 
L 460.914908 326.125965 
L 461.13069 325.549055 
L 461.281295 325.233293 
L 461.525789 324.662505 
L 461.868895 324.039738 
L 461.901376 323.733298 
L 462.13726 323.445028 
L 462.229229 323.131299 
L 462.341794 323.009621 
L 462.592055 322.313204 
L 464.254646 319.249751 
L 464.469302 319.044637 
L 464.782366 318.500688 
L 465.115491 318.071935 
L 465.741464 317.278098 
L 466.012842 316.937528 
L 466.288275 316.444516 
L 466.693055 315.612101 
L 466.759073 315.353358 
L 466.831083 315.133109 
L 466.867568 314.928018 
L 467.04584 314.62716 
L 467.26902 313.834296 
L 467.352248 313.686222 
L 467.348142 313.197561 
L 467.429715 312.922472 
L 467.476562 312.687147 
L 467.464162 312.448596 
L 467.900576 311.538003 
L 468.024216 311.250616 
L 468.093754 311.084383 
L 468.246106 310.85242 
L 468.320395 310.56082 
L 468.451611 310.243623 
L 468.563349 309.883089 
L 468.752057 309.551609 
L 469.369203 308.679421 
L 469.730838 308.241324 
L 469.914829 308.06698 
L 471.079502 307.085891 
L 472.144572 306.163793 
L 484.38147 296.919354 
L 487.767111 295.102409 
L 488.465159 294.732075 
L 489.964297 293.946224 
L 490.496194 293.649786 
L 491.349148 293.121111 
L 491.922255 292.855059 
L 492.125239 292.703902 
L 492.458167 292.323098 
L 492.744267 291.940084 
L 492.740995 291.595772 
L 492.584047 291.215474 
L 490.942 290.630257 
L 488.403258 290.378036 
L 486.456271 290.530209 
L 484.694288 290.921697 
L 479.836286 292.765977 
L 471.845685 295.855136 
L 464.969573 298.934792 
L 464.099826 299.399024 
L 463.244937 299.853528 
L 460.157237 301.707771 
L 454.660384 305.753127 
L 453.422517 306.7381 
L 449.002886 309.547994 
L 447.83962 310.204101 
L 446.065531 311.186629 
L 444.739328 311.879279 
L 443.675791 312.46764 
L 442.824208 312.949689 
L 434.660489 317.97529 
L 432.578899 319.259695 
L 423.353207 324.306434 
L 422.327945 324.667098 
L 421.856763 324.922433 
L 420.388855 325.467322 
L 419.706355 325.654409 
L 419.192878 325.842969 
L 416.294483 326.615239 
L 413.493871 327.327438 
L 405.146088 328.823011 
L 392.553614 330.305512 
L 388.697061 330.651429 
L 371.913482 332.012267 
L 370.118405 332.139525 
L 361.177476 332.805915 
L 342.857038 333.641399 
L 334.884899 333.683504 
L 330.234868 333.508192 
L 325.971233 333.328042 
L 304.528469 332.870073 
L 303.266815 332.840086 
L 302.197753 332.778843 
L 300.575287 332.778099 
L 293.702996 332.444601 
L 285.223659 330.949235 
L 280.397432 329.40419 
L 279.19929 328.842854 
L 277.564103 327.773857 
L 276.229492 326.766683 
L 275.402336 326.229855 
L 274.599927 325.688844 
L 271.891163 324.353962 
L 269.730508 323.77932 
L 262.85911 323.440292 
L 260.680135 323.62674 
L 254.954527 324.181293 
L 243.212633 326.182685 
L 240.140148 327.048461 
L 237.797057 327.766756 
L 234.185437 329.087469 
L 223.045458 333.568277 
L 220.590993 334.565408 
L 220.13663 334.685373 
L 219.071234 335.154529 
L 218.765362 335.211678 
L 218.226958 335.526751 
L 207.481051 338.996677 
L 206.199927 339.274848 
L 204.959265 339.675822 
L 202.800885 340.171446 
L 191.109755 342.71223 
L 186.939339 343.903478 
L 185.281506 344.612087 
L 183.642246 345.557654 
L 182.652454 346.284003 
L 182.238747 346.904501 
L 182.014274 347.908064 
L 182.476472 348.89213 
L 183.719774 349.762674 
L 184.498585 350.08192 
L 184.770888 350.247629 
L 185.100914 350.320075 
L 185.781408 350.429694 
L 186.373618 350.712026 
L 187.131835 351.010998 
L 187.370367 351.167878 
L 187.759151 351.177883 
L 188.133986 351.547662 
L 189.162733 351.975637 
L 189.369232 352.220079 
L 189.693169 352.271685 
L 189.875155 352.456198 
L 190.126198 352.561024 
L 190.648871 352.994723 
L 190.902355 353.09774 
L 192.579566 354.183392 
L 193.371769 354.701919 
L 193.76422 354.923479 
L 195.06094 355.690694 
L 195.792847 356.062411 
L 197.423888 356.863478 
L 197.726931 357.072235 
L 198.56769 357.450193 
L 200.015271 358.28329 
L 202.576901 360.132966 
L 203.740291 361.184938 
L 204.174037 361.620757 
L 204.596406 361.990782 
L 205.600094 362.895231 
L 207.371302 364.455059 
L 208.082783 365.022035 
L 210.161696 366.330154 
L 210.953357 366.758615 
L 215.285669 370.099497 
L 216.09562 370.43123 
L 217.519703 370.801434 
L 217.984194 370.921874 
L 219.57753 371.036642 
L 220.383362 370.986345 
L 221.078804 370.879021 
L 221.910563 370.71369 
L 222.594797 370.55939 
L 222.591648 370.56505 
" clip-path="url(#pb96ac82c4e)" style="fill: none; stroke: #0000ff; stroke-width: 2; stroke-linecap: square"/>
   </g>
   <g id="Path3DCollection_1">
    <defs>
     <path id="md1d2ad8123" d="M 0 -5 
L -1.12257 -1.545085 
L -4.755283 -1.545085 
L -1.816356 0.59017 
L -2.938926 4.045085 
L -0 1.90983 
L 2.938926 4.045085 
L 1.816356 0.59017 
L 4.755283 -1.545085 
L 1.12257 -1.545085 
z
" style="stroke: #ff0000"/>
    </defs>
    <g clip-path="url(#pb96ac82c4e)">
     <use xlink:href="#md1d2ad8123" x="224.020095" y="368.814716" style="fill: #ff0000; stroke: #ff0000"/>
    </g>
   </g>
   <g id="legend_1">
    <g id="patch_6">
     <path d="M 74.2475 107.5846 
L 589.9525 107.5846 
Q 593.1525 107.5846 593.1525 104.3846 
L 593.1525 60.7396 
Q 593.1525 57.5396 589.9525 57.5396 
L 74.2475 57.5396 
Q 71.0475 57.5396 71.0475 60.7396 
L 71.0475 104.3846 
Q 71.0475 107.5846 74.2475 107.5846 
z
" style="fill: #ffffff; opacity: 0.8; stroke: #cccccc; stroke-linejoin: miter"/>
    </g>
    <g id="line2d_25">
     <g>
      <use xlink:href="#mf2b03cdc0f" x="93.4475" y="69.5396" style="fill: #ff0000; stroke: #ff0000; stroke-linejoin: bevel"/>
     </g>
    </g>
    <g id="text_21">
     <!-- Start -->
     <g transform="translate(122.2475 75.1396) scale(0.16 -0.16)">
      <defs>
       <path id="TimesNewRomanPSMT-53" d="M 2934 4334 
L 2934 2869 
L 2819 2869 
Q 2763 3291 2617 3541 
Q 2472 3791 2203 3937 
Q 1934 4084 1647 4084 
Q 1322 4084 1109 3886 
Q 897 3688 897 3434 
Q 897 3241 1031 3081 
Q 1225 2847 1953 2456 
Q 2547 2138 2764 1967 
Q 2981 1797 3098 1565 
Q 3216 1334 3216 1081 
Q 3216 600 2842 251 
Q 2469 -97 1881 -97 
Q 1697 -97 1534 -69 
Q 1438 -53 1133 45 
Q 828 144 747 144 
Q 669 144 623 97 
Q 578 50 556 -97 
L 441 -97 
L 441 1356 
L 556 1356 
Q 638 900 775 673 
Q 913 447 1195 297 
Q 1478 147 1816 147 
Q 2206 147 2432 353 
Q 2659 559 2659 841 
Q 2659 997 2573 1156 
Q 2488 1316 2306 1453 
Q 2184 1547 1640 1851 
Q 1097 2156 867 2337 
Q 638 2519 519 2737 
Q 400 2956 400 3219 
Q 400 3675 750 4004 
Q 1100 4334 1641 4334 
Q 1978 4334 2356 4169 
Q 2531 4091 2603 4091 
Q 2684 4091 2736 4139 
Q 2788 4188 2819 4334 
L 2934 4334 
z
" transform="scale(0.015625)"/>
       <path id="TimesNewRomanPSMT-74" d="M 1031 3803 
L 1031 2863 
L 1700 2863 
L 1700 2644 
L 1031 2644 
L 1031 788 
Q 1031 509 1111 412 
Q 1191 316 1316 316 
Q 1419 316 1516 380 
Q 1613 444 1666 569 
L 1788 569 
Q 1678 263 1478 108 
Q 1278 -47 1066 -47 
Q 922 -47 784 33 
Q 647 113 581 261 
Q 516 409 516 719 
L 516 2644 
L 63 2644 
L 63 2747 
Q 234 2816 414 2980 
Q 594 3144 734 3369 
Q 806 3488 934 3803 
L 1031 3803 
z
" transform="scale(0.015625)"/>
       <path id="TimesNewRomanPSMT-61" d="M 1822 413 
Q 1381 72 1269 19 
Q 1100 -59 909 -59 
Q 613 -59 420 144 
Q 228 347 228 678 
Q 228 888 322 1041 
Q 450 1253 767 1440 
Q 1084 1628 1822 1897 
L 1822 2009 
Q 1822 2438 1686 2597 
Q 1550 2756 1291 2756 
Q 1094 2756 978 2650 
Q 859 2544 859 2406 
L 866 2225 
Q 866 2081 792 2003 
Q 719 1925 600 1925 
Q 484 1925 411 2006 
Q 338 2088 338 2228 
Q 338 2497 613 2722 
Q 888 2947 1384 2947 
Q 1766 2947 2009 2819 
Q 2194 2722 2281 2516 
Q 2338 2381 2338 1966 
L 2338 994 
Q 2338 584 2353 492 
Q 2369 400 2405 369 
Q 2441 338 2488 338 
Q 2538 338 2575 359 
Q 2641 400 2828 588 
L 2828 413 
Q 2478 -56 2159 -56 
Q 2006 -56 1915 50 
Q 1825 156 1822 413 
z
M 1822 616 
L 1822 1706 
Q 1350 1519 1213 1441 
Q 966 1303 859 1153 
Q 753 1003 753 825 
Q 753 600 887 451 
Q 1022 303 1197 303 
Q 1434 303 1822 616 
z
" transform="scale(0.015625)"/>
       <path id="TimesNewRomanPSMT-72" d="M 1038 2947 
L 1038 2303 
Q 1397 2947 1775 2947 
Q 1947 2947 2059 2842 
Q 2172 2738 2172 2600 
Q 2172 2478 2090 2393 
Q 2009 2309 1897 2309 
Q 1788 2309 1652 2417 
Q 1516 2525 1450 2525 
Q 1394 2525 1328 2463 
Q 1188 2334 1038 2041 
L 1038 669 
Q 1038 431 1097 309 
Q 1138 225 1241 169 
Q 1344 113 1538 113 
L 1538 0 
L 72 0 
L 72 113 
Q 291 113 397 181 
Q 475 231 506 341 
Q 522 394 522 644 
L 522 1753 
Q 522 2253 501 2348 
Q 481 2444 426 2487 
Q 372 2531 291 2531 
Q 194 2531 72 2484 
L 41 2597 
L 906 2947 
L 1038 2947 
z
" transform="scale(0.015625)"/>
      </defs>
      <use xlink:href="#TimesNewRomanPSMT-53"/>
      <use xlink:href="#TimesNewRomanPSMT-74" x="55.615234"/>
      <use xlink:href="#TimesNewRomanPSMT-61" x="83.398438"/>
      <use xlink:href="#TimesNewRomanPSMT-72" x="127.783203"/>
      <use xlink:href="#TimesNewRomanPSMT-74" x="161.083984"/>
     </g>
    </g>
    <g id="patch_7">
     <path d="M 77.4475 97.7621 
L 109.4475 97.7621 
L 109.4475 86.5621 
L 77.4475 86.5621 
L 77.4475 97.7621 
z
" style="fill: none"/>
    </g>
    <g id="line2d_26">
     <path d="M 184.465 69.5396 
L 200.465 69.5396 
L 216.465 69.5396 
" style="fill: none; stroke-dasharray: 10.175,4.4; stroke-dashoffset: 0; stroke: #808a87; stroke-width: 2.75"/>
    </g>
    <g id="text_22">
     <!-- GroundTruth -->
     <g transform="translate(229.265 75.1396) scale(0.16 -0.16)">
      <defs>
       <path id="TimesNewRomanPSMT-47" d="M 3928 4334 
L 4038 2997 
L 3928 2997 
Q 3763 3497 3500 3750 
Q 3122 4116 2528 4116 
Q 1719 4116 1297 3475 
Q 944 2934 944 2188 
Q 944 1581 1178 1081 
Q 1413 581 1792 348 
Q 2172 116 2572 116 
Q 2806 116 3025 175 
Q 3244 234 3447 350 
L 3447 1575 
Q 3447 1894 3398 1992 
Q 3350 2091 3248 2142 
Q 3147 2194 2891 2194 
L 2891 2313 
L 4531 2313 
L 4531 2194 
L 4453 2194 
Q 4209 2194 4119 2031 
Q 4056 1916 4056 1575 
L 4056 278 
Q 3697 84 3347 -6 
Q 2997 -97 2569 -97 
Q 1341 -97 703 691 
Q 225 1281 225 2053 
Q 225 2613 494 3125 
Q 813 3734 1369 4063 
Q 1834 4334 2469 4334 
Q 2700 4334 2889 4296 
Q 3078 4259 3425 4131 
Q 3600 4066 3659 4066 
Q 3719 4066 3761 4120 
Q 3803 4175 3813 4334 
L 3928 4334 
z
" transform="scale(0.015625)"/>
       <path id="TimesNewRomanPSMT-6f" d="M 1600 2947 
Q 2250 2947 2644 2453 
Q 2978 2031 2978 1484 
Q 2978 1100 2793 706 
Q 2609 313 2286 112 
Q 1963 -88 1566 -88 
Q 919 -88 538 428 
Q 216 863 216 1403 
Q 216 1797 411 2186 
Q 606 2575 925 2761 
Q 1244 2947 1600 2947 
z
M 1503 2744 
Q 1338 2744 1170 2645 
Q 1003 2547 900 2300 
Q 797 2053 797 1666 
Q 797 1041 1045 587 
Q 1294 134 1700 134 
Q 2003 134 2200 384 
Q 2397 634 2397 1244 
Q 2397 2006 2069 2444 
Q 1847 2744 1503 2744 
z
" transform="scale(0.015625)"/>
       <path id="TimesNewRomanPSMT-75" d="M 2709 2863 
L 2709 1128 
Q 2709 631 2732 520 
Q 2756 409 2807 365 
Q 2859 322 2928 322 
Q 3025 322 3147 375 
L 3191 266 
L 2334 -88 
L 2194 -88 
L 2194 519 
Q 1825 119 1631 15 
Q 1438 -88 1222 -88 
Q 981 -88 804 51 
Q 628 191 559 409 
Q 491 628 491 1028 
L 491 2306 
Q 491 2509 447 2587 
Q 403 2666 317 2708 
Q 231 2750 6 2747 
L 6 2863 
L 1009 2863 
L 1009 947 
Q 1009 547 1148 422 
Q 1288 297 1484 297 
Q 1619 297 1789 381 
Q 1959 466 2194 703 
L 2194 2325 
Q 2194 2569 2105 2655 
Q 2016 2741 1734 2747 
L 1734 2863 
L 2709 2863 
z
" transform="scale(0.015625)"/>
       <path id="TimesNewRomanPSMT-6e" d="M 1034 2341 
Q 1538 2947 1994 2947 
Q 2228 2947 2397 2830 
Q 2566 2713 2666 2444 
Q 2734 2256 2734 1869 
L 2734 647 
Q 2734 375 2778 278 
Q 2813 200 2889 156 
Q 2966 113 3172 113 
L 3172 0 
L 1756 0 
L 1756 113 
L 1816 113 
Q 2016 113 2095 173 
Q 2175 234 2206 353 
Q 2219 400 2219 647 
L 2219 1819 
Q 2219 2209 2117 2386 
Q 2016 2563 1775 2563 
Q 1403 2563 1034 2156 
L 1034 647 
Q 1034 356 1069 288 
Q 1113 197 1189 155 
Q 1266 113 1500 113 
L 1500 0 
L 84 0 
L 84 113 
L 147 113 
Q 366 113 442 223 
Q 519 334 519 647 
L 519 1709 
Q 519 2225 495 2337 
Q 472 2450 423 2490 
Q 375 2531 294 2531 
Q 206 2531 84 2484 
L 38 2597 
L 900 2947 
L 1034 2947 
L 1034 2341 
z
" transform="scale(0.015625)"/>
       <path id="TimesNewRomanPSMT-64" d="M 2222 322 
Q 2013 103 1813 7 
Q 1613 -88 1381 -88 
Q 913 -88 563 304 
Q 213 697 213 1313 
Q 213 1928 600 2439 
Q 988 2950 1597 2950 
Q 1975 2950 2222 2709 
L 2222 3238 
Q 2222 3728 2198 3840 
Q 2175 3953 2125 3993 
Q 2075 4034 2000 4034 
Q 1919 4034 1784 3984 
L 1744 4094 
L 2597 4444 
L 2738 4444 
L 2738 1134 
Q 2738 631 2761 520 
Q 2784 409 2836 365 
Q 2888 322 2956 322 
Q 3041 322 3181 375 
L 3216 266 
L 2366 -88 
L 2222 -88 
L 2222 322 
z
M 2222 541 
L 2222 2016 
Q 2203 2228 2109 2403 
Q 2016 2578 1861 2667 
Q 1706 2756 1559 2756 
Q 1284 2756 1069 2509 
Q 784 2184 784 1559 
Q 784 928 1059 592 
Q 1334 256 1672 256 
Q 1956 256 2222 541 
z
" transform="scale(0.015625)"/>
       <path id="TimesNewRomanPSMT-54" d="M 3703 4238 
L 3750 3244 
L 3631 3244 
Q 3597 3506 3538 3619 
Q 3441 3800 3280 3886 
Q 3119 3972 2856 3972 
L 2259 3972 
L 2259 734 
Q 2259 344 2344 247 
Q 2463 116 2709 116 
L 2856 116 
L 2856 0 
L 1059 0 
L 1059 116 
L 1209 116 
Q 1478 116 1591 278 
Q 1659 378 1659 734 
L 1659 3972 
L 1150 3972 
Q 853 3972 728 3928 
Q 566 3869 450 3700 
Q 334 3531 313 3244 
L 194 3244 
L 244 4238 
L 3703 4238 
z
" transform="scale(0.015625)"/>
       <path id="TimesNewRomanPSMT-68" d="M 1041 4444 
L 1041 2350 
Q 1388 2731 1591 2839 
Q 1794 2947 1997 2947 
Q 2241 2947 2416 2812 
Q 2591 2678 2675 2391 
Q 2734 2191 2734 1659 
L 2734 647 
Q 2734 375 2778 275 
Q 2809 200 2884 156 
Q 2959 113 3159 113 
L 3159 0 
L 1753 0 
L 1753 113 
L 1819 113 
Q 2019 113 2097 173 
Q 2175 234 2206 353 
Q 2216 403 2216 647 
L 2216 1659 
Q 2216 2128 2167 2275 
Q 2119 2422 2012 2495 
Q 1906 2569 1756 2569 
Q 1603 2569 1437 2487 
Q 1272 2406 1041 2159 
L 1041 647 
Q 1041 353 1073 281 
Q 1106 209 1195 161 
Q 1284 113 1503 113 
L 1503 0 
L 84 0 
L 84 113 
Q 275 113 384 172 
Q 447 203 484 290 
Q 522 378 522 647 
L 522 3238 
Q 522 3728 498 3840 
Q 475 3953 426 3993 
Q 378 4034 297 4034 
Q 231 4034 84 3984 
L 41 4094 
L 897 4444 
L 1041 4444 
z
" transform="scale(0.015625)"/>
      </defs>
      <use xlink:href="#TimesNewRomanPSMT-47"/>
      <use xlink:href="#TimesNewRomanPSMT-72" x="72.216797"/>
      <use xlink:href="#TimesNewRomanPSMT-6f" x="105.517578"/>
      <use xlink:href="#TimesNewRomanPSMT-75" x="155.517578"/>
      <use xlink:href="#TimesNewRomanPSMT-6e" x="205.517578"/>
      <use xlink:href="#TimesNewRomanPSMT-64" x="255.517578"/>
      <use xlink:href="#TimesNewRomanPSMT-54" x="305.517578"/>
      <use xlink:href="#TimesNewRomanPSMT-72" x="363.101562"/>
      <use xlink:href="#TimesNewRomanPSMT-75" x="396.402344"/>
      <use xlink:href="#TimesNewRomanPSMT-74" x="446.402344"/>
      <use xlink:href="#TimesNewRomanPSMT-68" x="474.185547"/>
     </g>
    </g>
    <g id="line2d_27">
     <path d="M 345.1325 69.5396 
L 361.1325 69.5396 
L 377.1325 69.5396 
" style="fill: none; stroke: #ff0000; stroke-width: 2; stroke-linecap: square"/>
    </g>
    <g id="text_23">
     <!-- ROLO -->
     <g transform="translate(389.9325 75.1396) scale(0.16 -0.16)">
      <defs>
       <path id="TimesNewRomanPSMT-52" d="M 4325 0 
L 3194 0 
L 1759 1981 
Q 1600 1975 1500 1975 
Q 1459 1975 1412 1976 
Q 1366 1978 1316 1981 
L 1316 750 
Q 1316 350 1403 253 
Q 1522 116 1759 116 
L 1925 116 
L 1925 0 
L 109 0 
L 109 116 
L 269 116 
Q 538 116 653 291 
Q 719 388 719 750 
L 719 3488 
Q 719 3888 631 3984 
Q 509 4122 269 4122 
L 109 4122 
L 109 4238 
L 1653 4238 
Q 2328 4238 2648 4139 
Q 2969 4041 3192 3777 
Q 3416 3513 3416 3147 
Q 3416 2756 3161 2468 
Q 2906 2181 2372 2063 
L 3247 847 
Q 3547 428 3762 290 
Q 3978 153 4325 116 
L 4325 0 
z
M 1316 2178 
Q 1375 2178 1419 2176 
Q 1463 2175 1491 2175 
Q 2097 2175 2405 2437 
Q 2713 2700 2713 3106 
Q 2713 3503 2464 3751 
Q 2216 4000 1806 4000 
Q 1625 4000 1316 3941 
L 1316 2178 
z
" transform="scale(0.015625)"/>
       <path id="TimesNewRomanPSMT-4f" d="M 2341 4334 
Q 3166 4334 3770 3707 
Q 4375 3081 4375 2144 
Q 4375 1178 3765 540 
Q 3156 -97 2291 -97 
Q 1416 -97 820 525 
Q 225 1147 225 2134 
Q 225 3144 913 3781 
Q 1509 4334 2341 4334 
z
M 2281 4106 
Q 1713 4106 1369 3684 
Q 941 3159 941 2147 
Q 941 1109 1384 550 
Q 1725 125 2284 125 
Q 2881 125 3270 590 
Q 3659 1056 3659 2059 
Q 3659 3147 3231 3681 
Q 2888 4106 2281 4106 
z
" transform="scale(0.015625)"/>
       <path id="TimesNewRomanPSMT-4c" d="M 3669 1172 
L 3772 1150 
L 3409 0 
L 128 0 
L 128 116 
L 288 116 
Q 556 116 672 291 
Q 738 391 738 753 
L 738 3488 
Q 738 3884 650 3984 
Q 528 4122 288 4122 
L 128 4122 
L 128 4238 
L 2047 4238 
L 2047 4122 
Q 1709 4125 1573 4059 
Q 1438 3994 1388 3894 
Q 1338 3794 1338 3416 
L 1338 753 
Q 1338 494 1388 397 
Q 1425 331 1503 300 
Q 1581 269 1991 269 
L 2300 269 
Q 2788 269 2984 341 
Q 3181 413 3343 595 
Q 3506 778 3669 1172 
z
" transform="scale(0.015625)"/>
      </defs>
      <use xlink:href="#TimesNewRomanPSMT-52"/>
      <use xlink:href="#TimesNewRomanPSMT-4f" x="66.699219"/>
      <use xlink:href="#TimesNewRomanPSMT-4c" x="138.916016"/>
      <use xlink:href="#TimesNewRomanPSMT-4f" x="200"/>
     </g>
    </g>
    <g id="line2d_28">
     <path d="M 465.4875 69.5396 
L 481.4875 69.5396 
L 497.4875 69.5396 
" style="fill: none; stroke: #0000ff; stroke-width: 2; stroke-linecap: square"/>
    </g>
    <g id="text_24">
     <!-- FAST-LIO2 -->
     <g transform="translate(510.2875 75.1396) scale(0.16 -0.16)">
      <defs>
       <path id="TimesNewRomanPSMT-46" d="M 1309 4006 
L 1309 2341 
L 2081 2341 
Q 2347 2341 2470 2458 
Q 2594 2575 2634 2922 
L 2750 2922 
L 2750 1488 
L 2634 1488 
Q 2631 1734 2570 1850 
Q 2509 1966 2401 2023 
Q 2294 2081 2081 2081 
L 1309 2081 
L 1309 750 
Q 1309 428 1350 325 
Q 1381 247 1481 191 
Q 1619 116 1769 116 
L 1922 116 
L 1922 0 
L 103 0 
L 103 116 
L 253 116 
Q 516 116 634 269 
Q 709 369 709 750 
L 709 3488 
Q 709 3809 669 3913 
Q 638 3991 541 4047 
Q 406 4122 253 4122 
L 103 4122 
L 103 4238 
L 3256 4238 
L 3297 3306 
L 3188 3306 
Q 3106 3603 2998 3742 
Q 2891 3881 2733 3943 
Q 2575 4006 2244 4006 
L 1309 4006 
z
" transform="scale(0.015625)"/>
       <path id="TimesNewRomanPSMT-41" d="M 2928 1419 
L 1288 1419 
L 1000 750 
Q 894 503 894 381 
Q 894 284 986 211 
Q 1078 138 1384 116 
L 1384 0 
L 50 0 
L 50 116 
Q 316 163 394 238 
Q 553 388 747 847 
L 2238 4334 
L 2347 4334 
L 3822 809 
Q 4000 384 4145 257 
Q 4291 131 4550 116 
L 4550 0 
L 2878 0 
L 2878 116 
Q 3131 128 3220 200 
Q 3309 272 3309 375 
Q 3309 513 3184 809 
L 2928 1419 
z
M 2841 1650 
L 2122 3363 
L 1384 1650 
L 2841 1650 
z
" transform="scale(0.015625)"/>
       <path id="TimesNewRomanPSMT-2d" d="M 259 1672 
L 1875 1672 
L 1875 1200 
L 259 1200 
L 259 1672 
z
" transform="scale(0.015625)"/>
       <path id="TimesNewRomanPSMT-49" d="M 1975 116 
L 1975 0 
L 159 0 
L 159 116 
L 309 116 
Q 572 116 691 269 
Q 766 369 766 750 
L 766 3488 
Q 766 3809 725 3913 
Q 694 3991 597 4047 
Q 459 4122 309 4122 
L 159 4122 
L 159 4238 
L 1975 4238 
L 1975 4122 
L 1822 4122 
Q 1563 4122 1444 3969 
Q 1366 3869 1366 3488 
L 1366 750 
Q 1366 428 1406 325 
Q 1438 247 1538 191 
Q 1672 116 1822 116 
L 1975 116 
z
" transform="scale(0.015625)"/>
       <path id="TimesNewRomanPSMT-32" d="M 2934 816 
L 2638 0 
L 138 0 
L 138 116 
Q 1241 1122 1691 1759 
Q 2141 2397 2141 2925 
Q 2141 3328 1894 3587 
Q 1647 3847 1303 3847 
Q 991 3847 742 3664 
Q 494 3481 375 3128 
L 259 3128 
Q 338 3706 661 4015 
Q 984 4325 1469 4325 
Q 1984 4325 2329 3994 
Q 2675 3663 2675 3213 
Q 2675 2891 2525 2569 
Q 2294 2063 1775 1497 
Q 997 647 803 472 
L 1909 472 
Q 2247 472 2383 497 
Q 2519 522 2628 598 
Q 2738 675 2819 816 
L 2934 816 
z
" transform="scale(0.015625)"/>
      </defs>
      <use xlink:href="#TimesNewRomanPSMT-46"/>
      <use xlink:href="#TimesNewRomanPSMT-41" x="48.240234"/>
      <use xlink:href="#TimesNewRomanPSMT-53" x="120.457031"/>
      <use xlink:href="#TimesNewRomanPSMT-54" x="176.072266"/>
      <use xlink:href="#TimesNewRomanPSMT-2d" x="228.03125"/>
      <use xlink:href="#TimesNewRomanPSMT-4c" x="261.332031"/>
      <use xlink:href="#TimesNewRomanPSMT-49" x="322.416016"/>
      <use xlink:href="#TimesNewRomanPSMT-4f" x="355.716797"/>
      <use xlink:href="#TimesNewRomanPSMT-32" x="427.933594"/>
     </g>
    </g>
   </g>
  </g>
 </g>
 <defs>
  <clipPath id="pb96ac82c4e">
   <rect x="42.12" y="43.74" width="579.96" height="579.96"/>
  </clipPath>
 </defs>
</svg>
