<?xml version="1.0" encoding="utf-8" standalone="no"?>
<!DOCTYPE svg PUBLIC "-//W3C//DTD SVG 1.1//EN"
  "http://www.w3.org/Graphics/SVG/1.1/DTD/svg11.dtd">
<svg xmlns:xlink="http://www.w3.org/1999/xlink" width="648pt" height="648pt" viewBox="0 0 648 648" xmlns="http://www.w3.org/2000/svg" version="1.1">
 <metadata>
  <rdf:RDF xmlns:dc="http://purl.org/dc/elements/1.1/" xmlns:cc="http://creativecommons.org/ns#" xmlns:rdf="http://www.w3.org/1999/02/22-rdf-syntax-ns#">
   <cc:Work>
    <dc:type rdf:resource="http://purl.org/dc/dcmitype/StillImage"/>
    <dc:date>2024-08-06T10:34:31.486359</dc:date>
    <dc:format>image/svg+xml</dc:format>
    <dc:creator>
     <cc:Agent>
      <dc:title>Matplotlib v3.8.3, https://matplotlib.org/</dc:title>
     </cc:Agent>
    </dc:creator>
   </cc:Work>
  </rdf:RDF>
 </metadata>
 <defs>
  <style type="text/css">*{stroke-linejoin: round; stroke-linecap: butt}</style>
 </defs>
 <g id="figure_1">
  <g id="patch_1">
   <path d="M 0 648 
L 648 648 
L 648 0 
L 0 0 
z
" style="fill: #ffffff"/>
  </g>
  <g id="patch_2">
   <path d="M 42.12 623.7 
L 622.08 623.7 
L 622.08 43.74 
L 42.12 43.74 
z
" style="fill: #ffffff"/>
  </g>
  <g id="pane3d_1">
   <g id="patch_3">
    <path d="M 418.573893 359.818124 
L 591.720175 489.128859 
L 600.45421 223.606827 
L 421.045552 115.164752 
" style="fill: #ffffff; stroke: #ffffff; stroke-linejoin: miter"/>
   </g>
  </g>
  <g id="pane3d_2">
   <g id="patch_4">
    <path d="M 418.573893 359.818124 
L 100.424113 419.912762 
L 92.533916 165.476041 
L 421.045552 115.164752 
" style="fill: #ffffff; stroke: #ffffff; stroke-linejoin: miter"/>
   </g>
  </g>
  <g id="pane3d_3">
   <g id="patch_5">
    <path d="M 418.573893 359.818124 
L 100.424113 419.912762 
L 248.973538 562.205097 
L 591.720175 489.128859 
" style="fill: #ffffff; stroke: #ffffff; stroke-linejoin: miter"/>
   </g>
  </g>
  <g id="grid3d_1">
   <g id="Line3DCollection_1">
    <path d="M 580.86815 491.442595 
L 408.45497 361.729466 
L 410.611865 116.762663 
" style="fill: none; stroke: #bdc3c7; stroke-width: 0.5"/>
    <path d="M 535.71366 501.069882 
L 366.383067 369.676338 
L 367.220843 123.407962 
" style="fill: none; stroke: #bdc3c7; stroke-width: 0.5"/>
    <path d="M 489.943884 510.828353 
L 323.790799 377.721502 
L 323.276029 130.138075 
" style="fill: none; stroke: #bdc3c7; stroke-width: 0.5"/>
    <path d="M 443.546159 520.720707 
L 280.668449 385.866791 
L 278.766753 136.954634 
" style="fill: none; stroke: #bdc3c7; stroke-width: 0.5"/>
    <path d="M 396.507474 530.749719 
L 237.006061 394.114087 
L 233.682069 143.859316 
" style="fill: none; stroke: #bdc3c7; stroke-width: 0.5"/>
    <path d="M 348.814453 540.918241 
L 192.793426 402.465318 
L 188.010746 150.853842 
" style="fill: none; stroke: #bdc3c7; stroke-width: 0.5"/>
    <path d="M 300.453349 551.229203 
L 148.020076 410.922461 
L 141.74126 157.939976 
" style="fill: none; stroke: #bdc3c7; stroke-width: 0.5"/>
   </g>
  </g>
  <g id="grid3d_2">
   <g id="Line3DCollection_2">
    <path d="M 440.810879 127.11174 
L 437.702885 374.104217 
L 116.767579 435.56782 
" style="fill: none; stroke: #bdc3c7; stroke-width: 0.5"/>
    <path d="M 460.996331 139.31267 
L 457.224748 388.683719 
L 133.464083 451.561047 
" style="fill: none; stroke: #bdc3c7; stroke-width: 0.5"/>
    <path d="M 481.65262 151.798192 
L 477.187621 403.592579 
L 150.555952 467.932985 
" style="fill: none; stroke: #bdc3c7; stroke-width: 0.5"/>
    <path d="M 502.796412 164.578381 
L 497.606619 418.842088 
L 168.057397 484.697247 
" style="fill: none; stroke: #bdc3c7; stroke-width: 0.5"/>
    <path d="M 524.445171 177.663795 
L 518.497555 434.444053 
L 185.983318 501.868105 
" style="fill: none; stroke: #bdc3c7; stroke-width: 0.5"/>
    <path d="M 546.617207 191.065498 
L 539.876983 450.410838 
L 204.349348 519.460534 
" style="fill: none; stroke: #bdc3c7; stroke-width: 0.5"/>
    <path d="M 569.331724 204.795099 
L 561.762238 466.75539 
L 223.171895 537.490253 
" style="fill: none; stroke: #bdc3c7; stroke-width: 0.5"/>
    <path d="M 592.608878 218.864782 
L 584.171487 483.491276 
L 242.468197 555.973769 
" style="fill: none; stroke: #bdc3c7; stroke-width: 0.5"/>
   </g>
  </g>
  <g id="grid3d_3">
   <g id="Line3DCollection_3">
    <path d="M 99.966517 405.15658 
L 418.717436 345.609751 
L 592.225904 473.754261 
" style="fill: none; stroke: #bdc3c7; stroke-width: 0.5"/>
    <path d="M 99.042842 375.370651 
L 419.007108 316.936949 
L 593.24704 442.710865 
" style="fill: none; stroke: #bdc3c7; stroke-width: 0.5"/>
    <path d="M 98.112029 345.354537 
L 419.298919 288.05251 
L 594.276476 411.415152 
" style="fill: none; stroke: #bdc3c7; stroke-width: 0.5"/>
    <path d="M 97.173994 315.10556 
L 419.592892 258.954083 
L 595.314313 379.864034 
" style="fill: none; stroke: #bdc3c7; stroke-width: 0.5"/>
    <path d="M 96.228654 284.620999 
L 419.88905 229.639281 
L 596.360654 348.05437 
" style="fill: none; stroke: #bdc3c7; stroke-width: 0.5"/>
    <path d="M 95.275923 253.898091 
L 420.187419 200.105682 
L 597.415605 315.982969 
" style="fill: none; stroke: #bdc3c7; stroke-width: 0.5"/>
    <path d="M 94.315714 222.93403 
L 420.488024 170.350826 
L 598.479272 283.646589 
" style="fill: none; stroke: #bdc3c7; stroke-width: 0.5"/>
    <path d="M 93.347938 191.725965 
L 420.790888 140.372217 
L 599.551764 251.041932 
" style="fill: none; stroke: #bdc3c7; stroke-width: 0.5"/>
   </g>
  </g>
  <g id="axis3d_1">
   <g id="line2d_1">
    <path d="M 591.720175 489.128859 
L 248.973538 562.205097 
" style="fill: none; stroke: #000000; stroke-width: 0.8; stroke-linecap: square"/>
   </g>
   <g id="xtick_1">
    <g id="line2d_2">
     <path d="M 579.351686 490.3017 
L 583.908391 493.729886 
" style="fill: none; stroke: #000000; stroke-width: 0.8; stroke-linecap: square"/>
    </g>
    <g id="text_1">
     <!-- −100 -->
     <g transform="translate(565.253495 510.0301) scale(0.14 -0.14)">
      <defs>
       <path id="DejaVuSans-2212" d="M 678 2272 
L 4684 2272 
L 4684 1741 
L 678 1741 
L 678 2272 
z
" transform="scale(0.015625)"/>
       <path id="DejaVuSans-31" d="M 794 531 
L 1825 531 
L 1825 4091 
L 703 3866 
L 703 4441 
L 1819 4666 
L 2450 4666 
L 2450 531 
L 3481 531 
L 3481 0 
L 794 0 
L 794 531 
z
" transform="scale(0.015625)"/>
       <path id="DejaVuSans-30" d="M 2034 4250 
Q 1547 4250 1301 3770 
Q 1056 3291 1056 2328 
Q 1056 1369 1301 889 
Q 1547 409 2034 409 
Q 2525 409 2770 889 
Q 3016 1369 3016 2328 
Q 3016 3291 2770 3770 
Q 2525 4250 2034 4250 
z
M 2034 4750 
Q 2819 4750 3233 4129 
Q 3647 3509 3647 2328 
Q 3647 1150 3233 529 
Q 2819 -91 2034 -91 
Q 1250 -91 836 529 
Q 422 1150 422 2328 
Q 422 3509 836 4129 
Q 1250 4750 2034 4750 
z
" transform="scale(0.015625)"/>
      </defs>
      <use xlink:href="#DejaVuSans-2212"/>
      <use xlink:href="#DejaVuSans-31" x="83.789062"/>
      <use xlink:href="#DejaVuSans-30" x="147.412109"/>
      <use xlink:href="#DejaVuSans-30" x="211.035156"/>
     </g>
    </g>
   </g>
   <g id="xtick_2">
    <g id="line2d_3">
     <path d="M 534.223399 499.9135 
L 538.701419 503.388259 
" style="fill: none; stroke: #000000; stroke-width: 0.8; stroke-linecap: square"/>
    </g>
    <g id="text_2">
     <!-- −20 -->
     <g transform="translate(524.516885 519.724121) scale(0.14 -0.14)">
      <defs>
       <path id="DejaVuSans-32" d="M 1228 531 
L 3431 531 
L 3431 0 
L 469 0 
L 469 531 
Q 828 903 1448 1529 
Q 2069 2156 2228 2338 
Q 2531 2678 2651 2914 
Q 2772 3150 2772 3378 
Q 2772 3750 2511 3984 
Q 2250 4219 1831 4219 
Q 1534 4219 1204 4116 
Q 875 4013 500 3803 
L 500 4441 
Q 881 4594 1212 4672 
Q 1544 4750 1819 4750 
Q 2544 4750 2975 4387 
Q 3406 4025 3406 3419 
Q 3406 3131 3298 2873 
Q 3191 2616 2906 2266 
Q 2828 2175 2409 1742 
Q 1991 1309 1228 531 
z
" transform="scale(0.015625)"/>
      </defs>
      <use xlink:href="#DejaVuSans-2212"/>
      <use xlink:href="#DejaVuSans-32" x="83.789062"/>
      <use xlink:href="#DejaVuSans-30" x="147.412109"/>
     </g>
    </g>
   </g>
   <g id="xtick_3">
    <g id="line2d_4">
     <path d="M 488.480682 509.656167 
L 492.877442 513.178454 
" style="fill: none; stroke: #000000; stroke-width: 0.8; stroke-linecap: square"/>
    </g>
    <g id="text_3">
     <!-- 60 -->
     <g transform="translate(484.575703 529.550414) scale(0.14 -0.14)">
      <defs>
       <path id="DejaVuSans-36" d="M 2113 2584 
Q 1688 2584 1439 2293 
Q 1191 2003 1191 1497 
Q 1191 994 1439 701 
Q 1688 409 2113 409 
Q 2538 409 2786 701 
Q 3034 994 3034 1497 
Q 3034 2003 2786 2293 
Q 2538 2584 2113 2584 
z
M 3366 4563 
L 3366 3988 
Q 3128 4100 2886 4159 
Q 2644 4219 2406 4219 
Q 1781 4219 1451 3797 
Q 1122 3375 1075 2522 
Q 1259 2794 1537 2939 
Q 1816 3084 2150 3084 
Q 2853 3084 3261 2657 
Q 3669 2231 3669 1497 
Q 3669 778 3244 343 
Q 2819 -91 2113 -91 
Q 1303 -91 875 529 
Q 447 1150 447 2328 
Q 447 3434 972 4092 
Q 1497 4750 2381 4750 
Q 2619 4750 2861 4703 
Q 3103 4656 3366 4563 
z
" transform="scale(0.015625)"/>
      </defs>
      <use xlink:href="#DejaVuSans-36"/>
      <use xlink:href="#DejaVuSans-30" x="63.623047"/>
     </g>
    </g>
   </g>
   <g id="xtick_4">
    <g id="line2d_5">
     <path d="M 442.110901 519.532391 
L 446.423741 523.103189 
" style="fill: none; stroke: #000000; stroke-width: 0.8; stroke-linecap: square"/>
    </g>
    <g id="text_4">
     <!-- 140 -->
     <g transform="translate(433.685679 539.511702) scale(0.14 -0.14)">
      <defs>
       <path id="DejaVuSans-34" d="M 2419 4116 
L 825 1625 
L 2419 1625 
L 2419 4116 
z
M 2253 4666 
L 3047 4666 
L 3047 1625 
L 3713 1625 
L 3713 1100 
L 3047 1100 
L 3047 0 
L 2419 0 
L 2419 1100 
L 313 1100 
L 313 1709 
L 2253 4666 
z
" transform="scale(0.015625)"/>
      </defs>
      <use xlink:href="#DejaVuSans-31"/>
      <use xlink:href="#DejaVuSans-34" x="63.623047"/>
      <use xlink:href="#DejaVuSans-30" x="127.246094"/>
     </g>
    </g>
   </g>
   <g id="xtick_5">
    <g id="line2d_6">
     <path d="M 395.101073 529.544937 
L 399.327246 533.165255 
" style="fill: none; stroke: #000000; stroke-width: 0.8; stroke-linecap: square"/>
    </g>
    <g id="text_5">
     <!-- 220 -->
     <g transform="translate(386.607037 549.610789) scale(0.14 -0.14)">
      <use xlink:href="#DejaVuSans-32"/>
      <use xlink:href="#DejaVuSans-32" x="63.623047"/>
      <use xlink:href="#DejaVuSans-30" x="127.246094"/>
     </g>
    </g>
   </g>
   <g id="xtick_6">
    <g id="line2d_7">
     <path d="M 347.437855 539.696648 
L 351.574522 543.367523 
" style="fill: none; stroke: #000000; stroke-width: 0.8; stroke-linecap: square"/>
    </g>
    <g id="text_6">
     <!-- 300 -->
     <g transform="translate(338.872604 559.850553) scale(0.14 -0.14)">
      <defs>
       <path id="DejaVuSans-33" d="M 2597 2516 
Q 3050 2419 3304 2112 
Q 3559 1806 3559 1356 
Q 3559 666 3084 287 
Q 2609 -91 1734 -91 
Q 1441 -91 1130 -33 
Q 819 25 488 141 
L 488 750 
Q 750 597 1062 519 
Q 1375 441 1716 441 
Q 2309 441 2620 675 
Q 2931 909 2931 1356 
Q 2931 1769 2642 2001 
Q 2353 2234 1838 2234 
L 1294 2234 
L 1294 2753 
L 1863 2753 
Q 2328 2753 2575 2939 
Q 2822 3125 2822 3475 
Q 2822 3834 2567 4026 
Q 2313 4219 1838 4219 
Q 1578 4219 1281 4162 
Q 984 4106 628 3988 
L 628 4550 
Q 988 4650 1302 4700 
Q 1616 4750 1894 4750 
Q 2613 4750 3031 4423 
Q 3450 4097 3450 3541 
Q 3450 3153 3228 2886 
Q 3006 2619 2597 2516 
z
" transform="scale(0.015625)"/>
      </defs>
      <use xlink:href="#DejaVuSans-33"/>
      <use xlink:href="#DejaVuSans-30" x="63.623047"/>
      <use xlink:href="#DejaVuSans-30" x="127.246094"/>
     </g>
    </g>
   </g>
   <g id="xtick_7">
    <g id="line2d_8">
     <path d="M 299.107527 549.990445 
L 303.151756 553.712944 
" style="fill: none; stroke: #000000; stroke-width: 0.8; stroke-linecap: square"/>
    </g>
    <g id="text_7">
     <!-- 380 -->
     <g transform="translate(290.468582 570.233954) scale(0.14 -0.14)">
      <defs>
       <path id="DejaVuSans-38" d="M 2034 2216 
Q 1584 2216 1326 1975 
Q 1069 1734 1069 1313 
Q 1069 891 1326 650 
Q 1584 409 2034 409 
Q 2484 409 2743 651 
Q 3003 894 3003 1313 
Q 3003 1734 2745 1975 
Q 2488 2216 2034 2216 
z
M 1403 2484 
Q 997 2584 770 2862 
Q 544 3141 544 3541 
Q 544 4100 942 4425 
Q 1341 4750 2034 4750 
Q 2731 4750 3128 4425 
Q 3525 4100 3525 3541 
Q 3525 3141 3298 2862 
Q 3072 2584 2669 2484 
Q 3125 2378 3379 2068 
Q 3634 1759 3634 1313 
Q 3634 634 3220 271 
Q 2806 -91 2034 -91 
Q 1263 -91 848 271 
Q 434 634 434 1313 
Q 434 1759 690 2068 
Q 947 2378 1403 2484 
z
M 1172 3481 
Q 1172 3119 1398 2916 
Q 1625 2713 2034 2713 
Q 2441 2713 2670 2916 
Q 2900 3119 2900 3481 
Q 2900 3844 2670 4047 
Q 2441 4250 2034 4250 
Q 1625 4250 1398 4047 
Q 1172 3844 1172 3481 
z
" transform="scale(0.015625)"/>
      </defs>
      <use xlink:href="#DejaVuSans-33"/>
      <use xlink:href="#DejaVuSans-38" x="63.623047"/>
      <use xlink:href="#DejaVuSans-30" x="127.246094"/>
     </g>
    </g>
   </g>
   <g id="text_8">
    <!-- X (m) -->
    <g transform="translate(418.277329 566.372953) rotate(-12.035693) scale(0.18 -0.18)">
     <defs>
      <path id="TimesNewRomanPSMT-58" d="M 2613 2347 
L 3522 991 
Q 3900 428 4083 279 
Q 4266 131 4547 116 
L 4547 0 
L 2728 0 
L 2728 116 
Q 2909 119 2997 153 
Q 3063 181 3105 239 
Q 3147 297 3147 356 
Q 3147 428 3119 500 
Q 3097 553 2947 775 
L 2228 1863 
L 1341 725 
Q 1200 544 1172 483 
Q 1144 422 1144 356 
Q 1144 256 1228 190 
Q 1313 125 1550 116 
L 1550 0 
L 47 0 
L 47 116 
Q 206 131 322 181 
Q 516 263 691 400 
Q 866 538 1091 822 
L 2091 2084 
L 1256 3306 
Q 916 3803 678 3958 
Q 441 4113 131 4122 
L 131 4238 
L 2091 4238 
L 2091 4122 
Q 1841 4113 1748 4041 
Q 1656 3969 1656 3881 
Q 1656 3766 1806 3544 
L 2456 2572 
L 3209 3525 
Q 3341 3694 3370 3756 
Q 3400 3819 3400 3884 
Q 3400 3950 3363 4000 
Q 3316 4066 3244 4092 
Q 3172 4119 2947 4122 
L 2947 4238 
L 4450 4238 
L 4450 4122 
Q 4272 4113 4159 4066 
Q 3991 3994 3850 3872 
Q 3709 3750 3453 3422 
L 2613 2347 
z
" transform="scale(0.015625)"/>
      <path id="TimesNewRomanPSMT-20" transform="scale(0.015625)"/>
      <path id="TimesNewRomanPSMT-28" d="M 1988 -1253 
L 1988 -1369 
Q 1516 -1131 1200 -813 
Q 750 -359 506 256 
Q 263 872 263 1534 
Q 263 2503 741 3301 
Q 1219 4100 1988 4444 
L 1988 4313 
Q 1603 4100 1356 3731 
Q 1109 3363 987 2797 
Q 866 2231 866 1616 
Q 866 947 969 400 
Q 1050 -31 1165 -292 
Q 1281 -553 1476 -793 
Q 1672 -1034 1988 -1253 
z
" transform="scale(0.015625)"/>
      <path id="TimesNewRomanPSMT-6d" d="M 1050 2338 
Q 1363 2650 1419 2697 
Q 1559 2816 1721 2881 
Q 1884 2947 2044 2947 
Q 2313 2947 2506 2790 
Q 2700 2634 2766 2338 
Q 3088 2713 3309 2830 
Q 3531 2947 3766 2947 
Q 3994 2947 4170 2830 
Q 4347 2713 4450 2447 
Q 4519 2266 4519 1878 
L 4519 647 
Q 4519 378 4559 278 
Q 4591 209 4675 161 
Q 4759 113 4950 113 
L 4950 0 
L 3538 0 
L 3538 113 
L 3597 113 
Q 3781 113 3884 184 
Q 3956 234 3988 344 
Q 4000 397 4000 647 
L 4000 1878 
Q 4000 2228 3916 2372 
Q 3794 2572 3525 2572 
Q 3359 2572 3192 2489 
Q 3025 2406 2788 2181 
L 2781 2147 
L 2788 2013 
L 2788 647 
Q 2788 353 2820 281 
Q 2853 209 2943 161 
Q 3034 113 3253 113 
L 3253 0 
L 1806 0 
L 1806 113 
Q 2044 113 2133 169 
Q 2222 225 2256 338 
Q 2272 391 2272 647 
L 2272 1878 
Q 2272 2228 2169 2381 
Q 2031 2581 1784 2581 
Q 1616 2581 1450 2491 
Q 1191 2353 1050 2181 
L 1050 647 
Q 1050 366 1089 281 
Q 1128 197 1204 155 
Q 1281 113 1516 113 
L 1516 0 
L 100 0 
L 100 113 
Q 297 113 375 155 
Q 453 197 493 289 
Q 534 381 534 647 
L 534 1741 
Q 534 2213 506 2350 
Q 484 2453 437 2492 
Q 391 2531 309 2531 
Q 222 2531 100 2484 
L 53 2597 
L 916 2947 
L 1050 2947 
L 1050 2338 
z
" transform="scale(0.015625)"/>
      <path id="TimesNewRomanPSMT-29" d="M 144 4313 
L 144 4444 
Q 619 4209 934 3891 
Q 1381 3434 1625 2820 
Q 1869 2206 1869 1541 
Q 1869 572 1392 -226 
Q 916 -1025 144 -1369 
L 144 -1253 
Q 528 -1038 776 -670 
Q 1025 -303 1145 264 
Q 1266 831 1266 1447 
Q 1266 2113 1163 2663 
Q 1084 3094 967 3353 
Q 850 3613 656 3853 
Q 463 4094 144 4313 
z
" transform="scale(0.015625)"/>
     </defs>
     <use xlink:href="#TimesNewRomanPSMT-58"/>
     <use xlink:href="#TimesNewRomanPSMT-20" x="72.216797"/>
     <use xlink:href="#TimesNewRomanPSMT-28" x="97.216797"/>
     <use xlink:href="#TimesNewRomanPSMT-6d" x="130.517578"/>
     <use xlink:href="#TimesNewRomanPSMT-29" x="208.300781"/>
    </g>
   </g>
  </g>
  <g id="axis3d_2">
   <g id="line2d_9">
    <path d="M 100.424113 419.912762 
L 248.973538 562.205097 
" style="fill: none; stroke: #000000; stroke-width: 0.8; stroke-linecap: square"/>
   </g>
   <g id="xtick_8">
    <g id="line2d_10">
     <path d="M 119.454942 435.053153 
L 111.386773 436.59832 
" style="fill: none; stroke: #000000; stroke-width: 0.8; stroke-linecap: square"/>
    </g>
    <g id="text_9">
     <!-- 80 -->
     <g transform="translate(95.333274 458.12987) scale(0.14 -0.14)">
      <use xlink:href="#DejaVuSans-38"/>
      <use xlink:href="#DejaVuSans-30" x="63.623047"/>
     </g>
    </g>
   </g>
   <g id="xtick_9">
    <g id="line2d_11">
     <path d="M 136.17652 451.034267 
L 128.033004 452.615813 
" style="fill: none; stroke: #000000; stroke-width: 0.8; stroke-linecap: square"/>
    </g>
    <g id="text_10">
     <!-- 160 -->
     <g transform="translate(107.438905 474.271842) scale(0.14 -0.14)">
      <use xlink:href="#DejaVuSans-31"/>
      <use xlink:href="#DejaVuSans-36" x="63.623047"/>
      <use xlink:href="#DejaVuSans-30" x="127.246094"/>
     </g>
    </g>
   </g>
   <g id="xtick_10">
    <g id="line2d_12">
     <path d="M 153.293903 467.393659 
L 145.073713 469.012885 
" style="fill: none; stroke: #000000; stroke-width: 0.8; stroke-linecap: square"/>
    </g>
    <g id="text_11">
     <!-- 240 -->
     <g transform="translate(124.390631 490.796268) scale(0.14 -0.14)">
      <use xlink:href="#DejaVuSans-32"/>
      <use xlink:href="#DejaVuSans-34" x="63.623047"/>
      <use xlink:href="#DejaVuSans-30" x="127.246094"/>
     </g>
    </g>
   </g>
   <g id="xtick_11">
    <g id="line2d_13">
     <path d="M 170.821313 484.144922 
L 162.52309 485.80319 
" style="fill: none; stroke: #000000; stroke-width: 0.8; stroke-linecap: square"/>
    </g>
    <g id="text_12">
     <!-- 320 -->
     <g transform="translate(141.748812 507.716903) scale(0.14 -0.14)">
      <use xlink:href="#DejaVuSans-33"/>
      <use xlink:href="#DejaVuSans-32" x="63.623047"/>
      <use xlink:href="#DejaVuSans-30" x="127.246094"/>
     </g>
    </g>
   </g>
   <g id="xtick_12">
    <g id="line2d_14">
     <path d="M 188.773661 501.302306 
L 180.396015 503.001045 
" style="fill: none; stroke: #000000; stroke-width: 0.8; stroke-linecap: square"/>
    </g>
    <g id="text_13">
     <!-- 400 -->
     <g transform="translate(159.528243 525.048172) scale(0.14 -0.14)">
      <use xlink:href="#DejaVuSans-34"/>
      <use xlink:href="#DejaVuSans-30" x="63.623047"/>
      <use xlink:href="#DejaVuSans-30" x="127.246094"/>
     </g>
    </g>
   </g>
   <g id="xtick_13">
    <g id="line2d_15">
     <path d="M 207.16659 518.880762 
L 198.708099 520.621472 
" style="fill: none; stroke: #000000; stroke-width: 0.8; stroke-linecap: square"/>
    </g>
    <g id="text_14">
     <!-- 480 -->
     <g transform="translate(177.744449 542.805204) scale(0.14 -0.14)">
      <use xlink:href="#DejaVuSans-34"/>
      <use xlink:href="#DejaVuSans-38" x="63.623047"/>
      <use xlink:href="#DejaVuSans-30" x="127.246094"/>
     </g>
    </g>
   </g>
   <g id="xtick_14">
    <g id="line2d_16">
     <path d="M 226.016521 536.895982 
L 217.475729 538.680238 
" style="fill: none; stroke: #000000; stroke-width: 0.8; stroke-linecap: square"/>
    </g>
    <g id="text_15">
     <!-- 560 -->
     <g transform="translate(196.413723 561.003884) scale(0.14 -0.14)">
      <defs>
       <path id="DejaVuSans-35" d="M 691 4666 
L 3169 4666 
L 3169 4134 
L 1269 4134 
L 1269 2991 
Q 1406 3038 1543 3061 
Q 1681 3084 1819 3084 
Q 2600 3084 3056 2656 
Q 3513 2228 3513 1497 
Q 3513 744 3044 326 
Q 2575 -91 1722 -91 
Q 1428 -91 1123 -41 
Q 819 9 494 109 
L 494 744 
Q 775 591 1075 516 
Q 1375 441 1709 441 
Q 2250 441 2565 725 
Q 2881 1009 2881 1497 
Q 2881 1984 2565 2268 
Q 2250 2553 1709 2553 
Q 1456 2553 1204 2497 
Q 953 2441 691 2322 
L 691 4666 
z
" transform="scale(0.015625)"/>
      </defs>
      <use xlink:href="#DejaVuSans-35"/>
      <use xlink:href="#DejaVuSans-36" x="63.623047"/>
      <use xlink:href="#DejaVuSans-30" x="127.246094"/>
     </g>
    </g>
   </g>
   <g id="xtick_15">
    <g id="line2d_17">
     <path d="M 245.340701 555.36445 
L 236.716118 557.193907 
" style="fill: none; stroke: #000000; stroke-width: 0.8; stroke-linecap: square"/>
    </g>
    <g id="text_16">
     <!-- 640 -->
     <g transform="translate(215.553181 579.660897) scale(0.14 -0.14)">
      <use xlink:href="#DejaVuSans-36"/>
      <use xlink:href="#DejaVuSans-34" x="63.623047"/>
      <use xlink:href="#DejaVuSans-30" x="127.246094"/>
     </g>
    </g>
   </g>
   <g id="text_17">
    <!-- Y (m) -->
    <g transform="translate(117.533085 509.296533) rotate(-316.232456) scale(0.18 -0.18)">
     <defs>
      <path id="TimesNewRomanPSMT-59" d="M 3050 4238 
L 4528 4238 
L 4528 4122 
L 4447 4122 
Q 4366 4122 4209 4050 
Q 4053 3978 3925 3843 
Q 3797 3709 3609 3406 
L 2588 1797 
L 2588 734 
Q 2588 344 2675 247 
Q 2794 116 3050 116 
L 3188 116 
L 3188 0 
L 1388 0 
L 1388 116 
L 1538 116 
Q 1806 116 1919 278 
Q 1988 378 1988 734 
L 1988 1738 
L 825 3513 
Q 619 3825 545 3903 
Q 472 3981 241 4091 
Q 178 4122 59 4122 
L 59 4238 
L 1872 4238 
L 1872 4122 
L 1778 4122 
Q 1631 4122 1507 4053 
Q 1384 3984 1384 3847 
Q 1384 3734 1575 3441 
L 2459 2075 
L 3291 3381 
Q 3478 3675 3478 3819 
Q 3478 3906 3433 3975 
Q 3388 4044 3303 4083 
Q 3219 4122 3050 4122 
L 3050 4238 
z
" transform="scale(0.015625)"/>
     </defs>
     <use xlink:href="#TimesNewRomanPSMT-59"/>
     <use xlink:href="#TimesNewRomanPSMT-20" x="68.466797"/>
     <use xlink:href="#TimesNewRomanPSMT-28" x="93.466797"/>
     <use xlink:href="#TimesNewRomanPSMT-6d" x="126.767578"/>
     <use xlink:href="#TimesNewRomanPSMT-29" x="204.550781"/>
    </g>
   </g>
  </g>
  <g id="axis3d_3">
   <g id="line2d_18">
    <path d="M 100.424113 419.912762 
L 92.533916 165.476041 
" style="fill: none; stroke: #000000; stroke-width: 0.8; stroke-linecap: square"/>
   </g>
   <g id="xtick_16">
    <g id="line2d_19">
     <path d="M 102.634451 404.658175 
L 94.624672 406.154506 
" style="fill: none; stroke: #000000; stroke-width: 0.8; stroke-linecap: square"/>
    </g>
    <g id="text_18">
     <!-- −300 -->
     <g transform="translate(56.001964 412.347152) scale(0.14 -0.14)">
      <use xlink:href="#DejaVuSans-2212"/>
      <use xlink:href="#DejaVuSans-33" x="83.789062"/>
      <use xlink:href="#DejaVuSans-30" x="147.412109"/>
      <use xlink:href="#DejaVuSans-30" x="211.035156"/>
     </g>
    </g>
   </g>
   <g id="xtick_17">
    <g id="line2d_20">
     <path d="M 101.721387 374.88148 
L 93.679728 376.350094 
" style="fill: none; stroke: #000000; stroke-width: 0.8; stroke-linecap: square"/>
    </g>
    <g id="text_19">
     <!-- −220 -->
     <g transform="translate(54.98571 382.625117) scale(0.14 -0.14)">
      <use xlink:href="#DejaVuSans-2212"/>
      <use xlink:href="#DejaVuSans-32" x="83.789062"/>
      <use xlink:href="#DejaVuSans-32" x="147.412109"/>
      <use xlink:href="#DejaVuSans-30" x="211.035156"/>
     </g>
    </g>
   </g>
   <g id="xtick_18">
    <g id="line2d_21">
     <path d="M 100.801269 344.874758 
L 92.727476 346.31518 
" style="fill: none; stroke: #000000; stroke-width: 0.8; stroke-linecap: square"/>
    </g>
    <g id="text_20">
     <!-- −140 -->
     <g transform="translate(53.961622 352.673988) scale(0.14 -0.14)">
      <use xlink:href="#DejaVuSans-2212"/>
      <use xlink:href="#DejaVuSans-31" x="83.789062"/>
      <use xlink:href="#DejaVuSans-34" x="147.412109"/>
      <use xlink:href="#DejaVuSans-30" x="211.035156"/>
     </g>
    </g>
   </g>
   <g id="xtick_19">
    <g id="line2d_22">
     <path d="M 99.874017 314.635333 
L 91.76783 316.047081 
" style="fill: none; stroke: #000000; stroke-width: 0.8; stroke-linecap: square"/>
    </g>
    <g id="text_21">
     <!-- −60 -->
     <g transform="translate(57.383361 322.491105) scale(0.14 -0.14)">
      <use xlink:href="#DejaVuSans-2212"/>
      <use xlink:href="#DejaVuSans-36" x="83.789062"/>
      <use xlink:href="#DejaVuSans-30" x="147.412109"/>
     </g>
    </g>
   </g>
   <g id="xtick_20">
    <g id="line2d_23">
     <path d="M 98.939545 284.160487 
L 90.800706 285.54307 
" style="fill: none; stroke: #000000; stroke-width: 0.8; stroke-linecap: square"/>
    </g>
    <g id="text_22">
     <!-- 20 -->
     <g transform="translate(62.209114 292.07377) scale(0.14 -0.14)">
      <use xlink:href="#DejaVuSans-32"/>
      <use xlink:href="#DejaVuSans-30" x="63.623047"/>
     </g>
    </g>
   </g>
   <g id="xtick_21">
    <g id="line2d_24">
     <path d="M 97.99777 253.447461 
L 89.826013 254.800379 
" style="fill: none; stroke: #000000; stroke-width: 0.8; stroke-linecap: square"/>
    </g>
    <g id="text_23">
     <!-- 100 -->
     <g transform="translate(56.707226 261.419238) scale(0.14 -0.14)">
      <use xlink:href="#DejaVuSans-31"/>
      <use xlink:href="#DejaVuSans-30" x="63.623047"/>
      <use xlink:href="#DejaVuSans-30" x="127.246094"/>
     </g>
    </g>
   </g>
   <g id="xtick_22">
    <g id="line2d_25">
     <path d="M 97.048605 222.493452 
L 88.843665 223.816195 
" style="fill: none; stroke: #000000; stroke-width: 0.8; stroke-linecap: square"/>
    </g>
    <g id="text_24">
     <!-- 180 -->
     <g transform="translate(55.650882 230.524726) scale(0.14 -0.14)">
      <use xlink:href="#DejaVuSans-31"/>
      <use xlink:href="#DejaVuSans-38" x="63.623047"/>
      <use xlink:href="#DejaVuSans-30" x="127.246094"/>
     </g>
    </g>
   </g>
   <g id="xtick_23">
    <g id="line2d_26">
     <path d="M 96.091963 191.295612 
L 87.853569 192.587661 
" style="fill: none; stroke: #000000; stroke-width: 0.8; stroke-linecap: square"/>
    </g>
    <g id="text_25">
     <!-- 260 -->
     <g transform="translate(54.586237 199.387403) scale(0.14 -0.14)">
      <use xlink:href="#DejaVuSans-32"/>
      <use xlink:href="#DejaVuSans-36" x="63.623047"/>
      <use xlink:href="#DejaVuSans-30" x="127.246094"/>
     </g>
    </g>
   </g>
   <g id="text_26">
    <!-- Z (m) -->
    <g transform="translate(38.438137 267.363264) rotate(-271.776199) scale(0.18 -0.18)">
     <defs>
      <path id="TimesNewRomanPSMT-5a" d="M 3681 4238 
L 897 256 
L 2634 256 
Q 3034 256 3248 431 
Q 3463 606 3628 1141 
L 3731 1122 
L 3531 0 
L 81 0 
L 81 116 
L 2800 3984 
L 1444 3984 
Q 1106 3984 954 3911 
Q 803 3838 723 3698 
Q 644 3559 578 3178 
L 459 3178 
L 547 4238 
L 3681 4238 
z
" transform="scale(0.015625)"/>
     </defs>
     <use xlink:href="#TimesNewRomanPSMT-5a"/>
     <use xlink:href="#TimesNewRomanPSMT-20" x="61.083984"/>
     <use xlink:href="#TimesNewRomanPSMT-28" x="86.083984"/>
     <use xlink:href="#TimesNewRomanPSMT-6d" x="119.384766"/>
     <use xlink:href="#TimesNewRomanPSMT-29" x="197.167969"/>
    </g>
   </g>
  </g>
  <g id="axes_1">
   <g id="line2d_27">
    <defs>
     <path id="m794fef420a" d="M 0 -3 
L -0.673542 -0.927051 
L -2.85317 -0.927051 
L -1.089814 0.354102 
L -1.763356 2.427051 
L -0 1.145898 
L 1.763356 2.427051 
L 1.089814 0.354102 
L 2.85317 -0.927051 
L 0.673542 -0.927051 
z
" style="stroke: #ff0000; stroke-linejoin: bevel"/>
    </defs>
    <g clip-path="url(#pc378bb32a1)">
     <use xlink:href="#m794fef420a" x="356.069848" y="247.914736" style="fill: #ff0000; stroke: #ff0000; stroke-linejoin: bevel"/>
    </g>
   </g>
   <g id="line2d_28">
    <path d="M 356.069848 247.914736 
L 345.872151 249.749587 
L 332.601394 252.333741 
L 325.465504 253.769608 
L 320.816221 255.154025 
L 308.526973 260.029008 
L 303.029154 262.436405 
L 298.109595 264.601225 
L 292.281995 266.938267 
L 283.325377 270.491299 
L 279.128267 272.736956 
L 278.001955 273.567736 
L 277.393305 274.230065 
L 276.850464 274.937747 
L 276.511999 275.743726 
L 275.953386 277.68785 
L 275.4094 280.681008 
L 275.363085 281.776612 
L 275.511378 283.106453 
L 275.848939 284.144496 
L 276.338043 285.220672 
L 276.833289 286.063595 
L 278.481402 287.544409 
L 279.257561 288.138876 
L 281.229027 289.463439 
L 283.47323 290.696432 
L 285.360859 291.473642 
L 295.265845 295.292254 
L 307.580827 299.429644 
L 311.375407 300.265726 
L 314.677175 300.773738 
L 323.811514 301.801146 
L 327.617088 302.255785 
L 335.57966 303.627282 
L 343.344605 305.398355 
L 347.534174 306.567481 
L 348.761044 307.18602 
L 349.730819 307.911584 
L 357.127744 313.763006 
L 358.439074 315.118953 
L 358.96699 315.898408 
L 359.291027 316.915079 
L 359.223415 317.570626 
L 359.015243 318.173429 
L 358.339507 319.035833 
L 355.758948 321.431924 
L 351.733398 324.950668 
L 349.984022 326.291944 
L 349.697766 326.648248 
L 346.450594 329.124814 
L 344.847495 329.933408 
L 343.593392 330.412181 
L 341.583328 331.041089 
L 335.304388 332.899883 
L 332.281023 333.722885 
L 326.505501 335.771119 
L 324.439282 337.201162 
L 323.347822 338.317482 
L 322.818607 339.22283 
L 322.563932 339.836986 
L 322.086076 341.24496 
L 321.740018 343.198943 
L 321.722056 344.227393 
L 321.630469 345.798348 
L 321.215774 347.727552 
L 319.475501 351.151581 
L 318.660331 352.471087 
L 317.506855 354.676131 
L 317.154366 355.901082 
L 317.119524 356.910642 
L 317.313019 358.333239 
L 317.48607 359.131169 
L 318.3434 363.328355 
L 318.546769 365.83531 
L 319.251372 366.963907 
L 319.905303 367.708303 
L 321.006551 368.4412 
L 323.036653 369.445403 
L 325.358261 370.025665 
L 328.156887 370.368637 
L 332.197006 370.433603 
L 338.708439 370.286576 
L 340.347442 370.503662 
L 341.65782 370.821061 
L 343.314212 371.426387 
L 344.040621 371.96954 
L 344.507819 372.522977 
L 344.684325 373.124901 
L 344.38635 374.473643 
L 343.091709 377.290239 
L 341.986361 378.991669 
L 339.276973 382.457693 
L 338.851565 382.974999 
L 338.851565 382.974999 
" clip-path="url(#pc378bb32a1)" style="fill: none; stroke-dasharray: 7.4,3.2; stroke-dashoffset: 0; stroke: #808a87; stroke-width: 2"/>
   </g>
   <g id="line2d_29">
    <path d="M 356.069848 247.914736 
L 349.035501 249.221501 
L 339.283827 251.09787 
L 331.0576 252.676123 
L 326.270654 253.623827 
L 322.33565 254.702932 
L 316.810891 256.731691 
L 307.896814 260.276437 
L 293.806064 266.300105 
L 284.854043 269.721531 
L 280.286458 272.015803 
L 278.905319 272.833631 
L 278.186719 273.405737 
L 277.58436 274.073161 
L 277.062081 274.775684 
L 276.730567 275.581314 
L 276.173913 277.50709 
L 275.631212 281.322405 
L 275.818578 282.927131 
L 276.277317 284.254758 
L 276.809698 285.318236 
L 277.370952 286.087861 
L 279.089952 287.604489 
L 283.181133 290.217018 
L 284.221572 290.748831 
L 297.24784 295.83326 
L 306.181848 298.997009 
L 309.18752 299.842741 
L 311.726019 300.405623 
L 315.044384 300.953005 
L 320.941285 301.683898 
L 329.860752 302.857074 
L 339.200907 304.757378 
L 346.148728 306.554159 
L 348.199009 307.211425 
L 349.349793 307.824274 
L 351.016729 309.202776 
L 352.050642 310.071349 
L 353.217378 310.9423 
L 357.963894 314.789796 
L 359.155957 316.121912 
L 359.390269 316.452176 
L 359.663012 318.103169 
L 359.469318 318.682082 
L 358.799247 319.549704 
L 355.147893 322.83244 
L 349.814158 327.208411 
L 349.549902 327.481981 
L 348.713674 328.095239 
L 347.50848 328.99687 
L 346.035727 329.795428 
L 344.217636 330.477659 
L 342.212895 331.071236 
L 333.615963 333.415989 
L 331.124351 334.062201 
L 328.745178 334.793755 
L 326.299578 336.001736 
L 325.188949 336.83301 
L 324.111857 337.909594 
L 323.590025 338.789342 
L 323.345834 339.390453 
L 323.022648 340.398148 
L 322.659533 341.598473 
L 322.506806 343.404538 
L 322.449309 344.757697 
L 322.287728 346.002394 
L 321.985723 347.178891 
L 321.257507 348.680698 
L 320.261194 350.518623 
L 319.450196 351.816087 
L 318.301008 353.978171 
L 317.940977 355.183768 
L 317.898246 355.87442 
L 318.556811 359.119937 
L 318.737775 359.879149 
L 318.92173 360.666925 
L 319.185487 362.548207 
L 319.312792 364.615295 
L 319.387691 365.011938 
L 320.081823 366.140049 
L 320.718462 366.886383 
L 321.828285 367.642353 
L 323.848894 368.677819 
L 326.21113 369.307475 
L 328.982702 369.701369 
L 333.050324 369.861494 
L 339.595665 369.823697 
L 341.227437 370.064255 
L 342.547054 370.401849 
L 344.187491 371.042365 
L 345.163593 371.84949 
L 345.468458 372.436098 
L 345.554747 372.740241 
L 345.241076 374.045481 
L 343.337395 377.679256 
L 340.247464 381.458603 
L 339.603081 382.187592 
L 339.603081 382.187592 
" clip-path="url(#pc378bb32a1)" style="fill: none; stroke: #ff0000; stroke-width: 2; stroke-linecap: square"/>
   </g>
   <g id="line2d_30">
    <path d="M 356.067198 247.914822 
L 339.09122 251.21705 
L 332.479075 252.503458 
L 327.987418 253.378463 
L 322.400757 254.847407 
L 316.521487 257.047059 
L 307.064493 260.906723 
L 297.649466 265.105437 
L 293.084434 266.938446 
L 284.673234 270.231005 
L 279.380018 272.973625 
L 277.666652 274.374047 
L 276.719431 275.8692 
L 275.891241 279.08169 
L 275.58327 280.912841 
L 275.530728 282.426175 
L 275.697492 283.643506 
L 276.146699 284.984561 
L 276.947754 286.499562 
L 277.964064 287.475518 
L 279.951857 288.977998 
L 282.122737 290.393649 
L 286.881678 292.577525 
L 295.819161 296.088676 
L 297.686422 296.746217 
L 306.348386 299.789195 
L 309.065166 300.530045 
L 311.940987 301.126588 
L 314.935306 301.601315 
L 325.616003 302.881176 
L 333.423645 304.159119 
L 338.733654 305.299465 
L 345.081313 306.886707 
L 347.838182 307.782143 
L 349.863129 309.168627 
L 352.306287 311.200021 
L 353.119834 311.840912 
L 357.171346 315.168005 
L 358.347886 316.449169 
L 358.826031 317.218243 
L 359.08744 318.294933 
L 359.015362 318.880849 
L 358.810421 319.417773 
L 358.198118 320.218125 
L 357.252203 321.144919 
L 356.487418 321.824648 
L 350.656585 326.878712 
L 350.315985 327.200247 
L 349.96455 327.493766 
L 349.612924 327.699613 
L 348.785152 328.558161 
L 347.873193 329.219505 
L 345.815485 330.637957 
L 344.878323 331.130706 
L 343.01194 331.808888 
L 341.340791 332.357779 
L 339.395935 333.007663 
L 336.61152 333.764939 
L 333.73015 334.589744 
L 331.28443 335.270469 
L 327.010452 336.719525 
L 325.670163 337.454218 
L 324.613619 338.160005 
L 323.730796 338.94365 
L 322.665333 340.28169 
L 321.922988 342.284004 
L 321.602922 343.404398 
L 321.421431 346.310156 
L 321.258887 347.721559 
L 321.00151 348.863825 
L 320.431331 350.135651 
L 318.591387 353.392731 
L 317.793906 354.817632 
L 317.098714 356.226738 
L 316.781905 358.36243 
L 317.030438 359.861314 
L 317.101237 360.257052 
L 317.956438 364.959834 
L 318.000066 366.414137 
L 318.434958 367.80067 
L 319.740907 369.291964 
L 321.080911 370.142703 
L 323.388597 371.106778 
L 324.965467 371.46067 
L 327.002588 371.736774 
L 329.645317 371.94322 
L 330.609178 371.935517 
L 332.111407 371.908332 
L 334.599354 371.788199 
L 336.941119 371.713777 
L 339.791065 371.977993 
L 341.228302 372.316006 
L 343.079067 373.076508 
L 343.836438 373.743567 
L 344.117639 374.267697 
L 344.129674 375.284947 
L 342.767888 378.325024 
L 341.650175 380.082246 
L 339.865105 382.436859 
L 338.15798 384.379003 
L 338.15798 384.379003 
" clip-path="url(#pc378bb32a1)" style="fill: none; stroke: #0000ff; stroke-width: 2; stroke-linecap: square"/>
   </g>
   <g id="Path3DCollection_1">
    <defs>
     <path id="m9c1af63f12" d="M 0 -5 
L -1.12257 -1.545085 
L -4.755283 -1.545085 
L -1.816356 0.59017 
L -2.938926 4.045085 
L -0 1.90983 
L 2.938926 4.045085 
L 1.816356 0.59017 
L 4.755283 -1.545085 
L 1.12257 -1.545085 
z
" style="stroke: #ff0000"/>
    </defs>
    <g clip-path="url(#pc378bb32a1)">
     <use xlink:href="#m9c1af63f12" x="356.069848" y="247.914736" style="fill: #ff0000; stroke: #ff0000"/>
    </g>
   </g>
   <g id="legend_1">
    <g id="patch_6">
     <path d="M 74.2475 84.9621 
L 589.9525 84.9621 
Q 593.1525 84.9621 593.1525 81.7621 
L 593.1525 60.7396 
Q 593.1525 57.5396 589.9525 57.5396 
L 74.2475 57.5396 
Q 71.0475 57.5396 71.0475 60.7396 
L 71.0475 81.7621 
Q 71.0475 84.9621 74.2475 84.9621 
z
" style="fill: #ffffff; opacity: 0.8; stroke: #cccccc; stroke-linejoin: miter"/>
    </g>
    <g id="line2d_31">
     <g>
      <use xlink:href="#m794fef420a" x="93.4475" y="69.5396" style="fill: #ff0000; stroke: #ff0000; stroke-linejoin: bevel"/>
     </g>
    </g>
    <g id="text_27">
     <!-- Start -->
     <g transform="translate(122.2475 75.1396) scale(0.16 -0.16)">
      <defs>
       <path id="TimesNewRomanPSMT-53" d="M 2934 4334 
L 2934 2869 
L 2819 2869 
Q 2763 3291 2617 3541 
Q 2472 3791 2203 3937 
Q 1934 4084 1647 4084 
Q 1322 4084 1109 3886 
Q 897 3688 897 3434 
Q 897 3241 1031 3081 
Q 1225 2847 1953 2456 
Q 2547 2138 2764 1967 
Q 2981 1797 3098 1565 
Q 3216 1334 3216 1081 
Q 3216 600 2842 251 
Q 2469 -97 1881 -97 
Q 1697 -97 1534 -69 
Q 1438 -53 1133 45 
Q 828 144 747 144 
Q 669 144 623 97 
Q 578 50 556 -97 
L 441 -97 
L 441 1356 
L 556 1356 
Q 638 900 775 673 
Q 913 447 1195 297 
Q 1478 147 1816 147 
Q 2206 147 2432 353 
Q 2659 559 2659 841 
Q 2659 997 2573 1156 
Q 2488 1316 2306 1453 
Q 2184 1547 1640 1851 
Q 1097 2156 867 2337 
Q 638 2519 519 2737 
Q 400 2956 400 3219 
Q 400 3675 750 4004 
Q 1100 4334 1641 4334 
Q 1978 4334 2356 4169 
Q 2531 4091 2603 4091 
Q 2684 4091 2736 4139 
Q 2788 4188 2819 4334 
L 2934 4334 
z
" transform="scale(0.015625)"/>
       <path id="TimesNewRomanPSMT-74" d="M 1031 3803 
L 1031 2863 
L 1700 2863 
L 1700 2644 
L 1031 2644 
L 1031 788 
Q 1031 509 1111 412 
Q 1191 316 1316 316 
Q 1419 316 1516 380 
Q 1613 444 1666 569 
L 1788 569 
Q 1678 263 1478 108 
Q 1278 -47 1066 -47 
Q 922 -47 784 33 
Q 647 113 581 261 
Q 516 409 516 719 
L 516 2644 
L 63 2644 
L 63 2747 
Q 234 2816 414 2980 
Q 594 3144 734 3369 
Q 806 3488 934 3803 
L 1031 3803 
z
" transform="scale(0.015625)"/>
       <path id="TimesNewRomanPSMT-61" d="M 1822 413 
Q 1381 72 1269 19 
Q 1100 -59 909 -59 
Q 613 -59 420 144 
Q 228 347 228 678 
Q 228 888 322 1041 
Q 450 1253 767 1440 
Q 1084 1628 1822 1897 
L 1822 2009 
Q 1822 2438 1686 2597 
Q 1550 2756 1291 2756 
Q 1094 2756 978 2650 
Q 859 2544 859 2406 
L 866 2225 
Q 866 2081 792 2003 
Q 719 1925 600 1925 
Q 484 1925 411 2006 
Q 338 2088 338 2228 
Q 338 2497 613 2722 
Q 888 2947 1384 2947 
Q 1766 2947 2009 2819 
Q 2194 2722 2281 2516 
Q 2338 2381 2338 1966 
L 2338 994 
Q 2338 584 2353 492 
Q 2369 400 2405 369 
Q 2441 338 2488 338 
Q 2538 338 2575 359 
Q 2641 400 2828 588 
L 2828 413 
Q 2478 -56 2159 -56 
Q 2006 -56 1915 50 
Q 1825 156 1822 413 
z
M 1822 616 
L 1822 1706 
Q 1350 1519 1213 1441 
Q 966 1303 859 1153 
Q 753 1003 753 825 
Q 753 600 887 451 
Q 1022 303 1197 303 
Q 1434 303 1822 616 
z
" transform="scale(0.015625)"/>
       <path id="TimesNewRomanPSMT-72" d="M 1038 2947 
L 1038 2303 
Q 1397 2947 1775 2947 
Q 1947 2947 2059 2842 
Q 2172 2738 2172 2600 
Q 2172 2478 2090 2393 
Q 2009 2309 1897 2309 
Q 1788 2309 1652 2417 
Q 1516 2525 1450 2525 
Q 1394 2525 1328 2463 
Q 1188 2334 1038 2041 
L 1038 669 
Q 1038 431 1097 309 
Q 1138 225 1241 169 
Q 1344 113 1538 113 
L 1538 0 
L 72 0 
L 72 113 
Q 291 113 397 181 
Q 475 231 506 341 
Q 522 394 522 644 
L 522 1753 
Q 522 2253 501 2348 
Q 481 2444 426 2487 
Q 372 2531 291 2531 
Q 194 2531 72 2484 
L 41 2597 
L 906 2947 
L 1038 2947 
z
" transform="scale(0.015625)"/>
      </defs>
      <use xlink:href="#TimesNewRomanPSMT-53"/>
      <use xlink:href="#TimesNewRomanPSMT-74" x="55.615234"/>
      <use xlink:href="#TimesNewRomanPSMT-61" x="83.398438"/>
      <use xlink:href="#TimesNewRomanPSMT-72" x="127.783203"/>
      <use xlink:href="#TimesNewRomanPSMT-74" x="161.083984"/>
     </g>
    </g>
    <g id="line2d_32">
     <path d="M 184.465 69.5396 
L 200.465 69.5396 
L 216.465 69.5396 
" style="fill: none; stroke-dasharray: 7.4,3.2; stroke-dashoffset: 0; stroke: #808a87; stroke-width: 2"/>
    </g>
    <g id="text_28">
     <!-- GroundTruth -->
     <g transform="translate(229.265 75.1396) scale(0.16 -0.16)">
      <defs>
       <path id="TimesNewRomanPSMT-47" d="M 3928 4334 
L 4038 2997 
L 3928 2997 
Q 3763 3497 3500 3750 
Q 3122 4116 2528 4116 
Q 1719 4116 1297 3475 
Q 944 2934 944 2188 
Q 944 1581 1178 1081 
Q 1413 581 1792 348 
Q 2172 116 2572 116 
Q 2806 116 3025 175 
Q 3244 234 3447 350 
L 3447 1575 
Q 3447 1894 3398 1992 
Q 3350 2091 3248 2142 
Q 3147 2194 2891 2194 
L 2891 2313 
L 4531 2313 
L 4531 2194 
L 4453 2194 
Q 4209 2194 4119 2031 
Q 4056 1916 4056 1575 
L 4056 278 
Q 3697 84 3347 -6 
Q 2997 -97 2569 -97 
Q 1341 -97 703 691 
Q 225 1281 225 2053 
Q 225 2613 494 3125 
Q 813 3734 1369 4063 
Q 1834 4334 2469 4334 
Q 2700 4334 2889 4296 
Q 3078 4259 3425 4131 
Q 3600 4066 3659 4066 
Q 3719 4066 3761 4120 
Q 3803 4175 3813 4334 
L 3928 4334 
z
" transform="scale(0.015625)"/>
       <path id="TimesNewRomanPSMT-6f" d="M 1600 2947 
Q 2250 2947 2644 2453 
Q 2978 2031 2978 1484 
Q 2978 1100 2793 706 
Q 2609 313 2286 112 
Q 1963 -88 1566 -88 
Q 919 -88 538 428 
Q 216 863 216 1403 
Q 216 1797 411 2186 
Q 606 2575 925 2761 
Q 1244 2947 1600 2947 
z
M 1503 2744 
Q 1338 2744 1170 2645 
Q 1003 2547 900 2300 
Q 797 2053 797 1666 
Q 797 1041 1045 587 
Q 1294 134 1700 134 
Q 2003 134 2200 384 
Q 2397 634 2397 1244 
Q 2397 2006 2069 2444 
Q 1847 2744 1503 2744 
z
" transform="scale(0.015625)"/>
       <path id="TimesNewRomanPSMT-75" d="M 2709 2863 
L 2709 1128 
Q 2709 631 2732 520 
Q 2756 409 2807 365 
Q 2859 322 2928 322 
Q 3025 322 3147 375 
L 3191 266 
L 2334 -88 
L 2194 -88 
L 2194 519 
Q 1825 119 1631 15 
Q 1438 -88 1222 -88 
Q 981 -88 804 51 
Q 628 191 559 409 
Q 491 628 491 1028 
L 491 2306 
Q 491 2509 447 2587 
Q 403 2666 317 2708 
Q 231 2750 6 2747 
L 6 2863 
L 1009 2863 
L 1009 947 
Q 1009 547 1148 422 
Q 1288 297 1484 297 
Q 1619 297 1789 381 
Q 1959 466 2194 703 
L 2194 2325 
Q 2194 2569 2105 2655 
Q 2016 2741 1734 2747 
L 1734 2863 
L 2709 2863 
z
" transform="scale(0.015625)"/>
       <path id="TimesNewRomanPSMT-6e" d="M 1034 2341 
Q 1538 2947 1994 2947 
Q 2228 2947 2397 2830 
Q 2566 2713 2666 2444 
Q 2734 2256 2734 1869 
L 2734 647 
Q 2734 375 2778 278 
Q 2813 200 2889 156 
Q 2966 113 3172 113 
L 3172 0 
L 1756 0 
L 1756 113 
L 1816 113 
Q 2016 113 2095 173 
Q 2175 234 2206 353 
Q 2219 400 2219 647 
L 2219 1819 
Q 2219 2209 2117 2386 
Q 2016 2563 1775 2563 
Q 1403 2563 1034 2156 
L 1034 647 
Q 1034 356 1069 288 
Q 1113 197 1189 155 
Q 1266 113 1500 113 
L 1500 0 
L 84 0 
L 84 113 
L 147 113 
Q 366 113 442 223 
Q 519 334 519 647 
L 519 1709 
Q 519 2225 495 2337 
Q 472 2450 423 2490 
Q 375 2531 294 2531 
Q 206 2531 84 2484 
L 38 2597 
L 900 2947 
L 1034 2947 
L 1034 2341 
z
" transform="scale(0.015625)"/>
       <path id="TimesNewRomanPSMT-64" d="M 2222 322 
Q 2013 103 1813 7 
Q 1613 -88 1381 -88 
Q 913 -88 563 304 
Q 213 697 213 1313 
Q 213 1928 600 2439 
Q 988 2950 1597 2950 
Q 1975 2950 2222 2709 
L 2222 3238 
Q 2222 3728 2198 3840 
Q 2175 3953 2125 3993 
Q 2075 4034 2000 4034 
Q 1919 4034 1784 3984 
L 1744 4094 
L 2597 4444 
L 2738 4444 
L 2738 1134 
Q 2738 631 2761 520 
Q 2784 409 2836 365 
Q 2888 322 2956 322 
Q 3041 322 3181 375 
L 3216 266 
L 2366 -88 
L 2222 -88 
L 2222 322 
z
M 2222 541 
L 2222 2016 
Q 2203 2228 2109 2403 
Q 2016 2578 1861 2667 
Q 1706 2756 1559 2756 
Q 1284 2756 1069 2509 
Q 784 2184 784 1559 
Q 784 928 1059 592 
Q 1334 256 1672 256 
Q 1956 256 2222 541 
z
" transform="scale(0.015625)"/>
       <path id="TimesNewRomanPSMT-54" d="M 3703 4238 
L 3750 3244 
L 3631 3244 
Q 3597 3506 3538 3619 
Q 3441 3800 3280 3886 
Q 3119 3972 2856 3972 
L 2259 3972 
L 2259 734 
Q 2259 344 2344 247 
Q 2463 116 2709 116 
L 2856 116 
L 2856 0 
L 1059 0 
L 1059 116 
L 1209 116 
Q 1478 116 1591 278 
Q 1659 378 1659 734 
L 1659 3972 
L 1150 3972 
Q 853 3972 728 3928 
Q 566 3869 450 3700 
Q 334 3531 313 3244 
L 194 3244 
L 244 4238 
L 3703 4238 
z
" transform="scale(0.015625)"/>
       <path id="TimesNewRomanPSMT-68" d="M 1041 4444 
L 1041 2350 
Q 1388 2731 1591 2839 
Q 1794 2947 1997 2947 
Q 2241 2947 2416 2812 
Q 2591 2678 2675 2391 
Q 2734 2191 2734 1659 
L 2734 647 
Q 2734 375 2778 275 
Q 2809 200 2884 156 
Q 2959 113 3159 113 
L 3159 0 
L 1753 0 
L 1753 113 
L 1819 113 
Q 2019 113 2097 173 
Q 2175 234 2206 353 
Q 2216 403 2216 647 
L 2216 1659 
Q 2216 2128 2167 2275 
Q 2119 2422 2012 2495 
Q 1906 2569 1756 2569 
Q 1603 2569 1437 2487 
Q 1272 2406 1041 2159 
L 1041 647 
Q 1041 353 1073 281 
Q 1106 209 1195 161 
Q 1284 113 1503 113 
L 1503 0 
L 84 0 
L 84 113 
Q 275 113 384 172 
Q 447 203 484 290 
Q 522 378 522 647 
L 522 3238 
Q 522 3728 498 3840 
Q 475 3953 426 3993 
Q 378 4034 297 4034 
Q 231 4034 84 3984 
L 41 4094 
L 897 4444 
L 1041 4444 
z
" transform="scale(0.015625)"/>
      </defs>
      <use xlink:href="#TimesNewRomanPSMT-47"/>
      <use xlink:href="#TimesNewRomanPSMT-72" x="72.216797"/>
      <use xlink:href="#TimesNewRomanPSMT-6f" x="105.517578"/>
      <use xlink:href="#TimesNewRomanPSMT-75" x="155.517578"/>
      <use xlink:href="#TimesNewRomanPSMT-6e" x="205.517578"/>
      <use xlink:href="#TimesNewRomanPSMT-64" x="255.517578"/>
      <use xlink:href="#TimesNewRomanPSMT-54" x="305.517578"/>
      <use xlink:href="#TimesNewRomanPSMT-72" x="363.101562"/>
      <use xlink:href="#TimesNewRomanPSMT-75" x="396.402344"/>
      <use xlink:href="#TimesNewRomanPSMT-74" x="446.402344"/>
      <use xlink:href="#TimesNewRomanPSMT-68" x="474.185547"/>
     </g>
    </g>
    <g id="line2d_33">
     <path d="M 345.1325 69.5396 
L 361.1325 69.5396 
L 377.1325 69.5396 
" style="fill: none; stroke: #ff0000; stroke-width: 2; stroke-linecap: square"/>
    </g>
    <g id="text_29">
     <!-- ROLO -->
     <g transform="translate(389.9325 75.1396) scale(0.16 -0.16)">
      <defs>
       <path id="TimesNewRomanPSMT-52" d="M 4325 0 
L 3194 0 
L 1759 1981 
Q 1600 1975 1500 1975 
Q 1459 1975 1412 1976 
Q 1366 1978 1316 1981 
L 1316 750 
Q 1316 350 1403 253 
Q 1522 116 1759 116 
L 1925 116 
L 1925 0 
L 109 0 
L 109 116 
L 269 116 
Q 538 116 653 291 
Q 719 388 719 750 
L 719 3488 
Q 719 3888 631 3984 
Q 509 4122 269 4122 
L 109 4122 
L 109 4238 
L 1653 4238 
Q 2328 4238 2648 4139 
Q 2969 4041 3192 3777 
Q 3416 3513 3416 3147 
Q 3416 2756 3161 2468 
Q 2906 2181 2372 2063 
L 3247 847 
Q 3547 428 3762 290 
Q 3978 153 4325 116 
L 4325 0 
z
M 1316 2178 
Q 1375 2178 1419 2176 
Q 1463 2175 1491 2175 
Q 2097 2175 2405 2437 
Q 2713 2700 2713 3106 
Q 2713 3503 2464 3751 
Q 2216 4000 1806 4000 
Q 1625 4000 1316 3941 
L 1316 2178 
z
" transform="scale(0.015625)"/>
       <path id="TimesNewRomanPSMT-4f" d="M 2341 4334 
Q 3166 4334 3770 3707 
Q 4375 3081 4375 2144 
Q 4375 1178 3765 540 
Q 3156 -97 2291 -97 
Q 1416 -97 820 525 
Q 225 1147 225 2134 
Q 225 3144 913 3781 
Q 1509 4334 2341 4334 
z
M 2281 4106 
Q 1713 4106 1369 3684 
Q 941 3159 941 2147 
Q 941 1109 1384 550 
Q 1725 125 2284 125 
Q 2881 125 3270 590 
Q 3659 1056 3659 2059 
Q 3659 3147 3231 3681 
Q 2888 4106 2281 4106 
z
" transform="scale(0.015625)"/>
       <path id="TimesNewRomanPSMT-4c" d="M 3669 1172 
L 3772 1150 
L 3409 0 
L 128 0 
L 128 116 
L 288 116 
Q 556 116 672 291 
Q 738 391 738 753 
L 738 3488 
Q 738 3884 650 3984 
Q 528 4122 288 4122 
L 128 4122 
L 128 4238 
L 2047 4238 
L 2047 4122 
Q 1709 4125 1573 4059 
Q 1438 3994 1388 3894 
Q 1338 3794 1338 3416 
L 1338 753 
Q 1338 494 1388 397 
Q 1425 331 1503 300 
Q 1581 269 1991 269 
L 2300 269 
Q 2788 269 2984 341 
Q 3181 413 3343 595 
Q 3506 778 3669 1172 
z
" transform="scale(0.015625)"/>
      </defs>
      <use xlink:href="#TimesNewRomanPSMT-52"/>
      <use xlink:href="#TimesNewRomanPSMT-4f" x="66.699219"/>
      <use xlink:href="#TimesNewRomanPSMT-4c" x="138.916016"/>
      <use xlink:href="#TimesNewRomanPSMT-4f" x="200"/>
     </g>
    </g>
    <g id="line2d_34">
     <path d="M 465.4875 69.5396 
L 481.4875 69.5396 
L 497.4875 69.5396 
" style="fill: none; stroke: #0000ff; stroke-width: 2; stroke-linecap: square"/>
    </g>
    <g id="text_30">
     <!-- FAST-LIO2 -->
     <g transform="translate(510.2875 75.1396) scale(0.16 -0.16)">
      <defs>
       <path id="TimesNewRomanPSMT-46" d="M 1309 4006 
L 1309 2341 
L 2081 2341 
Q 2347 2341 2470 2458 
Q 2594 2575 2634 2922 
L 2750 2922 
L 2750 1488 
L 2634 1488 
Q 2631 1734 2570 1850 
Q 2509 1966 2401 2023 
Q 2294 2081 2081 2081 
L 1309 2081 
L 1309 750 
Q 1309 428 1350 325 
Q 1381 247 1481 191 
Q 1619 116 1769 116 
L 1922 116 
L 1922 0 
L 103 0 
L 103 116 
L 253 116 
Q 516 116 634 269 
Q 709 369 709 750 
L 709 3488 
Q 709 3809 669 3913 
Q 638 3991 541 4047 
Q 406 4122 253 4122 
L 103 4122 
L 103 4238 
L 3256 4238 
L 3297 3306 
L 3188 3306 
Q 3106 3603 2998 3742 
Q 2891 3881 2733 3943 
Q 2575 4006 2244 4006 
L 1309 4006 
z
" transform="scale(0.015625)"/>
       <path id="TimesNewRomanPSMT-41" d="M 2928 1419 
L 1288 1419 
L 1000 750 
Q 894 503 894 381 
Q 894 284 986 211 
Q 1078 138 1384 116 
L 1384 0 
L 50 0 
L 50 116 
Q 316 163 394 238 
Q 553 388 747 847 
L 2238 4334 
L 2347 4334 
L 3822 809 
Q 4000 384 4145 257 
Q 4291 131 4550 116 
L 4550 0 
L 2878 0 
L 2878 116 
Q 3131 128 3220 200 
Q 3309 272 3309 375 
Q 3309 513 3184 809 
L 2928 1419 
z
M 2841 1650 
L 2122 3363 
L 1384 1650 
L 2841 1650 
z
" transform="scale(0.015625)"/>
       <path id="TimesNewRomanPSMT-2d" d="M 259 1672 
L 1875 1672 
L 1875 1200 
L 259 1200 
L 259 1672 
z
" transform="scale(0.015625)"/>
       <path id="TimesNewRomanPSMT-49" d="M 1975 116 
L 1975 0 
L 159 0 
L 159 116 
L 309 116 
Q 572 116 691 269 
Q 766 369 766 750 
L 766 3488 
Q 766 3809 725 3913 
Q 694 3991 597 4047 
Q 459 4122 309 4122 
L 159 4122 
L 159 4238 
L 1975 4238 
L 1975 4122 
L 1822 4122 
Q 1563 4122 1444 3969 
Q 1366 3869 1366 3488 
L 1366 750 
Q 1366 428 1406 325 
Q 1438 247 1538 191 
Q 1672 116 1822 116 
L 1975 116 
z
" transform="scale(0.015625)"/>
       <path id="TimesNewRomanPSMT-32" d="M 2934 816 
L 2638 0 
L 138 0 
L 138 116 
Q 1241 1122 1691 1759 
Q 2141 2397 2141 2925 
Q 2141 3328 1894 3587 
Q 1647 3847 1303 3847 
Q 991 3847 742 3664 
Q 494 3481 375 3128 
L 259 3128 
Q 338 3706 661 4015 
Q 984 4325 1469 4325 
Q 1984 4325 2329 3994 
Q 2675 3663 2675 3213 
Q 2675 2891 2525 2569 
Q 2294 2063 1775 1497 
Q 997 647 803 472 
L 1909 472 
Q 2247 472 2383 497 
Q 2519 522 2628 598 
Q 2738 675 2819 816 
L 2934 816 
z
" transform="scale(0.015625)"/>
      </defs>
      <use xlink:href="#TimesNewRomanPSMT-46"/>
      <use xlink:href="#TimesNewRomanPSMT-41" x="48.240234"/>
      <use xlink:href="#TimesNewRomanPSMT-53" x="120.457031"/>
      <use xlink:href="#TimesNewRomanPSMT-54" x="176.072266"/>
      <use xlink:href="#TimesNewRomanPSMT-2d" x="228.03125"/>
      <use xlink:href="#TimesNewRomanPSMT-4c" x="261.332031"/>
      <use xlink:href="#TimesNewRomanPSMT-49" x="322.416016"/>
      <use xlink:href="#TimesNewRomanPSMT-4f" x="355.716797"/>
      <use xlink:href="#TimesNewRomanPSMT-32" x="427.933594"/>
     </g>
    </g>
   </g>
  </g>
 </g>
 <defs>
  <clipPath id="pc378bb32a1">
   <rect x="42.12" y="43.74" width="579.96" height="579.96"/>
  </clipPath>
 </defs>
</svg>
