<?xml version="1.0" encoding="utf-8" standalone="no"?>
<!DOCTYPE svg PUBLIC "-//W3C//DTD SVG 1.1//EN"
  "http://www.w3.org/Graphics/SVG/1.1/DTD/svg11.dtd">
<svg xmlns:xlink="http://www.w3.org/1999/xlink" width="648pt" height="648pt" viewBox="0 0 648 648" xmlns="http://www.w3.org/2000/svg" version="1.1">
 <metadata>
  <rdf:RDF xmlns:dc="http://purl.org/dc/elements/1.1/" xmlns:cc="http://creativecommons.org/ns#" xmlns:rdf="http://www.w3.org/1999/02/22-rdf-syntax-ns#">
   <cc:Work>
    <dc:type rdf:resource="http://purl.org/dc/dcmitype/StillImage"/>
    <dc:date>2024-08-06T10:33:41.718895</dc:date>
    <dc:format>image/svg+xml</dc:format>
    <dc:creator>
     <cc:Agent>
      <dc:title>Matplotlib v3.8.3, https://matplotlib.org/</dc:title>
     </cc:Agent>
    </dc:creator>
   </cc:Work>
  </rdf:RDF>
 </metadata>
 <defs>
  <style type="text/css">*{stroke-linejoin: round; stroke-linecap: butt}</style>
 </defs>
 <g id="figure_1">
  <g id="patch_1">
   <path d="M 0 648 
L 648 648 
L 648 0 
L 0 0 
z
" style="fill: #ffffff"/>
  </g>
  <g id="patch_2">
   <path d="M 42.12 623.7 
L 622.08 623.7 
L 622.08 43.74 
L 42.12 43.74 
z
" style="fill: #ffffff"/>
  </g>
  <g id="pane3d_1">
   <g id="patch_3">
    <path d="M 591.641981 489.247539 
L 418.721639 359.160244 
L 421.214465 114.703421 
L 600.431072 224.014277 
" style="fill: #ffffff; stroke: #ffffff; stroke-linejoin: miter"/>
   </g>
  </g>
  <g id="pane3d_2">
   <g id="patch_4">
    <path d="M 100.507323 419.513941 
L 418.721639 359.160244 
L 421.214465 114.703421 
L 92.568072 165.331726 
" style="fill: #ffffff; stroke: #ffffff; stroke-linejoin: miter"/>
   </g>
  </g>
  <g id="pane3d_3">
   <g id="patch_5">
    <path d="M 248.820944 562.626756 
L 591.641981 489.247539 
L 418.721639 359.160244 
L 100.507323 419.513941 
" style="fill: #ffffff; stroke: #ffffff; stroke-linejoin: miter"/>
   </g>
  </g>
  <g id="grid3d_1">
   <g id="Line3DCollection_1">
    <path d="M 287.802067 554.283032 
L 136.5414 412.679585 
L 129.832007 159.59118 
" style="fill: none; stroke: #bdc3c7; stroke-width: 0.5"/>
    <path d="M 355.571394 539.777329 
L 199.278012 400.780729 
L 194.68023 149.601246 
" style="fill: none; stroke: #bdc3c7; stroke-width: 0.5"/>
    <path d="M 422.038243 525.550415 
L 260.921088 389.089276 
L 258.361496 139.791084 
" style="fill: none; stroke: #bdc3c7; stroke-width: 0.5"/>
    <path d="M 487.239806 511.594329 
L 321.498974 377.599852 
L 320.907022 130.155883 
" style="fill: none; stroke: #bdc3c7; stroke-width: 0.5"/>
    <path d="M 551.211873 497.901412 
L 381.039041 366.307264 
L 382.346925 120.691004 
" style="fill: none; stroke: #bdc3c7; stroke-width: 0.5"/>
   </g>
  </g>
  <g id="grid3d_2">
   <g id="Line3DCollection_2">
    <path d="M 590.806268 218.143752 
L 582.383149 482.282156 
L 240.844573 554.930087 
" style="fill: none; stroke: #bdc3c7; stroke-width: 0.5"/>
    <path d="M 564.329293 201.994463 
L 556.896675 463.108781 
L 218.908862 533.76358 
" style="fill: none; stroke: #bdc3c7; stroke-width: 0.5"/>
    <path d="M 538.580122 186.289088 
L 532.087879 444.445221 
L 197.585363 513.187817 
" style="fill: none; stroke: #bdc3c7; stroke-width: 0.5"/>
    <path d="M 513.529152 171.009573 
L 507.930089 426.271411 
L 176.848799 493.178407 
" style="fill: none; stroke: #bdc3c7; stroke-width: 0.5"/>
    <path d="M 489.148365 156.138826 
L 484.398011 408.568321 
L 156.675265 473.712283 
" style="fill: none; stroke: #bdc3c7; stroke-width: 0.5"/>
    <path d="M 465.411222 141.660662 
L 461.467646 391.317897 
L 137.042139 454.767617 
" style="fill: none; stroke: #bdc3c7; stroke-width: 0.5"/>
    <path d="M 442.292567 127.559737 
L 439.116207 374.502997 
L 117.927991 436.323731 
" style="fill: none; stroke: #bdc3c7; stroke-width: 0.5"/>
   </g>
  </g>
  <g id="grid3d_3">
   <g id="Line3DCollection_3">
    <path d="M 99.361496 382.829271 
L 419.081867 323.834777 
L 592.908615 451.023629 
" style="fill: none; stroke: #bdc3c7; stroke-width: 0.5"/>
    <path d="M 97.862647 334.842287 
L 419.552849 277.648394 
L 594.566429 400.994846 
" style="fill: none; stroke: #bdc3c7; stroke-width: 0.5"/>
    <path d="M 96.345005 286.253612 
L 420.029469 230.90902 
L 596.246116 350.306023 
" style="fill: none; stroke: #bdc3c7; stroke-width: 0.5"/>
    <path d="M 94.808214 237.051859 
L 420.511831 183.606662 
L 597.948109 298.944012 
" style="fill: none; stroke: #bdc3c7; stroke-width: 0.5"/>
    <path d="M 93.251908 187.225349 
L 421.000037 135.731088 
L 599.672858 246.895311 
" style="fill: none; stroke: #bdc3c7; stroke-width: 0.5"/>
   </g>
  </g>
  <g id="axis3d_1">
   <g id="line2d_1">
    <path d="M 591.641981 489.247539 
L 248.820944 562.626756 
" style="fill: none; stroke: #000000; stroke-width: 0.8; stroke-linecap: square"/>
   </g>
   <g id="xtick_1">
    <g id="line2d_2">
     <path d="M 286.46649 553.032724 
L 290.479941 556.789937 
" style="fill: none; stroke: #000000; stroke-width: 0.8; stroke-linecap: square"/>
    </g>
    <g id="text_1">
     <!-- 30 -->
     <g transform="translate(282.254647 573.316081) scale(0.14 -0.14)">
      <defs>
       <path id="DejaVuSans-33" d="M 2597 2516 
Q 3050 2419 3304 2112 
Q 3559 1806 3559 1356 
Q 3559 666 3084 287 
Q 2609 -91 1734 -91 
Q 1441 -91 1130 -33 
Q 819 25 488 141 
L 488 750 
Q 750 597 1062 519 
Q 1375 441 1716 441 
Q 2309 441 2620 675 
Q 2931 909 2931 1356 
Q 2931 1769 2642 2001 
Q 2353 2234 1838 2234 
L 1294 2234 
L 1294 2753 
L 1863 2753 
Q 2328 2753 2575 2939 
Q 2822 3125 2822 3475 
Q 2822 3834 2567 4026 
Q 2313 4219 1838 4219 
Q 1578 4219 1281 4162 
Q 984 4106 628 3988 
L 628 4550 
Q 988 4650 1302 4700 
Q 1616 4750 1894 4750 
Q 2613 4750 3031 4423 
Q 3450 4097 3450 3541 
Q 3450 3153 3228 2886 
Q 3006 2619 2597 2516 
z
" transform="scale(0.015625)"/>
       <path id="DejaVuSans-30" d="M 2034 4250 
Q 1547 4250 1301 3770 
Q 1056 3291 1056 2328 
Q 1056 1369 1301 889 
Q 1547 409 2034 409 
Q 2525 409 2770 889 
Q 3016 1369 3016 2328 
Q 3016 3291 2770 3770 
Q 2525 4250 2034 4250 
z
M 2034 4750 
Q 2819 4750 3233 4129 
Q 3647 3509 3647 2328 
Q 3647 1150 3233 529 
Q 2819 -91 2034 -91 
Q 1250 -91 836 529 
Q 422 1150 422 2328 
Q 422 3509 836 4129 
Q 1250 4750 2034 4750 
z
" transform="scale(0.015625)"/>
      </defs>
      <use xlink:href="#DejaVuSans-33"/>
      <use xlink:href="#DejaVuSans-30" x="63.623047"/>
     </g>
    </g>
   </g>
   <g id="xtick_2">
    <g id="line2d_3">
     <path d="M 354.192636 538.551156 
L 358.335777 542.235781 
" style="fill: none; stroke: #000000; stroke-width: 0.8; stroke-linecap: square"/>
    </g>
    <g id="text_2">
     <!-- 110 -->
     <g transform="translate(345.630157 558.708992) scale(0.14 -0.14)">
      <defs>
       <path id="DejaVuSans-31" d="M 794 531 
L 1825 531 
L 1825 4091 
L 703 3866 
L 703 4441 
L 1819 4666 
L 2450 4666 
L 2450 531 
L 3481 531 
L 3481 0 
L 794 0 
L 794 531 
z
" transform="scale(0.015625)"/>
      </defs>
      <use xlink:href="#DejaVuSans-31"/>
      <use xlink:href="#DejaVuSans-31" x="63.623047"/>
      <use xlink:href="#DejaVuSans-30" x="127.246094"/>
     </g>
    </g>
   </g>
   <g id="xtick_3">
    <g id="line2d_4">
     <path d="M 420.618203 524.347686 
L 424.885328 527.961806 
" style="fill: none; stroke: #000000; stroke-width: 0.8; stroke-linecap: square"/>
    </g>
    <g id="text_3">
     <!-- 190 -->
     <g transform="translate(412.154024 544.383021) scale(0.14 -0.14)">
      <defs>
       <path id="DejaVuSans-39" d="M 703 97 
L 703 672 
Q 941 559 1184 500 
Q 1428 441 1663 441 
Q 2288 441 2617 861 
Q 2947 1281 2994 2138 
Q 2813 1869 2534 1725 
Q 2256 1581 1919 1581 
Q 1219 1581 811 2004 
Q 403 2428 403 3163 
Q 403 3881 828 4315 
Q 1253 4750 1959 4750 
Q 2769 4750 3195 4129 
Q 3622 3509 3622 2328 
Q 3622 1225 3098 567 
Q 2575 -91 1691 -91 
Q 1453 -91 1209 -44 
Q 966 3 703 97 
z
M 1959 2075 
Q 2384 2075 2632 2365 
Q 2881 2656 2881 3163 
Q 2881 3666 2632 3958 
Q 2384 4250 1959 4250 
Q 1534 4250 1286 3958 
Q 1038 3666 1038 3163 
Q 1038 2656 1286 2365 
Q 1534 2075 1959 2075 
z
" transform="scale(0.015625)"/>
      </defs>
      <use xlink:href="#DejaVuSans-31"/>
      <use xlink:href="#DejaVuSans-39" x="63.623047"/>
      <use xlink:href="#DejaVuSans-30" x="127.246094"/>
     </g>
    </g>
   </g>
   <g id="xtick_4">
    <g id="line2d_5">
     <path d="M 485.780297 510.414378 
L 490.165956 513.959998 
" style="fill: none; stroke: #000000; stroke-width: 0.8; stroke-linecap: square"/>
    </g>
    <g id="text_4">
     <!-- 270 -->
     <g transform="translate(477.409823 530.330129) scale(0.14 -0.14)">
      <defs>
       <path id="DejaVuSans-32" d="M 1228 531 
L 3431 531 
L 3431 0 
L 469 0 
L 469 531 
Q 828 903 1448 1529 
Q 2069 2156 2228 2338 
Q 2531 2678 2651 2914 
Q 2772 3150 2772 3378 
Q 2772 3750 2511 3984 
Q 2250 4219 1831 4219 
Q 1534 4219 1204 4116 
Q 875 4013 500 3803 
L 500 4441 
Q 881 4594 1212 4672 
Q 1544 4750 1819 4750 
Q 2544 4750 2975 4387 
Q 3406 4025 3406 3419 
Q 3406 3131 3298 2873 
Q 3191 2616 2906 2266 
Q 2828 2175 2409 1742 
Q 1991 1309 1228 531 
z
" transform="scale(0.015625)"/>
       <path id="DejaVuSans-37" d="M 525 4666 
L 3525 4666 
L 3525 4397 
L 1831 0 
L 1172 0 
L 2766 4134 
L 525 4134 
L 525 4666 
z
" transform="scale(0.015625)"/>
      </defs>
      <use xlink:href="#DejaVuSans-32"/>
      <use xlink:href="#DejaVuSans-37" x="63.623047"/>
      <use xlink:href="#DejaVuSans-30" x="127.246094"/>
     </g>
    </g>
   </g>
   <g id="xtick_5">
    <g id="line2d_6">
     <path d="M 549.714628 496.743597 
L 554.21361 500.222646 
" style="fill: none; stroke: #000000; stroke-width: 0.8; stroke-linecap: square"/>
    </g>
    <g id="text_5">
     <!-- 350 -->
     <g transform="translate(541.433469 516.542583) scale(0.14 -0.14)">
      <defs>
       <path id="DejaVuSans-35" d="M 691 4666 
L 3169 4666 
L 3169 4134 
L 1269 4134 
L 1269 2991 
Q 1406 3038 1543 3061 
Q 1681 3084 1819 3084 
Q 2600 3084 3056 2656 
Q 3513 2228 3513 1497 
Q 3513 744 3044 326 
Q 2575 -91 1722 -91 
Q 1428 -91 1123 -41 
Q 819 9 494 109 
L 494 744 
Q 775 591 1075 516 
Q 1375 441 1709 441 
Q 2250 441 2565 725 
Q 2881 1009 2881 1497 
Q 2881 1984 2565 2268 
Q 2250 2553 1709 2553 
Q 1456 2553 1204 2497 
Q 953 2441 691 2322 
L 691 4666 
z
" transform="scale(0.015625)"/>
      </defs>
      <use xlink:href="#DejaVuSans-33"/>
      <use xlink:href="#DejaVuSans-35" x="63.623047"/>
      <use xlink:href="#DejaVuSans-30" x="127.246094"/>
     </g>
    </g>
   </g>
   <g id="text_6">
    <!-- X (m) -->
    <g transform="translate(418.135916 566.696647) rotate(-12.081584) scale(0.18 -0.18)">
     <defs>
      <path id="TimesNewRomanPSMT-58" d="M 2613 2347 
L 3522 991 
Q 3900 428 4083 279 
Q 4266 131 4547 116 
L 4547 0 
L 2728 0 
L 2728 116 
Q 2909 119 2997 153 
Q 3063 181 3105 239 
Q 3147 297 3147 356 
Q 3147 428 3119 500 
Q 3097 553 2947 775 
L 2228 1863 
L 1341 725 
Q 1200 544 1172 483 
Q 1144 422 1144 356 
Q 1144 256 1228 190 
Q 1313 125 1550 116 
L 1550 0 
L 47 0 
L 47 116 
Q 206 131 322 181 
Q 516 263 691 400 
Q 866 538 1091 822 
L 2091 2084 
L 1256 3306 
Q 916 3803 678 3958 
Q 441 4113 131 4122 
L 131 4238 
L 2091 4238 
L 2091 4122 
Q 1841 4113 1748 4041 
Q 1656 3969 1656 3881 
Q 1656 3766 1806 3544 
L 2456 2572 
L 3209 3525 
Q 3341 3694 3370 3756 
Q 3400 3819 3400 3884 
Q 3400 3950 3363 4000 
Q 3316 4066 3244 4092 
Q 3172 4119 2947 4122 
L 2947 4238 
L 4450 4238 
L 4450 4122 
Q 4272 4113 4159 4066 
Q 3991 3994 3850 3872 
Q 3709 3750 3453 3422 
L 2613 2347 
z
" transform="scale(0.015625)"/>
      <path id="TimesNewRomanPSMT-20" transform="scale(0.015625)"/>
      <path id="TimesNewRomanPSMT-28" d="M 1988 -1253 
L 1988 -1369 
Q 1516 -1131 1200 -813 
Q 750 -359 506 256 
Q 263 872 263 1534 
Q 263 2503 741 3301 
Q 1219 4100 1988 4444 
L 1988 4313 
Q 1603 4100 1356 3731 
Q 1109 3363 987 2797 
Q 866 2231 866 1616 
Q 866 947 969 400 
Q 1050 -31 1165 -292 
Q 1281 -553 1476 -793 
Q 1672 -1034 1988 -1253 
z
" transform="scale(0.015625)"/>
      <path id="TimesNewRomanPSMT-6d" d="M 1050 2338 
Q 1363 2650 1419 2697 
Q 1559 2816 1721 2881 
Q 1884 2947 2044 2947 
Q 2313 2947 2506 2790 
Q 2700 2634 2766 2338 
Q 3088 2713 3309 2830 
Q 3531 2947 3766 2947 
Q 3994 2947 4170 2830 
Q 4347 2713 4450 2447 
Q 4519 2266 4519 1878 
L 4519 647 
Q 4519 378 4559 278 
Q 4591 209 4675 161 
Q 4759 113 4950 113 
L 4950 0 
L 3538 0 
L 3538 113 
L 3597 113 
Q 3781 113 3884 184 
Q 3956 234 3988 344 
Q 4000 397 4000 647 
L 4000 1878 
Q 4000 2228 3916 2372 
Q 3794 2572 3525 2572 
Q 3359 2572 3192 2489 
Q 3025 2406 2788 2181 
L 2781 2147 
L 2788 2013 
L 2788 647 
Q 2788 353 2820 281 
Q 2853 209 2943 161 
Q 3034 113 3253 113 
L 3253 0 
L 1806 0 
L 1806 113 
Q 2044 113 2133 169 
Q 2222 225 2256 338 
Q 2272 391 2272 647 
L 2272 1878 
Q 2272 2228 2169 2381 
Q 2031 2581 1784 2581 
Q 1616 2581 1450 2491 
Q 1191 2353 1050 2181 
L 1050 647 
Q 1050 366 1089 281 
Q 1128 197 1204 155 
Q 1281 113 1516 113 
L 1516 0 
L 100 0 
L 100 113 
Q 297 113 375 155 
Q 453 197 493 289 
Q 534 381 534 647 
L 534 1741 
Q 534 2213 506 2350 
Q 484 2453 437 2492 
Q 391 2531 309 2531 
Q 222 2531 100 2484 
L 53 2597 
L 916 2947 
L 1050 2947 
L 1050 2338 
z
" transform="scale(0.015625)"/>
      <path id="TimesNewRomanPSMT-29" d="M 144 4313 
L 144 4444 
Q 619 4209 934 3891 
Q 1381 3434 1625 2820 
Q 1869 2206 1869 1541 
Q 1869 572 1392 -226 
Q 916 -1025 144 -1369 
L 144 -1253 
Q 528 -1038 776 -670 
Q 1025 -303 1145 264 
Q 1266 831 1266 1447 
Q 1266 2113 1163 2663 
Q 1084 3094 967 3353 
Q 850 3613 656 3853 
Q 463 4094 144 4313 
z
" transform="scale(0.015625)"/>
     </defs>
     <use xlink:href="#TimesNewRomanPSMT-58"/>
     <use xlink:href="#TimesNewRomanPSMT-20" x="72.216797"/>
     <use xlink:href="#TimesNewRomanPSMT-28" x="97.216797"/>
     <use xlink:href="#TimesNewRomanPSMT-6d" x="130.517578"/>
     <use xlink:href="#TimesNewRomanPSMT-29" x="208.300781"/>
    </g>
   </g>
  </g>
  <g id="axis3d_2">
   <g id="line2d_7">
    <path d="M 100.507323 419.513941 
L 248.820944 562.626756 
" style="fill: none; stroke: #000000; stroke-width: 0.8; stroke-linecap: square"/>
   </g>
   <g id="xtick_6">
    <g id="line2d_8">
     <path d="M 243.715202 554.319482 
L 235.096275 556.152795 
" style="fill: none; stroke: #000000; stroke-width: 0.8; stroke-linecap: square"/>
    </g>
    <g id="text_7">
     <!-- −450 -->
     <g transform="translate(208.075794 578.599827) scale(0.14 -0.14)">
      <defs>
       <path id="DejaVuSans-2212" d="M 678 2272 
L 4684 2272 
L 4684 1741 
L 678 1741 
L 678 2272 
z
" transform="scale(0.015625)"/>
       <path id="DejaVuSans-34" d="M 2419 4116 
L 825 1625 
L 2419 1625 
L 2419 4116 
z
M 2253 4666 
L 3047 4666 
L 3047 1625 
L 3713 1625 
L 3713 1100 
L 3047 1100 
L 3047 0 
L 2419 0 
L 2419 1100 
L 313 1100 
L 313 1709 
L 2253 4666 
z
" transform="scale(0.015625)"/>
      </defs>
      <use xlink:href="#DejaVuSans-2212"/>
      <use xlink:href="#DejaVuSans-34" x="83.789062"/>
      <use xlink:href="#DejaVuSans-35" x="147.412109"/>
      <use xlink:href="#DejaVuSans-30" x="211.035156"/>
     </g>
    </g>
   </g>
   <g id="xtick_7">
    <g id="line2d_9">
     <path d="M 221.747711 533.170132 
L 213.224302 534.951911 
" style="fill: none; stroke: #000000; stroke-width: 0.8; stroke-linecap: square"/>
    </g>
    <g id="text_8">
     <!-- −370 -->
     <g transform="translate(186.318857 557.236251) scale(0.14 -0.14)">
      <use xlink:href="#DejaVuSans-2212"/>
      <use xlink:href="#DejaVuSans-33" x="83.789062"/>
      <use xlink:href="#DejaVuSans-37" x="147.412109"/>
      <use xlink:href="#DejaVuSans-30" x="211.035156"/>
     </g>
    </g>
   </g>
   <g id="xtick_8">
    <g id="line2d_10">
     <path d="M 200.393075 512.610813 
L 191.963247 514.343201 
" style="fill: none; stroke: #000000; stroke-width: 0.8; stroke-linecap: square"/>
    </g>
    <g id="text_9">
     <!-- −290 -->
     <g transform="translate(165.169496 536.469266) scale(0.14 -0.14)">
      <use xlink:href="#DejaVuSans-2212"/>
      <use xlink:href="#DejaVuSans-32" x="83.789062"/>
      <use xlink:href="#DejaVuSans-39" x="147.412109"/>
      <use xlink:href="#DejaVuSans-30" x="211.035156"/>
     </g>
    </g>
   </g>
   <g id="xtick_9">
    <g id="line2d_11">
     <path d="M 179.626001 492.617172 
L 171.287866 494.302195 
" style="fill: none; stroke: #000000; stroke-width: 0.8; stroke-linecap: square"/>
    </g>
    <g id="text_10">
     <!-- −210 -->
     <g transform="translate(144.602612 516.274227) scale(0.14 -0.14)">
      <use xlink:href="#DejaVuSans-2212"/>
      <use xlink:href="#DejaVuSans-32" x="83.789062"/>
      <use xlink:href="#DejaVuSans-31" x="147.412109"/>
      <use xlink:href="#DejaVuSans-30" x="211.035156"/>
     </g>
    </g>
   </g>
   <g id="xtick_10">
    <g id="line2d_12">
     <path d="M 159.422568 473.166181 
L 151.174289 474.805755 
" style="fill: none; stroke: #000000; stroke-width: 0.8; stroke-linecap: square"/>
    </g>
    <g id="text_11">
     <!-- −130 -->
     <g transform="translate(124.594468 496.627826) scale(0.14 -0.14)">
      <use xlink:href="#DejaVuSans-2212"/>
      <use xlink:href="#DejaVuSans-31" x="83.789062"/>
      <use xlink:href="#DejaVuSans-33" x="147.412109"/>
      <use xlink:href="#DejaVuSans-30" x="211.035156"/>
     </g>
    </g>
   </g>
   <g id="xtick_11">
    <g id="line2d_13">
     <path d="M 139.760136 454.236043 
L 131.599924 455.831982 
" style="fill: none; stroke: #000000; stroke-width: 0.8; stroke-linecap: square"/>
    </g>
    <g id="text_12">
     <!-- −50 -->
     <g transform="translate(109.576351 477.508007) scale(0.14 -0.14)">
      <use xlink:href="#DejaVuSans-2212"/>
      <use xlink:href="#DejaVuSans-35" x="83.789062"/>
      <use xlink:href="#DejaVuSans-30" x="147.412109"/>
     </g>
    </g>
   </g>
   <g id="xtick_12">
    <g id="line2d_14">
     <path d="M 120.617264 435.806113 
L 112.543373 437.360136 
" style="fill: none; stroke: #000000; stroke-width: 0.8; stroke-linecap: square"/>
    </g>
    <g id="text_13">
     <!-- 30 -->
     <g transform="translate(96.485266 458.893877) scale(0.14 -0.14)">
      <use xlink:href="#DejaVuSans-33"/>
      <use xlink:href="#DejaVuSans-30" x="63.623047"/>
     </g>
    </g>
   </g>
   <g id="text_14">
    <!-- Y (m) -->
    <g transform="translate(117.552335 509.215122) rotate(-316.022394) scale(0.18 -0.18)">
     <defs>
      <path id="TimesNewRomanPSMT-59" d="M 3050 4238 
L 4528 4238 
L 4528 4122 
L 4447 4122 
Q 4366 4122 4209 4050 
Q 4053 3978 3925 3843 
Q 3797 3709 3609 3406 
L 2588 1797 
L 2588 734 
Q 2588 344 2675 247 
Q 2794 116 3050 116 
L 3188 116 
L 3188 0 
L 1388 0 
L 1388 116 
L 1538 116 
Q 1806 116 1919 278 
Q 1988 378 1988 734 
L 1988 1738 
L 825 3513 
Q 619 3825 545 3903 
Q 472 3981 241 4091 
Q 178 4122 59 4122 
L 59 4238 
L 1872 4238 
L 1872 4122 
L 1778 4122 
Q 1631 4122 1507 4053 
Q 1384 3984 1384 3847 
Q 1384 3734 1575 3441 
L 2459 2075 
L 3291 3381 
Q 3478 3675 3478 3819 
Q 3478 3906 3433 3975 
Q 3388 4044 3303 4083 
Q 3219 4122 3050 4122 
L 3050 4238 
z
" transform="scale(0.015625)"/>
     </defs>
     <use xlink:href="#TimesNewRomanPSMT-59"/>
     <use xlink:href="#TimesNewRomanPSMT-20" x="68.466797"/>
     <use xlink:href="#TimesNewRomanPSMT-28" x="93.466797"/>
     <use xlink:href="#TimesNewRomanPSMT-6d" x="126.767578"/>
     <use xlink:href="#TimesNewRomanPSMT-29" x="204.550781"/>
    </g>
   </g>
  </g>
  <g id="axis3d_3">
   <g id="line2d_15">
    <path d="M 100.507323 419.513941 
L 92.568072 165.331726 
" style="fill: none; stroke: #000000; stroke-width: 0.8; stroke-linecap: square"/>
   </g>
   <g id="xtick_13">
    <g id="line2d_16">
     <path d="M 102.037587 382.335481 
L 94.003316 383.817957 
" style="fill: none; stroke: #000000; stroke-width: 0.8; stroke-linecap: square"/>
    </g>
    <g id="text_15">
     <!-- −220 -->
     <g transform="translate(55.337033 390.040775) scale(0.14 -0.14)">
      <use xlink:href="#DejaVuSans-2212"/>
      <use xlink:href="#DejaVuSans-32" x="83.789062"/>
      <use xlink:href="#DejaVuSans-32" x="147.412109"/>
      <use xlink:href="#DejaVuSans-30" x="211.035156"/>
     </g>
    </g>
   </g>
   <g id="xtick_14">
    <g id="line2d_17">
     <path d="M 100.555968 334.363437 
L 92.469933 335.801068 
" style="fill: none; stroke: #000000; stroke-width: 0.8; stroke-linecap: square"/>
    </g>
    <g id="text_16">
     <!-- −140 -->
     <g transform="translate(53.687996 342.157498) scale(0.14 -0.14)">
      <use xlink:href="#DejaVuSans-2212"/>
      <use xlink:href="#DejaVuSans-31" x="83.789062"/>
      <use xlink:href="#DejaVuSans-34" x="147.412109"/>
      <use xlink:href="#DejaVuSans-30" x="211.035156"/>
     </g>
    </g>
   </g>
   <g id="xtick_15">
    <g id="line2d_18">
     <path d="M 99.055778 285.790116 
L 90.917309 287.181657 
" style="fill: none; stroke: #000000; stroke-width: 0.8; stroke-linecap: square"/>
    </g>
    <g id="text_17">
     <!-- −60 -->
     <g transform="translate(56.472087 293.675404) scale(0.14 -0.14)">
      <defs>
       <path id="DejaVuSans-36" d="M 2113 2584 
Q 1688 2584 1439 2293 
Q 1191 2003 1191 1497 
Q 1191 994 1439 701 
Q 1688 409 2113 409 
Q 2538 409 2786 701 
Q 3034 994 3034 1497 
Q 3034 2003 2786 2293 
Q 2538 2584 2113 2584 
z
M 3366 4563 
L 3366 3988 
Q 3128 4100 2886 4159 
Q 2644 4219 2406 4219 
Q 1781 4219 1451 3797 
Q 1122 3375 1075 2522 
Q 1259 2794 1537 2939 
Q 1816 3084 2150 3084 
Q 2853 3084 3261 2657 
Q 3669 2231 3669 1497 
Q 3669 778 3244 343 
Q 2819 -91 2113 -91 
Q 1303 -91 875 529 
Q 447 1150 447 2328 
Q 447 3434 972 4092 
Q 1497 4750 2381 4750 
Q 2619 4750 2861 4703 
Q 3103 4656 3366 4563 
z
" transform="scale(0.015625)"/>
      </defs>
      <use xlink:href="#DejaVuSans-2212"/>
      <use xlink:href="#DejaVuSans-36" x="83.789062"/>
      <use xlink:href="#DejaVuSans-30" x="147.412109"/>
     </g>
    </g>
   </g>
   <g id="xtick_16">
    <g id="line2d_19">
     <path d="M 97.536666 236.604143 
L 89.345079 237.948313 
" style="fill: none; stroke: #000000; stroke-width: 0.8; stroke-linecap: square"/>
    </g>
    <g id="text_18">
     <!-- 20 -->
     <g transform="translate(60.647198 244.58319) scale(0.14 -0.14)">
      <use xlink:href="#DejaVuSans-32"/>
      <use xlink:href="#DejaVuSans-30" x="63.623047"/>
     </g>
    </g>
   </g>
   <g id="xtick_17">
    <g id="line2d_20">
     <path d="M 95.998272 186.793853 
L 87.75287 188.089332 
" style="fill: none; stroke: #000000; stroke-width: 0.8; stroke-linecap: square"/>
    </g>
    <g id="text_19">
     <!-- 100 -->
     <g transform="translate(54.481367 194.869265) scale(0.14 -0.14)">
      <use xlink:href="#DejaVuSans-31"/>
      <use xlink:href="#DejaVuSans-30" x="63.623047"/>
      <use xlink:href="#DejaVuSans-30" x="127.246094"/>
     </g>
    </g>
   </g>
   <g id="text_20">
    <!-- Z (m) -->
    <g transform="translate(38.507365 267.047387) rotate(-271.789022) scale(0.18 -0.18)">
     <defs>
      <path id="TimesNewRomanPSMT-5a" d="M 3681 4238 
L 897 256 
L 2634 256 
Q 3034 256 3248 431 
Q 3463 606 3628 1141 
L 3731 1122 
L 3531 0 
L 81 0 
L 81 116 
L 2800 3984 
L 1444 3984 
Q 1106 3984 954 3911 
Q 803 3838 723 3698 
Q 644 3559 578 3178 
L 459 3178 
L 547 4238 
L 3681 4238 
z
" transform="scale(0.015625)"/>
     </defs>
     <use xlink:href="#TimesNewRomanPSMT-5a"/>
     <use xlink:href="#TimesNewRomanPSMT-20" x="61.083984"/>
     <use xlink:href="#TimesNewRomanPSMT-28" x="86.083984"/>
     <use xlink:href="#TimesNewRomanPSMT-6d" x="119.384766"/>
     <use xlink:href="#TimesNewRomanPSMT-29" x="197.167969"/>
    </g>
   </g>
  </g>
  <g id="axes_1">
   <g id="line2d_21">
    <defs>
     <path id="m63538de721" d="M 0 -3 
L -0.673542 -0.927051 
L -2.85317 -0.927051 
L -1.089814 0.354102 
L -1.763356 2.427051 
L -0 1.145898 
L 1.763356 2.427051 
L 1.089814 0.354102 
L 2.85317 -0.927051 
L 0.673542 -0.927051 
z
" style="stroke: #ff0000; stroke-linejoin: bevel"/>
    </defs>
    <g clip-path="url(#pef183dbcc2)">
     <use xlink:href="#m63538de721" x="132.860297" y="268.439913" style="fill: #ff0000; stroke: #ff0000; stroke-linejoin: bevel"/>
    </g>
   </g>
   <g id="line2d_22">
    <path d="M 132.860297 268.439913 
L 137.627686 267.530142 
L 158.602381 263.658494 
L 164.176981 262.703918 
L 176.907301 260.252479 
L 185.357687 258.769845 
L 195.569916 257.315108 
L 206.884987 256.130067 
L 220.12716 254.862916 
L 233.073641 253.20994 
L 239.183406 253.079053 
L 248.868573 253.186187 
L 259.434234 253.123619 
L 263.48246 253.203375 
L 287.755499 253.104252 
L 307.854725 253.613552 
L 316.29677 254.466544 
L 323.338677 255.46204 
L 333.040484 256.982961 
L 336.200792 257.499471 
L 343.728783 258.880743 
L 354.01788 262.24725 
L 359.445023 264.241675 
L 363.968308 265.684301 
L 368.549586 267.370593 
L 370.370668 267.971771 
L 373.019696 268.912158 
L 374.780293 269.358834 
L 381.648674 271.319155 
L 386.574777 272.711291 
L 388.36748 273.133827 
L 406.191838 277.843314 
L 421.641309 281.808507 
L 423.142819 282.376117 
L 424.668826 282.902308 
L 427.698121 284.066343 
L 431.551094 285.351176 
L 434.081213 286.068121 
L 437.812065 286.931392 
L 442.830292 287.865263 
L 460.880955 290.600687 
L 464.571165 291.043987 
L 478.836098 292.399116 
L 484.9146 293.213605 
L 487.231828 293.419265 
L 491.917836 293.796718 
L 495.43521 294.0544 
L 497.786191 294.29427 
L 500.150068 294.365329 
L 502.560313 294.506544 
L 504.894663 294.730329 
L 510.692366 295.40102 
L 517.439303 296.365076 
L 531.148173 299.008144 
L 539.118872 300.599184 
L 541.859421 300.877109 
L 548.874648 300.820365 
L 554.913979 300.391453 
L 555.847977 300.317466 
L 558.971683 299.732961 
L 562.581427 298.994686 
L 565.557634 298.36098 
L 571.290741 297.566971 
L 574.419592 297.586318 
L 576.372812 297.757038 
L 579.020491 298.268037 
L 580.680818 298.692935 
L 580.680818 298.692935 
" clip-path="url(#pef183dbcc2)" style="fill: none; stroke-dasharray: 7.4,3.2; stroke-dashoffset: 0; stroke: #808a87; stroke-width: 2"/>
   </g>
   <g id="line2d_23">
    <path d="M 132.860297 268.439913 
L 144.628677 266.667445 
L 154.449351 265.276347 
L 170.217676 263.215214 
L 177.728611 262.084925 
L 183.696997 261.280883 
L 195.072457 260.146877 
L 208.798721 259.37558 
L 214.515473 259.112146 
L 229.513269 257.931313 
L 231.425441 257.758406 
L 234.786095 257.766967 
L 241.193242 258.078117 
L 245.372846 258.322254 
L 274.968941 259.512251 
L 280.532874 259.736255 
L 288.17186 260.167856 
L 308.148141 261.58205 
L 311.661082 262.078894 
L 323.479051 264.150886 
L 327.878889 265.023769 
L 332.082145 265.87627 
L 342.796234 268.173852 
L 351.210871 271.22695 
L 355.751788 273.070199 
L 361.077612 275.119042 
L 362.92128 275.794917 
L 371.101096 279.006514 
L 373.730491 279.895611 
L 384.599384 283.515049 
L 387.283567 284.228515 
L 392.447614 285.777973 
L 394.150209 286.335609 
L 396.706933 287.086541 
L 400.110812 288.15629 
L 403.485832 289.102184 
L 422.132883 294.685192 
L 425.94542 296.239975 
L 427.464177 296.852426 
L 432.191696 298.515313 
L 435.806179 299.555373 
L 441.76576 300.918141 
L 446.939172 301.944256 
L 460.915411 304.559345 
L 478.862148 307.060442 
L 484.84048 308.042615 
L 489.522848 308.678841 
L 505.837352 310.581058 
L 517.169117 312.641364 
L 522.588334 313.74088 
L 534.97975 316.904514 
L 538.565385 317.58401 
L 542.947546 318.047409 
L 553.707731 317.971649 
L 554.619836 317.929709 
L 556.254091 317.723405 
L 559.146976 317.261809 
L 566.084031 316.250859 
L 568.704596 316.069629 
L 570.565424 316.068841 
L 573.753798 316.297995 
L 575.523831 316.627321 
L 577.313551 317.058599 
L 578.193941 317.324644 
L 578.193941 317.324644 
" clip-path="url(#pef183dbcc2)" style="fill: none; stroke: #ff0000; stroke-width: 2; stroke-linecap: square"/>
   </g>
   <g id="line2d_24">
    <path d="M 132.869791 268.439936 
L 132.828162 268.444503 
L 133.004643 268.422837 
L 139.534517 267.477158 
L 142.230997 267.069983 
L 160.007121 264.642504 
L 164.114636 264.115742 
L 183.107724 261.324311 
L 195.137769 260.116144 
L 208.549762 259.353564 
L 211.527559 259.227597 
L 216.916381 258.956433 
L 217.603307 258.900143 
L 219.160217 258.839562 
L 228.916567 257.935837 
L 230.971098 257.764096 
L 233.911601 257.719895 
L 235.118092 257.751534 
L 236.352225 257.768005 
L 236.974474 257.770974 
L 237.606427 257.778979 
L 238.554641 257.864402 
L 240.549411 257.963743 
L 242.627725 258.138557 
L 248.186368 258.393365 
L 251.845812 258.574356 
L 261.375521 259.084922 
L 269.528109 259.353515 
L 271.551431 259.444214 
L 283.786193 259.960299 
L 288.482663 260.253108 
L 291.715819 260.493077 
L 297.434534 260.868798 
L 300.601185 261.089976 
L 302.104561 261.192282 
L 304.283941 261.356173 
L 306.188256 261.516024 
L 309.8915 261.948347 
L 315.718863 262.880748 
L 318.396912 263.350243 
L 320.726566 263.820764 
L 337.656125 267.335817 
L 343.666021 268.849124 
L 349.093669 270.815721 
L 351.32558 271.694656 
L 353.125378 272.432187 
L 360.118707 275.30428 
L 362.582152 276.229329 
L 368.074553 278.476749 
L 369.441178 278.995498 
L 372.738956 280.271072 
L 373.6305 280.559522 
L 376.23266 281.408495 
L 380.488914 282.848845 
L 385.397035 284.535727 
L 386.959759 284.93256 
L 388.513397 285.457093 
L 390.684704 286.093138 
L 392.566156 286.707774 
L 394.935894 287.481432 
L 400.009332 289.104676 
L 403.379586 290.110034 
L 408.527474 291.613291 
L 413.065948 292.966215 
L 419.466831 294.949036 
L 420.372548 295.332361 
L 421.155128 295.501904 
L 422.643667 296.16205 
L 430.30127 299.277188 
L 436.200536 301.129173 
L 439.399227 301.905137 
L 442.452879 302.585777 
L 444.770518 303.079565 
L 447.918417 303.72468 
L 456.307028 305.375475 
L 459.366206 305.932207 
L 462.013979 306.425821 
L 464.902142 306.838322 
L 482.08429 309.417917 
L 483.840789 309.761219 
L 491.661761 310.731665 
L 494.24441 311.042689 
L 499.55416 311.622291 
L 501.334644 311.7923 
L 513.379696 313.742704 
L 517.505089 314.612965 
L 519.980897 315.170731 
L 524.531397 316.167185 
L 525.683244 316.43061 
L 531.688523 318.104178 
L 533.888058 318.685086 
L 536.976011 319.408191 
L 541.683621 320.014126 
L 547.056402 320.196594 
L 549.639319 320.183355 
L 552.714805 320.078431 
L 556.552639 319.674933 
L 567.119073 317.990139 
L 570.942467 317.892164 
L 575.828741 318.510465 
L 577.026025 318.810649 
L 579.062397 319.441416 
L 579.062397 319.441416 
" clip-path="url(#pef183dbcc2)" style="fill: none; stroke: #0000ff; stroke-width: 2; stroke-linecap: square"/>
   </g>
   <g id="Path3DCollection_1">
    <defs>
     <path id="m0310c751fa" d="M 0 -5 
L -1.12257 -1.545085 
L -4.755283 -1.545085 
L -1.816356 0.59017 
L -2.938926 4.045085 
L -0 1.90983 
L 2.938926 4.045085 
L 1.816356 0.59017 
L 4.755283 -1.545085 
L 1.12257 -1.545085 
z
" style="stroke: #ff0000"/>
    </defs>
    <g clip-path="url(#pef183dbcc2)">
     <use xlink:href="#m0310c751fa" x="132.860297" y="268.439913" style="fill: #ff0000; stroke: #ff0000"/>
    </g>
   </g>
   <g id="legend_1">
    <g id="patch_6">
     <path d="M 74.2475 84.9621 
L 589.9525 84.9621 
Q 593.1525 84.9621 593.1525 81.7621 
L 593.1525 60.7396 
Q 593.1525 57.5396 589.9525 57.5396 
L 74.2475 57.5396 
Q 71.0475 57.5396 71.0475 60.7396 
L 71.0475 81.7621 
Q 71.0475 84.9621 74.2475 84.9621 
z
" style="fill: #ffffff; opacity: 0.8; stroke: #cccccc; stroke-linejoin: miter"/>
    </g>
    <g id="line2d_25">
     <g>
      <use xlink:href="#m63538de721" x="93.4475" y="69.5396" style="fill: #ff0000; stroke: #ff0000; stroke-linejoin: bevel"/>
     </g>
    </g>
    <g id="text_21">
     <!-- Start -->
     <g transform="translate(122.2475 75.1396) scale(0.16 -0.16)">
      <defs>
       <path id="TimesNewRomanPSMT-53" d="M 2934 4334 
L 2934 2869 
L 2819 2869 
Q 2763 3291 2617 3541 
Q 2472 3791 2203 3937 
Q 1934 4084 1647 4084 
Q 1322 4084 1109 3886 
Q 897 3688 897 3434 
Q 897 3241 1031 3081 
Q 1225 2847 1953 2456 
Q 2547 2138 2764 1967 
Q 2981 1797 3098 1565 
Q 3216 1334 3216 1081 
Q 3216 600 2842 251 
Q 2469 -97 1881 -97 
Q 1697 -97 1534 -69 
Q 1438 -53 1133 45 
Q 828 144 747 144 
Q 669 144 623 97 
Q 578 50 556 -97 
L 441 -97 
L 441 1356 
L 556 1356 
Q 638 900 775 673 
Q 913 447 1195 297 
Q 1478 147 1816 147 
Q 2206 147 2432 353 
Q 2659 559 2659 841 
Q 2659 997 2573 1156 
Q 2488 1316 2306 1453 
Q 2184 1547 1640 1851 
Q 1097 2156 867 2337 
Q 638 2519 519 2737 
Q 400 2956 400 3219 
Q 400 3675 750 4004 
Q 1100 4334 1641 4334 
Q 1978 4334 2356 4169 
Q 2531 4091 2603 4091 
Q 2684 4091 2736 4139 
Q 2788 4188 2819 4334 
L 2934 4334 
z
" transform="scale(0.015625)"/>
       <path id="TimesNewRomanPSMT-74" d="M 1031 3803 
L 1031 2863 
L 1700 2863 
L 1700 2644 
L 1031 2644 
L 1031 788 
Q 1031 509 1111 412 
Q 1191 316 1316 316 
Q 1419 316 1516 380 
Q 1613 444 1666 569 
L 1788 569 
Q 1678 263 1478 108 
Q 1278 -47 1066 -47 
Q 922 -47 784 33 
Q 647 113 581 261 
Q 516 409 516 719 
L 516 2644 
L 63 2644 
L 63 2747 
Q 234 2816 414 2980 
Q 594 3144 734 3369 
Q 806 3488 934 3803 
L 1031 3803 
z
" transform="scale(0.015625)"/>
       <path id="TimesNewRomanPSMT-61" d="M 1822 413 
Q 1381 72 1269 19 
Q 1100 -59 909 -59 
Q 613 -59 420 144 
Q 228 347 228 678 
Q 228 888 322 1041 
Q 450 1253 767 1440 
Q 1084 1628 1822 1897 
L 1822 2009 
Q 1822 2438 1686 2597 
Q 1550 2756 1291 2756 
Q 1094 2756 978 2650 
Q 859 2544 859 2406 
L 866 2225 
Q 866 2081 792 2003 
Q 719 1925 600 1925 
Q 484 1925 411 2006 
Q 338 2088 338 2228 
Q 338 2497 613 2722 
Q 888 2947 1384 2947 
Q 1766 2947 2009 2819 
Q 2194 2722 2281 2516 
Q 2338 2381 2338 1966 
L 2338 994 
Q 2338 584 2353 492 
Q 2369 400 2405 369 
Q 2441 338 2488 338 
Q 2538 338 2575 359 
Q 2641 400 2828 588 
L 2828 413 
Q 2478 -56 2159 -56 
Q 2006 -56 1915 50 
Q 1825 156 1822 413 
z
M 1822 616 
L 1822 1706 
Q 1350 1519 1213 1441 
Q 966 1303 859 1153 
Q 753 1003 753 825 
Q 753 600 887 451 
Q 1022 303 1197 303 
Q 1434 303 1822 616 
z
" transform="scale(0.015625)"/>
       <path id="TimesNewRomanPSMT-72" d="M 1038 2947 
L 1038 2303 
Q 1397 2947 1775 2947 
Q 1947 2947 2059 2842 
Q 2172 2738 2172 2600 
Q 2172 2478 2090 2393 
Q 2009 2309 1897 2309 
Q 1788 2309 1652 2417 
Q 1516 2525 1450 2525 
Q 1394 2525 1328 2463 
Q 1188 2334 1038 2041 
L 1038 669 
Q 1038 431 1097 309 
Q 1138 225 1241 169 
Q 1344 113 1538 113 
L 1538 0 
L 72 0 
L 72 113 
Q 291 113 397 181 
Q 475 231 506 341 
Q 522 394 522 644 
L 522 1753 
Q 522 2253 501 2348 
Q 481 2444 426 2487 
Q 372 2531 291 2531 
Q 194 2531 72 2484 
L 41 2597 
L 906 2947 
L 1038 2947 
z
" transform="scale(0.015625)"/>
      </defs>
      <use xlink:href="#TimesNewRomanPSMT-53"/>
      <use xlink:href="#TimesNewRomanPSMT-74" x="55.615234"/>
      <use xlink:href="#TimesNewRomanPSMT-61" x="83.398438"/>
      <use xlink:href="#TimesNewRomanPSMT-72" x="127.783203"/>
      <use xlink:href="#TimesNewRomanPSMT-74" x="161.083984"/>
     </g>
    </g>
    <g id="line2d_26">
     <path d="M 184.465 69.5396 
L 200.465 69.5396 
L 216.465 69.5396 
" style="fill: none; stroke-dasharray: 7.4,3.2; stroke-dashoffset: 0; stroke: #808a87; stroke-width: 2"/>
    </g>
    <g id="text_22">
     <!-- GroundTruth -->
     <g transform="translate(229.265 75.1396) scale(0.16 -0.16)">
      <defs>
       <path id="TimesNewRomanPSMT-47" d="M 3928 4334 
L 4038 2997 
L 3928 2997 
Q 3763 3497 3500 3750 
Q 3122 4116 2528 4116 
Q 1719 4116 1297 3475 
Q 944 2934 944 2188 
Q 944 1581 1178 1081 
Q 1413 581 1792 348 
Q 2172 116 2572 116 
Q 2806 116 3025 175 
Q 3244 234 3447 350 
L 3447 1575 
Q 3447 1894 3398 1992 
Q 3350 2091 3248 2142 
Q 3147 2194 2891 2194 
L 2891 2313 
L 4531 2313 
L 4531 2194 
L 4453 2194 
Q 4209 2194 4119 2031 
Q 4056 1916 4056 1575 
L 4056 278 
Q 3697 84 3347 -6 
Q 2997 -97 2569 -97 
Q 1341 -97 703 691 
Q 225 1281 225 2053 
Q 225 2613 494 3125 
Q 813 3734 1369 4063 
Q 1834 4334 2469 4334 
Q 2700 4334 2889 4296 
Q 3078 4259 3425 4131 
Q 3600 4066 3659 4066 
Q 3719 4066 3761 4120 
Q 3803 4175 3813 4334 
L 3928 4334 
z
" transform="scale(0.015625)"/>
       <path id="TimesNewRomanPSMT-6f" d="M 1600 2947 
Q 2250 2947 2644 2453 
Q 2978 2031 2978 1484 
Q 2978 1100 2793 706 
Q 2609 313 2286 112 
Q 1963 -88 1566 -88 
Q 919 -88 538 428 
Q 216 863 216 1403 
Q 216 1797 411 2186 
Q 606 2575 925 2761 
Q 1244 2947 1600 2947 
z
M 1503 2744 
Q 1338 2744 1170 2645 
Q 1003 2547 900 2300 
Q 797 2053 797 1666 
Q 797 1041 1045 587 
Q 1294 134 1700 134 
Q 2003 134 2200 384 
Q 2397 634 2397 1244 
Q 2397 2006 2069 2444 
Q 1847 2744 1503 2744 
z
" transform="scale(0.015625)"/>
       <path id="TimesNewRomanPSMT-75" d="M 2709 2863 
L 2709 1128 
Q 2709 631 2732 520 
Q 2756 409 2807 365 
Q 2859 322 2928 322 
Q 3025 322 3147 375 
L 3191 266 
L 2334 -88 
L 2194 -88 
L 2194 519 
Q 1825 119 1631 15 
Q 1438 -88 1222 -88 
Q 981 -88 804 51 
Q 628 191 559 409 
Q 491 628 491 1028 
L 491 2306 
Q 491 2509 447 2587 
Q 403 2666 317 2708 
Q 231 2750 6 2747 
L 6 2863 
L 1009 2863 
L 1009 947 
Q 1009 547 1148 422 
Q 1288 297 1484 297 
Q 1619 297 1789 381 
Q 1959 466 2194 703 
L 2194 2325 
Q 2194 2569 2105 2655 
Q 2016 2741 1734 2747 
L 1734 2863 
L 2709 2863 
z
" transform="scale(0.015625)"/>
       <path id="TimesNewRomanPSMT-6e" d="M 1034 2341 
Q 1538 2947 1994 2947 
Q 2228 2947 2397 2830 
Q 2566 2713 2666 2444 
Q 2734 2256 2734 1869 
L 2734 647 
Q 2734 375 2778 278 
Q 2813 200 2889 156 
Q 2966 113 3172 113 
L 3172 0 
L 1756 0 
L 1756 113 
L 1816 113 
Q 2016 113 2095 173 
Q 2175 234 2206 353 
Q 2219 400 2219 647 
L 2219 1819 
Q 2219 2209 2117 2386 
Q 2016 2563 1775 2563 
Q 1403 2563 1034 2156 
L 1034 647 
Q 1034 356 1069 288 
Q 1113 197 1189 155 
Q 1266 113 1500 113 
L 1500 0 
L 84 0 
L 84 113 
L 147 113 
Q 366 113 442 223 
Q 519 334 519 647 
L 519 1709 
Q 519 2225 495 2337 
Q 472 2450 423 2490 
Q 375 2531 294 2531 
Q 206 2531 84 2484 
L 38 2597 
L 900 2947 
L 1034 2947 
L 1034 2341 
z
" transform="scale(0.015625)"/>
       <path id="TimesNewRomanPSMT-64" d="M 2222 322 
Q 2013 103 1813 7 
Q 1613 -88 1381 -88 
Q 913 -88 563 304 
Q 213 697 213 1313 
Q 213 1928 600 2439 
Q 988 2950 1597 2950 
Q 1975 2950 2222 2709 
L 2222 3238 
Q 2222 3728 2198 3840 
Q 2175 3953 2125 3993 
Q 2075 4034 2000 4034 
Q 1919 4034 1784 3984 
L 1744 4094 
L 2597 4444 
L 2738 4444 
L 2738 1134 
Q 2738 631 2761 520 
Q 2784 409 2836 365 
Q 2888 322 2956 322 
Q 3041 322 3181 375 
L 3216 266 
L 2366 -88 
L 2222 -88 
L 2222 322 
z
M 2222 541 
L 2222 2016 
Q 2203 2228 2109 2403 
Q 2016 2578 1861 2667 
Q 1706 2756 1559 2756 
Q 1284 2756 1069 2509 
Q 784 2184 784 1559 
Q 784 928 1059 592 
Q 1334 256 1672 256 
Q 1956 256 2222 541 
z
" transform="scale(0.015625)"/>
       <path id="TimesNewRomanPSMT-54" d="M 3703 4238 
L 3750 3244 
L 3631 3244 
Q 3597 3506 3538 3619 
Q 3441 3800 3280 3886 
Q 3119 3972 2856 3972 
L 2259 3972 
L 2259 734 
Q 2259 344 2344 247 
Q 2463 116 2709 116 
L 2856 116 
L 2856 0 
L 1059 0 
L 1059 116 
L 1209 116 
Q 1478 116 1591 278 
Q 1659 378 1659 734 
L 1659 3972 
L 1150 3972 
Q 853 3972 728 3928 
Q 566 3869 450 3700 
Q 334 3531 313 3244 
L 194 3244 
L 244 4238 
L 3703 4238 
z
" transform="scale(0.015625)"/>
       <path id="TimesNewRomanPSMT-68" d="M 1041 4444 
L 1041 2350 
Q 1388 2731 1591 2839 
Q 1794 2947 1997 2947 
Q 2241 2947 2416 2812 
Q 2591 2678 2675 2391 
Q 2734 2191 2734 1659 
L 2734 647 
Q 2734 375 2778 275 
Q 2809 200 2884 156 
Q 2959 113 3159 113 
L 3159 0 
L 1753 0 
L 1753 113 
L 1819 113 
Q 2019 113 2097 173 
Q 2175 234 2206 353 
Q 2216 403 2216 647 
L 2216 1659 
Q 2216 2128 2167 2275 
Q 2119 2422 2012 2495 
Q 1906 2569 1756 2569 
Q 1603 2569 1437 2487 
Q 1272 2406 1041 2159 
L 1041 647 
Q 1041 353 1073 281 
Q 1106 209 1195 161 
Q 1284 113 1503 113 
L 1503 0 
L 84 0 
L 84 113 
Q 275 113 384 172 
Q 447 203 484 290 
Q 522 378 522 647 
L 522 3238 
Q 522 3728 498 3840 
Q 475 3953 426 3993 
Q 378 4034 297 4034 
Q 231 4034 84 3984 
L 41 4094 
L 897 4444 
L 1041 4444 
z
" transform="scale(0.015625)"/>
      </defs>
      <use xlink:href="#TimesNewRomanPSMT-47"/>
      <use xlink:href="#TimesNewRomanPSMT-72" x="72.216797"/>
      <use xlink:href="#TimesNewRomanPSMT-6f" x="105.517578"/>
      <use xlink:href="#TimesNewRomanPSMT-75" x="155.517578"/>
      <use xlink:href="#TimesNewRomanPSMT-6e" x="205.517578"/>
      <use xlink:href="#TimesNewRomanPSMT-64" x="255.517578"/>
      <use xlink:href="#TimesNewRomanPSMT-54" x="305.517578"/>
      <use xlink:href="#TimesNewRomanPSMT-72" x="363.101562"/>
      <use xlink:href="#TimesNewRomanPSMT-75" x="396.402344"/>
      <use xlink:href="#TimesNewRomanPSMT-74" x="446.402344"/>
      <use xlink:href="#TimesNewRomanPSMT-68" x="474.185547"/>
     </g>
    </g>
    <g id="line2d_27">
     <path d="M 345.1325 69.5396 
L 361.1325 69.5396 
L 377.1325 69.5396 
" style="fill: none; stroke: #ff0000; stroke-width: 2; stroke-linecap: square"/>
    </g>
    <g id="text_23">
     <!-- ROLO -->
     <g transform="translate(389.9325 75.1396) scale(0.16 -0.16)">
      <defs>
       <path id="TimesNewRomanPSMT-52" d="M 4325 0 
L 3194 0 
L 1759 1981 
Q 1600 1975 1500 1975 
Q 1459 1975 1412 1976 
Q 1366 1978 1316 1981 
L 1316 750 
Q 1316 350 1403 253 
Q 1522 116 1759 116 
L 1925 116 
L 1925 0 
L 109 0 
L 109 116 
L 269 116 
Q 538 116 653 291 
Q 719 388 719 750 
L 719 3488 
Q 719 3888 631 3984 
Q 509 4122 269 4122 
L 109 4122 
L 109 4238 
L 1653 4238 
Q 2328 4238 2648 4139 
Q 2969 4041 3192 3777 
Q 3416 3513 3416 3147 
Q 3416 2756 3161 2468 
Q 2906 2181 2372 2063 
L 3247 847 
Q 3547 428 3762 290 
Q 3978 153 4325 116 
L 4325 0 
z
M 1316 2178 
Q 1375 2178 1419 2176 
Q 1463 2175 1491 2175 
Q 2097 2175 2405 2437 
Q 2713 2700 2713 3106 
Q 2713 3503 2464 3751 
Q 2216 4000 1806 4000 
Q 1625 4000 1316 3941 
L 1316 2178 
z
" transform="scale(0.015625)"/>
       <path id="TimesNewRomanPSMT-4f" d="M 2341 4334 
Q 3166 4334 3770 3707 
Q 4375 3081 4375 2144 
Q 4375 1178 3765 540 
Q 3156 -97 2291 -97 
Q 1416 -97 820 525 
Q 225 1147 225 2134 
Q 225 3144 913 3781 
Q 1509 4334 2341 4334 
z
M 2281 4106 
Q 1713 4106 1369 3684 
Q 941 3159 941 2147 
Q 941 1109 1384 550 
Q 1725 125 2284 125 
Q 2881 125 3270 590 
Q 3659 1056 3659 2059 
Q 3659 3147 3231 3681 
Q 2888 4106 2281 4106 
z
" transform="scale(0.015625)"/>
       <path id="TimesNewRomanPSMT-4c" d="M 3669 1172 
L 3772 1150 
L 3409 0 
L 128 0 
L 128 116 
L 288 116 
Q 556 116 672 291 
Q 738 391 738 753 
L 738 3488 
Q 738 3884 650 3984 
Q 528 4122 288 4122 
L 128 4122 
L 128 4238 
L 2047 4238 
L 2047 4122 
Q 1709 4125 1573 4059 
Q 1438 3994 1388 3894 
Q 1338 3794 1338 3416 
L 1338 753 
Q 1338 494 1388 397 
Q 1425 331 1503 300 
Q 1581 269 1991 269 
L 2300 269 
Q 2788 269 2984 341 
Q 3181 413 3343 595 
Q 3506 778 3669 1172 
z
" transform="scale(0.015625)"/>
      </defs>
      <use xlink:href="#TimesNewRomanPSMT-52"/>
      <use xlink:href="#TimesNewRomanPSMT-4f" x="66.699219"/>
      <use xlink:href="#TimesNewRomanPSMT-4c" x="138.916016"/>
      <use xlink:href="#TimesNewRomanPSMT-4f" x="200"/>
     </g>
    </g>
    <g id="line2d_28">
     <path d="M 465.4875 69.5396 
L 481.4875 69.5396 
L 497.4875 69.5396 
" style="fill: none; stroke: #0000ff; stroke-width: 2; stroke-linecap: square"/>
    </g>
    <g id="text_24">
     <!-- FAST-LIO2 -->
     <g transform="translate(510.2875 75.1396) scale(0.16 -0.16)">
      <defs>
       <path id="TimesNewRomanPSMT-46" d="M 1309 4006 
L 1309 2341 
L 2081 2341 
Q 2347 2341 2470 2458 
Q 2594 2575 2634 2922 
L 2750 2922 
L 2750 1488 
L 2634 1488 
Q 2631 1734 2570 1850 
Q 2509 1966 2401 2023 
Q 2294 2081 2081 2081 
L 1309 2081 
L 1309 750 
Q 1309 428 1350 325 
Q 1381 247 1481 191 
Q 1619 116 1769 116 
L 1922 116 
L 1922 0 
L 103 0 
L 103 116 
L 253 116 
Q 516 116 634 269 
Q 709 369 709 750 
L 709 3488 
Q 709 3809 669 3913 
Q 638 3991 541 4047 
Q 406 4122 253 4122 
L 103 4122 
L 103 4238 
L 3256 4238 
L 3297 3306 
L 3188 3306 
Q 3106 3603 2998 3742 
Q 2891 3881 2733 3943 
Q 2575 4006 2244 4006 
L 1309 4006 
z
" transform="scale(0.015625)"/>
       <path id="TimesNewRomanPSMT-41" d="M 2928 1419 
L 1288 1419 
L 1000 750 
Q 894 503 894 381 
Q 894 284 986 211 
Q 1078 138 1384 116 
L 1384 0 
L 50 0 
L 50 116 
Q 316 163 394 238 
Q 553 388 747 847 
L 2238 4334 
L 2347 4334 
L 3822 809 
Q 4000 384 4145 257 
Q 4291 131 4550 116 
L 4550 0 
L 2878 0 
L 2878 116 
Q 3131 128 3220 200 
Q 3309 272 3309 375 
Q 3309 513 3184 809 
L 2928 1419 
z
M 2841 1650 
L 2122 3363 
L 1384 1650 
L 2841 1650 
z
" transform="scale(0.015625)"/>
       <path id="TimesNewRomanPSMT-2d" d="M 259 1672 
L 1875 1672 
L 1875 1200 
L 259 1200 
L 259 1672 
z
" transform="scale(0.015625)"/>
       <path id="TimesNewRomanPSMT-49" d="M 1975 116 
L 1975 0 
L 159 0 
L 159 116 
L 309 116 
Q 572 116 691 269 
Q 766 369 766 750 
L 766 3488 
Q 766 3809 725 3913 
Q 694 3991 597 4047 
Q 459 4122 309 4122 
L 159 4122 
L 159 4238 
L 1975 4238 
L 1975 4122 
L 1822 4122 
Q 1563 4122 1444 3969 
Q 1366 3869 1366 3488 
L 1366 750 
Q 1366 428 1406 325 
Q 1438 247 1538 191 
Q 1672 116 1822 116 
L 1975 116 
z
" transform="scale(0.015625)"/>
       <path id="TimesNewRomanPSMT-32" d="M 2934 816 
L 2638 0 
L 138 0 
L 138 116 
Q 1241 1122 1691 1759 
Q 2141 2397 2141 2925 
Q 2141 3328 1894 3587 
Q 1647 3847 1303 3847 
Q 991 3847 742 3664 
Q 494 3481 375 3128 
L 259 3128 
Q 338 3706 661 4015 
Q 984 4325 1469 4325 
Q 1984 4325 2329 3994 
Q 2675 3663 2675 3213 
Q 2675 2891 2525 2569 
Q 2294 2063 1775 1497 
Q 997 647 803 472 
L 1909 472 
Q 2247 472 2383 497 
Q 2519 522 2628 598 
Q 2738 675 2819 816 
L 2934 816 
z
" transform="scale(0.015625)"/>
      </defs>
      <use xlink:href="#TimesNewRomanPSMT-46"/>
      <use xlink:href="#TimesNewRomanPSMT-41" x="48.240234"/>
      <use xlink:href="#TimesNewRomanPSMT-53" x="120.457031"/>
      <use xlink:href="#TimesNewRomanPSMT-54" x="176.072266"/>
      <use xlink:href="#TimesNewRomanPSMT-2d" x="228.03125"/>
      <use xlink:href="#TimesNewRomanPSMT-4c" x="261.332031"/>
      <use xlink:href="#TimesNewRomanPSMT-49" x="322.416016"/>
      <use xlink:href="#TimesNewRomanPSMT-4f" x="355.716797"/>
      <use xlink:href="#TimesNewRomanPSMT-32" x="427.933594"/>
     </g>
    </g>
   </g>
  </g>
 </g>
 <defs>
  <clipPath id="pef183dbcc2">
   <rect x="42.12" y="43.74" width="579.96" height="579.96"/>
  </clipPath>
 </defs>
</svg>
