<?xml version="1.0" encoding="utf-8" standalone="no"?>
<!DOCTYPE svg PUBLIC "-//W3C//DTD SVG 1.1//EN"
  "http://www.w3.org/Graphics/SVG/1.1/DTD/svg11.dtd">
<svg xmlns:xlink="http://www.w3.org/1999/xlink" width="648pt" height="648pt" viewBox="0 0 648 648" xmlns="http://www.w3.org/2000/svg" version="1.1">
 <metadata>
  <rdf:RDF xmlns:dc="http://purl.org/dc/elements/1.1/" xmlns:cc="http://creativecommons.org/ns#" xmlns:rdf="http://www.w3.org/1999/02/22-rdf-syntax-ns#">
   <cc:Work>
    <dc:type rdf:resource="http://purl.org/dc/dcmitype/StillImage"/>
    <dc:date>2024-08-06T10:34:59.033698</dc:date>
    <dc:format>image/svg+xml</dc:format>
    <dc:creator>
     <cc:Agent>
      <dc:title>Matplotlib v3.8.3, https://matplotlib.org/</dc:title>
     </cc:Agent>
    </dc:creator>
   </cc:Work>
  </rdf:RDF>
 </metadata>
 <defs>
  <style type="text/css">*{stroke-linejoin: round; stroke-linecap: butt}</style>
 </defs>
 <g id="figure_1">
  <g id="patch_1">
   <path d="M 0 648 
L 648 648 
L 648 0 
L 0 0 
z
" style="fill: #ffffff"/>
  </g>
  <g id="patch_2">
   <path d="M 42.12 623.7 
L 622.08 623.7 
L 622.08 43.74 
L 42.12 43.74 
z
" style="fill: #ffffff"/>
  </g>
  <g id="pane3d_1">
   <g id="patch_3">
    <path d="M 591.641981 489.247539 
L 418.721639 359.160244 
L 421.214465 114.703421 
L 600.431072 224.014277 
" style="fill: #ffffff; stroke: #ffffff; stroke-linejoin: miter"/>
   </g>
  </g>
  <g id="pane3d_2">
   <g id="patch_4">
    <path d="M 100.507323 419.513941 
L 418.721639 359.160244 
L 421.214465 114.703421 
L 92.568072 165.331726 
" style="fill: #ffffff; stroke: #ffffff; stroke-linejoin: miter"/>
   </g>
  </g>
  <g id="pane3d_3">
   <g id="patch_5">
    <path d="M 248.820944 562.626756 
L 591.641981 489.247539 
L 418.721639 359.160244 
L 100.507323 419.513941 
" style="fill: #ffffff; stroke: #ffffff; stroke-linejoin: miter"/>
   </g>
  </g>
  <g id="grid3d_1">
   <g id="Line3DCollection_1">
    <path d="M 256.021817 561.085444 
L 107.160928 418.251994 
L 99.449703 164.271604 
" style="fill: none; stroke: #bdc3c7; stroke-width: 0.5"/>
    <path d="M 324.406246 546.448081 
L 170.412935 406.255385 
L 164.848274 154.196889 
" style="fill: none; stroke: #bdc3c7; stroke-width: 0.5"/>
    <path d="M 391.470512 532.093292 
L 232.557963 394.468731 
L 229.065068 144.304228 
" style="fill: none; stroke: #bdc3c7; stroke-width: 0.5"/>
    <path d="M 457.252478 518.012975 
L 293.62482 382.886566 
L 292.131831 134.58873 
" style="fill: none; stroke: #bdc3c7; stroke-width: 0.5"/>
    <path d="M 521.788572 504.19933 
L 353.641322 371.503616 
L 354.079182 125.045679 
" style="fill: none; stroke: #bdc3c7; stroke-width: 0.5"/>
    <path d="M 585.113856 490.644853 
L 412.634338 360.314784 
L 414.936662 115.670523 
" style="fill: none; stroke: #bdc3c7; stroke-width: 0.5"/>
   </g>
  </g>
  <g id="grid3d_2">
   <g id="Line3DCollection_2">
    <path d="M 596.48368 221.606616 
L 587.845066 486.391134 
L 245.549465 559.469996 
" style="fill: none; stroke: #bdc3c7; stroke-width: 0.5"/>
    <path d="M 569.849342 205.361346 
L 562.212188 467.107621 
L 223.481331 538.17571 
" style="fill: none; stroke: #bdc3c7; stroke-width: 0.5"/>
    <path d="M 543.949261 189.563925 
L 537.262798 448.338293 
L 202.030923 517.477487 
" style="fill: none; stroke: #bdc3c7; stroke-width: 0.5"/>
    <path d="M 518.753485 174.196087 
L 512.969918 430.062854 
L 181.17266 497.350645 
" style="fill: none; stroke: #bdc3c7; stroke-width: 0.5"/>
    <path d="M 494.233672 159.240544 
L 489.307972 412.262065 
L 160.882357 477.771848 
" style="fill: none; stroke: #bdc3c7; stroke-width: 0.5"/>
    <path d="M 470.36298 144.680923 
L 466.252695 394.917671 
L 141.137128 458.719011 
" style="fill: none; stroke: #bdc3c7; stroke-width: 0.5"/>
    <path d="M 447.115968 130.501709 
L 443.781051 378.012341 
L 121.9153 440.171221 
" style="fill: none; stroke: #bdc3c7; stroke-width: 0.5"/>
    <path d="M 424.46851 116.688184 
L 421.871155 361.529612 
L 103.196335 422.108659 
" style="fill: none; stroke: #bdc3c7; stroke-width: 0.5"/>
   </g>
  </g>
  <g id="grid3d_3">
   <g id="Line3DCollection_3">
    <path d="M 100.353535 414.590294 
L 418.769996 354.418151 
L 591.811947 484.118392 
" style="fill: none; stroke: #bdc3c7; stroke-width: 0.5"/>
    <path d="M 98.86706 366.999476 
L 419.237262 308.596123 
L 593.455372 434.523842 
" style="fill: none; stroke: #bdc3c7; stroke-width: 0.5"/>
    <path d="M 97.362025 318.814425 
L 419.7101 262.227653 
L 595.120384 384.277855 
" style="fill: none; stroke: #bdc3c7; stroke-width: 0.5"/>
    <path d="M 95.83808 270.023942 
L 420.188611 215.302908 
L 596.807411 333.367511 
" style="fill: none; stroke: #bdc3c7; stroke-width: 0.5"/>
    <path d="M 94.294865 220.616545 
L 420.672897 167.811817 
L 598.516892 281.779546 
" style="fill: none; stroke: #bdc3c7; stroke-width: 0.5"/>
    <path d="M 92.732014 170.580458 
L 421.163063 119.744066 
L 600.249279 229.50034 
" style="fill: none; stroke: #bdc3c7; stroke-width: 0.5"/>
   </g>
  </g>
  <g id="axis3d_1">
   <g id="line2d_1">
    <path d="M 591.641981 489.247539 
L 248.820944 562.626756 
" style="fill: none; stroke: #000000; stroke-width: 0.8; stroke-linecap: square"/>
   </g>
   <g id="xtick_1">
    <g id="line2d_2">
     <path d="M 254.706867 559.823737 
L 258.658361 563.615233 
" style="fill: none; stroke: #000000; stroke-width: 0.8; stroke-linecap: square"/>
    </g>
    <g id="text_1">
     <!-- −50 -->
     <g transform="translate(244.579884 580.166172) scale(0.14 -0.14)">
      <defs>
       <path id="DejaVuSans-2212" d="M 678 2272 
L 4684 2272 
L 4684 1741 
L 678 1741 
L 678 2272 
z
" transform="scale(0.015625)"/>
       <path id="DejaVuSans-35" d="M 691 4666 
L 3169 4666 
L 3169 4134 
L 1269 4134 
L 1269 2991 
Q 1406 3038 1543 3061 
Q 1681 3084 1819 3084 
Q 2600 3084 3056 2656 
Q 3513 2228 3513 1497 
Q 3513 744 3044 326 
Q 2575 -91 1722 -91 
Q 1428 -91 1123 -41 
Q 819 9 494 109 
L 494 744 
Q 775 591 1075 516 
Q 1375 441 1709 441 
Q 2250 441 2565 725 
Q 2881 1009 2881 1497 
Q 2881 1984 2565 2268 
Q 2250 2553 1709 2553 
Q 1456 2553 1204 2497 
Q 953 2441 691 2322 
L 691 4666 
z
" transform="scale(0.015625)"/>
       <path id="DejaVuSans-30" d="M 2034 4250 
Q 1547 4250 1301 3770 
Q 1056 3291 1056 2328 
Q 1056 1369 1301 889 
Q 1547 409 2034 409 
Q 2525 409 2770 889 
Q 3016 1369 3016 2328 
Q 3016 3291 2770 3770 
Q 2525 4250 2034 4250 
z
M 2034 4750 
Q 2819 4750 3233 4129 
Q 3647 3509 3647 2328 
Q 3647 1150 3233 529 
Q 2819 -91 2034 -91 
Q 1250 -91 836 529 
Q 422 1150 422 2328 
Q 422 3509 836 4129 
Q 1250 4750 2034 4750 
z
" transform="scale(0.015625)"/>
      </defs>
      <use xlink:href="#DejaVuSans-2212"/>
      <use xlink:href="#DejaVuSans-35" x="83.789062"/>
      <use xlink:href="#DejaVuSans-30" x="147.412109"/>
     </g>
    </g>
   </g>
   <g id="xtick_2">
    <g id="line2d_3">
     <path d="M 323.04721 545.210838 
L 327.131121 548.928756 
" style="fill: none; stroke: #000000; stroke-width: 0.8; stroke-linecap: square"/>
    </g>
    <g id="text_2">
     <!-- 30 -->
     <g transform="translate(318.891423 565.42632) scale(0.14 -0.14)">
      <defs>
       <path id="DejaVuSans-33" d="M 2597 2516 
Q 3050 2419 3304 2112 
Q 3559 1806 3559 1356 
Q 3559 666 3084 287 
Q 2609 -91 1734 -91 
Q 1441 -91 1130 -33 
Q 819 25 488 141 
L 488 750 
Q 750 597 1062 519 
Q 1375 441 1716 441 
Q 2309 441 2620 675 
Q 2931 909 2931 1356 
Q 2931 1769 2642 2001 
Q 2353 2234 1838 2234 
L 1294 2234 
L 1294 2753 
L 1863 2753 
Q 2328 2753 2575 2939 
Q 2822 3125 2822 3475 
Q 2822 3834 2567 4026 
Q 2313 4219 1838 4219 
Q 1578 4219 1281 4162 
Q 984 4106 628 3988 
L 628 4550 
Q 988 4650 1302 4700 
Q 1616 4750 1894 4750 
Q 2613 4750 3031 4423 
Q 3450 4097 3450 3541 
Q 3450 3153 3228 2886 
Q 3006 2619 2597 2516 
z
" transform="scale(0.015625)"/>
      </defs>
      <use xlink:href="#DejaVuSans-33"/>
      <use xlink:href="#DejaVuSans-30" x="63.623047"/>
     </g>
    </g>
   </g>
   <g id="xtick_3">
    <g id="line2d_4">
     <path d="M 390.069327 530.87981 
L 394.279828 534.526271 
" style="fill: none; stroke: #000000; stroke-width: 0.8; stroke-linecap: square"/>
    </g>
    <g id="text_3">
     <!-- 110 -->
     <g transform="translate(381.560288 550.971408) scale(0.14 -0.14)">
      <defs>
       <path id="DejaVuSans-31" d="M 794 531 
L 1825 531 
L 1825 4091 
L 703 3866 
L 703 4441 
L 1819 4666 
L 2450 4666 
L 2450 531 
L 3481 531 
L 3481 0 
L 794 0 
L 794 531 
z
" transform="scale(0.015625)"/>
      </defs>
      <use xlink:href="#DejaVuSans-31"/>
      <use xlink:href="#DejaVuSans-31" x="63.623047"/>
      <use xlink:href="#DejaVuSans-30" x="127.246094"/>
     </g>
    </g>
   </g>
   <g id="xtick_4">
    <g id="line2d_5">
     <path d="M 455.810995 516.822574 
L 460.142519 520.399618 
" style="fill: none; stroke: #000000; stroke-width: 0.8; stroke-linecap: square"/>
    </g>
    <g id="text_4">
     <!-- 190 -->
     <g transform="translate(447.397759 536.793252) scale(0.14 -0.14)">
      <defs>
       <path id="DejaVuSans-39" d="M 703 97 
L 703 672 
Q 941 559 1184 500 
Q 1428 441 1663 441 
Q 2288 441 2617 861 
Q 2947 1281 2994 2138 
Q 2813 1869 2534 1725 
Q 2256 1581 1919 1581 
Q 1219 1581 811 2004 
Q 403 2428 403 3163 
Q 403 3881 828 4315 
Q 1253 4750 1959 4750 
Q 2769 4750 3195 4129 
Q 3622 3509 3622 2328 
Q 3622 1225 3098 567 
Q 2575 -91 1691 -91 
Q 1453 -91 1209 -44 
Q 966 3 703 97 
z
M 1959 2075 
Q 2384 2075 2632 2365 
Q 2881 2656 2881 3163 
Q 2881 3666 2632 3958 
Q 2384 4250 1959 4250 
Q 1534 4250 1286 3958 
Q 1038 3666 1038 3163 
Q 1038 2656 1286 2365 
Q 1534 2075 1959 2075 
z
" transform="scale(0.015625)"/>
      </defs>
      <use xlink:href="#DejaVuSans-31"/>
      <use xlink:href="#DejaVuSans-39" x="63.623047"/>
      <use xlink:href="#DejaVuSans-30" x="127.246094"/>
     </g>
    </g>
   </g>
   <g id="xtick_5">
    <g id="line2d_6">
     <path d="M 520.308562 503.031359 
L 524.755788 506.540949 
" style="fill: none; stroke: #000000; stroke-width: 0.8; stroke-linecap: square"/>
    </g>
    <g id="text_5">
     <!-- 270 -->
     <g transform="translate(511.986645 522.883981) scale(0.14 -0.14)">
      <defs>
       <path id="DejaVuSans-32" d="M 1228 531 
L 3431 531 
L 3431 0 
L 469 0 
L 469 531 
Q 828 903 1448 1529 
Q 2069 2156 2228 2338 
Q 2531 2678 2651 2914 
Q 2772 3150 2772 3378 
Q 2772 3750 2511 3984 
Q 2250 4219 1831 4219 
Q 1534 4219 1204 4116 
Q 875 4013 500 3803 
L 500 4441 
Q 881 4594 1212 4672 
Q 1544 4750 1819 4750 
Q 2544 4750 2975 4387 
Q 3406 4025 3406 3419 
Q 3406 3131 3298 2873 
Q 3191 2616 2906 2266 
Q 2828 2175 2409 1742 
Q 1991 1309 1228 531 
z
" transform="scale(0.015625)"/>
       <path id="DejaVuSans-37" d="M 525 4666 
L 3525 4666 
L 3525 4397 
L 1831 0 
L 1172 0 
L 2766 4134 
L 525 4134 
L 525 4666 
z
" transform="scale(0.015625)"/>
      </defs>
      <use xlink:href="#DejaVuSans-32"/>
      <use xlink:href="#DejaVuSans-37" x="63.623047"/>
      <use xlink:href="#DejaVuSans-30" x="127.246094"/>
     </g>
    </g>
   </g>
   <g id="xtick_6">
    <g id="line2d_7">
     <path d="M 583.59701 489.498684 
L 588.154853 492.94271 
" style="fill: none; stroke: #000000; stroke-width: 0.8; stroke-linecap: square"/>
    </g>
    <g id="text_6">
     <!-- 350 -->
     <g transform="translate(575.362131 509.236017) scale(0.14 -0.14)">
      <use xlink:href="#DejaVuSans-33"/>
      <use xlink:href="#DejaVuSans-35" x="63.623047"/>
      <use xlink:href="#DejaVuSans-30" x="127.246094"/>
     </g>
    </g>
   </g>
   <g id="text_7">
    <!-- X (m) -->
    <g transform="translate(418.135916 566.696647) rotate(-12.081584) scale(0.18 -0.18)">
     <defs>
      <path id="TimesNewRomanPSMT-58" d="M 2613 2347 
L 3522 991 
Q 3900 428 4083 279 
Q 4266 131 4547 116 
L 4547 0 
L 2728 0 
L 2728 116 
Q 2909 119 2997 153 
Q 3063 181 3105 239 
Q 3147 297 3147 356 
Q 3147 428 3119 500 
Q 3097 553 2947 775 
L 2228 1863 
L 1341 725 
Q 1200 544 1172 483 
Q 1144 422 1144 356 
Q 1144 256 1228 190 
Q 1313 125 1550 116 
L 1550 0 
L 47 0 
L 47 116 
Q 206 131 322 181 
Q 516 263 691 400 
Q 866 538 1091 822 
L 2091 2084 
L 1256 3306 
Q 916 3803 678 3958 
Q 441 4113 131 4122 
L 131 4238 
L 2091 4238 
L 2091 4122 
Q 1841 4113 1748 4041 
Q 1656 3969 1656 3881 
Q 1656 3766 1806 3544 
L 2456 2572 
L 3209 3525 
Q 3341 3694 3370 3756 
Q 3400 3819 3400 3884 
Q 3400 3950 3363 4000 
Q 3316 4066 3244 4092 
Q 3172 4119 2947 4122 
L 2947 4238 
L 4450 4238 
L 4450 4122 
Q 4272 4113 4159 4066 
Q 3991 3994 3850 3872 
Q 3709 3750 3453 3422 
L 2613 2347 
z
" transform="scale(0.015625)"/>
      <path id="TimesNewRomanPSMT-20" transform="scale(0.015625)"/>
      <path id="TimesNewRomanPSMT-28" d="M 1988 -1253 
L 1988 -1369 
Q 1516 -1131 1200 -813 
Q 750 -359 506 256 
Q 263 872 263 1534 
Q 263 2503 741 3301 
Q 1219 4100 1988 4444 
L 1988 4313 
Q 1603 4100 1356 3731 
Q 1109 3363 987 2797 
Q 866 2231 866 1616 
Q 866 947 969 400 
Q 1050 -31 1165 -292 
Q 1281 -553 1476 -793 
Q 1672 -1034 1988 -1253 
z
" transform="scale(0.015625)"/>
      <path id="TimesNewRomanPSMT-6d" d="M 1050 2338 
Q 1363 2650 1419 2697 
Q 1559 2816 1721 2881 
Q 1884 2947 2044 2947 
Q 2313 2947 2506 2790 
Q 2700 2634 2766 2338 
Q 3088 2713 3309 2830 
Q 3531 2947 3766 2947 
Q 3994 2947 4170 2830 
Q 4347 2713 4450 2447 
Q 4519 2266 4519 1878 
L 4519 647 
Q 4519 378 4559 278 
Q 4591 209 4675 161 
Q 4759 113 4950 113 
L 4950 0 
L 3538 0 
L 3538 113 
L 3597 113 
Q 3781 113 3884 184 
Q 3956 234 3988 344 
Q 4000 397 4000 647 
L 4000 1878 
Q 4000 2228 3916 2372 
Q 3794 2572 3525 2572 
Q 3359 2572 3192 2489 
Q 3025 2406 2788 2181 
L 2781 2147 
L 2788 2013 
L 2788 647 
Q 2788 353 2820 281 
Q 2853 209 2943 161 
Q 3034 113 3253 113 
L 3253 0 
L 1806 0 
L 1806 113 
Q 2044 113 2133 169 
Q 2222 225 2256 338 
Q 2272 391 2272 647 
L 2272 1878 
Q 2272 2228 2169 2381 
Q 2031 2581 1784 2581 
Q 1616 2581 1450 2491 
Q 1191 2353 1050 2181 
L 1050 647 
Q 1050 366 1089 281 
Q 1128 197 1204 155 
Q 1281 113 1516 113 
L 1516 0 
L 100 0 
L 100 113 
Q 297 113 375 155 
Q 453 197 493 289 
Q 534 381 534 647 
L 534 1741 
Q 534 2213 506 2350 
Q 484 2453 437 2492 
Q 391 2531 309 2531 
Q 222 2531 100 2484 
L 53 2597 
L 916 2947 
L 1050 2947 
L 1050 2338 
z
" transform="scale(0.015625)"/>
      <path id="TimesNewRomanPSMT-29" d="M 144 4313 
L 144 4444 
Q 619 4209 934 3891 
Q 1381 3434 1625 2820 
Q 1869 2206 1869 1541 
Q 1869 572 1392 -226 
Q 916 -1025 144 -1369 
L 144 -1253 
Q 528 -1038 776 -670 
Q 1025 -303 1145 264 
Q 1266 831 1266 1447 
Q 1266 2113 1163 2663 
Q 1084 3094 967 3353 
Q 850 3613 656 3853 
Q 463 4094 144 4313 
z
" transform="scale(0.015625)"/>
     </defs>
     <use xlink:href="#TimesNewRomanPSMT-58"/>
     <use xlink:href="#TimesNewRomanPSMT-20" x="72.216797"/>
     <use xlink:href="#TimesNewRomanPSMT-28" x="97.216797"/>
     <use xlink:href="#TimesNewRomanPSMT-6d" x="130.517578"/>
     <use xlink:href="#TimesNewRomanPSMT-29" x="208.300781"/>
    </g>
   </g>
  </g>
  <g id="axis3d_2">
   <g id="line2d_8">
    <path d="M 100.507323 419.513941 
L 248.820944 562.626756 
" style="fill: none; stroke: #000000; stroke-width: 0.8; stroke-linecap: square"/>
   </g>
   <g id="xtick_7">
    <g id="line2d_9">
     <path d="M 248.426877 558.855679 
L 239.787562 560.700142 
" style="fill: none; stroke: #000000; stroke-width: 0.8; stroke-linecap: square"/>
    </g>
    <g id="text_8">
     <!-- −250 -->
     <g transform="translate(212.742391 583.182052) scale(0.14 -0.14)">
      <use xlink:href="#DejaVuSans-2212"/>
      <use xlink:href="#DejaVuSans-32" x="83.789062"/>
      <use xlink:href="#DejaVuSans-35" x="147.412109"/>
      <use xlink:href="#DejaVuSans-30" x="211.035156"/>
     </g>
    </g>
   </g>
   <g id="xtick_8">
    <g id="line2d_10">
     <path d="M 226.326825 537.578705 
L 217.783443 539.371166 
" style="fill: none; stroke: #000000; stroke-width: 0.8; stroke-linecap: square"/>
    </g>
    <g id="text_9">
     <!-- −170 -->
     <g transform="translate(190.85403 561.689429) scale(0.14 -0.14)">
      <use xlink:href="#DejaVuSans-2212"/>
      <use xlink:href="#DejaVuSans-31" x="83.789062"/>
      <use xlink:href="#DejaVuSans-37" x="147.412109"/>
      <use xlink:href="#DejaVuSans-30" x="211.035156"/>
     </g>
    </g>
   </g>
   <g id="xtick_9">
    <g id="line2d_11">
     <path d="M 204.845145 516.897073 
L 196.395748 518.639702 
" style="fill: none; stroke: #000000; stroke-width: 0.8; stroke-linecap: square"/>
    </g>
    <g id="text_10">
     <!-- −90 -->
     <g transform="translate(174.032472 540.798774) scale(0.14 -0.14)">
      <use xlink:href="#DejaVuSans-2212"/>
      <use xlink:href="#DejaVuSans-39" x="83.789062"/>
      <use xlink:href="#DejaVuSans-30" x="147.412109"/>
     </g>
    </g>
   </g>
   <g id="xtick_10">
    <g id="line2d_12">
     <path d="M 183.956242 496.786141 
L 175.598932 498.480986 
" style="fill: none; stroke: #000000; stroke-width: 0.8; stroke-linecap: square"/>
    </g>
    <g id="text_11">
     <!-- −10 -->
     <g transform="translate(153.344814 520.485145) scale(0.14 -0.14)">
      <use xlink:href="#DejaVuSans-2212"/>
      <use xlink:href="#DejaVuSans-31" x="83.789062"/>
      <use xlink:href="#DejaVuSans-30" x="147.412109"/>
     </g>
    </g>
   </g>
   <g id="xtick_11">
    <g id="line2d_13">
     <path d="M 163.635912 477.222607 
L 155.368842 478.871608 
" style="fill: none; stroke: #000000; stroke-width: 0.8; stroke-linecap: square"/>
    </g>
    <g id="text_12">
     <!-- 70 -->
     <g transform="translate(139.086574 500.724961) scale(0.14 -0.14)">
      <use xlink:href="#DejaVuSans-37"/>
      <use xlink:href="#DejaVuSans-30" x="63.623047"/>
     </g>
    </g>
   </g>
   <g id="xtick_12">
    <g id="line2d_14">
     <path d="M 143.861255 458.184423 
L 135.682624 459.789414 
" style="fill: none; stroke: #000000; stroke-width: 0.8; stroke-linecap: square"/>
    </g>
    <g id="text_13">
     <!-- 150 -->
     <g transform="translate(115.049712 481.495909) scale(0.14 -0.14)">
      <use xlink:href="#DejaVuSans-31"/>
      <use xlink:href="#DejaVuSans-35" x="63.623047"/>
      <use xlink:href="#DejaVuSans-30" x="127.246094"/>
     </g>
    </g>
   </g>
   <g id="xtick_13">
    <g id="line2d_15">
     <path d="M 124.610581 439.650707 
L 116.518636 441.213427 
" style="fill: none; stroke: #000000; stroke-width: 0.8; stroke-linecap: square"/>
    </g>
    <g id="text_14">
     <!-- 230 -->
     <g transform="translate(95.985993 462.776857) scale(0.14 -0.14)">
      <use xlink:href="#DejaVuSans-32"/>
      <use xlink:href="#DejaVuSans-33" x="63.623047"/>
      <use xlink:href="#DejaVuSans-30" x="127.246094"/>
     </g>
    </g>
   </g>
   <g id="xtick_14">
    <g id="line2d_16">
     <path d="M 105.863337 421.601671 
L 97.856371 423.123769 
" style="fill: none; stroke: #000000; stroke-width: 0.8; stroke-linecap: square"/>
    </g>
    <g id="text_15">
     <!-- 310 -->
     <g transform="translate(77.421271 444.547783) scale(0.14 -0.14)">
      <use xlink:href="#DejaVuSans-33"/>
      <use xlink:href="#DejaVuSans-31" x="63.623047"/>
      <use xlink:href="#DejaVuSans-30" x="127.246094"/>
     </g>
    </g>
   </g>
   <g id="text_16">
    <!-- Y (m) -->
    <g transform="translate(117.552335 509.215122) rotate(-316.022394) scale(0.18 -0.18)">
     <defs>
      <path id="TimesNewRomanPSMT-59" d="M 3050 4238 
L 4528 4238 
L 4528 4122 
L 4447 4122 
Q 4366 4122 4209 4050 
Q 4053 3978 3925 3843 
Q 3797 3709 3609 3406 
L 2588 1797 
L 2588 734 
Q 2588 344 2675 247 
Q 2794 116 3050 116 
L 3188 116 
L 3188 0 
L 1388 0 
L 1388 116 
L 1538 116 
Q 1806 116 1919 278 
Q 1988 378 1988 734 
L 1988 1738 
L 825 3513 
Q 619 3825 545 3903 
Q 472 3981 241 4091 
Q 178 4122 59 4122 
L 59 4238 
L 1872 4238 
L 1872 4122 
L 1778 4122 
Q 1631 4122 1507 4053 
Q 1384 3984 1384 3847 
Q 1384 3734 1575 3441 
L 2459 2075 
L 3291 3381 
Q 3478 3675 3478 3819 
Q 3478 3906 3433 3975 
Q 3388 4044 3303 4083 
Q 3219 4122 3050 4122 
L 3050 4238 
z
" transform="scale(0.015625)"/>
     </defs>
     <use xlink:href="#TimesNewRomanPSMT-59"/>
     <use xlink:href="#TimesNewRomanPSMT-20" x="68.466797"/>
     <use xlink:href="#TimesNewRomanPSMT-28" x="93.466797"/>
     <use xlink:href="#TimesNewRomanPSMT-6d" x="126.767578"/>
     <use xlink:href="#TimesNewRomanPSMT-29" x="204.550781"/>
    </g>
   </g>
  </g>
  <g id="axis3d_3">
   <g id="line2d_17">
    <path d="M 100.507323 419.513941 
L 92.568072 165.331726 
" style="fill: none; stroke: #000000; stroke-width: 0.8; stroke-linecap: square"/>
   </g>
   <g id="xtick_15">
    <g id="line2d_18">
     <path d="M 103.018227 414.086739 
L 95.018205 415.598528 
" style="fill: none; stroke: #000000; stroke-width: 0.8; stroke-linecap: square"/>
    </g>
    <g id="text_17">
     <!-- −200 -->
     <g transform="translate(56.428505 421.734007) scale(0.14 -0.14)">
      <use xlink:href="#DejaVuSans-2212"/>
      <use xlink:href="#DejaVuSans-32" x="83.789062"/>
      <use xlink:href="#DejaVuSans-30" x="147.412109"/>
      <use xlink:href="#DejaVuSans-30" x="211.035156"/>
     </g>
    </g>
   </g>
   <g id="xtick_16">
    <g id="line2d_19">
     <path d="M 101.548834 366.510589 
L 93.49749 367.978346 
" style="fill: none; stroke: #000000; stroke-width: 0.8; stroke-linecap: square"/>
    </g>
    <g id="text_18">
     <!-- −120 -->
     <g transform="translate(54.793048 374.245019) scale(0.14 -0.14)">
      <use xlink:href="#DejaVuSans-2212"/>
      <use xlink:href="#DejaVuSans-31" x="83.789062"/>
      <use xlink:href="#DejaVuSans-32" x="147.412109"/>
      <use xlink:href="#DejaVuSans-30" x="211.035156"/>
     </g>
    </g>
   </g>
   <g id="xtick_17">
    <g id="line2d_20">
     <path d="M 100.061102 318.340614 
L 91.957773 319.763117 
" style="fill: none; stroke: #000000; stroke-width: 0.8; stroke-linecap: square"/>
    </g>
    <g id="text_19">
     <!-- −40 -->
     <g transform="translate(57.590973 326.164618) scale(0.14 -0.14)">
      <defs>
       <path id="DejaVuSans-34" d="M 2419 4116 
L 825 1625 
L 2419 1625 
L 2419 4116 
z
M 2253 4666 
L 3047 4666 
L 3047 1625 
L 3713 1625 
L 3713 1100 
L 3047 1100 
L 3047 0 
L 2419 0 
L 2419 1100 
L 313 1100 
L 313 1709 
L 2253 4666 
z
" transform="scale(0.015625)"/>
      </defs>
      <use xlink:href="#DejaVuSans-2212"/>
      <use xlink:href="#DejaVuSans-34" x="83.789062"/>
      <use xlink:href="#DejaVuSans-30" x="147.412109"/>
     </g>
    </g>
   </g>
   <g id="xtick_18">
    <g id="line2d_21">
     <path d="M 98.554683 269.565625 
L 90.398696 270.941618 
" style="fill: none; stroke: #000000; stroke-width: 0.8; stroke-linecap: square"/>
    </g>
    <g id="text_20">
     <!-- 40 -->
     <g transform="translate(61.780179 277.481687) scale(0.14 -0.14)">
      <use xlink:href="#DejaVuSans-34"/>
      <use xlink:href="#DejaVuSans-30" x="63.623047"/>
     </g>
    </g>
   </g>
   <g id="xtick_19">
    <g id="line2d_22">
     <path d="M 97.029225 220.174153 
L 88.819889 221.502342 
" style="fill: none; stroke: #000000; stroke-width: 0.8; stroke-linecap: square"/>
    </g>
    <g id="text_21">
     <!-- 120 -->
     <g transform="translate(55.62871 228.184829) scale(0.14 -0.14)">
      <use xlink:href="#DejaVuSans-31"/>
      <use xlink:href="#DejaVuSans-32" x="63.623047"/>
      <use xlink:href="#DejaVuSans-30" x="127.246094"/>
     </g>
    </g>
   </g>
   <g id="xtick_20">
    <g id="line2d_23">
     <path d="M 95.484363 170.154434 
L 87.220978 171.433487 
" style="fill: none; stroke: #000000; stroke-width: 0.8; stroke-linecap: square"/>
    </g>
    <g id="text_22">
     <!-- 200 -->
     <g transform="translate(53.909447 178.262356) scale(0.14 -0.14)">
      <use xlink:href="#DejaVuSans-32"/>
      <use xlink:href="#DejaVuSans-30" x="63.623047"/>
      <use xlink:href="#DejaVuSans-30" x="127.246094"/>
     </g>
    </g>
   </g>
   <g id="text_23">
    <!-- Z (m) -->
    <g transform="translate(38.507365 267.047387) rotate(-271.789022) scale(0.18 -0.18)">
     <defs>
      <path id="TimesNewRomanPSMT-5a" d="M 3681 4238 
L 897 256 
L 2634 256 
Q 3034 256 3248 431 
Q 3463 606 3628 1141 
L 3731 1122 
L 3531 0 
L 81 0 
L 81 116 
L 2800 3984 
L 1444 3984 
Q 1106 3984 954 3911 
Q 803 3838 723 3698 
Q 644 3559 578 3178 
L 459 3178 
L 547 4238 
L 3681 4238 
z
" transform="scale(0.015625)"/>
     </defs>
     <use xlink:href="#TimesNewRomanPSMT-5a"/>
     <use xlink:href="#TimesNewRomanPSMT-20" x="61.083984"/>
     <use xlink:href="#TimesNewRomanPSMT-28" x="86.083984"/>
     <use xlink:href="#TimesNewRomanPSMT-6d" x="119.384766"/>
     <use xlink:href="#TimesNewRomanPSMT-29" x="197.167969"/>
    </g>
   </g>
  </g>
  <g id="axes_1">
   <g id="line2d_24">
    <defs>
     <path id="m1303e60bdc" d="M 0 -3 
L -0.673542 -0.927051 
L -2.85317 -0.927051 
L -1.089814 0.354102 
L -1.763356 2.427051 
L -0 1.145898 
L 1.763356 2.427051 
L 1.089814 0.354102 
L 2.85317 -0.927051 
L 0.673542 -0.927051 
z
" style="stroke: #ff0000; stroke-linejoin: bevel"/>
    </defs>
    <g clip-path="url(#pf0446f3655)">
     <use xlink:href="#m1303e60bdc" x="225.002225" y="355.065806" style="fill: #ff0000; stroke: #ff0000; stroke-linejoin: bevel"/>
    </g>
   </g>
   <g id="line2d_25">
    <path d="M 225.002225 355.065806 
L 231.386527 354.082113 
L 233.423212 353.75279 
L 238.939024 353.005592 
L 244.262145 352.42097 
L 246.264929 352.300404 
L 249.114997 352.271548 
L 252.555229 352.359696 
L 256.703243 352.641025 
L 259.930723 352.900607 
L 268.338597 353.766779 
L 272.097353 354.355502 
L 276.326699 354.919196 
L 278.212246 355.121418 
L 301.015207 358.240281 
L 302.12939 358.378339 
L 303.990669 358.601492 
L 306.535422 358.887104 
L 320.931939 360.736672 
L 324.011442 360.75919 
L 327.896466 360.835821 
L 331.145488 360.968149 
L 335.923603 360.997707 
L 344.326048 361.266957 
L 345.482956 361.259582 
L 352.45008 361.132182 
L 364.478001 360.49037 
L 366.668258 360.387297 
L 372.59279 359.940026 
L 375.789625 359.832761 
L 381.30237 359.861112 
L 383.809021 360.015934 
L 387.355257 360.175935 
L 394.378717 360.293689 
L 399.482498 359.8961 
L 406.158046 359.206649 
L 418.442575 357.524203 
L 420.845477 357.444168 
L 426.894313 357.489099 
L 428.205569 357.431386 
L 430.218517 357.404353 
L 436.740216 357.237271 
L 439.123356 357.036891 
L 442.986687 356.493595 
L 454.122844 354.757867 
L 456.940144 354.237735 
L 463.651688 352.781089 
L 469.848314 351.175279 
L 472.725419 350.399932 
L 477.768544 348.803906 
L 484.136457 346.891608 
L 486.395843 345.930649 
L 487.983321 344.84308 
L 488.671736 344.046998 
L 491.210251 340.091987 
L 497.765479 333.898984 
L 498.155389 332.983232 
L 498.113964 332.308294 
L 498.025348 332.038828 
L 497.410711 331.447141 
L 495.619549 330.739943 
L 494.429171 330.485165 
L 492.478127 330.157198 
L 475.860612 328.706547 
L 473.387418 328.594428 
L 469.113838 328.195115 
L 466.57235 327.653555 
L 465.532873 327.207336 
L 464.637728 326.583304 
L 464.189077 325.542495 
L 464.149079 325.295722 
L 463.860231 324.850464 
L 463.659855 323.987138 
L 463.518377 323.748194 
L 463.375306 322.9152 
L 463.294098 322.675524 
L 463.59056 321.104871 
L 464.406716 319.422846 
L 464.439133 319.100676 
L 464.785643 318.50374 
L 464.985533 317.909616 
L 465.479452 317.035843 
L 465.723925 316.416233 
L 466.634568 314.712293 
L 467.006404 314.266569 
L 467.139849 313.964318 
L 467.922821 312.987412 
L 468.006176 312.82351 
L 468.500492 312.176233 
L 468.98351 311.318536 
L 469.74818 309.076474 
L 469.741687 308.473411 
L 469.922085 308.215164 
L 469.826568 307.905785 
L 470.766371 305.856563 
L 471.144255 304.898061 
L 471.68967 303.981221 
L 472.224475 303.340405 
L 472.882725 302.828445 
L 474.099708 301.781013 
L 476.434037 300.023237 
L 477.472141 299.327047 
L 480.911499 296.765337 
L 483.196978 295.209331 
L 484.348938 294.419295 
L 485.081386 293.858677 
L 487.739746 292.318341 
L 490.280912 291.105482 
L 493.819418 289.397225 
L 494.62573 288.924073 
L 495.382463 288.566015 
L 495.912106 288.084778 
L 496.125859 287.893382 
L 496.16375 287.065348 
L 496.119702 286.933871 
L 495.362895 286.393193 
L 493.408103 285.814106 
L 492.08118 285.688831 
L 490.764311 285.60014 
L 488.851967 285.868649 
L 477.935416 289.272949 
L 475.25048 290.19963 
L 473.632252 290.765103 
L 466.681094 293.700461 
L 465.747542 294.225745 
L 464.659645 294.812818 
L 460.190108 297.597161 
L 458.220457 299.060879 
L 456.603551 300.405707 
L 454.855019 301.611741 
L 452.917821 302.716305 
L 450.6841 304.025261 
L 448.025131 305.435387 
L 444.78913 307.329011 
L 439.93828 310.341722 
L 437.16479 312.202632 
L 435.913139 312.958166 
L 433.93479 314.111971 
L 428.068081 317.417258 
L 427.526923 317.535359 
L 425.856991 318.247624 
L 424.193382 318.848906 
L 415.580878 320.703343 
L 411.740087 321.223044 
L 405.528287 321.879838 
L 394.491512 322.602814 
L 387.069506 322.953119 
L 384.783899 323.096295 
L 356.037513 323.919833 
L 353.015621 323.895091 
L 346.148305 323.767981 
L 341.539976 323.61106 
L 321.561015 322.030317 
L 316.479171 321.734624 
L 314.71526 321.601859 
L 306.269825 321.163158 
L 303.801223 320.917089 
L 297.104786 320.10179 
L 292.194947 318.986913 
L 286.442337 317.028719 
L 284.272058 315.912358 
L 282.818175 314.851832 
L 281.665253 313.848495 
L 280.521003 312.964199 
L 279.220042 312.100906 
L 276.938524 310.873682 
L 276.01603 310.503451 
L 273.801212 310.025094 
L 267.730535 309.485205 
L 262.306237 309.666584 
L 259.632791 309.835714 
L 251.783971 310.655872 
L 245.253609 311.983081 
L 244.083681 312.344731 
L 240.873691 313.274668 
L 229.166598 317.213286 
L 228.752843 317.286701 
L 228.010197 317.630706 
L 226.706867 318.103828 
L 226.059613 318.379804 
L 225.457774 318.477982 
L 220.889344 320.042924 
L 219.819177 320.256691 
L 213.968948 321.920519 
L 210.685194 322.63109 
L 210.050646 322.930256 
L 208.49009 323.158264 
L 204.479901 323.890909 
L 199.511814 324.707833 
L 198.019697 324.922227 
L 191.572136 326.265189 
L 190.297102 326.67872 
L 188.19764 327.597557 
L 186.672071 328.542403 
L 186.15375 329.100327 
L 185.75624 329.950489 
L 185.65975 330.201068 
L 185.898586 330.990006 
L 186.105534 331.429463 
L 186.26668 331.646948 
L 188.335071 332.906555 
L 189.726466 333.439291 
L 190.296474 333.80887 
L 190.702735 333.81778 
L 191.439168 334.463976 
L 191.796933 334.597047 
L 192.047929 334.848358 
L 192.463326 334.938794 
L 192.682324 335.287288 
L 193.215234 335.641355 
L 195.180217 337.179416 
L 195.50816 337.326912 
L 196.246845 337.950664 
L 196.655592 338.190932 
L 197.451159 338.813988 
L 198.973271 339.822056 
L 199.479114 339.987487 
L 199.916012 340.390805 
L 200.423368 340.523666 
L 200.693339 340.812548 
L 202.974629 342.422699 
L 203.542707 343.035401 
L 204.200336 343.536079 
L 205.569805 345.001717 
L 205.902089 345.549562 
L 206.484571 346.065702 
L 206.661417 346.338071 
L 207.587668 347.288724 
L 207.96528 347.747194 
L 208.322188 348.004483 
L 208.694697 348.526439 
L 209.942321 349.597902 
L 210.454162 350.050499 
L 213.047701 352.002922 
L 214.030444 352.994171 
L 214.977319 354.011599 
L 216.103047 354.726417 
L 218.329338 355.609042 
L 220.1787 355.891081 
L 222.075332 355.731324 
L 223.049547 355.588102 
L 223.049547 355.588102 
" clip-path="url(#pf0446f3655)" style="fill: none; stroke-dasharray: 7.4,3.2; stroke-dashoffset: 0; stroke: #808a87; stroke-width: 2"/>
   </g>
   <g id="line2d_26">
    <path d="M 225.006436 355.065357 
L 229.298044 354.377719 
L 232.816493 353.729279 
L 235.682952 353.247467 
L 237.142875 352.999987 
L 247.260437 351.716513 
L 249.420711 351.607078 
L 254.183034 351.622695 
L 256.615515 351.708897 
L 257.431077 351.694989 
L 258.494903 351.749373 
L 260.627062 351.844315 
L 269.123446 352.344662 
L 273.362679 352.789836 
L 274.617373 352.928134 
L 277.113449 353.041387 
L 280.196094 353.309228 
L 281.812336 353.521879 
L 284.038276 353.640312 
L 285.785762 353.746532 
L 288.74964 354.090759 
L 289.189434 354.204231 
L 290.578388 354.221999 
L 301.54632 355.172107 
L 302.30173 355.190687 
L 318.924668 356.478903 
L 320.584704 356.563613 
L 321.92601 356.581878 
L 339.001178 356.058349 
L 344.8357 355.97153 
L 345.996007 355.852242 
L 347.092365 355.832661 
L 348.830589 355.723034 
L 352.954631 355.448618 
L 354.768882 355.273122 
L 371.318557 353.539181 
L 372.846819 353.315951 
L 376.845296 352.997151 
L 395.620533 352.493233 
L 404.312512 351.266894 
L 409.987152 350.315344 
L 412.328304 349.863654 
L 418.769062 348.651804 
L 422.005719 348.367299 
L 426.478325 348.138822 
L 426.91127 348.191273 
L 428.296538 347.975043 
L 430.412498 347.8331 
L 439.194563 346.939267 
L 446.217221 345.542977 
L 458.939137 342.655295 
L 464.404573 341.021452 
L 482.817842 334.645619 
L 485.633526 333.402123 
L 486.782964 332.758634 
L 487.857226 331.865325 
L 488.355969 331.207241 
L 488.7436 330.496777 
L 489.47135 329.173109 
L 490.464277 327.215157 
L 491.865379 325.571277 
L 493.007503 324.432255 
L 493.716449 323.678622 
L 495.837786 321.290963 
L 495.892401 321.157308 
L 496.358144 320.582264 
L 496.572863 319.923964 
L 496.483345 319.289964 
L 496.435618 319.06649 
L 495.636049 318.420883 
L 493.709143 317.869333 
L 492.491822 317.703553 
L 490.491016 317.554272 
L 471.835288 317.27431 
L 469.355797 317.26086 
L 466.925826 317.150107 
L 464.8361 316.858601 
L 463.593208 316.515226 
L 462.526727 315.841944 
L 462.100649 315.160405 
L 461.991947 314.903065 
L 461.995383 314.616557 
L 461.711209 314.199937 
L 461.471492 313.392412 
L 461.280513 312.576806 
L 461.147819 311.806467 
L 461.493064 310.259968 
L 462.196528 308.804208 
L 462.209559 308.521226 
L 462.45976 308.247752 
L 462.509272 307.865897 
L 462.670507 307.61261 
L 462.707603 307.294787 
L 463.20887 306.418281 
L 463.570194 305.492648 
L 465.956061 301.947853 
L 466.123355 301.797293 
L 467.281436 298.986344 
L 467.238321 298.726289 
L 467.446414 298.443795 
L 467.59666 297.021342 
L 467.868056 296.529731 
L 468.308915 295.38059 
L 468.468313 295.170795 
L 468.662932 294.415122 
L 468.934317 294.004093 
L 469.16407 293.599956 
L 469.858316 292.75355 
L 470.952118 291.835495 
L 473.0491 290.020008 
L 474.603478 288.893773 
L 478.957544 285.362466 
L 479.711355 284.789027 
L 484.187096 281.396794 
L 486.169724 280.284238 
L 491.797614 277.193508 
L 492.182769 276.725655 
L 492.443068 276.526307 
L 492.503616 276.07689 
L 492.299116 275.596426 
L 491.397137 275.174681 
L 489.305088 274.807865 
L 487.915279 274.83555 
L 486.56824 274.880217 
L 484.696198 275.318249 
L 481.266982 276.607599 
L 480.605073 276.914874 
L 478.91838 277.586583 
L 471.189203 280.647204 
L 463.118165 284.556058 
L 458.35998 287.601503 
L 455.183171 290.034262 
L 453.369547 291.632415 
L 450.488713 293.451756 
L 449.701306 293.996273 
L 448.698306 294.569514 
L 439.603756 299.944911 
L 438.291761 300.761495 
L 434.859825 302.946555 
L 433.127903 304.093526 
L 431.907964 304.793777 
L 429.228096 306.346379 
L 425.327318 308.566251 
L 424.158626 309.130344 
L 423.463943 309.440585 
L 422.632861 309.77647 
L 421.004514 310.473327 
L 420.042517 310.775786 
L 418.203241 311.372691 
L 416.443561 311.833716 
L 408.232383 313.643105 
L 395.635514 315.44697 
L 359.516333 318.763147 
L 350.865812 319.310446 
L 347.84374 319.446778 
L 338.688182 319.769647 
L 331.313454 319.672507 
L 323.392921 319.471897 
L 317.219818 319.415384 
L 311.33359 319.357938 
L 307.793936 319.284715 
L 301.143334 319.286518 
L 299.687779 319.203885 
L 293.273699 318.917524 
L 286.577017 317.877557 
L 283.956906 317.243062 
L 280.496194 316.183245 
L 279.254764 315.63878 
L 277.911653 314.832919 
L 273.896843 312.25051 
L 272.075859 311.367095 
L 271.021612 310.991912 
L 269.835924 310.664334 
L 267.496304 310.436289 
L 262.727594 310.342557 
L 253.739481 311.341526 
L 249.369154 311.985423 
L 244.613017 312.90076 
L 242.753303 313.315022 
L 238.070056 314.773419 
L 235.600909 315.653944 
L 233.633455 316.401108 
L 232.016517 317.087251 
L 222.061229 321.183577 
L 221.391108 321.468262 
L 220.757155 321.83267 
L 219.509178 322.275337 
L 217.453205 323.018525 
L 216.178146 323.557411 
L 215.389707 323.73131 
L 214.458428 324.230775 
L 214.027155 324.242425 
L 211.170978 325.247582 
L 210.002045 325.623803 
L 207.534573 326.432542 
L 206.072072 326.766861 
L 205.44809 327.109237 
L 203.893816 327.427449 
L 197.189743 328.983934 
L 190.970746 330.389949 
L 186.830804 331.612258 
L 185.375839 332.275534 
L 184.230608 332.839772 
L 182.548764 334.174377 
L 182.156962 335.013264 
L 182.168908 335.791876 
L 182.209696 336.093732 
L 182.596091 336.508617 
L 182.934318 336.87825 
L 183.560344 337.254894 
L 184.488957 337.726942 
L 186.031699 338.118514 
L 187.005363 338.566098 
L 188.308462 339.146386 
L 190.631087 340.345488 
L 190.898524 340.596611 
L 191.252799 340.717757 
L 191.812103 341.099562 
L 192.839509 341.696341 
L 197.161382 344.123672 
L 197.710309 344.248319 
L 198.052103 344.565006 
L 198.965955 344.898469 
L 199.750857 345.332196 
L 200.196901 345.508488 
L 201.357755 346.261362 
L 202.136301 346.823552 
L 203.283513 347.66678 
L 204.000956 348.253207 
L 204.522264 348.690689 
L 204.738561 348.857434 
L 204.938286 349.16829 
L 205.691618 349.723993 
L 206.435903 350.352996 
L 209.441612 352.647472 
L 213.650893 355.303069 
L 215.291437 356.689079 
L 216.65908 357.388723 
L 217.94271 357.805136 
L 220.739473 358.120123 
L 222.229693 357.925052 
L 223.658152 357.64578 
L 223.658152 357.64578 
" clip-path="url(#pf0446f3655)" style="fill: none; stroke: #ff0000; stroke-width: 2; stroke-linecap: square"/>
   </g>
   <g id="line2d_27">
    <path d="M 225.00893 355.063112 
L 224.987773 355.046268 
L 225.247556 355.039067 
L 226.809692 354.73472 
L 227.928629 354.587901 
L 237.336974 352.881162 
L 239.676269 352.63182 
L 241.177441 352.376353 
L 246.790522 351.752635 
L 247.691317 351.678839 
L 248.810344 351.598705 
L 251.065105 351.62521 
L 251.866999 351.603698 
L 252.664413 351.696814 
L 253.735842 351.77341 
L 258.865643 351.791591 
L 265.956101 352.266337 
L 267.490339 352.415626 
L 269.502978 352.476837 
L 275.899617 353.118931 
L 277.673082 353.204398 
L 291.966003 354.602267 
L 292.823239 354.660452 
L 294.17844 354.732879 
L 307.431686 355.754824 
L 309.528991 355.974358 
L 310.429418 356.024181 
L 312.567561 356.229705 
L 314.935283 356.442524 
L 318.442845 356.765368 
L 319.714672 356.768137 
L 321.246028 356.878242 
L 323.009413 356.855104 
L 329.175373 356.679903 
L 330.562776 356.635432 
L 345.355694 356.335866 
L 346.48206 356.31652 
L 348.481075 356.199911 
L 351.96883 356.04952 
L 353.170603 355.940774 
L 355.014596 355.772406 
L 371.595545 354.179124 
L 372.744896 354.037475 
L 377.298169 353.742045 
L 379.478545 353.656513 
L 382.031533 353.610905 
L 385.850667 353.662063 
L 387.636607 353.666947 
L 397.239516 353.237004 
L 400.548726 352.792479 
L 406.964664 351.881759 
L 412.17922 350.980797 
L 414.640986 350.475633 
L 421.475872 349.57432 
L 427.398375 349.32293 
L 431.490901 349.011261 
L 435.868575 348.696796 
L 441.94413 347.77001 
L 444.871939 347.205437 
L 447.131449 346.784995 
L 452.455769 345.647315 
L 453.798589 345.382202 
L 455.91114 344.902147 
L 457.741878 344.498162 
L 464.349935 342.681266 
L 472.076574 340.238022 
L 474.723458 339.28392 
L 485.362779 335.520301 
L 487.732052 334.017077 
L 488.562973 332.981474 
L 489.563418 331.205394 
L 490.302823 329.743754 
L 492.752905 326.974396 
L 496.57929 322.821887 
L 496.852019 321.808364 
L 496.629264 321.123567 
L 496.006554 320.666066 
L 495.615892 320.467263 
L 492.817426 319.86401 
L 489.008262 319.597724 
L 486.154162 319.53137 
L 481.987424 319.357942 
L 479.756406 319.287554 
L 467.170963 318.995457 
L 463.939771 318.294232 
L 462.859853 317.562452 
L 462.477191 316.835769 
L 462.254471 316.169913 
L 462.078214 315.643385 
L 461.973411 315.195663 
L 461.898192 314.92834 
L 461.814743 314.527095 
L 461.707015 313.508525 
L 462.133664 312.033342 
L 462.243122 311.767718 
L 462.48736 311.200501 
L 462.830129 310.582462 
L 462.862468 310.27802 
L 463.098189 309.992019 
L 463.19001 309.680367 
L 463.302498 309.559774 
L 463.552433 308.867909 
L 465.213337 305.828073 
L 465.427845 305.625039 
L 465.74056 305.085978 
L 466.073388 304.661377 
L 466.698823 303.875076 
L 466.969966 303.537797 
L 467.245092 303.049079 
L 467.649339 302.224125 
L 467.715196 301.967628 
L 467.787107 301.748778 
L 467.823426 301.546007 
L 468.001528 301.247525 
L 468.224272 300.460759 
L 468.307421 300.313791 
L 468.303056 299.828763 
L 468.384471 299.555897 
L 468.4312 299.322219 
L 468.418678 299.085381 
L 468.85455 298.182365 
L 468.978061 297.896784 
L 469.047498 297.731963 
L 469.199682 297.50235 
L 469.273832 297.212695 
L 469.404875 296.897934 
L 469.51644 296.539818 
L 469.704947 296.211144 
L 470.321576 295.346196 
L 470.682938 294.911929 
L 470.866805 294.739311 
L 472.030822 293.767414 
L 473.095315 292.853391 
L 485.327114 283.680341 
L 488.711969 281.874394 
L 489.409866 281.506179 
L 491.228518 280.544747 
L 492.386472 279.84186 
L 492.866144 279.640624 
L 493.068998 279.491283 
L 493.401752 279.112897 
L 493.687609 278.733296 
L 493.684116 278.392084 
L 493.526936 278.015027 
L 491.88444 277.436097 
L 489.345596 277.185297 
L 487.398709 277.336078 
L 485.637005 277.723648 
L 480.436402 279.676399 
L 474.525992 281.938466 
L 472.791873 282.608501 
L 465.917914 285.658028 
L 465.048509 286.117467 
L 464.193939 286.567495 
L 461.107625 288.402339 
L 455.613827 292.404925 
L 454.376676 293.379867 
L 449.959165 296.160081 
L 448.796386 296.809374 
L 447.023007 297.781964 
L 445.697335 298.467188 
L 444.634232 299.049471 
L 443.783025 299.52625 
L 435.62307 304.499154 
L 433.54249 305.769419 
L 424.320613 310.762747 
L 423.295663 311.119035 
L 422.82465 311.372013 
L 421.357207 311.910385 
L 420.674913 312.094599 
L 420.16159 312.281003 
L 417.26388 313.043683 
L 414.463821 313.74815 
L 405.768031 315.272528 
L 396.233339 316.451594 
L 393.525426 316.700151 
L 389.669085 317.043097 
L 372.886171 318.394623 
L 371.09116 318.520948 
L 362.150436 319.184465 
L 343.446619 320.027764 
L 340.792139 320.066436 
L 329.060073 319.805029 
L 326.572233 319.714689 
L 323.65674 319.633524 
L 318.70307 319.529909 
L 312.033572 319.422788 
L 309.40116 319.354774 
L 306.351698 319.303205 
L 300.106103 319.121183 
L 294.395818 318.833508 
L 292.814477 318.612713 
L 289.360043 318.089784 
L 282.606334 316.343436 
L 280.461459 315.475774 
L 279.499679 314.933798 
L 277.871769 313.760995 
L 276.943627 313.14971 
L 275.944265 312.474152 
L 275.415828 312.133855 
L 274.125528 311.484427 
L 272.852935 310.889142 
L 270.691831 310.3208 
L 263.819874 309.989597 
L 261.64082 310.177158 
L 255.91513 310.732856 
L 244.173909 312.724822 
L 241.101926 313.583573 
L 238.759299 314.29537 
L 234.937944 315.686947 
L 232.005094 316.84928 
L 231.174863 317.19449 
L 227.416658 318.649461 
L 226.041703 319.199527 
L 224.216781 319.953497 
L 222.768022 320.556893 
L 222.143871 320.816855 
L 221.757217 320.999446 
L 220.847875 321.296857 
L 220.037551 321.626089 
L 219.731747 321.682289 
L 219.193404 321.996508 
L 208.234449 325.480996 
L 207.495478 325.619852 
L 205.365802 326.238673 
L 204.406279 326.489124 
L 198.298909 327.82519 
L 197.036497 328.078671 
L 194.135456 328.666595 
L 191.044811 329.409146 
L 187.489241 330.493873 
L 185.354835 331.469899 
L 183.622564 332.702471 
L 183.20921 333.31802 
L 182.985284 334.313911 
L 183.447971 335.291143 
L 184.69171 336.155567 
L 185.470637 336.473182 
L 185.743007 336.637962 
L 186.073052 336.710141 
L 186.753625 336.818666 
L 187.345925 337.099725 
L 188.104268 337.396942 
L 188.342817 337.55358 
L 188.731698 337.562217 
L 189.106621 337.930775 
L 190.135576 338.355832 
L 190.342112 338.599757 
L 190.666139 338.650106 
L 190.84818 338.833853 
L 191.099284 338.937819 
L 191.622096 339.369575 
L 191.875655 339.471534 
L 193.553347 340.550459 
L 194.345799 341.065487 
L 194.738353 341.285627 
L 196.035419 342.047994 
L 196.76749 342.417408 
L 198.398927 343.212928 
L 198.702055 343.420501 
L 199.543029 343.795452 
L 201.083252 344.685004 
L 201.797048 345.133132 
L 203.242878 346.198092 
L 205.073695 347.803471 
L 205.417446 348.201821 
L 205.999269 348.680955 
L 207.526853 350.047999 
L 208.143448 350.566791 
L 209.164794 351.372891 
L 209.925512 351.8946 
L 210.9477 352.495242 
L 212.356765 353.3266 
L 213.611469 354.278978 
L 214.677683 355.293933 
L 215.610778 355.983134 
L 216.170124 356.279248 
L 217.30371 356.694732 
L 219.651512 357.230561 
L 221.900535 357.14961 
L 223.578607 356.786055 
L 223.575457 356.791725 
" clip-path="url(#pf0446f3655)" style="fill: none; stroke: #0000ff; stroke-width: 2; stroke-linecap: square"/>
   </g>
   <g id="Path3DCollection_1">
    <defs>
     <path id="m799fd23967" d="M 0 -5 
L -1.12257 -1.545085 
L -4.755283 -1.545085 
L -1.816356 0.59017 
L -2.938926 4.045085 
L -0 1.90983 
L 2.938926 4.045085 
L 1.816356 0.59017 
L 4.755283 -1.545085 
L 1.12257 -1.545085 
z
" style="stroke: #ff0000"/>
    </defs>
    <g clip-path="url(#pf0446f3655)">
     <use xlink:href="#m799fd23967" x="225.002214" y="355.065048" style="fill: #ff0000; stroke: #ff0000"/>
    </g>
   </g>
   <g id="legend_1">
    <g id="patch_6">
     <path d="M 74.2475 84.9621 
L 589.9525 84.9621 
Q 593.1525 84.9621 593.1525 81.7621 
L 593.1525 60.7396 
Q 593.1525 57.5396 589.9525 57.5396 
L 74.2475 57.5396 
Q 71.0475 57.5396 71.0475 60.7396 
L 71.0475 81.7621 
Q 71.0475 84.9621 74.2475 84.9621 
z
" style="fill: #ffffff; opacity: 0.8; stroke: #cccccc; stroke-linejoin: miter"/>
    </g>
    <g id="line2d_28">
     <g>
      <use xlink:href="#m1303e60bdc" x="93.4475" y="69.5396" style="fill: #ff0000; stroke: #ff0000; stroke-linejoin: bevel"/>
     </g>
    </g>
    <g id="text_24">
     <!-- Start -->
     <g transform="translate(122.2475 75.1396) scale(0.16 -0.16)">
      <defs>
       <path id="TimesNewRomanPSMT-53" d="M 2934 4334 
L 2934 2869 
L 2819 2869 
Q 2763 3291 2617 3541 
Q 2472 3791 2203 3937 
Q 1934 4084 1647 4084 
Q 1322 4084 1109 3886 
Q 897 3688 897 3434 
Q 897 3241 1031 3081 
Q 1225 2847 1953 2456 
Q 2547 2138 2764 1967 
Q 2981 1797 3098 1565 
Q 3216 1334 3216 1081 
Q 3216 600 2842 251 
Q 2469 -97 1881 -97 
Q 1697 -97 1534 -69 
Q 1438 -53 1133 45 
Q 828 144 747 144 
Q 669 144 623 97 
Q 578 50 556 -97 
L 441 -97 
L 441 1356 
L 556 1356 
Q 638 900 775 673 
Q 913 447 1195 297 
Q 1478 147 1816 147 
Q 2206 147 2432 353 
Q 2659 559 2659 841 
Q 2659 997 2573 1156 
Q 2488 1316 2306 1453 
Q 2184 1547 1640 1851 
Q 1097 2156 867 2337 
Q 638 2519 519 2737 
Q 400 2956 400 3219 
Q 400 3675 750 4004 
Q 1100 4334 1641 4334 
Q 1978 4334 2356 4169 
Q 2531 4091 2603 4091 
Q 2684 4091 2736 4139 
Q 2788 4188 2819 4334 
L 2934 4334 
z
" transform="scale(0.015625)"/>
       <path id="TimesNewRomanPSMT-74" d="M 1031 3803 
L 1031 2863 
L 1700 2863 
L 1700 2644 
L 1031 2644 
L 1031 788 
Q 1031 509 1111 412 
Q 1191 316 1316 316 
Q 1419 316 1516 380 
Q 1613 444 1666 569 
L 1788 569 
Q 1678 263 1478 108 
Q 1278 -47 1066 -47 
Q 922 -47 784 33 
Q 647 113 581 261 
Q 516 409 516 719 
L 516 2644 
L 63 2644 
L 63 2747 
Q 234 2816 414 2980 
Q 594 3144 734 3369 
Q 806 3488 934 3803 
L 1031 3803 
z
" transform="scale(0.015625)"/>
       <path id="TimesNewRomanPSMT-61" d="M 1822 413 
Q 1381 72 1269 19 
Q 1100 -59 909 -59 
Q 613 -59 420 144 
Q 228 347 228 678 
Q 228 888 322 1041 
Q 450 1253 767 1440 
Q 1084 1628 1822 1897 
L 1822 2009 
Q 1822 2438 1686 2597 
Q 1550 2756 1291 2756 
Q 1094 2756 978 2650 
Q 859 2544 859 2406 
L 866 2225 
Q 866 2081 792 2003 
Q 719 1925 600 1925 
Q 484 1925 411 2006 
Q 338 2088 338 2228 
Q 338 2497 613 2722 
Q 888 2947 1384 2947 
Q 1766 2947 2009 2819 
Q 2194 2722 2281 2516 
Q 2338 2381 2338 1966 
L 2338 994 
Q 2338 584 2353 492 
Q 2369 400 2405 369 
Q 2441 338 2488 338 
Q 2538 338 2575 359 
Q 2641 400 2828 588 
L 2828 413 
Q 2478 -56 2159 -56 
Q 2006 -56 1915 50 
Q 1825 156 1822 413 
z
M 1822 616 
L 1822 1706 
Q 1350 1519 1213 1441 
Q 966 1303 859 1153 
Q 753 1003 753 825 
Q 753 600 887 451 
Q 1022 303 1197 303 
Q 1434 303 1822 616 
z
" transform="scale(0.015625)"/>
       <path id="TimesNewRomanPSMT-72" d="M 1038 2947 
L 1038 2303 
Q 1397 2947 1775 2947 
Q 1947 2947 2059 2842 
Q 2172 2738 2172 2600 
Q 2172 2478 2090 2393 
Q 2009 2309 1897 2309 
Q 1788 2309 1652 2417 
Q 1516 2525 1450 2525 
Q 1394 2525 1328 2463 
Q 1188 2334 1038 2041 
L 1038 669 
Q 1038 431 1097 309 
Q 1138 225 1241 169 
Q 1344 113 1538 113 
L 1538 0 
L 72 0 
L 72 113 
Q 291 113 397 181 
Q 475 231 506 341 
Q 522 394 522 644 
L 522 1753 
Q 522 2253 501 2348 
Q 481 2444 426 2487 
Q 372 2531 291 2531 
Q 194 2531 72 2484 
L 41 2597 
L 906 2947 
L 1038 2947 
z
" transform="scale(0.015625)"/>
      </defs>
      <use xlink:href="#TimesNewRomanPSMT-53"/>
      <use xlink:href="#TimesNewRomanPSMT-74" x="55.615234"/>
      <use xlink:href="#TimesNewRomanPSMT-61" x="83.398438"/>
      <use xlink:href="#TimesNewRomanPSMT-72" x="127.783203"/>
      <use xlink:href="#TimesNewRomanPSMT-74" x="161.083984"/>
     </g>
    </g>
    <g id="line2d_29">
     <path d="M 184.465 69.5396 
L 200.465 69.5396 
L 216.465 69.5396 
" style="fill: none; stroke-dasharray: 7.4,3.2; stroke-dashoffset: 0; stroke: #808a87; stroke-width: 2"/>
    </g>
    <g id="text_25">
     <!-- GroundTruth -->
     <g transform="translate(229.265 75.1396) scale(0.16 -0.16)">
      <defs>
       <path id="TimesNewRomanPSMT-47" d="M 3928 4334 
L 4038 2997 
L 3928 2997 
Q 3763 3497 3500 3750 
Q 3122 4116 2528 4116 
Q 1719 4116 1297 3475 
Q 944 2934 944 2188 
Q 944 1581 1178 1081 
Q 1413 581 1792 348 
Q 2172 116 2572 116 
Q 2806 116 3025 175 
Q 3244 234 3447 350 
L 3447 1575 
Q 3447 1894 3398 1992 
Q 3350 2091 3248 2142 
Q 3147 2194 2891 2194 
L 2891 2313 
L 4531 2313 
L 4531 2194 
L 4453 2194 
Q 4209 2194 4119 2031 
Q 4056 1916 4056 1575 
L 4056 278 
Q 3697 84 3347 -6 
Q 2997 -97 2569 -97 
Q 1341 -97 703 691 
Q 225 1281 225 2053 
Q 225 2613 494 3125 
Q 813 3734 1369 4063 
Q 1834 4334 2469 4334 
Q 2700 4334 2889 4296 
Q 3078 4259 3425 4131 
Q 3600 4066 3659 4066 
Q 3719 4066 3761 4120 
Q 3803 4175 3813 4334 
L 3928 4334 
z
" transform="scale(0.015625)"/>
       <path id="TimesNewRomanPSMT-6f" d="M 1600 2947 
Q 2250 2947 2644 2453 
Q 2978 2031 2978 1484 
Q 2978 1100 2793 706 
Q 2609 313 2286 112 
Q 1963 -88 1566 -88 
Q 919 -88 538 428 
Q 216 863 216 1403 
Q 216 1797 411 2186 
Q 606 2575 925 2761 
Q 1244 2947 1600 2947 
z
M 1503 2744 
Q 1338 2744 1170 2645 
Q 1003 2547 900 2300 
Q 797 2053 797 1666 
Q 797 1041 1045 587 
Q 1294 134 1700 134 
Q 2003 134 2200 384 
Q 2397 634 2397 1244 
Q 2397 2006 2069 2444 
Q 1847 2744 1503 2744 
z
" transform="scale(0.015625)"/>
       <path id="TimesNewRomanPSMT-75" d="M 2709 2863 
L 2709 1128 
Q 2709 631 2732 520 
Q 2756 409 2807 365 
Q 2859 322 2928 322 
Q 3025 322 3147 375 
L 3191 266 
L 2334 -88 
L 2194 -88 
L 2194 519 
Q 1825 119 1631 15 
Q 1438 -88 1222 -88 
Q 981 -88 804 51 
Q 628 191 559 409 
Q 491 628 491 1028 
L 491 2306 
Q 491 2509 447 2587 
Q 403 2666 317 2708 
Q 231 2750 6 2747 
L 6 2863 
L 1009 2863 
L 1009 947 
Q 1009 547 1148 422 
Q 1288 297 1484 297 
Q 1619 297 1789 381 
Q 1959 466 2194 703 
L 2194 2325 
Q 2194 2569 2105 2655 
Q 2016 2741 1734 2747 
L 1734 2863 
L 2709 2863 
z
" transform="scale(0.015625)"/>
       <path id="TimesNewRomanPSMT-6e" d="M 1034 2341 
Q 1538 2947 1994 2947 
Q 2228 2947 2397 2830 
Q 2566 2713 2666 2444 
Q 2734 2256 2734 1869 
L 2734 647 
Q 2734 375 2778 278 
Q 2813 200 2889 156 
Q 2966 113 3172 113 
L 3172 0 
L 1756 0 
L 1756 113 
L 1816 113 
Q 2016 113 2095 173 
Q 2175 234 2206 353 
Q 2219 400 2219 647 
L 2219 1819 
Q 2219 2209 2117 2386 
Q 2016 2563 1775 2563 
Q 1403 2563 1034 2156 
L 1034 647 
Q 1034 356 1069 288 
Q 1113 197 1189 155 
Q 1266 113 1500 113 
L 1500 0 
L 84 0 
L 84 113 
L 147 113 
Q 366 113 442 223 
Q 519 334 519 647 
L 519 1709 
Q 519 2225 495 2337 
Q 472 2450 423 2490 
Q 375 2531 294 2531 
Q 206 2531 84 2484 
L 38 2597 
L 900 2947 
L 1034 2947 
L 1034 2341 
z
" transform="scale(0.015625)"/>
       <path id="TimesNewRomanPSMT-64" d="M 2222 322 
Q 2013 103 1813 7 
Q 1613 -88 1381 -88 
Q 913 -88 563 304 
Q 213 697 213 1313 
Q 213 1928 600 2439 
Q 988 2950 1597 2950 
Q 1975 2950 2222 2709 
L 2222 3238 
Q 2222 3728 2198 3840 
Q 2175 3953 2125 3993 
Q 2075 4034 2000 4034 
Q 1919 4034 1784 3984 
L 1744 4094 
L 2597 4444 
L 2738 4444 
L 2738 1134 
Q 2738 631 2761 520 
Q 2784 409 2836 365 
Q 2888 322 2956 322 
Q 3041 322 3181 375 
L 3216 266 
L 2366 -88 
L 2222 -88 
L 2222 322 
z
M 2222 541 
L 2222 2016 
Q 2203 2228 2109 2403 
Q 2016 2578 1861 2667 
Q 1706 2756 1559 2756 
Q 1284 2756 1069 2509 
Q 784 2184 784 1559 
Q 784 928 1059 592 
Q 1334 256 1672 256 
Q 1956 256 2222 541 
z
" transform="scale(0.015625)"/>
       <path id="TimesNewRomanPSMT-54" d="M 3703 4238 
L 3750 3244 
L 3631 3244 
Q 3597 3506 3538 3619 
Q 3441 3800 3280 3886 
Q 3119 3972 2856 3972 
L 2259 3972 
L 2259 734 
Q 2259 344 2344 247 
Q 2463 116 2709 116 
L 2856 116 
L 2856 0 
L 1059 0 
L 1059 116 
L 1209 116 
Q 1478 116 1591 278 
Q 1659 378 1659 734 
L 1659 3972 
L 1150 3972 
Q 853 3972 728 3928 
Q 566 3869 450 3700 
Q 334 3531 313 3244 
L 194 3244 
L 244 4238 
L 3703 4238 
z
" transform="scale(0.015625)"/>
       <path id="TimesNewRomanPSMT-68" d="M 1041 4444 
L 1041 2350 
Q 1388 2731 1591 2839 
Q 1794 2947 1997 2947 
Q 2241 2947 2416 2812 
Q 2591 2678 2675 2391 
Q 2734 2191 2734 1659 
L 2734 647 
Q 2734 375 2778 275 
Q 2809 200 2884 156 
Q 2959 113 3159 113 
L 3159 0 
L 1753 0 
L 1753 113 
L 1819 113 
Q 2019 113 2097 173 
Q 2175 234 2206 353 
Q 2216 403 2216 647 
L 2216 1659 
Q 2216 2128 2167 2275 
Q 2119 2422 2012 2495 
Q 1906 2569 1756 2569 
Q 1603 2569 1437 2487 
Q 1272 2406 1041 2159 
L 1041 647 
Q 1041 353 1073 281 
Q 1106 209 1195 161 
Q 1284 113 1503 113 
L 1503 0 
L 84 0 
L 84 113 
Q 275 113 384 172 
Q 447 203 484 290 
Q 522 378 522 647 
L 522 3238 
Q 522 3728 498 3840 
Q 475 3953 426 3993 
Q 378 4034 297 4034 
Q 231 4034 84 3984 
L 41 4094 
L 897 4444 
L 1041 4444 
z
" transform="scale(0.015625)"/>
      </defs>
      <use xlink:href="#TimesNewRomanPSMT-47"/>
      <use xlink:href="#TimesNewRomanPSMT-72" x="72.216797"/>
      <use xlink:href="#TimesNewRomanPSMT-6f" x="105.517578"/>
      <use xlink:href="#TimesNewRomanPSMT-75" x="155.517578"/>
      <use xlink:href="#TimesNewRomanPSMT-6e" x="205.517578"/>
      <use xlink:href="#TimesNewRomanPSMT-64" x="255.517578"/>
      <use xlink:href="#TimesNewRomanPSMT-54" x="305.517578"/>
      <use xlink:href="#TimesNewRomanPSMT-72" x="363.101562"/>
      <use xlink:href="#TimesNewRomanPSMT-75" x="396.402344"/>
      <use xlink:href="#TimesNewRomanPSMT-74" x="446.402344"/>
      <use xlink:href="#TimesNewRomanPSMT-68" x="474.185547"/>
     </g>
    </g>
    <g id="line2d_30">
     <path d="M 345.1325 69.5396 
L 361.1325 69.5396 
L 377.1325 69.5396 
" style="fill: none; stroke: #ff0000; stroke-width: 2; stroke-linecap: square"/>
    </g>
    <g id="text_26">
     <!-- ROLO -->
     <g transform="translate(389.9325 75.1396) scale(0.16 -0.16)">
      <defs>
       <path id="TimesNewRomanPSMT-52" d="M 4325 0 
L 3194 0 
L 1759 1981 
Q 1600 1975 1500 1975 
Q 1459 1975 1412 1976 
Q 1366 1978 1316 1981 
L 1316 750 
Q 1316 350 1403 253 
Q 1522 116 1759 116 
L 1925 116 
L 1925 0 
L 109 0 
L 109 116 
L 269 116 
Q 538 116 653 291 
Q 719 388 719 750 
L 719 3488 
Q 719 3888 631 3984 
Q 509 4122 269 4122 
L 109 4122 
L 109 4238 
L 1653 4238 
Q 2328 4238 2648 4139 
Q 2969 4041 3192 3777 
Q 3416 3513 3416 3147 
Q 3416 2756 3161 2468 
Q 2906 2181 2372 2063 
L 3247 847 
Q 3547 428 3762 290 
Q 3978 153 4325 116 
L 4325 0 
z
M 1316 2178 
Q 1375 2178 1419 2176 
Q 1463 2175 1491 2175 
Q 2097 2175 2405 2437 
Q 2713 2700 2713 3106 
Q 2713 3503 2464 3751 
Q 2216 4000 1806 4000 
Q 1625 4000 1316 3941 
L 1316 2178 
z
" transform="scale(0.015625)"/>
       <path id="TimesNewRomanPSMT-4f" d="M 2341 4334 
Q 3166 4334 3770 3707 
Q 4375 3081 4375 2144 
Q 4375 1178 3765 540 
Q 3156 -97 2291 -97 
Q 1416 -97 820 525 
Q 225 1147 225 2134 
Q 225 3144 913 3781 
Q 1509 4334 2341 4334 
z
M 2281 4106 
Q 1713 4106 1369 3684 
Q 941 3159 941 2147 
Q 941 1109 1384 550 
Q 1725 125 2284 125 
Q 2881 125 3270 590 
Q 3659 1056 3659 2059 
Q 3659 3147 3231 3681 
Q 2888 4106 2281 4106 
z
" transform="scale(0.015625)"/>
       <path id="TimesNewRomanPSMT-4c" d="M 3669 1172 
L 3772 1150 
L 3409 0 
L 128 0 
L 128 116 
L 288 116 
Q 556 116 672 291 
Q 738 391 738 753 
L 738 3488 
Q 738 3884 650 3984 
Q 528 4122 288 4122 
L 128 4122 
L 128 4238 
L 2047 4238 
L 2047 4122 
Q 1709 4125 1573 4059 
Q 1438 3994 1388 3894 
Q 1338 3794 1338 3416 
L 1338 753 
Q 1338 494 1388 397 
Q 1425 331 1503 300 
Q 1581 269 1991 269 
L 2300 269 
Q 2788 269 2984 341 
Q 3181 413 3343 595 
Q 3506 778 3669 1172 
z
" transform="scale(0.015625)"/>
      </defs>
      <use xlink:href="#TimesNewRomanPSMT-52"/>
      <use xlink:href="#TimesNewRomanPSMT-4f" x="66.699219"/>
      <use xlink:href="#TimesNewRomanPSMT-4c" x="138.916016"/>
      <use xlink:href="#TimesNewRomanPSMT-4f" x="200"/>
     </g>
    </g>
    <g id="line2d_31">
     <path d="M 465.4875 69.5396 
L 481.4875 69.5396 
L 497.4875 69.5396 
" style="fill: none; stroke: #0000ff; stroke-width: 2; stroke-linecap: square"/>
    </g>
    <g id="text_27">
     <!-- FAST-LIO2 -->
     <g transform="translate(510.2875 75.1396) scale(0.16 -0.16)">
      <defs>
       <path id="TimesNewRomanPSMT-46" d="M 1309 4006 
L 1309 2341 
L 2081 2341 
Q 2347 2341 2470 2458 
Q 2594 2575 2634 2922 
L 2750 2922 
L 2750 1488 
L 2634 1488 
Q 2631 1734 2570 1850 
Q 2509 1966 2401 2023 
Q 2294 2081 2081 2081 
L 1309 2081 
L 1309 750 
Q 1309 428 1350 325 
Q 1381 247 1481 191 
Q 1619 116 1769 116 
L 1922 116 
L 1922 0 
L 103 0 
L 103 116 
L 253 116 
Q 516 116 634 269 
Q 709 369 709 750 
L 709 3488 
Q 709 3809 669 3913 
Q 638 3991 541 4047 
Q 406 4122 253 4122 
L 103 4122 
L 103 4238 
L 3256 4238 
L 3297 3306 
L 3188 3306 
Q 3106 3603 2998 3742 
Q 2891 3881 2733 3943 
Q 2575 4006 2244 4006 
L 1309 4006 
z
" transform="scale(0.015625)"/>
       <path id="TimesNewRomanPSMT-41" d="M 2928 1419 
L 1288 1419 
L 1000 750 
Q 894 503 894 381 
Q 894 284 986 211 
Q 1078 138 1384 116 
L 1384 0 
L 50 0 
L 50 116 
Q 316 163 394 238 
Q 553 388 747 847 
L 2238 4334 
L 2347 4334 
L 3822 809 
Q 4000 384 4145 257 
Q 4291 131 4550 116 
L 4550 0 
L 2878 0 
L 2878 116 
Q 3131 128 3220 200 
Q 3309 272 3309 375 
Q 3309 513 3184 809 
L 2928 1419 
z
M 2841 1650 
L 2122 3363 
L 1384 1650 
L 2841 1650 
z
" transform="scale(0.015625)"/>
       <path id="TimesNewRomanPSMT-2d" d="M 259 1672 
L 1875 1672 
L 1875 1200 
L 259 1200 
L 259 1672 
z
" transform="scale(0.015625)"/>
       <path id="TimesNewRomanPSMT-49" d="M 1975 116 
L 1975 0 
L 159 0 
L 159 116 
L 309 116 
Q 572 116 691 269 
Q 766 369 766 750 
L 766 3488 
Q 766 3809 725 3913 
Q 694 3991 597 4047 
Q 459 4122 309 4122 
L 159 4122 
L 159 4238 
L 1975 4238 
L 1975 4122 
L 1822 4122 
Q 1563 4122 1444 3969 
Q 1366 3869 1366 3488 
L 1366 750 
Q 1366 428 1406 325 
Q 1438 247 1538 191 
Q 1672 116 1822 116 
L 1975 116 
z
" transform="scale(0.015625)"/>
       <path id="TimesNewRomanPSMT-32" d="M 2934 816 
L 2638 0 
L 138 0 
L 138 116 
Q 1241 1122 1691 1759 
Q 2141 2397 2141 2925 
Q 2141 3328 1894 3587 
Q 1647 3847 1303 3847 
Q 991 3847 742 3664 
Q 494 3481 375 3128 
L 259 3128 
Q 338 3706 661 4015 
Q 984 4325 1469 4325 
Q 1984 4325 2329 3994 
Q 2675 3663 2675 3213 
Q 2675 2891 2525 2569 
Q 2294 2063 1775 1497 
Q 997 647 803 472 
L 1909 472 
Q 2247 472 2383 497 
Q 2519 522 2628 598 
Q 2738 675 2819 816 
L 2934 816 
z
" transform="scale(0.015625)"/>
      </defs>
      <use xlink:href="#TimesNewRomanPSMT-46"/>
      <use xlink:href="#TimesNewRomanPSMT-41" x="48.240234"/>
      <use xlink:href="#TimesNewRomanPSMT-53" x="120.457031"/>
      <use xlink:href="#TimesNewRomanPSMT-54" x="176.072266"/>
      <use xlink:href="#TimesNewRomanPSMT-2d" x="228.03125"/>
      <use xlink:href="#TimesNewRomanPSMT-4c" x="261.332031"/>
      <use xlink:href="#TimesNewRomanPSMT-49" x="322.416016"/>
      <use xlink:href="#TimesNewRomanPSMT-4f" x="355.716797"/>
      <use xlink:href="#TimesNewRomanPSMT-32" x="427.933594"/>
     </g>
    </g>
   </g>
  </g>
 </g>
 <defs>
  <clipPath id="pf0446f3655">
   <rect x="42.12" y="43.74" width="579.96" height="579.96"/>
  </clipPath>
 </defs>
</svg>
