<?xml version="1.0" encoding="utf-8" standalone="no"?>
<!DOCTYPE svg PUBLIC "-//W3C//DTD SVG 1.1//EN"
  "http://www.w3.org/Graphics/SVG/1.1/DTD/svg11.dtd">
<svg xmlns:xlink="http://www.w3.org/1999/xlink" width="648pt" height="648pt" viewBox="0 0 648 648" xmlns="http://www.w3.org/2000/svg" version="1.1">
 <metadata>
  <rdf:RDF xmlns:dc="http://purl.org/dc/elements/1.1/" xmlns:cc="http://creativecommons.org/ns#" xmlns:rdf="http://www.w3.org/1999/02/22-rdf-syntax-ns#">
   <cc:Work>
    <dc:type rdf:resource="http://purl.org/dc/dcmitype/StillImage"/>
    <dc:date>2024-08-06T10:35:42.424280</dc:date>
    <dc:format>image/svg+xml</dc:format>
    <dc:creator>
     <cc:Agent>
      <dc:title>Matplotlib v3.8.3, https://matplotlib.org/</dc:title>
     </cc:Agent>
    </dc:creator>
   </cc:Work>
  </rdf:RDF>
 </metadata>
 <defs>
  <style type="text/css">*{stroke-linejoin: round; stroke-linecap: butt}</style>
 </defs>
 <g id="figure_1">
  <g id="patch_1">
   <path d="M 0 648 
L 648 648 
L 648 0 
L 0 0 
z
" style="fill: #ffffff"/>
  </g>
  <g id="patch_2">
   <path d="M 42.12 623.7 
L 622.08 623.7 
L 622.08 43.74 
L 42.12 43.74 
z
" style="fill: #ffffff"/>
  </g>
  <g id="pane3d_1">
   <g id="patch_3">
    <path d="M 580.211692 421.280561 
L 262.992491 360.956821 
L 260.606652 115.944155 
L 588.026353 166.244702 
" style="fill: #ffffff; stroke: #ffffff; stroke-linejoin: miter"/>
   </g>
  </g>
  <g id="pane3d_2">
   <g id="patch_4">
    <path d="M 87.596082 488.256843 
L 262.992491 360.956821 
L 260.606652 115.944155 
L 78.962689 222.266091 
" style="fill: #ffffff; stroke: #ffffff; stroke-linejoin: miter"/>
   </g>
  </g>
  <g id="pane3d_3">
   <g id="patch_5">
    <path d="M 429.00635 561.592719 
L 580.211692 421.280561 
L 262.992491 360.956821 
L 87.596082 488.256843 
" style="fill: #ffffff; stroke: #ffffff; stroke-linejoin: miter"/>
   </g>
  </g>
  <g id="grid3d_1">
   <g id="Line3DCollection_1">
    <path d="M 432.341607 558.497742 
L 91.447018 485.461893 
L 82.962923 219.924628 
" style="fill: none; stroke: #bdc3c7; stroke-width: 0.5"/>
    <path d="M 471.29902 522.346912 
L 136.487486 452.772213 
L 129.709048 192.562648 
" style="fill: none; stroke: #bdc3c7; stroke-width: 0.5"/>
    <path d="M 508.387363 487.930499 
L 179.469433 421.576575 
L 174.249195 166.491896 
" style="fill: none; stroke: #bdc3c7; stroke-width: 0.5"/>
    <path d="M 543.737994 455.126609 
L 220.53083 391.774843 
L 216.735918 141.623079 
" style="fill: none; stroke: #bdc3c7; stroke-width: 0.5"/>
    <path d="M 577.470245 423.824507 
L 259.797588 363.275633 
L 257.308019 117.87495 
" style="fill: none; stroke: #bdc3c7; stroke-width: 0.5"/>
   </g>
  </g>
  <g id="grid3d_2">
   <g id="Line3DCollection_2">
    <path d="M 581.164348 165.190512 
L 573.573029 420.018125 
L 421.828137 560.050819 
" style="fill: none; stroke: #bdc3c7; stroke-width: 0.5"/>
    <path d="M 499.85441 152.6991 
L 494.878406 405.053224 
L 336.846481 541.796523 
" style="fill: none; stroke: #bdc3c7; stroke-width: 0.5"/>
    <path d="M 420.408042 140.493983 
L 417.931914 390.420755 
L 253.946166 523.989304 
" style="fill: none; stroke: #bdc3c7; stroke-width: 0.5"/>
    <path d="M 342.761903 128.56543 
L 342.675943 376.109762 
L 173.051652 506.612938 
" style="fill: none; stroke: #bdc3c7; stroke-width: 0.5"/>
    <path d="M 266.855489 116.904146 
L 269.055386 362.109767 
L 94.091014 489.651973 
" style="fill: none; stroke: #bdc3c7; stroke-width: 0.5"/>
   </g>
  </g>
  <g id="grid3d_3">
   <g id="Line3DCollection_3">
    <path d="M 87.429016 483.109609 
L 262.946182 356.201081 
L 580.363157 416.337399 
" style="fill: none; stroke: #bdc3c7; stroke-width: 0.5"/>
    <path d="M 85.406827 420.806928 
L 262.386087 298.682432 
L 582.195752 356.529643 
" style="fill: none; stroke: #bdc3c7; stroke-width: 0.5"/>
    <path d="M 83.351987 357.498299 
L 261.817784 240.320778 
L 584.056498 295.803139 
" style="fill: none; stroke: #bdc3c7; stroke-width: 0.5"/>
    <path d="M 81.2637 293.159163 
L 261.24109 181.097449 
L 585.94605 234.136555 
" style="fill: none; stroke: #bdc3c7; stroke-width: 0.5"/>
    <path d="M 79.141142 227.764151 
L 260.655818 120.99322 
L 587.865081 171.50789 
" style="fill: none; stroke: #bdc3c7; stroke-width: 0.5"/>
   </g>
  </g>
  <g id="axis3d_1">
   <g id="line2d_1">
    <path d="M 580.211692 421.280561 
L 429.00635 561.592719 
" style="fill: none; stroke: #000000; stroke-width: 0.8; stroke-linecap: square"/>
   </g>
   <g id="xtick_1">
    <g id="line2d_2">
     <path d="M 429.473155 557.883183 
L 438.085711 559.728402 
" style="fill: none; stroke: #000000; stroke-width: 0.8; stroke-linecap: square"/>
    </g>
    <g id="text_1">
     <!-- 0 -->
     <g transform="translate(434.951691 575.980918) scale(0.14 -0.14)">
      <defs>
       <path id="DejaVuSans-30" d="M 2034 4250 
Q 1547 4250 1301 3770 
Q 1056 3291 1056 2328 
Q 1056 1369 1301 889 
Q 1547 409 2034 409 
Q 2525 409 2770 889 
Q 3016 1369 3016 2328 
Q 3016 3291 2770 3770 
Q 2525 4250 2034 4250 
z
M 2034 4750 
Q 2819 4750 3233 4129 
Q 3647 3509 3647 2328 
Q 3647 1150 3233 529 
Q 2819 -91 2034 -91 
Q 1250 -91 836 529 
Q 422 1150 422 2328 
Q 422 3509 836 4129 
Q 1250 4750 2034 4750 
z
" transform="scale(0.015625)"/>
      </defs>
      <use xlink:href="#DejaVuSans-30"/>
     </g>
    </g>
   </g>
   <g id="xtick_2">
    <g id="line2d_3">
     <path d="M 468.485163 521.762185 
L 476.933622 523.517797 
" style="fill: none; stroke: #000000; stroke-width: 0.8; stroke-linecap: square"/>
    </g>
    <g id="text_2">
     <!-- 80 -->
     <g transform="translate(469.294899 539.649516) scale(0.14 -0.14)">
      <defs>
       <path id="DejaVuSans-38" d="M 2034 2216 
Q 1584 2216 1326 1975 
Q 1069 1734 1069 1313 
Q 1069 891 1326 650 
Q 1584 409 2034 409 
Q 2484 409 2743 651 
Q 3003 894 3003 1313 
Q 3003 1734 2745 1975 
Q 2488 2216 2034 2216 
z
M 1403 2484 
Q 997 2584 770 2862 
Q 544 3141 544 3541 
Q 544 4100 942 4425 
Q 1341 4750 2034 4750 
Q 2731 4750 3128 4425 
Q 3525 4100 3525 3541 
Q 3525 3141 3298 2862 
Q 3072 2584 2669 2484 
Q 3125 2378 3379 2068 
Q 3634 1759 3634 1313 
Q 3634 634 3220 271 
Q 2806 -91 2034 -91 
Q 1263 -91 848 271 
Q 434 634 434 1313 
Q 434 1759 690 2068 
Q 947 2378 1403 2484 
z
M 1172 3481 
Q 1172 3119 1398 2916 
Q 1625 2713 2034 2713 
Q 2441 2713 2670 2916 
Q 2900 3119 2900 3481 
Q 2900 3844 2670 4047 
Q 2441 4250 2034 4250 
Q 1625 4250 1398 4047 
Q 1172 3844 1172 3481 
z
" transform="scale(0.015625)"/>
      </defs>
      <use xlink:href="#DejaVuSans-38"/>
      <use xlink:href="#DejaVuSans-30" x="63.623047"/>
     </g>
    </g>
   </g>
   <g id="xtick_3">
    <g id="line2d_4">
     <path d="M 505.626226 487.373484 
L 513.916233 489.04586 
" style="fill: none; stroke: #000000; stroke-width: 0.8; stroke-linecap: square"/>
    </g>
    <g id="text_3">
     <!-- 160 -->
     <g transform="translate(501.776119 505.061771) scale(0.14 -0.14)">
      <defs>
       <path id="DejaVuSans-31" d="M 794 531 
L 1825 531 
L 1825 4091 
L 703 3866 
L 703 4441 
L 1819 4666 
L 2450 4666 
L 2450 531 
L 3481 531 
L 3481 0 
L 794 0 
L 794 531 
z
" transform="scale(0.015625)"/>
       <path id="DejaVuSans-36" d="M 2113 2584 
Q 1688 2584 1439 2293 
Q 1191 2003 1191 1497 
Q 1191 994 1439 701 
Q 1688 409 2113 409 
Q 2538 409 2786 701 
Q 3034 994 3034 1497 
Q 3034 2003 2786 2293 
Q 2538 2584 2113 2584 
z
M 3366 4563 
L 3366 3988 
Q 3128 4100 2886 4159 
Q 2644 4219 2406 4219 
Q 1781 4219 1451 3797 
Q 1122 3375 1075 2522 
Q 1259 2794 1537 2939 
Q 1816 3084 2150 3084 
Q 2853 3084 3261 2657 
Q 3669 2231 3669 1497 
Q 3669 778 3244 343 
Q 2819 -91 2113 -91 
Q 1303 -91 875 529 
Q 447 1150 447 2328 
Q 447 3434 972 4092 
Q 1497 4750 2381 4750 
Q 2619 4750 2861 4703 
Q 3103 4656 3366 4563 
z
" transform="scale(0.015625)"/>
      </defs>
      <use xlink:href="#DejaVuSans-31"/>
      <use xlink:href="#DejaVuSans-36" x="63.623047"/>
      <use xlink:href="#DejaVuSans-30" x="127.246094"/>
     </g>
    </g>
   </g>
   <g id="xtick_4">
    <g id="line2d_5">
     <path d="M 541.027784 454.595381 
L 549.164739 456.190304 
" style="fill: none; stroke: #000000; stroke-width: 0.8; stroke-linecap: square"/>
    </g>
    <g id="text_4">
     <!-- 240 -->
     <g transform="translate(536.980005 472.095101) scale(0.14 -0.14)">
      <defs>
       <path id="DejaVuSans-32" d="M 1228 531 
L 3431 531 
L 3431 0 
L 469 0 
L 469 531 
Q 828 903 1448 1529 
Q 2069 2156 2228 2338 
Q 2531 2678 2651 2914 
Q 2772 3150 2772 3378 
Q 2772 3750 2511 3984 
Q 2250 4219 1831 4219 
Q 1534 4219 1204 4116 
Q 875 4013 500 3803 
L 500 4441 
Q 881 4594 1212 4672 
Q 1544 4750 1819 4750 
Q 2544 4750 2975 4387 
Q 3406 4025 3406 3419 
Q 3406 3131 3298 2873 
Q 3191 2616 2906 2266 
Q 2828 2175 2409 1742 
Q 1991 1309 1228 531 
z
" transform="scale(0.015625)"/>
       <path id="DejaVuSans-34" d="M 2419 4116 
L 825 1625 
L 2419 1625 
L 2419 4116 
z
M 2253 4666 
L 3047 4666 
L 3047 1625 
L 3713 1625 
L 3713 1100 
L 3047 1100 
L 3047 0 
L 2419 0 
L 2419 1100 
L 313 1100 
L 313 1709 
L 2253 4666 
z
" transform="scale(0.015625)"/>
      </defs>
      <use xlink:href="#DejaVuSans-32"/>
      <use xlink:href="#DejaVuSans-34" x="63.623047"/>
      <use xlink:href="#DejaVuSans-30" x="127.246094"/>
     </g>
    </g>
   </g>
   <g id="xtick_5">
    <g id="line2d_6">
     <path d="M 574.809245 423.317317 
L 582.798313 424.840045 
" style="fill: none; stroke: #000000; stroke-width: 0.8; stroke-linecap: square"/>
    </g>
    <g id="text_5">
     <!-- 320 -->
     <g transform="translate(570.571718 440.638148) scale(0.14 -0.14)">
      <defs>
       <path id="DejaVuSans-33" d="M 2597 2516 
Q 3050 2419 3304 2112 
Q 3559 1806 3559 1356 
Q 3559 666 3084 287 
Q 2609 -91 1734 -91 
Q 1441 -91 1130 -33 
Q 819 25 488 141 
L 488 750 
Q 750 597 1062 519 
Q 1375 441 1716 441 
Q 2309 441 2620 675 
Q 2931 909 2931 1356 
Q 2931 1769 2642 2001 
Q 2353 2234 1838 2234 
L 1294 2234 
L 1294 2753 
L 1863 2753 
Q 2328 2753 2575 2939 
Q 2822 3125 2822 3475 
Q 2822 3834 2567 4026 
Q 2313 4219 1838 4219 
Q 1578 4219 1281 4162 
Q 984 4106 628 3988 
L 628 4550 
Q 988 4650 1302 4700 
Q 1616 4750 1894 4750 
Q 2613 4750 3031 4423 
Q 3450 4097 3450 3541 
Q 3450 3153 3228 2886 
Q 3006 2619 2597 2516 
z
" transform="scale(0.015625)"/>
      </defs>
      <use xlink:href="#DejaVuSans-33"/>
      <use xlink:href="#DejaVuSans-32" x="63.623047"/>
      <use xlink:href="#DejaVuSans-30" x="127.246094"/>
     </g>
    </g>
   </g>
   <g id="text_6">
    <!-- X (m) -->
    <g transform="translate(522.417294 531.889995) rotate(-42.860015) scale(0.18 -0.18)">
     <defs>
      <path id="TimesNewRomanPSMT-58" d="M 2613 2347 
L 3522 991 
Q 3900 428 4083 279 
Q 4266 131 4547 116 
L 4547 0 
L 2728 0 
L 2728 116 
Q 2909 119 2997 153 
Q 3063 181 3105 239 
Q 3147 297 3147 356 
Q 3147 428 3119 500 
Q 3097 553 2947 775 
L 2228 1863 
L 1341 725 
Q 1200 544 1172 483 
Q 1144 422 1144 356 
Q 1144 256 1228 190 
Q 1313 125 1550 116 
L 1550 0 
L 47 0 
L 47 116 
Q 206 131 322 181 
Q 516 263 691 400 
Q 866 538 1091 822 
L 2091 2084 
L 1256 3306 
Q 916 3803 678 3958 
Q 441 4113 131 4122 
L 131 4238 
L 2091 4238 
L 2091 4122 
Q 1841 4113 1748 4041 
Q 1656 3969 1656 3881 
Q 1656 3766 1806 3544 
L 2456 2572 
L 3209 3525 
Q 3341 3694 3370 3756 
Q 3400 3819 3400 3884 
Q 3400 3950 3363 4000 
Q 3316 4066 3244 4092 
Q 3172 4119 2947 4122 
L 2947 4238 
L 4450 4238 
L 4450 4122 
Q 4272 4113 4159 4066 
Q 3991 3994 3850 3872 
Q 3709 3750 3453 3422 
L 2613 2347 
z
" transform="scale(0.015625)"/>
      <path id="TimesNewRomanPSMT-20" transform="scale(0.015625)"/>
      <path id="TimesNewRomanPSMT-28" d="M 1988 -1253 
L 1988 -1369 
Q 1516 -1131 1200 -813 
Q 750 -359 506 256 
Q 263 872 263 1534 
Q 263 2503 741 3301 
Q 1219 4100 1988 4444 
L 1988 4313 
Q 1603 4100 1356 3731 
Q 1109 3363 987 2797 
Q 866 2231 866 1616 
Q 866 947 969 400 
Q 1050 -31 1165 -292 
Q 1281 -553 1476 -793 
Q 1672 -1034 1988 -1253 
z
" transform="scale(0.015625)"/>
      <path id="TimesNewRomanPSMT-6d" d="M 1050 2338 
Q 1363 2650 1419 2697 
Q 1559 2816 1721 2881 
Q 1884 2947 2044 2947 
Q 2313 2947 2506 2790 
Q 2700 2634 2766 2338 
Q 3088 2713 3309 2830 
Q 3531 2947 3766 2947 
Q 3994 2947 4170 2830 
Q 4347 2713 4450 2447 
Q 4519 2266 4519 1878 
L 4519 647 
Q 4519 378 4559 278 
Q 4591 209 4675 161 
Q 4759 113 4950 113 
L 4950 0 
L 3538 0 
L 3538 113 
L 3597 113 
Q 3781 113 3884 184 
Q 3956 234 3988 344 
Q 4000 397 4000 647 
L 4000 1878 
Q 4000 2228 3916 2372 
Q 3794 2572 3525 2572 
Q 3359 2572 3192 2489 
Q 3025 2406 2788 2181 
L 2781 2147 
L 2788 2013 
L 2788 647 
Q 2788 353 2820 281 
Q 2853 209 2943 161 
Q 3034 113 3253 113 
L 3253 0 
L 1806 0 
L 1806 113 
Q 2044 113 2133 169 
Q 2222 225 2256 338 
Q 2272 391 2272 647 
L 2272 1878 
Q 2272 2228 2169 2381 
Q 2031 2581 1784 2581 
Q 1616 2581 1450 2491 
Q 1191 2353 1050 2181 
L 1050 647 
Q 1050 366 1089 281 
Q 1128 197 1204 155 
Q 1281 113 1516 113 
L 1516 0 
L 100 0 
L 100 113 
Q 297 113 375 155 
Q 453 197 493 289 
Q 534 381 534 647 
L 534 1741 
Q 534 2213 506 2350 
Q 484 2453 437 2492 
Q 391 2531 309 2531 
Q 222 2531 100 2484 
L 53 2597 
L 916 2947 
L 1050 2947 
L 1050 2338 
z
" transform="scale(0.015625)"/>
      <path id="TimesNewRomanPSMT-29" d="M 144 4313 
L 144 4444 
Q 619 4209 934 3891 
Q 1381 3434 1625 2820 
Q 1869 2206 1869 1541 
Q 1869 572 1392 -226 
Q 916 -1025 144 -1369 
L 144 -1253 
Q 528 -1038 776 -670 
Q 1025 -303 1145 264 
Q 1266 831 1266 1447 
Q 1266 2113 1163 2663 
Q 1084 3094 967 3353 
Q 850 3613 656 3853 
Q 463 4094 144 4313 
z
" transform="scale(0.015625)"/>
     </defs>
     <use xlink:href="#TimesNewRomanPSMT-58"/>
     <use xlink:href="#TimesNewRomanPSMT-20" x="72.216797"/>
     <use xlink:href="#TimesNewRomanPSMT-28" x="97.216797"/>
     <use xlink:href="#TimesNewRomanPSMT-6d" x="130.517578"/>
     <use xlink:href="#TimesNewRomanPSMT-29" x="208.300781"/>
    </g>
   </g>
  </g>
  <g id="axis3d_2">
   <g id="line2d_7">
    <path d="M 87.596082 488.256843 
L 429.00635 561.592719 
" style="fill: none; stroke: #000000; stroke-width: 0.8; stroke-linecap: square"/>
   </g>
   <g id="xtick_6">
    <g id="line2d_8">
     <path d="M 423.168557 558.813857 
L 419.140523 562.530993 
" style="fill: none; stroke: #000000; stroke-width: 0.8; stroke-linecap: square"/>
    </g>
    <g id="text_7">
     <!-- −50 -->
     <g transform="translate(400.544647 586.821956) scale(0.14 -0.14)">
      <defs>
       <path id="DejaVuSans-2212" d="M 678 2272 
L 4684 2272 
L 4684 1741 
L 678 1741 
L 678 2272 
z
" transform="scale(0.015625)"/>
       <path id="DejaVuSans-35" d="M 691 4666 
L 3169 4666 
L 3169 4134 
L 1269 4134 
L 1269 2991 
Q 1406 3038 1543 3061 
Q 1681 3084 1819 3084 
Q 2600 3084 3056 2656 
Q 3513 2228 3513 1497 
Q 3513 744 3044 326 
Q 2575 -91 1722 -91 
Q 1428 -91 1123 -41 
Q 819 9 494 109 
L 494 744 
Q 775 591 1075 516 
Q 1375 441 1709 441 
Q 2250 441 2565 725 
Q 2881 1009 2881 1497 
Q 2881 1984 2565 2268 
Q 2250 2553 1709 2553 
Q 1456 2553 1204 2497 
Q 953 2441 691 2322 
L 691 4666 
z
" transform="scale(0.015625)"/>
      </defs>
      <use xlink:href="#DejaVuSans-2212"/>
      <use xlink:href="#DejaVuSans-35" x="83.789062"/>
      <use xlink:href="#DejaVuSans-30" x="147.412109"/>
     </g>
    </g>
   </g>
   <g id="xtick_7">
    <g id="line2d_9">
     <path d="M 338.240806 540.590029 
L 334.050874 544.215531 
" style="fill: none; stroke: #000000; stroke-width: 0.8; stroke-linecap: square"/>
    </g>
    <g id="text_8">
     <!-- 30 -->
     <g transform="translate(321.2844 568.31872) scale(0.14 -0.14)">
      <use xlink:href="#DejaVuSans-33"/>
      <use xlink:href="#DejaVuSans-30" x="63.623047"/>
     </g>
    </g>
   </g>
   <g id="xtick_8">
    <g id="line2d_10">
     <path d="M 255.39137 522.812167 
L 251.048635 526.349382 
" style="fill: none; stroke: #000000; stroke-width: 0.8; stroke-linecap: square"/>
    </g>
    <g id="text_9">
     <!-- 110 -->
     <g transform="translate(233.794956 550.269845) scale(0.14 -0.14)">
      <use xlink:href="#DejaVuSans-31"/>
      <use xlink:href="#DejaVuSans-31" x="63.623047"/>
      <use xlink:href="#DejaVuSans-30" x="127.246094"/>
     </g>
    </g>
   </g>
   <g id="xtick_9">
    <g id="line2d_11">
     <path d="M 174.544881 505.464098 
L 170.057923 508.916212 
" style="fill: none; stroke: #000000; stroke-width: 0.8; stroke-linecap: square"/>
    </g>
    <g id="text_10">
     <!-- 190 -->
     <g transform="translate(152.773537 532.658798) scale(0.14 -0.14)">
      <defs>
       <path id="DejaVuSans-39" d="M 703 97 
L 703 672 
Q 941 559 1184 500 
Q 1428 441 1663 441 
Q 2288 441 2617 861 
Q 2947 1281 2994 2138 
Q 2813 1869 2534 1725 
Q 2256 1581 1919 1581 
Q 1219 1581 811 2004 
Q 403 2428 403 3163 
Q 403 3881 828 4315 
Q 1253 4750 1959 4750 
Q 2769 4750 3195 4129 
Q 3622 3509 3622 2328 
Q 3622 1225 3098 567 
Q 2575 -91 1691 -91 
Q 1453 -91 1209 -44 
Q 966 3 703 97 
z
M 1959 2075 
Q 2384 2075 2632 2365 
Q 2881 2656 2881 3163 
Q 2881 3666 2632 3958 
Q 2384 4250 1959 4250 
Q 1534 4250 1286 3958 
Q 1038 3666 1038 3163 
Q 1038 2656 1286 2365 
Q 1534 2075 1959 2075 
z
" transform="scale(0.015625)"/>
      </defs>
      <use xlink:href="#DejaVuSans-31"/>
      <use xlink:href="#DejaVuSans-39" x="63.623047"/>
      <use xlink:href="#DejaVuSans-30" x="127.246094"/>
     </g>
    </g>
   </g>
   <g id="xtick_10">
    <g id="line2d_12">
     <path d="M 95.629574 488.530422 
L 91.006491 491.90047 
" style="fill: none; stroke: #000000; stroke-width: 0.8; stroke-linecap: square"/>
    </g>
    <g id="text_11">
     <!-- 270 -->
     <g transform="translate(73.693977 515.46984) scale(0.14 -0.14)">
      <defs>
       <path id="DejaVuSans-37" d="M 525 4666 
L 3525 4666 
L 3525 4397 
L 1831 0 
L 1172 0 
L 2766 4134 
L 525 4134 
L 525 4666 
z
" transform="scale(0.015625)"/>
      </defs>
      <use xlink:href="#DejaVuSans-32"/>
      <use xlink:href="#DejaVuSans-37" x="63.623047"/>
      <use xlink:href="#DejaVuSans-30" x="127.246094"/>
     </g>
    </g>
   </g>
   <g id="text_12">
    <!-- Y (m) -->
    <g transform="translate(213.724465 566.076996) rotate(-347.876921) scale(0.18 -0.18)">
     <defs>
      <path id="TimesNewRomanPSMT-59" d="M 3050 4238 
L 4528 4238 
L 4528 4122 
L 4447 4122 
Q 4366 4122 4209 4050 
Q 4053 3978 3925 3843 
Q 3797 3709 3609 3406 
L 2588 1797 
L 2588 734 
Q 2588 344 2675 247 
Q 2794 116 3050 116 
L 3188 116 
L 3188 0 
L 1388 0 
L 1388 116 
L 1538 116 
Q 1806 116 1919 278 
Q 1988 378 1988 734 
L 1988 1738 
L 825 3513 
Q 619 3825 545 3903 
Q 472 3981 241 4091 
Q 178 4122 59 4122 
L 59 4238 
L 1872 4238 
L 1872 4122 
L 1778 4122 
Q 1631 4122 1507 4053 
Q 1384 3984 1384 3847 
Q 1384 3734 1575 3441 
L 2459 2075 
L 3291 3381 
Q 3478 3675 3478 3819 
Q 3478 3906 3433 3975 
Q 3388 4044 3303 4083 
Q 3219 4122 3050 4122 
L 3050 4238 
z
" transform="scale(0.015625)"/>
     </defs>
     <use xlink:href="#TimesNewRomanPSMT-59"/>
     <use xlink:href="#TimesNewRomanPSMT-20" x="68.466797"/>
     <use xlink:href="#TimesNewRomanPSMT-28" x="93.466797"/>
     <use xlink:href="#TimesNewRomanPSMT-6d" x="126.767578"/>
     <use xlink:href="#TimesNewRomanPSMT-29" x="204.550781"/>
    </g>
   </g>
  </g>
  <g id="axis3d_3">
   <g id="line2d_13">
    <path d="M 87.596082 488.256843 
L 78.962689 222.266091 
" style="fill: none; stroke: #000000; stroke-width: 0.8; stroke-linecap: square"/>
   </g>
   <g id="xtick_11">
    <g id="line2d_14">
     <path d="M 88.972391 481.993665 
L 84.334843 485.346866 
" style="fill: none; stroke: #000000; stroke-width: 0.8; stroke-linecap: square"/>
    </g>
    <g id="text_13">
     <!-- −150 -->
     <g transform="translate(40.706326 497.471948) scale(0.14 -0.14)">
      <use xlink:href="#DejaVuSans-2212"/>
      <use xlink:href="#DejaVuSans-31" x="83.789062"/>
      <use xlink:href="#DejaVuSans-35" x="147.412109"/>
      <use xlink:href="#DejaVuSans-30" x="211.035156"/>
     </g>
    </g>
   </g>
   <g id="xtick_12">
    <g id="line2d_15">
     <path d="M 86.964182 419.732275 
L 82.284566 422.961443 
" style="fill: none; stroke: #000000; stroke-width: 0.8; stroke-linecap: square"/>
    </g>
    <g id="text_14">
     <!-- −70 -->
     <g transform="translate(42.911658 435.03155) scale(0.14 -0.14)">
      <use xlink:href="#DejaVuSans-2212"/>
      <use xlink:href="#DejaVuSans-37" x="83.789062"/>
      <use xlink:href="#DejaVuSans-30" x="147.412109"/>
     </g>
    </g>
   </g>
   <g id="xtick_13">
    <g id="line2d_16">
     <path d="M 84.923575 356.466422 
L 80.201132 359.567096 
" style="fill: none; stroke: #000000; stroke-width: 0.8; stroke-linecap: square"/>
    </g>
    <g id="text_15">
     <!-- 10 -->
     <g transform="translate(46.492619 371.580249) scale(0.14 -0.14)">
      <use xlink:href="#DejaVuSans-31"/>
      <use xlink:href="#DejaVuSans-30" x="63.623047"/>
     </g>
    </g>
   </g>
   <g id="xtick_14">
    <g id="line2d_17">
     <path d="M 82.849779 292.171602 
L 78.083729 295.139151 
" style="fill: none; stroke: #000000; stroke-width: 0.8; stroke-linecap: square"/>
    </g>
    <g id="text_16">
     <!-- 90 -->
     <g transform="translate(44.170506 307.093293) scale(0.14 -0.14)">
      <use xlink:href="#DejaVuSans-39"/>
      <use xlink:href="#DejaVuSans-30" x="63.623047"/>
     </g>
    </g>
   </g>
   <g id="xtick_15">
    <g id="line2d_18">
     <path d="M 80.741977 226.822505 
L 75.931519 229.652122 
" style="fill: none; stroke: #000000; stroke-width: 0.8; stroke-linecap: square"/>
    </g>
    <g id="text_17">
     <!-- 170 -->
     <g transform="translate(37.35643 241.545118) scale(0.14 -0.14)">
      <use xlink:href="#DejaVuSans-31"/>
      <use xlink:href="#DejaVuSans-37" x="63.623047"/>
      <use xlink:href="#DejaVuSans-30" x="127.246094"/>
     </g>
    </g>
   </g>
   <g id="text_18">
    <!-- Z (m) -->
    <g transform="translate(18.777692 344.249905) rotate(-271.859025) scale(0.18 -0.18)">
     <defs>
      <path id="TimesNewRomanPSMT-5a" d="M 3681 4238 
L 897 256 
L 2634 256 
Q 3034 256 3248 431 
Q 3463 606 3628 1141 
L 3731 1122 
L 3531 0 
L 81 0 
L 81 116 
L 2800 3984 
L 1444 3984 
Q 1106 3984 954 3911 
Q 803 3838 723 3698 
Q 644 3559 578 3178 
L 459 3178 
L 547 4238 
L 3681 4238 
z
" transform="scale(0.015625)"/>
     </defs>
     <use xlink:href="#TimesNewRomanPSMT-5a"/>
     <use xlink:href="#TimesNewRomanPSMT-20" x="61.083984"/>
     <use xlink:href="#TimesNewRomanPSMT-28" x="86.083984"/>
     <use xlink:href="#TimesNewRomanPSMT-6d" x="119.384766"/>
     <use xlink:href="#TimesNewRomanPSMT-29" x="197.167969"/>
    </g>
   </g>
  </g>
  <g id="axes_1">
   <g id="line2d_19">
    <defs>
     <path id="m92f0346906" d="M 0 -3 
L -0.673542 -0.927051 
L -2.85317 -0.927051 
L -1.089814 0.354102 
L -1.763356 2.427051 
L -0 1.145898 
L 1.763356 2.427051 
L 1.089814 0.354102 
L 2.85317 -0.927051 
L 0.673542 -0.927051 
z
" style="stroke: #ff0000; stroke-linejoin: bevel"/>
    </defs>
    <g clip-path="url(#p0cd7880cb0)">
     <use xlink:href="#m92f0346906" x="372.424187" y="418.596028" style="fill: #ff0000; stroke: #ff0000; stroke-linejoin: bevel"/>
    </g>
   </g>
   <g id="line2d_20">
    <path d="M 372.424187 418.596028 
L 372.423762 418.59611 
L 374.076488 417.243981 
L 379.304662 412.823533 
L 381.936926 410.62743 
L 389.448819 403.759873 
L 390.645025 402.353806 
L 391.595927 400.878895 
L 391.894205 400.128211 
L 392.099604 398.565645 
L 392.001855 396.997387 
L 391.47347 393.404507 
L 391.571093 392.132753 
L 391.976838 390.877944 
L 392.682522 389.556807 
L 393.710502 388.327395 
L 401.65427 381.120097 
L 408.993886 374.64985 
L 420.012891 364.612819 
L 421.569489 363.36514 
L 423.373891 362.205109 
L 425.486594 361.160875 
L 427.925476 360.189243 
L 431.947385 358.901387 
L 438.486599 356.976742 
L 441.928188 355.595342 
L 446.025025 353.568239 
L 447.687352 352.519579 
L 452.472917 348.240761 
L 462.981024 339.821551 
L 464.570424 338.885245 
L 466.268504 338.038882 
L 468.190014 337.436169 
L 470.40171 337.097191 
L 471.965398 337.0056 
L 474.940288 337.151874 
L 477.64317 337.583845 
L 483.406518 338.815046 
L 498.810568 342.483992 
L 500.185559 342.697095 
L 502.765664 342.749133 
L 505.049089 342.449748 
L 505.949203 342.185887 
L 506.712593 341.820526 
L 508.333547 340.533305 
L 509.919477 339.205488 
L 511.592097 338.020019 
L 517.437812 334.27271 
L 517.84885 333.711664 
L 517.90375 333.18629 
L 517.641254 332.649103 
L 517.24443 332.217072 
L 516.455932 331.665036 
L 515.484447 331.270075 
L 512.760845 330.698958 
L 504.826209 329.571936 
L 499.117469 328.480998 
L 489.433047 326.467281 
L 477.418568 323.689895 
L 472.227368 322.41121 
L 466.894938 321.448996 
L 461.974641 320.946285 
L 456.80028 320.752107 
L 451.812892 320.709295 
L 444.248677 320.555333 
L 426.067313 320.818051 
L 423.757307 321.001071 
L 419.011278 321.392968 
L 415.574244 321.654758 
L 412.146013 321.857552 
L 409.891082 321.743301 
L 406.479941 321.198309 
L 402.690781 320.445896 
L 398.452612 319.469701 
L 349.798537 308.473523 
L 335.911387 304.968149 
L 314.058528 299.839753 
L 311.405541 299.034341 
L 309.398648 298.085247 
L 308.812666 297.540887 
L 308.330208 296.456687 
L 308.499488 295.890891 
L 308.796622 295.359456 
L 309.281628 294.876208 
L 313.224101 292.232523 
L 318.245157 289.147013 
L 321.215508 286.987137 
L 330.252101 280.111985 
L 341.295503 270.941414 
L 350.654379 263.309374 
L 354.401663 259.960621 
L 355.288474 258.879363 
L 355.988236 257.754464 
L 356.248531 257.161074 
L 356.378053 256.579084 
L 356.378424 255.986502 
L 356.221336 255.433024 
L 355.936929 254.884528 
L 355.005558 253.871193 
L 353.65275 252.93677 
L 351.918957 252.026157 
L 348.805185 250.78595 
L 345.197673 249.643004 
L 338.405967 247.815184 
L 321.477905 243.349223 
L 318.021641 242.763156 
L 314.909903 242.557075 
L 312.265429 242.631928 
L 309.978633 242.893432 
L 307.955651 243.324834 
L 306.079651 243.920228 
L 304.463183 244.69538 
L 301.365659 246.551023 
L 289.520275 253.855792 
L 282.771627 258.64116 
L 274.416545 264.436889 
L 263.203996 271.725411 
L 256.752264 275.563078 
L 249.288849 279.718226 
L 232.955026 289.355831 
L 219.331195 296.93197 
L 211.522561 301.295923 
L 201.430521 307.351627 
L 199.031828 309.084021 
L 197.690711 310.524245 
L 196.772159 312.087487 
L 196.635349 312.598548 
L 196.653857 313.262146 
L 196.890163 313.793996 
L 197.348812 314.344184 
L 197.922938 314.813714 
L 198.709979 315.283631 
L 199.627138 315.644538 
L 202.343189 316.347391 
L 217.167978 319.466363 
L 225.213536 321.569947 
L 241.664889 325.960895 
L 244.665575 326.859153 
L 246.958479 327.719235 
L 248.560225 328.548735 
L 249.936591 329.64753 
L 250.588431 330.690869 
L 250.786107 331.849252 
L 250.757644 332.480344 
L 250.340304 333.813487 
L 249.485216 335.28701 
L 248.305304 336.836155 
L 246.221146 339.014235 
L 239.804045 345.562219 
L 238.194942 346.969496 
L 236.635716 348.340032 
L 230.509308 353.275929 
L 214.414948 365.846198 
L 202.319486 375.014174 
L 197.273021 378.561112 
L 196.642897 379.188492 
L 196.260025 379.78599 
L 196.075477 380.330985 
L 196.153628 380.860647 
L 196.366982 381.381253 
L 196.815326 381.904005 
L 197.416854 382.427826 
L 199.127046 383.405276 
L 201.45743 384.315616 
L 205.642201 385.614274 
L 208.814709 386.450422 
L 213.84209 387.711595 
L 220.950518 389.477704 
L 239.354852 394.605264 
L 261.229929 400.375217 
L 277.973881 404.880761 
L 290.741609 408.274086 
L 299.092268 410.341494 
L 302.274574 410.755467 
L 303.88728 410.810378 
L 305.48579 410.678805 
L 306.950149 410.401168 
L 308.179004 409.951882 
L 309.080608 409.348827 
L 312.293736 405.748523 
L 314.978973 403.414085 
L 319.715221 399.55414 
L 340.912425 381.537934 
L 341.683187 381.134973 
L 342.695427 380.768661 
L 343.829411 380.516119 
L 346.262267 380.284307 
L 348.636586 380.564601 
L 353.823226 381.618816 
L 362.030047 383.36758 
L 377.177345 387.016228 
L 381.946451 388.363533 
L 384.814185 389.413259 
L 387.175291 390.594362 
L 388.805442 391.95546 
L 389.410227 392.660317 
L 392.431157 397.738997 
L 393.711994 399.128603 
L 395.549538 400.298907 
L 399.366483 402.56577 
L 401.85142 402.989645 
L 406.189173 403.549958 
L 417.407329 405.612539 
L 431.026473 408.671932 
L 436.105424 409.716995 
L 458.921811 414.693744 
L 463.752627 415.709905 
L 466.643069 416.253267 
L 469.512417 416.311821 
L 470.915484 416.053804 
L 472.077478 415.655128 
L 473.010273 415.172033 
L 474.139379 414.10638 
L 476.269475 412.006422 
L 479.070257 409.59352 
L 482.141871 407.015217 
L 486.654307 402.901354 
L 489.259337 400.462874 
L 496.115148 394.324757 
L 500.684793 390.19201 
L 505.787213 385.559709 
L 510.121861 381.634762 
L 512.068719 379.855278 
L 516.592569 375.562122 
L 517.176472 374.461874 
L 517.234897 373.902544 
L 517.101004 373.313171 
L 516.816905 372.767463 
L 516.296515 372.17063 
L 515.5351 371.575839 
L 514.563604 371.033328 
L 513.372845 370.616894 
L 507.015798 369.084696 
L 505.073065 368.773698 
L 497.360598 367.104343 
L 470.473301 361.445351 
L 455.015882 357.946105 
L 451.673935 357.404709 
L 448.250975 357.108652 
L 446.506871 357.087445 
L 441.556527 357.570885 
L 438.415129 358.078351 
L 433.97987 358.964641 
L 429.628836 359.773245 
L 426.664466 360.129414 
L 423.684552 360.221227 
L 419.346692 360.089202 
L 414.974667 359.482895 
L 410.485806 358.658542 
L 398.243899 355.958417 
L 395.135386 355.161109 
L 388.533079 353.756104 
L 385.077337 353.128237 
L 381.503649 352.729154 
L 378.029382 352.60876 
L 374.878519 352.92393 
L 373.494425 353.158131 
L 371.093163 353.933608 
L 370.172962 354.397786 
L 369.404193 354.921331 
L 365.814216 358.472004 
L 365.051999 359.032085 
L 363.051682 360.022105 
L 360.604421 360.668609 
L 357.862094 360.943829 
L 355.054497 360.942198 
L 352.267349 360.662122 
L 349.4194 360.211996 
L 345.017868 359.215155 
L 267.544216 340.228524 
L 263.1231 338.928921 
L 260.777126 337.975903 
L 258.742444 336.75924 
L 257.617296 335.464738 
L 257.281683 334.790306 
L 257.110163 334.093317 
L 257.075696 333.454915 
L 257.216851 332.775066 
L 257.498792 332.097173 
L 258.516226 330.783766 
L 259.943453 329.449251 
L 266.730763 324.14264 
L 275.534919 317.522435 
L 284.728671 310.25868 
L 287.813299 308.164605 
L 291.561323 305.307234 
L 295.159645 302.906872 
L 300.465444 299.715336 
L 309.190913 294.98386 
L 309.190913 294.98386 
" clip-path="url(#p0cd7880cb0)" style="fill: none; stroke-dasharray: 7.4,3.2; stroke-dashoffset: 0; stroke: #808a87; stroke-width: 2"/>
   </g>
   <g id="line2d_21">
    <path d="M 372.424187 418.596028 
L 374.490041 416.88493 
L 377.706298 414.123 
L 381.347267 411.133199 
L 383.780473 408.9521 
L 386.32442 406.592576 
L 388.980201 404.231733 
L 389.975297 403.20599 
L 391.490902 401.054904 
L 391.778585 400.338488 
L 391.942409 398.846961 
L 391.752817 396.987374 
L 391.238738 394.595656 
L 391.216059 393.321116 
L 391.285625 392.732065 
L 392.424089 390.268165 
L 393.443978 389.043522 
L 397.898479 384.898197 
L 411.427075 372.688103 
L 415.385764 368.995944 
L 420.436303 364.376643 
L 422.124858 363.158301 
L 424.078444 362.024445 
L 429.090269 360.02632 
L 439.952435 356.324963 
L 443.208845 354.771799 
L 447.207672 352.344139 
L 449.861929 349.856249 
L 459.362463 342.087955 
L 461.787893 340.184043 
L 463.351424 339.176195 
L 466.449366 337.771252 
L 468.54243 337.230313 
L 471.179589 336.950487 
L 473.159576 336.908564 
L 476.857568 337.323398 
L 479.206681 337.691436 
L 492.720661 340.420375 
L 497.986672 341.528672 
L 500.72515 341.762982 
L 502.37025 341.681665 
L 503.943205 341.472623 
L 505.744372 340.868185 
L 506.225994 340.622591 
L 509.012596 338.303029 
L 511.241963 336.796605 
L 516.939427 333.267225 
L 517.245602 332.882724 
L 517.450254 332.536658 
L 517.265175 331.827265 
L 516.773531 331.252742 
L 515.984149 330.717705 
L 514.650823 330.280731 
L 512.845536 330.015565 
L 507.132857 329.586176 
L 505.139303 329.323194 
L 502.453708 328.95889 
L 498.805886 328.392849 
L 493.345441 327.525722 
L 467.728968 323.138972 
L 465.125066 322.931223 
L 461.216977 322.801809 
L 440.307091 323.512256 
L 428.529303 324.122739 
L 427.949984 324.252785 
L 426.811103 324.296558 
L 423.963797 324.595775 
L 419.176764 325.193604 
L 415.681383 325.633553 
L 411.140742 326.037019 
L 408.905738 325.988221 
L 404.821509 325.530314 
L 372.2717 319.861807 
L 359.980451 317.792094 
L 351.539735 316.309265 
L 350.691498 316.07443 
L 349.039465 315.81903 
L 347.359569 315.447655 
L 345.70253 315.115937 
L 342.32769 314.38403 
L 337.058422 313.347343 
L 326.124223 311.391474 
L 322.727055 310.814687 
L 316.61488 309.589933 
L 312.642962 308.686974 
L 311.029392 308.125911 
L 310.112232 307.699434 
L 309.466464 307.206804 
L 309.081254 306.69595 
L 308.948983 306.157958 
L 309.059605 305.599689 
L 310.319106 304.285609 
L 317.67698 299.60754 
L 320.281857 297.870235 
L 323.332377 295.624402 
L 332.692943 288.464207 
L 337.752673 284.222539 
L 342.11293 280.751673 
L 353.765016 271.443428 
L 357.940264 267.574095 
L 358.877595 266.140076 
L 359.206719 265.276714 
L 359.20893 264.421349 
L 358.887788 263.638663 
L 358.283338 262.898647 
L 357.101196 262.00981 
L 355.046935 260.980962 
L 352.543249 260.069989 
L 349.080117 259.075788 
L 325.981048 253.745261 
L 322.588571 253.210946 
L 319.372949 253.036524 
L 316.62728 253.154967 
L 313.70576 253.559538 
L 311.643901 254.062916 
L 309.750158 254.726951 
L 308.465331 255.320074 
L 304.78336 257.474878 
L 299.79522 260.462108 
L 294.875146 263.472749 
L 289.8961 266.793956 
L 282.644692 271.818805 
L 272.339992 278.667125 
L 268.570146 281.079899 
L 259.968172 286.311864 
L 244.694474 294.965358 
L 231.99447 302.24358 
L 228.406009 304.222508 
L 224.78227 306.16892 
L 219.699921 308.961419 
L 205.883567 316.612101 
L 197.113013 321.954158 
L 195.956271 322.892829 
L 194.590822 324.377677 
L 193.852894 325.444656 
L 193.675606 325.960841 
L 193.544622 326.409714 
L 193.727413 327.133151 
L 194.158686 327.659054 
L 194.788055 328.154882 
L 195.563548 328.570987 
L 196.889145 329.032778 
L 199.041082 329.525252 
L 212.709483 332.019264 
L 217.324694 333.126244 
L 240.612809 338.969352 
L 244.071427 340.592851 
L 245.058905 341.476019 
L 245.625692 342.5267 
L 245.700556 343.365974 
L 245.54372 344.307757 
L 245.158427 345.312684 
L 243.915134 347.117612 
L 242.18321 349.07896 
L 233.098712 357.598054 
L 231.337778 359.017196 
L 229.606859 360.432227 
L 226.294791 362.943647 
L 222.003299 366.155999 
L 204.872864 378.765319 
L 199.251884 382.810767 
L 197.364752 384.208637 
L 194.939291 385.907702 
L 190.251661 389.106357 
L 188.874835 389.981904 
L 186.705572 391.533637 
L 185.789843 392.491915 
L 185.384199 393.34698 
L 185.365776 393.885804 
L 185.513104 394.413931 
L 185.872135 394.924768 
L 186.400734 395.436569 
L 187.507322 396.170677 
L 189.569442 397.022357 
L 192.049186 397.835994 
L 194.850751 398.638129 
L 197.184944 399.226716 
L 199.567133 399.796025 
L 204.576361 400.982817 
L 213.148855 403.185922 
L 223.766468 406.061889 
L 228.354744 407.262555 
L 233.544633 408.638893 
L 249.243077 412.644191 
L 261.351898 415.883646 
L 283.91769 421.739841 
L 285.948079 422.043077 
L 288.060945 422.178302 
L 289.13527 422.167763 
L 291.204348 421.851192 
L 292.994191 421.226922 
L 293.697127 420.837222 
L 294.758378 419.901721 
L 295.512144 419.145127 
L 297.893545 416.890405 
L 301.776018 413.870003 
L 306.651868 410.22933 
L 314.624086 404.032602 
L 319.111502 400.722797 
L 325.193982 396.051359 
L 330.372224 392.072027 
L 331.776918 391.460781 
L 333.508672 391.050078 
L 335.953821 390.836509 
L 338.860511 391.18771 
L 346.979978 392.812598 
L 369.524804 398.655153 
L 372.310876 399.72785 
L 374.074271 400.619476 
L 375.444389 401.644617 
L 376.160254 402.306395 
L 376.708101 403.030234 
L 377.117071 403.752089 
L 378.172818 406.385851 
L 379.232001 408.677752 
L 379.987541 409.795421 
L 380.665668 410.491975 
L 381.886401 411.40387 
L 382.957341 412.16333 
L 384.471336 413.385134 
L 385.440902 413.773397 
L 386.629892 414.027468 
L 396.284016 415.564868 
L 406.270624 417.818205 
L 413.466594 419.566787 
L 423.186487 421.901336 
L 424.978128 422.306155 
L 435.327676 424.708524 
L 449.091531 428.098839 
L 450.971787 428.315834 
L 452.930422 428.303658 
L 454.819834 427.910311 
L 456.34791 427.276765 
L 457.458229 426.447965 
L 459.409212 424.65194 
L 462.454472 422.255884 
L 470.525513 415.973039 
L 474.142975 412.936156 
L 484.338753 404.794393 
L 487.108 402.627814 
L 507.836555 385.77477 
L 508.801324 384.627677 
L 509.036235 384.025568 
L 509.119029 383.446372 
L 508.8787 382.553398 
L 508.471736 381.952932 
L 507.84079 381.362405 
L 506.95921 380.82454 
L 505.812385 380.353392 
L 502.114613 379.39082 
L 499.568112 378.776985 
L 494.010473 377.57722 
L 485.653399 375.681889 
L 471.809583 372.570766 
L 469.019116 371.978662 
L 450.276291 367.574715 
L 446.21601 366.891396 
L 443.685972 366.659776 
L 441.069425 366.597138 
L 437.659593 366.795583 
L 434.374424 367.251905 
L 428.973019 368.335575 
L 422.212169 369.568268 
L 418.412224 369.819807 
L 415.483628 369.797098 
L 408.39584 368.899606 
L 404.75134 368.155655 
L 396.133759 366.001177 
L 388.025829 363.911637 
L 378.126766 362.018639 
L 374.652058 361.824525 
L 372.143138 361.941105 
L 370.588889 362.139608 
L 368.45739 362.564813 
L 366.595469 363.168016 
L 365.54311 363.630186 
L 364.276899 364.431174 
L 359.67031 368.038096 
L 358.715471 368.571832 
L 357.007244 369.31958 
L 354.408247 369.982041 
L 352.989803 370.194556 
L 350.133534 370.336382 
L 348.007535 370.257778 
L 344.589935 369.817354 
L 341.853043 369.268657 
L 316.027212 362.501643 
L 298.528872 357.876664 
L 268.770562 350.036579 
L 264.837473 348.947358 
L 261.754415 347.865007 
L 259.760562 346.83759 
L 258.633604 345.969027 
L 258.112613 345.33015 
L 257.609148 344.343899 
L 257.428232 343.673346 
L 257.71676 342.282846 
L 258.088347 341.589288 
L 258.972941 340.598009 
L 260.603354 339.248869 
L 262.030167 338.301624 
L 264.603048 336.535011 
L 267.116625 334.894679 
L 274.481977 330.237915 
L 278.780109 327.483452 
L 289.540143 320.22035 
L 292.587804 318.482109 
L 295.324935 316.870283 
L 298.45358 314.83735 
L 302.007961 312.701866 
L 308.994053 309.117877 
L 317.743084 304.945655 
L 320.435132 303.561063 
L 320.435132 303.561063 
" clip-path="url(#p0cd7880cb0)" style="fill: none; stroke: #ff0000; stroke-width: 2; stroke-linecap: square"/>
   </g>
   <g id="line2d_22">
    <path d="M 372.655468 418.428147 
L 374.109127 417.215348 
L 377.607782 414.303307 
L 382.081277 410.676138 
L 389.117364 404.458932 
L 390.332868 403.112125 
L 390.978119 402.240431 
L 391.486897 401.20955 
L 391.709181 400.097398 
L 391.758738 398.982658 
L 391.599528 397.535971 
L 391.208684 394.899896 
L 391.240734 393.986657 
L 391.366313 393.414142 
L 391.912225 391.883959 
L 392.628218 390.861894 
L 393.448126 389.950745 
L 401.565637 382.87126 
L 409.861776 375.862696 
L 420.139504 366.957316 
L 422.391444 365.391955 
L 424.655534 364.192104 
L 426.146541 363.568585 
L 428.018518 362.881953 
L 430.992912 361.9188 
L 439.990738 359.14627 
L 444.871475 356.987091 
L 445.826908 356.511068 
L 447.514788 355.518522 
L 448.564472 354.604891 
L 450.539338 352.854664 
L 454.620729 349.750134 
L 459.01156 346.375511 
L 460.96552 344.809016 
L 463.687836 342.992319 
L 465.799297 341.942592 
L 466.701434 341.628285 
L 468.153189 341.177062 
L 470.863272 340.782392 
L 473.390054 340.749071 
L 479.538304 341.533772 
L 495.617147 344.94577 
L 497.984688 345.488738 
L 500.268517 345.821781 
L 501.99562 345.885666 
L 503.22838 345.783314 
L 505.645211 345.308852 
L 506.548311 344.946141 
L 507.659471 344.169779 
L 511.023254 341.752331 
L 513.171593 340.508922 
L 515.4199 339.259685 
L 517.843737 337.664352 
L 518.056259 337.226556 
L 517.920978 336.729782 
L 517.435818 336.130709 
L 516.714145 335.639837 
L 515.800411 335.290243 
L 514.612953 335.017511 
L 512.463444 334.744017 
L 507.816363 334.293049 
L 503.134373 333.657184 
L 467.220472 327.507523 
L 462.393703 327.256623 
L 458.797706 327.284655 
L 443.370178 327.590384 
L 440.713923 327.709106 
L 429.31819 328.210676 
L 420.27478 329.043306 
L 416.80914 329.480632 
L 411.373416 329.877825 
L 408.575027 329.669106 
L 405.68746 329.302647 
L 390.33457 326.531784 
L 380.06721 324.72843 
L 365.378453 322.164892 
L 363.162088 321.79874 
L 346.720986 318.714164 
L 341.652875 317.631756 
L 338.089273 316.934585 
L 325.465112 314.681756 
L 323.014244 314.258044 
L 312.720074 311.980076 
L 311.085284 311.254667 
L 310.324105 310.651944 
L 309.99434 309.882975 
L 310.016928 309.475216 
L 310.280194 308.961436 
L 310.809485 308.349911 
L 312.477134 307.260007 
L 315.128653 305.599061 
L 322.419586 301.102767 
L 332.502012 293.783614 
L 336.510267 290.568925 
L 339.873684 287.911451 
L 346.542181 282.90487 
L 350.44023 279.994597 
L 355.530569 276.018564 
L 358.777616 273.171626 
L 359.510252 272.243554 
L 360.058597 271.275518 
L 360.240617 270.465109 
L 360.185169 269.790248 
L 359.729834 268.920671 
L 359.021935 268.253427 
L 357.747645 267.404731 
L 355.610085 266.411571 
L 353.5994 265.697676 
L 350.743094 264.859505 
L 347.931239 264.184593 
L 339.722663 262.310224 
L 331.136755 260.320642 
L 326.329319 259.33799 
L 324.19638 259.030164 
L 321.704409 258.835021 
L 319.126064 258.812322 
L 315.988151 259.067984 
L 313.831354 259.449881 
L 311.627555 260.047035 
L 310.057337 260.659244 
L 306.369397 262.655024 
L 301.405758 265.446893 
L 298.188825 267.246143 
L 289.104239 272.869194 
L 282.191409 277.349414 
L 277.358627 280.399408 
L 260.283993 290.507668 
L 249.850844 296.056912 
L 245.851727 298.28639 
L 238.971565 302.121367 
L 220.255636 311.972377 
L 209.684323 317.500685 
L 203.105255 321.101854 
L 196.250981 325.292289 
L 194.97001 326.474522 
L 193.95528 327.752196 
L 193.470212 328.744191 
L 193.418123 329.17452 
L 193.677351 329.924611 
L 194.319192 330.596309 
L 194.840723 330.973875 
L 196.459057 331.592887 
L 200.396285 332.400721 
L 202.966554 332.824658 
L 216.893491 335.652396 
L 239.773948 341.392019 
L 241.61101 342.092109 
L 242.794649 342.68198 
L 243.515438 343.156982 
L 244.339326 343.908569 
L 244.858779 344.898673 
L 244.829305 346.48012 
L 244.677585 346.956248 
L 243.849793 348.472551 
L 240.962165 351.65899 
L 238.599336 353.733051 
L 237.502505 354.798961 
L 235.884609 356.18202 
L 233.438944 358.398645 
L 226.827031 363.551169 
L 223.660615 365.847648 
L 222.378135 366.754633 
L 215.279455 371.752999 
L 197.928076 383.936992 
L 193.301359 387.120824 
L 188.078655 390.524856 
L 184.935055 392.616661 
L 184.048441 393.403241 
L 183.512205 394.248684 
L 183.442339 394.772185 
L 183.608426 395.410348 
L 184.074882 396.039573 
L 184.988184 396.775927 
L 186.274787 397.442297 
L 188.222767 398.189507 
L 191.126151 399.092968 
L 194.808304 400.090997 
L 198.807361 401.023349 
L 204.705379 402.403991 
L 233.027902 409.938824 
L 241.56456 412.099781 
L 281.08416 422.540432 
L 283.940237 422.96154 
L 286.091695 423.005314 
L 287.697436 422.872849 
L 289.212823 422.577908 
L 290.723829 421.99661 
L 291.531598 421.489993 
L 292.259675 420.814985 
L 294.896292 418.336957 
L 298.049624 415.89183 
L 307.991675 408.705656 
L 313.470909 404.735718 
L 316.690597 402.486956 
L 322.054141 398.606282 
L 326.612394 395.17185 
L 328.959488 393.594721 
L 330.230343 393.121082 
L 331.675552 392.798 
L 333.51803 392.628265 
L 334.973018 392.707827 
L 336.969566 392.992305 
L 346.013403 394.94177 
L 351.037333 396.200767 
L 366.065943 400.22046 
L 369.632489 401.476217 
L 371.796839 402.488615 
L 373.638294 403.783702 
L 374.468206 404.625717 
L 375.172267 405.886054 
L 377.394601 411.145181 
L 378.096669 412.036523 
L 378.857666 412.708608 
L 382.764255 415.568051 
L 383.80621 415.895312 
L 385.275448 416.153687 
L 388.648316 416.618438 
L 393.409365 417.496165 
L 400.731198 419.123959 
L 435.631936 427.786585 
L 443.303756 429.842889 
L 447.531623 430.781914 
L 449.196531 430.900663 
L 450.650222 430.867029 
L 452.709653 430.432803 
L 454.166259 429.707534 
L 456.449654 427.858705 
L 457.44483 427.049465 
L 459.156943 425.755391 
L 461.988513 423.708927 
L 465.606494 421.068835 
L 484.778656 406.327553 
L 487.24996 404.437741 
L 493.780993 399.417092 
L 495.558548 398.111765 
L 497.3309 396.790288 
L 499.353745 395.1775 
L 503.064711 392.361524 
L 506.691606 389.365014 
L 507.302838 388.535829 
L 507.571384 387.533377 
L 507.352111 386.631539 
L 506.951382 386.030233 
L 506.313715 385.434335 
L 505.45971 384.896704 
L 504.336261 384.412219 
L 501.879826 383.734694 
L 484.863094 379.659879 
L 477.598148 377.947055 
L 473.946546 377.085099 
L 464.215121 374.816284 
L 450.496261 371.448277 
L 448.156369 370.933245 
L 445.310263 370.457572 
L 443.251373 370.217131 
L 440.193795 370.064464 
L 437.221198 370.212861 
L 434.313912 370.484459 
L 426.865608 371.825674 
L 423.440624 372.427084 
L 420.033335 372.815226 
L 416.681725 372.93425 
L 411.373201 372.562752 
L 405.316337 371.510774 
L 393.839241 368.658494 
L 389.111454 367.434293 
L 384.106339 366.274796 
L 377.768152 365.138017 
L 375.592461 364.934292 
L 373.003218 364.847194 
L 370.552316 365.010738 
L 368.002752 365.423232 
L 365.505497 366.185179 
L 364.254057 366.770647 
L 363.244455 367.421216 
L 358.996627 370.593387 
L 356.650334 371.738142 
L 353.785339 372.488448 
L 351.990663 372.725433 
L 349.171455 372.815424 
L 346.083562 372.604899 
L 343.378885 372.211334 
L 340.2968 371.54539 
L 318.704829 365.818694 
L 314.858377 364.826652 
L 279.455119 355.347617 
L 268.329836 352.335951 
L 266.276823 351.807275 
L 262.347248 350.615797 
L 260.420345 349.797437 
L 258.767818 348.869091 
L 257.822201 347.993375 
L 257.608351 347.451894 
L 257.216986 346.303993 
L 257.204703 345.663202 
L 257.340147 345.001148 
L 257.749933 344.171314 
L 258.411596 343.358014 
L 260.100739 341.924442 
L 261.235006 341.113716 
L 266.641728 337.702572 
L 269.90811 335.691378 
L 278.386836 330.563759 
L 288.562732 323.980778 
L 293.076434 321.490865 
L 295.501462 320.111875 
L 297.967294 318.576023 
L 302.623942 315.910801 
L 309.054045 312.771388 
L 310.893352 311.968111 
L 314.175807 310.482551 
L 319.230454 308.177735 
L 321.307839 307.162835 
L 321.307839 307.162835 
" clip-path="url(#p0cd7880cb0)" style="fill: none; stroke: #0000ff; stroke-width: 2; stroke-linecap: square"/>
   </g>
   <g id="Path3DCollection_1">
    <defs>
     <path id="m1d711cb65f" d="M 0 -5 
L -1.12257 -1.545085 
L -4.755283 -1.545085 
L -1.816356 0.59017 
L -2.938926 4.045085 
L -0 1.90983 
L 2.938926 4.045085 
L 1.816356 0.59017 
L 4.755283 -1.545085 
L 1.12257 -1.545085 
z
" style="stroke: #ff0000"/>
    </defs>
    <g clip-path="url(#p0cd7880cb0)">
     <use xlink:href="#m1d711cb65f" x="372.424187" y="418.596028" style="fill: #ff0000; stroke: #ff0000"/>
    </g>
   </g>
   <g id="legend_1">
    <g id="patch_6">
     <path d="M 74.2475 84.9621 
L 589.9525 84.9621 
Q 593.1525 84.9621 593.1525 81.7621 
L 593.1525 60.7396 
Q 593.1525 57.5396 589.9525 57.5396 
L 74.2475 57.5396 
Q 71.0475 57.5396 71.0475 60.7396 
L 71.0475 81.7621 
Q 71.0475 84.9621 74.2475 84.9621 
z
" style="fill: #ffffff; opacity: 0.8; stroke: #cccccc; stroke-linejoin: miter"/>
    </g>
    <g id="line2d_23">
     <g>
      <use xlink:href="#m92f0346906" x="93.4475" y="69.5396" style="fill: #ff0000; stroke: #ff0000; stroke-linejoin: bevel"/>
     </g>
    </g>
    <g id="text_19">
     <!-- Start -->
     <g transform="translate(122.2475 75.1396) scale(0.16 -0.16)">
      <defs>
       <path id="TimesNewRomanPSMT-53" d="M 2934 4334 
L 2934 2869 
L 2819 2869 
Q 2763 3291 2617 3541 
Q 2472 3791 2203 3937 
Q 1934 4084 1647 4084 
Q 1322 4084 1109 3886 
Q 897 3688 897 3434 
Q 897 3241 1031 3081 
Q 1225 2847 1953 2456 
Q 2547 2138 2764 1967 
Q 2981 1797 3098 1565 
Q 3216 1334 3216 1081 
Q 3216 600 2842 251 
Q 2469 -97 1881 -97 
Q 1697 -97 1534 -69 
Q 1438 -53 1133 45 
Q 828 144 747 144 
Q 669 144 623 97 
Q 578 50 556 -97 
L 441 -97 
L 441 1356 
L 556 1356 
Q 638 900 775 673 
Q 913 447 1195 297 
Q 1478 147 1816 147 
Q 2206 147 2432 353 
Q 2659 559 2659 841 
Q 2659 997 2573 1156 
Q 2488 1316 2306 1453 
Q 2184 1547 1640 1851 
Q 1097 2156 867 2337 
Q 638 2519 519 2737 
Q 400 2956 400 3219 
Q 400 3675 750 4004 
Q 1100 4334 1641 4334 
Q 1978 4334 2356 4169 
Q 2531 4091 2603 4091 
Q 2684 4091 2736 4139 
Q 2788 4188 2819 4334 
L 2934 4334 
z
" transform="scale(0.015625)"/>
       <path id="TimesNewRomanPSMT-74" d="M 1031 3803 
L 1031 2863 
L 1700 2863 
L 1700 2644 
L 1031 2644 
L 1031 788 
Q 1031 509 1111 412 
Q 1191 316 1316 316 
Q 1419 316 1516 380 
Q 1613 444 1666 569 
L 1788 569 
Q 1678 263 1478 108 
Q 1278 -47 1066 -47 
Q 922 -47 784 33 
Q 647 113 581 261 
Q 516 409 516 719 
L 516 2644 
L 63 2644 
L 63 2747 
Q 234 2816 414 2980 
Q 594 3144 734 3369 
Q 806 3488 934 3803 
L 1031 3803 
z
" transform="scale(0.015625)"/>
       <path id="TimesNewRomanPSMT-61" d="M 1822 413 
Q 1381 72 1269 19 
Q 1100 -59 909 -59 
Q 613 -59 420 144 
Q 228 347 228 678 
Q 228 888 322 1041 
Q 450 1253 767 1440 
Q 1084 1628 1822 1897 
L 1822 2009 
Q 1822 2438 1686 2597 
Q 1550 2756 1291 2756 
Q 1094 2756 978 2650 
Q 859 2544 859 2406 
L 866 2225 
Q 866 2081 792 2003 
Q 719 1925 600 1925 
Q 484 1925 411 2006 
Q 338 2088 338 2228 
Q 338 2497 613 2722 
Q 888 2947 1384 2947 
Q 1766 2947 2009 2819 
Q 2194 2722 2281 2516 
Q 2338 2381 2338 1966 
L 2338 994 
Q 2338 584 2353 492 
Q 2369 400 2405 369 
Q 2441 338 2488 338 
Q 2538 338 2575 359 
Q 2641 400 2828 588 
L 2828 413 
Q 2478 -56 2159 -56 
Q 2006 -56 1915 50 
Q 1825 156 1822 413 
z
M 1822 616 
L 1822 1706 
Q 1350 1519 1213 1441 
Q 966 1303 859 1153 
Q 753 1003 753 825 
Q 753 600 887 451 
Q 1022 303 1197 303 
Q 1434 303 1822 616 
z
" transform="scale(0.015625)"/>
       <path id="TimesNewRomanPSMT-72" d="M 1038 2947 
L 1038 2303 
Q 1397 2947 1775 2947 
Q 1947 2947 2059 2842 
Q 2172 2738 2172 2600 
Q 2172 2478 2090 2393 
Q 2009 2309 1897 2309 
Q 1788 2309 1652 2417 
Q 1516 2525 1450 2525 
Q 1394 2525 1328 2463 
Q 1188 2334 1038 2041 
L 1038 669 
Q 1038 431 1097 309 
Q 1138 225 1241 169 
Q 1344 113 1538 113 
L 1538 0 
L 72 0 
L 72 113 
Q 291 113 397 181 
Q 475 231 506 341 
Q 522 394 522 644 
L 522 1753 
Q 522 2253 501 2348 
Q 481 2444 426 2487 
Q 372 2531 291 2531 
Q 194 2531 72 2484 
L 41 2597 
L 906 2947 
L 1038 2947 
z
" transform="scale(0.015625)"/>
      </defs>
      <use xlink:href="#TimesNewRomanPSMT-53"/>
      <use xlink:href="#TimesNewRomanPSMT-74" x="55.615234"/>
      <use xlink:href="#TimesNewRomanPSMT-61" x="83.398438"/>
      <use xlink:href="#TimesNewRomanPSMT-72" x="127.783203"/>
      <use xlink:href="#TimesNewRomanPSMT-74" x="161.083984"/>
     </g>
    </g>
    <g id="line2d_24">
     <path d="M 184.465 69.5396 
L 200.465 69.5396 
L 216.465 69.5396 
" style="fill: none; stroke-dasharray: 7.4,3.2; stroke-dashoffset: 0; stroke: #808a87; stroke-width: 2"/>
    </g>
    <g id="text_20">
     <!-- GroundTruth -->
     <g transform="translate(229.265 75.1396) scale(0.16 -0.16)">
      <defs>
       <path id="TimesNewRomanPSMT-47" d="M 3928 4334 
L 4038 2997 
L 3928 2997 
Q 3763 3497 3500 3750 
Q 3122 4116 2528 4116 
Q 1719 4116 1297 3475 
Q 944 2934 944 2188 
Q 944 1581 1178 1081 
Q 1413 581 1792 348 
Q 2172 116 2572 116 
Q 2806 116 3025 175 
Q 3244 234 3447 350 
L 3447 1575 
Q 3447 1894 3398 1992 
Q 3350 2091 3248 2142 
Q 3147 2194 2891 2194 
L 2891 2313 
L 4531 2313 
L 4531 2194 
L 4453 2194 
Q 4209 2194 4119 2031 
Q 4056 1916 4056 1575 
L 4056 278 
Q 3697 84 3347 -6 
Q 2997 -97 2569 -97 
Q 1341 -97 703 691 
Q 225 1281 225 2053 
Q 225 2613 494 3125 
Q 813 3734 1369 4063 
Q 1834 4334 2469 4334 
Q 2700 4334 2889 4296 
Q 3078 4259 3425 4131 
Q 3600 4066 3659 4066 
Q 3719 4066 3761 4120 
Q 3803 4175 3813 4334 
L 3928 4334 
z
" transform="scale(0.015625)"/>
       <path id="TimesNewRomanPSMT-6f" d="M 1600 2947 
Q 2250 2947 2644 2453 
Q 2978 2031 2978 1484 
Q 2978 1100 2793 706 
Q 2609 313 2286 112 
Q 1963 -88 1566 -88 
Q 919 -88 538 428 
Q 216 863 216 1403 
Q 216 1797 411 2186 
Q 606 2575 925 2761 
Q 1244 2947 1600 2947 
z
M 1503 2744 
Q 1338 2744 1170 2645 
Q 1003 2547 900 2300 
Q 797 2053 797 1666 
Q 797 1041 1045 587 
Q 1294 134 1700 134 
Q 2003 134 2200 384 
Q 2397 634 2397 1244 
Q 2397 2006 2069 2444 
Q 1847 2744 1503 2744 
z
" transform="scale(0.015625)"/>
       <path id="TimesNewRomanPSMT-75" d="M 2709 2863 
L 2709 1128 
Q 2709 631 2732 520 
Q 2756 409 2807 365 
Q 2859 322 2928 322 
Q 3025 322 3147 375 
L 3191 266 
L 2334 -88 
L 2194 -88 
L 2194 519 
Q 1825 119 1631 15 
Q 1438 -88 1222 -88 
Q 981 -88 804 51 
Q 628 191 559 409 
Q 491 628 491 1028 
L 491 2306 
Q 491 2509 447 2587 
Q 403 2666 317 2708 
Q 231 2750 6 2747 
L 6 2863 
L 1009 2863 
L 1009 947 
Q 1009 547 1148 422 
Q 1288 297 1484 297 
Q 1619 297 1789 381 
Q 1959 466 2194 703 
L 2194 2325 
Q 2194 2569 2105 2655 
Q 2016 2741 1734 2747 
L 1734 2863 
L 2709 2863 
z
" transform="scale(0.015625)"/>
       <path id="TimesNewRomanPSMT-6e" d="M 1034 2341 
Q 1538 2947 1994 2947 
Q 2228 2947 2397 2830 
Q 2566 2713 2666 2444 
Q 2734 2256 2734 1869 
L 2734 647 
Q 2734 375 2778 278 
Q 2813 200 2889 156 
Q 2966 113 3172 113 
L 3172 0 
L 1756 0 
L 1756 113 
L 1816 113 
Q 2016 113 2095 173 
Q 2175 234 2206 353 
Q 2219 400 2219 647 
L 2219 1819 
Q 2219 2209 2117 2386 
Q 2016 2563 1775 2563 
Q 1403 2563 1034 2156 
L 1034 647 
Q 1034 356 1069 288 
Q 1113 197 1189 155 
Q 1266 113 1500 113 
L 1500 0 
L 84 0 
L 84 113 
L 147 113 
Q 366 113 442 223 
Q 519 334 519 647 
L 519 1709 
Q 519 2225 495 2337 
Q 472 2450 423 2490 
Q 375 2531 294 2531 
Q 206 2531 84 2484 
L 38 2597 
L 900 2947 
L 1034 2947 
L 1034 2341 
z
" transform="scale(0.015625)"/>
       <path id="TimesNewRomanPSMT-64" d="M 2222 322 
Q 2013 103 1813 7 
Q 1613 -88 1381 -88 
Q 913 -88 563 304 
Q 213 697 213 1313 
Q 213 1928 600 2439 
Q 988 2950 1597 2950 
Q 1975 2950 2222 2709 
L 2222 3238 
Q 2222 3728 2198 3840 
Q 2175 3953 2125 3993 
Q 2075 4034 2000 4034 
Q 1919 4034 1784 3984 
L 1744 4094 
L 2597 4444 
L 2738 4444 
L 2738 1134 
Q 2738 631 2761 520 
Q 2784 409 2836 365 
Q 2888 322 2956 322 
Q 3041 322 3181 375 
L 3216 266 
L 2366 -88 
L 2222 -88 
L 2222 322 
z
M 2222 541 
L 2222 2016 
Q 2203 2228 2109 2403 
Q 2016 2578 1861 2667 
Q 1706 2756 1559 2756 
Q 1284 2756 1069 2509 
Q 784 2184 784 1559 
Q 784 928 1059 592 
Q 1334 256 1672 256 
Q 1956 256 2222 541 
z
" transform="scale(0.015625)"/>
       <path id="TimesNewRomanPSMT-54" d="M 3703 4238 
L 3750 3244 
L 3631 3244 
Q 3597 3506 3538 3619 
Q 3441 3800 3280 3886 
Q 3119 3972 2856 3972 
L 2259 3972 
L 2259 734 
Q 2259 344 2344 247 
Q 2463 116 2709 116 
L 2856 116 
L 2856 0 
L 1059 0 
L 1059 116 
L 1209 116 
Q 1478 116 1591 278 
Q 1659 378 1659 734 
L 1659 3972 
L 1150 3972 
Q 853 3972 728 3928 
Q 566 3869 450 3700 
Q 334 3531 313 3244 
L 194 3244 
L 244 4238 
L 3703 4238 
z
" transform="scale(0.015625)"/>
       <path id="TimesNewRomanPSMT-68" d="M 1041 4444 
L 1041 2350 
Q 1388 2731 1591 2839 
Q 1794 2947 1997 2947 
Q 2241 2947 2416 2812 
Q 2591 2678 2675 2391 
Q 2734 2191 2734 1659 
L 2734 647 
Q 2734 375 2778 275 
Q 2809 200 2884 156 
Q 2959 113 3159 113 
L 3159 0 
L 1753 0 
L 1753 113 
L 1819 113 
Q 2019 113 2097 173 
Q 2175 234 2206 353 
Q 2216 403 2216 647 
L 2216 1659 
Q 2216 2128 2167 2275 
Q 2119 2422 2012 2495 
Q 1906 2569 1756 2569 
Q 1603 2569 1437 2487 
Q 1272 2406 1041 2159 
L 1041 647 
Q 1041 353 1073 281 
Q 1106 209 1195 161 
Q 1284 113 1503 113 
L 1503 0 
L 84 0 
L 84 113 
Q 275 113 384 172 
Q 447 203 484 290 
Q 522 378 522 647 
L 522 3238 
Q 522 3728 498 3840 
Q 475 3953 426 3993 
Q 378 4034 297 4034 
Q 231 4034 84 3984 
L 41 4094 
L 897 4444 
L 1041 4444 
z
" transform="scale(0.015625)"/>
      </defs>
      <use xlink:href="#TimesNewRomanPSMT-47"/>
      <use xlink:href="#TimesNewRomanPSMT-72" x="72.216797"/>
      <use xlink:href="#TimesNewRomanPSMT-6f" x="105.517578"/>
      <use xlink:href="#TimesNewRomanPSMT-75" x="155.517578"/>
      <use xlink:href="#TimesNewRomanPSMT-6e" x="205.517578"/>
      <use xlink:href="#TimesNewRomanPSMT-64" x="255.517578"/>
      <use xlink:href="#TimesNewRomanPSMT-54" x="305.517578"/>
      <use xlink:href="#TimesNewRomanPSMT-72" x="363.101562"/>
      <use xlink:href="#TimesNewRomanPSMT-75" x="396.402344"/>
      <use xlink:href="#TimesNewRomanPSMT-74" x="446.402344"/>
      <use xlink:href="#TimesNewRomanPSMT-68" x="474.185547"/>
     </g>
    </g>
    <g id="line2d_25">
     <path d="M 345.1325 69.5396 
L 361.1325 69.5396 
L 377.1325 69.5396 
" style="fill: none; stroke: #ff0000; stroke-width: 2; stroke-linecap: square"/>
    </g>
    <g id="text_21">
     <!-- ROLO -->
     <g transform="translate(389.9325 75.1396) scale(0.16 -0.16)">
      <defs>
       <path id="TimesNewRomanPSMT-52" d="M 4325 0 
L 3194 0 
L 1759 1981 
Q 1600 1975 1500 1975 
Q 1459 1975 1412 1976 
Q 1366 1978 1316 1981 
L 1316 750 
Q 1316 350 1403 253 
Q 1522 116 1759 116 
L 1925 116 
L 1925 0 
L 109 0 
L 109 116 
L 269 116 
Q 538 116 653 291 
Q 719 388 719 750 
L 719 3488 
Q 719 3888 631 3984 
Q 509 4122 269 4122 
L 109 4122 
L 109 4238 
L 1653 4238 
Q 2328 4238 2648 4139 
Q 2969 4041 3192 3777 
Q 3416 3513 3416 3147 
Q 3416 2756 3161 2468 
Q 2906 2181 2372 2063 
L 3247 847 
Q 3547 428 3762 290 
Q 3978 153 4325 116 
L 4325 0 
z
M 1316 2178 
Q 1375 2178 1419 2176 
Q 1463 2175 1491 2175 
Q 2097 2175 2405 2437 
Q 2713 2700 2713 3106 
Q 2713 3503 2464 3751 
Q 2216 4000 1806 4000 
Q 1625 4000 1316 3941 
L 1316 2178 
z
" transform="scale(0.015625)"/>
       <path id="TimesNewRomanPSMT-4f" d="M 2341 4334 
Q 3166 4334 3770 3707 
Q 4375 3081 4375 2144 
Q 4375 1178 3765 540 
Q 3156 -97 2291 -97 
Q 1416 -97 820 525 
Q 225 1147 225 2134 
Q 225 3144 913 3781 
Q 1509 4334 2341 4334 
z
M 2281 4106 
Q 1713 4106 1369 3684 
Q 941 3159 941 2147 
Q 941 1109 1384 550 
Q 1725 125 2284 125 
Q 2881 125 3270 590 
Q 3659 1056 3659 2059 
Q 3659 3147 3231 3681 
Q 2888 4106 2281 4106 
z
" transform="scale(0.015625)"/>
       <path id="TimesNewRomanPSMT-4c" d="M 3669 1172 
L 3772 1150 
L 3409 0 
L 128 0 
L 128 116 
L 288 116 
Q 556 116 672 291 
Q 738 391 738 753 
L 738 3488 
Q 738 3884 650 3984 
Q 528 4122 288 4122 
L 128 4122 
L 128 4238 
L 2047 4238 
L 2047 4122 
Q 1709 4125 1573 4059 
Q 1438 3994 1388 3894 
Q 1338 3794 1338 3416 
L 1338 753 
Q 1338 494 1388 397 
Q 1425 331 1503 300 
Q 1581 269 1991 269 
L 2300 269 
Q 2788 269 2984 341 
Q 3181 413 3343 595 
Q 3506 778 3669 1172 
z
" transform="scale(0.015625)"/>
      </defs>
      <use xlink:href="#TimesNewRomanPSMT-52"/>
      <use xlink:href="#TimesNewRomanPSMT-4f" x="66.699219"/>
      <use xlink:href="#TimesNewRomanPSMT-4c" x="138.916016"/>
      <use xlink:href="#TimesNewRomanPSMT-4f" x="200"/>
     </g>
    </g>
    <g id="line2d_26">
     <path d="M 465.4875 69.5396 
L 481.4875 69.5396 
L 497.4875 69.5396 
" style="fill: none; stroke: #0000ff; stroke-width: 2; stroke-linecap: square"/>
    </g>
    <g id="text_22">
     <!-- FAST-LIO2 -->
     <g transform="translate(510.2875 75.1396) scale(0.16 -0.16)">
      <defs>
       <path id="TimesNewRomanPSMT-46" d="M 1309 4006 
L 1309 2341 
L 2081 2341 
Q 2347 2341 2470 2458 
Q 2594 2575 2634 2922 
L 2750 2922 
L 2750 1488 
L 2634 1488 
Q 2631 1734 2570 1850 
Q 2509 1966 2401 2023 
Q 2294 2081 2081 2081 
L 1309 2081 
L 1309 750 
Q 1309 428 1350 325 
Q 1381 247 1481 191 
Q 1619 116 1769 116 
L 1922 116 
L 1922 0 
L 103 0 
L 103 116 
L 253 116 
Q 516 116 634 269 
Q 709 369 709 750 
L 709 3488 
Q 709 3809 669 3913 
Q 638 3991 541 4047 
Q 406 4122 253 4122 
L 103 4122 
L 103 4238 
L 3256 4238 
L 3297 3306 
L 3188 3306 
Q 3106 3603 2998 3742 
Q 2891 3881 2733 3943 
Q 2575 4006 2244 4006 
L 1309 4006 
z
" transform="scale(0.015625)"/>
       <path id="TimesNewRomanPSMT-41" d="M 2928 1419 
L 1288 1419 
L 1000 750 
Q 894 503 894 381 
Q 894 284 986 211 
Q 1078 138 1384 116 
L 1384 0 
L 50 0 
L 50 116 
Q 316 163 394 238 
Q 553 388 747 847 
L 2238 4334 
L 2347 4334 
L 3822 809 
Q 4000 384 4145 257 
Q 4291 131 4550 116 
L 4550 0 
L 2878 0 
L 2878 116 
Q 3131 128 3220 200 
Q 3309 272 3309 375 
Q 3309 513 3184 809 
L 2928 1419 
z
M 2841 1650 
L 2122 3363 
L 1384 1650 
L 2841 1650 
z
" transform="scale(0.015625)"/>
       <path id="TimesNewRomanPSMT-2d" d="M 259 1672 
L 1875 1672 
L 1875 1200 
L 259 1200 
L 259 1672 
z
" transform="scale(0.015625)"/>
       <path id="TimesNewRomanPSMT-49" d="M 1975 116 
L 1975 0 
L 159 0 
L 159 116 
L 309 116 
Q 572 116 691 269 
Q 766 369 766 750 
L 766 3488 
Q 766 3809 725 3913 
Q 694 3991 597 4047 
Q 459 4122 309 4122 
L 159 4122 
L 159 4238 
L 1975 4238 
L 1975 4122 
L 1822 4122 
Q 1563 4122 1444 3969 
Q 1366 3869 1366 3488 
L 1366 750 
Q 1366 428 1406 325 
Q 1438 247 1538 191 
Q 1672 116 1822 116 
L 1975 116 
z
" transform="scale(0.015625)"/>
       <path id="TimesNewRomanPSMT-32" d="M 2934 816 
L 2638 0 
L 138 0 
L 138 116 
Q 1241 1122 1691 1759 
Q 2141 2397 2141 2925 
Q 2141 3328 1894 3587 
Q 1647 3847 1303 3847 
Q 991 3847 742 3664 
Q 494 3481 375 3128 
L 259 3128 
Q 338 3706 661 4015 
Q 984 4325 1469 4325 
Q 1984 4325 2329 3994 
Q 2675 3663 2675 3213 
Q 2675 2891 2525 2569 
Q 2294 2063 1775 1497 
Q 997 647 803 472 
L 1909 472 
Q 2247 472 2383 497 
Q 2519 522 2628 598 
Q 2738 675 2819 816 
L 2934 816 
z
" transform="scale(0.015625)"/>
      </defs>
      <use xlink:href="#TimesNewRomanPSMT-46"/>
      <use xlink:href="#TimesNewRomanPSMT-41" x="48.240234"/>
      <use xlink:href="#TimesNewRomanPSMT-53" x="120.457031"/>
      <use xlink:href="#TimesNewRomanPSMT-54" x="176.072266"/>
      <use xlink:href="#TimesNewRomanPSMT-2d" x="228.03125"/>
      <use xlink:href="#TimesNewRomanPSMT-4c" x="261.332031"/>
      <use xlink:href="#TimesNewRomanPSMT-49" x="322.416016"/>
      <use xlink:href="#TimesNewRomanPSMT-4f" x="355.716797"/>
      <use xlink:href="#TimesNewRomanPSMT-32" x="427.933594"/>
     </g>
    </g>
   </g>
  </g>
 </g>
 <defs>
  <clipPath id="p0cd7880cb0">
   <rect x="42.12" y="43.74" width="579.96" height="579.96"/>
  </clipPath>
 </defs>
</svg>
