<?xml version="1.0" encoding="utf-8" standalone="no"?>
<!DOCTYPE svg PUBLIC "-//W3C//DTD SVG 1.1//EN"
  "http://www.w3.org/Graphics/SVG/1.1/DTD/svg11.dtd">
<svg xmlns:xlink="http://www.w3.org/1999/xlink" width="648pt" height="648pt" viewBox="0 0 648 648" xmlns="http://www.w3.org/2000/svg" version="1.1">
 <metadata>
  <rdf:RDF xmlns:dc="http://purl.org/dc/elements/1.1/" xmlns:cc="http://creativecommons.org/ns#" xmlns:rdf="http://www.w3.org/1999/02/22-rdf-syntax-ns#">
   <cc:Work>
    <dc:type rdf:resource="http://purl.org/dc/dcmitype/StillImage"/>
    <dc:date>2024-08-06T10:36:30.751766</dc:date>
    <dc:format>image/svg+xml</dc:format>
    <dc:creator>
     <cc:Agent>
      <dc:title>Matplotlib v3.8.3, https://matplotlib.org/</dc:title>
     </cc:Agent>
    </dc:creator>
   </cc:Work>
  </rdf:RDF>
 </metadata>
 <defs>
  <style type="text/css">*{stroke-linejoin: round; stroke-linecap: butt}</style>
 </defs>
 <g id="figure_1">
  <g id="patch_1">
   <path d="M 0 648 
L 648 648 
L 648 0 
L 0 0 
z
" style="fill: #ffffff"/>
  </g>
  <g id="patch_2">
   <path d="M 42.12 623.7 
L 622.08 623.7 
L 622.08 43.74 
L 42.12 43.74 
z
" style="fill: #ffffff"/>
  </g>
  <g id="pane3d_1">
   <g id="patch_3">
    <path d="M 579.183471 420.294277 
L 260.591633 361.263891 
L 258.130739 116.199829 
L 586.958749 165.421106 
" style="fill: #ffffff; stroke: #ffffff; stroke-linejoin: miter"/>
   </g>
  </g>
  <g id="pane3d_2">
   <g id="patch_4">
    <path d="M 88.29439 489.346331 
L 260.591633 361.263891 
L 258.130739 116.199829 
L 79.677962 223.178892 
" style="fill: #ffffff; stroke: #ffffff; stroke-linejoin: miter"/>
   </g>
  </g>
  <g id="pane3d_3">
   <g id="patch_5">
    <path d="M 431.737747 561.181469 
L 579.183471 420.294277 
L 260.591633 361.263891 
L 88.29439 489.346331 
" style="fill: #ffffff; stroke: #ffffff; stroke-linejoin: miter"/>
   </g>
  </g>
  <g id="grid3d_1">
   <g id="Line3DCollection_1">
    <path d="M 453.242544 540.633227 
L 113.323638 470.740072 
L 105.670706 207.596734 
" style="fill: none; stroke: #bdc3c7; stroke-width: 0.5"/>
    <path d="M 473.724931 521.061917 
L 137.194596 452.994863 
L 130.438579 192.748863 
" style="fill: none; stroke: #bdc3c7; stroke-width: 0.5"/>
    <path d="M 493.662866 502.010841 
L 160.460779 435.699232 
L 154.558316 178.289537 
" style="fill: none; stroke: #bdc3c7; stroke-width: 0.5"/>
    <path d="M 513.077774 483.459527 
L 183.144883 418.836308 
L 178.055031 164.203701 
" style="fill: none; stroke: #bdc3c7; stroke-width: 0.5"/>
    <path d="M 531.989969 465.388566 
L 205.268482 402.390053 
L 200.952555 150.477069 
" style="fill: none; stroke: #bdc3c7; stroke-width: 0.5"/>
    <path d="M 550.418726 447.779538 
L 226.852096 386.345211 
L 223.27352 137.096073 
" style="fill: none; stroke: #bdc3c7; stroke-width: 0.5"/>
    <path d="M 568.382349 430.614956 
L 247.915257 370.687264 
L 245.03943 124.047821 
" style="fill: none; stroke: #bdc3c7; stroke-width: 0.5"/>
   </g>
  </g>
  <g id="grid3d_2">
   <g id="Line3DCollection_2">
    <path d="M 554.189599 160.51599 
L 547.475497 414.419256 
L 397.412345 554.001915 
" style="fill: none; stroke: #bdc3c7; stroke-width: 0.5"/>
    <path d="M 504.230675 153.037789 
L 499.116924 405.459123 
L 345.12341 543.065081 
" style="fill: none; stroke: #bdc3c7; stroke-width: 0.5"/>
    <path d="M 454.963388 145.663117 
L 451.407134 396.6192 
L 293.608697 532.290185 
" style="fill: none; stroke: #bdc3c7; stroke-width: 0.5"/>
    <path d="M 406.373474 138.389838 
L 404.333157 387.897084 
L 242.851139 521.673657 
" style="fill: none; stroke: #bdc3c7; stroke-width: 0.5"/>
    <path d="M 358.447058 131.215877 
L 357.882369 379.290435 
L 192.834162 511.212029 
" style="fill: none; stroke: #bdc3c7; stroke-width: 0.5"/>
    <path d="M 311.170642 124.139213 
L 312.042474 370.796976 
L 143.541678 500.901938 
" style="fill: none; stroke: #bdc3c7; stroke-width: 0.5"/>
    <path d="M 264.531092 117.157879 
L 266.801501 362.414488 
L 94.958057 490.740114 
" style="fill: none; stroke: #bdc3c7; stroke-width: 0.5"/>
   </g>
  </g>
  <g id="grid3d_3">
   <g id="Line3DCollection_3">
    <path d="M 86.89682 446.174411 
L 260.191434 321.410762 
L 580.44639 378.895863 
" style="fill: none; stroke: #bdc3c7; stroke-width: 0.5"/>
    <path d="M 85.649451 407.642329 
L 259.834589 285.874919 
L 581.572996 341.965804 
" style="fill: none; stroke: #bdc3c7; stroke-width: 0.5"/>
    <path d="M 84.389724 368.728476 
L 259.474536 250.019617 
L 582.710205 304.688137 
" style="fill: none; stroke: #bdc3c7; stroke-width: 0.5"/>
    <path d="M 83.117453 329.42715 
L 259.111231 213.840527 
L 583.85817 267.057932 
" style="fill: none; stroke: #bdc3c7; stroke-width: 0.5"/>
    <path d="M 81.832451 289.732534 
L 258.744631 177.333245 
L 585.017042 229.070163 
" style="fill: none; stroke: #bdc3c7; stroke-width: 0.5"/>
    <path d="M 80.534525 249.638695 
L 258.37469 140.493284 
L 586.186979 190.71971 
" style="fill: none; stroke: #bdc3c7; stroke-width: 0.5"/>
   </g>
  </g>
  <g id="axis3d_1">
   <g id="line2d_1">
    <path d="M 579.183471 420.294277 
L 431.737747 561.181469 
" style="fill: none; stroke: #000000; stroke-width: 0.8; stroke-linecap: square"/>
   </g>
   <g id="xtick_1">
    <g id="line2d_2">
     <path d="M 450.386927 540.046063 
L 458.960709 541.80898 
" style="fill: none; stroke: #000000; stroke-width: 0.8; stroke-linecap: square"/>
    </g>
    <g id="text_1">
     <!-- 160 -->
     <g transform="translate(446.899478 557.995726) scale(0.14 -0.14)">
      <defs>
       <path id="DejaVuSans-31" d="M 794 531 
L 1825 531 
L 1825 4091 
L 703 3866 
L 703 4441 
L 1819 4666 
L 2450 4666 
L 2450 531 
L 3481 531 
L 3481 0 
L 794 0 
L 794 531 
z
" transform="scale(0.015625)"/>
       <path id="DejaVuSans-36" d="M 2113 2584 
Q 1688 2584 1439 2293 
Q 1191 2003 1191 1497 
Q 1191 994 1439 701 
Q 1688 409 2113 409 
Q 2538 409 2786 701 
Q 3034 994 3034 1497 
Q 3034 2003 2786 2293 
Q 2538 2584 2113 2584 
z
M 3366 4563 
L 3366 3988 
Q 3128 4100 2886 4159 
Q 2644 4219 2406 4219 
Q 1781 4219 1451 3797 
Q 1122 3375 1075 2522 
Q 1259 2794 1537 2939 
Q 1816 3084 2150 3084 
Q 2853 3084 3261 2657 
Q 3669 2231 3669 1497 
Q 3669 778 3244 343 
Q 2819 -91 2113 -91 
Q 1303 -91 875 529 
Q 447 1150 447 2328 
Q 447 3434 972 4092 
Q 1497 4750 2381 4750 
Q 2619 4750 2861 4703 
Q 3103 4656 3366 4563 
z
" transform="scale(0.015625)"/>
       <path id="DejaVuSans-30" d="M 2034 4250 
Q 1547 4250 1301 3770 
Q 1056 3291 1056 2328 
Q 1056 1369 1301 889 
Q 1547 409 2034 409 
Q 2525 409 2770 889 
Q 3016 1369 3016 2328 
Q 3016 3291 2770 3770 
Q 2525 4250 2034 4250 
z
M 2034 4750 
Q 2819 4750 3233 4129 
Q 3647 3509 3647 2328 
Q 3647 1150 3233 529 
Q 2819 -91 2034 -91 
Q 1250 -91 836 529 
Q 422 1150 422 2328 
Q 422 3509 836 4129 
Q 1250 4750 2034 4750 
z
" transform="scale(0.015625)"/>
      </defs>
      <use xlink:href="#DejaVuSans-31"/>
      <use xlink:href="#DejaVuSans-36" x="63.623047"/>
      <use xlink:href="#DejaVuSans-30" x="127.246094"/>
     </g>
    </g>
   </g>
   <g id="xtick_2">
    <g id="line2d_3">
     <path d="M 470.899597 520.490462 
L 479.382363 522.206197 
" style="fill: none; stroke: #000000; stroke-width: 0.8; stroke-linecap: square"/>
    </g>
    <g id="text_2">
     <!-- 240 -->
     <g transform="translate(467.293812 538.327587) scale(0.14 -0.14)">
      <defs>
       <path id="DejaVuSans-32" d="M 1228 531 
L 3431 531 
L 3431 0 
L 469 0 
L 469 531 
Q 828 903 1448 1529 
Q 2069 2156 2228 2338 
Q 2531 2678 2651 2914 
Q 2772 3150 2772 3378 
Q 2772 3750 2511 3984 
Q 2250 4219 1831 4219 
Q 1534 4219 1204 4116 
Q 875 4013 500 3803 
L 500 4441 
Q 881 4594 1212 4672 
Q 1544 4750 1819 4750 
Q 2544 4750 2975 4387 
Q 3406 4025 3406 3419 
Q 3406 3131 3298 2873 
Q 3191 2616 2906 2266 
Q 2828 2175 2409 1742 
Q 1991 1309 1228 531 
z
" transform="scale(0.015625)"/>
       <path id="DejaVuSans-34" d="M 2419 4116 
L 825 1625 
L 2419 1625 
L 2419 4116 
z
M 2253 4666 
L 3047 4666 
L 3047 1625 
L 3713 1625 
L 3713 1100 
L 3047 1100 
L 3047 0 
L 2419 0 
L 2419 1100 
L 313 1100 
L 313 1709 
L 2253 4666 
z
" transform="scale(0.015625)"/>
      </defs>
      <use xlink:href="#DejaVuSans-32"/>
      <use xlink:href="#DejaVuSans-34" x="63.623047"/>
      <use xlink:href="#DejaVuSans-30" x="127.246094"/>
     </g>
    </g>
   </g>
   <g id="xtick_3">
    <g id="line2d_4">
     <path d="M 490.867226 501.454472 
L 499.260753 503.124894 
" style="fill: none; stroke: #000000; stroke-width: 0.8; stroke-linecap: square"/>
    </g>
    <g id="text_3">
     <!-- 320 -->
     <g transform="translate(487.145866 519.182419) scale(0.14 -0.14)">
      <defs>
       <path id="DejaVuSans-33" d="M 2597 2516 
Q 3050 2419 3304 2112 
Q 3559 1806 3559 1356 
Q 3559 666 3084 287 
Q 2609 -91 1734 -91 
Q 1441 -91 1130 -33 
Q 819 25 488 141 
L 488 750 
Q 750 597 1062 519 
Q 1375 441 1716 441 
Q 2309 441 2620 675 
Q 2931 909 2931 1356 
Q 2931 1769 2642 2001 
Q 2353 2234 1838 2234 
L 1294 2234 
L 1294 2753 
L 1863 2753 
Q 2328 2753 2575 2939 
Q 2822 3125 2822 3475 
Q 2822 3834 2567 4026 
Q 2313 4219 1838 4219 
Q 1578 4219 1281 4162 
Q 984 4106 628 3988 
L 628 4550 
Q 988 4650 1302 4700 
Q 1616 4750 1894 4750 
Q 2613 4750 3031 4423 
Q 3450 4097 3450 3541 
Q 3450 3153 3228 2886 
Q 3006 2619 2597 2516 
z
" transform="scale(0.015625)"/>
      </defs>
      <use xlink:href="#DejaVuSans-33"/>
      <use xlink:href="#DejaVuSans-32" x="63.623047"/>
      <use xlink:href="#DejaVuSans-30" x="127.246094"/>
     </g>
    </g>
   </g>
   <g id="xtick_4">
    <g id="line2d_5">
     <path d="M 510.311251 482.917655 
L 518.617272 484.544536 
" style="fill: none; stroke: #000000; stroke-width: 0.8; stroke-linecap: square"/>
    </g>
    <g id="text_4">
     <!-- 400 -->
     <g transform="translate(506.476984 500.539637) scale(0.14 -0.14)">
      <use xlink:href="#DejaVuSans-34"/>
      <use xlink:href="#DejaVuSans-30" x="63.623047"/>
      <use xlink:href="#DejaVuSans-30" x="127.246094"/>
     </g>
    </g>
   </g>
   <g id="xtick_5">
    <g id="line2d_6">
     <path d="M 529.252002 464.86063 
L 537.472204 466.445652 
" style="fill: none; stroke: #000000; stroke-width: 0.8; stroke-linecap: square"/>
    </g>
    <g id="text_5">
     <!-- 480 -->
     <g transform="translate(525.307405 482.379723) scale(0.14 -0.14)">
      <defs>
       <path id="DejaVuSans-38" d="M 2034 2216 
Q 1584 2216 1326 1975 
Q 1069 1734 1069 1313 
Q 1069 891 1326 650 
Q 1584 409 2034 409 
Q 2484 409 2743 651 
Q 3003 894 3003 1313 
Q 3003 1734 2745 1975 
Q 2488 2216 2034 2216 
z
M 1403 2484 
Q 997 2584 770 2862 
Q 544 3141 544 3541 
Q 544 4100 942 4425 
Q 1341 4750 2034 4750 
Q 2731 4750 3128 4425 
Q 3525 4100 3525 3541 
Q 3525 3141 3298 2862 
Q 3072 2584 2669 2484 
Q 3125 2378 3379 2068 
Q 3634 1759 3634 1313 
Q 3634 634 3220 271 
Q 2806 -91 2034 -91 
Q 1263 -91 848 271 
Q 434 634 434 1313 
Q 434 1759 690 2068 
Q 947 2378 1403 2484 
z
M 1172 3481 
Q 1172 3119 1398 2916 
Q 1625 2713 2034 2713 
Q 2441 2713 2670 2916 
Q 2900 3119 2900 3481 
Q 2900 3844 2670 4047 
Q 2441 4250 2034 4250 
Q 1625 4250 1398 4047 
Q 1172 3844 1172 3481 
z
" transform="scale(0.015625)"/>
      </defs>
      <use xlink:href="#DejaVuSans-34"/>
      <use xlink:href="#DejaVuSans-38" x="63.623047"/>
      <use xlink:href="#DejaVuSans-30" x="127.246094"/>
     </g>
    </g>
   </g>
   <g id="xtick_6">
    <g id="line2d_7">
     <path d="M 547.708769 447.265009 
L 555.844798 448.809765 
" style="fill: none; stroke: #000000; stroke-width: 0.8; stroke-linecap: square"/>
    </g>
    <g id="text_6">
     <!-- 560 -->
     <g transform="translate(543.656334 464.684157) scale(0.14 -0.14)">
      <defs>
       <path id="DejaVuSans-35" d="M 691 4666 
L 3169 4666 
L 3169 4134 
L 1269 4134 
L 1269 2991 
Q 1406 3038 1543 3061 
Q 1681 3084 1819 3084 
Q 2600 3084 3056 2656 
Q 3513 2228 3513 1497 
Q 3513 744 3044 326 
Q 2575 -91 1722 -91 
Q 1428 -91 1123 -41 
Q 819 9 494 109 
L 494 744 
Q 775 591 1075 516 
Q 1375 441 1709 441 
Q 2250 441 2565 725 
Q 2881 1009 2881 1497 
Q 2881 1984 2565 2268 
Q 2250 2553 1709 2553 
Q 1456 2553 1204 2497 
Q 953 2441 691 2322 
L 691 4666 
z
" transform="scale(0.015625)"/>
      </defs>
      <use xlink:href="#DejaVuSans-35"/>
      <use xlink:href="#DejaVuSans-36" x="63.623047"/>
      <use xlink:href="#DejaVuSans-30" x="127.246094"/>
     </g>
    </g>
   </g>
   <g id="xtick_7">
    <g id="line2d_8">
     <path d="M 565.699868 430.113329 
L 573.753328 431.619334 
" style="fill: none; stroke: #000000; stroke-width: 0.8; stroke-linecap: square"/>
    </g>
    <g id="text_7">
     <!-- 640 -->
     <g transform="translate(561.542004 447.435354) scale(0.14 -0.14)">
      <use xlink:href="#DejaVuSans-36"/>
      <use xlink:href="#DejaVuSans-34" x="63.623047"/>
      <use xlink:href="#DejaVuSans-30" x="127.246094"/>
     </g>
    </g>
   </g>
   <g id="text_8">
    <!-- X (m) -->
    <g transform="translate(523.56347 531.21594) rotate(-43.696953) scale(0.18 -0.18)">
     <defs>
      <path id="TimesNewRomanPSMT-58" d="M 2613 2347 
L 3522 991 
Q 3900 428 4083 279 
Q 4266 131 4547 116 
L 4547 0 
L 2728 0 
L 2728 116 
Q 2909 119 2997 153 
Q 3063 181 3105 239 
Q 3147 297 3147 356 
Q 3147 428 3119 500 
Q 3097 553 2947 775 
L 2228 1863 
L 1341 725 
Q 1200 544 1172 483 
Q 1144 422 1144 356 
Q 1144 256 1228 190 
Q 1313 125 1550 116 
L 1550 0 
L 47 0 
L 47 116 
Q 206 131 322 181 
Q 516 263 691 400 
Q 866 538 1091 822 
L 2091 2084 
L 1256 3306 
Q 916 3803 678 3958 
Q 441 4113 131 4122 
L 131 4238 
L 2091 4238 
L 2091 4122 
Q 1841 4113 1748 4041 
Q 1656 3969 1656 3881 
Q 1656 3766 1806 3544 
L 2456 2572 
L 3209 3525 
Q 3341 3694 3370 3756 
Q 3400 3819 3400 3884 
Q 3400 3950 3363 4000 
Q 3316 4066 3244 4092 
Q 3172 4119 2947 4122 
L 2947 4238 
L 4450 4238 
L 4450 4122 
Q 4272 4113 4159 4066 
Q 3991 3994 3850 3872 
Q 3709 3750 3453 3422 
L 2613 2347 
z
" transform="scale(0.015625)"/>
      <path id="TimesNewRomanPSMT-20" transform="scale(0.015625)"/>
      <path id="TimesNewRomanPSMT-28" d="M 1988 -1253 
L 1988 -1369 
Q 1516 -1131 1200 -813 
Q 750 -359 506 256 
Q 263 872 263 1534 
Q 263 2503 741 3301 
Q 1219 4100 1988 4444 
L 1988 4313 
Q 1603 4100 1356 3731 
Q 1109 3363 987 2797 
Q 866 2231 866 1616 
Q 866 947 969 400 
Q 1050 -31 1165 -292 
Q 1281 -553 1476 -793 
Q 1672 -1034 1988 -1253 
z
" transform="scale(0.015625)"/>
      <path id="TimesNewRomanPSMT-6d" d="M 1050 2338 
Q 1363 2650 1419 2697 
Q 1559 2816 1721 2881 
Q 1884 2947 2044 2947 
Q 2313 2947 2506 2790 
Q 2700 2634 2766 2338 
Q 3088 2713 3309 2830 
Q 3531 2947 3766 2947 
Q 3994 2947 4170 2830 
Q 4347 2713 4450 2447 
Q 4519 2266 4519 1878 
L 4519 647 
Q 4519 378 4559 278 
Q 4591 209 4675 161 
Q 4759 113 4950 113 
L 4950 0 
L 3538 0 
L 3538 113 
L 3597 113 
Q 3781 113 3884 184 
Q 3956 234 3988 344 
Q 4000 397 4000 647 
L 4000 1878 
Q 4000 2228 3916 2372 
Q 3794 2572 3525 2572 
Q 3359 2572 3192 2489 
Q 3025 2406 2788 2181 
L 2781 2147 
L 2788 2013 
L 2788 647 
Q 2788 353 2820 281 
Q 2853 209 2943 161 
Q 3034 113 3253 113 
L 3253 0 
L 1806 0 
L 1806 113 
Q 2044 113 2133 169 
Q 2222 225 2256 338 
Q 2272 391 2272 647 
L 2272 1878 
Q 2272 2228 2169 2381 
Q 2031 2581 1784 2581 
Q 1616 2581 1450 2491 
Q 1191 2353 1050 2181 
L 1050 647 
Q 1050 366 1089 281 
Q 1128 197 1204 155 
Q 1281 113 1516 113 
L 1516 0 
L 100 0 
L 100 113 
Q 297 113 375 155 
Q 453 197 493 289 
Q 534 381 534 647 
L 534 1741 
Q 534 2213 506 2350 
Q 484 2453 437 2492 
Q 391 2531 309 2531 
Q 222 2531 100 2484 
L 53 2597 
L 916 2947 
L 1050 2947 
L 1050 2338 
z
" transform="scale(0.015625)"/>
      <path id="TimesNewRomanPSMT-29" d="M 144 4313 
L 144 4444 
Q 619 4209 934 3891 
Q 1381 3434 1625 2820 
Q 1869 2206 1869 1541 
Q 1869 572 1392 -226 
Q 916 -1025 144 -1369 
L 144 -1253 
Q 528 -1038 776 -670 
Q 1025 -303 1145 264 
Q 1266 831 1266 1447 
Q 1266 2113 1163 2663 
Q 1084 3094 967 3353 
Q 850 3613 656 3853 
Q 463 4094 144 4313 
z
" transform="scale(0.015625)"/>
     </defs>
     <use xlink:href="#TimesNewRomanPSMT-58"/>
     <use xlink:href="#TimesNewRomanPSMT-20" x="72.216797"/>
     <use xlink:href="#TimesNewRomanPSMT-28" x="97.216797"/>
     <use xlink:href="#TimesNewRomanPSMT-6d" x="130.517578"/>
     <use xlink:href="#TimesNewRomanPSMT-29" x="208.300781"/>
    </g>
   </g>
  </g>
  <g id="axis3d_2">
   <g id="line2d_9">
    <path d="M 88.29439 489.346331 
L 431.737747 561.181469 
" style="fill: none; stroke: #000000; stroke-width: 0.8; stroke-linecap: square"/>
   </g>
   <g id="xtick_8">
    <g id="line2d_10">
     <path d="M 398.738034 552.768813 
L 394.754263 556.474356 
" style="fill: none; stroke: #000000; stroke-width: 0.8; stroke-linecap: square"/>
    </g>
    <g id="text_9">
     <!-- −220 -->
     <g transform="translate(371.778121 580.720762) scale(0.14 -0.14)">
      <defs>
       <path id="DejaVuSans-2212" d="M 678 2272 
L 4684 2272 
L 4684 1741 
L 678 1741 
L 678 2272 
z
" transform="scale(0.015625)"/>
      </defs>
      <use xlink:href="#DejaVuSans-2212"/>
      <use xlink:href="#DejaVuSans-32" x="83.789062"/>
      <use xlink:href="#DejaVuSans-32" x="147.412109"/>
      <use xlink:href="#DejaVuSans-30" x="211.035156"/>
     </g>
    </g>
   </g>
   <g id="xtick_9">
    <g id="line2d_11">
     <path d="M 346.482863 541.850298 
L 342.397679 545.500747 
" style="fill: none; stroke: #000000; stroke-width: 0.8; stroke-linecap: square"/>
    </g>
    <g id="text_10">
     <!-- −140 -->
     <g transform="translate(319.39729 569.634424) scale(0.14 -0.14)">
      <use xlink:href="#DejaVuSans-2212"/>
      <use xlink:href="#DejaVuSans-31" x="83.789062"/>
      <use xlink:href="#DejaVuSans-34" x="147.412109"/>
      <use xlink:href="#DejaVuSans-30" x="211.035156"/>
     </g>
    </g>
   </g>
   <g id="xtick_10">
    <g id="line2d_12">
     <path d="M 295.000774 531.093314 
L 290.817608 534.689891 
" style="fill: none; stroke: #000000; stroke-width: 0.8; stroke-linecap: square"/>
    </g>
    <g id="text_11">
     <!-- −60 -->
     <g transform="translate(272.24785 558.712672) scale(0.14 -0.14)">
      <use xlink:href="#DejaVuSans-2212"/>
      <use xlink:href="#DejaVuSans-36" x="83.789062"/>
      <use xlink:href="#DejaVuSans-30" x="147.412109"/>
     </g>
    </g>
   </g>
   <g id="xtick_11">
    <g id="line2d_13">
     <path d="M 244.274736 520.494305 
L 239.996901 524.038193 
" style="fill: none; stroke: #000000; stroke-width: 0.8; stroke-linecap: square"/>
    </g>
    <g id="text_12">
     <!-- 20 -->
     <g transform="translate(227.270895 547.951869) scale(0.14 -0.14)">
      <use xlink:href="#DejaVuSans-32"/>
      <use xlink:href="#DejaVuSans-30" x="63.623047"/>
     </g>
    </g>
   </g>
   <g id="xtick_12">
    <g id="line2d_14">
     <path d="M 194.288217 510.049816 
L 189.918912 513.542163 
" style="fill: none; stroke: #000000; stroke-width: 0.8; stroke-linecap: square"/>
    </g>
    <g id="text_13">
     <!-- 100 -->
     <g transform="translate(172.718173 537.348483) scale(0.14 -0.14)">
      <use xlink:href="#DejaVuSans-31"/>
      <use xlink:href="#DejaVuSans-30" x="63.623047"/>
      <use xlink:href="#DejaVuSans-30" x="127.246094"/>
     </g>
    </g>
   </g>
   <g id="xtick_13">
    <g id="line2d_15">
     <path d="M 145.025162 499.756491 
L 140.567477 503.198415 
" style="fill: none; stroke: #000000; stroke-width: 0.8; stroke-linecap: square"/>
    </g>
    <g id="text_14">
     <!-- 180 -->
     <g transform="translate(123.346765 526.899086) scale(0.14 -0.14)">
      <use xlink:href="#DejaVuSans-31"/>
      <use xlink:href="#DejaVuSans-38" x="63.623047"/>
      <use xlink:href="#DejaVuSans-30" x="127.246094"/>
     </g>
    </g>
   </g>
   <g id="xtick_14">
    <g id="line2d_16">
     <path d="M 96.469977 489.611073 
L 91.926899 493.003658 
" style="fill: none; stroke: #000000; stroke-width: 0.8; stroke-linecap: square"/>
    </g>
    <g id="text_15">
     <!-- 260 -->
     <g transform="translate(74.687185 516.600345) scale(0.14 -0.14)">
      <use xlink:href="#DejaVuSans-32"/>
      <use xlink:href="#DejaVuSans-36" x="63.623047"/>
      <use xlink:href="#DejaVuSans-30" x="127.246094"/>
     </g>
    </g>
   </g>
   <g id="text_16">
    <!-- Y (m) -->
    <g transform="translate(215.877658 566.666294) rotate(-348.18624) scale(0.18 -0.18)">
     <defs>
      <path id="TimesNewRomanPSMT-59" d="M 3050 4238 
L 4528 4238 
L 4528 4122 
L 4447 4122 
Q 4366 4122 4209 4050 
Q 4053 3978 3925 3843 
Q 3797 3709 3609 3406 
L 2588 1797 
L 2588 734 
Q 2588 344 2675 247 
Q 2794 116 3050 116 
L 3188 116 
L 3188 0 
L 1388 0 
L 1388 116 
L 1538 116 
Q 1806 116 1919 278 
Q 1988 378 1988 734 
L 1988 1738 
L 825 3513 
Q 619 3825 545 3903 
Q 472 3981 241 4091 
Q 178 4122 59 4122 
L 59 4238 
L 1872 4238 
L 1872 4122 
L 1778 4122 
Q 1631 4122 1507 4053 
Q 1384 3984 1384 3847 
Q 1384 3734 1575 3441 
L 2459 2075 
L 3291 3381 
Q 3478 3675 3478 3819 
Q 3478 3906 3433 3975 
Q 3388 4044 3303 4083 
Q 3219 4122 3050 4122 
L 3050 4238 
z
" transform="scale(0.015625)"/>
     </defs>
     <use xlink:href="#TimesNewRomanPSMT-59"/>
     <use xlink:href="#TimesNewRomanPSMT-20" x="68.466797"/>
     <use xlink:href="#TimesNewRomanPSMT-28" x="93.466797"/>
     <use xlink:href="#TimesNewRomanPSMT-6d" x="126.767578"/>
     <use xlink:href="#TimesNewRomanPSMT-29" x="204.550781"/>
    </g>
   </g>
  </g>
  <g id="axis3d_3">
   <g id="line2d_17">
    <path d="M 88.29439 489.346331 
L 79.677962 223.178892 
" style="fill: none; stroke: #000000; stroke-width: 0.8; stroke-linecap: square"/>
   </g>
   <g id="xtick_15">
    <g id="line2d_18">
     <path d="M 88.422138 445.076256 
L 83.838768 448.376058 
" style="fill: none; stroke: #000000; stroke-width: 0.8; stroke-linecap: square"/>
    </g>
    <g id="text_17">
     <!-- −140 -->
     <g transform="translate(40.088617 460.571969) scale(0.14 -0.14)">
      <use xlink:href="#DejaVuSans-2212"/>
      <use xlink:href="#DejaVuSans-31" x="83.789062"/>
      <use xlink:href="#DejaVuSans-34" x="147.412109"/>
      <use xlink:href="#DejaVuSans-30" x="211.035156"/>
     </g>
    </g>
   </g>
   <g id="xtick_16">
    <g id="line2d_19">
     <path d="M 87.183295 406.570067 
L 82.574269 409.792093 
" style="fill: none; stroke: #000000; stroke-width: 0.8; stroke-linecap: square"/>
    </g>
    <g id="text_18">
     <!-- −60 -->
     <g transform="translate(43.155189 421.951308) scale(0.14 -0.14)">
      <use xlink:href="#DejaVuSans-2212"/>
      <use xlink:href="#DejaVuSans-36" x="83.789062"/>
      <use xlink:href="#DejaVuSans-30" x="147.412109"/>
     </g>
    </g>
   </g>
   <g id="xtick_17">
    <g id="line2d_20">
     <path d="M 85.932189 367.682673 
L 81.297221 370.825218 
" style="fill: none; stroke: #000000; stroke-width: 0.8; stroke-linecap: square"/>
    </g>
    <g id="text_19">
     <!-- 20 -->
     <g transform="translate(47.62001 382.946928) scale(0.14 -0.14)">
      <use xlink:href="#DejaVuSans-32"/>
      <use xlink:href="#DejaVuSans-30" x="63.623047"/>
     </g>
    </g>
   </g>
   <g id="xtick_18">
    <g id="line2d_21">
     <path d="M 84.668635 328.408388 
L 80.007436 331.469702 
" style="fill: none; stroke: #000000; stroke-width: 0.8; stroke-linecap: square"/>
    </g>
    <g id="text_20">
     <!-- 100 -->
     <g transform="translate(41.751311 343.553082) scale(0.14 -0.14)">
      <use xlink:href="#DejaVuSans-31"/>
      <use xlink:href="#DejaVuSans-30" x="63.623047"/>
      <use xlink:href="#DejaVuSans-30" x="127.246094"/>
     </g>
    </g>
   </g>
   <g id="xtick_19">
    <g id="line2d_22">
     <path d="M 83.392447 288.741407 
L 78.704722 291.719704 
" style="fill: none; stroke: #000000; stroke-width: 0.8; stroke-linecap: square"/>
    </g>
    <g id="text_21">
     <!-- 180 -->
     <g transform="translate(40.322163 303.763907) scale(0.14 -0.14)">
      <use xlink:href="#DejaVuSans-31"/>
      <use xlink:href="#DejaVuSans-38" x="63.623047"/>
      <use xlink:href="#DejaVuSans-30" x="127.246094"/>
     </g>
    </g>
   </g>
   <g id="xtick_20">
    <g id="line2d_23">
     <path d="M 82.103434 248.675812 
L 77.388885 251.569261 
" style="fill: none; stroke: #000000; stroke-width: 0.8; stroke-linecap: square"/>
    </g>
    <g id="text_22">
     <!-- 260 -->
     <g transform="translate(38.8786 263.573424) scale(0.14 -0.14)">
      <use xlink:href="#DejaVuSans-32"/>
      <use xlink:href="#DejaVuSans-36" x="63.623047"/>
      <use xlink:href="#DejaVuSans-30" x="127.246094"/>
     </g>
    </g>
   </g>
   <g id="text_23">
    <!-- Z (m) -->
    <g transform="translate(19.592331 345.494488) rotate(-271.854143) scale(0.18 -0.18)">
     <defs>
      <path id="TimesNewRomanPSMT-5a" d="M 3681 4238 
L 897 256 
L 2634 256 
Q 3034 256 3248 431 
Q 3463 606 3628 1141 
L 3731 1122 
L 3531 0 
L 81 0 
L 81 116 
L 2800 3984 
L 1444 3984 
Q 1106 3984 954 3911 
Q 803 3838 723 3698 
Q 644 3559 578 3178 
L 459 3178 
L 547 4238 
L 3681 4238 
z
" transform="scale(0.015625)"/>
     </defs>
     <use xlink:href="#TimesNewRomanPSMT-5a"/>
     <use xlink:href="#TimesNewRomanPSMT-20" x="61.083984"/>
     <use xlink:href="#TimesNewRomanPSMT-28" x="86.083984"/>
     <use xlink:href="#TimesNewRomanPSMT-6d" x="119.384766"/>
     <use xlink:href="#TimesNewRomanPSMT-29" x="197.167969"/>
    </g>
   </g>
  </g>
  <g id="axes_1">
   <g id="line2d_24">
    <defs>
     <path id="m0bef2aa2c1" d="M 0 -3 
L -0.673542 -0.927051 
L -2.85317 -0.927051 
L -1.089814 0.354102 
L -1.763356 2.427051 
L -0 1.145898 
L 1.763356 2.427051 
L 1.089814 0.354102 
L 2.85317 -0.927051 
L 0.673542 -0.927051 
z
" style="stroke: #ff0000; stroke-linejoin: bevel"/>
    </defs>
    <g clip-path="url(#p2ad8336e40)">
     <use xlink:href="#m0bef2aa2c1" x="230.869698" y="429.148797" style="fill: #ff0000; stroke: #ff0000; stroke-linejoin: bevel"/>
    </g>
   </g>
   <g id="line2d_25">
    <path d="M 230.869698 429.148797 
L 230.870044 429.148816 
L 235.192523 425.594362 
L 250.422601 412.781043 
L 251.957037 411.694947 
L 253.613995 410.795974 
L 255.483863 410.090081 
L 256.899593 409.712128 
L 258.554735 409.433709 
L 260.416721 409.209065 
L 262.479847 409.121748 
L 264.719671 409.202176 
L 268.474608 409.661247 
L 278.270366 411.316466 
L 287.540424 412.912832 
L 362.929945 424.491877 
L 374.196433 425.965156 
L 377.447944 426.324329 
L 381.585942 426.685774 
L 388.246975 426.940433 
L 393.186455 426.828376 
L 397.963425 426.436451 
L 401.795622 425.925868 
L 406.346248 425.11244 
L 410.883713 424.145117 
L 437.047477 418.025088 
L 457.431071 413.151071 
L 477.28374 408.468041 
L 509.71607 400.585301 
L 529.042817 395.955418 
L 535.321336 394.470089 
L 537.704398 393.672428 
L 539.341361 392.810787 
L 540.37023 391.90789 
L 540.762733 391.270477 
L 540.888949 390.586553 
L 540.74004 389.823975 
L 540.283157 389.040876 
L 539.520671 388.25114 
L 537.767247 387.034637 
L 534.619828 385.311326 
L 527.431168 381.653114 
L 518.591774 377.227774 
L 507.399978 371.102313 
L 497.070083 365.4346 
L 485.789128 359.26458 
L 476.163957 354.073381 
L 419.40887 321.911335 
L 406.002127 313.874028 
L 388.651073 303.696903 
L 373.908003 294.825371 
L 357.045279 285.06457 
L 337.737186 273.578212 
L 326.663587 267.032172 
L 325.485676 266.312523 
L 315.162751 260.059262 
L 313.258779 258.910587 
L 300.94457 251.397846 
L 291.478759 245.652221 
L 265.752669 230.165849 
L 261.732633 227.781057 
L 258.868123 226.668064 
L 257.297615 226.310505 
L 255.655432 226.07776 
L 253.938518 226.006972 
L 252.183819 226.086907 
L 249.55431 226.474239 
L 242.146834 227.985406 
L 224.78666 231.623692 
L 219.796222 232.622903 
L 218.061019 233.11105 
L 216.590922 233.708363 
L 215.582765 234.401137 
L 215.137674 235.141873 
L 215.145677 235.50209 
L 215.289235 235.849154 
L 215.956289 236.56985 
L 217.647776 237.707073 
L 236.593248 249.278082 
L 241.49959 252.711447 
L 245.629316 255.955931 
L 253.170023 262.341351 
L 262.332897 270.203457 
L 269.124443 275.695791 
L 271.646609 277.592777 
L 276.470095 280.973749 
L 282.590789 284.964955 
L 290.003816 289.345458 
L 292.061223 290.310184 
L 294.348893 291.175896 
L 297.539192 292.105058 
L 300.299163 292.6901 
L 303.172202 293.101712 
L 306.027281 293.311431 
L 309.414886 293.309379 
L 311.851755 293.137155 
L 317.167997 292.425834 
L 325.00652 291.270222 
L 326.580138 291.235655 
L 328.04215 291.346798 
L 329.337925 291.623318 
L 330.56302 292.073365 
L 332.325399 293.06161 
L 341.301315 298.449795 
L 343.720147 299.917462 
L 345.099771 301.028895 
L 346.036898 302.115469 
L 346.575079 303.217673 
L 346.86476 305.002062 
L 348.121882 314.087846 
L 348.488766 315.268167 
L 348.939034 316.030507 
L 349.626774 316.756449 
L 351.062421 317.867751 
L 356.681545 321.261169 
L 366.958439 327.218136 
L 368.060449 328.048186 
L 368.537473 328.645588 
L 368.640332 328.993006 
L 368.595827 329.297826 
L 368.406595 329.572413 
L 368.068769 329.826371 
L 366.895084 330.271292 
L 365.027798 330.69254 
L 322.05309 338.536758 
L 315.07754 339.721669 
L 266.505401 350.56863 
L 263.863389 351.199249 
L 255.813197 353.102645 
L 235.905255 357.947056 
L 217.342267 362.395392 
L 208.015492 364.588698 
L 201.373802 366.127681 
L 184.543949 370.054719 
L 181.306545 371.012974 
L 178.591291 372.06933 
L 177.0635 372.834934 
L 175.781992 373.702057 
L 173.639968 375.536343 
L 165.884258 382.306388 
L 164.44625 383.623514 
L 163.766626 384.489968 
L 163.456406 385.348092 
L 163.531399 386.229144 
L 163.991434 387.043723 
L 164.85972 387.799792 
L 166.156107 388.512476 
L 167.828249 389.148327 
L 170.785443 389.965613 
L 177.168905 391.378416 
L 218.256749 399.969651 
L 238.216611 404.32672 
L 240.281189 405.060494 
L 241.581119 405.667642 
L 242.936356 406.520427 
L 243.71275 407.25611 
L 244.232891 408.037636 
L 244.459644 408.835541 
L 244.404803 409.609021 
L 244.143046 410.385951 
L 243.555059 411.376764 
L 242.927132 412.184524 
L 241.552919 413.583046 
L 237.503921 417.300688 
L 233.11673 421.092324 
L 230.014471 423.429972 
L 227.13649 425.480019 
L 224.057011 427.972197 
L 223.053432 429.058681 
L 222.590391 429.826421 
L 222.605063 430.178456 
L 222.853396 430.576377 
L 223.232546 430.863673 
L 224.695128 431.363161 
L 226.256644 431.536784 
L 227.912838 431.40345 
L 229.186384 430.973353 
L 229.871445 430.473972 
L 235.155088 425.64728 
L 236.742529 424.266396 
L 236.742529 424.266396 
" clip-path="url(#p2ad8336e40)" style="fill: none; stroke-dasharray: 7.4,3.2; stroke-dashoffset: 0; stroke: #808a87; stroke-width: 2"/>
   </g>
   <g id="line2d_26">
    <path d="M 230.869698 429.148797 
L 233.790052 426.914595 
L 237.545242 423.987542 
L 252.10749 412.607856 
L 253.783064 411.785308 
L 255.666796 411.112927 
L 257.918777 410.603274 
L 260.688518 410.303036 
L 262.75975 410.235562 
L 266.25722 410.446529 
L 272.25458 411.309521 
L 296.289665 415.089164 
L 307.261133 416.725101 
L 327.459755 419.626217 
L 333.271899 420.372563 
L 335.718561 420.85817 
L 338.986418 421.306614 
L 352.786422 423.232298 
L 369.449179 425.344415 
L 381.615225 426.537606 
L 387.446014 426.759514 
L 393.203834 426.599962 
L 397.191071 426.262583 
L 402.541535 425.525931 
L 408.607716 424.380632 
L 413.927113 423.214418 
L 432.105257 419.064891 
L 487.768866 405.795051 
L 527.656167 395.723748 
L 534.118812 394.123852 
L 536.697012 393.333072 
L 538.025962 392.756378 
L 539.01797 392.18818 
L 540.028038 391.320652 
L 540.416769 390.708686 
L 540.529279 390.067597 
L 540.36068 389.360209 
L 539.890183 388.639336 
L 539.112562 387.917138 
L 537.996306 387.193449 
L 535.800132 386.057764 
L 527.341983 382.1922 
L 524.261302 380.853153 
L 515.268189 376.686507 
L 507.745559 372.914448 
L 500.612749 369.417097 
L 469.336931 353.419394 
L 451.723771 344.073937 
L 447.081744 341.55525 
L 440.02663 337.706877 
L 426.573706 330.545361 
L 389.929065 309.855236 
L 368.48342 297.397804 
L 363.052796 294.399817 
L 353.986207 289.268171 
L 338.97198 280.411504 
L 309.255476 263.174678 
L 306.064985 261.268296 
L 272.223923 241.296351 
L 265.407318 237.302113 
L 252.310702 229.466343 
L 249.353869 228.23318 
L 246.933326 227.687044 
L 245.234287 227.488659 
L 243.501356 227.456521 
L 241.746981 227.59311 
L 238.317004 228.1991 
L 208.873704 234.341081 
L 207.523258 234.916992 
L 206.676527 235.621011 
L 206.379186 236.357618 
L 206.466573 236.717724 
L 206.688657 237.094532 
L 207.524444 237.862111 
L 209.78925 239.291598 
L 217.76891 244.050247 
L 222.464427 246.814526 
L 229.949651 251.179522 
L 235.331753 254.73948 
L 239.927967 258.086761 
L 252.794412 268.024026 
L 257.189041 271.393573 
L 263.548203 276.077179 
L 269.391579 280.123047 
L 274.378116 283.295578 
L 284.322775 289.085607 
L 289.704578 291.935551 
L 292.519859 293.108477 
L 295.006731 293.934142 
L 297.723637 294.637079 
L 301.294531 295.296099 
L 304.901107 295.658069 
L 308.341243 295.685202 
L 310.224617 295.591256 
L 313.56379 295.172509 
L 318.437717 294.33883 
L 323.399214 293.45535 
L 325.740048 293.306251 
L 327.233331 293.387023 
L 328.568276 293.633604 
L 329.752119 294.004558 
L 331.730132 294.989854 
L 345.356574 302.542345 
L 346.740277 303.647869 
L 347.723669 304.774806 
L 348.160305 305.514665 
L 349.176231 308.521767 
L 351.693837 316.188604 
L 352.251068 317.39495 
L 353.128346 318.54811 
L 354.48982 319.63759 
L 358.088183 321.735835 
L 362.562633 324.033002 
L 370.733736 328.19573 
L 374.127053 330.087842 
L 374.703633 330.575702 
L 375.00891 330.93571 
L 375.154083 331.279546 
L 375.157384 331.583826 
L 375.00507 331.853615 
L 374.707956 332.114083 
L 373.590229 332.574538 
L 371.771141 333.022566 
L 352.468217 337.06736 
L 328.997916 341.948492 
L 325.179579 342.686482 
L 267.312806 356.960803 
L 253.013815 360.630873 
L 219.977934 368.810121 
L 214.284207 370.168128 
L 198.144056 374.151307 
L 195.500947 375.126017 
L 194.062283 375.810054 
L 192.847592 376.585477 
L 191.461311 377.834775 
L 183.039997 386.126311 
L 182.5795 386.916704 
L 182.491512 387.689449 
L 182.785956 388.497273 
L 183.45682 389.215964 
L 184.546389 389.881149 
L 186.031788 390.505753 
L 188.869805 391.290776 
L 193.211336 392.152066 
L 204.415943 394.008874 
L 220.427834 396.751304 
L 236.547672 399.486412 
L 260.586794 403.576409 
L 263.252138 404.300376 
L 264.822009 404.92236 
L 266.139754 405.581805 
L 267.165361 406.337315 
L 267.839129 407.125738 
L 268.127095 407.924865 
L 268.097719 408.721056 
L 267.85432 409.539537 
L 267.093619 410.788782 
L 265.993217 412.05169 
L 261.26772 417.008433 
L 258.743859 419.341163 
L 256.462748 421.183077 
L 253.445579 423.647936 
L 251.964741 425.055526 
L 251.202704 426.11755 
L 251.069496 426.46756 
L 251.094138 426.794889 
L 251.259869 427.091132 
L 252.090789 427.575238 
L 253.347164 427.909968 
L 254.756094 428.065845 
L 256.586105 427.948539 
L 257.741844 427.576531 
L 258.338234 427.128149 
L 263.564834 421.691174 
L 263.564834 421.691174 
" clip-path="url(#p2ad8336e40)" style="fill: none; stroke: #ff0000; stroke-width: 2; stroke-linecap: square"/>
   </g>
   <g id="line2d_27">
    <path d="M 230.865036 429.147734 
L 230.856636 429.145119 
L 231.099886 428.972314 
L 233.214444 427.381006 
L 236.148886 425.132642 
L 238.778945 423.131518 
L 244.750939 418.505102 
L 246.50285 417.137992 
L 249.819199 414.51652 
L 251.453729 413.399578 
L 254.076471 412.078912 
L 255.502678 411.595376 
L 257.923401 411.057579 
L 261.70407 410.708651 
L 265.046202 410.783752 
L 268.498012 411.180385 
L 278.298467 412.700119 
L 301.479007 416.163938 
L 313.490699 417.844006 
L 327.42826 419.813642 
L 334.854157 420.870428 
L 341.380266 421.813596 
L 361.323673 424.533222 
L 374.586738 426.119745 
L 377.437844 426.397167 
L 381.156662 426.715531 
L 389.895442 426.977346 
L 395.581955 426.704739 
L 400.248487 426.237689 
L 404.434805 425.605444 
L 411.632615 424.209891 
L 481.336924 408.990506 
L 536.846981 396.419992 
L 538.468561 395.757756 
L 539.599792 395.080935 
L 540.273398 394.466343 
L 540.635287 393.878052 
L 540.703039 393.152391 
L 540.426317 392.34699 
L 539.942735 391.71782 
L 539.079076 390.99097 
L 537.193739 389.867818 
L 534.592014 388.57231 
L 524.311512 383.852563 
L 517.858443 380.873572 
L 511.170017 377.472685 
L 505.789902 374.878796 
L 497.261837 370.619995 
L 489.395172 366.634994 
L 476.744741 360.528408 
L 443.578532 343.619196 
L 439.898904 341.762881 
L 422.929156 333.181928 
L 393.99853 317.919038 
L 388.007047 314.731366 
L 377.17248 308.938714 
L 362.958563 301.584461 
L 356.615943 298.32672 
L 340.820792 289.88598 
L 333.089405 285.960069 
L 328.126769 283.396457 
L 313.410882 275.645421 
L 309.586257 273.64835 
L 275.585402 255.782753 
L 269.001939 252.369569 
L 253.731108 244.432646 
L 250.344618 243.347615 
L 248.301533 243.048748 
L 245.94996 242.983906 
L 243.980162 243.135471 
L 240.979877 243.660568 
L 234.82786 244.968473 
L 222.539061 247.716668 
L 214.151929 249.39807 
L 211.295074 250.136078 
L 209.690024 250.781311 
L 208.852645 251.370568 
L 208.510909 251.810215 
L 208.392305 252.326997 
L 208.549284 252.735169 
L 209.11449 253.315126 
L 210.312267 254.076303 
L 220.154294 259.29732 
L 228.751252 263.703661 
L 231.298522 265.071312 
L 238.007067 269.119167 
L 242.365389 272.085419 
L 251.444921 278.532568 
L 260.752736 285.118627 
L 266.262278 288.829102 
L 273.954921 293.494019 
L 281.763253 297.790295 
L 290.273789 301.987419 
L 292.536633 302.81465 
L 295.331123 303.636408 
L 298.367038 304.30624 
L 301.595596 304.793089 
L 304.850949 305.052809 
L 308.61989 305.053338 
L 311.655338 304.814235 
L 315.08861 304.334069 
L 325.026759 302.778333 
L 326.917086 302.779619 
L 328.452171 302.988905 
L 330.039454 303.460896 
L 332.186817 304.458987 
L 333.66591 305.207073 
L 336.104533 306.415992 
L 341.864642 309.234813 
L 344.177482 310.382302 
L 346.072373 311.634235 
L 347.046971 312.547636 
L 347.588817 313.310743 
L 347.937639 314.216537 
L 348.410803 315.651796 
L 349.123091 317.949175 
L 350.502149 322.431891 
L 351.208026 324.084663 
L 351.699892 324.880209 
L 352.66088 325.815251 
L 354.465162 326.962809 
L 360.270284 329.844154 
L 372.53723 335.748748 
L 373.345828 336.362301 
L 373.703477 336.949724 
L 373.666279 337.277908 
L 373.431729 337.564392 
L 372.801662 337.913612 
L 371.525588 338.304326 
L 368.514094 338.942536 
L 331.367281 346.435429 
L 321.145621 348.438121 
L 315.878073 349.651463 
L 308.506865 351.404259 
L 296.602613 354.251606 
L 272.819176 360.26398 
L 255.287326 364.887505 
L 248.318831 366.732726 
L 224.365577 373.00671 
L 220.542246 373.981082 
L 205.862735 377.705413 
L 197.633528 379.82936 
L 193.83022 381.065049 
L 191.56916 382.051335 
L 190.227668 382.819719 
L 189.112586 383.675577 
L 186.506055 386.282354 
L 179.247723 393.802979 
L 178.983268 394.628121 
L 179.08411 395.349844 
L 179.463669 396.04871 
L 180.260677 396.765709 
L 181.288746 397.340731 
L 183.070383 398.014064 
L 185.225277 398.593064 
L 190.929628 399.676344 
L 206.474201 402.171399 
L 210.465852 402.869659 
L 222.295461 404.917123 
L 232.897343 406.708297 
L 255.554995 410.56592 
L 258.484229 411.330346 
L 260.11221 411.918107 
L 261.963085 412.855555 
L 263.046023 413.747022 
L 263.624144 414.574167 
L 263.817237 415.206581 
L 263.820425 415.830517 
L 263.616681 416.660465 
L 263.125045 417.626894 
L 261.817665 419.286377 
L 256.876486 424.518131 
L 254.492543 426.825824 
L 250.723587 429.93655 
L 248.644988 431.666774 
L 246.967275 433.25454 
L 246.233154 434.20099 
L 245.868908 434.919801 
L 245.896283 435.257806 
L 246.0848 435.565461 
L 246.671683 435.954287 
L 247.895794 436.317636 
L 249.469206 436.499463 
L 250.767094 436.447227 
L 251.880341 436.203571 
L 252.674607 435.825751 
L 253.376712 435.2806 
L 256.996072 431.409 
L 259.103553 429.293552 
L 259.103553 429.293552 
" clip-path="url(#p2ad8336e40)" style="fill: none; stroke: #0000ff; stroke-width: 2; stroke-linecap: square"/>
   </g>
   <g id="Path3DCollection_1">
    <defs>
     <path id="mab04634483" d="M 0 -5 
L -1.12257 -1.545085 
L -4.755283 -1.545085 
L -1.816356 0.59017 
L -2.938926 4.045085 
L -0 1.90983 
L 2.938926 4.045085 
L 1.816356 0.59017 
L 4.755283 -1.545085 
L 1.12257 -1.545085 
z
" style="stroke: #ff0000"/>
    </defs>
    <g clip-path="url(#p2ad8336e40)">
     <use xlink:href="#mab04634483" x="230.869698" y="429.148797" style="fill: #ff0000; stroke: #ff0000"/>
    </g>
   </g>
   <g id="legend_1">
    <g id="patch_6">
     <path d="M 74.2475 84.9621 
L 589.9525 84.9621 
Q 593.1525 84.9621 593.1525 81.7621 
L 593.1525 60.7396 
Q 593.1525 57.5396 589.9525 57.5396 
L 74.2475 57.5396 
Q 71.0475 57.5396 71.0475 60.7396 
L 71.0475 81.7621 
Q 71.0475 84.9621 74.2475 84.9621 
z
" style="fill: #ffffff; opacity: 0.8; stroke: #cccccc; stroke-linejoin: miter"/>
    </g>
    <g id="line2d_28">
     <g>
      <use xlink:href="#m0bef2aa2c1" x="93.4475" y="69.5396" style="fill: #ff0000; stroke: #ff0000; stroke-linejoin: bevel"/>
     </g>
    </g>
    <g id="text_24">
     <!-- Start -->
     <g transform="translate(122.2475 75.1396) scale(0.16 -0.16)">
      <defs>
       <path id="TimesNewRomanPSMT-53" d="M 2934 4334 
L 2934 2869 
L 2819 2869 
Q 2763 3291 2617 3541 
Q 2472 3791 2203 3937 
Q 1934 4084 1647 4084 
Q 1322 4084 1109 3886 
Q 897 3688 897 3434 
Q 897 3241 1031 3081 
Q 1225 2847 1953 2456 
Q 2547 2138 2764 1967 
Q 2981 1797 3098 1565 
Q 3216 1334 3216 1081 
Q 3216 600 2842 251 
Q 2469 -97 1881 -97 
Q 1697 -97 1534 -69 
Q 1438 -53 1133 45 
Q 828 144 747 144 
Q 669 144 623 97 
Q 578 50 556 -97 
L 441 -97 
L 441 1356 
L 556 1356 
Q 638 900 775 673 
Q 913 447 1195 297 
Q 1478 147 1816 147 
Q 2206 147 2432 353 
Q 2659 559 2659 841 
Q 2659 997 2573 1156 
Q 2488 1316 2306 1453 
Q 2184 1547 1640 1851 
Q 1097 2156 867 2337 
Q 638 2519 519 2737 
Q 400 2956 400 3219 
Q 400 3675 750 4004 
Q 1100 4334 1641 4334 
Q 1978 4334 2356 4169 
Q 2531 4091 2603 4091 
Q 2684 4091 2736 4139 
Q 2788 4188 2819 4334 
L 2934 4334 
z
" transform="scale(0.015625)"/>
       <path id="TimesNewRomanPSMT-74" d="M 1031 3803 
L 1031 2863 
L 1700 2863 
L 1700 2644 
L 1031 2644 
L 1031 788 
Q 1031 509 1111 412 
Q 1191 316 1316 316 
Q 1419 316 1516 380 
Q 1613 444 1666 569 
L 1788 569 
Q 1678 263 1478 108 
Q 1278 -47 1066 -47 
Q 922 -47 784 33 
Q 647 113 581 261 
Q 516 409 516 719 
L 516 2644 
L 63 2644 
L 63 2747 
Q 234 2816 414 2980 
Q 594 3144 734 3369 
Q 806 3488 934 3803 
L 1031 3803 
z
" transform="scale(0.015625)"/>
       <path id="TimesNewRomanPSMT-61" d="M 1822 413 
Q 1381 72 1269 19 
Q 1100 -59 909 -59 
Q 613 -59 420 144 
Q 228 347 228 678 
Q 228 888 322 1041 
Q 450 1253 767 1440 
Q 1084 1628 1822 1897 
L 1822 2009 
Q 1822 2438 1686 2597 
Q 1550 2756 1291 2756 
Q 1094 2756 978 2650 
Q 859 2544 859 2406 
L 866 2225 
Q 866 2081 792 2003 
Q 719 1925 600 1925 
Q 484 1925 411 2006 
Q 338 2088 338 2228 
Q 338 2497 613 2722 
Q 888 2947 1384 2947 
Q 1766 2947 2009 2819 
Q 2194 2722 2281 2516 
Q 2338 2381 2338 1966 
L 2338 994 
Q 2338 584 2353 492 
Q 2369 400 2405 369 
Q 2441 338 2488 338 
Q 2538 338 2575 359 
Q 2641 400 2828 588 
L 2828 413 
Q 2478 -56 2159 -56 
Q 2006 -56 1915 50 
Q 1825 156 1822 413 
z
M 1822 616 
L 1822 1706 
Q 1350 1519 1213 1441 
Q 966 1303 859 1153 
Q 753 1003 753 825 
Q 753 600 887 451 
Q 1022 303 1197 303 
Q 1434 303 1822 616 
z
" transform="scale(0.015625)"/>
       <path id="TimesNewRomanPSMT-72" d="M 1038 2947 
L 1038 2303 
Q 1397 2947 1775 2947 
Q 1947 2947 2059 2842 
Q 2172 2738 2172 2600 
Q 2172 2478 2090 2393 
Q 2009 2309 1897 2309 
Q 1788 2309 1652 2417 
Q 1516 2525 1450 2525 
Q 1394 2525 1328 2463 
Q 1188 2334 1038 2041 
L 1038 669 
Q 1038 431 1097 309 
Q 1138 225 1241 169 
Q 1344 113 1538 113 
L 1538 0 
L 72 0 
L 72 113 
Q 291 113 397 181 
Q 475 231 506 341 
Q 522 394 522 644 
L 522 1753 
Q 522 2253 501 2348 
Q 481 2444 426 2487 
Q 372 2531 291 2531 
Q 194 2531 72 2484 
L 41 2597 
L 906 2947 
L 1038 2947 
z
" transform="scale(0.015625)"/>
      </defs>
      <use xlink:href="#TimesNewRomanPSMT-53"/>
      <use xlink:href="#TimesNewRomanPSMT-74" x="55.615234"/>
      <use xlink:href="#TimesNewRomanPSMT-61" x="83.398438"/>
      <use xlink:href="#TimesNewRomanPSMT-72" x="127.783203"/>
      <use xlink:href="#TimesNewRomanPSMT-74" x="161.083984"/>
     </g>
    </g>
    <g id="line2d_29">
     <path d="M 184.465 69.5396 
L 200.465 69.5396 
L 216.465 69.5396 
" style="fill: none; stroke-dasharray: 7.4,3.2; stroke-dashoffset: 0; stroke: #808a87; stroke-width: 2"/>
    </g>
    <g id="text_25">
     <!-- GroundTruth -->
     <g transform="translate(229.265 75.1396) scale(0.16 -0.16)">
      <defs>
       <path id="TimesNewRomanPSMT-47" d="M 3928 4334 
L 4038 2997 
L 3928 2997 
Q 3763 3497 3500 3750 
Q 3122 4116 2528 4116 
Q 1719 4116 1297 3475 
Q 944 2934 944 2188 
Q 944 1581 1178 1081 
Q 1413 581 1792 348 
Q 2172 116 2572 116 
Q 2806 116 3025 175 
Q 3244 234 3447 350 
L 3447 1575 
Q 3447 1894 3398 1992 
Q 3350 2091 3248 2142 
Q 3147 2194 2891 2194 
L 2891 2313 
L 4531 2313 
L 4531 2194 
L 4453 2194 
Q 4209 2194 4119 2031 
Q 4056 1916 4056 1575 
L 4056 278 
Q 3697 84 3347 -6 
Q 2997 -97 2569 -97 
Q 1341 -97 703 691 
Q 225 1281 225 2053 
Q 225 2613 494 3125 
Q 813 3734 1369 4063 
Q 1834 4334 2469 4334 
Q 2700 4334 2889 4296 
Q 3078 4259 3425 4131 
Q 3600 4066 3659 4066 
Q 3719 4066 3761 4120 
Q 3803 4175 3813 4334 
L 3928 4334 
z
" transform="scale(0.015625)"/>
       <path id="TimesNewRomanPSMT-6f" d="M 1600 2947 
Q 2250 2947 2644 2453 
Q 2978 2031 2978 1484 
Q 2978 1100 2793 706 
Q 2609 313 2286 112 
Q 1963 -88 1566 -88 
Q 919 -88 538 428 
Q 216 863 216 1403 
Q 216 1797 411 2186 
Q 606 2575 925 2761 
Q 1244 2947 1600 2947 
z
M 1503 2744 
Q 1338 2744 1170 2645 
Q 1003 2547 900 2300 
Q 797 2053 797 1666 
Q 797 1041 1045 587 
Q 1294 134 1700 134 
Q 2003 134 2200 384 
Q 2397 634 2397 1244 
Q 2397 2006 2069 2444 
Q 1847 2744 1503 2744 
z
" transform="scale(0.015625)"/>
       <path id="TimesNewRomanPSMT-75" d="M 2709 2863 
L 2709 1128 
Q 2709 631 2732 520 
Q 2756 409 2807 365 
Q 2859 322 2928 322 
Q 3025 322 3147 375 
L 3191 266 
L 2334 -88 
L 2194 -88 
L 2194 519 
Q 1825 119 1631 15 
Q 1438 -88 1222 -88 
Q 981 -88 804 51 
Q 628 191 559 409 
Q 491 628 491 1028 
L 491 2306 
Q 491 2509 447 2587 
Q 403 2666 317 2708 
Q 231 2750 6 2747 
L 6 2863 
L 1009 2863 
L 1009 947 
Q 1009 547 1148 422 
Q 1288 297 1484 297 
Q 1619 297 1789 381 
Q 1959 466 2194 703 
L 2194 2325 
Q 2194 2569 2105 2655 
Q 2016 2741 1734 2747 
L 1734 2863 
L 2709 2863 
z
" transform="scale(0.015625)"/>
       <path id="TimesNewRomanPSMT-6e" d="M 1034 2341 
Q 1538 2947 1994 2947 
Q 2228 2947 2397 2830 
Q 2566 2713 2666 2444 
Q 2734 2256 2734 1869 
L 2734 647 
Q 2734 375 2778 278 
Q 2813 200 2889 156 
Q 2966 113 3172 113 
L 3172 0 
L 1756 0 
L 1756 113 
L 1816 113 
Q 2016 113 2095 173 
Q 2175 234 2206 353 
Q 2219 400 2219 647 
L 2219 1819 
Q 2219 2209 2117 2386 
Q 2016 2563 1775 2563 
Q 1403 2563 1034 2156 
L 1034 647 
Q 1034 356 1069 288 
Q 1113 197 1189 155 
Q 1266 113 1500 113 
L 1500 0 
L 84 0 
L 84 113 
L 147 113 
Q 366 113 442 223 
Q 519 334 519 647 
L 519 1709 
Q 519 2225 495 2337 
Q 472 2450 423 2490 
Q 375 2531 294 2531 
Q 206 2531 84 2484 
L 38 2597 
L 900 2947 
L 1034 2947 
L 1034 2341 
z
" transform="scale(0.015625)"/>
       <path id="TimesNewRomanPSMT-64" d="M 2222 322 
Q 2013 103 1813 7 
Q 1613 -88 1381 -88 
Q 913 -88 563 304 
Q 213 697 213 1313 
Q 213 1928 600 2439 
Q 988 2950 1597 2950 
Q 1975 2950 2222 2709 
L 2222 3238 
Q 2222 3728 2198 3840 
Q 2175 3953 2125 3993 
Q 2075 4034 2000 4034 
Q 1919 4034 1784 3984 
L 1744 4094 
L 2597 4444 
L 2738 4444 
L 2738 1134 
Q 2738 631 2761 520 
Q 2784 409 2836 365 
Q 2888 322 2956 322 
Q 3041 322 3181 375 
L 3216 266 
L 2366 -88 
L 2222 -88 
L 2222 322 
z
M 2222 541 
L 2222 2016 
Q 2203 2228 2109 2403 
Q 2016 2578 1861 2667 
Q 1706 2756 1559 2756 
Q 1284 2756 1069 2509 
Q 784 2184 784 1559 
Q 784 928 1059 592 
Q 1334 256 1672 256 
Q 1956 256 2222 541 
z
" transform="scale(0.015625)"/>
       <path id="TimesNewRomanPSMT-54" d="M 3703 4238 
L 3750 3244 
L 3631 3244 
Q 3597 3506 3538 3619 
Q 3441 3800 3280 3886 
Q 3119 3972 2856 3972 
L 2259 3972 
L 2259 734 
Q 2259 344 2344 247 
Q 2463 116 2709 116 
L 2856 116 
L 2856 0 
L 1059 0 
L 1059 116 
L 1209 116 
Q 1478 116 1591 278 
Q 1659 378 1659 734 
L 1659 3972 
L 1150 3972 
Q 853 3972 728 3928 
Q 566 3869 450 3700 
Q 334 3531 313 3244 
L 194 3244 
L 244 4238 
L 3703 4238 
z
" transform="scale(0.015625)"/>
       <path id="TimesNewRomanPSMT-68" d="M 1041 4444 
L 1041 2350 
Q 1388 2731 1591 2839 
Q 1794 2947 1997 2947 
Q 2241 2947 2416 2812 
Q 2591 2678 2675 2391 
Q 2734 2191 2734 1659 
L 2734 647 
Q 2734 375 2778 275 
Q 2809 200 2884 156 
Q 2959 113 3159 113 
L 3159 0 
L 1753 0 
L 1753 113 
L 1819 113 
Q 2019 113 2097 173 
Q 2175 234 2206 353 
Q 2216 403 2216 647 
L 2216 1659 
Q 2216 2128 2167 2275 
Q 2119 2422 2012 2495 
Q 1906 2569 1756 2569 
Q 1603 2569 1437 2487 
Q 1272 2406 1041 2159 
L 1041 647 
Q 1041 353 1073 281 
Q 1106 209 1195 161 
Q 1284 113 1503 113 
L 1503 0 
L 84 0 
L 84 113 
Q 275 113 384 172 
Q 447 203 484 290 
Q 522 378 522 647 
L 522 3238 
Q 522 3728 498 3840 
Q 475 3953 426 3993 
Q 378 4034 297 4034 
Q 231 4034 84 3984 
L 41 4094 
L 897 4444 
L 1041 4444 
z
" transform="scale(0.015625)"/>
      </defs>
      <use xlink:href="#TimesNewRomanPSMT-47"/>
      <use xlink:href="#TimesNewRomanPSMT-72" x="72.216797"/>
      <use xlink:href="#TimesNewRomanPSMT-6f" x="105.517578"/>
      <use xlink:href="#TimesNewRomanPSMT-75" x="155.517578"/>
      <use xlink:href="#TimesNewRomanPSMT-6e" x="205.517578"/>
      <use xlink:href="#TimesNewRomanPSMT-64" x="255.517578"/>
      <use xlink:href="#TimesNewRomanPSMT-54" x="305.517578"/>
      <use xlink:href="#TimesNewRomanPSMT-72" x="363.101562"/>
      <use xlink:href="#TimesNewRomanPSMT-75" x="396.402344"/>
      <use xlink:href="#TimesNewRomanPSMT-74" x="446.402344"/>
      <use xlink:href="#TimesNewRomanPSMT-68" x="474.185547"/>
     </g>
    </g>
    <g id="line2d_30">
     <path d="M 345.1325 69.5396 
L 361.1325 69.5396 
L 377.1325 69.5396 
" style="fill: none; stroke: #ff0000; stroke-width: 2; stroke-linecap: square"/>
    </g>
    <g id="text_26">
     <!-- ROLO -->
     <g transform="translate(389.9325 75.1396) scale(0.16 -0.16)">
      <defs>
       <path id="TimesNewRomanPSMT-52" d="M 4325 0 
L 3194 0 
L 1759 1981 
Q 1600 1975 1500 1975 
Q 1459 1975 1412 1976 
Q 1366 1978 1316 1981 
L 1316 750 
Q 1316 350 1403 253 
Q 1522 116 1759 116 
L 1925 116 
L 1925 0 
L 109 0 
L 109 116 
L 269 116 
Q 538 116 653 291 
Q 719 388 719 750 
L 719 3488 
Q 719 3888 631 3984 
Q 509 4122 269 4122 
L 109 4122 
L 109 4238 
L 1653 4238 
Q 2328 4238 2648 4139 
Q 2969 4041 3192 3777 
Q 3416 3513 3416 3147 
Q 3416 2756 3161 2468 
Q 2906 2181 2372 2063 
L 3247 847 
Q 3547 428 3762 290 
Q 3978 153 4325 116 
L 4325 0 
z
M 1316 2178 
Q 1375 2178 1419 2176 
Q 1463 2175 1491 2175 
Q 2097 2175 2405 2437 
Q 2713 2700 2713 3106 
Q 2713 3503 2464 3751 
Q 2216 4000 1806 4000 
Q 1625 4000 1316 3941 
L 1316 2178 
z
" transform="scale(0.015625)"/>
       <path id="TimesNewRomanPSMT-4f" d="M 2341 4334 
Q 3166 4334 3770 3707 
Q 4375 3081 4375 2144 
Q 4375 1178 3765 540 
Q 3156 -97 2291 -97 
Q 1416 -97 820 525 
Q 225 1147 225 2134 
Q 225 3144 913 3781 
Q 1509 4334 2341 4334 
z
M 2281 4106 
Q 1713 4106 1369 3684 
Q 941 3159 941 2147 
Q 941 1109 1384 550 
Q 1725 125 2284 125 
Q 2881 125 3270 590 
Q 3659 1056 3659 2059 
Q 3659 3147 3231 3681 
Q 2888 4106 2281 4106 
z
" transform="scale(0.015625)"/>
       <path id="TimesNewRomanPSMT-4c" d="M 3669 1172 
L 3772 1150 
L 3409 0 
L 128 0 
L 128 116 
L 288 116 
Q 556 116 672 291 
Q 738 391 738 753 
L 738 3488 
Q 738 3884 650 3984 
Q 528 4122 288 4122 
L 128 4122 
L 128 4238 
L 2047 4238 
L 2047 4122 
Q 1709 4125 1573 4059 
Q 1438 3994 1388 3894 
Q 1338 3794 1338 3416 
L 1338 753 
Q 1338 494 1388 397 
Q 1425 331 1503 300 
Q 1581 269 1991 269 
L 2300 269 
Q 2788 269 2984 341 
Q 3181 413 3343 595 
Q 3506 778 3669 1172 
z
" transform="scale(0.015625)"/>
      </defs>
      <use xlink:href="#TimesNewRomanPSMT-52"/>
      <use xlink:href="#TimesNewRomanPSMT-4f" x="66.699219"/>
      <use xlink:href="#TimesNewRomanPSMT-4c" x="138.916016"/>
      <use xlink:href="#TimesNewRomanPSMT-4f" x="200"/>
     </g>
    </g>
    <g id="line2d_31">
     <path d="M 465.4875 69.5396 
L 481.4875 69.5396 
L 497.4875 69.5396 
" style="fill: none; stroke: #0000ff; stroke-width: 2; stroke-linecap: square"/>
    </g>
    <g id="text_27">
     <!-- FAST-LIO2 -->
     <g transform="translate(510.2875 75.1396) scale(0.16 -0.16)">
      <defs>
       <path id="TimesNewRomanPSMT-46" d="M 1309 4006 
L 1309 2341 
L 2081 2341 
Q 2347 2341 2470 2458 
Q 2594 2575 2634 2922 
L 2750 2922 
L 2750 1488 
L 2634 1488 
Q 2631 1734 2570 1850 
Q 2509 1966 2401 2023 
Q 2294 2081 2081 2081 
L 1309 2081 
L 1309 750 
Q 1309 428 1350 325 
Q 1381 247 1481 191 
Q 1619 116 1769 116 
L 1922 116 
L 1922 0 
L 103 0 
L 103 116 
L 253 116 
Q 516 116 634 269 
Q 709 369 709 750 
L 709 3488 
Q 709 3809 669 3913 
Q 638 3991 541 4047 
Q 406 4122 253 4122 
L 103 4122 
L 103 4238 
L 3256 4238 
L 3297 3306 
L 3188 3306 
Q 3106 3603 2998 3742 
Q 2891 3881 2733 3943 
Q 2575 4006 2244 4006 
L 1309 4006 
z
" transform="scale(0.015625)"/>
       <path id="TimesNewRomanPSMT-41" d="M 2928 1419 
L 1288 1419 
L 1000 750 
Q 894 503 894 381 
Q 894 284 986 211 
Q 1078 138 1384 116 
L 1384 0 
L 50 0 
L 50 116 
Q 316 163 394 238 
Q 553 388 747 847 
L 2238 4334 
L 2347 4334 
L 3822 809 
Q 4000 384 4145 257 
Q 4291 131 4550 116 
L 4550 0 
L 2878 0 
L 2878 116 
Q 3131 128 3220 200 
Q 3309 272 3309 375 
Q 3309 513 3184 809 
L 2928 1419 
z
M 2841 1650 
L 2122 3363 
L 1384 1650 
L 2841 1650 
z
" transform="scale(0.015625)"/>
       <path id="TimesNewRomanPSMT-2d" d="M 259 1672 
L 1875 1672 
L 1875 1200 
L 259 1200 
L 259 1672 
z
" transform="scale(0.015625)"/>
       <path id="TimesNewRomanPSMT-49" d="M 1975 116 
L 1975 0 
L 159 0 
L 159 116 
L 309 116 
Q 572 116 691 269 
Q 766 369 766 750 
L 766 3488 
Q 766 3809 725 3913 
Q 694 3991 597 4047 
Q 459 4122 309 4122 
L 159 4122 
L 159 4238 
L 1975 4238 
L 1975 4122 
L 1822 4122 
Q 1563 4122 1444 3969 
Q 1366 3869 1366 3488 
L 1366 750 
Q 1366 428 1406 325 
Q 1438 247 1538 191 
Q 1672 116 1822 116 
L 1975 116 
z
" transform="scale(0.015625)"/>
       <path id="TimesNewRomanPSMT-32" d="M 2934 816 
L 2638 0 
L 138 0 
L 138 116 
Q 1241 1122 1691 1759 
Q 2141 2397 2141 2925 
Q 2141 3328 1894 3587 
Q 1647 3847 1303 3847 
Q 991 3847 742 3664 
Q 494 3481 375 3128 
L 259 3128 
Q 338 3706 661 4015 
Q 984 4325 1469 4325 
Q 1984 4325 2329 3994 
Q 2675 3663 2675 3213 
Q 2675 2891 2525 2569 
Q 2294 2063 1775 1497 
Q 997 647 803 472 
L 1909 472 
Q 2247 472 2383 497 
Q 2519 522 2628 598 
Q 2738 675 2819 816 
L 2934 816 
z
" transform="scale(0.015625)"/>
      </defs>
      <use xlink:href="#TimesNewRomanPSMT-46"/>
      <use xlink:href="#TimesNewRomanPSMT-41" x="48.240234"/>
      <use xlink:href="#TimesNewRomanPSMT-53" x="120.457031"/>
      <use xlink:href="#TimesNewRomanPSMT-54" x="176.072266"/>
      <use xlink:href="#TimesNewRomanPSMT-2d" x="228.03125"/>
      <use xlink:href="#TimesNewRomanPSMT-4c" x="261.332031"/>
      <use xlink:href="#TimesNewRomanPSMT-49" x="322.416016"/>
      <use xlink:href="#TimesNewRomanPSMT-4f" x="355.716797"/>
      <use xlink:href="#TimesNewRomanPSMT-32" x="427.933594"/>
     </g>
    </g>
   </g>
  </g>
 </g>
 <defs>
  <clipPath id="p2ad8336e40">
   <rect x="42.12" y="43.74" width="579.96" height="579.96"/>
  </clipPath>
 </defs>
</svg>
