<?xml version="1.0" encoding="utf-8" standalone="no"?>
<!DOCTYPE svg PUBLIC "-//W3C//DTD SVG 1.1//EN"
  "http://www.w3.org/Graphics/SVG/1.1/DTD/svg11.dtd">
<svg xmlns:xlink="http://www.w3.org/1999/xlink" width="648pt" height="648pt" viewBox="0 0 648 648" xmlns="http://www.w3.org/2000/svg" version="1.1">
 <metadata>
  <rdf:RDF xmlns:dc="http://purl.org/dc/elements/1.1/" xmlns:cc="http://creativecommons.org/ns#" xmlns:rdf="http://www.w3.org/1999/02/22-rdf-syntax-ns#">
   <cc:Work>
    <dc:type rdf:resource="http://purl.org/dc/dcmitype/StillImage"/>
    <dc:date>2024-08-06T11:20:49.658025</dc:date>
    <dc:format>image/svg+xml</dc:format>
    <dc:creator>
     <cc:Agent>
      <dc:title>Matplotlib v3.8.3, https://matplotlib.org/</dc:title>
     </cc:Agent>
    </dc:creator>
   </cc:Work>
  </rdf:RDF>
 </metadata>
 <defs>
  <style type="text/css">*{stroke-linejoin: round; stroke-linecap: butt}</style>
 </defs>
 <g id="figure_1">
  <g id="patch_1">
   <path d="M 0 648 
L 648 648 
L 648 0 
L 0 0 
z
" style="fill: #ffffff"/>
  </g>
  <g id="patch_2">
   <path d="M 42.12 623.7 
L 622.08 623.7 
L 622.08 43.74 
L 42.12 43.74 
z
" style="fill: #ffffff"/>
  </g>
  <g id="pane3d_1">
   <g id="patch_3">
    <path d="M 579.844436 419.030051 
L 262.404426 356.962052 
L 259.902913 113.138585 
L 587.95929 165.50881 
" style="fill: #ffffff; stroke: #ffffff; stroke-linejoin: miter"/>
   </g>
  </g>
  <g id="pane3d_2">
   <g id="patch_4">
    <path d="M 87.972138 488.806293 
L 262.404426 356.962052 
L 259.902913 113.138585 
L 79.005816 224.572356 
" style="fill: #ffffff; stroke: #ffffff; stroke-linejoin: miter"/>
   </g>
  </g>
  <g id="pane3d_3">
   <g id="patch_5">
    <path d="M 429.584554 564.179362 
L 579.844436 419.030051 
L 262.404426 356.962052 
L 87.972138 488.806293 
" style="fill: #ffffff; stroke: #ffffff; stroke-linejoin: miter"/>
   </g>
  </g>
  <g id="grid3d_1">
   <g id="Line3DCollection_1">
    <path d="M 432.89703 560.979548 
L 91.799995 485.913016 
L 82.988034 222.119284 
" style="fill: none; stroke: #bdc3c7; stroke-width: 0.5"/>
    <path d="M 450.332661 544.13693 
L 111.961353 470.6741 
L 103.953134 209.204648 
" style="fill: none; stroke: #bdc3c7; stroke-width: 0.5"/>
    <path d="M 467.388654 527.661037 
L 131.704813 455.751051 
L 124.468574 196.567005 
" style="fill: none; stroke: #bdc3c7; stroke-width: 0.5"/>
    <path d="M 484.077276 511.540021 
L 151.043236 441.13415 
L 144.548669 184.197538 
" style="fill: none; stroke: #bdc3c7; stroke-width: 0.5"/>
    <path d="M 500.410269 495.762539 
L 169.988957 426.81407 
L 164.20713 172.0878 
" style="fill: none; stroke: #bdc3c7; stroke-width: 0.5"/>
    <path d="M 516.398881 480.317724 
L 188.55382 412.781861 
L 183.457099 160.229696 
" style="fill: none; stroke: #bdc3c7; stroke-width: 0.5"/>
    <path d="M 532.05389 465.195166 
L 206.749194 399.02893 
L 202.311178 148.615463 
" style="fill: none; stroke: #bdc3c7; stroke-width: 0.5"/>
    <path d="M 547.38563 450.384883 
L 224.586002 385.547021 
L 220.781455 137.237654 
" style="fill: none; stroke: #bdc3c7; stroke-width: 0.5"/>
    <path d="M 562.40401 435.877301 
L 242.074738 372.3282 
L 238.87953 126.089123 
" style="fill: none; stroke: #bdc3c7; stroke-width: 0.5"/>
    <path d="M 577.118542 421.663234 
L 259.225493 359.364842 
L 256.616544 115.16301 
" style="fill: none; stroke: #bdc3c7; stroke-width: 0.5"/>
   </g>
  </g>
  <g id="grid3d_2">
   <g id="Line3DCollection_2">
    <path d="M 581.087357 164.411789 
L 573.204719 417.731809 
L 422.406537 562.59561 
" style="fill: none; stroke: #bdc3c7; stroke-width: 0.5"/>
    <path d="M 540.133174 157.87395 
L 533.625746 409.993063 
L 379.647892 553.16138 
" style="fill: none; stroke: #bdc3c7; stroke-width: 0.5"/>
    <path d="M 499.648652 151.411087 
L 494.485991 402.340195 
L 337.412704 543.842644 
" style="fill: none; stroke: #bdc3c7; stroke-width: 0.5"/>
    <path d="M 459.625757 145.021917 
L 455.778183 394.771785 
L 295.691419 534.637296 
" style="fill: none; stroke: #bdc3c7; stroke-width: 0.5"/>
    <path d="M 420.05664 138.705187 
L 417.495212 387.286442 
L 254.474714 525.543278 
" style="fill: none; stroke: #bdc3c7; stroke-width: 0.5"/>
    <path d="M 380.933626 132.459672 
L 379.63012 379.882806 
L 213.753491 516.558582 
" style="fill: none; stroke: #bdc3c7; stroke-width: 0.5"/>
    <path d="M 342.249214 126.284174 
L 342.176104 372.559545 
L 173.518869 507.68125 
" style="fill: none; stroke: #bdc3c7; stroke-width: 0.5"/>
    <path d="M 303.996068 120.177523 
L 305.126504 365.315359 
L 133.762177 498.909368 
" style="fill: none; stroke: #bdc3c7; stroke-width: 0.5"/>
    <path d="M 266.167018 114.138574 
L 268.474807 358.148974 
L 94.47495 490.241068 
" style="fill: none; stroke: #bdc3c7; stroke-width: 0.5"/>
   </g>
  </g>
  <g id="grid3d_3">
   <g id="Line3DCollection_3">
    <path d="M 87.798854 483.699701 
L 262.355929 352.235045 
L 580.001526 414.12231 
" style="fill: none; stroke: #bdc3c7; stroke-width: 0.5"/>
    <path d="M 86.754128 452.912035 
L 262.063669 323.748347 
L 580.948402 384.540364 
" style="fill: none; stroke: #bdc3c7; stroke-width: 0.5"/>
    <path d="M 85.700708 421.868172 
L 261.769199 295.04621 
L 581.902777 354.724136 
" style="fill: none; stroke: #bdc3c7; stroke-width: 0.5"/>
    <path d="M 84.638486 390.564901 
L 261.472493 266.126182 
L 582.86474 324.670832 
" style="fill: none; stroke: #bdc3c7; stroke-width: 0.5"/>
    <path d="M 83.56735 358.998958 
L 261.173526 236.985771 
L 583.834383 294.377613 
" style="fill: none; stroke: #bdc3c7; stroke-width: 0.5"/>
    <path d="M 82.487189 327.167021 
L 260.872272 207.622449 
L 584.811798 263.841595 
" style="fill: none; stroke: #bdc3c7; stroke-width: 0.5"/>
    <path d="M 81.397886 295.065715 
L 260.568705 178.033649 
L 585.797078 233.059846 
" style="fill: none; stroke: #bdc3c7; stroke-width: 0.5"/>
    <path d="M 80.299327 262.691606 
L 260.262798 148.216762 
L 586.790318 202.02939 
" style="fill: none; stroke: #bdc3c7; stroke-width: 0.5"/>
    <path d="M 79.191392 230.041201 
L 259.954524 118.169142 
L 587.791617 170.747198 
" style="fill: none; stroke: #bdc3c7; stroke-width: 0.5"/>
   </g>
  </g>
  <g id="axis3d_1">
   <g id="line2d_1">
    <path d="M 579.844436 419.030051 
L 429.584554 564.179362 
" style="fill: none; stroke: #000000; stroke-width: 0.8; stroke-linecap: square"/>
   </g>
   <g id="xtick_1">
    <g id="line2d_2">
     <path d="M 430.028669 560.348297 
L 438.64086 562.243615 
" style="fill: none; stroke: #000000; stroke-width: 0.8; stroke-linecap: square"/>
    </g>
    <g id="text_1">
     <!-- 0 -->
     <g transform="translate(435.503743 578.454883) scale(0.14 -0.14)">
      <defs>
       <path id="DejaVuSans-30" d="M 2034 4250 
Q 1547 4250 1301 3770 
Q 1056 3291 1056 2328 
Q 1056 1369 1301 889 
Q 1547 409 2034 409 
Q 2525 409 2770 889 
Q 3016 1369 3016 2328 
Q 3016 3291 2770 3770 
Q 2525 4250 2034 4250 
z
M 2034 4750 
Q 2819 4750 3233 4129 
Q 3647 3509 3647 2328 
Q 3647 1150 3233 529 
Q 2819 -91 2034 -91 
Q 1250 -91 836 529 
Q 422 1150 422 2328 
Q 422 3509 836 4129 
Q 1250 4750 2034 4750 
z
" transform="scale(0.015625)"/>
      </defs>
      <use xlink:href="#DejaVuSans-30"/>
     </g>
    </g>
   </g>
   <g id="xtick_2">
    <g id="line2d_3">
     <path d="M 447.488745 543.519496 
L 456.027463 545.373312 
" style="fill: none; stroke: #000000; stroke-width: 0.8; stroke-linecap: square"/>
    </g>
    <g id="text_2">
     <!-- 80 -->
     <g transform="translate(448.413207 561.531846) scale(0.14 -0.14)">
      <defs>
       <path id="DejaVuSans-38" d="M 2034 2216 
Q 1584 2216 1326 1975 
Q 1069 1734 1069 1313 
Q 1069 891 1326 650 
Q 1584 409 2034 409 
Q 2484 409 2743 651 
Q 3003 894 3003 1313 
Q 3003 1734 2745 1975 
Q 2488 2216 2034 2216 
z
M 1403 2484 
Q 997 2584 770 2862 
Q 544 3141 544 3541 
Q 544 4100 942 4425 
Q 1341 4750 2034 4750 
Q 2731 4750 3128 4425 
Q 3525 4100 3525 3541 
Q 3525 3141 3298 2862 
Q 3072 2584 2669 2484 
Q 3125 2378 3379 2068 
Q 3634 1759 3634 1313 
Q 3634 634 3220 271 
Q 2806 -91 2034 -91 
Q 1263 -91 848 271 
Q 434 634 434 1313 
Q 434 1759 690 2068 
Q 947 2378 1403 2484 
z
M 1172 3481 
Q 1172 3119 1398 2916 
Q 1625 2713 2034 2713 
Q 2441 2713 2670 2916 
Q 2900 3119 2900 3481 
Q 2900 3844 2670 4047 
Q 2441 4250 2034 4250 
Q 1625 4250 1398 4047 
Q 1172 3844 1172 3481 
z
" transform="scale(0.015625)"/>
      </defs>
      <use xlink:href="#DejaVuSans-38"/>
      <use xlink:href="#DejaVuSans-30" x="63.623047"/>
     </g>
    </g>
   </g>
   <g id="xtick_3">
    <g id="line2d_4">
     <path d="M 464.568804 527.056971 
L 473.035191 528.870635 
" style="fill: none; stroke: #000000; stroke-width: 0.8; stroke-linecap: square"/>
    </g>
    <g id="text_3">
     <!-- 160 -->
     <g transform="translate(460.944496 544.977396) scale(0.14 -0.14)">
      <defs>
       <path id="DejaVuSans-31" d="M 794 531 
L 1825 531 
L 1825 4091 
L 703 3866 
L 703 4441 
L 1819 4666 
L 2450 4666 
L 2450 531 
L 3481 531 
L 3481 0 
L 794 0 
L 794 531 
z
" transform="scale(0.015625)"/>
       <path id="DejaVuSans-36" d="M 2113 2584 
Q 1688 2584 1439 2293 
Q 1191 2003 1191 1497 
Q 1191 994 1439 701 
Q 1688 409 2113 409 
Q 2538 409 2786 701 
Q 3034 994 3034 1497 
Q 3034 2003 2786 2293 
Q 2538 2584 2113 2584 
z
M 3366 4563 
L 3366 3988 
Q 3128 4100 2886 4159 
Q 2644 4219 2406 4219 
Q 1781 4219 1451 3797 
Q 1122 3375 1075 2522 
Q 1259 2794 1537 2939 
Q 1816 3084 2150 3084 
Q 2853 3084 3261 2657 
Q 3669 2231 3669 1497 
Q 3669 778 3244 343 
Q 2819 -91 2113 -91 
Q 1303 -91 875 529 
Q 447 1150 447 2328 
Q 447 3434 972 4092 
Q 1497 4750 2381 4750 
Q 2619 4750 2861 4703 
Q 3103 4656 3366 4563 
z
" transform="scale(0.015625)"/>
      </defs>
      <use xlink:href="#DejaVuSans-31"/>
      <use xlink:href="#DejaVuSans-36" x="63.623047"/>
      <use xlink:href="#DejaVuSans-30" x="127.246094"/>
     </g>
    </g>
   </g>
   <g id="xtick_4">
    <g id="line2d_5">
     <path d="M 481.28112 510.948893 
L 489.676293 512.723695 
" style="fill: none; stroke: #000000; stroke-width: 0.8; stroke-linecap: square"/>
    </g>
    <g id="text_4">
     <!-- 240 -->
     <g transform="translate(477.563582 528.779622) scale(0.14 -0.14)">
      <defs>
       <path id="DejaVuSans-32" d="M 1228 531 
L 3431 531 
L 3431 0 
L 469 0 
L 469 531 
Q 828 903 1448 1529 
Q 2069 2156 2228 2338 
Q 2531 2678 2651 2914 
Q 2772 3150 2772 3378 
Q 2772 3750 2511 3984 
Q 2250 4219 1831 4219 
Q 1534 4219 1204 4116 
Q 875 4013 500 3803 
L 500 4441 
Q 881 4594 1212 4672 
Q 1544 4750 1819 4750 
Q 2544 4750 2975 4387 
Q 3406 4025 3406 3419 
Q 3406 3131 3298 2873 
Q 3191 2616 2906 2266 
Q 2828 2175 2409 1742 
Q 1991 1309 1228 531 
z
" transform="scale(0.015625)"/>
       <path id="DejaVuSans-34" d="M 2419 4116 
L 825 1625 
L 2419 1625 
L 2419 4116 
z
M 2253 4666 
L 3047 4666 
L 3047 1625 
L 3713 1625 
L 3713 1100 
L 3047 1100 
L 3047 0 
L 2419 0 
L 2419 1100 
L 313 1100 
L 313 1709 
L 2253 4666 
z
" transform="scale(0.015625)"/>
      </defs>
      <use xlink:href="#DejaVuSans-32"/>
      <use xlink:href="#DejaVuSans-34" x="63.623047"/>
      <use xlink:href="#DejaVuSans-30" x="127.246094"/>
     </g>
    </g>
   </g>
   <g id="xtick_5">
    <g id="line2d_6">
     <path d="M 497.637444 495.183938 
L 505.962499 496.921113 
" style="fill: none; stroke: #000000; stroke-width: 0.8; stroke-linecap: square"/>
    </g>
    <g id="text_5">
     <!-- 320 -->
     <g transform="translate(493.828417 512.927119) scale(0.14 -0.14)">
      <defs>
       <path id="DejaVuSans-33" d="M 2597 2516 
Q 3050 2419 3304 2112 
Q 3559 1806 3559 1356 
Q 3559 666 3084 287 
Q 2609 -91 1734 -91 
Q 1441 -91 1130 -33 
Q 819 25 488 141 
L 488 750 
Q 750 597 1062 519 
Q 1375 441 1716 441 
Q 2309 441 2620 675 
Q 2931 909 2931 1356 
Q 2931 1769 2642 2001 
Q 2353 2234 1838 2234 
L 1294 2234 
L 1294 2753 
L 1863 2753 
Q 2328 2753 2575 2939 
Q 2822 3125 2822 3475 
Q 2822 3834 2567 4026 
Q 2313 4219 1838 4219 
Q 1578 4219 1281 4162 
Q 984 4106 628 3988 
L 628 4550 
Q 988 4650 1302 4700 
Q 1616 4750 1894 4750 
Q 2613 4750 3031 4423 
Q 3450 4097 3450 3541 
Q 3450 3153 3228 2886 
Q 3006 2619 2597 2516 
z
" transform="scale(0.015625)"/>
      </defs>
      <use xlink:href="#DejaVuSans-33"/>
      <use xlink:href="#DejaVuSans-32" x="63.623047"/>
      <use xlink:href="#DejaVuSans-30" x="127.246094"/>
     </g>
    </g>
   </g>
   <g id="xtick_6">
    <g id="line2d_7">
     <path d="M 513.649029 479.751256 
L 521.905042 481.45199 
" style="fill: none; stroke: #000000; stroke-width: 0.8; stroke-linecap: square"/>
    </g>
    <g id="text_6">
     <!-- 400 -->
     <g transform="translate(509.750208 497.408963) scale(0.14 -0.14)">
      <use xlink:href="#DejaVuSans-34"/>
      <use xlink:href="#DejaVuSans-30" x="63.623047"/>
      <use xlink:href="#DejaVuSans-30" x="127.246094"/>
     </g>
    </g>
   </g>
   <g id="xtick_7">
    <g id="line2d_8">
     <path d="M 529.326661 464.640454 
L 537.514686 466.305879 
" style="fill: none; stroke: #000000; stroke-width: 0.8; stroke-linecap: square"/>
    </g>
    <g id="text_7">
     <!-- 480 -->
     <g transform="translate(525.339694 482.214688) scale(0.14 -0.14)">
      <use xlink:href="#DejaVuSans-34"/>
      <use xlink:href="#DejaVuSans-38" x="63.623047"/>
      <use xlink:href="#DejaVuSans-30" x="127.246094"/>
     </g>
    </g>
   </g>
   <g id="xtick_8">
    <g id="line2d_9">
     <path d="M 544.680679 449.841564 
L 552.801749 451.47277 
" style="fill: none; stroke: #000000; stroke-width: 0.8; stroke-linecap: square"/>
    </g>
    <g id="text_8">
     <!-- 560 -->
     <g transform="translate(540.607171 467.334259) scale(0.14 -0.14)">
      <defs>
       <path id="DejaVuSans-35" d="M 691 4666 
L 3169 4666 
L 3169 4134 
L 1269 4134 
L 1269 2991 
Q 1406 3038 1543 3061 
Q 1681 3084 1819 3084 
Q 2600 3084 3056 2656 
Q 3513 2228 3513 1497 
Q 3513 744 3044 326 
Q 2575 -91 1722 -91 
Q 1428 -91 1123 -41 
Q 819 9 494 109 
L 494 744 
Q 775 591 1075 516 
Q 1375 441 1709 441 
Q 2250 441 2565 725 
Q 2881 1009 2881 1497 
Q 2881 1984 2565 2268 
Q 2250 2553 1709 2553 
Q 1456 2553 1204 2497 
Q 953 2441 691 2322 
L 691 4666 
z
" transform="scale(0.015625)"/>
      </defs>
      <use xlink:href="#DejaVuSans-35"/>
      <use xlink:href="#DejaVuSans-36" x="63.623047"/>
      <use xlink:href="#DejaVuSans-30" x="127.246094"/>
     </g>
    </g>
   </g>
   <g id="xtick_9">
    <g id="line2d_10">
     <path d="M 559.721003 435.345028 
L 567.77613 436.943058 
" style="fill: none; stroke: #000000; stroke-width: 0.8; stroke-linecap: square"/>
    </g>
    <g id="text_9">
     <!-- 640 -->
     <g transform="translate(555.562515 452.75805) scale(0.14 -0.14)">
      <use xlink:href="#DejaVuSans-36"/>
      <use xlink:href="#DejaVuSans-34" x="63.623047"/>
      <use xlink:href="#DejaVuSans-30" x="127.246094"/>
     </g>
    </g>
   </g>
   <g id="xtick_10">
    <g id="line2d_11">
     <path d="M 574.457147 421.141673 
L 582.447324 422.70753 
" style="fill: none; stroke: #000000; stroke-width: 0.8; stroke-linecap: square"/>
    </g>
    <g id="text_10">
     <!-- 720 -->
     <g transform="translate(570.215199 438.476827) scale(0.14 -0.14)">
      <defs>
       <path id="DejaVuSans-37" d="M 525 4666 
L 3525 4666 
L 3525 4397 
L 1831 0 
L 1172 0 
L 2766 4134 
L 525 4134 
L 525 4666 
z
" transform="scale(0.015625)"/>
      </defs>
      <use xlink:href="#DejaVuSans-37"/>
      <use xlink:href="#DejaVuSans-32" x="63.623047"/>
      <use xlink:href="#DejaVuSans-30" x="127.246094"/>
     </g>
    </g>
   </g>
   <g id="text_11">
    <!-- X (m) -->
    <g transform="translate(522.819786 532.19847) rotate(-44.008883) scale(0.18 -0.18)">
     <defs>
      <path id="TimesNewRomanPSMT-58" d="M 2613 2347 
L 3522 991 
Q 3900 428 4083 279 
Q 4266 131 4547 116 
L 4547 0 
L 2728 0 
L 2728 116 
Q 2909 119 2997 153 
Q 3063 181 3105 239 
Q 3147 297 3147 356 
Q 3147 428 3119 500 
Q 3097 553 2947 775 
L 2228 1863 
L 1341 725 
Q 1200 544 1172 483 
Q 1144 422 1144 356 
Q 1144 256 1228 190 
Q 1313 125 1550 116 
L 1550 0 
L 47 0 
L 47 116 
Q 206 131 322 181 
Q 516 263 691 400 
Q 866 538 1091 822 
L 2091 2084 
L 1256 3306 
Q 916 3803 678 3958 
Q 441 4113 131 4122 
L 131 4238 
L 2091 4238 
L 2091 4122 
Q 1841 4113 1748 4041 
Q 1656 3969 1656 3881 
Q 1656 3766 1806 3544 
L 2456 2572 
L 3209 3525 
Q 3341 3694 3370 3756 
Q 3400 3819 3400 3884 
Q 3400 3950 3363 4000 
Q 3316 4066 3244 4092 
Q 3172 4119 2947 4122 
L 2947 4238 
L 4450 4238 
L 4450 4122 
Q 4272 4113 4159 4066 
Q 3991 3994 3850 3872 
Q 3709 3750 3453 3422 
L 2613 2347 
z
" transform="scale(0.015625)"/>
      <path id="TimesNewRomanPSMT-20" transform="scale(0.015625)"/>
      <path id="TimesNewRomanPSMT-28" d="M 1988 -1253 
L 1988 -1369 
Q 1516 -1131 1200 -813 
Q 750 -359 506 256 
Q 263 872 263 1534 
Q 263 2503 741 3301 
Q 1219 4100 1988 4444 
L 1988 4313 
Q 1603 4100 1356 3731 
Q 1109 3363 987 2797 
Q 866 2231 866 1616 
Q 866 947 969 400 
Q 1050 -31 1165 -292 
Q 1281 -553 1476 -793 
Q 1672 -1034 1988 -1253 
z
" transform="scale(0.015625)"/>
      <path id="TimesNewRomanPSMT-6d" d="M 1050 2338 
Q 1363 2650 1419 2697 
Q 1559 2816 1721 2881 
Q 1884 2947 2044 2947 
Q 2313 2947 2506 2790 
Q 2700 2634 2766 2338 
Q 3088 2713 3309 2830 
Q 3531 2947 3766 2947 
Q 3994 2947 4170 2830 
Q 4347 2713 4450 2447 
Q 4519 2266 4519 1878 
L 4519 647 
Q 4519 378 4559 278 
Q 4591 209 4675 161 
Q 4759 113 4950 113 
L 4950 0 
L 3538 0 
L 3538 113 
L 3597 113 
Q 3781 113 3884 184 
Q 3956 234 3988 344 
Q 4000 397 4000 647 
L 4000 1878 
Q 4000 2228 3916 2372 
Q 3794 2572 3525 2572 
Q 3359 2572 3192 2489 
Q 3025 2406 2788 2181 
L 2781 2147 
L 2788 2013 
L 2788 647 
Q 2788 353 2820 281 
Q 2853 209 2943 161 
Q 3034 113 3253 113 
L 3253 0 
L 1806 0 
L 1806 113 
Q 2044 113 2133 169 
Q 2222 225 2256 338 
Q 2272 391 2272 647 
L 2272 1878 
Q 2272 2228 2169 2381 
Q 2031 2581 1784 2581 
Q 1616 2581 1450 2491 
Q 1191 2353 1050 2181 
L 1050 647 
Q 1050 366 1089 281 
Q 1128 197 1204 155 
Q 1281 113 1516 113 
L 1516 0 
L 100 0 
L 100 113 
Q 297 113 375 155 
Q 453 197 493 289 
Q 534 381 534 647 
L 534 1741 
Q 534 2213 506 2350 
Q 484 2453 437 2492 
Q 391 2531 309 2531 
Q 222 2531 100 2484 
L 53 2597 
L 916 2947 
L 1050 2947 
L 1050 2338 
z
" transform="scale(0.015625)"/>
      <path id="TimesNewRomanPSMT-29" d="M 144 4313 
L 144 4444 
Q 619 4209 934 3891 
Q 1381 3434 1625 2820 
Q 1869 2206 1869 1541 
Q 1869 572 1392 -226 
Q 916 -1025 144 -1369 
L 144 -1253 
Q 528 -1038 776 -670 
Q 1025 -303 1145 264 
Q 1266 831 1266 1447 
Q 1266 2113 1163 2663 
Q 1084 3094 967 3353 
Q 850 3613 656 3853 
Q 463 4094 144 4313 
z
" transform="scale(0.015625)"/>
     </defs>
     <use xlink:href="#TimesNewRomanPSMT-58"/>
     <use xlink:href="#TimesNewRomanPSMT-20" x="72.216797"/>
     <use xlink:href="#TimesNewRomanPSMT-28" x="97.216797"/>
     <use xlink:href="#TimesNewRomanPSMT-6d" x="130.517578"/>
     <use xlink:href="#TimesNewRomanPSMT-29" x="208.300781"/>
    </g>
   </g>
  </g>
  <g id="axis3d_2">
   <g id="line2d_12">
    <path d="M 87.972138 488.806293 
L 429.584554 564.179362 
" style="fill: none; stroke: #000000; stroke-width: 0.8; stroke-linecap: square"/>
   </g>
   <g id="xtick_11">
    <g id="line2d_13">
     <path d="M 423.737812 561.316725 
L 419.737302 565.159803 
" style="fill: none; stroke: #000000; stroke-width: 0.8; stroke-linecap: square"/>
    </g>
    <g id="text_12">
     <!-- −300 -->
     <g transform="translate(396.708555 589.471227) scale(0.14 -0.14)">
      <defs>
       <path id="DejaVuSans-2212" d="M 678 2272 
L 4684 2272 
L 4684 1741 
L 678 1741 
L 678 2272 
z
" transform="scale(0.015625)"/>
      </defs>
      <use xlink:href="#DejaVuSans-2212"/>
      <use xlink:href="#DejaVuSans-33" x="83.789062"/>
      <use xlink:href="#DejaVuSans-30" x="147.412109"/>
      <use xlink:href="#DejaVuSans-30" x="211.035156"/>
     </g>
    </g>
   </g>
   <g id="xtick_12">
    <g id="line2d_14">
     <path d="M 381.006453 551.898192 
L 376.923989 555.694059 
" style="fill: none; stroke: #000000; stroke-width: 0.8; stroke-linecap: square"/>
    </g>
    <g id="text_13">
     <!-- −220 -->
     <g transform="translate(353.879008 579.912273) scale(0.14 -0.14)">
      <use xlink:href="#DejaVuSans-2212"/>
      <use xlink:href="#DejaVuSans-32" x="83.789062"/>
      <use xlink:href="#DejaVuSans-32" x="147.412109"/>
      <use xlink:href="#DejaVuSans-30" x="211.035156"/>
     </g>
    </g>
   </g>
   <g id="xtick_13">
    <g id="line2d_15">
     <path d="M 338.797785 542.594867 
L 334.63567 546.344388 
" style="fill: none; stroke: #000000; stroke-width: 0.8; stroke-linecap: square"/>
    </g>
    <g id="text_14">
     <!-- −140 -->
     <g transform="translate(311.575137 570.470642) scale(0.14 -0.14)">
      <use xlink:href="#DejaVuSans-2212"/>
      <use xlink:href="#DejaVuSans-31" x="83.789062"/>
      <use xlink:href="#DejaVuSans-34" x="147.412109"/>
      <use xlink:href="#DejaVuSans-30" x="211.035156"/>
     </g>
    </g>
   </g>
   <g id="xtick_14">
    <g id="line2d_16">
     <path d="M 297.102277 533.404649 
L 292.862746 537.108667 
" style="fill: none; stroke: #000000; stroke-width: 0.8; stroke-linecap: square"/>
    </g>
    <g id="text_15">
     <!-- −60 -->
     <g transform="translate(274.241073 561.144188) scale(0.14 -0.14)">
      <use xlink:href="#DejaVuSans-2212"/>
      <use xlink:href="#DejaVuSans-36" x="83.789062"/>
      <use xlink:href="#DejaVuSans-30" x="147.412109"/>
     </g>
    </g>
   </g>
   <g id="xtick_15">
    <g id="line2d_17">
     <path d="M 255.910627 524.325487 
L 251.595852 527.984826 
" style="fill: none; stroke: #000000; stroke-width: 0.8; stroke-linecap: square"/>
    </g>
    <g id="text_16">
     <!-- 20 -->
     <g transform="translate(238.825712 551.930816) scale(0.14 -0.14)">
      <use xlink:href="#DejaVuSans-32"/>
      <use xlink:href="#DejaVuSans-30" x="63.623047"/>
     </g>
    </g>
   </g>
   <g id="xtick_16">
    <g id="line2d_18">
     <path d="M 215.213756 515.355382 
L 210.825848 518.970844 
" style="fill: none; stroke: #000000; stroke-width: 0.8; stroke-linecap: square"/>
    </g>
    <g id="text_17">
     <!-- 100 -->
     <g transform="translate(193.588331 542.828481) scale(0.14 -0.14)">
      <use xlink:href="#DejaVuSans-31"/>
      <use xlink:href="#DejaVuSans-30" x="63.623047"/>
      <use xlink:href="#DejaVuSans-30" x="127.246094"/>
     </g>
    </g>
   </g>
   <g id="xtick_17">
    <g id="line2d_19">
     <path d="M 175.002804 506.492378 
L 170.543814 510.064749 
" style="fill: none; stroke: #000000; stroke-width: 0.8; stroke-linecap: square"/>
    </g>
    <g id="text_18">
     <!-- 180 -->
     <g transform="translate(153.293273 533.835189) scale(0.14 -0.14)">
      <use xlink:href="#DejaVuSans-31"/>
      <use xlink:href="#DejaVuSans-38" x="63.623047"/>
      <use xlink:href="#DejaVuSans-30" x="127.246094"/>
     </g>
    </g>
   </g>
   <g id="xtick_18">
    <g id="line2d_20">
     <path d="M 135.269118 497.73457 
L 130.741042 501.264616 
" style="fill: none; stroke: #000000; stroke-width: 0.8; stroke-linecap: square"/>
    </g>
    <g id="text_19">
     <!-- 260 -->
     <g transform="translate(113.478059 524.948992) scale(0.14 -0.14)">
      <use xlink:href="#DejaVuSans-32"/>
      <use xlink:href="#DejaVuSans-36" x="63.623047"/>
      <use xlink:href="#DejaVuSans-30" x="127.246094"/>
     </g>
    </g>
   </g>
   <g id="xtick_19">
    <g id="line2d_21">
     <path d="M 96.004252 489.080097 
L 91.409028 492.568564 
" style="fill: none; stroke: #000000; stroke-width: 0.8; stroke-linecap: square"/>
    </g>
    <g id="text_20">
     <!-- 340 -->
     <g transform="translate(74.13417 516.167987) scale(0.14 -0.14)">
      <use xlink:href="#DejaVuSans-33"/>
      <use xlink:href="#DejaVuSans-34" x="63.623047"/>
      <use xlink:href="#DejaVuSans-30" x="127.246094"/>
     </g>
    </g>
   </g>
   <g id="text_21">
    <!-- Y (m) -->
    <g transform="translate(214.388323 567.793702) rotate(-347.557657) scale(0.18 -0.18)">
     <defs>
      <path id="TimesNewRomanPSMT-59" d="M 3050 4238 
L 4528 4238 
L 4528 4122 
L 4447 4122 
Q 4366 4122 4209 4050 
Q 4053 3978 3925 3843 
Q 3797 3709 3609 3406 
L 2588 1797 
L 2588 734 
Q 2588 344 2675 247 
Q 2794 116 3050 116 
L 3188 116 
L 3188 0 
L 1388 0 
L 1388 116 
L 1538 116 
Q 1806 116 1919 278 
Q 1988 378 1988 734 
L 1988 1738 
L 825 3513 
Q 619 3825 545 3903 
Q 472 3981 241 4091 
Q 178 4122 59 4122 
L 59 4238 
L 1872 4238 
L 1872 4122 
L 1778 4122 
Q 1631 4122 1507 4053 
Q 1384 3984 1384 3847 
Q 1384 3734 1575 3441 
L 2459 2075 
L 3291 3381 
Q 3478 3675 3478 3819 
Q 3478 3906 3433 3975 
Q 3388 4044 3303 4083 
Q 3219 4122 3050 4122 
L 3050 4238 
z
" transform="scale(0.015625)"/>
     </defs>
     <use xlink:href="#TimesNewRomanPSMT-59"/>
     <use xlink:href="#TimesNewRomanPSMT-20" x="68.466797"/>
     <use xlink:href="#TimesNewRomanPSMT-28" x="93.466797"/>
     <use xlink:href="#TimesNewRomanPSMT-6d" x="126.767578"/>
     <use xlink:href="#TimesNewRomanPSMT-29" x="204.550781"/>
    </g>
   </g>
  </g>
  <g id="axis3d_3">
   <g id="line2d_22">
    <path d="M 87.972138 488.806293 
L 79.005816 224.572356 
" style="fill: none; stroke: #000000; stroke-width: 0.8; stroke-linecap: square"/>
   </g>
   <g id="xtick_20">
    <g id="line2d_23">
     <path d="M 89.333014 482.544275 
L 84.723198 486.016078 
" style="fill: none; stroke: #000000; stroke-width: 0.8; stroke-linecap: square"/>
    </g>
    <g id="text_22">
     <!-- −300 -->
     <g transform="translate(41.11582 498.218673) scale(0.14 -0.14)">
      <use xlink:href="#DejaVuSans-2212"/>
      <use xlink:href="#DejaVuSans-33" x="83.789062"/>
      <use xlink:href="#DejaVuSans-30" x="147.412109"/>
      <use xlink:href="#DejaVuSans-30" x="211.035156"/>
     </g>
    </g>
   </g>
   <g id="xtick_21">
    <g id="line2d_24">
     <path d="M 88.295473 451.77641 
L 83.664035 455.188738 
" style="fill: none; stroke: #000000; stroke-width: 0.8; stroke-linecap: square"/>
    </g>
    <g id="text_23">
     <!-- −220 -->
     <g transform="translate(39.954224 467.364548) scale(0.14 -0.14)">
      <use xlink:href="#DejaVuSans-2212"/>
      <use xlink:href="#DejaVuSans-32" x="83.789062"/>
      <use xlink:href="#DejaVuSans-32" x="147.412109"/>
      <use xlink:href="#DejaVuSans-30" x="211.035156"/>
     </g>
    </g>
   </g>
   <g id="xtick_22">
    <g id="line2d_25">
     <path d="M 87.249306 420.752718 
L 82.596044 424.104458 
" style="fill: none; stroke: #000000; stroke-width: 0.8; stroke-linecap: square"/>
    </g>
    <g id="text_24">
     <!-- −140 -->
     <g transform="translate(38.782935 436.252982) scale(0.14 -0.14)">
      <use xlink:href="#DejaVuSans-2212"/>
      <use xlink:href="#DejaVuSans-31" x="83.789062"/>
      <use xlink:href="#DejaVuSans-34" x="147.412109"/>
      <use xlink:href="#DejaVuSans-30" x="211.035156"/>
     </g>
    </g>
   </g>
   <g id="xtick_23">
    <g id="line2d_26">
     <path d="M 86.194404 389.469996 
L 81.519115 392.760014 
" style="fill: none; stroke: #000000; stroke-width: 0.8; stroke-linecap: square"/>
    </g>
    <g id="text_25">
     <!-- −60 -->
     <g transform="translate(42.055582 404.88074) scale(0.14 -0.14)">
      <use xlink:href="#DejaVuSans-2212"/>
      <use xlink:href="#DejaVuSans-36" x="83.789062"/>
      <use xlink:href="#DejaVuSans-30" x="147.412109"/>
     </g>
    </g>
   </g>
   <g id="xtick_24">
    <g id="line2d_27">
     <path d="M 85.130657 357.924986 
L 80.433134 361.152125 
" style="fill: none; stroke: #000000; stroke-width: 0.8; stroke-linecap: square"/>
    </g>
    <g id="text_26">
     <!-- 20 -->
     <g transform="translate(46.730323 373.244531) scale(0.14 -0.14)">
      <use xlink:href="#DejaVuSans-32"/>
      <use xlink:href="#DejaVuSans-30" x="63.623047"/>
     </g>
    </g>
   </g>
   <g id="xtick_25">
    <g id="line2d_28">
     <path d="M 84.057954 326.114374 
L 79.337987 329.277455 
" style="fill: none; stroke: #000000; stroke-width: 0.8; stroke-linecap: square"/>
    </g>
    <g id="text_27">
     <!-- 100 -->
     <g transform="translate(41.075469 341.341009) scale(0.14 -0.14)">
      <use xlink:href="#DejaVuSans-31"/>
      <use xlink:href="#DejaVuSans-30" x="63.623047"/>
      <use xlink:href="#DejaVuSans-30" x="127.246094"/>
     </g>
    </g>
   </g>
   <g id="xtick_26">
    <g id="line2d_29">
     <path d="M 82.976181 294.034793 
L 78.233557 297.132614 
" style="fill: none; stroke: #000000; stroke-width: 0.8; stroke-linecap: square"/>
    </g>
    <g id="text_28">
     <!-- 180 -->
     <g transform="translate(39.864173 309.166773) scale(0.14 -0.14)">
      <use xlink:href="#DejaVuSans-31"/>
      <use xlink:href="#DejaVuSans-38" x="63.623047"/>
      <use xlink:href="#DejaVuSans-30" x="127.246094"/>
     </g>
    </g>
   </g>
   <g id="xtick_27">
    <g id="line2d_30">
     <path d="M 81.885222 261.682817 
L 77.119727 264.714151 
" style="fill: none; stroke: #000000; stroke-width: 0.8; stroke-linecap: square"/>
    </g>
    <g id="text_29">
     <!-- 260 -->
     <g transform="translate(38.642554 276.718361) scale(0.14 -0.14)">
      <use xlink:href="#DejaVuSans-32"/>
      <use xlink:href="#DejaVuSans-36" x="63.623047"/>
      <use xlink:href="#DejaVuSans-30" x="127.246094"/>
     </g>
    </g>
   </g>
   <g id="xtick_28">
    <g id="line2d_31">
     <path d="M 80.78496 229.054961 
L 75.996374 232.018557 
" style="fill: none; stroke: #000000; stroke-width: 0.8; stroke-linecap: square"/>
    </g>
    <g id="text_30">
     <!-- 340 -->
     <g transform="translate(37.410481 243.992255) scale(0.14 -0.14)">
      <use xlink:href="#DejaVuSans-33"/>
      <use xlink:href="#DejaVuSans-34" x="63.623047"/>
      <use xlink:href="#DejaVuSans-30" x="127.246094"/>
     </g>
    </g>
   </g>
   <g id="text_31">
    <!-- Z (m) -->
    <g transform="translate(19.010062 346.106747) rotate(-271.943487) scale(0.18 -0.18)">
     <defs>
      <path id="TimesNewRomanPSMT-5a" d="M 3681 4238 
L 897 256 
L 2634 256 
Q 3034 256 3248 431 
Q 3463 606 3628 1141 
L 3731 1122 
L 3531 0 
L 81 0 
L 81 116 
L 2800 3984 
L 1444 3984 
Q 1106 3984 954 3911 
Q 803 3838 723 3698 
Q 644 3559 578 3178 
L 459 3178 
L 547 4238 
L 3681 4238 
z
" transform="scale(0.015625)"/>
     </defs>
     <use xlink:href="#TimesNewRomanPSMT-5a"/>
     <use xlink:href="#TimesNewRomanPSMT-20" x="61.083984"/>
     <use xlink:href="#TimesNewRomanPSMT-28" x="86.083984"/>
     <use xlink:href="#TimesNewRomanPSMT-6d" x="119.384766"/>
     <use xlink:href="#TimesNewRomanPSMT-29" x="197.167969"/>
    </g>
   </g>
  </g>
  <g id="axes_1">
   <g id="line2d_32">
    <defs>
     <path id="mc2ecde9037" d="M 0 -3 
L -0.673542 -0.927051 
L -2.85317 -0.927051 
L -1.089814 0.354102 
L -1.763356 2.427051 
L -0 1.145898 
L 1.763356 2.427051 
L 1.089814 0.354102 
L 2.85317 -0.927051 
L 0.673542 -0.927051 
z
" style="stroke: #ff0000; stroke-linejoin: bevel"/>
    </defs>
    <g clip-path="url(#p4dce2bb544)">
     <use xlink:href="#mc2ecde9037" x="267.096589" y="400.414424" style="fill: #ff0000; stroke: #ff0000; stroke-linejoin: bevel"/>
    </g>
   </g>
   <g id="line2d_33">
    <path d="M 267.096589 400.414424 
L 267.096867 400.414439 
L 270.88342 397.239372 
L 282.352342 387.39713 
L 284.414513 385.94416 
L 285.806516 385.267193 
L 287.370155 384.724558 
L 289.297271 384.369063 
L 290.797894 384.190476 
L 292.461008 384.124871 
L 295.240429 384.292634 
L 299.477972 384.94494 
L 306.39752 386.193335 
L 317.292858 388.060873 
L 357.297908 394.52535 
L 366.371883 395.950744 
L 378.491264 397.715981 
L 387.589886 398.793376 
L 394.275529 399.057937 
L 396.925179 399.014124 
L 401.428569 398.672526 
L 405.127144 398.172943 
L 408.79812 397.499779 
L 419.326199 395.131645 
L 426.377125 393.499381 
L 438.851141 390.527665 
L 469.574171 383.262092 
L 476.222817 381.670503 
L 506.737522 374.279887 
L 513.478007 372.662282 
L 515.226867 371.983023 
L 516.395388 371.26379 
L 516.918459 370.774554 
L 517.254759 370.250625 
L 517.377542 369.687462 
L 517.28036 369.05866 
L 516.935052 368.411874 
L 516.34268 367.758753 
L 514.962263 366.75065 
L 511.789989 364.947639 
L 505.711461 361.727385 
L 499.73332 358.598804 
L 489.558761 352.787486 
L 482.252561 348.563968 
L 474.788895 344.2625 
L 467.538129 340.227719 
L 459.112165 335.270615 
L 446.027443 327.598196 
L 436.30778 321.774393 
L 423.069013 313.929005 
L 409.498154 305.451328 
L 394.388562 296.170631 
L 380.681015 287.656679 
L 370.393818 281.433844 
L 358.607351 274.000902 
L 337.394924 260.8732 
L 331.141123 256.894888 
L 315.710117 247.095347 
L 299.546297 237.040558 
L 293.124783 232.891062 
L 291.485515 231.902538 
L 289.116252 230.939146 
L 287.150717 230.504549 
L 285.040684 230.357729 
L 283.590628 230.420908 
L 281.418613 230.745808 
L 275.303072 232.023301 
L 260.12488 235.259703 
L 256.125322 236.139387 
L 254.796773 236.601957 
L 253.758418 237.154686 
L 253.167021 237.776202 
L 253.036652 238.088845 
L 253.045956 238.398289 
L 253.397148 239.003593 
L 254.135842 239.635756 
L 257.100588 241.524276 
L 264.120383 246.033352 
L 272.89737 251.727482 
L 276.232009 254.276782 
L 279.025858 256.628008 
L 285.9562 262.761694 
L 291.573002 267.769148 
L 300.263721 274.896043 
L 305.204549 278.426444 
L 310.044798 281.62054 
L 313.253166 283.631451 
L 315.598501 284.911887 
L 317.84539 285.872948 
L 320.404615 286.692579 
L 323.205353 287.335956 
L 325.557492 287.688951 
L 328.466343 287.889203 
L 331.188922 287.851065 
L 333.590608 287.62682 
L 340.103574 286.654751 
L 342.804325 286.237406 
L 344.740729 286.155694 
L 346.484537 286.360559 
L 347.451802 286.649299 
L 348.739749 287.281853 
L 359.141246 293.864434 
L 360.1302 294.796821 
L 360.781846 295.729333 
L 361.094391 296.649295 
L 362.137571 305.179959 
L 362.499771 306.510914 
L 362.861271 307.153856 
L 363.763798 308.073765 
L 365.446872 309.282995 
L 368.663806 311.284748 
L 378.116677 317.074044 
L 378.540819 317.486969 
L 378.816128 318.079637 
L 378.776567 318.33554 
L 378.341388 318.778053 
L 377.38024 319.148815 
L 375.239019 319.613254 
L 339.985088 326.100672 
L 335.122828 326.946579 
L 291.854412 336.754541 
L 227.464687 352.297173 
L 225.128065 353.135033 
L 223.218224 354.059915 
L 221.74957 355.138202 
L 212.832045 363.287697 
L 212.433604 363.998448 
L 212.354757 364.71916 
L 212.582524 365.427858 
L 213.12379 366.070078 
L 214.005351 366.67434 
L 215.222631 367.229394 
L 216.70607 367.726138 
L 220.045098 368.573341 
L 229.690542 370.597756 
L 236.186852 371.988546 
L 249.077895 374.858757 
L 259.208558 377.031445 
L 273.39889 380.2973 
L 275.021183 380.93957 
L 276.374279 381.710889 
L 277.089594 382.296193 
L 277.600645 382.917612 
L 277.863571 383.463206 
L 277.940702 384.115085 
L 277.794863 384.841008 
L 277.45725 385.557411 
L 276.712084 386.581837 
L 275.208813 388.114548 
L 268.53982 394.09854 
L 265.472593 396.391737 
L 262.816801 398.401143 
L 261.295455 399.756189 
L 260.633318 400.56175 
L 260.446645 400.945306 
L 260.460943 401.232412 
L 260.663184 401.55731 
L 260.969745 401.792333 
L 262.148469 402.203344 
L 263.404143 402.3487 
L 264.733933 402.244224 
L 265.754559 401.897004 
L 266.540732 401.262968 
L 268.110511 399.763373 
L 271.7912 396.445687 
L 271.7912 396.445687 
" clip-path="url(#p4dce2bb544)" style="fill: none; stroke-dasharray: 10.175,4.4; stroke-dashoffset: 0; stroke: #808a87; stroke-width: 2.75"/>
   </g>
   <g id="line2d_34">
    <path d="M 267.096589 400.414424 
L 269.727796 398.350137 
L 283.265295 387.487311 
L 284.986698 386.476103 
L 286.439619 385.878942 
L 288.12771 385.437238 
L 290.219113 385.124317 
L 292.683484 385.020607 
L 295.503592 385.203644 
L 300.904161 386.023672 
L 332.848727 391.097542 
L 356.687119 394.711693 
L 370.774141 396.733336 
L 384.960865 398.436729 
L 388.283653 398.712 
L 392.967903 398.909344 
L 397.59771 398.795763 
L 401.431874 398.459918 
L 405.732707 397.842327 
L 410.011308 397.028772 
L 414.929528 395.953338 
L 473.449985 382.206749 
L 504.198779 374.454647 
L 513.255015 372.164546 
L 514.987371 371.474032 
L 516.136272 370.770549 
L 516.648183 370.296794 
L 516.981424 369.793301 
L 517.093241 369.264486 
L 516.980073 368.680078 
L 516.623852 368.083276 
L 516.01928 367.484456 
L 514.616752 366.57326 
L 511.414303 364.964877 
L 502.826759 360.943663 
L 497.654713 358.404005 
L 494.440309 356.680318 
L 488.202855 353.502177 
L 483.635514 351.090543 
L 457.864732 337.215667 
L 444.226444 329.637017 
L 434.201756 323.958263 
L 424.733508 318.665939 
L 414.139759 312.449752 
L 407.374868 308.363777 
L 402.027269 305.251362 
L 370.447594 286.431196 
L 363.878157 282.430956 
L 352.930731 275.734049 
L 340.024286 268.023882 
L 337.988248 266.7577 
L 322.303335 257.056605 
L 311.551391 250.38257 
L 282.514848 232.764593 
L 281.261233 232.271194 
L 279.260043 231.798488 
L 277.855962 231.625848 
L 275.698185 231.635041 
L 273.55773 231.936858 
L 267.618016 233.190275 
L 251.598111 236.570504 
L 249.238673 237.042946 
L 247.876355 237.43919 
L 246.766966 237.931513 
L 246.073785 238.532764 
L 245.834491 239.163869 
L 246.095747 239.796278 
L 246.790853 240.454556 
L 248.669084 241.681566 
L 256.314997 246.410978 
L 260.594492 248.976581 
L 266.003797 252.308612 
L 270.713463 255.589682 
L 273.874309 258.005752 
L 285.600236 267.420634 
L 288.675254 269.812571 
L 297.57703 276.395059 
L 301.967062 279.299801 
L 310.120032 284.221603 
L 314.957596 286.841069 
L 317.324721 287.819898 
L 319.967498 288.650505 
L 322.829995 289.293375 
L 325.799408 289.711002 
L 328.134293 289.836231 
L 331.327536 289.753469 
L 334.064065 289.404192 
L 338.792786 288.564923 
L 342.764389 287.899256 
L 344.671607 287.869502 
L 345.841306 288.009145 
L 347.331161 288.448145 
L 348.946127 289.285004 
L 360.464034 296.012936 
L 361.478374 296.948483 
L 362.163742 297.901068 
L 362.528681 298.828349 
L 363.333015 301.427438 
L 365.127211 307.216204 
L 365.775902 308.556033 
L 366.278909 309.205083 
L 367.381407 310.123699 
L 370.805922 312.176359 
L 376.056157 314.947717 
L 381.656607 317.930765 
L 383.570891 319.136717 
L 384.014175 319.644182 
L 384.127896 320.188221 
L 383.755381 320.632491 
L 382.839013 321.016663 
L 380.760103 321.517952 
L 338.057317 330.678214 
L 320.562309 335.001227 
L 305.062848 338.916058 
L 303.540128 339.309406 
L 288.949146 343.056716 
L 281.473309 344.992917 
L 274.992704 346.626761 
L 252.324828 352.224734 
L 241.969595 354.735971 
L 238.841575 355.754028 
L 237.037147 356.599609 
L 236.062681 357.238571 
L 234.954935 358.269181 
L 228.244293 365.10253 
L 227.882154 365.754075 
L 227.820908 366.391998 
L 228.068117 367.058614 
L 228.619022 367.653569 
L 229.507051 368.205075 
L 230.713351 368.723184 
L 233.012784 369.376184 
L 237.438173 370.260114 
L 244.645634 371.498024 
L 253.291733 372.97807 
L 264.689006 375.023326 
L 282.568521 378.090129 
L 289.394175 379.327355 
L 292.407803 380.023085 
L 294.360768 380.756577 
L 295.424453 381.302091 
L 296.552949 382.253401 
L 296.94603 382.911802 
L 297.041105 383.560138 
L 296.929235 384.210753 
L 296.64007 384.876291 
L 295.940205 385.921929 
L 293.488292 388.617175 
L 289.855129 392.275969 
L 286.565449 394.947101 
L 284.352093 396.937348 
L 283.643541 397.809919 
L 283.370483 398.381429 
L 283.391768 398.64896 
L 283.526202 398.891398 
L 284.195593 399.288919 
L 285.205884 399.56552 
L 286.337672 399.696056 
L 287.806467 399.604533 
L 288.733116 399.303582 
L 289.428363 398.70479 
L 290.482191 397.515756 
L 293.39246 394.506595 
L 293.39246 394.506595 
" clip-path="url(#p4dce2bb544)" style="fill: none; stroke: #ff0000; stroke-width: 2; stroke-linecap: square"/>
   </g>
   <g id="line2d_35">
    <path d="M 267.092822 400.413525 
L 267.086074 400.4114 
L 267.330042 400.233447 
L 269.875583 398.269614 
L 276.179587 393.33975 
L 284.314164 387.132259 
L 285.80993 386.449097 
L 287.239358 385.988401 
L 288.457519 385.730418 
L 290.22251 385.485638 
L 295.255614 385.537075 
L 298.381635 385.967758 
L 306.407695 387.281025 
L 312.674691 388.305858 
L 322.120286 389.708082 
L 332.45902 391.244044 
L 339.957369 392.359246 
L 345.768066 393.178265 
L 379.765108 398.004412 
L 387.915055 398.853085 
L 395.264063 399.081596 
L 401.72683 398.688557 
L 405.721264 398.16608 
L 410.00225 397.391879 
L 428.342386 393.500911 
L 437.212899 391.545158 
L 455.877198 387.441904 
L 476.527446 382.919655 
L 496.514722 378.380678 
L 503.378549 376.842673 
L 514.018798 374.431995 
L 515.57247 373.786201 
L 516.433447 373.226695 
L 516.951446 372.705334 
L 517.213956 372.149243 
L 517.220247 371.605608 
L 517.002242 371.008077 
L 516.443876 370.337218 
L 515.315688 369.502935 
L 513.902483 368.69158 
L 508.166921 365.840481 
L 497.93901 360.895871 
L 495.906786 359.803958 
L 489.717322 356.61137 
L 483.656616 353.452411 
L 473.533362 348.150037 
L 466.57763 344.622827 
L 415.738884 317.373122 
L 408.857095 313.488473 
L 391.290193 303.841843 
L 387.413101 301.679857 
L 378.438544 296.739846 
L 314.773718 261.827651 
L 311.847734 260.20591 
L 287.747321 247.06561 
L 285.125745 245.690598 
L 281.360494 244.546222 
L 279.291044 244.335554 
L 277.305034 244.404398 
L 275.35488 244.695152 
L 268.804727 246.108832 
L 249.333126 250.558224 
L 248.158403 251.144082 
L 247.614754 251.656769 
L 247.427937 252.180515 
L 247.566386 252.607702 
L 248.037996 253.107283 
L 249.16499 253.838599 
L 251.501534 255.106114 
L 257.192086 258.263966 
L 269.574114 265.164805 
L 273.810218 268.011898 
L 279.358395 272.080617 
L 284.805782 276.115597 
L 287.77333 278.321804 
L 297.205716 284.892072 
L 303.375379 288.657426 
L 309.079363 291.847257 
L 314.319613 294.545975 
L 316.580277 295.458471 
L 319.110466 296.243879 
L 321.596148 296.816295 
L 324.239637 297.234237 
L 327.197356 297.468397 
L 329.727683 297.475149 
L 332.249282 297.295156 
L 335.500747 296.834408 
L 344.070547 295.555721 
L 345.435812 295.623157 
L 346.982113 295.971882 
L 348.163569 296.433699 
L 352.616175 298.751773 
L 360.450004 302.994158 
L 361.407702 303.911013 
L 361.88011 304.629917 
L 362.172913 305.464867 
L 363.64363 310.478379 
L 364.567872 313.354816 
L 365.104893 314.339426 
L 365.881282 315.129703 
L 367.471938 316.169075 
L 370.030908 317.534216 
L 375.97592 320.449055 
L 382.074922 323.578967 
L 382.836753 324.278447 
L 382.941663 324.701114 
L 382.809384 324.953915 
L 382.458747 325.224694 
L 381.572819 325.554908 
L 379.32691 326.070946 
L 355.929113 330.83777 
L 346.199115 332.80711 
L 340.210749 334.00506 
L 336.994363 334.763378 
L 323.657483 337.980231 
L 303.819401 342.944848 
L 301.524449 343.575194 
L 289.982152 346.626717 
L 283.298701 348.42874 
L 276.781979 350.169179 
L 247.294433 357.857275 
L 240.316373 359.655927 
L 236.441306 360.94038 
L 234.552417 361.831357 
L 233.312418 362.667792 
L 232.20225 363.758475 
L 229.704152 366.347821 
L 225.23615 371.098222 
L 224.958729 371.781522 
L 224.977581 372.37214 
L 225.220522 372.962554 
L 225.712129 373.492003 
L 226.575932 374.058418 
L 227.763502 374.578113 
L 230.239268 375.27503 
L 234.420176 376.091376 
L 240.205421 377.085905 
L 249.179873 378.575697 
L 255.659739 379.753145 
L 264.48016 381.296096 
L 288.698548 385.705423 
L 290.69157 386.424805 
L 292.035526 387.129337 
L 292.910536 387.862931 
L 293.420477 388.63167 
L 293.55459 389.235161 
L 293.430722 390.084901 
L 293.033713 390.954202 
L 292.417089 391.848279 
L 289.501499 395.056205 
L 285.878047 398.706289 
L 283.918876 400.367772 
L 281.380001 402.486037 
L 279.971758 403.850977 
L 279.247701 404.914594 
L 279.155664 405.272686 
L 279.34068 405.659196 
L 279.927232 406.021755 
L 281.067762 406.330733 
L 282.477244 406.431394 
L 283.828104 406.247775 
L 284.589645 405.921152 
L 285.36837 405.228303 
L 286.301553 404.174267 
L 287.223922 403.213103 
L 289.779095 400.575867 
L 289.779095 400.575867 
" clip-path="url(#p4dce2bb544)" style="fill: none; stroke: #0000ff; stroke-width: 2; stroke-linecap: square"/>
   </g>
   <g id="Path3DCollection_1">
    <defs>
     <path id="m95425f20aa" d="M 0 -5 
L -1.12257 -1.545085 
L -4.755283 -1.545085 
L -1.816356 0.59017 
L -2.938926 4.045085 
L -0 1.90983 
L 2.938926 4.045085 
L 1.816356 0.59017 
L 4.755283 -1.545085 
L 1.12257 -1.545085 
z
" style="stroke: #ff0000"/>
    </defs>
    <g clip-path="url(#p4dce2bb544)">
     <use xlink:href="#m95425f20aa" x="267.096589" y="400.414424" style="fill: #ff0000; stroke: #ff0000"/>
    </g>
   </g>
   <g id="legend_1">
    <g id="patch_6">
     <path d="M 74.2475 84.9621 
L 589.9525 84.9621 
Q 593.1525 84.9621 593.1525 81.7621 
L 593.1525 60.7396 
Q 593.1525 57.5396 589.9525 57.5396 
L 74.2475 57.5396 
Q 71.0475 57.5396 71.0475 60.7396 
L 71.0475 81.7621 
Q 71.0475 84.9621 74.2475 84.9621 
z
" style="fill: #ffffff; opacity: 0.8; stroke: #cccccc; stroke-linejoin: miter"/>
    </g>
    <g id="line2d_36">
     <g>
      <use xlink:href="#mc2ecde9037" x="93.4475" y="69.5396" style="fill: #ff0000; stroke: #ff0000; stroke-linejoin: bevel"/>
     </g>
    </g>
    <g id="text_32">
     <!-- Start -->
     <g transform="translate(122.2475 75.1396) scale(0.16 -0.16)">
      <defs>
       <path id="TimesNewRomanPSMT-53" d="M 2934 4334 
L 2934 2869 
L 2819 2869 
Q 2763 3291 2617 3541 
Q 2472 3791 2203 3937 
Q 1934 4084 1647 4084 
Q 1322 4084 1109 3886 
Q 897 3688 897 3434 
Q 897 3241 1031 3081 
Q 1225 2847 1953 2456 
Q 2547 2138 2764 1967 
Q 2981 1797 3098 1565 
Q 3216 1334 3216 1081 
Q 3216 600 2842 251 
Q 2469 -97 1881 -97 
Q 1697 -97 1534 -69 
Q 1438 -53 1133 45 
Q 828 144 747 144 
Q 669 144 623 97 
Q 578 50 556 -97 
L 441 -97 
L 441 1356 
L 556 1356 
Q 638 900 775 673 
Q 913 447 1195 297 
Q 1478 147 1816 147 
Q 2206 147 2432 353 
Q 2659 559 2659 841 
Q 2659 997 2573 1156 
Q 2488 1316 2306 1453 
Q 2184 1547 1640 1851 
Q 1097 2156 867 2337 
Q 638 2519 519 2737 
Q 400 2956 400 3219 
Q 400 3675 750 4004 
Q 1100 4334 1641 4334 
Q 1978 4334 2356 4169 
Q 2531 4091 2603 4091 
Q 2684 4091 2736 4139 
Q 2788 4188 2819 4334 
L 2934 4334 
z
" transform="scale(0.015625)"/>
       <path id="TimesNewRomanPSMT-74" d="M 1031 3803 
L 1031 2863 
L 1700 2863 
L 1700 2644 
L 1031 2644 
L 1031 788 
Q 1031 509 1111 412 
Q 1191 316 1316 316 
Q 1419 316 1516 380 
Q 1613 444 1666 569 
L 1788 569 
Q 1678 263 1478 108 
Q 1278 -47 1066 -47 
Q 922 -47 784 33 
Q 647 113 581 261 
Q 516 409 516 719 
L 516 2644 
L 63 2644 
L 63 2747 
Q 234 2816 414 2980 
Q 594 3144 734 3369 
Q 806 3488 934 3803 
L 1031 3803 
z
" transform="scale(0.015625)"/>
       <path id="TimesNewRomanPSMT-61" d="M 1822 413 
Q 1381 72 1269 19 
Q 1100 -59 909 -59 
Q 613 -59 420 144 
Q 228 347 228 678 
Q 228 888 322 1041 
Q 450 1253 767 1440 
Q 1084 1628 1822 1897 
L 1822 2009 
Q 1822 2438 1686 2597 
Q 1550 2756 1291 2756 
Q 1094 2756 978 2650 
Q 859 2544 859 2406 
L 866 2225 
Q 866 2081 792 2003 
Q 719 1925 600 1925 
Q 484 1925 411 2006 
Q 338 2088 338 2228 
Q 338 2497 613 2722 
Q 888 2947 1384 2947 
Q 1766 2947 2009 2819 
Q 2194 2722 2281 2516 
Q 2338 2381 2338 1966 
L 2338 994 
Q 2338 584 2353 492 
Q 2369 400 2405 369 
Q 2441 338 2488 338 
Q 2538 338 2575 359 
Q 2641 400 2828 588 
L 2828 413 
Q 2478 -56 2159 -56 
Q 2006 -56 1915 50 
Q 1825 156 1822 413 
z
M 1822 616 
L 1822 1706 
Q 1350 1519 1213 1441 
Q 966 1303 859 1153 
Q 753 1003 753 825 
Q 753 600 887 451 
Q 1022 303 1197 303 
Q 1434 303 1822 616 
z
" transform="scale(0.015625)"/>
       <path id="TimesNewRomanPSMT-72" d="M 1038 2947 
L 1038 2303 
Q 1397 2947 1775 2947 
Q 1947 2947 2059 2842 
Q 2172 2738 2172 2600 
Q 2172 2478 2090 2393 
Q 2009 2309 1897 2309 
Q 1788 2309 1652 2417 
Q 1516 2525 1450 2525 
Q 1394 2525 1328 2463 
Q 1188 2334 1038 2041 
L 1038 669 
Q 1038 431 1097 309 
Q 1138 225 1241 169 
Q 1344 113 1538 113 
L 1538 0 
L 72 0 
L 72 113 
Q 291 113 397 181 
Q 475 231 506 341 
Q 522 394 522 644 
L 522 1753 
Q 522 2253 501 2348 
Q 481 2444 426 2487 
Q 372 2531 291 2531 
Q 194 2531 72 2484 
L 41 2597 
L 906 2947 
L 1038 2947 
z
" transform="scale(0.015625)"/>
      </defs>
      <use xlink:href="#TimesNewRomanPSMT-53"/>
      <use xlink:href="#TimesNewRomanPSMT-74" x="55.615234"/>
      <use xlink:href="#TimesNewRomanPSMT-61" x="83.398438"/>
      <use xlink:href="#TimesNewRomanPSMT-72" x="127.783203"/>
      <use xlink:href="#TimesNewRomanPSMT-74" x="161.083984"/>
     </g>
    </g>
    <g id="line2d_37">
     <path d="M 184.465 69.5396 
L 200.465 69.5396 
L 216.465 69.5396 
" style="fill: none; stroke-dasharray: 10.175,4.4; stroke-dashoffset: 0; stroke: #808a87; stroke-width: 2.75"/>
    </g>
    <g id="text_33">
     <!-- GroundTruth -->
     <g transform="translate(229.265 75.1396) scale(0.16 -0.16)">
      <defs>
       <path id="TimesNewRomanPSMT-47" d="M 3928 4334 
L 4038 2997 
L 3928 2997 
Q 3763 3497 3500 3750 
Q 3122 4116 2528 4116 
Q 1719 4116 1297 3475 
Q 944 2934 944 2188 
Q 944 1581 1178 1081 
Q 1413 581 1792 348 
Q 2172 116 2572 116 
Q 2806 116 3025 175 
Q 3244 234 3447 350 
L 3447 1575 
Q 3447 1894 3398 1992 
Q 3350 2091 3248 2142 
Q 3147 2194 2891 2194 
L 2891 2313 
L 4531 2313 
L 4531 2194 
L 4453 2194 
Q 4209 2194 4119 2031 
Q 4056 1916 4056 1575 
L 4056 278 
Q 3697 84 3347 -6 
Q 2997 -97 2569 -97 
Q 1341 -97 703 691 
Q 225 1281 225 2053 
Q 225 2613 494 3125 
Q 813 3734 1369 4063 
Q 1834 4334 2469 4334 
Q 2700 4334 2889 4296 
Q 3078 4259 3425 4131 
Q 3600 4066 3659 4066 
Q 3719 4066 3761 4120 
Q 3803 4175 3813 4334 
L 3928 4334 
z
" transform="scale(0.015625)"/>
       <path id="TimesNewRomanPSMT-6f" d="M 1600 2947 
Q 2250 2947 2644 2453 
Q 2978 2031 2978 1484 
Q 2978 1100 2793 706 
Q 2609 313 2286 112 
Q 1963 -88 1566 -88 
Q 919 -88 538 428 
Q 216 863 216 1403 
Q 216 1797 411 2186 
Q 606 2575 925 2761 
Q 1244 2947 1600 2947 
z
M 1503 2744 
Q 1338 2744 1170 2645 
Q 1003 2547 900 2300 
Q 797 2053 797 1666 
Q 797 1041 1045 587 
Q 1294 134 1700 134 
Q 2003 134 2200 384 
Q 2397 634 2397 1244 
Q 2397 2006 2069 2444 
Q 1847 2744 1503 2744 
z
" transform="scale(0.015625)"/>
       <path id="TimesNewRomanPSMT-75" d="M 2709 2863 
L 2709 1128 
Q 2709 631 2732 520 
Q 2756 409 2807 365 
Q 2859 322 2928 322 
Q 3025 322 3147 375 
L 3191 266 
L 2334 -88 
L 2194 -88 
L 2194 519 
Q 1825 119 1631 15 
Q 1438 -88 1222 -88 
Q 981 -88 804 51 
Q 628 191 559 409 
Q 491 628 491 1028 
L 491 2306 
Q 491 2509 447 2587 
Q 403 2666 317 2708 
Q 231 2750 6 2747 
L 6 2863 
L 1009 2863 
L 1009 947 
Q 1009 547 1148 422 
Q 1288 297 1484 297 
Q 1619 297 1789 381 
Q 1959 466 2194 703 
L 2194 2325 
Q 2194 2569 2105 2655 
Q 2016 2741 1734 2747 
L 1734 2863 
L 2709 2863 
z
" transform="scale(0.015625)"/>
       <path id="TimesNewRomanPSMT-6e" d="M 1034 2341 
Q 1538 2947 1994 2947 
Q 2228 2947 2397 2830 
Q 2566 2713 2666 2444 
Q 2734 2256 2734 1869 
L 2734 647 
Q 2734 375 2778 278 
Q 2813 200 2889 156 
Q 2966 113 3172 113 
L 3172 0 
L 1756 0 
L 1756 113 
L 1816 113 
Q 2016 113 2095 173 
Q 2175 234 2206 353 
Q 2219 400 2219 647 
L 2219 1819 
Q 2219 2209 2117 2386 
Q 2016 2563 1775 2563 
Q 1403 2563 1034 2156 
L 1034 647 
Q 1034 356 1069 288 
Q 1113 197 1189 155 
Q 1266 113 1500 113 
L 1500 0 
L 84 0 
L 84 113 
L 147 113 
Q 366 113 442 223 
Q 519 334 519 647 
L 519 1709 
Q 519 2225 495 2337 
Q 472 2450 423 2490 
Q 375 2531 294 2531 
Q 206 2531 84 2484 
L 38 2597 
L 900 2947 
L 1034 2947 
L 1034 2341 
z
" transform="scale(0.015625)"/>
       <path id="TimesNewRomanPSMT-64" d="M 2222 322 
Q 2013 103 1813 7 
Q 1613 -88 1381 -88 
Q 913 -88 563 304 
Q 213 697 213 1313 
Q 213 1928 600 2439 
Q 988 2950 1597 2950 
Q 1975 2950 2222 2709 
L 2222 3238 
Q 2222 3728 2198 3840 
Q 2175 3953 2125 3993 
Q 2075 4034 2000 4034 
Q 1919 4034 1784 3984 
L 1744 4094 
L 2597 4444 
L 2738 4444 
L 2738 1134 
Q 2738 631 2761 520 
Q 2784 409 2836 365 
Q 2888 322 2956 322 
Q 3041 322 3181 375 
L 3216 266 
L 2366 -88 
L 2222 -88 
L 2222 322 
z
M 2222 541 
L 2222 2016 
Q 2203 2228 2109 2403 
Q 2016 2578 1861 2667 
Q 1706 2756 1559 2756 
Q 1284 2756 1069 2509 
Q 784 2184 784 1559 
Q 784 928 1059 592 
Q 1334 256 1672 256 
Q 1956 256 2222 541 
z
" transform="scale(0.015625)"/>
       <path id="TimesNewRomanPSMT-54" d="M 3703 4238 
L 3750 3244 
L 3631 3244 
Q 3597 3506 3538 3619 
Q 3441 3800 3280 3886 
Q 3119 3972 2856 3972 
L 2259 3972 
L 2259 734 
Q 2259 344 2344 247 
Q 2463 116 2709 116 
L 2856 116 
L 2856 0 
L 1059 0 
L 1059 116 
L 1209 116 
Q 1478 116 1591 278 
Q 1659 378 1659 734 
L 1659 3972 
L 1150 3972 
Q 853 3972 728 3928 
Q 566 3869 450 3700 
Q 334 3531 313 3244 
L 194 3244 
L 244 4238 
L 3703 4238 
z
" transform="scale(0.015625)"/>
       <path id="TimesNewRomanPSMT-68" d="M 1041 4444 
L 1041 2350 
Q 1388 2731 1591 2839 
Q 1794 2947 1997 2947 
Q 2241 2947 2416 2812 
Q 2591 2678 2675 2391 
Q 2734 2191 2734 1659 
L 2734 647 
Q 2734 375 2778 275 
Q 2809 200 2884 156 
Q 2959 113 3159 113 
L 3159 0 
L 1753 0 
L 1753 113 
L 1819 113 
Q 2019 113 2097 173 
Q 2175 234 2206 353 
Q 2216 403 2216 647 
L 2216 1659 
Q 2216 2128 2167 2275 
Q 2119 2422 2012 2495 
Q 1906 2569 1756 2569 
Q 1603 2569 1437 2487 
Q 1272 2406 1041 2159 
L 1041 647 
Q 1041 353 1073 281 
Q 1106 209 1195 161 
Q 1284 113 1503 113 
L 1503 0 
L 84 0 
L 84 113 
Q 275 113 384 172 
Q 447 203 484 290 
Q 522 378 522 647 
L 522 3238 
Q 522 3728 498 3840 
Q 475 3953 426 3993 
Q 378 4034 297 4034 
Q 231 4034 84 3984 
L 41 4094 
L 897 4444 
L 1041 4444 
z
" transform="scale(0.015625)"/>
      </defs>
      <use xlink:href="#TimesNewRomanPSMT-47"/>
      <use xlink:href="#TimesNewRomanPSMT-72" x="72.216797"/>
      <use xlink:href="#TimesNewRomanPSMT-6f" x="105.517578"/>
      <use xlink:href="#TimesNewRomanPSMT-75" x="155.517578"/>
      <use xlink:href="#TimesNewRomanPSMT-6e" x="205.517578"/>
      <use xlink:href="#TimesNewRomanPSMT-64" x="255.517578"/>
      <use xlink:href="#TimesNewRomanPSMT-54" x="305.517578"/>
      <use xlink:href="#TimesNewRomanPSMT-72" x="363.101562"/>
      <use xlink:href="#TimesNewRomanPSMT-75" x="396.402344"/>
      <use xlink:href="#TimesNewRomanPSMT-74" x="446.402344"/>
      <use xlink:href="#TimesNewRomanPSMT-68" x="474.185547"/>
     </g>
    </g>
    <g id="line2d_38">
     <path d="M 345.1325 69.5396 
L 361.1325 69.5396 
L 377.1325 69.5396 
" style="fill: none; stroke: #ff0000; stroke-width: 2; stroke-linecap: square"/>
    </g>
    <g id="text_34">
     <!-- ROLO -->
     <g transform="translate(389.9325 75.1396) scale(0.16 -0.16)">
      <defs>
       <path id="TimesNewRomanPSMT-52" d="M 4325 0 
L 3194 0 
L 1759 1981 
Q 1600 1975 1500 1975 
Q 1459 1975 1412 1976 
Q 1366 1978 1316 1981 
L 1316 750 
Q 1316 350 1403 253 
Q 1522 116 1759 116 
L 1925 116 
L 1925 0 
L 109 0 
L 109 116 
L 269 116 
Q 538 116 653 291 
Q 719 388 719 750 
L 719 3488 
Q 719 3888 631 3984 
Q 509 4122 269 4122 
L 109 4122 
L 109 4238 
L 1653 4238 
Q 2328 4238 2648 4139 
Q 2969 4041 3192 3777 
Q 3416 3513 3416 3147 
Q 3416 2756 3161 2468 
Q 2906 2181 2372 2063 
L 3247 847 
Q 3547 428 3762 290 
Q 3978 153 4325 116 
L 4325 0 
z
M 1316 2178 
Q 1375 2178 1419 2176 
Q 1463 2175 1491 2175 
Q 2097 2175 2405 2437 
Q 2713 2700 2713 3106 
Q 2713 3503 2464 3751 
Q 2216 4000 1806 4000 
Q 1625 4000 1316 3941 
L 1316 2178 
z
" transform="scale(0.015625)"/>
       <path id="TimesNewRomanPSMT-4f" d="M 2341 4334 
Q 3166 4334 3770 3707 
Q 4375 3081 4375 2144 
Q 4375 1178 3765 540 
Q 3156 -97 2291 -97 
Q 1416 -97 820 525 
Q 225 1147 225 2134 
Q 225 3144 913 3781 
Q 1509 4334 2341 4334 
z
M 2281 4106 
Q 1713 4106 1369 3684 
Q 941 3159 941 2147 
Q 941 1109 1384 550 
Q 1725 125 2284 125 
Q 2881 125 3270 590 
Q 3659 1056 3659 2059 
Q 3659 3147 3231 3681 
Q 2888 4106 2281 4106 
z
" transform="scale(0.015625)"/>
       <path id="TimesNewRomanPSMT-4c" d="M 3669 1172 
L 3772 1150 
L 3409 0 
L 128 0 
L 128 116 
L 288 116 
Q 556 116 672 291 
Q 738 391 738 753 
L 738 3488 
Q 738 3884 650 3984 
Q 528 4122 288 4122 
L 128 4122 
L 128 4238 
L 2047 4238 
L 2047 4122 
Q 1709 4125 1573 4059 
Q 1438 3994 1388 3894 
Q 1338 3794 1338 3416 
L 1338 753 
Q 1338 494 1388 397 
Q 1425 331 1503 300 
Q 1581 269 1991 269 
L 2300 269 
Q 2788 269 2984 341 
Q 3181 413 3343 595 
Q 3506 778 3669 1172 
z
" transform="scale(0.015625)"/>
      </defs>
      <use xlink:href="#TimesNewRomanPSMT-52"/>
      <use xlink:href="#TimesNewRomanPSMT-4f" x="66.699219"/>
      <use xlink:href="#TimesNewRomanPSMT-4c" x="138.916016"/>
      <use xlink:href="#TimesNewRomanPSMT-4f" x="200"/>
     </g>
    </g>
    <g id="line2d_39">
     <path d="M 465.4875 69.5396 
L 481.4875 69.5396 
L 497.4875 69.5396 
" style="fill: none; stroke: #0000ff; stroke-width: 2; stroke-linecap: square"/>
    </g>
    <g id="text_35">
     <!-- FAST-LIO2 -->
     <g transform="translate(510.2875 75.1396) scale(0.16 -0.16)">
      <defs>
       <path id="TimesNewRomanPSMT-46" d="M 1309 4006 
L 1309 2341 
L 2081 2341 
Q 2347 2341 2470 2458 
Q 2594 2575 2634 2922 
L 2750 2922 
L 2750 1488 
L 2634 1488 
Q 2631 1734 2570 1850 
Q 2509 1966 2401 2023 
Q 2294 2081 2081 2081 
L 1309 2081 
L 1309 750 
Q 1309 428 1350 325 
Q 1381 247 1481 191 
Q 1619 116 1769 116 
L 1922 116 
L 1922 0 
L 103 0 
L 103 116 
L 253 116 
Q 516 116 634 269 
Q 709 369 709 750 
L 709 3488 
Q 709 3809 669 3913 
Q 638 3991 541 4047 
Q 406 4122 253 4122 
L 103 4122 
L 103 4238 
L 3256 4238 
L 3297 3306 
L 3188 3306 
Q 3106 3603 2998 3742 
Q 2891 3881 2733 3943 
Q 2575 4006 2244 4006 
L 1309 4006 
z
" transform="scale(0.015625)"/>
       <path id="TimesNewRomanPSMT-41" d="M 2928 1419 
L 1288 1419 
L 1000 750 
Q 894 503 894 381 
Q 894 284 986 211 
Q 1078 138 1384 116 
L 1384 0 
L 50 0 
L 50 116 
Q 316 163 394 238 
Q 553 388 747 847 
L 2238 4334 
L 2347 4334 
L 3822 809 
Q 4000 384 4145 257 
Q 4291 131 4550 116 
L 4550 0 
L 2878 0 
L 2878 116 
Q 3131 128 3220 200 
Q 3309 272 3309 375 
Q 3309 513 3184 809 
L 2928 1419 
z
M 2841 1650 
L 2122 3363 
L 1384 1650 
L 2841 1650 
z
" transform="scale(0.015625)"/>
       <path id="TimesNewRomanPSMT-2d" d="M 259 1672 
L 1875 1672 
L 1875 1200 
L 259 1200 
L 259 1672 
z
" transform="scale(0.015625)"/>
       <path id="TimesNewRomanPSMT-49" d="M 1975 116 
L 1975 0 
L 159 0 
L 159 116 
L 309 116 
Q 572 116 691 269 
Q 766 369 766 750 
L 766 3488 
Q 766 3809 725 3913 
Q 694 3991 597 4047 
Q 459 4122 309 4122 
L 159 4122 
L 159 4238 
L 1975 4238 
L 1975 4122 
L 1822 4122 
Q 1563 4122 1444 3969 
Q 1366 3869 1366 3488 
L 1366 750 
Q 1366 428 1406 325 
Q 1438 247 1538 191 
Q 1672 116 1822 116 
L 1975 116 
z
" transform="scale(0.015625)"/>
       <path id="TimesNewRomanPSMT-32" d="M 2934 816 
L 2638 0 
L 138 0 
L 138 116 
Q 1241 1122 1691 1759 
Q 2141 2397 2141 2925 
Q 2141 3328 1894 3587 
Q 1647 3847 1303 3847 
Q 991 3847 742 3664 
Q 494 3481 375 3128 
L 259 3128 
Q 338 3706 661 4015 
Q 984 4325 1469 4325 
Q 1984 4325 2329 3994 
Q 2675 3663 2675 3213 
Q 2675 2891 2525 2569 
Q 2294 2063 1775 1497 
Q 997 647 803 472 
L 1909 472 
Q 2247 472 2383 497 
Q 2519 522 2628 598 
Q 2738 675 2819 816 
L 2934 816 
z
" transform="scale(0.015625)"/>
      </defs>
      <use xlink:href="#TimesNewRomanPSMT-46"/>
      <use xlink:href="#TimesNewRomanPSMT-41" x="48.240234"/>
      <use xlink:href="#TimesNewRomanPSMT-53" x="120.457031"/>
      <use xlink:href="#TimesNewRomanPSMT-54" x="176.072266"/>
      <use xlink:href="#TimesNewRomanPSMT-2d" x="228.03125"/>
      <use xlink:href="#TimesNewRomanPSMT-4c" x="261.332031"/>
      <use xlink:href="#TimesNewRomanPSMT-49" x="322.416016"/>
      <use xlink:href="#TimesNewRomanPSMT-4f" x="355.716797"/>
      <use xlink:href="#TimesNewRomanPSMT-32" x="427.933594"/>
     </g>
    </g>
   </g>
  </g>
 </g>
 <defs>
  <clipPath id="p4dce2bb544">
   <rect x="42.12" y="43.74" width="579.96" height="579.96"/>
  </clipPath>
 </defs>
</svg>
