<?xml version="1.0" encoding="utf-8" standalone="no"?>
<!DOCTYPE svg PUBLIC "-//W3C//DTD SVG 1.1//EN"
  "http://www.w3.org/Graphics/SVG/1.1/DTD/svg11.dtd">
<svg xmlns:xlink="http://www.w3.org/1999/xlink" width="720pt" height="360pt" viewBox="0 0 720 360" xmlns="http://www.w3.org/2000/svg" version="1.1">
 <metadata>
  <rdf:RDF xmlns:dc="http://purl.org/dc/elements/1.1/" xmlns:cc="http://creativecommons.org/ns#" xmlns:rdf="http://www.w3.org/1999/02/22-rdf-syntax-ns#">
   <cc:Work>
    <dc:type rdf:resource="http://purl.org/dc/dcmitype/StillImage"/>
    <dc:date>2024-08-06T11:13:37.970605</dc:date>
    <dc:format>image/svg+xml</dc:format>
    <dc:creator>
     <cc:Agent>
      <dc:title>Matplotlib v3.8.3, https://matplotlib.org/</dc:title>
     </cc:Agent>
    </dc:creator>
   </cc:Work>
  </rdf:RDF>
 </metadata>
 <defs>
  <style type="text/css">*{stroke-linejoin: round; stroke-linecap: butt}</style>
 </defs>
 <g id="figure_1">
  <g id="patch_1">
   <path d="M 0 360 
L 720 360 
L 720 0 
L 0 0 
z
" style="fill: #ffffff"/>
  </g>
  <g id="axes_1">
   <g id="patch_2">
    <path d="M 82.8 313.2 
L 709.2 313.2 
L 709.2 19.8 
L 82.8 19.8 
z
" style="fill: #ffffff"/>
   </g>
   <g id="matplotlib.axis_1">
    <g id="xtick_1">
     <g id="line2d_1">
      <path d="M 103.006452 313.2 
L 103.006452 19.8 
" clip-path="url(#p2153cb2fe7)" style="fill: none; stroke-dasharray: 2.96,1.28; stroke-dashoffset: 0; stroke: #bdc3c7; stroke-width: 0.8"/>
     </g>
     <g id="line2d_2">
      <defs>
       <path id="m33a758e0fd" d="M 0 0 
L 0 -3.5 
" style="stroke: #000000; stroke-width: 0.8"/>
      </defs>
      <g>
       <use xlink:href="#m33a758e0fd" x="103.006452" y="313.2" style="stroke: #000000; stroke-width: 0.8"/>
      </g>
     </g>
     <g id="text_1">
      <!-- 0 -->
      <g transform="translate(97.280202 330.377187) scale(0.18 -0.18)">
       <defs>
        <path id="DejaVuSans-30" d="M 2034 4250 
Q 1547 4250 1301 3770 
Q 1056 3291 1056 2328 
Q 1056 1369 1301 889 
Q 1547 409 2034 409 
Q 2525 409 2770 889 
Q 3016 1369 3016 2328 
Q 3016 3291 2770 3770 
Q 2525 4250 2034 4250 
z
M 2034 4750 
Q 2819 4750 3233 4129 
Q 3647 3509 3647 2328 
Q 3647 1150 3233 529 
Q 2819 -91 2034 -91 
Q 1250 -91 836 529 
Q 422 1150 422 2328 
Q 422 3509 836 4129 
Q 1250 4750 2034 4750 
z
" transform="scale(0.015625)"/>
       </defs>
       <use xlink:href="#DejaVuSans-30"/>
      </g>
     </g>
    </g>
    <g id="xtick_2">
     <g id="line2d_3">
      <path d="M 237.716129 313.2 
L 237.716129 19.8 
" clip-path="url(#p2153cb2fe7)" style="fill: none; stroke-dasharray: 2.96,1.28; stroke-dashoffset: 0; stroke: #bdc3c7; stroke-width: 0.8"/>
     </g>
     <g id="line2d_4">
      <g>
       <use xlink:href="#m33a758e0fd" x="237.716129" y="313.2" style="stroke: #000000; stroke-width: 0.8"/>
      </g>
     </g>
     <g id="text_2">
      <!-- 100 -->
      <g transform="translate(220.537379 330.377187) scale(0.18 -0.18)">
       <defs>
        <path id="DejaVuSans-31" d="M 794 531 
L 1825 531 
L 1825 4091 
L 703 3866 
L 703 4441 
L 1819 4666 
L 2450 4666 
L 2450 531 
L 3481 531 
L 3481 0 
L 794 0 
L 794 531 
z
" transform="scale(0.015625)"/>
       </defs>
       <use xlink:href="#DejaVuSans-31"/>
       <use xlink:href="#DejaVuSans-30" x="63.623047"/>
       <use xlink:href="#DejaVuSans-30" x="127.246094"/>
      </g>
     </g>
    </g>
    <g id="xtick_3">
     <g id="line2d_5">
      <path d="M 372.425806 313.2 
L 372.425806 19.8 
" clip-path="url(#p2153cb2fe7)" style="fill: none; stroke-dasharray: 2.96,1.28; stroke-dashoffset: 0; stroke: #bdc3c7; stroke-width: 0.8"/>
     </g>
     <g id="line2d_6">
      <g>
       <use xlink:href="#m33a758e0fd" x="372.425806" y="313.2" style="stroke: #000000; stroke-width: 0.8"/>
      </g>
     </g>
     <g id="text_3">
      <!-- 200 -->
      <g transform="translate(355.247056 330.377187) scale(0.18 -0.18)">
       <defs>
        <path id="DejaVuSans-32" d="M 1228 531 
L 3431 531 
L 3431 0 
L 469 0 
L 469 531 
Q 828 903 1448 1529 
Q 2069 2156 2228 2338 
Q 2531 2678 2651 2914 
Q 2772 3150 2772 3378 
Q 2772 3750 2511 3984 
Q 2250 4219 1831 4219 
Q 1534 4219 1204 4116 
Q 875 4013 500 3803 
L 500 4441 
Q 881 4594 1212 4672 
Q 1544 4750 1819 4750 
Q 2544 4750 2975 4387 
Q 3406 4025 3406 3419 
Q 3406 3131 3298 2873 
Q 3191 2616 2906 2266 
Q 2828 2175 2409 1742 
Q 1991 1309 1228 531 
z
" transform="scale(0.015625)"/>
       </defs>
       <use xlink:href="#DejaVuSans-32"/>
       <use xlink:href="#DejaVuSans-30" x="63.623047"/>
       <use xlink:href="#DejaVuSans-30" x="127.246094"/>
      </g>
     </g>
    </g>
    <g id="xtick_4">
     <g id="line2d_7">
      <path d="M 507.135484 313.2 
L 507.135484 19.8 
" clip-path="url(#p2153cb2fe7)" style="fill: none; stroke-dasharray: 2.96,1.28; stroke-dashoffset: 0; stroke: #bdc3c7; stroke-width: 0.8"/>
     </g>
     <g id="line2d_8">
      <g>
       <use xlink:href="#m33a758e0fd" x="507.135484" y="313.2" style="stroke: #000000; stroke-width: 0.8"/>
      </g>
     </g>
     <g id="text_4">
      <!-- 300 -->
      <g transform="translate(489.956734 330.377187) scale(0.18 -0.18)">
       <defs>
        <path id="DejaVuSans-33" d="M 2597 2516 
Q 3050 2419 3304 2112 
Q 3559 1806 3559 1356 
Q 3559 666 3084 287 
Q 2609 -91 1734 -91 
Q 1441 -91 1130 -33 
Q 819 25 488 141 
L 488 750 
Q 750 597 1062 519 
Q 1375 441 1716 441 
Q 2309 441 2620 675 
Q 2931 909 2931 1356 
Q 2931 1769 2642 2001 
Q 2353 2234 1838 2234 
L 1294 2234 
L 1294 2753 
L 1863 2753 
Q 2328 2753 2575 2939 
Q 2822 3125 2822 3475 
Q 2822 3834 2567 4026 
Q 2313 4219 1838 4219 
Q 1578 4219 1281 4162 
Q 984 4106 628 3988 
L 628 4550 
Q 988 4650 1302 4700 
Q 1616 4750 1894 4750 
Q 2613 4750 3031 4423 
Q 3450 4097 3450 3541 
Q 3450 3153 3228 2886 
Q 3006 2619 2597 2516 
z
" transform="scale(0.015625)"/>
       </defs>
       <use xlink:href="#DejaVuSans-33"/>
       <use xlink:href="#DejaVuSans-30" x="63.623047"/>
       <use xlink:href="#DejaVuSans-30" x="127.246094"/>
      </g>
     </g>
    </g>
    <g id="xtick_5">
     <g id="line2d_9">
      <path d="M 641.845161 313.2 
L 641.845161 19.8 
" clip-path="url(#p2153cb2fe7)" style="fill: none; stroke-dasharray: 2.96,1.28; stroke-dashoffset: 0; stroke: #bdc3c7; stroke-width: 0.8"/>
     </g>
     <g id="line2d_10">
      <g>
       <use xlink:href="#m33a758e0fd" x="641.845161" y="313.2" style="stroke: #000000; stroke-width: 0.8"/>
      </g>
     </g>
     <g id="text_5">
      <!-- 400 -->
      <g transform="translate(624.666411 330.377187) scale(0.18 -0.18)">
       <defs>
        <path id="DejaVuSans-34" d="M 2419 4116 
L 825 1625 
L 2419 1625 
L 2419 4116 
z
M 2253 4666 
L 3047 4666 
L 3047 1625 
L 3713 1625 
L 3713 1100 
L 3047 1100 
L 3047 0 
L 2419 0 
L 2419 1100 
L 313 1100 
L 313 1709 
L 2253 4666 
z
" transform="scale(0.015625)"/>
       </defs>
       <use xlink:href="#DejaVuSans-34"/>
       <use xlink:href="#DejaVuSans-30" x="63.623047"/>
       <use xlink:href="#DejaVuSans-30" x="127.246094"/>
      </g>
     </g>
    </g>
    <g id="text_6">
     <!-- Time(s) -->
     <g transform="translate(358.434375 354.785625) scale(0.24 -0.24)">
      <defs>
       <path id="TimesNewRomanPSMT-54" d="M 3703 4238 
L 3750 3244 
L 3631 3244 
Q 3597 3506 3538 3619 
Q 3441 3800 3280 3886 
Q 3119 3972 2856 3972 
L 2259 3972 
L 2259 734 
Q 2259 344 2344 247 
Q 2463 116 2709 116 
L 2856 116 
L 2856 0 
L 1059 0 
L 1059 116 
L 1209 116 
Q 1478 116 1591 278 
Q 1659 378 1659 734 
L 1659 3972 
L 1150 3972 
Q 853 3972 728 3928 
Q 566 3869 450 3700 
Q 334 3531 313 3244 
L 194 3244 
L 244 4238 
L 3703 4238 
z
" transform="scale(0.015625)"/>
       <path id="TimesNewRomanPSMT-69" d="M 928 4444 
Q 1059 4444 1151 4351 
Q 1244 4259 1244 4128 
Q 1244 3997 1151 3903 
Q 1059 3809 928 3809 
Q 797 3809 703 3903 
Q 609 3997 609 4128 
Q 609 4259 701 4351 
Q 794 4444 928 4444 
z
M 1188 2947 
L 1188 647 
Q 1188 378 1227 289 
Q 1266 200 1342 156 
Q 1419 113 1622 113 
L 1622 0 
L 231 0 
L 231 113 
Q 441 113 512 153 
Q 584 194 626 287 
Q 669 381 669 647 
L 669 1750 
Q 669 2216 641 2353 
Q 619 2453 572 2492 
Q 525 2531 444 2531 
Q 356 2531 231 2484 
L 188 2597 
L 1050 2947 
L 1188 2947 
z
" transform="scale(0.015625)"/>
       <path id="TimesNewRomanPSMT-6d" d="M 1050 2338 
Q 1363 2650 1419 2697 
Q 1559 2816 1721 2881 
Q 1884 2947 2044 2947 
Q 2313 2947 2506 2790 
Q 2700 2634 2766 2338 
Q 3088 2713 3309 2830 
Q 3531 2947 3766 2947 
Q 3994 2947 4170 2830 
Q 4347 2713 4450 2447 
Q 4519 2266 4519 1878 
L 4519 647 
Q 4519 378 4559 278 
Q 4591 209 4675 161 
Q 4759 113 4950 113 
L 4950 0 
L 3538 0 
L 3538 113 
L 3597 113 
Q 3781 113 3884 184 
Q 3956 234 3988 344 
Q 4000 397 4000 647 
L 4000 1878 
Q 4000 2228 3916 2372 
Q 3794 2572 3525 2572 
Q 3359 2572 3192 2489 
Q 3025 2406 2788 2181 
L 2781 2147 
L 2788 2013 
L 2788 647 
Q 2788 353 2820 281 
Q 2853 209 2943 161 
Q 3034 113 3253 113 
L 3253 0 
L 1806 0 
L 1806 113 
Q 2044 113 2133 169 
Q 2222 225 2256 338 
Q 2272 391 2272 647 
L 2272 1878 
Q 2272 2228 2169 2381 
Q 2031 2581 1784 2581 
Q 1616 2581 1450 2491 
Q 1191 2353 1050 2181 
L 1050 647 
Q 1050 366 1089 281 
Q 1128 197 1204 155 
Q 1281 113 1516 113 
L 1516 0 
L 100 0 
L 100 113 
Q 297 113 375 155 
Q 453 197 493 289 
Q 534 381 534 647 
L 534 1741 
Q 534 2213 506 2350 
Q 484 2453 437 2492 
Q 391 2531 309 2531 
Q 222 2531 100 2484 
L 53 2597 
L 916 2947 
L 1050 2947 
L 1050 2338 
z
" transform="scale(0.015625)"/>
       <path id="TimesNewRomanPSMT-65" d="M 681 1784 
Q 678 1147 991 784 
Q 1303 422 1725 422 
Q 2006 422 2214 576 
Q 2422 731 2563 1106 
L 2659 1044 
Q 2594 616 2278 264 
Q 1963 -88 1488 -88 
Q 972 -88 605 314 
Q 238 716 238 1394 
Q 238 2128 614 2539 
Q 991 2950 1559 2950 
Q 2041 2950 2350 2633 
Q 2659 2316 2659 1784 
L 681 1784 
z
M 681 1966 
L 2006 1966 
Q 1991 2241 1941 2353 
Q 1863 2528 1708 2628 
Q 1553 2728 1384 2728 
Q 1125 2728 920 2526 
Q 716 2325 681 1966 
z
" transform="scale(0.015625)"/>
       <path id="TimesNewRomanPSMT-28" d="M 1988 -1253 
L 1988 -1369 
Q 1516 -1131 1200 -813 
Q 750 -359 506 256 
Q 263 872 263 1534 
Q 263 2503 741 3301 
Q 1219 4100 1988 4444 
L 1988 4313 
Q 1603 4100 1356 3731 
Q 1109 3363 987 2797 
Q 866 2231 866 1616 
Q 866 947 969 400 
Q 1050 -31 1165 -292 
Q 1281 -553 1476 -793 
Q 1672 -1034 1988 -1253 
z
" transform="scale(0.015625)"/>
       <path id="TimesNewRomanPSMT-73" d="M 2050 2947 
L 2050 1972 
L 1947 1972 
Q 1828 2431 1642 2597 
Q 1456 2763 1169 2763 
Q 950 2763 815 2647 
Q 681 2531 681 2391 
Q 681 2216 781 2091 
Q 878 1963 1175 1819 
L 1631 1597 
Q 2266 1288 2266 781 
Q 2266 391 1970 151 
Q 1675 -88 1309 -88 
Q 1047 -88 709 6 
Q 606 38 541 38 
Q 469 38 428 -44 
L 325 -44 
L 325 978 
L 428 978 
Q 516 541 762 319 
Q 1009 97 1316 97 
Q 1531 97 1667 223 
Q 1803 350 1803 528 
Q 1803 744 1651 891 
Q 1500 1038 1047 1263 
Q 594 1488 453 1669 
Q 313 1847 313 2119 
Q 313 2472 555 2709 
Q 797 2947 1181 2947 
Q 1350 2947 1591 2875 
Q 1750 2828 1803 2828 
Q 1853 2828 1881 2850 
Q 1909 2872 1947 2947 
L 2050 2947 
z
" transform="scale(0.015625)"/>
       <path id="TimesNewRomanPSMT-29" d="M 144 4313 
L 144 4444 
Q 619 4209 934 3891 
Q 1381 3434 1625 2820 
Q 1869 2206 1869 1541 
Q 1869 572 1392 -226 
Q 916 -1025 144 -1369 
L 144 -1253 
Q 528 -1038 776 -670 
Q 1025 -303 1145 264 
Q 1266 831 1266 1447 
Q 1266 2113 1163 2663 
Q 1084 3094 967 3353 
Q 850 3613 656 3853 
Q 463 4094 144 4313 
z
" transform="scale(0.015625)"/>
      </defs>
      <use xlink:href="#TimesNewRomanPSMT-54"/>
      <use xlink:href="#TimesNewRomanPSMT-69" x="57.583984"/>
      <use xlink:href="#TimesNewRomanPSMT-6d" x="85.367188"/>
      <use xlink:href="#TimesNewRomanPSMT-65" x="163.150391"/>
      <use xlink:href="#TimesNewRomanPSMT-28" x="207.535156"/>
      <use xlink:href="#TimesNewRomanPSMT-73" x="240.835938"/>
      <use xlink:href="#TimesNewRomanPSMT-29" x="279.751953"/>
     </g>
    </g>
   </g>
   <g id="matplotlib.axis_2">
    <g id="ytick_1">
     <g id="line2d_11">
      <path d="M 82.8 305.478947 
L 709.2 305.478947 
" clip-path="url(#p2153cb2fe7)" style="fill: none; stroke-dasharray: 2.96,1.28; stroke-dashoffset: 0; stroke: #bdc3c7; stroke-width: 0.8"/>
     </g>
     <g id="line2d_12">
      <defs>
       <path id="m603150eb99" d="M 0 0 
L 3.5 0 
" style="stroke: #000000; stroke-width: 0.8"/>
      </defs>
      <g>
       <use xlink:href="#m603150eb99" x="82.8" y="305.478947" style="stroke: #000000; stroke-width: 0.8"/>
      </g>
     </g>
     <g id="text_7">
      <!-- −150 -->
      <g transform="translate(29.859063 312.317541) scale(0.18 -0.18)">
       <defs>
        <path id="DejaVuSans-2212" d="M 678 2272 
L 4684 2272 
L 4684 1741 
L 678 1741 
L 678 2272 
z
" transform="scale(0.015625)"/>
        <path id="DejaVuSans-35" d="M 691 4666 
L 3169 4666 
L 3169 4134 
L 1269 4134 
L 1269 2991 
Q 1406 3038 1543 3061 
Q 1681 3084 1819 3084 
Q 2600 3084 3056 2656 
Q 3513 2228 3513 1497 
Q 3513 744 3044 326 
Q 2575 -91 1722 -91 
Q 1428 -91 1123 -41 
Q 819 9 494 109 
L 494 744 
Q 775 591 1075 516 
Q 1375 441 1709 441 
Q 2250 441 2565 725 
Q 2881 1009 2881 1497 
Q 2881 1984 2565 2268 
Q 2250 2553 1709 2553 
Q 1456 2553 1204 2497 
Q 953 2441 691 2322 
L 691 4666 
z
" transform="scale(0.015625)"/>
       </defs>
       <use xlink:href="#DejaVuSans-2212"/>
       <use xlink:href="#DejaVuSans-31" x="83.789062"/>
       <use xlink:href="#DejaVuSans-35" x="147.412109"/>
       <use xlink:href="#DejaVuSans-30" x="211.035156"/>
      </g>
     </g>
    </g>
    <g id="ytick_2">
     <g id="line2d_13">
      <path d="M 82.8 266.873684 
L 709.2 266.873684 
" clip-path="url(#p2153cb2fe7)" style="fill: none; stroke-dasharray: 2.96,1.28; stroke-dashoffset: 0; stroke: #bdc3c7; stroke-width: 0.8"/>
     </g>
     <g id="line2d_14">
      <g>
       <use xlink:href="#m603150eb99" x="82.8" y="266.873684" style="stroke: #000000; stroke-width: 0.8"/>
      </g>
     </g>
     <g id="text_8">
      <!-- −100 -->
      <g transform="translate(29.859063 273.712278) scale(0.18 -0.18)">
       <use xlink:href="#DejaVuSans-2212"/>
       <use xlink:href="#DejaVuSans-31" x="83.789062"/>
       <use xlink:href="#DejaVuSans-30" x="147.412109"/>
       <use xlink:href="#DejaVuSans-30" x="211.035156"/>
      </g>
     </g>
    </g>
    <g id="ytick_3">
     <g id="line2d_15">
      <path d="M 82.8 228.268421 
L 709.2 228.268421 
" clip-path="url(#p2153cb2fe7)" style="fill: none; stroke-dasharray: 2.96,1.28; stroke-dashoffset: 0; stroke: #bdc3c7; stroke-width: 0.8"/>
     </g>
     <g id="line2d_16">
      <g>
       <use xlink:href="#m603150eb99" x="82.8" y="228.268421" style="stroke: #000000; stroke-width: 0.8"/>
      </g>
     </g>
     <g id="text_9">
      <!-- −50 -->
      <g transform="translate(41.311563 235.107015) scale(0.18 -0.18)">
       <use xlink:href="#DejaVuSans-2212"/>
       <use xlink:href="#DejaVuSans-35" x="83.789062"/>
       <use xlink:href="#DejaVuSans-30" x="147.412109"/>
      </g>
     </g>
    </g>
    <g id="ytick_4">
     <g id="line2d_17">
      <path d="M 82.8 189.663158 
L 709.2 189.663158 
" clip-path="url(#p2153cb2fe7)" style="fill: none; stroke-dasharray: 2.96,1.28; stroke-dashoffset: 0; stroke: #bdc3c7; stroke-width: 0.8"/>
     </g>
     <g id="line2d_18">
      <g>
       <use xlink:href="#m603150eb99" x="82.8" y="189.663158" style="stroke: #000000; stroke-width: 0.8"/>
      </g>
     </g>
     <g id="text_10">
      <!-- 0 -->
      <g transform="translate(67.8475 196.501752) scale(0.18 -0.18)">
       <use xlink:href="#DejaVuSans-30"/>
      </g>
     </g>
    </g>
    <g id="ytick_5">
     <g id="line2d_19">
      <path d="M 82.8 151.057895 
L 709.2 151.057895 
" clip-path="url(#p2153cb2fe7)" style="fill: none; stroke-dasharray: 2.96,1.28; stroke-dashoffset: 0; stroke: #bdc3c7; stroke-width: 0.8"/>
     </g>
     <g id="line2d_20">
      <g>
       <use xlink:href="#m603150eb99" x="82.8" y="151.057895" style="stroke: #000000; stroke-width: 0.8"/>
      </g>
     </g>
     <g id="text_11">
      <!-- 50 -->
      <g transform="translate(56.395 157.896488) scale(0.18 -0.18)">
       <use xlink:href="#DejaVuSans-35"/>
       <use xlink:href="#DejaVuSans-30" x="63.623047"/>
      </g>
     </g>
    </g>
    <g id="ytick_6">
     <g id="line2d_21">
      <path d="M 82.8 112.452632 
L 709.2 112.452632 
" clip-path="url(#p2153cb2fe7)" style="fill: none; stroke-dasharray: 2.96,1.28; stroke-dashoffset: 0; stroke: #bdc3c7; stroke-width: 0.8"/>
     </g>
     <g id="line2d_22">
      <g>
       <use xlink:href="#m603150eb99" x="82.8" y="112.452632" style="stroke: #000000; stroke-width: 0.8"/>
      </g>
     </g>
     <g id="text_12">
      <!-- 100 -->
      <g transform="translate(44.9425 119.291225) scale(0.18 -0.18)">
       <use xlink:href="#DejaVuSans-31"/>
       <use xlink:href="#DejaVuSans-30" x="63.623047"/>
       <use xlink:href="#DejaVuSans-30" x="127.246094"/>
      </g>
     </g>
    </g>
    <g id="ytick_7">
     <g id="line2d_23">
      <path d="M 82.8 73.847368 
L 709.2 73.847368 
" clip-path="url(#p2153cb2fe7)" style="fill: none; stroke-dasharray: 2.96,1.28; stroke-dashoffset: 0; stroke: #bdc3c7; stroke-width: 0.8"/>
     </g>
     <g id="line2d_24">
      <g>
       <use xlink:href="#m603150eb99" x="82.8" y="73.847368" style="stroke: #000000; stroke-width: 0.8"/>
      </g>
     </g>
     <g id="text_13">
      <!-- 150 -->
      <g transform="translate(44.9425 80.685962) scale(0.18 -0.18)">
       <use xlink:href="#DejaVuSans-31"/>
       <use xlink:href="#DejaVuSans-35" x="63.623047"/>
       <use xlink:href="#DejaVuSans-30" x="127.246094"/>
      </g>
     </g>
    </g>
    <g id="ytick_8">
     <g id="line2d_25">
      <path d="M 82.8 35.242105 
L 709.2 35.242105 
" clip-path="url(#p2153cb2fe7)" style="fill: none; stroke-dasharray: 2.96,1.28; stroke-dashoffset: 0; stroke: #bdc3c7; stroke-width: 0.8"/>
     </g>
     <g id="line2d_26">
      <g>
       <use xlink:href="#m603150eb99" x="82.8" y="35.242105" style="stroke: #000000; stroke-width: 0.8"/>
      </g>
     </g>
     <g id="text_14">
      <!-- 200 -->
      <g transform="translate(44.9425 42.080699) scale(0.18 -0.18)">
       <use xlink:href="#DejaVuSans-32"/>
       <use xlink:href="#DejaVuSans-30" x="63.623047"/>
       <use xlink:href="#DejaVuSans-30" x="127.246094"/>
      </g>
     </g>
    </g>
    <g id="text_15">
     <!-- Z(m) -->
     <g transform="translate(20.725313 191.154375) rotate(-90) scale(0.24 -0.24)">
      <defs>
       <path id="TimesNewRomanPSMT-5a" d="M 3681 4238 
L 897 256 
L 2634 256 
Q 3034 256 3248 431 
Q 3463 606 3628 1141 
L 3731 1122 
L 3531 0 
L 81 0 
L 81 116 
L 2800 3984 
L 1444 3984 
Q 1106 3984 954 3911 
Q 803 3838 723 3698 
Q 644 3559 578 3178 
L 459 3178 
L 547 4238 
L 3681 4238 
z
" transform="scale(0.015625)"/>
      </defs>
      <use xlink:href="#TimesNewRomanPSMT-5a"/>
      <use xlink:href="#TimesNewRomanPSMT-28" x="61.083984"/>
      <use xlink:href="#TimesNewRomanPSMT-6d" x="94.384766"/>
      <use xlink:href="#TimesNewRomanPSMT-29" x="172.167969"/>
     </g>
    </g>
   </g>
   <g id="line2d_27">
    <path d="M 103.006452 189.663161 
L 138.63929 189.565039 
L 141.608714 189.494018 
L 142.418532 189.540352 
L 143.228368 189.634795 
L 144.308155 189.644749 
L 145.117992 189.552532 
L 147.27756 189.567163 
L 150.516909 189.526215 
L 152.946432 189.530739 
L 156.185777 189.657858 
L 156.995613 189.713133 
L 157.535509 189.681063 
L 166.173773 189.62362 
L 166.713665 189.607711 
L 169.143183 189.60141 
L 171.572692 189.572431 
L 174.812043 189.614506 
L 175.621883 189.638626 
L 176.971611 189.652019 
L 179.67107 189.599172 
L 180.750853 189.610305 
L 192.088593 189.272434 
L 194.518101 189.318204 
L 197.487499 189.214786 
L 198.837231 189.23464 
L 200.186967 189.263039 
L 200.726852 189.268931 
L 201.266742 189.286774 
L 204.776042 189.369795 
L 205.585904 189.434201 
L 206.665667 189.505137 
L 207.745444 189.625159 
L 208.555284 189.703419 
L 216.653662 190.290694 
L 225.291976 191.686226 
L 226.911609 191.805047 
L 228.261334 191.85164 
L 230.420903 191.80776 
L 233.120408 191.918046 
L 234.200149 191.93118 
L 234.740039 191.940119 
L 236.629661 191.852789 
L 242.298522 191.843776 
L 243.378309 191.868472 
L 257.550468 190.973249 
L 269.428085 189.919228 
L 270.50787 189.805313 
L 272.532463 189.571642 
L 278.471273 188.689211 
L 280.630841 188.317962 
L 283.3303 187.889765 
L 289.809049 187.45664 
L 291.023762 187.452255 
L 292.643432 187.354149 
L 293.723218 187.340041 
L 294.533052 187.330906 
L 298.582267 187.454929 
L 299.257107 187.347174 
L 299.796997 187.398846 
L 300.471863 187.367812 
L 303.57624 187.290918 
L 304.790998 187.283417 
L 306.410672 187.228604 
L 307.490457 187.197292 
L 311.539644 187.148999 
L 313.15932 187.019041 
L 320.447858 186.640301 
L 322.067535 186.573402 
L 330.165911 186.301309 
L 330.435858 186.340559 
L 330.975748 186.244576 
L 331.245742 186.288129 
L 332.325479 186.193515 
L 333.405262 186.156613 
L 349.736988 185.194484 
L 362.154501 183.297166 
L 364.314065 182.836233 
L 369.712983 181.799077 
L 373.492228 181.482912 
L 375.651792 181.432093 
L 376.461633 181.346269 
L 378.621199 181.171212 
L 379.16109 181.04106 
L 379.835953 181.067215 
L 387.124495 179.918845 
L 394.143088 179.026754 
L 399.811952 178.635111 
L 401.971519 178.500556 
L 404.670976 178.136163 
L 408.450217 177.777183 
L 415.468812 176.667036 
L 416.548595 176.494307 
L 421.407622 175.738512 
L 425.726755 174.895266 
L 429.505998 174.444637 
L 430.315899 174.323626 
L 433.55519 174.132918 
L 434.63497 173.944118 
L 435.174861 173.953441 
L 436.794546 173.685404 
L 448.807127 173.582423 
L 455.285828 173.677498 
L 456.635633 173.693 
L 459.065071 173.609036 
L 465.813734 173.654458 
L 466.623561 173.586072 
L 468.783122 173.574817 
L 470.267825 173.624983 
L 471.617556 173.570845 
L 480.390797 173.525139 
L 482.010469 173.449292 
L 489.433989 173.329067 
L 489.838949 173.172077 
L 490.513765 173.203061 
L 491.188629 173.144727 
L 491.728521 173.169005 
L 491.998467 173.038538 
L 492.673332 173.002768 
L 493.48317 172.871239 
L 494.832898 172.706408 
L 495.912685 172.586152 
L 498.072249 172.401549 
L 499.152037 172.282367 
L 501.581598 172.247459 
L 513.999055 171.489768 
L 515.348786 171.46926 
L 516.158624 171.453233 
L 523.717161 171.444087 
L 525.066859 171.530159 
L 528.576138 171.643645 
L 529.92586 171.759484 
L 536.40456 172.715734 
L 536.944453 172.619696 
L 537.214401 172.808624 
L 538.699102 172.738474 
L 540.318777 172.729953 
L 541.128612 172.623178 
L 542.883262 172.562358 
L 555.70569 172.875622 
L 556.650502 172.76606 
L 559.754877 172.439597 
L 560.83466 172.402467 
L 561.914496 172.334893 
L 563.264174 172.527373 
L 567.043414 173.238988 
L 567.31336 173.344706 
L 568.258171 173.444093 
L 569.20299 173.546885 
L 570.147794 173.585576 
L 571.092606 173.64129 
L 576.896439 174.054638 
L 578.921031 174.327548 
L 579.595896 174.410955 
L 580.13579 174.416148 
L 580.945629 174.538735 
L 582.025408 174.616485 
L 582.295355 174.574243 
L 583.105195 174.729879 
L 587.829293 175.412415 
L 590.393731 175.807835 
L 592.013406 175.977032 
L 593.093187 176.227341 
L 593.633079 176.238168 
L 595.792648 176.766347 
L 596.872432 176.929169 
L 597.412327 177.183301 
L 599.031997 177.485744 
L 601.191564 177.978026 
L 606.320584 179.013201 
L 608.480103 179.467411 
L 609.289938 179.564308 
L 610.099779 179.736305 
L 615.63367 180.662509 
L 617.793234 181.0057 
L 619.9528 181.35046 
L 625.351718 182.129653 
L 626.971393 182.275965 
L 627.511282 182.422654 
L 628.051174 182.338094 
L 628.591076 182.419837 
L 629.130957 182.686457 
L 630.210741 182.772405 
L 630.750636 182.928127 
L 631.290548 182.924179 
L 631.830416 183.180952 
L 633.450091 183.421948 
L 639.118954 184.475041 
L 640.873601 184.904917 
L 641.683438 185.062496 
L 642.22333 185.297772 
L 642.763222 185.311048 
L 643.438087 185.536638 
L 643.977977 185.53971 
L 646.272518 186.025922 
L 649.916788 186.833254 
L 651.941381 187.487748 
L 657.205325 188.15808 
L 664.088944 188.261312 
L 666.518459 188.301592 
L 672.457312 188.921284 
L 675.696617 189.251259 
L 678.396073 189.367097 
L 678.396073 189.367097 
" clip-path="url(#p2153cb2fe7)" style="fill: none; stroke-dasharray: 10.175,4.4; stroke-dashoffset: 0; stroke: #808a87; stroke-width: 2.75"/>
   </g>
   <g id="line2d_28">
    <path d="M 100.981833 189.663158 
L 124.197207 189.54398 
L 128.246372 189.379381 
L 130.405943 189.248426 
L 131.485721 189.237261 
L 138.504321 188.593936 
L 139.584103 188.492501 
L 145.792858 187.994388 
L 146.872657 187.902391 
L 149.842052 187.682599 
L 156.320749 187.197311 
L 157.400532 187.069187 
L 160.90983 186.650973 
L 172.517505 185.59493 
L 173.597286 185.551675 
L 174.677125 185.470687 
L 175.216963 185.381756 
L 176.836636 185.26425 
L 180.076013 184.954221 
L 182.235558 184.629986 
L 195.732857 182.929975 
L 197.892417 182.654724 
L 200.591903 182.392688 
L 201.13182 182.272159 
L 201.671667 182.250988 
L 202.4815 182.168196 
L 204.37112 181.996546 
L 204.911013 181.936069 
L 208.150363 181.740447 
L 210.039984 181.672757 
L 213.009392 181.532538 
L 214.629114 181.413231 
L 216.788634 181.468052 
L 219.218193 181.59255 
L 220.297937 181.665096 
L 221.917654 181.859507 
L 223.537286 181.896793 
L 224.887013 181.832943 
L 227.316524 181.731999 
L 231.905606 181.093399 
L 233.255395 180.990515 
L 240.813819 179.921407 
L 245.132953 179.57729 
L 245.672845 179.597673 
L 246.75263 179.42198 
L 260.249924 177.06391 
L 262.409491 176.564308 
L 268.348303 175.441259 
L 269.15814 175.27663 
L 271.047762 174.859 
L 284.815005 171.634478 
L 286.434677 171.453323 
L 288.864193 171.111958 
L 290.213919 171.008871 
L 292.10354 170.796809 
L 295.072946 170.748602 
L 298.85219 170.687709 
L 299.392082 170.663338 
L 300.201917 170.622768 
L 302.361486 170.529563 
L 303.441267 170.43449 
L 305.060943 170.360045 
L 307.220514 170.228503 
L 312.349486 169.906039 
L 316.128725 169.732758 
L 317.7484 169.705999 
L 319.907968 169.763384 
L 323.147319 169.951192 
L 326.386674 170.172301 
L 328.006348 170.334603 
L 333.405261 170.688508 
L 342.043529 170.990053 
L 347.982339 170.864668 
L 355.540826 169.878667 
L 360.399851 169.076983 
L 361.47966 168.85496 
L 370.387848 167.137372 
L 372.817362 166.880602 
L 381.185685 165.927103 
L 387.394441 165.030517 
L 387.934332 165.003891 
L 389.014115 164.741978 
L 392.253469 164.34837 
L 393.333253 164.259483 
L 402.241464 163.318877 
L 405.750758 162.752251 
L 410.069895 162.018471 
L 427.346434 158.413606 
L 428.966106 158.184553 
L 433.55519 158.117225 
L 434.63497 158.007387 
L 435.174861 158.086502 
L 436.794546 158.011437 
L 443.813128 158.504965 
L 446.242643 158.692864 
L 448.132265 158.878424 
L 449.481992 159.017238 
L 450.561776 159.133617 
L 454.071075 159.459676 
L 489.703928 161.063954 
L 490.513765 161.093254 
L 493.753117 160.998579 
L 494.562957 160.967865 
L 496.722519 161.00652 
L 497.802303 161.090118 
L 499.691965 161.261675 
L 501.041654 161.485949 
L 502.391383 161.663974 
L 504.550948 161.933126 
L 505.630733 161.985274 
L 515.618732 163.321068 
L 516.158624 163.421673 
L 523.717161 164.7721 
L 526.956497 165.54171 
L 528.846082 165.980723 
L 529.92586 166.284885 
L 535.324776 168.101131 
L 536.674507 168.43374 
L 539.104024 168.953774 
L 543.423151 169.378023 
L 543.963045 169.395183 
L 545.312774 169.67875 
L 546.662503 169.836291 
L 547.742291 170.032896 
L 549.092014 170.280232 
L 556.110663 170.638907 
L 559.080013 170.589218 
L 560.159796 170.745282 
L 562.859257 171.142161 
L 565.288768 172.087852 
L 565.828659 172.310476 
L 569.337956 173.362948 
L 570.147793 173.49383 
L 572.307359 173.896496 
L 573.117197 173.963111 
L 573.657087 174.0839 
L 574.196979 174.11726 
L 575.546708 174.321002 
L 576.896439 174.598527 
L 581.215624 175.473577 
L 582.025408 175.587837 
L 582.565302 175.703292 
L 584.45492 176.152598 
L 585.534704 176.287444 
L 586.074598 176.33483 
L 586.614489 176.555696 
L 587.154382 176.587192 
L 587.694272 176.804464 
L 589.044001 176.972283 
L 589.583893 177.337175 
L 590.123782 177.186209 
L 591.203569 177.516568 
L 591.74346 177.54659 
L 593.903026 178.024586 
L 595.252753 178.456442 
L 595.792648 178.660062 
L 596.872432 178.88508 
L 597.412327 179.188409 
L 598.222158 179.332551 
L 599.301943 179.698572 
L 604.430973 181.203888 
L 606.050589 181.670836 
L 608.750048 182.435653 
L 614.958803 183.725736 
L 616.578479 183.938623 
L 617.658261 184.137622 
L 622.517336 184.74846 
L 625.216744 185.022575 
L 626.836423 185.110717 
L 631.155551 185.732586 
L 631.695442 185.866763 
L 632.775276 185.959408 
L 633.315117 186.138813 
L 634.394952 186.245266 
L 641.683438 187.418965 
L 642.22333 187.61737 
L 642.763222 187.593427 
L 643.303113 187.76493 
L 644.922792 187.92863 
L 647.082405 188.226825 
L 648.432107 188.469508 
L 649.511868 188.677069 
L 653.831002 189.304449 
L 661.389487 189.281561 
L 662.739218 189.188398 
L 668.408089 189.233 
L 674.886817 189.706398 
L 678.126129 189.678496 
L 678.126129 189.678496 
" clip-path="url(#p2153cb2fe7)" style="fill: none; stroke: #ff0000; stroke-width: 2; stroke-linecap: square"/>
   </g>
   <g id="line2d_29">
    <path d="M 101.251778 189.660659 
L 118.798265 189.646031 
L 120.552936 189.571154 
L 122.442536 189.556833 
L 123.657292 189.487523 
L 126.221778 189.37116 
L 126.89664 189.336265 
L 128.921235 189.217087 
L 129.731074 189.148893 
L 132.565506 189.111342 
L 134.995019 188.920096 
L 135.804856 188.893503 
L 136.344749 188.863167 
L 137.289558 188.689812 
L 137.964439 188.682406 
L 139.314155 188.54791 
L 139.584103 188.57066 
L 140.393939 188.463612 
L 140.933828 188.426938 
L 141.338748 188.402638 
L 142.013664 188.468248 
L 143.363345 188.461676 
L 143.768264 188.351283 
L 144.17318 188.243036 
L 146.197823 188.023415 
L 148.087398 187.953642 
L 149.032206 187.898073 
L 150.786857 187.713951 
L 151.866638 187.729914 
L 152.676478 187.613059 
L 154.566102 187.436451 
L 157.265558 187.299066 
L 158.615288 187.025854 
L 163.204375 186.599866 
L 166.173773 186.421729 
L 166.578693 186.41413 
L 167.793452 186.2581 
L 168.468318 186.252312 
L 169.278152 186.085101 
L 173.327344 185.73724 
L 174.407126 185.735302 
L 176.971611 185.49439 
L 181.020798 185.058625 
L 183.855232 184.659763 
L 196.137776 183.267151 
L 197.622472 183.092373 
L 199.512098 182.940793 
L 201.536713 182.761391 
L 206.800682 182.439601 
L 207.745444 182.427663 
L 208.690255 182.40785 
L 210.444908 182.412245 
L 212.064583 182.362935 
L 215.978797 182.289739 
L 217.328578 182.401595 
L 218.273336 182.480128 
L 220.432908 182.644059 
L 221.782642 182.845332 
L 225.291976 182.885622 
L 226.776633 182.838317 
L 228.261334 182.73597 
L 235.414902 182.024027 
L 236.089768 181.92027 
L 241.893602 181.364798 
L 243.10836 181.327907 
L 245.942791 181.113849 
L 246.887603 180.97641 
L 249.317117 180.643252 
L 250.3969 180.449806 
L 252.421495 180.18041 
L 259.03517 179.060866 
L 259.710033 178.915485 
L 262.544465 178.38533 
L 265.108955 177.971052 
L 265.918789 177.858711 
L 267.133596 177.637455 
L 267.943386 177.521083 
L 269.293115 177.275739 
L 271.992571 176.720185 
L 275.231923 176.064888 
L 276.041765 175.88207 
L 283.3303 174.253535 
L 287.109542 173.817444 
L 289.269158 173.603278 
L 290.213919 173.551064 
L 295.34294 173.417184 
L 300.471863 173.410111 
L 303.711214 173.305669 
L 304.92597 173.271756 
L 317.208508 172.800885 
L 317.613428 172.816652 
L 318.423268 172.805854 
L 320.312885 172.886628 
L 320.852778 172.896363 
L 338.129319 173.70209 
L 338.669207 173.682123 
L 345.552827 173.724838 
L 348.38726 173.582124 
L 353.246284 173.027549 
L 354.326069 172.891528 
L 355.135907 172.793831 
L 365.39385 170.95292 
L 366.33866 170.778571 
L 367.28347 170.626336 
L 368.093309 170.468273 
L 369.982932 170.190307 
L 374.032117 169.901501 
L 374.976931 169.848682 
L 375.516819 169.820756 
L 376.326704 169.739468 
L 377.271472 169.677093 
L 378.081306 169.598009 
L 379.431037 169.454912 
L 379.970926 169.413729 
L 381.320659 169.178527 
L 381.860554 169.131842 
L 383.210278 168.866615 
L 383.750173 168.816271 
L 384.829953 168.645258 
L 385.774763 168.536778 
L 386.314656 168.483226 
L 388.204276 168.263361 
L 388.474222 168.16926 
L 388.879142 168.172226 
L 389.554008 168.056737 
L 390.228921 167.949695 
L 391.848546 167.797763 
L 392.523417 167.770591 
L 394.008114 167.608673 
L 397.112491 167.41682 
L 400.081895 167.165989 
L 401.161682 167.052067 
L 411.149681 165.567048 
L 411.554598 165.483132 
L 412.364439 165.333762 
L 413.984109 164.964376 
L 415.603784 164.657108 
L 416.683568 164.447767 
L 417.628378 164.29105 
L 418.978108 164.01406 
L 425.726755 162.657585 
L 426.131734 162.571125 
L 426.941514 162.547588 
L 427.616377 162.43493 
L 428.426216 162.391714 
L 428.831134 162.312912 
L 429.371025 162.307212 
L 434.095104 162.156982 
L 434.769943 162.124762 
L 435.174861 162.181761 
L 436.119672 162.07974 
L 436.929518 162.078627 
L 437.604374 162.13172 
L 442.868319 162.32292 
L 445.972698 162.446263 
L 448.267237 162.591859 
L 449.077074 162.627865 
L 451.776533 162.837027 
L 452.181498 162.819081 
L 452.856316 162.902005 
L 455.420801 162.946069 
L 456.635633 162.981642 
L 457.715342 162.971583 
L 459.065071 162.966784 
L 461.089669 162.997475 
L 461.494587 163.026882 
L 462.034476 162.93382 
L 462.574368 163.028871 
L 464.46399 163.100961 
L 466.218636 163.078881 
L 467.703341 163.097553 
L 468.648153 163.132638 
L 469.323014 163.185587 
L 469.862906 163.204988 
L 470.94269 163.170244 
L 478.501175 163.327569 
L 479.715929 163.322167 
L 489.164034 163.342381 
L 489.568955 163.340109 
L 490.108847 163.255619 
L 490.783713 163.318574 
L 491.323606 163.241058 
L 491.863493 163.259133 
L 492.403386 163.173269 
L 492.673332 163.188976 
L 493.483169 163.100482 
L 494.293008 163.023188 
L 496.182627 163.015919 
L 500.501762 163.2032 
L 501.581598 163.362584 
L 502.796325 163.472503 
L 508.735112 163.861669 
L 509.814894 163.986973 
L 520.882673 165.205511 
L 522.097432 165.437256 
L 525.336781 166.102934 
L 527.226407 166.48925 
L 529.250995 166.922982 
L 530.465755 167.276975 
L 531.410568 167.58179 
L 535.054882 168.791879 
L 535.999644 169.019771 
L 536.674507 169.163398 
L 536.944453 169.113451 
L 537.619318 169.36972 
L 539.508942 169.598847 
L 544.367962 170.058852 
L 545.58272 170.272816 
L 546.392558 170.364582 
L 548.147206 170.682546 
L 550.306773 170.993059 
L 552.871259 171.188831 
L 554.220988 171.305657 
L 560.024825 171.390962 
L 562.589312 171.728613 
L 565.153792 172.549751 
L 566.638496 173.135903 
L 569.472931 173.793206 
L 570.822659 173.969596 
L 572.172386 174.172165 
L 572.847252 174.191024 
L 574.331951 174.377599 
L 578.651086 175.104708 
L 579.190978 175.201914 
L 579.865842 175.281228 
L 580.405734 175.359871 
L 581.350545 175.529977 
L 582.025408 175.625734 
L 582.295355 175.648433 
L 582.565302 175.682307 
L 583.105195 175.84791 
L 586.074598 176.332746 
L 586.344543 176.298579 
L 586.884435 176.573175 
L 587.289355 176.548244 
L 587.559299 176.580173 
L 587.964217 176.692218 
L 588.369136 176.811639 
L 588.774054 176.900765 
L 589.313947 176.930899 
L 589.718866 177.28143 
L 589.988811 177.160583 
L 590.258756 177.091104 
L 591.878434 177.442682 
L 592.283353 177.498607 
L 594.712863 178.057698 
L 599.841836 179.543374 
L 600.381726 179.718147 
L 601.461537 179.978748 
L 603.756053 180.584808 
L 609.019993 181.980219 
L 610.234751 182.243129 
L 611.719451 182.555109 
L 613.4741 182.853058 
L 614.148966 182.919622 
L 616.173609 183.257056 
L 616.578479 183.264926 
L 617.388314 183.452005 
L 617.928205 183.508813 
L 619.547891 183.685926 
L 621.032607 183.899946 
L 621.977449 184.052844 
L 624.676852 184.314274 
L 625.08177 184.442613 
L 626.701444 184.383593 
L 627.781228 184.66071 
L 628.186146 184.507804 
L 632.100361 185.178322 
L 632.505286 185.296218 
L 633.58512 185.478305 
L 634.124956 185.553344 
L 638.039172 186.16661 
L 638.309117 186.283089 
L 639.118954 186.337707 
L 642.62825 187.012775 
L 643.168142 187.054168 
L 643.708032 187.16201 
L 647.75722 187.724849 
L 649.241922 188.019357 
L 651.536464 188.45353 
L 652.076353 188.582466 
L 655.315736 188.771507 
L 656.260522 188.790288 
L 657.610247 188.774092 
L 658.555056 188.770829 
L 659.364892 188.727596 
L 660.039758 188.69805 
L 660.849594 188.716886 
L 664.493864 188.513692 
L 666.518459 188.545207 
L 673.806996 189.056439 
L 675.291697 189.119339 
L 685.954556 189.139415 
L 685.954556 189.139415 
" clip-path="url(#p2153cb2fe7)" style="fill: none; stroke: #0000ff; stroke-width: 2; stroke-linecap: square"/>
   </g>
   <g id="patch_3">
    <path d="M 82.8 313.2 
L 82.8 19.8 
" style="fill: none; stroke: #000000; stroke-width: 0.8; stroke-linejoin: miter; stroke-linecap: square"/>
   </g>
   <g id="patch_4">
    <path d="M 709.2 313.2 
L 709.2 19.8 
" style="fill: none; stroke: #000000; stroke-width: 0.8; stroke-linejoin: miter; stroke-linecap: square"/>
   </g>
   <g id="patch_5">
    <path d="M 82.8 313.2 
L 709.2 313.2 
" style="fill: none; stroke: #000000; stroke-width: 0.8; stroke-linejoin: miter; stroke-linecap: square"/>
   </g>
   <g id="patch_6">
    <path d="M 82.8 19.8 
L 709.2 19.8 
" style="fill: none; stroke: #000000; stroke-width: 0.8; stroke-linejoin: miter; stroke-linecap: square"/>
   </g>
  </g>
 </g>
 <defs>
  <clipPath id="p2153cb2fe7">
   <rect x="82.8" y="19.8" width="626.4" height="293.4"/>
  </clipPath>
 </defs>
</svg>
