<?xml version="1.0" encoding="utf-8" standalone="no"?>
<!DOCTYPE svg PUBLIC "-//W3C//DTD SVG 1.1//EN"
  "http://www.w3.org/Graphics/SVG/1.1/DTD/svg11.dtd">
<svg xmlns:xlink="http://www.w3.org/1999/xlink" width="720pt" height="360pt" viewBox="0 0 720 360" xmlns="http://www.w3.org/2000/svg" version="1.1">
 <metadata>
  <rdf:RDF xmlns:dc="http://purl.org/dc/elements/1.1/" xmlns:cc="http://creativecommons.org/ns#" xmlns:rdf="http://www.w3.org/1999/02/22-rdf-syntax-ns#">
   <cc:Work>
    <dc:type rdf:resource="http://purl.org/dc/dcmitype/StillImage"/>
    <dc:date>2024-08-06T11:14:08.297560</dc:date>
    <dc:format>image/svg+xml</dc:format>
    <dc:creator>
     <cc:Agent>
      <dc:title>Matplotlib v3.8.3, https://matplotlib.org/</dc:title>
     </cc:Agent>
    </dc:creator>
   </cc:Work>
  </rdf:RDF>
 </metadata>
 <defs>
  <style type="text/css">*{stroke-linejoin: round; stroke-linecap: butt}</style>
 </defs>
 <g id="figure_1">
  <g id="patch_1">
   <path d="M 0 360 
L 720 360 
L 720 0 
L 0 0 
z
" style="fill: #ffffff"/>
  </g>
  <g id="axes_1">
   <g id="patch_2">
    <path d="M 82.8 313.2 
L 709.2 313.2 
L 709.2 19.8 
L 82.8 19.8 
z
" style="fill: #ffffff"/>
   </g>
   <g id="matplotlib.axis_1">
    <g id="xtick_1">
     <g id="line2d_1">
      <path d="M 98.152941 313.2 
L 98.152941 19.8 
" clip-path="url(#pda79e64084)" style="fill: none; stroke-dasharray: 2.96,1.28; stroke-dashoffset: 0; stroke: #bdc3c7; stroke-width: 0.8"/>
     </g>
     <g id="line2d_2">
      <defs>
       <path id="m8a405fe3d0" d="M 0 0 
L 0 -3.5 
" style="stroke: #000000; stroke-width: 0.8"/>
      </defs>
      <g>
       <use xlink:href="#m8a405fe3d0" x="98.152941" y="313.2" style="stroke: #000000; stroke-width: 0.8"/>
      </g>
     </g>
     <g id="text_1">
      <!-- 0 -->
      <g transform="translate(92.426691 330.377187) scale(0.18 -0.18)">
       <defs>
        <path id="DejaVuSans-30" d="M 2034 4250 
Q 1547 4250 1301 3770 
Q 1056 3291 1056 2328 
Q 1056 1369 1301 889 
Q 1547 409 2034 409 
Q 2525 409 2770 889 
Q 3016 1369 3016 2328 
Q 3016 3291 2770 3770 
Q 2525 4250 2034 4250 
z
M 2034 4750 
Q 2819 4750 3233 4129 
Q 3647 3509 3647 2328 
Q 3647 1150 3233 529 
Q 2819 -91 2034 -91 
Q 1250 -91 836 529 
Q 422 1150 422 2328 
Q 422 3509 836 4129 
Q 1250 4750 2034 4750 
z
" transform="scale(0.015625)"/>
       </defs>
       <use xlink:href="#DejaVuSans-30"/>
      </g>
     </g>
    </g>
    <g id="xtick_2">
     <g id="line2d_3">
      <path d="M 174.917647 313.2 
L 174.917647 19.8 
" clip-path="url(#pda79e64084)" style="fill: none; stroke-dasharray: 2.96,1.28; stroke-dashoffset: 0; stroke: #bdc3c7; stroke-width: 0.8"/>
     </g>
     <g id="line2d_4">
      <g>
       <use xlink:href="#m8a405fe3d0" x="174.917647" y="313.2" style="stroke: #000000; stroke-width: 0.8"/>
      </g>
     </g>
     <g id="text_2">
      <!-- 25 -->
      <g transform="translate(163.465147 330.377187) scale(0.18 -0.18)">
       <defs>
        <path id="DejaVuSans-32" d="M 1228 531 
L 3431 531 
L 3431 0 
L 469 0 
L 469 531 
Q 828 903 1448 1529 
Q 2069 2156 2228 2338 
Q 2531 2678 2651 2914 
Q 2772 3150 2772 3378 
Q 2772 3750 2511 3984 
Q 2250 4219 1831 4219 
Q 1534 4219 1204 4116 
Q 875 4013 500 3803 
L 500 4441 
Q 881 4594 1212 4672 
Q 1544 4750 1819 4750 
Q 2544 4750 2975 4387 
Q 3406 4025 3406 3419 
Q 3406 3131 3298 2873 
Q 3191 2616 2906 2266 
Q 2828 2175 2409 1742 
Q 1991 1309 1228 531 
z
" transform="scale(0.015625)"/>
        <path id="DejaVuSans-35" d="M 691 4666 
L 3169 4666 
L 3169 4134 
L 1269 4134 
L 1269 2991 
Q 1406 3038 1543 3061 
Q 1681 3084 1819 3084 
Q 2600 3084 3056 2656 
Q 3513 2228 3513 1497 
Q 3513 744 3044 326 
Q 2575 -91 1722 -91 
Q 1428 -91 1123 -41 
Q 819 9 494 109 
L 494 744 
Q 775 591 1075 516 
Q 1375 441 1709 441 
Q 2250 441 2565 725 
Q 2881 1009 2881 1497 
Q 2881 1984 2565 2268 
Q 2250 2553 1709 2553 
Q 1456 2553 1204 2497 
Q 953 2441 691 2322 
L 691 4666 
z
" transform="scale(0.015625)"/>
       </defs>
       <use xlink:href="#DejaVuSans-32"/>
       <use xlink:href="#DejaVuSans-35" x="63.623047"/>
      </g>
     </g>
    </g>
    <g id="xtick_3">
     <g id="line2d_5">
      <path d="M 251.682353 313.2 
L 251.682353 19.8 
" clip-path="url(#pda79e64084)" style="fill: none; stroke-dasharray: 2.96,1.28; stroke-dashoffset: 0; stroke: #bdc3c7; stroke-width: 0.8"/>
     </g>
     <g id="line2d_6">
      <g>
       <use xlink:href="#m8a405fe3d0" x="251.682353" y="313.2" style="stroke: #000000; stroke-width: 0.8"/>
      </g>
     </g>
     <g id="text_3">
      <!-- 50 -->
      <g transform="translate(240.229853 330.377187) scale(0.18 -0.18)">
       <use xlink:href="#DejaVuSans-35"/>
       <use xlink:href="#DejaVuSans-30" x="63.623047"/>
      </g>
     </g>
    </g>
    <g id="xtick_4">
     <g id="line2d_7">
      <path d="M 328.447059 313.2 
L 328.447059 19.8 
" clip-path="url(#pda79e64084)" style="fill: none; stroke-dasharray: 2.96,1.28; stroke-dashoffset: 0; stroke: #bdc3c7; stroke-width: 0.8"/>
     </g>
     <g id="line2d_8">
      <g>
       <use xlink:href="#m8a405fe3d0" x="328.447059" y="313.2" style="stroke: #000000; stroke-width: 0.8"/>
      </g>
     </g>
     <g id="text_4">
      <!-- 75 -->
      <g transform="translate(316.994559 330.377187) scale(0.18 -0.18)">
       <defs>
        <path id="DejaVuSans-37" d="M 525 4666 
L 3525 4666 
L 3525 4397 
L 1831 0 
L 1172 0 
L 2766 4134 
L 525 4134 
L 525 4666 
z
" transform="scale(0.015625)"/>
       </defs>
       <use xlink:href="#DejaVuSans-37"/>
       <use xlink:href="#DejaVuSans-35" x="63.623047"/>
      </g>
     </g>
    </g>
    <g id="xtick_5">
     <g id="line2d_9">
      <path d="M 405.211765 313.2 
L 405.211765 19.8 
" clip-path="url(#pda79e64084)" style="fill: none; stroke-dasharray: 2.96,1.28; stroke-dashoffset: 0; stroke: #bdc3c7; stroke-width: 0.8"/>
     </g>
     <g id="line2d_10">
      <g>
       <use xlink:href="#m8a405fe3d0" x="405.211765" y="313.2" style="stroke: #000000; stroke-width: 0.8"/>
      </g>
     </g>
     <g id="text_5">
      <!-- 100 -->
      <g transform="translate(388.033015 330.377187) scale(0.18 -0.18)">
       <defs>
        <path id="DejaVuSans-31" d="M 794 531 
L 1825 531 
L 1825 4091 
L 703 3866 
L 703 4441 
L 1819 4666 
L 2450 4666 
L 2450 531 
L 3481 531 
L 3481 0 
L 794 0 
L 794 531 
z
" transform="scale(0.015625)"/>
       </defs>
       <use xlink:href="#DejaVuSans-31"/>
       <use xlink:href="#DejaVuSans-30" x="63.623047"/>
       <use xlink:href="#DejaVuSans-30" x="127.246094"/>
      </g>
     </g>
    </g>
    <g id="xtick_6">
     <g id="line2d_11">
      <path d="M 481.976471 313.2 
L 481.976471 19.8 
" clip-path="url(#pda79e64084)" style="fill: none; stroke-dasharray: 2.96,1.28; stroke-dashoffset: 0; stroke: #bdc3c7; stroke-width: 0.8"/>
     </g>
     <g id="line2d_12">
      <g>
       <use xlink:href="#m8a405fe3d0" x="481.976471" y="313.2" style="stroke: #000000; stroke-width: 0.8"/>
      </g>
     </g>
     <g id="text_6">
      <!-- 125 -->
      <g transform="translate(464.797721 330.377187) scale(0.18 -0.18)">
       <use xlink:href="#DejaVuSans-31"/>
       <use xlink:href="#DejaVuSans-32" x="63.623047"/>
       <use xlink:href="#DejaVuSans-35" x="127.246094"/>
      </g>
     </g>
    </g>
    <g id="xtick_7">
     <g id="line2d_13">
      <path d="M 558.741176 313.2 
L 558.741176 19.8 
" clip-path="url(#pda79e64084)" style="fill: none; stroke-dasharray: 2.96,1.28; stroke-dashoffset: 0; stroke: #bdc3c7; stroke-width: 0.8"/>
     </g>
     <g id="line2d_14">
      <g>
       <use xlink:href="#m8a405fe3d0" x="558.741176" y="313.2" style="stroke: #000000; stroke-width: 0.8"/>
      </g>
     </g>
     <g id="text_7">
      <!-- 150 -->
      <g transform="translate(541.562426 330.377187) scale(0.18 -0.18)">
       <use xlink:href="#DejaVuSans-31"/>
       <use xlink:href="#DejaVuSans-35" x="63.623047"/>
       <use xlink:href="#DejaVuSans-30" x="127.246094"/>
      </g>
     </g>
    </g>
    <g id="xtick_8">
     <g id="line2d_15">
      <path d="M 635.505882 313.2 
L 635.505882 19.8 
" clip-path="url(#pda79e64084)" style="fill: none; stroke-dasharray: 2.96,1.28; stroke-dashoffset: 0; stroke: #bdc3c7; stroke-width: 0.8"/>
     </g>
     <g id="line2d_16">
      <g>
       <use xlink:href="#m8a405fe3d0" x="635.505882" y="313.2" style="stroke: #000000; stroke-width: 0.8"/>
      </g>
     </g>
     <g id="text_8">
      <!-- 175 -->
      <g transform="translate(618.327132 330.377187) scale(0.18 -0.18)">
       <use xlink:href="#DejaVuSans-31"/>
       <use xlink:href="#DejaVuSans-37" x="63.623047"/>
       <use xlink:href="#DejaVuSans-35" x="127.246094"/>
      </g>
     </g>
    </g>
    <g id="text_9">
     <!-- Time(s) -->
     <g transform="translate(358.434375 354.785625) scale(0.24 -0.24)">
      <defs>
       <path id="TimesNewRomanPSMT-54" d="M 3703 4238 
L 3750 3244 
L 3631 3244 
Q 3597 3506 3538 3619 
Q 3441 3800 3280 3886 
Q 3119 3972 2856 3972 
L 2259 3972 
L 2259 734 
Q 2259 344 2344 247 
Q 2463 116 2709 116 
L 2856 116 
L 2856 0 
L 1059 0 
L 1059 116 
L 1209 116 
Q 1478 116 1591 278 
Q 1659 378 1659 734 
L 1659 3972 
L 1150 3972 
Q 853 3972 728 3928 
Q 566 3869 450 3700 
Q 334 3531 313 3244 
L 194 3244 
L 244 4238 
L 3703 4238 
z
" transform="scale(0.015625)"/>
       <path id="TimesNewRomanPSMT-69" d="M 928 4444 
Q 1059 4444 1151 4351 
Q 1244 4259 1244 4128 
Q 1244 3997 1151 3903 
Q 1059 3809 928 3809 
Q 797 3809 703 3903 
Q 609 3997 609 4128 
Q 609 4259 701 4351 
Q 794 4444 928 4444 
z
M 1188 2947 
L 1188 647 
Q 1188 378 1227 289 
Q 1266 200 1342 156 
Q 1419 113 1622 113 
L 1622 0 
L 231 0 
L 231 113 
Q 441 113 512 153 
Q 584 194 626 287 
Q 669 381 669 647 
L 669 1750 
Q 669 2216 641 2353 
Q 619 2453 572 2492 
Q 525 2531 444 2531 
Q 356 2531 231 2484 
L 188 2597 
L 1050 2947 
L 1188 2947 
z
" transform="scale(0.015625)"/>
       <path id="TimesNewRomanPSMT-6d" d="M 1050 2338 
Q 1363 2650 1419 2697 
Q 1559 2816 1721 2881 
Q 1884 2947 2044 2947 
Q 2313 2947 2506 2790 
Q 2700 2634 2766 2338 
Q 3088 2713 3309 2830 
Q 3531 2947 3766 2947 
Q 3994 2947 4170 2830 
Q 4347 2713 4450 2447 
Q 4519 2266 4519 1878 
L 4519 647 
Q 4519 378 4559 278 
Q 4591 209 4675 161 
Q 4759 113 4950 113 
L 4950 0 
L 3538 0 
L 3538 113 
L 3597 113 
Q 3781 113 3884 184 
Q 3956 234 3988 344 
Q 4000 397 4000 647 
L 4000 1878 
Q 4000 2228 3916 2372 
Q 3794 2572 3525 2572 
Q 3359 2572 3192 2489 
Q 3025 2406 2788 2181 
L 2781 2147 
L 2788 2013 
L 2788 647 
Q 2788 353 2820 281 
Q 2853 209 2943 161 
Q 3034 113 3253 113 
L 3253 0 
L 1806 0 
L 1806 113 
Q 2044 113 2133 169 
Q 2222 225 2256 338 
Q 2272 391 2272 647 
L 2272 1878 
Q 2272 2228 2169 2381 
Q 2031 2581 1784 2581 
Q 1616 2581 1450 2491 
Q 1191 2353 1050 2181 
L 1050 647 
Q 1050 366 1089 281 
Q 1128 197 1204 155 
Q 1281 113 1516 113 
L 1516 0 
L 100 0 
L 100 113 
Q 297 113 375 155 
Q 453 197 493 289 
Q 534 381 534 647 
L 534 1741 
Q 534 2213 506 2350 
Q 484 2453 437 2492 
Q 391 2531 309 2531 
Q 222 2531 100 2484 
L 53 2597 
L 916 2947 
L 1050 2947 
L 1050 2338 
z
" transform="scale(0.015625)"/>
       <path id="TimesNewRomanPSMT-65" d="M 681 1784 
Q 678 1147 991 784 
Q 1303 422 1725 422 
Q 2006 422 2214 576 
Q 2422 731 2563 1106 
L 2659 1044 
Q 2594 616 2278 264 
Q 1963 -88 1488 -88 
Q 972 -88 605 314 
Q 238 716 238 1394 
Q 238 2128 614 2539 
Q 991 2950 1559 2950 
Q 2041 2950 2350 2633 
Q 2659 2316 2659 1784 
L 681 1784 
z
M 681 1966 
L 2006 1966 
Q 1991 2241 1941 2353 
Q 1863 2528 1708 2628 
Q 1553 2728 1384 2728 
Q 1125 2728 920 2526 
Q 716 2325 681 1966 
z
" transform="scale(0.015625)"/>
       <path id="TimesNewRomanPSMT-28" d="M 1988 -1253 
L 1988 -1369 
Q 1516 -1131 1200 -813 
Q 750 -359 506 256 
Q 263 872 263 1534 
Q 263 2503 741 3301 
Q 1219 4100 1988 4444 
L 1988 4313 
Q 1603 4100 1356 3731 
Q 1109 3363 987 2797 
Q 866 2231 866 1616 
Q 866 947 969 400 
Q 1050 -31 1165 -292 
Q 1281 -553 1476 -793 
Q 1672 -1034 1988 -1253 
z
" transform="scale(0.015625)"/>
       <path id="TimesNewRomanPSMT-73" d="M 2050 2947 
L 2050 1972 
L 1947 1972 
Q 1828 2431 1642 2597 
Q 1456 2763 1169 2763 
Q 950 2763 815 2647 
Q 681 2531 681 2391 
Q 681 2216 781 2091 
Q 878 1963 1175 1819 
L 1631 1597 
Q 2266 1288 2266 781 
Q 2266 391 1970 151 
Q 1675 -88 1309 -88 
Q 1047 -88 709 6 
Q 606 38 541 38 
Q 469 38 428 -44 
L 325 -44 
L 325 978 
L 428 978 
Q 516 541 762 319 
Q 1009 97 1316 97 
Q 1531 97 1667 223 
Q 1803 350 1803 528 
Q 1803 744 1651 891 
Q 1500 1038 1047 1263 
Q 594 1488 453 1669 
Q 313 1847 313 2119 
Q 313 2472 555 2709 
Q 797 2947 1181 2947 
Q 1350 2947 1591 2875 
Q 1750 2828 1803 2828 
Q 1853 2828 1881 2850 
Q 1909 2872 1947 2947 
L 2050 2947 
z
" transform="scale(0.015625)"/>
       <path id="TimesNewRomanPSMT-29" d="M 144 4313 
L 144 4444 
Q 619 4209 934 3891 
Q 1381 3434 1625 2820 
Q 1869 2206 1869 1541 
Q 1869 572 1392 -226 
Q 916 -1025 144 -1369 
L 144 -1253 
Q 528 -1038 776 -670 
Q 1025 -303 1145 264 
Q 1266 831 1266 1447 
Q 1266 2113 1163 2663 
Q 1084 3094 967 3353 
Q 850 3613 656 3853 
Q 463 4094 144 4313 
z
" transform="scale(0.015625)"/>
      </defs>
      <use xlink:href="#TimesNewRomanPSMT-54"/>
      <use xlink:href="#TimesNewRomanPSMT-69" x="57.583984"/>
      <use xlink:href="#TimesNewRomanPSMT-6d" x="85.367188"/>
      <use xlink:href="#TimesNewRomanPSMT-65" x="163.150391"/>
      <use xlink:href="#TimesNewRomanPSMT-28" x="207.535156"/>
      <use xlink:href="#TimesNewRomanPSMT-73" x="240.835938"/>
      <use xlink:href="#TimesNewRomanPSMT-29" x="279.751953"/>
     </g>
    </g>
   </g>
   <g id="matplotlib.axis_2">
    <g id="ytick_1">
     <g id="line2d_17">
      <path d="M 82.8 282.315789 
L 709.2 282.315789 
" clip-path="url(#pda79e64084)" style="fill: none; stroke-dasharray: 2.96,1.28; stroke-dashoffset: 0; stroke: #bdc3c7; stroke-width: 0.8"/>
     </g>
     <g id="line2d_18">
      <defs>
       <path id="m60404cc3dc" d="M 0 0 
L 3.5 0 
" style="stroke: #000000; stroke-width: 0.8"/>
      </defs>
      <g>
       <use xlink:href="#m60404cc3dc" x="82.8" y="282.315789" style="stroke: #000000; stroke-width: 0.8"/>
      </g>
     </g>
     <g id="text_10">
      <!-- −100 -->
      <g transform="translate(29.859063 289.154383) scale(0.18 -0.18)">
       <defs>
        <path id="DejaVuSans-2212" d="M 678 2272 
L 4684 2272 
L 4684 1741 
L 678 1741 
L 678 2272 
z
" transform="scale(0.015625)"/>
       </defs>
       <use xlink:href="#DejaVuSans-2212"/>
       <use xlink:href="#DejaVuSans-31" x="83.789062"/>
       <use xlink:href="#DejaVuSans-30" x="147.412109"/>
       <use xlink:href="#DejaVuSans-30" x="211.035156"/>
      </g>
     </g>
    </g>
    <g id="ytick_2">
     <g id="line2d_19">
      <path d="M 82.8 243.710526 
L 709.2 243.710526 
" clip-path="url(#pda79e64084)" style="fill: none; stroke-dasharray: 2.96,1.28; stroke-dashoffset: 0; stroke: #bdc3c7; stroke-width: 0.8"/>
     </g>
     <g id="line2d_20">
      <g>
       <use xlink:href="#m60404cc3dc" x="82.8" y="243.710526" style="stroke: #000000; stroke-width: 0.8"/>
      </g>
     </g>
     <g id="text_11">
      <!-- −75 -->
      <g transform="translate(41.311563 250.54912) scale(0.18 -0.18)">
       <use xlink:href="#DejaVuSans-2212"/>
       <use xlink:href="#DejaVuSans-37" x="83.789062"/>
       <use xlink:href="#DejaVuSans-35" x="147.412109"/>
      </g>
     </g>
    </g>
    <g id="ytick_3">
     <g id="line2d_21">
      <path d="M 82.8 205.105263 
L 709.2 205.105263 
" clip-path="url(#pda79e64084)" style="fill: none; stroke-dasharray: 2.96,1.28; stroke-dashoffset: 0; stroke: #bdc3c7; stroke-width: 0.8"/>
     </g>
     <g id="line2d_22">
      <g>
       <use xlink:href="#m60404cc3dc" x="82.8" y="205.105263" style="stroke: #000000; stroke-width: 0.8"/>
      </g>
     </g>
     <g id="text_12">
      <!-- −50 -->
      <g transform="translate(41.311563 211.943857) scale(0.18 -0.18)">
       <use xlink:href="#DejaVuSans-2212"/>
       <use xlink:href="#DejaVuSans-35" x="83.789062"/>
       <use xlink:href="#DejaVuSans-30" x="147.412109"/>
      </g>
     </g>
    </g>
    <g id="ytick_4">
     <g id="line2d_23">
      <path d="M 82.8 166.5 
L 709.2 166.5 
" clip-path="url(#pda79e64084)" style="fill: none; stroke-dasharray: 2.96,1.28; stroke-dashoffset: 0; stroke: #bdc3c7; stroke-width: 0.8"/>
     </g>
     <g id="line2d_24">
      <g>
       <use xlink:href="#m60404cc3dc" x="82.8" y="166.5" style="stroke: #000000; stroke-width: 0.8"/>
      </g>
     </g>
     <g id="text_13">
      <!-- −25 -->
      <g transform="translate(41.311563 173.338594) scale(0.18 -0.18)">
       <use xlink:href="#DejaVuSans-2212"/>
       <use xlink:href="#DejaVuSans-32" x="83.789062"/>
       <use xlink:href="#DejaVuSans-35" x="147.412109"/>
      </g>
     </g>
    </g>
    <g id="ytick_5">
     <g id="line2d_25">
      <path d="M 82.8 127.894737 
L 709.2 127.894737 
" clip-path="url(#pda79e64084)" style="fill: none; stroke-dasharray: 2.96,1.28; stroke-dashoffset: 0; stroke: #bdc3c7; stroke-width: 0.8"/>
     </g>
     <g id="line2d_26">
      <g>
       <use xlink:href="#m60404cc3dc" x="82.8" y="127.894737" style="stroke: #000000; stroke-width: 0.8"/>
      </g>
     </g>
     <g id="text_14">
      <!-- 0 -->
      <g transform="translate(67.8475 134.733331) scale(0.18 -0.18)">
       <use xlink:href="#DejaVuSans-30"/>
      </g>
     </g>
    </g>
    <g id="ytick_6">
     <g id="line2d_27">
      <path d="M 82.8 89.289474 
L 709.2 89.289474 
" clip-path="url(#pda79e64084)" style="fill: none; stroke-dasharray: 2.96,1.28; stroke-dashoffset: 0; stroke: #bdc3c7; stroke-width: 0.8"/>
     </g>
     <g id="line2d_28">
      <g>
       <use xlink:href="#m60404cc3dc" x="82.8" y="89.289474" style="stroke: #000000; stroke-width: 0.8"/>
      </g>
     </g>
     <g id="text_15">
      <!-- 25 -->
      <g transform="translate(56.395 96.128067) scale(0.18 -0.18)">
       <use xlink:href="#DejaVuSans-32"/>
       <use xlink:href="#DejaVuSans-35" x="63.623047"/>
      </g>
     </g>
    </g>
    <g id="ytick_7">
     <g id="line2d_29">
      <path d="M 82.8 50.684211 
L 709.2 50.684211 
" clip-path="url(#pda79e64084)" style="fill: none; stroke-dasharray: 2.96,1.28; stroke-dashoffset: 0; stroke: #bdc3c7; stroke-width: 0.8"/>
     </g>
     <g id="line2d_30">
      <g>
       <use xlink:href="#m60404cc3dc" x="82.8" y="50.684211" style="stroke: #000000; stroke-width: 0.8"/>
      </g>
     </g>
     <g id="text_16">
      <!-- 50 -->
      <g transform="translate(56.395 57.522804) scale(0.18 -0.18)">
       <use xlink:href="#DejaVuSans-35"/>
       <use xlink:href="#DejaVuSans-30" x="63.623047"/>
      </g>
     </g>
    </g>
    <g id="text_17">
     <!-- Z(m) -->
     <g transform="translate(20.725313 191.154375) rotate(-90) scale(0.24 -0.24)">
      <defs>
       <path id="TimesNewRomanPSMT-5a" d="M 3681 4238 
L 897 256 
L 2634 256 
Q 3034 256 3248 431 
Q 3463 606 3628 1141 
L 3731 1122 
L 3531 0 
L 81 0 
L 81 116 
L 2800 3984 
L 1444 3984 
Q 1106 3984 954 3911 
Q 803 3838 723 3698 
Q 644 3559 578 3178 
L 459 3178 
L 547 4238 
L 3681 4238 
z
" transform="scale(0.015625)"/>
      </defs>
      <use xlink:href="#TimesNewRomanPSMT-5a"/>
      <use xlink:href="#TimesNewRomanPSMT-28" x="61.083984"/>
      <use xlink:href="#TimesNewRomanPSMT-6d" x="94.384766"/>
      <use xlink:href="#TimesNewRomanPSMT-29" x="172.167969"/>
     </g>
    </g>
   </g>
   <g id="line2d_31">
    <path d="M 98.152941 127.894737 
L 126.457563 127.890291 
L 132.610615 128.395921 
L 136.302623 129.016261 
L 138.763912 129.482062 
L 149.839666 132.049183 
L 159.684799 134.834962 
L 163.376709 135.44808 
L 164.607417 135.470813 
L 167.068628 135.696317 
L 178.144513 136.216947 
L 181.836173 136.316466 
L 186.758897 136.597385 
L 194.142791 137.783429 
L 205.21859 140.308279 
L 208.910464 141.105507 
L 212.6024 141.800752 
L 216.294319 142.36777 
L 221.216601 143.119495 
L 226.139527 143.742056 
L 234.754378 145.895483 
L 237.215191 146.622199 
L 239.676442 147.179449 
L 242.137731 147.577884 
L 244.599045 148.073545 
L 251.982845 149.913852 
L 255.67497 151.298378 
L 258.136103 152.238303 
L 264.289524 154.097891 
L 266.750561 154.505689 
L 274.750032 155.638394 
L 275.980617 156.053935 
L 277.210995 155.90268 
L 279.057005 156.066241 
L 287.671463 156.735029 
L 289.517447 156.818754 
L 290.748167 156.977761 
L 292.59403 157.081558 
L 293.824292 157.112399 
L 295.670633 157.39411 
L 301.20852 158.495891 
L 302.439151 158.808424 
L 303.670293 159.110976 
L 305.515731 159.696794 
L 306.746431 160.062141 
L 307.977082 160.37631 
L 308.592624 160.371744 
L 313.514925 161.556714 
L 314.745179 161.802014 
L 323.97536 163.792719 
L 336.281751 165.721159 
L 337.512379 165.895264 
L 338.742948 166.120268 
L 341.81969 166.77215 
L 343.050292 167.176175 
L 344.280831 167.494117 
L 344.896255 167.610599 
L 346.126909 168.046075 
L 346.74223 168.090535 
L 347.972837 168.427636 
L 349.818843 168.823806 
L 353.510778 169.484833 
L 355.356726 169.941076 
L 355.972329 169.936794 
L 362.125211 170.574417 
L 384.276752 171.546724 
L 402.736374 173.55538 
L 413.196468 175.189386 
L 415.658178 175.811909 
L 417.504084 176.478965 
L 418.734689 176.705442 
L 419.35005 176.949758 
L 421.195963 177.228241 
L 423.041657 177.191669 
L 423.657253 176.982198 
L 424.887908 176.970818 
L 426.118552 176.846223 
L 427.349166 176.565767 
L 433.502655 175.840646 
L 440.886362 174.755728 
L 445.808779 174.001274 
L 448.270077 173.801874 
L 449.500729 173.541897 
L 453.192598 173.209131 
L 458.115154 172.580977 
L 461.807591 171.790369 
L 464.268402 171.710158 
L 465.499023 171.488804 
L 467.960551 171.526292 
L 470.421597 171.172167 
L 481.497436 170.328331 
L 485.189274 169.803343 
L 488.88121 169.412257 
L 490.111813 169.386868 
L 492.573085 169.002409 
L 497.496063 168.36103 
L 499.956933 168.123761 
L 501.187629 167.890446 
L 503.648872 167.772022 
L 507.340768 167.26387 
L 508.571429 167.18996 
L 509.80205 166.922145 
L 512.263395 166.678435 
L 525.800399 165.234319 
L 528.261623 164.996954 
L 529.49291 164.761956 
L 534.415233 164.272357 
L 535.645484 164.426095 
L 539.337714 164.506656 
L 541.798743 164.801444 
L 544.260021 165.23269 
L 545.490615 165.287209 
L 554.105093 166.765349 
L 556.566402 167.502929 
L 557.79704 167.944617 
L 559.027652 168.126344 
L 563.950248 168.232389 
L 568.257477 168.716654 
L 569.488116 169.120662 
L 574.41103 169.681644 
L 576.871941 170.07554 
L 578.102586 170.407941 
L 579.333266 170.459584 
L 580.563853 170.395747 
L 583.02517 170.760599 
L 584.255814 170.811712 
L 589.178368 170.641666 
L 591.63961 170.884881 
L 592.870265 170.910688 
L 595.331388 171.504921 
L 597.792847 171.550011 
L 600.254106 172.085882 
L 602.715435 172.318508 
L 606.407354 173.242355 
L 607.638266 173.39812 
L 610.099133 173.376445 
L 612.560502 173.647853 
L 616.252479 173.885689 
L 619.944219 174.312886 
L 626.09757 175.360248 
L 633.48202 175.0125 
L 641.480591 173.806439 
L 649.47997 172.37604 
L 656.863592 171.896048 
L 659.940183 171.98574 
L 662.401469 172.102797 
L 663.631769 172.150594 
L 664.862727 172.403458 
L 680.861017 172.698508 
L 684.553249 172.748614 
L 685.783631 172.909657 
L 687.014244 172.808087 
L 690.09082 173.022976 
L 690.706194 172.952421 
L 693.782404 173.254819 
L 694.398104 173.057033 
L 695.013442 173.066149 
L 695.629184 173.200157 
L 698.705079 173.202749 
L 698.705079 173.202749 
" clip-path="url(#pda79e64084)" style="fill: none; stroke-dasharray: 10.175,4.4; stroke-dashoffset: 0; stroke: #808a87; stroke-width: 2.75"/>
   </g>
   <g id="line2d_32">
    <path d="M 97.845065 127.894737 
L 123.688554 128.126539 
L 131.687696 128.657538 
L 132.303332 128.803288 
L 132.918354 128.694426 
L 134.764369 129.137438 
L 137.225636 129.616726 
L 138.456675 129.836152 
L 141.53285 130.57138 
L 143.994146 131.114671 
L 145.840061 131.523226 
L 148.301358 132.150959 
L 160.608256 135.666349 
L 167.068628 136.404205 
L 170.145253 136.616967 
L 173.221878 136.772634 
L 181.836173 137.040933 
L 189.835356 137.666601 
L 198.449989 139.451354 
L 199.680617 139.746114 
L 201.526631 140.17625 
L 207.064556 141.490287 
L 215.064093 142.908457 
L 216.601987 143.139519 
L 220.29385 143.694369 
L 222.140212 143.935796 
L 225.831838 144.432815 
L 227.062408 144.668686 
L 230.138618 145.342222 
L 241.214786 148.25148 
L 241.830118 148.261156 
L 243.060695 148.508724 
L 243.675764 148.573442 
L 245.522018 149.071428 
L 247.983317 149.681398 
L 251.675213 150.666704 
L 255.982488 152.328837 
L 257.2131 152.847562 
L 263.981916 155.125706 
L 270.134907 156.258248 
L 271.365479 156.341516 
L 273.211265 156.76964 
L 274.442072 156.930901 
L 275.672818 157.405049 
L 276.288195 157.426202 
L 276.903857 157.308182 
L 281.825928 157.928584 
L 283.671858 158.092089 
L 286.133166 158.412555 
L 289.209796 158.561425 
L 290.440739 158.831142 
L 292.90172 159.000915 
L 294.13235 159.123762 
L 303.362152 161.278508 
L 304.592775 161.801077 
L 306.438698 162.339814 
L 307.668888 162.818984 
L 308.284965 162.799338 
L 310.13112 163.17768 
L 312.591955 163.954907 
L 316.899209 165.104871 
L 319.976088 165.895052 
L 321.20641 166.252797 
L 328.590242 167.864521 
L 331.666881 168.457487 
L 337.820065 169.632519 
L 344.896255 171.526616 
L 346.126909 172.046152 
L 355.972329 174.243476 
L 357.51032 174.481857 
L 358.740954 174.676607 
L 365.201825 175.223446 
L 366.432136 175.201291 
L 371.970348 175.40394 
L 377.508253 175.601499 
L 385.199724 176.148768 
L 402.428701 178.212511 
L 409.197241 179.225852 
L 409.812555 179.247183 
L 411.043021 179.580437 
L 412.274301 179.81355 
L 415.96574 180.6798 
L 417.811751 181.418723 
L 418.427051 181.475603 
L 420.888304 182.109401 
L 423.041657 182.088949 
L 423.657253 181.906855 
L 425.503232 181.825481 
L 426.733874 181.708357 
L 427.349166 181.447982 
L 431.656436 181.08862 
L 432.271736 180.912029 
L 432.887095 180.936116 
L 435.040679 180.475028 
L 438.732596 180.034904 
L 440.57855 179.566883 
L 441.1939 179.658783 
L 441.809192 179.472684 
L 444.270512 179.161096 
L 444.885786 178.907354 
L 446.116408 178.863315 
L 447.962394 178.710988 
L 449.808641 178.393232 
L 453.500114 177.988412 
L 454.11562 177.773643 
L 454.730911 177.857491 
L 456.269641 177.621109 
L 456.884857 177.647635 
L 457.499624 177.481034 
L 458.730562 177.322822 
L 459.961121 176.931085 
L 460.576494 176.839835 
L 461.499498 176.541807 
L 462.115203 176.527946 
L 462.73008 176.391067 
L 463.345047 176.544484 
L 463.960715 176.439618 
L 464.576071 176.480214 
L 465.191162 176.277444 
L 466.422025 176.474288 
L 467.653022 176.144842 
L 468.267959 176.433012 
L 468.883264 176.199016 
L 472.267528 175.74497 
L 473.805872 175.632687 
L 478.420735 175.293203 
L 481.497436 174.98434 
L 482.112601 174.984222 
L 483.958641 174.488579 
L 485.189274 174.46167 
L 486.419924 174.31288 
L 488.88121 174.042721 
L 490.111813 174.045766 
L 491.957461 173.652795 
L 498.726332 172.889965 
L 499.64929 172.693 
L 500.264578 172.800853 
L 501.187629 172.489665 
L 502.418222 172.481536 
L 503.033546 172.337132 
L 503.648872 172.416096 
L 507.340768 171.872332 
L 508.571429 171.82715 
L 512.878678 171.2266 
L 519.031844 170.432805 
L 519.647429 170.46536 
L 521.493161 170.094223 
L 522.723782 170.038002 
L 525.185094 169.767563 
L 527.646443 169.53934 
L 531.338183 169.05362 
L 531.953591 168.921005 
L 533.799562 168.910175 
L 534.415233 168.684096 
L 539.337714 168.884922 
L 539.952797 169.125409 
L 540.568101 169.026976 
L 543.029714 169.443837 
L 543.64468 169.484409 
L 544.260021 169.64433 
L 546.721281 169.795511 
L 547.951937 170.091999 
L 551.643865 170.579645 
L 555.028485 171.170768 
L 558.104704 172.227476 
L 559.335364 172.320841 
L 560.565985 172.279441 
L 561.181361 172.242315 
L 561.796598 172.346477 
L 563.642414 172.282934 
L 564.25792 172.423262 
L 565.488545 172.429233 
L 566.719187 172.730188 
L 567.949868 172.758084 
L 568.565183 172.82772 
L 569.180458 173.146225 
L 570.411079 173.282995 
L 575.334504 173.717781 
L 577.179627 174.074274 
L 578.410063 174.426455 
L 579.640924 174.347449 
L 580.871865 174.297552 
L 581.487033 174.440655 
L 582.102187 174.43907 
L 582.717511 174.659044 
L 589.486004 174.477843 
L 590.716681 174.554027 
L 591.947315 174.655624 
L 592.562782 174.552634 
L 595.023922 175.13019 
L 595.639224 175.208009 
L 596.25453 175.165599 
L 596.869846 175.276008 
L 597.485166 175.171658 
L 598.100174 175.226615 
L 598.715819 175.483785 
L 599.331123 175.485355 
L 599.946505 175.682617 
L 602.407773 175.874689 
L 603.638383 176.099869 
L 605.484378 176.708838 
L 607.330308 176.995594 
L 611.022234 176.974499 
L 612.252915 177.175867 
L 614.098821 177.217785 
L 615.329769 177.30677 
L 615.944789 177.276527 
L 616.560102 177.370766 
L 617.175413 177.276928 
L 617.790662 177.567339 
L 618.406557 177.527936 
L 622.097967 178.048721 
L 623.328624 178.405314 
L 623.943972 178.374612 
L 624.559245 178.618286 
L 625.174832 178.720684 
L 625.789906 178.640152 
L 626.405234 178.780698 
L 627.63552 178.681617 
L 628.866531 178.635552 
L 629.481714 178.518374 
L 631.3282 178.566071 
L 632.559137 178.405267 
L 635.635562 178.254271 
L 636.250363 177.966074 
L 638.711554 177.720379 
L 646.710761 176.289927 
L 649.172321 175.781981 
L 650.402744 175.594147 
L 651.633354 175.544306 
L 653.479321 175.294002 
L 654.710166 175.315547 
L 657.171238 175.142275 
L 659.017196 175.20714 
L 662.709103 175.365806 
L 663.939745 175.383405 
L 664.555059 175.591853 
L 667.015958 175.696436 
L 668.247418 175.690711 
L 669.477921 175.703405 
L 670.708248 175.701785 
L 671.323573 175.680151 
L 671.938552 175.798216 
L 673.169549 175.586955 
L 676.861458 175.697273 
L 678.09176 175.597022 
L 679.322739 175.642922 
L 684.860639 175.584675 
L 686.091279 175.662909 
L 687.321911 175.520858 
L 687.93751 175.654553 
L 694.090443 175.695909 
L 694.705753 175.538068 
L 695.936399 175.68441 
L 697.782898 175.55766 
L 698.397977 175.558641 
L 698.397977 175.558641 
" clip-path="url(#pda79e64084)" style="fill: none; stroke: #ff0000; stroke-width: 2; stroke-linecap: square"/>
   </g>
   <g id="line2d_33">
    <path d="M 98.46041 127.894487 
L 128.303735 128.333215 
L 134.148966 129.072684 
L 136.610319 129.584172 
L 143.378809 131.116756 
L 145.532429 131.566144 
L 148.609053 132.35812 
L 152.300957 133.481235 
L 158.146683 135.29832 
L 161.530768 136.021761 
L 162.761055 136.228579 
L 163.992329 136.389426 
L 165.222675 136.46639 
L 167.683997 136.660329 
L 175.990806 137.129925 
L 181.836173 137.333512 
L 187.681921 137.740998 
L 189.527758 137.951065 
L 190.758475 138.159513 
L 196.911671 139.462136 
L 198.142305 139.741495 
L 201.526631 140.54873 
L 206.1415 141.697718 
L 215.371606 143.380892 
L 216.909638 143.648897 
L 220.29385 144.173332 
L 221.216601 144.259784 
L 223.370523 144.576565 
L 225.524198 144.888381 
L 229.216314 145.597724 
L 233.2156 146.708427 
L 238.753783 148.297895 
L 240.599466 148.624215 
L 241.214786 148.836854 
L 242.753105 149.036007 
L 244.90672 149.475605 
L 246.137361 149.772643 
L 249.521561 150.592921 
L 255.059415 152.512177 
L 257.52105 153.521047 
L 263.058807 155.440594 
L 268.289119 156.425061 
L 271.057828 156.855247 
L 271.980763 156.998326 
L 273.211265 157.297399 
L 273.826777 157.325443 
L 275.36502 157.707588 
L 275.980617 157.985876 
L 277.826364 157.905473 
L 279.364665 158.033382 
L 283.364257 158.485143 
L 287.671463 158.889639 
L 295.670633 159.711247 
L 297.208896 160.037615 
L 299.054893 160.446929 
L 301.516174 161.089749 
L 302.439151 161.351835 
L 303.362152 161.557547 
L 308.284965 163.096922 
L 308.900056 163.142625 
L 311.053261 163.735344 
L 313.20728 164.376247 
L 319.976088 166.040334 
L 321.821723 166.549076 
L 328.282588 167.876231 
L 334.435782 168.964871 
L 335.973898 169.287835 
L 338.12774 169.695938 
L 339.358095 169.931354 
L 342.127271 170.651307 
L 343.050292 170.986371 
L 345.203903 171.597896 
L 346.434537 172.006844 
L 347.049916 172.122758 
L 348.895868 172.637564 
L 356.587365 174.163768 
L 363.663529 174.927922 
L 369.816741 175.170573 
L 377.200604 175.397456 
L 384.276752 175.878278 
L 391.045281 176.629163 
L 392.583573 176.851529 
L 404.274961 178.34567 
L 405.505315 178.542197 
L 411.966437 179.645817 
L 414.12022 180.213448 
L 415.042822 180.440045 
L 418.119371 181.494293 
L 419.042351 181.658065 
L 420.272963 182.123481 
L 421.503646 182.146078 
L 423.041657 182.126758 
L 423.657253 181.89685 
L 426.118552 181.78683 
L 427.041491 181.662534 
L 427.656814 181.460316 
L 433.810033 180.870572 
L 434.733103 180.722431 
L 435.656017 180.619498 
L 436.271315 180.563908 
L 437.194305 180.372004 
L 438.732596 180.292049 
L 439.348023 180.128514 
L 439.963243 180.024444 
L 440.57855 179.84123 
L 441.809192 179.751931 
L 443.655191 179.531409 
L 444.578167 179.388256 
L 445.193664 179.18111 
L 448.270077 178.979614 
L 449.808641 178.697331 
L 450.731344 178.686688 
L 453.192598 178.394033 
L 459.345838 177.556417 
L 459.961121 177.38579 
L 460.576494 177.318049 
L 461.807591 177.045069 
L 462.422069 176.98961 
L 462.73008 176.91562 
L 463.653552 177.028409 
L 464.883704 176.947453 
L 465.499023 176.757987 
L 466.729322 176.849275 
L 467.653022 176.718931 
L 468.575617 176.891068 
L 470.729243 176.433229 
L 479.036153 175.92885 
L 480.882056 175.768809 
L 483.035667 175.39099 
L 483.958641 175.208956 
L 485.189274 175.151707 
L 486.112225 175.028994 
L 487.650823 174.825275 
L 488.573557 174.754913 
L 491.034794 174.524981 
L 493.803725 174.164653 
L 494.726731 174.090932 
L 496.880041 173.793956 
L 515.032273 171.597152 
L 515.647618 171.504013 
L 516.57036 171.478936 
L 519.339378 171.161119 
L 520.57018 171.044242 
L 521.80084 170.857162 
L 523.031456 170.780669 
L 524.877381 170.575747 
L 528.877185 170.136204 
L 529.49291 170.0243 
L 531.338183 169.888982 
L 532.261278 169.803243 
L 534.107312 169.766373 
L 535.030199 169.596377 
L 536.260733 169.730068 
L 539.029505 169.88256 
L 539.645195 169.903858 
L 540.260412 170.048418 
L 541.183396 170.074798 
L 545.182983 170.647793 
L 546.105964 170.680929 
L 549.182842 171.261978 
L 550.72088 171.34424 
L 555.950905 172.607106 
L 558.719871 173.534696 
L 560.258327 173.561871 
L 561.488953 173.498814 
L 562.411968 173.627898 
L 563.642414 173.571018 
L 565.180933 173.784048 
L 565.795817 173.803962 
L 567.334544 174.097566 
L 569.180458 174.487235 
L 570.103442 174.750539 
L 571.026752 174.719732 
L 571.94942 174.844291 
L 573.795464 174.997234 
L 574.718756 175.150797 
L 575.641817 175.269347 
L 577.487316 175.673286 
L 578.410063 175.942445 
L 579.333266 175.972443 
L 580.563853 175.862875 
L 582.102187 176.025991 
L 583.640524 176.270694 
L 584.563442 176.3323 
L 585.17876 176.224125 
L 586.409402 176.153773 
L 587.332404 176.167151 
L 589.178368 176.15376 
L 593.793282 176.584526 
L 595.639224 177.020725 
L 596.561822 177.017435 
L 597.177805 177.098362 
L 597.792847 177.072691 
L 598.408141 177.179512 
L 599.331123 177.403539 
L 599.946505 177.54648 
L 600.56164 177.649863 
L 601.177134 177.673696 
L 604.561372 178.391482 
L 607.022671 178.993279 
L 608.253265 179.023208 
L 608.868607 178.906662 
L 611.329521 179.130719 
L 613.17586 179.379786 
L 614.406488 179.347366 
L 615.329769 179.557988 
L 616.252479 179.51066 
L 617.790662 179.7622 
L 618.406557 179.825806 
L 619.021399 179.870122 
L 619.944219 180.062519 
L 621.175028 180.242358 
L 625.482266 181.138743 
L 628.866531 181.164918 
L 629.789916 181.016427 
L 631.943776 180.978878 
L 632.866189 180.905317 
L 633.788888 180.875355 
L 634.712873 180.725108 
L 635.635562 180.806839 
L 636.558054 180.472677 
L 639.019282 180.234667 
L 643.941845 179.387566 
L 646.710761 178.952296 
L 649.787361 178.341095 
L 651.941009 178.161957 
L 655.325274 177.953138 
L 659.324874 177.912359 
L 662.093834 178.111814 
L 663.324861 178.138854 
L 664.247402 178.271405 
L 665.170415 178.43432 
L 669.477921 178.588075 
L 670.708248 178.545296 
L 672.861914 178.611515 
L 674.092499 178.588008 
L 676.861458 178.650197 
L 678.707452 178.634933 
L 681.784044 178.643736 
L 682.707045 178.632739 
L 683.937587 178.673447 
L 685.168271 178.646216 
L 686.398942 178.730209 
L 687.629588 178.676483 
L 688.860242 178.788122 
L 690.09082 178.841134 
L 691.013834 178.76039 
L 694.090443 178.947132 
L 694.705753 178.793953 
L 695.321102 178.805292 
L 696.244052 178.89841 
L 698.705079 178.841165 
L 698.705079 178.841165 
" clip-path="url(#pda79e64084)" style="fill: none; stroke: #0000ff; stroke-width: 2; stroke-linecap: square"/>
   </g>
   <g id="patch_3">
    <path d="M 82.8 313.2 
L 82.8 19.8 
" style="fill: none; stroke: #000000; stroke-width: 0.8; stroke-linejoin: miter; stroke-linecap: square"/>
   </g>
   <g id="patch_4">
    <path d="M 709.2 313.2 
L 709.2 19.8 
" style="fill: none; stroke: #000000; stroke-width: 0.8; stroke-linejoin: miter; stroke-linecap: square"/>
   </g>
   <g id="patch_5">
    <path d="M 82.8 313.2 
L 709.2 313.2 
" style="fill: none; stroke: #000000; stroke-width: 0.8; stroke-linejoin: miter; stroke-linecap: square"/>
   </g>
   <g id="patch_6">
    <path d="M 82.8 19.8 
L 709.2 19.8 
" style="fill: none; stroke: #000000; stroke-width: 0.8; stroke-linejoin: miter; stroke-linecap: square"/>
   </g>
  </g>
 </g>
 <defs>
  <clipPath id="pda79e64084">
   <rect x="82.8" y="19.8" width="626.4" height="293.4"/>
  </clipPath>
 </defs>
</svg>
