<?xml version="1.0" encoding="utf-8" standalone="no"?>
<!DOCTYPE svg PUBLIC "-//W3C//DTD SVG 1.1//EN"
  "http://www.w3.org/Graphics/SVG/1.1/DTD/svg11.dtd">
<svg xmlns:xlink="http://www.w3.org/1999/xlink" width="1080pt" height="913.68pt" viewBox="0 0 1080 913.68" xmlns="http://www.w3.org/2000/svg" version="1.1">
 <metadata>
  <rdf:RDF xmlns:dc="http://purl.org/dc/elements/1.1/" xmlns:cc="http://creativecommons.org/ns#" xmlns:rdf="http://www.w3.org/1999/02/22-rdf-syntax-ns#">
   <cc:Work>
    <dc:type rdf:resource="http://purl.org/dc/dcmitype/StillImage"/>
    <dc:date>2024-03-12T15:47:42.366919</dc:date>
    <dc:format>image/svg+xml</dc:format>
    <dc:creator>
     <cc:Agent>
      <dc:title>Matplotlib v3.7.0, https://matplotlib.org/</dc:title>
     </cc:Agent>
    </dc:creator>
   </cc:Work>
  </rdf:RDF>
 </metadata>
 <defs>
  <style type="text/css">*{stroke-linejoin: round; stroke-linecap: butt}</style>
 </defs>
 <g id="figure_1">
  <g id="patch_1">
   <path d="M 0 913.68 
L 1080 913.68 
L 1080 0 
L 0 0 
z
" style="fill: #ffffff"/>
  </g>
  <g id="axes_1">
   <g id="patch_2">
    <path d="M 135 813.1752 
L 972 813.1752 
L 972 109.6416 
L 135 109.6416 
z
" style="fill: #ffffff"/>
   </g>
   <g id="matplotlib.axis_1">
    <g id="xtick_1">
     <g id="line2d_1">
      <path d="M 205.282443 813.1752 
L 205.282443 109.6416 
" clip-path="url(#p6ca2e3d60a)" style="fill: none; stroke: #b0b0b0; stroke-width: 0.8; stroke-linecap: square"/>
     </g>
     <g id="line2d_2">
      <defs>
       <path id="mccd428a390" d="M 0 0 
L 0 -5 
" style="stroke: #000000; stroke-width: 0.8"/>
      </defs>
      <g>
       <use xlink:href="#mccd428a390" x="205.282443" y="813.1752" style="stroke: #000000; stroke-width: 0.8"/>
      </g>
     </g>
     <g id="text_1">
      <!-- −100 -->
      <g transform="translate(164.081661 839.470512) scale(0.3 -0.3)">
       <defs>
        <path id="DejaVuSans-2212" d="M 678 2272 
L 4684 2272 
L 4684 1741 
L 678 1741 
L 678 2272 
z
" transform="scale(0.015625)"/>
        <path id="DejaVuSans-31" d="M 794 531 
L 1825 531 
L 1825 4091 
L 703 3866 
L 703 4441 
L 1819 4666 
L 2450 4666 
L 2450 531 
L 3481 531 
L 3481 0 
L 794 0 
L 794 531 
z
" transform="scale(0.015625)"/>
        <path id="DejaVuSans-30" d="M 2034 4250 
Q 1547 4250 1301 3770 
Q 1056 3291 1056 2328 
Q 1056 1369 1301 889 
Q 1547 409 2034 409 
Q 2525 409 2770 889 
Q 3016 1369 3016 2328 
Q 3016 3291 2770 3770 
Q 2525 4250 2034 4250 
z
M 2034 4750 
Q 2819 4750 3233 4129 
Q 3647 3509 3647 2328 
Q 3647 1150 3233 529 
Q 2819 -91 2034 -91 
Q 1250 -91 836 529 
Q 422 1150 422 2328 
Q 422 3509 836 4129 
Q 1250 4750 2034 4750 
z
" transform="scale(0.015625)"/>
       </defs>
       <use xlink:href="#DejaVuSans-2212"/>
       <use xlink:href="#DejaVuSans-31" x="83.789062"/>
       <use xlink:href="#DejaVuSans-30" x="147.412109"/>
       <use xlink:href="#DejaVuSans-30" x="211.035156"/>
      </g>
     </g>
    </g>
    <g id="xtick_2">
     <g id="line2d_3">
      <path d="M 333.068702 813.1752 
L 333.068702 109.6416 
" clip-path="url(#p6ca2e3d60a)" style="fill: none; stroke: #b0b0b0; stroke-width: 0.8; stroke-linecap: square"/>
     </g>
     <g id="line2d_4">
      <g>
       <use xlink:href="#mccd428a390" x="333.068702" y="813.1752" style="stroke: #000000; stroke-width: 0.8"/>
      </g>
     </g>
     <g id="text_2">
      <!-- 0 -->
      <g transform="translate(323.524952 839.470512) scale(0.3 -0.3)">
       <use xlink:href="#DejaVuSans-30"/>
      </g>
     </g>
    </g>
    <g id="xtick_3">
     <g id="line2d_5">
      <path d="M 460.854962 813.1752 
L 460.854962 109.6416 
" clip-path="url(#p6ca2e3d60a)" style="fill: none; stroke: #b0b0b0; stroke-width: 0.8; stroke-linecap: square"/>
     </g>
     <g id="line2d_6">
      <g>
       <use xlink:href="#mccd428a390" x="460.854962" y="813.1752" style="stroke: #000000; stroke-width: 0.8"/>
      </g>
     </g>
     <g id="text_3">
      <!-- 100 -->
      <g transform="translate(432.223712 839.470512) scale(0.3 -0.3)">
       <use xlink:href="#DejaVuSans-31"/>
       <use xlink:href="#DejaVuSans-30" x="63.623047"/>
       <use xlink:href="#DejaVuSans-30" x="127.246094"/>
      </g>
     </g>
    </g>
    <g id="xtick_4">
     <g id="line2d_7">
      <path d="M 588.641221 813.1752 
L 588.641221 109.6416 
" clip-path="url(#p6ca2e3d60a)" style="fill: none; stroke: #b0b0b0; stroke-width: 0.8; stroke-linecap: square"/>
     </g>
     <g id="line2d_8">
      <g>
       <use xlink:href="#mccd428a390" x="588.641221" y="813.1752" style="stroke: #000000; stroke-width: 0.8"/>
      </g>
     </g>
     <g id="text_4">
      <!-- 200 -->
      <g transform="translate(560.009971 839.470512) scale(0.3 -0.3)">
       <defs>
        <path id="DejaVuSans-32" d="M 1228 531 
L 3431 531 
L 3431 0 
L 469 0 
L 469 531 
Q 828 903 1448 1529 
Q 2069 2156 2228 2338 
Q 2531 2678 2651 2914 
Q 2772 3150 2772 3378 
Q 2772 3750 2511 3984 
Q 2250 4219 1831 4219 
Q 1534 4219 1204 4116 
Q 875 4013 500 3803 
L 500 4441 
Q 881 4594 1212 4672 
Q 1544 4750 1819 4750 
Q 2544 4750 2975 4387 
Q 3406 4025 3406 3419 
Q 3406 3131 3298 2873 
Q 3191 2616 2906 2266 
Q 2828 2175 2409 1742 
Q 1991 1309 1228 531 
z
" transform="scale(0.015625)"/>
       </defs>
       <use xlink:href="#DejaVuSans-32"/>
       <use xlink:href="#DejaVuSans-30" x="63.623047"/>
       <use xlink:href="#DejaVuSans-30" x="127.246094"/>
      </g>
     </g>
    </g>
    <g id="xtick_5">
     <g id="line2d_9">
      <path d="M 716.427481 813.1752 
L 716.427481 109.6416 
" clip-path="url(#p6ca2e3d60a)" style="fill: none; stroke: #b0b0b0; stroke-width: 0.8; stroke-linecap: square"/>
     </g>
     <g id="line2d_10">
      <g>
       <use xlink:href="#mccd428a390" x="716.427481" y="813.1752" style="stroke: #000000; stroke-width: 0.8"/>
      </g>
     </g>
     <g id="text_5">
      <!-- 300 -->
      <g transform="translate(687.796231 839.470512) scale(0.3 -0.3)">
       <defs>
        <path id="DejaVuSans-33" d="M 2597 2516 
Q 3050 2419 3304 2112 
Q 3559 1806 3559 1356 
Q 3559 666 3084 287 
Q 2609 -91 1734 -91 
Q 1441 -91 1130 -33 
Q 819 25 488 141 
L 488 750 
Q 750 597 1062 519 
Q 1375 441 1716 441 
Q 2309 441 2620 675 
Q 2931 909 2931 1356 
Q 2931 1769 2642 2001 
Q 2353 2234 1838 2234 
L 1294 2234 
L 1294 2753 
L 1863 2753 
Q 2328 2753 2575 2939 
Q 2822 3125 2822 3475 
Q 2822 3834 2567 4026 
Q 2313 4219 1838 4219 
Q 1578 4219 1281 4162 
Q 984 4106 628 3988 
L 628 4550 
Q 988 4650 1302 4700 
Q 1616 4750 1894 4750 
Q 2613 4750 3031 4423 
Q 3450 4097 3450 3541 
Q 3450 3153 3228 2886 
Q 3006 2619 2597 2516 
z
" transform="scale(0.015625)"/>
       </defs>
       <use xlink:href="#DejaVuSans-33"/>
       <use xlink:href="#DejaVuSans-30" x="63.623047"/>
       <use xlink:href="#DejaVuSans-30" x="127.246094"/>
      </g>
     </g>
    </g>
    <g id="xtick_6">
     <g id="line2d_11">
      <path d="M 844.21374 813.1752 
L 844.21374 109.6416 
" clip-path="url(#p6ca2e3d60a)" style="fill: none; stroke: #b0b0b0; stroke-width: 0.8; stroke-linecap: square"/>
     </g>
     <g id="line2d_12">
      <g>
       <use xlink:href="#mccd428a390" x="844.21374" y="813.1752" style="stroke: #000000; stroke-width: 0.8"/>
      </g>
     </g>
     <g id="text_6">
      <!-- 400 -->
      <g transform="translate(815.58249 839.470512) scale(0.3 -0.3)">
       <defs>
        <path id="DejaVuSans-34" d="M 2419 4116 
L 825 1625 
L 2419 1625 
L 2419 4116 
z
M 2253 4666 
L 3047 4666 
L 3047 1625 
L 3713 1625 
L 3713 1100 
L 3047 1100 
L 3047 0 
L 2419 0 
L 2419 1100 
L 313 1100 
L 313 1709 
L 2253 4666 
z
" transform="scale(0.015625)"/>
       </defs>
       <use xlink:href="#DejaVuSans-34"/>
       <use xlink:href="#DejaVuSans-30" x="63.623047"/>
       <use xlink:href="#DejaVuSans-30" x="127.246094"/>
      </g>
     </g>
    </g>
    <g id="xtick_7">
     <g id="line2d_13">
      <path d="M 972 813.1752 
L 972 109.6416 
" clip-path="url(#p6ca2e3d60a)" style="fill: none; stroke: #b0b0b0; stroke-width: 0.8; stroke-linecap: square"/>
     </g>
     <g id="line2d_14">
      <g>
       <use xlink:href="#mccd428a390" x="972" y="813.1752" style="stroke: #000000; stroke-width: 0.8"/>
      </g>
     </g>
     <g id="text_7">
      <!-- 500 -->
      <g transform="translate(943.36875 839.470512) scale(0.3 -0.3)">
       <defs>
        <path id="DejaVuSans-35" d="M 691 4666 
L 3169 4666 
L 3169 4134 
L 1269 4134 
L 1269 2991 
Q 1406 3038 1543 3061 
Q 1681 3084 1819 3084 
Q 2600 3084 3056 2656 
Q 3513 2228 3513 1497 
Q 3513 744 3044 326 
Q 2575 -91 1722 -91 
Q 1428 -91 1123 -41 
Q 819 9 494 109 
L 494 744 
Q 775 591 1075 516 
Q 1375 441 1709 441 
Q 2250 441 2565 725 
Q 2881 1009 2881 1497 
Q 2881 1984 2565 2268 
Q 2250 2553 1709 2553 
Q 1456 2553 1204 2497 
Q 953 2441 691 2322 
L 691 4666 
z
" transform="scale(0.015625)"/>
       </defs>
       <use xlink:href="#DejaVuSans-35"/>
       <use xlink:href="#DejaVuSans-30" x="63.623047"/>
       <use xlink:href="#DejaVuSans-30" x="127.246094"/>
      </g>
     </g>
    </g>
    <g id="text_8">
     <!-- X (m) -->
     <g transform="translate(511.221094 874.0127) scale(0.35 -0.35)">
      <defs>
       <path id="TimesNewRomanPSMT-58" d="M 2613 2347 
L 3522 991 
Q 3900 428 4083 279 
Q 4266 131 4547 116 
L 4547 0 
L 2728 0 
L 2728 116 
Q 2909 119 2997 153 
Q 3063 181 3105 239 
Q 3147 297 3147 356 
Q 3147 428 3119 500 
Q 3097 553 2947 775 
L 2228 1863 
L 1341 725 
Q 1200 544 1172 483 
Q 1144 422 1144 356 
Q 1144 256 1228 190 
Q 1313 125 1550 116 
L 1550 0 
L 47 0 
L 47 116 
Q 206 131 322 181 
Q 516 263 691 400 
Q 866 538 1091 822 
L 2091 2084 
L 1256 3306 
Q 916 3803 678 3958 
Q 441 4113 131 4122 
L 131 4238 
L 2091 4238 
L 2091 4122 
Q 1841 4113 1748 4041 
Q 1656 3969 1656 3881 
Q 1656 3766 1806 3544 
L 2456 2572 
L 3209 3525 
Q 3341 3694 3370 3756 
Q 3400 3819 3400 3884 
Q 3400 3950 3363 4000 
Q 3316 4066 3244 4092 
Q 3172 4119 2947 4122 
L 2947 4238 
L 4450 4238 
L 4450 4122 
Q 4272 4113 4159 4066 
Q 3991 3994 3850 3872 
Q 3709 3750 3453 3422 
L 2613 2347 
z
" transform="scale(0.015625)"/>
       <path id="TimesNewRomanPSMT-20" transform="scale(0.015625)"/>
       <path id="TimesNewRomanPSMT-28" d="M 1988 -1253 
L 1988 -1369 
Q 1516 -1131 1200 -813 
Q 750 -359 506 256 
Q 263 872 263 1534 
Q 263 2503 741 3301 
Q 1219 4100 1988 4444 
L 1988 4313 
Q 1603 4100 1356 3731 
Q 1109 3363 987 2797 
Q 866 2231 866 1616 
Q 866 947 969 400 
Q 1050 -31 1165 -292 
Q 1281 -553 1476 -793 
Q 1672 -1034 1988 -1253 
z
" transform="scale(0.015625)"/>
       <path id="TimesNewRomanPSMT-6d" d="M 1050 2338 
Q 1363 2650 1419 2697 
Q 1559 2816 1721 2881 
Q 1884 2947 2044 2947 
Q 2313 2947 2506 2790 
Q 2700 2634 2766 2338 
Q 3088 2713 3309 2830 
Q 3531 2947 3766 2947 
Q 3994 2947 4170 2830 
Q 4347 2713 4450 2447 
Q 4519 2266 4519 1878 
L 4519 647 
Q 4519 378 4559 278 
Q 4591 209 4675 161 
Q 4759 113 4950 113 
L 4950 0 
L 3538 0 
L 3538 113 
L 3597 113 
Q 3781 113 3884 184 
Q 3956 234 3988 344 
Q 4000 397 4000 647 
L 4000 1878 
Q 4000 2228 3916 2372 
Q 3794 2572 3525 2572 
Q 3359 2572 3192 2489 
Q 3025 2406 2788 2181 
L 2781 2147 
L 2788 2013 
L 2788 647 
Q 2788 353 2820 281 
Q 2853 209 2943 161 
Q 3034 113 3253 113 
L 3253 0 
L 1806 0 
L 1806 113 
Q 2044 113 2133 169 
Q 2222 225 2256 338 
Q 2272 391 2272 647 
L 2272 1878 
Q 2272 2228 2169 2381 
Q 2031 2581 1784 2581 
Q 1616 2581 1450 2491 
Q 1191 2353 1050 2181 
L 1050 647 
Q 1050 366 1089 281 
Q 1128 197 1204 155 
Q 1281 113 1516 113 
L 1516 0 
L 100 0 
L 100 113 
Q 297 113 375 155 
Q 453 197 493 289 
Q 534 381 534 647 
L 534 1741 
Q 534 2213 506 2350 
Q 484 2453 437 2492 
Q 391 2531 309 2531 
Q 222 2531 100 2484 
L 53 2597 
L 916 2947 
L 1050 2947 
L 1050 2338 
z
" transform="scale(0.015625)"/>
       <path id="TimesNewRomanPSMT-29" d="M 144 4313 
L 144 4444 
Q 619 4209 934 3891 
Q 1381 3434 1625 2820 
Q 1869 2206 1869 1541 
Q 1869 572 1392 -226 
Q 916 -1025 144 -1369 
L 144 -1253 
Q 528 -1038 776 -670 
Q 1025 -303 1145 264 
Q 1266 831 1266 1447 
Q 1266 2113 1163 2663 
Q 1084 3094 967 3353 
Q 850 3613 656 3853 
Q 463 4094 144 4313 
z
" transform="scale(0.015625)"/>
      </defs>
      <use xlink:href="#TimesNewRomanPSMT-58"/>
      <use xlink:href="#TimesNewRomanPSMT-20" x="72.216797"/>
      <use xlink:href="#TimesNewRomanPSMT-28" x="97.216797"/>
      <use xlink:href="#TimesNewRomanPSMT-6d" x="130.517578"/>
      <use xlink:href="#TimesNewRomanPSMT-29" x="208.300781"/>
     </g>
    </g>
   </g>
   <g id="matplotlib.axis_2">
    <g id="ytick_1">
     <g id="line2d_15">
      <path d="M 135 772.742234 
L 972 772.742234 
" clip-path="url(#p6ca2e3d60a)" style="fill: none; stroke: #b0b0b0; stroke-width: 0.8; stroke-linecap: square"/>
     </g>
     <g id="line2d_16">
      <defs>
       <path id="m57a91db432" d="M 0 0 
L 5 0 
" style="stroke: #000000; stroke-width: 0.8"/>
      </defs>
      <g>
       <use xlink:href="#m57a91db432" x="135" y="772.742234" style="stroke: #000000; stroke-width: 0.8"/>
      </g>
     </g>
     <g id="text_9">
      <!-- −400 -->
      <g transform="translate(49.098438 784.139891) scale(0.3 -0.3)">
       <use xlink:href="#DejaVuSans-2212"/>
       <use xlink:href="#DejaVuSans-34" x="83.789062"/>
       <use xlink:href="#DejaVuSans-30" x="147.412109"/>
       <use xlink:href="#DejaVuSans-30" x="211.035156"/>
      </g>
     </g>
    </g>
    <g id="ytick_2">
     <g id="line2d_17">
      <path d="M 135 691.876303 
L 972 691.876303 
" clip-path="url(#p6ca2e3d60a)" style="fill: none; stroke: #b0b0b0; stroke-width: 0.8; stroke-linecap: square"/>
     </g>
     <g id="line2d_18">
      <g>
       <use xlink:href="#m57a91db432" x="135" y="691.876303" style="stroke: #000000; stroke-width: 0.8"/>
      </g>
     </g>
     <g id="text_10">
      <!-- −300 -->
      <g transform="translate(49.098438 703.27396) scale(0.3 -0.3)">
       <use xlink:href="#DejaVuSans-2212"/>
       <use xlink:href="#DejaVuSans-33" x="83.789062"/>
       <use xlink:href="#DejaVuSans-30" x="147.412109"/>
       <use xlink:href="#DejaVuSans-30" x="211.035156"/>
      </g>
     </g>
    </g>
    <g id="ytick_3">
     <g id="line2d_19">
      <path d="M 135 611.010372 
L 972 611.010372 
" clip-path="url(#p6ca2e3d60a)" style="fill: none; stroke: #b0b0b0; stroke-width: 0.8; stroke-linecap: square"/>
     </g>
     <g id="line2d_20">
      <g>
       <use xlink:href="#m57a91db432" x="135" y="611.010372" style="stroke: #000000; stroke-width: 0.8"/>
      </g>
     </g>
     <g id="text_11">
      <!-- −200 -->
      <g transform="translate(49.098438 622.408029) scale(0.3 -0.3)">
       <use xlink:href="#DejaVuSans-2212"/>
       <use xlink:href="#DejaVuSans-32" x="83.789062"/>
       <use xlink:href="#DejaVuSans-30" x="147.412109"/>
       <use xlink:href="#DejaVuSans-30" x="211.035156"/>
      </g>
     </g>
    </g>
    <g id="ytick_4">
     <g id="line2d_21">
      <path d="M 135 530.144441 
L 972 530.144441 
" clip-path="url(#p6ca2e3d60a)" style="fill: none; stroke: #b0b0b0; stroke-width: 0.8; stroke-linecap: square"/>
     </g>
     <g id="line2d_22">
      <g>
       <use xlink:href="#m57a91db432" x="135" y="530.144441" style="stroke: #000000; stroke-width: 0.8"/>
      </g>
     </g>
     <g id="text_12">
      <!-- −100 -->
      <g transform="translate(49.098438 541.542098) scale(0.3 -0.3)">
       <use xlink:href="#DejaVuSans-2212"/>
       <use xlink:href="#DejaVuSans-31" x="83.789062"/>
       <use xlink:href="#DejaVuSans-30" x="147.412109"/>
       <use xlink:href="#DejaVuSans-30" x="211.035156"/>
      </g>
     </g>
    </g>
    <g id="ytick_5">
     <g id="line2d_23">
      <path d="M 135 449.27851 
L 972 449.27851 
" clip-path="url(#p6ca2e3d60a)" style="fill: none; stroke: #b0b0b0; stroke-width: 0.8; stroke-linecap: square"/>
     </g>
     <g id="line2d_24">
      <g>
       <use xlink:href="#m57a91db432" x="135" y="449.27851" style="stroke: #000000; stroke-width: 0.8"/>
      </g>
     </g>
     <g id="text_13">
      <!-- 0 -->
      <g transform="translate(112.4125 460.676167) scale(0.3 -0.3)">
       <use xlink:href="#DejaVuSans-30"/>
      </g>
     </g>
    </g>
    <g id="ytick_6">
     <g id="line2d_25">
      <path d="M 135 368.412579 
L 972 368.412579 
" clip-path="url(#p6ca2e3d60a)" style="fill: none; stroke: #b0b0b0; stroke-width: 0.8; stroke-linecap: square"/>
     </g>
     <g id="line2d_26">
      <g>
       <use xlink:href="#m57a91db432" x="135" y="368.412579" style="stroke: #000000; stroke-width: 0.8"/>
      </g>
     </g>
     <g id="text_14">
      <!-- 100 -->
      <g transform="translate(74.2375 379.810236) scale(0.3 -0.3)">
       <use xlink:href="#DejaVuSans-31"/>
       <use xlink:href="#DejaVuSans-30" x="63.623047"/>
       <use xlink:href="#DejaVuSans-30" x="127.246094"/>
      </g>
     </g>
    </g>
    <g id="ytick_7">
     <g id="line2d_27">
      <path d="M 135 287.546648 
L 972 287.546648 
" clip-path="url(#p6ca2e3d60a)" style="fill: none; stroke: #b0b0b0; stroke-width: 0.8; stroke-linecap: square"/>
     </g>
     <g id="line2d_28">
      <g>
       <use xlink:href="#m57a91db432" x="135" y="287.546648" style="stroke: #000000; stroke-width: 0.8"/>
      </g>
     </g>
     <g id="text_15">
      <!-- 200 -->
      <g transform="translate(74.2375 298.944305) scale(0.3 -0.3)">
       <use xlink:href="#DejaVuSans-32"/>
       <use xlink:href="#DejaVuSans-30" x="63.623047"/>
       <use xlink:href="#DejaVuSans-30" x="127.246094"/>
      </g>
     </g>
    </g>
    <g id="ytick_8">
     <g id="line2d_29">
      <path d="M 135 206.680717 
L 972 206.680717 
" clip-path="url(#p6ca2e3d60a)" style="fill: none; stroke: #b0b0b0; stroke-width: 0.8; stroke-linecap: square"/>
     </g>
     <g id="line2d_30">
      <g>
       <use xlink:href="#m57a91db432" x="135" y="206.680717" style="stroke: #000000; stroke-width: 0.8"/>
      </g>
     </g>
     <g id="text_16">
      <!-- 300 -->
      <g transform="translate(74.2375 218.078373) scale(0.3 -0.3)">
       <use xlink:href="#DejaVuSans-33"/>
       <use xlink:href="#DejaVuSans-30" x="63.623047"/>
       <use xlink:href="#DejaVuSans-30" x="127.246094"/>
      </g>
     </g>
    </g>
    <g id="ytick_9">
     <g id="line2d_31">
      <path d="M 135 125.814786 
L 972 125.814786 
" clip-path="url(#p6ca2e3d60a)" style="fill: none; stroke: #b0b0b0; stroke-width: 0.8; stroke-linecap: square"/>
     </g>
     <g id="line2d_32">
      <g>
       <use xlink:href="#m57a91db432" x="135" y="125.814786" style="stroke: #000000; stroke-width: 0.8"/>
      </g>
     </g>
     <g id="text_17">
      <!-- 400 -->
      <g transform="translate(74.2375 137.212442) scale(0.3 -0.3)">
       <use xlink:href="#DejaVuSans-34"/>
       <use xlink:href="#DejaVuSans-30" x="63.623047"/>
       <use xlink:href="#DejaVuSans-30" x="127.246094"/>
      </g>
     </g>
    </g>
    <g id="text_18">
     <!-- Y (m) -->
     <g transform="translate(37.611719 503.031056) rotate(-90) scale(0.35 -0.35)">
      <defs>
       <path id="TimesNewRomanPSMT-59" d="M 3050 4238 
L 4528 4238 
L 4528 4122 
L 4447 4122 
Q 4366 4122 4209 4050 
Q 4053 3978 3925 3843 
Q 3797 3709 3609 3406 
L 2588 1797 
L 2588 734 
Q 2588 344 2675 247 
Q 2794 116 3050 116 
L 3188 116 
L 3188 0 
L 1388 0 
L 1388 116 
L 1538 116 
Q 1806 116 1919 278 
Q 1988 378 1988 734 
L 1988 1738 
L 825 3513 
Q 619 3825 545 3903 
Q 472 3981 241 4091 
Q 178 4122 59 4122 
L 59 4238 
L 1872 4238 
L 1872 4122 
L 1778 4122 
Q 1631 4122 1507 4053 
Q 1384 3984 1384 3847 
Q 1384 3734 1575 3441 
L 2459 2075 
L 3291 3381 
Q 3478 3675 3478 3819 
Q 3478 3906 3433 3975 
Q 3388 4044 3303 4083 
Q 3219 4122 3050 4122 
L 3050 4238 
z
" transform="scale(0.015625)"/>
      </defs>
      <use xlink:href="#TimesNewRomanPSMT-59"/>
      <use xlink:href="#TimesNewRomanPSMT-20" x="68.466797"/>
      <use xlink:href="#TimesNewRomanPSMT-28" x="93.466797"/>
      <use xlink:href="#TimesNewRomanPSMT-6d" x="126.767578"/>
      <use xlink:href="#TimesNewRomanPSMT-29" x="204.550781"/>
     </g>
    </g>
   </g>
   <g id="line2d_33">
    <defs>
     <path id="mfa6e2df9ba" d="M 0 -3 
L -0.673542 -0.927051 
L -2.85317 -0.927051 
L -1.089814 0.354102 
L -1.763356 2.427051 
L -0 1.145898 
L 1.763356 2.427051 
L 1.089814 0.354102 
L 2.85317 -0.927051 
L 0.673542 -0.927051 
z
" style="stroke: #ff0000; stroke-linejoin: bevel"/>
    </defs>
    <g clip-path="url(#p6ca2e3d60a)">
     <use xlink:href="#mfa6e2df9ba" x="333.068702" y="449.27851" style="fill: #ff0000; stroke: #ff0000; stroke-linejoin: bevel"/>
    </g>
   </g>
   <g id="line2d_34">
    <path d="M 333.068702 449.27851 
L 350.338555 449.247499 
L 351.850918 448.763155 
L 353.306519 447.961787 
L 354.937365 446.400882 
L 355.814644 444.934186 
L 356.132844 444.067082 
L 356.379267 443.129916 
L 356.496435 441.520408 
L 356.357927 439.136758 
L 356.079366 435.083741 
L 355.803411 431.300364 
L 354.68118 420.027645 
L 353.709544 413.759387 
L 351.239129 401.131444 
L 350.665126 395.580289 
L 350.173609 388.751671 
L 349.754278 377.144604 
L 348.448737 343.087149 
L 347.699539 328.853532 
L 347.308181 317.874364 
L 346.990785 309.082378 
L 346.817021 297.688611 
L 346.756067 294.698269 
L 346.208363 281.267409 
L 346.308726 277.191928 
L 346.311077 273.026523 
L 346.183304 267.909246 
L 346.129672 261.578738 
L 345.980418 249.077188 
L 345.620352 243.047501 
L 343.980071 214.958477 
L 341.345297 156.506803 
L 341.138359 152.014863 
L 341.163172 150.053298 
L 341.419127 148.300771 
L 341.92167 146.738361 
L 342.677313 145.34868 
L 343.323668 144.499021 
L 344.101549 143.716563 
L 345.480032 142.637892 
L 347.081705 141.705993 
L 348.975715 140.867413 
L 351.890596 139.943843 
L 355.230597 139.219285 
L 359.027868 138.672227 
L 363.23109 138.26539 
L 370.238952 137.896641 
L 378.098216 137.49587 
L 384.728342 137.086688 
L 391.23081 136.904417 
L 413.675023 136.662466 
L 416.684133 136.836085 
L 419.513935 137.204914 
L 422.129157 137.743158 
L 425.999534 139.008952 
L 429.312713 140.437368 
L 431.929852 142.170163 
L 433.063968 143.386144 
L 433.730603 144.27575 
L 434.508732 145.734248 
L 435.223389 147.85892 
L 435.650975 150.172898 
L 436.027817 153.283326 
L 436.200699 156.604813 
L 436.177429 160.105903 
L 435.776461 170.941615 
L 435.951988 175.229935 
L 436.35132 180.858042 
L 436.588517 185.757628 
L 436.818456 191.30681 
L 437.478983 199.502734 
L 438.726739 211.8639 
L 439.115593 216.28759 
L 439.234472 220.097507 
L 439.251212 228.39136 
L 439.037183 239.085232 
L 439.317303 242.657566 
L 439.946178 246.990605 
L 440.961159 254.310751 
L 441.134795 257.90322 
L 441.041319 260.729726 
L 440.485116 266.70119 
L 439.916698 273.757228 
L 439.979198 274.446044 
L 440.269337 275.436733 
L 440.9883 276.673981 
L 442.022769 277.744404 
L 443.67461 278.921973 
L 444.976535 279.56793 
L 447.803014 280.523038 
L 451.479041 281.259807 
L 454.046395 281.545507 
L 457.886909 281.725514 
L 464.346594 281.69527 
L 475.175712 281.480733 
L 483.842304 281.525048 
L 492.084262 281.736916 
L 502.145769 281.739908 
L 508.510803 281.596695 
L 512.096102 281.332829 
L 514.724282 280.916127 
L 516.558781 280.4336 
L 518.738559 279.572297 
L 520.256021 278.763719 
L 521.678666 277.786777 
L 522.503398 277.044994 
L 523.312796 276.212075 
L 524.431182 274.304448 
L 524.817352 273.246317 
L 525.209528 271.561637 
L 525.419225 269.761561 
L 526.306062 256.304419 
L 526.499019 251.243102 
L 526.389889 246.866961 
L 526.045889 242.498341 
L 525.286072 236.600869 
L 524.291511 228.712559 
L 523.901635 223.344436 
L 522.955123 201.218062 
L 522.29549 186.752522 
L 521.459384 166.395656 
L 520.347261 149.499447 
L 520.397353 146.490426 
L 520.705829 144.408613 
L 521.239081 142.612096 
L 521.785367 141.438003 
L 522.49982 140.383673 
L 523.428187 139.408915 
L 525.323385 137.996349 
L 527.338191 136.982695 
L 529.231345 136.255953 
L 531.463515 135.677599 
L 533.983971 135.253296 
L 537.712263 134.892068 
L 541.832987 134.708179 
L 556.151054 134.481916 
L 580.62864 134.172523 
L 588.489156 134.194761 
L 591.910888 134.473101 
L 594.349945 134.900154 
L 597.265644 135.84297 
L 599.791084 137.147985 
L 600.898096 137.938854 
L 601.982235 138.798377 
L 603.635789 140.771991 
L 604.308584 141.860689 
L 604.883877 143.005913 
L 605.582229 144.83979 
L 606.126726 146.808552 
L 606.691797 149.618724 
L 607.427335 154.953531 
L 607.993556 160.630238 
L 608.248489 165.658886 
L 608.360558 173.198583 
L 608.193797 177.36617 
L 607.706165 183.137491 
L 607.326256 188.874201 
L 607.315139 192.974104 
L 607.551543 197.093414 
L 608.407583 206.19908 
L 608.992078 212.72585 
L 609.496961 219.745174 
L 609.757517 226.290786 
L 610.187774 241.041056 
L 610.849962 255.071295 
L 611.2576 262.183777 
L 611.313954 266.913706 
L 611.137609 269.387071 
L 610.702625 271.214641 
L 610.077239 272.729584 
L 609.491339 273.739357 
L 608.509557 274.847624 
L 607.267347 275.797556 
L 605.487156 276.662337 
L 603.610998 277.233331 
L 601.343048 277.668875 
L 598.655831 277.957162 
L 595.516761 278.063662 
L 573.145987 278.166928 
L 546.619477 278.807063 
L 539.463063 279.122197 
L 531.577884 279.394554 
L 525.290289 279.685914 
L 520.679377 280.065013 
L 512.4847 280.669971 
L 507.586397 280.772105 
L 498.653371 280.596626 
L 484.841209 280.279712 
L 478.428512 280.28974 
L 459.950171 280.744368 
L 449.813028 280.987289 
L 443.507773 281.168348 
L 438.69538 281.530466 
L 429.393461 282.269904 
L 424.821907 282.379477 
L 420.943697 282.262383 
L 405.945781 281.399301 
L 400.010033 281.351105 
L 365.112589 281.665916 
L 360.316017 281.922989 
L 357.906147 282.248555 
L 356.192073 282.63194 
L 354.152886 283.355205 
L 352.696863 284.14381 
L 351.472863 285.035033 
L 350.036596 286.481401 
L 348.979523 287.987448 
L 347.446228 290.792768 
L 346.869363 292.335286 
L 346.550191 293.820632 
L 346.476688 295.219531 
L 346.600999 299.420921 
L 347.121702 305.35276 
L 348.156439 313.352342 
L 349.022101 317.947548 
L 350.021339 323.702615 
L 350.290699 326.238166 
L 350.363767 328.805336 
L 350.140857 333.160371 
L 350.001851 337.595624 
L 349.996523 344.023415 
L 349.932732 353.741235 
L 349.964141 365.07128 
L 350.164012 370.207463 
L 351.298371 392.661967 
L 352.302183 407.233054 
L 353.616081 421.836495 
L 353.90346 424.77302 
L 354.157358 431.086959 
L 354.334853 438.187384 
L 354.677423 439.125712 
L 355.287947 439.963814 
L 356.647516 441.17276 
L 357.667493 441.784769 
L 359.426267 442.620526 
L 362.331538 443.663299 
L 364.543646 444.257203 
L 368.033745 444.911017 
L 371.124805 445.246901 
L 374.534743 445.408748 
L 380.777792 445.397741 
L 388.91232 445.162125 
L 425.234976 443.91935 
L 433.495361 443.925271 
L 436.207229 444.157636 
L 437.848349 444.501265 
L 439.687424 445.104829 
L 441.046213 445.792319 
L 441.921983 446.481797 
L 442.780145 447.42431 
L 443.055243 448.035674 
L 443.465015 449.523597 
L 443.737724 451.941941 
L 443.882634 453.268448 
L 444.272625 457.539192 
L 444.183724 459.562045 
L 444.039287 463.602357 
L 444.249419 465.006077 
L 444.780997 468.038298 
L 445.025094 470.780664 
L 445.091543 475.41446 
L 445.154656 481.744217 
L 446.097476 509.338786 
L 446.212752 518.109731 
L 446.634945 532.781318 
L 446.756189 536.674931 
L 447.213676 537.228378 
L 448.308472 537.948327 
L 449.440774 538.415651 
L 451.23272 538.920012 
L 453.135994 539.231346 
L 455.531949 539.348763 
L 461.492871 539.184444 
L 468.631395 538.945728 
L 482.885313 538.436434 
L 502.418209 537.661011 
L 521.428716 537.192635 
L 532.005329 537.876195 
L 537.9249 538.000971 
L 542.678676 537.947033 
L 565.816806 537.861801 
L 581.52391 537.931507 
L 597.496298 537.828726 
L 610.615858 537.990701 
L 623.834963 537.855978 
L 627.70497 537.58532 
L 639.162925 536.410419 
L 645.175268 536.179628 
L 675.240308 535.596261 
L 684.960626 535.44771 
L 692.292618 535.392802 
L 694.469457 535.615183 
L 695.872039 535.925304 
L 697.707433 536.541017 
L 699.026443 537.216491 
L 700.781076 538.127041 
L 702.665284 538.684207 
L 704.037964 538.718737 
L 705.32835 538.530724 
L 706.406099 538.277452 
L 707.401043 537.915576 
L 712.982363 536.151405 
L 716.889939 535.538037 
L 722.099274 535.118747 
L 731.665481 534.600963 
L 740.63876 534.541446 
L 755.302233 534.494139 
L 776.932358 534.177711 
L 792.347087 533.989778 
L 794.117821 534.248307 
L 795.69777 534.659591 
L 797.444481 535.382047 
L 798.642221 536.140003 
L 799.754728 537.050715 
L 801.506039 539.02158 
L 802.597973 540.697526 
L 803.085222 541.645598 
L 803.654126 543.214883 
L 803.922988 544.346763 
L 804.170127 546.177325 
L 804.2698 548.809188 
L 804.364618 562.13096 
L 804.775962 570.160058 
L 805.079071 573.835414 
L 805.411571 577.527187 
L 805.88553 585.968781 
L 806.727258 603.288808 
L 807.426121 620.345131 
L 808.138018 631.353572 
L 808.799568 643.446668 
L 809.897507 669.142707 
L 810.737191 683.431393 
L 811.205016 699.222569 
L 811.195049 702.649586 
L 811.220606 713.515946 
L 811.392479 715.937153 
L 811.754753 718.323183 
L 812.13645 719.879933 
L 812.675964 721.40094 
L 813.688798 723.638339 
L 814.979311 725.82463 
L 816.520541 727.94825 
L 818.833856 730.717666 
L 826.390624 738.736008 
L 827.982713 740.760082 
L 829.317952 742.813268 
L 830.387267 744.948291 
L 831.16063 747.088973 
L 831.695671 749.291276 
L 831.894506 750.799749 
L 832.094236 753.87597 
L 831.997246 757.00629 
L 831.666535 760.245214 
L 830.790433 766.112037 
L 829.82718 772.015331 
L 828.954655 776.030082 
L 828.279305 778.15354 
L 827.677176 779.416342 
L 827.010771 780.5965 
L 825.299713 782.504531 
L 822.639203 784.422833 
L 819.317271 785.780572 
L 815.494801 786.625459 
L 811.339447 786.909865 
L 804.585944 786.981108 
L 785.150165 786.922237 
L 776.144684 787.097555 
L 764.680467 787.371043 
L 756.41538 787.204136 
L 750.983569 787.012726 
L 746.64382 786.664841 
L 743.442007 786.165656 
L 739.233239 785.276696 
L 736.21595 784.469574 
L 732.333931 783.170948 
L 726.796186 781.032852 
L 721.5673 778.77645 
L 714.822485 775.509224 
L 706.931556 771.81074 
L 701.556994 769.554014 
L 693.545818 766.367897 
L 687.185768 763.982999 
L 660.497863 754.252563 
L 657.029361 752.881157 
L 652.649231 751.2864 
L 643.566567 747.874263 
L 627.580634 741.686159 
L 619.078375 738.515244 
L 612.547091 735.984626 
L 591.900282 727.587507 
L 585.933686 725.293745 
L 576.383708 721.591298 
L 543.343548 709.250591 
L 537.802097 707.031711 
L 527.20491 702.91232 
L 520.145869 700.067375 
L 512.733883 696.996006 
L 504.012726 693.170158 
L 495.991455 689.803791 
L 487.631678 686.455941 
L 423.15192 661.11086 
L 416.97923 658.585093 
L 410.040436 655.725189 
L 407.004963 654.676196 
L 403.879618 653.797264 
L 400.691108 653.11791 
L 397.446781 652.620908 
L 393.14924 652.277551 
L 387.97902 652.137895 
L 379.611257 651.963387 
L 377.067441 651.621162 
L 374.627822 651.079684 
L 372.434448 650.377848 
L 370.505182 649.498593 
L 368.831974 648.472 
L 367.405535 647.243566 
L 366.352193 645.951328 
L 365.66952 644.66556 
L 365.327935 643.505053 
L 365.240043 642.807423 
L 365.317763 641.885066 
L 365.71482 640.729411 
L 366.579805 639.767025 
L 367.103307 639.328651 
L 367.690907 638.925454 
L 370.140748 637.97633 
L 371.128766 637.709068 
L 373.993594 637.195812 
L 381.238819 636.705199 
L 399.738666 636.239168 
L 414.117061 635.94797 
L 445.996487 634.872615 
L 511.519658 633.124698 
L 577.767761 631.653989 
L 592.629431 631.347507 
L 612.346339 630.95369 
L 621.917913 630.384879 
L 634.571564 629.861596 
L 652.651915 629.065147 
L 685.387432 628.041789 
L 689.429183 628.031842 
L 701.420646 628.220422 
L 703.238278 628.021815 
L 705.974309 627.337527 
L 707.421361 626.769606 
L 709.528684 625.546509 
L 710.552508 624.768417 
L 711.253543 624.178904 
L 712.569358 622.366213 
L 713.231674 620.033716 
L 713.280233 617.223625 
L 712.810619 606.965135 
L 712.507126 600.560877 
L 711.67626 587.654027 
L 711.542212 580.856356 
L 711.153998 569.338541 
L 710.532956 555.230266 
L 710.169916 551.53534 
L 709.64612 547.890551 
L 708.7681 543.43872 
L 706.348723 531.378617 
L 705.878214 527.040702 
L 705.618936 521.711774 
L 704.487005 498.80599 
L 703.969726 486.566559 
L 702.998295 457.498751 
L 703.147166 454.845177 
L 703.534614 452.455973 
L 704.318327 449.344628 
L 705.267651 446.549031 
L 706.032324 444.855444 
L 706.725565 443.689031 
L 707.675017 442.60638 
L 708.266028 442.15894 
L 709.264678 441.591312 
L 711.697217 440.446058 
L 714.310574 439.660729 
L 716.977473 439.137502 
L 720.921213 438.620138 
L 725.504267 438.308537 
L 730.674754 438.112227 
L 730.674754 438.112227 
" clip-path="url(#p6ca2e3d60a)" style="fill: none; stroke-dasharray: 14.8,6.4; stroke-dashoffset: 0; stroke: #808a87; stroke-width: 4"/>
   </g>
   <g id="line2d_35">
    <path d="M 333.068702 449.27851 
L 347.213689 449.314789 
L 352.23615 449.364869 
L 353.993671 449.126774 
L 355.413534 448.734025 
L 356.932834 448.081651 
L 358.339185 447.166196 
L 359.658955 445.900228 
L 360.19043 445.146457 
L 360.606687 444.34238 
L 360.908884 443.402969 
L 361.095303 442.419618 
L 361.113246 440.261453 
L 360.023994 422.219342 
L 359.015656 415.270775 
L 357.980445 408.140266 
L 357.565375 404.497949 
L 357.236976 398.955753 
L 357.084994 391.416769 
L 356.995015 366.875021 
L 356.935352 351.319848 
L 356.739059 339.116213 
L 356.643633 317.156034 
L 356.912967 293.075802 
L 356.799997 284.093559 
L 356.962457 274.310269 
L 357.735118 252.162522 
L 357.636486 244.065416 
L 357.250601 204.169846 
L 357.188895 190.077215 
L 357.24054 177.916453 
L 357.460762 152.25645 
L 357.928313 149.951495 
L 358.325436 148.914413 
L 358.834158 147.954451 
L 359.445465 147.062724 
L 361.029992 145.469862 
L 362.0144 144.754067 
L 364.303094 143.488711 
L 367.055887 142.466954 
L 370.242176 141.659257 
L 373.898212 141.052244 
L 377.933737 140.617832 
L 382.391082 140.358043 
L 392.234485 140.11933 
L 407.774211 140.009412 
L 422.471342 140.097514 
L 431.167138 140.339115 
L 435.100189 140.668719 
L 438.662317 141.248536 
L 441.902044 142.090708 
L 444.688165 143.114637 
L 445.923491 143.753534 
L 448.024879 145.216958 
L 448.888961 146.047606 
L 450.231003 147.813636 
L 450.77756 148.796401 
L 451.566406 150.887741 
L 451.98902 153.138527 
L 452.252554 155.580842 
L 452.344285 159.533742 
L 452.137015 163.755587 
L 451.257168 173.956248 
L 451.19719 178.286356 
L 451.21623 189.67713 
L 451.069952 196.750579 
L 451.348733 210.513434 
L 451.841961 220.638481 
L 451.739125 225.264754 
L 451.342621 232.815037 
L 450.486114 242.835979 
L 450.543752 247.127589 
L 451.063303 252.956424 
L 451.468611 257.357667 
L 451.579997 260.253409 
L 451.489221 263.116095 
L 451.176638 265.941726 
L 449.467593 278.588158 
L 449.709766 279.951018 
L 450.274534 281.210489 
L 451.14856 282.33408 
L 452.292253 283.323459 
L 453.842843 284.28468 
L 455.893027 285.132306 
L 458.58455 285.874297 
L 461.740824 286.460383 
L 465.444531 286.798513 
L 469.583604 286.952246 
L 491.290772 287.226928 
L 512.250285 287.766581 
L 519.157092 287.710451 
L 521.941555 287.514801 
L 524.53969 287.125365 
L 526.940187 286.468119 
L 529.122747 285.603317 
L 531.147856 284.431466 
L 532.047211 283.746668 
L 532.89429 282.949225 
L 533.611957 282.065901 
L 534.211754 281.104582 
L 534.689062 280.07974 
L 535.337976 277.828682 
L 535.727286 275.376607 
L 536.785087 267.103656 
L 537.599252 260.747395 
L 537.864746 257.317294 
L 537.967172 253.815822 
L 537.841016 248.593679 
L 537.232464 240.528025 
L 536.958742 236.352774 
L 536.85304 230.952564 
L 537.183776 221.543312 
L 537.317848 213.282416 
L 537.451453 201.165778 
L 537.85137 187.745336 
L 538.162607 176.822882 
L 538.055131 166.947876 
L 538.072991 155.94581 
L 538.262655 153.576247 
L 538.664989 151.512917 
L 539.279918 149.734449 
L 539.643216 148.947161 
L 540.657302 147.522629 
L 541.95944 146.285554 
L 543.521027 145.185913 
L 545.617715 144.167957 
L 546.815478 143.689888 
L 549.753571 142.929574 
L 553.213058 142.451357 
L 557.069225 142.222836 
L 561.310003 142.190952 
L 578.334925 142.443263 
L 604.146517 142.859561 
L 607.773497 143.048745 
L 611.176926 143.474447 
L 612.749296 143.823423 
L 615.696865 144.80794 
L 617.015363 145.422356 
L 618.253527 146.134005 
L 619.37384 146.920158 
L 620.357507 147.790167 
L 621.242277 148.750894 
L 621.995646 149.767468 
L 622.650176 150.863951 
L 623.17781 152.014603 
L 623.934649 154.48742 
L 624.430051 157.203121 
L 624.874132 161.62829 
L 625.223372 167.974716 
L 625.239127 172.959861 
L 625.002765 179.64591 
L 624.78826 182.968599 
L 624.418644 186.286773 
L 623.362949 192.856907 
L 622.670709 197.76017 
L 622.381193 201.047372 
L 622.247003 205.992735 
L 622.415744 214.287194 
L 622.555979 220.832576 
L 622.522051 231.591832 
L 621.976148 242.269562 
L 621.528888 252.703607 
L 621.28145 261.406122 
L 621.188968 268.87398 
L 620.985324 273.192341 
L 620.730438 276.59083 
L 620.4729 278.201856 
L 620.059802 279.675731 
L 619.210539 281.529653 
L 618.559909 282.532679 
L 617.292244 283.869084 
L 616.245791 284.61701 
L 614.849084 285.309928 
L 613.040664 285.910426 
L 610.892558 286.349416 
L 608.282022 286.621791 
L 605.220307 286.703711 
L 599.922664 286.522634 
L 589.2503 286.167525 
L 572.50651 285.846953 
L 556.570002 285.7312 
L 539.887729 285.949603 
L 532.927886 286.112036 
L 520.365812 286.650677 
L 516.366603 286.605849 
L 505.067202 286.020245 
L 489.923236 285.222234 
L 482.365223 285.081851 
L 462.65296 285.026054 
L 450.737461 285.084961 
L 435.471248 285.760703 
L 431.674103 285.64759 
L 425.691746 285.117425 
L 419.268349 284.502306 
L 412.413804 284.102591 
L 402.8475 283.823812 
L 384.556454 283.314266 
L 374.04763 283.010933 
L 369.673854 283.052368 
L 366.454769 283.289477 
L 365.100481 283.509275 
L 363.86786 283.811954 
L 361.491457 284.758565 
L 360.169193 285.561067 
L 358.885522 286.617608 
L 357.654154 288.000298 
L 356.455237 289.678831 
L 355.268428 291.636784 
L 354.490442 293.640245 
L 354.112759 295.526841 
L 353.86372 299.344565 
L 353.895229 304.632278 
L 354.370158 313.901716 
L 354.889643 318.544066 
L 355.405618 323.507371 
L 355.577535 326.87495 
L 355.439436 330.316935 
L 354.622056 337.31113 
L 354.101781 342.755131 
L 352.963043 358.283849 
L 352.208205 370.577263 
L 351.628723 384.854315 
L 351.061032 417.472855 
L 351.033909 426.680779 
L 350.677425 432.713409 
L 350.284496 438.259143 
L 350.361644 439.299236 
L 350.661682 440.24072 
L 351.189991 441.100648 
L 351.950244 441.967107 
L 353.109754 442.862825 
L 354.779468 443.747845 
L 356.978929 444.6356 
L 359.874279 445.495163 
L 363.373392 446.215881 
L 367.552415 446.790957 
L 372.261048 447.061884 
L 380.192815 447.157618 
L 409.900644 447.236323 
L 428.753207 447.476404 
L 431.448279 447.68992 
L 433.616703 448.138518 
L 435.350415 448.745311 
L 436.607589 449.416501 
L 437.68173 450.315614 
L 438.151209 450.784104 
L 438.72131 451.873393 
L 439.02464 453.028232 
L 439.13706 454.236629 
L 439.232622 460.815145 
L 438.665261 466.779523 
L 439.023899 470.744572 
L 438.973719 475.2428 
L 438.366795 489.036135 
L 438.245601 493.486248 
L 437.849789 504.483723 
L 437.520847 513.228493 
L 436.306345 539.674426 
L 436.537911 540.173755 
L 437.478369 541.076896 
L 438.206146 541.532297 
L 439.20704 541.989568 
L 441.084876 542.603435 
L 442.658182 542.923772 
L 445.617226 543.176182 
L 451.060505 543.409528 
L 466.881142 543.784336 
L 500.530922 543.997964 
L 514.549818 544.263244 
L 524.395868 544.726129 
L 539.231854 545.142193 
L 559.513106 545.646575 
L 568.578822 545.867248 
L 586.04139 546.064527 
L 601.029914 546.45582 
L 610.872766 546.613231 
L 615.346241 546.581612 
L 620.290861 546.264261 
L 627.560167 545.80736 
L 633.54656 545.726989 
L 673.952901 546.303641 
L 681.49158 546.558537 
L 684.111573 546.898389 
L 686.168094 547.393535 
L 687.360709 547.814726 
L 689.0186 548.618024 
L 690.725861 549.563666 
L 691.707149 549.981914 
L 692.689413 550.274334 
L 694.65897 550.353502 
L 695.653283 550.227532 
L 698.361722 549.446413 
L 701.372818 548.612348 
L 704.497904 548.12719 
L 708.349196 547.833623 
L 716.966501 547.544418 
L 723.264873 547.547299 
L 739.780802 548.024473 
L 757.097813 548.449761 
L 774.40102 548.629474 
L 780.125741 548.793209 
L 783.135083 549.121887 
L 784.888634 549.486966 
L 786.428363 550.011312 
L 787.75548 550.650037 
L 789.546741 551.936259 
L 790.624392 553.142813 
L 791.796338 554.625511 
L 792.782111 556.426486 
L 793.464797 558.51152 
L 793.671639 559.660827 
L 793.784653 562.150487 
L 793.645432 564.855552 
L 792.480974 581.046988 
L 792.058672 592.014023 
L 790.912699 614.984927 
L 789.817811 637.684321 
L 789.188317 652.300577 
L 788.903208 657.845142 
L 787.918137 674.461526 
L 787.412421 685.327984 
L 787.022838 696.079343 
L 786.164118 710.224341 
L 784.869915 730.526926 
L 785.039242 733.721091 
L 785.640268 736.843319 
L 786.123873 738.363232 
L 786.731255 739.867277 
L 788.294578 742.798544 
L 790.2476 745.66081 
L 792.474968 748.456247 
L 796.985393 754.003588 
L 798.88885 756.809637 
L 799.680923 758.21909 
L 800.939872 761.113882 
L 801.702425 764.041571 
L 801.920224 765.544555 
L 801.995177 768.569772 
L 801.725082 771.672799 
L 800.835827 776.465108 
L 798.819902 784.762059 
L 797.448524 789.728004 
L 796.4344 792.781946 
L 795.862349 794.158405 
L 795.192103 795.406906 
L 794.427172 796.51938 
L 793.572469 797.50555 
L 791.658833 799.175977 
L 790.485873 799.905789 
L 789.23176 800.519366 
L 786.484519 801.477576 
L 783.423975 802.114918 
L 780.067167 802.421917 
L 774.899132 802.386898 
L 766.45981 802.042734 
L 755.040044 801.525748 
L 745.28749 801.215467 
L 729.208993 800.904817 
L 722.896816 800.505151 
L 716.355024 799.890019 
L 712.032137 799.323825 
L 707.861847 798.492313 
L 703.783162 797.396818 
L 699.925746 796.056069 
L 696.267724 794.545287 
L 691.021343 792.160349 
L 686.032773 789.653377 
L 677.815619 785.238104 
L 672.665991 782.763016 
L 658.836115 776.694246 
L 651.686882 773.783857 
L 637.148699 767.888724 
L 632.004725 765.620169 
L 618.747505 759.499278 
L 592.449987 747.272748 
L 586.320396 744.435284 
L 555.75529 729.656127 
L 537.42043 721.340544 
L 519.492702 713.330972 
L 512.403193 710.037255 
L 503.174274 705.833475 
L 487.249124 698.396045 
L 465.340028 687.871209 
L 423.862696 668.365092 
L 407.296553 660.388539 
L 391.651578 653.077549 
L 387.722379 651.530391 
L 383.600991 650.27651 
L 379.374584 649.366386 
L 375.129141 648.798476 
L 368.959342 648.34764 
L 363.257936 647.964916 
L 359.793654 647.469548 
L 356.584632 646.676584 
L 353.779266 645.579164 
L 351.434877 644.180951 
L 350.450866 643.379979 
L 349.610934 642.542866 
L 348.907716 641.667069 
L 348.005631 639.897411 
L 347.709547 638.362876 
L 347.815464 637.101518 
L 348.277178 635.983701 
L 349.106609 635.020703 
L 350.22946 634.229948 
L 351.767221 633.585671 
L 353.654355 633.12157 
L 355.907818 632.756541 
L 359.858073 632.579363 
L 373.710235 632.796088 
L 391.397277 633.424707 
L 398.800076 633.680522 
L 411.497548 633.990186 
L 551.855934 637.635384 
L 576.938667 638.3304 
L 628.545024 639.9673 
L 644.873298 640.43646 
L 672.653317 641.420175 
L 682.065581 642.263261 
L 684.822961 642.234498 
L 687.29336 641.870517 
L 689.562183 641.202821 
L 691.15994 640.50762 
L 692.674945 639.623223 
L 694.126774 638.436516 
L 694.749639 637.748732 
L 695.280547 636.989404 
L 695.738921 636.100466 
L 696.094693 635.143219 
L 696.535597 632.96474 
L 698.626279 611.860208 
L 699.271723 603.829079 
L 701.789114 570.931319 
L 701.957543 567.224129 
L 701.95961 563.559866 
L 701.63293 558.166468 
L 700.739581 545.971773 
L 700.752372 542.479803 
L 700.967871 538.947693 
L 702.341198 524.183732 
L 704.126923 502.746388 
L 706.994392 473.306469 
L 707.32037 471.03371 
L 707.763379 469.014415 
L 708.677397 466.2302 
L 710.075566 462.864199 
L 711.196777 460.65587 
L 712.361001 458.863103 
L 713.228691 457.895265 
L 714.319054 457.050956 
L 716.705336 455.925183 
L 718.382765 455.355256 
L 720.620975 454.818621 
L 723.386193 454.4149 
L 726.502114 454.136887 
L 730.072431 454.005235 
L 733.979607 454.020683 
L 733.979607 454.020683 
" clip-path="url(#p6ca2e3d60a)" style="fill: none; stroke: #00ff00; stroke-width: 2; stroke-linecap: square"/>
   </g>
   <g id="line2d_36">
    <path d="M 333.068702 449.27851 
L 333.068685 449.278774 
L 346.546735 449.327035 
L 351.501799 449.343166 
L 353.33536 449.048356 
L 354.834264 448.594065 
L 356.294351 447.888287 
L 357.72966 446.868579 
L 358.374663 446.262083 
L 358.940599 445.548918 
L 359.435382 444.741174 
L 360.050305 442.941472 
L 360.171696 441.916184 
L 360.101433 439.66191 
L 359.921509 435.790883 
L 359.81492 432.92172 
L 359.119962 423.085249 
L 358.148535 416.158867 
L 357.092287 409.047691 
L 356.637369 405.413314 
L 356.25551 399.879715 
L 356.04792 390.472545 
L 355.941165 364.047743 
L 355.573764 310.259615 
L 355.701181 289.409467 
L 355.669232 281.729782 
L 355.786709 275.169642 
L 356.237742 264.620954 
L 356.569789 253.171446 
L 356.46415 243.064982 
L 356.06777 205.160138 
L 356.0948 154.231728 
L 356.280907 151.627276 
L 356.512911 150.463792 
L 357.286086 148.409544 
L 357.83583 147.487833 
L 358.519562 146.626189 
L 359.32295 145.816888 
L 361.284954 144.384731 
L 363.662944 143.179096 
L 366.508565 142.221972 
L 369.829865 141.445345 
L 373.567949 140.891194 
L 377.724351 140.492639 
L 384.645299 140.19408 
L 397.406654 139.975924 
L 412.827292 139.94404 
L 426.71754 140.122933 
L 430.870642 140.310957 
L 434.727589 140.69584 
L 438.218557 141.338217 
L 441.332557 142.222318 
L 442.746706 142.733431 
L 444.042751 143.323785 
L 445.219396 143.998071 
L 447.179184 145.508755 
L 447.974611 146.349299 
L 449.250349 148.198988 
L 450.123098 150.231594 
L 450.647709 152.458294 
L 451.02061 156.105652 
L 451.102895 158.733523 
L 450.962553 162.932194 
L 450.016704 174.584312 
L 450.021062 180.326464 
L 450.072158 188.867237 
L 449.932557 197.358752 
L 450.37036 212.518029 
L 450.790273 221.317184 
L 450.659067 225.947825 
L 450.452849 230.521607 
L 450.138336 234.905045 
L 449.606862 240.613042 
L 449.504318 244.889499 
L 449.633897 247.765351 
L 450.65079 259.465899 
L 450.622341 262.334298 
L 450.373421 265.17655 
L 449.249686 272.912476 
L 448.656411 277.459889 
L 448.636892 278.878399 
L 448.968925 280.215471 
L 449.638128 281.443353 
L 450.569841 282.528064 
L 451.810861 283.516012 
L 452.538852 283.984382 
L 454.517964 284.864016 
L 457.003221 285.619456 
L 460.087388 286.268509 
L 463.64703 286.654083 
L 467.675507 286.844969 
L 474.468422 286.866551 
L 484.251931 286.944547 
L 512.393288 287.635873 
L 517.573062 287.584678 
L 520.417269 287.427958 
L 523.063429 287.096417 
L 525.491165 286.512491 
L 527.737232 285.684965 
L 529.780436 284.59918 
L 530.759872 283.932668 
L 531.631247 283.190776 
L 532.381788 282.378316 
L 533.038931 281.450078 
L 533.597762 280.431505 
L 534.014038 279.363871 
L 534.578719 277.067516 
L 535.07221 273.277864 
L 536.193537 264.627593 
L 536.76592 259.732758 
L 537.017979 254.520536 
L 536.932224 249.293605 
L 536.438323 242.610456 
L 535.941693 235.498731 
L 535.833865 231.447982 
L 535.951072 226.133702 
L 536.183437 217.981909 
L 536.509123 192.665033 
L 536.924853 174.566691 
L 536.70565 156.378125 
L 536.99614 152.830024 
L 537.445642 150.839742 
L 538.098047 149.129016 
L 538.469906 148.381608 
L 539.538548 146.999918 
L 540.945043 145.786509 
L 542.581622 144.716679 
L 544.765352 143.707163 
L 546.117758 143.234795 
L 549.158824 142.552662 
L 552.7074 142.130539 
L 556.679701 141.949672 
L 563.310602 141.960135 
L 605.488472 142.586323 
L 608.905842 142.92718 
L 610.551702 143.216188 
L 612.132924 143.617087 
L 615.003455 144.680846 
L 616.258095 145.314142 
L 617.431133 146.053109 
L 618.496636 146.890321 
L 619.456729 147.820299 
L 620.286981 148.803582 
L 620.977311 149.844144 
L 621.5782 150.957062 
L 622.45638 153.389679 
L 623.019949 156.028606 
L 623.423395 158.908048 
L 623.912401 165.085329 
L 624.10185 169.983285 
L 624.077789 174.995798 
L 623.912791 180.013765 
L 623.709752 183.34023 
L 623.08252 188.291886 
L 621.742729 198.122052 
L 621.530994 201.417448 
L 621.506991 206.364983 
L 621.862939 216.311828 
L 622.047766 224.3502 
L 622.066017 231.864354 
L 621.742067 239.986459 
L 621.455261 247.967898 
L 621.229759 262.213559 
L 621.228121 268.856767 
L 620.922207 275.734998 
L 620.724004 277.376699 
L 620.377766 278.892269 
L 619.575924 280.834317 
L 618.600992 282.367766 
L 617.314238 283.647917 
L 616.20307 284.405961 
L 614.719204 285.074892 
L 612.848505 285.645048 
L 610.552521 286.062926 
L 607.867929 286.313275 
L 604.687682 286.357289 
L 581.190851 285.804852 
L 560.044659 285.685964 
L 550.374096 285.843461 
L 528.414615 286.538403 
L 521.64385 286.853311 
L 517.728251 286.8733 
L 508.941328 286.529062 
L 493.95957 285.806321 
L 488.873419 285.629303 
L 481.317961 285.57158 
L 451.509002 285.810837 
L 438.400294 286.602554 
L 434.738089 286.6566 
L 430.881415 286.527322 
L 424.846139 286.003537 
L 418.350432 285.484972 
L 411.391832 285.196075 
L 399.45871 284.997439 
L 370.678717 284.733912 
L 367.415423 284.986173 
L 365.418855 285.351968 
L 363.687422 285.886871 
L 362.467081 286.427474 
L 361.216748 287.151573 
L 359.953068 288.178821 
L 358.787634 289.479479 
L 357.620463 291.120575 
L 356.474614 293.024545 
L 355.657455 295.038728 
L 355.25764 296.962983 
L 355.075991 299.825126 
L 355.086145 301.731354 
L 355.243867 305.95168 
L 355.877039 313.617249 
L 356.179146 316.547171 
L 357.564985 326.223295 
L 357.768777 329.630964 
L 357.681506 333.069962 
L 356.804002 345.594866 
L 356.101909 365.305566 
L 355.878908 375.593527 
L 355.827861 383.777643 
L 356.070553 405.575223 
L 356.566606 421.886941 
L 356.771378 429.300388 
L 356.674036 434.138795 
L 356.450616 439.928519 
L 356.632409 441.499597 
L 357.050023 442.421316 
L 357.626854 443.242118 
L 358.525968 444.126575 
L 359.822936 444.97618 
L 361.680628 445.853827 
L 364.096011 446.708083 
L 367.135634 447.475876 
L 370.879143 448.12958 
L 375.179838 448.566248 
L 380.031001 448.697004 
L 388.069801 448.628804 
L 409.853399 448.312097 
L 434.46933 448.175429 
L 437.347826 448.314447 
L 439.665999 448.671929 
L 441.48453 449.1975 
L 442.893725 449.845797 
L 443.844137 450.500673 
L 444.889342 451.489048 
L 445.436845 452.565425 
L 445.660445 453.133447 
L 445.925344 454.944107 
L 446.176262 462.318925 
L 445.879337 466.893235 
L 446.54271 474.067135 
L 446.525541 478.722579 
L 446.44275 486.787656 
L 446.538761 493.494 
L 446.614279 507.79047 
L 446.627587 512.156257 
L 446.421048 537.366516 
L 446.367115 538.906671 
L 446.41982 540.116662 
L 446.605135 540.62142 
L 447.486756 541.510407 
L 448.207844 541.976834 
L 450.314877 542.830975 
L 452.489413 543.344766 
L 454.309124 543.538225 
L 462.141521 543.768622 
L 476.017423 543.885073 
L 487.604321 543.716255 
L 499.078274 543.566864 
L 526.395122 543.66572 
L 536.629098 543.944875 
L 548.536388 544.075768 
L 570.986513 544.267396 
L 579.98564 544.314457 
L 595.604789 544.226133 
L 615.343297 544.377591 
L 626.454419 544.237843 
L 640.760451 543.188157 
L 646.980009 543.118064 
L 692.278303 543.2045 
L 694.819132 543.538139 
L 696.809864 544.005762 
L 698.557254 544.692128 
L 702.367444 546.49831 
L 703.392682 546.728491 
L 705.359938 546.725912 
L 706.332179 546.560629 
L 712.213241 544.792766 
L 715.427006 544.299231 
L 719.458934 543.955653 
L 728.29478 543.549016 
L 734.698444 543.48083 
L 743.977922 543.625321 
L 768.668382 543.841084 
L 792.080472 543.919296 
L 794.847016 544.333398 
L 796.439041 544.785443 
L 797.891533 545.387181 
L 799.700344 546.553151 
L 800.311743 547.062284 
L 802.064943 549.068058 
L 803.175079 550.774891 
L 803.662311 551.745076 
L 804.330763 553.880325 
L 804.642507 556.317334 
L 804.597621 560.367923 
L 804.085158 574.959216 
L 804.030757 589.623335 
L 803.850745 604.948586 
L 803.471965 653.610465 
L 803.178978 666.57078 
L 803.121457 684.674009 
L 803.086711 693.605612 
L 802.700911 709.475675 
L 802.393729 726.216018 
L 802.529908 727.811102 
L 803.148249 730.952356 
L 803.634311 732.484855 
L 804.955928 735.461061 
L 806.751206 738.346821 
L 808.884825 741.151981 
L 815.956941 749.382671 
L 817.877323 752.165053 
L 818.676728 753.562587 
L 819.363938 755.005282 
L 820.363945 757.922358 
L 820.697528 759.39326 
L 820.916614 760.894369 
L 821.018202 762.413023 
L 820.95179 765.49347 
L 820.601321 768.659897 
L 819.737961 773.536037 
L 817.174475 785.179221 
L 816.245014 788.165298 
L 815.693905 789.487217 
L 815.017926 790.680809 
L 814.240048 791.75829 
L 812.485755 793.545247 
L 811.45186 794.305487 
L 810.266577 794.999886 
L 808.989338 795.59572 
L 806.174476 796.533348 
L 803.081173 797.132562 
L 799.706544 797.407429 
L 794.521467 797.417251 
L 786.085148 797.208547 
L 771.473456 796.829734 
L 761.534572 796.816457 
L 754.482734 796.881485 
L 746.525029 796.652741 
L 740.014201 796.268525 
L 733.455133 795.66282 
L 729.202441 794.977009 
L 725.054106 794.023019 
L 721.103332 792.814398 
L 717.322156 791.406327 
L 711.910934 789.139771 
L 706.786419 786.759202 
L 694.894318 780.883391 
L 689.582188 778.600992 
L 673.583128 772.173671 
L 655.111057 765.185115 
L 648.17391 762.281241 
L 596.538734 739.721527 
L 585.340921 734.608573 
L 571.508316 728.516951 
L 552.731598 720.604118 
L 536.45402 713.87118 
L 525.465583 709.170527 
L 513.893045 704.22161 
L 499.282269 697.802679 
L 483.549931 690.780685 
L 442.977794 673.161867 
L 405.273871 656.580526 
L 401.308512 655.078233 
L 397.123432 653.833643 
L 392.881879 652.947309 
L 388.59835 652.39048 
L 384.366308 652.11871 
L 374.716063 651.682113 
L 371.284534 651.202046 
L 368.103039 650.413561 
L 366.669271 649.898808 
L 364.140785 648.616818 
L 363.031669 647.898766 
L 362.065167 647.097386 
L 361.227701 646.256732 
L 360.567857 645.370977 
L 359.735814 643.67359 
L 359.451146 642.211621 
L 359.581178 640.995659 
L 360.05536 639.896893 
L 360.453754 639.390111 
L 361.4708 638.53808 
L 362.820142 637.843681 
L 364.615236 637.261594 
L 366.716874 636.840384 
L 369.224009 636.596525 
L 371.97725 636.460091 
L 378.485446 636.358096 
L 388.180709 636.348594 
L 401.603755 636.498688 
L 411.513064 636.559656 
L 421.664917 636.552191 
L 602.84859 636.631902 
L 629.424354 636.821814 
L 648.471011 636.733798 
L 685.062014 637.039439 
L 694.33619 637.58024 
L 696.151084 637.519384 
L 697.853041 637.280238 
L 699.403456 636.951696 
L 701.670562 636.149687 
L 703.165172 635.379292 
L 704.652918 634.358189 
L 705.911594 633.101075 
L 706.466018 632.340711 
L 706.901773 631.498415 
L 707.248693 630.583158 
L 707.495273 629.55633 
L 707.681719 627.300645 
L 707.993931 617.05898 
L 708.21294 609.725545 
L 708.36265 597.710261 
L 708.555921 564.827024 
L 708.423252 561.126522 
L 708.127614 557.485272 
L 707.378164 552.1268 
L 705.807978 541.703096 
L 705.521231 538.229899 
L 705.411649 534.696025 
L 705.731465 512.564887 
L 705.926491 493.252868 
L 706.308508 476.793216 
L 706.623567 466.280487 
L 706.880325 464.197851 
L 707.527212 461.353672 
L 708.659458 457.890678 
L 709.59317 455.602542 
L 710.595127 453.712314 
L 711.394259 452.638882 
L 712.278717 451.802986 
L 713.604156 451.013919 
L 715.256588 450.207682 
L 717.047499 449.576798 
L 719.366432 448.999437 
L 722.191083 448.545606 
L 725.424307 448.198552 
L 729.038926 447.998469 
L 733.055099 447.913541 
L 733.055099 447.913541 
" clip-path="url(#p6ca2e3d60a)" style="fill: none; stroke: #0000ff; stroke-width: 2; stroke-linecap: square"/>
   </g>
   <g id="patch_3">
    <path d="M 135 813.1752 
L 135 109.6416 
" style="fill: none; stroke: #000000; stroke-width: 3; stroke-linejoin: miter; stroke-linecap: square"/>
   </g>
   <g id="patch_4">
    <path d="M 972 813.1752 
L 972 109.6416 
" style="fill: none; stroke: #000000; stroke-width: 3; stroke-linejoin: miter; stroke-linecap: square"/>
   </g>
   <g id="patch_5">
    <path d="M 135 813.1752 
L 972 813.1752 
" style="fill: none; stroke: #000000; stroke-width: 3; stroke-linejoin: miter; stroke-linecap: square"/>
   </g>
   <g id="patch_6">
    <path d="M 135 109.6416 
L 972 109.6416 
" style="fill: none; stroke: #000000; stroke-width: 3; stroke-linejoin: miter; stroke-linecap: square"/>
   </g>
   <g id="PathCollection_1">
    <defs>
     <path id="m03f3660394" d="M 0 -8.660254 
L -1.944348 -2.676166 
L -8.236391 -2.676166 
L -3.146021 1.022204 
L -5.09037 7.006293 
L -0 3.307923 
L 5.09037 7.006293 
L 3.146021 1.022204 
L 8.236391 -2.676166 
L 1.944348 -2.676166 
z
" style="stroke: #ff0000"/>
    </defs>
    <g clip-path="url(#p6ca2e3d60a)">
     <use xlink:href="#m03f3660394" x="333.068702" y="449.27851" style="fill: #ff0000; stroke: #ff0000"/>
    </g>
   </g>
   <g id="PathCollection_2">
    <g clip-path="url(#p6ca2e3d60a)">
     <use xlink:href="#m03f3660394" x="333.068702" y="449.27851" style="fill: #ff0000; stroke: #ff0000"/>
    </g>
   </g>
   <g id="PathCollection_3">
    <g clip-path="url(#p6ca2e3d60a)">
     <use xlink:href="#m03f3660394" x="333.068702" y="449.27851" style="fill: #ff0000; stroke: #ff0000"/>
    </g>
   </g>
   <g id="text_19">
    <!-- kitti08 -->
    <g transform="translate(481.696875 100.283006) scale(0.45 -0.45)">
     <defs>
      <path id="DejaVuSans-6b" d="M 581 4863 
L 1159 4863 
L 1159 1991 
L 2875 3500 
L 3609 3500 
L 1753 1863 
L 3688 0 
L 2938 0 
L 1159 1709 
L 1159 0 
L 581 0 
L 581 4863 
z
" transform="scale(0.015625)"/>
      <path id="DejaVuSans-69" d="M 603 3500 
L 1178 3500 
L 1178 0 
L 603 0 
L 603 3500 
z
M 603 4863 
L 1178 4863 
L 1178 4134 
L 603 4134 
L 603 4863 
z
" transform="scale(0.015625)"/>
      <path id="DejaVuSans-74" d="M 1172 4494 
L 1172 3500 
L 2356 3500 
L 2356 3053 
L 1172 3053 
L 1172 1153 
Q 1172 725 1289 603 
Q 1406 481 1766 481 
L 2356 481 
L 2356 0 
L 1766 0 
Q 1100 0 847 248 
Q 594 497 594 1153 
L 594 3053 
L 172 3053 
L 172 3500 
L 594 3500 
L 594 4494 
L 1172 4494 
z
" transform="scale(0.015625)"/>
      <path id="DejaVuSans-38" d="M 2034 2216 
Q 1584 2216 1326 1975 
Q 1069 1734 1069 1313 
Q 1069 891 1326 650 
Q 1584 409 2034 409 
Q 2484 409 2743 651 
Q 3003 894 3003 1313 
Q 3003 1734 2745 1975 
Q 2488 2216 2034 2216 
z
M 1403 2484 
Q 997 2584 770 2862 
Q 544 3141 544 3541 
Q 544 4100 942 4425 
Q 1341 4750 2034 4750 
Q 2731 4750 3128 4425 
Q 3525 4100 3525 3541 
Q 3525 3141 3298 2862 
Q 3072 2584 2669 2484 
Q 3125 2378 3379 2068 
Q 3634 1759 3634 1313 
Q 3634 634 3220 271 
Q 2806 -91 2034 -91 
Q 1263 -91 848 271 
Q 434 634 434 1313 
Q 434 1759 690 2068 
Q 947 2378 1403 2484 
z
M 1172 3481 
Q 1172 3119 1398 2916 
Q 1625 2713 2034 2713 
Q 2441 2713 2670 2916 
Q 2900 3119 2900 3481 
Q 2900 3844 2670 4047 
Q 2441 4250 2034 4250 
Q 1625 4250 1398 4047 
Q 1172 3844 1172 3481 
z
" transform="scale(0.015625)"/>
     </defs>
     <use xlink:href="#DejaVuSans-6b"/>
     <use xlink:href="#DejaVuSans-69" x="57.910156"/>
     <use xlink:href="#DejaVuSans-74" x="85.693359"/>
     <use xlink:href="#DejaVuSans-74" x="124.902344"/>
     <use xlink:href="#DejaVuSans-69" x="164.111328"/>
     <use xlink:href="#DejaVuSans-30" x="191.894531"/>
     <use xlink:href="#DejaVuSans-38" x="255.517578"/>
    </g>
   </g>
   <g id="legend_1">
    <g id="patch_7">
     <path d="M 749.76875 243.0666 
L 958 243.0666 
Q 962 243.0666 962 239.0666 
L 962 123.6416 
Q 962 119.6416 958 119.6416 
L 749.76875 119.6416 
Q 745.76875 119.6416 745.76875 123.6416 
L 745.76875 239.0666 
Q 745.76875 243.0666 749.76875 243.0666 
z
" style="fill: #ffffff; opacity: 0.8; stroke: #cccccc; stroke-linejoin: miter"/>
    </g>
    <g id="line2d_37">
     <defs>
      <path id="mdbc187cd72" d="M 0 -9 
L -2.020626 -2.781153 
L -8.559509 -2.781153 
L -3.269441 1.062306 
L -5.290067 7.281153 
L -0 3.437694 
L 5.290067 7.281153 
L 3.269441 1.062306 
L 8.559509 -2.781153 
L 2.020626 -2.781153 
z
" style="stroke: #ff0000; stroke-linejoin: bevel"/>
     </defs>
     <g>
      <use xlink:href="#mdbc187cd72" x="783.76875" y="135.838475" style="fill: #ff0000; stroke: #ff0000; stroke-linejoin: bevel"/>
     </g>
    </g>
    <g id="text_20">
     <!-- Start -->
     <g transform="translate(829.76875 142.838475) scale(0.2 -0.2)">
      <defs>
       <path id="DejaVuSans-53" d="M 3425 4513 
L 3425 3897 
Q 3066 4069 2747 4153 
Q 2428 4238 2131 4238 
Q 1616 4238 1336 4038 
Q 1056 3838 1056 3469 
Q 1056 3159 1242 3001 
Q 1428 2844 1947 2747 
L 2328 2669 
Q 3034 2534 3370 2195 
Q 3706 1856 3706 1288 
Q 3706 609 3251 259 
Q 2797 -91 1919 -91 
Q 1588 -91 1214 -16 
Q 841 59 441 206 
L 441 856 
Q 825 641 1194 531 
Q 1563 422 1919 422 
Q 2459 422 2753 634 
Q 3047 847 3047 1241 
Q 3047 1584 2836 1778 
Q 2625 1972 2144 2069 
L 1759 2144 
Q 1053 2284 737 2584 
Q 422 2884 422 3419 
Q 422 4038 858 4394 
Q 1294 4750 2059 4750 
Q 2388 4750 2728 4690 
Q 3069 4631 3425 4513 
z
" transform="scale(0.015625)"/>
       <path id="DejaVuSans-61" d="M 2194 1759 
Q 1497 1759 1228 1600 
Q 959 1441 959 1056 
Q 959 750 1161 570 
Q 1363 391 1709 391 
Q 2188 391 2477 730 
Q 2766 1069 2766 1631 
L 2766 1759 
L 2194 1759 
z
M 3341 1997 
L 3341 0 
L 2766 0 
L 2766 531 
Q 2569 213 2275 61 
Q 1981 -91 1556 -91 
Q 1019 -91 701 211 
Q 384 513 384 1019 
Q 384 1609 779 1909 
Q 1175 2209 1959 2209 
L 2766 2209 
L 2766 2266 
Q 2766 2663 2505 2880 
Q 2244 3097 1772 3097 
Q 1472 3097 1187 3025 
Q 903 2953 641 2809 
L 641 3341 
Q 956 3463 1253 3523 
Q 1550 3584 1831 3584 
Q 2591 3584 2966 3190 
Q 3341 2797 3341 1997 
z
" transform="scale(0.015625)"/>
       <path id="DejaVuSans-72" d="M 2631 2963 
Q 2534 3019 2420 3045 
Q 2306 3072 2169 3072 
Q 1681 3072 1420 2755 
Q 1159 2438 1159 1844 
L 1159 0 
L 581 0 
L 581 3500 
L 1159 3500 
L 1159 2956 
Q 1341 3275 1631 3429 
Q 1922 3584 2338 3584 
Q 2397 3584 2469 3576 
Q 2541 3569 2628 3553 
L 2631 2963 
z
" transform="scale(0.015625)"/>
      </defs>
      <use xlink:href="#DejaVuSans-53"/>
      <use xlink:href="#DejaVuSans-74" x="63.476562"/>
      <use xlink:href="#DejaVuSans-61" x="102.685547"/>
      <use xlink:href="#DejaVuSans-72" x="163.964844"/>
      <use xlink:href="#DejaVuSans-74" x="205.078125"/>
     </g>
    </g>
    <g id="line2d_38">
     <path d="M 753.76875 165.194725 
L 783.76875 165.194725 
L 813.76875 165.194725 
" style="fill: none; stroke-dasharray: 14.8,6.4; stroke-dashoffset: 0; stroke: #808a87; stroke-width: 4"/>
    </g>
    <g id="text_21">
     <!-- GroundTruth -->
     <g transform="translate(829.76875 172.194725) scale(0.2 -0.2)">
      <defs>
       <path id="DejaVuSans-47" d="M 3809 666 
L 3809 1919 
L 2778 1919 
L 2778 2438 
L 4434 2438 
L 4434 434 
Q 4069 175 3628 42 
Q 3188 -91 2688 -91 
Q 1594 -91 976 548 
Q 359 1188 359 2328 
Q 359 3472 976 4111 
Q 1594 4750 2688 4750 
Q 3144 4750 3555 4637 
Q 3966 4525 4313 4306 
L 4313 3634 
Q 3963 3931 3569 4081 
Q 3175 4231 2741 4231 
Q 1884 4231 1454 3753 
Q 1025 3275 1025 2328 
Q 1025 1384 1454 906 
Q 1884 428 2741 428 
Q 3075 428 3337 486 
Q 3600 544 3809 666 
z
" transform="scale(0.015625)"/>
       <path id="DejaVuSans-6f" d="M 1959 3097 
Q 1497 3097 1228 2736 
Q 959 2375 959 1747 
Q 959 1119 1226 758 
Q 1494 397 1959 397 
Q 2419 397 2687 759 
Q 2956 1122 2956 1747 
Q 2956 2369 2687 2733 
Q 2419 3097 1959 3097 
z
M 1959 3584 
Q 2709 3584 3137 3096 
Q 3566 2609 3566 1747 
Q 3566 888 3137 398 
Q 2709 -91 1959 -91 
Q 1206 -91 779 398 
Q 353 888 353 1747 
Q 353 2609 779 3096 
Q 1206 3584 1959 3584 
z
" transform="scale(0.015625)"/>
       <path id="DejaVuSans-75" d="M 544 1381 
L 544 3500 
L 1119 3500 
L 1119 1403 
Q 1119 906 1312 657 
Q 1506 409 1894 409 
Q 2359 409 2629 706 
Q 2900 1003 2900 1516 
L 2900 3500 
L 3475 3500 
L 3475 0 
L 2900 0 
L 2900 538 
Q 2691 219 2414 64 
Q 2138 -91 1772 -91 
Q 1169 -91 856 284 
Q 544 659 544 1381 
z
M 1991 3584 
L 1991 3584 
z
" transform="scale(0.015625)"/>
       <path id="DejaVuSans-6e" d="M 3513 2113 
L 3513 0 
L 2938 0 
L 2938 2094 
Q 2938 2591 2744 2837 
Q 2550 3084 2163 3084 
Q 1697 3084 1428 2787 
Q 1159 2491 1159 1978 
L 1159 0 
L 581 0 
L 581 3500 
L 1159 3500 
L 1159 2956 
Q 1366 3272 1645 3428 
Q 1925 3584 2291 3584 
Q 2894 3584 3203 3211 
Q 3513 2838 3513 2113 
z
" transform="scale(0.015625)"/>
       <path id="DejaVuSans-64" d="M 2906 2969 
L 2906 4863 
L 3481 4863 
L 3481 0 
L 2906 0 
L 2906 525 
Q 2725 213 2448 61 
Q 2172 -91 1784 -91 
Q 1150 -91 751 415 
Q 353 922 353 1747 
Q 353 2572 751 3078 
Q 1150 3584 1784 3584 
Q 2172 3584 2448 3432 
Q 2725 3281 2906 2969 
z
M 947 1747 
Q 947 1113 1208 752 
Q 1469 391 1925 391 
Q 2381 391 2643 752 
Q 2906 1113 2906 1747 
Q 2906 2381 2643 2742 
Q 2381 3103 1925 3103 
Q 1469 3103 1208 2742 
Q 947 2381 947 1747 
z
" transform="scale(0.015625)"/>
       <path id="DejaVuSans-54" d="M -19 4666 
L 3928 4666 
L 3928 4134 
L 2272 4134 
L 2272 0 
L 1638 0 
L 1638 4134 
L -19 4134 
L -19 4666 
z
" transform="scale(0.015625)"/>
       <path id="DejaVuSans-68" d="M 3513 2113 
L 3513 0 
L 2938 0 
L 2938 2094 
Q 2938 2591 2744 2837 
Q 2550 3084 2163 3084 
Q 1697 3084 1428 2787 
Q 1159 2491 1159 1978 
L 1159 0 
L 581 0 
L 581 4863 
L 1159 4863 
L 1159 2956 
Q 1366 3272 1645 3428 
Q 1925 3584 2291 3584 
Q 2894 3584 3203 3211 
Q 3513 2838 3513 2113 
z
" transform="scale(0.015625)"/>
      </defs>
      <use xlink:href="#DejaVuSans-47"/>
      <use xlink:href="#DejaVuSans-72" x="77.490234"/>
      <use xlink:href="#DejaVuSans-6f" x="116.353516"/>
      <use xlink:href="#DejaVuSans-75" x="177.535156"/>
      <use xlink:href="#DejaVuSans-6e" x="240.914062"/>
      <use xlink:href="#DejaVuSans-64" x="304.292969"/>
      <use xlink:href="#DejaVuSans-54" x="367.769531"/>
      <use xlink:href="#DejaVuSans-72" x="414.103516"/>
      <use xlink:href="#DejaVuSans-75" x="455.216797"/>
      <use xlink:href="#DejaVuSans-74" x="518.595703"/>
      <use xlink:href="#DejaVuSans-68" x="557.804688"/>
     </g>
    </g>
    <g id="line2d_39">
     <path d="M 753.76875 194.550975 
L 783.76875 194.550975 
L 813.76875 194.550975 
" style="fill: none; stroke: #00ff00; stroke-width: 2; stroke-linecap: square"/>
    </g>
    <g id="text_22">
     <!-- ROLO -->
     <g transform="translate(829.76875 201.550975) scale(0.2 -0.2)">
      <defs>
       <path id="DejaVuSans-52" d="M 2841 2188 
Q 3044 2119 3236 1894 
Q 3428 1669 3622 1275 
L 4263 0 
L 3584 0 
L 2988 1197 
Q 2756 1666 2539 1819 
Q 2322 1972 1947 1972 
L 1259 1972 
L 1259 0 
L 628 0 
L 628 4666 
L 2053 4666 
Q 2853 4666 3247 4331 
Q 3641 3997 3641 3322 
Q 3641 2881 3436 2590 
Q 3231 2300 2841 2188 
z
M 1259 4147 
L 1259 2491 
L 2053 2491 
Q 2509 2491 2742 2702 
Q 2975 2913 2975 3322 
Q 2975 3731 2742 3939 
Q 2509 4147 2053 4147 
L 1259 4147 
z
" transform="scale(0.015625)"/>
       <path id="DejaVuSans-4f" d="M 2522 4238 
Q 1834 4238 1429 3725 
Q 1025 3213 1025 2328 
Q 1025 1447 1429 934 
Q 1834 422 2522 422 
Q 3209 422 3611 934 
Q 4013 1447 4013 2328 
Q 4013 3213 3611 3725 
Q 3209 4238 2522 4238 
z
M 2522 4750 
Q 3503 4750 4090 4092 
Q 4678 3434 4678 2328 
Q 4678 1225 4090 567 
Q 3503 -91 2522 -91 
Q 1538 -91 948 565 
Q 359 1222 359 2328 
Q 359 3434 948 4092 
Q 1538 4750 2522 4750 
z
" transform="scale(0.015625)"/>
       <path id="DejaVuSans-4c" d="M 628 4666 
L 1259 4666 
L 1259 531 
L 3531 531 
L 3531 0 
L 628 0 
L 628 4666 
z
" transform="scale(0.015625)"/>
      </defs>
      <use xlink:href="#DejaVuSans-52"/>
      <use xlink:href="#DejaVuSans-4f" x="69.482422"/>
      <use xlink:href="#DejaVuSans-4c" x="148.193359"/>
      <use xlink:href="#DejaVuSans-4f" x="200.28125"/>
     </g>
    </g>
    <g id="line2d_40">
     <path d="M 753.76875 223.907225 
L 783.76875 223.907225 
L 813.76875 223.907225 
" style="fill: none; stroke: #0000ff; stroke-width: 2; stroke-linecap: square"/>
    </g>
    <g id="text_23">
     <!-- ROLO+LC -->
     <g transform="translate(829.76875 230.907225) scale(0.2 -0.2)">
      <defs>
       <path id="DejaVuSans-2b" d="M 2944 4013 
L 2944 2272 
L 4684 2272 
L 4684 1741 
L 2944 1741 
L 2944 0 
L 2419 0 
L 2419 1741 
L 678 1741 
L 678 2272 
L 2419 2272 
L 2419 4013 
L 2944 4013 
z
" transform="scale(0.015625)"/>
       <path id="DejaVuSans-43" d="M 4122 4306 
L 4122 3641 
Q 3803 3938 3442 4084 
Q 3081 4231 2675 4231 
Q 1875 4231 1450 3742 
Q 1025 3253 1025 2328 
Q 1025 1406 1450 917 
Q 1875 428 2675 428 
Q 3081 428 3442 575 
Q 3803 722 4122 1019 
L 4122 359 
Q 3791 134 3420 21 
Q 3050 -91 2638 -91 
Q 1578 -91 968 557 
Q 359 1206 359 2328 
Q 359 3453 968 4101 
Q 1578 4750 2638 4750 
Q 3056 4750 3426 4639 
Q 3797 4528 4122 4306 
z
" transform="scale(0.015625)"/>
      </defs>
      <use xlink:href="#DejaVuSans-52"/>
      <use xlink:href="#DejaVuSans-4f" x="69.482422"/>
      <use xlink:href="#DejaVuSans-4c" x="148.193359"/>
      <use xlink:href="#DejaVuSans-4f" x="200.28125"/>
      <use xlink:href="#DejaVuSans-2b" x="278.992188"/>
      <use xlink:href="#DejaVuSans-4c" x="362.78125"/>
      <use xlink:href="#DejaVuSans-43" x="418.494141"/>
     </g>
    </g>
   </g>
  </g>
 </g>
 <defs>
  <clipPath id="p6ca2e3d60a">
   <rect x="135" y="109.6416" width="837" height="703.5336"/>
  </clipPath>
 </defs>
</svg>
