<?xml version="1.0" encoding="utf-8" standalone="no"?>
<!DOCTYPE svg PUBLIC "-//W3C//DTD SVG 1.1//EN"
  "http://www.w3.org/Graphics/SVG/1.1/DTD/svg11.dtd">
<svg xmlns:xlink="http://www.w3.org/1999/xlink" width="1080pt" height="913.68pt" viewBox="0 0 1080 913.68" xmlns="http://www.w3.org/2000/svg" version="1.1">
 <metadata>
  <rdf:RDF xmlns:dc="http://purl.org/dc/elements/1.1/" xmlns:cc="http://creativecommons.org/ns#" xmlns:rdf="http://www.w3.org/1999/02/22-rdf-syntax-ns#">
   <cc:Work>
    <dc:type rdf:resource="http://purl.org/dc/dcmitype/StillImage"/>
    <dc:date>2024-03-12T15:35:04.747923</dc:date>
    <dc:format>image/svg+xml</dc:format>
    <dc:creator>
     <cc:Agent>
      <dc:title>Matplotlib v3.7.0, https://matplotlib.org/</dc:title>
     </cc:Agent>
    </dc:creator>
   </cc:Work>
  </rdf:RDF>
 </metadata>
 <defs>
  <style type="text/css">*{stroke-linejoin: round; stroke-linecap: butt}</style>
 </defs>
 <g id="figure_1">
  <g id="patch_1">
   <path d="M 0 913.68 
L 1080 913.68 
L 1080 0 
L 0 0 
z
" style="fill: #ffffff"/>
  </g>
  <g id="axes_1">
   <g id="patch_2">
    <path d="M 135 813.1752 
L 972 813.1752 
L 972 109.6416 
L 135 109.6416 
z
" style="fill: #ffffff"/>
   </g>
   <g id="matplotlib.axis_1">
    <g id="xtick_1">
     <g id="line2d_1">
      <path d="M 265.386935 813.1752 
L 265.386935 109.6416 
" clip-path="url(#p3719f16103)" style="fill: none; stroke: #b0b0b0; stroke-width: 0.8; stroke-linecap: square"/>
     </g>
     <g id="line2d_2">
      <defs>
       <path id="m73f8081082" d="M 0 0 
L 0 -5 
" style="stroke: #000000; stroke-width: 0.8"/>
      </defs>
      <g>
       <use xlink:href="#m73f8081082" x="265.386935" y="813.1752" style="stroke: #000000; stroke-width: 0.8"/>
      </g>
     </g>
     <g id="text_1">
      <!-- 0 -->
      <g transform="translate(255.843185 839.470512) scale(0.3 -0.3)">
       <defs>
        <path id="DejaVuSans-30" d="M 2034 4250 
Q 1547 4250 1301 3770 
Q 1056 3291 1056 2328 
Q 1056 1369 1301 889 
Q 1547 409 2034 409 
Q 2525 409 2770 889 
Q 3016 1369 3016 2328 
Q 3016 3291 2770 3770 
Q 2525 4250 2034 4250 
z
M 2034 4750 
Q 2819 4750 3233 4129 
Q 3647 3509 3647 2328 
Q 3647 1150 3233 529 
Q 2819 -91 2034 -91 
Q 1250 -91 836 529 
Q 422 1150 422 2328 
Q 422 3509 836 4129 
Q 1250 4750 2034 4750 
z
" transform="scale(0.015625)"/>
       </defs>
       <use xlink:href="#DejaVuSans-30"/>
      </g>
     </g>
    </g>
    <g id="xtick_2">
     <g id="line2d_3">
      <path d="M 433.628141 813.1752 
L 433.628141 109.6416 
" clip-path="url(#p3719f16103)" style="fill: none; stroke: #b0b0b0; stroke-width: 0.8; stroke-linecap: square"/>
     </g>
     <g id="line2d_4">
      <g>
       <use xlink:href="#m73f8081082" x="433.628141" y="813.1752" style="stroke: #000000; stroke-width: 0.8"/>
      </g>
     </g>
     <g id="text_2">
      <!-- 100 -->
      <g transform="translate(404.996891 839.470512) scale(0.3 -0.3)">
       <defs>
        <path id="DejaVuSans-31" d="M 794 531 
L 1825 531 
L 1825 4091 
L 703 3866 
L 703 4441 
L 1819 4666 
L 2450 4666 
L 2450 531 
L 3481 531 
L 3481 0 
L 794 0 
L 794 531 
z
" transform="scale(0.015625)"/>
       </defs>
       <use xlink:href="#DejaVuSans-31"/>
       <use xlink:href="#DejaVuSans-30" x="63.623047"/>
       <use xlink:href="#DejaVuSans-30" x="127.246094"/>
      </g>
     </g>
    </g>
    <g id="xtick_3">
     <g id="line2d_5">
      <path d="M 601.869347 813.1752 
L 601.869347 109.6416 
" clip-path="url(#p3719f16103)" style="fill: none; stroke: #b0b0b0; stroke-width: 0.8; stroke-linecap: square"/>
     </g>
     <g id="line2d_6">
      <g>
       <use xlink:href="#m73f8081082" x="601.869347" y="813.1752" style="stroke: #000000; stroke-width: 0.8"/>
      </g>
     </g>
     <g id="text_3">
      <!-- 200 -->
      <g transform="translate(573.238097 839.470512) scale(0.3 -0.3)">
       <defs>
        <path id="DejaVuSans-32" d="M 1228 531 
L 3431 531 
L 3431 0 
L 469 0 
L 469 531 
Q 828 903 1448 1529 
Q 2069 2156 2228 2338 
Q 2531 2678 2651 2914 
Q 2772 3150 2772 3378 
Q 2772 3750 2511 3984 
Q 2250 4219 1831 4219 
Q 1534 4219 1204 4116 
Q 875 4013 500 3803 
L 500 4441 
Q 881 4594 1212 4672 
Q 1544 4750 1819 4750 
Q 2544 4750 2975 4387 
Q 3406 4025 3406 3419 
Q 3406 3131 3298 2873 
Q 3191 2616 2906 2266 
Q 2828 2175 2409 1742 
Q 1991 1309 1228 531 
z
" transform="scale(0.015625)"/>
       </defs>
       <use xlink:href="#DejaVuSans-32"/>
       <use xlink:href="#DejaVuSans-30" x="63.623047"/>
       <use xlink:href="#DejaVuSans-30" x="127.246094"/>
      </g>
     </g>
    </g>
    <g id="xtick_4">
     <g id="line2d_7">
      <path d="M 770.110553 813.1752 
L 770.110553 109.6416 
" clip-path="url(#p3719f16103)" style="fill: none; stroke: #b0b0b0; stroke-width: 0.8; stroke-linecap: square"/>
     </g>
     <g id="line2d_8">
      <g>
       <use xlink:href="#m73f8081082" x="770.110553" y="813.1752" style="stroke: #000000; stroke-width: 0.8"/>
      </g>
     </g>
     <g id="text_4">
      <!-- 300 -->
      <g transform="translate(741.479303 839.470512) scale(0.3 -0.3)">
       <defs>
        <path id="DejaVuSans-33" d="M 2597 2516 
Q 3050 2419 3304 2112 
Q 3559 1806 3559 1356 
Q 3559 666 3084 287 
Q 2609 -91 1734 -91 
Q 1441 -91 1130 -33 
Q 819 25 488 141 
L 488 750 
Q 750 597 1062 519 
Q 1375 441 1716 441 
Q 2309 441 2620 675 
Q 2931 909 2931 1356 
Q 2931 1769 2642 2001 
Q 2353 2234 1838 2234 
L 1294 2234 
L 1294 2753 
L 1863 2753 
Q 2328 2753 2575 2939 
Q 2822 3125 2822 3475 
Q 2822 3834 2567 4026 
Q 2313 4219 1838 4219 
Q 1578 4219 1281 4162 
Q 984 4106 628 3988 
L 628 4550 
Q 988 4650 1302 4700 
Q 1616 4750 1894 4750 
Q 2613 4750 3031 4423 
Q 3450 4097 3450 3541 
Q 3450 3153 3228 2886 
Q 3006 2619 2597 2516 
z
" transform="scale(0.015625)"/>
       </defs>
       <use xlink:href="#DejaVuSans-33"/>
       <use xlink:href="#DejaVuSans-30" x="63.623047"/>
       <use xlink:href="#DejaVuSans-30" x="127.246094"/>
      </g>
     </g>
    </g>
    <g id="xtick_5">
     <g id="line2d_9">
      <path d="M 938.351759 813.1752 
L 938.351759 109.6416 
" clip-path="url(#p3719f16103)" style="fill: none; stroke: #b0b0b0; stroke-width: 0.8; stroke-linecap: square"/>
     </g>
     <g id="line2d_10">
      <g>
       <use xlink:href="#m73f8081082" x="938.351759" y="813.1752" style="stroke: #000000; stroke-width: 0.8"/>
      </g>
     </g>
     <g id="text_5">
      <!-- 400 -->
      <g transform="translate(909.720509 839.470512) scale(0.3 -0.3)">
       <defs>
        <path id="DejaVuSans-34" d="M 2419 4116 
L 825 1625 
L 2419 1625 
L 2419 4116 
z
M 2253 4666 
L 3047 4666 
L 3047 1625 
L 3713 1625 
L 3713 1100 
L 3047 1100 
L 3047 0 
L 2419 0 
L 2419 1100 
L 313 1100 
L 313 1709 
L 2253 4666 
z
" transform="scale(0.015625)"/>
       </defs>
       <use xlink:href="#DejaVuSans-34"/>
       <use xlink:href="#DejaVuSans-30" x="63.623047"/>
       <use xlink:href="#DejaVuSans-30" x="127.246094"/>
      </g>
     </g>
    </g>
    <g id="text_6">
     <!-- X (m) -->
     <g transform="translate(511.221094 874.0127) scale(0.35 -0.35)">
      <defs>
       <path id="TimesNewRomanPSMT-58" d="M 2613 2347 
L 3522 991 
Q 3900 428 4083 279 
Q 4266 131 4547 116 
L 4547 0 
L 2728 0 
L 2728 116 
Q 2909 119 2997 153 
Q 3063 181 3105 239 
Q 3147 297 3147 356 
Q 3147 428 3119 500 
Q 3097 553 2947 775 
L 2228 1863 
L 1341 725 
Q 1200 544 1172 483 
Q 1144 422 1144 356 
Q 1144 256 1228 190 
Q 1313 125 1550 116 
L 1550 0 
L 47 0 
L 47 116 
Q 206 131 322 181 
Q 516 263 691 400 
Q 866 538 1091 822 
L 2091 2084 
L 1256 3306 
Q 916 3803 678 3958 
Q 441 4113 131 4122 
L 131 4238 
L 2091 4238 
L 2091 4122 
Q 1841 4113 1748 4041 
Q 1656 3969 1656 3881 
Q 1656 3766 1806 3544 
L 2456 2572 
L 3209 3525 
Q 3341 3694 3370 3756 
Q 3400 3819 3400 3884 
Q 3400 3950 3363 4000 
Q 3316 4066 3244 4092 
Q 3172 4119 2947 4122 
L 2947 4238 
L 4450 4238 
L 4450 4122 
Q 4272 4113 4159 4066 
Q 3991 3994 3850 3872 
Q 3709 3750 3453 3422 
L 2613 2347 
z
" transform="scale(0.015625)"/>
       <path id="TimesNewRomanPSMT-20" transform="scale(0.015625)"/>
       <path id="TimesNewRomanPSMT-28" d="M 1988 -1253 
L 1988 -1369 
Q 1516 -1131 1200 -813 
Q 750 -359 506 256 
Q 263 872 263 1534 
Q 263 2503 741 3301 
Q 1219 4100 1988 4444 
L 1988 4313 
Q 1603 4100 1356 3731 
Q 1109 3363 987 2797 
Q 866 2231 866 1616 
Q 866 947 969 400 
Q 1050 -31 1165 -292 
Q 1281 -553 1476 -793 
Q 1672 -1034 1988 -1253 
z
" transform="scale(0.015625)"/>
       <path id="TimesNewRomanPSMT-6d" d="M 1050 2338 
Q 1363 2650 1419 2697 
Q 1559 2816 1721 2881 
Q 1884 2947 2044 2947 
Q 2313 2947 2506 2790 
Q 2700 2634 2766 2338 
Q 3088 2713 3309 2830 
Q 3531 2947 3766 2947 
Q 3994 2947 4170 2830 
Q 4347 2713 4450 2447 
Q 4519 2266 4519 1878 
L 4519 647 
Q 4519 378 4559 278 
Q 4591 209 4675 161 
Q 4759 113 4950 113 
L 4950 0 
L 3538 0 
L 3538 113 
L 3597 113 
Q 3781 113 3884 184 
Q 3956 234 3988 344 
Q 4000 397 4000 647 
L 4000 1878 
Q 4000 2228 3916 2372 
Q 3794 2572 3525 2572 
Q 3359 2572 3192 2489 
Q 3025 2406 2788 2181 
L 2781 2147 
L 2788 2013 
L 2788 647 
Q 2788 353 2820 281 
Q 2853 209 2943 161 
Q 3034 113 3253 113 
L 3253 0 
L 1806 0 
L 1806 113 
Q 2044 113 2133 169 
Q 2222 225 2256 338 
Q 2272 391 2272 647 
L 2272 1878 
Q 2272 2228 2169 2381 
Q 2031 2581 1784 2581 
Q 1616 2581 1450 2491 
Q 1191 2353 1050 2181 
L 1050 647 
Q 1050 366 1089 281 
Q 1128 197 1204 155 
Q 1281 113 1516 113 
L 1516 0 
L 100 0 
L 100 113 
Q 297 113 375 155 
Q 453 197 493 289 
Q 534 381 534 647 
L 534 1741 
Q 534 2213 506 2350 
Q 484 2453 437 2492 
Q 391 2531 309 2531 
Q 222 2531 100 2484 
L 53 2597 
L 916 2947 
L 1050 2947 
L 1050 2338 
z
" transform="scale(0.015625)"/>
       <path id="TimesNewRomanPSMT-29" d="M 144 4313 
L 144 4444 
Q 619 4209 934 3891 
Q 1381 3434 1625 2820 
Q 1869 2206 1869 1541 
Q 1869 572 1392 -226 
Q 916 -1025 144 -1369 
L 144 -1253 
Q 528 -1038 776 -670 
Q 1025 -303 1145 264 
Q 1266 831 1266 1447 
Q 1266 2113 1163 2663 
Q 1084 3094 967 3353 
Q 850 3613 656 3853 
Q 463 4094 144 4313 
z
" transform="scale(0.015625)"/>
      </defs>
      <use xlink:href="#TimesNewRomanPSMT-58"/>
      <use xlink:href="#TimesNewRomanPSMT-20" x="72.216797"/>
      <use xlink:href="#TimesNewRomanPSMT-28" x="97.216797"/>
      <use xlink:href="#TimesNewRomanPSMT-6d" x="130.517578"/>
      <use xlink:href="#TimesNewRomanPSMT-29" x="208.300781"/>
     </g>
    </g>
   </g>
   <g id="matplotlib.axis_2">
    <g id="ytick_1">
     <g id="line2d_11">
      <path d="M 135 746.804106 
L 972 746.804106 
" clip-path="url(#p3719f16103)" style="fill: none; stroke: #b0b0b0; stroke-width: 0.8; stroke-linecap: square"/>
     </g>
     <g id="line2d_12">
      <defs>
       <path id="m3945a98433" d="M 0 0 
L 5 0 
" style="stroke: #000000; stroke-width: 0.8"/>
      </defs>
      <g>
       <use xlink:href="#m3945a98433" x="135" y="746.804106" style="stroke: #000000; stroke-width: 0.8"/>
      </g>
     </g>
     <g id="text_7">
      <!-- −200 -->
      <g transform="translate(49.098438 758.201762) scale(0.3 -0.3)">
       <defs>
        <path id="DejaVuSans-2212" d="M 678 2272 
L 4684 2272 
L 4684 1741 
L 678 1741 
L 678 2272 
z
" transform="scale(0.015625)"/>
       </defs>
       <use xlink:href="#DejaVuSans-2212"/>
       <use xlink:href="#DejaVuSans-32" x="83.789062"/>
       <use xlink:href="#DejaVuSans-30" x="147.412109"/>
       <use xlink:href="#DejaVuSans-30" x="211.035156"/>
      </g>
     </g>
    </g>
    <g id="ytick_2">
     <g id="line2d_13">
      <path d="M 135 614.061917 
L 972 614.061917 
" clip-path="url(#p3719f16103)" style="fill: none; stroke: #b0b0b0; stroke-width: 0.8; stroke-linecap: square"/>
     </g>
     <g id="line2d_14">
      <g>
       <use xlink:href="#m3945a98433" x="135" y="614.061917" style="stroke: #000000; stroke-width: 0.8"/>
      </g>
     </g>
     <g id="text_8">
      <!-- −100 -->
      <g transform="translate(49.098438 625.459573) scale(0.3 -0.3)">
       <use xlink:href="#DejaVuSans-2212"/>
       <use xlink:href="#DejaVuSans-31" x="83.789062"/>
       <use xlink:href="#DejaVuSans-30" x="147.412109"/>
       <use xlink:href="#DejaVuSans-30" x="211.035156"/>
      </g>
     </g>
    </g>
    <g id="ytick_3">
     <g id="line2d_15">
      <path d="M 135 481.319728 
L 972 481.319728 
" clip-path="url(#p3719f16103)" style="fill: none; stroke: #b0b0b0; stroke-width: 0.8; stroke-linecap: square"/>
     </g>
     <g id="line2d_16">
      <g>
       <use xlink:href="#m3945a98433" x="135" y="481.319728" style="stroke: #000000; stroke-width: 0.8"/>
      </g>
     </g>
     <g id="text_9">
      <!-- 0 -->
      <g transform="translate(112.4125 492.717385) scale(0.3 -0.3)">
       <use xlink:href="#DejaVuSans-30"/>
      </g>
     </g>
    </g>
    <g id="ytick_4">
     <g id="line2d_17">
      <path d="M 135 348.57754 
L 972 348.57754 
" clip-path="url(#p3719f16103)" style="fill: none; stroke: #b0b0b0; stroke-width: 0.8; stroke-linecap: square"/>
     </g>
     <g id="line2d_18">
      <g>
       <use xlink:href="#m3945a98433" x="135" y="348.57754" style="stroke: #000000; stroke-width: 0.8"/>
      </g>
     </g>
     <g id="text_10">
      <!-- 100 -->
      <g transform="translate(74.2375 359.975196) scale(0.3 -0.3)">
       <use xlink:href="#DejaVuSans-31"/>
       <use xlink:href="#DejaVuSans-30" x="63.623047"/>
       <use xlink:href="#DejaVuSans-30" x="127.246094"/>
      </g>
     </g>
    </g>
    <g id="ytick_5">
     <g id="line2d_19">
      <path d="M 135 215.835351 
L 972 215.835351 
" clip-path="url(#p3719f16103)" style="fill: none; stroke: #b0b0b0; stroke-width: 0.8; stroke-linecap: square"/>
     </g>
     <g id="line2d_20">
      <g>
       <use xlink:href="#m3945a98433" x="135" y="215.835351" style="stroke: #000000; stroke-width: 0.8"/>
      </g>
     </g>
     <g id="text_11">
      <!-- 200 -->
      <g transform="translate(74.2375 227.233007) scale(0.3 -0.3)">
       <use xlink:href="#DejaVuSans-32"/>
       <use xlink:href="#DejaVuSans-30" x="63.623047"/>
       <use xlink:href="#DejaVuSans-30" x="127.246094"/>
      </g>
     </g>
    </g>
    <g id="text_12">
     <!-- Y (m) -->
     <g transform="translate(37.611719 503.031056) rotate(-90) scale(0.35 -0.35)">
      <defs>
       <path id="TimesNewRomanPSMT-59" d="M 3050 4238 
L 4528 4238 
L 4528 4122 
L 4447 4122 
Q 4366 4122 4209 4050 
Q 4053 3978 3925 3843 
Q 3797 3709 3609 3406 
L 2588 1797 
L 2588 734 
Q 2588 344 2675 247 
Q 2794 116 3050 116 
L 3188 116 
L 3188 0 
L 1388 0 
L 1388 116 
L 1538 116 
Q 1806 116 1919 278 
Q 1988 378 1988 734 
L 1988 1738 
L 825 3513 
Q 619 3825 545 3903 
Q 472 3981 241 4091 
Q 178 4122 59 4122 
L 59 4238 
L 1872 4238 
L 1872 4122 
L 1778 4122 
Q 1631 4122 1507 4053 
Q 1384 3984 1384 3847 
Q 1384 3734 1575 3441 
L 2459 2075 
L 3291 3381 
Q 3478 3675 3478 3819 
Q 3478 3906 3433 3975 
Q 3388 4044 3303 4083 
Q 3219 4122 3050 4122 
L 3050 4238 
z
" transform="scale(0.015625)"/>
      </defs>
      <use xlink:href="#TimesNewRomanPSMT-59"/>
      <use xlink:href="#TimesNewRomanPSMT-20" x="68.466797"/>
      <use xlink:href="#TimesNewRomanPSMT-28" x="93.466797"/>
      <use xlink:href="#TimesNewRomanPSMT-6d" x="126.767578"/>
      <use xlink:href="#TimesNewRomanPSMT-29" x="204.550781"/>
     </g>
    </g>
   </g>
   <g id="line2d_21">
    <defs>
     <path id="m8e77a55c82" d="M 0 -3 
L -0.673542 -0.927051 
L -2.85317 -0.927051 
L -1.089814 0.354102 
L -1.763356 2.427051 
L -0 1.145898 
L 1.763356 2.427051 
L 1.089814 0.354102 
L 2.85317 -0.927051 
L 0.673542 -0.927051 
z
" style="stroke: #ff0000; stroke-linejoin: bevel"/>
    </defs>
    <g clip-path="url(#p3719f16103)">
     <use xlink:href="#m8e77a55c82" x="265.386935" y="481.319728" style="fill: #ff0000; stroke: #ff0000; stroke-linejoin: bevel"/>
    </g>
   </g>
   <g id="line2d_22">
    <path d="M 265.386935 481.319728 
L 272.065251 481.264604 
L 305.511133 480.721417 
L 340.498877 480.117089 
L 367.624609 479.437432 
L 400.283356 478.702582 
L 421.709547 478.018803 
L 430.594466 477.489715 
L 438.009646 477.07633 
L 440.89431 477.129222 
L 442.878715 477.345549 
L 444.736603 477.736437 
L 446.442569 478.294049 
L 447.954384 479.036264 
L 449.29207 479.929902 
L 450.478507 480.992338 
L 451.408544 482.255705 
L 451.893584 483.188916 
L 452.307794 484.17225 
L 452.670017 485.767523 
L 453.005826 488.849731 
L 452.976552 490.986437 
L 452.558473 505.96386 
L 452.365837 512.509921 
L 452.165798 520.266618 
L 451.450773 538.234349 
L 450.594257 552.955909 
L 449.738077 560.193278 
L 447.757542 574.928697 
L 446.38503 584.134275 
L 441.682857 614.330056 
L 440.232617 624.153907 
L 439.029861 631.422339 
L 438.086869 636.473046 
L 436.461996 644.344392 
L 434.993418 650.076864 
L 433.73918 653.787937 
L 431.194582 660.106731 
L 428.141593 667.827017 
L 426.12285 673.532276 
L 424.742364 678.178651 
L 424.214019 680.461684 
L 423.86968 682.727858 
L 423.74831 685.706726 
L 423.690318 689.383153 
L 423.261454 692.91237 
L 422.500953 696.269951 
L 419.849674 705.151996 
L 417.761514 710.746814 
L 413.428647 721.957556 
L 412.701492 724.27311 
L 412.250858 726.392472 
L 412.146346 727.959892 
L 412.329292 729.988192 
L 412.641649 731.437604 
L 413.180374 732.878786 
L 413.703755 733.839973 
L 414.754203 735.282216 
L 416.131981 736.729637 
L 417.955614 738.115067 
L 420.15022 739.420852 
L 422.774816 740.668894 
L 425.766414 741.854813 
L 430.21308 743.376968 
L 435.186391 744.762265 
L 447.603096 748.072192 
L 479.688209 756.681319 
L 491.929775 759.66324 
L 499.893305 761.42579 
L 509.834677 763.409357 
L 512.04318 763.653204 
L 514.211136 763.709487 
L 516.301533 763.521259 
L 518.906748 762.892326 
L 520.100756 762.421091 
L 521.18322 761.840875 
L 522.200574 761.217916 
L 523.821578 759.667089 
L 524.437678 758.799221 
L 524.877965 757.881574 
L 525.229757 756.930476 
L 525.594841 755.45133 
L 525.94024 753.340995 
L 526.193275 748.954927 
L 525.868064 742.454011 
L 525.738855 738.623736 
L 525.83879 734.417667 
L 526.228942 729.884388 
L 527.006384 724.074926 
L 531.42137 694.594612 
L 533.937417 679.505276 
L 537.035074 661.248314 
L 538.760556 647.074634 
L 544.057294 600.750424 
L 548.775619 566.992665 
L 550.291977 552.384985 
L 551.229753 541.930967 
L 552.26982 526.728083 
L 552.799612 516.157079 
L 553.252517 505.840768 
L 553.988236 496.675438 
L 554.608037 491.224617 
L 555.144894 487.950673 
L 555.685285 485.65077 
L 556.546344 483.170282 
L 557.4286 481.484976 
L 558.263918 480.291763 
L 559.247456 479.221088 
L 560.327733 478.26802 
L 561.663063 477.358701 
L 563.83388 476.263167 
L 566.457096 475.338345 
L 568.838551 474.774311 
L 571.506688 474.400287 
L 574.470593 474.216002 
L 579.965351 474.161623 
L 594.122512 474.131905 
L 616.149156 473.802055 
L 638.278594 473.077658 
L 642.965626 472.925459 
L 645.867114 473.041701 
L 647.938163 473.281739 
L 649.905744 473.746248 
L 652.278955 474.637481 
L 653.877919 475.462216 
L 655.760706 476.887242 
L 657.04405 478.137147 
L 658.572353 480.741036 
L 659.038886 481.944079 
L 659.620664 484.643671 
L 659.899776 486.920777 
L 659.972793 489.375511 
L 659.806739 493.90664 
L 659.26332 502.157836 
L 658.936427 509.660624 
L 658.891507 517.294547 
L 658.718891 531.46909 
L 658.214 545.027975 
L 657.565766 560.832512 
L 656.753329 583.02463 
L 656.339961 588.064917 
L 655.655556 593.519227 
L 654.468446 600.556116 
L 652.156811 613.398551 
L 651.291547 619.861556 
L 649.234125 638.426082 
L 648.434307 647.601089 
L 646.925519 667.744982 
L 646.194007 673.870238 
L 645.380897 678.768424 
L 644.318958 683.652939 
L 643.341982 687.317552 
L 641.802238 692.184677 
L 639.06916 700.732876 
L 637.737867 705.615399 
L 636.343652 711.714106 
L 633.851495 724.068422 
L 630.065227 743.787672 
L 627.744003 758.237589 
L 626.784523 762.500604 
L 625.826222 765.724514 
L 624.979295 768.01352 
L 624.005852 770.021909 
L 622.934492 771.745035 
L 621.870871 773.111616 
L 620.530493 774.50156 
L 618.889973 775.867742 
L 616.229911 777.578922 
L 613.042413 779.077449 
L 610.345675 780.049121 
L 607.354347 780.800309 
L 604.140939 781.277119 
L 600.804716 781.463224 
L 597.335246 781.374154 
L 592.500667 780.911016 
L 588.771601 780.357349 
L 583.681799 779.329128 
L 578.520664 778.018299 
L 567.883445 774.93191 
L 559.802652 772.666134 
L 551.91685 770.740708 
L 537.966962 767.482418 
L 534.443655 766.433091 
L 532.080034 765.52248 
L 530.640394 764.822265 
L 529.33131 764.022493 
L 528.14992 763.140687 
L 526.647862 761.697116 
L 525.833407 760.644603 
L 524.892602 758.967272 
L 524.425732 757.753345 
L 524.106411 756.480215 
L 523.839917 754.452312 
L 523.748393 751.526011 
L 523.889043 748.317898 
L 524.244537 744.805805 
L 526.962473 724.391782 
L 528.892368 711.938706 
L 532.15793 690.927078 
L 534.223932 678.628381 
L 536.250397 667.234456 
L 537.020269 661.956095 
L 538.812711 646.827733 
L 542.692017 612.94906 
L 543.46845 607.280158 
L 545.309177 595.873436 
L 547.197011 584.240561 
L 548.379074 575.276003 
L 549.599328 564.562793 
L 550.730918 552.235995 
L 551.927449 537.139956 
L 552.672758 524.409011 
L 553.483344 507.895697 
L 557.487653 486.057037 
L 558.166675 479.553469 
L 559.23181 455.41444 
L 559.642991 439.287843 
L 560.648064 412.96666 
L 561.443677 391.763963 
L 561.822051 378.930355 
L 561.980366 368.897475 
L 561.896919 358.795316 
L 561.637659 350.098778 
L 561.074051 339.896864 
L 559.901073 323.741742 
L 556.255791 278.70537 
L 550.768436 218.654795 
L 550.184134 213.930766 
L 549.214896 208.15356 
L 546.465667 194.142888 
L 546.130867 190.25394 
L 546.044391 187.486133 
L 546.203211 183.991827 
L 546.615738 180.777475 
L 547.374001 177.10357 
L 548.720267 171.42831 
L 548.952777 169.301515 
L 548.920643 167.86312 
L 548.632782 166.561849 
L 548.198551 165.336904 
L 547.59608 164.192002 
L 546.823011 163.162985 
L 545.350901 161.628087 
L 542.252739 159.073862 
L 540.158304 157.734228 
L 538.160103 156.777422 
L 536.451782 156.117428 
L 532.938569 155.17748 
L 525.469501 153.797625 
L 520.648717 153.212631 
L 512.14833 152.541884 
L 494.850274 151.424726 
L 475.08597 150.422788 
L 459.265072 149.865934 
L 434.050594 149.267665 
L 409.641605 148.80267 
L 358.743711 147.014765 
L 337.796537 146.430965 
L 309.253743 145.320576 
L 302.742135 145.427434 
L 297.898235 145.683626 
L 293.114616 146.161631 
L 288.352633 146.884147 
L 283.634796 147.86312 
L 278.954624 149.106782 
L 274.328672 150.633184 
L 271.292879 151.817377 
L 266.822989 153.826563 
L 262.433457 156.085171 
L 256.635688 159.410629 
L 231.237924 174.355408 
L 225.054235 177.538964 
L 206.750029 186.481407 
L 192.916934 193.266391 
L 187.474062 196.218445 
L 182.264675 199.282665 
L 179.409773 201.167206 
L 176.95076 203.007411 
L 175.446061 204.336028 
L 174.303955 205.583273 
L 173.054445 207.365736 
L 172.50295 208.426877 
L 171.891713 210.209339 
L 171.523551 212.260338 
L 171.454673 214.202622 
L 171.629627 215.879289 
L 172.144714 218.491389 
L 172.806962 220.724113 
L 173.749937 223.182233 
L 175.043847 225.832032 
L 176.734519 228.590415 
L 178.877071 231.458576 
L 182.240633 235.445222 
L 189.763202 244.205675 
L 196.886098 252.789582 
L 201.031006 258.071924 
L 206.081068 264.95912 
L 209.932867 270.616858 
L 214.457327 277.754007 
L 243.719604 325.625221 
L 245.891968 329.80713 
L 249.206485 336.797467 
L 254.818216 349.475766 
L 256.553974 353.70922 
L 258.677218 359.440921 
L 260.556566 365.210959 
L 262.231902 371.036323 
L 264.881066 381.201853 
L 267.596653 392.68376 
L 270.303515 405.418886 
L 272.184458 415.123376 
L 273.767007 424.642796 
L 275.636465 437.629681 
L 277.206214 450.047155 
L 279.445898 469.01282 
L 280.043355 470.699882 
L 280.176577 470.986904 
L 280.053503 471.011286 
L 280.044719 471.014931 
L 280.10976 471.098101 
L 281.917767 473.793599 
L 283.067504 474.898549 
L 284.576426 476.043346 
L 286.495166 477.157742 
L 288.894252 478.196497 
L 291.777318 479.113854 
L 295.100149 479.894136 
L 297.549707 480.302898 
L 301.540977 480.696671 
L 305.87625 480.851006 
L 313.87151 480.8057 
L 345.895904 480.237964 
L 446.539476 477.87449 
L 475.072006 477.607124 
L 494.393331 477.206064 
L 552.065407 475.71952 
L 595.693717 474.797801 
L 630.816424 474.130342 
L 646.450406 473.958158 
L 657.436557 473.798974 
L 696.912001 472.300055 
L 750.2342 470.684107 
L 768.932191 470.07756 
L 781.88912 469.98764 
L 794.057333 470.183849 
L 804.951288 470.573531 
L 814.377001 471.094063 
L 846.188217 473.114656 
L 867.741429 474.191182 
L 884.664308 474.81328 
L 888.311609 474.942075 
L 888.311609 474.942075 
" clip-path="url(#p3719f16103)" style="fill: none; stroke-dasharray: 14.8,6.4; stroke-dashoffset: 0; stroke: #808a87; stroke-width: 4"/>
   </g>
   <g id="line2d_23">
    <path d="M 265.386935 481.319728 
L 276.264386 481.220715 
L 291.286581 480.909044 
L 303.527296 480.65847 
L 324.036674 480.197035 
L 345.74388 479.670471 
L 422.765293 477.678253 
L 438.375969 476.879596 
L 442.259962 477.232341 
L 443.485177 477.48528 
L 445.623477 478.256362 
L 447.496347 479.344363 
L 448.298019 479.982795 
L 449.745767 481.616205 
L 450.351423 482.54517 
L 451.381354 483.52394 
L 451.557628 487.135047 
L 451.600538 489.787931 
L 451.618752 492.855075 
L 451.515693 498.271741 
L 450.153521 538.875552 
L 449.193802 553.482241 
L 448.128779 562.769759 
L 447.259629 568.672022 
L 446.411595 574.592323 
L 443.196872 593.522992 
L 442.432527 598.038133 
L 440.017872 613.95486 
L 439.058615 620.558032 
L 437.688138 628.990441 
L 436.180152 637.119968 
L 434.421341 644.959405 
L 432.845735 650.655191 
L 431.546497 654.358902 
L 430.113151 657.99404 
L 427.26652 664.97854 
L 425.413123 669.950559 
L 423.811473 674.753146 
L 422.983924 677.818718 
L 422.333535 680.820385 
L 421.978651 685.26912 
L 421.884527 689.728671 
L 421.265046 693.87172 
L 418.883828 701.516609 
L 418.454304 702.75098 
L 418.134039 704.074594 
L 414.814589 712.526214 
L 410.971067 722.193308 
L 410.2341 724.467624 
L 409.675243 726.507935 
L 409.707987 728.577839 
L 409.923372 730.624977 
L 410.461101 732.565817 
L 411.452743 734.379618 
L 413.186331 736.31183 
L 414.33154 737.320177 
L 416.983028 739.118038 
L 418.621131 740.014538 
L 422.566107 741.680986 
L 429.4518 743.950825 
L 437.356821 746.001588 
L 451.625183 750.029508 
L 485.93104 759.121404 
L 495.383748 761.313121 
L 507.072733 763.757173 
L 508.531957 763.947345 
L 511.459979 763.999785 
L 512.855152 763.845058 
L 516.649898 762.736713 
L 517.759808 762.341014 
L 519.719935 761.152237 
L 520.339955 760.506856 
L 521.555324 758.658966 
L 521.931644 757.754972 
L 522.842651 753.575302 
L 523.01655 752.368336 
L 523.085042 748.28911 
L 522.838723 737.30454 
L 523.070178 732.870085 
L 523.962239 725.971101 
L 525.046992 718.920428 
L 527.286733 704.744584 
L 529.195004 693.043499 
L 532.552666 674.291842 
L 534.291838 664.508911 
L 537.075483 643.958431 
L 541.580407 608.004187 
L 543.076752 597.761958 
L 544.721606 587.415942 
L 545.932201 579.626392 
L 547.159019 571.787664 
L 549.362487 553.230833 
L 550.680953 540.195713 
L 552.601059 513.777926 
L 552.821218 509.679231 
L 553.674746 500.166305 
L 554.621925 492.088309 
L 555.242715 488.202078 
L 555.799993 486.000066 
L 556.491123 484.065759 
L 556.929722 483.218378 
L 558.685606 480.834343 
L 559.274101 480.123839 
L 560.722927 478.875507 
L 562.647217 477.648122 
L 564.88891 476.587645 
L 567.45866 475.668108 
L 569.17139 475.285715 
L 572.872332 474.850554 
L 577.141668 474.720012 
L 592.199251 474.906776 
L 614.126392 474.625842 
L 635.827623 474.035924 
L 643.727895 473.680803 
L 646.557442 473.842262 
L 647.896625 474.02967 
L 650.474256 474.729561 
L 651.632506 475.205517 
L 653.693471 476.580722 
L 655.569446 478.044617 
L 656.467772 478.82101 
L 657.110742 479.797758 
L 658.779009 481.754193 
L 659.146934 483.042205 
L 660.202523 489.2062 
L 659.901781 490.827158 
L 659.940339 492.659154 
L 659.601423 496.458921 
L 658.819544 506.922766 
L 658.570479 513.391598 
L 658.2196 526.551534 
L 657.05678 549.656617 
L 656.306323 561.399787 
L 656.131115 565.184831 
L 656.005632 568.887534 
L 655.31078 581.07349 
L 655.10782 584.40519 
L 653.815205 595.03683 
L 653.555589 596.996922 
L 649.560091 617.771117 
L 647.473609 633.672562 
L 646.294642 644.208821 
L 645.574785 651.995485 
L 644.745799 662.072779 
L 643.983019 669.476616 
L 643.252201 674.400145 
L 641.967698 681.741151 
L 640.5811 686.626377 
L 638.244884 693.924788 
L 636.585294 698.767074 
L 635.028519 703.644442 
L 633.593863 708.485878 
L 632.581428 713.383602 
L 630.548855 722.356035 
L 629.106319 728.788003 
L 627.663063 735.026072 
L 625.654237 745.214383 
L 622.765158 761.487698 
L 621.002317 768.050067 
L 620.419187 769.651091 
L 618.92084 772.14345 
L 618.338635 773.068672 
L 616.613711 774.950003 
L 615.561844 775.858858 
L 613.022232 777.618904 
L 611.554999 778.406189 
L 606.206482 780.455919 
L 602.072049 781.358719 
L 599.906575 781.645426 
L 595.456203 781.851195 
L 590.805105 781.651138 
L 585.941421 781.06636 
L 578.324974 779.546254 
L 570.615673 777.365698 
L 565.343271 775.769271 
L 557.405519 773.307942 
L 552.120025 771.911755 
L 536.245367 768.158531 
L 532.642003 767.102767 
L 527.605318 765.468829 
L 526.098679 764.783709 
L 524.807758 763.958202 
L 522.052403 760.932451 
L 520.780043 758.679646 
L 520.258396 757.443837 
L 519.756928 754.631107 
L 520.008484 753.190035 
L 520.037595 750.142227 
L 521.245289 741.300903 
L 522.473853 732.910899 
L 524.073423 723.537683 
L 526.334498 711.062842 
L 527.685387 703.570654 
L 532.297465 679.057828 
L 533.898344 671.552373 
L 535.726673 661.127728 
L 536.9672 652.974665 
L 542.450443 613.564114 
L 543.859119 605.062049 
L 545.471627 596.548662 
L 547.187874 587.877874 
L 548.717309 579.056927 
L 550.892436 563.786887 
L 551.649722 557.629508 
L 554.371421 530.712625 
L 555.507132 515.272582 
L 555.758302 510.796916 
L 556.207683 506.586226 
L 556.509247 504.585336 
L 557.006557 502.629332 
L 557.792338 498.953099 
L 559.1546 493.837561 
L 560.260685 488.431423 
L 561.233792 481.696793 
L 562.076307 471.449106 
L 562.585708 464.6224 
L 563.987068 438.792411 
L 564.520959 430.669902 
L 567.672093 377.004767 
L 568.038093 368.410127 
L 568.254812 353.932871 
L 567.947575 336.395715 
L 563.675132 252.997371 
L 563.117726 244.74755 
L 561.6049 219.344038 
L 560.852107 212.26116 
L 559.743352 205.430272 
L 558.074469 194.672496 
L 557.80923 190.761163 
L 557.800527 187.065219 
L 558.122141 183.646302 
L 559.329013 177.657753 
L 561.000283 171.553548 
L 561.269886 169.552795 
L 561.203833 167.797995 
L 561.0793 166.889079 
L 560.479946 165.320442 
L 559.123229 163.204884 
L 558.622249 162.555594 
L 555.27868 159.627027 
L 554.645979 159.037793 
L 553.063686 157.912514 
L 551.034194 156.990453 
L 549.922949 156.470673 
L 545.806615 155.225202 
L 542.214932 154.251794 
L 540.321859 153.849695 
L 530.505101 152.543804 
L 524.5322 152.051591 
L 499.135469 149.920254 
L 487.437755 149.126547 
L 475.691985 148.478352 
L 452.539796 147.360264 
L 426.3378 146.347278 
L 397.111345 144.542834 
L 382.793579 143.713945 
L 351.516255 142.120617 
L 328.329602 140.473047 
L 321.804364 140.345158 
L 315.423178 140.437601 
L 309.013257 140.825077 
L 299.622054 142.032266 
L 296.474042 142.667093 
L 290.273634 144.481806 
L 287.277025 145.537935 
L 281.24183 148.154234 
L 275.34839 151.232282 
L 251.284727 164.965091 
L 245.167529 168.15997 
L 204.533503 187.253124 
L 198.804982 190.346141 
L 195.676375 192.226864 
L 191.739203 194.927768 
L 189.697036 196.674465 
L 188.503468 198.107901 
L 187.941203 198.781982 
L 186.474503 201.417199 
L 185.84338 203.811687 
L 185.710947 205.748719 
L 185.879712 208.031015 
L 186.289135 210.878017 
L 187.203024 214.055598 
L 188.580207 217.67123 
L 189.540093 219.506684 
L 193.652967 225.327969 
L 210.284397 246.32595 
L 214.20889 251.750158 
L 219.858651 260.215491 
L 223.397439 265.994078 
L 226.74368 271.786722 
L 233.339232 283.310578 
L 238.266592 292.008719 
L 246.354175 306.334489 
L 251.178413 314.694527 
L 254.096997 320.233479 
L 256.711612 325.881402 
L 263.716263 342.924775 
L 266.750798 351.459886 
L 270.058043 363.176021 
L 274.366212 383.574113 
L 276.426309 395.029366 
L 278.691517 409.047125 
L 280.639105 425.256758 
L 281.857558 437.615706 
L 283.139954 452.946969 
L 284.048987 463.861279 
L 285.117478 466.403782 
L 285.912963 467.666403 
L 287.313274 469.083012 
L 288.198389 469.900826 
L 290.427659 471.473436 
L 291.928018 472.244413 
L 295.481233 473.673047 
L 297.456875 474.314516 
L 302.251224 475.335907 
L 304.868867 475.667765 
L 307.669388 475.88273 
L 317.096275 476.104614 
L 347.16235 476.41686 
L 406.317363 476.430355 
L 437.488516 476.352717 
L 447.58571 476.50309 
L 468.32142 476.905976 
L 513.723749 477.090043 
L 538.686605 477.018738 
L 584.194008 477.24974 
L 599.231259 477.289059 
L 620.957751 477.404846 
L 646.202532 477.764555 
L 655.449098 477.952765 
L 665.171743 477.89609 
L 671.93918 477.785212 
L 693.969829 477.642277 
L 758.607327 477.341696 
L 767.89027 477.313547 
L 783.925965 477.597676 
L 794.279053 478.068567 
L 801.417547 478.49494 
L 812.501453 479.360026 
L 855.443932 483.253735 
L 874.450444 484.690705 
L 881.78702 485.157249 
L 881.78702 485.157249 
" clip-path="url(#p3719f16103)" style="fill: none; stroke: #00ff00; stroke-width: 2; stroke-linecap: square"/>
   </g>
   <g id="line2d_24">
    <path d="M 265.387233 481.319763 
L 277.363821 481.178022 
L 308.436904 480.539636 
L 347.493115 479.623273 
L 383.902899 478.792794 
L 408.935735 478.161883 
L 421.271952 477.726927 
L 432.788501 477.049454 
L 436.202524 476.917162 
L 439.055021 476.950242 
L 441.655461 477.238623 
L 444.055997 477.82473 
L 445.172364 478.232726 
L 447.104111 479.263229 
L 447.991218 479.878626 
L 448.773251 480.560521 
L 450.066893 482.246726 
L 450.557091 483.200948 
L 450.950251 484.224857 
L 451.372266 486.470612 
L 451.639738 489.067052 
L 451.248645 507.650918 
L 450.45162 533.837437 
L 449.211221 554.410091 
L 448.342045 561.840714 
L 444.723009 585.928801 
L 442.456234 599.196285 
L 440.099456 615.105761 
L 439.136644 621.692821 
L 437.78053 630.07447 
L 436.245691 638.166627 
L 434.992662 644.056576 
L 433.532001 649.796162 
L 432.284337 653.504552 
L 428.717811 662.478767 
L 426.737942 667.562229 
L 424.520021 674.054293 
L 423.581251 677.134225 
L 422.849444 680.175734 
L 422.597747 681.635501 
L 422.4072 684.642293 
L 422.35551 689.06097 
L 421.808077 693.24066 
L 420.821172 697.191125 
L 418.452456 704.807131 
L 416.888993 708.985261 
L 411.48179 722.906238 
L 410.87123 725.076505 
L 410.52967 727.159412 
L 410.568793 729.218824 
L 410.881666 731.174673 
L 411.590483 733.129226 
L 412.845721 735.071038 
L 413.637766 736.030733 
L 414.671085 737.000859 
L 415.885697 737.961851 
L 417.267777 738.878524 
L 418.825271 739.756349 
L 420.576637 740.608289 
L 424.560903 742.214924 
L 429.113063 743.760835 
L 436.832351 745.871046 
L 474.354355 756.103128 
L 485.581803 758.968703 
L 497.354991 761.692434 
L 507.252255 763.724684 
L 510.174193 764.050767 
L 511.600608 764.093099 
L 514.316147 763.850203 
L 515.627682 763.592258 
L 516.87781 763.21175 
L 518.041477 762.735538 
L 520.029098 761.552047 
L 520.892022 760.846287 
L 521.619863 760.021793 
L 522.194059 759.16714 
L 523.006333 757.359374 
L 523.53029 755.396841 
L 523.848027 753.166802 
L 524.103407 750.629741 
L 524.086823 747.664329 
L 523.841557 738.521411 
L 524.007139 734.234533 
L 524.441733 729.633745 
L 525.430705 722.612806 
L 529.45136 696.6741 
L 532.198757 680.413364 
L 534.378556 668.372807 
L 535.178688 663.40008 
L 537.189234 647.956303 
L 542.489874 604.219234 
L 544.798185 588.78283 
L 547.767359 567.87313 
L 549.53957 551.949106 
L 550.520172 541.524041 
L 551.844286 524.003352 
L 552.440688 512.719603 
L 552.977969 504.798804 
L 553.999825 494.287558 
L 554.768663 488.826484 
L 555.296497 486.505979 
L 555.924038 484.484226 
L 556.69878 482.742467 
L 557.697687 481.131078 
L 558.939909 479.698084 
L 560.433044 478.402572 
L 562.402721 477.241016 
L 564.83595 476.215456 
L 567.87133 475.358946 
L 571.464708 474.863169 
L 575.585073 474.715508 
L 582.539938 474.771205 
L 593.068182 474.782409 
L 612.351229 474.514488 
L 627.977591 474.111638 
L 644.101648 473.664539 
L 646.934352 473.926624 
L 649.555753 474.540193 
L 651.905112 475.444912 
L 652.967967 475.982414 
L 654.950197 477.366156 
L 655.874604 478.139136 
L 656.650938 479.067665 
L 658.012559 481.18335 
L 658.488535 482.370492 
L 659.162902 485.074572 
L 659.535961 488.140895 
L 659.567409 491.533547 
L 659.237067 497.260649 
L 658.503861 509.95337 
L 658.229791 523.109019 
L 657.985167 531.819628 
L 657.286027 546.440911 
L 656.119203 571.471658 
L 655.313783 586.783535 
L 654.962237 590.26268 
L 654.487159 593.960477 
L 653.478163 599.94144 
L 650.885617 613.833989 
L 649.813521 621.601623 
L 647.403114 642.785321 
L 646.584294 653.175715 
L 645.573296 665.686913 
L 645.056759 670.613379 
L 644.381956 675.513655 
L 643.484888 680.43291 
L 642.350179 685.331667 
L 640.915677 690.204944 
L 637.685603 699.958019 
L 636.267532 704.828318 
L 635.028596 709.698718 
L 632.512962 721.287288 
L 630.195871 731.907737 
L 628.880588 738.115484 
L 627.444033 746.214629 
L 625.172664 759.876323 
L 624.098796 764.58278 
L 622.896135 768.494559 
L 622.216172 770.110491 
L 621.244297 771.822391 
L 620.652234 772.746376 
L 619.041317 774.629733 
L 616.956272 776.461784 
L 615.71328 777.374691 
L 614.320649 778.224038 
L 611.109392 779.78121 
L 609.335025 780.445407 
L 607.426651 781.039239 
L 603.281001 781.895351 
L 601.089675 782.120949 
L 598.79112 782.231723 
L 596.507582 782.219368 
L 591.755236 781.852228 
L 586.817258 781.154914 
L 581.715752 780.134819 
L 576.600332 778.826194 
L 555.355156 772.71251 
L 547.705772 770.895103 
L 537.124336 768.427414 
L 533.536683 767.415786 
L 530.277112 766.246575 
L 528.819994 765.574276 
L 527.479553 764.815347 
L 526.280074 763.951599 
L 525.256112 763.021334 
L 524.343103 762.037252 
L 523.570568 760.972637 
L 522.919563 759.845252 
L 522.419173 758.643451 
L 522.052865 757.371406 
L 521.813914 756.005479 
L 521.627102 753.152583 
L 521.697596 750.037448 
L 522.002343 746.604109 
L 524.502344 727.725758 
L 531.749454 683.255221 
L 534.940276 665.559652 
L 536.001513 657.513574 
L 538.014626 640.683292 
L 541.828035 609.603855 
L 543.200514 601.06917 
L 546.161627 583.693576 
L 547.779912 571.656838 
L 548.830162 562.411015 
L 549.999707 550.110548 
L 551.410745 532.22511 
L 552.062341 521.426809 
L 552.818343 507.706588 
L 553.389202 503.675288 
L 554.161274 499.89365 
L 556.036557 491.635465 
L 556.670516 487.889915 
L 557.18767 484.106587 
L 557.580214 479.765786 
L 558.772735 457.385171 
L 559.369702 440.121403 
L 560.283918 418.075532 
L 561.777336 375.570662 
L 561.892473 364.051881 
L 561.711026 352.458754 
L 561.24365 340.788446 
L 560.305482 326.080933 
L 558.7408 305.199529 
L 557.321855 287.065807 
L 556.3813 275.030496 
L 554.051425 246.194516 
L 551.533019 218.293804 
L 550.923011 213.58206 
L 549.703765 206.729823 
L 547.641799 195.953149 
L 547.211184 191.989619 
L 547.058849 188.248508 
L 547.192264 184.762466 
L 547.571305 181.545692 
L 548.15197 178.596525 
L 549.794514 171.167309 
L 549.905364 169.189119 
L 549.823343 168.296974 
L 549.376453 166.611426 
L 548.68599 165.081131 
L 547.716221 163.728654 
L 546.617555 162.482049 
L 544.050885 160.169148 
L 542.534491 159.042472 
L 540.769006 157.974838 
L 538.705628 157.019093 
L 536.158341 156.194964 
L 533.08227 155.461171 
L 527.248483 154.336885 
L 522.443201 153.712914 
L 513.948838 152.998647 
L 496.642785 151.844667 
L 476.926569 150.776204 
L 457.238875 150.062747 
L 434.051683 149.494295 
L 411.542465 149.017009 
L 389.412505 148.10783 
L 367.739969 147.256053 
L 332.938438 146.128546 
L 313.012598 145.253901 
L 306.493746 145.267573 
L 300.054989 145.527382 
L 293.691908 146.151961 
L 287.355497 147.225083 
L 284.22838 147.929688 
L 278.020648 149.710434 
L 274.945292 150.791192 
L 271.930008 151.998625 
L 268.945436 153.326897 
L 265.985667 154.770298 
L 260.165271 157.959789 
L 251.321082 163.163159 
L 236.236349 172.021517 
L 230.102458 175.294943 
L 217.733828 181.380128 
L 194.846535 192.457526 
L 188.44968 195.926554 
L 183.418367 198.876633 
L 180.628939 200.737628 
L 178.257444 202.527246 
L 176.445801 204.206677 
L 175.262438 205.678738 
L 174.366815 207.038122 
L 173.721707 208.432345 
L 173.278616 209.897054 
L 172.994894 211.6047 
L 172.928244 213.619288 
L 173.220508 216.013533 
L 173.847427 218.824967 
L 174.957043 222.081785 
L 175.733742 223.859877 
L 176.692556 225.675238 
L 177.812061 227.528233 
L 179.141932 229.449831 
L 182.308925 233.415994 
L 193.591606 246.829364 
L 197.698454 251.866198 
L 201.815224 257.164685 
L 207.778287 265.473832 
L 211.535052 271.161009 
L 215.108733 276.901659 
L 234.006478 308.304213 
L 242.438625 322.15609 
L 245.420758 327.706253 
L 248.08673 333.296987 
L 251.863681 341.714862 
L 256.628566 353.018112 
L 258.697865 358.736299 
L 260.540021 364.547912 
L 262.172293 370.388297 
L 265.699878 384.926753 
L 268.181433 396.369887 
L 271.392838 413.186897 
L 273.125674 424.091501 
L 274.887743 437.098812 
L 276.437904 450.501069 
L 277.6534 461.922007 
L 278.350571 468.221422 
L 279.28759 471.143445 
L 280.114946 472.680352 
L 281.340885 474.119944 
L 282.155468 474.883222 
L 284.335681 476.442387 
L 285.737581 477.215195 
L 287.308566 477.904013 
L 289.117152 478.557836 
L 291.178674 479.180475 
L 293.390023 479.728155 
L 295.80318 480.177801 
L 298.400052 480.489831 
L 301.170986 480.709268 
L 307.198017 480.830241 
L 328.78535 480.603985 
L 348.058596 480.181288 
L 381.75139 479.321943 
L 403.379509 478.741993 
L 434.618075 477.882651 
L 451.477109 477.753619 
L 465.683448 477.643604 
L 484.692515 477.391924 
L 536.775844 476.18907 
L 551.013298 476.096563 
L 572.173115 475.725824 
L 590.92322 475.332684 
L 632.92422 474.666849 
L 648.486942 474.63922 
L 654.745851 474.595841 
L 661.239911 474.384688 
L 667.939087 474.077349 
L 686.068043 473.515873 
L 774.201728 471.176975 
L 784.186737 471.195806 
L 794.670544 471.429206 
L 801.935548 471.707933 
L 813.190221 472.338221 
L 864.339799 475.619477 
L 875.706349 476.128863 
L 883.125844 476.433066 
L 883.125844 476.433066 
" clip-path="url(#p3719f16103)" style="fill: none; stroke: #0000ff; stroke-width: 2; stroke-linecap: square"/>
   </g>
   <g id="patch_3">
    <path d="M 135 813.1752 
L 135 109.6416 
" style="fill: none; stroke: #000000; stroke-width: 3; stroke-linejoin: miter; stroke-linecap: square"/>
   </g>
   <g id="patch_4">
    <path d="M 972 813.1752 
L 972 109.6416 
" style="fill: none; stroke: #000000; stroke-width: 3; stroke-linejoin: miter; stroke-linecap: square"/>
   </g>
   <g id="patch_5">
    <path d="M 135 813.1752 
L 972 813.1752 
" style="fill: none; stroke: #000000; stroke-width: 3; stroke-linejoin: miter; stroke-linecap: square"/>
   </g>
   <g id="patch_6">
    <path d="M 135 109.6416 
L 972 109.6416 
" style="fill: none; stroke: #000000; stroke-width: 3; stroke-linejoin: miter; stroke-linecap: square"/>
   </g>
   <g id="PathCollection_1">
    <defs>
     <path id="m98d2cd20c5" d="M 0 -8.660254 
L -1.944348 -2.676166 
L -8.236391 -2.676166 
L -3.146021 1.022204 
L -5.09037 7.006293 
L -0 3.307923 
L 5.09037 7.006293 
L 3.146021 1.022204 
L 8.236391 -2.676166 
L 1.944348 -2.676166 
z
" style="stroke: #ff0000"/>
    </defs>
    <g clip-path="url(#p3719f16103)">
     <use xlink:href="#m98d2cd20c5" x="265.386935" y="481.319728" style="fill: #ff0000; stroke: #ff0000"/>
    </g>
   </g>
   <g id="PathCollection_2">
    <g clip-path="url(#p3719f16103)">
     <use xlink:href="#m98d2cd20c5" x="265.386935" y="481.319728" style="fill: #ff0000; stroke: #ff0000"/>
    </g>
   </g>
   <g id="PathCollection_3">
    <g clip-path="url(#p3719f16103)">
     <use xlink:href="#m98d2cd20c5" x="265.387233" y="481.319763" style="fill: #ff0000; stroke: #ff0000"/>
    </g>
   </g>
   <g id="text_13">
    <!-- kitti05 -->
    <g transform="translate(481.696875 100.283006) scale(0.45 -0.45)">
     <defs>
      <path id="DejaVuSans-6b" d="M 581 4863 
L 1159 4863 
L 1159 1991 
L 2875 3500 
L 3609 3500 
L 1753 1863 
L 3688 0 
L 2938 0 
L 1159 1709 
L 1159 0 
L 581 0 
L 581 4863 
z
" transform="scale(0.015625)"/>
      <path id="DejaVuSans-69" d="M 603 3500 
L 1178 3500 
L 1178 0 
L 603 0 
L 603 3500 
z
M 603 4863 
L 1178 4863 
L 1178 4134 
L 603 4134 
L 603 4863 
z
" transform="scale(0.015625)"/>
      <path id="DejaVuSans-74" d="M 1172 4494 
L 1172 3500 
L 2356 3500 
L 2356 3053 
L 1172 3053 
L 1172 1153 
Q 1172 725 1289 603 
Q 1406 481 1766 481 
L 2356 481 
L 2356 0 
L 1766 0 
Q 1100 0 847 248 
Q 594 497 594 1153 
L 594 3053 
L 172 3053 
L 172 3500 
L 594 3500 
L 594 4494 
L 1172 4494 
z
" transform="scale(0.015625)"/>
      <path id="DejaVuSans-35" d="M 691 4666 
L 3169 4666 
L 3169 4134 
L 1269 4134 
L 1269 2991 
Q 1406 3038 1543 3061 
Q 1681 3084 1819 3084 
Q 2600 3084 3056 2656 
Q 3513 2228 3513 1497 
Q 3513 744 3044 326 
Q 2575 -91 1722 -91 
Q 1428 -91 1123 -41 
Q 819 9 494 109 
L 494 744 
Q 775 591 1075 516 
Q 1375 441 1709 441 
Q 2250 441 2565 725 
Q 2881 1009 2881 1497 
Q 2881 1984 2565 2268 
Q 2250 2553 1709 2553 
Q 1456 2553 1204 2497 
Q 953 2441 691 2322 
L 691 4666 
z
" transform="scale(0.015625)"/>
     </defs>
     <use xlink:href="#DejaVuSans-6b"/>
     <use xlink:href="#DejaVuSans-69" x="57.910156"/>
     <use xlink:href="#DejaVuSans-74" x="85.693359"/>
     <use xlink:href="#DejaVuSans-74" x="124.902344"/>
     <use xlink:href="#DejaVuSans-69" x="164.111328"/>
     <use xlink:href="#DejaVuSans-30" x="191.894531"/>
     <use xlink:href="#DejaVuSans-35" x="255.517578"/>
    </g>
   </g>
   <g id="legend_1">
    <g id="patch_7">
     <path d="M 749.76875 243.0666 
L 958 243.0666 
Q 962 243.0666 962 239.0666 
L 962 123.6416 
Q 962 119.6416 958 119.6416 
L 749.76875 119.6416 
Q 745.76875 119.6416 745.76875 123.6416 
L 745.76875 239.0666 
Q 745.76875 243.0666 749.76875 243.0666 
z
" style="fill: #ffffff; opacity: 0.8; stroke: #cccccc; stroke-linejoin: miter"/>
    </g>
    <g id="line2d_25">
     <defs>
      <path id="ma54aded4d5" d="M 0 -9 
L -2.020626 -2.781153 
L -8.559509 -2.781153 
L -3.269441 1.062306 
L -5.290067 7.281153 
L -0 3.437694 
L 5.290067 7.281153 
L 3.269441 1.062306 
L 8.559509 -2.781153 
L 2.020626 -2.781153 
z
" style="stroke: #ff0000; stroke-linejoin: bevel"/>
     </defs>
     <g>
      <use xlink:href="#ma54aded4d5" x="783.76875" y="135.838475" style="fill: #ff0000; stroke: #ff0000; stroke-linejoin: bevel"/>
     </g>
    </g>
    <g id="text_14">
     <!-- Start -->
     <g transform="translate(829.76875 142.838475) scale(0.2 -0.2)">
      <defs>
       <path id="DejaVuSans-53" d="M 3425 4513 
L 3425 3897 
Q 3066 4069 2747 4153 
Q 2428 4238 2131 4238 
Q 1616 4238 1336 4038 
Q 1056 3838 1056 3469 
Q 1056 3159 1242 3001 
Q 1428 2844 1947 2747 
L 2328 2669 
Q 3034 2534 3370 2195 
Q 3706 1856 3706 1288 
Q 3706 609 3251 259 
Q 2797 -91 1919 -91 
Q 1588 -91 1214 -16 
Q 841 59 441 206 
L 441 856 
Q 825 641 1194 531 
Q 1563 422 1919 422 
Q 2459 422 2753 634 
Q 3047 847 3047 1241 
Q 3047 1584 2836 1778 
Q 2625 1972 2144 2069 
L 1759 2144 
Q 1053 2284 737 2584 
Q 422 2884 422 3419 
Q 422 4038 858 4394 
Q 1294 4750 2059 4750 
Q 2388 4750 2728 4690 
Q 3069 4631 3425 4513 
z
" transform="scale(0.015625)"/>
       <path id="DejaVuSans-61" d="M 2194 1759 
Q 1497 1759 1228 1600 
Q 959 1441 959 1056 
Q 959 750 1161 570 
Q 1363 391 1709 391 
Q 2188 391 2477 730 
Q 2766 1069 2766 1631 
L 2766 1759 
L 2194 1759 
z
M 3341 1997 
L 3341 0 
L 2766 0 
L 2766 531 
Q 2569 213 2275 61 
Q 1981 -91 1556 -91 
Q 1019 -91 701 211 
Q 384 513 384 1019 
Q 384 1609 779 1909 
Q 1175 2209 1959 2209 
L 2766 2209 
L 2766 2266 
Q 2766 2663 2505 2880 
Q 2244 3097 1772 3097 
Q 1472 3097 1187 3025 
Q 903 2953 641 2809 
L 641 3341 
Q 956 3463 1253 3523 
Q 1550 3584 1831 3584 
Q 2591 3584 2966 3190 
Q 3341 2797 3341 1997 
z
" transform="scale(0.015625)"/>
       <path id="DejaVuSans-72" d="M 2631 2963 
Q 2534 3019 2420 3045 
Q 2306 3072 2169 3072 
Q 1681 3072 1420 2755 
Q 1159 2438 1159 1844 
L 1159 0 
L 581 0 
L 581 3500 
L 1159 3500 
L 1159 2956 
Q 1341 3275 1631 3429 
Q 1922 3584 2338 3584 
Q 2397 3584 2469 3576 
Q 2541 3569 2628 3553 
L 2631 2963 
z
" transform="scale(0.015625)"/>
      </defs>
      <use xlink:href="#DejaVuSans-53"/>
      <use xlink:href="#DejaVuSans-74" x="63.476562"/>
      <use xlink:href="#DejaVuSans-61" x="102.685547"/>
      <use xlink:href="#DejaVuSans-72" x="163.964844"/>
      <use xlink:href="#DejaVuSans-74" x="205.078125"/>
     </g>
    </g>
    <g id="line2d_26">
     <path d="M 753.76875 165.194725 
L 783.76875 165.194725 
L 813.76875 165.194725 
" style="fill: none; stroke-dasharray: 14.8,6.4; stroke-dashoffset: 0; stroke: #808a87; stroke-width: 4"/>
    </g>
    <g id="text_15">
     <!-- GroundTruth -->
     <g transform="translate(829.76875 172.194725) scale(0.2 -0.2)">
      <defs>
       <path id="DejaVuSans-47" d="M 3809 666 
L 3809 1919 
L 2778 1919 
L 2778 2438 
L 4434 2438 
L 4434 434 
Q 4069 175 3628 42 
Q 3188 -91 2688 -91 
Q 1594 -91 976 548 
Q 359 1188 359 2328 
Q 359 3472 976 4111 
Q 1594 4750 2688 4750 
Q 3144 4750 3555 4637 
Q 3966 4525 4313 4306 
L 4313 3634 
Q 3963 3931 3569 4081 
Q 3175 4231 2741 4231 
Q 1884 4231 1454 3753 
Q 1025 3275 1025 2328 
Q 1025 1384 1454 906 
Q 1884 428 2741 428 
Q 3075 428 3337 486 
Q 3600 544 3809 666 
z
" transform="scale(0.015625)"/>
       <path id="DejaVuSans-6f" d="M 1959 3097 
Q 1497 3097 1228 2736 
Q 959 2375 959 1747 
Q 959 1119 1226 758 
Q 1494 397 1959 397 
Q 2419 397 2687 759 
Q 2956 1122 2956 1747 
Q 2956 2369 2687 2733 
Q 2419 3097 1959 3097 
z
M 1959 3584 
Q 2709 3584 3137 3096 
Q 3566 2609 3566 1747 
Q 3566 888 3137 398 
Q 2709 -91 1959 -91 
Q 1206 -91 779 398 
Q 353 888 353 1747 
Q 353 2609 779 3096 
Q 1206 3584 1959 3584 
z
" transform="scale(0.015625)"/>
       <path id="DejaVuSans-75" d="M 544 1381 
L 544 3500 
L 1119 3500 
L 1119 1403 
Q 1119 906 1312 657 
Q 1506 409 1894 409 
Q 2359 409 2629 706 
Q 2900 1003 2900 1516 
L 2900 3500 
L 3475 3500 
L 3475 0 
L 2900 0 
L 2900 538 
Q 2691 219 2414 64 
Q 2138 -91 1772 -91 
Q 1169 -91 856 284 
Q 544 659 544 1381 
z
M 1991 3584 
L 1991 3584 
z
" transform="scale(0.015625)"/>
       <path id="DejaVuSans-6e" d="M 3513 2113 
L 3513 0 
L 2938 0 
L 2938 2094 
Q 2938 2591 2744 2837 
Q 2550 3084 2163 3084 
Q 1697 3084 1428 2787 
Q 1159 2491 1159 1978 
L 1159 0 
L 581 0 
L 581 3500 
L 1159 3500 
L 1159 2956 
Q 1366 3272 1645 3428 
Q 1925 3584 2291 3584 
Q 2894 3584 3203 3211 
Q 3513 2838 3513 2113 
z
" transform="scale(0.015625)"/>
       <path id="DejaVuSans-64" d="M 2906 2969 
L 2906 4863 
L 3481 4863 
L 3481 0 
L 2906 0 
L 2906 525 
Q 2725 213 2448 61 
Q 2172 -91 1784 -91 
Q 1150 -91 751 415 
Q 353 922 353 1747 
Q 353 2572 751 3078 
Q 1150 3584 1784 3584 
Q 2172 3584 2448 3432 
Q 2725 3281 2906 2969 
z
M 947 1747 
Q 947 1113 1208 752 
Q 1469 391 1925 391 
Q 2381 391 2643 752 
Q 2906 1113 2906 1747 
Q 2906 2381 2643 2742 
Q 2381 3103 1925 3103 
Q 1469 3103 1208 2742 
Q 947 2381 947 1747 
z
" transform="scale(0.015625)"/>
       <path id="DejaVuSans-54" d="M -19 4666 
L 3928 4666 
L 3928 4134 
L 2272 4134 
L 2272 0 
L 1638 0 
L 1638 4134 
L -19 4134 
L -19 4666 
z
" transform="scale(0.015625)"/>
       <path id="DejaVuSans-68" d="M 3513 2113 
L 3513 0 
L 2938 0 
L 2938 2094 
Q 2938 2591 2744 2837 
Q 2550 3084 2163 3084 
Q 1697 3084 1428 2787 
Q 1159 2491 1159 1978 
L 1159 0 
L 581 0 
L 581 4863 
L 1159 4863 
L 1159 2956 
Q 1366 3272 1645 3428 
Q 1925 3584 2291 3584 
Q 2894 3584 3203 3211 
Q 3513 2838 3513 2113 
z
" transform="scale(0.015625)"/>
      </defs>
      <use xlink:href="#DejaVuSans-47"/>
      <use xlink:href="#DejaVuSans-72" x="77.490234"/>
      <use xlink:href="#DejaVuSans-6f" x="116.353516"/>
      <use xlink:href="#DejaVuSans-75" x="177.535156"/>
      <use xlink:href="#DejaVuSans-6e" x="240.914062"/>
      <use xlink:href="#DejaVuSans-64" x="304.292969"/>
      <use xlink:href="#DejaVuSans-54" x="367.769531"/>
      <use xlink:href="#DejaVuSans-72" x="414.103516"/>
      <use xlink:href="#DejaVuSans-75" x="455.216797"/>
      <use xlink:href="#DejaVuSans-74" x="518.595703"/>
      <use xlink:href="#DejaVuSans-68" x="557.804688"/>
     </g>
    </g>
    <g id="line2d_27">
     <path d="M 753.76875 194.550975 
L 783.76875 194.550975 
L 813.76875 194.550975 
" style="fill: none; stroke: #00ff00; stroke-width: 2; stroke-linecap: square"/>
    </g>
    <g id="text_16">
     <!-- ROLO -->
     <g transform="translate(829.76875 201.550975) scale(0.2 -0.2)">
      <defs>
       <path id="DejaVuSans-52" d="M 2841 2188 
Q 3044 2119 3236 1894 
Q 3428 1669 3622 1275 
L 4263 0 
L 3584 0 
L 2988 1197 
Q 2756 1666 2539 1819 
Q 2322 1972 1947 1972 
L 1259 1972 
L 1259 0 
L 628 0 
L 628 4666 
L 2053 4666 
Q 2853 4666 3247 4331 
Q 3641 3997 3641 3322 
Q 3641 2881 3436 2590 
Q 3231 2300 2841 2188 
z
M 1259 4147 
L 1259 2491 
L 2053 2491 
Q 2509 2491 2742 2702 
Q 2975 2913 2975 3322 
Q 2975 3731 2742 3939 
Q 2509 4147 2053 4147 
L 1259 4147 
z
" transform="scale(0.015625)"/>
       <path id="DejaVuSans-4f" d="M 2522 4238 
Q 1834 4238 1429 3725 
Q 1025 3213 1025 2328 
Q 1025 1447 1429 934 
Q 1834 422 2522 422 
Q 3209 422 3611 934 
Q 4013 1447 4013 2328 
Q 4013 3213 3611 3725 
Q 3209 4238 2522 4238 
z
M 2522 4750 
Q 3503 4750 4090 4092 
Q 4678 3434 4678 2328 
Q 4678 1225 4090 567 
Q 3503 -91 2522 -91 
Q 1538 -91 948 565 
Q 359 1222 359 2328 
Q 359 3434 948 4092 
Q 1538 4750 2522 4750 
z
" transform="scale(0.015625)"/>
       <path id="DejaVuSans-4c" d="M 628 4666 
L 1259 4666 
L 1259 531 
L 3531 531 
L 3531 0 
L 628 0 
L 628 4666 
z
" transform="scale(0.015625)"/>
      </defs>
      <use xlink:href="#DejaVuSans-52"/>
      <use xlink:href="#DejaVuSans-4f" x="69.482422"/>
      <use xlink:href="#DejaVuSans-4c" x="148.193359"/>
      <use xlink:href="#DejaVuSans-4f" x="200.28125"/>
     </g>
    </g>
    <g id="line2d_28">
     <path d="M 753.76875 223.907225 
L 783.76875 223.907225 
L 813.76875 223.907225 
" style="fill: none; stroke: #0000ff; stroke-width: 2; stroke-linecap: square"/>
    </g>
    <g id="text_17">
     <!-- ROLO+LC -->
     <g transform="translate(829.76875 230.907225) scale(0.2 -0.2)">
      <defs>
       <path id="DejaVuSans-2b" d="M 2944 4013 
L 2944 2272 
L 4684 2272 
L 4684 1741 
L 2944 1741 
L 2944 0 
L 2419 0 
L 2419 1741 
L 678 1741 
L 678 2272 
L 2419 2272 
L 2419 4013 
L 2944 4013 
z
" transform="scale(0.015625)"/>
       <path id="DejaVuSans-43" d="M 4122 4306 
L 4122 3641 
Q 3803 3938 3442 4084 
Q 3081 4231 2675 4231 
Q 1875 4231 1450 3742 
Q 1025 3253 1025 2328 
Q 1025 1406 1450 917 
Q 1875 428 2675 428 
Q 3081 428 3442 575 
Q 3803 722 4122 1019 
L 4122 359 
Q 3791 134 3420 21 
Q 3050 -91 2638 -91 
Q 1578 -91 968 557 
Q 359 1206 359 2328 
Q 359 3453 968 4101 
Q 1578 4750 2638 4750 
Q 3056 4750 3426 4639 
Q 3797 4528 4122 4306 
z
" transform="scale(0.015625)"/>
      </defs>
      <use xlink:href="#DejaVuSans-52"/>
      <use xlink:href="#DejaVuSans-4f" x="69.482422"/>
      <use xlink:href="#DejaVuSans-4c" x="148.193359"/>
      <use xlink:href="#DejaVuSans-4f" x="200.28125"/>
      <use xlink:href="#DejaVuSans-2b" x="278.992188"/>
      <use xlink:href="#DejaVuSans-4c" x="362.78125"/>
      <use xlink:href="#DejaVuSans-43" x="418.494141"/>
     </g>
    </g>
   </g>
  </g>
 </g>
 <defs>
  <clipPath id="p3719f16103">
   <rect x="135" y="109.6416" width="837" height="703.5336"/>
  </clipPath>
 </defs>
</svg>
