<?xml version="1.0" encoding="utf-8" standalone="no"?>
<!DOCTYPE svg PUBLIC "-//W3C//DTD SVG 1.1//EN"
  "http://www.w3.org/Graphics/SVG/1.1/DTD/svg11.dtd">
<svg xmlns:xlink="http://www.w3.org/1999/xlink" width="1080pt" height="913.68pt" viewBox="0 0 1080 913.68" xmlns="http://www.w3.org/2000/svg" version="1.1">
 <metadata>
  <rdf:RDF xmlns:dc="http://purl.org/dc/elements/1.1/" xmlns:cc="http://creativecommons.org/ns#" xmlns:rdf="http://www.w3.org/1999/02/22-rdf-syntax-ns#">
   <cc:Work>
    <dc:type rdf:resource="http://purl.org/dc/dcmitype/StillImage"/>
    <dc:date>2024-03-12T15:14:43.880359</dc:date>
    <dc:format>image/svg+xml</dc:format>
    <dc:creator>
     <cc:Agent>
      <dc:title>Matplotlib v3.7.0, https://matplotlib.org/</dc:title>
     </cc:Agent>
    </dc:creator>
   </cc:Work>
  </rdf:RDF>
 </metadata>
 <defs>
  <style type="text/css">*{stroke-linejoin: round; stroke-linecap: butt}</style>
 </defs>
 <g id="figure_1">
  <g id="patch_1">
   <path d="M 0 913.68 
L 1080 913.68 
L 1080 0 
L 0 0 
z
" style="fill: #ffffff"/>
  </g>
  <g id="axes_1">
   <g id="patch_2">
    <path d="M 135 813.1752 
L 972 813.1752 
L 972 109.6416 
L 135 109.6416 
z
" style="fill: #ffffff"/>
   </g>
   <g id="matplotlib.axis_1">
    <g id="xtick_1">
     <g id="line2d_1">
      <path d="M 197.48543 813.1752 
L 197.48543 109.6416 
" clip-path="url(#p98a15f3559)" style="fill: none; stroke: #b0b0b0; stroke-width: 0.8; stroke-linecap: square"/>
     </g>
     <g id="line2d_2">
      <defs>
       <path id="m4e0736b0a2" d="M 0 0 
L 0 -5 
" style="stroke: #000000; stroke-width: 0.8"/>
      </defs>
      <g>
       <use xlink:href="#m4e0736b0a2" x="197.48543" y="813.1752" style="stroke: #000000; stroke-width: 0.8"/>
      </g>
     </g>
     <g id="text_1">
      <!-- 0 -->
      <g transform="translate(187.94168 839.470512) scale(0.3 -0.3)">
       <defs>
        <path id="DejaVuSans-30" d="M 2034 4250 
Q 1547 4250 1301 3770 
Q 1056 3291 1056 2328 
Q 1056 1369 1301 889 
Q 1547 409 2034 409 
Q 2525 409 2770 889 
Q 3016 1369 3016 2328 
Q 3016 3291 2770 3770 
Q 2525 4250 2034 4250 
z
M 2034 4750 
Q 2819 4750 3233 4129 
Q 3647 3509 3647 2328 
Q 3647 1150 3233 529 
Q 2819 -91 2034 -91 
Q 1250 -91 836 529 
Q 422 1150 422 2328 
Q 422 3509 836 4129 
Q 1250 4750 2034 4750 
z
" transform="scale(0.015625)"/>
       </defs>
       <use xlink:href="#DejaVuSans-30"/>
      </g>
     </g>
    </g>
    <g id="xtick_2">
     <g id="line2d_3">
      <path d="M 335.659595 813.1752 
L 335.659595 109.6416 
" clip-path="url(#p98a15f3559)" style="fill: none; stroke: #b0b0b0; stroke-width: 0.8; stroke-linecap: square"/>
     </g>
     <g id="line2d_4">
      <g>
       <use xlink:href="#m4e0736b0a2" x="335.659595" y="813.1752" style="stroke: #000000; stroke-width: 0.8"/>
      </g>
     </g>
     <g id="text_2">
      <!-- 100 -->
      <g transform="translate(307.028345 839.470512) scale(0.3 -0.3)">
       <defs>
        <path id="DejaVuSans-31" d="M 794 531 
L 1825 531 
L 1825 4091 
L 703 3866 
L 703 4441 
L 1819 4666 
L 2450 4666 
L 2450 531 
L 3481 531 
L 3481 0 
L 794 0 
L 794 531 
z
" transform="scale(0.015625)"/>
       </defs>
       <use xlink:href="#DejaVuSans-31"/>
       <use xlink:href="#DejaVuSans-30" x="63.623047"/>
       <use xlink:href="#DejaVuSans-30" x="127.246094"/>
      </g>
     </g>
    </g>
    <g id="xtick_3">
     <g id="line2d_5">
      <path d="M 473.83376 813.1752 
L 473.83376 109.6416 
" clip-path="url(#p98a15f3559)" style="fill: none; stroke: #b0b0b0; stroke-width: 0.8; stroke-linecap: square"/>
     </g>
     <g id="line2d_6">
      <g>
       <use xlink:href="#m4e0736b0a2" x="473.83376" y="813.1752" style="stroke: #000000; stroke-width: 0.8"/>
      </g>
     </g>
     <g id="text_3">
      <!-- 200 -->
      <g transform="translate(445.20251 839.470512) scale(0.3 -0.3)">
       <defs>
        <path id="DejaVuSans-32" d="M 1228 531 
L 3431 531 
L 3431 0 
L 469 0 
L 469 531 
Q 828 903 1448 1529 
Q 2069 2156 2228 2338 
Q 2531 2678 2651 2914 
Q 2772 3150 2772 3378 
Q 2772 3750 2511 3984 
Q 2250 4219 1831 4219 
Q 1534 4219 1204 4116 
Q 875 4013 500 3803 
L 500 4441 
Q 881 4594 1212 4672 
Q 1544 4750 1819 4750 
Q 2544 4750 2975 4387 
Q 3406 4025 3406 3419 
Q 3406 3131 3298 2873 
Q 3191 2616 2906 2266 
Q 2828 2175 2409 1742 
Q 1991 1309 1228 531 
z
" transform="scale(0.015625)"/>
       </defs>
       <use xlink:href="#DejaVuSans-32"/>
       <use xlink:href="#DejaVuSans-30" x="63.623047"/>
       <use xlink:href="#DejaVuSans-30" x="127.246094"/>
      </g>
     </g>
    </g>
    <g id="xtick_4">
     <g id="line2d_7">
      <path d="M 612.007925 813.1752 
L 612.007925 109.6416 
" clip-path="url(#p98a15f3559)" style="fill: none; stroke: #b0b0b0; stroke-width: 0.8; stroke-linecap: square"/>
     </g>
     <g id="line2d_8">
      <g>
       <use xlink:href="#m4e0736b0a2" x="612.007925" y="813.1752" style="stroke: #000000; stroke-width: 0.8"/>
      </g>
     </g>
     <g id="text_4">
      <!-- 300 -->
      <g transform="translate(583.376675 839.470512) scale(0.3 -0.3)">
       <defs>
        <path id="DejaVuSans-33" d="M 2597 2516 
Q 3050 2419 3304 2112 
Q 3559 1806 3559 1356 
Q 3559 666 3084 287 
Q 2609 -91 1734 -91 
Q 1441 -91 1130 -33 
Q 819 25 488 141 
L 488 750 
Q 750 597 1062 519 
Q 1375 441 1716 441 
Q 2309 441 2620 675 
Q 2931 909 2931 1356 
Q 2931 1769 2642 2001 
Q 2353 2234 1838 2234 
L 1294 2234 
L 1294 2753 
L 1863 2753 
Q 2328 2753 2575 2939 
Q 2822 3125 2822 3475 
Q 2822 3834 2567 4026 
Q 2313 4219 1838 4219 
Q 1578 4219 1281 4162 
Q 984 4106 628 3988 
L 628 4550 
Q 988 4650 1302 4700 
Q 1616 4750 1894 4750 
Q 2613 4750 3031 4423 
Q 3450 4097 3450 3541 
Q 3450 3153 3228 2886 
Q 3006 2619 2597 2516 
z
" transform="scale(0.015625)"/>
       </defs>
       <use xlink:href="#DejaVuSans-33"/>
       <use xlink:href="#DejaVuSans-30" x="63.623047"/>
       <use xlink:href="#DejaVuSans-30" x="127.246094"/>
      </g>
     </g>
    </g>
    <g id="xtick_5">
     <g id="line2d_9">
      <path d="M 750.18209 813.1752 
L 750.18209 109.6416 
" clip-path="url(#p98a15f3559)" style="fill: none; stroke: #b0b0b0; stroke-width: 0.8; stroke-linecap: square"/>
     </g>
     <g id="line2d_10">
      <g>
       <use xlink:href="#m4e0736b0a2" x="750.18209" y="813.1752" style="stroke: #000000; stroke-width: 0.8"/>
      </g>
     </g>
     <g id="text_5">
      <!-- 400 -->
      <g transform="translate(721.55084 839.470512) scale(0.3 -0.3)">
       <defs>
        <path id="DejaVuSans-34" d="M 2419 4116 
L 825 1625 
L 2419 1625 
L 2419 4116 
z
M 2253 4666 
L 3047 4666 
L 3047 1625 
L 3713 1625 
L 3713 1100 
L 3047 1100 
L 3047 0 
L 2419 0 
L 2419 1100 
L 313 1100 
L 313 1709 
L 2253 4666 
z
" transform="scale(0.015625)"/>
       </defs>
       <use xlink:href="#DejaVuSans-34"/>
       <use xlink:href="#DejaVuSans-30" x="63.623047"/>
       <use xlink:href="#DejaVuSans-30" x="127.246094"/>
      </g>
     </g>
    </g>
    <g id="xtick_6">
     <g id="line2d_11">
      <path d="M 888.356255 813.1752 
L 888.356255 109.6416 
" clip-path="url(#p98a15f3559)" style="fill: none; stroke: #b0b0b0; stroke-width: 0.8; stroke-linecap: square"/>
     </g>
     <g id="line2d_12">
      <g>
       <use xlink:href="#m4e0736b0a2" x="888.356255" y="813.1752" style="stroke: #000000; stroke-width: 0.8"/>
      </g>
     </g>
     <g id="text_6">
      <!-- 500 -->
      <g transform="translate(859.725005 839.470512) scale(0.3 -0.3)">
       <defs>
        <path id="DejaVuSans-35" d="M 691 4666 
L 3169 4666 
L 3169 4134 
L 1269 4134 
L 1269 2991 
Q 1406 3038 1543 3061 
Q 1681 3084 1819 3084 
Q 2600 3084 3056 2656 
Q 3513 2228 3513 1497 
Q 3513 744 3044 326 
Q 2575 -91 1722 -91 
Q 1428 -91 1123 -41 
Q 819 9 494 109 
L 494 744 
Q 775 591 1075 516 
Q 1375 441 1709 441 
Q 2250 441 2565 725 
Q 2881 1009 2881 1497 
Q 2881 1984 2565 2268 
Q 2250 2553 1709 2553 
Q 1456 2553 1204 2497 
Q 953 2441 691 2322 
L 691 4666 
z
" transform="scale(0.015625)"/>
       </defs>
       <use xlink:href="#DejaVuSans-35"/>
       <use xlink:href="#DejaVuSans-30" x="63.623047"/>
       <use xlink:href="#DejaVuSans-30" x="127.246094"/>
      </g>
     </g>
    </g>
    <g id="text_7">
     <!-- X (m) -->
     <g transform="translate(511.221094 874.0127) scale(0.35 -0.35)">
      <defs>
       <path id="TimesNewRomanPSMT-58" d="M 2613 2347 
L 3522 991 
Q 3900 428 4083 279 
Q 4266 131 4547 116 
L 4547 0 
L 2728 0 
L 2728 116 
Q 2909 119 2997 153 
Q 3063 181 3105 239 
Q 3147 297 3147 356 
Q 3147 428 3119 500 
Q 3097 553 2947 775 
L 2228 1863 
L 1341 725 
Q 1200 544 1172 483 
Q 1144 422 1144 356 
Q 1144 256 1228 190 
Q 1313 125 1550 116 
L 1550 0 
L 47 0 
L 47 116 
Q 206 131 322 181 
Q 516 263 691 400 
Q 866 538 1091 822 
L 2091 2084 
L 1256 3306 
Q 916 3803 678 3958 
Q 441 4113 131 4122 
L 131 4238 
L 2091 4238 
L 2091 4122 
Q 1841 4113 1748 4041 
Q 1656 3969 1656 3881 
Q 1656 3766 1806 3544 
L 2456 2572 
L 3209 3525 
Q 3341 3694 3370 3756 
Q 3400 3819 3400 3884 
Q 3400 3950 3363 4000 
Q 3316 4066 3244 4092 
Q 3172 4119 2947 4122 
L 2947 4238 
L 4450 4238 
L 4450 4122 
Q 4272 4113 4159 4066 
Q 3991 3994 3850 3872 
Q 3709 3750 3453 3422 
L 2613 2347 
z
" transform="scale(0.015625)"/>
       <path id="TimesNewRomanPSMT-20" transform="scale(0.015625)"/>
       <path id="TimesNewRomanPSMT-28" d="M 1988 -1253 
L 1988 -1369 
Q 1516 -1131 1200 -813 
Q 750 -359 506 256 
Q 263 872 263 1534 
Q 263 2503 741 3301 
Q 1219 4100 1988 4444 
L 1988 4313 
Q 1603 4100 1356 3731 
Q 1109 3363 987 2797 
Q 866 2231 866 1616 
Q 866 947 969 400 
Q 1050 -31 1165 -292 
Q 1281 -553 1476 -793 
Q 1672 -1034 1988 -1253 
z
" transform="scale(0.015625)"/>
       <path id="TimesNewRomanPSMT-6d" d="M 1050 2338 
Q 1363 2650 1419 2697 
Q 1559 2816 1721 2881 
Q 1884 2947 2044 2947 
Q 2313 2947 2506 2790 
Q 2700 2634 2766 2338 
Q 3088 2713 3309 2830 
Q 3531 2947 3766 2947 
Q 3994 2947 4170 2830 
Q 4347 2713 4450 2447 
Q 4519 2266 4519 1878 
L 4519 647 
Q 4519 378 4559 278 
Q 4591 209 4675 161 
Q 4759 113 4950 113 
L 4950 0 
L 3538 0 
L 3538 113 
L 3597 113 
Q 3781 113 3884 184 
Q 3956 234 3988 344 
Q 4000 397 4000 647 
L 4000 1878 
Q 4000 2228 3916 2372 
Q 3794 2572 3525 2572 
Q 3359 2572 3192 2489 
Q 3025 2406 2788 2181 
L 2781 2147 
L 2788 2013 
L 2788 647 
Q 2788 353 2820 281 
Q 2853 209 2943 161 
Q 3034 113 3253 113 
L 3253 0 
L 1806 0 
L 1806 113 
Q 2044 113 2133 169 
Q 2222 225 2256 338 
Q 2272 391 2272 647 
L 2272 1878 
Q 2272 2228 2169 2381 
Q 2031 2581 1784 2581 
Q 1616 2581 1450 2491 
Q 1191 2353 1050 2181 
L 1050 647 
Q 1050 366 1089 281 
Q 1128 197 1204 155 
Q 1281 113 1516 113 
L 1516 0 
L 100 0 
L 100 113 
Q 297 113 375 155 
Q 453 197 493 289 
Q 534 381 534 647 
L 534 1741 
Q 534 2213 506 2350 
Q 484 2453 437 2492 
Q 391 2531 309 2531 
Q 222 2531 100 2484 
L 53 2597 
L 916 2947 
L 1050 2947 
L 1050 2338 
z
" transform="scale(0.015625)"/>
       <path id="TimesNewRomanPSMT-29" d="M 144 4313 
L 144 4444 
Q 619 4209 934 3891 
Q 1381 3434 1625 2820 
Q 1869 2206 1869 1541 
Q 1869 572 1392 -226 
Q 916 -1025 144 -1369 
L 144 -1253 
Q 528 -1038 776 -670 
Q 1025 -303 1145 264 
Q 1266 831 1266 1447 
Q 1266 2113 1163 2663 
Q 1084 3094 967 3353 
Q 850 3613 656 3853 
Q 463 4094 144 4313 
z
" transform="scale(0.015625)"/>
      </defs>
      <use xlink:href="#TimesNewRomanPSMT-58"/>
      <use xlink:href="#TimesNewRomanPSMT-20" x="72.216797"/>
      <use xlink:href="#TimesNewRomanPSMT-28" x="97.216797"/>
      <use xlink:href="#TimesNewRomanPSMT-6d" x="130.517578"/>
      <use xlink:href="#TimesNewRomanPSMT-29" x="208.300781"/>
     </g>
    </g>
   </g>
   <g id="matplotlib.axis_2">
    <g id="ytick_1">
     <g id="line2d_13">
      <path d="M 135 789.991214 
L 972 789.991214 
" clip-path="url(#p98a15f3559)" style="fill: none; stroke: #b0b0b0; stroke-width: 0.8; stroke-linecap: square"/>
     </g>
     <g id="line2d_14">
      <defs>
       <path id="m8af0d2414c" d="M 0 0 
L 5 0 
" style="stroke: #000000; stroke-width: 0.8"/>
      </defs>
      <g>
       <use xlink:href="#m8af0d2414c" x="135" y="789.991214" style="stroke: #000000; stroke-width: 0.8"/>
      </g>
     </g>
     <g id="text_8">
      <!-- −300 -->
      <g transform="translate(49.098438 801.388871) scale(0.3 -0.3)">
       <defs>
        <path id="DejaVuSans-2212" d="M 678 2272 
L 4684 2272 
L 4684 1741 
L 678 1741 
L 678 2272 
z
" transform="scale(0.015625)"/>
       </defs>
       <use xlink:href="#DejaVuSans-2212"/>
       <use xlink:href="#DejaVuSans-33" x="83.789062"/>
       <use xlink:href="#DejaVuSans-30" x="147.412109"/>
       <use xlink:href="#DejaVuSans-30" x="211.035156"/>
      </g>
     </g>
    </g>
    <g id="ytick_2">
     <g id="line2d_15">
      <path d="M 135 676.663278 
L 972 676.663278 
" clip-path="url(#p98a15f3559)" style="fill: none; stroke: #b0b0b0; stroke-width: 0.8; stroke-linecap: square"/>
     </g>
     <g id="line2d_16">
      <g>
       <use xlink:href="#m8af0d2414c" x="135" y="676.663278" style="stroke: #000000; stroke-width: 0.8"/>
      </g>
     </g>
     <g id="text_9">
      <!-- −200 -->
      <g transform="translate(49.098438 688.060935) scale(0.3 -0.3)">
       <use xlink:href="#DejaVuSans-2212"/>
       <use xlink:href="#DejaVuSans-32" x="83.789062"/>
       <use xlink:href="#DejaVuSans-30" x="147.412109"/>
       <use xlink:href="#DejaVuSans-30" x="211.035156"/>
      </g>
     </g>
    </g>
    <g id="ytick_3">
     <g id="line2d_17">
      <path d="M 135 563.335342 
L 972 563.335342 
" clip-path="url(#p98a15f3559)" style="fill: none; stroke: #b0b0b0; stroke-width: 0.8; stroke-linecap: square"/>
     </g>
     <g id="line2d_18">
      <g>
       <use xlink:href="#m8af0d2414c" x="135" y="563.335342" style="stroke: #000000; stroke-width: 0.8"/>
      </g>
     </g>
     <g id="text_10">
      <!-- −100 -->
      <g transform="translate(49.098438 574.732998) scale(0.3 -0.3)">
       <use xlink:href="#DejaVuSans-2212"/>
       <use xlink:href="#DejaVuSans-31" x="83.789062"/>
       <use xlink:href="#DejaVuSans-30" x="147.412109"/>
       <use xlink:href="#DejaVuSans-30" x="211.035156"/>
      </g>
     </g>
    </g>
    <g id="ytick_4">
     <g id="line2d_19">
      <path d="M 135 450.007406 
L 972 450.007406 
" clip-path="url(#p98a15f3559)" style="fill: none; stroke: #b0b0b0; stroke-width: 0.8; stroke-linecap: square"/>
     </g>
     <g id="line2d_20">
      <g>
       <use xlink:href="#m8af0d2414c" x="135" y="450.007406" style="stroke: #000000; stroke-width: 0.8"/>
      </g>
     </g>
     <g id="text_11">
      <!-- 0 -->
      <g transform="translate(112.4125 461.405062) scale(0.3 -0.3)">
       <use xlink:href="#DejaVuSans-30"/>
      </g>
     </g>
    </g>
    <g id="ytick_5">
     <g id="line2d_21">
      <path d="M 135 336.67947 
L 972 336.67947 
" clip-path="url(#p98a15f3559)" style="fill: none; stroke: #b0b0b0; stroke-width: 0.8; stroke-linecap: square"/>
     </g>
     <g id="line2d_22">
      <g>
       <use xlink:href="#m8af0d2414c" x="135" y="336.67947" style="stroke: #000000; stroke-width: 0.8"/>
      </g>
     </g>
     <g id="text_12">
      <!-- 100 -->
      <g transform="translate(74.2375 348.077126) scale(0.3 -0.3)">
       <use xlink:href="#DejaVuSans-31"/>
       <use xlink:href="#DejaVuSans-30" x="63.623047"/>
       <use xlink:href="#DejaVuSans-30" x="127.246094"/>
      </g>
     </g>
    </g>
    <g id="ytick_6">
     <g id="line2d_23">
      <path d="M 135 223.351534 
L 972 223.351534 
" clip-path="url(#p98a15f3559)" style="fill: none; stroke: #b0b0b0; stroke-width: 0.8; stroke-linecap: square"/>
     </g>
     <g id="line2d_24">
      <g>
       <use xlink:href="#m8af0d2414c" x="135" y="223.351534" style="stroke: #000000; stroke-width: 0.8"/>
      </g>
     </g>
     <g id="text_13">
      <!-- 200 -->
      <g transform="translate(74.2375 234.74919) scale(0.3 -0.3)">
       <use xlink:href="#DejaVuSans-32"/>
       <use xlink:href="#DejaVuSans-30" x="63.623047"/>
       <use xlink:href="#DejaVuSans-30" x="127.246094"/>
      </g>
     </g>
    </g>
    <g id="ytick_7">
     <g id="line2d_25">
      <path d="M 135 110.023597 
L 972 110.023597 
" clip-path="url(#p98a15f3559)" style="fill: none; stroke: #b0b0b0; stroke-width: 0.8; stroke-linecap: square"/>
     </g>
     <g id="line2d_26">
      <g>
       <use xlink:href="#m8af0d2414c" x="135" y="110.023597" style="stroke: #000000; stroke-width: 0.8"/>
      </g>
     </g>
     <g id="text_14">
      <!-- 300 -->
      <g transform="translate(74.2375 121.421254) scale(0.3 -0.3)">
       <use xlink:href="#DejaVuSans-33"/>
       <use xlink:href="#DejaVuSans-30" x="63.623047"/>
       <use xlink:href="#DejaVuSans-30" x="127.246094"/>
      </g>
     </g>
    </g>
    <g id="text_15">
     <!-- Y (m) -->
     <g transform="translate(37.611719 503.031056) rotate(-90) scale(0.35 -0.35)">
      <defs>
       <path id="TimesNewRomanPSMT-59" d="M 3050 4238 
L 4528 4238 
L 4528 4122 
L 4447 4122 
Q 4366 4122 4209 4050 
Q 4053 3978 3925 3843 
Q 3797 3709 3609 3406 
L 2588 1797 
L 2588 734 
Q 2588 344 2675 247 
Q 2794 116 3050 116 
L 3188 116 
L 3188 0 
L 1388 0 
L 1388 116 
L 1538 116 
Q 1806 116 1919 278 
Q 1988 378 1988 734 
L 1988 1738 
L 825 3513 
Q 619 3825 545 3903 
Q 472 3981 241 4091 
Q 178 4122 59 4122 
L 59 4238 
L 1872 4238 
L 1872 4122 
L 1778 4122 
Q 1631 4122 1507 4053 
Q 1384 3984 1384 3847 
Q 1384 3734 1575 3441 
L 2459 2075 
L 3291 3381 
Q 3478 3675 3478 3819 
Q 3478 3906 3433 3975 
Q 3388 4044 3303 4083 
Q 3219 4122 3050 4122 
L 3050 4238 
z
" transform="scale(0.015625)"/>
      </defs>
      <use xlink:href="#TimesNewRomanPSMT-59"/>
      <use xlink:href="#TimesNewRomanPSMT-20" x="68.466797"/>
      <use xlink:href="#TimesNewRomanPSMT-28" x="93.466797"/>
      <use xlink:href="#TimesNewRomanPSMT-6d" x="126.767578"/>
      <use xlink:href="#TimesNewRomanPSMT-29" x="204.550781"/>
     </g>
    </g>
   </g>
   <g id="line2d_27">
    <defs>
     <path id="m3afebc5ef0" d="M 0 -3 
L -0.673542 -0.927051 
L -2.85317 -0.927051 
L -1.089814 0.354102 
L -1.763356 2.427051 
L -0 1.145898 
L 1.763356 2.427051 
L 1.089814 0.354102 
L 2.85317 -0.927051 
L 0.673542 -0.927051 
z
" style="stroke: #ff0000; stroke-linejoin: bevel"/>
    </defs>
    <g clip-path="url(#p98a15f3559)">
     <use xlink:href="#m3afebc5ef0" x="197.48543" y="450.007406" style="fill: #ff0000; stroke: #ff0000; stroke-linejoin: bevel"/>
    </g>
   </g>
   <g id="line2d_28">
    <path d="M 197.48543 450.007406 
L 257.719722 447.21363 
L 299.976656 444.670234 
L 307.461426 444.159943 
L 311.556411 444.105889 
L 313.393243 444.307509 
L 315.096792 444.702596 
L 316.591574 445.326861 
L 317.437324 445.863706 
L 318.517722 446.814048 
L 319.089929 447.533908 
L 319.772385 448.686476 
L 320.112169 449.497405 
L 320.915721 452.546794 
L 321.294069 456.195167 
L 321.454655 462.150018 
L 321.573098 467.883392 
L 322.220417 477.037796 
L 322.674802 485.300037 
L 322.573977 489.797286 
L 322.289324 493.286869 
L 321.71825 497.450152 
L 320.727459 504.094648 
L 320.627807 505.953408 
L 320.725096 507.735988 
L 321.083506 509.463854 
L 321.497254 510.559157 
L 322.379123 512.04186 
L 323.143227 512.894766 
L 324.55889 513.979383 
L 325.662584 514.567985 
L 327.453708 515.21621 
L 330.028832 515.784935 
L 333.453575 516.405632 
L 338.817289 517.414624 
L 356.047331 520.950966 
L 377.881889 525.141969 
L 389.089887 527.423396 
L 401.208728 529.485988 
L 410.073153 530.529387 
L 414.606786 530.887707 
L 421.403435 531.223883 
L 431.714544 531.524938 
L 438.670784 531.5156 
L 463.295493 530.429726 
L 484.607338 529.335885 
L 489.930774 529.359072 
L 498.12312 529.31748 
L 506.542763 529.319169 
L 518.627337 529.17811 
L 524.863828 528.956236 
L 526.95012 528.685802 
L 528.870741 528.228807 
L 530.083219 527.804484 
L 531.657714 526.956009 
L 533.345649 525.566439 
L 534.065536 524.783977 
L 535.07255 523.127066 
L 535.420611 522.231832 
L 535.698064 521.253858 
L 535.931164 519.094326 
L 535.913063 516.74123 
L 535.359814 508.874594 
L 534.955102 504.470625 
L 534.246821 492.739903 
L 533.99562 487.793138 
L 533.605831 480.905361 
L 533.041942 469.625684 
L 532.607799 465.105634 
L 531.379293 454.670193 
L 530.941833 448.06142 
L 530.965599 445.063253 
L 531.159457 442.698519 
L 531.193034 442.456665 
L 531.346545 441.128185 
L 531.716023 439.750512 
L 532.352177 438.506808 
L 532.781069 437.84997 
L 533.655021 436.899704 
L 535.192209 435.786552 
L 536.751228 435.102233 
L 538.619342 434.591735 
L 540.741283 434.233336 
L 543.993074 433.98015 
L 551.612274 433.745176 
L 597.929221 432.344352 
L 679.790919 428.891454 
L 695.892217 428.156057 
L 705.029674 427.738591 
L 707.409172 427.350874 
L 709.099042 426.873661 
L 710.651152 426.214795 
L 711.658027 425.656258 
L 713.842146 423.809874 
L 715.070791 421.86953 
L 715.549426 420.761307 
L 715.849679 418.948763 
L 715.14955 412.82757 
L 713.935966 402.076239 
L 713.440059 394.106758 
L 712.673331 380.631319 
L 711.868743 371.471135 
L 711.285095 363.459292 
L 711.075209 356.569962 
L 711.145539 348.357426 
L 711.108232 343.949944 
L 710.840727 339.947847 
L 710.318981 335.305482 
L 708.43622 320.983097 
L 707.850638 314.024762 
L 707.654845 305.231874 
L 707.47439 293.970704 
L 707.072303 285.168636 
L 706.634705 278.673132 
L 704.170922 247.208991 
L 703.744793 245.422716 
L 703.350582 244.262351 
L 702.085736 242.164878 
L 701.313756 241.208957 
L 699.147738 239.670756 
L 698.567545 239.330093 
L 695.714663 238.394571 
L 694.218651 238.084619 
L 690.843747 237.880515 
L 686.346869 237.860456 
L 681.455365 238.11703 
L 671.55491 238.942964 
L 662.952739 239.717448 
L 650.107378 240.626678 
L 629.151608 241.696607 
L 613.589328 242.289198 
L 600.827286 242.699672 
L 557.925175 244.788306 
L 537.476642 245.929745 
L 518.455034 246.667397 
L 506.332876 246.969642 
L 504.539237 247.271774 
L 502.877279 247.78413 
L 500.816273 248.806235 
L 499.905429 249.424779 
L 498.578818 250.602709 
L 497.792607 251.561124 
L 496.814611 253.272035 
L 496.300188 254.546181 
L 495.797787 256.669267 
L 495.486757 259.772299 
L 495.267889 269.125934 
L 495.29055 276.701113 
L 495.467551 282.772657 
L 495.867289 289.934076 
L 496.834922 299.021957 
L 497.668803 307.41491 
L 497.967536 313.488608 
L 498.056244 320.928927 
L 498.184331 323.515297 
L 498.532806 325.428612 
L 499.121428 327.283564 
L 500.011408 329.030401 
L 501.183678 330.617332 
L 502.622209 332.015459 
L 504.302821 333.238834 
L 506.166653 334.209941 
L 507.473366 334.726036 
L 509.55344 335.278057 
L 513.197092 335.847416 
L 518.68993 336.810942 
L 520.569928 337.330482 
L 522.940996 338.551024 
L 523.686584 339.164219 
L 524.65629 340.573916 
L 525.45397 342.024979 
L 525.990224 343.722869 
L 526.481847 346.202586 
L 526.881171 349.839733 
L 527.189299 353.520522 
L 529.816819 393.388474 
L 530.412764 400.776889 
L 531.51194 409.788749 
L 532.332142 416.899431 
L 532.52904 420.201071 
L 532.432456 422.84508 
L 531.96294 425.252924 
L 531.295006 427.050147 
L 530.69312 428.100107 
L 529.460053 429.510768 
L 528.365438 430.402772 
L 526.969879 431.211231 
L 525.209263 431.897262 
L 523.169675 432.382997 
L 520.796395 432.739481 
L 517.164902 433.024727 
L 513.061958 433.161696 
L 492.51394 433.506881 
L 475.679767 434.269238 
L 449.584332 435.578606 
L 392.501545 437.844882 
L 361.623902 439.320145 
L 342.876294 440.063708 
L 336.782675 440.369023 
L 334.166927 440.755636 
L 331.851045 441.373497 
L 329.752981 442.234892 
L 327.911313 443.321241 
L 326.338228 444.61319 
L 325.481216 445.575686 
L 324.751698 446.639483 
L 324.179712 447.770459 
L 323.585743 449.512386 
L 323.106486 452.510185 
L 322.299963 464.684575 
L 322.251326 468.236907 
L 322.477296 472.053792 
L 323.390047 482.776983 
L 323.342128 486.598379 
L 322.948014 491.350933 
L 321.156669 508.371724 
L 320.454122 511.335306 
L 319.52048 514.21268 
L 318.004018 517.966781 
L 314.11939 526.558172 
L 311.716126 531.443807 
L 310.037946 534.361605 
L 305.043917 542.347484 
L 301.19245 548.25731 
L 298.404828 552.000407 
L 296.168189 554.658955 
L 292.984269 558.018607 
L 281.496773 569.464797 
L 276.79805 574.238623 
L 269.20053 581.787057 
L 264.640962 586.968297 
L 258.034427 594.307867 
L 243.725041 610.132413 
L 236.752041 617.883818 
L 226.743975 628.574948 
L 222.33166 633.045736 
L 221.486186 634.196467 
L 220.824732 635.388791 
L 220.090447 637.204418 
L 219.647419 639.134052 
L 219.485673 641.154689 
L 219.534904 643.976328 
L 219.517549 648.467854 
L 219.312485 652.394441 
L 218.946683 656.503258 
L 218.46194 661.637694 
L 217.719116 669.49744 
L 216.871445 676.765273 
L 215.420064 690.097739 
L 213.59318 708.826653 
L 211.362137 728.897031 
L 209.742467 745.212967 
L 207.450453 754.962456 
L 206.976811 756.734905 
L 206.847711 757.906942 
L 206.968565 759.062321 
L 207.350051 760.156615 
L 207.829565 761.019494 
L 208.274772 761.586021 
L 208.904772 762.178386 
L 215.348572 764.449024 
L 218.188245 765.390213 
L 221.722381 765.824599 
L 226.795901 766.199601 
L 246.701271 767.20278 
L 263.351908 768.184086 
L 283.11728 769.354651 
L 291.614438 769.951549 
L 320.937552 771.691473 
L 330.609468 772.472869 
L 337.435824 773.260838 
L 363.411047 776.607185 
L 371.398757 777.678021 
L 377.364427 778.725058 
L 382.268366 779.803373 
L 386.634532 780.761561 
L 389.575292 781.144836 
L 391.764386 781.194587 
L 393.246304 781.069586 
L 399.041052 777.334637 
L 403.33205 774.577935 
L 404.215674 773.239532 
L 409.698149 763.861192 
L 413.750106 757.606057 
L 419.54817 749.002427 
L 421.644549 746.182148 
L 424.637678 742.548287 
L 433.161918 732.582569 
L 436.836246 727.803983 
L 440.247213 722.923289 
L 443.473718 717.954425 
L 448.490684 710.153497 
L 460.400329 691.853302 
L 465.264613 684.116517 
L 467.175285 681.554852 
L 468.192247 680.485376 
L 469.395744 679.514269 
L 474.450984 674.621902 
L 477.424906 671.206425 
L 478.463838 669.813058 
L 489.896783 653.307864 
L 496.931782 642.962837 
L 501.696718 635.876894 
L 504.047752 631.983173 
L 504.964814 630.153153 
L 505.617825 628.264883 
L 506.000291 626.383073 
L 506.139985 624.470664 
L 506.016181 621.798505 
L 505.211869 614.119177 
L 504.525834 606.670018 
L 504.189933 600.352326 
L 503.617063 590.11462 
L 502.900215 580.918285 
L 501.98495 568.681248 
L 500.866292 553.933725 
L 500.118217 544.523007 
L 500.139772 542.434294 
L 500.438505 539.796337 
L 500.9474 537.900122 
L 501.736236 536.091941 
L 502.442721 534.964883 
L 503.418507 533.948377 
L 504.504279 533.016765 
L 505.705842 532.178376 
L 507.0167 531.424292 
L 509.344382 530.496782 
L 511.886925 529.814831 
L 514.620563 529.376116 
L 519.520633 529.011982 
L 524.661679 528.863364 
L 544.504318 528.310935 
L 571.30002 527.104775 
L 604.798273 525.346458 
L 623.097645 524.215151 
L 630.012848 523.584968 
L 638.188613 522.639269 
L 646.407627 521.748817 
L 654.716454 521.062979 
L 671.472282 520.402753 
L 689.926271 519.833269 
L 695.726684 519.767222 
L 710.128992 519.810343 
L 713.839797 519.54757 
L 728.936154 518.00121 
L 733.949251 517.793729 
L 740.638124 517.738164 
L 752.244892 517.633891 
L 761.120786 517.352691 
L 781.388172 516.449127 
L 799.574103 515.557021 
L 806.081139 514.898971 
L 810.805728 514.215445 
L 814.007638 513.74808 
L 816.177802 513.617912 
L 823.961152 517.65726 
L 824.344586 518.497711 
L 824.552123 518.94428 
L 824.8959 520.922532 
L 825.063644 522.622916 
L 825.415712 529.523862 
L 825.960532 537.240248 
L 828.029829 566.879673 
L 829.862294 593.462214 
L 830.448153 597.46881 
L 831.44356 602.402088 
L 832.682844 607.247311 
L 834.153431 611.967193 
L 835.511407 615.623492 
L 837.914256 620.991383 
L 839.644334 624.479957 
L 841.93167 628.733041 
L 844.442018 632.830979 
L 847.092198 636.732407 
L 849.847115 640.432337 
L 853.041149 644.258175 
L 856.384135 648.265337 
L 857.437713 649.836969 
L 858.083815 650.993934 
L 858.519616 652.20575 
L 858.775238 654.204175 
L 858.295912 656.802558 
L 856.970269 659.084189 
L 853.822247 662.018362 
L 850.10481 664.713074 
L 841.517009 670.325527 
L 820.652296 683.827644 
L 792.79514 702.490375 
L 780.546139 710.887295 
L 766.920093 720.174519 
L 755.12679 726.274169 
L 754.48359 726.489039 
L 752.188102 726.632059 
L 749.839003 726.257056 
L 748.558129 725.882848 
L 746.568835 724.936219 
L 745.293488 724.117765 
L 743.551802 722.710119 
L 741.938343 721.112308 
L 740.916821 719.926558 
L 739.543508 717.936633 
L 738.304086 715.715405 
L 737.251751 713.264575 
L 736.341045 710.580403 
L 735.521258 707.70754 
L 734.842408 704.620034 
L 733.936539 699.082491 
L 732.723231 690.686817 
L 731.660534 681.942094 
L 730.653382 671.760258 
L 729.871455 661.688238 
L 728.968072 645.876385 
L 728.462907 633.253126 
L 728.411921 626.29921 
L 728.268634 621.972916 
L 728.027106 619.651847 
L 727.618525 617.625997 
L 726.920884 615.908852 
L 725.865924 614.437968 
L 724.446184 613.244512 
L 722.764605 612.357721 
L 720.833897 611.782582 
L 718.685289 611.409733 
L 714.8037 611.146245 
L 710.497226 611.080175 
L 702.432553 611.10692 
L 691.489021 611.464243 
L 673.023287 612.258332 
L 653.926512 613.206094 
L 641.985224 613.804805 
L 624.717323 614.594134 
L 559.517356 617.753944 
L 525.153165 619.453636 
L 517.389711 619.892215 
L 515.554205 619.760642 
L 513.822192 619.463156 
L 512.21647 618.96474 
L 510.72336 618.309251 
L 509.284967 617.390048 
L 508.004507 616.263341 
L 506.925091 614.9025 
L 506.042987 613.276697 
L 505.36773 611.45903 
L 504.891996 609.482251 
L 504.46186 605.748322 
L 504.178879 600.511438 
L 504.024815 590.136266 
L 503.797518 581.061645 
L 503.560273 576.516741 
L 502.984087 569.877424 
L 501.721175 550.923519 
L 501.448558 547.467142 
L 501.029752 541.107835 
L 501.146923 539.540703 
L 501.479094 538.018675 
L 502.030133 536.557741 
L 503.072519 534.731711 
L 504.255704 533.451978 
L 505.703769 532.265015 
L 507.424314 531.239363 
L 509.442348 530.437104 
L 512.144343 529.607044 
L 514.895529 529.088036 
L 518.523706 528.807833 
L 525.278765 528.46445 
L 527.511383 528.179554 
L 530.246541 527.536192 
L 531.443129 527.057143 
L 532.553082 526.441093 
L 534.364131 524.901703 
L 535.143019 524.007375 
L 536.371387 521.495575 
L 536.583484 520.365571 
L 536.750122 518.625012 
L 536.704801 516.161036 
L 536.249656 509.416539 
L 535.070063 487.224414 
L 534.405721 477.442479 
L 533.823041 470.198194 
L 532.634052 458.863697 
L 531.450176 446.951494 
L 531.354974 443.902984 
L 531.50282 441.716264 
L 531.756232 440.433806 
L 532.216766 439.199474 
L 532.7591 438.316213 
L 533.230274 437.653947 
L 534.211587 436.647357 
L 535.017142 436.017888 
L 536.512463 435.161956 
L 538.403514 434.469251 
L 539.829472 434.114942 
L 542.277918 433.746649 
L 545.04527 433.588568 
L 598.972021 432.002509 
L 626.800713 431.017406 
L 676.572429 429.326406 
L 693.484532 428.651346 
L 708.332728 428.208834 
L 710.489765 427.943193 
L 712.513049 427.387909 
L 714.302128 426.505561 
L 716.127409 424.93045 
L 716.957421 423.942695 
L 717.156253 423.424027 
L 717.751508 422.318479 
L 717.928785 419.264257 
L 717.180019 415.232933 
L 715.711366 407.957948 
L 715.094695 404.153291 
L 714.513949 398.95019 
L 713.730225 389.733173 
L 712.749741 374.962134 
L 711.575675 355.597733 
L 711.483099 347.97108 
L 711.346997 341.020712 
L 710.94947 337.139513 
L 709.149199 323.432114 
L 708.49301 314.822364 
L 708.317943 309.573241 
L 708.258252 301.516078 
L 708.133342 292.213327 
L 707.22084 277.882897 
L 706.711254 271.477488 
L 704.005527 242.080222 
L 703.46347 227.072203 
L 703.487236 218.044273 
L 703.667692 209.08332 
L 704.015338 201.663853 
L 704.634082 194.855904 
L 705.515218 186.877844 
L 706.148609 183.557335 
L 706.985944 180.65478 
L 708.517743 175.881748 
L 709.098213 173.44803 
L 709.271068 171.133081 
L 709.212344 168.869128 
L 709.143257 165.464984 
L 709.33297 162.571382 
L 709.738373 159.955206 
L 710.199599 157.043132 
L 710.162292 155.592534 
L 709.925047 154.387178 
L 709.179459 152.698252 
L 708.668215 151.785055 
L 706.486168 149.605532 
L 705.943973 149.174773 
L 703.115271 147.739475 
L 701.439495 147.136457 
L 699.642402 146.57537 
L 695.582845 145.714531 
L 692.185971 145.221555 
L 688.485391 144.905483 
L 674.28689 143.933469 
L 659.888036 143.082376 
L 650.007478 142.726073 
L 638.591805 142.570701 
L 628.959684 142.712247 
L 619.476653 143.055064 
L 610.037561 143.636777 
L 600.519296 144.391881 
L 589.248153 145.508501 
L 577.808023 146.906968 
L 567.882696 148.346572 
L 557.853186 150.075843 
L 546.0556 152.432044 
L 536.06464 154.738721 
L 526.143735 157.237376 
L 516.294266 159.946707 
L 508.191319 162.370338 
L 493.851742 166.972925 
L 484.455346 170.187472 
L 476.72989 173.02543 
L 467.58055 176.570895 
L 458.683515 180.305957 
L 448.493309 184.804963 
L 441.350396 188.209334 
L 432.411632 192.553194 
L 425.089507 196.367585 
L 417.955437 200.325904 
L 409.609717 205.177359 
L 400.160401 210.928299 
L 393.599062 215.158604 
L 388.409241 218.642645 
L 379.474208 225.000228 
L 371.856805 230.70629 
L 364.347315 236.693178 
L 356.958728 242.930068 
L 352.077035 247.253075 
L 336.276543 261.808122 
L 330.171082 267.417515 
L 302.085912 292.770674 
L 224.50478 363.907016 
L 213.75168 373.79319 
L 184.609726 400.329493 
L 180.629965 404.263491 
L 177.926324 407.239902 
L 176.216433 409.476996 
L 175.242291 410.996304 
L 174.447196 412.543264 
L 173.834835 414.116879 
L 173.426904 415.70857 
L 173.192187 417.294436 
L 173.174321 418.875315 
L 173.360276 420.416847 
L 173.747067 421.917524 
L 174.327786 423.359872 
L 175.07662 424.738699 
L 175.958503 426.036372 
L 178.425948 429.066829 
L 182.138522 433.729457 
L 184.73029 437.377993 
L 187.189695 441.318919 
L 188.509288 443.343429 
L 189.685879 444.629151 
L 190.796119 445.56667 
L 192.277247 446.56487 
L 194.127513 447.51486 
L 195.858932 448.172286 
L 198.653611 448.935449 
L 200.277162 449.199567 
L 203.976087 449.451803 
L 208.11723 449.467243 
L 220.017906 449.116074 
L 232.216253 448.595831 
L 273.449137 446.303557 
L 298.010949 445.18977 
L 325.207466 443.922095 
L 331.461215 443.679252 
L 331.461215 443.679252 
" clip-path="url(#p98a15f3559)" style="fill: none; stroke-dasharray: 14.8,6.4; stroke-dashoffset: 0; stroke: #808a87; stroke-width: 4"/>
   </g>
   <g id="line2d_29">
    <path d="M 197.48543 450.007406 
L 205.810977 449.812327 
L 220.021343 449.178444 
L 238.259114 448.257017 
L 246.467925 447.849233 
L 278.833356 445.924837 
L 296.867909 444.538404 
L 305.111416 443.921125 
L 307.842968 443.819392 
L 310.367857 444.020585 
L 312.634155 444.52845 
L 313.642252 444.931421 
L 314.577166 445.462068 
L 316.030413 446.678019 
L 317.073414 448.140869 
L 317.463483 448.940049 
L 318.386949 452.343973 
L 318.682459 454.378174 
L 318.90836 457.922454 
L 319.37917 469.012668 
L 320.630709 485.668644 
L 320.604966 489.269671 
L 320.395383 492.765902 
L 319.804607 497.748161 
L 319.043517 503.619045 
L 318.951561 506.08356 
L 319.233808 508.433304 
L 319.587118 509.570405 
L 320.066931 510.622353 
L 320.64045 511.592673 
L 321.390481 512.462264 
L 322.307169 513.240334 
L 323.298051 513.912302 
L 324.366151 514.456047 
L 326.825259 515.240113 
L 330.804545 516.024642 
L 335.258225 516.806206 
L 340.301942 517.804993 
L 347.864393 519.3351 
L 363.235794 522.098407 
L 374.746147 524.316248 
L 383.798584 526.070906 
L 392.670438 527.59861 
L 399.24771 528.65626 
L 408.081529 529.675617 
L 412.645793 530.026965 
L 421.760615 530.452991 
L 430.891483 530.685757 
L 437.835043 530.611719 
L 456.597958 529.777608 
L 479.735468 528.466562 
L 485.121343 528.422959 
L 494.04656 528.464755 
L 513.135134 528.167956 
L 523.104353 527.805782 
L 525.844201 527.427068 
L 527.109603 527.103405 
L 528.300411 526.679567 
L 529.387234 526.146042 
L 530.327525 525.548994 
L 531.180424 524.874804 
L 532.575701 523.368923 
L 533.548735 521.696724 
L 533.867289 520.778412 
L 534.216182 518.712528 
L 534.255334 516.409413 
L 533.098092 496.32739 
L 532.759446 490.34365 
L 531.596574 474.866241 
L 531.050696 467.479661 
L 530.432374 462.129231 
L 529.45896 454.155179 
L 529.018459 448.965169 
L 528.881689 444.191455 
L 529.039226 440.587036 
L 529.158771 439.678959 
L 529.716645 437.944893 
L 530.461195 436.642308 
L 531.010025 435.956466 
L 532.413905 434.785002 
L 533.324088 434.245054 
L 534.427546 433.735604 
L 536.926998 433.061761 
L 539.972982 432.629209 
L 545.222129 432.365955 
L 587.954496 431.16476 
L 608.224707 430.25084 
L 636.757411 428.995241 
L 703.654529 426.186433 
L 705.999543 425.727249 
L 708.076625 424.968524 
L 709.06174 424.42061 
L 710.816537 423.092786 
L 711.610971 422.251596 
L 712.318413 421.273586 
L 712.818814 420.22285 
L 713.170448 419.138841 
L 713.353412 417.886129 
L 713.222946 415.290089 
L 712.312889 407.950997 
L 711.746117 402.870573 
L 711.299522 397.149355 
L 709.950165 376.417161 
L 708.82109 364.294845 
L 708.514027 358.311218 
L 708.445885 352.42327 
L 708.397814 341.339168 
L 708.061571 337.350271 
L 707.355183 331.909273 
L 706.021681 322.418966 
L 705.270089 314.76141 
L 705.074179 310.564415 
L 704.620964 288.184638 
L 704.271016 281.573156 
L 702.955309 264.607253 
L 701.782422 247.657312 
L 701.421764 245.139666 
L 701.138442 243.959421 
L 700.734731 242.797332 
L 700.225475 241.707664 
L 699.591109 240.703369 
L 698.782253 239.741043 
L 697.840613 238.894992 
L 696.794819 238.163711 
L 695.557965 237.526258 
L 694.151513 237.001259 
L 692.692478 236.611746 
L 691.158006 236.367715 
L 687.735067 236.152527 
L 684.111158 236.095531 
L 678.137174 236.360867 
L 671.535571 236.819515 
L 656.632977 238.011226 
L 641.176724 238.900595 
L 633.32064 239.212482 
L 567.492719 241.613628 
L 553.757613 242.324002 
L 542.690081 242.927354 
L 529.396279 243.499285 
L 511.548122 244.017817 
L 505.136293 244.10428 
L 502.590562 244.302659 
L 500.243545 244.795771 
L 498.157018 245.657351 
L 496.155837 246.899763 
L 495.179345 247.728764 
L 494.326931 248.680473 
L 493.579134 249.720563 
L 492.936208 250.904267 
L 492.414133 252.233245 
L 492.093618 253.617162 
L 491.749975 256.596015 
L 491.598236 261.497929 
L 491.67458 272.390767 
L 491.896928 280.460938 
L 492.3314 286.591361 
L 493.195685 294.672877 
L 493.817211 300.475728 
L 494.262604 305.731853 
L 494.416642 310.183903 
L 494.471692 320.972918 
L 494.959821 323.523825 
L 495.924506 325.894528 
L 496.594504 327.001142 
L 497.409242 328.044457 
L 499.334964 329.818431 
L 500.507155 330.610184 
L 501.725877 331.263658 
L 503.00648 331.803157 
L 504.338486 332.2301 
L 507.146498 332.814326 
L 512.626806 333.808314 
L 515.152718 334.463077 
L 517.190037 335.417517 
L 518.040933 335.906635 
L 518.820271 336.531394 
L 519.433785 337.223102 
L 520.382489 338.725074 
L 520.756788 339.479588 
L 521.279811 341.286979 
L 521.802835 344.408193 
L 522.707663 356.161098 
L 523.127187 365.342008 
L 523.609497 377.279277 
L 524.842894 394.558359 
L 525.61829 403.327082 
L 526.35234 411.107016 
L 526.703974 416.249866 
L 526.685209 419.241258 
L 526.436042 421.564997 
L 526.137223 423.081797 
L 525.599462 424.518414 
L 525.229401 425.286498 
L 524.039057 426.88405 
L 522.696383 428.078015 
L 520.718331 429.169706 
L 519.523539 429.627475 
L 516.687907 430.243329 
L 513.285588 430.613044 
L 509.407346 430.796392 
L 495.187315 430.86246 
L 486.832644 430.983109 
L 471.619992 431.522051 
L 445.628233 432.578717 
L 424.730319 433.122434 
L 403.125573 433.66368 
L 378.142753 434.505701 
L 339.108425 435.830488 
L 332.957444 435.99622 
L 329.491294 436.375984 
L 327.924585 436.720036 
L 326.474964 437.164123 
L 325.124869 437.708531 
L 323.869935 438.392499 
L 322.721116 439.15353 
L 321.738531 439.965798 
L 320.811681 440.920578 
L 320.068312 441.908597 
L 319.487371 442.97569 
L 319.077356 444.024715 
L 318.761143 445.172854 
L 318.410395 447.511843 
L 318.112577 452.68485 
L 317.715813 462.275707 
L 317.830582 466.071433 
L 318.749768 477.911672 
L 318.681194 481.761378 
L 318.387582 485.594193 
L 316.575364 503.617187 
L 315.624341 507.542876 
L 314.280434 511.324493 
L 311.781804 516.979338 
L 308.162681 524.654385 
L 306.061932 528.542926 
L 302.352223 534.444664 
L 297.23252 542.375078 
L 294.49614 546.131582 
L 291.53818 549.691384 
L 288.383911 553.011106 
L 278.021423 563.114068 
L 274.511334 566.736071 
L 268.435374 572.63634 
L 265.79133 575.190602 
L 263.208202 577.93803 
L 256.251539 585.625225 
L 223.487243 620.858815 
L 216.639654 627.820591 
L 215.866156 628.949634 
L 214.746563 631.337067 
L 214.370511 632.595474 
L 214.118515 633.896283 
L 213.930167 636.66026 
L 213.848477 641.028494 
L 213.562109 645.6502 
L 213.044463 650.56332 
L 212.051989 659.160635 
L 210.535811 671.765445 
L 209.318773 681.256262 
L 208.473625 688.94676 
L 203.789961 726.770996 
L 202.88968 735.605045 
L 202.327328 740.215806 
L 201.779569 742.994083 
L 201.128112 745.488557 
L 199.407929 751.310517 
L 199.326197 752.483915 
L 199.515974 753.643444 
L 199.972172 754.771812 
L 200.316089 755.375631 
L 200.802106 755.977997 
L 202.212099 757.149838 
L 203.094127 757.644853 
L 205.283583 758.438024 
L 211.224886 759.81696 
L 214.936169 760.248649 
L 219.108076 760.590417 
L 231.166076 761.321889 
L 272.424242 764.530265 
L 286.37242 765.749349 
L 314.071895 767.969945 
L 322.324658 768.847572 
L 327.785264 769.559019 
L 353.780575 773.409568 
L 362.981904 774.745273 
L 368.926718 775.853305 
L 373.810832 777.002425 
L 378.168539 778.040215 
L 381.103601 778.498396 
L 383.998373 778.596272 
L 385.493566 778.451845 
L 386.972988 778.186233 
L 388.421523 777.763466 
L 389.819647 777.211664 
L 391.134722 776.495894 
L 392.367317 775.619269 
L 393.526288 774.623672 
L 394.576847 773.509588 
L 396.465251 770.874699 
L 403.589119 759.798561 
L 411.403014 748.7338 
L 414.278452 745.010697 
L 417.355007 741.457129 
L 425.364706 732.584742 
L 429.926397 726.990351 
L 432.78092 723.154881 
L 436.825513 717.29493 
L 443.334073 707.707828 
L 449.60112 698.716799 
L 456.581281 688.171262 
L 459.99604 683.11069 
L 461.378541 681.345543 
L 462.954358 679.644206 
L 464.967092 677.708574 
L 468.419886 674.387295 
L 471.497327 671.059065 
L 474.724062 667.060735 
L 478.03239 662.600816 
L 498.507323 633.652598 
L 499.929314 631.255758 
L 500.499017 630.031088 
L 501.286514 627.566686 
L 501.618329 625.031609 
L 501.603212 622.368102 
L 500.686936 607.139297 
L 500.528112 598.585646 
L 500.242365 587.021955 
L 498.847319 552.261261 
L 498.446897 545.436546 
L 498.465788 542.579639 
L 498.802453 539.908506 
L 499.541542 537.399152 
L 500.105257 536.197377 
L 500.844389 535.052858 
L 501.744199 534.003274 
L 502.8162 533.04598 
L 504.014682 532.207944 
L 505.313396 531.441576 
L 506.77475 530.839668 
L 508.365515 530.307441 
L 510.079389 529.88362 
L 511.861404 529.577966 
L 515.642198 529.306259 
L 519.731192 529.225511 
L 537.864759 529.193192 
L 550.875829 528.918285 
L 576.965501 528.476903 
L 619.678387 527.343926 
L 627.922959 526.899051 
L 636.083575 526.195879 
L 644.296184 525.546348 
L 652.555346 525.092498 
L 669.361546 524.745482 
L 692.585879 524.641217 
L 708.087335 525.103367 
L 711.763617 524.944812 
L 726.846561 523.735472 
L 731.853477 523.628596 
L 760.553459 523.779317 
L 798.751903 522.973591 
L 805.105224 522.487081 
L 813.561603 521.563261 
L 815.010559 521.584863 
L 816.302864 521.7511 
L 817.511044 522.030957 
L 818.616125 522.462141 
L 819.607608 523.013234 
L 820.485955 523.688808 
L 821.218951 524.439051 
L 821.812626 525.229688 
L 822.678365 526.951716 
L 823.049143 528.98352 
L 823.158652 531.279459 
L 823.195 536.760801 
L 823.615831 547.154518 
L 824.380748 566.091243 
L 824.778049 579.389568 
L 825.0701 590.237161 
L 825.388169 598.579888 
L 825.63371 602.650518 
L 826.118382 606.655592 
L 827.158399 612.582431 
L 828.037421 616.461668 
L 829.064493 620.258939 
L 830.266095 623.953856 
L 832.383321 629.374077 
L 833.955406 632.934407 
L 835.630591 636.384324 
L 837.480559 639.761595 
L 839.438856 643.028748 
L 842.561395 647.709768 
L 844.678578 650.550956 
L 849.909403 657.213866 
L 850.897933 658.843232 
L 851.67529 660.451068 
L 851.942294 661.271492 
L 852.194834 662.923165 
L 852.202382 663.751993 
L 851.867404 665.47569 
L 851.534282 666.411852 
L 851.045814 667.330809 
L 850.400611 668.231815 
L 849.528209 669.204845 
L 848.450115 670.182095 
L 845.765949 672.182747 
L 842.517119 674.312263 
L 834.603435 679.119363 
L 821.08157 687.175423 
L 803.401239 698.09944 
L 790.407689 706.236654 
L 753.439311 729.83792 
L 750.257443 731.538565 
L 748.746922 732.196025 
L 747.228136 732.705599 
L 745.578126 733.007837 
L 743.961722 733.129299 
L 742.404142 733.031303 
L 740.916856 732.779749 
L 739.520904 732.355461 
L 738.171968 731.75664 
L 736.867351 730.993351 
L 734.55042 729.156424 
L 733.471609 728.096862 
L 732.441839 726.91857 
L 731.508168 725.669258 
L 730.637454 724.29366 
L 729.842935 722.796357 
L 729.142661 721.212245 
L 727.9691 717.731357 
L 726.96657 713.889005 
L 726.557335 711.825979 
L 725.715336 705.177179 
L 724.814767 695.478714 
L 724.137179 685.357137 
L 723.707451 675.07659 
L 723.481897 665.024028 
L 723.229778 641.174477 
L 723.361805 634.869313 
L 723.551052 629.343297 
L 723.457145 626.097535 
L 723.089825 623.305821 
L 722.702433 622.100605 
L 722.186683 621.039833 
L 721.497162 620.0377 
L 720.663259 619.164499 
L 719.715251 618.439028 
L 718.586641 617.808683 
L 716.132371 616.940791 
L 714.76037 616.654255 
L 710.081432 616.164567 
L 700.749026 615.756793 
L 691.524104 615.686101 
L 683.539241 615.793608 
L 523.304564 617.611791 
L 513.600747 617.887225 
L 511.141122 617.644681 
L 509.978693 617.409054 
L 507.807725 616.65697 
L 506.847594 616.21487 
L 504.937052 614.953748 
L 504.032287 614.144529 
L 503.286514 613.285422 
L 502.602032 612.312651 
L 501.989909 611.219508 
L 501.50258 610.003882 
L 501.119341 608.748448 
L 500.664039 606.034326 
L 500.440383 602.962543 
L 500.314408 597.6444 
L 500.367328 587.065878 
L 500.286008 578.015586 
L 499.132771 541.941365 
L 499.226425 538.575386 
L 499.57924 536.502166 
L 500.221112 534.545332 
L 501.286746 532.737154 
L 502.874518 531.05323 
L 503.858178 530.261244 
L 504.903529 529.580742 
L 506.065136 528.995703 
L 508.654046 528.078078 
L 511.35957 527.513029 
L 512.75607 527.304292 
L 517.093874 527.134912 
L 524.504206 526.957414 
L 527.362059 526.471798 
L 528.689996 526.070647 
L 529.917552 525.535903 
L 531.03326 524.910634 
L 532.040259 524.172963 
L 532.944539 523.367531 
L 533.673382 522.496579 
L 534.306568 521.531525 
L 534.791725 520.506207 
L 535.107917 519.439438 
L 535.443781 517.10042 
L 535.510152 513.210656 
L 535.521685 506.809636 
L 535.540892 494.641288 
L 535.007222 470.394282 
L 534.424995 458.905288 
L 533.837793 446.582614 
L 533.84494 443.343107 
L 534.034694 441.276322 
L 534.206209 440.224949 
L 534.910194 438.255076 
L 535.708086 437.034027 
L 536.224658 436.372741 
L 536.905071 435.708792 
L 537.720758 435.079771 
L 538.714686 434.478696 
L 539.808677 433.966998 
L 541.114623 433.544971 
L 542.566088 433.216051 
L 544.202795 432.963522 
L 547.828876 432.830308 
L 579.727382 433.083556 
L 599.930378 432.999367 
L 613.800714 432.939648 
L 685.468906 432.719913 
L 696.396211 432.725047 
L 711.878818 432.780641 
L 713.289697 432.64883 
L 714.635765 432.39506 
L 715.881854 432.044468 
L 717.064482 431.494117 
L 718.124697 430.835678 
L 719.013164 430.111113 
L 719.825941 429.156441 
L 720.485186 428.153549 
L 720.877132 427.115707 
L 721.111625 425.943565 
L 721.165136 424.657072 
L 720.883373 422.01713 
L 719.477343 412.425472 
L 719.077849 408.516128 
L 718.820585 402.08888 
L 718.576014 390.171156 
L 718.36893 375.380279 
L 718.179177 365.643857 
L 718.255247 358.604196 
L 718.590141 350.248586 
L 718.677216 346.287495 
L 718.494547 342.401488 
L 717.342913 327.452648 
L 717.16484 317.469169 
L 717.577195 306.753734 
L 717.945359 298.780305 
L 717.899017 288.282219 
L 717.623621 275.432962 
L 716.9376 258.132485 
L 716.614766 250.854223 
L 716.614091 245.949542 
L 716.786809 233.443143 
L 717.360286 223.186218 
L 718.113269 212.987447 
L 718.595538 208.042371 
L 719.561467 201.170533 
L 720.886072 193.032593 
L 721.650609 189.615739 
L 722.605701 186.653349 
L 724.839772 180.754887 
L 725.39596 178.852196 
L 725.696487 177.024486 
L 725.82864 175.216264 
L 725.946414 171.385947 
L 726.264735 168.482939 
L 726.78972 165.79332 
L 727.596256 162.163717 
L 727.593768 160.685349 
L 727.28506 159.01379 
L 726.488391 157.198046 
L 725.880084 156.259272 
L 725.107746 155.347163 
L 724.085355 154.41458 
L 722.890963 153.549853 
L 721.521661 152.780373 
L 719.910992 152.045581 
L 716.227332 150.792292 
L 714.170111 150.247614 
L 709.653728 149.398968 
L 701.842933 148.454488 
L 686.932073 146.792025 
L 677.179173 145.839279 
L 664.09256 144.859487 
L 654.343708 144.392176 
L 644.777272 144.189335 
L 635.312123 144.213752 
L 622.640648 144.537086 
L 609.746149 145.154289 
L 596.661476 146.123671 
L 586.692384 147.116086 
L 576.623397 148.388189 
L 566.421034 149.924314 
L 556.310091 151.722108 
L 546.248947 153.730732 
L 536.252446 155.934934 
L 526.319449 158.37255 
L 513.377597 161.856482 
L 500.593345 165.560633 
L 491.176245 168.582492 
L 481.948583 171.773886 
L 472.926823 175.136113 
L 464.029226 178.653886 
L 455.164857 182.407667 
L 446.25482 186.371533 
L 437.395152 190.647356 
L 428.727662 195.066585 
L 417.490027 201.156457 
L 412.049503 204.253383 
L 403.949376 209.086854 
L 395.972019 214.169629 
L 388.052263 219.47534 
L 380.182475 225.077357 
L 372.365175 230.91903 
L 367.187165 234.957099 
L 354.421298 245.481002 
L 344.228877 254.073562 
L 321.058139 272.937071 
L 262.59883 321.332342 
L 219.411411 357.497772 
L 193.933884 378.474235 
L 188.335999 383.288355 
L 185.103835 386.226825 
L 182.336777 389.084912 
L 181.116565 390.522353 
L 180.047218 391.980679 
L 179.139292 393.489892 
L 178.422005 395.019982 
L 177.892883 396.566244 
L 177.53367 398.122943 
L 177.379784 399.689057 
L 177.420111 401.233149 
L 177.658605 402.715585 
L 178.133176 404.19918 
L 178.745066 405.60792 
L 180.385929 408.196533 
L 187.015017 417.66161 
L 189.621964 422.108916 
L 191.499566 425.276771 
L 192.694992 426.648082 
L 193.93715 427.711115 
L 195.496376 428.775045 
L 197.480818 429.83736 
L 200.05716 430.792862 
L 201.533848 431.212598 
L 204.934446 431.779238 
L 208.861735 432.092548 
L 217.949552 432.241866 
L 234.032817 432.303299 
L 255.038957 431.879263 
L 267.483239 431.689959 
L 325.682913 431.470865 
L 328.806369 431.495403 
L 328.806369 431.495403 
" clip-path="url(#p98a15f3559)" style="fill: none; stroke: #00ff00; stroke-width: 2; stroke-linecap: square"/>
   </g>
   <g id="line2d_30">
    <path d="M 197.48543 450.007406 
L 197.484842 450.00754 
L 205.973438 449.816732 
L 228.003557 448.81598 
L 268.722797 446.742567 
L 281.661255 445.94228 
L 296.895318 444.78907 
L 304.884861 444.244388 
L 307.598892 444.219582 
L 310.035157 444.490093 
L 311.198545 444.755558 
L 312.259761 445.117472 
L 313.187687 445.557272 
L 314.774552 446.735472 
L 315.42218 447.452912 
L 316.343939 448.924769 
L 317.190997 451.39753 
L 317.655798 454.248506 
L 317.896163 457.704193 
L 318.033776 461.865755 
L 318.190365 466.74565 
L 318.577768 472.181007 
L 319.430624 483.328607 
L 319.533302 486.991094 
L 319.444867 490.579948 
L 319.176155 494.038563 
L 318.528379 498.962174 
L 317.805925 504.67032 
L 317.781394 507.086311 
L 317.922475 508.262792 
L 318.182764 509.412538 
L 318.58405 510.509399 
L 319.130993 511.533848 
L 319.792906 512.471857 
L 320.624805 513.283375 
L 321.528537 513.992617 
L 322.609604 514.623248 
L 323.745099 515.116792 
L 326.209341 515.808435 
L 328.884167 516.353636 
L 334.810523 517.39999 
L 341.744827 518.842351 
L 354.0334 521.22911 
L 376.892911 525.579031 
L 385.846676 527.279616 
L 401.216759 529.718831 
L 405.649461 530.223961 
L 410.191713 530.620893 
L 417.005565 530.994004 
L 426.102825 531.336611 
L 435.328759 531.381563 
L 456.435951 530.486392 
L 475.646052 529.392436 
L 481.10534 529.215767 
L 503.224802 529.206075 
L 519.621705 528.831909 
L 522.489826 528.624356 
L 525.183965 528.157476 
L 527.541798 527.325518 
L 529.462924 526.102768 
L 530.276797 525.421851 
L 531.562165 523.835258 
L 532.040871 523.048079 
L 532.417932 522.183019 
L 532.858834 520.14303 
L 532.9675 517.912747 
L 532.750675 514.104335 
L 532.153985 504.203557 
L 531.23326 488.292871 
L 530.579433 480.506789 
L 529.988899 471.136419 
L 529.466719 465.693755 
L 527.940596 452.991682 
L 527.606377 448.251718 
L 527.54553 445.493939 
L 527.683333 441.68512 
L 527.773761 440.849651 
L 528.237033 439.170365 
L 528.905808 437.870505 
L 529.346437 437.225252 
L 529.939416 436.58722 
L 531.510046 435.400288 
L 532.485526 434.906277 
L 533.611396 434.476685 
L 536.301023 433.81746 
L 539.402373 433.477397 
L 544.797861 433.228128 
L 570.869401 432.487236 
L 590.984731 431.750385 
L 651.729413 428.958457 
L 676.974745 427.858353 
L 692.725285 427.107757 
L 701.634457 426.649932 
L 704.031716 426.240096 
L 705.125286 425.945404 
L 707.180525 425.062293 
L 708.081432 424.500482 
L 709.83509 422.999714 
L 710.562351 422.098761 
L 711.131611 421.138024 
L 711.569183 420.006601 
L 711.846771 418.842208 
L 711.892649 417.60956 
L 711.671481 414.924939 
L 710.462963 405.839937 
L 709.909979 400.43099 
L 709.214386 390.276467 
L 708.451746 379.867485 
L 707.606079 371.72919 
L 706.836734 363.667457 
L 706.512762 357.700318 
L 706.407344 351.874978 
L 706.369899 343.746142 
L 706.091341 339.697732 
L 705.628596 335.751634 
L 704.779134 330.124387 
L 703.792163 323.705015 
L 702.940424 316.181278 
L 702.64036 312.072336 
L 702.473082 305.441486 
L 702.280588 296.419036 
L 701.959652 289.714693 
L 701.360284 280.937657 
L 699.380229 258.208607 
L 698.753073 250.155607 
L 698.252167 246.225858 
L 697.643438 243.844944 
L 697.187524 242.737811 
L 696.584277 241.67716 
L 695.848245 240.702868 
L 694.994397 239.83214 
L 693.948477 239.027366 
L 692.786132 238.349224 
L 691.465744 237.788827 
L 690.091129 237.355374 
L 688.520098 237.042968 
L 685.20595 236.787645 
L 681.632136 236.725634 
L 677.798106 236.863334 
L 671.508584 237.287034 
L 641.703816 239.687022 
L 631.2829 240.26172 
L 560.104694 243.561953 
L 538.060332 244.969422 
L 524.897248 245.645385 
L 507.416475 246.294458 
L 501.241036 246.468593 
L 498.770406 246.751186 
L 496.47477 247.36308 
L 494.468845 248.312489 
L 492.465219 249.726788 
L 491.590941 250.592415 
L 490.786112 251.634321 
L 490.095579 252.761876 
L 489.532307 254.016134 
L 489.165324 255.344265 
L 488.900829 256.79697 
L 488.685016 259.844474 
L 488.697708 268.301928 
L 488.917464 275.807604 
L 489.296591 283.917479 
L 489.883097 290.045083 
L 492.051514 308.936943 
L 492.232518 313.284019 
L 492.378586 322.71529 
L 492.812151 325.289991 
L 493.181369 326.505592 
L 493.699248 327.733469 
L 494.330304 328.868867 
L 495.089739 329.920958 
L 495.922567 330.856386 
L 496.941394 331.758672 
L 498.050229 332.575439 
L 499.2236 333.260887 
L 500.488137 333.85797 
L 501.83935 334.325792 
L 504.60355 334.966711 
L 511.476964 336.151479 
L 513.919828 336.845772 
L 515.828788 337.796494 
L 516.688793 338.363264 
L 517.943695 339.709128 
L 518.839752 341.193107 
L 519.46792 342.898344 
L 520.068278 345.924414 
L 520.46714 349.670378 
L 521.19594 357.38365 
L 521.772538 366.468846 
L 522.609771 380.353477 
L 524.303636 399.350086 
L 526.274309 418.830134 
L 526.27646 421.712058 
L 526.131404 423.269355 
L 525.63075 425.667069 
L 525.041882 427.118009 
L 524.032205 428.639013 
L 522.826217 429.857311 
L 521.989236 430.472841 
L 519.92862 431.498864 
L 518.655544 431.921012 
L 515.665137 432.528587 
L 512.145824 432.872856 
L 508.168825 433.058584 
L 485.152526 433.539036 
L 472.994354 434.107294 
L 443.770042 435.628348 
L 379.830862 438.164109 
L 340.217407 439.975355 
L 331.982924 440.330644 
L 328.658667 440.850546 
L 327.166067 441.25223 
L 325.758076 441.776222 
L 323.302267 443.096927 
L 321.214453 444.901567 
L 320.438499 445.842601 
L 319.791419 446.888263 
L 319.304101 447.999455 
L 318.957685 449.102143 
L 318.613768 451.390405 
L 318.452499 453.842909 
L 318.148577 464.141604 
L 318.170083 467.7152 
L 318.440966 471.561254 
L 319.460795 481.414741 
L 319.552952 485.294577 
L 319.387076 489.139554 
L 318.035052 507.142806 
L 317.716604 509.148127 
L 317.282975 511.130337 
L 316.103005 514.984937 
L 314.610236 518.755396 
L 311.295308 526.404236 
L 309.483839 530.320228 
L 307.375774 534.225958 
L 301.273676 544.262413 
L 298.778873 548.177973 
L 296.07125 551.939319 
L 293.148174 555.491607 
L 290.005448 558.818151 
L 282.492971 566.319322 
L 274.351525 574.905881 
L 268.097623 581.192075 
L 264.302583 585.551835 
L 252.445071 598.916537 
L 243.013708 609.494255 
L 236.912785 616.42755 
L 225.533016 628.884251 
L 221.216315 633.360528 
L 220.391794 634.495156 
L 219.196269 636.861095 
L 218.78881 638.084036 
L 218.502767 639.377097 
L 218.27841 642.080896 
L 218.2517 649.461686 
L 217.83008 655.884507 
L 217.324552 660.970154 
L 216.075039 675.159006 
L 214.711166 688.442062 
L 212.509178 712.155262 
L 210.188875 735.858415 
L 209.569424 744.284724 
L 209.248341 747.244746 
L 208.737482 749.985706 
L 207.814271 753.467891 
L 206.876791 756.758337 
L 206.69434 757.971715 
L 206.712131 759.14577 
L 207.00144 760.28728 
L 207.574165 761.432526 
L 207.952433 762.011098 
L 209.304587 763.192865 
L 210.126383 763.708284 
L 211.10668 764.150384 
L 213.439789 764.835096 
L 217.987617 765.760174 
L 219.685324 766.068707 
L 225.64067 766.525539 
L 240.041459 767.122302 
L 273.067901 769.014687 
L 281.512199 769.496489 
L 292.695918 770.246118 
L 323.261818 772.037583 
L 334.260628 773.069529 
L 347.639461 774.77014 
L 355.433812 775.744121 
L 369.8717 777.467315 
L 376.040919 778.438288 
L 381.13139 779.459408 
L 385.54579 780.425262 
L 388.497783 780.886279 
L 389.928839 781.015592 
L 392.884058 780.923527 
L 394.343261 780.681847 
L 395.79947 780.307396 
L 397.197636 779.790766 
L 398.547162 779.131232 
L 399.793167 778.307384 
L 400.962827 777.337622 
L 402.020512 776.257569 
L 402.992935 775.071409 
L 404.755891 772.258858 
L 409.419058 764.356683 
L 414.031245 757.172837 
L 419.155513 749.524481 
L 421.945688 745.795775 
L 424.929032 742.185245 
L 429.589838 736.807771 
L 432.603606 733.096945 
L 436.915898 727.357021 
L 439.597092 723.431198 
L 443.388617 717.45032 
L 449.551257 707.7729 
L 455.393615 698.726845 
L 459.378245 692.31791 
L 464.408543 684.118495 
L 465.800173 682.154727 
L 468.098992 679.527811 
L 471.400405 676.24295 
L 474.238694 673.164839 
L 476.240275 670.757208 
L 479.329586 666.573243 
L 482.481853 661.962378 
L 491.54637 648.246406 
L 500.126257 635.296766 
L 502.333299 631.480836 
L 502.920902 630.266663 
L 503.385755 629.020429 
L 503.955163 626.514854 
L 504.083289 625.269052 
L 504.01658 622.633057 
L 503.590836 618.281372 
L 502.402158 605.734371 
L 500.601821 578.650229 
L 499.769457 567.554705 
L 498.99773 556.880772 
L 497.743651 542.968287 
L 497.903444 540.285378 
L 498.112636 538.986523 
L 498.44306 537.691334 
L 498.896592 536.456894 
L 499.473969 535.285969 
L 500.24966 534.171443 
L 501.220058 533.152286 
L 502.339624 532.234055 
L 503.514007 531.414954 
L 504.871271 530.700213 
L 506.412511 530.066029 
L 508.021303 529.571836 
L 509.75042 529.164547 
L 513.452908 528.690076 
L 517.486558 528.447324 
L 535.447175 527.97083 
L 548.300581 527.334545 
L 571.345597 526.343859 
L 594.554666 525.14531 
L 617.031497 523.94484 
L 625.280328 523.31402 
L 633.435715 522.426929 
L 641.588784 521.518352 
L 649.811808 520.799106 
L 663.825556 520.097892 
L 682.830323 519.390116 
L 690.087629 519.180497 
L 702.141899 519.265692 
L 705.850692 519.251586 
L 709.480378 519.044725 
L 715.321913 518.343554 
L 721.887969 517.618446 
L 726.688054 517.254742 
L 731.756239 517.049182 
L 754.715845 516.623351 
L 793.844586 514.817637 
L 800.611654 514.241681 
L 806.52791 513.465499 
L 811.378048 512.773174 
L 812.803728 512.686884 
L 815.47322 512.92016 
L 816.648257 513.256148 
L 817.716695 513.71519 
L 818.683931 514.306925 
L 819.515219 514.986173 
L 820.212162 515.75111 
L 821.261962 517.394232 
L 821.586145 518.338124 
L 821.993229 520.377607 
L 822.123948 522.769073 
L 822.436999 528.391988 
L 823.343724 538.972456 
L 824.231306 549.272275 
L 827.573326 592.402083 
L 828.184037 596.384833 
L 828.979652 600.333431 
L 830.432235 606.158884 
L 832.231349 611.781911 
L 833.652517 615.419935 
L 835.223717 619.019692 
L 837.835229 624.261766 
L 839.711004 627.64969 
L 842.787833 632.521394 
L 844.970672 635.62643 
L 848.347058 639.993539 
L 854.758613 647.588064 
L 856.189648 649.945564 
L 856.762028 651.585979 
L 857.03405 653.188058 
L 857.016593 654.035596 
L 856.648767 655.828895 
L 856.290175 656.743355 
L 855.762239 657.695271 
L 855.0354 658.694482 
L 854.118975 659.674048 
L 851.66926 661.724451 
L 848.665043 663.930383 
L 841.206387 668.864582 
L 821.576151 681.645741 
L 798.309524 697.339816 
L 774.005748 714.224254 
L 765.833367 719.931323 
L 760.627168 723.352586 
L 757.586729 725.032273 
L 756.122761 725.666509 
L 754.607812 726.137694 
L 752.900412 726.375794 
L 751.354344 726.462568 
L 749.828853 726.350219 
L 748.348777 726.049503 
L 746.921157 725.560696 
L 745.589342 724.943424 
L 744.316308 724.16969 
L 741.931741 722.28718 
L 739.79495 720.05505 
L 738.816835 718.745284 
L 737.931909 717.368164 
L 737.099356 715.855349 
L 736.347427 714.224219 
L 735.063387 710.680871 
L 733.910825 706.785016 
L 733.054574 702.529909 
L 731.628303 693.168665 
L 730.638887 685.753066 
L 729.524698 675.545164 
L 728.666127 665.345218 
L 726.807093 636.429544 
L 726.577702 628.031836 
L 726.439941 622.629962 
L 726.119595 619.490479 
L 725.86794 618.088803 
L 725.506776 616.850005 
L 724.98487 615.726531 
L 724.324697 614.729378 
L 723.543883 613.827039 
L 722.568298 613.036618 
L 721.494505 612.393563 
L 720.346919 611.883556 
L 717.699228 611.211121 
L 714.750587 610.908416 
L 711.491426 610.75128 
L 701.891594 610.715121 
L 692.459967 610.989743 
L 666.99722 612.2426 
L 649.348515 613.147791 
L 583.052662 616.162267 
L 570.531977 616.724462 
L 526.633871 618.819047 
L 515.384006 619.49833 
L 512.955311 619.265176 
L 510.733489 618.680863 
L 508.669458 617.790785 
L 506.763997 616.525408 
L 505.898111 615.724923 
L 505.0944 614.778212 
L 504.38274 613.767968 
L 503.81036 612.673787 
L 502.91036 610.161451 
L 502.393345 607.371674 
L 502.028218 604.217959 
L 501.761235 600.686456 
L 500.596339 578.968782 
L 498.197435 549.359109 
L 497.840277 544.724485 
L 497.737578 541.249693 
L 497.885818 539.175651 
L 498.353876 537.165003 
L 499.184216 535.314813 
L 499.807598 534.426161 
L 501.428956 532.704117 
L 503.509643 531.223172 
L 504.707872 530.655443 
L 507.256196 529.748392 
L 509.975931 529.147367 
L 512.814156 528.819934 
L 517.228578 528.593575 
L 520.190754 528.472407 
L 523.134945 528.15343 
L 525.898302 527.482845 
L 527.145867 526.971377 
L 528.287782 526.320134 
L 530.233006 524.8305 
L 531.018902 523.914821 
L 532.156072 522.022851 
L 532.508634 520.915749 
L 532.799652 518.619395 
L 532.766424 516.151124 
L 531.792294 496.726353 
L 530.887044 484.847712 
L 529.266508 465.471282 
L 527.299546 447.005847 
L 527.174393 443.972361 
L 527.313293 441.528281 
L 527.517025 440.517075 
L 528.095688 438.991637 
L 528.874457 437.704035 
L 529.468722 436.980555 
L 530.189026 436.306787 
L 531.015718 435.693938 
L 532.018206 435.093668 
L 533.243802 434.538621 
L 534.596722 434.109498 
L 537.764253 433.538732 
L 541.55795 433.335319 
L 567.657383 432.58198 
L 597.914776 431.269693 
L 694.975591 427.177962 
L 702.404307 426.940145 
L 705.359821 426.688565 
L 706.703612 426.45577 
L 708.014091 426.076924 
L 709.201651 425.572557 
L 710.252885 424.973712 
L 711.244494 424.185346 
L 712.038548 423.317865 
L 712.650608 422.369118 
L 713.177363 421.25745 
L 713.413121 420.121177 
L 713.48177 418.898441 
L 713.378839 417.654019 
L 712.850819 414.964182 
L 711.183815 407.046541 
L 710.510106 403.25396 
L 710.019699 399.131587 
L 709.001651 387.610115 
L 706.453559 353.550566 
L 705.972724 339.117163 
L 705.477932 335.226677 
L 703.914955 324.790265 
L 703.397518 320.13655 
L 702.74949 312.654798 
L 702.41215 301.993921 
L 702.162055 291.359276 
L 700.772091 273.181327 
L 698.386976 250.954502 
L 697.844535 246.113699 
L 697.480461 241.243344 
L 696.705171 226.255994 
L 696.60709 215.954593 
L 696.692858 205.771109 
L 696.868528 200.871564 
L 697.584362 191.944516 
L 698.188072 186.082317 
L 698.757543 182.746046 
L 699.571037 179.843643 
L 701.039896 175.060528 
L 701.664354 172.170852 
L 701.78938 169.425915 
L 701.652167 163.67392 
L 701.891467 160.803007 
L 702.644113 155.504075 
L 702.465956 153.997936 
L 701.926424 152.294835 
L 700.888347 150.530899 
L 700.106985 149.589877 
L 699.142194 148.715881 
L 698.004686 147.897014 
L 696.635215 147.116501 
L 695.080377 146.438809 
L 691.45925 145.271359 
L 687.302598 144.446024 
L 682.535193 143.851094 
L 652.7529 142.069589 
L 642.86186 141.734115 
L 633.047227 141.6204 
L 623.363313 141.759362 
L 613.856418 142.116763 
L 604.435586 142.711209 
L 594.935648 143.459385 
L 582.100437 144.744458 
L 572.336152 145.949328 
L 562.463075 147.357973 
L 552.443424 149.063079 
L 542.37022 151.055622 
L 532.413314 153.296968 
L 522.500495 155.751012 
L 512.673401 158.395065 
L 502.910023 161.261707 
L 490.16798 165.355336 
L 480.741815 168.544604 
L 471.467704 171.905949 
L 459.352628 176.668901 
L 450.539492 180.452303 
L 441.875734 184.347328 
L 433.31497 188.465254 
L 424.708623 192.796775 
L 416.084566 197.458359 
L 404.968647 203.902432 
L 396.85492 208.859959 
L 388.994178 213.90521 
L 383.841152 217.361629 
L 373.698098 224.621821 
L 366.144734 230.343398 
L 356.212264 238.422354 
L 348.85792 244.735991 
L 341.618293 251.324405 
L 334.415699 258.088061 
L 322.333682 269.349385 
L 307.828051 282.596922 
L 300.593832 289.260593 
L 243.130991 342.644387 
L 205.028234 378.397672 
L 191.536356 390.778614 
L 180.10369 401.576184 
L 175.582993 406.226294 
L 173.115509 409.193405 
L 172.081272 410.698287 
L 171.199443 412.232362 
L 170.476172 413.781915 
L 169.970158 415.348007 
L 169.632283 416.918912 
L 169.465488 418.495153 
L 169.518313 420.043212 
L 169.786598 421.570359 
L 170.231195 423.031997 
L 170.85634 424.43284 
L 171.652527 425.770631 
L 172.566589 427.042586 
L 178.334391 434.098393 
L 181.346932 438.236103 
L 183.787727 441.976505 
L 185.130236 443.951226 
L 186.34524 445.245598 
L 187.54222 446.21219 
L 189.101568 447.228574 
L 191.005831 448.198954 
L 193.516645 449.064358 
L 194.936099 449.446935 
L 196.528795 449.748139 
L 200.111643 450.086727 
L 204.171463 450.152121 
L 218.604825 449.644007 
L 229.704085 449.093636 
L 272.770795 446.382239 
L 324.413189 443.711664 
L 324.413189 443.711664 
" clip-path="url(#p98a15f3559)" style="fill: none; stroke: #0000ff; stroke-width: 2; stroke-linecap: square"/>
   </g>
   <g id="patch_3">
    <path d="M 135 813.1752 
L 135 109.6416 
" style="fill: none; stroke: #000000; stroke-width: 3; stroke-linejoin: miter; stroke-linecap: square"/>
   </g>
   <g id="patch_4">
    <path d="M 972 813.1752 
L 972 109.6416 
" style="fill: none; stroke: #000000; stroke-width: 3; stroke-linejoin: miter; stroke-linecap: square"/>
   </g>
   <g id="patch_5">
    <path d="M 135 813.1752 
L 972 813.1752 
" style="fill: none; stroke: #000000; stroke-width: 3; stroke-linejoin: miter; stroke-linecap: square"/>
   </g>
   <g id="patch_6">
    <path d="M 135 109.6416 
L 972 109.6416 
" style="fill: none; stroke: #000000; stroke-width: 3; stroke-linejoin: miter; stroke-linecap: square"/>
   </g>
   <g id="PathCollection_1">
    <defs>
     <path id="m46a80e591b" d="M 0 -8.660254 
L -1.944348 -2.676166 
L -8.236391 -2.676166 
L -3.146021 1.022204 
L -5.09037 7.006293 
L -0 3.307923 
L 5.09037 7.006293 
L 3.146021 1.022204 
L 8.236391 -2.676166 
L 1.944348 -2.676166 
z
" style="stroke: #ff0000"/>
    </defs>
    <g clip-path="url(#p98a15f3559)">
     <use xlink:href="#m46a80e591b" x="197.48543" y="450.007406" style="fill: #ff0000; stroke: #ff0000"/>
    </g>
   </g>
   <g id="PathCollection_2">
    <g clip-path="url(#p98a15f3559)">
     <use xlink:href="#m46a80e591b" x="197.48543" y="450.007406" style="fill: #ff0000; stroke: #ff0000"/>
    </g>
   </g>
   <g id="PathCollection_3">
    <g clip-path="url(#p98a15f3559)">
     <use xlink:href="#m46a80e591b" x="197.48543" y="450.007406" style="fill: #ff0000; stroke: #ff0000"/>
    </g>
   </g>
   <g id="text_16">
    <!-- kitti00 -->
    <g transform="translate(481.696875 100.283006) scale(0.45 -0.45)">
     <defs>
      <path id="DejaVuSans-6b" d="M 581 4863 
L 1159 4863 
L 1159 1991 
L 2875 3500 
L 3609 3500 
L 1753 1863 
L 3688 0 
L 2938 0 
L 1159 1709 
L 1159 0 
L 581 0 
L 581 4863 
z
" transform="scale(0.015625)"/>
      <path id="DejaVuSans-69" d="M 603 3500 
L 1178 3500 
L 1178 0 
L 603 0 
L 603 3500 
z
M 603 4863 
L 1178 4863 
L 1178 4134 
L 603 4134 
L 603 4863 
z
" transform="scale(0.015625)"/>
      <path id="DejaVuSans-74" d="M 1172 4494 
L 1172 3500 
L 2356 3500 
L 2356 3053 
L 1172 3053 
L 1172 1153 
Q 1172 725 1289 603 
Q 1406 481 1766 481 
L 2356 481 
L 2356 0 
L 1766 0 
Q 1100 0 847 248 
Q 594 497 594 1153 
L 594 3053 
L 172 3053 
L 172 3500 
L 594 3500 
L 594 4494 
L 1172 4494 
z
" transform="scale(0.015625)"/>
     </defs>
     <use xlink:href="#DejaVuSans-6b"/>
     <use xlink:href="#DejaVuSans-69" x="57.910156"/>
     <use xlink:href="#DejaVuSans-74" x="85.693359"/>
     <use xlink:href="#DejaVuSans-74" x="124.902344"/>
     <use xlink:href="#DejaVuSans-69" x="164.111328"/>
     <use xlink:href="#DejaVuSans-30" x="191.894531"/>
     <use xlink:href="#DejaVuSans-30" x="255.517578"/>
    </g>
   </g>
   <g id="legend_1">
    <g id="patch_7">
     <path d="M 749.76875 243.0666 
L 958 243.0666 
Q 962 243.0666 962 239.0666 
L 962 123.6416 
Q 962 119.6416 958 119.6416 
L 749.76875 119.6416 
Q 745.76875 119.6416 745.76875 123.6416 
L 745.76875 239.0666 
Q 745.76875 243.0666 749.76875 243.0666 
z
" style="fill: #ffffff; opacity: 0.8; stroke: #cccccc; stroke-linejoin: miter"/>
    </g>
    <g id="line2d_31">
     <defs>
      <path id="mec85ac16b8" d="M 0 -9 
L -2.020626 -2.781153 
L -8.559509 -2.781153 
L -3.269441 1.062306 
L -5.290067 7.281153 
L -0 3.437694 
L 5.290067 7.281153 
L 3.269441 1.062306 
L 8.559509 -2.781153 
L 2.020626 -2.781153 
z
" style="stroke: #ff0000; stroke-linejoin: bevel"/>
     </defs>
     <g>
      <use xlink:href="#mec85ac16b8" x="783.76875" y="135.838475" style="fill: #ff0000; stroke: #ff0000; stroke-linejoin: bevel"/>
     </g>
    </g>
    <g id="text_17">
     <!-- Start -->
     <g transform="translate(829.76875 142.838475) scale(0.2 -0.2)">
      <defs>
       <path id="DejaVuSans-53" d="M 3425 4513 
L 3425 3897 
Q 3066 4069 2747 4153 
Q 2428 4238 2131 4238 
Q 1616 4238 1336 4038 
Q 1056 3838 1056 3469 
Q 1056 3159 1242 3001 
Q 1428 2844 1947 2747 
L 2328 2669 
Q 3034 2534 3370 2195 
Q 3706 1856 3706 1288 
Q 3706 609 3251 259 
Q 2797 -91 1919 -91 
Q 1588 -91 1214 -16 
Q 841 59 441 206 
L 441 856 
Q 825 641 1194 531 
Q 1563 422 1919 422 
Q 2459 422 2753 634 
Q 3047 847 3047 1241 
Q 3047 1584 2836 1778 
Q 2625 1972 2144 2069 
L 1759 2144 
Q 1053 2284 737 2584 
Q 422 2884 422 3419 
Q 422 4038 858 4394 
Q 1294 4750 2059 4750 
Q 2388 4750 2728 4690 
Q 3069 4631 3425 4513 
z
" transform="scale(0.015625)"/>
       <path id="DejaVuSans-61" d="M 2194 1759 
Q 1497 1759 1228 1600 
Q 959 1441 959 1056 
Q 959 750 1161 570 
Q 1363 391 1709 391 
Q 2188 391 2477 730 
Q 2766 1069 2766 1631 
L 2766 1759 
L 2194 1759 
z
M 3341 1997 
L 3341 0 
L 2766 0 
L 2766 531 
Q 2569 213 2275 61 
Q 1981 -91 1556 -91 
Q 1019 -91 701 211 
Q 384 513 384 1019 
Q 384 1609 779 1909 
Q 1175 2209 1959 2209 
L 2766 2209 
L 2766 2266 
Q 2766 2663 2505 2880 
Q 2244 3097 1772 3097 
Q 1472 3097 1187 3025 
Q 903 2953 641 2809 
L 641 3341 
Q 956 3463 1253 3523 
Q 1550 3584 1831 3584 
Q 2591 3584 2966 3190 
Q 3341 2797 3341 1997 
z
" transform="scale(0.015625)"/>
       <path id="DejaVuSans-72" d="M 2631 2963 
Q 2534 3019 2420 3045 
Q 2306 3072 2169 3072 
Q 1681 3072 1420 2755 
Q 1159 2438 1159 1844 
L 1159 0 
L 581 0 
L 581 3500 
L 1159 3500 
L 1159 2956 
Q 1341 3275 1631 3429 
Q 1922 3584 2338 3584 
Q 2397 3584 2469 3576 
Q 2541 3569 2628 3553 
L 2631 2963 
z
" transform="scale(0.015625)"/>
      </defs>
      <use xlink:href="#DejaVuSans-53"/>
      <use xlink:href="#DejaVuSans-74" x="63.476562"/>
      <use xlink:href="#DejaVuSans-61" x="102.685547"/>
      <use xlink:href="#DejaVuSans-72" x="163.964844"/>
      <use xlink:href="#DejaVuSans-74" x="205.078125"/>
     </g>
    </g>
    <g id="line2d_32">
     <path d="M 753.76875 165.194725 
L 783.76875 165.194725 
L 813.76875 165.194725 
" style="fill: none; stroke-dasharray: 14.8,6.4; stroke-dashoffset: 0; stroke: #808a87; stroke-width: 4"/>
    </g>
    <g id="text_18">
     <!-- GroundTruth -->
     <g transform="translate(829.76875 172.194725) scale(0.2 -0.2)">
      <defs>
       <path id="DejaVuSans-47" d="M 3809 666 
L 3809 1919 
L 2778 1919 
L 2778 2438 
L 4434 2438 
L 4434 434 
Q 4069 175 3628 42 
Q 3188 -91 2688 -91 
Q 1594 -91 976 548 
Q 359 1188 359 2328 
Q 359 3472 976 4111 
Q 1594 4750 2688 4750 
Q 3144 4750 3555 4637 
Q 3966 4525 4313 4306 
L 4313 3634 
Q 3963 3931 3569 4081 
Q 3175 4231 2741 4231 
Q 1884 4231 1454 3753 
Q 1025 3275 1025 2328 
Q 1025 1384 1454 906 
Q 1884 428 2741 428 
Q 3075 428 3337 486 
Q 3600 544 3809 666 
z
" transform="scale(0.015625)"/>
       <path id="DejaVuSans-6f" d="M 1959 3097 
Q 1497 3097 1228 2736 
Q 959 2375 959 1747 
Q 959 1119 1226 758 
Q 1494 397 1959 397 
Q 2419 397 2687 759 
Q 2956 1122 2956 1747 
Q 2956 2369 2687 2733 
Q 2419 3097 1959 3097 
z
M 1959 3584 
Q 2709 3584 3137 3096 
Q 3566 2609 3566 1747 
Q 3566 888 3137 398 
Q 2709 -91 1959 -91 
Q 1206 -91 779 398 
Q 353 888 353 1747 
Q 353 2609 779 3096 
Q 1206 3584 1959 3584 
z
" transform="scale(0.015625)"/>
       <path id="DejaVuSans-75" d="M 544 1381 
L 544 3500 
L 1119 3500 
L 1119 1403 
Q 1119 906 1312 657 
Q 1506 409 1894 409 
Q 2359 409 2629 706 
Q 2900 1003 2900 1516 
L 2900 3500 
L 3475 3500 
L 3475 0 
L 2900 0 
L 2900 538 
Q 2691 219 2414 64 
Q 2138 -91 1772 -91 
Q 1169 -91 856 284 
Q 544 659 544 1381 
z
M 1991 3584 
L 1991 3584 
z
" transform="scale(0.015625)"/>
       <path id="DejaVuSans-6e" d="M 3513 2113 
L 3513 0 
L 2938 0 
L 2938 2094 
Q 2938 2591 2744 2837 
Q 2550 3084 2163 3084 
Q 1697 3084 1428 2787 
Q 1159 2491 1159 1978 
L 1159 0 
L 581 0 
L 581 3500 
L 1159 3500 
L 1159 2956 
Q 1366 3272 1645 3428 
Q 1925 3584 2291 3584 
Q 2894 3584 3203 3211 
Q 3513 2838 3513 2113 
z
" transform="scale(0.015625)"/>
       <path id="DejaVuSans-64" d="M 2906 2969 
L 2906 4863 
L 3481 4863 
L 3481 0 
L 2906 0 
L 2906 525 
Q 2725 213 2448 61 
Q 2172 -91 1784 -91 
Q 1150 -91 751 415 
Q 353 922 353 1747 
Q 353 2572 751 3078 
Q 1150 3584 1784 3584 
Q 2172 3584 2448 3432 
Q 2725 3281 2906 2969 
z
M 947 1747 
Q 947 1113 1208 752 
Q 1469 391 1925 391 
Q 2381 391 2643 752 
Q 2906 1113 2906 1747 
Q 2906 2381 2643 2742 
Q 2381 3103 1925 3103 
Q 1469 3103 1208 2742 
Q 947 2381 947 1747 
z
" transform="scale(0.015625)"/>
       <path id="DejaVuSans-54" d="M -19 4666 
L 3928 4666 
L 3928 4134 
L 2272 4134 
L 2272 0 
L 1638 0 
L 1638 4134 
L -19 4134 
L -19 4666 
z
" transform="scale(0.015625)"/>
       <path id="DejaVuSans-68" d="M 3513 2113 
L 3513 0 
L 2938 0 
L 2938 2094 
Q 2938 2591 2744 2837 
Q 2550 3084 2163 3084 
Q 1697 3084 1428 2787 
Q 1159 2491 1159 1978 
L 1159 0 
L 581 0 
L 581 4863 
L 1159 4863 
L 1159 2956 
Q 1366 3272 1645 3428 
Q 1925 3584 2291 3584 
Q 2894 3584 3203 3211 
Q 3513 2838 3513 2113 
z
" transform="scale(0.015625)"/>
      </defs>
      <use xlink:href="#DejaVuSans-47"/>
      <use xlink:href="#DejaVuSans-72" x="77.490234"/>
      <use xlink:href="#DejaVuSans-6f" x="116.353516"/>
      <use xlink:href="#DejaVuSans-75" x="177.535156"/>
      <use xlink:href="#DejaVuSans-6e" x="240.914062"/>
      <use xlink:href="#DejaVuSans-64" x="304.292969"/>
      <use xlink:href="#DejaVuSans-54" x="367.769531"/>
      <use xlink:href="#DejaVuSans-72" x="414.103516"/>
      <use xlink:href="#DejaVuSans-75" x="455.216797"/>
      <use xlink:href="#DejaVuSans-74" x="518.595703"/>
      <use xlink:href="#DejaVuSans-68" x="557.804688"/>
     </g>
    </g>
    <g id="line2d_33">
     <path d="M 753.76875 194.550975 
L 783.76875 194.550975 
L 813.76875 194.550975 
" style="fill: none; stroke: #00ff00; stroke-width: 2; stroke-linecap: square"/>
    </g>
    <g id="text_19">
     <!-- ROLO -->
     <g transform="translate(829.76875 201.550975) scale(0.2 -0.2)">
      <defs>
       <path id="DejaVuSans-52" d="M 2841 2188 
Q 3044 2119 3236 1894 
Q 3428 1669 3622 1275 
L 4263 0 
L 3584 0 
L 2988 1197 
Q 2756 1666 2539 1819 
Q 2322 1972 1947 1972 
L 1259 1972 
L 1259 0 
L 628 0 
L 628 4666 
L 2053 4666 
Q 2853 4666 3247 4331 
Q 3641 3997 3641 3322 
Q 3641 2881 3436 2590 
Q 3231 2300 2841 2188 
z
M 1259 4147 
L 1259 2491 
L 2053 2491 
Q 2509 2491 2742 2702 
Q 2975 2913 2975 3322 
Q 2975 3731 2742 3939 
Q 2509 4147 2053 4147 
L 1259 4147 
z
" transform="scale(0.015625)"/>
       <path id="DejaVuSans-4f" d="M 2522 4238 
Q 1834 4238 1429 3725 
Q 1025 3213 1025 2328 
Q 1025 1447 1429 934 
Q 1834 422 2522 422 
Q 3209 422 3611 934 
Q 4013 1447 4013 2328 
Q 4013 3213 3611 3725 
Q 3209 4238 2522 4238 
z
M 2522 4750 
Q 3503 4750 4090 4092 
Q 4678 3434 4678 2328 
Q 4678 1225 4090 567 
Q 3503 -91 2522 -91 
Q 1538 -91 948 565 
Q 359 1222 359 2328 
Q 359 3434 948 4092 
Q 1538 4750 2522 4750 
z
" transform="scale(0.015625)"/>
       <path id="DejaVuSans-4c" d="M 628 4666 
L 1259 4666 
L 1259 531 
L 3531 531 
L 3531 0 
L 628 0 
L 628 4666 
z
" transform="scale(0.015625)"/>
      </defs>
      <use xlink:href="#DejaVuSans-52"/>
      <use xlink:href="#DejaVuSans-4f" x="69.482422"/>
      <use xlink:href="#DejaVuSans-4c" x="148.193359"/>
      <use xlink:href="#DejaVuSans-4f" x="200.28125"/>
     </g>
    </g>
    <g id="line2d_34">
     <path d="M 753.76875 223.907225 
L 783.76875 223.907225 
L 813.76875 223.907225 
" style="fill: none; stroke: #0000ff; stroke-width: 2; stroke-linecap: square"/>
    </g>
    <g id="text_20">
     <!-- ROLO+LC -->
     <g transform="translate(829.76875 230.907225) scale(0.2 -0.2)">
      <defs>
       <path id="DejaVuSans-2b" d="M 2944 4013 
L 2944 2272 
L 4684 2272 
L 4684 1741 
L 2944 1741 
L 2944 0 
L 2419 0 
L 2419 1741 
L 678 1741 
L 678 2272 
L 2419 2272 
L 2419 4013 
L 2944 4013 
z
" transform="scale(0.015625)"/>
       <path id="DejaVuSans-43" d="M 4122 4306 
L 4122 3641 
Q 3803 3938 3442 4084 
Q 3081 4231 2675 4231 
Q 1875 4231 1450 3742 
Q 1025 3253 1025 2328 
Q 1025 1406 1450 917 
Q 1875 428 2675 428 
Q 3081 428 3442 575 
Q 3803 722 4122 1019 
L 4122 359 
Q 3791 134 3420 21 
Q 3050 -91 2638 -91 
Q 1578 -91 968 557 
Q 359 1206 359 2328 
Q 359 3453 968 4101 
Q 1578 4750 2638 4750 
Q 3056 4750 3426 4639 
Q 3797 4528 4122 4306 
z
" transform="scale(0.015625)"/>
      </defs>
      <use xlink:href="#DejaVuSans-52"/>
      <use xlink:href="#DejaVuSans-4f" x="69.482422"/>
      <use xlink:href="#DejaVuSans-4c" x="148.193359"/>
      <use xlink:href="#DejaVuSans-4f" x="200.28125"/>
      <use xlink:href="#DejaVuSans-2b" x="278.992188"/>
      <use xlink:href="#DejaVuSans-4c" x="362.78125"/>
      <use xlink:href="#DejaVuSans-43" x="418.494141"/>
     </g>
    </g>
   </g>
  </g>
 </g>
 <defs>
  <clipPath id="p98a15f3559">
   <rect x="135" y="109.6416" width="837" height="703.5336"/>
  </clipPath>
 </defs>
</svg>
