<?xml version="1.0" encoding="utf-8" standalone="no"?>
<!DOCTYPE svg PUBLIC "-//W3C//DTD SVG 1.1//EN"
  "http://www.w3.org/Graphics/SVG/1.1/DTD/svg11.dtd">
<svg xmlns:xlink="http://www.w3.org/1999/xlink" width="1080pt" height="913.68pt" viewBox="0 0 1080 913.68" xmlns="http://www.w3.org/2000/svg" version="1.1">
 <metadata>
  <rdf:RDF xmlns:dc="http://purl.org/dc/elements/1.1/" xmlns:cc="http://creativecommons.org/ns#" xmlns:rdf="http://www.w3.org/1999/02/22-rdf-syntax-ns#">
   <cc:Work>
    <dc:type rdf:resource="http://purl.org/dc/dcmitype/StillImage"/>
    <dc:date>2024-03-12T15:20:27.723591</dc:date>
    <dc:format>image/svg+xml</dc:format>
    <dc:creator>
     <cc:Agent>
      <dc:title>Matplotlib v3.7.0, https://matplotlib.org/</dc:title>
     </cc:Agent>
    </dc:creator>
   </cc:Work>
  </rdf:RDF>
 </metadata>
 <defs>
  <style type="text/css">*{stroke-linejoin: round; stroke-linecap: butt}</style>
 </defs>
 <g id="figure_1">
  <g id="patch_1">
   <path d="M 0 913.68 
L 1080 913.68 
L 1080 0 
L 0 0 
z
" style="fill: #ffffff"/>
  </g>
  <g id="axes_1">
   <g id="patch_2">
    <path d="M 135 813.1752 
L 972 813.1752 
L 972 109.6416 
L 135 109.6416 
z
" style="fill: #ffffff"/>
   </g>
   <g id="matplotlib.axis_1">
    <g id="xtick_1">
     <g id="line2d_1">
      <path d="M 268.360626 813.1752 
L 268.360626 109.6416 
" clip-path="url(#p8cecd4df1c)" style="fill: none; stroke: #b0b0b0; stroke-width: 0.8; stroke-linecap: square"/>
     </g>
     <g id="line2d_2">
      <defs>
       <path id="mbca1d783c3" d="M 0 0 
L 0 -5 
" style="stroke: #000000; stroke-width: 0.8"/>
      </defs>
      <g>
       <use xlink:href="#mbca1d783c3" x="268.360626" y="813.1752" style="stroke: #000000; stroke-width: 0.8"/>
      </g>
     </g>
     <g id="text_1">
      <!-- 0 -->
      <g transform="translate(258.816876 839.470512) scale(0.3 -0.3)">
       <defs>
        <path id="DejaVuSans-30" d="M 2034 4250 
Q 1547 4250 1301 3770 
Q 1056 3291 1056 2328 
Q 1056 1369 1301 889 
Q 1547 409 2034 409 
Q 2525 409 2770 889 
Q 3016 1369 3016 2328 
Q 3016 3291 2770 3770 
Q 2525 4250 2034 4250 
z
M 2034 4750 
Q 2819 4750 3233 4129 
Q 3647 3509 3647 2328 
Q 3647 1150 3233 529 
Q 2819 -91 2034 -91 
Q 1250 -91 836 529 
Q 422 1150 422 2328 
Q 422 3509 836 4129 
Q 1250 4750 2034 4750 
z
" transform="scale(0.015625)"/>
       </defs>
       <use xlink:href="#DejaVuSans-30"/>
      </g>
     </g>
    </g>
    <g id="xtick_2">
     <g id="line2d_3">
      <path d="M 448.451463 813.1752 
L 448.451463 109.6416 
" clip-path="url(#p8cecd4df1c)" style="fill: none; stroke: #b0b0b0; stroke-width: 0.8; stroke-linecap: square"/>
     </g>
     <g id="line2d_4">
      <g>
       <use xlink:href="#mbca1d783c3" x="448.451463" y="813.1752" style="stroke: #000000; stroke-width: 0.8"/>
      </g>
     </g>
     <g id="text_2">
      <!-- 100 -->
      <g transform="translate(419.820213 839.470512) scale(0.3 -0.3)">
       <defs>
        <path id="DejaVuSans-31" d="M 794 531 
L 1825 531 
L 1825 4091 
L 703 3866 
L 703 4441 
L 1819 4666 
L 2450 4666 
L 2450 531 
L 3481 531 
L 3481 0 
L 794 0 
L 794 531 
z
" transform="scale(0.015625)"/>
       </defs>
       <use xlink:href="#DejaVuSans-31"/>
       <use xlink:href="#DejaVuSans-30" x="63.623047"/>
       <use xlink:href="#DejaVuSans-30" x="127.246094"/>
      </g>
     </g>
    </g>
    <g id="xtick_3">
     <g id="line2d_5">
      <path d="M 628.5423 813.1752 
L 628.5423 109.6416 
" clip-path="url(#p8cecd4df1c)" style="fill: none; stroke: #b0b0b0; stroke-width: 0.8; stroke-linecap: square"/>
     </g>
     <g id="line2d_6">
      <g>
       <use xlink:href="#mbca1d783c3" x="628.5423" y="813.1752" style="stroke: #000000; stroke-width: 0.8"/>
      </g>
     </g>
     <g id="text_3">
      <!-- 200 -->
      <g transform="translate(599.91105 839.470512) scale(0.3 -0.3)">
       <defs>
        <path id="DejaVuSans-32" d="M 1228 531 
L 3431 531 
L 3431 0 
L 469 0 
L 469 531 
Q 828 903 1448 1529 
Q 2069 2156 2228 2338 
Q 2531 2678 2651 2914 
Q 2772 3150 2772 3378 
Q 2772 3750 2511 3984 
Q 2250 4219 1831 4219 
Q 1534 4219 1204 4116 
Q 875 4013 500 3803 
L 500 4441 
Q 881 4594 1212 4672 
Q 1544 4750 1819 4750 
Q 2544 4750 2975 4387 
Q 3406 4025 3406 3419 
Q 3406 3131 3298 2873 
Q 3191 2616 2906 2266 
Q 2828 2175 2409 1742 
Q 1991 1309 1228 531 
z
" transform="scale(0.015625)"/>
       </defs>
       <use xlink:href="#DejaVuSans-32"/>
       <use xlink:href="#DejaVuSans-30" x="63.623047"/>
       <use xlink:href="#DejaVuSans-30" x="127.246094"/>
      </g>
     </g>
    </g>
    <g id="xtick_4">
     <g id="line2d_7">
      <path d="M 808.633138 813.1752 
L 808.633138 109.6416 
" clip-path="url(#p8cecd4df1c)" style="fill: none; stroke: #b0b0b0; stroke-width: 0.8; stroke-linecap: square"/>
     </g>
     <g id="line2d_8">
      <g>
       <use xlink:href="#mbca1d783c3" x="808.633138" y="813.1752" style="stroke: #000000; stroke-width: 0.8"/>
      </g>
     </g>
     <g id="text_4">
      <!-- 300 -->
      <g transform="translate(780.001888 839.470512) scale(0.3 -0.3)">
       <defs>
        <path id="DejaVuSans-33" d="M 2597 2516 
Q 3050 2419 3304 2112 
Q 3559 1806 3559 1356 
Q 3559 666 3084 287 
Q 2609 -91 1734 -91 
Q 1441 -91 1130 -33 
Q 819 25 488 141 
L 488 750 
Q 750 597 1062 519 
Q 1375 441 1716 441 
Q 2309 441 2620 675 
Q 2931 909 2931 1356 
Q 2931 1769 2642 2001 
Q 2353 2234 1838 2234 
L 1294 2234 
L 1294 2753 
L 1863 2753 
Q 2328 2753 2575 2939 
Q 2822 3125 2822 3475 
Q 2822 3834 2567 4026 
Q 2313 4219 1838 4219 
Q 1578 4219 1281 4162 
Q 984 4106 628 3988 
L 628 4550 
Q 988 4650 1302 4700 
Q 1616 4750 1894 4750 
Q 2613 4750 3031 4423 
Q 3450 4097 3450 3541 
Q 3450 3153 3228 2886 
Q 3006 2619 2597 2516 
z
" transform="scale(0.015625)"/>
       </defs>
       <use xlink:href="#DejaVuSans-33"/>
       <use xlink:href="#DejaVuSans-30" x="63.623047"/>
       <use xlink:href="#DejaVuSans-30" x="127.246094"/>
      </g>
     </g>
    </g>
    <g id="text_5">
     <!-- X (m) -->
     <g transform="translate(511.221094 874.0127) scale(0.35 -0.35)">
      <defs>
       <path id="TimesNewRomanPSMT-58" d="M 2613 2347 
L 3522 991 
Q 3900 428 4083 279 
Q 4266 131 4547 116 
L 4547 0 
L 2728 0 
L 2728 116 
Q 2909 119 2997 153 
Q 3063 181 3105 239 
Q 3147 297 3147 356 
Q 3147 428 3119 500 
Q 3097 553 2947 775 
L 2228 1863 
L 1341 725 
Q 1200 544 1172 483 
Q 1144 422 1144 356 
Q 1144 256 1228 190 
Q 1313 125 1550 116 
L 1550 0 
L 47 0 
L 47 116 
Q 206 131 322 181 
Q 516 263 691 400 
Q 866 538 1091 822 
L 2091 2084 
L 1256 3306 
Q 916 3803 678 3958 
Q 441 4113 131 4122 
L 131 4238 
L 2091 4238 
L 2091 4122 
Q 1841 4113 1748 4041 
Q 1656 3969 1656 3881 
Q 1656 3766 1806 3544 
L 2456 2572 
L 3209 3525 
Q 3341 3694 3370 3756 
Q 3400 3819 3400 3884 
Q 3400 3950 3363 4000 
Q 3316 4066 3244 4092 
Q 3172 4119 2947 4122 
L 2947 4238 
L 4450 4238 
L 4450 4122 
Q 4272 4113 4159 4066 
Q 3991 3994 3850 3872 
Q 3709 3750 3453 3422 
L 2613 2347 
z
" transform="scale(0.015625)"/>
       <path id="TimesNewRomanPSMT-20" transform="scale(0.015625)"/>
       <path id="TimesNewRomanPSMT-28" d="M 1988 -1253 
L 1988 -1369 
Q 1516 -1131 1200 -813 
Q 750 -359 506 256 
Q 263 872 263 1534 
Q 263 2503 741 3301 
Q 1219 4100 1988 4444 
L 1988 4313 
Q 1603 4100 1356 3731 
Q 1109 3363 987 2797 
Q 866 2231 866 1616 
Q 866 947 969 400 
Q 1050 -31 1165 -292 
Q 1281 -553 1476 -793 
Q 1672 -1034 1988 -1253 
z
" transform="scale(0.015625)"/>
       <path id="TimesNewRomanPSMT-6d" d="M 1050 2338 
Q 1363 2650 1419 2697 
Q 1559 2816 1721 2881 
Q 1884 2947 2044 2947 
Q 2313 2947 2506 2790 
Q 2700 2634 2766 2338 
Q 3088 2713 3309 2830 
Q 3531 2947 3766 2947 
Q 3994 2947 4170 2830 
Q 4347 2713 4450 2447 
Q 4519 2266 4519 1878 
L 4519 647 
Q 4519 378 4559 278 
Q 4591 209 4675 161 
Q 4759 113 4950 113 
L 4950 0 
L 3538 0 
L 3538 113 
L 3597 113 
Q 3781 113 3884 184 
Q 3956 234 3988 344 
Q 4000 397 4000 647 
L 4000 1878 
Q 4000 2228 3916 2372 
Q 3794 2572 3525 2572 
Q 3359 2572 3192 2489 
Q 3025 2406 2788 2181 
L 2781 2147 
L 2788 2013 
L 2788 647 
Q 2788 353 2820 281 
Q 2853 209 2943 161 
Q 3034 113 3253 113 
L 3253 0 
L 1806 0 
L 1806 113 
Q 2044 113 2133 169 
Q 2222 225 2256 338 
Q 2272 391 2272 647 
L 2272 1878 
Q 2272 2228 2169 2381 
Q 2031 2581 1784 2581 
Q 1616 2581 1450 2491 
Q 1191 2353 1050 2181 
L 1050 647 
Q 1050 366 1089 281 
Q 1128 197 1204 155 
Q 1281 113 1516 113 
L 1516 0 
L 100 0 
L 100 113 
Q 297 113 375 155 
Q 453 197 493 289 
Q 534 381 534 647 
L 534 1741 
Q 534 2213 506 2350 
Q 484 2453 437 2492 
Q 391 2531 309 2531 
Q 222 2531 100 2484 
L 53 2597 
L 916 2947 
L 1050 2947 
L 1050 2338 
z
" transform="scale(0.015625)"/>
       <path id="TimesNewRomanPSMT-29" d="M 144 4313 
L 144 4444 
Q 619 4209 934 3891 
Q 1381 3434 1625 2820 
Q 1869 2206 1869 1541 
Q 1869 572 1392 -226 
Q 916 -1025 144 -1369 
L 144 -1253 
Q 528 -1038 776 -670 
Q 1025 -303 1145 264 
Q 1266 831 1266 1447 
Q 1266 2113 1163 2663 
Q 1084 3094 967 3353 
Q 850 3613 656 3853 
Q 463 4094 144 4313 
z
" transform="scale(0.015625)"/>
      </defs>
      <use xlink:href="#TimesNewRomanPSMT-58"/>
      <use xlink:href="#TimesNewRomanPSMT-20" x="72.216797"/>
      <use xlink:href="#TimesNewRomanPSMT-28" x="97.216797"/>
      <use xlink:href="#TimesNewRomanPSMT-6d" x="130.517578"/>
      <use xlink:href="#TimesNewRomanPSMT-29" x="208.300781"/>
     </g>
    </g>
   </g>
   <g id="matplotlib.axis_2">
    <g id="ytick_1">
     <g id="line2d_9">
      <path d="M 135 745.577407 
L 972 745.577407 
" clip-path="url(#p8cecd4df1c)" style="fill: none; stroke: #b0b0b0; stroke-width: 0.8; stroke-linecap: square"/>
     </g>
     <g id="line2d_10">
      <defs>
       <path id="m97e025914a" d="M 0 0 
L 5 0 
" style="stroke: #000000; stroke-width: 0.8"/>
      </defs>
      <g>
       <use xlink:href="#m97e025914a" x="135" y="745.577407" style="stroke: #000000; stroke-width: 0.8"/>
      </g>
     </g>
     <g id="text_6">
      <!-- −200 -->
      <g transform="translate(49.098438 756.975063) scale(0.3 -0.3)">
       <defs>
        <path id="DejaVuSans-2212" d="M 678 2272 
L 4684 2272 
L 4684 1741 
L 678 1741 
L 678 2272 
z
" transform="scale(0.015625)"/>
       </defs>
       <use xlink:href="#DejaVuSans-2212"/>
       <use xlink:href="#DejaVuSans-32" x="83.789062"/>
       <use xlink:href="#DejaVuSans-30" x="147.412109"/>
       <use xlink:href="#DejaVuSans-30" x="211.035156"/>
      </g>
     </g>
    </g>
    <g id="ytick_2">
     <g id="line2d_11">
      <path d="M 135 614.560606 
L 972 614.560606 
" clip-path="url(#p8cecd4df1c)" style="fill: none; stroke: #b0b0b0; stroke-width: 0.8; stroke-linecap: square"/>
     </g>
     <g id="line2d_12">
      <g>
       <use xlink:href="#m97e025914a" x="135" y="614.560606" style="stroke: #000000; stroke-width: 0.8"/>
      </g>
     </g>
     <g id="text_7">
      <!-- −100 -->
      <g transform="translate(49.098438 625.958262) scale(0.3 -0.3)">
       <use xlink:href="#DejaVuSans-2212"/>
       <use xlink:href="#DejaVuSans-31" x="83.789062"/>
       <use xlink:href="#DejaVuSans-30" x="147.412109"/>
       <use xlink:href="#DejaVuSans-30" x="211.035156"/>
      </g>
     </g>
    </g>
    <g id="ytick_3">
     <g id="line2d_13">
      <path d="M 135 483.543805 
L 972 483.543805 
" clip-path="url(#p8cecd4df1c)" style="fill: none; stroke: #b0b0b0; stroke-width: 0.8; stroke-linecap: square"/>
     </g>
     <g id="line2d_14">
      <g>
       <use xlink:href="#m97e025914a" x="135" y="483.543805" style="stroke: #000000; stroke-width: 0.8"/>
      </g>
     </g>
     <g id="text_8">
      <!-- 0 -->
      <g transform="translate(112.4125 494.941461) scale(0.3 -0.3)">
       <use xlink:href="#DejaVuSans-30"/>
      </g>
     </g>
    </g>
    <g id="ytick_4">
     <g id="line2d_15">
      <path d="M 135 352.527004 
L 972 352.527004 
" clip-path="url(#p8cecd4df1c)" style="fill: none; stroke: #b0b0b0; stroke-width: 0.8; stroke-linecap: square"/>
     </g>
     <g id="line2d_16">
      <g>
       <use xlink:href="#m97e025914a" x="135" y="352.527004" style="stroke: #000000; stroke-width: 0.8"/>
      </g>
     </g>
     <g id="text_9">
      <!-- 100 -->
      <g transform="translate(74.2375 363.92466) scale(0.3 -0.3)">
       <use xlink:href="#DejaVuSans-31"/>
       <use xlink:href="#DejaVuSans-30" x="63.623047"/>
       <use xlink:href="#DejaVuSans-30" x="127.246094"/>
      </g>
     </g>
    </g>
    <g id="ytick_5">
     <g id="line2d_17">
      <path d="M 135 221.510203 
L 972 221.510203 
" clip-path="url(#p8cecd4df1c)" style="fill: none; stroke: #b0b0b0; stroke-width: 0.8; stroke-linecap: square"/>
     </g>
     <g id="line2d_18">
      <g>
       <use xlink:href="#m97e025914a" x="135" y="221.510203" style="stroke: #000000; stroke-width: 0.8"/>
      </g>
     </g>
     <g id="text_10">
      <!-- 200 -->
      <g transform="translate(74.2375 232.907859) scale(0.3 -0.3)">
       <use xlink:href="#DejaVuSans-32"/>
       <use xlink:href="#DejaVuSans-30" x="63.623047"/>
       <use xlink:href="#DejaVuSans-30" x="127.246094"/>
      </g>
     </g>
    </g>
    <g id="text_11">
     <!-- Y (m) -->
     <g transform="translate(37.611719 503.031056) rotate(-90) scale(0.35 -0.35)">
      <defs>
       <path id="TimesNewRomanPSMT-59" d="M 3050 4238 
L 4528 4238 
L 4528 4122 
L 4447 4122 
Q 4366 4122 4209 4050 
Q 4053 3978 3925 3843 
Q 3797 3709 3609 3406 
L 2588 1797 
L 2588 734 
Q 2588 344 2675 247 
Q 2794 116 3050 116 
L 3188 116 
L 3188 0 
L 1388 0 
L 1388 116 
L 1538 116 
Q 1806 116 1919 278 
Q 1988 378 1988 734 
L 1988 1738 
L 825 3513 
Q 619 3825 545 3903 
Q 472 3981 241 4091 
Q 178 4122 59 4122 
L 59 4238 
L 1872 4238 
L 1872 4122 
L 1778 4122 
Q 1631 4122 1507 4053 
Q 1384 3984 1384 3847 
Q 1384 3734 1575 3441 
L 2459 2075 
L 3291 3381 
Q 3478 3675 3478 3819 
Q 3478 3906 3433 3975 
Q 3388 4044 3303 4083 
Q 3219 4122 3050 4122 
L 3050 4238 
z
" transform="scale(0.015625)"/>
      </defs>
      <use xlink:href="#TimesNewRomanPSMT-59"/>
      <use xlink:href="#TimesNewRomanPSMT-20" x="68.466797"/>
      <use xlink:href="#TimesNewRomanPSMT-28" x="93.466797"/>
      <use xlink:href="#TimesNewRomanPSMT-6d" x="126.767578"/>
      <use xlink:href="#TimesNewRomanPSMT-29" x="204.550781"/>
     </g>
    </g>
   </g>
   <g id="line2d_19">
    <defs>
     <path id="md8f0263009" d="M 0 -3 
L -0.673542 -0.927051 
L -2.85317 -0.927051 
L -1.089814 0.354102 
L -1.763356 2.427051 
L -0 1.145898 
L 1.763356 2.427051 
L 1.089814 0.354102 
L 2.85317 -0.927051 
L 0.673542 -0.927051 
z
" style="stroke: #ff0000; stroke-linejoin: bevel"/>
    </defs>
    <g clip-path="url(#p8cecd4df1c)">
     <use xlink:href="#md8f0263009" x="268.360626" y="483.543805" style="fill: #ff0000; stroke: #ff0000; stroke-linejoin: bevel"/>
    </g>
   </g>
   <g id="line2d_20">
    <path d="M 268.360626 483.543805 
L 268.242078 483.539569 
L 268.485837 483.535146 
L 268.382129 483.608323 
" clip-path="url(#p8cecd4df1c)" style="fill: none; stroke: #00ff00; stroke-width: 2; stroke-linecap: square"/>
   </g>
   <g id="line2d_21">
    <path d="M 268.360626 483.543805 
L 292.321832 483.21109 
L 352.566876 481.907519 
L 387.623055 481.101964 
L 411.047698 480.571788 
L 435.9611 479.838317 
L 450.761155 479.049412 
L 454.216688 478.9392 
L 457.235011 479.016156 
L 459.989909 479.366782 
L 462.473091 480.004668 
L 464.196591 480.707263 
L 466.11407 481.84837 
L 467.335899 482.944216 
L 468.334265 484.181779 
L 469.09882 485.618048 
L 469.446608 486.641556 
L 469.769026 488.362655 
L 470.043021 490.928225 
L 469.412199 518.159375 
L 469.115832 527.925883 
L 468.77609 536.231169 
L 467.623566 554.654423 
L 466.733178 561.917455 
L 465.575502 569.656962 
L 462.995018 585.642345 
L 459.471667 605.442868 
L 458.218843 613.350086 
L 458.218843 613.350086 
L 456.887842 622.060205 
L 455.667224 629.353079 
L 454.269051 636.397156 
L 454.269051 636.397156 
L 452.287566 645.135968 
L 450.988974 649.83494 
L 450.037398 652.588356 
L 448.556147 656.216298 
L 442.529791 670.664291 
L 441.38725 673.831809 
L 440.188022 677.638631 
L 439.484027 680.630469 
L 439.283599 682.108546 
L 439.156358 684.308706 
L 439.016603 690.079183 
L 438.587795 692.83655 
L 437.943129 695.477001 
L 436.748873 699.271565 
L 435.051974 704.26406 
L 432.494575 710.533326 
L 429.988781 716.307111 
L 427.460887 722.752123 
L 426.869634 724.8992 
L 426.869634 724.8992 
L 426.612153 726.963212 
L 426.694081 728.473209 
L 426.927479 729.958898 
L 427.384834 731.382455 
L 427.831035 732.341655 
L 428.774546 733.730146 
L 429.586112 734.738807 
L 431.124999 736.128057 
L 432.446822 737.090275 
L 434.700244 738.400262 
L 436.495493 739.254333 
L 437.477711 739.688757 
L 437.477711 739.688757 
L 442.925202 741.67448 
L 446.645456 742.804488 
L 453.505929 744.519002 
L 504.282568 757.065956 
L 504.282568 757.065956 
L 517.590898 759.969893 
L 530.448524 762.405304 
L 530.448524 762.405304 
L 533.577283 762.718893 
L 535.842412 762.744714 
L 538.031666 762.52825 
L 540.128002 762.067156 
L 542.008933 761.409873 
L 543.127 760.843623 
L 545.054071 759.518005 
L 546.153276 758.320646 
L 546.939919 756.990917 
L 547.483625 755.59066 
L 548.027447 753.595769 
L 548.49609 747.9913 
L 548.215771 741.360142 
L 548.141971 738.471734 
L 548.256357 734.289216 
L 548.773923 728.652683 
L 549.448179 724.038687 
L 553.464728 699.546099 
L 557.180771 678.795397 
L 559.911794 664.399556 
L 561.00156 656.891386 
L 562.735588 644.055796 
L 565.155728 624.919201 
L 568.175543 602.117166 
L 572.685277 573.907015 
L 574.002952 563.459151 
L 575.806926 547.77047 
L 575.806926 547.77047 
L 576.516815 540.105828 
L 577.770883 524.179478 
L 579.380682 500.910805 
L 580.206429 493.767953 
L 580.75526 490.526702 
L 581.476566 487.699178 
L 582.178522 485.777367 
L 582.811919 484.493763 
L 583.890183 482.884278 
L 585.205983 481.471268 
L 586.822109 480.180374 
L 588.919303 479.031088 
L 590.882434 478.235256 
L 593.899129 477.368109 
L 596.668477 476.876063 
L 599.732298 476.601509 
L 605.451587 476.522722 
L 623.26315 476.626989 
L 623.26315 476.626989 
L 649.742493 476.25294 
L 677.351826 475.610008 
L 679.600769 475.825168 
L 681.72343 476.25526 
L 683.066126 476.64492 
L 683.066126 476.64492 
L 685.520519 477.576769 
L 687.16817 478.529984 
L 689.230622 480.000529 
L 690.085055 480.940043 
L 691.514947 483.026335 
L 692.015301 484.202082 
L 692.598278 486.187466 
L 692.982423 488.354019 
L 692.982423 488.354019 
L 693.159237 490.724264 
L 693.074527 495.108897 
L 691.93483 512.55438 
L 691.644884 523.422807 
L 691.228999 535.264814 
L 690.433509 549.588796 
L 689.454221 566.885035 
L 689.241465 571.436467 
L 688.873691 578.338291 
L 688.487102 584.964015 
L 688.013684 590.001179 
L 687.046163 596.407221 
L 685.818935 602.53362 
L 683.226003 615.400674 
L 682.262487 621.839003 
L 679.331705 645.353319 
L 676.846162 671.52219 
L 676.072152 676.358789 
L 675.057653 681.201041 
L 674.437739 683.61317 
L 674.437739 683.61317 
L 672.964937 688.439568 
L 672.964937 688.439568 
L 669.909225 696.857592 
L 668.251187 701.68433 
L 666.81969 706.486169 
L 664.755444 714.817376 
L 659.485568 736.960584 
L 657.697784 745.935362 
L 656.197157 754.221513 
L 654.953006 760.611624 
L 654.953006 760.611624 
L 654.055103 763.922101 
L 652.971616 767.009966 
L 651.732072 769.423033 
L 650.526243 771.206843 
L 649.301912 772.58258 
L 647.74744 773.99885 
L 645.891742 775.365 
L 643.753537 776.609537 
L 643.753537 776.609537 
L 640.300225 778.147336 
L 636.325489 779.38846 
L 634.176052 779.842415 
L 630.701074 780.350824 
L 627.102037 780.548838 
L 623.411255 780.452418 
L 619.527256 780.149569 
L 614.232418 779.458311 
L 610.133987 778.73624 
L 603.281828 777.15182 
L 603.281828 777.15182 
L 593.384732 774.437225 
L 583.399544 771.764827 
L 575.002542 769.829577 
L 562.06772 767.047558 
L 557.184662 765.82272 
L 553.702844 764.656755 
L 551.443328 763.6211 
L 549.501767 762.366865 
L 548.360575 761.441037 
L 547.382181 760.474696 
L 546.228101 758.839981 
L 545.87259 758.300671 
L 545.188637 756.466657 
L 544.870146 755.210035 
L 544.648033 752.436257 
L 544.658889 750.202836 
L 544.658889 750.202836 
L 544.8959 746.96775 
L 544.8959 746.96775 
L 545.276487 744.353957 
L 548.213658 726.628222 
L 549.753552 719.412889 
L 550.766216 714.487705 
L 554.268946 694.88685 
L 556.433492 682.784781 
L 559.155247 669.118353 
L 560.231488 662.64167 
L 562.221524 647.678333 
L 567.323243 608.558414 
L 568.803891 600.110665 
L 571.896208 582.874532 
L 572.978372 575.447294 
L 573.788589 569.409317 
L 574.856001 560.241894 
L 577.049107 536.305963 
L 577.049107 536.305963 
L 577.782665 525.318269 
L 578.685554 509.187445 
L 579.302346 505.214625 
L 580.131725 501.479753 
L 580.131725 501.479753 
L 582.15609 493.298542 
L 582.868633 489.580929 
L 583.525259 485.042081 
L 583.953788 480.008597 
L 583.953788 480.008597 
L 584.34452 474.112741 
L 584.578098 471.044148 
L 584.866939 466.608085 
L 586.492436 430.305584 
L 586.492436 430.305584 
L 587.164229 416.43225 
L 588.17645 395.496478 
L 588.52378 387.060366 
L 588.52378 387.060366 
L 588.836862 377.164324 
L 588.998859 364.327546 
L 588.886193 355.717892 
L 588.886193 355.717892 
L 588.480695 344.177728 
L 587.89619 334.019715 
L 586.352537 311.934743 
L 580.463653 236.309885 
L 579.177815 221.804423 
L 578.334605 216.03124 
L 578.334605 216.03124 
L 577.479719 211.534059 
L 575.390764 200.83598 
L 574.980355 196.904258 
L 574.848602 193.219169 
L 575.011037 189.765488 
L 575.011037 189.765488 
L 575.20485 188.133718 
L 575.20485 188.133718 
L 576.107637 183.637012 
L 577.971933 176.296581 
L 578.103268 174.324117 
L 578.103268 174.324117 
L 578.048337 173.445688 
L 577.604146 171.784454 
L 577.265131 170.998952 
L 576.620938 169.911638 
L 575.568326 168.572452 
L 574.337873 167.387397 
L 571.938381 165.357892 
L 569.897086 163.935897 
L 568.479355 163.129402 
L 565.638355 161.928377 
L 562.008551 160.930107 
L 552.848321 159.250572 
L 548.902479 158.754241 
L 538.126003 157.869027 
L 519.185887 156.570368 
L 495.930021 155.260237 
L 481.185033 154.668112 
L 464.534939 154.076663 
L 446.113045 153.592898 
L 432.082514 153.204596 
L 432.082514 153.204596 
L 406.436552 152.047988 
L 388.937954 151.222326 
L 377.489982 150.794013 
L 377.489982 150.794013 
L 355.026885 149.986776 
L 336.902374 149.018165 
L 336.902374 149.018165 
L 326.289509 148.495651 
L 321.039996 148.394499 
L 314.095732 148.452254 
L 308.930271 148.676923 
L 303.811924 149.128341 
L 298.715814 149.821804 
L 298.715814 149.821804 
L 295.312713 150.438607 
L 295.312713 150.438607 
L 291.930141 151.165704 
L 291.930141 151.165704 
L 286.942241 152.477978 
L 283.623905 153.513885 
L 278.750171 155.303835 
L 275.554104 156.645937 
L 270.806488 158.859485 
L 264.482534 162.088884 
L 251.616132 168.960197 
L 243.423868 173.257906 
L 236.809222 176.50849 
L 228.456211 180.257758 
L 193.408016 195.623894 
L 193.408016 195.623894 
L 186.366404 199.205594 
L 182.393541 201.488065 
L 182.393541 201.488065 
L 179.092388 203.6908 
L 177.530101 204.953839 
L 177.530101 204.953839 
L 175.820082 206.774231 
L 174.843339 208.106287 
L 174.007708 209.811035 
L 173.425072 211.748069 
L 173.202959 213.564706 
L 173.198745 214.610385 
L 173.465668 216.983362 
L 173.880658 219.040298 
L 173.880658 219.040298 
L 174.869279 222.164595 
L 176.004173 224.760905 
L 177.539067 227.461548 
L 178.842766 229.344435 
L 181.13667 232.264323 
L 186.606754 238.455929 
L 193.648017 246.443832 
L 193.648017 246.443832 
L 200.088932 253.952778 
L 204.375051 259.296638 
L 210.557395 267.631744 
L 210.557395 267.631744 
L 215.349185 274.75413 
L 227.034736 293.199107 
L 235.895674 307.446906 
L 235.895674 307.446906 
L 247.889848 326.73988 
L 250.704609 332.277505 
L 257.798017 347.67559 
L 260.692396 354.699085 
L 262.751543 360.401166 
L 264.541688 366.175673 
L 266.127948 371.972601 
L 269.578505 386.346373 
L 271.728116 396.259331 
L 274.172549 408.789149 
L 274.172549 408.789149 
L 276.178346 421.013774 
L 277.293731 428.982174 
L 278.949591 442.484545 
L 281.002199 462.919508 
L 281.241342 465.637011 
L 281.657718 468.032334 
L 282.463559 470.269107 
L 283.569098 472.117538 
L 284.599515 473.215505 
L 285.981612 474.385428 
L 287.76315 475.545171 
L 290.049345 476.681509 
L 293.882026 478.022428 
L 297.356989 478.896977 
L 301.247235 479.556903 
L 305.613272 479.97725 
L 312.055579 480.18346 
L 328.980605 480.288503 
L 328.980605 480.288503 
L 345.558644 480.302163 
L 459.54468 479.512193 
L 498.224916 479.755092 
L 526.997375 479.566947 
L 555.864052 479.252352 
L 566.809753 479.256083 
L 566.809753 479.256083 
L 585.398867 479.260142 
L 596.947043 479.156516 
L 656.728747 478.949245 
L 690.523217 479.086236 
L 705.209654 478.763607 
L 809.852992 477.490351 
L 820.408305 477.595358 
L 837.338998 478.182595 
L 837.338998 478.182595 
L 851.26164 479.007437 
L 895.638373 482.286698 
L 895.638373 482.286698 
L 918.253232 483.659064 
L 932.059927 484.351283 
L 932.059927 484.351283 
" clip-path="url(#p8cecd4df1c)" style="fill: none; stroke: #0000ff; stroke-width: 2; stroke-linecap: square"/>
   </g>
   <g id="line2d_22">
    <path d="M 268.360626 483.543805 
L 287.950639 483.143192 
L 292.133713 483.158716 
L 295.257794 483.018236 
L 308.241514 482.756323 
L 313.246365 482.575072 
L 334.190362 482.096535 
L 335.655098 482.115709 
L 341.658144 481.854791 
L 347.201462 481.760063 
L 349.102308 481.696663 
L 351.048529 481.462559 
L 354.763926 481.318666 
L 356.70031 481.172306 
L 358.667813 481.440448 
L 364.653238 481.441807 
L 366.649053 481.193181 
L 384.313632 480.754984 
L 388.236109 480.750728 
L 392.084144 480.524404 
L 395.894765 480.403016 
L 403.88554 480.302148 
L 407.9807 480.156439 
L 419.135253 479.879053 
L 419.135253 479.879053 
L 428.035414 479.525393 
L 429.603418 479.416941 
L 429.603418 479.416941 
L 434.639771 479.189409 
L 438.33032 478.809129 
L 447.360543 478.200306 
L 448.014079 478.259261 
L 450.296418 478.077206 
L 451.01802 478.303737 
L 452.399025 478.350659 
L 453.123925 478.479396 
L 454.498499 478.87125 
L 456.345627 479.307711 
L 459.105671 480.415325 
L 459.576356 480.625085 
L 459.985363 480.951378 
L 460.301887 481.541767 
L 461.542634 482.57627 
L 461.542634 482.57627 
L 461.744622 483.078664 
L 462.400519 484.070319 
L 462.615176 484.614672 
L 462.854084 484.752366 
L 463.165578 485.46332 
L 463.192288 485.906055 
L 463.682467 487.640088 
L 463.636218 488.222026 
L 463.962647 489.441013 
L 464.113372 490.133097 
L 464.034078 490.918456 
L 464.107722 491.617777 
L 463.856529 492.425697 
L 463.728759 494.049667 
L 463.734611 494.875331 
L 463.932133 495.66904 
L 463.895087 497.384046 
L 463.814278 500.226622 
L 463.82867 504.365935 
L 463.703608 505.490557 
L 463.826205 507.541553 
L 463.951783 509.826603 
L 463.905753 510.93163 
L 463.701123 511.842044 
L 463.661923 519.84303 
L 463.515358 520.712729 
L 463.518157 522.887227 
L 463.363156 523.995818 
L 463.363156 523.995818 
L 463.531477 527.217613 
L 463.531477 527.217613 
L 463.150963 536.455875 
L 463.432491 537.544712 
L 463.332408 538.568536 
L 463.400198 539.52044 
L 463.329478 540.488022 
L 462.978079 541.510666 
L 462.984137 542.504512 
L 462.855489 543.360746 
L 462.83427 545.993207 
L 462.757607 550.628649 
L 462.757607 550.628649 
L 462.634317 552.255034 
L 462.211658 556.698586 
L 461.615945 561.360576 
L 461.30729 563.322604 
L 460.811963 566.266194 
L 460.89245 567.001004 
L 460.678749 569.880366 
L 460.286653 570.976744 
L 459.757265 574.049269 
L 459.809049 574.898351 
L 459.723584 576.827598 
L 459.741444 577.698231 
L 459.271952 578.81649 
L 459.129013 580.787969 
L 458.931995 581.770055 
L 458.462929 583.06131 
L 457.833513 587.099628 
L 457.528361 589.189608 
L 456.287738 595.714497 
L 456.287738 595.714497 
L 454.163645 609.3032 
L 453.719183 612.642333 
L 453.665403 613.630247 
L 452.977595 616.902557 
L 453.002311 617.999335 
L 452.523691 621.421453 
L 452.066546 625.62949 
L 451.807905 626.456711 
L 451.262991 629.774793 
L 450.998718 630.459814 
L 450.726942 631.577063 
L 450.663407 632.582439 
L 450.044628 635.476729 
L 449.215366 639.454942 
L 448.685156 641.481388 
L 448.337411 643.368483 
L 447.894119 645.451734 
L 447.32236 647.227316 
L 445.849372 651.916339 
L 444.402285 655.451708 
L 443.277345 658.140094 
L 441.148485 663.172412 
L 439.026412 668.320981 
L 438.52224 669.978482 
L 438.036617 670.744539 
L 437.446475 672.303801 
L 435.94977 677.759061 
L 435.681772 679.266466 
L 435.325895 679.899819 
L 435.041423 681.51134 
L 435.091255 682.919526 
L 435.086264 684.978159 
L 435.086264 684.978159 
L 435.451302 685.805091 
L 435.549046 686.514312 
L 435.381239 687.80043 
L 435.01033 689.429384 
L 434.852855 690.792749 
L 434.864862 691.375284 
L 434.298996 693.87471 
L 431.784317 701.577062 
L 431.627503 702.291661 
L 431.03982 703.562585 
L 429.863094 706.286836 
L 429.784858 707.041578 
L 427.43928 712.178472 
L 427.328398 712.756728 
L 424.706715 719.204889 
L 424.245659 720.484369 
L 423.664064 721.348585 
L 423.087358 723.087411 
L 423.150561 723.316555 
L 422.86455 724.77466 
L 422.640849 726.419687 
L 422.597402 726.914419 
L 422.684072 727.891467 
L 422.752783 728.922153 
L 423.032278 729.373423 
L 423.231009 730.272504 
L 423.231009 730.272504 
L 423.712136 731.278241 
L 423.876257 731.833827 
L 425.658063 734.380376 
L 428.796967 736.570177 
L 429.588807 736.977806 
L 430.282462 737.484133 
L 432.066634 738.334376 
L 432.640752 738.734708 
L 435.542536 739.865475 
L 441.62369 741.792709 
L 445.479184 742.870958 
L 449.835838 743.859026 
L 452.746801 744.47369 
L 454.096589 744.622309 
L 456.74306 745.354643 
L 458.523151 746.024742 
L 463.264274 747.195713 
L 472.525115 749.649648 
L 472.525115 749.649648 
L 475.678064 750.503452 
L 477.257636 750.758805 
L 491.357249 754.188894 
L 494.969136 754.910313 
L 496.015713 755.255249 
L 506.273009 757.616424 
L 507.605498 757.741073 
L 511.636354 758.742255 
L 516.041236 759.47763 
L 518.008203 759.966785 
L 519.672757 760.156327 
L 521.572894 760.554861 
L 525.083065 761.174663 
L 528.177688 761.704963 
L 531.125653 761.799546 
L 534.049602 761.655909 
L 535.364972 761.462012 
L 536.898504 761.069759 
L 537.758124 760.906129 
L 538.501175 760.602697 
L 538.641816 760.221438 
L 541.510753 758.531373 
L 542.467542 757.734529 
L 542.270019 757.307429 
L 543.372204 756.030748 
L 543.305814 755.567363 
L 543.806111 754.403654 
L 543.696413 753.675761 
L 544.604403 750.448361 
L 544.856338 749.888078 
L 544.532848 749.143611 
L 544.746038 747.86499 
L 544.526368 746.261425 
L 544.507823 744.162829 
L 544.308324 742.277583 
L 544.302062 740.539056 
L 543.959036 738.472326 
L 544.303782 731.121364 
L 544.749866 727.461346 
L 544.79815 726.433979 
L 545.415652 722.971918 
L 545.528129 721.667408 
L 546.063961 718.302406 
L 546.300263 716.017149 
L 546.689544 713.791447 
L 546.689544 713.791447 
L 547.217515 711.455972 
L 547.356509 710.257877 
L 547.352362 709.08829 
L 547.654888 707.851991 
L 549.724269 694.848751 
L 550.64545 690.356924 
L 551.215468 686.7616 
L 552.382018 680.823683 
L 552.409473 679.670628 
L 552.923376 676.142156 
L 553.745273 672.568582 
L 554.155769 669.790773 
L 554.2115 668.605172 
L 554.437028 667.465972 
L 555.039166 665.59792 
L 555.518581 663.032681 
L 556.572551 654.467531 
L 558.416326 640.247184 
L 558.7113 636.243161 
L 559.088873 635.044237 
L 559.596541 629.860341 
L 559.763235 628.539268 
L 559.794757 627.074195 
L 559.794757 627.074195 
L 560.359361 623.426183 
L 560.93691 618.570649 
L 561.211023 617.107096 
L 561.175496 614.705298 
L 561.394459 612.086791 
L 561.560246 610.893784 
L 562.032926 609.59743 
L 565.091888 590.667369 
L 565.269604 588.169042 
L 566.782953 579.264635 
L 567.05668 577.910176 
L 567.580972 574.058909 
L 568.32697 570.150216 
L 568.566625 567.559178 
L 569.149341 562.340412 
L 569.421282 561.0412 
L 569.781465 557.17283 
L 570.815377 547.965385 
L 571.239863 544.184599 
L 571.835197 536.393257 
L 571.989335 533.868346 
L 572.267871 532.711184 
L 572.779416 526.564279 
L 573.190269 524.209586 
L 573.078733 521.905849 
L 573.331111 519.548935 
L 573.331111 519.548935 
L 573.301523 515.132448 
L 573.272369 514.081311 
L 573.59342 510.731498 
L 573.907514 509.914997 
L 573.932937 507.906076 
L 574.037911 506.883207 
L 574.259893 506.085093 
L 574.305758 505.192719 
L 574.623097 503.232362 
L 574.588584 502.403406 
L 574.839834 500.697654 
L 576.060005 490.812754 
L 576.423755 489.5093 
L 576.423755 489.5093 
L 576.580638 488.954241 
L 576.872198 488.35256 
L 576.679155 487.664805 
L 577.028947 486.100264 
L 577.447545 485.602343 
L 577.954136 484.235129 
L 578.470426 483.395631 
L 579.088033 482.26848 
L 580.906175 480.128118 
L 581.191882 479.797546 
L 581.191882 479.797546 
L 582.482714 479.093871 
L 584.148671 478.290451 
L 587.469511 477.024917 
L 590.578344 476.233035 
L 593.431312 475.888119 
L 597.54373 475.651064 
L 617.598978 475.88615 
L 623.562619 475.827243 
L 629.715842 475.950098 
L 630.863476 475.76344 
L 672.130377 474.872749 
L 673.785973 475.077018 
L 675.276361 475.207016 
L 676.604755 475.535516 
L 677.932408 475.88598 
L 679.727215 476.564703 
L 680.999331 477.096801 
L 682.122837 477.670228 
L 685.118448 479.925697 
L 686.118294 481.328095 
L 687.448608 483.811945 
L 687.551189 484.342738 
L 687.94203 485.493348 
L 688.13043 486.099346 
L 688.332786 488.73313 
L 688.271972 489.563532 
L 688.775699 491.121153 
L 688.711641 492.91893 
L 688.711641 492.91893 
L 688.247398 493.818971 
L 687.94814 495.757825 
L 687.837725 496.701468 
L 687.859376 498.476394 
L 687.751378 500.430235 
L 687.638872 502.573847 
L 687.033619 509.978095 
L 687.016085 511.042424 
L 687.016085 511.042424 
L 686.802315 514.280107 
L 686.870078 515.437672 
L 686.578101 518.805005 
L 686.578101 518.805005 
L 686.533439 523.115687 
L 686.372732 526.460497 
L 686.402738 527.526723 
L 686.287926 528.610211 
L 686.384433 529.747113 
L 686.186605 530.766953 
L 686.212681 531.857413 
L 685.995837 532.922469 
L 685.751508 537.115777 
L 685.498744 540.376483 
L 685.463349 541.442164 
L 685.463349 541.442164 
L 685.276923 543.574716 
L 685.3188 544.551574 
L 684.932953 547.737512 
L 685.005031 548.375643 
L 684.861255 549.442798 
L 684.779389 551.718519 
L 684.631875 553.41388 
L 684.649268 554.331098 
L 684.365151 557.141939 
L 684.318625 558.904146 
L 683.769372 568.390069 
L 683.801878 570.19299 
L 683.567005 572.012123 
L 683.443344 573.810435 
L 683.322952 575.60222 
L 683.219345 580.548596 
L 683.0313 581.352187 
L 683.0313 581.352187 
L 682.891479 584.006459 
L 682.696344 584.814668 
L 681.889584 591.623009 
L 680.816108 596.941627 
L 680.392258 599.103526 
L 679.91834 601.131081 
L 679.610071 602.24958 
L 679.495534 603.397346 
L 677.656662 611.47849 
L 677.590763 612.701354 
L 677.590763 612.701354 
L 676.864909 616.493806 
L 676.656913 617.704006 
L 676.551908 620.35124 
L 676.238226 621.625053 
L 675.806215 622.874457 
L 675.409457 626.92507 
L 675.024492 628.188507 
L 674.660299 630.851385 
L 674.279234 633.327891 
L 673.740598 637.077751 
L 673.422929 639.758761 
L 673.116718 642.278079 
L 673.116718 642.278079 
L 672.398061 647.337457 
L 672.446862 648.739696 
L 672.114929 652.468285 
L 671.614325 656.349369 
L 671.456205 657.584149 
L 671.377829 659.857991 
L 671.302697 661.009505 
L 671.031059 662.195665 
L 670.544962 667.366087 
L 670.000557 669.988141 
L 669.47797 673.603338 
L 669.178082 674.981217 
L 669.178082 674.981217 
L 669.078383 676.381947 
L 668.614935 678.213335 
L 668.358353 680.594931 
L 666.39459 686.567793 
L 665.753185 687.834258 
L 664.472625 691.495175 
L 662.868602 695.18176 
L 660.355408 702.526003 
L 657.573129 711.704454 
L 657.590963 712.135312 
L 656.452801 717.078149 
L 656.022274 719.031545 
L 655.177928 721.847098 
L 654.335451 725.06766 
L 653.429413 728.165115 
L 653.429413 728.165115 
L 652.623841 731.310389 
L 652.297325 732.296793 
L 651.93896 734.2723 
L 650.043013 742.331023 
L 648.210021 751.147087 
L 648.286798 752.017041 
L 647.814281 754.03485 
L 647.508679 754.635657 
L 647.345035 755.761122 
L 647.10794 756.318967 
L 647.190158 757.040943 
L 646.788073 758.229482 
L 646.595385 758.810817 
L 646.574856 759.248732 
L 645.646725 762.153807 
L 645.700227 762.67059 
L 644.837168 765.319193 
L 644.507988 766.025535 
L 644.049543 767.178849 
L 643.352518 768.466146 
L 642.748294 769.00076 
L 642.05138 770.23378 
L 640.941061 771.25137 
L 640.540022 771.730328 
L 638.21958 773.47613 
L 636.325183 774.794612 
L 633.251907 776.401313 
L 628.657384 778.117845 
L 625.237674 778.841077 
L 622.794344 779.219135 
L 620.725152 779.288304 
L 618.250936 779.288262 
L 616.998686 779.514805 
L 613.200995 779.194037 
L 609.301821 778.857515 
L 605.162145 778.276276 
L 602.420113 777.829601 
L 602.420113 777.829601 
L 594.52633 775.906404 
L 591.974265 775.290241 
L 590.43785 774.709064 
L 586.280422 773.730153 
L 586.280422 773.730153 
L 580.290322 771.876808 
L 580.290322 771.876808 
L 574.399835 770.398005 
L 573.361873 769.995574 
L 570.420971 769.315737 
L 563.90609 767.701331 
L 555.814261 766.054717 
L 554.743708 765.839147 
L 553.653974 765.431837 
L 546.757126 763.635008 
L 545.352366 762.955932 
L 543.789927 762.359102 
L 542.286598 761.386771 
L 539.859733 759.750738 
L 538.824685 758.750478 
L 538.541837 758.109348 
L 538.147752 757.593225 
L 536.606944 754.679351 
L 536.606944 754.679351 
L 536.481363 754.020129 
L 536.562401 753.424979 
L 536.378316 752.659262 
L 536.3676 751.892885 
L 536.480324 750.55247 
L 536.355376 749.796688 
L 536.547027 745.077836 
L 536.77544 744.198727 
L 537.068653 741.611137 
L 537.798657 737.73753 
L 538.193133 734.626881 
L 538.32512 733.579023 
L 538.32512 733.579023 
L 538.586893 732.615609 
L 538.888899 730.537245 
L 540.223352 723.563404 
L 540.626016 721.03449 
L 541.31851 717.473111 
L 542.450217 711.407188 
L 543.101407 708.945526 
L 543.661859 706.487862 
L 543.932097 705.182732 
L 543.932097 705.182732 
L 543.962574 703.907189 
L 544.987355 698.884906 
L 545.395075 696.461427 
L 545.968251 694.118735 
L 546.626201 691.796874 
L 546.831861 690.614372 
L 546.879211 689.395766 
L 547.080364 688.15131 
L 548.01174 684.367465 
L 548.780298 680.583041 
L 548.8515 679.553194 
L 551.022273 670.358111 
L 551.609518 668.186066 
L 552.226717 664.693538 
L 552.61534 662.159586 
L 553.373209 658.18862 
L 553.941495 654.245522 
L 554.741436 650.377372 
L 554.741301 648.833653 
L 555.154987 644.751823 
L 555.614257 643.329912 
L 556.132666 640.563868 
L 556.547233 636.023472 
L 557.228846 632.108502 
L 557.53775 629.317088 
L 557.727362 627.808704 
L 558.358246 624.793105 
L 558.617219 622.131766 
L 558.910594 621.034439 
L 560.597702 609.585344 
L 561.492668 605.352888 
L 562.421326 599.778628 
L 562.8377 598.577694 
L 565.069947 588.709844 
L 565.224578 586.991038 
L 565.837105 584.09237 
L 566.419102 581.308243 
L 566.594068 579.848379 
L 566.594068 579.848379 
L 567.142705 576.913686 
L 569.57617 560.255656 
L 569.715549 558.837314 
L 570.700954 552.737075 
L 570.741627 551.203721 
L 572.258472 539.155334 
L 572.77912 528.893637 
L 573.369138 527.685552 
L 574.157766 518.744215 
L 574.195333 517.619326 
L 574.392914 516.365137 
L 574.247688 513.894886 
L 574.460657 512.998726 
L 574.524332 510.813551 
L 574.565141 509.676671 
L 575.005697 508.614938 
L 575.07209 507.4479 
L 576.254825 501.87199 
L 576.873918 500.157213 
L 577.056275 499.314486 
L 577.387571 498.472894 
L 577.550693 497.459416 
L 578.631063 493.522227 
L 579.555377 489.629926 
L 579.796377 487.819346 
L 579.825176 487.384753 
L 580.0648 486.93874 
L 580.359029 484.602026 
L 580.547211 484.072939 
L 581.016816 481.201113 
L 580.899506 480.911039 
L 581.117971 479.62226 
L 581.270567 479.281941 
L 581.500218 476.886292 
L 581.41539 476.264197 
L 581.74023 474.338125 
L 581.742375 473.64423 
L 582.060427 472.16151 
L 582.677276 465.336158 
L 582.820172 464.367948 
L 582.799069 463.408319 
L 582.908962 462.437176 
L 582.852218 461.357031 
L 583.326829 456.092352 
L 583.237358 454.807136 
L 584.002141 441.412825 
L 584.348662 439.907435 
L 584.643304 437.144844 
L 584.769521 435.76469 
L 584.673812 434.38778 
L 585.135727 429.297111 
L 586.013777 418.048866 
L 586.050523 415.272225 
L 586.141703 413.934124 
L 586.386164 412.624516 
L 587.316726 403.059547 
L 587.159517 401.428534 
L 587.382518 399.918256 
L 587.476446 398.3411 
L 587.690103 396.849019 
L 587.596152 395.932355 
L 588.254305 387.272334 
L 588.279727 385.937817 
L 588.519764 384.64768 
L 588.615483 380.553595 
L 588.854174 379.110893 
L 588.854174 379.110893 
L 588.804141 374.781547 
L 589.173801 373.198475 
L 589.363223 370.281074 
L 589.388974 368.884123 
L 589.702742 366.357647 
L 589.832256 364.85667 
L 589.647931 360.389012 
L 589.879869 354.894957 
L 589.941824 346.408232 
L 589.760001 340.665162 
L 589.760001 340.665162 
L 589.875583 339.120613 
L 589.630972 332.012417 
L 589.560657 329.194694 
L 589.695154 322.922427 
L 589.450999 321.577613 
L 589.445231 320.076646 
L 589.717148 317.181656 
L 589.165001 315.813062 
L 588.891122 309.770567 
L 588.034626 284.587457 
L 587.778222 280.127675 
L 587.409271 269.689833 
L 587.486824 266.896989 
L 587.403536 265.484704 
L 587.437503 263.991293 
L 587.167023 262.481109 
L 587.237759 261.015147 
L 587.026173 256.824912 
L 586.73652 251.321371 
L 586.326403 242.101075 
L 585.913035 237.08105 
L 586.189978 235.819361 
L 586.175306 234.714747 
L 585.931041 233.49672 
L 585.877403 232.297285 
L 585.933134 230.949893 
L 585.710114 228.468078 
L 585.517264 227.15831 
L 585.641172 225.988983 
L 585.002992 221.518285 
L 585.446102 221.254837 
L 585.253833 217.944371 
L 584.791412 214.446905 
L 584.658495 213.3181 
L 583.979973 209.727752 
L 583.979973 209.727752 
L 582.904349 202.330148 
L 582.270789 196.162686 
L 582.376479 194.444609 
L 582.645183 189.945465 
L 583.287198 186.121457 
L 583.636001 184.586044 
L 584.028413 183.10265 
L 584.480951 181.807216 
L 585.118895 179.999858 
L 585.661402 178.165931 
L 586.221552 176.336982 
L 586.349196 175.775019 
L 586.302096 175.423427 
L 586.558487 172.414235 
L 586.558487 172.414235 
L 586.503831 171.977599 
L 586.093559 171.749955 
L 586.045526 171.304602 
L 585.036613 169.444945 
L 584.747115 169.142872 
L 584.665309 168.750557 
L 583.960786 167.833203 
L 583.059591 167.097692 
L 580.685736 164.829445 
L 579.911936 164.263583 
L 579.62068 163.81859 
L 576.2514 162.066885 
L 572.555688 160.435688 
L 570.882533 160.046451 
L 568.918781 159.753752 
L 565.047719 158.99073 
L 562.440722 158.804806 
L 561.542303 158.31847 
L 557.207 157.588933 
L 549.22921 156.713734 
L 546.240493 156.300925 
L 543.587413 156.189649 
L 532.099452 155.059194 
L 528.171177 154.771172 
L 521.933263 154.26364 
L 513.447374 153.41391 
L 511.451635 153.417366 
L 501.039778 152.609856 
L 496.849128 152.157803 
L 494.665345 152.196464 
L 482.107751 151.365962 
L 475.947508 151.117581 
L 467.751721 150.701168 
L 455.663919 150.199988 
L 453.596719 149.920404 
L 441.846107 149.30865 
L 437.596169 148.975906 
L 433.423778 148.654158 
L 429.842503 148.443003 
L 423.391896 148.07997 
L 421.971925 147.835991 
L 417.579766 147.422721 
L 415.415508 147.192136 
L 414.097472 147.263425 
L 407.046669 146.671108 
L 405.979165 146.725204 
L 400.49811 146.308254 
L 385.951867 145.373674 
L 382.503511 145.302621 
L 378.635348 145.085708 
L 374.679916 144.732653 
L 371.263189 144.634131 
L 367.704358 144.318941 
L 363.972687 144.058207 
L 357.178646 143.667525 
L 353.581241 143.154698 
L 349.964922 142.852382 
L 346.262132 142.672254 
L 342.247846 142.213923 
L 328.672961 141.6204 
L 318.285851 141.90611 
L 314.928506 142.234168 
L 313.12946 142.246121 
L 307.929503 142.772535 
L 306.610697 143.149055 
L 303.333185 143.690263 
L 293.228619 146.470882 
L 291.501823 146.966832 
L 280.130749 151.728075 
L 275.495348 154.154968 
L 273.555147 154.818106 
L 268.460434 157.393117 
L 265.226173 159.057932 
L 261.611605 160.750475 
L 256.500348 163.21989 
L 256.500348 163.21989 
L 243.481065 169.135865 
L 241.915155 169.698646 
L 238.283421 171.149592 
L 203.631769 185.117213 
L 198.962012 187.380276 
L 197.160346 188.202687 
L 195.348135 189.205823 
L 194.379036 189.522469 
L 191.864018 190.918738 
L 189.588512 192.223606 
L 188.539536 193.004256 
L 188.539536 193.004256 
L 185.268218 195.893356 
L 184.711762 195.964025 
L 183.917459 197.118258 
L 182.66362 199.020036 
L 182.292079 199.707486 
L 182.219965 200.108837 
L 181.932093 200.941086 
L 181.791081 201.345015 
L 181.687672 202.588331 
L 181.414081 204.144016 
L 181.454084 204.642106 
L 181.38434 205.200431 
L 181.65241 205.769231 
L 182.173953 209.401182 
L 182.35099 210.172937 
L 182.670955 210.977898 
L 182.805947 211.773103 
L 183.101503 212.70677 
L 183.101503 212.70677 
L 184.30425 215.371948 
L 185.332206 217.337981 
L 185.332206 217.337981 
L 191.168298 225.140459 
L 197.749495 232.987439 
L 203.738163 240.398183 
L 204.471277 241.556416 
L 206.505414 244.158701 
L 212.474583 252.420826 
L 214.418748 255.222967 
L 215.167127 256.637612 
L 216.296275 258.103356 
L 219.010311 262.574455 
L 219.897301 263.900057 
L 224.747187 272.602415 
L 225.564376 274.044309 
L 226.579967 275.403997 
L 227.237776 276.836234 
L 228.998284 279.880153 
L 229.899666 281.216351 
L 229.899666 281.216351 
L 232.33533 285.619838 
L 233.24203 287.008494 
L 235.52672 291.356624 
L 239.053932 297.316397 
L 240.690959 300.481885 
L 242.180318 303.435782 
L 243.157635 304.075453 
L 245.708082 308.192121 
L 246.237083 309.845905 
L 248.123168 312.629454 
L 248.934474 314.059832 
L 249.37726 315.349289 
L 249.37726 315.349289 
L 251.519778 319.71926 
L 254.080167 325.56328 
L 254.439802 326.605382 
L 256.285063 330.825386 
L 257.40235 333.608554 
L 258.928818 336.864604 
L 259.289314 338.502044 
L 261.897855 345.271585 
L 262.913559 348.357405 
L 263.014743 349.513618 
L 263.014743 349.513618 
L 263.765563 352.306133 
L 265.428325 357.800669 
L 266.627521 363.812278 
L 267.475625 368.347608 
L 267.837121 369.829174 
L 268.048442 371.294767 
L 268.438739 372.683452 
L 268.72748 374.203932 
L 269.109534 377.129469 
L 269.429099 378.381662 
L 269.773764 381.347483 
L 269.911639 382.830418 
L 270.315815 384.349199 
L 270.315815 384.349199 
L 270.620861 385.950015 
L 270.754849 387.48158 
L 271.014104 388.914556 
L 271.333666 389.844445 
L 272.015149 395.473694 
L 273.038724 403.239668 
L 273.359912 404.622985 
L 273.285844 406.510155 
L 274.316297 415.919367 
L 274.403204 418.704983 
L 274.6981 421.252755 
L 275.337794 431.137306 
L 275.413498 433.591527 
L 275.788836 439.241227 
L 275.788836 439.241227 
L 275.725881 443.440348 
L 275.77772 444.360591 
L 275.984492 444.976801 
L 276.173752 449.026375 
L 276.328093 449.716005 
L 276.205883 451.288115 
L 276.112375 453.262165 
L 276.293721 453.98163 
L 276.242432 457.294484 
L 276.156461 457.702512 
L 276.290565 457.951285 
L 276.218672 459.068742 
L 276.533432 459.367139 
L 277.067025 461.898895 
L 276.907041 461.933428 
L 276.776657 461.838725 
L 277.062236 461.917177 
L 277.031403 461.758072 
L 277.177204 461.895154 
L 277.278261 461.836974 
L 277.037522 461.859439 
L 277.078363 461.78532 
L 276.999372 461.753634 
L 277.088128 461.981433 
L 277.011705 461.949224 
L 276.924974 461.963125 
L 277.076424 461.926486 
L 277.093647 462.01278 
L 277.147662 462.006512 
L 277.120172 462.046873 
L 277.508967 462.786192 
L 277.508967 462.786192 
L 277.987748 464.122588 
L 278.202171 464.482133 
L 278.202171 464.482133 
L 279.493011 465.960384 
L 279.493011 465.960384 
L 281.650532 467.471973 
L 282.303574 467.832876 
L 282.988349 468.41296 
L 284.519186 469.236962 
L 286.279011 469.862625 
L 291.87567 471.616322 
L 294.658942 472.098506 
L 295.803011 472.480414 
L 300.131675 473.074835 
L 313.464603 473.584462 
L 315.430177 473.716273 
L 319.511349 473.752396 
L 321.547618 473.817009 
L 323.537222 474.091456 
L 340.12754 474.575153 
L 342.162177 474.698047 
L 344.245192 474.602747 
L 386.625511 475.732953 
L 394.270358 475.798447 
L 400.250033 476.059433 
L 422.173378 476.390662 
L 423.968159 476.381986 
L 430.10532 476.580562 
L 439.221361 476.686212 
L 444.735434 477.03125 
L 446.501978 477.167922 
L 448.555783 477.086027 
L 448.555783 477.086027 
L 488.141143 478.666078 
L 490.176714 478.576935 
L 499.443014 478.949384 
L 505.004902 479.002024 
L 516.360386 479.206224 
L 519.025256 479.326839 
L 525.048583 479.258915 
L 526.874635 479.401425 
L 532.843662 479.402751 
L 534.789223 479.586072 
L 562.538949 480.317202 
L 567.643547 480.536561 
L 569.589219 480.56271 
L 571.61994 480.463821 
L 577.79325 480.877942 
L 579.182733 480.798322 
L 613.046525 481.489658 
L 615.115882 481.560135 
L 617.225662 481.469876 
L 618.703739 481.626927 
L 625.070315 481.67163 
L 626.523743 481.821177 
L 630.492853 481.842597 
L 630.492853 481.842597 
L 634.233223 481.988472 
L 680.165376 483.542261 
L 681.688905 483.45255 
L 687.036837 483.490512 
L 690.849835 483.504581 
L 695.230647 483.43691 
L 698.537167 483.71112 
L 702.64527 483.726098 
L 703.881224 483.546422 
L 705.845445 483.459877 
L 709.800541 483.466988 
L 712.122189 483.751795 
L 734.643 483.955028 
L 738.740991 484.131786 
L 750.877229 484.21739 
L 759.382026 484.511535 
L 760.839329 484.387614 
L 778.050131 484.549353 
L 779.664178 484.535691 
L 783.451924 484.322168 
L 786.850282 484.22946 
L 788.230091 484.595448 
L 791.230653 484.658027 
L 792.956817 484.752877 
L 796.294554 484.655365 
L 799.718908 484.874642 
L 803.137985 484.886565 
L 806.59427 484.919638 
L 811.877734 485.219831 
L 815.673722 485.515967 
L 821.229235 485.877917 
L 823.177105 485.917926 
L 829.003622 486.444232 
L 832.639459 486.660788 
L 832.639459 486.660788 
L 844.446764 487.627558 
L 848.445497 488.200313 
L 852.345743 488.604628 
L 852.345743 488.604628 
L 854.631998 488.740473 
L 860.78327 489.458754 
L 864.859111 489.917015 
L 877.70207 491.083357 
L 881.727294 491.391307 
L 893.939759 492.437966 
L 897.374225 492.977848 
L 901.178292 493.372079 
L 901.178292 493.372079 
L 906.379317 493.418895 
L 908.525426 493.451915 
L 910.540511 493.627197 
L 912.340925 494.030938 
L 920.030674 494.610904 
L 920.030674 494.610904 
" clip-path="url(#p8cecd4df1c)" style="fill: none; stroke: #9933fa; stroke-width: 2; stroke-linecap: square"/>
   </g>
   <g id="line2d_23">
    <path d="M 268.360626 483.543805 
L 282.227233 483.398109 
L 301.800902 483.014071 
L 339.884364 482.234068 
L 365.122885 481.625556 
L 392.472177 481.047111 
L 428.470923 480.192325 
L 445.585941 479.418008 
L 451.526604 479.099696 
L 456.874382 479.211131 
L 458.931518 479.504547 
L 461.387824 480.14471 
L 463.122704 480.850307 
L 464.541307 481.640155 
L 465.454086 482.298191 
L 466.31943 483.073991 
L 467.612993 484.821853 
L 468.421388 486.792109 
L 468.613792 487.374672 
L 468.828973 489.094819 
L 469.0129 491.06449 
L 468.880768 496.518273 
L 468.608986 510.490664 
L 468.379407 518.2442 
L 468.230848 522.592363 
L 468.059728 529.018255 
L 467.314019 544.027998 
L 466.178825 558.318563 
L 465.560273 562.970228 
L 462.66742 581.569161 
L 458.563139 604.397004 
L 457.827307 608.912346 
L 454.706688 628.381839 
L 453.095531 636.424965 
L 450.055727 648.961595 
L 448.790449 652.656082 
L 446.49397 658.048575 
L 441.509231 669.910753 
L 439.081451 676.914929 
L 438.297837 679.918749 
L 437.952527 682.153221 
L 437.832138 684.342312 
L 437.828013 686.5481 
L 437.765873 688.695317 
L 437.183859 692.867296 
L 435.515424 698.667679 
L 432.778588 706.347237 
L 431.588195 709.147479 
L 429.996892 712.764236 
L 427.282164 719.073873 
L 426.069106 722.187148 
L 425.268465 724.852709 
L 425.033061 726.386936 
L 425.039623 727.87987 
L 425.293575 729.872553 
L 425.937957 731.772409 
L 426.460529 732.719945 
L 427.120293 733.654358 
L 427.943636 734.699139 
L 430.116464 736.578548 
L 432.265293 737.947689 
L 436.834269 740.042247 
L 442.458442 742.021629 
L 446.280572 743.140417 
L 505.436604 757.808094 
L 516.968869 760.283933 
L 527.86447 762.390569 
L 531.008748 762.788007 
L 533.302131 762.880378 
L 535.52339 762.740553 
L 537.621291 762.395233 
L 539.563552 761.806299 
L 541.329447 760.991914 
L 542.835178 759.999523 
L 543.672187 759.253694 
L 544.707493 758.035043 
L 545.5462 756.244565 
L 546.313783 753.24535 
L 546.748161 748.167524 
L 546.515052 735.558774 
L 546.626778 733.369221 
L 547.07391 728.818823 
L 548.940724 717.224509 
L 555.245369 681.334133 
L 556.616545 674.274739 
L 558.467563 664.591969 
L 559.775879 655.794645 
L 561.207451 645.562544 
L 562.360964 636.633306 
L 565.157403 615.04155 
L 566.233746 607.433366 
L 569.750913 585.803187 
L 571.641491 574.179408 
L 572.697736 566.368918 
L 575.015988 546.78904 
L 576.575199 529.213247 
L 577.295395 518.795561 
L 578.031787 507.628262 
L 578.947249 498.678369 
L 579.852919 492.131544 
L 580.491602 489.142964 
L 581.340521 486.605249 
L 581.977181 485.304068 
L 582.710843 484.063631 
L 583.570299 482.922756 
L 584.20079 482.226628 
L 585.719103 480.916553 
L 587.157519 480.029446 
L 589.557328 478.934214 
L 592.446392 478.015712 
L 595.068401 477.481573 
L 597.017877 477.230431 
L 600.18725 477.039699 
L 603.606436 477.000937 
L 611.216291 477.077406 
L 621.150184 477.120279 
L 641.826181 476.914706 
L 651.924001 476.705139 
L 674.317106 476.124464 
L 677.39478 476.262693 
L 679.607528 476.557463 
L 681.704873 477.049353 
L 684.210397 477.962759 
L 685.328547 478.481057 
L 686.413245 479.150462 
L 688.467827 480.63257 
L 689.629723 482.003576 
L 690.740738 483.64623 
L 691.470932 485.467356 
L 692.204131 488.956491 
L 692.342131 492.145111 
L 692.261638 495.691 
L 691.127763 511.010432 
L 690.382725 533.672122 
L 688.429164 566.458261 
L 688.110386 572.813776 
L 687.764379 578.81934 
L 687.535633 582.980488 
L 687.160267 587.928575 
L 686.481393 593.182597 
L 685.877567 596.929207 
L 683.44079 608.627872 
L 682.903503 610.973614 
L 681.954231 615.888629 
L 679.856826 630.157064 
L 678.099305 644.52437 
L 677.602744 649.654094 
L 676.721583 659.682989 
L 675.329515 671.918664 
L 674.534331 676.74523 
L 673.176296 682.786093 
L 672.150759 686.445761 
L 670.501016 691.245587 
L 667.430584 699.654572 
L 665.8544 704.461179 
L 664.498696 709.276392 
L 661.71339 720.658488 
L 659.415688 730.14363 
L 657.92771 736.277712 
L 656.117096 745.250665 
L 653.941781 757.006008 
L 653.226333 760.36431 
L 651.813539 765.316051 
L 650.711684 768.001033 
L 649.845123 769.635191 
L 648.637619 771.395439 
L 647.827093 772.334317 
L 646.40876 773.714199 
L 644.655256 775.064187 
L 642.551485 776.408978 
L 640.167152 777.570154 
L 638.367072 778.317645 
L 635.472159 779.267453 
L 633.35715 779.78294 
L 629.988876 780.388045 
L 627.651386 780.567981 
L 624.002532 780.723958 
L 620.173848 780.554271 
L 614.999522 780.020694 
L 608.270538 778.856091 
L 601.358766 777.335925 
L 587.16668 773.459954 
L 577.186182 770.975666 
L 569.104735 769.225014 
L 561.098998 767.485577 
L 557.093333 766.53029 
L 553.386778 765.446976 
L 550.207838 764.129412 
L 548.07136 762.952864 
L 545.784046 761.088961 
L 544.837431 760.056753 
L 543.71604 758.420124 
L 543.203988 757.232841 
L 542.457816 753.260113 
L 542.430984 751.783636 
L 542.488615 749.531012 
L 542.831735 745.30183 
L 544.012671 736.67816 
L 545.388238 727.854445 
L 548.207868 712.049966 
L 551.890943 691.31581 
L 557.567126 661.396966 
L 558.498006 654.680127 
L 560.850917 637.989638 
L 562.495625 635.319305 
L 564.365803 621.370621 
L 565.252327 614.417924 
L 566.366714 607.384016 
L 568.178474 597.547636 
L 570.08278 587.497066 
L 571.704104 577.227264 
L 573.831184 560.536834 
L 575.087275 548.442782 
L 576.763474 528.274876 
L 577.633062 512.68861 
L 577.992394 508.524875 
L 578.729446 504.615156 
L 579.885936 500.075544 
L 580.393439 498.362624 
L 581.974968 491.075495 
L 583.024123 483.903042 
L 583.398458 477.822239 
L 583.671265 474.545851 
L 583.935503 471.441855 
L 584.87376 451.695363 
L 585.533928 438.885182 
L 585.836 433.488189 
L 586.898573 411.27132 
L 588.04028 387.501593 
L 588.398159 377.587019 
L 588.476383 357.609977 
L 588.042142 344.649369 
L 587.574829 335.939163 
L 586.035102 313.935879 
L 585.35948 305.009495 
L 584.687221 296.051804 
L 583.936526 285.609881 
L 582.526924 267.912818 
L 581.434102 253.868194 
L 579.816659 234.409238 
L 579.049682 225.930224 
L 578.373051 220.071057 
L 577.842898 216.614823 
L 576.531593 209.914661 
L 575.630583 205.571599 
L 574.623397 199.454028 
L 574.358047 195.64033 
L 574.378006 192.073713 
L 574.62032 189.538484 
L 575.127901 186.44832 
L 575.998121 182.914452 
L 577.393406 177.475326 
L 577.610968 175.4663 
L 577.528966 174.136991 
L 577.218504 172.856487 
L 576.620547 171.330251 
L 575.082805 169.267169 
L 574.508373 168.664333 
L 571.799485 166.32817 
L 570.275057 165.224715 
L 568.007163 163.881906 
L 565.79519 162.934599 
L 563.801503 162.25741 
L 555.814036 160.526318 
L 552.325745 159.997959 
L 547.032737 159.378308 
L 534.200063 158.365971 
L 522.87165 157.590523 
L 499.684697 156.249232 
L 482.809591 155.543125 
L 455.806787 154.687395 
L 429.647419 153.978095 
L 377.092544 151.719751 
L 358.3258 151.121736 
L 345.519973 150.520346 
L 325.928389 149.545959 
L 320.677687 149.450575 
L 313.765122 149.535043 
L 308.580566 149.770266 
L 303.459112 150.241398 
L 298.39193 150.963866 
L 294.99219 151.564176 
L 289.961699 152.719855 
L 284.958714 154.129034 
L 280.074221 155.848742 
L 276.853409 157.138024 
L 272.086744 159.28522 
L 267.377731 161.628441 
L 257.812694 166.701283 
L 248.137259 171.935984 
L 241.566396 175.324192 
L 234.921588 178.527193 
L 219.950517 185.153062 
L 199.557562 193.98033 
L 192.097492 197.5034 
L 187.101102 200.054965 
L 182.989887 202.344208 
L 179.559082 204.563652 
L 177.400572 206.256033 
L 175.954797 207.738173 
L 174.513127 209.761831 
L 173.86583 211.100361 
L 173.400062 212.586303 
L 173.167495 213.885909 
L 173.066806 215.889149 
L 173.474842 218.891997 
L 173.972074 221.039983 
L 174.762948 223.434354 
L 175.896905 226.048751 
L 178.098062 229.686093 
L 179.46997 231.555842 
L 182.76682 235.523858 
L 195.731471 250.115677 
L 200.071848 255.174007 
L 203.316927 259.153303 
L 209.553031 267.413015 
L 214.432258 274.502992 
L 218.09538 280.178187 
L 230.718777 300.071685 
L 240.448538 315.558638 
L 246.492369 325.096359 
L 248.797713 329.244037 
L 250.919106 333.400721 
L 259.793791 352.93831 
L 261.458883 357.165602 
L 263.006278 361.461341 
L 265.243804 368.635072 
L 268.226799 380.201565 
L 271.482488 394.417487 
L 275.040448 412.532909 
L 276.178886 419.326524 
L 277.348356 427.355559 
L 279.091706 441.123038 
L 279.694587 446.768483 
L 280.459054 453.622189 
L 281.909357 468.342963 
L 282.698323 470.853875 
L 284.296164 473.416645 
L 285.425317 474.534176 
L 286.372894 475.316875 
L 288.163502 476.470792 
L 290.439538 477.61344 
L 293.172687 478.600338 
L 295.392235 479.246087 
L 298.986902 480.051988 
L 301.637247 480.445446 
L 306.033609 480.878894 
L 312.478684 481.087599 
L 352.142742 481.134271 
L 416.375741 480.603912 
L 419.116964 480.846844 
L 436.004724 480.376596 
L 445.273691 480.156587 
L 463.286476 479.947771 
L 518.739076 479.221118 
L 550.356092 478.475189 
L 552.188911 478.526584 
L 555.945126 478.304137 
L 561.377982 478.399351 
L 572.338707 478.281324 
L 581.520179 478.209578 
L 596.807634 477.973618 
L 600.684914 477.858273 
L 622.912541 477.549462 
L 658.485058 477.137832 
L 685.371135 477.103633 
L 690.512257 476.976471 
L 695.810154 476.774077 
L 701.375083 476.603515 
L 735.69748 475.801276 
L 770.434068 475.119342 
L 794.893056 474.457336 
L 806.596835 474.1819 
L 822.260825 474.182255 
L 835.340386 474.482684 
L 847.037698 474.953467 
L 861.311887 475.833543 
L 897.514715 478.134641 
L 920.125406 479.277924 
L 933.954545 479.822047 
L 933.954545 479.822047 
" clip-path="url(#p8cecd4df1c)" style="fill: none; stroke: #ff0000; stroke-width: 2; stroke-linecap: square"/>
   </g>
   <g id="line2d_24">
    <path d="M 268.360626 483.543805 
L 284.608073 483.338558 
L 311.826934 482.814096 
L 339.717821 482.268492 
L 398.156502 481.02038 
L 417.409509 480.596864 
L 436.25168 480.04954 
L 447.531622 479.457008 
L 452.161454 479.26413 
L 455.968159 479.357469 
L 458.038808 479.606424 
L 460.020739 480.010242 
L 462.336534 480.811535 
L 463.886017 481.607876 
L 465.228125 482.522072 
L 466.385445 483.675901 
L 467.025941 484.539807 
L 467.797914 485.97877 
L 468.301218 487.602212 
L 468.71623 491.998572 
L 468.347851 507.427095 
L 467.34509 536.406898 
L 466.206635 553.90664 
L 465.591296 559.254092 
L 462.422532 579.552705 
L 459.451291 595.411544 
L 458.454713 600.965943 
L 454.466683 625.230331 
L 452.702062 634.343861 
L 450.464666 644.122181 
L 448.570313 650.701939 
L 447.141795 654.352321 
L 445.1615 658.809943 
L 442.872607 663.96667 
L 440.509794 669.718527 
L 438.266312 675.972592 
L 437.23603 679.737166 
L 436.863928 681.962489 
L 436.713023 684.891295 
L 436.687549 687.836334 
L 436.495384 689.9094 
L 436.048358 692.635072 
L 435.174848 695.910692 
L 431.263582 706.759101 
L 425.733352 719.383523 
L 424.3794 722.909057 
L 423.839356 724.999616 
L 423.655929 726.547384 
L 423.768747 728.55054 
L 424.061117 729.988674 
L 424.557496 731.415094 
L 425.061185 732.374809 
L 426.1309 733.836393 
L 427.501339 735.297058 
L 430.040366 737.130386 
L 432.497997 738.468642 
L 435.354166 739.705821 
L 438.586409 740.906535 
L 443.441766 742.43563 
L 447.451066 743.501241 
L 457.617847 746.070619 
L 469.982343 749.252738 
L 487.149216 753.631174 
L 507.853438 758.559797 
L 518.33853 760.761689 
L 527.644002 762.515131 
L 530.730492 762.769863 
L 532.998363 762.7295 
L 535.160079 762.437064 
L 537.179341 761.919422 
L 539.000172 761.2106 
L 540.571021 760.278133 
L 541.91387 759.14681 
L 542.616306 758.38577 
L 543.399422 757.055891 
L 543.792931 756.145814 
L 544.488304 753.672996 
L 545.042597 748.830536 
L 544.964829 744.994093 
L 544.789317 737.5704 
L 545.011325 733.360494 
L 545.353749 729.912826 
L 546.244998 724.1843 
L 549.528297 705.582997 
L 551.190104 696.298569 
L 553.150147 686.024657 
L 555.25215 675.569582 
L 557.428101 664.719313 
L 558.618274 657.235586 
L 561.562282 636.869057 
L 563.532767 622.869335 
L 566.724285 601.384117 
L 572.127779 569.343406 
L 574.510625 551.049919 
L 575.862158 538.328988 
L 577.244716 522.651596 
L 577.83039 513.989788 
L 578.339232 508.131713 
L 579.97408 494.64225 
L 580.540519 491.415931 
L 581.122016 489.156618 
L 581.831377 487.146104 
L 582.481107 485.83457 
L 583.221629 484.611528 
L 584.113482 483.450535 
L 585.133858 482.431625 
L 586.275528 481.484055 
L 587.719888 480.599361 
L 589.499747 479.753486 
L 592.258404 478.80745 
L 594.75617 478.210068 
L 597.573909 477.848027 
L 600.728192 477.665301 
L 606.570729 477.667122 
L 618.80188 477.831877 
L 648.173839 477.624256 
L 676.287229 477.091428 
L 679.30917 477.365823 
L 681.407601 477.817816 
L 683.35602 478.426977 
L 685.151597 479.186034 
L 686.759736 480.140112 
L 688.800459 481.613622 
L 689.607428 482.56945 
L 691.024115 484.639491 
L 691.51721 485.813069 
L 692.075488 487.805544 
L 692.442616 489.957149 
L 692.570644 493.134174 
L 692.501588 495.763518 
L 691.85554 503.571884 
L 691.340076 509.83134 
L 690.708126 524.900716 
L 690.03361 538.780803 
L 688.116408 568.2663 
L 687.790444 573.671553 
L 686.541135 590.45866 
L 685.894401 594.926778 
L 685.004224 599.701316 
L 680.751771 620.500033 
L 678.688074 634.836423 
L 677.30024 645.284831 
L 676.50965 654.214839 
L 675.892346 660.444055 
L 674.951634 668.967164 
L 674.067393 675.017814 
L 673.124868 679.835385 
L 671.916146 684.66487 
L 670.809705 688.270151 
L 669.531212 691.886487 
L 666.397072 700.263338 
L 664.451511 706.256113 
L 662.833535 712.237473 
L 657.759796 732.761346 
L 656.772451 736.838209 
L 654.73967 746.818704 
L 652.569517 758.129598 
L 651.80778 761.405518 
L 650.75616 765.109298 
L 649.943641 767.374044 
L 649.030106 769.359427 
L 647.991622 771.03794 
L 646.958413 772.387831 
L 645.597427 773.792659 
L 643.974642 775.138632 
L 641.993907 776.469392 
L 640.504618 777.305659 
L 637.981269 778.455075 
L 635.140419 779.475525 
L 633.088731 780.048484 
L 629.776001 780.711304 
L 627.455919 781.008379 
L 623.860175 781.1964 
L 620.17875 781.092564 
L 616.322389 780.787312 
L 612.387903 780.29536 
L 606.995455 779.338003 
L 601.545877 778.093067 
L 595.982423 776.594619 
L 576.104914 771.263305 
L 566.869103 769.199215 
L 557.091008 766.962597 
L 553.27507 765.901444 
L 549.978992 764.673721 
L 548.477749 763.938191 
L 547.103353 763.121835 
L 545.889328 762.234509 
L 544.340848 760.758611 
L 543.128994 759.120481 
L 542.643483 757.986279 
L 542.340795 757.392549 
L 541.825743 755.475197 
L 541.567489 752.705723 
L 541.669796 748.894609 
L 542.084134 745.501119 
L 544.81163 728.135735 
L 550.370632 698.823405 
L 553.969289 680.697961 
L 557.135195 665.685426 
L 558.208277 659.107198 
L 559.853156 648.157851 
L 565.434828 610.576734 
L 567.327711 600.762229 
L 570.990973 582.116075 
L 572.646926 571.687489 
L 574.094857 561.043983 
L 576.874784 535.760136 
L 578.271604 517.723954 
L 578.793059 511.20635 
L 579.434599 507.183028 
L 580.513726 502.490338 
L 583.133941 492.368709 
L 584.134009 486.661137 
L 584.550354 483.277278 
L 585.526515 472.169882 
L 585.936869 466.823888 
L 588.485115 425.970611 
L 590.937704 385.537336 
L 591.419257 374.257249 
L 591.598865 365.701194 
L 591.561163 352.799739 
L 591.290708 342.723674 
L 590.442025 325.177367 
L 588.473326 292.514268 
L 587.454819 276.253719 
L 586.816686 266.089081 
L 585.811067 250.847703 
L 584.761893 235.414345 
L 584.135548 226.959247 
L 583.54512 221.085922 
L 582.883079 216.489279 
L 581.862539 210.93084 
L 580.531808 203.488396 
L 580.161244 200.497216 
L 579.960835 196.701635 
L 580.004308 194.004971 
L 580.325078 190.612261 
L 580.881487 187.535697 
L 581.595107 184.693255 
L 583.31866 178.606219 
L 583.586751 176.598665 
L 583.551248 175.241417 
L 582.97728 173.189341 
L 582.156791 171.694731 
L 581.166506 170.354656 
L 579.638498 168.868382 
L 576.038495 166.00155 
L 574.187931 164.925343 
L 571.393467 163.720191 
L 567.767688 162.67793 
L 559.866868 161.118847 
L 554.764303 160.437054 
L 547.351192 159.722015 
L 533.234111 158.596589 
L 518.90571 157.569402 
L 506.247113 156.783453 
L 491.510516 156.027552 
L 468.639713 155.064498 
L 430.433174 153.595057 
L 418.786832 152.954886 
L 387.895919 151.339247 
L 352.640533 149.675768 
L 331.408502 148.48393 
L 324.453886 148.373377 
L 317.547593 148.523993 
L 312.403211 148.876085 
L 307.307228 149.461578 
L 302.302336 150.274456 
L 297.269278 151.364816 
L 292.229233 152.73222 
L 287.332227 154.383844 
L 282.50049 156.327665 
L 279.291144 157.756943 
L 274.58476 160.047458 
L 266.558636 164.164724 
L 248.519266 173.464865 
L 241.788063 176.584351 
L 228.333087 182.347303 
L 207.592472 191.036362 
L 200.974307 193.957372 
L 193.639753 197.555895 
L 190.268656 199.364773 
L 187.299792 201.125531 
L 184.840388 202.847906 
L 183.343769 204.062694 
L 181.775813 205.776972 
L 180.669145 207.437212 
L 179.922556 209.179978 
L 179.413454 211.229255 
L 179.290063 213.243286 
L 179.609624 216.221871 
L 180.0784 218.379762 
L 180.835452 220.774553 
L 181.916083 223.370199 
L 183.427631 226.082857 
L 184.676637 227.988514 
L 186.910886 230.902366 
L 189.448786 233.897344 
L 194.155602 239.314802 
L 203.263797 250.103516 
L 208.511674 256.688822 
L 213.586831 263.593113 
L 216.516584 267.835026 
L 221.085184 274.982295 
L 250.046229 322.979843 
L 252.262514 327.137571 
L 254.90779 332.74186 
L 258.024658 339.724798 
L 263.302774 352.317972 
L 265.763508 359.411324 
L 267.436072 365.185531 
L 268.562302 369.563746 
L 271.827487 383.527273 
L 274.163681 394.864077 
L 277.358459 412.871075 
L 278.51582 420.956034 
L 279.916724 432.639731 
L 280.995588 443.199318 
L 282.060757 454.532763 
L 282.588612 461.89718 
L 283.043691 466.156683 
L 283.491306 467.650251 
L 283.90177 468.718896 
L 284.53946 469.917221 
L 285.274947 470.925325 
L 286.382574 472.065004 
L 287.865784 473.233966 
L 289.75576 474.377912 
L 291.369427 475.155518 
L 294.104368 476.167816 
L 296.284894 476.827229 
L 299.861192 477.667795 
L 303.943151 478.268275 
L 306.904905 478.539219 
L 313.318349 478.799034 
L 346.65899 479.098544 
L 424.060897 478.88782 
L 448.114823 478.78863 
L 458.934591 478.911307 
L 483.156487 479.250521 
L 505.531047 479.377426 
L 532.262347 479.265712 
L 551.541651 479.123757 
L 564.363863 479.157962 
L 596.046753 479.195728 
L 612.058916 479.146898 
L 662.736504 479.313937 
L 687.795115 479.536746 
L 711.90227 479.153592 
L 734.721754 479.005327 
L 790.598388 478.581689 
L 805.586465 478.443966 
L 821.23411 478.660044 
L 842.006605 479.560821 
L 849.979395 480.098854 
L 908.746891 484.571957 
L 926.865344 485.635473 
L 932.702743 485.951255 
L 932.702743 485.951255 
" clip-path="url(#p8cecd4df1c)" style="fill: none; stroke: #ffd700; stroke-width: 2; stroke-linecap: square"/>
   </g>
   <g id="patch_3">
    <path d="M 135 813.1752 
L 135 109.6416 
" style="fill: none; stroke: #000000; stroke-width: 3; stroke-linejoin: miter; stroke-linecap: square"/>
   </g>
   <g id="patch_4">
    <path d="M 972 813.1752 
L 972 109.6416 
" style="fill: none; stroke: #000000; stroke-width: 3; stroke-linejoin: miter; stroke-linecap: square"/>
   </g>
   <g id="patch_5">
    <path d="M 135 813.1752 
L 972 813.1752 
" style="fill: none; stroke: #000000; stroke-width: 3; stroke-linejoin: miter; stroke-linecap: square"/>
   </g>
   <g id="patch_6">
    <path d="M 135 109.6416 
L 972 109.6416 
" style="fill: none; stroke: #000000; stroke-width: 3; stroke-linejoin: miter; stroke-linecap: square"/>
   </g>
   <g id="PathCollection_1">
    <defs>
     <path id="m550b20f79a" d="M 0 -8.660254 
L -1.944348 -2.676166 
L -8.236391 -2.676166 
L -3.146021 1.022204 
L -5.09037 7.006293 
L -0 3.307923 
L 5.09037 7.006293 
L 3.146021 1.022204 
L 8.236391 -2.676166 
L 1.944348 -2.676166 
z
" style="stroke: #ff0000"/>
    </defs>
    <g clip-path="url(#p8cecd4df1c)">
     <use xlink:href="#m550b20f79a" x="268.360626" y="483.543805" style="fill: #ff0000; stroke: #ff0000"/>
    </g>
   </g>
   <g id="PathCollection_2">
    <g clip-path="url(#p8cecd4df1c)">
     <use xlink:href="#m550b20f79a" x="268.360626" y="483.543805" style="fill: #ff0000; stroke: #ff0000"/>
    </g>
   </g>
   <g id="PathCollection_3">
    <g clip-path="url(#p8cecd4df1c)">
     <use xlink:href="#m550b20f79a" x="268.360626" y="483.543805" style="fill: #ff0000; stroke: #ff0000"/>
    </g>
   </g>
   <g id="PathCollection_4">
    <g clip-path="url(#p8cecd4df1c)">
     <use xlink:href="#m550b20f79a" x="268.360626" y="483.543805" style="fill: #ff0000; stroke: #ff0000"/>
    </g>
   </g>
   <g id="PathCollection_5">
    <g clip-path="url(#p8cecd4df1c)">
     <use xlink:href="#m550b20f79a" x="268.360626" y="483.543805" style="fill: #ff0000; stroke: #ff0000"/>
    </g>
   </g>
   <g id="PathCollection_6">
    <g clip-path="url(#p8cecd4df1c)">
     <use xlink:href="#m550b20f79a" x="268.360626" y="483.543805" style="fill: #ff0000; stroke: #ff0000"/>
    </g>
   </g>
   <g id="text_12">
    <!-- kitti05 -->
    <g transform="translate(481.696875 100.283006) scale(0.45 -0.45)">
     <defs>
      <path id="DejaVuSans-6b" d="M 581 4863 
L 1159 4863 
L 1159 1991 
L 2875 3500 
L 3609 3500 
L 1753 1863 
L 3688 0 
L 2938 0 
L 1159 1709 
L 1159 0 
L 581 0 
L 581 4863 
z
" transform="scale(0.015625)"/>
      <path id="DejaVuSans-69" d="M 603 3500 
L 1178 3500 
L 1178 0 
L 603 0 
L 603 3500 
z
M 603 4863 
L 1178 4863 
L 1178 4134 
L 603 4134 
L 603 4863 
z
" transform="scale(0.015625)"/>
      <path id="DejaVuSans-74" d="M 1172 4494 
L 1172 3500 
L 2356 3500 
L 2356 3053 
L 1172 3053 
L 1172 1153 
Q 1172 725 1289 603 
Q 1406 481 1766 481 
L 2356 481 
L 2356 0 
L 1766 0 
Q 1100 0 847 248 
Q 594 497 594 1153 
L 594 3053 
L 172 3053 
L 172 3500 
L 594 3500 
L 594 4494 
L 1172 4494 
z
" transform="scale(0.015625)"/>
      <path id="DejaVuSans-35" d="M 691 4666 
L 3169 4666 
L 3169 4134 
L 1269 4134 
L 1269 2991 
Q 1406 3038 1543 3061 
Q 1681 3084 1819 3084 
Q 2600 3084 3056 2656 
Q 3513 2228 3513 1497 
Q 3513 744 3044 326 
Q 2575 -91 1722 -91 
Q 1428 -91 1123 -41 
Q 819 9 494 109 
L 494 744 
Q 775 591 1075 516 
Q 1375 441 1709 441 
Q 2250 441 2565 725 
Q 2881 1009 2881 1497 
Q 2881 1984 2565 2268 
Q 2250 2553 1709 2553 
Q 1456 2553 1204 2497 
Q 953 2441 691 2322 
L 691 4666 
z
" transform="scale(0.015625)"/>
     </defs>
     <use xlink:href="#DejaVuSans-6b"/>
     <use xlink:href="#DejaVuSans-69" x="57.910156"/>
     <use xlink:href="#DejaVuSans-74" x="85.693359"/>
     <use xlink:href="#DejaVuSans-74" x="124.902344"/>
     <use xlink:href="#DejaVuSans-69" x="164.111328"/>
     <use xlink:href="#DejaVuSans-30" x="191.894531"/>
     <use xlink:href="#DejaVuSans-35" x="255.517578"/>
    </g>
   </g>
   <g id="legend_1">
    <g id="patch_7">
     <path d="M 755.14375 301.7791 
L 958 301.7791 
Q 962 301.7791 962 297.7791 
L 962 123.6416 
Q 962 119.6416 958 119.6416 
L 755.14375 119.6416 
Q 751.14375 119.6416 751.14375 123.6416 
L 751.14375 297.7791 
Q 751.14375 301.7791 755.14375 301.7791 
z
" style="fill: #ffffff; opacity: 0.8; stroke: #cccccc; stroke-linejoin: miter"/>
    </g>
    <g id="line2d_25">
     <defs>
      <path id="m7c2abc28fe" d="M 0 -9 
L -2.020626 -2.781153 
L -8.559509 -2.781153 
L -3.269441 1.062306 
L -5.290067 7.281153 
L -0 3.437694 
L 5.290067 7.281153 
L 3.269441 1.062306 
L 8.559509 -2.781153 
L 2.020626 -2.781153 
z
" style="stroke: #ff0000; stroke-linejoin: bevel"/>
     </defs>
     <g>
      <use xlink:href="#m7c2abc28fe" x="789.14375" y="135.838475" style="fill: #ff0000; stroke: #ff0000; stroke-linejoin: bevel"/>
     </g>
    </g>
    <g id="text_13">
     <!-- Start -->
     <g transform="translate(835.14375 142.838475) scale(0.2 -0.2)">
      <defs>
       <path id="DejaVuSans-53" d="M 3425 4513 
L 3425 3897 
Q 3066 4069 2747 4153 
Q 2428 4238 2131 4238 
Q 1616 4238 1336 4038 
Q 1056 3838 1056 3469 
Q 1056 3159 1242 3001 
Q 1428 2844 1947 2747 
L 2328 2669 
Q 3034 2534 3370 2195 
Q 3706 1856 3706 1288 
Q 3706 609 3251 259 
Q 2797 -91 1919 -91 
Q 1588 -91 1214 -16 
Q 841 59 441 206 
L 441 856 
Q 825 641 1194 531 
Q 1563 422 1919 422 
Q 2459 422 2753 634 
Q 3047 847 3047 1241 
Q 3047 1584 2836 1778 
Q 2625 1972 2144 2069 
L 1759 2144 
Q 1053 2284 737 2584 
Q 422 2884 422 3419 
Q 422 4038 858 4394 
Q 1294 4750 2059 4750 
Q 2388 4750 2728 4690 
Q 3069 4631 3425 4513 
z
" transform="scale(0.015625)"/>
       <path id="DejaVuSans-61" d="M 2194 1759 
Q 1497 1759 1228 1600 
Q 959 1441 959 1056 
Q 959 750 1161 570 
Q 1363 391 1709 391 
Q 2188 391 2477 730 
Q 2766 1069 2766 1631 
L 2766 1759 
L 2194 1759 
z
M 3341 1997 
L 3341 0 
L 2766 0 
L 2766 531 
Q 2569 213 2275 61 
Q 1981 -91 1556 -91 
Q 1019 -91 701 211 
Q 384 513 384 1019 
Q 384 1609 779 1909 
Q 1175 2209 1959 2209 
L 2766 2209 
L 2766 2266 
Q 2766 2663 2505 2880 
Q 2244 3097 1772 3097 
Q 1472 3097 1187 3025 
Q 903 2953 641 2809 
L 641 3341 
Q 956 3463 1253 3523 
Q 1550 3584 1831 3584 
Q 2591 3584 2966 3190 
Q 3341 2797 3341 1997 
z
" transform="scale(0.015625)"/>
       <path id="DejaVuSans-72" d="M 2631 2963 
Q 2534 3019 2420 3045 
Q 2306 3072 2169 3072 
Q 1681 3072 1420 2755 
Q 1159 2438 1159 1844 
L 1159 0 
L 581 0 
L 581 3500 
L 1159 3500 
L 1159 2956 
Q 1341 3275 1631 3429 
Q 1922 3584 2338 3584 
Q 2397 3584 2469 3576 
Q 2541 3569 2628 3553 
L 2631 2963 
z
" transform="scale(0.015625)"/>
      </defs>
      <use xlink:href="#DejaVuSans-53"/>
      <use xlink:href="#DejaVuSans-74" x="63.476562"/>
      <use xlink:href="#DejaVuSans-61" x="102.685547"/>
      <use xlink:href="#DejaVuSans-72" x="163.964844"/>
      <use xlink:href="#DejaVuSans-74" x="205.078125"/>
     </g>
    </g>
    <g id="line2d_26">
     <path d="M 759.14375 165.194725 
L 789.14375 165.194725 
L 819.14375 165.194725 
" style="fill: none; stroke: #00ff00; stroke-width: 2; stroke-linecap: square"/>
    </g>
    <g id="text_14">
     <!-- ROLO+LC -->
     <g transform="translate(835.14375 172.194725) scale(0.2 -0.2)">
      <defs>
       <path id="DejaVuSans-52" d="M 2841 2188 
Q 3044 2119 3236 1894 
Q 3428 1669 3622 1275 
L 4263 0 
L 3584 0 
L 2988 1197 
Q 2756 1666 2539 1819 
Q 2322 1972 1947 1972 
L 1259 1972 
L 1259 0 
L 628 0 
L 628 4666 
L 2053 4666 
Q 2853 4666 3247 4331 
Q 3641 3997 3641 3322 
Q 3641 2881 3436 2590 
Q 3231 2300 2841 2188 
z
M 1259 4147 
L 1259 2491 
L 2053 2491 
Q 2509 2491 2742 2702 
Q 2975 2913 2975 3322 
Q 2975 3731 2742 3939 
Q 2509 4147 2053 4147 
L 1259 4147 
z
" transform="scale(0.015625)"/>
       <path id="DejaVuSans-4f" d="M 2522 4238 
Q 1834 4238 1429 3725 
Q 1025 3213 1025 2328 
Q 1025 1447 1429 934 
Q 1834 422 2522 422 
Q 3209 422 3611 934 
Q 4013 1447 4013 2328 
Q 4013 3213 3611 3725 
Q 3209 4238 2522 4238 
z
M 2522 4750 
Q 3503 4750 4090 4092 
Q 4678 3434 4678 2328 
Q 4678 1225 4090 567 
Q 3503 -91 2522 -91 
Q 1538 -91 948 565 
Q 359 1222 359 2328 
Q 359 3434 948 4092 
Q 1538 4750 2522 4750 
z
" transform="scale(0.015625)"/>
       <path id="DejaVuSans-4c" d="M 628 4666 
L 1259 4666 
L 1259 531 
L 3531 531 
L 3531 0 
L 628 0 
L 628 4666 
z
" transform="scale(0.015625)"/>
       <path id="DejaVuSans-2b" d="M 2944 4013 
L 2944 2272 
L 4684 2272 
L 4684 1741 
L 2944 1741 
L 2944 0 
L 2419 0 
L 2419 1741 
L 678 1741 
L 678 2272 
L 2419 2272 
L 2419 4013 
L 2944 4013 
z
" transform="scale(0.015625)"/>
       <path id="DejaVuSans-43" d="M 4122 4306 
L 4122 3641 
Q 3803 3938 3442 4084 
Q 3081 4231 2675 4231 
Q 1875 4231 1450 3742 
Q 1025 3253 1025 2328 
Q 1025 1406 1450 917 
Q 1875 428 2675 428 
Q 3081 428 3442 575 
Q 3803 722 4122 1019 
L 4122 359 
Q 3791 134 3420 21 
Q 3050 -91 2638 -91 
Q 1578 -91 968 557 
Q 359 1206 359 2328 
Q 359 3453 968 4101 
Q 1578 4750 2638 4750 
Q 3056 4750 3426 4639 
Q 3797 4528 4122 4306 
z
" transform="scale(0.015625)"/>
      </defs>
      <use xlink:href="#DejaVuSans-52"/>
      <use xlink:href="#DejaVuSans-4f" x="69.482422"/>
      <use xlink:href="#DejaVuSans-4c" x="148.193359"/>
      <use xlink:href="#DejaVuSans-4f" x="200.28125"/>
      <use xlink:href="#DejaVuSans-2b" x="278.992188"/>
      <use xlink:href="#DejaVuSans-4c" x="362.78125"/>
      <use xlink:href="#DejaVuSans-43" x="418.494141"/>
     </g>
    </g>
    <g id="line2d_27">
     <path d="M 759.14375 194.550975 
L 789.14375 194.550975 
L 819.14375 194.550975 
" style="fill: none; stroke: #0000ff; stroke-width: 2; stroke-linecap: square"/>
    </g>
    <g id="text_15">
     <!-- LOAM -->
     <g transform="translate(835.14375 201.550975) scale(0.2 -0.2)">
      <defs>
       <path id="DejaVuSans-41" d="M 2188 4044 
L 1331 1722 
L 3047 1722 
L 2188 4044 
z
M 1831 4666 
L 2547 4666 
L 4325 0 
L 3669 0 
L 3244 1197 
L 1141 1197 
L 716 0 
L 50 0 
L 1831 4666 
z
" transform="scale(0.015625)"/>
       <path id="DejaVuSans-4d" d="M 628 4666 
L 1569 4666 
L 2759 1491 
L 3956 4666 
L 4897 4666 
L 4897 0 
L 4281 0 
L 4281 4097 
L 3078 897 
L 2444 897 
L 1241 4097 
L 1241 0 
L 628 0 
L 628 4666 
z
" transform="scale(0.015625)"/>
      </defs>
      <use xlink:href="#DejaVuSans-4c"/>
      <use xlink:href="#DejaVuSans-4f" x="52.087891"/>
      <use xlink:href="#DejaVuSans-41" x="129.048828"/>
      <use xlink:href="#DejaVuSans-4d" x="197.457031"/>
     </g>
    </g>
    <g id="line2d_28">
     <path d="M 759.14375 223.907225 
L 789.14375 223.907225 
L 819.14375 223.907225 
" style="fill: none; stroke: #9933fa; stroke-width: 2; stroke-linecap: square"/>
    </g>
    <g id="text_16">
     <!-- LeGO-LOAM -->
     <g transform="translate(835.14375 230.907225) scale(0.2 -0.2)">
      <defs>
       <path id="DejaVuSans-65" d="M 3597 1894 
L 3597 1613 
L 953 1613 
Q 991 1019 1311 708 
Q 1631 397 2203 397 
Q 2534 397 2845 478 
Q 3156 559 3463 722 
L 3463 178 
Q 3153 47 2828 -22 
Q 2503 -91 2169 -91 
Q 1331 -91 842 396 
Q 353 884 353 1716 
Q 353 2575 817 3079 
Q 1281 3584 2069 3584 
Q 2775 3584 3186 3129 
Q 3597 2675 3597 1894 
z
M 3022 2063 
Q 3016 2534 2758 2815 
Q 2500 3097 2075 3097 
Q 1594 3097 1305 2825 
Q 1016 2553 972 2059 
L 3022 2063 
z
" transform="scale(0.015625)"/>
       <path id="DejaVuSans-47" d="M 3809 666 
L 3809 1919 
L 2778 1919 
L 2778 2438 
L 4434 2438 
L 4434 434 
Q 4069 175 3628 42 
Q 3188 -91 2688 -91 
Q 1594 -91 976 548 
Q 359 1188 359 2328 
Q 359 3472 976 4111 
Q 1594 4750 2688 4750 
Q 3144 4750 3555 4637 
Q 3966 4525 4313 4306 
L 4313 3634 
Q 3963 3931 3569 4081 
Q 3175 4231 2741 4231 
Q 1884 4231 1454 3753 
Q 1025 3275 1025 2328 
Q 1025 1384 1454 906 
Q 1884 428 2741 428 
Q 3075 428 3337 486 
Q 3600 544 3809 666 
z
" transform="scale(0.015625)"/>
       <path id="DejaVuSans-2d" d="M 313 2009 
L 1997 2009 
L 1997 1497 
L 313 1497 
L 313 2009 
z
" transform="scale(0.015625)"/>
      </defs>
      <use xlink:href="#DejaVuSans-4c"/>
      <use xlink:href="#DejaVuSans-65" x="53.962891"/>
      <use xlink:href="#DejaVuSans-47" x="115.486328"/>
      <use xlink:href="#DejaVuSans-4f" x="192.976562"/>
      <use xlink:href="#DejaVuSans-2d" x="274.4375"/>
      <use xlink:href="#DejaVuSans-4c" x="310.521484"/>
      <use xlink:href="#DejaVuSans-4f" x="362.609375"/>
      <use xlink:href="#DejaVuSans-41" x="439.570312"/>
      <use xlink:href="#DejaVuSans-4d" x="507.978516"/>
     </g>
    </g>
    <g id="line2d_29">
     <path d="M 759.14375 253.263475 
L 789.14375 253.263475 
L 819.14375 253.263475 
" style="fill: none; stroke: #ff0000; stroke-width: 2; stroke-linecap: square"/>
    </g>
    <g id="text_17">
     <!-- CT-ICP -->
     <g transform="translate(835.14375 260.263475) scale(0.2 -0.2)">
      <defs>
       <path id="DejaVuSans-54" d="M -19 4666 
L 3928 4666 
L 3928 4134 
L 2272 4134 
L 2272 0 
L 1638 0 
L 1638 4134 
L -19 4134 
L -19 4666 
z
" transform="scale(0.015625)"/>
       <path id="DejaVuSans-49" d="M 628 4666 
L 1259 4666 
L 1259 0 
L 628 0 
L 628 4666 
z
" transform="scale(0.015625)"/>
       <path id="DejaVuSans-50" d="M 1259 4147 
L 1259 2394 
L 2053 2394 
Q 2494 2394 2734 2622 
Q 2975 2850 2975 3272 
Q 2975 3691 2734 3919 
Q 2494 4147 2053 4147 
L 1259 4147 
z
M 628 4666 
L 2053 4666 
Q 2838 4666 3239 4311 
Q 3641 3956 3641 3272 
Q 3641 2581 3239 2228 
Q 2838 1875 2053 1875 
L 1259 1875 
L 1259 0 
L 628 0 
L 628 4666 
z
" transform="scale(0.015625)"/>
      </defs>
      <use xlink:href="#DejaVuSans-43"/>
      <use xlink:href="#DejaVuSans-54" x="69.824219"/>
      <use xlink:href="#DejaVuSans-2d" x="121.783203"/>
      <use xlink:href="#DejaVuSans-49" x="157.867188"/>
      <use xlink:href="#DejaVuSans-43" x="187.359375"/>
      <use xlink:href="#DejaVuSans-50" x="257.183594"/>
     </g>
    </g>
    <g id="line2d_30">
     <path d="M 759.14375 282.619725 
L 789.14375 282.619725 
L 819.14375 282.619725 
" style="fill: none; stroke: #ffd700; stroke-width: 2; stroke-linecap: square"/>
    </g>
    <g id="text_18">
     <!-- HDL-SLAM -->
     <g transform="translate(835.14375 289.619725) scale(0.2 -0.2)">
      <defs>
       <path id="DejaVuSans-48" d="M 628 4666 
L 1259 4666 
L 1259 2753 
L 3553 2753 
L 3553 4666 
L 4184 4666 
L 4184 0 
L 3553 0 
L 3553 2222 
L 1259 2222 
L 1259 0 
L 628 0 
L 628 4666 
z
" transform="scale(0.015625)"/>
       <path id="DejaVuSans-44" d="M 1259 4147 
L 1259 519 
L 2022 519 
Q 2988 519 3436 956 
Q 3884 1394 3884 2338 
Q 3884 3275 3436 3711 
Q 2988 4147 2022 4147 
L 1259 4147 
z
M 628 4666 
L 1925 4666 
Q 3281 4666 3915 4102 
Q 4550 3538 4550 2338 
Q 4550 1131 3912 565 
Q 3275 0 1925 0 
L 628 0 
L 628 4666 
z
" transform="scale(0.015625)"/>
      </defs>
      <use xlink:href="#DejaVuSans-48"/>
      <use xlink:href="#DejaVuSans-44" x="75.195312"/>
      <use xlink:href="#DejaVuSans-4c" x="152.197266"/>
      <use xlink:href="#DejaVuSans-2d" x="206.160156"/>
      <use xlink:href="#DejaVuSans-53" x="242.244141"/>
      <use xlink:href="#DejaVuSans-4c" x="305.720703"/>
      <use xlink:href="#DejaVuSans-41" x="363.683594"/>
      <use xlink:href="#DejaVuSans-4d" x="432.091797"/>
     </g>
    </g>
   </g>
  </g>
 </g>
 <defs>
  <clipPath id="p8cecd4df1c">
   <rect x="135" y="109.6416" width="837" height="703.5336"/>
  </clipPath>
 </defs>
</svg>
